<?xml version="1.0" encoding="utf-8" standalone="no"?>
<!DOCTYPE svg PUBLIC "-//W3C//DTD SVG 1.1//EN"
  "http://www.w3.org/Graphics/SVG/1.1/DTD/svg11.dtd">
<svg xmlns:xlink="http://www.w3.org/1999/xlink" width="414.127187pt" height="316.271687pt" viewBox="0 0 414.127187 316.271687" xmlns="http://www.w3.org/2000/svg" version="1.1">
 <metadata>
  <rdf:RDF xmlns:dc="http://purl.org/dc/elements/1.1/" xmlns:cc="http://creativecommons.org/ns#" xmlns:rdf="http://www.w3.org/1999/02/22-rdf-syntax-ns#">
   <cc:Work>
    <dc:type rdf:resource="http://purl.org/dc/dcmitype/StillImage"/>
    <dc:date>2023-03-01T21:46:28.777786</dc:date>
    <dc:format>image/svg+xml</dc:format>
    <dc:creator>
     <cc:Agent>
      <dc:title>Matplotlib v3.6.3, https://matplotlib.org/</dc:title>
     </cc:Agent>
    </dc:creator>
   </cc:Work>
  </rdf:RDF>
 </metadata>
 <defs>
  <style type="text/css">*{stroke-linejoin: round; stroke-linecap: butt}</style>
 </defs>
 <g id="figure_1">
  <g id="patch_1">
   <path d="M 0 316.271687 
L 414.127187 316.271687 
L 414.127187 0 
L 0 0 
z
" style="fill: #ffffff"/>
  </g>
  <g id="axes_1">
   <g id="patch_2">
    <path d="M 49.807187 273.312 
L 406.927188 273.312 
L 406.927188 7.2 
L 49.807187 7.2 
z
" style="fill: #ffffff"/>
   </g>
   <g id="matplotlib.axis_1">
    <g id="xtick_1">
     <g id="line2d_1">
      <path d="M 62.760576 273.312 
L 62.760576 7.2 
" clip-path="url(#p4c589b6469)" style="fill: none; stroke: #cccccc; stroke-linecap: round"/>
     </g>
     <g id="text_1">
      <!-- 0 -->
      <g style="fill: #262626" transform="translate(59.261201 291.170281) scale(0.11 -0.11)">
       <defs>
        <path id="DejaVuSans-30" d="M 2034 4250 
Q 1547 4250 1301 3770 
Q 1056 3291 1056 2328 
Q 1056 1369 1301 889 
Q 1547 409 2034 409 
Q 2525 409 2770 889 
Q 3016 1369 3016 2328 
Q 3016 3291 2770 3770 
Q 2525 4250 2034 4250 
z
M 2034 4750 
Q 2819 4750 3233 4129 
Q 3647 3509 3647 2328 
Q 3647 1150 3233 529 
Q 2819 -91 2034 -91 
Q 1250 -91 836 529 
Q 422 1150 422 2328 
Q 422 3509 836 4129 
Q 1250 4750 2034 4750 
z
" transform="scale(0.015625)"/>
       </defs>
       <use xlink:href="#DejaVuSans-30"/>
      </g>
     </g>
    </g>
    <g id="xtick_2">
     <g id="line2d_2">
      <path d="M 128.347353 273.312 
L 128.347353 7.2 
" clip-path="url(#p4c589b6469)" style="fill: none; stroke: #cccccc; stroke-linecap: round"/>
     </g>
     <g id="text_2">
      <!-- 20 -->
      <g style="fill: #262626" transform="translate(121.348603 291.170281) scale(0.11 -0.11)">
       <defs>
        <path id="DejaVuSans-32" d="M 1228 531 
L 3431 531 
L 3431 0 
L 469 0 
L 469 531 
Q 828 903 1448 1529 
Q 2069 2156 2228 2338 
Q 2531 2678 2651 2914 
Q 2772 3150 2772 3378 
Q 2772 3750 2511 3984 
Q 2250 4219 1831 4219 
Q 1534 4219 1204 4116 
Q 875 4013 500 3803 
L 500 4441 
Q 881 4594 1212 4672 
Q 1544 4750 1819 4750 
Q 2544 4750 2975 4387 
Q 3406 4025 3406 3419 
Q 3406 3131 3298 2873 
Q 3191 2616 2906 2266 
Q 2828 2175 2409 1742 
Q 1991 1309 1228 531 
z
" transform="scale(0.015625)"/>
       </defs>
       <use xlink:href="#DejaVuSans-32"/>
       <use xlink:href="#DejaVuSans-30" x="63.623047"/>
      </g>
     </g>
    </g>
    <g id="xtick_3">
     <g id="line2d_3">
      <path d="M 193.93413 273.312 
L 193.93413 7.2 
" clip-path="url(#p4c589b6469)" style="fill: none; stroke: #cccccc; stroke-linecap: round"/>
     </g>
     <g id="text_3">
      <!-- 40 -->
      <g style="fill: #262626" transform="translate(186.93538 291.170281) scale(0.11 -0.11)">
       <defs>
        <path id="DejaVuSans-34" d="M 2419 4116 
L 825 1625 
L 2419 1625 
L 2419 4116 
z
M 2253 4666 
L 3047 4666 
L 3047 1625 
L 3713 1625 
L 3713 1100 
L 3047 1100 
L 3047 0 
L 2419 0 
L 2419 1100 
L 313 1100 
L 313 1709 
L 2253 4666 
z
" transform="scale(0.015625)"/>
       </defs>
       <use xlink:href="#DejaVuSans-34"/>
       <use xlink:href="#DejaVuSans-30" x="63.623047"/>
      </g>
     </g>
    </g>
    <g id="xtick_4">
     <g id="line2d_4">
      <path d="M 259.520907 273.312 
L 259.520907 7.2 
" clip-path="url(#p4c589b6469)" style="fill: none; stroke: #cccccc; stroke-linecap: round"/>
     </g>
     <g id="text_4">
      <!-- 60 -->
      <g style="fill: #262626" transform="translate(252.522157 291.170281) scale(0.11 -0.11)">
       <defs>
        <path id="DejaVuSans-36" d="M 2113 2584 
Q 1688 2584 1439 2293 
Q 1191 2003 1191 1497 
Q 1191 994 1439 701 
Q 1688 409 2113 409 
Q 2538 409 2786 701 
Q 3034 994 3034 1497 
Q 3034 2003 2786 2293 
Q 2538 2584 2113 2584 
z
M 3366 4563 
L 3366 3988 
Q 3128 4100 2886 4159 
Q 2644 4219 2406 4219 
Q 1781 4219 1451 3797 
Q 1122 3375 1075 2522 
Q 1259 2794 1537 2939 
Q 1816 3084 2150 3084 
Q 2853 3084 3261 2657 
Q 3669 2231 3669 1497 
Q 3669 778 3244 343 
Q 2819 -91 2113 -91 
Q 1303 -91 875 529 
Q 447 1150 447 2328 
Q 447 3434 972 4092 
Q 1497 4750 2381 4750 
Q 2619 4750 2861 4703 
Q 3103 4656 3366 4563 
z
" transform="scale(0.015625)"/>
       </defs>
       <use xlink:href="#DejaVuSans-36"/>
       <use xlink:href="#DejaVuSans-30" x="63.623047"/>
      </g>
     </g>
    </g>
    <g id="xtick_5">
     <g id="line2d_5">
      <path d="M 325.107683 273.312 
L 325.107683 7.2 
" clip-path="url(#p4c589b6469)" style="fill: none; stroke: #cccccc; stroke-linecap: round"/>
     </g>
     <g id="text_5">
      <!-- 80 -->
      <g style="fill: #262626" transform="translate(318.108933 291.170281) scale(0.11 -0.11)">
       <defs>
        <path id="DejaVuSans-38" d="M 2034 2216 
Q 1584 2216 1326 1975 
Q 1069 1734 1069 1313 
Q 1069 891 1326 650 
Q 1584 409 2034 409 
Q 2484 409 2743 651 
Q 3003 894 3003 1313 
Q 3003 1734 2745 1975 
Q 2488 2216 2034 2216 
z
M 1403 2484 
Q 997 2584 770 2862 
Q 544 3141 544 3541 
Q 544 4100 942 4425 
Q 1341 4750 2034 4750 
Q 2731 4750 3128 4425 
Q 3525 4100 3525 3541 
Q 3525 3141 3298 2862 
Q 3072 2584 2669 2484 
Q 3125 2378 3379 2068 
Q 3634 1759 3634 1313 
Q 3634 634 3220 271 
Q 2806 -91 2034 -91 
Q 1263 -91 848 271 
Q 434 634 434 1313 
Q 434 1759 690 2068 
Q 947 2378 1403 2484 
z
M 1172 3481 
Q 1172 3119 1398 2916 
Q 1625 2713 2034 2713 
Q 2441 2713 2670 2916 
Q 2900 3119 2900 3481 
Q 2900 3844 2670 4047 
Q 2441 4250 2034 4250 
Q 1625 4250 1398 4047 
Q 1172 3844 1172 3481 
z
" transform="scale(0.015625)"/>
       </defs>
       <use xlink:href="#DejaVuSans-38"/>
       <use xlink:href="#DejaVuSans-30" x="63.623047"/>
      </g>
     </g>
    </g>
    <g id="xtick_6">
     <g id="line2d_6">
      <path d="M 390.69446 273.312 
L 390.69446 7.2 
" clip-path="url(#p4c589b6469)" style="fill: none; stroke: #cccccc; stroke-linecap: round"/>
     </g>
     <g id="text_6">
      <!-- 100 -->
      <g style="fill: #262626" transform="translate(380.196335 291.170281) scale(0.11 -0.11)">
       <defs>
        <path id="DejaVuSans-31" d="M 794 531 
L 1825 531 
L 1825 4091 
L 703 3866 
L 703 4441 
L 1819 4666 
L 2450 4666 
L 2450 531 
L 3481 531 
L 3481 0 
L 794 0 
L 794 531 
z
" transform="scale(0.015625)"/>
       </defs>
       <use xlink:href="#DejaVuSans-31"/>
       <use xlink:href="#DejaVuSans-30" x="63.623047"/>
       <use xlink:href="#DejaVuSans-30" x="127.246094"/>
      </g>
     </g>
    </g>
    <g id="text_7">
     <!-- Round -->
     <g style="fill: #262626" transform="translate(209.382812 306.576062) scale(0.12 -0.12)">
      <defs>
       <path id="DejaVuSans-52" d="M 2841 2188 
Q 3044 2119 3236 1894 
Q 3428 1669 3622 1275 
L 4263 0 
L 3584 0 
L 2988 1197 
Q 2756 1666 2539 1819 
Q 2322 1972 1947 1972 
L 1259 1972 
L 1259 0 
L 628 0 
L 628 4666 
L 2053 4666 
Q 2853 4666 3247 4331 
Q 3641 3997 3641 3322 
Q 3641 2881 3436 2590 
Q 3231 2300 2841 2188 
z
M 1259 4147 
L 1259 2491 
L 2053 2491 
Q 2509 2491 2742 2702 
Q 2975 2913 2975 3322 
Q 2975 3731 2742 3939 
Q 2509 4147 2053 4147 
L 1259 4147 
z
" transform="scale(0.015625)"/>
       <path id="DejaVuSans-6f" d="M 1959 3097 
Q 1497 3097 1228 2736 
Q 959 2375 959 1747 
Q 959 1119 1226 758 
Q 1494 397 1959 397 
Q 2419 397 2687 759 
Q 2956 1122 2956 1747 
Q 2956 2369 2687 2733 
Q 2419 3097 1959 3097 
z
M 1959 3584 
Q 2709 3584 3137 3096 
Q 3566 2609 3566 1747 
Q 3566 888 3137 398 
Q 2709 -91 1959 -91 
Q 1206 -91 779 398 
Q 353 888 353 1747 
Q 353 2609 779 3096 
Q 1206 3584 1959 3584 
z
" transform="scale(0.015625)"/>
       <path id="DejaVuSans-75" d="M 544 1381 
L 544 3500 
L 1119 3500 
L 1119 1403 
Q 1119 906 1312 657 
Q 1506 409 1894 409 
Q 2359 409 2629 706 
Q 2900 1003 2900 1516 
L 2900 3500 
L 3475 3500 
L 3475 0 
L 2900 0 
L 2900 538 
Q 2691 219 2414 64 
Q 2138 -91 1772 -91 
Q 1169 -91 856 284 
Q 544 659 544 1381 
z
M 1991 3584 
L 1991 3584 
z
" transform="scale(0.015625)"/>
       <path id="DejaVuSans-6e" d="M 3513 2113 
L 3513 0 
L 2938 0 
L 2938 2094 
Q 2938 2591 2744 2837 
Q 2550 3084 2163 3084 
Q 1697 3084 1428 2787 
Q 1159 2491 1159 1978 
L 1159 0 
L 581 0 
L 581 3500 
L 1159 3500 
L 1159 2956 
Q 1366 3272 1645 3428 
Q 1925 3584 2291 3584 
Q 2894 3584 3203 3211 
Q 3513 2838 3513 2113 
z
" transform="scale(0.015625)"/>
       <path id="DejaVuSans-64" d="M 2906 2969 
L 2906 4863 
L 3481 4863 
L 3481 0 
L 2906 0 
L 2906 525 
Q 2725 213 2448 61 
Q 2172 -91 1784 -91 
Q 1150 -91 751 415 
Q 353 922 353 1747 
Q 353 2572 751 3078 
Q 1150 3584 1784 3584 
Q 2172 3584 2448 3432 
Q 2725 3281 2906 2969 
z
M 947 1747 
Q 947 1113 1208 752 
Q 1469 391 1925 391 
Q 2381 391 2643 752 
Q 2906 1113 2906 1747 
Q 2906 2381 2643 2742 
Q 2381 3103 1925 3103 
Q 1469 3103 1208 2742 
Q 947 2381 947 1747 
z
" transform="scale(0.015625)"/>
      </defs>
      <use xlink:href="#DejaVuSans-52"/>
      <use xlink:href="#DejaVuSans-6f" x="64.982422"/>
      <use xlink:href="#DejaVuSans-75" x="126.164062"/>
      <use xlink:href="#DejaVuSans-6e" x="189.542969"/>
      <use xlink:href="#DejaVuSans-64" x="252.921875"/>
     </g>
    </g>
   </g>
   <g id="matplotlib.axis_2">
    <g id="ytick_1">
     <g id="line2d_7">
      <path d="M 49.807187 252.254816 
L 406.927188 252.254816 
" clip-path="url(#p4c589b6469)" style="fill: none; stroke: #cccccc; stroke-linecap: round"/>
     </g>
     <g id="text_8">
      <!-- 0.5 -->
      <g style="fill: #262626" transform="translate(22.81375 256.433957) scale(0.11 -0.11)">
       <defs>
        <path id="DejaVuSans-2e" d="M 684 794 
L 1344 794 
L 1344 0 
L 684 0 
L 684 794 
z
" transform="scale(0.015625)"/>
        <path id="DejaVuSans-35" d="M 691 4666 
L 3169 4666 
L 3169 4134 
L 1269 4134 
L 1269 2991 
Q 1406 3038 1543 3061 
Q 1681 3084 1819 3084 
Q 2600 3084 3056 2656 
Q 3513 2228 3513 1497 
Q 3513 744 3044 326 
Q 2575 -91 1722 -91 
Q 1428 -91 1123 -41 
Q 819 9 494 109 
L 494 744 
Q 775 591 1075 516 
Q 1375 441 1709 441 
Q 2250 441 2565 725 
Q 2881 1009 2881 1497 
Q 2881 1984 2565 2268 
Q 2250 2553 1709 2553 
Q 1456 2553 1204 2497 
Q 953 2441 691 2322 
L 691 4666 
z
" transform="scale(0.015625)"/>
       </defs>
       <use xlink:href="#DejaVuSans-30"/>
       <use xlink:href="#DejaVuSans-2e" x="63.623047"/>
       <use xlink:href="#DejaVuSans-35" x="95.410156"/>
      </g>
     </g>
    </g>
    <g id="ytick_2">
     <g id="line2d_8">
      <path d="M 49.807187 207.707296 
L 406.927188 207.707296 
" clip-path="url(#p4c589b6469)" style="fill: none; stroke: #cccccc; stroke-linecap: round"/>
     </g>
     <g id="text_9">
      <!-- 1.0 -->
      <g style="fill: #262626" transform="translate(22.81375 211.886436) scale(0.11 -0.11)">
       <use xlink:href="#DejaVuSans-31"/>
       <use xlink:href="#DejaVuSans-2e" x="63.623047"/>
       <use xlink:href="#DejaVuSans-30" x="95.410156"/>
      </g>
     </g>
    </g>
    <g id="ytick_3">
     <g id="line2d_9">
      <path d="M 49.807187 163.159776 
L 406.927188 163.159776 
" clip-path="url(#p4c589b6469)" style="fill: none; stroke: #cccccc; stroke-linecap: round"/>
     </g>
     <g id="text_10">
      <!-- 1.5 -->
      <g style="fill: #262626" transform="translate(22.81375 167.338916) scale(0.11 -0.11)">
       <use xlink:href="#DejaVuSans-31"/>
       <use xlink:href="#DejaVuSans-2e" x="63.623047"/>
       <use xlink:href="#DejaVuSans-35" x="95.410156"/>
      </g>
     </g>
    </g>
    <g id="ytick_4">
     <g id="line2d_10">
      <path d="M 49.807187 118.612255 
L 406.927188 118.612255 
" clip-path="url(#p4c589b6469)" style="fill: none; stroke: #cccccc; stroke-linecap: round"/>
     </g>
     <g id="text_11">
      <!-- 2.0 -->
      <g style="fill: #262626" transform="translate(22.81375 122.791396) scale(0.11 -0.11)">
       <use xlink:href="#DejaVuSans-32"/>
       <use xlink:href="#DejaVuSans-2e" x="63.623047"/>
       <use xlink:href="#DejaVuSans-30" x="95.410156"/>
      </g>
     </g>
    </g>
    <g id="ytick_5">
     <g id="line2d_11">
      <path d="M 49.807187 74.064735 
L 406.927188 74.064735 
" clip-path="url(#p4c589b6469)" style="fill: none; stroke: #cccccc; stroke-linecap: round"/>
     </g>
     <g id="text_12">
      <!-- 2.5 -->
      <g style="fill: #262626" transform="translate(22.81375 78.243876) scale(0.11 -0.11)">
       <use xlink:href="#DejaVuSans-32"/>
       <use xlink:href="#DejaVuSans-2e" x="63.623047"/>
       <use xlink:href="#DejaVuSans-35" x="95.410156"/>
      </g>
     </g>
    </g>
    <g id="ytick_6">
     <g id="line2d_12">
      <path d="M 49.807187 29.517215 
L 406.927188 29.517215 
" clip-path="url(#p4c589b6469)" style="fill: none; stroke: #cccccc; stroke-linecap: round"/>
     </g>
     <g id="text_13">
      <!-- 3.0 -->
      <g style="fill: #262626" transform="translate(22.81375 33.696356) scale(0.11 -0.11)">
       <defs>
        <path id="DejaVuSans-33" d="M 2597 2516 
Q 3050 2419 3304 2112 
Q 3559 1806 3559 1356 
Q 3559 666 3084 287 
Q 2609 -91 1734 -91 
Q 1441 -91 1130 -33 
Q 819 25 488 141 
L 488 750 
Q 750 597 1062 519 
Q 1375 441 1716 441 
Q 2309 441 2620 675 
Q 2931 909 2931 1356 
Q 2931 1769 2642 2001 
Q 2353 2234 1838 2234 
L 1294 2234 
L 1294 2753 
L 1863 2753 
Q 2328 2753 2575 2939 
Q 2822 3125 2822 3475 
Q 2822 3834 2567 4026 
Q 2313 4219 1838 4219 
Q 1578 4219 1281 4162 
Q 984 4106 628 3988 
L 628 4550 
Q 988 4650 1302 4700 
Q 1616 4750 1894 4750 
Q 2613 4750 3031 4423 
Q 3450 4097 3450 3541 
Q 3450 3153 3228 2886 
Q 3006 2619 2597 2516 
z
" transform="scale(0.015625)"/>
       </defs>
       <use xlink:href="#DejaVuSans-33"/>
       <use xlink:href="#DejaVuSans-2e" x="63.623047"/>
       <use xlink:href="#DejaVuSans-30" x="95.410156"/>
      </g>
     </g>
    </g>
    <g id="text_14">
     <!-- Loss -->
     <g style="fill: #262626" transform="translate(16.318125 153.416625) rotate(-90) scale(0.12 -0.12)">
      <defs>
       <path id="DejaVuSans-4c" d="M 628 4666 
L 1259 4666 
L 1259 531 
L 3531 531 
L 3531 0 
L 628 0 
L 628 4666 
z
" transform="scale(0.015625)"/>
       <path id="DejaVuSans-73" d="M 2834 3397 
L 2834 2853 
Q 2591 2978 2328 3040 
Q 2066 3103 1784 3103 
Q 1356 3103 1142 2972 
Q 928 2841 928 2578 
Q 928 2378 1081 2264 
Q 1234 2150 1697 2047 
L 1894 2003 
Q 2506 1872 2764 1633 
Q 3022 1394 3022 966 
Q 3022 478 2636 193 
Q 2250 -91 1575 -91 
Q 1294 -91 989 -36 
Q 684 19 347 128 
L 347 722 
Q 666 556 975 473 
Q 1284 391 1588 391 
Q 1994 391 2212 530 
Q 2431 669 2431 922 
Q 2431 1156 2273 1281 
Q 2116 1406 1581 1522 
L 1381 1569 
Q 847 1681 609 1914 
Q 372 2147 372 2553 
Q 372 3047 722 3315 
Q 1072 3584 1716 3584 
Q 2034 3584 2315 3537 
Q 2597 3491 2834 3397 
z
" transform="scale(0.015625)"/>
      </defs>
      <use xlink:href="#DejaVuSans-4c"/>
      <use xlink:href="#DejaVuSans-6f" x="53.962891"/>
      <use xlink:href="#DejaVuSans-73" x="115.144531"/>
      <use xlink:href="#DejaVuSans-73" x="167.244141"/>
     </g>
    </g>
   </g>
   <g id="PolyCollection_1">
    <defs>
     <path id="me38b96165e" d="M 66.039915 -221.489229 
L 66.039915 -176.95157 
L 69.319254 -141.944177 
L 72.598592 -123.037831 
L 75.877931 -114.876028 
L 79.15727 -108.666167 
L 82.436609 -100.549795 
L 85.715948 -96.769911 
L 88.995287 -100.791742 
L 92.274626 -91.786503 
L 95.553964 -85.653939 
L 98.833303 -83.870064 
L 102.112642 -84.722154 
L 105.391981 -81.360914 
L 108.67132 -79.474903 
L 111.950659 -77.425834 
L 115.229997 -82.781615 
L 118.509336 -75.55218 
L 121.788675 -77.237364 
L 125.068014 -76.417499 
L 128.347353 -78.067145 
L 131.626692 -75.635104 
L 134.90603 -72.074499 
L 138.185369 -72.623001 
L 141.464708 -74.387172 
L 144.744047 -70.862265 
L 148.023386 -71.346398 
L 151.302725 -70.352047 
L 154.582064 -72.979237 
L 157.861402 -70.07093 
L 161.140741 -68.954449 
L 164.42008 -67.138569 
L 167.699419 -65.64149 
L 170.978758 -66.83079 
L 174.258097 -66.258945 
L 177.537435 -64.944306 
L 180.816774 -64.643501 
L 184.096113 -65.062161 
L 187.375452 -64.250581 
L 190.654791 -66.977406 
L 193.93413 -65.540097 
L 197.213468 -62.558744 
L 200.492807 -62.774028 
L 203.772146 -63.54078 
L 207.051485 -61.992612 
L 210.330824 -62.154015 
L 213.610163 -61.669796 
L 216.889502 -60.491379 
L 220.16884 -61.303481 
L 223.448179 -61.026084 
L 226.727518 -61.367543 
L 230.006857 -61.534702 
L 233.286196 -62.673111 
L 236.565535 -62.241498 
L 239.844873 -59.497814 
L 243.124212 -61.195126 
L 246.403551 -60.260955 
L 249.68289 -59.023031 
L 252.962229 -59.112117 
L 256.241568 -56.953532 
L 259.520907 -58.727226 
L 262.800245 -58.651679 
L 266.079584 -59.242355 
L 269.358923 -57.239657 
L 272.638262 -57.036125 
L 275.917601 -57.41978 
L 279.19694 -55.055687 
L 282.476278 -55.397546 
L 285.755617 -57.425667 
L 289.034956 -57.79065 
L 292.314295 -66.698107 
L 295.593634 -65.781714 
L 298.872973 -66.162159 
L 302.152311 -65.507849 
L 305.43165 -65.398162 
L 308.710989 -64.675725 
L 311.990328 -64.385648 
L 315.269667 -64.753732 
L 318.549006 -63.242302 
L 321.828345 -64.523109 
L 325.107683 -64.340731 
L 328.387022 -64.748125 
L 331.666361 -64.055766 
L 334.9457 -64.446702 
L 338.225039 -65.385962 
L 341.504378 -65.337517 
L 344.783716 -62.987449 
L 348.063055 -65.013333 
L 351.342394 -66.42072 
L 354.621733 -66.714941 
L 357.901072 -64.682511 
L 361.180411 -67.471652 
L 364.459749 -66.384832 
L 367.739088 -64.712363 
L 371.018427 -65.248116 
L 374.297766 -66.133938 
L 377.577105 -66.086113 
L 380.856444 -64.28808 
L 384.135783 -66.804272 
L 387.415121 -64.859008 
L 390.69446 -64.697031 
L 390.69446 -81.945837 
L 390.69446 -81.945837 
L 387.415121 -81.951393 
L 384.135783 -84.836744 
L 380.856444 -80.926798 
L 377.577105 -83.213697 
L 374.297766 -83.490067 
L 371.018427 -83.446216 
L 367.739088 -81.955906 
L 364.459749 -85.444568 
L 361.180411 -87.304241 
L 357.901072 -82.344306 
L 354.621733 -84.214556 
L 351.342394 -83.261199 
L 348.063055 -82.627719 
L 344.783716 -79.882475 
L 341.504378 -82.090036 
L 338.225039 -82.710116 
L 334.9457 -81.515872 
L 331.666361 -81.073337 
L 328.387022 -80.892247 
L 325.107683 -82.323896 
L 321.828345 -82.702607 
L 318.549006 -80.082334 
L 315.269667 -80.567534 
L 311.990328 -79.57416 
L 308.710989 -79.940464 
L 305.43165 -80.415064 
L 302.152311 -81.619595 
L 298.872973 -82.53453 
L 295.593634 -82.115909 
L 292.314295 -81.993976 
L 289.034956 -72.682429 
L 285.755617 -73.053653 
L 282.476278 -69.673038 
L 279.19694 -70.743112 
L 275.917601 -74.804288 
L 272.638262 -71.844305 
L 269.358923 -71.710869 
L 266.079584 -74.385272 
L 262.800245 -74.10618 
L 259.520907 -72.928572 
L 256.241568 -71.906876 
L 252.962229 -75.429608 
L 249.68289 -74.005497 
L 246.403551 -74.564458 
L 243.124212 -76.070389 
L 239.844873 -74.995821 
L 236.565535 -75.423868 
L 233.286196 -76.775018 
L 230.006857 -77.152439 
L 226.727518 -76.752485 
L 223.448179 -77.070738 
L 220.16884 -76.668444 
L 216.889502 -76.719063 
L 213.610163 -78.524669 
L 210.330824 -78.827856 
L 207.051485 -77.16044 
L 203.772146 -80.28012 
L 200.492807 -78.570603 
L 197.213468 -78.609311 
L 193.93413 -81.275186 
L 190.654791 -82.583148 
L 187.375452 -81.359298 
L 184.096113 -81.821914 
L 180.816774 -80.471616 
L 177.537435 -82.014255 
L 174.258097 -83.057773 
L 170.978758 -85.792951 
L 167.699419 -80.976276 
L 164.42008 -83.828002 
L 161.140741 -85.994995 
L 157.861402 -86.992909 
L 154.582064 -88.755638 
L 151.302725 -86.481225 
L 148.023386 -87.692644 
L 144.744047 -87.530498 
L 141.464708 -92.148842 
L 138.185369 -88.860513 
L 134.90603 -89.22835 
L 131.626692 -93.528769 
L 128.347353 -95.36592 
L 125.068014 -95.946118 
L 121.788675 -95.953092 
L 118.509336 -93.745109 
L 115.229997 -103.87823 
L 111.950659 -97.755856 
L 108.67132 -99.538998 
L 105.391981 -105.037755 
L 102.112642 -107.75626 
L 98.833303 -103.223697 
L 95.553964 -105.228979 
L 92.274626 -118.13165 
L 88.995287 -122.17608 
L 85.715948 -120.642195 
L 82.436609 -128.18295 
L 79.15727 -135.710801 
L 75.877931 -146.656625 
L 72.598592 -160.91629 
L 69.319254 -187.457833 
L 66.039915 -221.489229 
z
" style="stroke: #4c72b0; stroke-opacity: 0.2"/>
    </defs>
    <g clip-path="url(#p4c589b6469)">
     <use xlink:href="#me38b96165e" x="0" y="316.271687" style="fill: #4c72b0; fill-opacity: 0.2; stroke: #4c72b0; stroke-opacity: 0.2"/>
    </g>
   </g>
   <g id="PolyCollection_2">
    <defs>
     <path id="m7ce13aa1f2" d="M 66.039915 -248.538962 
L 66.039915 -219.935127 
L 69.319254 -213.713064 
L 72.598592 -198.584141 
L 75.877931 -191.94618 
L 79.15727 -186.333484 
L 82.436609 -181.071179 
L 85.715948 -174.87775 
L 88.995287 -182.147816 
L 92.274626 -183.176981 
L 95.553964 -162.232115 
L 98.833303 -165.240768 
L 102.112642 -169.453551 
L 105.391981 -174.790108 
L 108.67132 -162.411675 
L 111.950659 -148.514759 
L 115.229997 -157.240355 
L 118.509336 -145.845 
L 121.788675 -149.312713 
L 125.068014 -142.752573 
L 128.347353 -147.111956 
L 131.626692 -159.319055 
L 134.90603 -144.376155 
L 138.185369 -151.216191 
L 141.464708 -146.747731 
L 144.744047 -141.327421 
L 148.023386 -136.207037 
L 151.302725 -141.096034 
L 154.582064 -147.379392 
L 157.861402 -143.581166 
L 161.140741 -142.124859 
L 164.42008 -138.537498 
L 167.699419 -130.392103 
L 170.978758 -137.495059 
L 174.258097 -130.65688 
L 177.537435 -130.344367 
L 180.816774 -142.025633 
L 184.096113 -128.369922 
L 187.375452 -138.661053 
L 190.654791 -134.956316 
L 193.93413 -138.445401 
L 197.213468 -142.883704 
L 200.492807 -125.244205 
L 203.772146 -132.602395 
L 207.051485 -128.140457 
L 210.330824 -132.807064 
L 213.610163 -142.057339 
L 216.889502 -133.337625 
L 220.16884 -128.293379 
L 223.448179 -140.386387 
L 226.727518 -145.38256 
L 230.006857 -139.033852 
L 233.286196 -125.90756 
L 236.565535 -126.138871 
L 239.844873 -116.915103 
L 243.124212 -118.045272 
L 246.403551 -119.041068 
L 249.68289 -113.750681 
L 252.962229 -118.258069 
L 256.241568 -126.862849 
L 259.520907 -121.234776 
L 262.800245 -136.871782 
L 266.079584 -122.78141 
L 269.358923 -115.995259 
L 272.638262 -122.622437 
L 275.917601 -113.005307 
L 279.19694 -115.684324 
L 282.476278 -118.026464 
L 285.755617 -112.882485 
L 289.034956 -123.457013 
L 292.314295 -122.279451 
L 295.593634 -118.271025 
L 298.872973 -130.082601 
L 302.152311 -112.328023 
L 305.43165 -123.058896 
L 308.710989 -117.793836 
L 311.990328 -121.853779 
L 315.269667 -127.864497 
L 318.549006 -115.491416 
L 321.828345 -117.137708 
L 325.107683 -124.326837 
L 328.387022 -126.329915 
L 331.666361 -118.812347 
L 334.9457 -116.294055 
L 338.225039 -124.480702 
L 341.504378 -138.442817 
L 344.783716 -123.907411 
L 348.063055 -145.494293 
L 351.342394 -165.123997 
L 354.621733 -116.079314 
L 357.901072 -115.749764 
L 361.180411 -126.033893 
L 364.459749 -123.227551 
L 367.739088 -122.510916 
L 371.018427 -120.042222 
L 374.297766 -116.411547 
L 377.577105 -126.925443 
L 380.856444 -124.247491 
L 384.135783 -120.716472 
L 387.415121 -118.678171 
L 390.69446 -121.21866 
L 390.69446 -134.266103 
L 390.69446 -134.266103 
L 387.415121 -136.209668 
L 384.135783 -141.067242 
L 380.856444 -141.999181 
L 377.577105 -149.3111 
L 374.297766 -138.515147 
L 371.018427 -137.591011 
L 367.739088 -138.796421 
L 364.459749 -148.291237 
L 361.180411 -145.53059 
L 357.901072 -133.654946 
L 354.621733 -136.018491 
L 351.342394 -197.724222 
L 348.063055 -178.429807 
L 344.783716 -138.36463 
L 341.504378 -161.240658 
L 338.225039 -150.256941 
L 334.9457 -135.970525 
L 331.666361 -143.108528 
L 328.387022 -149.521329 
L 325.107683 -143.421498 
L 321.828345 -131.987316 
L 318.549006 -132.537243 
L 315.269667 -145.067838 
L 311.990328 -136.867764 
L 308.710989 -127.877015 
L 305.43165 -135.642802 
L 302.152311 -132.451449 
L 298.872973 -153.988639 
L 295.593634 -139.252633 
L 292.314295 -140.921263 
L 289.034956 -152.97615 
L 285.755617 -138.35125 
L 282.476278 -148.974914 
L 279.19694 -134.175807 
L 275.917601 -141.225968 
L 272.638262 -144.466006 
L 269.358923 -129.568088 
L 266.079584 -143.368882 
L 262.800245 -174.329133 
L 259.520907 -148.472836 
L 256.241568 -157.394255 
L 252.962229 -140.615118 
L 249.68289 -136.49885 
L 246.403551 -141.263157 
L 243.124212 -139.179979 
L 239.844873 -139.580321 
L 236.565535 -152.161163 
L 233.286196 -146.006322 
L 230.006857 -165.485171 
L 226.727518 -175.80637 
L 223.448179 -169.84654 
L 220.16884 -150.069677 
L 216.889502 -171.701366 
L 213.610163 -176.379593 
L 210.330824 -151.453586 
L 207.051485 -148.046189 
L 203.772146 -160.918439 
L 200.492807 -150.51258 
L 197.213468 -166.08542 
L 193.93413 -166.384024 
L 190.654791 -159.055832 
L 187.375452 -166.137145 
L 184.096113 -146.628302 
L 180.816774 -175.234395 
L 177.537435 -148.943965 
L 174.258097 -149.553088 
L 170.978758 -168.065567 
L 167.699419 -149.514224 
L 164.42008 -155.572744 
L 161.140741 -171.013657 
L 157.861402 -166.336004 
L 154.582064 -167.340296 
L 151.302725 -165.034087 
L 148.023386 -146.569268 
L 144.744047 -158.234866 
L 141.464708 -175.58803 
L 138.185369 -185.194885 
L 134.90603 -160.563757 
L 131.626692 -186.594439 
L 128.347353 -163.194776 
L 125.068014 -159.474164 
L 121.788675 -165.411551 
L 118.509336 -160.157905 
L 115.229997 -188.257849 
L 111.950659 -168.144964 
L 108.67132 -181.132953 
L 105.391981 -204.529427 
L 102.112642 -195.941301 
L 98.833303 -182.505228 
L 95.553964 -195.347028 
L 92.274626 -224.381423 
L 88.995287 -203.550391 
L 85.715948 -190.389632 
L 82.436609 -203.880067 
L 79.15727 -206.608268 
L 75.877931 -219.91934 
L 72.598592 -225.73187 
L 69.319254 -243.969169 
L 66.039915 -248.538962 
z
" style="stroke: #dd8452; stroke-opacity: 0.2"/>
    </defs>
    <g clip-path="url(#p4c589b6469)">
     <use xlink:href="#m7ce13aa1f2" x="0" y="316.271687" style="fill: #dd8452; fill-opacity: 0.2; stroke: #dd8452; stroke-opacity: 0.2"/>
    </g>
   </g>
   <g id="PolyCollection_3">
    <defs>
     <path id="m4e8cd70d5d" d="M 66.039915 -296.975687 
L 66.039915 -218.800113 
L 69.319254 -165.991608 
L 72.598592 -145.819021 
L 75.877931 -133.906221 
L 79.15727 -118.053548 
L 82.436609 -108.565746 
L 85.715948 -103.739692 
L 88.995287 -105.440938 
L 92.274626 -102.502929 
L 95.553964 -100.345868 
L 98.833303 -97.512933 
L 102.112642 -96.104392 
L 105.391981 -93.038565 
L 108.67132 -95.303472 
L 111.950659 -93.712278 
L 115.229997 -89.036234 
L 118.509336 -90.015606 
L 121.788675 -88.927505 
L 125.068014 -87.706344 
L 128.347353 -84.716292 
L 131.626692 -84.337278 
L 134.90603 -81.33376 
L 138.185369 -80.821046 
L 141.464708 -81.551252 
L 144.744047 -80.644795 
L 148.023386 -79.817776 
L 151.302725 -81.0831 
L 154.582064 -79.724046 
L 157.861402 -78.679925 
L 161.140741 -76.842571 
L 164.42008 -77.572708 
L 167.699419 -77.456838 
L 170.978758 -76.882534 
L 174.258097 -75.229178 
L 177.537435 -75.874666 
L 180.816774 -75.634178 
L 184.096113 -75.877576 
L 187.375452 -76.149597 
L 190.654791 -75.914254 
L 193.93413 -72.880359 
L 197.213468 -75.226573 
L 200.492807 -74.469816 
L 203.772146 -72.272129 
L 207.051485 -70.316328 
L 210.330824 -74.336199 
L 213.610163 -71.79429 
L 216.889502 -73.563534 
L 220.16884 -72.136562 
L 223.448179 -70.906306 
L 226.727518 -72.099281 
L 230.006857 -72.392066 
L 233.286196 -70.076942 
L 236.565535 -71.739235 
L 239.844873 -71.08898 
L 243.124212 -69.762876 
L 246.403551 -71.524219 
L 249.68289 -71.174864 
L 252.962229 -70.50426 
L 256.241568 -70.709183 
L 259.520907 -73.884117 
L 262.800245 -71.687905 
L 266.079584 -70.335436 
L 269.358923 -69.473753 
L 272.638262 -71.785465 
L 275.917601 -72.319399 
L 279.19694 -72.843578 
L 282.476278 -72.281639 
L 285.755617 -73.280813 
L 289.034956 -73.686539 
L 292.314295 -83.791002 
L 295.593634 -84.848872 
L 298.872973 -83.680598 
L 302.152311 -85.065423 
L 305.43165 -84.315505 
L 308.710989 -83.931727 
L 311.990328 -84.540047 
L 315.269667 -85.663025 
L 318.549006 -85.435974 
L 321.828345 -86.723553 
L 325.107683 -86.287364 
L 328.387022 -87.751958 
L 331.666361 -87.850998 
L 334.9457 -88.565905 
L 338.225039 -88.369631 
L 341.504378 -89.956427 
L 344.783716 -89.691785 
L 348.063055 -88.821748 
L 351.342394 -87.684073 
L 354.621733 -87.77019 
L 357.901072 -88.566375 
L 361.180411 -88.700485 
L 364.459749 -88.396366 
L 367.739088 -90.628105 
L 371.018427 -91.735068 
L 374.297766 -91.94093 
L 377.577105 -92.955858 
L 380.856444 -92.823052 
L 384.135783 -92.626998 
L 387.415121 -93.618215 
L 390.69446 -94.906492 
L 390.69446 -123.257359 
L 390.69446 -123.257359 
L 387.415121 -122.161706 
L 384.135783 -121.014989 
L 380.856444 -121.491381 
L 377.577105 -120.567488 
L 374.297766 -120.277518 
L 371.018427 -119.000296 
L 367.739088 -119.089478 
L 364.459749 -117.182689 
L 361.180411 -119.593577 
L 357.901072 -116.875529 
L 354.621733 -116.264142 
L 351.342394 -115.600365 
L 348.063055 -118.224332 
L 344.783716 -118.218436 
L 341.504378 -119.110864 
L 338.225039 -116.541912 
L 334.9457 -117.106363 
L 331.666361 -114.519197 
L 328.387022 -115.975492 
L 325.107683 -114.018916 
L 321.828345 -114.736261 
L 318.549006 -113.462066 
L 315.269667 -113.012816 
L 311.990328 -113.468608 
L 308.710989 -111.443473 
L 305.43165 -112.002969 
L 302.152311 -111.516312 
L 298.872973 -111.496505 
L 295.593634 -112.500335 
L 292.314295 -111.491275 
L 289.034956 -96.351865 
L 285.755617 -95.959527 
L 282.476278 -94.389716 
L 279.19694 -96.494823 
L 275.917601 -95.48432 
L 272.638262 -91.457147 
L 269.358923 -90.247031 
L 266.079584 -92.192799 
L 262.800245 -91.892378 
L 259.520907 -96.442698 
L 256.241568 -93.299055 
L 252.962229 -91.606713 
L 249.68289 -93.993945 
L 246.403551 -91.470636 
L 243.124212 -92.26141 
L 239.844873 -91.58633 
L 236.565535 -92.224549 
L 233.286196 -91.992041 
L 230.006857 -92.547122 
L 226.727518 -92.805044 
L 223.448179 -91.272602 
L 220.16884 -92.760436 
L 216.889502 -93.953081 
L 213.610163 -91.596521 
L 210.330824 -95.880985 
L 207.051485 -91.018831 
L 203.772146 -92.982189 
L 200.492807 -94.165079 
L 197.213468 -94.117541 
L 193.93413 -92.092203 
L 190.654791 -96.312831 
L 187.375452 -96.566059 
L 184.096113 -95.817065 
L 180.816774 -97.011647 
L 177.537435 -96.118974 
L 174.258097 -97.059342 
L 170.978758 -99.826502 
L 167.699419 -98.9019 
L 164.42008 -99.25827 
L 161.140741 -98.226109 
L 157.861402 -100.498668 
L 154.582064 -100.176423 
L 151.302725 -103.015162 
L 148.023386 -101.239695 
L 144.744047 -103.857302 
L 141.464708 -102.95546 
L 138.185369 -103.222876 
L 134.90603 -103.751915 
L 131.626692 -106.87251 
L 128.347353 -107.779394 
L 125.068014 -111.266393 
L 121.788675 -113.385251 
L 118.509336 -113.345271 
L 115.229997 -114.558464 
L 111.950659 -120.65898 
L 108.67132 -120.496419 
L 105.391981 -118.846621 
L 102.112642 -121.123196 
L 98.833303 -123.699349 
L 95.553964 -126.960558 
L 92.274626 -131.607265 
L 88.995287 -134.812201 
L 85.715948 -132.412603 
L 82.436609 -142.172947 
L 79.15727 -153.301697 
L 75.877931 -176.645578 
L 72.598592 -186.233381 
L 69.319254 -210.685286 
L 66.039915 -296.975687 
z
" style="stroke: #55a868; stroke-opacity: 0.2"/>
    </defs>
    <g clip-path="url(#p4c589b6469)">
     <use xlink:href="#m4e8cd70d5d" x="0" y="316.271687" style="fill: #55a868; fill-opacity: 0.2; stroke: #55a868; stroke-opacity: 0.2"/>
    </g>
   </g>
   <g id="PolyCollection_4">
    <defs>
     <path id="mcc04d4f942" d="M 66.039915 -205.603034 
L 66.039915 -182.305857 
L 69.319254 -198.649647 
L 72.598592 -188.146198 
L 75.877931 -154.788254 
L 79.15727 -147.726849 
L 82.436609 -138.493028 
L 85.715948 -118.21819 
L 88.995287 -109.436699 
L 92.274626 -106.324305 
L 95.553964 -112.461653 
L 98.833303 -104.53795 
L 102.112642 -100.877087 
L 105.391981 -96.869079 
L 108.67132 -94.227481 
L 111.950659 -92.184262 
L 115.229997 -91.174539 
L 118.509336 -87.845172 
L 121.788675 -86.484685 
L 125.068014 -85.999295 
L 128.347353 -83.457495 
L 131.626692 -80.127195 
L 134.90603 -78.775057 
L 138.185369 -78.01698 
L 141.464708 -77.771268 
L 144.744047 -75.170149 
L 148.023386 -76.128153 
L 151.302725 -74.957297 
L 154.582064 -73.92428 
L 157.861402 -73.076087 
L 161.140741 -72.499015 
L 164.42008 -72.053159 
L 167.699419 -71.985557 
L 170.978758 -71.970593 
L 174.258097 -70.668292 
L 177.537435 -70.943067 
L 180.816774 -70.785221 
L 184.096113 -69.399035 
L 187.375452 -69.337808 
L 190.654791 -68.555501 
L 193.93413 -68.337383 
L 197.213468 -68.191261 
L 200.492807 -67.979663 
L 203.772146 -67.610284 
L 207.051485 -67.281487 
L 210.330824 -67.714396 
L 213.610163 -66.937087 
L 216.889502 -66.735522 
L 220.16884 -66.979274 
L 223.448179 -67.098066 
L 226.727518 -66.664075 
L 230.006857 -64.249523 
L 233.286196 -65.733935 
L 236.565535 -65.038894 
L 239.844873 -64.959411 
L 243.124212 -64.622793 
L 246.403551 -64.311169 
L 249.68289 -63.928094 
L 252.962229 -63.775129 
L 256.241568 -62.934805 
L 259.520907 -62.786019 
L 262.800245 -62.497724 
L 266.079584 -63.046109 
L 269.358923 -62.325582 
L 272.638262 -62.154055 
L 275.917601 -61.707158 
L 279.19694 -61.54348 
L 282.476278 -60.705707 
L 285.755617 -60.153101 
L 289.034956 -60.517585 
L 292.314295 -79.032286 
L 295.593634 -79.536458 
L 298.872973 -79.110156 
L 302.152311 -79.230749 
L 305.43165 -77.515822 
L 308.710989 -78.552965 
L 311.990328 -78.231293 
L 315.269667 -77.782873 
L 318.549006 -77.666317 
L 321.828345 -76.994365 
L 325.107683 -77.347473 
L 328.387022 -77.106279 
L 331.666361 -77.075788 
L 334.9457 -77.273589 
L 338.225039 -77.02334 
L 341.504378 -76.096038 
L 344.783716 -76.775559 
L 348.063055 -75.672296 
L 351.342394 -77.196763 
L 354.621733 -76.637917 
L 357.901072 -77.277634 
L 361.180411 -76.593325 
L 364.459749 -75.20197 
L 367.739088 -76.301133 
L 371.018427 -76.984984 
L 374.297766 -77.200857 
L 377.577105 -76.054413 
L 380.856444 -77.191936 
L 384.135783 -75.99235 
L 387.415121 -76.370066 
L 390.69446 -77.996002 
L 390.69446 -103.000321 
L 390.69446 -103.000321 
L 387.415121 -101.043668 
L 384.135783 -100.697029 
L 380.856444 -102.538494 
L 377.577105 -100.994911 
L 374.297766 -101.183905 
L 371.018427 -101.778799 
L 367.739088 -101.48437 
L 364.459749 -101.480948 
L 361.180411 -101.316454 
L 357.901072 -101.413586 
L 354.621733 -102.542804 
L 351.342394 -101.80679 
L 348.063055 -101.727113 
L 344.783716 -102.807707 
L 341.504378 -101.646543 
L 338.225039 -102.143573 
L 334.9457 -102.817545 
L 331.666361 -102.467361 
L 328.387022 -103.093654 
L 325.107683 -103.217641 
L 321.828345 -101.784363 
L 318.549006 -101.642564 
L 315.269667 -103.177573 
L 311.990328 -103.353406 
L 308.710989 -103.287678 
L 305.43165 -103.965159 
L 302.152311 -104.165717 
L 298.872973 -104.6765 
L 295.593634 -104.283249 
L 292.314295 -103.639848 
L 289.034956 -76.768446 
L 285.755617 -77.408151 
L 282.476278 -76.894583 
L 279.19694 -77.951597 
L 275.917601 -78.575046 
L 272.638262 -77.890041 
L 269.358923 -78.078811 
L 266.079584 -78.68787 
L 262.800245 -79.14804 
L 259.520907 -79.846994 
L 256.241568 -80.490396 
L 252.962229 -80.659133 
L 249.68289 -81.126127 
L 246.403551 -81.433201 
L 243.124212 -81.222903 
L 239.844873 -82.491988 
L 236.565535 -82.442493 
L 233.286196 -82.413934 
L 230.006857 -82.569676 
L 226.727518 -83.837164 
L 223.448179 -85.159782 
L 220.16884 -84.689895 
L 216.889502 -84.642356 
L 213.610163 -84.623196 
L 210.330824 -85.4077 
L 207.051485 -85.686372 
L 203.772146 -85.657753 
L 200.492807 -86.792524 
L 197.213468 -86.7577 
L 193.93413 -87.024903 
L 190.654791 -86.999438 
L 187.375452 -88.218945 
L 184.096113 -88.37194 
L 180.816774 -89.935005 
L 177.537435 -89.046359 
L 174.258097 -89.610221 
L 170.978758 -90.407093 
L 167.699419 -91.119666 
L 164.42008 -91.356309 
L 161.140741 -92.316689 
L 157.861402 -93.103033 
L 154.582064 -93.424174 
L 151.302725 -94.173548 
L 148.023386 -96.237909 
L 144.744047 -96.609673 
L 141.464708 -96.90063 
L 138.185369 -98.471393 
L 134.90603 -99.701263 
L 131.626692 -101.968154 
L 128.347353 -104.984099 
L 125.068014 -107.462245 
L 121.788675 -107.983539 
L 118.509336 -110.821899 
L 115.229997 -114.215197 
L 111.950659 -117.383126 
L 108.67132 -118.324073 
L 105.391981 -121.728043 
L 102.112642 -125.648126 
L 98.833303 -128.421374 
L 95.553964 -133.465461 
L 92.274626 -133.448173 
L 88.995287 -135.724635 
L 85.715948 -140.81467 
L 82.436609 -159.439681 
L 79.15727 -170.387231 
L 75.877931 -179.534841 
L 72.598592 -202.753773 
L 69.319254 -211.083769 
L 66.039915 -205.603034 
z
" style="stroke: #c44e52; stroke-opacity: 0.2"/>
    </defs>
    <g clip-path="url(#p4c589b6469)">
     <use xlink:href="#mcc04d4f942" x="0" y="316.271687" style="fill: #c44e52; fill-opacity: 0.2; stroke: #c44e52; stroke-opacity: 0.2"/>
    </g>
   </g>
   <g id="PolyCollection_5">
    <defs>
     <path id="m419814ef73" d="M 66.039915 -210.982659 
L 66.039915 -182.498239 
L 69.319254 -153.807721 
L 72.598592 -140.108434 
L 75.877931 -133.496304 
L 79.15727 -124.208983 
L 82.436609 -116.320685 
L 85.715948 -108.675944 
L 88.995287 -109.329048 
L 92.274626 -107.18866 
L 95.553964 -105.65609 
L 98.833303 -103.954028 
L 102.112642 -100.886598 
L 105.391981 -99.12987 
L 108.67132 -97.068265 
L 111.950659 -96.329698 
L 115.229997 -93.477265 
L 118.509336 -91.915323 
L 121.788675 -90.88656 
L 125.068014 -89.996246 
L 128.347353 -87.696101 
L 131.626692 -87.71495 
L 134.90603 -87.114947 
L 138.185369 -85.105412 
L 141.464708 -83.728758 
L 144.744047 -84.010006 
L 148.023386 -83.135997 
L 151.302725 -82.404916 
L 154.582064 -81.893882 
L 157.861402 -79.317453 
L 161.140741 -80.429898 
L 164.42008 -80.529843 
L 167.699419 -78.922579 
L 170.978758 -77.458916 
L 174.258097 -75.374334 
L 177.537435 -76.185289 
L 180.816774 -76.12997 
L 184.096113 -76.304153 
L 187.375452 -75.407825 
L 190.654791 -74.679072 
L 193.93413 -73.871842 
L 197.213468 -73.00682 
L 200.492807 -72.965038 
L 203.772146 -73.712008 
L 207.051485 -72.304251 
L 210.330824 -72.014557 
L 213.610163 -70.923657 
L 216.889502 -71.885885 
L 220.16884 -72.068821 
L 223.448179 -70.476251 
L 226.727518 -71.664244 
L 230.006857 -71.488624 
L 233.286196 -70.323968 
L 236.565535 -70.612393 
L 239.844873 -70.255531 
L 243.124212 -71.02082 
L 246.403551 -70.739019 
L 249.68289 -72.226214 
L 252.962229 -71.866785 
L 256.241568 -72.335876 
L 259.520907 -72.222864 
L 262.800245 -69.5205 
L 266.079584 -70.051782 
L 269.358923 -70.758406 
L 272.638262 -70.578614 
L 275.917601 -70.682207 
L 279.19694 -68.181853 
L 282.476278 -69.739402 
L 285.755617 -68.562852 
L 289.034956 -68.568415 
L 292.314295 -88.391736 
L 295.593634 -88.01708 
L 298.872973 -87.637297 
L 302.152311 -88.184541 
L 305.43165 -89.032525 
L 308.710989 -88.975618 
L 311.990328 -88.578027 
L 315.269667 -86.638882 
L 318.549006 -87.92459 
L 321.828345 -87.011099 
L 325.107683 -86.531657 
L 328.387022 -87.998438 
L 331.666361 -86.961816 
L 334.9457 -88.577905 
L 338.225039 -88.329754 
L 341.504378 -89.36333 
L 344.783716 -89.265347 
L 348.063055 -88.647446 
L 351.342394 -87.744374 
L 354.621733 -89.258643 
L 357.901072 -88.90991 
L 361.180411 -88.096313 
L 364.459749 -88.929213 
L 367.739088 -87.988511 
L 371.018427 -89.393619 
L 374.297766 -89.560117 
L 377.577105 -90.179634 
L 380.856444 -91.188721 
L 384.135783 -88.971555 
L 387.415121 -89.454892 
L 390.69446 -89.493374 
L 390.69446 -116.468431 
L 390.69446 -116.468431 
L 387.415121 -116.574685 
L 384.135783 -117.193468 
L 380.856444 -118.88489 
L 377.577105 -116.709513 
L 374.297766 -117.556082 
L 371.018427 -117.428834 
L 367.739088 -117.675712 
L 364.459749 -116.823168 
L 361.180411 -115.781085 
L 357.901072 -118.551988 
L 354.621733 -118.561224 
L 351.342394 -116.403096 
L 348.063055 -117.285383 
L 344.783716 -117.532722 
L 341.504378 -117.48694 
L 338.225039 -116.874576 
L 334.9457 -115.555435 
L 331.666361 -116.001428 
L 328.387022 -116.348895 
L 325.107683 -115.678522 
L 321.828345 -116.780925 
L 318.549006 -116.946804 
L 315.269667 -115.896774 
L 311.990328 -116.717616 
L 308.710989 -116.592905 
L 305.43165 -119.177824 
L 302.152311 -115.880578 
L 298.872973 -115.950806 
L 295.593634 -114.92742 
L 292.314295 -116.336125 
L 289.034956 -86.594442 
L 285.755617 -89.312736 
L 282.476278 -88.252005 
L 279.19694 -88.544811 
L 275.917601 -90.727747 
L 272.638262 -90.604463 
L 269.358923 -91.896423 
L 266.079584 -90.657657 
L 262.800245 -88.643977 
L 259.520907 -92.237935 
L 256.241568 -92.579943 
L 252.962229 -92.233703 
L 249.68289 -93.36881 
L 246.403551 -91.724176 
L 243.124212 -92.374322 
L 239.844873 -91.730163 
L 236.565535 -93.413034 
L 233.286196 -92.441075 
L 230.006857 -92.453796 
L 226.727518 -93.078229 
L 223.448179 -92.067797 
L 220.16884 -91.422776 
L 216.889502 -92.979145 
L 213.610163 -91.230481 
L 210.330824 -92.215698 
L 207.051485 -93.831547 
L 203.772146 -94.499638 
L 200.492807 -93.524199 
L 197.213468 -93.965719 
L 193.93413 -97.046518 
L 190.654791 -96.532092 
L 187.375452 -96.066009 
L 184.096113 -96.572522 
L 180.816774 -96.915651 
L 177.537435 -97.791986 
L 174.258097 -96.575575 
L 170.978758 -99.286091 
L 167.699419 -99.663161 
L 164.42008 -101.920042 
L 161.140741 -101.211585 
L 157.861402 -99.591426 
L 154.582064 -103.792639 
L 151.302725 -105.815833 
L 148.023386 -107.473819 
L 144.744047 -107.740683 
L 141.464708 -106.713319 
L 138.185369 -108.221169 
L 134.90603 -111.885902 
L 131.626692 -112.514275 
L 128.347353 -111.94263 
L 125.068014 -114.650533 
L 121.788675 -114.218145 
L 118.509336 -116.966578 
L 115.229997 -117.844453 
L 111.950659 -120.086444 
L 108.67132 -122.861049 
L 105.391981 -123.952068 
L 102.112642 -126.078666 
L 98.833303 -129.275749 
L 95.553964 -130.67264 
L 92.274626 -134.593287 
L 88.995287 -136.75619 
L 85.715948 -138.406279 
L 82.436609 -146.292099 
L 79.15727 -155.145101 
L 75.877931 -166.199896 
L 72.598592 -173.937999 
L 69.319254 -189.77567 
L 66.039915 -210.982659 
z
" style="stroke: #8172b3; stroke-opacity: 0.2"/>
    </defs>
    <g clip-path="url(#p4c589b6469)">
     <use xlink:href="#m419814ef73" x="0" y="316.271687" style="fill: #8172b3; fill-opacity: 0.2; stroke: #8172b3; stroke-opacity: 0.2"/>
    </g>
   </g>
   <g id="line2d_13">
    <path d="M 66.039915 116.992976 
L 69.319254 152.194782 
L 72.598592 174.388528 
L 75.877931 185.226074 
L 79.15727 194.596113 
L 82.436609 201.724179 
L 85.715948 207.375716 
L 88.995287 205.258392 
L 92.274626 211.29081 
L 95.553964 221.036468 
L 98.833303 222.422229 
L 102.112642 219.842233 
L 105.391981 222.928074 
L 108.67132 226.836473 
L 111.950659 228.366462 
L 115.229997 223.208475 
L 118.509336 231.62349 
L 121.788675 229.882139 
L 125.068014 230.341617 
L 128.347353 229.629333 
L 131.626692 231.484656 
L 134.90603 235.620246 
L 138.185369 235.526605 
L 141.464708 233.037777 
L 144.744047 237.195187 
L 148.023386 236.808051 
L 151.302725 237.996238 
L 154.582064 235.364863 
L 157.861402 237.978519 
L 161.140741 238.867904 
L 164.42008 241.274806 
L 167.699419 242.6983 
L 170.978758 240.576057 
L 174.258097 242.115058 
L 177.537435 243.08903 
L 180.816774 244.101367 
L 184.096113 242.937037 
L 187.375452 243.169274 
L 190.654791 241.495741 
L 193.93413 242.970898 
L 197.213468 245.620914 
L 200.492807 245.388105 
L 203.772146 244.30455 
L 207.051485 246.88977 
L 210.330824 245.918202 
L 213.610163 246.150476 
L 216.889502 247.540489 
L 220.16884 247.224047 
L 223.448179 247.015339 
L 226.727518 247.403493 
L 230.006857 247.450679 
L 233.286196 247.024908 
L 236.565535 247.422323 
L 239.844873 248.883531 
L 243.124212 247.649521 
L 246.403551 248.827845 
L 249.68289 250.285756 
L 252.962229 249.136079 
L 256.241568 251.769842 
L 259.520907 250.380766 
L 262.800245 249.853187 
L 266.079584 249.003804 
L 269.358923 251.617585 
L 272.638262 251.899173 
L 275.917601 250.691262 
L 279.19694 253.249574 
L 282.476278 253.313784 
L 285.755617 250.880752 
L 289.034956 251.024078 
L 292.314295 242.265083 
L 295.593634 242.372462 
L 298.872973 241.83599 
L 302.152311 243.034864 
L 305.43165 243.717341 
L 308.710989 244.170306 
L 311.990328 244.460424 
L 315.269667 243.316055 
L 318.549006 244.420888 
L 321.828345 243.193794 
L 325.107683 243.341602 
L 328.387022 243.271517 
L 331.666361 244.046399 
L 334.9457 243.449272 
L 338.225039 242.622899 
L 341.504378 242.792615 
L 344.783716 244.760636 
L 348.063055 242.635198 
L 351.342394 241.460149 
L 354.621733 241.097093 
L 357.901072 243.119016 
L 361.180411 239.166144 
L 364.459749 240.798555 
L 367.739088 243.439033 
L 371.018427 242.712143 
L 374.297766 242.1648 
L 377.577105 241.718877 
L 380.856444 243.654854 
L 384.135783 240.765538 
L 387.415121 242.982131 
L 390.69446 243.084461 
" clip-path="url(#p4c589b6469)" style="fill: none; stroke: #4c72b0; stroke-width: 1.5; stroke-linecap: round"/>
   </g>
   <g id="line2d_14">
    <path d="M 66.039915 82.480061 
L 69.319254 87.651187 
L 72.598592 105.463555 
L 75.877931 109.711565 
L 79.15727 119.879785 
L 82.436609 123.785155 
L 85.715948 133.895982 
L 88.995287 122.891077 
L 92.274626 112.605214 
L 95.553964 138.617291 
L 98.833303 142.168844 
L 102.112642 132.164543 
L 105.391981 125.574836 
L 108.67132 144.326524 
L 111.950659 158.218994 
L 115.229997 143.509792 
L 118.509336 163.161111 
L 121.788675 159.086383 
L 125.068014 165.014508 
L 128.347353 161.474755 
L 131.626692 143.331832 
L 134.90603 163.653458 
L 138.185369 148.285513 
L 141.464708 155.63301 
L 144.744047 166.332834 
L 148.023386 175.008412 
L 151.302725 163.635785 
L 154.582064 159.159782 
L 157.861402 161.794885 
L 161.140741 161.203705 
L 164.42008 169.597725 
L 167.699419 175.700164 
L 170.978758 164.453697 
L 174.258097 176.19947 
L 177.537435 176.387566 
L 180.816774 158.466779 
L 184.096113 179.300306 
L 187.375452 164.008697 
L 190.654791 169.337793 
L 193.93413 164.196112 
L 197.213468 161.345179 
L 200.492807 179.26411 
L 203.772146 170.302407 
L 207.051485 178.572641 
L 210.330824 174.355748 
L 213.610163 157.864332 
L 216.889502 165.1726 
L 220.16884 177.86305 
L 223.448179 160.92464 
L 226.727518 155.639107 
L 230.006857 164.416657 
L 233.286196 180.565315 
L 236.565535 177.694869 
L 239.844873 188.540437 
L 243.124212 187.405422 
L 246.403551 186.329277 
L 249.68289 190.847819 
L 252.962229 187.087617 
L 256.241568 173.301862 
L 259.520907 182.157105 
L 262.800245 161.288899 
L 266.079584 183.701537 
L 269.358923 193.651453 
L 272.638262 184.282817 
L 275.917601 190.140061 
L 279.19694 191.224372 
L 282.476278 184.082549 
L 285.755617 191.236952 
L 289.034956 178.212624 
L 292.314295 183.966769 
L 295.593634 188.269023 
L 298.872973 174.504109 
L 302.152311 194.065393 
L 305.43165 186.741691 
L 308.710989 193.299144 
L 311.990328 187.071434 
L 315.269667 179.890931 
L 318.549006 192.311727 
L 321.828345 191.761799 
L 325.107683 182.43393 
L 328.387022 178.785277 
L 331.666361 185.140104 
L 334.9457 190.465087 
L 338.225039 179.665934 
L 341.504378 166.308541 
L 344.783716 185.502615 
L 348.063055 154.355848 
L 351.342394 135.908604 
L 354.621733 190.301592 
L 357.901072 191.55355 
L 361.180411 180.335022 
L 364.459749 181.127628 
L 367.739088 185.109202 
L 371.018427 187.603791 
L 374.297766 189.329361 
L 377.577105 178.245095 
L 380.856444 182.992922 
L 384.135783 185.368246 
L 387.415121 189.224634 
L 390.69446 188.66889 
" clip-path="url(#p4c589b6469)" style="fill: none; stroke-dasharray: 6,2.25; stroke-dashoffset: 0; stroke: #dd8452; stroke-width: 1.5"/>
   </g>
   <g id="line2d_15">
    <path d="M 66.039915 64.086373 
L 69.319254 127.300002 
L 72.598592 150.381127 
L 75.877931 160.483392 
L 79.15727 180.527233 
L 82.436609 191.298391 
L 85.715948 198.51004 
L 88.995287 196.189896 
L 92.274626 199.20929 
L 95.553964 202.768041 
L 98.833303 206.171397 
L 102.112642 207.686286 
L 105.391981 209.595251 
L 108.67132 208.143003 
L 111.950659 209.302356 
L 115.229997 214.687287 
L 118.509336 214.595757 
L 121.788675 215.11885 
L 125.068014 217.004318 
L 128.347353 220.132778 
L 131.626692 220.355153 
L 134.90603 223.199797 
L 138.185369 223.199354 
L 141.464708 223.616745 
L 144.744047 224.895766 
L 148.023386 225.96079 
L 151.302725 224.490761 
L 154.582064 226.622125 
L 157.861402 226.267646 
L 161.140741 228.567137 
L 164.42008 228.143175 
L 167.699419 228.275986 
L 170.978758 228.035831 
L 174.258097 229.818288 
L 177.537435 230.944833 
L 180.816774 230.032255 
L 184.096113 230.400183 
L 187.375452 229.994065 
L 190.654791 230.185487 
L 193.93413 233.770743 
L 197.213468 231.558775 
L 200.492807 231.959795 
L 203.772146 233.336101 
L 207.051485 235.416989 
L 210.330824 231.608441 
L 213.610163 234.578338 
L 216.889502 232.559144 
L 220.16884 234.086931 
L 223.448179 235.383333 
L 226.727518 234.262994 
L 230.006857 234.028242 
L 233.286196 235.213437 
L 236.565535 234.398846 
L 239.844873 234.908849 
L 243.124212 235.092332 
L 246.403551 234.923151 
L 249.68289 234.204093 
L 252.962229 235.818612 
L 256.241568 234.697584 
L 259.520907 231.452162 
L 262.800245 234.226805 
L 266.079584 235.619719 
L 269.358923 236.047813 
L 272.638262 234.836292 
L 275.917601 232.22622 
L 279.19694 232.292252 
L 282.476278 233.133772 
L 285.755617 232.024402 
L 289.034956 231.027249 
L 292.314295 218.854417 
L 295.593634 218.179163 
L 298.872973 218.108726 
L 302.152311 218.520464 
L 305.43165 218.66163 
L 308.710989 218.731074 
L 311.990328 217.659442 
L 315.269667 217.620358 
L 318.549006 217.199499 
L 321.828345 215.679571 
L 325.107683 216.286501 
L 328.387022 214.489997 
L 331.666361 215.496625 
L 334.9457 214.197461 
L 338.225039 213.524147 
L 341.504378 212.339797 
L 344.783716 213.232302 
L 348.063055 213.094216 
L 351.342394 214.20994 
L 354.621733 214.532582 
L 357.901072 213.775247 
L 361.180411 213.503734 
L 364.459749 213.218353 
L 367.739088 212.6145 
L 371.018427 210.508923 
L 374.297766 209.319134 
L 377.577105 209.847132 
L 380.856444 209.599682 
L 384.135783 209.989464 
L 387.415121 209.10358 
L 390.69446 208.058156 
" clip-path="url(#p4c589b6469)" style="fill: none; stroke-dasharray: 1.5,1.5; stroke-dashoffset: 0; stroke: #55a868; stroke-width: 1.5"/>
   </g>
   <g id="line2d_16">
    <path d="M 66.039915 121.174311 
L 69.319254 111.359669 
L 72.598592 120.61216 
L 75.877931 149.046451 
L 79.15727 156.6646 
L 82.436609 167.886553 
L 85.715948 186.322141 
L 88.995287 193.843741 
L 92.274626 197.044769 
L 95.553964 193.024718 
L 98.833303 199.83058 
L 102.112642 203.343989 
L 105.391981 206.755598 
L 108.67132 210.178517 
L 111.950659 211.75984 
L 115.229997 213.561206 
L 118.509336 217.097933 
L 121.788675 218.966825 
L 125.068014 220.73107 
L 128.347353 221.870096 
L 131.626692 225.284789 
L 134.90603 226.875692 
L 138.185369 228.385036 
L 141.464708 229.041456 
L 144.744047 230.316356 
L 148.023386 230.461845 
L 151.302725 231.963703 
L 154.582064 232.578408 
L 157.861402 233.067015 
L 161.140741 233.875021 
L 164.42008 234.282511 
L 167.699419 234.627115 
L 170.978758 234.859049 
L 174.258097 235.838013 
L 177.537435 236.157104 
L 180.816774 236.508243 
L 184.096113 237.543113 
L 187.375452 237.720119 
L 190.654791 238.275196 
L 193.93413 238.772567 
L 197.213468 238.899879 
L 200.492807 238.990176 
L 203.772146 239.348429 
L 207.051485 239.841565 
L 210.330824 239.770431 
L 213.610163 240.32194 
L 216.889502 240.333103 
L 220.16884 240.858617 
L 223.448179 240.726422 
L 226.727518 241.201847 
L 230.006857 242.051221 
L 233.286196 242.188217 
L 236.565535 242.525615 
L 239.844873 242.87675 
L 243.124212 243.312761 
L 246.403551 243.476935 
L 249.68289 243.799352 
L 252.962229 244.155306 
L 256.241568 244.178829 
L 259.520907 244.830588 
L 262.800245 245.296267 
L 266.079584 245.570444 
L 269.358923 246.233901 
L 272.638262 246.271129 
L 275.917601 246.118008 
L 279.19694 246.519462 
L 282.476278 247.153689 
L 285.755617 247.33787 
L 289.034956 247.373748 
L 292.314295 225.132467 
L 295.593634 224.436334 
L 298.872973 225.242564 
L 302.152311 225.353245 
L 305.43165 225.679086 
L 308.710989 225.776469 
L 311.990328 225.544829 
L 315.269667 226.319716 
L 318.549006 226.435343 
L 321.828345 226.464357 
L 325.107683 226.479587 
L 328.387022 226.547729 
L 331.666361 226.773454 
L 334.9457 226.497611 
L 338.225039 227.211908 
L 341.504378 227.494516 
L 344.783716 226.635409 
L 348.063055 227.53638 
L 351.342394 227.45326 
L 354.621733 227.189163 
L 357.901072 227.633848 
L 361.180411 227.67017 
L 364.459749 227.751342 
L 367.739088 227.63354 
L 371.018427 227.524459 
L 374.297766 227.54558 
L 377.577105 227.395851 
L 380.856444 227.152067 
L 384.135783 227.817783 
L 387.415121 227.217903 
L 390.69446 227.19715 
" clip-path="url(#p4c589b6469)" style="fill: none; stroke-dasharray: 4.5,1.875,2.25,1.875; stroke-dashoffset: 0; stroke: #c44e52; stroke-width: 1.5"/>
   </g>
   <g id="line2d_17">
    <path d="M 66.039915 118.493273 
L 69.319254 144.383214 
L 72.598592 158.865734 
L 75.877931 165.60419 
L 79.15727 176.871956 
L 82.436609 184.601124 
L 85.715948 192.736058 
L 88.995287 193.073692 
L 92.274626 196.037511 
L 95.553964 198.101825 
L 98.833303 200.416067 
L 102.112642 203.049636 
L 105.391981 204.450524 
L 108.67132 206.656424 
L 111.950659 208.475999 
L 115.229997 210.309266 
L 118.509336 212.011624 
L 121.788675 213.883977 
L 125.068014 214.05674 
L 128.347353 216.371658 
L 131.626692 216.088943 
L 134.90603 217.25295 
L 138.185369 219.069142 
L 141.464708 220.523368 
L 144.744047 220.908737 
L 148.023386 221.348696 
L 151.302725 221.964952 
L 154.582064 223.252135 
L 157.861402 226.569054 
L 161.140741 225.188701 
L 164.42008 225.565437 
L 167.699419 227.39679 
L 170.978758 228.219377 
L 174.258097 230.088424 
L 177.537435 229.782386 
L 180.816774 229.583407 
L 184.096113 230.211696 
L 187.375452 229.750633 
L 190.654791 231.162501 
L 193.93413 230.960886 
L 197.213468 233.014458 
L 200.492807 233.251868 
L 203.772146 232.74563 
L 207.051485 233.048525 
L 210.330824 234.6995 
L 213.610163 235.528773 
L 216.889502 234.152914 
L 220.16884 234.877519 
L 223.448179 234.606744 
L 226.727518 234.064686 
L 230.006857 234.19045 
L 233.286196 234.991553 
L 236.565535 234.484783 
L 239.844873 235.327431 
L 243.124212 235.394941 
L 246.403551 235.444095 
L 249.68289 234.599143 
L 252.962229 234.035487 
L 256.241568 233.885122 
L 259.520907 234.905212 
L 262.800245 237.493935 
L 266.079584 236.551778 
L 269.358923 235.135057 
L 272.638262 235.9577 
L 275.917601 236.140498 
L 279.19694 237.897232 
L 282.476278 237.600358 
L 285.755617 236.872898 
L 289.034956 238.343457 
L 292.314295 214.713001 
L 295.593634 214.682757 
L 298.872973 214.252118 
L 302.152311 214.260274 
L 305.43165 213.448648 
L 308.710989 214.014133 
L 311.990328 214.601123 
L 315.269667 214.976768 
L 318.549006 215.077208 
L 321.828345 215.29064 
L 325.107683 215.13029 
L 328.387022 214.714312 
L 331.666361 214.908532 
L 334.9457 214.49872 
L 338.225039 213.965864 
L 341.504378 212.820858 
L 344.783716 213.557352 
L 348.063055 213.755384 
L 351.342394 215.136185 
L 354.621733 213.415707 
L 357.901072 212.718042 
L 361.180411 214.518067 
L 364.459749 214.205039 
L 367.739088 213.803097 
L 371.018427 213.138994 
L 374.297766 213.447226 
L 377.577105 212.879287 
L 380.856444 212.388909 
L 384.135783 213.940465 
L 387.415121 213.938026 
L 390.69446 213.479937 
" clip-path="url(#p4c589b6469)" style="fill: none; stroke-dasharray: 7.5,1.5,1.5,1.5; stroke-dashoffset: 0; stroke: #8172b3; stroke-width: 1.5"/>
   </g>
   <g id="line2d_18"/>
   <g id="line2d_19"/>
   <g id="line2d_20"/>
   <g id="line2d_21"/>
   <g id="line2d_22"/>
   <g id="patch_3">
    <path d="M 49.807187 273.312 
L 49.807187 7.2 
" style="fill: none; stroke: #cccccc; stroke-width: 1.25; stroke-linejoin: miter; stroke-linecap: square"/>
   </g>
   <g id="patch_4">
    <path d="M 406.927188 273.312 
L 406.927188 7.2 
" style="fill: none; stroke: #cccccc; stroke-width: 1.25; stroke-linejoin: miter; stroke-linecap: square"/>
   </g>
   <g id="patch_5">
    <path d="M 49.807187 273.312 
L 406.927188 273.312 
" style="fill: none; stroke: #cccccc; stroke-width: 1.25; stroke-linejoin: miter; stroke-linecap: square"/>
   </g>
   <g id="patch_6">
    <path d="M 49.807187 7.2 
L 406.927188 7.2 
" style="fill: none; stroke: #cccccc; stroke-width: 1.25; stroke-linejoin: miter; stroke-linecap: square"/>
   </g>
   <g id="legend_1">
    <g id="patch_7">
     <path d="M 295.242813 113.843437 
L 399.227188 113.843437 
Q 401.427188 113.843437 401.427188 111.643437 
L 401.427188 14.9 
Q 401.427188 12.7 399.227188 12.7 
L 295.242813 12.7 
Q 293.042813 12.7 293.042813 14.9 
L 293.042813 111.643437 
Q 293.042813 113.843437 295.242813 113.843437 
z
" style="fill: #ffffff; opacity: 0.8; stroke: #cccccc; stroke-linejoin: miter"/>
    </g>
    <g id="text_15">
     <!-- Strategy -->
     <g style="fill: #262626" transform="translate(321.525937 26.218125) scale(0.12 -0.12)">
      <defs>
       <path id="DejaVuSans-53" d="M 3425 4513 
L 3425 3897 
Q 3066 4069 2747 4153 
Q 2428 4238 2131 4238 
Q 1616 4238 1336 4038 
Q 1056 3838 1056 3469 
Q 1056 3159 1242 3001 
Q 1428 2844 1947 2747 
L 2328 2669 
Q 3034 2534 3370 2195 
Q 3706 1856 3706 1288 
Q 3706 609 3251 259 
Q 2797 -91 1919 -91 
Q 1588 -91 1214 -16 
Q 841 59 441 206 
L 441 856 
Q 825 641 1194 531 
Q 1563 422 1919 422 
Q 2459 422 2753 634 
Q 3047 847 3047 1241 
Q 3047 1584 2836 1778 
Q 2625 1972 2144 2069 
L 1759 2144 
Q 1053 2284 737 2584 
Q 422 2884 422 3419 
Q 422 4038 858 4394 
Q 1294 4750 2059 4750 
Q 2388 4750 2728 4690 
Q 3069 4631 3425 4513 
z
" transform="scale(0.015625)"/>
       <path id="DejaVuSans-74" d="M 1172 4494 
L 1172 3500 
L 2356 3500 
L 2356 3053 
L 1172 3053 
L 1172 1153 
Q 1172 725 1289 603 
Q 1406 481 1766 481 
L 2356 481 
L 2356 0 
L 1766 0 
Q 1100 0 847 248 
Q 594 497 594 1153 
L 594 3053 
L 172 3053 
L 172 3500 
L 594 3500 
L 594 4494 
L 1172 4494 
z
" transform="scale(0.015625)"/>
       <path id="DejaVuSans-72" d="M 2631 2963 
Q 2534 3019 2420 3045 
Q 2306 3072 2169 3072 
Q 1681 3072 1420 2755 
Q 1159 2438 1159 1844 
L 1159 0 
L 581 0 
L 581 3500 
L 1159 3500 
L 1159 2956 
Q 1341 3275 1631 3429 
Q 1922 3584 2338 3584 
Q 2397 3584 2469 3576 
Q 2541 3569 2628 3553 
L 2631 2963 
z
" transform="scale(0.015625)"/>
       <path id="DejaVuSans-61" d="M 2194 1759 
Q 1497 1759 1228 1600 
Q 959 1441 959 1056 
Q 959 750 1161 570 
Q 1363 391 1709 391 
Q 2188 391 2477 730 
Q 2766 1069 2766 1631 
L 2766 1759 
L 2194 1759 
z
M 3341 1997 
L 3341 0 
L 2766 0 
L 2766 531 
Q 2569 213 2275 61 
Q 1981 -91 1556 -91 
Q 1019 -91 701 211 
Q 384 513 384 1019 
Q 384 1609 779 1909 
Q 1175 2209 1959 2209 
L 2766 2209 
L 2766 2266 
Q 2766 2663 2505 2880 
Q 2244 3097 1772 3097 
Q 1472 3097 1187 3025 
Q 903 2953 641 2809 
L 641 3341 
Q 956 3463 1253 3523 
Q 1550 3584 1831 3584 
Q 2591 3584 2966 3190 
Q 3341 2797 3341 1997 
z
" transform="scale(0.015625)"/>
       <path id="DejaVuSans-65" d="M 3597 1894 
L 3597 1613 
L 953 1613 
Q 991 1019 1311 708 
Q 1631 397 2203 397 
Q 2534 397 2845 478 
Q 3156 559 3463 722 
L 3463 178 
Q 3153 47 2828 -22 
Q 2503 -91 2169 -91 
Q 1331 -91 842 396 
Q 353 884 353 1716 
Q 353 2575 817 3079 
Q 1281 3584 2069 3584 
Q 2775 3584 3186 3129 
Q 3597 2675 3597 1894 
z
M 3022 2063 
Q 3016 2534 2758 2815 
Q 2500 3097 2075 3097 
Q 1594 3097 1305 2825 
Q 1016 2553 972 2059 
L 3022 2063 
z
" transform="scale(0.015625)"/>
       <path id="DejaVuSans-67" d="M 2906 1791 
Q 2906 2416 2648 2759 
Q 2391 3103 1925 3103 
Q 1463 3103 1205 2759 
Q 947 2416 947 1791 
Q 947 1169 1205 825 
Q 1463 481 1925 481 
Q 2391 481 2648 825 
Q 2906 1169 2906 1791 
z
M 3481 434 
Q 3481 -459 3084 -895 
Q 2688 -1331 1869 -1331 
Q 1566 -1331 1297 -1286 
Q 1028 -1241 775 -1147 
L 775 -588 
Q 1028 -725 1275 -790 
Q 1522 -856 1778 -856 
Q 2344 -856 2625 -561 
Q 2906 -266 2906 331 
L 2906 616 
Q 2728 306 2450 153 
Q 2172 0 1784 0 
Q 1141 0 747 490 
Q 353 981 353 1791 
Q 353 2603 747 3093 
Q 1141 3584 1784 3584 
Q 2172 3584 2450 3431 
Q 2728 3278 2906 2969 
L 2906 3500 
L 3481 3500 
L 3481 434 
z
" transform="scale(0.015625)"/>
       <path id="DejaVuSans-79" d="M 2059 -325 
Q 1816 -950 1584 -1140 
Q 1353 -1331 966 -1331 
L 506 -1331 
L 506 -850 
L 844 -850 
Q 1081 -850 1212 -737 
Q 1344 -625 1503 -206 
L 1606 56 
L 191 3500 
L 800 3500 
L 1894 763 
L 2988 3500 
L 3597 3500 
L 2059 -325 
z
" transform="scale(0.015625)"/>
      </defs>
      <use xlink:href="#DejaVuSans-53"/>
      <use xlink:href="#DejaVuSans-74" x="63.476562"/>
      <use xlink:href="#DejaVuSans-72" x="102.685547"/>
      <use xlink:href="#DejaVuSans-61" x="143.798828"/>
      <use xlink:href="#DejaVuSans-74" x="205.078125"/>
      <use xlink:href="#DejaVuSans-65" x="244.287109"/>
      <use xlink:href="#DejaVuSans-67" x="305.810547"/>
      <use xlink:href="#DejaVuSans-79" x="369.287109"/>
     </g>
    </g>
    <g id="line2d_23">
     <path d="M 297.442813 38.722031 
L 308.442813 38.722031 
L 319.442813 38.722031 
" style="fill: none; stroke: #4c72b0; stroke-width: 1.5; stroke-linecap: round"/>
    </g>
    <g id="text_16">
     <!-- FedPredict -->
     <g style="fill: #262626" transform="translate(328.242813 42.572031) scale(0.11 -0.11)">
      <defs>
       <path id="DejaVuSans-46" d="M 628 4666 
L 3309 4666 
L 3309 4134 
L 1259 4134 
L 1259 2759 
L 3109 2759 
L 3109 2228 
L 1259 2228 
L 1259 0 
L 628 0 
L 628 4666 
z
" transform="scale(0.015625)"/>
       <path id="DejaVuSans-50" d="M 1259 4147 
L 1259 2394 
L 2053 2394 
Q 2494 2394 2734 2622 
Q 2975 2850 2975 3272 
Q 2975 3691 2734 3919 
Q 2494 4147 2053 4147 
L 1259 4147 
z
M 628 4666 
L 2053 4666 
Q 2838 4666 3239 4311 
Q 3641 3956 3641 3272 
Q 3641 2581 3239 2228 
Q 2838 1875 2053 1875 
L 1259 1875 
L 1259 0 
L 628 0 
L 628 4666 
z
" transform="scale(0.015625)"/>
       <path id="DejaVuSans-69" d="M 603 3500 
L 1178 3500 
L 1178 0 
L 603 0 
L 603 3500 
z
M 603 4863 
L 1178 4863 
L 1178 4134 
L 603 4134 
L 603 4863 
z
" transform="scale(0.015625)"/>
       <path id="DejaVuSans-63" d="M 3122 3366 
L 3122 2828 
Q 2878 2963 2633 3030 
Q 2388 3097 2138 3097 
Q 1578 3097 1268 2742 
Q 959 2388 959 1747 
Q 959 1106 1268 751 
Q 1578 397 2138 397 
Q 2388 397 2633 464 
Q 2878 531 3122 666 
L 3122 134 
Q 2881 22 2623 -34 
Q 2366 -91 2075 -91 
Q 1284 -91 818 406 
Q 353 903 353 1747 
Q 353 2603 823 3093 
Q 1294 3584 2113 3584 
Q 2378 3584 2631 3529 
Q 2884 3475 3122 3366 
z
" transform="scale(0.015625)"/>
      </defs>
      <use xlink:href="#DejaVuSans-46"/>
      <use xlink:href="#DejaVuSans-65" x="52.019531"/>
      <use xlink:href="#DejaVuSans-64" x="113.542969"/>
      <use xlink:href="#DejaVuSans-50" x="177.019531"/>
      <use xlink:href="#DejaVuSans-72" x="235.572266"/>
      <use xlink:href="#DejaVuSans-65" x="274.435547"/>
      <use xlink:href="#DejaVuSans-64" x="335.958984"/>
      <use xlink:href="#DejaVuSans-69" x="399.435547"/>
      <use xlink:href="#DejaVuSans-63" x="427.21875"/>
      <use xlink:href="#DejaVuSans-74" x="482.199219"/>
     </g>
    </g>
    <g id="line2d_24">
     <path d="M 297.442813 54.867969 
L 308.442813 54.867969 
L 319.442813 54.867969 
" style="fill: none; stroke-dasharray: 6,2.25; stroke-dashoffset: 0; stroke: #dd8452; stroke-width: 1.5"/>
    </g>
    <g id="text_17">
     <!-- FedAVG -->
     <g style="fill: #262626" transform="translate(328.242813 58.717969) scale(0.11 -0.11)">
      <defs>
       <path id="DejaVuSans-41" d="M 2188 4044 
L 1331 1722 
L 3047 1722 
L 2188 4044 
z
M 1831 4666 
L 2547 4666 
L 4325 0 
L 3669 0 
L 3244 1197 
L 1141 1197 
L 716 0 
L 50 0 
L 1831 4666 
z
" transform="scale(0.015625)"/>
       <path id="DejaVuSans-56" d="M 1831 0 
L 50 4666 
L 709 4666 
L 2188 738 
L 3669 4666 
L 4325 4666 
L 2547 0 
L 1831 0 
z
" transform="scale(0.015625)"/>
       <path id="DejaVuSans-47" d="M 3809 666 
L 3809 1919 
L 2778 1919 
L 2778 2438 
L 4434 2438 
L 4434 434 
Q 4069 175 3628 42 
Q 3188 -91 2688 -91 
Q 1594 -91 976 548 
Q 359 1188 359 2328 
Q 359 3472 976 4111 
Q 1594 4750 2688 4750 
Q 3144 4750 3555 4637 
Q 3966 4525 4313 4306 
L 4313 3634 
Q 3963 3931 3569 4081 
Q 3175 4231 2741 4231 
Q 1884 4231 1454 3753 
Q 1025 3275 1025 2328 
Q 1025 1384 1454 906 
Q 1884 428 2741 428 
Q 3075 428 3337 486 
Q 3600 544 3809 666 
z
" transform="scale(0.015625)"/>
      </defs>
      <use xlink:href="#DejaVuSans-46"/>
      <use xlink:href="#DejaVuSans-65" x="52.019531"/>
      <use xlink:href="#DejaVuSans-64" x="113.542969"/>
      <use xlink:href="#DejaVuSans-41" x="177.019531"/>
      <use xlink:href="#DejaVuSans-56" x="239.052734"/>
      <use xlink:href="#DejaVuSans-47" x="307.460938"/>
     </g>
    </g>
    <g id="line2d_25">
     <path d="M 297.442813 71.013906 
L 308.442813 71.013906 
L 319.442813 71.013906 
" style="fill: none; stroke-dasharray: 1.5,1.5; stroke-dashoffset: 0; stroke: #55a868; stroke-width: 1.5"/>
    </g>
    <g id="text_18">
     <!-- FedClassAvg -->
     <g style="fill: #262626" transform="translate(328.242813 74.863906) scale(0.11 -0.11)">
      <defs>
       <path id="DejaVuSans-43" d="M 4122 4306 
L 4122 3641 
Q 3803 3938 3442 4084 
Q 3081 4231 2675 4231 
Q 1875 4231 1450 3742 
Q 1025 3253 1025 2328 
Q 1025 1406 1450 917 
Q 1875 428 2675 428 
Q 3081 428 3442 575 
Q 3803 722 4122 1019 
L 4122 359 
Q 3791 134 3420 21 
Q 3050 -91 2638 -91 
Q 1578 -91 968 557 
Q 359 1206 359 2328 
Q 359 3453 968 4101 
Q 1578 4750 2638 4750 
Q 3056 4750 3426 4639 
Q 3797 4528 4122 4306 
z
" transform="scale(0.015625)"/>
       <path id="DejaVuSans-6c" d="M 603 4863 
L 1178 4863 
L 1178 0 
L 603 0 
L 603 4863 
z
" transform="scale(0.015625)"/>
       <path id="DejaVuSans-76" d="M 191 3500 
L 800 3500 
L 1894 563 
L 2988 3500 
L 3597 3500 
L 2284 0 
L 1503 0 
L 191 3500 
z
" transform="scale(0.015625)"/>
      </defs>
      <use xlink:href="#DejaVuSans-46"/>
      <use xlink:href="#DejaVuSans-65" x="52.019531"/>
      <use xlink:href="#DejaVuSans-64" x="113.542969"/>
      <use xlink:href="#DejaVuSans-43" x="177.019531"/>
      <use xlink:href="#DejaVuSans-6c" x="246.84375"/>
      <use xlink:href="#DejaVuSans-61" x="274.626953"/>
      <use xlink:href="#DejaVuSans-73" x="335.90625"/>
      <use xlink:href="#DejaVuSans-73" x="388.005859"/>
      <use xlink:href="#DejaVuSans-41" x="440.105469"/>
      <use xlink:href="#DejaVuSans-76" x="502.638672"/>
      <use xlink:href="#DejaVuSans-67" x="561.818359"/>
     </g>
    </g>
    <g id="line2d_26">
     <path d="M 297.442813 87.159844 
L 308.442813 87.159844 
L 319.442813 87.159844 
" style="fill: none; stroke-dasharray: 4.5,1.875,2.25,1.875; stroke-dashoffset: 0; stroke: #c44e52; stroke-width: 1.5"/>
    </g>
    <g id="text_19">
     <!-- FedPer -->
     <g style="fill: #262626" transform="translate(328.242813 91.009844) scale(0.11 -0.11)">
      <use xlink:href="#DejaVuSans-46"/>
      <use xlink:href="#DejaVuSans-65" x="52.019531"/>
      <use xlink:href="#DejaVuSans-64" x="113.542969"/>
      <use xlink:href="#DejaVuSans-50" x="177.019531"/>
      <use xlink:href="#DejaVuSans-65" x="233.697266"/>
      <use xlink:href="#DejaVuSans-72" x="295.220703"/>
     </g>
    </g>
    <g id="line2d_27">
     <path d="M 297.442813 103.305781 
L 308.442813 103.305781 
L 319.442813 103.305781 
" style="fill: none; stroke-dasharray: 7.5,1.5,1.5,1.5; stroke-dashoffset: 0; stroke: #8172b3; stroke-width: 1.5"/>
    </g>
    <g id="text_20">
     <!-- FedProto -->
     <g style="fill: #262626" transform="translate(328.242813 107.155781) scale(0.11 -0.11)">
      <use xlink:href="#DejaVuSans-46"/>
      <use xlink:href="#DejaVuSans-65" x="52.019531"/>
      <use xlink:href="#DejaVuSans-64" x="113.542969"/>
      <use xlink:href="#DejaVuSans-50" x="177.019531"/>
      <use xlink:href="#DejaVuSans-72" x="235.572266"/>
      <use xlink:href="#DejaVuSans-6f" x="274.435547"/>
      <use xlink:href="#DejaVuSans-74" x="335.617188"/>
      <use xlink:href="#DejaVuSans-6f" x="374.826172"/>
     </g>
    </g>
   </g>
  </g>
 </g>
 <defs>
  <clipPath id="p4c589b6469">
   <rect x="49.807187" y="7.2" width="357.12" height="266.112"/>
  </clipPath>
 </defs>
</svg>
