<?xml version="1.0" encoding="utf-8" standalone="no"?>
<!DOCTYPE svg PUBLIC "-//W3C//DTD SVG 1.1//EN"
  "http://www.w3.org/Graphics/SVG/1.1/DTD/svg11.dtd">
<svg xmlns:xlink="http://www.w3.org/1999/xlink" width="421.125937pt" height="316.271687pt" viewBox="0 0 421.125937 316.271687" xmlns="http://www.w3.org/2000/svg" version="1.1">
 <metadata>
  <rdf:RDF xmlns:dc="http://purl.org/dc/elements/1.1/" xmlns:cc="http://creativecommons.org/ns#" xmlns:rdf="http://www.w3.org/1999/02/22-rdf-syntax-ns#">
   <cc:Work>
    <dc:type rdf:resource="http://purl.org/dc/dcmitype/StillImage"/>
    <dc:date>2023-02-10T11:34:46.470704</dc:date>
    <dc:format>image/svg+xml</dc:format>
    <dc:creator>
     <cc:Agent>
      <dc:title>Matplotlib v3.6.3, https://matplotlib.org/</dc:title>
     </cc:Agent>
    </dc:creator>
   </cc:Work>
  </rdf:RDF>
 </metadata>
 <defs>
  <style type="text/css">*{stroke-linejoin: round; stroke-linecap: butt}</style>
 </defs>
 <g id="figure_1">
  <g id="patch_1">
   <path d="M 0 316.271687 
L 421.125937 316.271687 
L 421.125937 0 
L 0 0 
z
" style="fill: #ffffff"/>
  </g>
  <g id="axes_1">
   <g id="patch_2">
    <path d="M 56.805938 273.312 
L 413.925938 273.312 
L 413.925938 7.2 
L 56.805938 7.2 
z
" style="fill: #ffffff"/>
   </g>
   <g id="matplotlib.axis_1">
    <g id="xtick_1">
     <g id="line2d_1">
      <path d="M 69.759326 273.312 
L 69.759326 7.2 
" clip-path="url(#p32e3d96359)" style="fill: none; stroke: #cccccc; stroke-linecap: round"/>
     </g>
     <g id="text_1">
      <!-- 0 -->
      <g style="fill: #262626" transform="translate(66.259951 291.170281) scale(0.11 -0.11)">
       <defs>
        <path id="DejaVuSans-30" d="M 2034 4250 
Q 1547 4250 1301 3770 
Q 1056 3291 1056 2328 
Q 1056 1369 1301 889 
Q 1547 409 2034 409 
Q 2525 409 2770 889 
Q 3016 1369 3016 2328 
Q 3016 3291 2770 3770 
Q 2525 4250 2034 4250 
z
M 2034 4750 
Q 2819 4750 3233 4129 
Q 3647 3509 3647 2328 
Q 3647 1150 3233 529 
Q 2819 -91 2034 -91 
Q 1250 -91 836 529 
Q 422 1150 422 2328 
Q 422 3509 836 4129 
Q 1250 4750 2034 4750 
z
" transform="scale(0.015625)"/>
       </defs>
       <use xlink:href="#DejaVuSans-30"/>
      </g>
     </g>
    </g>
    <g id="xtick_2">
     <g id="line2d_2">
      <path d="M 135.346103 273.312 
L 135.346103 7.2 
" clip-path="url(#p32e3d96359)" style="fill: none; stroke: #cccccc; stroke-linecap: round"/>
     </g>
     <g id="text_2">
      <!-- 20 -->
      <g style="fill: #262626" transform="translate(128.347353 291.170281) scale(0.11 -0.11)">
       <defs>
        <path id="DejaVuSans-32" d="M 1228 531 
L 3431 531 
L 3431 0 
L 469 0 
L 469 531 
Q 828 903 1448 1529 
Q 2069 2156 2228 2338 
Q 2531 2678 2651 2914 
Q 2772 3150 2772 3378 
Q 2772 3750 2511 3984 
Q 2250 4219 1831 4219 
Q 1534 4219 1204 4116 
Q 875 4013 500 3803 
L 500 4441 
Q 881 4594 1212 4672 
Q 1544 4750 1819 4750 
Q 2544 4750 2975 4387 
Q 3406 4025 3406 3419 
Q 3406 3131 3298 2873 
Q 3191 2616 2906 2266 
Q 2828 2175 2409 1742 
Q 1991 1309 1228 531 
z
" transform="scale(0.015625)"/>
       </defs>
       <use xlink:href="#DejaVuSans-32"/>
       <use xlink:href="#DejaVuSans-30" x="63.623047"/>
      </g>
     </g>
    </g>
    <g id="xtick_3">
     <g id="line2d_3">
      <path d="M 200.93288 273.312 
L 200.93288 7.2 
" clip-path="url(#p32e3d96359)" style="fill: none; stroke: #cccccc; stroke-linecap: round"/>
     </g>
     <g id="text_3">
      <!-- 40 -->
      <g style="fill: #262626" transform="translate(193.93413 291.170281) scale(0.11 -0.11)">
       <defs>
        <path id="DejaVuSans-34" d="M 2419 4116 
L 825 1625 
L 2419 1625 
L 2419 4116 
z
M 2253 4666 
L 3047 4666 
L 3047 1625 
L 3713 1625 
L 3713 1100 
L 3047 1100 
L 3047 0 
L 2419 0 
L 2419 1100 
L 313 1100 
L 313 1709 
L 2253 4666 
z
" transform="scale(0.015625)"/>
       </defs>
       <use xlink:href="#DejaVuSans-34"/>
       <use xlink:href="#DejaVuSans-30" x="63.623047"/>
      </g>
     </g>
    </g>
    <g id="xtick_4">
     <g id="line2d_4">
      <path d="M 266.519657 273.312 
L 266.519657 7.2 
" clip-path="url(#p32e3d96359)" style="fill: none; stroke: #cccccc; stroke-linecap: round"/>
     </g>
     <g id="text_4">
      <!-- 60 -->
      <g style="fill: #262626" transform="translate(259.520907 291.170281) scale(0.11 -0.11)">
       <defs>
        <path id="DejaVuSans-36" d="M 2113 2584 
Q 1688 2584 1439 2293 
Q 1191 2003 1191 1497 
Q 1191 994 1439 701 
Q 1688 409 2113 409 
Q 2538 409 2786 701 
Q 3034 994 3034 1497 
Q 3034 2003 2786 2293 
Q 2538 2584 2113 2584 
z
M 3366 4563 
L 3366 3988 
Q 3128 4100 2886 4159 
Q 2644 4219 2406 4219 
Q 1781 4219 1451 3797 
Q 1122 3375 1075 2522 
Q 1259 2794 1537 2939 
Q 1816 3084 2150 3084 
Q 2853 3084 3261 2657 
Q 3669 2231 3669 1497 
Q 3669 778 3244 343 
Q 2819 -91 2113 -91 
Q 1303 -91 875 529 
Q 447 1150 447 2328 
Q 447 3434 972 4092 
Q 1497 4750 2381 4750 
Q 2619 4750 2861 4703 
Q 3103 4656 3366 4563 
z
" transform="scale(0.015625)"/>
       </defs>
       <use xlink:href="#DejaVuSans-36"/>
       <use xlink:href="#DejaVuSans-30" x="63.623047"/>
      </g>
     </g>
    </g>
    <g id="xtick_5">
     <g id="line2d_5">
      <path d="M 332.106433 273.312 
L 332.106433 7.2 
" clip-path="url(#p32e3d96359)" style="fill: none; stroke: #cccccc; stroke-linecap: round"/>
     </g>
     <g id="text_5">
      <!-- 80 -->
      <g style="fill: #262626" transform="translate(325.107683 291.170281) scale(0.11 -0.11)">
       <defs>
        <path id="DejaVuSans-38" d="M 2034 2216 
Q 1584 2216 1326 1975 
Q 1069 1734 1069 1313 
Q 1069 891 1326 650 
Q 1584 409 2034 409 
Q 2484 409 2743 651 
Q 3003 894 3003 1313 
Q 3003 1734 2745 1975 
Q 2488 2216 2034 2216 
z
M 1403 2484 
Q 997 2584 770 2862 
Q 544 3141 544 3541 
Q 544 4100 942 4425 
Q 1341 4750 2034 4750 
Q 2731 4750 3128 4425 
Q 3525 4100 3525 3541 
Q 3525 3141 3298 2862 
Q 3072 2584 2669 2484 
Q 3125 2378 3379 2068 
Q 3634 1759 3634 1313 
Q 3634 634 3220 271 
Q 2806 -91 2034 -91 
Q 1263 -91 848 271 
Q 434 634 434 1313 
Q 434 1759 690 2068 
Q 947 2378 1403 2484 
z
M 1172 3481 
Q 1172 3119 1398 2916 
Q 1625 2713 2034 2713 
Q 2441 2713 2670 2916 
Q 2900 3119 2900 3481 
Q 2900 3844 2670 4047 
Q 2441 4250 2034 4250 
Q 1625 4250 1398 4047 
Q 1172 3844 1172 3481 
z
" transform="scale(0.015625)"/>
       </defs>
       <use xlink:href="#DejaVuSans-38"/>
       <use xlink:href="#DejaVuSans-30" x="63.623047"/>
      </g>
     </g>
    </g>
    <g id="xtick_6">
     <g id="line2d_6">
      <path d="M 397.69321 273.312 
L 397.69321 7.2 
" clip-path="url(#p32e3d96359)" style="fill: none; stroke: #cccccc; stroke-linecap: round"/>
     </g>
     <g id="text_6">
      <!-- 100 -->
      <g style="fill: #262626" transform="translate(387.195085 291.170281) scale(0.11 -0.11)">
       <defs>
        <path id="DejaVuSans-31" d="M 794 531 
L 1825 531 
L 1825 4091 
L 703 3866 
L 703 4441 
L 1819 4666 
L 2450 4666 
L 2450 531 
L 3481 531 
L 3481 0 
L 794 0 
L 794 531 
z
" transform="scale(0.015625)"/>
       </defs>
       <use xlink:href="#DejaVuSans-31"/>
       <use xlink:href="#DejaVuSans-30" x="63.623047"/>
       <use xlink:href="#DejaVuSans-30" x="127.246094"/>
      </g>
     </g>
    </g>
    <g id="text_7">
     <!-- Server round -->
     <g style="fill: #262626" transform="translate(196.365 306.576062) scale(0.12 -0.12)">
      <defs>
       <path id="DejaVuSans-53" d="M 3425 4513 
L 3425 3897 
Q 3066 4069 2747 4153 
Q 2428 4238 2131 4238 
Q 1616 4238 1336 4038 
Q 1056 3838 1056 3469 
Q 1056 3159 1242 3001 
Q 1428 2844 1947 2747 
L 2328 2669 
Q 3034 2534 3370 2195 
Q 3706 1856 3706 1288 
Q 3706 609 3251 259 
Q 2797 -91 1919 -91 
Q 1588 -91 1214 -16 
Q 841 59 441 206 
L 441 856 
Q 825 641 1194 531 
Q 1563 422 1919 422 
Q 2459 422 2753 634 
Q 3047 847 3047 1241 
Q 3047 1584 2836 1778 
Q 2625 1972 2144 2069 
L 1759 2144 
Q 1053 2284 737 2584 
Q 422 2884 422 3419 
Q 422 4038 858 4394 
Q 1294 4750 2059 4750 
Q 2388 4750 2728 4690 
Q 3069 4631 3425 4513 
z
" transform="scale(0.015625)"/>
       <path id="DejaVuSans-65" d="M 3597 1894 
L 3597 1613 
L 953 1613 
Q 991 1019 1311 708 
Q 1631 397 2203 397 
Q 2534 397 2845 478 
Q 3156 559 3463 722 
L 3463 178 
Q 3153 47 2828 -22 
Q 2503 -91 2169 -91 
Q 1331 -91 842 396 
Q 353 884 353 1716 
Q 353 2575 817 3079 
Q 1281 3584 2069 3584 
Q 2775 3584 3186 3129 
Q 3597 2675 3597 1894 
z
M 3022 2063 
Q 3016 2534 2758 2815 
Q 2500 3097 2075 3097 
Q 1594 3097 1305 2825 
Q 1016 2553 972 2059 
L 3022 2063 
z
" transform="scale(0.015625)"/>
       <path id="DejaVuSans-72" d="M 2631 2963 
Q 2534 3019 2420 3045 
Q 2306 3072 2169 3072 
Q 1681 3072 1420 2755 
Q 1159 2438 1159 1844 
L 1159 0 
L 581 0 
L 581 3500 
L 1159 3500 
L 1159 2956 
Q 1341 3275 1631 3429 
Q 1922 3584 2338 3584 
Q 2397 3584 2469 3576 
Q 2541 3569 2628 3553 
L 2631 2963 
z
" transform="scale(0.015625)"/>
       <path id="DejaVuSans-76" d="M 191 3500 
L 800 3500 
L 1894 563 
L 2988 3500 
L 3597 3500 
L 2284 0 
L 1503 0 
L 191 3500 
z
" transform="scale(0.015625)"/>
       <path id="DejaVuSans-20" transform="scale(0.015625)"/>
       <path id="DejaVuSans-6f" d="M 1959 3097 
Q 1497 3097 1228 2736 
Q 959 2375 959 1747 
Q 959 1119 1226 758 
Q 1494 397 1959 397 
Q 2419 397 2687 759 
Q 2956 1122 2956 1747 
Q 2956 2369 2687 2733 
Q 2419 3097 1959 3097 
z
M 1959 3584 
Q 2709 3584 3137 3096 
Q 3566 2609 3566 1747 
Q 3566 888 3137 398 
Q 2709 -91 1959 -91 
Q 1206 -91 779 398 
Q 353 888 353 1747 
Q 353 2609 779 3096 
Q 1206 3584 1959 3584 
z
" transform="scale(0.015625)"/>
       <path id="DejaVuSans-75" d="M 544 1381 
L 544 3500 
L 1119 3500 
L 1119 1403 
Q 1119 906 1312 657 
Q 1506 409 1894 409 
Q 2359 409 2629 706 
Q 2900 1003 2900 1516 
L 2900 3500 
L 3475 3500 
L 3475 0 
L 2900 0 
L 2900 538 
Q 2691 219 2414 64 
Q 2138 -91 1772 -91 
Q 1169 -91 856 284 
Q 544 659 544 1381 
z
M 1991 3584 
L 1991 3584 
z
" transform="scale(0.015625)"/>
       <path id="DejaVuSans-6e" d="M 3513 2113 
L 3513 0 
L 2938 0 
L 2938 2094 
Q 2938 2591 2744 2837 
Q 2550 3084 2163 3084 
Q 1697 3084 1428 2787 
Q 1159 2491 1159 1978 
L 1159 0 
L 581 0 
L 581 3500 
L 1159 3500 
L 1159 2956 
Q 1366 3272 1645 3428 
Q 1925 3584 2291 3584 
Q 2894 3584 3203 3211 
Q 3513 2838 3513 2113 
z
" transform="scale(0.015625)"/>
       <path id="DejaVuSans-64" d="M 2906 2969 
L 2906 4863 
L 3481 4863 
L 3481 0 
L 2906 0 
L 2906 525 
Q 2725 213 2448 61 
Q 2172 -91 1784 -91 
Q 1150 -91 751 415 
Q 353 922 353 1747 
Q 353 2572 751 3078 
Q 1150 3584 1784 3584 
Q 2172 3584 2448 3432 
Q 2725 3281 2906 2969 
z
M 947 1747 
Q 947 1113 1208 752 
Q 1469 391 1925 391 
Q 2381 391 2643 752 
Q 2906 1113 2906 1747 
Q 2906 2381 2643 2742 
Q 2381 3103 1925 3103 
Q 1469 3103 1208 2742 
Q 947 2381 947 1747 
z
" transform="scale(0.015625)"/>
      </defs>
      <use xlink:href="#DejaVuSans-53"/>
      <use xlink:href="#DejaVuSans-65" x="63.476562"/>
      <use xlink:href="#DejaVuSans-72" x="125"/>
      <use xlink:href="#DejaVuSans-76" x="166.113281"/>
      <use xlink:href="#DejaVuSans-65" x="225.292969"/>
      <use xlink:href="#DejaVuSans-72" x="286.816406"/>
      <use xlink:href="#DejaVuSans-20" x="327.929688"/>
      <use xlink:href="#DejaVuSans-72" x="359.716797"/>
      <use xlink:href="#DejaVuSans-6f" x="398.580078"/>
      <use xlink:href="#DejaVuSans-75" x="459.761719"/>
      <use xlink:href="#DejaVuSans-6e" x="523.140625"/>
      <use xlink:href="#DejaVuSans-64" x="586.519531"/>
     </g>
    </g>
   </g>
   <g id="matplotlib.axis_2">
    <g id="ytick_1">
     <g id="line2d_7">
      <path d="M 56.805938 256.667994 
L 413.925938 256.667994 
" clip-path="url(#p32e3d96359)" style="fill: none; stroke: #cccccc; stroke-linecap: round"/>
     </g>
     <g id="text_8">
      <!-- 10.0 -->
      <g style="fill: #262626" transform="translate(22.81375 260.847134) scale(0.11 -0.11)">
       <defs>
        <path id="DejaVuSans-2e" d="M 684 794 
L 1344 794 
L 1344 0 
L 684 0 
L 684 794 
z
" transform="scale(0.015625)"/>
       </defs>
       <use xlink:href="#DejaVuSans-31"/>
       <use xlink:href="#DejaVuSans-30" x="63.623047"/>
       <use xlink:href="#DejaVuSans-2e" x="127.246094"/>
       <use xlink:href="#DejaVuSans-30" x="159.033203"/>
      </g>
     </g>
    </g>
    <g id="ytick_2">
     <g id="line2d_8">
      <path d="M 56.805938 222.803043 
L 413.925938 222.803043 
" clip-path="url(#p32e3d96359)" style="fill: none; stroke: #cccccc; stroke-linecap: round"/>
     </g>
     <g id="text_9">
      <!-- 12.5 -->
      <g style="fill: #262626" transform="translate(22.81375 226.982184) scale(0.11 -0.11)">
       <defs>
        <path id="DejaVuSans-35" d="M 691 4666 
L 3169 4666 
L 3169 4134 
L 1269 4134 
L 1269 2991 
Q 1406 3038 1543 3061 
Q 1681 3084 1819 3084 
Q 2600 3084 3056 2656 
Q 3513 2228 3513 1497 
Q 3513 744 3044 326 
Q 2575 -91 1722 -91 
Q 1428 -91 1123 -41 
Q 819 9 494 109 
L 494 744 
Q 775 591 1075 516 
Q 1375 441 1709 441 
Q 2250 441 2565 725 
Q 2881 1009 2881 1497 
Q 2881 1984 2565 2268 
Q 2250 2553 1709 2553 
Q 1456 2553 1204 2497 
Q 953 2441 691 2322 
L 691 4666 
z
" transform="scale(0.015625)"/>
       </defs>
       <use xlink:href="#DejaVuSans-31"/>
       <use xlink:href="#DejaVuSans-32" x="63.623047"/>
       <use xlink:href="#DejaVuSans-2e" x="127.246094"/>
       <use xlink:href="#DejaVuSans-35" x="159.033203"/>
      </g>
     </g>
    </g>
    <g id="ytick_3">
     <g id="line2d_9">
      <path d="M 56.805938 188.938092 
L 413.925938 188.938092 
" clip-path="url(#p32e3d96359)" style="fill: none; stroke: #cccccc; stroke-linecap: round"/>
     </g>
     <g id="text_10">
      <!-- 15.0 -->
      <g style="fill: #262626" transform="translate(22.81375 193.117233) scale(0.11 -0.11)">
       <use xlink:href="#DejaVuSans-31"/>
       <use xlink:href="#DejaVuSans-35" x="63.623047"/>
       <use xlink:href="#DejaVuSans-2e" x="127.246094"/>
       <use xlink:href="#DejaVuSans-30" x="159.033203"/>
      </g>
     </g>
    </g>
    <g id="ytick_4">
     <g id="line2d_10">
      <path d="M 56.805938 155.073142 
L 413.925938 155.073142 
" clip-path="url(#p32e3d96359)" style="fill: none; stroke: #cccccc; stroke-linecap: round"/>
     </g>
     <g id="text_11">
      <!-- 17.5 -->
      <g style="fill: #262626" transform="translate(22.81375 159.252282) scale(0.11 -0.11)">
       <defs>
        <path id="DejaVuSans-37" d="M 525 4666 
L 3525 4666 
L 3525 4397 
L 1831 0 
L 1172 0 
L 2766 4134 
L 525 4134 
L 525 4666 
z
" transform="scale(0.015625)"/>
       </defs>
       <use xlink:href="#DejaVuSans-31"/>
       <use xlink:href="#DejaVuSans-37" x="63.623047"/>
       <use xlink:href="#DejaVuSans-2e" x="127.246094"/>
       <use xlink:href="#DejaVuSans-35" x="159.033203"/>
      </g>
     </g>
    </g>
    <g id="ytick_5">
     <g id="line2d_11">
      <path d="M 56.805938 121.208191 
L 413.925938 121.208191 
" clip-path="url(#p32e3d96359)" style="fill: none; stroke: #cccccc; stroke-linecap: round"/>
     </g>
     <g id="text_12">
      <!-- 20.0 -->
      <g style="fill: #262626" transform="translate(22.81375 125.387331) scale(0.11 -0.11)">
       <use xlink:href="#DejaVuSans-32"/>
       <use xlink:href="#DejaVuSans-30" x="63.623047"/>
       <use xlink:href="#DejaVuSans-2e" x="127.246094"/>
       <use xlink:href="#DejaVuSans-30" x="159.033203"/>
      </g>
     </g>
    </g>
    <g id="ytick_6">
     <g id="line2d_12">
      <path d="M 56.805938 87.34324 
L 413.925938 87.34324 
" clip-path="url(#p32e3d96359)" style="fill: none; stroke: #cccccc; stroke-linecap: round"/>
     </g>
     <g id="text_13">
      <!-- 22.5 -->
      <g style="fill: #262626" transform="translate(22.81375 91.522381) scale(0.11 -0.11)">
       <use xlink:href="#DejaVuSans-32"/>
       <use xlink:href="#DejaVuSans-32" x="63.623047"/>
       <use xlink:href="#DejaVuSans-2e" x="127.246094"/>
       <use xlink:href="#DejaVuSans-35" x="159.033203"/>
      </g>
     </g>
    </g>
    <g id="ytick_7">
     <g id="line2d_13">
      <path d="M 56.805938 53.478289 
L 413.925938 53.478289 
" clip-path="url(#p32e3d96359)" style="fill: none; stroke: #cccccc; stroke-linecap: round"/>
     </g>
     <g id="text_14">
      <!-- 25.0 -->
      <g style="fill: #262626" transform="translate(22.81375 57.65743) scale(0.11 -0.11)">
       <use xlink:href="#DejaVuSans-32"/>
       <use xlink:href="#DejaVuSans-35" x="63.623047"/>
       <use xlink:href="#DejaVuSans-2e" x="127.246094"/>
       <use xlink:href="#DejaVuSans-30" x="159.033203"/>
      </g>
     </g>
    </g>
    <g id="ytick_8">
     <g id="line2d_14">
      <path d="M 56.805938 19.613339 
L 413.925938 19.613339 
" clip-path="url(#p32e3d96359)" style="fill: none; stroke: #cccccc; stroke-linecap: round"/>
     </g>
     <g id="text_15">
      <!-- 27.5 -->
      <g style="fill: #262626" transform="translate(22.81375 23.792479) scale(0.11 -0.11)">
       <use xlink:href="#DejaVuSans-32"/>
       <use xlink:href="#DejaVuSans-37" x="63.623047"/>
       <use xlink:href="#DejaVuSans-2e" x="127.246094"/>
       <use xlink:href="#DejaVuSans-35" x="159.033203"/>
      </g>
     </g>
    </g>
    <g id="text_16">
     <!-- Time (seconds) -->
     <g style="fill: #262626" transform="translate(16.318125 186.050062) rotate(-90) scale(0.12 -0.12)">
      <defs>
       <path id="DejaVuSans-54" d="M -19 4666 
L 3928 4666 
L 3928 4134 
L 2272 4134 
L 2272 0 
L 1638 0 
L 1638 4134 
L -19 4134 
L -19 4666 
z
" transform="scale(0.015625)"/>
       <path id="DejaVuSans-69" d="M 603 3500 
L 1178 3500 
L 1178 0 
L 603 0 
L 603 3500 
z
M 603 4863 
L 1178 4863 
L 1178 4134 
L 603 4134 
L 603 4863 
z
" transform="scale(0.015625)"/>
       <path id="DejaVuSans-6d" d="M 3328 2828 
Q 3544 3216 3844 3400 
Q 4144 3584 4550 3584 
Q 5097 3584 5394 3201 
Q 5691 2819 5691 2113 
L 5691 0 
L 5113 0 
L 5113 2094 
Q 5113 2597 4934 2840 
Q 4756 3084 4391 3084 
Q 3944 3084 3684 2787 
Q 3425 2491 3425 1978 
L 3425 0 
L 2847 0 
L 2847 2094 
Q 2847 2600 2669 2842 
Q 2491 3084 2119 3084 
Q 1678 3084 1418 2786 
Q 1159 2488 1159 1978 
L 1159 0 
L 581 0 
L 581 3500 
L 1159 3500 
L 1159 2956 
Q 1356 3278 1631 3431 
Q 1906 3584 2284 3584 
Q 2666 3584 2933 3390 
Q 3200 3197 3328 2828 
z
" transform="scale(0.015625)"/>
       <path id="DejaVuSans-28" d="M 1984 4856 
Q 1566 4138 1362 3434 
Q 1159 2731 1159 2009 
Q 1159 1288 1364 580 
Q 1569 -128 1984 -844 
L 1484 -844 
Q 1016 -109 783 600 
Q 550 1309 550 2009 
Q 550 2706 781 3412 
Q 1013 4119 1484 4856 
L 1984 4856 
z
" transform="scale(0.015625)"/>
       <path id="DejaVuSans-73" d="M 2834 3397 
L 2834 2853 
Q 2591 2978 2328 3040 
Q 2066 3103 1784 3103 
Q 1356 3103 1142 2972 
Q 928 2841 928 2578 
Q 928 2378 1081 2264 
Q 1234 2150 1697 2047 
L 1894 2003 
Q 2506 1872 2764 1633 
Q 3022 1394 3022 966 
Q 3022 478 2636 193 
Q 2250 -91 1575 -91 
Q 1294 -91 989 -36 
Q 684 19 347 128 
L 347 722 
Q 666 556 975 473 
Q 1284 391 1588 391 
Q 1994 391 2212 530 
Q 2431 669 2431 922 
Q 2431 1156 2273 1281 
Q 2116 1406 1581 1522 
L 1381 1569 
Q 847 1681 609 1914 
Q 372 2147 372 2553 
Q 372 3047 722 3315 
Q 1072 3584 1716 3584 
Q 2034 3584 2315 3537 
Q 2597 3491 2834 3397 
z
" transform="scale(0.015625)"/>
       <path id="DejaVuSans-63" d="M 3122 3366 
L 3122 2828 
Q 2878 2963 2633 3030 
Q 2388 3097 2138 3097 
Q 1578 3097 1268 2742 
Q 959 2388 959 1747 
Q 959 1106 1268 751 
Q 1578 397 2138 397 
Q 2388 397 2633 464 
Q 2878 531 3122 666 
L 3122 134 
Q 2881 22 2623 -34 
Q 2366 -91 2075 -91 
Q 1284 -91 818 406 
Q 353 903 353 1747 
Q 353 2603 823 3093 
Q 1294 3584 2113 3584 
Q 2378 3584 2631 3529 
Q 2884 3475 3122 3366 
z
" transform="scale(0.015625)"/>
       <path id="DejaVuSans-29" d="M 513 4856 
L 1013 4856 
Q 1481 4119 1714 3412 
Q 1947 2706 1947 2009 
Q 1947 1309 1714 600 
Q 1481 -109 1013 -844 
L 513 -844 
Q 928 -128 1133 580 
Q 1338 1288 1338 2009 
Q 1338 2731 1133 3434 
Q 928 4138 513 4856 
z
" transform="scale(0.015625)"/>
      </defs>
      <use xlink:href="#DejaVuSans-54"/>
      <use xlink:href="#DejaVuSans-69" x="57.958984"/>
      <use xlink:href="#DejaVuSans-6d" x="85.742188"/>
      <use xlink:href="#DejaVuSans-65" x="183.154297"/>
      <use xlink:href="#DejaVuSans-20" x="244.677734"/>
      <use xlink:href="#DejaVuSans-28" x="276.464844"/>
      <use xlink:href="#DejaVuSans-73" x="315.478516"/>
      <use xlink:href="#DejaVuSans-65" x="367.578125"/>
      <use xlink:href="#DejaVuSans-63" x="429.101562"/>
      <use xlink:href="#DejaVuSans-6f" x="484.082031"/>
      <use xlink:href="#DejaVuSans-6e" x="545.263672"/>
      <use xlink:href="#DejaVuSans-64" x="608.642578"/>
      <use xlink:href="#DejaVuSans-73" x="672.119141"/>
      <use xlink:href="#DejaVuSans-29" x="724.21875"/>
     </g>
    </g>
   </g>
   <g id="PolyCollection_1"/>
   <g id="PolyCollection_2"/>
   <g id="PolyCollection_3"/>
   <g id="PolyCollection_4"/>
   <g id="PolyCollection_5"/>
   <g id="line2d_15">
    <path d="M 73.038665 32.926793 
L 76.318004 109.602249 
L 79.597342 110.851906 
L 82.876681 116.73113 
L 86.15602 124.127881 
L 89.435359 114.868095 
L 92.714698 119.54609 
L 95.994037 118.982974 
L 99.273376 147.532308 
L 102.552714 138.341164 
L 105.832053 123.388651 
L 109.111392 124.90958 
L 112.390731 155.89877 
L 115.67007 116.740027 
L 118.949409 136.807088 
L 122.228747 135.364168 
L 125.508086 132.186031 
L 128.787425 102.986002 
L 132.066764 139.458888 
L 135.346103 126.772656 
L 138.625442 119.260375 
L 141.90478 113.351707 
L 145.184119 144.663326 
L 148.463458 124.744973 
L 151.742797 118.624394 
L 155.022136 146.698525 
L 158.301475 129.27054 
L 161.580814 145.464783 
L 164.860152 152.841569 
L 168.139491 117.110154 
L 171.41883 133.907912 
L 174.698169 126.489507 
L 177.977508 117.69121 
L 181.256847 127.393827 
L 184.536185 125.208936 
L 187.815524 139.984924 
L 191.094863 124.647335 
L 194.374202 130.223431 
L 197.653541 128.887536 
L 200.93288 122.171455 
L 204.212218 129.665948 
L 207.491557 133.074911 
L 210.770896 141.15013 
L 214.050235 115.685187 
L 217.329574 140.052772 
L 220.608913 132.963099 
L 223.888252 152.135718 
L 227.16759 132.521278 
L 230.446929 130.263487 
L 233.726268 143.499008 
L 237.005607 113.930955 
L 240.284946 123.653234 
L 243.564285 124.163616 
L 246.843623 117.799269 
L 250.122962 115.26785 
L 253.402301 131.256771 
L 256.68164 137.314718 
L 259.960979 101.763897 
L 263.240318 143.559541 
L 266.519657 140.228915 
L 269.798995 129.405583 
L 273.078334 129.645578 
L 276.357673 132.560531 
L 279.637012 117.454498 
L 282.916351 128.476352 
L 286.19569 126.763339 
L 289.475028 129.966308 
L 292.754367 139.462834 
L 296.033706 130.230826 
L 299.313045 99.965968 
L 302.592384 87.048041 
L 305.871723 86.385673 
L 309.151061 106.335657 
L 312.4304 84.572574 
L 315.709739 88.518025 
L 318.989078 73.731734 
L 322.268417 113.853531 
L 325.547756 95.674419 
L 328.827095 93.952053 
L 332.106433 99.088243 
L 335.385772 81.915329 
L 338.665111 77.485423 
L 341.94445 86.884448 
L 345.223789 114.116845 
L 348.503128 102.783014 
L 351.782466 110.403978 
L 355.061805 107.375534 
L 358.341144 93.801714 
L 361.620483 111.112652 
L 364.899822 91.690361 
L 368.179161 94.995376 
L 371.458499 107.370486 
L 374.737838 111.662707 
L 378.017177 112.676989 
L 381.296516 88.017403 
L 384.575855 87.032215 
L 387.855194 94.48896 
L 391.134533 103.442356 
L 394.413871 93.599369 
L 397.69321 102.886962 
" clip-path="url(#p32e3d96359)" style="fill: none; stroke: #4c72b0; stroke-width: 1.5; stroke-linecap: round"/>
   </g>
   <g id="line2d_16">
    <path d="M 73.038665 27.651042 
L 76.318004 105.320709 
L 79.597342 135.449087 
L 82.876681 123.823551 
L 86.15602 142.568844 
L 89.435359 121.362331 
L 92.714698 137.888572 
L 95.994037 133.255705 
L 99.273376 153.032036 
L 102.552714 142.459799 
L 105.832053 142.348245 
L 109.111392 141.010556 
L 112.390731 159.818639 
L 115.67007 122.452761 
L 118.949409 155.262355 
L 122.228747 139.651583 
L 125.508086 145.801335 
L 128.787425 118.607803 
L 132.066764 130.953717 
L 135.346103 134.491003 
L 138.625442 129.65477 
L 141.90478 129.161036 
L 145.184119 143.456048 
L 148.463458 133.127428 
L 151.742797 109.249918 
L 155.022136 155.409125 
L 158.301475 143.758814 
L 161.580814 140.961782 
L 164.860152 157.304339 
L 168.139491 127.262815 
L 171.41883 130.581401 
L 174.698169 150.113822 
L 177.977508 122.081782 
L 181.256847 139.353803 
L 184.536185 131.243113 
L 187.815524 151.943527 
L 191.094863 134.58159 
L 194.374202 141.549307 
L 197.653541 134.215882 
L 200.93288 133.954047 
L 204.212218 149.577628 
L 207.491557 131.180594 
L 210.770896 141.38906 
L 214.050235 127.590637 
L 217.329574 147.271765 
L 220.608913 134.172673 
L 223.888252 152.748566 
L 227.16759 141.392457 
L 230.446929 140.870675 
L 233.726268 136.432401 
L 237.005607 124.319216 
L 240.284946 137.230464 
L 243.564285 145.971591 
L 246.843623 130.434434 
L 250.122962 123.070467 
L 253.402301 125.115978 
L 256.68164 149.750558 
L 259.960979 105.598459 
L 263.240318 146.646224 
L 266.519657 141.73333 
L 269.798995 131.157102 
L 273.078334 134.562058 
L 276.357673 137.635044 
L 279.637012 115.591399 
L 282.916351 146.239254 
L 286.19569 138.108199 
L 289.475028 139.213024 
L 292.754367 138.013594 
L 296.033706 135.988019 
L 299.313045 106.325732 
L 302.592384 91.806876 
L 305.871723 93.806342 
L 309.151061 114.114348 
L 312.4304 107.226571 
L 315.709739 90.09519 
L 318.989078 94.240419 
L 322.268417 116.703749 
L 325.547756 112.834033 
L 328.827095 102.015506 
L 332.106433 120.129335 
L 335.385772 95.163274 
L 338.665111 102.141093 
L 341.94445 101.086953 
L 345.223789 119.515751 
L 348.503128 122.2425 
L 351.782466 113.458168 
L 355.061805 116.644954 
L 358.341144 111.269395 
L 361.620483 116.440413 
L 364.899822 94.423741 
L 368.179161 97.131132 
L 371.458499 113.125583 
L 374.737838 120.913728 
L 378.017177 114.357832 
L 381.296516 108.22189 
L 384.575855 100.090327 
L 387.855194 100.970781 
L 391.134533 113.469827 
L 394.413871 94.214078 
L 397.69321 112.735039 
" clip-path="url(#p32e3d96359)" style="fill: none; stroke: #dd8452; stroke-width: 1.5; stroke-linecap: round"/>
   </g>
   <g id="line2d_17">
    <path d="M 73.038665 19.296 
L 76.318004 109.02948 
L 79.597342 135.887233 
L 82.876681 116.874043 
L 86.15602 129.434313 
L 89.435359 128.861635 
L 92.714698 133.458043 
L 95.994037 115.160307 
L 99.273376 148.264248 
L 102.552714 144.300995 
L 105.832053 117.493441 
L 109.111392 143.28816 
L 112.390731 155.374984 
L 115.67007 135.853557 
L 118.949409 133.981199 
L 122.228747 128.382997 
L 125.508086 132.034252 
L 128.787425 94.330576 
L 132.066764 137.191212 
L 135.346103 133.00261 
L 138.625442 121.953485 
L 141.90478 109.4591 
L 145.184119 142.502395 
L 148.463458 129.229824 
L 151.742797 101.883861 
L 155.022136 134.031455 
L 158.301475 122.49451 
L 161.580814 122.307697 
L 164.860152 150.08366 
L 168.139491 122.39757 
L 171.41883 133.862191 
L 174.698169 146.061997 
L 177.977508 135.797876 
L 181.256847 133.207926 
L 184.536185 122.69504 
L 187.815524 142.211277 
L 191.094863 132.480071 
L 194.374202 135.619158 
L 197.653541 130.171586 
L 200.93288 115.802093 
L 204.212218 139.245417 
L 207.491557 132.621012 
L 210.770896 124.983225 
L 214.050235 124.569553 
L 217.329574 144.312348 
L 220.608913 137.432538 
L 223.888252 151.14587 
L 227.16759 126.69761 
L 230.446929 118.882088 
L 233.726268 147.209159 
L 237.005607 120.967675 
L 240.284946 138.063227 
L 243.564285 136.084471 
L 246.843623 121.016801 
L 250.122962 109.995619 
L 253.402301 113.074571 
L 256.68164 146.801 
L 259.960979 96.598673 
L 263.240318 149.031475 
L 266.519657 140.022375 
L 269.798995 122.265088 
L 273.078334 125.930173 
L 276.357673 134.421075 
L 279.637012 118.883263 
L 282.916351 141.262007 
L 286.19569 134.365274 
L 289.475028 133.854517 
L 292.754367 143.706802 
L 296.033706 110.169479 
L 299.313045 88.663044 
L 302.592384 89.599022 
L 305.871723 75.572795 
L 309.151061 91.989168 
L 312.4304 102.033308 
L 315.709739 91.93856 
L 318.989078 81.462599 
L 322.268417 116.510608 
L 325.547756 103.711418 
L 328.827095 94.456593 
L 332.106433 114.263069 
L 335.385772 79.663148 
L 338.665111 100.970219 
L 341.94445 84.589029 
L 345.223789 107.404006 
L 348.503128 107.94848 
L 351.782466 108.674675 
L 355.061805 110.250287 
L 358.341144 106.562269 
L 361.620483 111.953046 
L 364.899822 93.075235 
L 368.179161 103.627558 
L 371.458499 102.446772 
L 374.737838 111.942404 
L 378.017177 103.859302 
L 381.296516 95.752469 
L 384.575855 91.995592 
L 387.855194 99.461915 
L 391.134533 111.08592 
L 394.413871 96.876226 
L 397.69321 111.807926 
" clip-path="url(#p32e3d96359)" style="fill: none; stroke: #55a868; stroke-width: 1.5; stroke-linecap: round"/>
   </g>
   <g id="line2d_18">
    <path d="M 73.038665 34.681781 
L 76.318004 97.167382 
L 79.597342 119.29656 
L 82.876681 122.996657 
L 86.15602 131.659995 
L 89.435359 113.867987 
L 92.714698 132.422197 
L 95.994037 144.888252 
L 99.273376 151.504467 
L 102.552714 147.608365 
L 105.832053 147.923304 
L 109.111392 149.320583 
L 112.390731 162.818074 
L 115.67007 122.789526 
L 118.949409 153.107173 
L 122.228747 145.257442 
L 125.508086 144.596993 
L 128.787425 128.229128 
L 132.066764 132.304484 
L 135.346103 139.704122 
L 138.625442 124.688965 
L 141.90478 117.566695 
L 145.184119 150.235365 
L 148.463458 129.17577 
L 151.742797 113.490174 
L 155.022136 155.752184 
L 158.301475 148.812439 
L 161.580814 147.678819 
L 164.860152 160.35499 
L 168.139491 129.285586 
L 171.41883 126.92521 
L 174.698169 148.519804 
L 177.977508 131.121722 
L 181.256847 129.176561 
L 184.536185 136.562926 
L 187.815524 142.426709 
L 191.094863 121.747623 
L 194.374202 137.563928 
L 197.653541 130.581527 
L 200.93288 136.595568 
L 204.212218 142.264007 
L 207.491557 133.816314 
L 210.770896 142.182004 
L 214.050235 125.630659 
L 217.329574 157.645471 
L 220.608913 140.349325 
L 223.888252 156.328819 
L 227.16759 125.788035 
L 230.446929 141.231245 
L 233.726268 135.928698 
L 237.005607 133.163448 
L 240.284946 132.483824 
L 243.564285 145.811676 
L 246.843623 135.332265 
L 250.122962 133.428664 
L 253.402301 116.63998 
L 256.68164 151.975041 
L 259.960979 106.281735 
L 263.240318 156.030176 
L 266.519657 133.994992 
L 269.798995 138.18031 
L 273.078334 148.274463 
L 276.357673 132.188405 
L 279.637012 125.935734 
L 282.916351 144.376623 
L 286.19569 149.191573 
L 289.475028 132.875831 
L 292.754367 134.202573 
L 296.033706 132.482897 
L 299.313045 98.351322 
L 302.592384 108.677485 
L 305.871723 94.468688 
L 309.151061 100.710859 
L 312.4304 85.46004 
L 315.709739 102.790533 
L 318.989078 89.586523 
L 322.268417 121.436011 
L 325.547756 118.380732 
L 328.827095 89.647111 
L 332.106433 112.682318 
L 335.385772 90.431694 
L 338.665111 89.586345 
L 341.94445 81.260053 
L 345.223789 115.982576 
L 348.503128 106.883719 
L 351.782466 116.562305 
L 355.061805 118.44131 
L 358.341144 119.629943 
L 361.620483 118.777164 
L 364.899822 98.098134 
L 368.179161 96.01461 
L 371.458499 101.069888 
L 374.737838 103.814478 
L 378.017177 114.766872 
L 381.296516 94.696392 
L 384.575855 111.647809 
L 387.855194 93.960621 
L 391.134533 110.99388 
L 394.413871 111.827792 
L 397.69321 107.350059 
" clip-path="url(#p32e3d96359)" style="fill: none; stroke: #c44e52; stroke-width: 1.5; stroke-linecap: round"/>
   </g>
   <g id="line2d_19">
    <path d="M 73.038665 187.519879 
L 76.318004 239.498529 
L 79.597342 250.407782 
L 82.876681 251.366025 
L 86.15602 254.900785 
L 89.435359 250.467882 
L 92.714698 250.538133 
L 95.994037 251.504472 
L 99.273376 257.315535 
L 102.552714 259.507977 
L 105.832053 253.201259 
L 109.111392 258.040596 
L 112.390731 261.216 
L 115.67007 255.536718 
L 118.949409 256.65048 
L 122.228747 258.918179 
L 125.508086 257.209196 
L 128.787425 249.797476 
L 132.066764 257.875197 
L 135.346103 256.029506 
L 138.625442 252.253962 
L 141.90478 249.690957 
L 145.184119 258.144011 
L 148.463458 254.201102 
L 151.742797 246.048621 
L 155.022136 257.489407 
L 158.301475 256.118985 
L 161.580814 257.452002 
L 164.860152 257.556683 
L 168.139491 251.674601 
L 171.41883 251.489063 
L 174.698169 258.958067 
L 177.977508 256.400882 
L 181.256847 253.912397 
L 184.536185 256.496592 
L 187.815524 258.319696 
L 191.094863 255.807063 
L 194.374202 256.47787 
L 197.653541 252.068052 
L 200.93288 250.894088 
L 204.212218 255.083048 
L 207.491557 257.250742 
L 210.770896 253.296772 
L 214.050235 253.037385 
L 217.329574 257.241725 
L 220.608913 252.765038 
L 223.888252 257.920389 
L 227.16759 255.866746 
L 230.446929 252.157109 
L 233.726268 253.947752 
L 237.005607 250.089859 
L 240.284946 253.062828 
L 243.564285 250.177521 
L 246.843623 252.669661 
L 250.122962 253.821406 
L 253.402301 248.330162 
L 256.68164 257.467171 
L 259.960979 245.123931 
L 263.240318 258.150609 
L 266.519657 252.577097 
L 269.798995 250.098618 
L 273.078334 257.714114 
L 276.357673 254.377058 
L 279.637012 252.563362 
L 282.916351 259.834168 
L 286.19569 256.237677 
L 289.475028 256.208384 
L 292.754367 258.809886 
L 296.033706 253.849633 
L 299.313045 223.490767 
L 302.592384 220.326669 
L 305.871723 223.570222 
L 309.151061 226.107897 
L 312.4304 225.7271 
L 315.709739 224.696343 
L 318.989078 218.526454 
L 322.268417 230.527087 
L 325.547756 226.308359 
L 328.827095 227.989356 
L 332.106433 231.559701 
L 335.385772 220.157554 
L 338.665111 227.064922 
L 341.94445 220.144251 
L 345.223789 226.750522 
L 348.503128 221.321574 
L 351.782466 230.424847 
L 355.061805 228.928331 
L 358.341144 226.205102 
L 361.620483 227.346059 
L 364.899822 224.332821 
L 368.179161 221.907152 
L 371.458499 228.189253 
L 374.737838 227.557754 
L 378.017177 225.806919 
L 381.296516 224.486259 
L 384.575855 228.772706 
L 387.855194 227.276652 
L 391.134533 225.86099 
L 394.413871 222.713289 
L 397.69321 225.534741 
" clip-path="url(#p32e3d96359)" style="fill: none; stroke: #8172b3; stroke-width: 1.5; stroke-linecap: round"/>
   </g>
   <g id="line2d_20"/>
   <g id="line2d_21"/>
   <g id="line2d_22"/>
   <g id="line2d_23"/>
   <g id="line2d_24"/>
   <g id="patch_3">
    <path d="M 56.805938 273.312 
L 56.805938 7.2 
" style="fill: none; stroke: #cccccc; stroke-width: 1.25; stroke-linejoin: miter; stroke-linecap: square"/>
   </g>
   <g id="patch_4">
    <path d="M 413.925938 273.312 
L 413.925938 7.2 
" style="fill: none; stroke: #cccccc; stroke-width: 1.25; stroke-linejoin: miter; stroke-linecap: square"/>
   </g>
   <g id="patch_5">
    <path d="M 56.805937 273.312 
L 413.925938 273.312 
" style="fill: none; stroke: #cccccc; stroke-width: 1.25; stroke-linejoin: miter; stroke-linecap: square"/>
   </g>
   <g id="patch_6">
    <path d="M 56.805937 7.2 
L 413.925938 7.2 
" style="fill: none; stroke: #cccccc; stroke-width: 1.25; stroke-linejoin: miter; stroke-linecap: square"/>
   </g>
   <g id="legend_1">
    <g id="patch_7">
     <path d="M 183.37375 113.843437 
L 287.358125 113.843437 
Q 289.558125 113.843437 289.558125 111.643437 
L 289.558125 14.9 
Q 289.558125 12.7 287.358125 12.7 
L 183.37375 12.7 
Q 181.17375 12.7 181.17375 14.9 
L 181.17375 111.643437 
Q 181.17375 113.843437 183.37375 113.843437 
z
" style="fill: #ffffff; opacity: 0.8; stroke: #cccccc; stroke-linejoin: miter"/>
    </g>
    <g id="text_17">
     <!-- Strategy -->
     <g style="fill: #262626" transform="translate(209.656875 26.218125) scale(0.12 -0.12)">
      <defs>
       <path id="DejaVuSans-74" d="M 1172 4494 
L 1172 3500 
L 2356 3500 
L 2356 3053 
L 1172 3053 
L 1172 1153 
Q 1172 725 1289 603 
Q 1406 481 1766 481 
L 2356 481 
L 2356 0 
L 1766 0 
Q 1100 0 847 248 
Q 594 497 594 1153 
L 594 3053 
L 172 3053 
L 172 3500 
L 594 3500 
L 594 4494 
L 1172 4494 
z
" transform="scale(0.015625)"/>
       <path id="DejaVuSans-61" d="M 2194 1759 
Q 1497 1759 1228 1600 
Q 959 1441 959 1056 
Q 959 750 1161 570 
Q 1363 391 1709 391 
Q 2188 391 2477 730 
Q 2766 1069 2766 1631 
L 2766 1759 
L 2194 1759 
z
M 3341 1997 
L 3341 0 
L 2766 0 
L 2766 531 
Q 2569 213 2275 61 
Q 1981 -91 1556 -91 
Q 1019 -91 701 211 
Q 384 513 384 1019 
Q 384 1609 779 1909 
Q 1175 2209 1959 2209 
L 2766 2209 
L 2766 2266 
Q 2766 2663 2505 2880 
Q 2244 3097 1772 3097 
Q 1472 3097 1187 3025 
Q 903 2953 641 2809 
L 641 3341 
Q 956 3463 1253 3523 
Q 1550 3584 1831 3584 
Q 2591 3584 2966 3190 
Q 3341 2797 3341 1997 
z
" transform="scale(0.015625)"/>
       <path id="DejaVuSans-67" d="M 2906 1791 
Q 2906 2416 2648 2759 
Q 2391 3103 1925 3103 
Q 1463 3103 1205 2759 
Q 947 2416 947 1791 
Q 947 1169 1205 825 
Q 1463 481 1925 481 
Q 2391 481 2648 825 
Q 2906 1169 2906 1791 
z
M 3481 434 
Q 3481 -459 3084 -895 
Q 2688 -1331 1869 -1331 
Q 1566 -1331 1297 -1286 
Q 1028 -1241 775 -1147 
L 775 -588 
Q 1028 -725 1275 -790 
Q 1522 -856 1778 -856 
Q 2344 -856 2625 -561 
Q 2906 -266 2906 331 
L 2906 616 
Q 2728 306 2450 153 
Q 2172 0 1784 0 
Q 1141 0 747 490 
Q 353 981 353 1791 
Q 353 2603 747 3093 
Q 1141 3584 1784 3584 
Q 2172 3584 2450 3431 
Q 2728 3278 2906 2969 
L 2906 3500 
L 3481 3500 
L 3481 434 
z
" transform="scale(0.015625)"/>
       <path id="DejaVuSans-79" d="M 2059 -325 
Q 1816 -950 1584 -1140 
Q 1353 -1331 966 -1331 
L 506 -1331 
L 506 -850 
L 844 -850 
Q 1081 -850 1212 -737 
Q 1344 -625 1503 -206 
L 1606 56 
L 191 3500 
L 800 3500 
L 1894 763 
L 2988 3500 
L 3597 3500 
L 2059 -325 
z
" transform="scale(0.015625)"/>
      </defs>
      <use xlink:href="#DejaVuSans-53"/>
      <use xlink:href="#DejaVuSans-74" x="63.476562"/>
      <use xlink:href="#DejaVuSans-72" x="102.685547"/>
      <use xlink:href="#DejaVuSans-61" x="143.798828"/>
      <use xlink:href="#DejaVuSans-74" x="205.078125"/>
      <use xlink:href="#DejaVuSans-65" x="244.287109"/>
      <use xlink:href="#DejaVuSans-67" x="305.810547"/>
      <use xlink:href="#DejaVuSans-79" x="369.287109"/>
     </g>
    </g>
    <g id="line2d_25">
     <path d="M 185.57375 38.722031 
L 196.57375 38.722031 
L 207.57375 38.722031 
" style="fill: none; stroke: #4c72b0; stroke-width: 1.5; stroke-linecap: round"/>
    </g>
    <g id="text_18">
     <!-- FedPredict -->
     <g style="fill: #262626" transform="translate(216.37375 42.572031) scale(0.11 -0.11)">
      <defs>
       <path id="DejaVuSans-46" d="M 628 4666 
L 3309 4666 
L 3309 4134 
L 1259 4134 
L 1259 2759 
L 3109 2759 
L 3109 2228 
L 1259 2228 
L 1259 0 
L 628 0 
L 628 4666 
z
" transform="scale(0.015625)"/>
       <path id="DejaVuSans-50" d="M 1259 4147 
L 1259 2394 
L 2053 2394 
Q 2494 2394 2734 2622 
Q 2975 2850 2975 3272 
Q 2975 3691 2734 3919 
Q 2494 4147 2053 4147 
L 1259 4147 
z
M 628 4666 
L 2053 4666 
Q 2838 4666 3239 4311 
Q 3641 3956 3641 3272 
Q 3641 2581 3239 2228 
Q 2838 1875 2053 1875 
L 1259 1875 
L 1259 0 
L 628 0 
L 628 4666 
z
" transform="scale(0.015625)"/>
      </defs>
      <use xlink:href="#DejaVuSans-46"/>
      <use xlink:href="#DejaVuSans-65" x="52.019531"/>
      <use xlink:href="#DejaVuSans-64" x="113.542969"/>
      <use xlink:href="#DejaVuSans-50" x="177.019531"/>
      <use xlink:href="#DejaVuSans-72" x="235.572266"/>
      <use xlink:href="#DejaVuSans-65" x="274.435547"/>
      <use xlink:href="#DejaVuSans-64" x="335.958984"/>
      <use xlink:href="#DejaVuSans-69" x="399.435547"/>
      <use xlink:href="#DejaVuSans-63" x="427.21875"/>
      <use xlink:href="#DejaVuSans-74" x="482.199219"/>
     </g>
    </g>
    <g id="line2d_26">
     <path d="M 185.57375 54.867969 
L 196.57375 54.867969 
L 207.57375 54.867969 
" style="fill: none; stroke: #dd8452; stroke-width: 1.5; stroke-linecap: round"/>
    </g>
    <g id="text_19">
     <!-- FedAVG -->
     <g style="fill: #262626" transform="translate(216.37375 58.717969) scale(0.11 -0.11)">
      <defs>
       <path id="DejaVuSans-41" d="M 2188 4044 
L 1331 1722 
L 3047 1722 
L 2188 4044 
z
M 1831 4666 
L 2547 4666 
L 4325 0 
L 3669 0 
L 3244 1197 
L 1141 1197 
L 716 0 
L 50 0 
L 1831 4666 
z
" transform="scale(0.015625)"/>
       <path id="DejaVuSans-56" d="M 1831 0 
L 50 4666 
L 709 4666 
L 2188 738 
L 3669 4666 
L 4325 4666 
L 2547 0 
L 1831 0 
z
" transform="scale(0.015625)"/>
       <path id="DejaVuSans-47" d="M 3809 666 
L 3809 1919 
L 2778 1919 
L 2778 2438 
L 4434 2438 
L 4434 434 
Q 4069 175 3628 42 
Q 3188 -91 2688 -91 
Q 1594 -91 976 548 
Q 359 1188 359 2328 
Q 359 3472 976 4111 
Q 1594 4750 2688 4750 
Q 3144 4750 3555 4637 
Q 3966 4525 4313 4306 
L 4313 3634 
Q 3963 3931 3569 4081 
Q 3175 4231 2741 4231 
Q 1884 4231 1454 3753 
Q 1025 3275 1025 2328 
Q 1025 1384 1454 906 
Q 1884 428 2741 428 
Q 3075 428 3337 486 
Q 3600 544 3809 666 
z
" transform="scale(0.015625)"/>
      </defs>
      <use xlink:href="#DejaVuSans-46"/>
      <use xlink:href="#DejaVuSans-65" x="52.019531"/>
      <use xlink:href="#DejaVuSans-64" x="113.542969"/>
      <use xlink:href="#DejaVuSans-41" x="177.019531"/>
      <use xlink:href="#DejaVuSans-56" x="239.052734"/>
      <use xlink:href="#DejaVuSans-47" x="307.460938"/>
     </g>
    </g>
    <g id="line2d_27">
     <path d="M 185.57375 71.013906 
L 196.57375 71.013906 
L 207.57375 71.013906 
" style="fill: none; stroke: #55a868; stroke-width: 1.5; stroke-linecap: round"/>
    </g>
    <g id="text_20">
     <!-- FedClassAvg -->
     <g style="fill: #262626" transform="translate(216.37375 74.863906) scale(0.11 -0.11)">
      <defs>
       <path id="DejaVuSans-43" d="M 4122 4306 
L 4122 3641 
Q 3803 3938 3442 4084 
Q 3081 4231 2675 4231 
Q 1875 4231 1450 3742 
Q 1025 3253 1025 2328 
Q 1025 1406 1450 917 
Q 1875 428 2675 428 
Q 3081 428 3442 575 
Q 3803 722 4122 1019 
L 4122 359 
Q 3791 134 3420 21 
Q 3050 -91 2638 -91 
Q 1578 -91 968 557 
Q 359 1206 359 2328 
Q 359 3453 968 4101 
Q 1578 4750 2638 4750 
Q 3056 4750 3426 4639 
Q 3797 4528 4122 4306 
z
" transform="scale(0.015625)"/>
       <path id="DejaVuSans-6c" d="M 603 4863 
L 1178 4863 
L 1178 0 
L 603 0 
L 603 4863 
z
" transform="scale(0.015625)"/>
      </defs>
      <use xlink:href="#DejaVuSans-46"/>
      <use xlink:href="#DejaVuSans-65" x="52.019531"/>
      <use xlink:href="#DejaVuSans-64" x="113.542969"/>
      <use xlink:href="#DejaVuSans-43" x="177.019531"/>
      <use xlink:href="#DejaVuSans-6c" x="246.84375"/>
      <use xlink:href="#DejaVuSans-61" x="274.626953"/>
      <use xlink:href="#DejaVuSans-73" x="335.90625"/>
      <use xlink:href="#DejaVuSans-73" x="388.005859"/>
      <use xlink:href="#DejaVuSans-41" x="440.105469"/>
      <use xlink:href="#DejaVuSans-76" x="502.638672"/>
      <use xlink:href="#DejaVuSans-67" x="561.818359"/>
     </g>
    </g>
    <g id="line2d_28">
     <path d="M 185.57375 87.159844 
L 196.57375 87.159844 
L 207.57375 87.159844 
" style="fill: none; stroke: #c44e52; stroke-width: 1.5; stroke-linecap: round"/>
    </g>
    <g id="text_21">
     <!-- FedPer -->
     <g style="fill: #262626" transform="translate(216.37375 91.009844) scale(0.11 -0.11)">
      <use xlink:href="#DejaVuSans-46"/>
      <use xlink:href="#DejaVuSans-65" x="52.019531"/>
      <use xlink:href="#DejaVuSans-64" x="113.542969"/>
      <use xlink:href="#DejaVuSans-50" x="177.019531"/>
      <use xlink:href="#DejaVuSans-65" x="233.697266"/>
      <use xlink:href="#DejaVuSans-72" x="295.220703"/>
     </g>
    </g>
    <g id="line2d_29">
     <path d="M 185.57375 103.305781 
L 196.57375 103.305781 
L 207.57375 103.305781 
" style="fill: none; stroke: #8172b3; stroke-width: 1.5; stroke-linecap: round"/>
    </g>
    <g id="text_22">
     <!-- FedProto -->
     <g style="fill: #262626" transform="translate(216.37375 107.155781) scale(0.11 -0.11)">
      <use xlink:href="#DejaVuSans-46"/>
      <use xlink:href="#DejaVuSans-65" x="52.019531"/>
      <use xlink:href="#DejaVuSans-64" x="113.542969"/>
      <use xlink:href="#DejaVuSans-50" x="177.019531"/>
      <use xlink:href="#DejaVuSans-72" x="235.572266"/>
      <use xlink:href="#DejaVuSans-6f" x="274.435547"/>
      <use xlink:href="#DejaVuSans-74" x="335.617188"/>
      <use xlink:href="#DejaVuSans-6f" x="374.826172"/>
     </g>
    </g>
   </g>
  </g>
 </g>
 <defs>
  <clipPath id="p32e3d96359">
   <rect x="56.805938" y="7.2" width="357.12" height="266.112"/>
  </clipPath>
 </defs>
</svg>
