<?xml version="1.0" encoding="utf-8" standalone="no"?>
<!DOCTYPE svg PUBLIC "-//W3C//DTD SVG 1.1//EN"
  "http://www.w3.org/Graphics/SVG/1.1/DTD/svg11.dtd">
<svg xmlns:xlink="http://www.w3.org/1999/xlink" width="414.127187pt" height="316.271687pt" viewBox="0 0 414.127187 316.271687" xmlns="http://www.w3.org/2000/svg" version="1.1">
 <metadata>
  <rdf:RDF xmlns:dc="http://purl.org/dc/elements/1.1/" xmlns:cc="http://creativecommons.org/ns#" xmlns:rdf="http://www.w3.org/1999/02/22-rdf-syntax-ns#">
   <cc:Work>
    <dc:type rdf:resource="http://purl.org/dc/dcmitype/StillImage"/>
    <dc:date>2023-03-01T17:03:29.709549</dc:date>
    <dc:format>image/svg+xml</dc:format>
    <dc:creator>
     <cc:Agent>
      <dc:title>Matplotlib v3.6.3, https://matplotlib.org/</dc:title>
     </cc:Agent>
    </dc:creator>
   </cc:Work>
  </rdf:RDF>
 </metadata>
 <defs>
  <style type="text/css">*{stroke-linejoin: round; stroke-linecap: butt}</style>
 </defs>
 <g id="figure_1">
  <g id="patch_1">
   <path d="M 0 316.271687 
L 414.127187 316.271687 
L 414.127187 0 
L 0 0 
z
" style="fill: #ffffff"/>
  </g>
  <g id="axes_1">
   <g id="patch_2">
    <path d="M 49.807187 273.312 
L 406.927188 273.312 
L 406.927188 7.2 
L 49.807187 7.2 
z
" style="fill: #ffffff"/>
   </g>
   <g id="matplotlib.axis_1">
    <g id="xtick_1">
     <g id="line2d_1">
      <path d="M 62.760576 273.312 
L 62.760576 7.2 
" clip-path="url(#pec1b5a7fdd)" style="fill: none; stroke: #cccccc; stroke-linecap: round"/>
     </g>
     <g id="text_1">
      <!-- 0 -->
      <g style="fill: #262626" transform="translate(59.261201 291.170281) scale(0.11 -0.11)">
       <defs>
        <path id="DejaVuSans-30" d="M 2034 4250 
Q 1547 4250 1301 3770 
Q 1056 3291 1056 2328 
Q 1056 1369 1301 889 
Q 1547 409 2034 409 
Q 2525 409 2770 889 
Q 3016 1369 3016 2328 
Q 3016 3291 2770 3770 
Q 2525 4250 2034 4250 
z
M 2034 4750 
Q 2819 4750 3233 4129 
Q 3647 3509 3647 2328 
Q 3647 1150 3233 529 
Q 2819 -91 2034 -91 
Q 1250 -91 836 529 
Q 422 1150 422 2328 
Q 422 3509 836 4129 
Q 1250 4750 2034 4750 
z
" transform="scale(0.015625)"/>
       </defs>
       <use xlink:href="#DejaVuSans-30"/>
      </g>
     </g>
    </g>
    <g id="xtick_2">
     <g id="line2d_2">
      <path d="M 128.347353 273.312 
L 128.347353 7.2 
" clip-path="url(#pec1b5a7fdd)" style="fill: none; stroke: #cccccc; stroke-linecap: round"/>
     </g>
     <g id="text_2">
      <!-- 20 -->
      <g style="fill: #262626" transform="translate(121.348603 291.170281) scale(0.11 -0.11)">
       <defs>
        <path id="DejaVuSans-32" d="M 1228 531 
L 3431 531 
L 3431 0 
L 469 0 
L 469 531 
Q 828 903 1448 1529 
Q 2069 2156 2228 2338 
Q 2531 2678 2651 2914 
Q 2772 3150 2772 3378 
Q 2772 3750 2511 3984 
Q 2250 4219 1831 4219 
Q 1534 4219 1204 4116 
Q 875 4013 500 3803 
L 500 4441 
Q 881 4594 1212 4672 
Q 1544 4750 1819 4750 
Q 2544 4750 2975 4387 
Q 3406 4025 3406 3419 
Q 3406 3131 3298 2873 
Q 3191 2616 2906 2266 
Q 2828 2175 2409 1742 
Q 1991 1309 1228 531 
z
" transform="scale(0.015625)"/>
       </defs>
       <use xlink:href="#DejaVuSans-32"/>
       <use xlink:href="#DejaVuSans-30" x="63.623047"/>
      </g>
     </g>
    </g>
    <g id="xtick_3">
     <g id="line2d_3">
      <path d="M 193.93413 273.312 
L 193.93413 7.2 
" clip-path="url(#pec1b5a7fdd)" style="fill: none; stroke: #cccccc; stroke-linecap: round"/>
     </g>
     <g id="text_3">
      <!-- 40 -->
      <g style="fill: #262626" transform="translate(186.93538 291.170281) scale(0.11 -0.11)">
       <defs>
        <path id="DejaVuSans-34" d="M 2419 4116 
L 825 1625 
L 2419 1625 
L 2419 4116 
z
M 2253 4666 
L 3047 4666 
L 3047 1625 
L 3713 1625 
L 3713 1100 
L 3047 1100 
L 3047 0 
L 2419 0 
L 2419 1100 
L 313 1100 
L 313 1709 
L 2253 4666 
z
" transform="scale(0.015625)"/>
       </defs>
       <use xlink:href="#DejaVuSans-34"/>
       <use xlink:href="#DejaVuSans-30" x="63.623047"/>
      </g>
     </g>
    </g>
    <g id="xtick_4">
     <g id="line2d_4">
      <path d="M 259.520907 273.312 
L 259.520907 7.2 
" clip-path="url(#pec1b5a7fdd)" style="fill: none; stroke: #cccccc; stroke-linecap: round"/>
     </g>
     <g id="text_4">
      <!-- 60 -->
      <g style="fill: #262626" transform="translate(252.522157 291.170281) scale(0.11 -0.11)">
       <defs>
        <path id="DejaVuSans-36" d="M 2113 2584 
Q 1688 2584 1439 2293 
Q 1191 2003 1191 1497 
Q 1191 994 1439 701 
Q 1688 409 2113 409 
Q 2538 409 2786 701 
Q 3034 994 3034 1497 
Q 3034 2003 2786 2293 
Q 2538 2584 2113 2584 
z
M 3366 4563 
L 3366 3988 
Q 3128 4100 2886 4159 
Q 2644 4219 2406 4219 
Q 1781 4219 1451 3797 
Q 1122 3375 1075 2522 
Q 1259 2794 1537 2939 
Q 1816 3084 2150 3084 
Q 2853 3084 3261 2657 
Q 3669 2231 3669 1497 
Q 3669 778 3244 343 
Q 2819 -91 2113 -91 
Q 1303 -91 875 529 
Q 447 1150 447 2328 
Q 447 3434 972 4092 
Q 1497 4750 2381 4750 
Q 2619 4750 2861 4703 
Q 3103 4656 3366 4563 
z
" transform="scale(0.015625)"/>
       </defs>
       <use xlink:href="#DejaVuSans-36"/>
       <use xlink:href="#DejaVuSans-30" x="63.623047"/>
      </g>
     </g>
    </g>
    <g id="xtick_5">
     <g id="line2d_5">
      <path d="M 325.107683 273.312 
L 325.107683 7.2 
" clip-path="url(#pec1b5a7fdd)" style="fill: none; stroke: #cccccc; stroke-linecap: round"/>
     </g>
     <g id="text_5">
      <!-- 80 -->
      <g style="fill: #262626" transform="translate(318.108933 291.170281) scale(0.11 -0.11)">
       <defs>
        <path id="DejaVuSans-38" d="M 2034 2216 
Q 1584 2216 1326 1975 
Q 1069 1734 1069 1313 
Q 1069 891 1326 650 
Q 1584 409 2034 409 
Q 2484 409 2743 651 
Q 3003 894 3003 1313 
Q 3003 1734 2745 1975 
Q 2488 2216 2034 2216 
z
M 1403 2484 
Q 997 2584 770 2862 
Q 544 3141 544 3541 
Q 544 4100 942 4425 
Q 1341 4750 2034 4750 
Q 2731 4750 3128 4425 
Q 3525 4100 3525 3541 
Q 3525 3141 3298 2862 
Q 3072 2584 2669 2484 
Q 3125 2378 3379 2068 
Q 3634 1759 3634 1313 
Q 3634 634 3220 271 
Q 2806 -91 2034 -91 
Q 1263 -91 848 271 
Q 434 634 434 1313 
Q 434 1759 690 2068 
Q 947 2378 1403 2484 
z
M 1172 3481 
Q 1172 3119 1398 2916 
Q 1625 2713 2034 2713 
Q 2441 2713 2670 2916 
Q 2900 3119 2900 3481 
Q 2900 3844 2670 4047 
Q 2441 4250 2034 4250 
Q 1625 4250 1398 4047 
Q 1172 3844 1172 3481 
z
" transform="scale(0.015625)"/>
       </defs>
       <use xlink:href="#DejaVuSans-38"/>
       <use xlink:href="#DejaVuSans-30" x="63.623047"/>
      </g>
     </g>
    </g>
    <g id="xtick_6">
     <g id="line2d_6">
      <path d="M 390.69446 273.312 
L 390.69446 7.2 
" clip-path="url(#pec1b5a7fdd)" style="fill: none; stroke: #cccccc; stroke-linecap: round"/>
     </g>
     <g id="text_6">
      <!-- 100 -->
      <g style="fill: #262626" transform="translate(380.196335 291.170281) scale(0.11 -0.11)">
       <defs>
        <path id="DejaVuSans-31" d="M 794 531 
L 1825 531 
L 1825 4091 
L 703 3866 
L 703 4441 
L 1819 4666 
L 2450 4666 
L 2450 531 
L 3481 531 
L 3481 0 
L 794 0 
L 794 531 
z
" transform="scale(0.015625)"/>
       </defs>
       <use xlink:href="#DejaVuSans-31"/>
       <use xlink:href="#DejaVuSans-30" x="63.623047"/>
       <use xlink:href="#DejaVuSans-30" x="127.246094"/>
      </g>
     </g>
    </g>
    <g id="text_7">
     <!-- Round -->
     <g style="fill: #262626" transform="translate(209.382812 306.576062) scale(0.12 -0.12)">
      <defs>
       <path id="DejaVuSans-52" d="M 2841 2188 
Q 3044 2119 3236 1894 
Q 3428 1669 3622 1275 
L 4263 0 
L 3584 0 
L 2988 1197 
Q 2756 1666 2539 1819 
Q 2322 1972 1947 1972 
L 1259 1972 
L 1259 0 
L 628 0 
L 628 4666 
L 2053 4666 
Q 2853 4666 3247 4331 
Q 3641 3997 3641 3322 
Q 3641 2881 3436 2590 
Q 3231 2300 2841 2188 
z
M 1259 4147 
L 1259 2491 
L 2053 2491 
Q 2509 2491 2742 2702 
Q 2975 2913 2975 3322 
Q 2975 3731 2742 3939 
Q 2509 4147 2053 4147 
L 1259 4147 
z
" transform="scale(0.015625)"/>
       <path id="DejaVuSans-6f" d="M 1959 3097 
Q 1497 3097 1228 2736 
Q 959 2375 959 1747 
Q 959 1119 1226 758 
Q 1494 397 1959 397 
Q 2419 397 2687 759 
Q 2956 1122 2956 1747 
Q 2956 2369 2687 2733 
Q 2419 3097 1959 3097 
z
M 1959 3584 
Q 2709 3584 3137 3096 
Q 3566 2609 3566 1747 
Q 3566 888 3137 398 
Q 2709 -91 1959 -91 
Q 1206 -91 779 398 
Q 353 888 353 1747 
Q 353 2609 779 3096 
Q 1206 3584 1959 3584 
z
" transform="scale(0.015625)"/>
       <path id="DejaVuSans-75" d="M 544 1381 
L 544 3500 
L 1119 3500 
L 1119 1403 
Q 1119 906 1312 657 
Q 1506 409 1894 409 
Q 2359 409 2629 706 
Q 2900 1003 2900 1516 
L 2900 3500 
L 3475 3500 
L 3475 0 
L 2900 0 
L 2900 538 
Q 2691 219 2414 64 
Q 2138 -91 1772 -91 
Q 1169 -91 856 284 
Q 544 659 544 1381 
z
M 1991 3584 
L 1991 3584 
z
" transform="scale(0.015625)"/>
       <path id="DejaVuSans-6e" d="M 3513 2113 
L 3513 0 
L 2938 0 
L 2938 2094 
Q 2938 2591 2744 2837 
Q 2550 3084 2163 3084 
Q 1697 3084 1428 2787 
Q 1159 2491 1159 1978 
L 1159 0 
L 581 0 
L 581 3500 
L 1159 3500 
L 1159 2956 
Q 1366 3272 1645 3428 
Q 1925 3584 2291 3584 
Q 2894 3584 3203 3211 
Q 3513 2838 3513 2113 
z
" transform="scale(0.015625)"/>
       <path id="DejaVuSans-64" d="M 2906 2969 
L 2906 4863 
L 3481 4863 
L 3481 0 
L 2906 0 
L 2906 525 
Q 2725 213 2448 61 
Q 2172 -91 1784 -91 
Q 1150 -91 751 415 
Q 353 922 353 1747 
Q 353 2572 751 3078 
Q 1150 3584 1784 3584 
Q 2172 3584 2448 3432 
Q 2725 3281 2906 2969 
z
M 947 1747 
Q 947 1113 1208 752 
Q 1469 391 1925 391 
Q 2381 391 2643 752 
Q 2906 1113 2906 1747 
Q 2906 2381 2643 2742 
Q 2381 3103 1925 3103 
Q 1469 3103 1208 2742 
Q 947 2381 947 1747 
z
" transform="scale(0.015625)"/>
      </defs>
      <use xlink:href="#DejaVuSans-52"/>
      <use xlink:href="#DejaVuSans-6f" x="64.982422"/>
      <use xlink:href="#DejaVuSans-75" x="126.164062"/>
      <use xlink:href="#DejaVuSans-6e" x="189.542969"/>
      <use xlink:href="#DejaVuSans-64" x="252.921875"/>
     </g>
    </g>
   </g>
   <g id="matplotlib.axis_2">
    <g id="ytick_1">
     <g id="line2d_7">
      <path d="M 49.807187 264.630015 
L 406.927188 264.630015 
" clip-path="url(#pec1b5a7fdd)" style="fill: none; stroke: #cccccc; stroke-linecap: round"/>
     </g>
     <g id="text_8">
      <!-- 0.0 -->
      <g style="fill: #262626" transform="translate(22.81375 268.809155) scale(0.11 -0.11)">
       <defs>
        <path id="DejaVuSans-2e" d="M 684 794 
L 1344 794 
L 1344 0 
L 684 0 
L 684 794 
z
" transform="scale(0.015625)"/>
       </defs>
       <use xlink:href="#DejaVuSans-30"/>
       <use xlink:href="#DejaVuSans-2e" x="63.623047"/>
       <use xlink:href="#DejaVuSans-30" x="95.410156"/>
      </g>
     </g>
    </g>
    <g id="ytick_2">
     <g id="line2d_8">
      <path d="M 49.807187 225.474847 
L 406.927188 225.474847 
" clip-path="url(#pec1b5a7fdd)" style="fill: none; stroke: #cccccc; stroke-linecap: round"/>
     </g>
     <g id="text_9">
      <!-- 0.5 -->
      <g style="fill: #262626" transform="translate(22.81375 229.653988) scale(0.11 -0.11)">
       <defs>
        <path id="DejaVuSans-35" d="M 691 4666 
L 3169 4666 
L 3169 4134 
L 1269 4134 
L 1269 2991 
Q 1406 3038 1543 3061 
Q 1681 3084 1819 3084 
Q 2600 3084 3056 2656 
Q 3513 2228 3513 1497 
Q 3513 744 3044 326 
Q 2575 -91 1722 -91 
Q 1428 -91 1123 -41 
Q 819 9 494 109 
L 494 744 
Q 775 591 1075 516 
Q 1375 441 1709 441 
Q 2250 441 2565 725 
Q 2881 1009 2881 1497 
Q 2881 1984 2565 2268 
Q 2250 2553 1709 2553 
Q 1456 2553 1204 2497 
Q 953 2441 691 2322 
L 691 4666 
z
" transform="scale(0.015625)"/>
       </defs>
       <use xlink:href="#DejaVuSans-30"/>
       <use xlink:href="#DejaVuSans-2e" x="63.623047"/>
       <use xlink:href="#DejaVuSans-35" x="95.410156"/>
      </g>
     </g>
    </g>
    <g id="ytick_3">
     <g id="line2d_9">
      <path d="M 49.807187 186.319679 
L 406.927188 186.319679 
" clip-path="url(#pec1b5a7fdd)" style="fill: none; stroke: #cccccc; stroke-linecap: round"/>
     </g>
     <g id="text_10">
      <!-- 1.0 -->
      <g style="fill: #262626" transform="translate(22.81375 190.49882) scale(0.11 -0.11)">
       <use xlink:href="#DejaVuSans-31"/>
       <use xlink:href="#DejaVuSans-2e" x="63.623047"/>
       <use xlink:href="#DejaVuSans-30" x="95.410156"/>
      </g>
     </g>
    </g>
    <g id="ytick_4">
     <g id="line2d_10">
      <path d="M 49.807187 147.164512 
L 406.927188 147.164512 
" clip-path="url(#pec1b5a7fdd)" style="fill: none; stroke: #cccccc; stroke-linecap: round"/>
     </g>
     <g id="text_11">
      <!-- 1.5 -->
      <g style="fill: #262626" transform="translate(22.81375 151.343652) scale(0.11 -0.11)">
       <use xlink:href="#DejaVuSans-31"/>
       <use xlink:href="#DejaVuSans-2e" x="63.623047"/>
       <use xlink:href="#DejaVuSans-35" x="95.410156"/>
      </g>
     </g>
    </g>
    <g id="ytick_5">
     <g id="line2d_11">
      <path d="M 49.807187 108.009344 
L 406.927188 108.009344 
" clip-path="url(#pec1b5a7fdd)" style="fill: none; stroke: #cccccc; stroke-linecap: round"/>
     </g>
     <g id="text_12">
      <!-- 2.0 -->
      <g style="fill: #262626" transform="translate(22.81375 112.188485) scale(0.11 -0.11)">
       <use xlink:href="#DejaVuSans-32"/>
       <use xlink:href="#DejaVuSans-2e" x="63.623047"/>
       <use xlink:href="#DejaVuSans-30" x="95.410156"/>
      </g>
     </g>
    </g>
    <g id="ytick_6">
     <g id="line2d_12">
      <path d="M 49.807187 68.854177 
L 406.927188 68.854177 
" clip-path="url(#pec1b5a7fdd)" style="fill: none; stroke: #cccccc; stroke-linecap: round"/>
     </g>
     <g id="text_13">
      <!-- 2.5 -->
      <g style="fill: #262626" transform="translate(22.81375 73.033317) scale(0.11 -0.11)">
       <use xlink:href="#DejaVuSans-32"/>
       <use xlink:href="#DejaVuSans-2e" x="63.623047"/>
       <use xlink:href="#DejaVuSans-35" x="95.410156"/>
      </g>
     </g>
    </g>
    <g id="ytick_7">
     <g id="line2d_13">
      <path d="M 49.807187 29.699009 
L 406.927188 29.699009 
" clip-path="url(#pec1b5a7fdd)" style="fill: none; stroke: #cccccc; stroke-linecap: round"/>
     </g>
     <g id="text_14">
      <!-- 3.0 -->
      <g style="fill: #262626" transform="translate(22.81375 33.87815) scale(0.11 -0.11)">
       <defs>
        <path id="DejaVuSans-33" d="M 2597 2516 
Q 3050 2419 3304 2112 
Q 3559 1806 3559 1356 
Q 3559 666 3084 287 
Q 2609 -91 1734 -91 
Q 1441 -91 1130 -33 
Q 819 25 488 141 
L 488 750 
Q 750 597 1062 519 
Q 1375 441 1716 441 
Q 2309 441 2620 675 
Q 2931 909 2931 1356 
Q 2931 1769 2642 2001 
Q 2353 2234 1838 2234 
L 1294 2234 
L 1294 2753 
L 1863 2753 
Q 2328 2753 2575 2939 
Q 2822 3125 2822 3475 
Q 2822 3834 2567 4026 
Q 2313 4219 1838 4219 
Q 1578 4219 1281 4162 
Q 984 4106 628 3988 
L 628 4550 
Q 988 4650 1302 4700 
Q 1616 4750 1894 4750 
Q 2613 4750 3031 4423 
Q 3450 4097 3450 3541 
Q 3450 3153 3228 2886 
Q 3006 2619 2597 2516 
z
" transform="scale(0.015625)"/>
       </defs>
       <use xlink:href="#DejaVuSans-33"/>
       <use xlink:href="#DejaVuSans-2e" x="63.623047"/>
       <use xlink:href="#DejaVuSans-30" x="95.410156"/>
      </g>
     </g>
    </g>
    <g id="text_15">
     <!-- Loss -->
     <g style="fill: #262626" transform="translate(16.318125 153.416625) rotate(-90) scale(0.12 -0.12)">
      <defs>
       <path id="DejaVuSans-4c" d="M 628 4666 
L 1259 4666 
L 1259 531 
L 3531 531 
L 3531 0 
L 628 0 
L 628 4666 
z
" transform="scale(0.015625)"/>
       <path id="DejaVuSans-73" d="M 2834 3397 
L 2834 2853 
Q 2591 2978 2328 3040 
Q 2066 3103 1784 3103 
Q 1356 3103 1142 2972 
Q 928 2841 928 2578 
Q 928 2378 1081 2264 
Q 1234 2150 1697 2047 
L 1894 2003 
Q 2506 1872 2764 1633 
Q 3022 1394 3022 966 
Q 3022 478 2636 193 
Q 2250 -91 1575 -91 
Q 1294 -91 989 -36 
Q 684 19 347 128 
L 347 722 
Q 666 556 975 473 
Q 1284 391 1588 391 
Q 1994 391 2212 530 
Q 2431 669 2431 922 
Q 2431 1156 2273 1281 
Q 2116 1406 1581 1522 
L 1381 1569 
Q 847 1681 609 1914 
Q 372 2147 372 2553 
Q 372 3047 722 3315 
Q 1072 3584 1716 3584 
Q 2034 3584 2315 3537 
Q 2597 3491 2834 3397 
z
" transform="scale(0.015625)"/>
      </defs>
      <use xlink:href="#DejaVuSans-4c"/>
      <use xlink:href="#DejaVuSans-6f" x="53.962891"/>
      <use xlink:href="#DejaVuSans-73" x="115.144531"/>
      <use xlink:href="#DejaVuSans-73" x="167.244141"/>
     </g>
    </g>
   </g>
   <g id="PolyCollection_1">
    <defs>
     <path id="m9a433b3a1c" d="M 66.039915 -289.98849 
L 66.039915 -242.399114 
L 69.319254 -189.742774 
L 72.598592 -187.164459 
L 75.877931 -193.432596 
L 79.15727 -179.99576 
L 82.436609 -172.090722 
L 85.715948 -152.030428 
L 88.995287 -108.198613 
L 92.274626 -86.958078 
L 95.553964 -74.891181 
L 98.833303 -77.455888 
L 102.112642 -74.196903 
L 105.391981 -73.076269 
L 108.67132 -74.659668 
L 111.950659 -77.074166 
L 115.229997 -68.832246 
L 118.509336 -69.136295 
L 121.788675 -78.086408 
L 125.068014 -68.940305 
L 128.347353 -65.290032 
L 131.626692 -73.035566 
L 134.90603 -64.688381 
L 138.185369 -66.412285 
L 141.464708 -65.490183 
L 144.744047 -63.731156 
L 148.023386 -65.086722 
L 151.302725 -60.93148 
L 154.582064 -63.135923 
L 157.861402 -61.810763 
L 161.140741 -66.473898 
L 164.42008 -62.824844 
L 167.699419 -61.807315 
L 170.978758 -69.11218 
L 174.258097 -62.644341 
L 177.537435 -58.169059 
L 180.816774 -59.934537 
L 184.096113 -62.703316 
L 187.375452 -61.448663 
L 190.654791 -58.351617 
L 193.93413 -60.298151 
L 197.213468 -57.809827 
L 200.492807 -57.239447 
L 203.772146 -59.095456 
L 207.051485 -58.17186 
L 210.330824 -56.743903 
L 213.610163 -59.401714 
L 216.889502 -57.64112 
L 220.16884 -58.144315 
L 223.448179 -59.038887 
L 226.727518 -56.8865 
L 230.006857 -58.331616 
L 233.286196 -56.949311 
L 236.565535 -57.562109 
L 239.844873 -55.842078 
L 243.124212 -55.591037 
L 246.403551 -55.69868 
L 249.68289 -56.29024 
L 252.962229 -57.96433 
L 256.241568 -55.901018 
L 259.520907 -55.920057 
L 262.800245 -55.852634 
L 266.079584 -55.069952 
L 269.358923 -55.172169 
L 272.638262 -56.180976 
L 275.917601 -56.026091 
L 279.19694 -55.055688 
L 282.476278 -55.717935 
L 285.755617 -56.041958 
L 289.034956 -55.732257 
L 292.314295 -56.737417 
L 295.593634 -56.860807 
L 298.872973 -56.955258 
L 302.152311 -56.614712 
L 305.43165 -57.519341 
L 308.710989 -56.065773 
L 311.990328 -56.611023 
L 315.269667 -56.262035 
L 318.549006 -55.871028 
L 321.828345 -56.097968 
L 325.107683 -56.322379 
L 328.387022 -55.974713 
L 331.666361 -56.375053 
L 334.9457 -56.74515 
L 338.225039 -57.048468 
L 341.504378 -56.333931 
L 344.783716 -55.813625 
L 348.063055 -55.785892 
L 351.342394 -55.879499 
L 354.621733 -55.578867 
L 357.901072 -55.856095 
L 361.180411 -55.649456 
L 364.459749 -55.339685 
L 367.739088 -55.664185 
L 371.018427 -55.756238 
L 374.297766 -56.278403 
L 377.577105 -56.168137 
L 380.856444 -55.753845 
L 384.135783 -55.776455 
L 387.415121 -55.785572 
L 390.69446 -55.908283 
L 390.69446 -69.223623 
L 390.69446 -69.223623 
L 387.415121 -67.424963 
L 384.135783 -66.161156 
L 380.856444 -65.471467 
L 377.577105 -69.074459 
L 374.297766 -67.070937 
L 371.018427 -68.218996 
L 367.739088 -66.178203 
L 364.459749 -65.326895 
L 361.180411 -67.845444 
L 357.901072 -67.556543 
L 354.621733 -66.989186 
L 351.342394 -66.743931 
L 348.063055 -67.683122 
L 344.783716 -66.749431 
L 341.504378 -66.449238 
L 338.225039 -67.057653 
L 334.9457 -67.176682 
L 331.666361 -66.762932 
L 328.387022 -64.742154 
L 325.107683 -68.500911 
L 321.828345 -67.808579 
L 318.549006 -66.002352 
L 315.269667 -66.290237 
L 311.990328 -64.557975 
L 308.710989 -63.447216 
L 305.43165 -68.443377 
L 302.152311 -65.437426 
L 298.872973 -67.038523 
L 295.593634 -65.980425 
L 292.314295 -64.877457 
L 289.034956 -58.719527 
L 285.755617 -60.530357 
L 282.476278 -61.391283 
L 279.19694 -57.949306 
L 275.917601 -59.120477 
L 272.638262 -58.910045 
L 269.358923 -57.975145 
L 266.079584 -61.817418 
L 262.800245 -63.031274 
L 259.520907 -62.085331 
L 256.241568 -61.52939 
L 252.962229 -65.739703 
L 249.68289 -62.413181 
L 246.403551 -61.723905 
L 243.124212 -60.389932 
L 239.844873 -61.456843 
L 236.565535 -62.997136 
L 233.286196 -59.9244 
L 230.006857 -63.165978 
L 226.727518 -62.262834 
L 223.448179 -69.72505 
L 220.16884 -65.422121 
L 216.889502 -62.141917 
L 213.610163 -68.749931 
L 210.330824 -60.296433 
L 207.051485 -64.09628 
L 203.772146 -64.073587 
L 200.492807 -61.593062 
L 197.213468 -62.188183 
L 193.93413 -66.339314 
L 190.654791 -63.50162 
L 187.375452 -68.271278 
L 184.096113 -72.058512 
L 180.816774 -64.855207 
L 177.537435 -63.421844 
L 174.258097 -79.146131 
L 170.978758 -94.851535 
L 167.699419 -82.837508 
L 164.42008 -81.402102 
L 161.140741 -83.125518 
L 157.861402 -75.727695 
L 154.582064 -76.921194 
L 151.302725 -65.975629 
L 148.023386 -74.481095 
L 144.744047 -79.142387 
L 141.464708 -78.068169 
L 138.185369 -77.481877 
L 134.90603 -75.96363 
L 131.626692 -94.448488 
L 128.347353 -78.139469 
L 125.068014 -83.696436 
L 121.788675 -100.228293 
L 118.509336 -88.370687 
L 115.229997 -85.029313 
L 111.950659 -101.269555 
L 108.67132 -102.559974 
L 105.391981 -93.306966 
L 102.112642 -99.854197 
L 98.833303 -98.771117 
L 95.553964 -94.598926 
L 92.274626 -111.809329 
L 88.995287 -150.587264 
L 85.715948 -229.308058 
L 82.436609 -244.292247 
L 79.15727 -253.10589 
L 75.877931 -260.38311 
L 72.598592 -249.927096 
L 69.319254 -241.046518 
L 66.039915 -289.98849 
z
" style="stroke: #4c72b0; stroke-opacity: 0.2"/>
    </defs>
    <g clip-path="url(#pec1b5a7fdd)">
     <use xlink:href="#m9a433b3a1c" x="0" y="316.271687" style="fill: #4c72b0; fill-opacity: 0.2; stroke: #4c72b0; stroke-opacity: 0.2"/>
    </g>
   </g>
   <g id="PolyCollection_2">
    <defs>
     <path id="mae98829e31" d="M 66.039915 -290.814221 
L 66.039915 -246.427028 
L 69.319254 -220.275053 
L 72.598592 -199.59256 
L 75.877931 -228.180307 
L 79.15727 -223.662052 
L 82.436609 -231.464281 
L 85.715948 -207.475875 
L 88.995287 -145.146047 
L 92.274626 -113.601766 
L 95.553964 -104.972281 
L 98.833303 -109.567979 
L 102.112642 -105.997474 
L 105.391981 -100.936253 
L 108.67132 -109.639531 
L 111.950659 -131.528118 
L 115.229997 -111.59579 
L 118.509336 -101.709892 
L 121.788675 -141.644777 
L 125.068014 -109.057324 
L 128.347353 -95.111143 
L 131.626692 -118.00916 
L 134.90603 -96.300275 
L 138.185369 -105.761478 
L 141.464708 -93.986702 
L 144.744047 -84.435746 
L 148.023386 -110.116679 
L 151.302725 -82.748684 
L 154.582064 -98.613107 
L 157.861402 -86.81106 
L 161.140741 -123.990709 
L 164.42008 -94.424971 
L 167.699419 -94.578176 
L 170.978758 -127.359806 
L 174.258097 -98.388911 
L 177.537435 -75.451931 
L 180.816774 -98.49917 
L 184.096113 -112.317089 
L 187.375452 -112.856762 
L 190.654791 -85.611093 
L 193.93413 -96.218799 
L 197.213468 -74.333668 
L 200.492807 -78.26866 
L 203.772146 -94.774585 
L 207.051485 -102.369365 
L 210.330824 -77.418413 
L 213.610163 -104.037938 
L 216.889502 -86.217286 
L 220.16884 -107.282902 
L 223.448179 -103.351123 
L 226.727518 -82.483578 
L 230.006857 -96.014065 
L 233.286196 -75.707222 
L 236.565535 -89.583657 
L 239.844873 -83.178642 
L 243.124212 -71.579844 
L 246.403551 -78.880889 
L 249.68289 -82.639051 
L 252.962229 -122.862681 
L 256.241568 -79.527244 
L 259.520907 -85.890358 
L 262.800245 -82.569265 
L 266.079584 -70.486643 
L 269.358923 -68.784503 
L 272.638262 -88.036678 
L 275.917601 -89.158061 
L 279.19694 -69.915584 
L 282.476278 -100.85292 
L 285.755617 -90.354937 
L 289.034956 -84.744301 
L 292.314295 -79.729717 
L 295.593634 -85.407546 
L 298.872973 -79.304842 
L 302.152311 -80.066505 
L 305.43165 -98.554388 
L 308.710989 -82.733705 
L 311.990328 -80.619788 
L 315.269667 -80.245027 
L 318.549006 -77.699301 
L 321.828345 -71.237124 
L 325.107683 -81.315046 
L 328.387022 -72.008363 
L 331.666361 -78.782069 
L 334.9457 -88.480839 
L 338.225039 -106.017366 
L 341.504378 -82.257621 
L 344.783716 -68.947073 
L 348.063055 -72.249514 
L 351.342394 -76.340821 
L 354.621733 -68.876259 
L 357.901072 -77.05363 
L 361.180411 -69.525738 
L 364.459749 -64.066947 
L 367.739088 -73.6138 
L 371.018427 -77.87069 
L 374.297766 -86.30254 
L 377.577105 -86.802627 
L 380.856444 -68.394698 
L 384.135783 -73.140633 
L 387.415121 -82.931894 
L 390.69446 -75.651594 
L 390.69446 -92.547336 
L 390.69446 -92.547336 
L 387.415121 -107.0031 
L 384.135783 -86.783899 
L 380.856444 -77.069106 
L 377.577105 -112.580847 
L 374.297766 -107.374299 
L 371.018427 -90.163492 
L 367.739088 -82.251104 
L 364.459749 -70.115212 
L 361.180411 -80.370753 
L 357.901072 -93.005657 
L 354.621733 -81.696362 
L 351.342394 -93.750758 
L 348.063055 -88.151722 
L 344.783716 -80.62106 
L 341.504378 -101.080723 
L 338.225039 -135.972376 
L 334.9457 -105.766994 
L 331.666361 -94.247566 
L 328.387022 -81.145044 
L 325.107683 -92.301908 
L 321.828345 -79.056694 
L 318.549006 -91.06449 
L 315.269667 -100.105976 
L 311.990328 -99.534276 
L 308.710989 -110.350371 
L 305.43165 -128.070014 
L 302.152311 -93.467703 
L 298.872973 -99.439908 
L 295.593634 -106.958231 
L 292.314295 -99.946192 
L 289.034956 -110.723688 
L 285.755617 -122.397122 
L 282.476278 -132.569096 
L 279.19694 -79.712315 
L 275.917601 -123.150416 
L 272.638262 -110.254163 
L 269.358923 -73.742296 
L 266.079584 -88.514141 
L 262.800245 -115.196552 
L 259.520907 -120.832112 
L 256.241568 -108.906609 
L 252.962229 -177.802751 
L 249.68289 -106.56352 
L 246.403551 -98.082302 
L 243.124212 -89.582173 
L 239.844873 -99.9965 
L 236.565535 -120.798179 
L 233.286196 -85.630295 
L 230.006857 -122.821587 
L 226.727518 -96.889467 
L 223.448179 -139.792903 
L 220.16884 -146.135236 
L 216.889502 -101.610907 
L 213.610163 -154.404192 
L 210.330824 -95.933757 
L 207.051485 -129.579937 
L 203.772146 -117.846382 
L 200.492807 -91.453782 
L 197.213468 -94.859141 
L 193.93413 -136.474864 
L 190.654791 -116.191153 
L 187.375452 -148.615772 
L 184.096113 -150.433089 
L 180.816774 -130.26957 
L 177.537435 -86.540266 
L 174.258097 -136.011464 
L 170.978758 -178.918286 
L 167.699419 -142.756975 
L 164.42008 -129.110963 
L 161.140741 -170.467082 
L 157.861402 -119.225029 
L 154.582064 -128.586561 
L 151.302725 -99.965404 
L 148.023386 -140.232671 
L 144.744047 -113.972429 
L 141.464708 -119.337014 
L 138.185369 -131.63284 
L 134.90603 -114.639034 
L 131.626692 -177.629297 
L 128.347353 -127.705542 
L 125.068014 -150.986359 
L 121.788675 -179.777462 
L 118.509336 -132.377524 
L 115.229997 -142.362439 
L 111.950659 -168.203863 
L 108.67132 -136.84437 
L 105.391981 -121.321723 
L 102.112642 -137.021764 
L 98.833303 -135.737669 
L 95.553964 -126.247188 
L 92.274626 -139.33357 
L 88.995287 -189.478652 
L 85.715948 -278.385868 
L 82.436609 -296.975687 
L 79.15727 -287.356661 
L 75.877931 -286.415999 
L 72.598592 -245.695381 
L 69.319254 -257.033312 
L 66.039915 -290.814221 
z
" style="stroke: #dd8452; stroke-opacity: 0.2"/>
    </defs>
    <g clip-path="url(#pec1b5a7fdd)">
     <use xlink:href="#mae98829e31" x="0" y="316.271687" style="fill: #dd8452; fill-opacity: 0.2; stroke: #dd8452; stroke-opacity: 0.2"/>
    </g>
   </g>
   <g id="PolyCollection_3">
    <defs>
     <path id="md6e6871779" d="M 66.039915 -288.340757 
L 66.039915 -235.55969 
L 69.319254 -193.121681 
L 72.598592 -194.486367 
L 75.877931 -182.67851 
L 79.15727 -181.677618 
L 82.436609 -174.203363 
L 85.715948 -158.399878 
L 88.995287 -147.532193 
L 92.274626 -142.082969 
L 95.553964 -134.778703 
L 98.833303 -126.109455 
L 102.112642 -125.219249 
L 105.391981 -118.579825 
L 108.67132 -115.81265 
L 111.950659 -109.633053 
L 115.229997 -109.042782 
L 118.509336 -102.842703 
L 121.788675 -97.039853 
L 125.068014 -95.860837 
L 128.347353 -95.061083 
L 131.626692 -93.228603 
L 134.90603 -92.5374 
L 138.185369 -91.820163 
L 141.464708 -89.788284 
L 144.744047 -90.321706 
L 148.023386 -87.701538 
L 151.302725 -85.76425 
L 154.582064 -84.63014 
L 157.861402 -82.829874 
L 161.140741 -82.542766 
L 164.42008 -82.72866 
L 167.699419 -81.569958 
L 170.978758 -81.245548 
L 174.258097 -80.729817 
L 177.537435 -79.187181 
L 180.816774 -76.535643 
L 184.096113 -75.988166 
L 187.375452 -75.062868 
L 190.654791 -73.966512 
L 193.93413 -73.851259 
L 197.213468 -72.168639 
L 200.492807 -71.024788 
L 203.772146 -71.587982 
L 207.051485 -71.642824 
L 210.330824 -68.729309 
L 213.610163 -68.990261 
L 216.889502 -69.05959 
L 220.16884 -67.904067 
L 223.448179 -68.162159 
L 226.727518 -67.360394 
L 230.006857 -66.570391 
L 233.286196 -65.724608 
L 236.565535 -66.778064 
L 239.844873 -66.319005 
L 243.124212 -64.900746 
L 246.403551 -65.024589 
L 249.68289 -64.667289 
L 252.962229 -64.7346 
L 256.241568 -63.662807 
L 259.520907 -63.973392 
L 262.800245 -62.960793 
L 266.079584 -62.564338 
L 269.358923 -62.824182 
L 272.638262 -62.144689 
L 275.917601 -62.954631 
L 279.19694 -62.820122 
L 282.476278 -62.515827 
L 285.755617 -62.314587 
L 289.034956 -62.23923 
L 292.314295 -75.336452 
L 295.593634 -75.105732 
L 298.872973 -75.324428 
L 302.152311 -74.75481 
L 305.43165 -74.366223 
L 308.710989 -73.592132 
L 311.990328 -74.991183 
L 315.269667 -74.794232 
L 318.549006 -74.744401 
L 321.828345 -75.05953 
L 325.107683 -74.198047 
L 328.387022 -74.560957 
L 331.666361 -73.407696 
L 334.9457 -73.898486 
L 338.225039 -74.12387 
L 341.504378 -74.115847 
L 344.783716 -73.267348 
L 348.063055 -73.899508 
L 351.342394 -73.883367 
L 354.621733 -73.445957 
L 357.901072 -72.953392 
L 361.180411 -73.883861 
L 364.459749 -71.777631 
L 367.739088 -72.644214 
L 371.018427 -72.209847 
L 374.297766 -72.539207 
L 377.577105 -72.737593 
L 380.856444 -72.130205 
L 384.135783 -73.109496 
L 387.415121 -72.406914 
L 390.69446 -72.715287 
L 390.69446 -96.981536 
L 390.69446 -96.981536 
L 387.415121 -96.489276 
L 384.135783 -96.099564 
L 380.856444 -97.303341 
L 377.577105 -96.56541 
L 374.297766 -96.499576 
L 371.018427 -97.932436 
L 367.739088 -97.785518 
L 364.459749 -98.637768 
L 361.180411 -96.753812 
L 357.901072 -96.981831 
L 354.621733 -96.209578 
L 351.342394 -99.170045 
L 348.063055 -99.179676 
L 344.783716 -100.753777 
L 341.504378 -100.314146 
L 338.225039 -100.650887 
L 334.9457 -100.766819 
L 331.666361 -99.642787 
L 328.387022 -100.595653 
L 325.107683 -101.922133 
L 321.828345 -99.183178 
L 318.549006 -100.771382 
L 315.269667 -101.071522 
L 311.990328 -98.237709 
L 308.710989 -97.968015 
L 305.43165 -98.468329 
L 302.152311 -99.904425 
L 298.872973 -100.498466 
L 295.593634 -99.21235 
L 292.314295 -100.225471 
L 289.034956 -83.101064 
L 285.755617 -82.973844 
L 282.476278 -83.583972 
L 279.19694 -82.592827 
L 275.917601 -82.953533 
L 272.638262 -82.907608 
L 269.358923 -82.991058 
L 266.079584 -86.257361 
L 262.800245 -87.083788 
L 259.520907 -87.242953 
L 256.241568 -87.782335 
L 252.962229 -89.100232 
L 249.68289 -90.499565 
L 246.403551 -91.313936 
L 243.124212 -90.64194 
L 239.844873 -91.565347 
L 236.565535 -92.802727 
L 233.286196 -88.879371 
L 230.006857 -89.769172 
L 226.727518 -91.539559 
L 223.448179 -93.303739 
L 220.16884 -92.369679 
L 216.889502 -94.147588 
L 213.610163 -93.48799 
L 210.330824 -95.675368 
L 207.051485 -94.400721 
L 203.772146 -96.377146 
L 200.492807 -97.360123 
L 197.213468 -99.418159 
L 193.93413 -99.605043 
L 190.654791 -99.73577 
L 187.375452 -100.164373 
L 184.096113 -101.861099 
L 180.816774 -102.673736 
L 177.537435 -105.474709 
L 174.258097 -111.930536 
L 170.978758 -111.075614 
L 167.699419 -112.990041 
L 164.42008 -112.526762 
L 161.140741 -112.215588 
L 157.861402 -113.137954 
L 154.582064 -117.080462 
L 151.302725 -116.769247 
L 148.023386 -117.377197 
L 144.744047 -127.073019 
L 141.464708 -124.973876 
L 138.185369 -125.099279 
L 134.90603 -128.471835 
L 131.626692 -130.279707 
L 128.347353 -130.443124 
L 125.068014 -134.585025 
L 121.788675 -136.016958 
L 118.509336 -142.870467 
L 115.229997 -148.505198 
L 111.950659 -151.268613 
L 108.67132 -157.130941 
L 105.391981 -160.944069 
L 102.112642 -166.862771 
L 98.833303 -170.209846 
L 95.553964 -176.919712 
L 92.274626 -186.283532 
L 88.995287 -194.790064 
L 85.715948 -201.857628 
L 82.436609 -213.854425 
L 79.15727 -220.860147 
L 75.877931 -223.111947 
L 72.598592 -231.207832 
L 69.319254 -227.218093 
L 66.039915 -288.340757 
z
" style="stroke: #55a868; stroke-opacity: 0.2"/>
    </defs>
    <g clip-path="url(#pec1b5a7fdd)">
     <use xlink:href="#md6e6871779" x="0" y="316.271687" style="fill: #55a868; fill-opacity: 0.2; stroke: #55a868; stroke-opacity: 0.2"/>
    </g>
   </g>
   <g id="PolyCollection_4">
    <defs>
     <path id="ma55913978f" d="M 66.039915 -232.634378 
L 66.039915 -224.679328 
L 69.319254 -204.533009 
L 72.598592 -217.686979 
L 75.877931 -215.877264 
L 79.15727 -216.53217 
L 82.436609 -205.316819 
L 85.715948 -211.121193 
L 88.995287 -198.689112 
L 92.274626 -200.634405 
L 95.553964 -209.713998 
L 98.833303 -200.939529 
L 102.112642 -190.881074 
L 105.391981 -185.666116 
L 108.67132 -158.076176 
L 111.950659 -185.185274 
L 115.229997 -155.669435 
L 118.509336 -147.207412 
L 121.788675 -137.950742 
L 125.068014 -130.088395 
L 128.347353 -124.726296 
L 131.626692 -121.342818 
L 134.90603 -150.083619 
L 138.185369 -124.985848 
L 141.464708 -131.998492 
L 144.744047 -119.935794 
L 148.023386 -150.077845 
L 151.302725 -128.551678 
L 154.582064 -117.864482 
L 157.861402 -143.972473 
L 161.140741 -121.850823 
L 164.42008 -114.329845 
L 167.699419 -107.3354 
L 170.978758 -141.857317 
L 174.258097 -115.850329 
L 177.537435 -174.655981 
L 180.816774 -123.975225 
L 184.096113 -110.492364 
L 187.375452 -103.554949 
L 190.654791 -102.038233 
L 193.93413 -96.648319 
L 197.213468 -95.23795 
L 200.492807 -92.275758 
L 203.772146 -90.764531 
L 207.051485 -89.168052 
L 210.330824 -85.658786 
L 213.610163 -83.419392 
L 216.889502 -82.229267 
L 220.16884 -79.745828 
L 223.448179 -79.060036 
L 226.727518 -77.009493 
L 230.006857 -74.776489 
L 233.286196 -74.180888 
L 236.565535 -74.072605 
L 239.844873 -72.025172 
L 243.124212 -68.456502 
L 246.403551 -68.178631 
L 249.68289 -66.708274 
L 252.962229 -66.12503 
L 256.241568 -66.091004 
L 259.520907 -64.255756 
L 262.800245 -65.215289 
L 266.079584 -64.43883 
L 269.358923 -63.989255 
L 272.638262 -63.001004 
L 275.917601 -63.043163 
L 279.19694 -62.774873 
L 282.476278 -62.496436 
L 285.755617 -63.094281 
L 289.034956 -62.58002 
L 292.314295 -79.453559 
L 295.593634 -79.61757 
L 298.872973 -79.347751 
L 302.152311 -79.267032 
L 305.43165 -79.058566 
L 308.710989 -78.586801 
L 311.990328 -78.727269 
L 315.269667 -77.004527 
L 318.549006 -76.856114 
L 321.828345 -77.356147 
L 325.107683 -76.897651 
L 328.387022 -77.199836 
L 331.666361 -76.754132 
L 334.9457 -76.416227 
L 338.225039 -75.783946 
L 341.504378 -75.78915 
L 344.783716 -76.262194 
L 348.063055 -76.581845 
L 351.342394 -76.605899 
L 354.621733 -75.382878 
L 357.901072 -74.526175 
L 361.180411 -74.963593 
L 364.459749 -74.399797 
L 367.739088 -74.449755 
L 371.018427 -74.053961 
L 374.297766 -73.133917 
L 377.577105 -73.686429 
L 380.856444 -73.725981 
L 384.135783 -73.658396 
L 387.415121 -72.436026 
L 390.69446 -72.755012 
L 390.69446 -99.78287 
L 390.69446 -99.78287 
L 387.415121 -100.088632 
L 384.135783 -98.601528 
L 380.856444 -99.543324 
L 377.577105 -98.61384 
L 374.297766 -98.643417 
L 371.018427 -98.654862 
L 367.739088 -99.5532 
L 364.459749 -99.817691 
L 361.180411 -100.700349 
L 357.901072 -101.209599 
L 354.621733 -101.207679 
L 351.342394 -102.255498 
L 348.063055 -103.496038 
L 344.783716 -103.37154 
L 341.504378 -103.03072 
L 338.225039 -102.268595 
L 334.9457 -101.471784 
L 331.666361 -101.235519 
L 328.387022 -102.480676 
L 325.107683 -101.93993 
L 321.828345 -103.545765 
L 318.549006 -103.375868 
L 315.269667 -102.792899 
L 311.990328 -104.341855 
L 308.710989 -103.387027 
L 305.43165 -103.836911 
L 302.152311 -103.423849 
L 298.872973 -104.336327 
L 295.593634 -105.120379 
L 292.314295 -106.243689 
L 289.034956 -83.607325 
L 285.755617 -81.93651 
L 282.476278 -82.331972 
L 279.19694 -83.041784 
L 275.917601 -83.002795 
L 272.638262 -89.018343 
L 269.358923 -86.063968 
L 266.079584 -98.319629 
L 262.800245 -98.649788 
L 259.520907 -97.172076 
L 256.241568 -99.007518 
L 252.962229 -99.422978 
L 249.68289 -96.676235 
L 246.403551 -98.528383 
L 243.124212 -98.264549 
L 239.844873 -104.15912 
L 236.565535 -110.746666 
L 233.286196 -111.373153 
L 230.006857 -110.373997 
L 226.727518 -109.957573 
L 223.448179 -116.271145 
L 220.16884 -111.325539 
L 216.889502 -121.233389 
L 213.610163 -116.80757 
L 210.330824 -114.972501 
L 207.051485 -118.878219 
L 203.772146 -119.949857 
L 200.492807 -118.951747 
L 197.213468 -127.422348 
L 193.93413 -127.457684 
L 190.654791 -131.282969 
L 187.375452 -133.849842 
L 184.096113 -141.196389 
L 180.816774 -148.28461 
L 177.537435 -186.203632 
L 174.258097 -147.629454 
L 170.978758 -163.653641 
L 167.699419 -152.397564 
L 164.42008 -151.983624 
L 161.140741 -150.573791 
L 157.861402 -163.781037 
L 154.582064 -152.186751 
L 151.302725 -154.049806 
L 148.023386 -169.270967 
L 144.744047 -154.409528 
L 141.464708 -158.807452 
L 138.185369 -154.92405 
L 134.90603 -171.54666 
L 131.626692 -157.081758 
L 128.347353 -160.41757 
L 125.068014 -165.154482 
L 121.788675 -169.054727 
L 118.509336 -176.374746 
L 115.229997 -182.146206 
L 111.950659 -201.210971 
L 108.67132 -190.514551 
L 105.391981 -201.314972 
L 102.112642 -207.873562 
L 98.833303 -214.152 
L 95.553964 -219.725536 
L 92.274626 -216.269853 
L 88.995287 -216.792323 
L 85.715948 -223.293076 
L 82.436609 -223.063313 
L 79.15727 -226.886011 
L 75.877931 -227.118015 
L 72.598592 -228.542083 
L 69.319254 -227.754405 
L 66.039915 -232.634378 
z
" style="stroke: #c44e52; stroke-opacity: 0.2"/>
    </defs>
    <g clip-path="url(#pec1b5a7fdd)">
     <use xlink:href="#ma55913978f" x="0" y="316.271687" style="fill: #c44e52; fill-opacity: 0.2; stroke: #c44e52; stroke-opacity: 0.2"/>
    </g>
   </g>
   <g id="PolyCollection_5">
    <defs>
     <path id="ma5acfc8071" d="M 66.039915 -258.897013 
L 66.039915 -223.78678 
L 69.319254 -203.321642 
L 72.598592 -197.274593 
L 75.877931 -190.357231 
L 79.15727 -188.10084 
L 82.436609 -182.414118 
L 85.715948 -170.182911 
L 88.995287 -156.524543 
L 92.274626 -155.028957 
L 95.553964 -146.29034 
L 98.833303 -139.245427 
L 102.112642 -136.627579 
L 105.391981 -133.105438 
L 108.67132 -131.673145 
L 111.950659 -126.334244 
L 115.229997 -126.430352 
L 118.509336 -121.645374 
L 121.788675 -115.707777 
L 125.068014 -114.15932 
L 128.347353 -111.938139 
L 131.626692 -109.545693 
L 134.90603 -109.010207 
L 138.185369 -108.022325 
L 141.464708 -108.271531 
L 144.744047 -105.975346 
L 148.023386 -103.159356 
L 151.302725 -99.864494 
L 154.582064 -99.789926 
L 157.861402 -99.726033 
L 161.140741 -97.285024 
L 164.42008 -95.819495 
L 167.699419 -95.153254 
L 170.978758 -95.071446 
L 174.258097 -94.103955 
L 177.537435 -92.316789 
L 180.816774 -90.129833 
L 184.096113 -88.598202 
L 187.375452 -88.092522 
L 190.654791 -87.418958 
L 193.93413 -85.961874 
L 197.213468 -86.16598 
L 200.492807 -85.076195 
L 203.772146 -83.686577 
L 207.051485 -83.847311 
L 210.330824 -84.172987 
L 213.610163 -82.360003 
L 216.889502 -81.729155 
L 220.16884 -79.818804 
L 223.448179 -80.245469 
L 226.727518 -80.313645 
L 230.006857 -79.539584 
L 233.286196 -79.331138 
L 236.565535 -78.212867 
L 239.844873 -77.449438 
L 243.124212 -76.440471 
L 246.403551 -76.115817 
L 249.68289 -75.526687 
L 252.962229 -75.232519 
L 256.241568 -75.244054 
L 259.520907 -74.734802 
L 262.800245 -75.091501 
L 266.079584 -74.980896 
L 269.358923 -74.628418 
L 272.638262 -73.714296 
L 275.917601 -73.929574 
L 279.19694 -73.22689 
L 282.476278 -73.720161 
L 285.755617 -72.914309 
L 289.034956 -73.562652 
L 292.314295 -88.636518 
L 295.593634 -87.68862 
L 298.872973 -86.137721 
L 302.152311 -87.579199 
L 305.43165 -86.931209 
L 308.710989 -86.225744 
L 311.990328 -87.050072 
L 315.269667 -87.053602 
L 318.549006 -86.538124 
L 321.828345 -87.670285 
L 325.107683 -86.223087 
L 328.387022 -85.156753 
L 331.666361 -85.413036 
L 334.9457 -85.954164 
L 338.225039 -85.411855 
L 341.504378 -86.436119 
L 344.783716 -86.382027 
L 348.063055 -85.349714 
L 351.342394 -85.73458 
L 354.621733 -84.857553 
L 357.901072 -85.107976 
L 361.180411 -86.826222 
L 364.459749 -84.671642 
L 367.739088 -84.538088 
L 371.018427 -84.848914 
L 374.297766 -84.13893 
L 377.577105 -83.94839 
L 380.856444 -84.444739 
L 384.135783 -83.514036 
L 387.415121 -84.207415 
L 390.69446 -82.820994 
L 390.69446 -109.481874 
L 390.69446 -109.481874 
L 387.415121 -110.563119 
L 384.135783 -109.141112 
L 380.856444 -110.686731 
L 377.577105 -109.73894 
L 374.297766 -110.235635 
L 371.018427 -111.440871 
L 367.739088 -111.902112 
L 364.459749 -111.330585 
L 361.180411 -110.948738 
L 357.901072 -110.126586 
L 354.621733 -112.484316 
L 351.342394 -112.181085 
L 348.063055 -111.635009 
L 344.783716 -112.932113 
L 341.504378 -112.347937 
L 338.225039 -110.962958 
L 334.9457 -111.588658 
L 331.666361 -112.479019 
L 328.387022 -112.130488 
L 325.107683 -112.771073 
L 321.828345 -112.264509 
L 318.549006 -114.423619 
L 315.269667 -111.641757 
L 311.990328 -113.119938 
L 308.710989 -113.161017 
L 305.43165 -113.887008 
L 302.152311 -115.269993 
L 298.872973 -114.389375 
L 295.593634 -114.106157 
L 292.314295 -115.404008 
L 289.034956 -99.039327 
L 285.755617 -99.98681 
L 282.476278 -98.969169 
L 279.19694 -98.120252 
L 275.917601 -99.967668 
L 272.638262 -100.320602 
L 269.358923 -99.473553 
L 266.079584 -100.429806 
L 262.800245 -100.617604 
L 259.520907 -103.31653 
L 256.241568 -102.031187 
L 252.962229 -104.51313 
L 249.68289 -105.084692 
L 246.403551 -105.823 
L 243.124212 -104.443896 
L 239.844873 -105.112108 
L 236.565535 -105.687733 
L 233.286196 -106.706678 
L 230.006857 -106.426363 
L 226.727518 -108.18995 
L 223.448179 -109.599322 
L 220.16884 -108.451918 
L 216.889502 -109.273297 
L 213.610163 -110.567918 
L 210.330824 -111.868107 
L 207.051485 -112.325543 
L 203.772146 -112.742633 
L 200.492807 -113.237019 
L 197.213468 -114.092721 
L 193.93413 -115.122845 
L 190.654791 -114.31798 
L 187.375452 -113.790079 
L 184.096113 -115.225271 
L 180.816774 -116.482377 
L 177.537435 -118.870615 
L 174.258097 -126.059277 
L 170.978758 -125.310297 
L 167.699419 -128.092755 
L 164.42008 -129.209958 
L 161.140741 -129.465668 
L 157.861402 -131.123413 
L 154.582064 -133.341585 
L 151.302725 -132.211756 
L 148.023386 -135.655867 
L 144.744047 -142.355772 
L 141.464708 -142.103886 
L 138.185369 -144.665073 
L 134.90603 -144.823692 
L 131.626692 -145.123717 
L 128.347353 -148.158407 
L 125.068014 -151.815932 
L 121.788675 -152.174039 
L 118.509336 -157.599861 
L 115.229997 -164.265156 
L 111.950659 -163.705141 
L 108.67132 -170.47185 
L 105.391981 -171.288144 
L 102.112642 -177.663558 
L 98.833303 -179.682837 
L 95.553964 -189.787881 
L 92.274626 -197.146588 
L 88.995287 -202.782508 
L 85.715948 -208.795777 
L 82.436609 -218.907278 
L 79.15727 -222.968398 
L 75.877931 -230.942384 
L 72.598592 -236.27821 
L 69.319254 -239.748913 
L 66.039915 -258.897013 
z
" style="stroke: #8172b3; stroke-opacity: 0.2"/>
    </defs>
    <g clip-path="url(#pec1b5a7fdd)">
     <use xlink:href="#ma5acfc8071" x="0" y="316.271687" style="fill: #8172b3; fill-opacity: 0.2; stroke: #8172b3; stroke-opacity: 0.2"/>
    </g>
   </g>
   <g id="line2d_14">
    <path d="M 66.039915 50.811266 
L 69.319254 99.637901 
L 72.598592 97.854804 
L 75.877931 89.571961 
L 79.15727 100.390607 
L 82.436609 108.271576 
L 85.715948 127.99742 
L 88.995287 188.682674 
L 92.274626 216.618694 
L 95.553964 231.935468 
L 98.833303 228.769562 
L 102.112642 230.284348 
L 105.391981 235.131105 
L 108.67132 228.399083 
L 111.950659 228.087795 
L 115.229997 240.222407 
L 118.509336 238.474838 
L 121.788675 228.051488 
L 125.068014 240.591199 
L 128.347353 245.070307 
L 131.626692 233.17648 
L 134.90603 246.194863 
L 138.185369 244.707533 
L 141.464708 244.8195 
L 144.744047 246.40193 
L 148.023386 246.746307 
L 151.302725 252.942398 
L 154.582064 246.892841 
L 157.861402 248.343202 
L 161.140741 242.109294 
L 164.42008 245.700352 
L 167.699419 245.262135 
L 170.978758 235.275416 
L 174.258097 246.245281 
L 177.537435 255.874555 
L 180.816774 253.984487 
L 184.096113 249.184814 
L 187.375452 251.585895 
L 190.654791 255.369249 
L 193.93413 252.875363 
L 197.213468 256.432277 
L 200.492807 257.200339 
L 203.772146 254.962433 
L 207.051485 255.266362 
L 210.330824 257.82895 
L 213.610163 253.045684 
L 216.889502 256.650623 
L 220.16884 254.970591 
L 223.448179 253.053485 
L 226.727518 256.996503 
L 230.006857 255.62505 
L 233.286196 257.922535 
L 236.565535 256.32282 
L 239.844873 258.221292 
L 243.124212 258.76568 
L 246.403551 258.267568 
L 249.68289 257.382207 
L 252.962229 255.167739 
L 256.241568 258.029 
L 259.520907 257.929496 
L 262.800245 257.545926 
L 266.079584 258.621977 
L 269.358923 259.859933 
L 272.638262 258.841772 
L 275.917601 258.812055 
L 279.19694 259.917061 
L 282.476278 258.373295 
L 285.755617 258.282343 
L 289.034956 259.158534 
L 292.314295 256.284962 
L 295.593634 255.975817 
L 298.872973 255.312932 
L 302.152311 255.912022 
L 305.43165 254.704289 
L 308.710989 257.23414 
L 311.990328 256.433567 
L 315.269667 256.274014 
L 318.549006 256.505922 
L 321.828345 255.916538 
L 325.107683 255.218359 
L 328.387022 256.703019 
L 331.666361 255.920502 
L 334.9457 255.580924 
L 338.225039 255.497876 
L 341.504378 256.020666 
L 344.783716 256.204643 
L 348.063055 256.243798 
L 351.342394 256.275515 
L 354.621733 256.256358 
L 357.901072 255.814269 
L 361.180411 255.961558 
L 364.459749 257.043827 
L 367.739088 256.466923 
L 371.018427 255.601212 
L 374.297766 255.862324 
L 377.577105 255.094539 
L 380.856444 256.849754 
L 384.135783 256.49123 
L 387.415121 256.289426 
L 390.69446 255.508858 
" clip-path="url(#pec1b5a7fdd)" style="fill: none; stroke: #4c72b0; stroke-width: 1.5; stroke-linecap: round"/>
   </g>
   <g id="line2d_15">
    <path d="M 66.039915 48.060109 
L 69.319254 77.981705 
L 72.598592 93.744384 
L 75.877931 58.774576 
L 79.15727 62.09106 
L 82.436609 52.270699 
L 85.715948 75.004736 
L 88.995287 148.840144 
L 92.274626 190.440358 
L 95.553964 200.994823 
L 98.833303 194.215294 
L 102.112642 195.793561 
L 105.391981 205.171764 
L 108.67132 193.301748 
L 111.950659 166.709589 
L 115.229997 189.68761 
L 118.509336 199.739132 
L 121.788675 154.887591 
L 125.068014 186.739648 
L 128.347353 205.774817 
L 131.626692 168.93382 
L 134.90603 211.091704 
L 138.185369 198.09862 
L 141.464708 210.159573 
L 144.744047 218.478297 
L 148.023386 190.784623 
L 151.302725 225.63289 
L 154.582064 202.975229 
L 157.861402 214.36236 
L 161.140741 169.732839 
L 164.42008 205.17009 
L 167.699419 199.447989 
L 170.978758 165.032516 
L 174.258097 200.904454 
L 177.537435 235.464331 
L 180.816774 202.846909 
L 184.096113 186.011496 
L 187.375452 185.628249 
L 190.654791 216.338217 
L 193.93413 200.318651 
L 197.213468 232.224989 
L 200.492807 231.988956 
L 203.772146 210.449304 
L 207.051485 200.740506 
L 210.330824 230.344011 
L 213.610163 189.092291 
L 216.889502 222.533412 
L 220.16884 190.264169 
L 223.448179 195.791888 
L 226.727518 226.672413 
L 230.006857 207.469317 
L 233.286196 235.743933 
L 236.565535 212.166014 
L 239.844873 224.786601 
L 243.124212 236.205504 
L 246.403551 228.444542 
L 249.68289 222.961187 
L 252.962229 168.593001 
L 256.241568 223.577285 
L 259.520907 213.800328 
L 262.800245 219.66702 
L 266.079584 237.150082 
L 269.358923 245.083291 
L 272.638262 217.582875 
L 275.917601 211.811946 
L 279.19694 241.679711 
L 282.476278 200.369543 
L 285.755617 210.624711 
L 289.034956 219.070461 
L 292.314295 226.810968 
L 295.593634 220.380748 
L 298.872973 227.225711 
L 302.152311 229.490051 
L 305.43165 203.85872 
L 308.710989 220.376709 
L 311.990328 226.184408 
L 315.269667 227.148744 
L 318.549006 232.30177 
L 321.828345 241.268764 
L 325.107683 229.471675 
L 328.387022 239.739942 
L 331.666361 229.972763 
L 334.9457 219.689071 
L 338.225039 195.279477 
L 341.504378 225.498661 
L 344.783716 241.816308 
L 348.063055 236.709087 
L 351.342394 231.843352 
L 354.621733 241.359978 
L 357.901072 231.739039 
L 361.180411 241.99454 
L 364.459749 249.158621 
L 367.739088 238.125271 
L 371.018427 232.732529 
L 374.297766 219.521238 
L 377.577105 217.148313 
L 380.856444 243.781794 
L 384.135783 237.078473 
L 387.415121 222.532965 
L 390.69446 232.655493 
" clip-path="url(#pec1b5a7fdd)" style="fill: none; stroke-dasharray: 6,2.25; stroke-dashoffset: 0; stroke: #dd8452; stroke-width: 1.5"/>
   </g>
   <g id="line2d_16">
    <path d="M 66.039915 58.014168 
L 69.319254 104.565593 
L 72.598592 103.024426 
L 75.877931 112.5933 
L 79.15727 115.928429 
L 82.436609 121.501446 
L 85.715948 135.013199 
L 88.995287 145.458166 
L 92.274626 151.518569 
L 95.553964 159.459799 
L 98.833303 168.85754 
L 102.112642 172.125317 
L 105.391981 176.466597 
L 108.67132 180.967046 
L 111.950659 186.836787 
L 115.229997 189.932548 
L 118.509336 194.883927 
L 121.788675 200.156928 
L 125.068014 202.154935 
L 128.347353 204.240939 
L 131.626692 205.432798 
L 134.90603 205.397757 
L 138.185369 208.313823 
L 141.464708 208.088067 
L 144.744047 208.57336 
L 148.023386 214.899044 
L 151.302725 216.151622 
L 154.582064 216.296356 
L 157.861402 219.092914 
L 161.140741 219.432416 
L 164.42008 219.94186 
L 167.699419 220.285202 
L 170.978758 220.927937 
L 174.258097 221.060535 
L 177.537435 224.817315 
L 180.816774 227.41013 
L 184.096113 228.218818 
L 187.375452 229.589796 
L 190.654791 230.206698 
L 193.93413 231.146302 
L 197.213468 232.619388 
L 200.492807 234.180718 
L 203.772146 234.293214 
L 207.051485 234.824796 
L 210.330824 236.147053 
L 213.610163 236.536071 
L 216.889502 236.508122 
L 220.16884 237.464796 
L 223.448179 237.842237 
L 226.727518 238.803861 
L 230.006857 239.480311 
L 233.286196 239.891447 
L 236.565535 239.048004 
L 239.844873 239.790402 
L 243.124212 240.122616 
L 246.403551 240.228115 
L 249.68289 240.187244 
L 252.962229 241.278449 
L 256.241568 242.289328 
L 259.520907 242.387347 
L 262.800245 243.363589 
L 266.079584 243.532933 
L 269.358923 244.427446 
L 272.638262 244.65367 
L 275.917601 244.390942 
L 279.19694 244.451224 
L 282.476278 244.56326 
L 285.755617 244.839819 
L 289.034956 244.759716 
L 292.314295 229.704021 
L 295.593634 229.883624 
L 298.872973 229.665253 
L 302.152311 229.969395 
L 305.43165 229.943834 
L 308.710989 230.282284 
L 311.990328 230.226209 
L 315.269667 229.563553 
L 318.549006 229.590809 
L 321.828345 229.940094 
L 325.107683 230.203233 
L 328.387022 230.20906 
L 331.666361 230.362821 
L 334.9457 230.327205 
L 338.225039 230.284309 
L 341.504378 230.413396 
L 344.783716 230.658593 
L 348.063055 230.829453 
L 351.342394 230.716227 
L 354.621733 231.879577 
L 357.901072 232.073964 
L 361.180411 232.051631 
L 364.459749 232.248992 
L 367.739088 232.331173 
L 371.018427 232.384008 
L 374.297766 232.488659 
L 377.577105 232.642417 
L 380.856444 232.653747 
L 384.135783 232.861086 
L 387.415121 232.833925 
L 390.69446 232.852218 
" clip-path="url(#pec1b5a7fdd)" style="fill: none; stroke-dasharray: 1.5,1.5; stroke-dashoffset: 0; stroke: #55a868; stroke-width: 1.5"/>
   </g>
   <g id="line2d_17">
    <path d="M 66.039915 86.922128 
L 69.319254 98.930918 
L 72.598592 92.789708 
L 75.877931 94.707652 
L 79.15727 94.389076 
L 82.436609 101.343209 
L 85.715948 98.921379 
L 88.995287 108.062161 
L 92.274626 107.5739 
L 95.553964 101.384453 
L 98.833303 108.55674 
L 102.112642 116.542036 
L 105.391981 123.070578 
L 108.67132 142.885856 
L 111.950659 123.259085 
L 115.229997 147.389636 
L 118.509336 155.711549 
L 121.788675 163.14948 
L 125.068014 169.41762 
L 128.347353 174.835432 
L 131.626692 177.8023 
L 134.90603 155.717211 
L 138.185369 175.966249 
L 141.464708 170.522473 
L 144.744047 180.037492 
L 148.023386 156.855369 
L 151.302725 175.787241 
L 154.582064 182.895492 
L 157.861402 162.771707 
L 161.140741 180.333987 
L 164.42008 185.885526 
L 167.699419 189.548589 
L 170.978758 164.109052 
L 174.258097 185.098354 
L 177.537435 135.659043 
L 180.816774 180.944649 
L 184.096113 190.769388 
L 187.375452 198.017332 
L 190.654791 200.674759 
L 193.93413 204.728967 
L 197.213468 205.520211 
L 200.492807 210.609458 
L 203.772146 211.971776 
L 207.051485 212.565248 
L 210.330824 216.191382 
L 213.610163 217.066084 
L 216.889502 216.643093 
L 220.16884 222.953295 
L 223.448179 221.421855 
L 226.727518 224.608915 
L 230.006857 225.456749 
L 233.286196 225.571085 
L 236.565535 226.381257 
L 239.844873 230.364195 
L 243.124212 234.603222 
L 246.403551 235.783799 
L 249.68289 237.593531 
L 252.962229 236.76407 
L 256.241568 237.439037 
L 259.520907 238.526629 
L 262.800245 238.380235 
L 266.079584 238.05852 
L 269.358923 242.311119 
L 272.638262 242.239022 
L 275.917601 244.947109 
L 279.19694 245.184432 
L 282.476278 245.193502 
L 285.755617 245.091135 
L 289.034956 245.028017 
L 292.314295 223.803682 
L 295.593634 224.38874 
L 298.872973 225.120117 
L 302.152311 225.497465 
L 305.43165 225.629846 
L 308.710989 225.32126 
L 311.990328 225.326443 
L 315.269667 226.701776 
L 318.549006 226.549261 
L 321.828345 226.640163 
L 325.107683 227.36889 
L 328.387022 227.466716 
L 331.666361 227.862724 
L 334.9457 227.94556 
L 338.225039 227.897591 
L 341.504378 227.657756 
L 344.783716 227.594232 
L 348.063055 227.454594 
L 351.342394 227.142119 
L 354.621733 228.493406 
L 357.901072 228.79616 
L 361.180411 229.259126 
L 364.459749 230.085616 
L 367.739088 230.044906 
L 371.018427 230.459267 
L 374.297766 230.735412 
L 377.577105 230.542544 
L 380.856444 230.525509 
L 384.135783 230.522423 
L 387.415121 230.402972 
L 390.69446 230.545819 
" clip-path="url(#pec1b5a7fdd)" style="fill: none; stroke-dasharray: 4.5,1.875,2.25,1.875; stroke-dashoffset: 0; stroke: #c44e52; stroke-width: 1.5"/>
   </g>
   <g id="line2d_18">
    <path d="M 66.039915 77.435623 
L 69.319254 94.01649 
L 72.598592 98.86227 
L 75.877931 105.873794 
L 79.15727 109.767748 
L 82.436609 114.786102 
L 85.715948 127.333505 
L 88.995287 136.059308 
L 92.274626 141.103692 
L 95.553964 148.627772 
L 98.833303 156.697942 
L 102.112642 158.861955 
L 105.391981 164.599081 
L 108.67132 166.024822 
L 111.950659 171.718154 
L 115.229997 172.705197 
L 118.509336 177.671222 
L 121.788675 183.541623 
L 125.068014 184.355693 
L 128.347353 186.783863 
L 131.626692 188.840643 
L 134.90603 190.096307 
L 138.185369 191.094794 
L 141.464708 191.691617 
L 144.744047 192.089634 
L 148.023386 197.890479 
L 151.302725 200.018271 
L 154.582064 200.281933 
L 157.861402 201.7685 
L 161.140741 203.72179 
L 164.42008 204.996931 
L 167.699419 206.239743 
L 170.978758 206.814425 
L 174.258097 208.010006 
L 177.537435 212.178289 
L 180.816774 214.310346 
L 184.096113 215.843514 
L 187.375452 217.012348 
L 190.654791 216.479212 
L 193.93413 217.310848 
L 197.213468 217.432909 
L 200.492807 218.909733 
L 203.772146 219.983638 
L 207.051485 219.60508 
L 210.330824 220.169303 
L 213.610163 221.45927 
L 216.889502 222.428969 
L 220.16884 223.852816 
L 223.448179 223.447321 
L 226.727518 223.83639 
L 230.006857 224.960961 
L 233.286196 225.425144 
L 236.565535 226.307193 
L 239.844873 226.829225 
L 243.124212 227.237771 
L 246.403551 227.868964 
L 249.68289 228.50725 
L 252.962229 228.795814 
L 256.241568 229.172804 
L 259.520907 229.624481 
L 262.800245 229.603666 
L 266.079584 230.160982 
L 269.358923 230.84431 
L 272.638262 231.345715 
L 275.917601 231.744046 
L 279.19694 231.924855 
L 282.476278 231.636678 
L 285.755617 231.469654 
L 289.034956 231.698848 
L 292.314295 215.029249 
L 295.593634 216.180864 
L 298.872973 216.990637 
L 302.152311 216.653314 
L 305.43165 217.020175 
L 308.710989 217.314078 
L 311.990328 216.839334 
L 315.269667 217.067361 
L 318.549006 216.5502 
L 321.828345 217.272797 
L 325.107683 218.154058 
L 328.387022 218.372157 
L 331.666361 217.893986 
L 334.9457 218.24527 
L 338.225039 218.266645 
L 341.504378 218.309741 
L 344.783716 217.926044 
L 348.063055 218.50071 
L 351.342394 218.239948 
L 354.621733 218.71122 
L 357.901072 219.482953 
L 361.180411 218.35983 
L 364.459749 219.348251 
L 367.739088 219.591978 
L 371.018427 219.04928 
L 374.297766 219.896492 
L 377.577105 220.032331 
L 380.856444 220.181428 
L 384.135783 219.886656 
L 387.415121 220.545804 
L 390.69446 220.889546 
" clip-path="url(#pec1b5a7fdd)" style="fill: none; stroke-dasharray: 7.5,1.5,1.5,1.5; stroke-dashoffset: 0; stroke: #8172b3; stroke-width: 1.5"/>
   </g>
   <g id="line2d_19"/>
   <g id="line2d_20"/>
   <g id="line2d_21"/>
   <g id="line2d_22"/>
   <g id="line2d_23"/>
   <g id="patch_3">
    <path d="M 49.807187 273.312 
L 49.807187 7.2 
" style="fill: none; stroke: #cccccc; stroke-width: 1.25; stroke-linejoin: miter; stroke-linecap: square"/>
   </g>
   <g id="patch_4">
    <path d="M 406.927188 273.312 
L 406.927188 7.2 
" style="fill: none; stroke: #cccccc; stroke-width: 1.25; stroke-linejoin: miter; stroke-linecap: square"/>
   </g>
   <g id="patch_5">
    <path d="M 49.807187 273.312 
L 406.927188 273.312 
" style="fill: none; stroke: #cccccc; stroke-width: 1.25; stroke-linejoin: miter; stroke-linecap: square"/>
   </g>
   <g id="patch_6">
    <path d="M 49.807187 7.2 
L 406.927188 7.2 
" style="fill: none; stroke: #cccccc; stroke-width: 1.25; stroke-linejoin: miter; stroke-linecap: square"/>
   </g>
   <g id="legend_1">
    <g id="patch_7">
     <path d="M 295.242813 113.843437 
L 399.227188 113.843437 
Q 401.427188 113.843437 401.427188 111.643437 
L 401.427188 14.9 
Q 401.427188 12.7 399.227188 12.7 
L 295.242813 12.7 
Q 293.042813 12.7 293.042813 14.9 
L 293.042813 111.643437 
Q 293.042813 113.843437 295.242813 113.843437 
z
" style="fill: #ffffff; opacity: 0.8; stroke: #cccccc; stroke-linejoin: miter"/>
    </g>
    <g id="text_16">
     <!-- Strategy -->
     <g style="fill: #262626" transform="translate(321.525937 26.218125) scale(0.12 -0.12)">
      <defs>
       <path id="DejaVuSans-53" d="M 3425 4513 
L 3425 3897 
Q 3066 4069 2747 4153 
Q 2428 4238 2131 4238 
Q 1616 4238 1336 4038 
Q 1056 3838 1056 3469 
Q 1056 3159 1242 3001 
Q 1428 2844 1947 2747 
L 2328 2669 
Q 3034 2534 3370 2195 
Q 3706 1856 3706 1288 
Q 3706 609 3251 259 
Q 2797 -91 1919 -91 
Q 1588 -91 1214 -16 
Q 841 59 441 206 
L 441 856 
Q 825 641 1194 531 
Q 1563 422 1919 422 
Q 2459 422 2753 634 
Q 3047 847 3047 1241 
Q 3047 1584 2836 1778 
Q 2625 1972 2144 2069 
L 1759 2144 
Q 1053 2284 737 2584 
Q 422 2884 422 3419 
Q 422 4038 858 4394 
Q 1294 4750 2059 4750 
Q 2388 4750 2728 4690 
Q 3069 4631 3425 4513 
z
" transform="scale(0.015625)"/>
       <path id="DejaVuSans-74" d="M 1172 4494 
L 1172 3500 
L 2356 3500 
L 2356 3053 
L 1172 3053 
L 1172 1153 
Q 1172 725 1289 603 
Q 1406 481 1766 481 
L 2356 481 
L 2356 0 
L 1766 0 
Q 1100 0 847 248 
Q 594 497 594 1153 
L 594 3053 
L 172 3053 
L 172 3500 
L 594 3500 
L 594 4494 
L 1172 4494 
z
" transform="scale(0.015625)"/>
       <path id="DejaVuSans-72" d="M 2631 2963 
Q 2534 3019 2420 3045 
Q 2306 3072 2169 3072 
Q 1681 3072 1420 2755 
Q 1159 2438 1159 1844 
L 1159 0 
L 581 0 
L 581 3500 
L 1159 3500 
L 1159 2956 
Q 1341 3275 1631 3429 
Q 1922 3584 2338 3584 
Q 2397 3584 2469 3576 
Q 2541 3569 2628 3553 
L 2631 2963 
z
" transform="scale(0.015625)"/>
       <path id="DejaVuSans-61" d="M 2194 1759 
Q 1497 1759 1228 1600 
Q 959 1441 959 1056 
Q 959 750 1161 570 
Q 1363 391 1709 391 
Q 2188 391 2477 730 
Q 2766 1069 2766 1631 
L 2766 1759 
L 2194 1759 
z
M 3341 1997 
L 3341 0 
L 2766 0 
L 2766 531 
Q 2569 213 2275 61 
Q 1981 -91 1556 -91 
Q 1019 -91 701 211 
Q 384 513 384 1019 
Q 384 1609 779 1909 
Q 1175 2209 1959 2209 
L 2766 2209 
L 2766 2266 
Q 2766 2663 2505 2880 
Q 2244 3097 1772 3097 
Q 1472 3097 1187 3025 
Q 903 2953 641 2809 
L 641 3341 
Q 956 3463 1253 3523 
Q 1550 3584 1831 3584 
Q 2591 3584 2966 3190 
Q 3341 2797 3341 1997 
z
" transform="scale(0.015625)"/>
       <path id="DejaVuSans-65" d="M 3597 1894 
L 3597 1613 
L 953 1613 
Q 991 1019 1311 708 
Q 1631 397 2203 397 
Q 2534 397 2845 478 
Q 3156 559 3463 722 
L 3463 178 
Q 3153 47 2828 -22 
Q 2503 -91 2169 -91 
Q 1331 -91 842 396 
Q 353 884 353 1716 
Q 353 2575 817 3079 
Q 1281 3584 2069 3584 
Q 2775 3584 3186 3129 
Q 3597 2675 3597 1894 
z
M 3022 2063 
Q 3016 2534 2758 2815 
Q 2500 3097 2075 3097 
Q 1594 3097 1305 2825 
Q 1016 2553 972 2059 
L 3022 2063 
z
" transform="scale(0.015625)"/>
       <path id="DejaVuSans-67" d="M 2906 1791 
Q 2906 2416 2648 2759 
Q 2391 3103 1925 3103 
Q 1463 3103 1205 2759 
Q 947 2416 947 1791 
Q 947 1169 1205 825 
Q 1463 481 1925 481 
Q 2391 481 2648 825 
Q 2906 1169 2906 1791 
z
M 3481 434 
Q 3481 -459 3084 -895 
Q 2688 -1331 1869 -1331 
Q 1566 -1331 1297 -1286 
Q 1028 -1241 775 -1147 
L 775 -588 
Q 1028 -725 1275 -790 
Q 1522 -856 1778 -856 
Q 2344 -856 2625 -561 
Q 2906 -266 2906 331 
L 2906 616 
Q 2728 306 2450 153 
Q 2172 0 1784 0 
Q 1141 0 747 490 
Q 353 981 353 1791 
Q 353 2603 747 3093 
Q 1141 3584 1784 3584 
Q 2172 3584 2450 3431 
Q 2728 3278 2906 2969 
L 2906 3500 
L 3481 3500 
L 3481 434 
z
" transform="scale(0.015625)"/>
       <path id="DejaVuSans-79" d="M 2059 -325 
Q 1816 -950 1584 -1140 
Q 1353 -1331 966 -1331 
L 506 -1331 
L 506 -850 
L 844 -850 
Q 1081 -850 1212 -737 
Q 1344 -625 1503 -206 
L 1606 56 
L 191 3500 
L 800 3500 
L 1894 763 
L 2988 3500 
L 3597 3500 
L 2059 -325 
z
" transform="scale(0.015625)"/>
      </defs>
      <use xlink:href="#DejaVuSans-53"/>
      <use xlink:href="#DejaVuSans-74" x="63.476562"/>
      <use xlink:href="#DejaVuSans-72" x="102.685547"/>
      <use xlink:href="#DejaVuSans-61" x="143.798828"/>
      <use xlink:href="#DejaVuSans-74" x="205.078125"/>
      <use xlink:href="#DejaVuSans-65" x="244.287109"/>
      <use xlink:href="#DejaVuSans-67" x="305.810547"/>
      <use xlink:href="#DejaVuSans-79" x="369.287109"/>
     </g>
    </g>
    <g id="line2d_24">
     <path d="M 297.442813 38.722031 
L 308.442813 38.722031 
L 319.442813 38.722031 
" style="fill: none; stroke: #4c72b0; stroke-width: 1.5; stroke-linecap: round"/>
    </g>
    <g id="text_17">
     <!-- FedPredict -->
     <g style="fill: #262626" transform="translate(328.242813 42.572031) scale(0.11 -0.11)">
      <defs>
       <path id="DejaVuSans-46" d="M 628 4666 
L 3309 4666 
L 3309 4134 
L 1259 4134 
L 1259 2759 
L 3109 2759 
L 3109 2228 
L 1259 2228 
L 1259 0 
L 628 0 
L 628 4666 
z
" transform="scale(0.015625)"/>
       <path id="DejaVuSans-50" d="M 1259 4147 
L 1259 2394 
L 2053 2394 
Q 2494 2394 2734 2622 
Q 2975 2850 2975 3272 
Q 2975 3691 2734 3919 
Q 2494 4147 2053 4147 
L 1259 4147 
z
M 628 4666 
L 2053 4666 
Q 2838 4666 3239 4311 
Q 3641 3956 3641 3272 
Q 3641 2581 3239 2228 
Q 2838 1875 2053 1875 
L 1259 1875 
L 1259 0 
L 628 0 
L 628 4666 
z
" transform="scale(0.015625)"/>
       <path id="DejaVuSans-69" d="M 603 3500 
L 1178 3500 
L 1178 0 
L 603 0 
L 603 3500 
z
M 603 4863 
L 1178 4863 
L 1178 4134 
L 603 4134 
L 603 4863 
z
" transform="scale(0.015625)"/>
       <path id="DejaVuSans-63" d="M 3122 3366 
L 3122 2828 
Q 2878 2963 2633 3030 
Q 2388 3097 2138 3097 
Q 1578 3097 1268 2742 
Q 959 2388 959 1747 
Q 959 1106 1268 751 
Q 1578 397 2138 397 
Q 2388 397 2633 464 
Q 2878 531 3122 666 
L 3122 134 
Q 2881 22 2623 -34 
Q 2366 -91 2075 -91 
Q 1284 -91 818 406 
Q 353 903 353 1747 
Q 353 2603 823 3093 
Q 1294 3584 2113 3584 
Q 2378 3584 2631 3529 
Q 2884 3475 3122 3366 
z
" transform="scale(0.015625)"/>
      </defs>
      <use xlink:href="#DejaVuSans-46"/>
      <use xlink:href="#DejaVuSans-65" x="52.019531"/>
      <use xlink:href="#DejaVuSans-64" x="113.542969"/>
      <use xlink:href="#DejaVuSans-50" x="177.019531"/>
      <use xlink:href="#DejaVuSans-72" x="235.572266"/>
      <use xlink:href="#DejaVuSans-65" x="274.435547"/>
      <use xlink:href="#DejaVuSans-64" x="335.958984"/>
      <use xlink:href="#DejaVuSans-69" x="399.435547"/>
      <use xlink:href="#DejaVuSans-63" x="427.21875"/>
      <use xlink:href="#DejaVuSans-74" x="482.199219"/>
     </g>
    </g>
    <g id="line2d_25">
     <path d="M 297.442813 54.867969 
L 308.442813 54.867969 
L 319.442813 54.867969 
" style="fill: none; stroke-dasharray: 6,2.25; stroke-dashoffset: 0; stroke: #dd8452; stroke-width: 1.5"/>
    </g>
    <g id="text_18">
     <!-- FedAVG -->
     <g style="fill: #262626" transform="translate(328.242813 58.717969) scale(0.11 -0.11)">
      <defs>
       <path id="DejaVuSans-41" d="M 2188 4044 
L 1331 1722 
L 3047 1722 
L 2188 4044 
z
M 1831 4666 
L 2547 4666 
L 4325 0 
L 3669 0 
L 3244 1197 
L 1141 1197 
L 716 0 
L 50 0 
L 1831 4666 
z
" transform="scale(0.015625)"/>
       <path id="DejaVuSans-56" d="M 1831 0 
L 50 4666 
L 709 4666 
L 2188 738 
L 3669 4666 
L 4325 4666 
L 2547 0 
L 1831 0 
z
" transform="scale(0.015625)"/>
       <path id="DejaVuSans-47" d="M 3809 666 
L 3809 1919 
L 2778 1919 
L 2778 2438 
L 4434 2438 
L 4434 434 
Q 4069 175 3628 42 
Q 3188 -91 2688 -91 
Q 1594 -91 976 548 
Q 359 1188 359 2328 
Q 359 3472 976 4111 
Q 1594 4750 2688 4750 
Q 3144 4750 3555 4637 
Q 3966 4525 4313 4306 
L 4313 3634 
Q 3963 3931 3569 4081 
Q 3175 4231 2741 4231 
Q 1884 4231 1454 3753 
Q 1025 3275 1025 2328 
Q 1025 1384 1454 906 
Q 1884 428 2741 428 
Q 3075 428 3337 486 
Q 3600 544 3809 666 
z
" transform="scale(0.015625)"/>
      </defs>
      <use xlink:href="#DejaVuSans-46"/>
      <use xlink:href="#DejaVuSans-65" x="52.019531"/>
      <use xlink:href="#DejaVuSans-64" x="113.542969"/>
      <use xlink:href="#DejaVuSans-41" x="177.019531"/>
      <use xlink:href="#DejaVuSans-56" x="239.052734"/>
      <use xlink:href="#DejaVuSans-47" x="307.460938"/>
     </g>
    </g>
    <g id="line2d_26">
     <path d="M 297.442813 71.013906 
L 308.442813 71.013906 
L 319.442813 71.013906 
" style="fill: none; stroke-dasharray: 1.5,1.5; stroke-dashoffset: 0; stroke: #55a868; stroke-width: 1.5"/>
    </g>
    <g id="text_19">
     <!-- FedClassAvg -->
     <g style="fill: #262626" transform="translate(328.242813 74.863906) scale(0.11 -0.11)">
      <defs>
       <path id="DejaVuSans-43" d="M 4122 4306 
L 4122 3641 
Q 3803 3938 3442 4084 
Q 3081 4231 2675 4231 
Q 1875 4231 1450 3742 
Q 1025 3253 1025 2328 
Q 1025 1406 1450 917 
Q 1875 428 2675 428 
Q 3081 428 3442 575 
Q 3803 722 4122 1019 
L 4122 359 
Q 3791 134 3420 21 
Q 3050 -91 2638 -91 
Q 1578 -91 968 557 
Q 359 1206 359 2328 
Q 359 3453 968 4101 
Q 1578 4750 2638 4750 
Q 3056 4750 3426 4639 
Q 3797 4528 4122 4306 
z
" transform="scale(0.015625)"/>
       <path id="DejaVuSans-6c" d="M 603 4863 
L 1178 4863 
L 1178 0 
L 603 0 
L 603 4863 
z
" transform="scale(0.015625)"/>
       <path id="DejaVuSans-76" d="M 191 3500 
L 800 3500 
L 1894 563 
L 2988 3500 
L 3597 3500 
L 2284 0 
L 1503 0 
L 191 3500 
z
" transform="scale(0.015625)"/>
      </defs>
      <use xlink:href="#DejaVuSans-46"/>
      <use xlink:href="#DejaVuSans-65" x="52.019531"/>
      <use xlink:href="#DejaVuSans-64" x="113.542969"/>
      <use xlink:href="#DejaVuSans-43" x="177.019531"/>
      <use xlink:href="#DejaVuSans-6c" x="246.84375"/>
      <use xlink:href="#DejaVuSans-61" x="274.626953"/>
      <use xlink:href="#DejaVuSans-73" x="335.90625"/>
      <use xlink:href="#DejaVuSans-73" x="388.005859"/>
      <use xlink:href="#DejaVuSans-41" x="440.105469"/>
      <use xlink:href="#DejaVuSans-76" x="502.638672"/>
      <use xlink:href="#DejaVuSans-67" x="561.818359"/>
     </g>
    </g>
    <g id="line2d_27">
     <path d="M 297.442813 87.159844 
L 308.442813 87.159844 
L 319.442813 87.159844 
" style="fill: none; stroke-dasharray: 4.5,1.875,2.25,1.875; stroke-dashoffset: 0; stroke: #c44e52; stroke-width: 1.5"/>
    </g>
    <g id="text_20">
     <!-- FedPer -->
     <g style="fill: #262626" transform="translate(328.242813 91.009844) scale(0.11 -0.11)">
      <use xlink:href="#DejaVuSans-46"/>
      <use xlink:href="#DejaVuSans-65" x="52.019531"/>
      <use xlink:href="#DejaVuSans-64" x="113.542969"/>
      <use xlink:href="#DejaVuSans-50" x="177.019531"/>
      <use xlink:href="#DejaVuSans-65" x="233.697266"/>
      <use xlink:href="#DejaVuSans-72" x="295.220703"/>
     </g>
    </g>
    <g id="line2d_28">
     <path d="M 297.442813 103.305781 
L 308.442813 103.305781 
L 319.442813 103.305781 
" style="fill: none; stroke-dasharray: 7.5,1.5,1.5,1.5; stroke-dashoffset: 0; stroke: #8172b3; stroke-width: 1.5"/>
    </g>
    <g id="text_21">
     <!-- FedProto -->
     <g style="fill: #262626" transform="translate(328.242813 107.155781) scale(0.11 -0.11)">
      <use xlink:href="#DejaVuSans-46"/>
      <use xlink:href="#DejaVuSans-65" x="52.019531"/>
      <use xlink:href="#DejaVuSans-64" x="113.542969"/>
      <use xlink:href="#DejaVuSans-50" x="177.019531"/>
      <use xlink:href="#DejaVuSans-72" x="235.572266"/>
      <use xlink:href="#DejaVuSans-6f" x="274.435547"/>
      <use xlink:href="#DejaVuSans-74" x="335.617188"/>
      <use xlink:href="#DejaVuSans-6f" x="374.826172"/>
     </g>
    </g>
   </g>
  </g>
 </g>
 <defs>
  <clipPath id="pec1b5a7fdd">
   <rect x="49.807187" y="7.2" width="357.12" height="266.112"/>
  </clipPath>
 </defs>
</svg>
