<?xml version="1.0" encoding="utf-8" standalone="no"?>
<!DOCTYPE svg PUBLIC "-//W3C//DTD SVG 1.1//EN"
  "http://www.w3.org/Graphics/SVG/1.1/DTD/svg11.dtd">
<svg xmlns:xlink="http://www.w3.org/1999/xlink" width="414.127187pt" height="316.271687pt" viewBox="0 0 414.127187 316.271687" xmlns="http://www.w3.org/2000/svg" version="1.1">
 <metadata>
  <rdf:RDF xmlns:dc="http://purl.org/dc/elements/1.1/" xmlns:cc="http://creativecommons.org/ns#" xmlns:rdf="http://www.w3.org/1999/02/22-rdf-syntax-ns#">
   <cc:Work>
    <dc:type rdf:resource="http://purl.org/dc/dcmitype/StillImage"/>
    <dc:date>2023-02-11T02:39:49.531737</dc:date>
    <dc:format>image/svg+xml</dc:format>
    <dc:creator>
     <cc:Agent>
      <dc:title>Matplotlib v3.6.3, https://matplotlib.org/</dc:title>
     </cc:Agent>
    </dc:creator>
   </cc:Work>
  </rdf:RDF>
 </metadata>
 <defs>
  <style type="text/css">*{stroke-linejoin: round; stroke-linecap: butt}</style>
 </defs>
 <g id="figure_1">
  <g id="patch_1">
   <path d="M 0 316.271687 
L 414.127187 316.271687 
L 414.127187 0 
L 0 0 
z
" style="fill: #ffffff"/>
  </g>
  <g id="axes_1">
   <g id="patch_2">
    <path d="M 49.807187 273.312 
L 406.927188 273.312 
L 406.927188 7.2 
L 49.807187 7.2 
z
" style="fill: #ffffff"/>
   </g>
   <g id="matplotlib.axis_1">
    <g id="xtick_1">
     <g id="line2d_1">
      <path d="M 62.760576 273.312 
L 62.760576 7.2 
" clip-path="url(#p9fdb469024)" style="fill: none; stroke: #cccccc; stroke-linecap: round"/>
     </g>
     <g id="text_1">
      <!-- 0 -->
      <g style="fill: #262626" transform="translate(59.261201 291.170281) scale(0.11 -0.11)">
       <defs>
        <path id="DejaVuSans-30" d="M 2034 4250 
Q 1547 4250 1301 3770 
Q 1056 3291 1056 2328 
Q 1056 1369 1301 889 
Q 1547 409 2034 409 
Q 2525 409 2770 889 
Q 3016 1369 3016 2328 
Q 3016 3291 2770 3770 
Q 2525 4250 2034 4250 
z
M 2034 4750 
Q 2819 4750 3233 4129 
Q 3647 3509 3647 2328 
Q 3647 1150 3233 529 
Q 2819 -91 2034 -91 
Q 1250 -91 836 529 
Q 422 1150 422 2328 
Q 422 3509 836 4129 
Q 1250 4750 2034 4750 
z
" transform="scale(0.015625)"/>
       </defs>
       <use xlink:href="#DejaVuSans-30"/>
      </g>
     </g>
    </g>
    <g id="xtick_2">
     <g id="line2d_2">
      <path d="M 128.347353 273.312 
L 128.347353 7.2 
" clip-path="url(#p9fdb469024)" style="fill: none; stroke: #cccccc; stroke-linecap: round"/>
     </g>
     <g id="text_2">
      <!-- 20 -->
      <g style="fill: #262626" transform="translate(121.348603 291.170281) scale(0.11 -0.11)">
       <defs>
        <path id="DejaVuSans-32" d="M 1228 531 
L 3431 531 
L 3431 0 
L 469 0 
L 469 531 
Q 828 903 1448 1529 
Q 2069 2156 2228 2338 
Q 2531 2678 2651 2914 
Q 2772 3150 2772 3378 
Q 2772 3750 2511 3984 
Q 2250 4219 1831 4219 
Q 1534 4219 1204 4116 
Q 875 4013 500 3803 
L 500 4441 
Q 881 4594 1212 4672 
Q 1544 4750 1819 4750 
Q 2544 4750 2975 4387 
Q 3406 4025 3406 3419 
Q 3406 3131 3298 2873 
Q 3191 2616 2906 2266 
Q 2828 2175 2409 1742 
Q 1991 1309 1228 531 
z
" transform="scale(0.015625)"/>
       </defs>
       <use xlink:href="#DejaVuSans-32"/>
       <use xlink:href="#DejaVuSans-30" x="63.623047"/>
      </g>
     </g>
    </g>
    <g id="xtick_3">
     <g id="line2d_3">
      <path d="M 193.93413 273.312 
L 193.93413 7.2 
" clip-path="url(#p9fdb469024)" style="fill: none; stroke: #cccccc; stroke-linecap: round"/>
     </g>
     <g id="text_3">
      <!-- 40 -->
      <g style="fill: #262626" transform="translate(186.93538 291.170281) scale(0.11 -0.11)">
       <defs>
        <path id="DejaVuSans-34" d="M 2419 4116 
L 825 1625 
L 2419 1625 
L 2419 4116 
z
M 2253 4666 
L 3047 4666 
L 3047 1625 
L 3713 1625 
L 3713 1100 
L 3047 1100 
L 3047 0 
L 2419 0 
L 2419 1100 
L 313 1100 
L 313 1709 
L 2253 4666 
z
" transform="scale(0.015625)"/>
       </defs>
       <use xlink:href="#DejaVuSans-34"/>
       <use xlink:href="#DejaVuSans-30" x="63.623047"/>
      </g>
     </g>
    </g>
    <g id="xtick_4">
     <g id="line2d_4">
      <path d="M 259.520907 273.312 
L 259.520907 7.2 
" clip-path="url(#p9fdb469024)" style="fill: none; stroke: #cccccc; stroke-linecap: round"/>
     </g>
     <g id="text_4">
      <!-- 60 -->
      <g style="fill: #262626" transform="translate(252.522157 291.170281) scale(0.11 -0.11)">
       <defs>
        <path id="DejaVuSans-36" d="M 2113 2584 
Q 1688 2584 1439 2293 
Q 1191 2003 1191 1497 
Q 1191 994 1439 701 
Q 1688 409 2113 409 
Q 2538 409 2786 701 
Q 3034 994 3034 1497 
Q 3034 2003 2786 2293 
Q 2538 2584 2113 2584 
z
M 3366 4563 
L 3366 3988 
Q 3128 4100 2886 4159 
Q 2644 4219 2406 4219 
Q 1781 4219 1451 3797 
Q 1122 3375 1075 2522 
Q 1259 2794 1537 2939 
Q 1816 3084 2150 3084 
Q 2853 3084 3261 2657 
Q 3669 2231 3669 1497 
Q 3669 778 3244 343 
Q 2819 -91 2113 -91 
Q 1303 -91 875 529 
Q 447 1150 447 2328 
Q 447 3434 972 4092 
Q 1497 4750 2381 4750 
Q 2619 4750 2861 4703 
Q 3103 4656 3366 4563 
z
" transform="scale(0.015625)"/>
       </defs>
       <use xlink:href="#DejaVuSans-36"/>
       <use xlink:href="#DejaVuSans-30" x="63.623047"/>
      </g>
     </g>
    </g>
    <g id="xtick_5">
     <g id="line2d_5">
      <path d="M 325.107683 273.312 
L 325.107683 7.2 
" clip-path="url(#p9fdb469024)" style="fill: none; stroke: #cccccc; stroke-linecap: round"/>
     </g>
     <g id="text_5">
      <!-- 80 -->
      <g style="fill: #262626" transform="translate(318.108933 291.170281) scale(0.11 -0.11)">
       <defs>
        <path id="DejaVuSans-38" d="M 2034 2216 
Q 1584 2216 1326 1975 
Q 1069 1734 1069 1313 
Q 1069 891 1326 650 
Q 1584 409 2034 409 
Q 2484 409 2743 651 
Q 3003 894 3003 1313 
Q 3003 1734 2745 1975 
Q 2488 2216 2034 2216 
z
M 1403 2484 
Q 997 2584 770 2862 
Q 544 3141 544 3541 
Q 544 4100 942 4425 
Q 1341 4750 2034 4750 
Q 2731 4750 3128 4425 
Q 3525 4100 3525 3541 
Q 3525 3141 3298 2862 
Q 3072 2584 2669 2484 
Q 3125 2378 3379 2068 
Q 3634 1759 3634 1313 
Q 3634 634 3220 271 
Q 2806 -91 2034 -91 
Q 1263 -91 848 271 
Q 434 634 434 1313 
Q 434 1759 690 2068 
Q 947 2378 1403 2484 
z
M 1172 3481 
Q 1172 3119 1398 2916 
Q 1625 2713 2034 2713 
Q 2441 2713 2670 2916 
Q 2900 3119 2900 3481 
Q 2900 3844 2670 4047 
Q 2441 4250 2034 4250 
Q 1625 4250 1398 4047 
Q 1172 3844 1172 3481 
z
" transform="scale(0.015625)"/>
       </defs>
       <use xlink:href="#DejaVuSans-38"/>
       <use xlink:href="#DejaVuSans-30" x="63.623047"/>
      </g>
     </g>
    </g>
    <g id="xtick_6">
     <g id="line2d_6">
      <path d="M 390.69446 273.312 
L 390.69446 7.2 
" clip-path="url(#p9fdb469024)" style="fill: none; stroke: #cccccc; stroke-linecap: round"/>
     </g>
     <g id="text_6">
      <!-- 100 -->
      <g style="fill: #262626" transform="translate(380.196335 291.170281) scale(0.11 -0.11)">
       <defs>
        <path id="DejaVuSans-31" d="M 794 531 
L 1825 531 
L 1825 4091 
L 703 3866 
L 703 4441 
L 1819 4666 
L 2450 4666 
L 2450 531 
L 3481 531 
L 3481 0 
L 794 0 
L 794 531 
z
" transform="scale(0.015625)"/>
       </defs>
       <use xlink:href="#DejaVuSans-31"/>
       <use xlink:href="#DejaVuSans-30" x="63.623047"/>
       <use xlink:href="#DejaVuSans-30" x="127.246094"/>
      </g>
     </g>
    </g>
    <g id="text_7">
     <!-- Round -->
     <g style="fill: #262626" transform="translate(209.382812 306.576062) scale(0.12 -0.12)">
      <defs>
       <path id="DejaVuSans-52" d="M 2841 2188 
Q 3044 2119 3236 1894 
Q 3428 1669 3622 1275 
L 4263 0 
L 3584 0 
L 2988 1197 
Q 2756 1666 2539 1819 
Q 2322 1972 1947 1972 
L 1259 1972 
L 1259 0 
L 628 0 
L 628 4666 
L 2053 4666 
Q 2853 4666 3247 4331 
Q 3641 3997 3641 3322 
Q 3641 2881 3436 2590 
Q 3231 2300 2841 2188 
z
M 1259 4147 
L 1259 2491 
L 2053 2491 
Q 2509 2491 2742 2702 
Q 2975 2913 2975 3322 
Q 2975 3731 2742 3939 
Q 2509 4147 2053 4147 
L 1259 4147 
z
" transform="scale(0.015625)"/>
       <path id="DejaVuSans-6f" d="M 1959 3097 
Q 1497 3097 1228 2736 
Q 959 2375 959 1747 
Q 959 1119 1226 758 
Q 1494 397 1959 397 
Q 2419 397 2687 759 
Q 2956 1122 2956 1747 
Q 2956 2369 2687 2733 
Q 2419 3097 1959 3097 
z
M 1959 3584 
Q 2709 3584 3137 3096 
Q 3566 2609 3566 1747 
Q 3566 888 3137 398 
Q 2709 -91 1959 -91 
Q 1206 -91 779 398 
Q 353 888 353 1747 
Q 353 2609 779 3096 
Q 1206 3584 1959 3584 
z
" transform="scale(0.015625)"/>
       <path id="DejaVuSans-75" d="M 544 1381 
L 544 3500 
L 1119 3500 
L 1119 1403 
Q 1119 906 1312 657 
Q 1506 409 1894 409 
Q 2359 409 2629 706 
Q 2900 1003 2900 1516 
L 2900 3500 
L 3475 3500 
L 3475 0 
L 2900 0 
L 2900 538 
Q 2691 219 2414 64 
Q 2138 -91 1772 -91 
Q 1169 -91 856 284 
Q 544 659 544 1381 
z
M 1991 3584 
L 1991 3584 
z
" transform="scale(0.015625)"/>
       <path id="DejaVuSans-6e" d="M 3513 2113 
L 3513 0 
L 2938 0 
L 2938 2094 
Q 2938 2591 2744 2837 
Q 2550 3084 2163 3084 
Q 1697 3084 1428 2787 
Q 1159 2491 1159 1978 
L 1159 0 
L 581 0 
L 581 3500 
L 1159 3500 
L 1159 2956 
Q 1366 3272 1645 3428 
Q 1925 3584 2291 3584 
Q 2894 3584 3203 3211 
Q 3513 2838 3513 2113 
z
" transform="scale(0.015625)"/>
       <path id="DejaVuSans-64" d="M 2906 2969 
L 2906 4863 
L 3481 4863 
L 3481 0 
L 2906 0 
L 2906 525 
Q 2725 213 2448 61 
Q 2172 -91 1784 -91 
Q 1150 -91 751 415 
Q 353 922 353 1747 
Q 353 2572 751 3078 
Q 1150 3584 1784 3584 
Q 2172 3584 2448 3432 
Q 2725 3281 2906 2969 
z
M 947 1747 
Q 947 1113 1208 752 
Q 1469 391 1925 391 
Q 2381 391 2643 752 
Q 2906 1113 2906 1747 
Q 2906 2381 2643 2742 
Q 2381 3103 1925 3103 
Q 1469 3103 1208 2742 
Q 947 2381 947 1747 
z
" transform="scale(0.015625)"/>
      </defs>
      <use xlink:href="#DejaVuSans-52"/>
      <use xlink:href="#DejaVuSans-6f" x="64.982422"/>
      <use xlink:href="#DejaVuSans-75" x="126.164062"/>
      <use xlink:href="#DejaVuSans-6e" x="189.542969"/>
      <use xlink:href="#DejaVuSans-64" x="252.921875"/>
     </g>
    </g>
   </g>
   <g id="matplotlib.axis_2">
    <g id="ytick_1">
     <g id="line2d_7">
      <path d="M 49.807187 262.907075 
L 406.927188 262.907075 
" clip-path="url(#p9fdb469024)" style="fill: none; stroke: #cccccc; stroke-linecap: round"/>
     </g>
     <g id="text_8">
      <!-- 0.0 -->
      <g style="fill: #262626" transform="translate(22.81375 267.086216) scale(0.11 -0.11)">
       <defs>
        <path id="DejaVuSans-2e" d="M 684 794 
L 1344 794 
L 1344 0 
L 684 0 
L 684 794 
z
" transform="scale(0.015625)"/>
       </defs>
       <use xlink:href="#DejaVuSans-30"/>
       <use xlink:href="#DejaVuSans-2e" x="63.623047"/>
       <use xlink:href="#DejaVuSans-30" x="95.410156"/>
      </g>
     </g>
    </g>
    <g id="ytick_2">
     <g id="line2d_8">
      <path d="M 49.807187 225.226529 
L 406.927188 225.226529 
" clip-path="url(#p9fdb469024)" style="fill: none; stroke: #cccccc; stroke-linecap: round"/>
     </g>
     <g id="text_9">
      <!-- 0.5 -->
      <g style="fill: #262626" transform="translate(22.81375 229.40567) scale(0.11 -0.11)">
       <defs>
        <path id="DejaVuSans-35" d="M 691 4666 
L 3169 4666 
L 3169 4134 
L 1269 4134 
L 1269 2991 
Q 1406 3038 1543 3061 
Q 1681 3084 1819 3084 
Q 2600 3084 3056 2656 
Q 3513 2228 3513 1497 
Q 3513 744 3044 326 
Q 2575 -91 1722 -91 
Q 1428 -91 1123 -41 
Q 819 9 494 109 
L 494 744 
Q 775 591 1075 516 
Q 1375 441 1709 441 
Q 2250 441 2565 725 
Q 2881 1009 2881 1497 
Q 2881 1984 2565 2268 
Q 2250 2553 1709 2553 
Q 1456 2553 1204 2497 
Q 953 2441 691 2322 
L 691 4666 
z
" transform="scale(0.015625)"/>
       </defs>
       <use xlink:href="#DejaVuSans-30"/>
       <use xlink:href="#DejaVuSans-2e" x="63.623047"/>
       <use xlink:href="#DejaVuSans-35" x="95.410156"/>
      </g>
     </g>
    </g>
    <g id="ytick_3">
     <g id="line2d_9">
      <path d="M 49.807187 187.545983 
L 406.927188 187.545983 
" clip-path="url(#p9fdb469024)" style="fill: none; stroke: #cccccc; stroke-linecap: round"/>
     </g>
     <g id="text_10">
      <!-- 1.0 -->
      <g style="fill: #262626" transform="translate(22.81375 191.725124) scale(0.11 -0.11)">
       <use xlink:href="#DejaVuSans-31"/>
       <use xlink:href="#DejaVuSans-2e" x="63.623047"/>
       <use xlink:href="#DejaVuSans-30" x="95.410156"/>
      </g>
     </g>
    </g>
    <g id="ytick_4">
     <g id="line2d_10">
      <path d="M 49.807187 149.865437 
L 406.927188 149.865437 
" clip-path="url(#p9fdb469024)" style="fill: none; stroke: #cccccc; stroke-linecap: round"/>
     </g>
     <g id="text_11">
      <!-- 1.5 -->
      <g style="fill: #262626" transform="translate(22.81375 154.044578) scale(0.11 -0.11)">
       <use xlink:href="#DejaVuSans-31"/>
       <use xlink:href="#DejaVuSans-2e" x="63.623047"/>
       <use xlink:href="#DejaVuSans-35" x="95.410156"/>
      </g>
     </g>
    </g>
    <g id="ytick_5">
     <g id="line2d_11">
      <path d="M 49.807187 112.184891 
L 406.927188 112.184891 
" clip-path="url(#p9fdb469024)" style="fill: none; stroke: #cccccc; stroke-linecap: round"/>
     </g>
     <g id="text_12">
      <!-- 2.0 -->
      <g style="fill: #262626" transform="translate(22.81375 116.364032) scale(0.11 -0.11)">
       <use xlink:href="#DejaVuSans-32"/>
       <use xlink:href="#DejaVuSans-2e" x="63.623047"/>
       <use xlink:href="#DejaVuSans-30" x="95.410156"/>
      </g>
     </g>
    </g>
    <g id="ytick_6">
     <g id="line2d_12">
      <path d="M 49.807187 74.504345 
L 406.927188 74.504345 
" clip-path="url(#p9fdb469024)" style="fill: none; stroke: #cccccc; stroke-linecap: round"/>
     </g>
     <g id="text_13">
      <!-- 2.5 -->
      <g style="fill: #262626" transform="translate(22.81375 78.683486) scale(0.11 -0.11)">
       <use xlink:href="#DejaVuSans-32"/>
       <use xlink:href="#DejaVuSans-2e" x="63.623047"/>
       <use xlink:href="#DejaVuSans-35" x="95.410156"/>
      </g>
     </g>
    </g>
    <g id="ytick_7">
     <g id="line2d_13">
      <path d="M 49.807187 36.823799 
L 406.927188 36.823799 
" clip-path="url(#p9fdb469024)" style="fill: none; stroke: #cccccc; stroke-linecap: round"/>
     </g>
     <g id="text_14">
      <!-- 3.0 -->
      <g style="fill: #262626" transform="translate(22.81375 41.00294) scale(0.11 -0.11)">
       <defs>
        <path id="DejaVuSans-33" d="M 2597 2516 
Q 3050 2419 3304 2112 
Q 3559 1806 3559 1356 
Q 3559 666 3084 287 
Q 2609 -91 1734 -91 
Q 1441 -91 1130 -33 
Q 819 25 488 141 
L 488 750 
Q 750 597 1062 519 
Q 1375 441 1716 441 
Q 2309 441 2620 675 
Q 2931 909 2931 1356 
Q 2931 1769 2642 2001 
Q 2353 2234 1838 2234 
L 1294 2234 
L 1294 2753 
L 1863 2753 
Q 2328 2753 2575 2939 
Q 2822 3125 2822 3475 
Q 2822 3834 2567 4026 
Q 2313 4219 1838 4219 
Q 1578 4219 1281 4162 
Q 984 4106 628 3988 
L 628 4550 
Q 988 4650 1302 4700 
Q 1616 4750 1894 4750 
Q 2613 4750 3031 4423 
Q 3450 4097 3450 3541 
Q 3450 3153 3228 2886 
Q 3006 2619 2597 2516 
z
" transform="scale(0.015625)"/>
       </defs>
       <use xlink:href="#DejaVuSans-33"/>
       <use xlink:href="#DejaVuSans-2e" x="63.623047"/>
       <use xlink:href="#DejaVuSans-30" x="95.410156"/>
      </g>
     </g>
    </g>
    <g id="text_15">
     <!-- Loss -->
     <g style="fill: #262626" transform="translate(16.318125 153.416625) rotate(-90) scale(0.12 -0.12)">
      <defs>
       <path id="DejaVuSans-4c" d="M 628 4666 
L 1259 4666 
L 1259 531 
L 3531 531 
L 3531 0 
L 628 0 
L 628 4666 
z
" transform="scale(0.015625)"/>
       <path id="DejaVuSans-73" d="M 2834 3397 
L 2834 2853 
Q 2591 2978 2328 3040 
Q 2066 3103 1784 3103 
Q 1356 3103 1142 2972 
Q 928 2841 928 2578 
Q 928 2378 1081 2264 
Q 1234 2150 1697 2047 
L 1894 2003 
Q 2506 1872 2764 1633 
Q 3022 1394 3022 966 
Q 3022 478 2636 193 
Q 2250 -91 1575 -91 
Q 1294 -91 989 -36 
Q 684 19 347 128 
L 347 722 
Q 666 556 975 473 
Q 1284 391 1588 391 
Q 1994 391 2212 530 
Q 2431 669 2431 922 
Q 2431 1156 2273 1281 
Q 2116 1406 1581 1522 
L 1381 1569 
Q 847 1681 609 1914 
Q 372 2147 372 2553 
Q 372 3047 722 3315 
Q 1072 3584 1716 3584 
Q 2034 3584 2315 3537 
Q 2597 3491 2834 3397 
z
" transform="scale(0.015625)"/>
      </defs>
      <use xlink:href="#DejaVuSans-4c"/>
      <use xlink:href="#DejaVuSans-6f" x="53.962891"/>
      <use xlink:href="#DejaVuSans-73" x="115.144531"/>
      <use xlink:href="#DejaVuSans-73" x="167.244141"/>
     </g>
    </g>
   </g>
   <g id="PolyCollection_1">
    <defs>
     <path id="md0729df7a5" d="M 66.039915 -237.854769 
L 66.039915 -186.194127 
L 69.319254 -133.281029 
L 72.598592 -126.058616 
L 75.877931 -107.424113 
L 79.15727 -84.674049 
L 82.436609 -83.213036 
L 85.715948 -68.987559 
L 88.995287 -68.993876 
L 92.274626 -64.802704 
L 95.553964 -61.934028 
L 98.833303 -61.396717 
L 102.112642 -60.477595 
L 105.391981 -59.777866 
L 108.67132 -60.081338 
L 111.950659 -61.064445 
L 115.229997 -62.035732 
L 118.509336 -60.206575 
L 121.788675 -60.001443 
L 125.068014 -59.424623 
L 128.347353 -58.478486 
L 131.626692 -58.605122 
L 134.90603 -57.421658 
L 138.185369 -57.783818 
L 141.464708 -57.912643 
L 144.744047 -57.22654 
L 148.023386 -58.142907 
L 151.302725 -58.815961 
L 154.582064 -58.014342 
L 157.861402 -58.119266 
L 161.140741 -59.277239 
L 164.42008 -56.962414 
L 167.699419 -56.891881 
L 170.978758 -56.822008 
L 174.258097 -56.599707 
L 177.537435 -56.449824 
L 180.816774 -56.695464 
L 184.096113 -56.672255 
L 187.375452 -55.902068 
L 190.654791 -56.441861 
L 193.93413 -55.952059 
L 197.213468 -55.965082 
L 200.492807 -55.896362 
L 203.772146 -55.854432 
L 207.051485 -55.961253 
L 210.330824 -55.754213 
L 213.610163 -56.313234 
L 216.889502 -55.958325 
L 220.16884 -56.142022 
L 223.448179 -55.875077 
L 226.727518 -55.523206 
L 230.006857 -55.917875 
L 233.286196 -55.664485 
L 236.565535 -55.675241 
L 239.844873 -55.438937 
L 243.124212 -55.456096 
L 246.403551 -55.170523 
L 249.68289 -55.51309 
L 252.962229 -55.815578 
L 256.241568 -55.146728 
L 259.520907 -55.608758 
L 262.800245 -55.822497 
L 266.079584 -55.263766 
L 269.358923 -55.260141 
L 272.638262 -55.206004 
L 275.917601 -55.055687 
L 279.19694 -55.244265 
L 282.476278 -55.415721 
L 285.755617 -55.409317 
L 289.034956 -55.255334 
L 292.314295 -56.238202 
L 295.593634 -56.282282 
L 298.872973 -56.276939 
L 302.152311 -56.017824 
L 305.43165 -56.104775 
L 308.710989 -56.002696 
L 311.990328 -55.983265 
L 315.269667 -55.921213 
L 318.549006 -56.021122 
L 321.828345 -56.171864 
L 325.107683 -55.787185 
L 328.387022 -55.739724 
L 331.666361 -55.965138 
L 334.9457 -55.748881 
L 338.225039 -55.67409 
L 341.504378 -55.606216 
L 344.783716 -55.745659 
L 348.063055 -55.732368 
L 351.342394 -55.580501 
L 354.621733 -55.810106 
L 357.901072 -55.993114 
L 361.180411 -55.717262 
L 364.459749 -55.60842 
L 367.739088 -55.605158 
L 371.018427 -55.698783 
L 374.297766 -56.023299 
L 377.577105 -55.95398 
L 380.856444 -55.607326 
L 384.135783 -55.873645 
L 387.415121 -55.769259 
L 390.69446 -55.849243 
L 390.69446 -62.835614 
L 390.69446 -62.835614 
L 387.415121 -63.188497 
L 384.135783 -63.278126 
L 380.856444 -60.912531 
L 377.577105 -63.01452 
L 374.297766 -62.282069 
L 371.018427 -62.671592 
L 367.739088 -61.293904 
L 364.459749 -61.329427 
L 361.180411 -63.110356 
L 357.901072 -64.17471 
L 354.621733 -60.640921 
L 351.342394 -63.366237 
L 348.063055 -62.048515 
L 344.783716 -60.479213 
L 341.504378 -61.617759 
L 338.225039 -60.110544 
L 334.9457 -61.291713 
L 331.666361 -62.050492 
L 328.387022 -60.100822 
L 325.107683 -61.83165 
L 321.828345 -61.589662 
L 318.549006 -61.124679 
L 315.269667 -61.175059 
L 311.990328 -60.16232 
L 308.710989 -59.646206 
L 305.43165 -62.245478 
L 302.152311 -61.272251 
L 298.872973 -61.016768 
L 295.593634 -60.32478 
L 292.314295 -59.610121 
L 289.034956 -57.776646 
L 285.755617 -57.659267 
L 282.476278 -58.465662 
L 279.19694 -57.653812 
L 275.917601 -57.293011 
L 272.638262 -57.759934 
L 269.358923 -58.152451 
L 266.079584 -57.187168 
L 262.800245 -58.138606 
L 259.520907 -57.604935 
L 256.241568 -57.702844 
L 252.962229 -59.05797 
L 249.68289 -59.865382 
L 246.403551 -57.511799 
L 243.124212 -57.711766 
L 239.844873 -57.850376 
L 236.565535 -58.511062 
L 233.286196 -57.995927 
L 230.006857 -58.449534 
L 226.727518 -57.554119 
L 223.448179 -59.438627 
L 220.16884 -59.483491 
L 216.889502 -58.691585 
L 213.610163 -59.535511 
L 210.330824 -59.540864 
L 207.051485 -58.717308 
L 203.772146 -57.968664 
L 200.492807 -58.49065 
L 197.213468 -58.100543 
L 193.93413 -58.011035 
L 190.654791 -58.815032 
L 187.375452 -59.355484 
L 184.096113 -61.314718 
L 180.816774 -59.754735 
L 177.537435 -58.922652 
L 174.258097 -60.656748 
L 170.978758 -60.406545 
L 167.699419 -61.629602 
L 164.42008 -62.290597 
L 161.140741 -64.673559 
L 157.861402 -62.253771 
L 154.582064 -65.354315 
L 151.302725 -64.332736 
L 148.023386 -61.262269 
L 144.744047 -61.00679 
L 141.464708 -61.285711 
L 138.185369 -61.575366 
L 134.90603 -61.117576 
L 131.626692 -63.047234 
L 128.347353 -64.30828 
L 125.068014 -66.752032 
L 121.788675 -65.307986 
L 118.509336 -70.223418 
L 115.229997 -71.881279 
L 111.950659 -73.044217 
L 108.67132 -72.138753 
L 105.391981 -64.083281 
L 102.112642 -68.298935 
L 98.833303 -69.639226 
L 95.553964 -70.204964 
L 92.274626 -83.228714 
L 88.995287 -93.745589 
L 85.715948 -89.231968 
L 82.436609 -115.932457 
L 79.15727 -127.800268 
L 75.877931 -158.489923 
L 72.598592 -179.152746 
L 69.319254 -176.69988 
L 66.039915 -237.854769 
z
" style="stroke: #4c72b0; stroke-opacity: 0.2"/>
    </defs>
    <g clip-path="url(#p9fdb469024)">
     <use xlink:href="#md0729df7a5" x="0" y="316.271687" style="fill: #4c72b0; fill-opacity: 0.2; stroke: #4c72b0; stroke-opacity: 0.2"/>
    </g>
   </g>
   <g id="PolyCollection_2">
    <defs>
     <path id="md3a8edab98" d="M 66.039915 -263.285657 
L 66.039915 -223.798212 
L 69.319254 -179.253922 
L 72.598592 -198.727281 
L 75.877931 -162.119798 
L 79.15727 -138.225863 
L 82.436609 -140.506513 
L 85.715948 -103.167485 
L 88.995287 -105.142425 
L 92.274626 -97.032047 
L 95.553964 -84.737311 
L 98.833303 -84.983995 
L 102.112642 -79.906848 
L 105.391981 -83.937326 
L 108.67132 -80.775325 
L 111.950659 -93.610958 
L 115.229997 -92.419857 
L 118.509336 -79.449231 
L 121.788675 -85.69748 
L 125.068014 -83.985201 
L 128.347353 -82.595023 
L 131.626692 -79.198921 
L 134.90603 -74.785901 
L 138.185369 -77.230279 
L 141.464708 -77.349703 
L 144.744047 -70.819844 
L 148.023386 -81.030374 
L 151.302725 -89.977651 
L 154.582064 -88.988503 
L 157.861402 -78.346832 
L 161.140741 -90.893017 
L 164.42008 -74.066477 
L 167.699419 -72.767997 
L 170.978758 -77.663446 
L 174.258097 -69.357428 
L 177.537435 -70.939437 
L 180.816774 -76.247869 
L 184.096113 -72.840109 
L 187.375452 -69.414571 
L 190.654791 -79.078262 
L 193.93413 -68.127531 
L 197.213468 -72.238257 
L 200.492807 -69.155596 
L 203.772146 -64.358382 
L 207.051485 -66.2679 
L 210.330824 -67.18882 
L 213.610163 -83.047939 
L 216.889502 -74.454504 
L 220.16884 -74.677341 
L 223.448179 -68.719427 
L 226.727518 -65.762445 
L 230.006857 -70.953361 
L 233.286196 -63.552093 
L 236.565535 -65.301727 
L 239.844873 -64.074151 
L 243.124212 -64.985363 
L 246.403551 -62.603543 
L 249.68289 -63.642191 
L 252.962229 -77.934311 
L 256.241568 -63.382105 
L 259.520907 -74.817455 
L 262.800245 -87.415105 
L 266.079584 -62.911413 
L 269.358923 -65.953735 
L 272.638262 -63.605009 
L 275.917601 -62.436588 
L 279.19694 -66.02584 
L 282.476278 -75.675186 
L 285.755617 -73.14164 
L 289.034956 -71.021566 
L 292.314295 -64.884024 
L 295.593634 -72.863264 
L 298.872973 -69.078275 
L 302.152311 -66.200996 
L 305.43165 -72.541408 
L 308.710989 -64.533511 
L 311.990328 -64.431825 
L 315.269667 -66.384428 
L 318.549006 -62.136369 
L 321.828345 -64.091336 
L 325.107683 -62.132984 
L 328.387022 -62.489634 
L 331.666361 -69.99129 
L 334.9457 -65.416571 
L 338.225039 -65.24017 
L 341.504378 -67.694179 
L 344.783716 -65.225875 
L 348.063055 -64.176712 
L 351.342394 -65.080783 
L 354.621733 -61.483276 
L 357.901072 -68.741381 
L 361.180411 -63.900182 
L 364.459749 -61.892382 
L 367.739088 -60.826362 
L 371.018427 -62.251517 
L 374.297766 -72.099114 
L 377.577105 -67.61567 
L 380.856444 -64.770059 
L 384.135783 -60.550999 
L 387.415121 -63.290414 
L 390.69446 -60.562883 
L 390.69446 -67.426316 
L 390.69446 -67.426316 
L 387.415121 -73.034959 
L 384.135783 -63.567745 
L 380.856444 -69.385582 
L 377.577105 -78.245184 
L 374.297766 -85.163569 
L 371.018427 -65.477233 
L 367.739088 -64.153537 
L 364.459749 -66.18543 
L 361.180411 -69.268079 
L 357.901072 -76.313619 
L 354.621733 -66.032508 
L 351.342394 -71.945827 
L 348.063055 -69.934008 
L 344.783716 -74.125589 
L 341.504378 -77.376764 
L 338.225039 -72.342254 
L 334.9457 -74.306911 
L 331.666361 -80.282111 
L 328.387022 -65.475508 
L 325.107683 -66.910076 
L 321.828345 -69.882279 
L 318.549006 -65.158515 
L 315.269667 -72.499524 
L 311.990328 -70.495872 
L 308.710989 -69.566805 
L 305.43165 -86.483394 
L 302.152311 -73.689622 
L 298.872973 -81.767047 
L 295.593634 -85.707871 
L 292.314295 -69.589225 
L 289.034956 -90.182169 
L 285.755617 -91.244826 
L 282.476278 -101.528667 
L 279.19694 -78.112784 
L 275.917601 -67.712615 
L 272.638262 -69.710376 
L 269.358923 -71.696868 
L 266.079584 -67.707305 
L 262.800245 -114.089257 
L 259.520907 -89.918434 
L 256.241568 -69.050533 
L 252.962229 -103.287701 
L 249.68289 -69.480028 
L 246.403551 -66.293287 
L 243.124212 -76.772134 
L 239.844873 -71.578427 
L 236.565535 -72.911605 
L 233.286196 -67.409149 
L 230.006857 -81.584408 
L 226.727518 -70.257211 
L 223.448179 -80.145204 
L 220.16884 -102.625656 
L 216.889502 -89.533955 
L 213.610163 -114.348711 
L 210.330824 -77.862463 
L 207.051485 -79.968456 
L 203.772146 -69.922717 
L 200.492807 -75.095384 
L 197.213468 -86.336536 
L 193.93413 -78.965346 
L 190.654791 -91.274974 
L 187.375452 -75.330681 
L 184.096113 -89.832348 
L 180.816774 -90.40137 
L 177.537435 -80.732002 
L 174.258097 -75.518393 
L 170.978758 -94.551189 
L 167.699419 -92.999817 
L 164.42008 -99.058043 
L 161.140741 -140.240292 
L 157.861402 -108.383238 
L 154.582064 -125.261066 
L 151.302725 -128.938086 
L 148.023386 -103.709936 
L 144.744047 -79.054424 
L 141.464708 -91.321398 
L 138.185369 -88.201907 
L 134.90603 -82.227624 
L 131.626692 -98.965378 
L 128.347353 -107.340275 
L 125.068014 -111.370794 
L 121.788675 -110.155468 
L 118.509336 -106.161887 
L 115.229997 -124.942169 
L 111.950659 -128.327424 
L 108.67132 -96.755926 
L 105.391981 -96.068249 
L 102.112642 -96.091851 
L 98.833303 -100.175611 
L 95.553964 -104.525887 
L 92.274626 -116.768964 
L 88.995287 -141.527923 
L 85.715948 -129.846611 
L 82.436609 -179.494075 
L 79.15727 -181.430442 
L 75.877931 -219.104221 
L 72.598592 -243.971834 
L 69.319254 -201.063686 
L 66.039915 -263.285657 
z
" style="stroke: #dd8452; stroke-opacity: 0.2"/>
    </defs>
    <g clip-path="url(#p9fdb469024)">
     <use xlink:href="#md3a8edab98" x="0" y="316.271687" style="fill: #dd8452; fill-opacity: 0.2; stroke: #dd8452; stroke-opacity: 0.2"/>
    </g>
   </g>
   <g id="PolyCollection_3">
    <defs>
     <path id="m25a6685c09" d="M 66.039915 -296.975687 
L 66.039915 -189.052016 
L 69.319254 -160.121663 
L 72.598592 -144.808894 
L 75.877931 -130.255494 
L 79.15727 -114.567534 
L 82.436609 -106.309467 
L 85.715948 -99.446181 
L 88.995287 -91.930886 
L 92.274626 -81.83795 
L 95.553964 -81.368433 
L 98.833303 -75.971092 
L 102.112642 -72.750447 
L 105.391981 -70.186777 
L 108.67132 -68.833902 
L 111.950659 -67.502164 
L 115.229997 -65.721382 
L 118.509336 -64.455597 
L 121.788675 -63.595804 
L 125.068014 -64.038839 
L 128.347353 -63.586019 
L 131.626692 -63.500912 
L 134.90603 -62.927183 
L 138.185369 -62.490554 
L 141.464708 -61.794463 
L 144.744047 -61.363789 
L 148.023386 -61.405538 
L 151.302725 -60.887243 
L 154.582064 -60.124004 
L 157.861402 -60.644656 
L 161.140741 -60.366242 
L 164.42008 -59.844867 
L 167.699419 -59.346202 
L 170.978758 -59.614912 
L 174.258097 -59.79015 
L 177.537435 -59.195655 
L 180.816774 -59.281986 
L 184.096113 -59.204528 
L 187.375452 -58.556217 
L 190.654791 -58.662104 
L 193.93413 -58.584812 
L 197.213468 -58.560488 
L 200.492807 -58.145429 
L 203.772146 -58.148934 
L 207.051485 -57.833252 
L 210.330824 -57.970189 
L 213.610163 -57.918423 
L 216.889502 -57.676612 
L 220.16884 -57.429363 
L 223.448179 -57.118136 
L 226.727518 -56.987385 
L 230.006857 -57.06288 
L 233.286196 -57.185649 
L 236.565535 -56.90418 
L 239.844873 -56.884297 
L 243.124212 -56.896332 
L 246.403551 -56.845563 
L 249.68289 -56.745346 
L 252.962229 -56.681934 
L 256.241568 -56.653668 
L 259.520907 -56.555829 
L 262.800245 -56.553834 
L 266.079584 -56.502323 
L 269.358923 -56.613464 
L 272.638262 -56.475957 
L 275.917601 -56.673278 
L 279.19694 -56.595426 
L 282.476278 -56.657144 
L 285.755617 -56.654565 
L 289.034956 -56.622867 
L 292.314295 -63.129413 
L 295.593634 -62.928638 
L 298.872973 -63.126432 
L 302.152311 -63.577829 
L 305.43165 -63.025118 
L 308.710989 -62.991584 
L 311.990328 -63.246006 
L 315.269667 -62.710638 
L 318.549006 -62.62016 
L 321.828345 -62.565762 
L 325.107683 -62.275766 
L 328.387022 -62.672894 
L 331.666361 -63.228949 
L 334.9457 -62.343186 
L 338.225039 -62.812471 
L 341.504378 -62.760869 
L 344.783716 -62.944595 
L 348.063055 -62.622578 
L 351.342394 -63.093099 
L 354.621733 -62.778502 
L 357.901072 -62.569091 
L 361.180411 -62.161348 
L 364.459749 -62.485873 
L 367.739088 -62.875145 
L 371.018427 -62.42871 
L 374.297766 -62.592033 
L 377.577105 -62.479041 
L 380.856444 -62.323437 
L 384.135783 -61.95957 
L 387.415121 -62.293907 
L 390.69446 -62.246461 
L 390.69446 -79.878431 
L 390.69446 -79.878431 
L 387.415121 -79.046473 
L 384.135783 -80.06861 
L 380.856444 -79.365366 
L 377.577105 -79.522293 
L 374.297766 -80.253428 
L 371.018427 -79.533201 
L 367.739088 -79.683493 
L 364.459749 -79.475243 
L 361.180411 -80.064215 
L 357.901072 -79.785554 
L 354.621733 -80.360008 
L 351.342394 -80.454183 
L 348.063055 -79.654943 
L 344.783716 -80.038805 
L 341.504378 -79.819479 
L 338.225039 -79.681393 
L 334.9457 -78.855586 
L 331.666361 -80.333236 
L 328.387022 -79.474508 
L 325.107683 -80.094466 
L 321.828345 -79.555315 
L 318.549006 -79.866538 
L 315.269667 -79.168237 
L 311.990328 -79.706579 
L 308.710989 -80.332781 
L 305.43165 -80.109349 
L 302.152311 -80.03982 
L 298.872973 -80.169457 
L 295.593634 -80.3482 
L 292.314295 -79.947531 
L 289.034956 -63.697681 
L 285.755617 -63.794449 
L 282.476278 -64.678536 
L 279.19694 -64.145793 
L 275.917601 -62.966116 
L 272.638262 -64.747542 
L 269.358923 -64.239179 
L 266.079584 -61.710365 
L 262.800245 -61.750284 
L 259.520907 -62.054072 
L 256.241568 -63.127184 
L 252.962229 -62.509063 
L 249.68289 -62.941171 
L 246.403551 -63.770131 
L 243.124212 -64.058256 
L 239.844873 -64.399822 
L 236.565535 -63.86588 
L 233.286196 -63.006091 
L 230.006857 -62.679619 
L 226.727518 -62.938207 
L 223.448179 -63.482926 
L 220.16884 -63.928759 
L 216.889502 -64.892754 
L 213.610163 -65.041092 
L 210.330824 -65.665987 
L 207.051485 -68.789213 
L 203.772146 -69.528529 
L 200.492807 -70.072432 
L 197.213468 -68.66376 
L 193.93413 -68.940276 
L 190.654791 -69.659314 
L 187.375452 -73.78648 
L 184.096113 -75.889108 
L 180.816774 -72.941462 
L 177.537435 -73.515778 
L 174.258097 -73.052815 
L 170.978758 -73.477888 
L 167.699419 -73.954474 
L 164.42008 -75.260302 
L 161.140741 -77.290132 
L 157.861402 -78.179114 
L 154.582064 -80.149743 
L 151.302725 -81.760163 
L 148.023386 -80.215633 
L 144.744047 -79.785623 
L 141.464708 -81.416028 
L 138.185369 -82.406788 
L 134.90603 -88.486416 
L 131.626692 -89.460133 
L 128.347353 -91.800724 
L 125.068014 -86.533251 
L 121.788675 -85.662469 
L 118.509336 -87.960833 
L 115.229997 -88.437117 
L 111.950659 -96.172501 
L 108.67132 -96.197863 
L 105.391981 -98.154853 
L 102.112642 -107.550328 
L 98.833303 -109.441304 
L 95.553964 -119.026992 
L 92.274626 -126.288148 
L 88.995287 -140.35184 
L 85.715948 -150.782656 
L 82.436609 -157.00082 
L 79.15727 -167.806145 
L 75.877931 -185.569731 
L 72.598592 -206.333719 
L 69.319254 -209.622245 
L 66.039915 -296.975687 
z
" style="stroke: #55a868; stroke-opacity: 0.2"/>
    </defs>
    <g clip-path="url(#p9fdb469024)">
     <use xlink:href="#m25a6685c09" x="0" y="316.271687" style="fill: #55a868; fill-opacity: 0.2; stroke: #55a868; stroke-opacity: 0.2"/>
    </g>
   </g>
   <g id="PolyCollection_4">
    <defs>
     <path id="m438dacfe19" d="M 66.039915 -221.058444 
L 66.039915 -192.314586 
L 69.319254 -179.971067 
L 72.598592 -194.696134 
L 75.877931 -176.604129 
L 79.15727 -190.554086 
L 82.436609 -164.495121 
L 85.715948 -139.10462 
L 88.995287 -150.07596 
L 92.274626 -155.916482 
L 95.553964 -157.746745 
L 98.833303 -152.851224 
L 102.112642 -117.025317 
L 105.391981 -113.288771 
L 108.67132 -104.28861 
L 111.950659 -95.08824 
L 115.229997 -95.441893 
L 118.509336 -88.333873 
L 121.788675 -81.170964 
L 125.068014 -77.977396 
L 128.347353 -74.948806 
L 131.626692 -73.254404 
L 134.90603 -68.89179 
L 138.185369 -67.442582 
L 141.464708 -66.617794 
L 144.744047 -66.20001 
L 148.023386 -64.527689 
L 151.302725 -63.982907 
L 154.582064 -62.776729 
L 157.861402 -64.873778 
L 161.140741 -63.037224 
L 164.42008 -62.402774 
L 167.699419 -61.062884 
L 170.978758 -60.350354 
L 174.258097 -59.999204 
L 177.537435 -59.374916 
L 180.816774 -59.44279 
L 184.096113 -59.486148 
L 187.375452 -58.875763 
L 190.654791 -58.82947 
L 193.93413 -58.507818 
L 197.213468 -58.393488 
L 200.492807 -58.743266 
L 203.772146 -58.047759 
L 207.051485 -58.067048 
L 210.330824 -57.937251 
L 213.610163 -57.805174 
L 216.889502 -57.521364 
L 220.16884 -57.395032 
L 223.448179 -57.481136 
L 226.727518 -57.660805 
L 230.006857 -57.411685 
L 233.286196 -57.107402 
L 236.565535 -57.248213 
L 239.844873 -56.790052 
L 243.124212 -56.711298 
L 246.403551 -56.517578 
L 249.68289 -56.609277 
L 252.962229 -56.4875 
L 256.241568 -56.492368 
L 259.520907 -56.376178 
L 262.800245 -56.271522 
L 266.079584 -56.24408 
L 269.358923 -56.36577 
L 272.638262 -56.285525 
L 275.917601 -56.16911 
L 279.19694 -56.152908 
L 282.476278 -55.950209 
L 285.755617 -56.017537 
L 289.034956 -55.785148 
L 292.314295 -70.735847 
L 295.593634 -70.585223 
L 298.872973 -69.828159 
L 302.152311 -70.465596 
L 305.43165 -70.845476 
L 308.710989 -70.803803 
L 311.990328 -70.225445 
L 315.269667 -69.864263 
L 318.549006 -70.617912 
L 321.828345 -70.59334 
L 325.107683 -69.873386 
L 328.387022 -70.871528 
L 331.666361 -70.508961 
L 334.9457 -70.35956 
L 338.225039 -70.410084 
L 341.504378 -70.075169 
L 344.783716 -71.022774 
L 348.063055 -71.026306 
L 351.342394 -70.470848 
L 354.621733 -70.001653 
L 357.901072 -70.139242 
L 361.180411 -69.889554 
L 364.459749 -69.510774 
L 367.739088 -69.909959 
L 371.018427 -69.438529 
L 374.297766 -70.723204 
L 377.577105 -70.307131 
L 380.856444 -69.625613 
L 384.135783 -69.981919 
L 387.415121 -70.23183 
L 390.69446 -71.091661 
L 390.69446 -98.195973 
L 390.69446 -98.195973 
L 387.415121 -96.622386 
L 384.135783 -96.914756 
L 380.856444 -96.048127 
L 377.577105 -96.66466 
L 374.297766 -95.467815 
L 371.018427 -95.946533 
L 367.739088 -95.613229 
L 364.459749 -96.224437 
L 361.180411 -96.935294 
L 357.901072 -96.39915 
L 354.621733 -97.083837 
L 351.342394 -98.522963 
L 348.063055 -98.115276 
L 344.783716 -98.216646 
L 341.504378 -97.373947 
L 338.225039 -97.083115 
L 334.9457 -97.73497 
L 331.666361 -98.265945 
L 328.387022 -96.278932 
L 325.107683 -97.259521 
L 321.828345 -97.203721 
L 318.549006 -96.346421 
L 315.269667 -97.549425 
L 311.990328 -96.829688 
L 308.710989 -97.639324 
L 305.43165 -98.590118 
L 302.152311 -96.685003 
L 298.872973 -98.644038 
L 295.593634 -97.711593 
L 292.314295 -97.532934 
L 289.034956 -59.754307 
L 285.755617 -60.252386 
L 282.476278 -60.183762 
L 279.19694 -60.107743 
L 275.917601 -60.63214 
L 272.638262 -60.990988 
L 269.358923 -61.718733 
L 266.079584 -61.474886 
L 262.800245 -61.861261 
L 259.520907 -61.575683 
L 256.241568 -61.174401 
L 252.962229 -60.993584 
L 249.68289 -61.146457 
L 246.403551 -63.826805 
L 243.124212 -63.25812 
L 239.844873 -63.287426 
L 236.565535 -63.272567 
L 233.286196 -63.355605 
L 230.006857 -64.763651 
L 226.727518 -64.815462 
L 223.448179 -65.17286 
L 220.16884 -65.685667 
L 216.889502 -64.992653 
L 213.610163 -65.898352 
L 210.330824 -65.25584 
L 207.051485 -65.383591 
L 203.772146 -66.492521 
L 200.492807 -67.298269 
L 197.213468 -67.136173 
L 193.93413 -67.181687 
L 190.654791 -66.849579 
L 187.375452 -68.144664 
L 184.096113 -70.11921 
L 180.816774 -69.476202 
L 177.537435 -69.952091 
L 174.258097 -69.813593 
L 170.978758 -71.559796 
L 167.699419 -72.485773 
L 164.42008 -74.086804 
L 161.140741 -74.359478 
L 157.861402 -75.227861 
L 154.582064 -73.078486 
L 151.302725 -75.889012 
L 148.023386 -76.908277 
L 144.744047 -77.538538 
L 141.464708 -78.367225 
L 138.185369 -78.975853 
L 134.90603 -83.081538 
L 131.626692 -93.279099 
L 128.347353 -95.930942 
L 125.068014 -102.035972 
L 121.788675 -105.443436 
L 118.509336 -109.404734 
L 115.229997 -118.429978 
L 111.950659 -120.572755 
L 108.67132 -128.811988 
L 105.391981 -136.168988 
L 102.112642 -139.866763 
L 98.833303 -170.702717 
L 95.553964 -176.154921 
L 92.274626 -178.552983 
L 88.995287 -178.358433 
L 85.715948 -172.684518 
L 82.436609 -189.086846 
L 79.15727 -205.978457 
L 75.877931 -202.343093 
L 72.598592 -214.230788 
L 69.319254 -209.808607 
L 66.039915 -221.058444 
z
" style="stroke: #c44e52; stroke-opacity: 0.2"/>
    </defs>
    <g clip-path="url(#p9fdb469024)">
     <use xlink:href="#m438dacfe19" x="0" y="316.271687" style="fill: #c44e52; fill-opacity: 0.2; stroke: #c44e52; stroke-opacity: 0.2"/>
    </g>
   </g>
   <g id="PolyCollection_5">
    <defs>
     <path id="m8ee5dfb376" d="M 66.039915 -240.030563 
L 66.039915 -215.694117 
L 69.319254 -198.975155 
L 72.598592 -190.383929 
L 75.877931 -178.79524 
L 79.15727 -175.623441 
L 82.436609 -167.999549 
L 85.715948 -157.40293 
L 88.995287 -147.634532 
L 92.274626 -141.362314 
L 95.553964 -137.992848 
L 98.833303 -130.929083 
L 102.112642 -125.258085 
L 105.391981 -119.38722 
L 108.67132 -117.234146 
L 111.950659 -114.066858 
L 115.229997 -111.338096 
L 118.509336 -109.396838 
L 121.788675 -105.545809 
L 125.068014 -103.267456 
L 128.347353 -100.297652 
L 131.626692 -98.570192 
L 134.90603 -98.763192 
L 138.185369 -96.318269 
L 141.464708 -94.472643 
L 144.744047 -93.039401 
L 148.023386 -91.902536 
L 151.302725 -90.389644 
L 154.582064 -88.848746 
L 157.861402 -88.514582 
L 161.140741 -87.491623 
L 164.42008 -84.874375 
L 167.699419 -82.969491 
L 170.978758 -82.960927 
L 174.258097 -81.377182 
L 177.537435 -81.008364 
L 180.816774 -78.965658 
L 184.096113 -78.573805 
L 187.375452 -77.823742 
L 190.654791 -77.013487 
L 193.93413 -77.021922 
L 197.213468 -76.850546 
L 200.492807 -75.401381 
L 203.772146 -75.046205 
L 207.051485 -75.10765 
L 210.330824 -74.752501 
L 213.610163 -73.453552 
L 216.889502 -73.488833 
L 220.16884 -72.064741 
L 223.448179 -70.876709 
L 226.727518 -71.218663 
L 230.006857 -70.336283 
L 233.286196 -68.938206 
L 236.565535 -69.307564 
L 239.844873 -69.021008 
L 243.124212 -68.552636 
L 246.403551 -67.920994 
L 249.68289 -67.852011 
L 252.962229 -67.65481 
L 256.241568 -67.414 
L 259.520907 -67.039678 
L 262.800245 -67.181268 
L 266.079584 -66.338186 
L 269.358923 -66.710118 
L 272.638262 -66.38224 
L 275.917601 -66.562597 
L 279.19694 -66.298177 
L 282.476278 -65.722885 
L 285.755617 -64.88877 
L 289.034956 -64.655046 
L 292.314295 -88.990686 
L 295.593634 -88.97334 
L 298.872973 -89.471514 
L 302.152311 -89.245795 
L 305.43165 -90.588733 
L 308.710989 -89.647518 
L 311.990328 -89.542692 
L 315.269667 -88.768603 
L 318.549006 -89.642604 
L 321.828345 -87.821793 
L 325.107683 -87.310137 
L 328.387022 -87.538423 
L 331.666361 -86.309619 
L 334.9457 -86.183015 
L 338.225039 -85.93509 
L 341.504378 -86.847296 
L 344.783716 -87.383807 
L 348.063055 -87.43378 
L 351.342394 -87.612308 
L 354.621733 -86.715363 
L 357.901072 -87.253208 
L 361.180411 -87.003945 
L 364.459749 -85.670445 
L 367.739088 -86.191285 
L 371.018427 -85.859002 
L 374.297766 -85.804138 
L 377.577105 -85.71415 
L 380.856444 -87.266993 
L 384.135783 -86.073901 
L 387.415121 -85.70288 
L 390.69446 -86.768312 
L 390.69446 -121.435843 
L 390.69446 -121.435843 
L 387.415121 -119.250115 
L 384.135783 -120.228912 
L 380.856444 -121.017992 
L 377.577105 -120.719056 
L 374.297766 -119.7666 
L 371.018427 -120.4487 
L 367.739088 -120.415635 
L 364.459749 -120.239188 
L 361.180411 -120.011357 
L 357.901072 -119.043278 
L 354.621733 -119.458315 
L 351.342394 -120.627739 
L 348.063055 -120.366858 
L 344.783716 -120.512623 
L 341.504378 -120.093483 
L 338.225039 -120.171638 
L 334.9457 -122.17208 
L 331.666361 -121.593072 
L 328.387022 -119.346164 
L 325.107683 -122.482809 
L 321.828345 -121.642959 
L 318.549006 -121.723451 
L 315.269667 -122.467337 
L 311.990328 -122.137179 
L 308.710989 -123.270934 
L 305.43165 -121.064665 
L 302.152311 -123.321574 
L 298.872973 -121.95371 
L 295.593634 -122.484427 
L 292.314295 -122.887844 
L 289.034956 -90.39646 
L 285.755617 -90.414039 
L 282.476278 -90.55521 
L 279.19694 -92.151318 
L 275.917601 -91.281622 
L 272.638262 -93.222022 
L 269.358923 -93.598141 
L 266.079584 -92.834344 
L 262.800245 -93.67064 
L 259.520907 -92.939554 
L 256.241568 -94.302421 
L 252.962229 -97.153103 
L 249.68289 -94.948336 
L 246.403551 -95.545289 
L 243.124212 -95.021555 
L 239.844873 -95.67039 
L 236.565535 -96.310499 
L 233.286196 -94.475569 
L 230.006857 -97.983036 
L 226.727518 -98.415362 
L 223.448179 -98.38043 
L 220.16884 -99.60747 
L 216.889502 -101.909985 
L 213.610163 -101.898279 
L 210.330824 -103.689662 
L 207.051485 -103.410296 
L 203.772146 -103.689939 
L 200.492807 -102.782339 
L 197.213468 -104.037167 
L 193.93413 -105.277418 
L 190.654791 -104.071066 
L 187.375452 -107.054519 
L 184.096113 -109.767919 
L 180.816774 -108.905656 
L 177.537435 -110.179106 
L 174.258097 -111.730358 
L 170.978758 -112.55168 
L 167.699419 -113.402192 
L 164.42008 -114.693982 
L 161.140741 -116.139888 
L 157.861402 -119.806933 
L 154.582064 -120.490894 
L 151.302725 -120.114632 
L 148.023386 -123.943248 
L 144.744047 -124.854977 
L 141.464708 -128.056296 
L 138.185369 -127.60789 
L 134.90603 -131.481468 
L 131.626692 -132.449715 
L 128.347353 -133.936942 
L 125.068014 -136.493132 
L 121.788675 -137.578523 
L 118.509336 -141.296622 
L 115.229997 -144.066753 
L 111.950659 -146.356563 
L 108.67132 -151.159151 
L 105.391981 -154.931251 
L 102.112642 -161.136306 
L 98.833303 -165.090159 
L 95.553964 -174.396113 
L 92.274626 -175.210095 
L 88.995287 -185.169385 
L 85.715948 -192.87651 
L 82.436609 -202.320644 
L 79.15727 -209.464178 
L 75.877931 -214.466713 
L 72.598592 -220.827272 
L 69.319254 -226.986084 
L 66.039915 -240.030563 
z
" style="stroke: #8172b3; stroke-opacity: 0.2"/>
    </defs>
    <g clip-path="url(#p9fdb469024)">
     <use xlink:href="#m8ee5dfb376" x="0" y="316.271687" style="fill: #8172b3; fill-opacity: 0.2; stroke: #8172b3; stroke-opacity: 0.2"/>
    </g>
   </g>
   <g id="line2d_14">
    <path d="M 66.039915 104.158177 
L 69.319254 161.932622 
L 72.598592 163.922893 
L 75.877931 184.107266 
L 79.15727 211.62814 
L 82.436609 218.13741 
L 85.715948 238.079914 
L 88.995287 235.743858 
L 92.274626 243.074 
L 95.553964 250.630056 
L 98.833303 251.278833 
L 102.112642 252.582111 
L 105.391981 254.44929 
L 108.67132 251.378581 
L 111.950659 249.896117 
L 115.229997 249.806035 
L 118.509336 251.970167 
L 121.788675 253.671009 
L 125.068014 253.6327 
L 128.347353 255.073448 
L 131.626692 255.557952 
L 134.90603 257.105196 
L 138.185369 256.844676 
L 141.464708 256.809221 
L 144.744047 257.229973 
L 148.023386 256.638742 
L 151.302725 254.996894 
L 154.582064 255.038315 
L 157.861402 256.184109 
L 161.140741 254.433656 
L 164.42008 256.997136 
L 167.699419 257.392887 
L 170.978758 257.811523 
L 174.258097 257.946494 
L 177.537435 258.649477 
L 180.816774 258.090693 
L 184.096113 257.74627 
L 187.375452 258.848364 
L 190.654791 258.701411 
L 193.93413 259.3419 
L 197.213468 259.261525 
L 200.492807 259.238339 
L 203.772146 259.43225 
L 207.051485 259.130646 
L 210.330824 259.007644 
L 213.610163 258.601567 
L 216.889502 259.15432 
L 220.16884 258.748961 
L 223.448179 258.950665 
L 226.727518 259.812917 
L 230.006857 259.195011 
L 233.286196 259.557506 
L 236.565535 259.282941 
L 239.844873 259.776425 
L 243.124212 259.788502 
L 246.403551 260.088678 
L 249.68289 258.769602 
L 252.962229 259.07835 
L 256.241568 260.012569 
L 259.520907 259.777379 
L 262.800245 259.364625 
L 266.079584 260.195948 
L 269.358923 259.772911 
L 272.638262 260.05591 
L 275.917601 260.312836 
L 279.19694 259.949517 
L 282.476278 259.70762 
L 285.755617 259.804718 
L 289.034956 259.922796 
L 292.314295 258.63189 
L 295.593634 258.269352 
L 298.872973 257.935084 
L 302.152311 258.010239 
L 305.43165 257.567379 
L 308.710989 258.772921 
L 311.990328 258.521061 
L 315.269667 258.175488 
L 318.549006 258.187535 
L 321.828345 257.932926 
L 325.107683 258.0491 
L 328.387022 258.709519 
L 331.666361 257.780199 
L 334.9457 258.356096 
L 338.225039 258.765795 
L 341.504378 258.371076 
L 344.783716 258.576836 
L 348.063055 257.995598 
L 351.342394 257.909249 
L 354.621733 258.368238 
L 357.901072 257.073705 
L 361.180411 257.635154 
L 364.459749 258.421116 
L 367.739088 258.322734 
L 371.018427 257.855022 
L 374.297766 257.715503 
L 377.577105 257.549028 
L 380.856444 258.605809 
L 384.135783 257.567683 
L 387.415121 257.578149 
L 390.69446 257.774248 
" clip-path="url(#p9fdb469024)" style="fill: none; stroke: #4c72b0; stroke-width: 1.5; stroke-linecap: round"/>
   </g>
   <g id="line2d_15">
    <path d="M 66.039915 72.748166 
L 69.319254 126.120086 
L 72.598592 93.471937 
L 75.877931 126.666227 
L 79.15727 156.903448 
L 82.436609 157.081057 
L 85.715948 200.195643 
L 88.995287 194.469474 
L 92.274626 209.320764 
L 95.553964 222.17764 
L 98.833303 223.7966 
L 102.112642 228.472792 
L 105.391981 226.313234 
L 108.67132 227.977259 
L 111.950659 207.117234 
L 115.229997 208.082907 
L 118.509336 225.082274 
L 121.788675 219.267112 
L 125.068014 219.133067 
L 128.347353 221.966945 
L 131.626692 227.91052 
L 134.90603 237.788313 
L 138.185369 233.675252 
L 141.464708 232.562703 
L 144.744047 241.324259 
L 148.023386 225.097231 
L 151.302725 207.685463 
L 154.582064 209.352307 
L 157.861402 224.220516 
L 161.140741 204.398095 
L 164.42008 231.376558 
L 167.699419 234.118557 
L 170.978758 230.400903 
L 174.258097 243.865437 
L 177.537435 240.598373 
L 180.816774 232.971757 
L 184.096113 235.895144 
L 187.375452 244.057334 
L 190.654791 231.43966 
L 193.93413 243.125988 
L 197.213468 237.320565 
L 200.492807 244.248124 
L 203.772146 249.138269 
L 207.051485 243.6256 
L 210.330824 243.836668 
L 213.610163 218.396232 
L 216.889502 234.693548 
L 220.16884 228.197941 
L 223.448179 242.348105 
L 226.727518 248.345449 
L 230.006857 240.126754 
L 233.286196 250.938155 
L 236.565535 247.157189 
L 239.844873 248.578963 
L 243.124212 245.751249 
L 246.403551 251.922955 
L 249.68289 249.586544 
L 252.962229 226.655346 
L 256.241568 250.166299 
L 259.520907 234.394476 
L 262.800245 215.943624 
L 266.079584 250.906444 
L 269.358923 247.514312 
L 272.638262 249.757098 
L 275.917601 251.269622 
L 279.19694 244.586014 
L 282.476278 227.951243 
L 285.755617 234.466539 
L 289.034956 236.819556 
L 292.314295 248.986853 
L 295.593634 237.005611 
L 298.872973 241.217205 
L 302.152311 246.516825 
L 305.43165 237.283056 
L 308.710989 249.350817 
L 311.990328 248.882891 
L 315.269667 246.818987 
L 318.549006 252.629837 
L 321.828345 249.34867 
L 325.107683 251.951654 
L 328.387022 252.2646 
L 331.666361 241.506413 
L 334.9457 246.566174 
L 338.225039 247.711612 
L 341.504378 243.826364 
L 344.783716 246.841543 
L 348.063055 249.41244 
L 351.342394 247.99274 
L 354.621733 252.620701 
L 357.901072 243.757723 
L 361.180411 249.707808 
L 364.459749 252.244456 
L 367.739088 253.834361 
L 371.018427 252.433703 
L 374.297766 237.993931 
L 377.577105 243.627538 
L 380.856444 249.151316 
L 384.135783 254.290694 
L 387.415121 248.747248 
L 390.69446 252.373713 
" clip-path="url(#p9fdb469024)" style="fill: none; stroke: #dd8452; stroke-width: 1.5; stroke-linecap: round"/>
   </g>
   <g id="line2d_16">
    <path d="M 66.039915 81.603554 
L 69.319254 131.022523 
L 72.598592 141.37851 
L 75.877931 159.343051 
L 79.15727 174.434969 
L 82.436609 185.155494 
L 85.715948 191.31997 
L 88.995287 200.241647 
L 92.274626 212.879336 
L 95.553964 217.726433 
L 98.833303 223.798211 
L 102.112642 226.509766 
L 105.391981 233.540034 
L 108.67132 234.770396 
L 111.950659 235.516956 
L 115.229997 240.550161 
L 118.509336 241.117926 
L 121.788675 242.538352 
L 125.068014 242.018253 
L 128.347353 240.812941 
L 131.626692 240.889776 
L 134.90603 242.139063 
L 138.185369 244.699333 
L 141.464708 245.90537 
L 144.744047 246.985374 
L 148.023386 246.653294 
L 151.302725 246.679788 
L 154.582064 247.307484 
L 157.861402 247.756378 
L 161.140741 248.610701 
L 164.42008 249.349201 
L 167.699419 250.511206 
L 170.978758 250.751903 
L 174.258097 251.110507 
L 177.537435 251.126861 
L 180.816774 251.175427 
L 184.096113 250.104941 
L 187.375452 251.80907 
L 190.654791 253.075807 
L 193.93413 253.339621 
L 197.213468 253.417984 
L 200.492807 253.389302 
L 203.772146 253.629172 
L 207.051485 253.89718 
L 210.330824 254.99558 
L 213.610163 255.149904 
L 216.889502 255.369071 
L 220.16884 256.246189 
L 223.448179 256.566146 
L 226.727518 256.709219 
L 230.006857 256.764488 
L 233.286196 256.698611 
L 236.565535 256.370165 
L 239.844873 256.365158 
L 243.124212 256.517473 
L 246.403551 256.522003 
L 249.68289 257.031408 
L 252.962229 257.212881 
L 256.241568 257.125756 
L 259.520907 257.377916 
L 262.800245 257.55273 
L 266.079584 257.602527 
L 269.358923 256.762654 
L 272.638262 256.669529 
L 275.917601 256.995717 
L 279.19694 256.777186 
L 282.476278 256.477359 
L 285.755617 256.771376 
L 289.034956 256.725348 
L 292.314295 245.420905 
L 295.593634 245.654618 
L 298.872973 245.642825 
L 302.152311 245.679244 
L 305.43165 245.801049 
L 308.710989 245.787298 
L 311.990328 245.757857 
L 315.269667 246.237908 
L 318.549006 246.226018 
L 321.828345 246.209565 
L 325.107683 246.176255 
L 328.387022 246.2488 
L 331.666361 246.203146 
L 334.9457 246.087734 
L 338.225039 246.117921 
L 341.504378 246.036336 
L 344.783716 246.162505 
L 348.063055 246.225045 
L 351.342394 246.053562 
L 354.621733 246.143392 
L 357.901072 246.110398 
L 361.180411 246.19752 
L 364.459749 246.112281 
L 367.739088 246.13604 
L 371.018427 246.206201 
L 374.297766 246.101692 
L 377.577105 246.333695 
L 380.856444 246.226463 
L 384.135783 246.438403 
L 387.415121 246.42332 
L 390.69446 246.315125 
" clip-path="url(#p9fdb469024)" style="fill: none; stroke: #55a868; stroke-width: 1.5; stroke-linecap: round"/>
   </g>
   <g id="line2d_17">
    <path d="M 66.039915 108.95618 
L 69.319254 120.828927 
L 72.598592 112.243146 
L 75.877931 126.27099 
L 79.15727 117.907482 
L 82.436609 139.555741 
L 85.715948 160.618758 
L 88.995287 151.154957 
L 92.274626 149.080448 
L 95.553964 149.452516 
L 98.833303 155.022049 
L 102.112642 187.692818 
L 105.391981 192.044324 
L 108.67132 199.917789 
L 111.950659 208.394706 
L 115.229997 209.880497 
L 118.509336 217.150259 
L 121.788675 223.793607 
L 125.068014 226.729443 
L 128.347353 231.642456 
L 131.626692 233.574621 
L 134.90603 241.055829 
L 138.185369 243.334964 
L 141.464708 244.181645 
L 144.744047 244.889705 
L 148.023386 245.916925 
L 151.302725 246.894462 
L 154.582064 248.92592 
L 157.861402 246.724251 
L 161.140741 248.151376 
L 164.42008 248.821714 
L 167.699419 250.017588 
L 170.978758 251.07191 
L 174.258097 251.853256 
L 177.537435 252.376256 
L 180.816774 252.429799 
L 184.096113 252.473675 
L 187.375452 253.508866 
L 190.654791 254.153828 
L 193.93413 254.176217 
L 197.213468 254.306095 
L 200.492807 254.165674 
L 203.772146 254.677106 
L 207.051485 255.123064 
L 210.330824 255.107703 
L 213.610163 255.24914 
L 216.889502 255.501635 
L 220.16884 255.61704 
L 223.448179 255.712973 
L 226.727518 255.613865 
L 230.006857 255.892351 
L 233.286196 256.446657 
L 236.565535 256.51392 
L 239.844873 256.950781 
L 243.124212 256.947295 
L 246.403551 256.855932 
L 249.68289 257.756823 
L 252.962229 257.891106 
L 256.241568 257.829972 
L 259.520907 257.784929 
L 262.800245 257.838613 
L 266.079584 257.71899 
L 269.358923 257.646382 
L 272.638262 257.977209 
L 275.917601 258.350386 
L 279.19694 258.486612 
L 282.476278 258.539223 
L 285.755617 258.57737 
L 289.034956 258.723009 
L 292.314295 232.903517 
L 295.593634 232.984203 
L 298.872973 233.078204 
L 302.152311 233.27722 
L 305.43165 233.301088 
L 308.710989 233.380072 
L 311.990328 233.240917 
L 315.269667 233.124988 
L 318.549006 233.169351 
L 321.828345 233.152719 
L 325.107683 233.298603 
L 328.387022 233.325488 
L 331.666361 233.265459 
L 334.9457 233.306167 
L 338.225039 233.356834 
L 341.504378 233.368003 
L 344.783716 233.342192 
L 348.063055 233.326883 
L 351.342394 233.363725 
L 354.621733 233.586885 
L 357.901072 233.686578 
L 361.180411 233.863254 
L 364.459749 234.029418 
L 367.739088 234.194384 
L 371.018427 234.27042 
L 374.297766 233.943942 
L 377.577105 233.835894 
L 380.856444 233.934936 
L 384.135783 233.7723 
L 387.415121 233.654495 
L 390.69446 233.646866 
" clip-path="url(#p9fdb469024)" style="fill: none; stroke: #c44e52; stroke-width: 1.5; stroke-linecap: round"/>
   </g>
   <g id="line2d_18">
    <path d="M 66.039915 88.94888 
L 69.319254 103.185866 
L 72.598592 110.473121 
L 75.877931 118.605505 
L 79.15727 124.059273 
L 82.436609 131.450561 
L 85.715948 141.732606 
L 88.995287 151.640015 
L 92.274626 158.124029 
L 95.553964 160.557868 
L 98.833303 168.661622 
L 102.112642 173.174602 
L 105.391981 180.075676 
L 108.67132 182.744814 
L 111.950659 185.559883 
L 115.229997 188.361329 
L 118.509336 191.338785 
L 121.788675 195.108629 
L 125.068014 196.959316 
L 128.347353 199.38701 
L 131.626692 201.724606 
L 134.90603 202.205749 
L 138.185369 204.893921 
L 141.464708 206.139808 
L 144.744047 208.690859 
L 148.023386 210.047323 
L 151.302725 211.3058 
L 154.582064 212.762341 
L 157.861402 213.78877 
L 161.140741 215.070529 
L 164.42008 217.257684 
L 167.699419 218.773584 
L 170.978758 219.585351 
L 174.258097 221.167255 
L 177.537435 222.203318 
L 180.816774 223.201105 
L 184.096113 224.073907 
L 187.375452 225.354018 
L 190.654791 226.338971 
L 193.93413 226.803557 
L 197.213468 227.326628 
L 200.492807 227.985987 
L 203.772146 228.463572 
L 207.051485 228.505853 
L 210.330824 229.188746 
L 213.610163 229.81388 
L 216.889502 230.751138 
L 220.16884 232.236994 
L 223.448179 232.899432 
L 226.727518 233.465779 
L 230.006857 234.091137 
L 233.286196 235.206254 
L 236.565535 235.324648 
L 239.844873 235.623562 
L 243.124212 235.719346 
L 246.403551 235.989562 
L 249.68289 236.386981 
L 252.962229 236.388229 
L 256.241568 236.949898 
L 259.520907 237.198847 
L 262.800245 237.726141 
L 266.079584 238.0076 
L 269.358923 238.219088 
L 272.638262 238.310724 
L 275.917601 238.984544 
L 279.19694 239.368998 
L 282.476278 239.551105 
L 285.755617 240.115415 
L 289.034956 240.333426 
L 292.314295 210.85773 
L 295.593634 211.155256 
L 298.872973 211.182676 
L 302.152311 211.158673 
L 305.43165 211.297547 
L 308.710989 211.289313 
L 311.990328 211.32175 
L 315.269667 211.541457 
L 318.549006 211.718625 
L 321.828345 211.711595 
L 325.107683 211.937265 
L 328.387022 212.712064 
L 331.666361 212.295997 
L 334.9457 212.787374 
L 338.225039 213.162877 
L 341.504378 213.111092 
L 344.783716 213.004691 
L 348.063055 212.913386 
L 351.342394 213.046009 
L 354.621733 213.518335 
L 357.901072 213.300935 
L 361.180411 213.368602 
L 364.459749 213.366453 
L 367.739088 213.519966 
L 371.018427 213.639028 
L 374.297766 213.784188 
L 377.577105 213.816316 
L 380.856444 213.99644 
L 384.135783 214.146731 
L 387.415121 213.950481 
L 390.69446 214.082159 
" clip-path="url(#p9fdb469024)" style="fill: none; stroke: #8172b3; stroke-width: 1.5; stroke-linecap: round"/>
   </g>
   <g id="line2d_19"/>
   <g id="line2d_20"/>
   <g id="line2d_21"/>
   <g id="line2d_22"/>
   <g id="line2d_23"/>
   <g id="patch_3">
    <path d="M 49.807187 273.312 
L 49.807187 7.2 
" style="fill: none; stroke: #cccccc; stroke-width: 1.25; stroke-linejoin: miter; stroke-linecap: square"/>
   </g>
   <g id="patch_4">
    <path d="M 406.927188 273.312 
L 406.927188 7.2 
" style="fill: none; stroke: #cccccc; stroke-width: 1.25; stroke-linejoin: miter; stroke-linecap: square"/>
   </g>
   <g id="patch_5">
    <path d="M 49.807187 273.312 
L 406.927188 273.312 
" style="fill: none; stroke: #cccccc; stroke-width: 1.25; stroke-linejoin: miter; stroke-linecap: square"/>
   </g>
   <g id="patch_6">
    <path d="M 49.807187 7.2 
L 406.927188 7.2 
" style="fill: none; stroke: #cccccc; stroke-width: 1.25; stroke-linejoin: miter; stroke-linecap: square"/>
   </g>
   <g id="legend_1">
    <g id="patch_7">
     <path d="M 295.242813 113.843437 
L 399.227188 113.843437 
Q 401.427188 113.843437 401.427188 111.643437 
L 401.427188 14.9 
Q 401.427188 12.7 399.227188 12.7 
L 295.242813 12.7 
Q 293.042813 12.7 293.042813 14.9 
L 293.042813 111.643437 
Q 293.042813 113.843437 295.242813 113.843437 
z
" style="fill: #ffffff; opacity: 0.8; stroke: #cccccc; stroke-linejoin: miter"/>
    </g>
    <g id="text_16">
     <!-- Strategy -->
     <g style="fill: #262626" transform="translate(321.525937 26.218125) scale(0.12 -0.12)">
      <defs>
       <path id="DejaVuSans-53" d="M 3425 4513 
L 3425 3897 
Q 3066 4069 2747 4153 
Q 2428 4238 2131 4238 
Q 1616 4238 1336 4038 
Q 1056 3838 1056 3469 
Q 1056 3159 1242 3001 
Q 1428 2844 1947 2747 
L 2328 2669 
Q 3034 2534 3370 2195 
Q 3706 1856 3706 1288 
Q 3706 609 3251 259 
Q 2797 -91 1919 -91 
Q 1588 -91 1214 -16 
Q 841 59 441 206 
L 441 856 
Q 825 641 1194 531 
Q 1563 422 1919 422 
Q 2459 422 2753 634 
Q 3047 847 3047 1241 
Q 3047 1584 2836 1778 
Q 2625 1972 2144 2069 
L 1759 2144 
Q 1053 2284 737 2584 
Q 422 2884 422 3419 
Q 422 4038 858 4394 
Q 1294 4750 2059 4750 
Q 2388 4750 2728 4690 
Q 3069 4631 3425 4513 
z
" transform="scale(0.015625)"/>
       <path id="DejaVuSans-74" d="M 1172 4494 
L 1172 3500 
L 2356 3500 
L 2356 3053 
L 1172 3053 
L 1172 1153 
Q 1172 725 1289 603 
Q 1406 481 1766 481 
L 2356 481 
L 2356 0 
L 1766 0 
Q 1100 0 847 248 
Q 594 497 594 1153 
L 594 3053 
L 172 3053 
L 172 3500 
L 594 3500 
L 594 4494 
L 1172 4494 
z
" transform="scale(0.015625)"/>
       <path id="DejaVuSans-72" d="M 2631 2963 
Q 2534 3019 2420 3045 
Q 2306 3072 2169 3072 
Q 1681 3072 1420 2755 
Q 1159 2438 1159 1844 
L 1159 0 
L 581 0 
L 581 3500 
L 1159 3500 
L 1159 2956 
Q 1341 3275 1631 3429 
Q 1922 3584 2338 3584 
Q 2397 3584 2469 3576 
Q 2541 3569 2628 3553 
L 2631 2963 
z
" transform="scale(0.015625)"/>
       <path id="DejaVuSans-61" d="M 2194 1759 
Q 1497 1759 1228 1600 
Q 959 1441 959 1056 
Q 959 750 1161 570 
Q 1363 391 1709 391 
Q 2188 391 2477 730 
Q 2766 1069 2766 1631 
L 2766 1759 
L 2194 1759 
z
M 3341 1997 
L 3341 0 
L 2766 0 
L 2766 531 
Q 2569 213 2275 61 
Q 1981 -91 1556 -91 
Q 1019 -91 701 211 
Q 384 513 384 1019 
Q 384 1609 779 1909 
Q 1175 2209 1959 2209 
L 2766 2209 
L 2766 2266 
Q 2766 2663 2505 2880 
Q 2244 3097 1772 3097 
Q 1472 3097 1187 3025 
Q 903 2953 641 2809 
L 641 3341 
Q 956 3463 1253 3523 
Q 1550 3584 1831 3584 
Q 2591 3584 2966 3190 
Q 3341 2797 3341 1997 
z
" transform="scale(0.015625)"/>
       <path id="DejaVuSans-65" d="M 3597 1894 
L 3597 1613 
L 953 1613 
Q 991 1019 1311 708 
Q 1631 397 2203 397 
Q 2534 397 2845 478 
Q 3156 559 3463 722 
L 3463 178 
Q 3153 47 2828 -22 
Q 2503 -91 2169 -91 
Q 1331 -91 842 396 
Q 353 884 353 1716 
Q 353 2575 817 3079 
Q 1281 3584 2069 3584 
Q 2775 3584 3186 3129 
Q 3597 2675 3597 1894 
z
M 3022 2063 
Q 3016 2534 2758 2815 
Q 2500 3097 2075 3097 
Q 1594 3097 1305 2825 
Q 1016 2553 972 2059 
L 3022 2063 
z
" transform="scale(0.015625)"/>
       <path id="DejaVuSans-67" d="M 2906 1791 
Q 2906 2416 2648 2759 
Q 2391 3103 1925 3103 
Q 1463 3103 1205 2759 
Q 947 2416 947 1791 
Q 947 1169 1205 825 
Q 1463 481 1925 481 
Q 2391 481 2648 825 
Q 2906 1169 2906 1791 
z
M 3481 434 
Q 3481 -459 3084 -895 
Q 2688 -1331 1869 -1331 
Q 1566 -1331 1297 -1286 
Q 1028 -1241 775 -1147 
L 775 -588 
Q 1028 -725 1275 -790 
Q 1522 -856 1778 -856 
Q 2344 -856 2625 -561 
Q 2906 -266 2906 331 
L 2906 616 
Q 2728 306 2450 153 
Q 2172 0 1784 0 
Q 1141 0 747 490 
Q 353 981 353 1791 
Q 353 2603 747 3093 
Q 1141 3584 1784 3584 
Q 2172 3584 2450 3431 
Q 2728 3278 2906 2969 
L 2906 3500 
L 3481 3500 
L 3481 434 
z
" transform="scale(0.015625)"/>
       <path id="DejaVuSans-79" d="M 2059 -325 
Q 1816 -950 1584 -1140 
Q 1353 -1331 966 -1331 
L 506 -1331 
L 506 -850 
L 844 -850 
Q 1081 -850 1212 -737 
Q 1344 -625 1503 -206 
L 1606 56 
L 191 3500 
L 800 3500 
L 1894 763 
L 2988 3500 
L 3597 3500 
L 2059 -325 
z
" transform="scale(0.015625)"/>
      </defs>
      <use xlink:href="#DejaVuSans-53"/>
      <use xlink:href="#DejaVuSans-74" x="63.476562"/>
      <use xlink:href="#DejaVuSans-72" x="102.685547"/>
      <use xlink:href="#DejaVuSans-61" x="143.798828"/>
      <use xlink:href="#DejaVuSans-74" x="205.078125"/>
      <use xlink:href="#DejaVuSans-65" x="244.287109"/>
      <use xlink:href="#DejaVuSans-67" x="305.810547"/>
      <use xlink:href="#DejaVuSans-79" x="369.287109"/>
     </g>
    </g>
    <g id="line2d_24">
     <path d="M 297.442813 38.722031 
L 308.442813 38.722031 
L 319.442813 38.722031 
" style="fill: none; stroke: #4c72b0; stroke-width: 1.5; stroke-linecap: round"/>
    </g>
    <g id="text_17">
     <!-- FedPredict -->
     <g style="fill: #262626" transform="translate(328.242813 42.572031) scale(0.11 -0.11)">
      <defs>
       <path id="DejaVuSans-46" d="M 628 4666 
L 3309 4666 
L 3309 4134 
L 1259 4134 
L 1259 2759 
L 3109 2759 
L 3109 2228 
L 1259 2228 
L 1259 0 
L 628 0 
L 628 4666 
z
" transform="scale(0.015625)"/>
       <path id="DejaVuSans-50" d="M 1259 4147 
L 1259 2394 
L 2053 2394 
Q 2494 2394 2734 2622 
Q 2975 2850 2975 3272 
Q 2975 3691 2734 3919 
Q 2494 4147 2053 4147 
L 1259 4147 
z
M 628 4666 
L 2053 4666 
Q 2838 4666 3239 4311 
Q 3641 3956 3641 3272 
Q 3641 2581 3239 2228 
Q 2838 1875 2053 1875 
L 1259 1875 
L 1259 0 
L 628 0 
L 628 4666 
z
" transform="scale(0.015625)"/>
       <path id="DejaVuSans-69" d="M 603 3500 
L 1178 3500 
L 1178 0 
L 603 0 
L 603 3500 
z
M 603 4863 
L 1178 4863 
L 1178 4134 
L 603 4134 
L 603 4863 
z
" transform="scale(0.015625)"/>
       <path id="DejaVuSans-63" d="M 3122 3366 
L 3122 2828 
Q 2878 2963 2633 3030 
Q 2388 3097 2138 3097 
Q 1578 3097 1268 2742 
Q 959 2388 959 1747 
Q 959 1106 1268 751 
Q 1578 397 2138 397 
Q 2388 397 2633 464 
Q 2878 531 3122 666 
L 3122 134 
Q 2881 22 2623 -34 
Q 2366 -91 2075 -91 
Q 1284 -91 818 406 
Q 353 903 353 1747 
Q 353 2603 823 3093 
Q 1294 3584 2113 3584 
Q 2378 3584 2631 3529 
Q 2884 3475 3122 3366 
z
" transform="scale(0.015625)"/>
      </defs>
      <use xlink:href="#DejaVuSans-46"/>
      <use xlink:href="#DejaVuSans-65" x="52.019531"/>
      <use xlink:href="#DejaVuSans-64" x="113.542969"/>
      <use xlink:href="#DejaVuSans-50" x="177.019531"/>
      <use xlink:href="#DejaVuSans-72" x="235.572266"/>
      <use xlink:href="#DejaVuSans-65" x="274.435547"/>
      <use xlink:href="#DejaVuSans-64" x="335.958984"/>
      <use xlink:href="#DejaVuSans-69" x="399.435547"/>
      <use xlink:href="#DejaVuSans-63" x="427.21875"/>
      <use xlink:href="#DejaVuSans-74" x="482.199219"/>
     </g>
    </g>
    <g id="line2d_25">
     <path d="M 297.442813 54.867969 
L 308.442813 54.867969 
L 319.442813 54.867969 
" style="fill: none; stroke: #dd8452; stroke-width: 1.5; stroke-linecap: round"/>
    </g>
    <g id="text_18">
     <!-- FedAVG -->
     <g style="fill: #262626" transform="translate(328.242813 58.717969) scale(0.11 -0.11)">
      <defs>
       <path id="DejaVuSans-41" d="M 2188 4044 
L 1331 1722 
L 3047 1722 
L 2188 4044 
z
M 1831 4666 
L 2547 4666 
L 4325 0 
L 3669 0 
L 3244 1197 
L 1141 1197 
L 716 0 
L 50 0 
L 1831 4666 
z
" transform="scale(0.015625)"/>
       <path id="DejaVuSans-56" d="M 1831 0 
L 50 4666 
L 709 4666 
L 2188 738 
L 3669 4666 
L 4325 4666 
L 2547 0 
L 1831 0 
z
" transform="scale(0.015625)"/>
       <path id="DejaVuSans-47" d="M 3809 666 
L 3809 1919 
L 2778 1919 
L 2778 2438 
L 4434 2438 
L 4434 434 
Q 4069 175 3628 42 
Q 3188 -91 2688 -91 
Q 1594 -91 976 548 
Q 359 1188 359 2328 
Q 359 3472 976 4111 
Q 1594 4750 2688 4750 
Q 3144 4750 3555 4637 
Q 3966 4525 4313 4306 
L 4313 3634 
Q 3963 3931 3569 4081 
Q 3175 4231 2741 4231 
Q 1884 4231 1454 3753 
Q 1025 3275 1025 2328 
Q 1025 1384 1454 906 
Q 1884 428 2741 428 
Q 3075 428 3337 486 
Q 3600 544 3809 666 
z
" transform="scale(0.015625)"/>
      </defs>
      <use xlink:href="#DejaVuSans-46"/>
      <use xlink:href="#DejaVuSans-65" x="52.019531"/>
      <use xlink:href="#DejaVuSans-64" x="113.542969"/>
      <use xlink:href="#DejaVuSans-41" x="177.019531"/>
      <use xlink:href="#DejaVuSans-56" x="239.052734"/>
      <use xlink:href="#DejaVuSans-47" x="307.460938"/>
     </g>
    </g>
    <g id="line2d_26">
     <path d="M 297.442813 71.013906 
L 308.442813 71.013906 
L 319.442813 71.013906 
" style="fill: none; stroke: #55a868; stroke-width: 1.5; stroke-linecap: round"/>
    </g>
    <g id="text_19">
     <!-- FedClassAvg -->
     <g style="fill: #262626" transform="translate(328.242813 74.863906) scale(0.11 -0.11)">
      <defs>
       <path id="DejaVuSans-43" d="M 4122 4306 
L 4122 3641 
Q 3803 3938 3442 4084 
Q 3081 4231 2675 4231 
Q 1875 4231 1450 3742 
Q 1025 3253 1025 2328 
Q 1025 1406 1450 917 
Q 1875 428 2675 428 
Q 3081 428 3442 575 
Q 3803 722 4122 1019 
L 4122 359 
Q 3791 134 3420 21 
Q 3050 -91 2638 -91 
Q 1578 -91 968 557 
Q 359 1206 359 2328 
Q 359 3453 968 4101 
Q 1578 4750 2638 4750 
Q 3056 4750 3426 4639 
Q 3797 4528 4122 4306 
z
" transform="scale(0.015625)"/>
       <path id="DejaVuSans-6c" d="M 603 4863 
L 1178 4863 
L 1178 0 
L 603 0 
L 603 4863 
z
" transform="scale(0.015625)"/>
       <path id="DejaVuSans-76" d="M 191 3500 
L 800 3500 
L 1894 563 
L 2988 3500 
L 3597 3500 
L 2284 0 
L 1503 0 
L 191 3500 
z
" transform="scale(0.015625)"/>
      </defs>
      <use xlink:href="#DejaVuSans-46"/>
      <use xlink:href="#DejaVuSans-65" x="52.019531"/>
      <use xlink:href="#DejaVuSans-64" x="113.542969"/>
      <use xlink:href="#DejaVuSans-43" x="177.019531"/>
      <use xlink:href="#DejaVuSans-6c" x="246.84375"/>
      <use xlink:href="#DejaVuSans-61" x="274.626953"/>
      <use xlink:href="#DejaVuSans-73" x="335.90625"/>
      <use xlink:href="#DejaVuSans-73" x="388.005859"/>
      <use xlink:href="#DejaVuSans-41" x="440.105469"/>
      <use xlink:href="#DejaVuSans-76" x="502.638672"/>
      <use xlink:href="#DejaVuSans-67" x="561.818359"/>
     </g>
    </g>
    <g id="line2d_27">
     <path d="M 297.442813 87.159844 
L 308.442813 87.159844 
L 319.442813 87.159844 
" style="fill: none; stroke: #c44e52; stroke-width: 1.5; stroke-linecap: round"/>
    </g>
    <g id="text_20">
     <!-- FedPer -->
     <g style="fill: #262626" transform="translate(328.242813 91.009844) scale(0.11 -0.11)">
      <use xlink:href="#DejaVuSans-46"/>
      <use xlink:href="#DejaVuSans-65" x="52.019531"/>
      <use xlink:href="#DejaVuSans-64" x="113.542969"/>
      <use xlink:href="#DejaVuSans-50" x="177.019531"/>
      <use xlink:href="#DejaVuSans-65" x="233.697266"/>
      <use xlink:href="#DejaVuSans-72" x="295.220703"/>
     </g>
    </g>
    <g id="line2d_28">
     <path d="M 297.442813 103.305781 
L 308.442813 103.305781 
L 319.442813 103.305781 
" style="fill: none; stroke: #8172b3; stroke-width: 1.5; stroke-linecap: round"/>
    </g>
    <g id="text_21">
     <!-- FedProto -->
     <g style="fill: #262626" transform="translate(328.242813 107.155781) scale(0.11 -0.11)">
      <use xlink:href="#DejaVuSans-46"/>
      <use xlink:href="#DejaVuSans-65" x="52.019531"/>
      <use xlink:href="#DejaVuSans-64" x="113.542969"/>
      <use xlink:href="#DejaVuSans-50" x="177.019531"/>
      <use xlink:href="#DejaVuSans-72" x="235.572266"/>
      <use xlink:href="#DejaVuSans-6f" x="274.435547"/>
      <use xlink:href="#DejaVuSans-74" x="335.617188"/>
      <use xlink:href="#DejaVuSans-6f" x="374.826172"/>
     </g>
    </g>
   </g>
  </g>
 </g>
 <defs>
  <clipPath id="p9fdb469024">
   <rect x="49.807187" y="7.2" width="357.12" height="266.112"/>
  </clipPath>
 </defs>
</svg>
