<?xml version="1.0" encoding="utf-8" standalone="no"?>
<!DOCTYPE svg PUBLIC "-//W3C//DTD SVG 1.1//EN"
  "http://www.w3.org/Graphics/SVG/1.1/DTD/svg11.dtd">
<svg xmlns:xlink="http://www.w3.org/1999/xlink" width="417.63pt" height="316.271687pt" viewBox="0 0 417.63 316.271687" xmlns="http://www.w3.org/2000/svg" version="1.1">
 <metadata>
  <rdf:RDF xmlns:dc="http://purl.org/dc/elements/1.1/" xmlns:cc="http://creativecommons.org/ns#" xmlns:rdf="http://www.w3.org/1999/02/22-rdf-syntax-ns#">
   <cc:Work>
    <dc:type rdf:resource="http://purl.org/dc/dcmitype/StillImage"/>
    <dc:date>2023-02-06T20:14:51.170620</dc:date>
    <dc:format>image/svg+xml</dc:format>
    <dc:creator>
     <cc:Agent>
      <dc:title>Matplotlib v3.6.3, https://matplotlib.org/</dc:title>
     </cc:Agent>
    </dc:creator>
   </cc:Work>
  </rdf:RDF>
 </metadata>
 <defs>
  <style type="text/css">*{stroke-linejoin: round; stroke-linecap: butt}</style>
 </defs>
 <g id="figure_1">
  <g id="patch_1">
   <path d="M 0 316.271687 
L 417.63 316.271687 
L 417.63 0 
L 0 0 
z
" style="fill: #ffffff"/>
  </g>
  <g id="axes_1">
   <g id="patch_2">
    <path d="M 53.31 273.312 
L 410.43 273.312 
L 410.43 7.2 
L 53.31 7.2 
z
" style="fill: #ffffff"/>
   </g>
   <g id="matplotlib.axis_1">
    <g id="xtick_1">
     <g id="line2d_1">
      <path d="M 66.263388 273.312 
L 66.263388 7.2 
" clip-path="url(#pa8a1d81848)" style="fill: none; stroke: #cccccc; stroke-linecap: round"/>
     </g>
     <g id="text_1">
      <!-- 0 -->
      <g style="fill: #262626" transform="translate(62.764013 291.170281) scale(0.11 -0.11)">
       <defs>
        <path id="DejaVuSans-30" d="M 2034 4250 
Q 1547 4250 1301 3770 
Q 1056 3291 1056 2328 
Q 1056 1369 1301 889 
Q 1547 409 2034 409 
Q 2525 409 2770 889 
Q 3016 1369 3016 2328 
Q 3016 3291 2770 3770 
Q 2525 4250 2034 4250 
z
M 2034 4750 
Q 2819 4750 3233 4129 
Q 3647 3509 3647 2328 
Q 3647 1150 3233 529 
Q 2819 -91 2034 -91 
Q 1250 -91 836 529 
Q 422 1150 422 2328 
Q 422 3509 836 4129 
Q 1250 4750 2034 4750 
z
" transform="scale(0.015625)"/>
       </defs>
       <use xlink:href="#DejaVuSans-30"/>
      </g>
     </g>
    </g>
    <g id="xtick_2">
     <g id="line2d_2">
      <path d="M 131.850165 273.312 
L 131.850165 7.2 
" clip-path="url(#pa8a1d81848)" style="fill: none; stroke: #cccccc; stroke-linecap: round"/>
     </g>
     <g id="text_2">
      <!-- 20 -->
      <g style="fill: #262626" transform="translate(124.851415 291.170281) scale(0.11 -0.11)">
       <defs>
        <path id="DejaVuSans-32" d="M 1228 531 
L 3431 531 
L 3431 0 
L 469 0 
L 469 531 
Q 828 903 1448 1529 
Q 2069 2156 2228 2338 
Q 2531 2678 2651 2914 
Q 2772 3150 2772 3378 
Q 2772 3750 2511 3984 
Q 2250 4219 1831 4219 
Q 1534 4219 1204 4116 
Q 875 4013 500 3803 
L 500 4441 
Q 881 4594 1212 4672 
Q 1544 4750 1819 4750 
Q 2544 4750 2975 4387 
Q 3406 4025 3406 3419 
Q 3406 3131 3298 2873 
Q 3191 2616 2906 2266 
Q 2828 2175 2409 1742 
Q 1991 1309 1228 531 
z
" transform="scale(0.015625)"/>
       </defs>
       <use xlink:href="#DejaVuSans-32"/>
       <use xlink:href="#DejaVuSans-30" x="63.623047"/>
      </g>
     </g>
    </g>
    <g id="xtick_3">
     <g id="line2d_3">
      <path d="M 197.436942 273.312 
L 197.436942 7.2 
" clip-path="url(#pa8a1d81848)" style="fill: none; stroke: #cccccc; stroke-linecap: round"/>
     </g>
     <g id="text_3">
      <!-- 40 -->
      <g style="fill: #262626" transform="translate(190.438192 291.170281) scale(0.11 -0.11)">
       <defs>
        <path id="DejaVuSans-34" d="M 2419 4116 
L 825 1625 
L 2419 1625 
L 2419 4116 
z
M 2253 4666 
L 3047 4666 
L 3047 1625 
L 3713 1625 
L 3713 1100 
L 3047 1100 
L 3047 0 
L 2419 0 
L 2419 1100 
L 313 1100 
L 313 1709 
L 2253 4666 
z
" transform="scale(0.015625)"/>
       </defs>
       <use xlink:href="#DejaVuSans-34"/>
       <use xlink:href="#DejaVuSans-30" x="63.623047"/>
      </g>
     </g>
    </g>
    <g id="xtick_4">
     <g id="line2d_4">
      <path d="M 263.023719 273.312 
L 263.023719 7.2 
" clip-path="url(#pa8a1d81848)" style="fill: none; stroke: #cccccc; stroke-linecap: round"/>
     </g>
     <g id="text_4">
      <!-- 60 -->
      <g style="fill: #262626" transform="translate(256.024969 291.170281) scale(0.11 -0.11)">
       <defs>
        <path id="DejaVuSans-36" d="M 2113 2584 
Q 1688 2584 1439 2293 
Q 1191 2003 1191 1497 
Q 1191 994 1439 701 
Q 1688 409 2113 409 
Q 2538 409 2786 701 
Q 3034 994 3034 1497 
Q 3034 2003 2786 2293 
Q 2538 2584 2113 2584 
z
M 3366 4563 
L 3366 3988 
Q 3128 4100 2886 4159 
Q 2644 4219 2406 4219 
Q 1781 4219 1451 3797 
Q 1122 3375 1075 2522 
Q 1259 2794 1537 2939 
Q 1816 3084 2150 3084 
Q 2853 3084 3261 2657 
Q 3669 2231 3669 1497 
Q 3669 778 3244 343 
Q 2819 -91 2113 -91 
Q 1303 -91 875 529 
Q 447 1150 447 2328 
Q 447 3434 972 4092 
Q 1497 4750 2381 4750 
Q 2619 4750 2861 4703 
Q 3103 4656 3366 4563 
z
" transform="scale(0.015625)"/>
       </defs>
       <use xlink:href="#DejaVuSans-36"/>
       <use xlink:href="#DejaVuSans-30" x="63.623047"/>
      </g>
     </g>
    </g>
    <g id="xtick_5">
     <g id="line2d_5">
      <path d="M 328.610496 273.312 
L 328.610496 7.2 
" clip-path="url(#pa8a1d81848)" style="fill: none; stroke: #cccccc; stroke-linecap: round"/>
     </g>
     <g id="text_5">
      <!-- 80 -->
      <g style="fill: #262626" transform="translate(321.611746 291.170281) scale(0.11 -0.11)">
       <defs>
        <path id="DejaVuSans-38" d="M 2034 2216 
Q 1584 2216 1326 1975 
Q 1069 1734 1069 1313 
Q 1069 891 1326 650 
Q 1584 409 2034 409 
Q 2484 409 2743 651 
Q 3003 894 3003 1313 
Q 3003 1734 2745 1975 
Q 2488 2216 2034 2216 
z
M 1403 2484 
Q 997 2584 770 2862 
Q 544 3141 544 3541 
Q 544 4100 942 4425 
Q 1341 4750 2034 4750 
Q 2731 4750 3128 4425 
Q 3525 4100 3525 3541 
Q 3525 3141 3298 2862 
Q 3072 2584 2669 2484 
Q 3125 2378 3379 2068 
Q 3634 1759 3634 1313 
Q 3634 634 3220 271 
Q 2806 -91 2034 -91 
Q 1263 -91 848 271 
Q 434 634 434 1313 
Q 434 1759 690 2068 
Q 947 2378 1403 2484 
z
M 1172 3481 
Q 1172 3119 1398 2916 
Q 1625 2713 2034 2713 
Q 2441 2713 2670 2916 
Q 2900 3119 2900 3481 
Q 2900 3844 2670 4047 
Q 2441 4250 2034 4250 
Q 1625 4250 1398 4047 
Q 1172 3844 1172 3481 
z
" transform="scale(0.015625)"/>
       </defs>
       <use xlink:href="#DejaVuSans-38"/>
       <use xlink:href="#DejaVuSans-30" x="63.623047"/>
      </g>
     </g>
    </g>
    <g id="xtick_6">
     <g id="line2d_6">
      <path d="M 394.197273 273.312 
L 394.197273 7.2 
" clip-path="url(#pa8a1d81848)" style="fill: none; stroke: #cccccc; stroke-linecap: round"/>
     </g>
     <g id="text_6">
      <!-- 100 -->
      <g style="fill: #262626" transform="translate(383.699148 291.170281) scale(0.11 -0.11)">
       <defs>
        <path id="DejaVuSans-31" d="M 794 531 
L 1825 531 
L 1825 4091 
L 703 3866 
L 703 4441 
L 1819 4666 
L 2450 4666 
L 2450 531 
L 3481 531 
L 3481 0 
L 794 0 
L 794 531 
z
" transform="scale(0.015625)"/>
       </defs>
       <use xlink:href="#DejaVuSans-31"/>
       <use xlink:href="#DejaVuSans-30" x="63.623047"/>
       <use xlink:href="#DejaVuSans-30" x="127.246094"/>
      </g>
     </g>
    </g>
    <g id="text_7">
     <!-- Round -->
     <g style="fill: #262626" transform="translate(212.885625 306.576062) scale(0.12 -0.12)">
      <defs>
       <path id="DejaVuSans-52" d="M 2841 2188 
Q 3044 2119 3236 1894 
Q 3428 1669 3622 1275 
L 4263 0 
L 3584 0 
L 2988 1197 
Q 2756 1666 2539 1819 
Q 2322 1972 1947 1972 
L 1259 1972 
L 1259 0 
L 628 0 
L 628 4666 
L 2053 4666 
Q 2853 4666 3247 4331 
Q 3641 3997 3641 3322 
Q 3641 2881 3436 2590 
Q 3231 2300 2841 2188 
z
M 1259 4147 
L 1259 2491 
L 2053 2491 
Q 2509 2491 2742 2702 
Q 2975 2913 2975 3322 
Q 2975 3731 2742 3939 
Q 2509 4147 2053 4147 
L 1259 4147 
z
" transform="scale(0.015625)"/>
       <path id="DejaVuSans-6f" d="M 1959 3097 
Q 1497 3097 1228 2736 
Q 959 2375 959 1747 
Q 959 1119 1226 758 
Q 1494 397 1959 397 
Q 2419 397 2687 759 
Q 2956 1122 2956 1747 
Q 2956 2369 2687 2733 
Q 2419 3097 1959 3097 
z
M 1959 3584 
Q 2709 3584 3137 3096 
Q 3566 2609 3566 1747 
Q 3566 888 3137 398 
Q 2709 -91 1959 -91 
Q 1206 -91 779 398 
Q 353 888 353 1747 
Q 353 2609 779 3096 
Q 1206 3584 1959 3584 
z
" transform="scale(0.015625)"/>
       <path id="DejaVuSans-75" d="M 544 1381 
L 544 3500 
L 1119 3500 
L 1119 1403 
Q 1119 906 1312 657 
Q 1506 409 1894 409 
Q 2359 409 2629 706 
Q 2900 1003 2900 1516 
L 2900 3500 
L 3475 3500 
L 3475 0 
L 2900 0 
L 2900 538 
Q 2691 219 2414 64 
Q 2138 -91 1772 -91 
Q 1169 -91 856 284 
Q 544 659 544 1381 
z
M 1991 3584 
L 1991 3584 
z
" transform="scale(0.015625)"/>
       <path id="DejaVuSans-6e" d="M 3513 2113 
L 3513 0 
L 2938 0 
L 2938 2094 
Q 2938 2591 2744 2837 
Q 2550 3084 2163 3084 
Q 1697 3084 1428 2787 
Q 1159 2491 1159 1978 
L 1159 0 
L 581 0 
L 581 3500 
L 1159 3500 
L 1159 2956 
Q 1366 3272 1645 3428 
Q 1925 3584 2291 3584 
Q 2894 3584 3203 3211 
Q 3513 2838 3513 2113 
z
" transform="scale(0.015625)"/>
       <path id="DejaVuSans-64" d="M 2906 2969 
L 2906 4863 
L 3481 4863 
L 3481 0 
L 2906 0 
L 2906 525 
Q 2725 213 2448 61 
Q 2172 -91 1784 -91 
Q 1150 -91 751 415 
Q 353 922 353 1747 
Q 353 2572 751 3078 
Q 1150 3584 1784 3584 
Q 2172 3584 2448 3432 
Q 2725 3281 2906 2969 
z
M 947 1747 
Q 947 1113 1208 752 
Q 1469 391 1925 391 
Q 2381 391 2643 752 
Q 2906 1113 2906 1747 
Q 2906 2381 2643 2742 
Q 2381 3103 1925 3103 
Q 1469 3103 1208 2742 
Q 947 2381 947 1747 
z
" transform="scale(0.015625)"/>
      </defs>
      <use xlink:href="#DejaVuSans-52"/>
      <use xlink:href="#DejaVuSans-6f" x="64.982422"/>
      <use xlink:href="#DejaVuSans-75" x="126.164062"/>
      <use xlink:href="#DejaVuSans-6e" x="189.542969"/>
      <use xlink:href="#DejaVuSans-64" x="252.921875"/>
     </g>
    </g>
   </g>
   <g id="matplotlib.axis_2">
    <g id="ytick_1">
     <g id="line2d_7">
      <path d="M 53.31 241.567732 
L 410.43 241.567732 
" clip-path="url(#pa8a1d81848)" style="fill: none; stroke: #cccccc; stroke-linecap: round"/>
     </g>
     <g id="text_8">
      <!-- 20 -->
      <g style="fill: #262626" transform="translate(29.8125 245.746873) scale(0.11 -0.11)">
       <use xlink:href="#DejaVuSans-32"/>
       <use xlink:href="#DejaVuSans-30" x="63.623047"/>
      </g>
     </g>
    </g>
    <g id="ytick_2">
     <g id="line2d_8">
      <path d="M 53.31 185.592948 
L 410.43 185.592948 
" clip-path="url(#pa8a1d81848)" style="fill: none; stroke: #cccccc; stroke-linecap: round"/>
     </g>
     <g id="text_9">
      <!-- 40 -->
      <g style="fill: #262626" transform="translate(29.8125 189.772089) scale(0.11 -0.11)">
       <use xlink:href="#DejaVuSans-34"/>
       <use xlink:href="#DejaVuSans-30" x="63.623047"/>
      </g>
     </g>
    </g>
    <g id="ytick_3">
     <g id="line2d_9">
      <path d="M 53.31 129.618165 
L 410.43 129.618165 
" clip-path="url(#pa8a1d81848)" style="fill: none; stroke: #cccccc; stroke-linecap: round"/>
     </g>
     <g id="text_10">
      <!-- 60 -->
      <g style="fill: #262626" transform="translate(29.8125 133.797305) scale(0.11 -0.11)">
       <use xlink:href="#DejaVuSans-36"/>
       <use xlink:href="#DejaVuSans-30" x="63.623047"/>
      </g>
     </g>
    </g>
    <g id="ytick_4">
     <g id="line2d_10">
      <path d="M 53.31 73.643381 
L 410.43 73.643381 
" clip-path="url(#pa8a1d81848)" style="fill: none; stroke: #cccccc; stroke-linecap: round"/>
     </g>
     <g id="text_11">
      <!-- 80 -->
      <g style="fill: #262626" transform="translate(29.8125 77.822522) scale(0.11 -0.11)">
       <use xlink:href="#DejaVuSans-38"/>
       <use xlink:href="#DejaVuSans-30" x="63.623047"/>
      </g>
     </g>
    </g>
    <g id="ytick_5">
     <g id="line2d_11">
      <path d="M 53.31 17.668598 
L 410.43 17.668598 
" clip-path="url(#pa8a1d81848)" style="fill: none; stroke: #cccccc; stroke-linecap: round"/>
     </g>
     <g id="text_12">
      <!-- 100 -->
      <g style="fill: #262626" transform="translate(22.81375 21.847738) scale(0.11 -0.11)">
       <use xlink:href="#DejaVuSans-31"/>
       <use xlink:href="#DejaVuSans-30" x="63.623047"/>
       <use xlink:href="#DejaVuSans-30" x="127.246094"/>
      </g>
     </g>
    </g>
    <g id="text_13">
     <!-- Accuracy (%) -->
     <g style="fill: #262626" transform="translate(16.318125 179.939437) rotate(-90) scale(0.12 -0.12)">
      <defs>
       <path id="DejaVuSans-41" d="M 2188 4044 
L 1331 1722 
L 3047 1722 
L 2188 4044 
z
M 1831 4666 
L 2547 4666 
L 4325 0 
L 3669 0 
L 3244 1197 
L 1141 1197 
L 716 0 
L 50 0 
L 1831 4666 
z
" transform="scale(0.015625)"/>
       <path id="DejaVuSans-63" d="M 3122 3366 
L 3122 2828 
Q 2878 2963 2633 3030 
Q 2388 3097 2138 3097 
Q 1578 3097 1268 2742 
Q 959 2388 959 1747 
Q 959 1106 1268 751 
Q 1578 397 2138 397 
Q 2388 397 2633 464 
Q 2878 531 3122 666 
L 3122 134 
Q 2881 22 2623 -34 
Q 2366 -91 2075 -91 
Q 1284 -91 818 406 
Q 353 903 353 1747 
Q 353 2603 823 3093 
Q 1294 3584 2113 3584 
Q 2378 3584 2631 3529 
Q 2884 3475 3122 3366 
z
" transform="scale(0.015625)"/>
       <path id="DejaVuSans-72" d="M 2631 2963 
Q 2534 3019 2420 3045 
Q 2306 3072 2169 3072 
Q 1681 3072 1420 2755 
Q 1159 2438 1159 1844 
L 1159 0 
L 581 0 
L 581 3500 
L 1159 3500 
L 1159 2956 
Q 1341 3275 1631 3429 
Q 1922 3584 2338 3584 
Q 2397 3584 2469 3576 
Q 2541 3569 2628 3553 
L 2631 2963 
z
" transform="scale(0.015625)"/>
       <path id="DejaVuSans-61" d="M 2194 1759 
Q 1497 1759 1228 1600 
Q 959 1441 959 1056 
Q 959 750 1161 570 
Q 1363 391 1709 391 
Q 2188 391 2477 730 
Q 2766 1069 2766 1631 
L 2766 1759 
L 2194 1759 
z
M 3341 1997 
L 3341 0 
L 2766 0 
L 2766 531 
Q 2569 213 2275 61 
Q 1981 -91 1556 -91 
Q 1019 -91 701 211 
Q 384 513 384 1019 
Q 384 1609 779 1909 
Q 1175 2209 1959 2209 
L 2766 2209 
L 2766 2266 
Q 2766 2663 2505 2880 
Q 2244 3097 1772 3097 
Q 1472 3097 1187 3025 
Q 903 2953 641 2809 
L 641 3341 
Q 956 3463 1253 3523 
Q 1550 3584 1831 3584 
Q 2591 3584 2966 3190 
Q 3341 2797 3341 1997 
z
" transform="scale(0.015625)"/>
       <path id="DejaVuSans-79" d="M 2059 -325 
Q 1816 -950 1584 -1140 
Q 1353 -1331 966 -1331 
L 506 -1331 
L 506 -850 
L 844 -850 
Q 1081 -850 1212 -737 
Q 1344 -625 1503 -206 
L 1606 56 
L 191 3500 
L 800 3500 
L 1894 763 
L 2988 3500 
L 3597 3500 
L 2059 -325 
z
" transform="scale(0.015625)"/>
       <path id="DejaVuSans-20" transform="scale(0.015625)"/>
       <path id="DejaVuSans-28" d="M 1984 4856 
Q 1566 4138 1362 3434 
Q 1159 2731 1159 2009 
Q 1159 1288 1364 580 
Q 1569 -128 1984 -844 
L 1484 -844 
Q 1016 -109 783 600 
Q 550 1309 550 2009 
Q 550 2706 781 3412 
Q 1013 4119 1484 4856 
L 1984 4856 
z
" transform="scale(0.015625)"/>
       <path id="DejaVuSans-25" d="M 4653 2053 
Q 4381 2053 4226 1822 
Q 4072 1591 4072 1178 
Q 4072 772 4226 539 
Q 4381 306 4653 306 
Q 4919 306 5073 539 
Q 5228 772 5228 1178 
Q 5228 1588 5073 1820 
Q 4919 2053 4653 2053 
z
M 4653 2450 
Q 5147 2450 5437 2106 
Q 5728 1763 5728 1178 
Q 5728 594 5436 251 
Q 5144 -91 4653 -91 
Q 4153 -91 3862 251 
Q 3572 594 3572 1178 
Q 3572 1766 3864 2108 
Q 4156 2450 4653 2450 
z
M 1428 4353 
Q 1159 4353 1004 4120 
Q 850 3888 850 3481 
Q 850 3069 1003 2837 
Q 1156 2606 1428 2606 
Q 1700 2606 1854 2837 
Q 2009 3069 2009 3481 
Q 2009 3884 1853 4118 
Q 1697 4353 1428 4353 
z
M 4250 4750 
L 4750 4750 
L 1831 -91 
L 1331 -91 
L 4250 4750 
z
M 1428 4750 
Q 1922 4750 2215 4408 
Q 2509 4066 2509 3481 
Q 2509 2891 2217 2550 
Q 1925 2209 1428 2209 
Q 931 2209 642 2551 
Q 353 2894 353 3481 
Q 353 4063 643 4406 
Q 934 4750 1428 4750 
z
" transform="scale(0.015625)"/>
       <path id="DejaVuSans-29" d="M 513 4856 
L 1013 4856 
Q 1481 4119 1714 3412 
Q 1947 2706 1947 2009 
Q 1947 1309 1714 600 
Q 1481 -109 1013 -844 
L 513 -844 
Q 928 -128 1133 580 
Q 1338 1288 1338 2009 
Q 1338 2731 1133 3434 
Q 928 4138 513 4856 
z
" transform="scale(0.015625)"/>
      </defs>
      <use xlink:href="#DejaVuSans-41"/>
      <use xlink:href="#DejaVuSans-63" x="66.658203"/>
      <use xlink:href="#DejaVuSans-63" x="121.638672"/>
      <use xlink:href="#DejaVuSans-75" x="176.619141"/>
      <use xlink:href="#DejaVuSans-72" x="239.998047"/>
      <use xlink:href="#DejaVuSans-61" x="281.111328"/>
      <use xlink:href="#DejaVuSans-63" x="342.390625"/>
      <use xlink:href="#DejaVuSans-79" x="397.371094"/>
      <use xlink:href="#DejaVuSans-20" x="456.550781"/>
      <use xlink:href="#DejaVuSans-28" x="488.337891"/>
      <use xlink:href="#DejaVuSans-25" x="527.351562"/>
      <use xlink:href="#DejaVuSans-29" x="622.371094"/>
     </g>
    </g>
   </g>
   <g id="PolyCollection_1">
    <defs>
     <path id="m7cddb0690b" d="M 69.542727 -142.885498 
L 69.542727 -82.330362 
L 72.822066 -125.314023 
L 76.101405 -143.40337 
L 79.380744 -186.39137 
L 82.660083 -219.794492 
L 85.939421 -210.536993 
L 89.21876 -248.409987 
L 92.498099 -249.289473 
L 95.777438 -259.364356 
L 99.056777 -280.466502 
L 102.336116 -280.260445 
L 105.615455 -281.273858 
L 108.894793 -277.237443 
L 112.174132 -276.796188 
L 115.453471 -273.556211 
L 118.73281 -278.074069 
L 122.012149 -279.166674 
L 125.291488 -289.970159 
L 128.570826 -285.425299 
L 131.850165 -282.62537 
L 135.129504 -286.295612 
L 138.408843 -288.053428 
L 141.688182 -290.749233 
L 144.967521 -290.820486 
L 148.24686 -291.245347 
L 151.526198 -291.75384 
L 154.805537 -290.572069 
L 158.084876 -289.147868 
L 161.364215 -286.377854 
L 164.643554 -286.048123 
L 167.922893 -285.491076 
L 171.202231 -286.745854 
L 174.48157 -290.608608 
L 177.760909 -289.029322 
L 181.040248 -290.773698 
L 184.319587 -291.018918 
L 187.598926 -291.320886 
L 190.878264 -292.466855 
L 194.157603 -286.487757 
L 197.436942 -289.801572 
L 200.716281 -291.413619 
L 203.99562 -289.967392 
L 207.274959 -292.129406 
L 210.554298 -290.728479 
L 213.833636 -292.271656 
L 217.112975 -293.669027 
L 220.392314 -293.518034 
L 223.671653 -293.121164 
L 226.950992 -292.876014 
L 230.230331 -293.957809 
L 233.509669 -293.674393 
L 236.789008 -294.234519 
L 240.068347 -294.383901 
L 243.347686 -294.61838 
L 246.627025 -294.413665 
L 249.906364 -294.544191 
L 253.185702 -292.212914 
L 256.465041 -292.742933 
L 259.74438 -292.488156 
L 263.023719 -290.803629 
L 266.303058 -291.44491 
L 269.582397 -292.133685 
L 272.861736 -293.934702 
L 276.141074 -293.591623 
L 279.420413 -291.978023 
L 282.699752 -292.166176 
L 285.979091 -291.485876 
L 289.25843 -291.983411 
L 292.537769 -292.062364 
L 295.817107 -284.475988 
L 299.096446 -282.649351 
L 302.375785 -282.267318 
L 305.655124 -283.065777 
L 308.934463 -282.814687 
L 312.213802 -284.47214 
L 315.49314 -284.882814 
L 318.772479 -284.454471 
L 322.051818 -284.293104 
L 325.331157 -284.766167 
L 328.610496 -284.782767 
L 331.889835 -284.302434 
L 335.169174 -283.9385 
L 338.448512 -283.600695 
L 341.727851 -283.83108 
L 345.00719 -284.558343 
L 348.286529 -283.253892 
L 351.565868 -283.435491 
L 354.845207 -283.915662 
L 358.124545 -283.36927 
L 361.403884 -284.288 
L 364.683223 -283.717233 
L 367.962562 -284.31387 
L 371.241901 -283.988155 
L 374.52124 -284.345109 
L 377.800579 -283.391369 
L 381.079917 -283.824792 
L 384.359256 -283.499575 
L 387.638595 -284.072027 
L 390.917934 -283.95281 
L 394.197273 -285.022491 
L 394.197273 -295.303846 
L 394.197273 -295.303846 
L 390.917934 -295.298567 
L 387.638595 -295.27656 
L 384.359256 -295.119661 
L 381.079917 -295.327949 
L 377.800579 -295.255217 
L 374.52124 -295.422583 
L 371.241901 -295.078669 
L 367.962562 -295.257698 
L 364.683223 -295.108522 
L 361.403884 -295.214533 
L 358.124545 -295.063804 
L 354.845207 -294.885136 
L 351.565868 -294.944711 
L 348.286529 -294.796728 
L 345.00719 -295.152939 
L 341.727851 -294.944039 
L 338.448512 -295.221235 
L 335.169174 -295.147647 
L 331.889835 -295.233896 
L 328.610496 -295.323397 
L 325.331157 -295.153074 
L 322.051818 -295.343388 
L 318.772479 -295.158909 
L 315.49314 -295.1365 
L 312.213802 -295.083186 
L 308.934463 -294.831044 
L 305.655124 -294.913462 
L 302.375785 -295.161051 
L 299.096446 -295.037022 
L 295.817107 -294.789701 
L 292.537769 -296.750894 
L 289.25843 -296.776979 
L 285.979091 -296.975687 
L 282.699752 -296.902411 
L 279.420413 -296.845957 
L 276.141074 -296.40414 
L 272.861736 -296.393338 
L 269.582397 -296.448763 
L 266.303058 -296.208467 
L 263.023719 -296.261887 
L 259.74438 -296.028195 
L 256.465041 -296.221241 
L 253.185702 -296.309592 
L 249.906364 -296.56 
L 246.627025 -296.43926 
L 243.347686 -296.605999 
L 240.068347 -296.338332 
L 236.789008 -296.243401 
L 233.509669 -296.092952 
L 230.230331 -296.212578 
L 226.950992 -296.147081 
L 223.671653 -296.116643 
L 220.392314 -296.04714 
L 217.112975 -296.090865 
L 213.833636 -296.410506 
L 210.554298 -296.229322 
L 207.274959 -296.177864 
L 203.99562 -296.084867 
L 200.716281 -295.673556 
L 197.436942 -295.74452 
L 194.157603 -295.317994 
L 190.878264 -295.892837 
L 187.598926 -295.279777 
L 184.319587 -295.119136 
L 181.040248 -295.5985 
L 177.760909 -295.601334 
L 174.48157 -295.684287 
L 171.202231 -295.329625 
L 167.922893 -295.37119 
L 164.643554 -294.381764 
L 161.364215 -294.477795 
L 158.084876 -294.743037 
L 154.805537 -294.673576 
L 151.526198 -294.801344 
L 148.24686 -295.028187 
L 144.967521 -294.471568 
L 141.688182 -294.582089 
L 138.408843 -294.798914 
L 135.129504 -293.980832 
L 131.850165 -294.063471 
L 128.570826 -293.81403 
L 125.291488 -293.960438 
L 122.012149 -293.265992 
L 118.73281 -292.894366 
L 115.453471 -291.829079 
L 112.174132 -293.41035 
L 108.894793 -293.212204 
L 105.615455 -292.303411 
L 102.336116 -291.704467 
L 99.056777 -291.35124 
L 95.777438 -286.61313 
L 92.498099 -281.958813 
L 89.21876 -281.656622 
L 85.939421 -262.975301 
L 82.660083 -264.838207 
L 79.380744 -242.279591 
L 76.101405 -209.43646 
L 72.822066 -194.768133 
L 69.542727 -142.885498 
z
" style="stroke: #4c72b0; stroke-opacity: 0.2"/>
    </defs>
    <g clip-path="url(#pa8a1d81848)">
     <use xlink:href="#m7cddb0690b" x="0" y="316.271687" style="fill: #4c72b0; fill-opacity: 0.2; stroke: #4c72b0; stroke-opacity: 0.2"/>
    </g>
   </g>
   <g id="PolyCollection_2">
    <defs>
     <path id="m81ebbdc4d7" d="M 69.542727 -104.055352 
L 69.542727 -57.851236 
L 72.822066 -82.196148 
L 76.101405 -87.603421 
L 79.380744 -130.23806 
L 82.660083 -152.7348 
L 85.939421 -133.269334 
L 89.21876 -197.694469 
L 92.498099 -196.478215 
L 95.777438 -208.186575 
L 99.056777 -226.899867 
L 102.336116 -224.914481 
L 105.615455 -236.648206 
L 108.894793 -250.701742 
L 112.174132 -233.566427 
L 115.453471 -215.382071 
L 118.73281 -213.505565 
L 122.012149 -232.960306 
L 125.291488 -225.160686 
L 128.570826 -224.853099 
L 131.850165 -226.035116 
L 135.129504 -232.359592 
L 138.408843 -258.51351 
L 141.688182 -245.265686 
L 144.967521 -246.383907 
L 148.24686 -267.61348 
L 151.526198 -226.958203 
L 154.805537 -211.665541 
L 158.084876 -220.089992 
L 161.364215 -236.033962 
L 164.643554 -220.648043 
L 167.922893 -240.63636 
L 171.202231 -239.51335 
L 174.48157 -243.770608 
L 177.760909 -267.405654 
L 181.040248 -266.113897 
L 184.319587 -252.604223 
L 187.598926 -247.634558 
L 190.878264 -273.622306 
L 194.157603 -235.056238 
L 197.436942 -266.330721 
L 200.716281 -259.943945 
L 203.99562 -276.181755 
L 207.274959 -279.381134 
L 210.554298 -255.024973 
L 213.833636 -268.088385 
L 217.112975 -230.004461 
L 220.392314 -250.146285 
L 223.671653 -235.372608 
L 226.950992 -255.491395 
L 230.230331 -279.153745 
L 233.509669 -258.094053 
L 236.789008 -282.491599 
L 240.068347 -273.153939 
L 243.347686 -275.428568 
L 246.627025 -264.14012 
L 249.906364 -283.75912 
L 253.185702 -280.826236 
L 256.465041 -235.808143 
L 259.74438 -281.23065 
L 263.023719 -251.070727 
L 266.303058 -224.828122 
L 269.582397 -283.948031 
L 272.861736 -274.184128 
L 276.141074 -276.402599 
L 279.420413 -279.520447 
L 282.699752 -268.066084 
L 285.979091 -232.443783 
L 289.25843 -240.732726 
L 292.537769 -248.757604 
L 295.817107 -277.502221 
L 299.096446 -251.120774 
L 302.375785 -258.184394 
L 305.655124 -269.102782 
L 308.934463 -252.86697 
L 312.213802 -277.615351 
L 315.49314 -275.321885 
L 318.772479 -274.390833 
L 322.051818 -285.135393 
L 325.331157 -280.262385 
L 328.610496 -280.75665 
L 331.889835 -285.001132 
L 335.169174 -264.365488 
L 338.448512 -270.187778 
L 341.727851 -274.137047 
L 345.00719 -267.242109 
L 348.286529 -272.400025 
L 351.565868 -274.528209 
L 354.845207 -273.843959 
L 358.124545 -282.431362 
L 361.403884 -263.578083 
L 364.683223 -278.977803 
L 367.962562 -281.992946 
L 371.241901 -286.395819 
L 374.52124 -283.44373 
L 377.800579 -254.887493 
L 381.079917 -264.355817 
L 384.359256 -281.846799 
L 387.638595 -287.631745 
L 390.917934 -272.031688 
L 394.197273 -281.40397 
L 394.197273 -289.693526 
L 394.197273 -289.693526 
L 390.917934 -285.665416 
L 387.638595 -290.525057 
L 384.359256 -286.227456 
L 381.079917 -279.938224 
L 377.800579 -273.73539 
L 374.52124 -287.652327 
L 371.241901 -290.665253 
L 367.962562 -287.858505 
L 364.683223 -285.970971 
L 361.403884 -276.766185 
L 358.124545 -288.423696 
L 354.845207 -283.712975 
L 351.565868 -284.53904 
L 348.286529 -284.544477 
L 345.00719 -280.186079 
L 341.727851 -283.656054 
L 338.448512 -282.810571 
L 335.169174 -277.734066 
L 331.889835 -288.564842 
L 328.610496 -287.134401 
L 325.331157 -286.750772 
L 322.051818 -288.792507 
L 318.772479 -282.550905 
L 315.49314 -284.075724 
L 312.213802 -284.961356 
L 308.934463 -273.883116 
L 305.655124 -280.802883 
L 302.375785 -276.804889 
L 299.096446 -270.782712 
L 295.817107 -284.041481 
L 292.537769 -276.884843 
L 289.25843 -270.462767 
L 285.979091 -267.477122 
L 282.699752 -283.521845 
L 279.420413 -287.187051 
L 276.141074 -285.086005 
L 272.861736 -283.00006 
L 269.582397 -288.753834 
L 266.303058 -258.151083 
L 263.023719 -272.388591 
L 259.74438 -287.717946 
L 256.465041 -265.675097 
L 253.185702 -287.351287 
L 249.906364 -288.90311 
L 246.627025 -283.671841 
L 243.347686 -285.845132 
L 240.068347 -283.648615 
L 236.789008 -287.344503 
L 233.509669 -274.967214 
L 230.230331 -284.903729 
L 226.950992 -278.723982 
L 223.671653 -271.186298 
L 220.392314 -270.047374 
L 217.112975 -267.665708 
L 213.833636 -282.389098 
L 210.554298 -279.908228 
L 207.274959 -286.34515 
L 203.99562 -282.323684 
L 200.716281 -276.625681 
L 197.436942 -280.099981 
L 194.157603 -259.276378 
L 190.878264 -280.717279 
L 187.598926 -273.842474 
L 184.319587 -271.460452 
L 181.040248 -278.626674 
L 177.760909 -277.149186 
L 174.48157 -267.122703 
L 171.202231 -272.17604 
L 167.922893 -273.392976 
L 164.643554 -256.789816 
L 161.364215 -270.495489 
L 158.084876 -256.86218 
L 154.805537 -254.282225 
L 151.526198 -259.509176 
L 148.24686 -279.655477 
L 144.967521 -269.432473 
L 141.688182 -264.478947 
L 138.408843 -271.360018 
L 135.129504 -261.701709 
L 131.850165 -262.502315 
L 128.570826 -260.31451 
L 125.291488 -256.829361 
L 122.012149 -266.182495 
L 118.73281 -249.050717 
L 115.453471 -252.813227 
L 112.174132 -263.032313 
L 108.894793 -265.029662 
L 105.615455 -265.265591 
L 102.336116 -256.125876 
L 99.056777 -259.453096 
L 95.777438 -239.750242 
L 92.498099 -236.043811 
L 89.21876 -237.649172 
L 85.939421 -184.639696 
L 82.660083 -199.932661 
L 79.380744 -188.265491 
L 76.101405 -131.942928 
L 72.822066 -131.356725 
L 69.542727 -104.055352 
z
" style="stroke: #dd8452; stroke-opacity: 0.2"/>
    </defs>
    <g clip-path="url(#pa8a1d81848)">
     <use xlink:href="#m81ebbdc4d7" x="0" y="316.271687" style="fill: #dd8452; fill-opacity: 0.2; stroke: #dd8452; stroke-opacity: 0.2"/>
    </g>
   </g>
   <g id="PolyCollection_3">
    <defs>
     <path id="m2208dfb111" d="M 69.542727 -131.141077 
L 69.542727 -70.786306 
L 72.822066 -77.326874 
L 76.101405 -76.094115 
L 79.380744 -85.364145 
L 82.660083 -98.570546 
L 85.939421 -109.569012 
L 89.21876 -121.450315 
L 92.498099 -117.23039 
L 95.777438 -123.697814 
L 99.056777 -137.198459 
L 102.336116 -144.455319 
L 105.615455 -150.897408 
L 108.894793 -161.536194 
L 112.174132 -165.427312 
L 115.453471 -168.216009 
L 118.73281 -174.303748 
L 122.012149 -177.142264 
L 125.291488 -181.424896 
L 128.570826 -184.681296 
L 131.850165 -191.222593 
L 135.129504 -190.829494 
L 138.408843 -194.76304 
L 141.688182 -195.004103 
L 144.967521 -198.742495 
L 148.24686 -198.629175 
L 151.526198 -202.198013 
L 154.805537 -202.043647 
L 158.084876 -205.886962 
L 161.364215 -205.035184 
L 164.643554 -209.367102 
L 167.922893 -209.864045 
L 171.202231 -213.535496 
L 174.48157 -217.290389 
L 177.760909 -226.378721 
L 181.040248 -229.109918 
L 184.319587 -229.948895 
L 187.598926 -228.912036 
L 190.878264 -231.964846 
L 194.157603 -231.831158 
L 197.436942 -231.035901 
L 200.716281 -234.006487 
L 203.99562 -234.742669 
L 207.274959 -235.235691 
L 210.554298 -236.03347 
L 213.833636 -235.522509 
L 217.112975 -233.90651 
L 220.392314 -237.046209 
L 223.671653 -241.071718 
L 226.950992 -238.987812 
L 230.230331 -241.028806 
L 233.509669 -242.422584 
L 236.789008 -240.26408 
L 240.068347 -242.738464 
L 243.347686 -243.305751 
L 246.627025 -245.563962 
L 249.906364 -245.502609 
L 253.185702 -243.923561 
L 256.465041 -244.115104 
L 259.74438 -243.39838 
L 263.023719 -243.770266 
L 266.303058 -246.130607 
L 269.582397 -244.263212 
L 272.861736 -243.424089 
L 276.141074 -244.501017 
L 279.420413 -245.409804 
L 282.699752 -244.14117 
L 285.979091 -242.976073 
L 289.25843 -243.658414 
L 292.537769 -245.580346 
L 295.817107 -203.469907 
L 299.096446 -204.216864 
L 302.375785 -203.107128 
L 305.655124 -204.042274 
L 308.934463 -204.432246 
L 312.213802 -202.287983 
L 315.49314 -203.893207 
L 318.772479 -203.242528 
L 322.051818 -204.069309 
L 325.331157 -204.523905 
L 328.610496 -205.273654 
L 331.889835 -206.029888 
L 335.169174 -207.857139 
L 338.448512 -207.872423 
L 341.727851 -206.985917 
L 345.00719 -208.096104 
L 348.286529 -207.958313 
L 351.565868 -205.342222 
L 354.845207 -206.686038 
L 358.124545 -207.198269 
L 361.403884 -206.969172 
L 364.683223 -206.047908 
L 367.962562 -211.230898 
L 371.241901 -208.077244 
L 374.52124 -209.405188 
L 377.800579 -209.105228 
L 381.079917 -207.696173 
L 384.359256 -210.640155 
L 387.638595 -211.631627 
L 390.917934 -210.603367 
L 394.197273 -211.335516 
L 394.197273 -256.952663 
L 394.197273 -256.952663 
L 390.917934 -257.025113 
L 387.638595 -257.094199 
L 384.359256 -256.153961 
L 381.079917 -256.170277 
L 377.800579 -254.800133 
L 374.52124 -254.330825 
L 371.241901 -254.450172 
L 367.962562 -255.526313 
L 364.683223 -253.987587 
L 361.403884 -253.678367 
L 358.124545 -253.714937 
L 354.845207 -253.701026 
L 351.565868 -253.752137 
L 348.286529 -252.185983 
L 345.00719 -253.422862 
L 341.727851 -252.606844 
L 338.448512 -254.182648 
L 335.169174 -254.72526 
L 331.889835 -253.847944 
L 328.610496 -251.853092 
L 325.331157 -251.696486 
L 322.051818 -251.509487 
L 318.772479 -249.476593 
L 315.49314 -251.992412 
L 312.213802 -251.770239 
L 308.934463 -250.782127 
L 305.655124 -249.897852 
L 302.375785 -251.555001 
L 299.096446 -250.292952 
L 295.817107 -251.113777 
L 292.537769 -285.331623 
L 289.25843 -285.929039 
L 285.979091 -285.616312 
L 282.699752 -285.989377 
L 279.420413 -285.366766 
L 276.141074 -284.689062 
L 272.861736 -284.645584 
L 269.582397 -284.974406 
L 266.303058 -285.591179 
L 263.023719 -285.497107 
L 259.74438 -285.016138 
L 256.465041 -285.12924 
L 253.185702 -284.485691 
L 249.906364 -284.8101 
L 246.627025 -284.729584 
L 243.347686 -284.617694 
L 240.068347 -283.131213 
L 236.789008 -282.724058 
L 233.509669 -281.300123 
L 230.230331 -280.633064 
L 226.950992 -280.53072 
L 223.671653 -280.397778 
L 220.392314 -278.767091 
L 217.112975 -276.029463 
L 213.833636 -275.561051 
L 210.554298 -276.299374 
L 207.274959 -275.974659 
L 203.99562 -275.836548 
L 200.716281 -273.609856 
L 197.436942 -274.128396 
L 194.157603 -271.108709 
L 190.878264 -272.800088 
L 187.598926 -269.417783 
L 184.319587 -268.815809 
L 181.040248 -268.662153 
L 177.760909 -268.023137 
L 174.48157 -261.254829 
L 171.202231 -261.971751 
L 167.922893 -258.294869 
L 164.643554 -257.353656 
L 161.364215 -256.777781 
L 158.084876 -255.716412 
L 154.805537 -252.272257 
L 151.526198 -250.558201 
L 148.24686 -249.487573 
L 144.967521 -249.628956 
L 141.688182 -245.181172 
L 138.408843 -243.981983 
L 135.129504 -241.158976 
L 131.850165 -239.490435 
L 128.570826 -236.512587 
L 125.291488 -233.357701 
L 122.012149 -226.958676 
L 118.73281 -223.024538 
L 115.453471 -216.56803 
L 112.174132 -214.240229 
L 108.894793 -209.503397 
L 105.615455 -204.841778 
L 102.336116 -200.465868 
L 99.056777 -190.333763 
L 95.777438 -183.862627 
L 92.498099 -179.787297 
L 89.21876 -183.127692 
L 85.939421 -165.13696 
L 82.660083 -158.287637 
L 79.380744 -146.296564 
L 76.101405 -135.775937 
L 72.822066 -140.608785 
L 69.542727 -131.141077 
z
" style="stroke: #55a868; stroke-opacity: 0.2"/>
    </defs>
    <g clip-path="url(#pa8a1d81848)">
     <use xlink:href="#m2208dfb111" x="0" y="316.271687" style="fill: #55a868; fill-opacity: 0.2; stroke: #55a868; stroke-opacity: 0.2"/>
    </g>
   </g>
   <g id="PolyCollection_4">
    <defs>
     <path id="m9405c55027" d="M 69.542727 -133.00478 
L 69.542727 -74.331662 
L 72.822066 -78.667357 
L 76.101405 -96.81382 
L 79.380744 -119.805935 
L 82.660083 -133.554956 
L 85.939421 -157.781373 
L 89.21876 -160.04508 
L 92.498099 -177.03267 
L 95.777438 -190.143434 
L 99.056777 -210.409647 
L 102.336116 -217.349481 
L 105.615455 -225.584266 
L 108.894793 -236.126956 
L 112.174132 -242.420797 
L 115.453471 -245.962832 
L 118.73281 -246.805611 
L 122.012149 -251.098969 
L 125.291488 -252.088712 
L 128.570826 -250.890287 
L 131.850165 -253.59124 
L 135.129504 -252.176286 
L 138.408843 -255.876303 
L 141.688182 -256.362259 
L 144.967521 -256.302109 
L 148.24686 -260.132369 
L 151.526198 -257.711891 
L 154.805537 -257.058596 
L 158.084876 -258.732351 
L 161.364215 -259.403434 
L 164.643554 -259.863451 
L 167.922893 -260.046214 
L 171.202231 -261.643599 
L 174.48157 -262.850475 
L 177.760909 -263.919647 
L 181.040248 -265.977701 
L 184.319587 -265.479392 
L 187.598926 -268.8488 
L 190.878264 -271.040897 
L 194.157603 -269.934094 
L 197.436942 -269.800329 
L 200.716281 -269.874825 
L 203.99562 -270.123115 
L 207.274959 -271.895113 
L 210.554298 -271.952841 
L 213.833636 -281.36329 
L 217.112975 -274.376005 
L 220.392314 -273.571992 
L 223.671653 -274.242214 
L 226.950992 -273.520139 
L 230.230331 -276.521631 
L 233.509669 -276.722134 
L 236.789008 -276.395822 
L 240.068347 -275.110217 
L 243.347686 -276.502607 
L 246.627025 -276.491706 
L 249.906364 -277.590581 
L 253.185702 -280.662865 
L 256.465041 -280.454387 
L 259.74438 -280.078328 
L 263.023719 -284.204366 
L 266.303058 -285.889488 
L 269.582397 -284.107716 
L 272.861736 -283.021688 
L 276.141074 -281.903146 
L 279.420413 -285.036843 
L 282.699752 -285.186631 
L 285.979091 -284.413727 
L 289.25843 -283.843076 
L 292.537769 -284.746503 
L 295.817107 -265.356224 
L 299.096446 -267.046901 
L 302.375785 -266.498301 
L 305.655124 -267.274216 
L 308.934463 -266.654439 
L 312.213802 -266.149562 
L 315.49314 -265.943998 
L 318.772479 -266.105974 
L 322.051818 -267.249528 
L 325.331157 -264.949138 
L 328.610496 -267.03831 
L 331.889835 -265.633879 
L 335.169174 -266.234113 
L 338.448512 -266.727888 
L 341.727851 -266.135025 
L 345.00719 -268.521898 
L 348.286529 -267.705481 
L 351.565868 -268.375442 
L 354.845207 -268.571033 
L 358.124545 -266.633167 
L 361.403884 -267.992244 
L 364.683223 -266.496683 
L 367.962562 -267.357617 
L 371.241901 -267.442782 
L 374.52124 -267.162938 
L 377.800579 -266.551278 
L 381.079917 -266.557392 
L 384.359256 -266.864561 
L 387.638595 -267.846359 
L 390.917934 -268.452431 
L 394.197273 -266.589772 
L 394.197273 -287.588103 
L 394.197273 -287.588103 
L 390.917934 -287.520498 
L 387.638595 -288.122429 
L 384.359256 -287.272759 
L 381.079917 -287.823932 
L 377.800579 -287.538816 
L 374.52124 -287.949671 
L 371.241901 -288.484259 
L 367.962562 -287.455964 
L 364.683223 -287.603885 
L 361.403884 -287.733119 
L 358.124545 -287.654694 
L 354.845207 -288.498833 
L 351.565868 -288.001438 
L 348.286529 -287.750213 
L 345.00719 -288.094797 
L 341.727851 -288.703015 
L 338.448512 -288.070643 
L 335.169174 -288.294805 
L 331.889835 -287.406237 
L 328.610496 -287.499394 
L 325.331157 -287.746467 
L 322.051818 -287.514043 
L 318.772479 -287.361986 
L 315.49314 -287.768687 
L 312.213802 -287.605256 
L 308.934463 -287.544358 
L 305.655124 -288.007769 
L 302.375785 -287.357404 
L 299.096446 -288.056969 
L 295.817107 -286.651175 
L 292.537769 -294.581902 
L 289.25843 -294.607802 
L 285.979091 -294.532971 
L 282.699752 -294.771693 
L 279.420413 -294.962002 
L 276.141074 -294.887293 
L 272.861736 -294.827029 
L 269.582397 -294.686192 
L 266.303058 -294.958735 
L 263.023719 -294.777155 
L 259.74438 -294.578427 
L 256.465041 -294.341762 
L 253.185702 -294.547595 
L 249.906364 -294.806504 
L 246.627025 -294.317421 
L 243.347686 -293.972272 
L 240.068347 -293.542545 
L 236.789008 -293.099144 
L 233.509669 -293.302488 
L 230.230331 -293.191388 
L 226.950992 -292.961427 
L 223.671653 -292.716287 
L 220.392314 -292.650563 
L 217.112975 -292.709398 
L 213.833636 -292.778304 
L 210.554298 -293.330197 
L 207.274959 -292.43344 
L 203.99562 -291.994719 
L 200.716281 -291.812874 
L 197.436942 -292.459899 
L 194.157603 -291.830658 
L 190.878264 -292.382608 
L 187.598926 -291.348953 
L 184.319587 -291.339757 
L 181.040248 -292.105298 
L 177.760909 -290.402752 
L 174.48157 -290.537061 
L 171.202231 -289.175316 
L 167.922893 -288.769826 
L 164.643554 -288.160629 
L 161.364215 -288.239849 
L 158.084876 -288.149791 
L 154.805537 -287.820988 
L 151.526198 -288.506012 
L 148.24686 -288.012547 
L 144.967521 -287.59028 
L 141.688182 -287.055599 
L 138.408843 -286.56776 
L 135.129504 -286.840178 
L 131.850165 -286.164928 
L 128.570826 -284.337265 
L 125.291488 -285.637926 
L 122.012149 -284.82721 
L 118.73281 -284.019401 
L 115.453471 -280.930023 
L 112.174132 -281.049898 
L 108.894793 -279.0015 
L 105.615455 -272.937108 
L 102.336116 -266.671075 
L 99.056777 -260.867499 
L 95.777438 -255.003453 
L 92.498099 -242.242482 
L 89.21876 -232.706905 
L 85.939421 -231.464298 
L 82.660083 -211.427598 
L 79.380744 -194.098995 
L 76.101405 -179.037248 
L 72.822066 -147.968145 
L 69.542727 -133.00478 
z
" style="stroke: #c44e52; stroke-opacity: 0.2"/>
    </defs>
    <g clip-path="url(#pa8a1d81848)">
     <use xlink:href="#m9405c55027" x="0" y="316.271687" style="fill: #c44e52; fill-opacity: 0.2; stroke: #c44e52; stroke-opacity: 0.2"/>
    </g>
   </g>
   <g id="PolyCollection_5">
    <defs>
     <path id="mdd4de6c268" d="M 69.542727 -105.713775 
L 69.542727 -55.055687 
L 72.822066 -56.915515 
L 76.101405 -67.169002 
L 79.380744 -84.443423 
L 82.660083 -93.299006 
L 85.939421 -94.555945 
L 89.21876 -129.130819 
L 92.498099 -120.913665 
L 95.777438 -126.836421 
L 99.056777 -124.903194 
L 102.336116 -138.991728 
L 105.615455 -153.635762 
L 108.894793 -174.170897 
L 112.174132 -182.995845 
L 115.453471 -187.006793 
L 118.73281 -206.435272 
L 122.012149 -207.816052 
L 125.291488 -206.425528 
L 128.570826 -211.418898 
L 131.850165 -223.257434 
L 135.129504 -226.55028 
L 138.408843 -242.513194 
L 141.688182 -242.32345 
L 144.967521 -242.466349 
L 148.24686 -243.912515 
L 151.526198 -249.505295 
L 154.805537 -251.780473 
L 158.084876 -256.115043 
L 161.364215 -256.282691 
L 164.643554 -256.08939 
L 167.922893 -257.377165 
L 171.202231 -260.716925 
L 174.48157 -263.373404 
L 177.760909 -265.472283 
L 181.040248 -266.969105 
L 184.319587 -264.806436 
L 187.598926 -268.038958 
L 190.878264 -271.446655 
L 194.157603 -269.579049 
L 197.436942 -269.490814 
L 200.716281 -270.957477 
L 203.99562 -274.201279 
L 207.274959 -273.461153 
L 210.554298 -274.148645 
L 213.833636 -278.08837 
L 217.112975 -278.127128 
L 220.392314 -278.92497 
L 223.671653 -278.132355 
L 226.950992 -279.326027 
L 230.230331 -281.010857 
L 233.509669 -280.69282 
L 236.789008 -281.552819 
L 240.068347 -282.463499 
L 243.347686 -281.795034 
L 246.627025 -281.477211 
L 249.906364 -281.490474 
L 253.185702 -287.491638 
L 256.465041 -286.781671 
L 259.74438 -287.255296 
L 263.023719 -287.121681 
L 266.303058 -286.73104 
L 269.582397 -286.624507 
L 272.861736 -288.676236 
L 276.141074 -288.449243 
L 279.420413 -290.097265 
L 282.699752 -290.311023 
L 285.979091 -290.176239 
L 289.25843 -290.402449 
L 292.537769 -289.815714 
L 295.817107 -250.422488 
L 299.096446 -251.886084 
L 302.375785 -250.568468 
L 305.655124 -252.206671 
L 308.934463 -251.365351 
L 312.213802 -250.920139 
L 315.49314 -251.648804 
L 318.772479 -250.3947 
L 322.051818 -251.97624 
L 325.331157 -251.423723 
L 328.610496 -252.598539 
L 331.889835 -249.890568 
L 335.169174 -251.98061 
L 338.448512 -251.833397 
L 341.727851 -251.123704 
L 345.00719 -249.788157 
L 348.286529 -251.485362 
L 351.565868 -251.496927 
L 354.845207 -250.744288 
L 358.124545 -251.300103 
L 361.403884 -252.281115 
L 364.683223 -251.282837 
L 367.962562 -250.017676 
L 371.241901 -252.084119 
L 374.52124 -252.157692 
L 377.800579 -250.775714 
L 381.079917 -251.921513 
L 384.359256 -252.381664 
L 387.638595 -251.399036 
L 390.917934 -252.576261 
L 394.197273 -253.562604 
L 394.197273 -281.06953 
L 394.197273 -281.06953 
L 390.917934 -281.212616 
L 387.638595 -280.82827 
L 384.359256 -281.315452 
L 381.079917 -281.413873 
L 377.800579 -280.676616 
L 374.52124 -280.807064 
L 371.241901 -280.37864 
L 367.962562 -279.986234 
L 364.683223 -281.018423 
L 361.403884 -280.803844 
L 358.124545 -280.584976 
L 354.845207 -279.33362 
L 351.565868 -279.806519 
L 348.286529 -279.917666 
L 345.00719 -279.290433 
L 341.727851 -280.810809 
L 338.448512 -280.245661 
L 335.169174 -280.379971 
L 331.889835 -280.06181 
L 328.610496 -280.380808 
L 325.331157 -280.327865 
L 322.051818 -279.894878 
L 318.772479 -279.230577 
L 315.49314 -279.7777 
L 312.213802 -280.41726 
L 308.934463 -281.137617 
L 305.655124 -280.487048 
L 302.375785 -279.92702 
L 299.096446 -281.185868 
L 295.817107 -280.248901 
L 292.537769 -295.527685 
L 289.25843 -295.179604 
L 285.979091 -295.299021 
L 282.699752 -295.252643 
L 279.420413 -294.959789 
L 276.141074 -294.865485 
L 272.861736 -294.977394 
L 269.582397 -295.022244 
L 266.303058 -294.976969 
L 263.023719 -294.625725 
L 259.74438 -294.185071 
L 256.465041 -294.187003 
L 253.185702 -294.143112 
L 249.906364 -294.365348 
L 246.627025 -294.175023 
L 243.347686 -294.293437 
L 240.068347 -293.509889 
L 236.789008 -293.569596 
L 233.509669 -293.545338 
L 230.230331 -293.343146 
L 226.950992 -293.264325 
L 223.671653 -293.177759 
L 220.392314 -292.850002 
L 217.112975 -292.545962 
L 213.833636 -292.24237 
L 210.554298 -292.103474 
L 207.274959 -291.694279 
L 203.99562 -291.378016 
L 200.716281 -291.23485 
L 197.436942 -290.943197 
L 194.157603 -290.470171 
L 190.878264 -290.180172 
L 187.598926 -289.455118 
L 184.319587 -289.239946 
L 181.040248 -289.917976 
L 177.760909 -288.287779 
L 174.48157 -287.7693 
L 171.202231 -287.690848 
L 167.922893 -286.414323 
L 164.643554 -284.736062 
L 161.364215 -284.945963 
L 158.084876 -284.913479 
L 154.805537 -282.141138 
L 151.526198 -280.80983 
L 148.24686 -277.41306 
L 144.967521 -277.597483 
L 141.688182 -275.636733 
L 138.408843 -275.326316 
L 135.129504 -269.296766 
L 131.850165 -264.945304 
L 128.570826 -258.635859 
L 125.291488 -254.07703 
L 122.012149 -251.715259 
L 118.73281 -251.640129 
L 115.453471 -237.956982 
L 112.174132 -232.533362 
L 108.894793 -224.126752 
L 105.615455 -202.961022 
L 102.336116 -188.786195 
L 99.056777 -177.828673 
L 95.777438 -184.258362 
L 92.498099 -180.013506 
L 89.21876 -191.345525 
L 85.939421 -153.727577 
L 82.660083 -147.533243 
L 79.380744 -146.795441 
L 76.101405 -127.82128 
L 72.822066 -115.853416 
L 69.542727 -105.713775 
z
" style="stroke: #8172b3; stroke-opacity: 0.2"/>
    </defs>
    <g clip-path="url(#pa8a1d81848)">
     <use xlink:href="#mdd4de6c268" x="0" y="316.271687" style="fill: #8172b3; fill-opacity: 0.2; stroke: #8172b3; stroke-opacity: 0.2"/>
    </g>
   </g>
   <g id="line2d_12">
    <path d="M 69.542727 204.911893 
L 72.822066 156.326461 
L 76.101405 137.434508 
L 79.380744 101.165151 
L 82.660083 72.432191 
L 85.939421 78.117406 
L 89.21876 48.942133 
L 92.498099 49.404701 
L 95.777438 42.090068 
L 99.056777 29.908108 
L 102.336116 29.465203 
L 105.615455 28.513064 
L 108.894793 28.880842 
L 112.174132 29.101335 
L 115.453471 31.752453 
L 118.73281 29.045248 
L 122.012149 28.333273 
L 125.291488 24.132709 
L 128.570826 25.824579 
L 131.850165 26.25006 
L 135.129504 25.369864 
L 138.408843 24.21225 
L 141.688182 23.378153 
L 144.967521 23.552219 
L 148.24686 23.010679 
L 151.526198 22.907334 
L 154.805537 23.307585 
L 158.084876 23.877944 
L 161.364215 25.100162 
L 164.643554 25.120209 
L 167.922893 24.546899 
L 171.202231 24.222645 
L 174.48157 22.821308 
L 177.760909 23.402319 
L 181.040248 22.709375 
L 184.319587 22.955648 
L 187.598926 22.779847 
L 190.878264 21.894094 
L 194.157603 24.306167 
L 197.436942 23.183745 
L 200.716281 22.450235 
L 203.99562 22.587358 
L 207.274959 21.811547 
L 210.554298 22.053406 
L 213.833636 21.569096 
L 217.112975 21.273214 
L 220.392314 21.355984 
L 223.671653 21.469877 
L 226.950992 21.456891 
L 230.230331 21.034393 
L 233.509669 21.297779 
L 236.789008 21.006974 
L 240.068347 20.839801 
L 243.347686 20.604699 
L 246.627025 20.787736 
L 249.906364 20.62864 
L 253.185702 21.781449 
L 256.465041 21.596228 
L 259.74438 21.823822 
L 263.023719 22.252636 
L 266.303058 22.050647 
L 269.582397 21.522293 
L 272.861736 21.023598 
L 276.141074 21.138738 
L 279.420413 21.452333 
L 282.699752 21.220541 
L 285.979091 21.367419 
L 289.25843 21.320784 
L 292.537769 21.343406 
L 295.817107 25.529954 
L 299.096446 26.343486 
L 302.375785 26.439376 
L 305.655124 26.310455 
L 308.934463 26.234497 
L 312.213802 25.128206 
L 315.49314 25.188614 
L 318.772479 25.084003 
L 322.051818 25.078338 
L 325.331157 25.260597 
L 328.610496 25.14539 
L 331.889835 25.229744 
L 335.169174 25.328181 
L 338.448512 25.263553 
L 341.727851 25.699361 
L 345.00719 25.738325 
L 348.286529 25.845959 
L 351.565868 25.634011 
L 354.845207 25.572679 
L 358.124545 25.46907 
L 361.403884 25.41811 
L 364.683223 25.242921 
L 367.962562 25.210153 
L 371.241901 25.335346 
L 374.52124 25.236304 
L 377.800579 25.261443 
L 381.079917 25.184757 
L 384.359256 25.240195 
L 387.638595 25.250432 
L 390.917934 25.229302 
L 394.197273 25.253086 
" clip-path="url(#pa8a1d81848)" style="fill: none; stroke: #4c72b0; stroke-width: 1.5; stroke-linecap: round"/>
   </g>
   <g id="line2d_13">
    <path d="M 69.542727 235.685782 
L 72.822066 208.96905 
L 76.101405 206.578886 
L 79.380744 156.858061 
L 82.660083 139.54275 
L 85.939421 156.715254 
L 89.21876 97.965576 
L 92.498099 98.889064 
L 95.777438 91.809477 
L 99.056777 72.998712 
L 102.336116 75.341096 
L 105.615455 64.299678 
L 108.894793 58.341203 
L 112.174132 67.015671 
L 115.453471 80.755577 
L 118.73281 84.598262 
L 122.012149 64.680451 
L 125.291488 74.677763 
L 128.570826 73.205051 
L 131.850165 71.909402 
L 135.129504 69.23707 
L 138.408843 50.999942 
L 141.688182 61.361226 
L 144.967521 58.105173 
L 148.24686 42.498124 
L 151.526198 72.51465 
L 154.805537 82.232848 
L 158.084876 76.631483 
L 161.364215 61.962651 
L 164.643554 75.877023 
L 167.922893 57.812617 
L 171.202231 58.383048 
L 174.48157 60.932731 
L 177.760909 43.890393 
L 181.040248 44.020686 
L 184.319587 54.324396 
L 187.598926 54.299775 
L 190.878264 39.036659 
L 194.157603 68.617365 
L 197.436942 42.971823 
L 200.716281 47.849361 
L 203.99562 37.017633 
L 207.274959 33.429865 
L 210.554298 47.415229 
L 213.833636 40.685948 
L 217.112975 67.427086 
L 220.392314 55.070356 
L 223.671653 60.849409 
L 226.950992 48.333615 
L 230.230331 34.302576 
L 233.509669 49.481122 
L 236.789008 31.21671 
L 240.068347 37.593246 
L 243.347686 35.134897 
L 246.627025 41.789075 
L 249.906364 29.740815 
L 253.185702 32.09098 
L 256.465041 64.354502 
L 259.74438 31.628924 
L 263.023719 53.958361 
L 266.303058 74.376267 
L 269.582397 29.830727 
L 272.861736 37.6052 
L 276.141074 35.23865 
L 279.420413 32.669168 
L 282.699752 40.064124 
L 285.979091 65.081334 
L 289.25843 60.071975 
L 292.537769 53.453557 
L 295.817107 35.542673 
L 299.096446 55.098146 
L 302.375785 48.257647 
L 305.655124 41.10075 
L 308.934463 52.30965 
L 312.213802 34.820978 
L 315.49314 36.463827 
L 318.772479 37.685981 
L 322.051818 29.193643 
L 325.331157 32.668451 
L 328.610496 32.162171 
L 331.889835 29.381282 
L 335.169174 44.919456 
L 338.448512 39.329014 
L 341.727851 37.348632 
L 345.00719 42.295745 
L 348.286529 37.411682 
L 351.565868 36.578391 
L 354.845207 37.097299 
L 358.124545 30.74466 
L 361.403884 45.675239 
L 364.683223 33.742708 
L 367.962562 31.070315 
L 371.241901 27.637203 
L 374.52124 30.632178 
L 377.800579 51.570033 
L 381.079917 43.364438 
L 384.359256 32.226827 
L 387.638595 27.130066 
L 390.917934 36.710889 
L 394.197273 30.450277 
" clip-path="url(#pa8a1d81848)" style="fill: none; stroke: #dd8452; stroke-width: 1.5; stroke-linecap: round"/>
   </g>
   <g id="line2d_14">
    <path d="M 69.542727 216.855881 
L 72.822066 208.368576 
L 76.101405 211.107366 
L 79.380744 200.923938 
L 82.660083 189.521659 
L 85.939421 178.676448 
L 89.21876 164.626346 
L 92.498099 166.547712 
L 95.777438 162.060182 
L 99.056777 151.228286 
L 102.336116 145.034668 
L 105.615455 139.136397 
L 108.894793 130.956866 
L 112.174132 125.795415 
L 115.453471 122.682297 
L 118.73281 116.980362 
L 122.012149 114.297155 
L 125.291488 108.179631 
L 128.570826 104.627303 
L 131.850165 101.45027 
L 135.129504 99.519612 
L 138.408843 96.826689 
L 141.688182 95.375271 
L 144.967521 91.280108 
L 148.24686 89.498558 
L 151.526198 88.278924 
L 154.805537 88.160769 
L 158.084876 84.151815 
L 161.364215 84.179243 
L 164.643554 82.291069 
L 167.922893 80.251196 
L 171.202231 77.916568 
L 174.48157 74.541057 
L 177.760909 67.784429 
L 181.040248 66.396118 
L 184.319587 66.294884 
L 187.598926 65.831077 
L 190.878264 63.122361 
L 194.157603 62.778028 
L 197.436942 62.303866 
L 200.716281 60.731998 
L 203.99562 59.875184 
L 207.274959 59.527076 
L 210.554298 58.898184 
L 213.833636 58.936622 
L 217.112975 58.432026 
L 220.392314 56.389938 
L 223.671653 55.304891 
L 226.950992 54.976447 
L 230.230331 52.746011 
L 233.509669 52.697561 
L 236.789008 51.473001 
L 240.068347 50.885809 
L 243.347686 50.062516 
L 246.627025 50.066235 
L 249.906364 49.954477 
L 253.185702 50.089832 
L 256.465041 49.880406 
L 259.74438 49.840816 
L 263.023719 49.6905 
L 266.303058 49.653756 
L 269.582397 49.489598 
L 272.861736 49.501809 
L 276.141074 49.381359 
L 279.420413 49.335196 
L 282.699752 49.090666 
L 285.979091 49.092073 
L 289.25843 49.59296 
L 292.537769 49.231075 
L 295.817107 88.408158 
L 299.096446 88.2677 
L 302.375785 88.517499 
L 305.655124 88.367968 
L 308.934463 88.048072 
L 312.213802 87.810095 
L 315.49314 87.696875 
L 318.772479 87.486242 
L 322.051818 87.414986 
L 325.331157 87.514895 
L 328.610496 87.531951 
L 331.889835 85.704273 
L 335.169174 85.418556 
L 338.448512 85.051596 
L 341.727851 85.09993 
L 345.00719 84.967752 
L 348.286529 85.178217 
L 351.565868 85.167005 
L 354.845207 85.210996 
L 358.124545 85.006878 
L 361.403884 84.883845 
L 364.683223 85.374341 
L 367.962562 83.698081 
L 371.241901 83.628964 
L 374.52124 83.685616 
L 377.800579 83.530761 
L 381.079917 82.283291 
L 384.359256 82.232074 
L 387.638595 81.051795 
L 390.917934 81.188664 
L 394.197273 81.176708 
" clip-path="url(#pa8a1d81848)" style="fill: none; stroke: #55a868; stroke-width: 1.5; stroke-linecap: round"/>
   </g>
   <g id="line2d_15">
    <path d="M 69.542727 213.775436 
L 72.822066 206.389692 
L 76.101405 180.194948 
L 79.380744 160.08388 
L 82.660083 144.160566 
L 85.939421 121.190433 
L 89.21876 118.987274 
L 92.498099 105.178191 
L 95.777438 91.037425 
L 99.056777 79.338895 
L 102.336116 72.653971 
L 105.615455 67.95879 
L 108.894793 56.624704 
L 112.174132 52.520353 
L 115.453471 50.859029 
L 118.73281 49.109578 
L 122.012149 45.918495 
L 125.291488 46.171853 
L 128.570826 46.429537 
L 131.850165 44.935162 
L 135.129504 44.646692 
L 138.408843 43.657122 
L 141.688182 42.478757 
L 144.967521 42.601717 
L 148.24686 40.525301 
L 151.526198 40.992338 
L 154.805537 40.965534 
L 158.084876 40.66858 
L 161.364215 40.686036 
L 164.643554 39.870596 
L 167.922893 39.293128 
L 171.202231 38.490106 
L 174.48157 37.551656 
L 177.760909 37.10046 
L 181.040248 35.499629 
L 184.319587 35.694941 
L 187.598926 34.331483 
L 190.878264 32.771706 
L 194.157603 33.889282 
L 197.436942 32.915321 
L 200.716281 33.291623 
L 203.99562 33.474453 
L 207.274959 32.020876 
L 210.554298 31.505244 
L 213.833636 28.492433 
L 217.112975 31.018839 
L 220.392314 31.636937 
L 223.671653 29.9787 
L 226.950992 30.041783 
L 230.230331 29.516788 
L 233.509669 29.513661 
L 236.789008 29.386639 
L 240.068347 29.407397 
L 243.347686 28.779976 
L 246.627025 28.487244 
L 249.906364 27.827301 
L 253.185702 26.878025 
L 256.465041 27.500704 
L 259.74438 27.459963 
L 263.023719 25.643693 
L 266.303058 24.872408 
L 269.582397 25.318871 
L 272.861736 26.033885 
L 276.141074 26.372373 
L 279.420413 25.061667 
L 282.699752 25.27258 
L 285.979091 25.726719 
L 289.25843 25.473673 
L 292.537769 25.606054 
L 295.817107 38.943303 
L 299.096446 37.877526 
L 302.375785 38.03097 
L 305.655124 37.623334 
L 308.934463 37.249584 
L 312.213802 38.176432 
L 315.49314 38.054614 
L 318.772479 37.709484 
L 322.051818 37.739896 
L 325.331157 38.52806 
L 328.610496 38.119343 
L 331.889835 38.322845 
L 335.169174 37.928508 
L 338.448512 37.932499 
L 341.727851 37.41218 
L 345.00719 36.912946 
L 348.286529 37.389079 
L 351.565868 36.898242 
L 354.845207 37.081492 
L 358.124545 37.691287 
L 361.403884 36.93654 
L 364.683223 37.517799 
L 367.962562 37.851017 
L 371.241901 37.745269 
L 374.52124 37.486962 
L 377.800579 37.850479 
L 381.079917 37.586888 
L 384.359256 37.713257 
L 387.638595 37.185751 
L 390.917934 37.210044 
L 394.197273 37.767161 
" clip-path="url(#pa8a1d81848)" style="fill: none; stroke: #c44e52; stroke-width: 1.5; stroke-linecap: round"/>
   </g>
   <g id="line2d_16">
    <path d="M 69.542727 237.637974 
L 72.822066 231.343538 
L 76.101405 217.652114 
L 79.380744 201.597219 
L 82.660083 195.26392 
L 85.939421 193.673012 
L 89.21876 155.651845 
L 92.498099 164.945922 
L 95.777438 158.535378 
L 99.056777 165.897125 
L 102.336116 151.776159 
L 105.615455 137.53619 
L 108.894793 116.453487 
L 112.174132 109.298263 
L 115.453471 101.788598 
L 118.73281 86.132867 
L 122.012149 85.892855 
L 125.291488 84.596935 
L 128.570826 79.474698 
L 131.850165 71.489376 
L 135.129504 67.109317 
L 138.408843 55.891794 
L 141.688182 56.492667 
L 144.967521 55.147569 
L 148.24686 53.642823 
L 151.526198 50.242723 
L 154.805537 47.298002 
L 158.084876 43.906841 
L 161.364215 43.597357 
L 164.643554 43.578493 
L 167.922893 40.94069 
L 171.202231 40.094375 
L 174.48157 38.73378 
L 177.760909 38.068136 
L 181.040248 36.124163 
L 184.319587 36.908986 
L 187.598926 35.75772 
L 190.878264 34.171755 
L 194.157603 33.821937 
L 197.436942 33.629343 
L 200.716281 33.504823 
L 203.99562 31.913524 
L 207.274959 31.939041 
L 210.554298 31.864163 
L 213.833636 29.617655 
L 217.112975 29.594945 
L 220.392314 29.183474 
L 223.671653 28.861979 
L 226.950992 28.533543 
L 230.230331 27.934693 
L 233.509669 27.748968 
L 236.789008 27.466432 
L 240.068347 27.14688 
L 243.347686 26.822834 
L 246.627025 26.880887 
L 249.906364 26.773264 
L 253.185702 24.942033 
L 256.465041 25.089391 
L 259.74438 25.178238 
L 263.023719 24.901235 
L 266.303058 24.73619 
L 269.582397 24.697655 
L 272.861736 24.197616 
L 276.141074 24.144536 
L 279.420413 23.51362 
L 282.699752 23.422533 
L 285.979091 23.289281 
L 289.25843 23.234138 
L 292.537769 23.136678 
L 295.817107 49.737906 
L 299.096446 49.860776 
L 302.375785 49.665833 
L 305.655124 49.146207 
L 308.934463 49.410526 
L 312.213802 48.986187 
L 315.49314 49.118528 
L 318.772479 49.341918 
L 322.051818 49.375116 
L 325.331157 49.209621 
L 328.610496 49.35548 
L 331.889835 49.106807 
L 335.169174 49.305556 
L 338.448512 49.527496 
L 341.727851 49.60201 
L 345.00719 49.537376 
L 348.286529 49.239915 
L 351.565868 49.475373 
L 354.845207 49.815369 
L 358.124545 49.338453 
L 361.403884 49.33004 
L 364.683223 49.276265 
L 367.962562 49.356432 
L 371.241901 48.949965 
L 374.52124 48.85098 
L 377.800579 48.985504 
L 381.079917 48.992635 
L 384.359256 48.784442 
L 387.638595 48.777653 
L 390.917934 48.740217 
L 394.197273 48.578511 
" clip-path="url(#pa8a1d81848)" style="fill: none; stroke: #8172b3; stroke-width: 1.5; stroke-linecap: round"/>
   </g>
   <g id="line2d_17"/>
   <g id="line2d_18"/>
   <g id="line2d_19"/>
   <g id="line2d_20"/>
   <g id="line2d_21"/>
   <g id="patch_3">
    <path d="M 53.31 273.312 
L 53.31 7.2 
" style="fill: none; stroke: #cccccc; stroke-width: 1.25; stroke-linejoin: miter; stroke-linecap: square"/>
   </g>
   <g id="patch_4">
    <path d="M 410.43 273.312 
L 410.43 7.2 
" style="fill: none; stroke: #cccccc; stroke-width: 1.25; stroke-linejoin: miter; stroke-linecap: square"/>
   </g>
   <g id="patch_5">
    <path d="M 53.31 273.312 
L 410.43 273.312 
" style="fill: none; stroke: #cccccc; stroke-width: 1.25; stroke-linejoin: miter; stroke-linecap: square"/>
   </g>
   <g id="patch_6">
    <path d="M 53.31 7.2 
L 410.43 7.2 
" style="fill: none; stroke: #cccccc; stroke-width: 1.25; stroke-linejoin: miter; stroke-linecap: square"/>
   </g>
   <g id="legend_1">
    <g id="patch_7">
     <path d="M 298.745625 267.812 
L 402.73 267.812 
Q 404.93 267.812 404.93 265.612 
L 404.93 168.868562 
Q 404.93 166.668562 402.73 166.668562 
L 298.745625 166.668562 
Q 296.545625 166.668562 296.545625 168.868562 
L 296.545625 265.612 
Q 296.545625 267.812 298.745625 267.812 
z
" style="fill: #ffffff; opacity: 0.8; stroke: #cccccc; stroke-linejoin: miter"/>
    </g>
    <g id="text_14">
     <!-- Strategy -->
     <g style="fill: #262626" transform="translate(325.02875 180.186687) scale(0.12 -0.12)">
      <defs>
       <path id="DejaVuSans-53" d="M 3425 4513 
L 3425 3897 
Q 3066 4069 2747 4153 
Q 2428 4238 2131 4238 
Q 1616 4238 1336 4038 
Q 1056 3838 1056 3469 
Q 1056 3159 1242 3001 
Q 1428 2844 1947 2747 
L 2328 2669 
Q 3034 2534 3370 2195 
Q 3706 1856 3706 1288 
Q 3706 609 3251 259 
Q 2797 -91 1919 -91 
Q 1588 -91 1214 -16 
Q 841 59 441 206 
L 441 856 
Q 825 641 1194 531 
Q 1563 422 1919 422 
Q 2459 422 2753 634 
Q 3047 847 3047 1241 
Q 3047 1584 2836 1778 
Q 2625 1972 2144 2069 
L 1759 2144 
Q 1053 2284 737 2584 
Q 422 2884 422 3419 
Q 422 4038 858 4394 
Q 1294 4750 2059 4750 
Q 2388 4750 2728 4690 
Q 3069 4631 3425 4513 
z
" transform="scale(0.015625)"/>
       <path id="DejaVuSans-74" d="M 1172 4494 
L 1172 3500 
L 2356 3500 
L 2356 3053 
L 1172 3053 
L 1172 1153 
Q 1172 725 1289 603 
Q 1406 481 1766 481 
L 2356 481 
L 2356 0 
L 1766 0 
Q 1100 0 847 248 
Q 594 497 594 1153 
L 594 3053 
L 172 3053 
L 172 3500 
L 594 3500 
L 594 4494 
L 1172 4494 
z
" transform="scale(0.015625)"/>
       <path id="DejaVuSans-65" d="M 3597 1894 
L 3597 1613 
L 953 1613 
Q 991 1019 1311 708 
Q 1631 397 2203 397 
Q 2534 397 2845 478 
Q 3156 559 3463 722 
L 3463 178 
Q 3153 47 2828 -22 
Q 2503 -91 2169 -91 
Q 1331 -91 842 396 
Q 353 884 353 1716 
Q 353 2575 817 3079 
Q 1281 3584 2069 3584 
Q 2775 3584 3186 3129 
Q 3597 2675 3597 1894 
z
M 3022 2063 
Q 3016 2534 2758 2815 
Q 2500 3097 2075 3097 
Q 1594 3097 1305 2825 
Q 1016 2553 972 2059 
L 3022 2063 
z
" transform="scale(0.015625)"/>
       <path id="DejaVuSans-67" d="M 2906 1791 
Q 2906 2416 2648 2759 
Q 2391 3103 1925 3103 
Q 1463 3103 1205 2759 
Q 947 2416 947 1791 
Q 947 1169 1205 825 
Q 1463 481 1925 481 
Q 2391 481 2648 825 
Q 2906 1169 2906 1791 
z
M 3481 434 
Q 3481 -459 3084 -895 
Q 2688 -1331 1869 -1331 
Q 1566 -1331 1297 -1286 
Q 1028 -1241 775 -1147 
L 775 -588 
Q 1028 -725 1275 -790 
Q 1522 -856 1778 -856 
Q 2344 -856 2625 -561 
Q 2906 -266 2906 331 
L 2906 616 
Q 2728 306 2450 153 
Q 2172 0 1784 0 
Q 1141 0 747 490 
Q 353 981 353 1791 
Q 353 2603 747 3093 
Q 1141 3584 1784 3584 
Q 2172 3584 2450 3431 
Q 2728 3278 2906 2969 
L 2906 3500 
L 3481 3500 
L 3481 434 
z
" transform="scale(0.015625)"/>
      </defs>
      <use xlink:href="#DejaVuSans-53"/>
      <use xlink:href="#DejaVuSans-74" x="63.476562"/>
      <use xlink:href="#DejaVuSans-72" x="102.685547"/>
      <use xlink:href="#DejaVuSans-61" x="143.798828"/>
      <use xlink:href="#DejaVuSans-74" x="205.078125"/>
      <use xlink:href="#DejaVuSans-65" x="244.287109"/>
      <use xlink:href="#DejaVuSans-67" x="305.810547"/>
      <use xlink:href="#DejaVuSans-79" x="369.287109"/>
     </g>
    </g>
    <g id="line2d_22">
     <path d="M 300.945625 192.690594 
L 311.945625 192.690594 
L 322.945625 192.690594 
" style="fill: none; stroke: #4c72b0; stroke-width: 1.5; stroke-linecap: round"/>
    </g>
    <g id="text_15">
     <!-- FedPredict -->
     <g style="fill: #262626" transform="translate(331.745625 196.540594) scale(0.11 -0.11)">
      <defs>
       <path id="DejaVuSans-46" d="M 628 4666 
L 3309 4666 
L 3309 4134 
L 1259 4134 
L 1259 2759 
L 3109 2759 
L 3109 2228 
L 1259 2228 
L 1259 0 
L 628 0 
L 628 4666 
z
" transform="scale(0.015625)"/>
       <path id="DejaVuSans-50" d="M 1259 4147 
L 1259 2394 
L 2053 2394 
Q 2494 2394 2734 2622 
Q 2975 2850 2975 3272 
Q 2975 3691 2734 3919 
Q 2494 4147 2053 4147 
L 1259 4147 
z
M 628 4666 
L 2053 4666 
Q 2838 4666 3239 4311 
Q 3641 3956 3641 3272 
Q 3641 2581 3239 2228 
Q 2838 1875 2053 1875 
L 1259 1875 
L 1259 0 
L 628 0 
L 628 4666 
z
" transform="scale(0.015625)"/>
       <path id="DejaVuSans-69" d="M 603 3500 
L 1178 3500 
L 1178 0 
L 603 0 
L 603 3500 
z
M 603 4863 
L 1178 4863 
L 1178 4134 
L 603 4134 
L 603 4863 
z
" transform="scale(0.015625)"/>
      </defs>
      <use xlink:href="#DejaVuSans-46"/>
      <use xlink:href="#DejaVuSans-65" x="52.019531"/>
      <use xlink:href="#DejaVuSans-64" x="113.542969"/>
      <use xlink:href="#DejaVuSans-50" x="177.019531"/>
      <use xlink:href="#DejaVuSans-72" x="235.572266"/>
      <use xlink:href="#DejaVuSans-65" x="274.435547"/>
      <use xlink:href="#DejaVuSans-64" x="335.958984"/>
      <use xlink:href="#DejaVuSans-69" x="399.435547"/>
      <use xlink:href="#DejaVuSans-63" x="427.21875"/>
      <use xlink:href="#DejaVuSans-74" x="482.199219"/>
     </g>
    </g>
    <g id="line2d_23">
     <path d="M 300.945625 208.836531 
L 311.945625 208.836531 
L 322.945625 208.836531 
" style="fill: none; stroke: #dd8452; stroke-width: 1.5; stroke-linecap: round"/>
    </g>
    <g id="text_16">
     <!-- FedAVG -->
     <g style="fill: #262626" transform="translate(331.745625 212.686531) scale(0.11 -0.11)">
      <defs>
       <path id="DejaVuSans-56" d="M 1831 0 
L 50 4666 
L 709 4666 
L 2188 738 
L 3669 4666 
L 4325 4666 
L 2547 0 
L 1831 0 
z
" transform="scale(0.015625)"/>
       <path id="DejaVuSans-47" d="M 3809 666 
L 3809 1919 
L 2778 1919 
L 2778 2438 
L 4434 2438 
L 4434 434 
Q 4069 175 3628 42 
Q 3188 -91 2688 -91 
Q 1594 -91 976 548 
Q 359 1188 359 2328 
Q 359 3472 976 4111 
Q 1594 4750 2688 4750 
Q 3144 4750 3555 4637 
Q 3966 4525 4313 4306 
L 4313 3634 
Q 3963 3931 3569 4081 
Q 3175 4231 2741 4231 
Q 1884 4231 1454 3753 
Q 1025 3275 1025 2328 
Q 1025 1384 1454 906 
Q 1884 428 2741 428 
Q 3075 428 3337 486 
Q 3600 544 3809 666 
z
" transform="scale(0.015625)"/>
      </defs>
      <use xlink:href="#DejaVuSans-46"/>
      <use xlink:href="#DejaVuSans-65" x="52.019531"/>
      <use xlink:href="#DejaVuSans-64" x="113.542969"/>
      <use xlink:href="#DejaVuSans-41" x="177.019531"/>
      <use xlink:href="#DejaVuSans-56" x="239.052734"/>
      <use xlink:href="#DejaVuSans-47" x="307.460938"/>
     </g>
    </g>
    <g id="line2d_24">
     <path d="M 300.945625 224.982469 
L 311.945625 224.982469 
L 322.945625 224.982469 
" style="fill: none; stroke: #55a868; stroke-width: 1.5; stroke-linecap: round"/>
    </g>
    <g id="text_17">
     <!-- FedProto -->
     <g style="fill: #262626" transform="translate(331.745625 228.832469) scale(0.11 -0.11)">
      <use xlink:href="#DejaVuSans-46"/>
      <use xlink:href="#DejaVuSans-65" x="52.019531"/>
      <use xlink:href="#DejaVuSans-64" x="113.542969"/>
      <use xlink:href="#DejaVuSans-50" x="177.019531"/>
      <use xlink:href="#DejaVuSans-72" x="235.572266"/>
      <use xlink:href="#DejaVuSans-6f" x="274.435547"/>
      <use xlink:href="#DejaVuSans-74" x="335.617188"/>
      <use xlink:href="#DejaVuSans-6f" x="374.826172"/>
     </g>
    </g>
    <g id="line2d_25">
     <path d="M 300.945625 241.128406 
L 311.945625 241.128406 
L 322.945625 241.128406 
" style="fill: none; stroke: #c44e52; stroke-width: 1.5; stroke-linecap: round"/>
    </g>
    <g id="text_18">
     <!-- FedClassAvg -->
     <g style="fill: #262626" transform="translate(331.745625 244.978406) scale(0.11 -0.11)">
      <defs>
       <path id="DejaVuSans-43" d="M 4122 4306 
L 4122 3641 
Q 3803 3938 3442 4084 
Q 3081 4231 2675 4231 
Q 1875 4231 1450 3742 
Q 1025 3253 1025 2328 
Q 1025 1406 1450 917 
Q 1875 428 2675 428 
Q 3081 428 3442 575 
Q 3803 722 4122 1019 
L 4122 359 
Q 3791 134 3420 21 
Q 3050 -91 2638 -91 
Q 1578 -91 968 557 
Q 359 1206 359 2328 
Q 359 3453 968 4101 
Q 1578 4750 2638 4750 
Q 3056 4750 3426 4639 
Q 3797 4528 4122 4306 
z
" transform="scale(0.015625)"/>
       <path id="DejaVuSans-6c" d="M 603 4863 
L 1178 4863 
L 1178 0 
L 603 0 
L 603 4863 
z
" transform="scale(0.015625)"/>
       <path id="DejaVuSans-73" d="M 2834 3397 
L 2834 2853 
Q 2591 2978 2328 3040 
Q 2066 3103 1784 3103 
Q 1356 3103 1142 2972 
Q 928 2841 928 2578 
Q 928 2378 1081 2264 
Q 1234 2150 1697 2047 
L 1894 2003 
Q 2506 1872 2764 1633 
Q 3022 1394 3022 966 
Q 3022 478 2636 193 
Q 2250 -91 1575 -91 
Q 1294 -91 989 -36 
Q 684 19 347 128 
L 347 722 
Q 666 556 975 473 
Q 1284 391 1588 391 
Q 1994 391 2212 530 
Q 2431 669 2431 922 
Q 2431 1156 2273 1281 
Q 2116 1406 1581 1522 
L 1381 1569 
Q 847 1681 609 1914 
Q 372 2147 372 2553 
Q 372 3047 722 3315 
Q 1072 3584 1716 3584 
Q 2034 3584 2315 3537 
Q 2597 3491 2834 3397 
z
" transform="scale(0.015625)"/>
       <path id="DejaVuSans-76" d="M 191 3500 
L 800 3500 
L 1894 563 
L 2988 3500 
L 3597 3500 
L 2284 0 
L 1503 0 
L 191 3500 
z
" transform="scale(0.015625)"/>
      </defs>
      <use xlink:href="#DejaVuSans-46"/>
      <use xlink:href="#DejaVuSans-65" x="52.019531"/>
      <use xlink:href="#DejaVuSans-64" x="113.542969"/>
      <use xlink:href="#DejaVuSans-43" x="177.019531"/>
      <use xlink:href="#DejaVuSans-6c" x="246.84375"/>
      <use xlink:href="#DejaVuSans-61" x="274.626953"/>
      <use xlink:href="#DejaVuSans-73" x="335.90625"/>
      <use xlink:href="#DejaVuSans-73" x="388.005859"/>
      <use xlink:href="#DejaVuSans-41" x="440.105469"/>
      <use xlink:href="#DejaVuSans-76" x="502.638672"/>
      <use xlink:href="#DejaVuSans-67" x="561.818359"/>
     </g>
    </g>
    <g id="line2d_26">
     <path d="M 300.945625 257.274344 
L 311.945625 257.274344 
L 322.945625 257.274344 
" style="fill: none; stroke: #8172b3; stroke-width: 1.5; stroke-linecap: round"/>
    </g>
    <g id="text_19">
     <!-- FedPer -->
     <g style="fill: #262626" transform="translate(331.745625 261.124344) scale(0.11 -0.11)">
      <use xlink:href="#DejaVuSans-46"/>
      <use xlink:href="#DejaVuSans-65" x="52.019531"/>
      <use xlink:href="#DejaVuSans-64" x="113.542969"/>
      <use xlink:href="#DejaVuSans-50" x="177.019531"/>
      <use xlink:href="#DejaVuSans-65" x="233.697266"/>
      <use xlink:href="#DejaVuSans-72" x="295.220703"/>
     </g>
    </g>
   </g>
  </g>
 </g>
 <defs>
  <clipPath id="pa8a1d81848">
   <rect x="53.31" y="7.2" width="357.12" height="266.112"/>
  </clipPath>
 </defs>
</svg>
