<?xml version="1.0" encoding="utf-8" standalone="no"?>
<!DOCTYPE svg PUBLIC "-//W3C//DTD SVG 1.1//EN"
  "http://www.w3.org/Graphics/SVG/1.1/DTD/svg11.dtd">
<svg xmlns:xlink="http://www.w3.org/1999/xlink" width="414.127187pt" height="318.658116pt" viewBox="0 0 414.127187 318.658116" xmlns="http://www.w3.org/2000/svg" version="1.1">
 <metadata>
  <rdf:RDF xmlns:dc="http://purl.org/dc/elements/1.1/" xmlns:cc="http://creativecommons.org/ns#" xmlns:rdf="http://www.w3.org/1999/02/22-rdf-syntax-ns#">
   <cc:Work>
    <dc:type rdf:resource="http://purl.org/dc/dcmitype/StillImage"/>
    <dc:date>2023-02-06T20:08:20.157084</dc:date>
    <dc:format>image/svg+xml</dc:format>
    <dc:creator>
     <cc:Agent>
      <dc:title>Matplotlib v3.6.3, https://matplotlib.org/</dc:title>
     </cc:Agent>
    </dc:creator>
   </cc:Work>
  </rdf:RDF>
 </metadata>
 <defs>
  <style type="text/css">*{stroke-linejoin: round; stroke-linecap: butt}</style>
 </defs>
 <g id="figure_1">
  <g id="patch_1">
   <path d="M 0 318.658116 
L 414.127187 318.658116 
L 414.127187 0 
L 0 0 
z
" style="fill: #ffffff"/>
  </g>
  <g id="axes_1">
   <g id="patch_2">
    <path d="M 49.807187 275.698429 
L 406.927188 275.698429 
L 406.927188 9.586429 
L 49.807187 9.586429 
z
" style="fill: #ffffff"/>
   </g>
   <g id="matplotlib.axis_1">
    <g id="xtick_1">
     <g id="line2d_1">
      <path d="M 62.760576 275.698429 
L 62.760576 9.586429 
" clip-path="url(#p337bc7be15)" style="fill: none; stroke: #cccccc; stroke-linecap: round"/>
     </g>
     <g id="text_1">
      <!-- 0 -->
      <g style="fill: #262626" transform="translate(59.261201 293.55671) scale(0.11 -0.11)">
       <defs>
        <path id="DejaVuSans-30" d="M 2034 4250 
Q 1547 4250 1301 3770 
Q 1056 3291 1056 2328 
Q 1056 1369 1301 889 
Q 1547 409 2034 409 
Q 2525 409 2770 889 
Q 3016 1369 3016 2328 
Q 3016 3291 2770 3770 
Q 2525 4250 2034 4250 
z
M 2034 4750 
Q 2819 4750 3233 4129 
Q 3647 3509 3647 2328 
Q 3647 1150 3233 529 
Q 2819 -91 2034 -91 
Q 1250 -91 836 529 
Q 422 1150 422 2328 
Q 422 3509 836 4129 
Q 1250 4750 2034 4750 
z
" transform="scale(0.015625)"/>
       </defs>
       <use xlink:href="#DejaVuSans-30"/>
      </g>
     </g>
    </g>
    <g id="xtick_2">
     <g id="line2d_2">
      <path d="M 128.347353 275.698429 
L 128.347353 9.586429 
" clip-path="url(#p337bc7be15)" style="fill: none; stroke: #cccccc; stroke-linecap: round"/>
     </g>
     <g id="text_2">
      <!-- 20 -->
      <g style="fill: #262626" transform="translate(121.348603 293.55671) scale(0.11 -0.11)">
       <defs>
        <path id="DejaVuSans-32" d="M 1228 531 
L 3431 531 
L 3431 0 
L 469 0 
L 469 531 
Q 828 903 1448 1529 
Q 2069 2156 2228 2338 
Q 2531 2678 2651 2914 
Q 2772 3150 2772 3378 
Q 2772 3750 2511 3984 
Q 2250 4219 1831 4219 
Q 1534 4219 1204 4116 
Q 875 4013 500 3803 
L 500 4441 
Q 881 4594 1212 4672 
Q 1544 4750 1819 4750 
Q 2544 4750 2975 4387 
Q 3406 4025 3406 3419 
Q 3406 3131 3298 2873 
Q 3191 2616 2906 2266 
Q 2828 2175 2409 1742 
Q 1991 1309 1228 531 
z
" transform="scale(0.015625)"/>
       </defs>
       <use xlink:href="#DejaVuSans-32"/>
       <use xlink:href="#DejaVuSans-30" x="63.623047"/>
      </g>
     </g>
    </g>
    <g id="xtick_3">
     <g id="line2d_3">
      <path d="M 193.93413 275.698429 
L 193.93413 9.586429 
" clip-path="url(#p337bc7be15)" style="fill: none; stroke: #cccccc; stroke-linecap: round"/>
     </g>
     <g id="text_3">
      <!-- 40 -->
      <g style="fill: #262626" transform="translate(186.93538 293.55671) scale(0.11 -0.11)">
       <defs>
        <path id="DejaVuSans-34" d="M 2419 4116 
L 825 1625 
L 2419 1625 
L 2419 4116 
z
M 2253 4666 
L 3047 4666 
L 3047 1625 
L 3713 1625 
L 3713 1100 
L 3047 1100 
L 3047 0 
L 2419 0 
L 2419 1100 
L 313 1100 
L 313 1709 
L 2253 4666 
z
" transform="scale(0.015625)"/>
       </defs>
       <use xlink:href="#DejaVuSans-34"/>
       <use xlink:href="#DejaVuSans-30" x="63.623047"/>
      </g>
     </g>
    </g>
    <g id="xtick_4">
     <g id="line2d_4">
      <path d="M 259.520907 275.698429 
L 259.520907 9.586429 
" clip-path="url(#p337bc7be15)" style="fill: none; stroke: #cccccc; stroke-linecap: round"/>
     </g>
     <g id="text_4">
      <!-- 60 -->
      <g style="fill: #262626" transform="translate(252.522157 293.55671) scale(0.11 -0.11)">
       <defs>
        <path id="DejaVuSans-36" d="M 2113 2584 
Q 1688 2584 1439 2293 
Q 1191 2003 1191 1497 
Q 1191 994 1439 701 
Q 1688 409 2113 409 
Q 2538 409 2786 701 
Q 3034 994 3034 1497 
Q 3034 2003 2786 2293 
Q 2538 2584 2113 2584 
z
M 3366 4563 
L 3366 3988 
Q 3128 4100 2886 4159 
Q 2644 4219 2406 4219 
Q 1781 4219 1451 3797 
Q 1122 3375 1075 2522 
Q 1259 2794 1537 2939 
Q 1816 3084 2150 3084 
Q 2853 3084 3261 2657 
Q 3669 2231 3669 1497 
Q 3669 778 3244 343 
Q 2819 -91 2113 -91 
Q 1303 -91 875 529 
Q 447 1150 447 2328 
Q 447 3434 972 4092 
Q 1497 4750 2381 4750 
Q 2619 4750 2861 4703 
Q 3103 4656 3366 4563 
z
" transform="scale(0.015625)"/>
       </defs>
       <use xlink:href="#DejaVuSans-36"/>
       <use xlink:href="#DejaVuSans-30" x="63.623047"/>
      </g>
     </g>
    </g>
    <g id="xtick_5">
     <g id="line2d_5">
      <path d="M 325.107683 275.698429 
L 325.107683 9.586429 
" clip-path="url(#p337bc7be15)" style="fill: none; stroke: #cccccc; stroke-linecap: round"/>
     </g>
     <g id="text_5">
      <!-- 80 -->
      <g style="fill: #262626" transform="translate(318.108933 293.55671) scale(0.11 -0.11)">
       <defs>
        <path id="DejaVuSans-38" d="M 2034 2216 
Q 1584 2216 1326 1975 
Q 1069 1734 1069 1313 
Q 1069 891 1326 650 
Q 1584 409 2034 409 
Q 2484 409 2743 651 
Q 3003 894 3003 1313 
Q 3003 1734 2745 1975 
Q 2488 2216 2034 2216 
z
M 1403 2484 
Q 997 2584 770 2862 
Q 544 3141 544 3541 
Q 544 4100 942 4425 
Q 1341 4750 2034 4750 
Q 2731 4750 3128 4425 
Q 3525 4100 3525 3541 
Q 3525 3141 3298 2862 
Q 3072 2584 2669 2484 
Q 3125 2378 3379 2068 
Q 3634 1759 3634 1313 
Q 3634 634 3220 271 
Q 2806 -91 2034 -91 
Q 1263 -91 848 271 
Q 434 634 434 1313 
Q 434 1759 690 2068 
Q 947 2378 1403 2484 
z
M 1172 3481 
Q 1172 3119 1398 2916 
Q 1625 2713 2034 2713 
Q 2441 2713 2670 2916 
Q 2900 3119 2900 3481 
Q 2900 3844 2670 4047 
Q 2441 4250 2034 4250 
Q 1625 4250 1398 4047 
Q 1172 3844 1172 3481 
z
" transform="scale(0.015625)"/>
       </defs>
       <use xlink:href="#DejaVuSans-38"/>
       <use xlink:href="#DejaVuSans-30" x="63.623047"/>
      </g>
     </g>
    </g>
    <g id="xtick_6">
     <g id="line2d_6">
      <path d="M 390.69446 275.698429 
L 390.69446 9.586429 
" clip-path="url(#p337bc7be15)" style="fill: none; stroke: #cccccc; stroke-linecap: round"/>
     </g>
     <g id="text_6">
      <!-- 100 -->
      <g style="fill: #262626" transform="translate(380.196335 293.55671) scale(0.11 -0.11)">
       <defs>
        <path id="DejaVuSans-31" d="M 794 531 
L 1825 531 
L 1825 4091 
L 703 3866 
L 703 4441 
L 1819 4666 
L 2450 4666 
L 2450 531 
L 3481 531 
L 3481 0 
L 794 0 
L 794 531 
z
" transform="scale(0.015625)"/>
       </defs>
       <use xlink:href="#DejaVuSans-31"/>
       <use xlink:href="#DejaVuSans-30" x="63.623047"/>
       <use xlink:href="#DejaVuSans-30" x="127.246094"/>
      </g>
     </g>
    </g>
    <g id="text_7">
     <!-- Round -->
     <g style="fill: #262626" transform="translate(209.382812 308.962491) scale(0.12 -0.12)">
      <defs>
       <path id="DejaVuSans-52" d="M 2841 2188 
Q 3044 2119 3236 1894 
Q 3428 1669 3622 1275 
L 4263 0 
L 3584 0 
L 2988 1197 
Q 2756 1666 2539 1819 
Q 2322 1972 1947 1972 
L 1259 1972 
L 1259 0 
L 628 0 
L 628 4666 
L 2053 4666 
Q 2853 4666 3247 4331 
Q 3641 3997 3641 3322 
Q 3641 2881 3436 2590 
Q 3231 2300 2841 2188 
z
M 1259 4147 
L 1259 2491 
L 2053 2491 
Q 2509 2491 2742 2702 
Q 2975 2913 2975 3322 
Q 2975 3731 2742 3939 
Q 2509 4147 2053 4147 
L 1259 4147 
z
" transform="scale(0.015625)"/>
       <path id="DejaVuSans-6f" d="M 1959 3097 
Q 1497 3097 1228 2736 
Q 959 2375 959 1747 
Q 959 1119 1226 758 
Q 1494 397 1959 397 
Q 2419 397 2687 759 
Q 2956 1122 2956 1747 
Q 2956 2369 2687 2733 
Q 2419 3097 1959 3097 
z
M 1959 3584 
Q 2709 3584 3137 3096 
Q 3566 2609 3566 1747 
Q 3566 888 3137 398 
Q 2709 -91 1959 -91 
Q 1206 -91 779 398 
Q 353 888 353 1747 
Q 353 2609 779 3096 
Q 1206 3584 1959 3584 
z
" transform="scale(0.015625)"/>
       <path id="DejaVuSans-75" d="M 544 1381 
L 544 3500 
L 1119 3500 
L 1119 1403 
Q 1119 906 1312 657 
Q 1506 409 1894 409 
Q 2359 409 2629 706 
Q 2900 1003 2900 1516 
L 2900 3500 
L 3475 3500 
L 3475 0 
L 2900 0 
L 2900 538 
Q 2691 219 2414 64 
Q 2138 -91 1772 -91 
Q 1169 -91 856 284 
Q 544 659 544 1381 
z
M 1991 3584 
L 1991 3584 
z
" transform="scale(0.015625)"/>
       <path id="DejaVuSans-6e" d="M 3513 2113 
L 3513 0 
L 2938 0 
L 2938 2094 
Q 2938 2591 2744 2837 
Q 2550 3084 2163 3084 
Q 1697 3084 1428 2787 
Q 1159 2491 1159 1978 
L 1159 0 
L 581 0 
L 581 3500 
L 1159 3500 
L 1159 2956 
Q 1366 3272 1645 3428 
Q 1925 3584 2291 3584 
Q 2894 3584 3203 3211 
Q 3513 2838 3513 2113 
z
" transform="scale(0.015625)"/>
       <path id="DejaVuSans-64" d="M 2906 2969 
L 2906 4863 
L 3481 4863 
L 3481 0 
L 2906 0 
L 2906 525 
Q 2725 213 2448 61 
Q 2172 -91 1784 -91 
Q 1150 -91 751 415 
Q 353 922 353 1747 
Q 353 2572 751 3078 
Q 1150 3584 1784 3584 
Q 2172 3584 2448 3432 
Q 2725 3281 2906 2969 
z
M 947 1747 
Q 947 1113 1208 752 
Q 1469 391 1925 391 
Q 2381 391 2643 752 
Q 2906 1113 2906 1747 
Q 2906 2381 2643 2742 
Q 2381 3103 1925 3103 
Q 1469 3103 1208 2742 
Q 947 2381 947 1747 
z
" transform="scale(0.015625)"/>
      </defs>
      <use xlink:href="#DejaVuSans-52"/>
      <use xlink:href="#DejaVuSans-6f" x="64.982422"/>
      <use xlink:href="#DejaVuSans-75" x="126.164062"/>
      <use xlink:href="#DejaVuSans-6e" x="189.542969"/>
      <use xlink:href="#DejaVuSans-64" x="252.921875"/>
     </g>
    </g>
   </g>
   <g id="matplotlib.axis_2">
    <g id="ytick_1">
     <g id="line2d_7">
      <path d="M 49.807187 264.923698 
L 406.927188 264.923698 
" clip-path="url(#p337bc7be15)" style="fill: none; stroke: #cccccc; stroke-linecap: round"/>
     </g>
     <g id="text_8">
      <!-- 0.0 -->
      <g style="fill: #262626" transform="translate(22.81375 269.102839) scale(0.11 -0.11)">
       <defs>
        <path id="DejaVuSans-2e" d="M 684 794 
L 1344 794 
L 1344 0 
L 684 0 
L 684 794 
z
" transform="scale(0.015625)"/>
       </defs>
       <use xlink:href="#DejaVuSans-30"/>
       <use xlink:href="#DejaVuSans-2e" x="63.623047"/>
       <use xlink:href="#DejaVuSans-30" x="95.410156"/>
      </g>
     </g>
    </g>
    <g id="ytick_2">
     <g id="line2d_8">
      <path d="M 49.807187 228.703047 
L 406.927188 228.703047 
" clip-path="url(#p337bc7be15)" style="fill: none; stroke: #cccccc; stroke-linecap: round"/>
     </g>
     <g id="text_9">
      <!-- 0.5 -->
      <g style="fill: #262626" transform="translate(22.81375 232.882188) scale(0.11 -0.11)">
       <defs>
        <path id="DejaVuSans-35" d="M 691 4666 
L 3169 4666 
L 3169 4134 
L 1269 4134 
L 1269 2991 
Q 1406 3038 1543 3061 
Q 1681 3084 1819 3084 
Q 2600 3084 3056 2656 
Q 3513 2228 3513 1497 
Q 3513 744 3044 326 
Q 2575 -91 1722 -91 
Q 1428 -91 1123 -41 
Q 819 9 494 109 
L 494 744 
Q 775 591 1075 516 
Q 1375 441 1709 441 
Q 2250 441 2565 725 
Q 2881 1009 2881 1497 
Q 2881 1984 2565 2268 
Q 2250 2553 1709 2553 
Q 1456 2553 1204 2497 
Q 953 2441 691 2322 
L 691 4666 
z
" transform="scale(0.015625)"/>
       </defs>
       <use xlink:href="#DejaVuSans-30"/>
       <use xlink:href="#DejaVuSans-2e" x="63.623047"/>
       <use xlink:href="#DejaVuSans-35" x="95.410156"/>
      </g>
     </g>
    </g>
    <g id="ytick_3">
     <g id="line2d_9">
      <path d="M 49.807187 192.482396 
L 406.927188 192.482396 
" clip-path="url(#p337bc7be15)" style="fill: none; stroke: #cccccc; stroke-linecap: round"/>
     </g>
     <g id="text_10">
      <!-- 1.0 -->
      <g style="fill: #262626" transform="translate(22.81375 196.661537) scale(0.11 -0.11)">
       <use xlink:href="#DejaVuSans-31"/>
       <use xlink:href="#DejaVuSans-2e" x="63.623047"/>
       <use xlink:href="#DejaVuSans-30" x="95.410156"/>
      </g>
     </g>
    </g>
    <g id="ytick_4">
     <g id="line2d_10">
      <path d="M 49.807187 156.261745 
L 406.927188 156.261745 
" clip-path="url(#p337bc7be15)" style="fill: none; stroke: #cccccc; stroke-linecap: round"/>
     </g>
     <g id="text_11">
      <!-- 1.5 -->
      <g style="fill: #262626" transform="translate(22.81375 160.440886) scale(0.11 -0.11)">
       <use xlink:href="#DejaVuSans-31"/>
       <use xlink:href="#DejaVuSans-2e" x="63.623047"/>
       <use xlink:href="#DejaVuSans-35" x="95.410156"/>
      </g>
     </g>
    </g>
    <g id="ytick_5">
     <g id="line2d_11">
      <path d="M 49.807187 120.041094 
L 406.927188 120.041094 
" clip-path="url(#p337bc7be15)" style="fill: none; stroke: #cccccc; stroke-linecap: round"/>
     </g>
     <g id="text_12">
      <!-- 2.0 -->
      <g style="fill: #262626" transform="translate(22.81375 124.220234) scale(0.11 -0.11)">
       <use xlink:href="#DejaVuSans-32"/>
       <use xlink:href="#DejaVuSans-2e" x="63.623047"/>
       <use xlink:href="#DejaVuSans-30" x="95.410156"/>
      </g>
     </g>
    </g>
    <g id="ytick_6">
     <g id="line2d_12">
      <path d="M 49.807187 83.820443 
L 406.927188 83.820443 
" clip-path="url(#p337bc7be15)" style="fill: none; stroke: #cccccc; stroke-linecap: round"/>
     </g>
     <g id="text_13">
      <!-- 2.5 -->
      <g style="fill: #262626" transform="translate(22.81375 87.999583) scale(0.11 -0.11)">
       <use xlink:href="#DejaVuSans-32"/>
       <use xlink:href="#DejaVuSans-2e" x="63.623047"/>
       <use xlink:href="#DejaVuSans-35" x="95.410156"/>
      </g>
     </g>
    </g>
    <g id="ytick_7">
     <g id="line2d_13">
      <path d="M 49.807187 47.599792 
L 406.927188 47.599792 
" clip-path="url(#p337bc7be15)" style="fill: none; stroke: #cccccc; stroke-linecap: round"/>
     </g>
     <g id="text_14">
      <!-- 3.0 -->
      <g style="fill: #262626" transform="translate(22.81375 51.778932) scale(0.11 -0.11)">
       <defs>
        <path id="DejaVuSans-33" d="M 2597 2516 
Q 3050 2419 3304 2112 
Q 3559 1806 3559 1356 
Q 3559 666 3084 287 
Q 2609 -91 1734 -91 
Q 1441 -91 1130 -33 
Q 819 25 488 141 
L 488 750 
Q 750 597 1062 519 
Q 1375 441 1716 441 
Q 2309 441 2620 675 
Q 2931 909 2931 1356 
Q 2931 1769 2642 2001 
Q 2353 2234 1838 2234 
L 1294 2234 
L 1294 2753 
L 1863 2753 
Q 2328 2753 2575 2939 
Q 2822 3125 2822 3475 
Q 2822 3834 2567 4026 
Q 2313 4219 1838 4219 
Q 1578 4219 1281 4162 
Q 984 4106 628 3988 
L 628 4550 
Q 988 4650 1302 4700 
Q 1616 4750 1894 4750 
Q 2613 4750 3031 4423 
Q 3450 4097 3450 3541 
Q 3450 3153 3228 2886 
Q 3006 2619 2597 2516 
z
" transform="scale(0.015625)"/>
       </defs>
       <use xlink:href="#DejaVuSans-33"/>
       <use xlink:href="#DejaVuSans-2e" x="63.623047"/>
       <use xlink:href="#DejaVuSans-30" x="95.410156"/>
      </g>
     </g>
    </g>
    <g id="ytick_8">
     <g id="line2d_14">
      <path d="M 49.807187 11.379141 
L 406.927188 11.379141 
" clip-path="url(#p337bc7be15)" style="fill: none; stroke: #cccccc; stroke-linecap: round"/>
     </g>
     <g id="text_15">
      <!-- 3.5 -->
      <g style="fill: #262626" transform="translate(22.81375 15.558281) scale(0.11 -0.11)">
       <use xlink:href="#DejaVuSans-33"/>
       <use xlink:href="#DejaVuSans-2e" x="63.623047"/>
       <use xlink:href="#DejaVuSans-35" x="95.410156"/>
      </g>
     </g>
    </g>
    <g id="text_16">
     <!-- Loss -->
     <g style="fill: #262626" transform="translate(16.318125 155.803054) rotate(-90) scale(0.12 -0.12)">
      <defs>
       <path id="DejaVuSans-4c" d="M 628 4666 
L 1259 4666 
L 1259 531 
L 3531 531 
L 3531 0 
L 628 0 
L 628 4666 
z
" transform="scale(0.015625)"/>
       <path id="DejaVuSans-73" d="M 2834 3397 
L 2834 2853 
Q 2591 2978 2328 3040 
Q 2066 3103 1784 3103 
Q 1356 3103 1142 2972 
Q 928 2841 928 2578 
Q 928 2378 1081 2264 
Q 1234 2150 1697 2047 
L 1894 2003 
Q 2506 1872 2764 1633 
Q 3022 1394 3022 966 
Q 3022 478 2636 193 
Q 2250 -91 1575 -91 
Q 1294 -91 989 -36 
Q 684 19 347 128 
L 347 722 
Q 666 556 975 473 
Q 1284 391 1588 391 
Q 1994 391 2212 530 
Q 2431 669 2431 922 
Q 2431 1156 2273 1281 
Q 2116 1406 1581 1522 
L 1381 1569 
Q 847 1681 609 1914 
Q 372 2147 372 2553 
Q 372 3047 722 3315 
Q 1072 3584 1716 3584 
Q 2034 3584 2315 3537 
Q 2597 3491 2834 3397 
z
" transform="scale(0.015625)"/>
      </defs>
      <use xlink:href="#DejaVuSans-4c"/>
      <use xlink:href="#DejaVuSans-6f" x="53.962891"/>
      <use xlink:href="#DejaVuSans-73" x="115.144531"/>
      <use xlink:href="#DejaVuSans-73" x="167.244141"/>
     </g>
    </g>
   </g>
   <g id="PolyCollection_1">
    <defs>
     <path id="mdf9cafb8ff" d="M 66.039915 -232.205164 
L 66.039915 -177.618124 
L 69.319254 -129.099578 
L 72.598592 -126.06128 
L 75.877931 -106.298429 
L 79.15727 -82.695823 
L 82.436609 -80.58425 
L 85.715948 -68.37098 
L 88.995287 -68.822682 
L 92.274626 -63.966515 
L 95.553964 -61.023663 
L 98.833303 -61.074923 
L 102.112642 -59.748403 
L 105.391981 -58.88534 
L 108.67132 -59.097167 
L 111.950659 -59.930899 
L 115.229997 -59.433414 
L 118.509336 -58.725887 
L 121.788675 -57.981599 
L 125.068014 -58.329793 
L 128.347353 -57.696435 
L 131.626692 -57.74163 
L 134.90603 -56.898097 
L 138.185369 -57.166783 
L 141.464708 -57.261895 
L 144.744047 -56.750191 
L 148.023386 -56.90655 
L 151.302725 -57.223679 
L 154.582064 -56.986515 
L 157.861402 -57.039744 
L 161.140741 -57.259744 
L 164.42008 -56.517742 
L 167.699419 -56.282357 
L 170.978758 -56.445342 
L 174.258097 -56.137696 
L 177.537435 -56.092157 
L 180.816774 -56.322772 
L 184.096113 -56.041754 
L 187.375452 -55.795218 
L 190.654791 -56.13327 
L 193.93413 -55.956052 
L 197.213468 -55.87731 
L 200.492807 -55.852718 
L 203.772146 -55.700849 
L 207.051485 -55.666732 
L 210.330824 -55.486275 
L 213.610163 -55.81043 
L 216.889502 -55.712426 
L 220.16884 -55.703374 
L 223.448179 -55.646693 
L 226.727518 -55.477944 
L 230.006857 -55.732991 
L 233.286196 -55.562686 
L 236.565535 -55.585428 
L 239.844873 -55.449756 
L 243.124212 -55.524981 
L 246.403551 -55.380267 
L 249.68289 -55.540063 
L 252.962229 -55.57457 
L 256.241568 -55.774784 
L 259.520907 -55.619419 
L 262.800245 -55.773437 
L 266.079584 -55.436663 
L 269.358923 -55.492463 
L 272.638262 -55.32476 
L 275.917601 -55.184877 
L 279.19694 -55.112934 
L 282.476278 -55.055687 
L 285.755617 -55.091541 
L 289.034956 -55.139525 
L 292.314295 -56.674934 
L 295.593634 -56.618485 
L 298.872973 -56.572519 
L 302.152311 -56.623406 
L 305.43165 -56.613373 
L 308.710989 -56.414874 
L 311.990328 -56.341075 
L 315.269667 -56.402377 
L 318.549006 -56.342325 
L 321.828345 -56.284437 
L 325.107683 -56.434432 
L 328.387022 -56.443425 
L 331.666361 -56.477249 
L 334.9457 -56.30531 
L 338.225039 -56.507787 
L 341.504378 -56.547875 
L 344.783716 -56.77366 
L 348.063055 -56.657166 
L 351.342394 -56.734883 
L 354.621733 -56.550122 
L 357.901072 -56.741238 
L 361.180411 -56.50375 
L 364.459749 -56.303772 
L 367.739088 -56.418614 
L 371.018427 -56.371587 
L 374.297766 -56.426795 
L 377.577105 -56.369509 
L 380.856444 -56.425661 
L 384.135783 -56.431271 
L 387.415121 -56.400862 
L 390.69446 -56.412402 
L 390.69446 -64.824563 
L 390.69446 -64.824563 
L 387.415121 -64.853973 
L 384.135783 -65.324121 
L 380.856444 -64.767806 
L 377.577105 -65.108385 
L 374.297766 -64.313924 
L 371.018427 -64.53103 
L 367.739088 -64.107953 
L 364.459749 -64.810907 
L 361.180411 -65.08003 
L 357.901072 -65.266448 
L 354.621733 -64.58348 
L 351.342394 -65.15023 
L 348.063055 -64.898987 
L 344.783716 -64.654413 
L 341.504378 -64.699796 
L 338.225039 -64.390661 
L 334.9457 -64.382851 
L 331.666361 -64.530558 
L 328.387022 -64.556771 
L 325.107683 -64.544761 
L 321.828345 -64.172904 
L 318.549006 -64.219188 
L 315.269667 -64.542888 
L 311.990328 -64.169172 
L 308.710989 -63.906684 
L 305.43165 -65.659576 
L 302.152311 -64.935296 
L 298.872973 -64.804713 
L 295.593634 -64.960029 
L 292.314295 -63.580217 
L 289.034956 -58.273798 
L 285.755617 -58.112698 
L 282.476278 -58.416531 
L 279.19694 -57.944847 
L 275.917601 -58.425141 
L 272.638262 -57.507231 
L 269.358923 -57.522375 
L 266.079584 -58.01767 
L 262.800245 -59.032288 
L 259.520907 -59.116046 
L 256.241568 -58.524604 
L 252.962229 -58.047634 
L 249.68289 -58.45196 
L 246.403551 -56.875365 
L 243.124212 -57.252308 
L 239.844873 -56.98384 
L 236.565535 -57.222876 
L 233.286196 -57.212924 
L 230.006857 -57.50647 
L 226.727518 -57.299168 
L 223.448179 -57.952611 
L 220.16884 -57.919093 
L 216.889502 -57.741842 
L 213.610163 -57.636504 
L 210.330824 -58.211609 
L 207.051485 -59.229569 
L 203.772146 -58.650757 
L 200.492807 -59.326817 
L 197.213468 -58.857475 
L 193.93413 -59.880592 
L 190.654791 -61.124361 
L 187.375452 -58.296425 
L 184.096113 -58.897798 
L 180.816774 -59.408682 
L 177.537435 -59.482276 
L 174.258097 -60.307147 
L 170.978758 -59.877884 
L 167.699419 -61.900028 
L 164.42008 -62.43935 
L 161.140741 -62.572683 
L 157.861402 -62.607949 
L 154.582064 -61.435094 
L 151.302725 -60.670524 
L 148.023386 -59.262429 
L 144.744047 -59.572187 
L 141.464708 -59.741002 
L 138.185369 -60.035808 
L 134.90603 -61.391178 
L 131.626692 -62.522419 
L 128.347353 -64.908847 
L 125.068014 -64.127599 
L 121.788675 -61.187456 
L 118.509336 -68.289565 
L 115.229997 -68.60157 
L 111.950659 -69.944542 
L 108.67132 -68.621898 
L 105.391981 -67.88753 
L 102.112642 -67.165297 
L 98.833303 -69.295374 
L 95.553964 -69.006873 
L 92.274626 -81.188554 
L 88.995287 -92.598467 
L 85.715948 -87.760697 
L 82.436609 -113.313389 
L 79.15727 -127.722896 
L 75.877931 -160.731209 
L 72.598592 -177.577472 
L 69.319254 -172.672311 
L 66.039915 -232.205164 
z
" style="stroke: #4c72b0; stroke-opacity: 0.2"/>
    </defs>
    <g clip-path="url(#p337bc7be15)">
     <use xlink:href="#mdf9cafb8ff" x="0" y="318.658116" style="fill: #4c72b0; fill-opacity: 0.2; stroke: #4c72b0; stroke-opacity: 0.2"/>
    </g>
   </g>
   <g id="PolyCollection_2">
    <defs>
     <path id="m931f7aa744" d="M 66.039915 -254.35129 
L 66.039915 -217.594162 
L 69.319254 -174.049645 
L 72.598592 -186.374096 
L 75.877931 -158.992307 
L 79.15727 -135.600467 
L 82.436609 -133.37024 
L 85.715948 -100.617009 
L 88.995287 -104.368817 
L 92.274626 -96.62248 
L 95.553964 -83.502846 
L 98.833303 -84.986576 
L 102.112642 -79.308764 
L 105.391981 -80.064586 
L 108.67132 -80.997391 
L 111.950659 -91.960576 
L 115.229997 -93.202944 
L 118.509336 -80.938743 
L 121.788675 -85.273548 
L 125.068014 -83.250599 
L 128.347353 -81.483265 
L 131.626692 -80.07289 
L 134.90603 -74.944961 
L 138.185369 -80.084898 
L 141.464708 -75.233398 
L 144.744047 -70.301598 
L 148.023386 -80.428355 
L 151.302725 -90.310968 
L 154.582064 -87.82239 
L 157.861402 -76.182686 
L 161.140741 -91.545523 
L 164.42008 -71.888798 
L 167.699419 -71.774377 
L 170.978758 -79.201725 
L 174.258097 -71.179805 
L 177.537435 -69.944269 
L 180.816774 -75.523382 
L 184.096113 -72.167402 
L 187.375452 -67.926396 
L 190.654791 -82.096375 
L 193.93413 -68.627232 
L 197.213468 -70.665072 
L 200.492807 -67.507829 
L 203.772146 -64.770042 
L 207.051485 -66.845025 
L 210.330824 -66.919211 
L 213.610163 -80.892318 
L 216.889502 -74.145983 
L 220.16884 -76.291681 
L 223.448179 -68.54046 
L 226.727518 -65.586998 
L 230.006857 -71.055302 
L 233.286196 -63.342505 
L 236.565535 -64.898145 
L 239.844873 -63.731163 
L 243.124212 -65.258735 
L 246.403551 -62.402464 
L 249.68289 -63.913418 
L 252.962229 -76.81889 
L 256.241568 -62.953016 
L 259.520907 -75.078099 
L 262.800245 -86.834293 
L 266.079584 -62.279409 
L 269.358923 -66.369201 
L 272.638262 -64.346857 
L 275.917601 -63.401202 
L 279.19694 -65.796392 
L 282.476278 -76.553482 
L 285.755617 -73.636558 
L 289.034956 -69.950889 
L 292.314295 -65.553766 
L 295.593634 -73.976441 
L 298.872973 -69.273827 
L 302.152311 -66.850963 
L 305.43165 -72.566531 
L 308.710989 -64.619693 
L 311.990328 -65.547881 
L 315.269667 -66.370966 
L 318.549006 -62.032513 
L 321.828345 -64.108105 
L 325.107683 -62.628735 
L 328.387022 -62.013846 
L 331.666361 -70.583302 
L 334.9457 -64.786532 
L 338.225039 -64.985911 
L 341.504378 -67.736225 
L 344.783716 -64.503478 
L 348.063055 -64.539736 
L 351.342394 -64.722575 
L 354.621733 -61.892122 
L 357.901072 -70.003289 
L 361.180411 -63.430394 
L 364.459749 -61.617904 
L 367.739088 -60.563024 
L 371.018427 -62.456084 
L 374.297766 -71.68147 
L 377.577105 -67.877273 
L 380.856444 -63.359773 
L 384.135783 -60.997035 
L 387.415121 -63.36059 
L 390.69446 -60.858197 
L 390.69446 -67.280018 
L 390.69446 -67.280018 
L 387.415121 -72.120054 
L 384.135783 -63.60624 
L 380.856444 -66.552699 
L 377.577105 -77.460814 
L 374.297766 -85.355315 
L 371.018427 -65.82615 
L 367.739088 -63.683533 
L 364.459749 -65.53129 
L 361.180411 -68.979454 
L 357.901072 -78.90617 
L 354.621733 -66.362002 
L 351.342394 -70.916453 
L 348.063055 -71.36077 
L 344.783716 -72.005351 
L 341.504378 -76.69022 
L 338.225039 -71.746483 
L 334.9457 -73.840567 
L 331.666361 -79.830408 
L 328.387022 -64.732127 
L 325.107683 -67.362989 
L 321.828345 -69.885826 
L 318.549006 -64.99544 
L 315.269667 -72.232812 
L 311.990328 -72.123397 
L 308.710989 -70.054971 
L 305.43165 -87.337793 
L 302.152311 -74.940645 
L 298.872973 -81.897003 
L 295.593634 -86.906354 
L 292.314295 -70.586752 
L 289.034956 -89.692374 
L 285.755617 -94.041101 
L 282.476278 -102.62144 
L 279.19694 -77.039014 
L 275.917601 -69.25079 
L 272.638262 -70.743337 
L 269.358923 -72.9933 
L 266.079584 -65.879719 
L 262.800245 -113.138867 
L 259.520907 -89.047879 
L 256.241568 -68.521856 
L 252.962229 -99.307269 
L 249.68289 -69.803438 
L 246.403551 -66.736183 
L 243.124212 -76.625009 
L 239.844873 -71.096373 
L 236.565535 -72.640096 
L 233.286196 -66.671044 
L 230.006857 -82.029338 
L 226.727518 -70.320959 
L 223.448179 -81.033229 
L 220.16884 -106.850672 
L 216.889502 -86.128611 
L 213.610163 -111.767487 
L 210.330824 -77.095136 
L 207.051485 -81.512412 
L 203.772146 -70.249291 
L 200.492807 -72.133313 
L 197.213468 -81.909628 
L 193.93413 -79.215437 
L 190.654791 -97.017822 
L 187.375452 -73.611448 
L 184.096113 -87.267596 
L 180.816774 -88.481234 
L 177.537435 -78.962907 
L 174.258097 -78.193917 
L 170.978758 -95.768084 
L 167.699419 -90.552733 
L 164.42008 -93.639287 
L 161.140741 -138.473132 
L 157.861402 -103.723362 
L 154.582064 -121.434649 
L 151.302725 -127.17221 
L 148.023386 -103.658292 
L 144.744047 -78.566746 
L 141.464708 -88.096958 
L 138.185369 -93.75689 
L 134.90603 -82.150261 
L 131.626692 -97.372512 
L 128.347353 -103.311171 
L 125.068014 -107.956921 
L 121.788675 -107.166862 
L 118.509336 -106.196216 
L 115.229997 -126.903231 
L 111.950659 -130.711815 
L 108.67132 -97.088521 
L 105.391981 -90.026183 
L 102.112642 -94.506984 
L 98.833303 -99.811626 
L 95.553964 -103.36442 
L 92.274626 -116.231358 
L 88.995287 -139.431318 
L 85.715948 -128.808199 
L 82.436609 -169.807184 
L 79.15727 -180.314839 
L 75.877931 -213.009445 
L 72.598592 -228.010245 
L 69.319254 -196.045144 
L 66.039915 -254.35129 
z
" style="stroke: #dd8452; stroke-opacity: 0.2"/>
    </defs>
    <g clip-path="url(#p337bc7be15)">
     <use xlink:href="#m931f7aa744" x="0" y="318.658116" style="fill: #dd8452; fill-opacity: 0.2; stroke: #dd8452; stroke-opacity: 0.2"/>
    </g>
   </g>
   <g id="PolyCollection_3">
    <defs>
     <path id="m687eb201ec" d="M 66.039915 -238.067496 
L 66.039915 -214.60714 
L 69.319254 -195.840966 
L 72.598592 -189.967487 
L 75.877931 -177.052244 
L 79.15727 -173.359213 
L 82.436609 -163.91867 
L 85.715948 -153.170145 
L 88.995287 -143.952955 
L 92.274626 -137.705212 
L 95.553964 -135.568182 
L 98.833303 -127.995266 
L 102.112642 -124.776108 
L 105.391981 -117.920638 
L 108.67132 -116.417478 
L 111.950659 -112.490592 
L 115.229997 -110.210656 
L 118.509336 -109.193785 
L 121.788675 -106.722956 
L 125.068014 -103.073553 
L 128.347353 -101.399354 
L 131.626692 -98.445462 
L 134.90603 -97.378387 
L 138.185369 -95.558409 
L 141.464708 -93.781077 
L 144.744047 -91.033472 
L 148.023386 -91.638896 
L 151.302725 -90.144468 
L 154.582064 -86.689929 
L 157.861402 -87.528643 
L 161.140741 -87.098092 
L 164.42008 -84.636957 
L 167.699419 -83.53301 
L 170.978758 -82.281039 
L 174.258097 -80.768489 
L 177.537435 -80.328413 
L 180.816774 -78.705708 
L 184.096113 -78.523882 
L 187.375452 -77.923235 
L 190.654791 -76.666899 
L 193.93413 -76.564887 
L 197.213468 -76.527932 
L 200.492807 -74.747813 
L 203.772146 -73.896129 
L 207.051485 -73.967753 
L 210.330824 -73.296685 
L 213.610163 -72.978445 
L 216.889502 -71.3244 
L 220.16884 -70.479395 
L 223.448179 -70.690999 
L 226.727518 -70.205218 
L 230.006857 -70.598646 
L 233.286196 -69.414622 
L 236.565535 -69.192331 
L 239.844873 -68.915994 
L 243.124212 -68.411467 
L 246.403551 -69.459518 
L 249.68289 -68.016825 
L 252.962229 -68.289787 
L 256.241568 -68.666012 
L 259.520907 -67.415963 
L 262.800245 -66.786899 
L 266.079584 -66.372178 
L 269.358923 -67.321119 
L 272.638262 -67.610662 
L 275.917601 -66.631176 
L 279.19694 -66.150141 
L 282.476278 -65.615755 
L 285.755617 -65.587089 
L 289.034956 -65.613471 
L 292.314295 -89.22436 
L 295.593634 -89.466807 
L 298.872973 -88.836372 
L 302.152311 -89.700582 
L 305.43165 -88.636925 
L 308.710989 -89.286163 
L 311.990328 -87.798846 
L 315.269667 -87.911644 
L 318.549006 -88.649211 
L 321.828345 -87.782079 
L 325.107683 -88.973118 
L 328.387022 -87.914007 
L 331.666361 -87.691737 
L 334.9457 -87.327943 
L 338.225039 -88.084657 
L 341.504378 -88.37816 
L 344.783716 -87.001089 
L 348.063055 -87.051592 
L 351.342394 -86.349365 
L 354.621733 -87.783123 
L 357.901072 -86.775412 
L 361.180411 -87.26918 
L 364.459749 -87.573691 
L 367.739088 -87.210256 
L 371.018427 -87.777284 
L 374.297766 -86.989507 
L 377.577105 -87.753122 
L 380.856444 -87.436356 
L 384.135783 -84.95571 
L 387.415121 -85.534716 
L 390.69446 -86.212918 
L 390.69446 -119.142497 
L 390.69446 -119.142497 
L 387.415121 -119.171154 
L 384.135783 -118.231883 
L 380.856444 -120.363948 
L 377.577105 -120.417302 
L 374.297766 -118.700599 
L 371.018427 -119.178813 
L 367.739088 -119.382088 
L 364.459749 -119.94006 
L 361.180411 -120.502132 
L 357.901072 -120.649856 
L 354.621733 -120.353399 
L 351.342394 -119.596431 
L 348.063055 -121.204515 
L 344.783716 -119.949049 
L 341.504378 -123.50081 
L 338.225039 -121.972532 
L 334.9457 -120.515273 
L 331.666361 -119.409435 
L 328.387022 -120.542791 
L 325.107683 -120.733845 
L 321.828345 -122.139361 
L 318.549006 -120.278422 
L 315.269667 -121.843224 
L 311.990328 -122.933516 
L 308.710989 -122.988073 
L 305.43165 -120.909188 
L 302.152311 -122.78085 
L 298.872973 -122.954457 
L 295.593634 -123.488169 
L 292.314295 -122.531075 
L 289.034956 -89.626087 
L 285.755617 -90.239862 
L 282.476278 -90.961396 
L 279.19694 -90.907115 
L 275.917601 -90.4657 
L 272.638262 -92.25835 
L 269.358923 -92.843252 
L 266.079584 -92.99819 
L 262.800245 -91.606876 
L 259.520907 -93.902691 
L 256.241568 -93.241726 
L 252.962229 -94.959573 
L 249.68289 -94.331604 
L 246.403551 -96.979625 
L 243.124212 -97.160045 
L 239.844873 -94.923009 
L 236.565535 -94.744391 
L 233.286196 -95.558561 
L 230.006857 -98.302416 
L 226.727518 -96.563123 
L 223.448179 -97.144603 
L 220.16884 -99.422988 
L 216.889502 -97.408452 
L 213.610163 -99.42817 
L 210.330824 -100.493112 
L 207.051485 -102.07628 
L 203.772146 -101.938231 
L 200.492807 -102.86471 
L 197.213468 -104.400412 
L 193.93413 -103.371676 
L 190.654791 -105.246417 
L 187.375452 -105.213622 
L 184.096113 -107.020179 
L 180.816774 -106.942443 
L 177.537435 -109.452887 
L 174.258097 -108.436012 
L 170.978758 -111.633118 
L 167.699419 -113.825149 
L 164.42008 -113.498296 
L 161.140741 -116.615525 
L 157.861402 -118.509865 
L 154.582064 -119.585073 
L 151.302725 -120.502625 
L 148.023386 -121.384473 
L 144.744047 -122.448842 
L 141.464708 -127.502757 
L 138.185369 -126.090844 
L 134.90603 -130.566602 
L 131.626692 -129.755304 
L 128.347353 -133.352246 
L 125.068014 -134.571841 
L 121.788675 -137.985971 
L 118.509336 -139.550598 
L 115.229997 -141.320648 
L 111.950659 -145.832508 
L 108.67132 -146.053448 
L 105.391981 -151.036145 
L 102.112642 -160.143365 
L 98.833303 -163.159517 
L 95.553964 -171.245662 
L 92.274626 -172.411252 
L 88.995287 -180.336416 
L 85.715948 -191.639133 
L 82.436609 -199.309157 
L 79.15727 -204.692782 
L 75.877931 -212.541134 
L 72.598592 -218.988322 
L 69.319254 -222.398036 
L 66.039915 -238.067496 
z
" style="stroke: #55a868; stroke-opacity: 0.2"/>
    </defs>
    <g clip-path="url(#p337bc7be15)">
     <use xlink:href="#m687eb201ec" x="0" y="318.658116" style="fill: #55a868; fill-opacity: 0.2; stroke: #55a868; stroke-opacity: 0.2"/>
    </g>
   </g>
   <g id="PolyCollection_4">
    <defs>
     <path id="m81466ac578" d="M 66.039915 -296.975687 
L 66.039915 -188.489945 
L 69.319254 -154.773186 
L 72.598592 -141.309362 
L 75.877931 -123.903423 
L 79.15727 -116.41647 
L 82.436609 -106.203302 
L 85.715948 -101.964371 
L 88.995287 -92.043124 
L 92.274626 -83.322289 
L 95.553964 -79.797465 
L 98.833303 -75.572662 
L 102.112642 -73.556554 
L 105.391981 -70.640996 
L 108.67132 -68.875317 
L 111.950659 -68.456396 
L 115.229997 -65.613224 
L 118.509336 -64.834867 
L 121.788675 -64.641825 
L 125.068014 -64.535241 
L 128.347353 -64.046838 
L 131.626692 -62.808061 
L 134.90603 -62.63531 
L 138.185369 -61.644069 
L 141.464708 -61.609747 
L 144.744047 -61.228895 
L 148.023386 -61.05683 
L 151.302725 -60.978166 
L 154.582064 -60.961685 
L 157.861402 -60.7489 
L 161.140741 -60.746155 
L 164.42008 -60.408675 
L 167.699419 -59.721847 
L 170.978758 -59.78042 
L 174.258097 -59.040329 
L 177.537435 -58.57227 
L 180.816774 -58.945791 
L 184.096113 -59.061376 
L 187.375452 -58.645294 
L 190.654791 -58.839563 
L 193.93413 -58.299786 
L 197.213468 -58.363413 
L 200.492807 -58.390123 
L 203.772146 -58.231437 
L 207.051485 -58.099946 
L 210.330824 -58.149398 
L 213.610163 -58.129182 
L 216.889502 -58.195173 
L 220.16884 -57.944504 
L 223.448179 -57.957177 
L 226.727518 -57.924396 
L 230.006857 -57.942222 
L 233.286196 -57.716176 
L 236.565535 -57.558638 
L 239.844873 -57.307726 
L 243.124212 -57.16772 
L 246.403551 -56.879605 
L 249.68289 -57.035589 
L 252.962229 -57.156395 
L 256.241568 -56.910687 
L 259.520907 -56.900663 
L 262.800245 -56.671943 
L 266.079584 -56.709426 
L 269.358923 -56.68905 
L 272.638262 -56.755642 
L 275.917601 -56.607995 
L 279.19694 -56.645923 
L 282.476278 -56.679572 
L 285.755617 -56.738023 
L 289.034956 -56.693274 
L 292.314295 -62.58855 
L 295.593634 -62.415188 
L 298.872973 -62.46217 
L 302.152311 -62.252826 
L 305.43165 -62.408764 
L 308.710989 -62.188929 
L 311.990328 -62.264951 
L 315.269667 -62.245269 
L 318.549006 -62.190121 
L 321.828345 -62.570722 
L 325.107683 -62.173298 
L 328.387022 -62.142532 
L 331.666361 -61.98415 
L 334.9457 -62.394354 
L 338.225039 -62.032008 
L 341.504378 -62.222739 
L 344.783716 -61.441567 
L 348.063055 -61.900466 
L 351.342394 -62.075358 
L 354.621733 -62.505371 
L 357.901072 -62.528235 
L 361.180411 -62.516414 
L 364.459749 -62.163591 
L 367.739088 -62.496012 
L 371.018427 -62.774598 
L 374.297766 -62.445775 
L 377.577105 -62.076599 
L 380.856444 -62.3532 
L 384.135783 -61.854589 
L 387.415121 -62.020415 
L 390.69446 -62.229242 
L 390.69446 -79.073148 
L 390.69446 -79.073148 
L 387.415121 -80.245086 
L 384.135783 -78.349331 
L 380.856444 -78.756825 
L 377.577105 -79.203675 
L 374.297766 -79.366837 
L 371.018427 -79.639692 
L 367.739088 -79.801737 
L 364.459749 -79.259947 
L 361.180411 -78.63928 
L 357.901072 -80.160909 
L 354.621733 -79.16705 
L 351.342394 -79.145885 
L 348.063055 -78.098895 
L 344.783716 -78.26085 
L 341.504378 -77.95015 
L 338.225039 -78.267166 
L 334.9457 -78.312242 
L 331.666361 -79.238472 
L 328.387022 -79.91716 
L 325.107683 -79.377492 
L 321.828345 -81.237343 
L 318.549006 -79.723732 
L 315.269667 -79.493242 
L 311.990328 -79.62234 
L 308.710989 -79.919481 
L 305.43165 -78.981316 
L 302.152311 -78.940455 
L 298.872973 -78.386988 
L 295.593634 -79.781717 
L 292.314295 -79.555308 
L 289.034956 -64.219774 
L 285.755617 -63.687094 
L 282.476278 -63.823616 
L 279.19694 -62.755445 
L 275.917601 -63.647954 
L 272.638262 -64.992645 
L 269.358923 -64.515798 
L 266.079584 -63.288524 
L 262.800245 -62.683214 
L 259.520907 -63.507519 
L 256.241568 -65.250717 
L 252.962229 -65.347114 
L 249.68289 -65.283689 
L 246.403551 -66.845049 
L 243.124212 -67.39835 
L 239.844873 -67.372815 
L 236.565535 -67.611002 
L 233.286196 -66.67609 
L 230.006857 -67.505515 
L 226.727518 -67.062205 
L 223.448179 -68.54271 
L 220.16884 -67.674746 
L 216.889502 -68.945395 
L 213.610163 -68.404165 
L 210.330824 -64.418707 
L 207.051485 -68.980435 
L 203.772146 -68.762156 
L 200.492807 -69.290184 
L 197.213468 -68.558131 
L 193.93413 -68.956083 
L 190.654791 -70.343598 
L 187.375452 -68.10659 
L 184.096113 -69.03295 
L 180.816774 -71.317122 
L 177.537435 -72.143173 
L 174.258097 -72.272083 
L 170.978758 -72.28859 
L 167.699419 -73.226475 
L 164.42008 -73.515244 
L 161.140741 -75.470289 
L 157.861402 -76.697352 
L 154.582064 -76.105596 
L 151.302725 -77.540196 
L 148.023386 -76.16989 
L 144.744047 -77.21378 
L 141.464708 -78.864383 
L 138.185369 -78.062947 
L 134.90603 -82.386401 
L 131.626692 -84.806652 
L 128.347353 -84.019094 
L 125.068014 -86.623273 
L 121.788675 -86.659476 
L 118.509336 -86.871724 
L 115.229997 -87.429133 
L 111.950659 -95.650766 
L 108.67132 -95.243483 
L 105.391981 -100.057142 
L 102.112642 -106.141267 
L 98.833303 -108.622791 
L 95.553964 -116.805118 
L 92.274626 -125.278366 
L 88.995287 -138.367611 
L 85.715948 -148.253266 
L 82.436609 -152.328316 
L 79.15727 -166.576146 
L 75.877931 -180.912805 
L 72.598592 -200.045775 
L 69.319254 -204.592664 
L 66.039915 -296.975687 
z
" style="stroke: #c44e52; stroke-opacity: 0.2"/>
    </defs>
    <g clip-path="url(#p337bc7be15)">
     <use xlink:href="#m81466ac578" x="0" y="318.658116" style="fill: #c44e52; fill-opacity: 0.2; stroke: #c44e52; stroke-opacity: 0.2"/>
    </g>
   </g>
   <g id="PolyCollection_5">
    <defs>
     <path id="m9c50ad85b1" d="M 66.039915 -213.836136 
L 66.039915 -187.615762 
L 69.319254 -176.255657 
L 72.598592 -187.201999 
L 75.877931 -178.530732 
L 79.15727 -186.284953 
L 82.436609 -171.391977 
L 85.715948 -142.779394 
L 88.995287 -150.487289 
L 92.274626 -157.328872 
L 95.553964 -159.576369 
L 98.833303 -148.276815 
L 102.112642 -117.250381 
L 105.391981 -113.532382 
L 108.67132 -102.840904 
L 111.950659 -95.694367 
L 115.229997 -94.297982 
L 118.509336 -86.818928 
L 121.788675 -81.891849 
L 125.068014 -79.075838 
L 128.347353 -75.30517 
L 131.626692 -73.603678 
L 134.90603 -69.3284 
L 138.185369 -68.840034 
L 141.464708 -68.296359 
L 144.744047 -66.987808 
L 148.023386 -66.176415 
L 151.302725 -65.436823 
L 154.582064 -63.498805 
L 157.861402 -64.821485 
L 161.140741 -63.349947 
L 164.42008 -62.722201 
L 167.699419 -62.020943 
L 170.978758 -61.725192 
L 174.258097 -61.598585 
L 177.537435 -60.254915 
L 180.816774 -60.397739 
L 184.096113 -60.243094 
L 187.375452 -59.632211 
L 190.654791 -59.539025 
L 193.93413 -59.366895 
L 197.213468 -59.267484 
L 200.492807 -59.055673 
L 203.772146 -58.898579 
L 207.051485 -58.934702 
L 210.330824 -58.597776 
L 213.610163 -58.275735 
L 216.889502 -58.293397 
L 220.16884 -57.836457 
L 223.448179 -57.847074 
L 226.727518 -57.810279 
L 230.006857 -57.572108 
L 233.286196 -57.583065 
L 236.565535 -57.358434 
L 239.844873 -57.130629 
L 243.124212 -57.178413 
L 246.403551 -56.993148 
L 249.68289 -57.144556 
L 252.962229 -56.959294 
L 256.241568 -57.148693 
L 259.520907 -56.727112 
L 262.800245 -56.640987 
L 266.079584 -56.598161 
L 269.358923 -56.551903 
L 272.638262 -56.491314 
L 275.917601 -56.347448 
L 279.19694 -56.347751 
L 282.476278 -56.194162 
L 285.755617 -56.254163 
L 289.034956 -56.091322 
L 292.314295 -66.800372 
L 295.593634 -66.81942 
L 298.872973 -67.260221 
L 302.152311 -66.331618 
L 305.43165 -66.209218 
L 308.710989 -66.332242 
L 311.990328 -67.021985 
L 315.269667 -66.935662 
L 318.549006 -66.632211 
L 321.828345 -66.179628 
L 325.107683 -66.316715 
L 328.387022 -66.018563 
L 331.666361 -66.646384 
L 334.9457 -66.979271 
L 338.225039 -66.715994 
L 341.504378 -66.656502 
L 344.783716 -66.548661 
L 348.063055 -66.22925 
L 351.342394 -66.628747 
L 354.621733 -66.327029 
L 357.901072 -66.463861 
L 361.180411 -66.605341 
L 364.459749 -66.272661 
L 367.739088 -65.764109 
L 371.018427 -66.158972 
L 374.297766 -66.062562 
L 377.577105 -66.352524 
L 380.856444 -66.53082 
L 384.135783 -66.674857 
L 387.415121 -66.544938 
L 390.69446 -66.815193 
L 390.69446 -82.977249 
L 390.69446 -82.977249 
L 387.415121 -84.108411 
L 384.135783 -83.285417 
L 380.856444 -83.249854 
L 377.577105 -82.763292 
L 374.297766 -82.569014 
L 371.018427 -82.319885 
L 367.739088 -82.768873 
L 364.459749 -83.542501 
L 361.180411 -83.213705 
L 357.901072 -82.692993 
L 354.621733 -83.054555 
L 351.342394 -82.506138 
L 348.063055 -82.29686 
L 344.783716 -83.352637 
L 341.504378 -82.981174 
L 338.225039 -83.361307 
L 334.9457 -83.325891 
L 331.666361 -83.560416 
L 328.387022 -82.66565 
L 325.107683 -83.379554 
L 321.828345 -83.075739 
L 318.549006 -84.473667 
L 315.269667 -83.181236 
L 311.990328 -83.517299 
L 308.710989 -83.587615 
L 305.43165 -83.543261 
L 302.152311 -83.465099 
L 298.872973 -83.163496 
L 295.593634 -83.998306 
L 292.314295 -83.040123 
L 289.034956 -60.134297 
L 285.755617 -60.10071 
L 282.476278 -59.957065 
L 279.19694 -60.185193 
L 275.917601 -60.031554 
L 272.638262 -60.971316 
L 269.358923 -61.453616 
L 266.079584 -62.28197 
L 262.800245 -62.570437 
L 259.520907 -61.981926 
L 256.241568 -61.801055 
L 252.962229 -62.164695 
L 249.68289 -61.743231 
L 246.403551 -64.499217 
L 243.124212 -64.503296 
L 239.844873 -64.610199 
L 236.565535 -64.763144 
L 233.286196 -64.579265 
L 230.006857 -64.883781 
L 226.727518 -65.988006 
L 223.448179 -66.198335 
L 220.16884 -67.072292 
L 216.889502 -66.956579 
L 213.610163 -67.126967 
L 210.330824 -66.483993 
L 207.051485 -69.213609 
L 203.772146 -69.755873 
L 200.492807 -68.846023 
L 197.213468 -71.230637 
L 193.93413 -70.851987 
L 190.654791 -70.825089 
L 187.375452 -70.6631 
L 184.096113 -72.354975 
L 180.816774 -74.840336 
L 177.537435 -73.759722 
L 174.258097 -74.004268 
L 170.978758 -75.684819 
L 167.699419 -77.612994 
L 164.42008 -78.127811 
L 161.140741 -77.914651 
L 157.861402 -77.42236 
L 154.582064 -79.451466 
L 151.302725 -83.032397 
L 148.023386 -85.397234 
L 144.744047 -86.24037 
L 141.464708 -86.604192 
L 138.185369 -86.198632 
L 134.90603 -88.875961 
L 131.626692 -96.676749 
L 128.347353 -98.250588 
L 125.068014 -100.664464 
L 121.788675 -104.747087 
L 118.509336 -107.854202 
L 115.229997 -115.314311 
L 111.950659 -121.639063 
L 108.67132 -127.470887 
L 105.391981 -135.710214 
L 102.112642 -140.197131 
L 98.833303 -165.341955 
L 95.553964 -176.452799 
L 92.274626 -177.094365 
L 88.995287 -175.782921 
L 85.715948 -171.514265 
L 82.436609 -191.584527 
L 79.15727 -201.010023 
L 75.877931 -199.870557 
L 72.598592 -207.01988 
L 69.319254 -204.922291 
L 66.039915 -213.836136 
z
" style="stroke: #8172b3; stroke-opacity: 0.2"/>
    </defs>
    <g clip-path="url(#p337bc7be15)">
     <use xlink:href="#m9c50ad85b1" x="0" y="318.658116" style="fill: #8172b3; fill-opacity: 0.2; stroke: #8172b3; stroke-opacity: 0.2"/>
    </g>
   </g>
   <g id="line2d_15">
    <path d="M 66.039915 112.333007 
L 69.319254 167.888846 
L 72.598592 167.500516 
L 75.877931 185.958823 
L 79.15727 215.192388 
L 82.436609 221.62078 
L 85.715948 241.271901 
L 88.995287 238.668348 
L 92.274626 247.268731 
L 95.553964 254.240097 
L 98.833303 254.190009 
L 102.112642 255.748626 
L 105.391981 256.418289 
L 108.67132 255.966176 
L 111.950659 254.28424 
L 115.229997 255.398211 
L 118.509336 256.105734 
L 121.788675 259.177372 
L 125.068014 257.961853 
L 128.347353 258.306955 
L 131.626692 258.902639 
L 134.90603 259.904529 
L 138.185369 260.178704 
L 141.464708 260.238314 
L 144.744047 260.626215 
L 148.023386 260.589817 
L 151.302725 260.047169 
L 154.582064 259.798985 
L 157.861402 259.279717 
L 161.140741 259.179807 
L 164.42008 259.872221 
L 167.699419 260.145822 
L 170.978758 260.744525 
L 174.258097 260.734905 
L 177.537435 261.201197 
L 180.816774 260.972436 
L 184.096113 261.281401 
L 187.375452 261.71741 
L 190.654791 260.368308 
L 193.93413 261.008229 
L 197.213468 261.391733 
L 200.492807 261.356752 
L 203.772146 261.739407 
L 207.051485 261.619088 
L 210.330824 262.053365 
L 213.610163 262.041843 
L 216.889502 262.016819 
L 220.16884 262.030859 
L 223.448179 262.063558 
L 226.727518 262.322317 
L 230.006857 262.071235 
L 233.286196 262.302685 
L 236.565535 262.361266 
L 239.844873 262.506007 
L 243.124212 262.425478 
L 246.403551 262.631834 
L 249.68289 261.782939 
L 252.962229 261.918355 
L 256.241568 261.675849 
L 259.520907 261.520717 
L 262.800245 261.562559 
L 266.079584 262.102558 
L 269.358923 262.261095 
L 272.638262 262.33879 
L 275.917601 262.187343 
L 279.19694 262.328454 
L 282.476278 262.301855 
L 285.755617 262.386122 
L 289.034956 262.294749 
L 292.314295 259.174176 
L 295.593634 258.688639 
L 298.872973 258.606992 
L 302.152311 258.648977 
L 305.43165 258.615209 
L 308.710989 259.281986 
L 311.990328 259.261763 
L 315.269667 259.196107 
L 318.549006 259.277406 
L 321.828345 259.150906 
L 325.107683 259.107692 
L 328.387022 259.227519 
L 331.666361 259.057992 
L 334.9457 259.202724 
L 338.225039 258.994138 
L 341.504378 258.779407 
L 344.783716 258.762001 
L 348.063055 258.766119 
L 351.342394 258.733305 
L 354.621733 258.944055 
L 357.901072 258.638306 
L 361.180411 258.912366 
L 364.459749 259.113725 
L 367.739088 259.010276 
L 371.018427 258.95618 
L 374.297766 259.010191 
L 377.577105 258.971454 
L 380.856444 259.109015 
L 384.135783 259.011182 
L 387.415121 258.95931 
L 390.69446 258.917118 
" clip-path="url(#p337bc7be15)" style="fill: none; stroke: #4c72b0; stroke-width: 1.5; stroke-linecap: round"/>
   </g>
   <g id="line2d_16">
    <path d="M 66.039915 82.219289 
L 69.319254 133.486566 
L 72.598592 110.648838 
L 75.877931 134.349006 
L 79.15727 162.166341 
L 82.436609 166.95866 
L 85.715948 204.265026 
L 88.995287 197.040421 
L 92.274626 212.070695 
L 95.553964 225.982611 
L 98.833303 226.595641 
L 102.112642 231.825896 
L 105.391981 233.597808 
L 108.67132 230.15589 
L 111.950659 210.003221 
L 115.229997 210.185091 
L 118.509336 227.206826 
L 121.788675 222.795633 
L 125.068014 224.134417 
L 128.347353 227.554445 
L 131.626692 230.26066 
L 134.90603 239.964467 
L 138.185369 231.97646 
L 141.464708 237.425284 
L 144.744047 244.453721 
L 148.023386 227.46727 
L 151.302725 210.83675 
L 154.582064 214.899777 
L 157.861402 229.303531 
L 161.140741 205.079838 
L 164.42008 237.304352 
L 167.699419 238.418046 
L 170.978758 231.340092 
L 174.258097 243.923825 
L 177.537435 244.391222 
L 180.816774 236.804184 
L 184.096113 239.373338 
L 187.375452 247.91579 
L 190.654791 229.264242 
L 193.93413 244.728206 
L 197.213468 242.405888 
L 200.492807 248.892285 
L 203.772146 251.411416 
L 207.051485 245.268069 
L 210.330824 247.051595 
L 213.610163 224.076421 
L 216.889502 238.728348 
L 220.16884 228.968701 
L 223.448179 244.184028 
L 226.727518 250.815938 
L 230.006857 242.088953 
L 233.286196 253.702987 
L 236.565535 250.018085 
L 239.844873 251.362323 
L 243.124212 248.10398 
L 246.403551 254.213487 
L 249.68289 252.0946 
L 252.962229 230.915341 
L 256.241568 252.971536 
L 259.520907 236.531544 
L 262.800245 219.539245 
L 266.079584 254.521967 
L 269.358923 249.147152 
L 272.638262 251.430838 
L 275.917601 252.612998 
L 279.19694 247.409282 
L 282.476278 230.074292 
L 285.755617 234.722982 
L 289.034956 240.23324 
L 292.314295 250.594768 
L 295.593634 238.14444 
L 298.872973 243.212703 
L 302.152311 247.950724 
L 305.43165 239.146228 
L 308.710989 251.277073 
L 311.990328 249.652492 
L 315.269667 249.394156 
L 318.549006 255.185329 
L 321.828345 251.975821 
L 325.107683 253.792293 
L 328.387022 255.358783 
L 331.666361 243.551426 
L 334.9457 249.657801 
L 338.225039 250.468967 
L 341.504378 247.037875 
L 344.783716 250.464222 
L 348.063055 251.012002 
L 351.342394 251.106619 
L 354.621733 254.770381 
L 357.901072 244.470472 
L 361.180411 252.557292 
L 364.459749 255.042919 
L 367.739088 256.550105 
L 371.018427 254.549112 
L 374.297766 240.657563 
L 377.577105 246.310321 
L 380.856444 253.714034 
L 384.135783 256.416102 
L 387.415121 251.188163 
L 390.69446 254.877118 
" clip-path="url(#p337bc7be15)" style="fill: none; stroke: #dd8452; stroke-width: 1.5; stroke-linecap: round"/>
   </g>
   <g id="line2d_17">
    <path d="M 66.039915 93.117938 
L 69.319254 109.62154 
L 72.598592 114.44013 
L 75.877931 123.978713 
L 79.15727 129.945512 
L 82.436609 136.708751 
L 85.715948 145.570483 
L 88.995287 156.871178 
L 92.274626 163.081553 
L 95.553964 166.362472 
L 98.833303 173.307408 
L 102.112642 176.488556 
L 105.391981 184.831304 
L 108.67132 187.383338 
L 111.950659 190.062976 
L 115.229997 192.814275 
L 118.509336 194.303457 
L 121.788675 197.938537 
L 125.068014 200.188112 
L 128.347353 202.112838 
L 131.626692 205.40649 
L 134.90603 206.127978 
L 138.185369 208.467331 
L 141.464708 209.988886 
L 144.744047 212.577928 
L 148.023386 213.580821 
L 151.302725 214.692712 
L 154.582064 216.599261 
L 157.861402 217.092175 
L 161.140741 218.833758 
L 164.42008 220.481074 
L 167.699419 221.842345 
L 170.978758 223.210484 
L 174.258097 224.704231 
L 177.537435 225.913509 
L 180.816774 226.954872 
L 184.096113 227.901592 
L 187.375452 228.71398 
L 190.654791 228.987076 
L 193.93413 229.818176 
L 197.213468 230.33675 
L 200.492807 231.273118 
L 203.772146 231.743577 
L 207.051485 231.959811 
L 210.330824 233.248045 
L 213.610163 233.507596 
L 216.889502 234.487571 
L 220.16884 235.286313 
L 223.448179 235.880281 
L 226.727518 236.26301 
L 230.006857 236.378501 
L 233.286196 237.574936 
L 236.565535 237.637464 
L 239.844873 237.998803 
L 243.124212 238.093611 
L 246.403551 238.05244 
L 249.68289 238.784982 
L 252.962229 238.992806 
L 256.241568 239.444527 
L 259.520907 239.803146 
L 262.800245 240.402526 
L 266.079584 240.553645 
L 269.358923 240.981866 
L 272.638262 240.883337 
L 275.917601 241.172168 
L 279.19694 241.890278 
L 282.476278 241.929689 
L 285.755617 242.499322 
L 289.034956 242.701344 
L 292.314295 213.013987 
L 295.593634 213.033505 
L 298.872973 213.129439 
L 302.152311 213.535533 
L 305.43165 213.534401 
L 308.710989 213.422147 
L 311.990328 213.481031 
L 315.269667 213.847209 
L 318.549006 214.168131 
L 321.828345 214.099298 
L 325.107683 214.221971 
L 328.387022 214.655707 
L 331.666361 214.459342 
L 334.9457 214.979828 
L 338.225039 215.186612 
L 341.504378 215.191075 
L 344.783716 215.251748 
L 348.063055 215.133305 
L 351.342394 215.170543 
L 354.621733 215.505839 
L 357.901072 215.247192 
L 361.180411 215.153558 
L 364.459749 215.647484 
L 367.739088 215.761043 
L 371.018427 215.70944 
L 374.297766 215.907881 
L 377.577105 216.02552 
L 380.856444 216.117936 
L 384.135783 216.644243 
L 387.415121 216.423862 
L 390.69446 216.342295 
" clip-path="url(#p337bc7be15)" style="fill: none; stroke: #55a868; stroke-width: 1.5; stroke-linecap: round"/>
   </g>
   <g id="line2d_18">
    <path d="M 66.039915 87.089677 
L 69.319254 139.119247 
L 72.598592 148.777399 
L 75.877931 165.807629 
L 79.15727 178.298315 
L 82.436609 190.01837 
L 85.715948 195.364149 
L 88.995287 204.013901 
L 92.274626 215.977083 
L 95.553964 221.611773 
L 98.833303 226.986404 
L 102.112642 229.318874 
L 105.391981 234.460726 
L 108.67132 237.356486 
L 111.950659 238.058607 
L 115.229997 243.29394 
L 118.509336 244.314381 
L 121.788675 244.638754 
L 125.068014 244.30915 
L 128.347353 245.771966 
L 131.626692 245.975609 
L 134.90603 246.759811 
L 138.185369 249.128604 
L 141.464708 249.508044 
L 144.744047 250.182014 
L 148.023386 250.593193 
L 151.302725 250.554482 
L 154.582064 250.772733 
L 157.861402 251.167615 
L 161.140741 252.090215 
L 164.42008 252.425208 
L 167.699419 253.050702 
L 170.978758 253.608717 
L 174.258097 254.214546 
L 177.537435 254.753804 
L 180.816774 254.68271 
L 184.096113 255.502438 
L 187.375452 256.025188 
L 190.654791 255.436622 
L 193.93413 256.001785 
L 197.213468 255.796881 
L 200.492807 255.618147 
L 203.772146 256.21922 
L 207.051485 256.490342 
L 210.330824 257.712641 
L 213.610163 256.444947 
L 216.889502 256.120466 
L 220.16884 256.910303 
L 223.448179 256.800721 
L 226.727518 257.18102 
L 230.006857 257.095491 
L 233.286196 257.27975 
L 236.565535 257.182613 
L 239.844873 257.585619 
L 243.124212 257.736894 
L 246.403551 258.022069 
L 249.68289 258.594833 
L 252.962229 258.187342 
L 256.241568 258.285259 
L 259.520907 259.061014 
L 262.800245 259.617975 
L 266.079584 259.492643 
L 269.358923 259.011267 
L 272.638262 258.925705 
L 275.917601 259.521578 
L 279.19694 259.503179 
L 282.476278 259.20189 
L 285.755617 259.358915 
L 289.034956 259.318229 
L 292.314295 248.667302 
L 295.593634 249.145345 
L 298.872973 249.204127 
L 302.152311 249.137547 
L 305.43165 249.169581 
L 308.710989 248.85006 
L 311.990328 248.876209 
L 315.269667 248.751373 
L 318.549006 248.790256 
L 321.828345 248.768714 
L 325.107683 248.783134 
L 328.387022 248.763544 
L 331.666361 248.701823 
L 334.9457 248.789769 
L 338.225039 249.379858 
L 341.504378 249.348833 
L 344.783716 249.539152 
L 348.063055 249.542086 
L 351.342394 249.173656 
L 354.621733 249.000577 
L 357.901072 248.9621 
L 361.180411 248.967058 
L 364.459749 248.868557 
L 367.739088 248.789642 
L 371.018427 248.772475 
L 374.297766 248.858761 
L 377.577105 249.040376 
L 380.856444 249.05148 
L 384.135783 249.116189 
L 387.415121 249.07499 
L 390.69446 249.045836 
" clip-path="url(#p337bc7be15)" style="fill: none; stroke: #c44e52; stroke-width: 1.5; stroke-linecap: round"/>
   </g>
   <g id="line2d_19">
    <path d="M 66.039915 116.937475 
L 69.319254 128.092868 
L 72.598592 121.60735 
L 75.877931 129.005027 
L 79.15727 124.778387 
L 82.436609 136.499921 
L 85.715948 161.737495 
L 88.995287 155.889358 
L 92.274626 151.301048 
L 95.553964 150.261587 
L 98.833303 161.911274 
L 102.112642 190.87784 
L 105.391981 194.570624 
L 108.67132 204.06424 
L 111.950659 210.650968 
L 115.229997 214.212346 
L 118.509336 221.382032 
L 121.788675 226.328988 
L 125.068014 229.129248 
L 128.347353 232.408351 
L 131.626692 234.370637 
L 134.90603 240.628484 
L 138.185369 241.74261 
L 141.464708 242.265913 
L 144.744047 243.057501 
L 148.023386 244.341096 
L 151.302725 246.152017 
L 154.582064 248.161518 
L 157.861402 248.172558 
L 161.140741 248.824977 
L 164.42008 249.569375 
L 167.699419 249.999733 
L 170.978758 251.115008 
L 174.258097 251.574337 
L 177.537435 252.703229 
L 180.816774 252.397047 
L 184.096113 253.02809 
L 187.375452 254.139064 
L 190.654791 254.032316 
L 193.93413 254.429196 
L 197.213468 254.415433 
L 200.492807 255.37004 
L 203.772146 255.334591 
L 207.051485 255.395935 
L 210.330824 256.674153 
L 213.610163 256.66062 
L 216.889502 256.865897 
L 220.16884 257.248886 
L 223.448179 257.54485 
L 226.727518 257.617909 
L 230.006857 257.99626 
L 233.286196 258.252166 
L 236.565535 258.285922 
L 239.844873 258.601161 
L 243.124212 258.526813 
L 246.403551 258.55763 
L 249.68289 259.564113 
L 252.962229 259.543311 
L 256.241568 259.439325 
L 259.520907 259.619504 
L 262.800245 259.580647 
L 266.079584 259.738527 
L 269.358923 259.924041 
L 272.638262 260.206829 
L 275.917601 260.627498 
L 279.19694 260.647559 
L 282.476278 260.824231 
L 285.755617 260.85704 
L 289.034956 260.866088 
L 292.314295 243.901741 
L 295.593634 243.907623 
L 298.872973 243.852754 
L 302.152311 243.941675 
L 305.43165 243.991262 
L 308.710989 244.137023 
L 311.990328 244.085803 
L 315.269667 243.93528 
L 318.549006 243.886381 
L 321.828345 244.044774 
L 325.107683 244.171698 
L 328.387022 244.172155 
L 331.666361 244.17203 
L 334.9457 244.122813 
L 338.225039 244.149478 
L 341.504378 244.137535 
L 344.783716 244.268882 
L 348.063055 244.396075 
L 351.342394 244.192954 
L 354.621733 244.462951 
L 357.901072 244.551704 
L 361.180411 244.543357 
L 364.459749 244.582872 
L 367.739088 244.686506 
L 371.018427 244.592673 
L 374.297766 244.461184 
L 377.577105 244.507042 
L 380.856444 244.466225 
L 384.135783 244.45156 
L 387.415121 244.497506 
L 390.69446 244.4426 
" clip-path="url(#p337bc7be15)" style="fill: none; stroke: #8172b3; stroke-width: 1.5; stroke-linecap: round"/>
   </g>
   <g id="line2d_20"/>
   <g id="line2d_21"/>
   <g id="line2d_22"/>
   <g id="line2d_23"/>
   <g id="line2d_24"/>
   <g id="patch_3">
    <path d="M 49.807187 275.698429 
L 49.807187 9.586429 
" style="fill: none; stroke: #cccccc; stroke-width: 1.25; stroke-linejoin: miter; stroke-linecap: square"/>
   </g>
   <g id="patch_4">
    <path d="M 406.927188 275.698429 
L 406.927188 9.586429 
" style="fill: none; stroke: #cccccc; stroke-width: 1.25; stroke-linejoin: miter; stroke-linecap: square"/>
   </g>
   <g id="patch_5">
    <path d="M 49.807187 275.698429 
L 406.927188 275.698429 
" style="fill: none; stroke: #cccccc; stroke-width: 1.25; stroke-linejoin: miter; stroke-linecap: square"/>
   </g>
   <g id="patch_6">
    <path d="M 49.807187 9.586429 
L 406.927188 9.586429 
" style="fill: none; stroke: #cccccc; stroke-width: 1.25; stroke-linejoin: miter; stroke-linecap: square"/>
   </g>
   <g id="legend_1">
    <g id="patch_7">
     <path d="M 295.242813 116.229866 
L 399.227188 116.229866 
Q 401.427188 116.229866 401.427188 114.029866 
L 401.427188 17.286429 
Q 401.427188 15.086429 399.227188 15.086429 
L 295.242813 15.086429 
Q 293.042813 15.086429 293.042813 17.286429 
L 293.042813 114.029866 
Q 293.042813 116.229866 295.242813 116.229866 
z
" style="fill: #ffffff; opacity: 0.8; stroke: #cccccc; stroke-linejoin: miter"/>
    </g>
    <g id="text_17">
     <!-- Strategy -->
     <g style="fill: #262626" transform="translate(321.525937 28.604554) scale(0.12 -0.12)">
      <defs>
       <path id="DejaVuSans-53" d="M 3425 4513 
L 3425 3897 
Q 3066 4069 2747 4153 
Q 2428 4238 2131 4238 
Q 1616 4238 1336 4038 
Q 1056 3838 1056 3469 
Q 1056 3159 1242 3001 
Q 1428 2844 1947 2747 
L 2328 2669 
Q 3034 2534 3370 2195 
Q 3706 1856 3706 1288 
Q 3706 609 3251 259 
Q 2797 -91 1919 -91 
Q 1588 -91 1214 -16 
Q 841 59 441 206 
L 441 856 
Q 825 641 1194 531 
Q 1563 422 1919 422 
Q 2459 422 2753 634 
Q 3047 847 3047 1241 
Q 3047 1584 2836 1778 
Q 2625 1972 2144 2069 
L 1759 2144 
Q 1053 2284 737 2584 
Q 422 2884 422 3419 
Q 422 4038 858 4394 
Q 1294 4750 2059 4750 
Q 2388 4750 2728 4690 
Q 3069 4631 3425 4513 
z
" transform="scale(0.015625)"/>
       <path id="DejaVuSans-74" d="M 1172 4494 
L 1172 3500 
L 2356 3500 
L 2356 3053 
L 1172 3053 
L 1172 1153 
Q 1172 725 1289 603 
Q 1406 481 1766 481 
L 2356 481 
L 2356 0 
L 1766 0 
Q 1100 0 847 248 
Q 594 497 594 1153 
L 594 3053 
L 172 3053 
L 172 3500 
L 594 3500 
L 594 4494 
L 1172 4494 
z
" transform="scale(0.015625)"/>
       <path id="DejaVuSans-72" d="M 2631 2963 
Q 2534 3019 2420 3045 
Q 2306 3072 2169 3072 
Q 1681 3072 1420 2755 
Q 1159 2438 1159 1844 
L 1159 0 
L 581 0 
L 581 3500 
L 1159 3500 
L 1159 2956 
Q 1341 3275 1631 3429 
Q 1922 3584 2338 3584 
Q 2397 3584 2469 3576 
Q 2541 3569 2628 3553 
L 2631 2963 
z
" transform="scale(0.015625)"/>
       <path id="DejaVuSans-61" d="M 2194 1759 
Q 1497 1759 1228 1600 
Q 959 1441 959 1056 
Q 959 750 1161 570 
Q 1363 391 1709 391 
Q 2188 391 2477 730 
Q 2766 1069 2766 1631 
L 2766 1759 
L 2194 1759 
z
M 3341 1997 
L 3341 0 
L 2766 0 
L 2766 531 
Q 2569 213 2275 61 
Q 1981 -91 1556 -91 
Q 1019 -91 701 211 
Q 384 513 384 1019 
Q 384 1609 779 1909 
Q 1175 2209 1959 2209 
L 2766 2209 
L 2766 2266 
Q 2766 2663 2505 2880 
Q 2244 3097 1772 3097 
Q 1472 3097 1187 3025 
Q 903 2953 641 2809 
L 641 3341 
Q 956 3463 1253 3523 
Q 1550 3584 1831 3584 
Q 2591 3584 2966 3190 
Q 3341 2797 3341 1997 
z
" transform="scale(0.015625)"/>
       <path id="DejaVuSans-65" d="M 3597 1894 
L 3597 1613 
L 953 1613 
Q 991 1019 1311 708 
Q 1631 397 2203 397 
Q 2534 397 2845 478 
Q 3156 559 3463 722 
L 3463 178 
Q 3153 47 2828 -22 
Q 2503 -91 2169 -91 
Q 1331 -91 842 396 
Q 353 884 353 1716 
Q 353 2575 817 3079 
Q 1281 3584 2069 3584 
Q 2775 3584 3186 3129 
Q 3597 2675 3597 1894 
z
M 3022 2063 
Q 3016 2534 2758 2815 
Q 2500 3097 2075 3097 
Q 1594 3097 1305 2825 
Q 1016 2553 972 2059 
L 3022 2063 
z
" transform="scale(0.015625)"/>
       <path id="DejaVuSans-67" d="M 2906 1791 
Q 2906 2416 2648 2759 
Q 2391 3103 1925 3103 
Q 1463 3103 1205 2759 
Q 947 2416 947 1791 
Q 947 1169 1205 825 
Q 1463 481 1925 481 
Q 2391 481 2648 825 
Q 2906 1169 2906 1791 
z
M 3481 434 
Q 3481 -459 3084 -895 
Q 2688 -1331 1869 -1331 
Q 1566 -1331 1297 -1286 
Q 1028 -1241 775 -1147 
L 775 -588 
Q 1028 -725 1275 -790 
Q 1522 -856 1778 -856 
Q 2344 -856 2625 -561 
Q 2906 -266 2906 331 
L 2906 616 
Q 2728 306 2450 153 
Q 2172 0 1784 0 
Q 1141 0 747 490 
Q 353 981 353 1791 
Q 353 2603 747 3093 
Q 1141 3584 1784 3584 
Q 2172 3584 2450 3431 
Q 2728 3278 2906 2969 
L 2906 3500 
L 3481 3500 
L 3481 434 
z
" transform="scale(0.015625)"/>
       <path id="DejaVuSans-79" d="M 2059 -325 
Q 1816 -950 1584 -1140 
Q 1353 -1331 966 -1331 
L 506 -1331 
L 506 -850 
L 844 -850 
Q 1081 -850 1212 -737 
Q 1344 -625 1503 -206 
L 1606 56 
L 191 3500 
L 800 3500 
L 1894 763 
L 2988 3500 
L 3597 3500 
L 2059 -325 
z
" transform="scale(0.015625)"/>
      </defs>
      <use xlink:href="#DejaVuSans-53"/>
      <use xlink:href="#DejaVuSans-74" x="63.476562"/>
      <use xlink:href="#DejaVuSans-72" x="102.685547"/>
      <use xlink:href="#DejaVuSans-61" x="143.798828"/>
      <use xlink:href="#DejaVuSans-74" x="205.078125"/>
      <use xlink:href="#DejaVuSans-65" x="244.287109"/>
      <use xlink:href="#DejaVuSans-67" x="305.810547"/>
      <use xlink:href="#DejaVuSans-79" x="369.287109"/>
     </g>
    </g>
    <g id="line2d_25">
     <path d="M 297.442813 41.10846 
L 308.442813 41.10846 
L 319.442813 41.10846 
" style="fill: none; stroke: #4c72b0; stroke-width: 1.5; stroke-linecap: round"/>
    </g>
    <g id="text_18">
     <!-- FedPredict -->
     <g style="fill: #262626" transform="translate(328.242813 44.95846) scale(0.11 -0.11)">
      <defs>
       <path id="DejaVuSans-46" d="M 628 4666 
L 3309 4666 
L 3309 4134 
L 1259 4134 
L 1259 2759 
L 3109 2759 
L 3109 2228 
L 1259 2228 
L 1259 0 
L 628 0 
L 628 4666 
z
" transform="scale(0.015625)"/>
       <path id="DejaVuSans-50" d="M 1259 4147 
L 1259 2394 
L 2053 2394 
Q 2494 2394 2734 2622 
Q 2975 2850 2975 3272 
Q 2975 3691 2734 3919 
Q 2494 4147 2053 4147 
L 1259 4147 
z
M 628 4666 
L 2053 4666 
Q 2838 4666 3239 4311 
Q 3641 3956 3641 3272 
Q 3641 2581 3239 2228 
Q 2838 1875 2053 1875 
L 1259 1875 
L 1259 0 
L 628 0 
L 628 4666 
z
" transform="scale(0.015625)"/>
       <path id="DejaVuSans-69" d="M 603 3500 
L 1178 3500 
L 1178 0 
L 603 0 
L 603 3500 
z
M 603 4863 
L 1178 4863 
L 1178 4134 
L 603 4134 
L 603 4863 
z
" transform="scale(0.015625)"/>
       <path id="DejaVuSans-63" d="M 3122 3366 
L 3122 2828 
Q 2878 2963 2633 3030 
Q 2388 3097 2138 3097 
Q 1578 3097 1268 2742 
Q 959 2388 959 1747 
Q 959 1106 1268 751 
Q 1578 397 2138 397 
Q 2388 397 2633 464 
Q 2878 531 3122 666 
L 3122 134 
Q 2881 22 2623 -34 
Q 2366 -91 2075 -91 
Q 1284 -91 818 406 
Q 353 903 353 1747 
Q 353 2603 823 3093 
Q 1294 3584 2113 3584 
Q 2378 3584 2631 3529 
Q 2884 3475 3122 3366 
z
" transform="scale(0.015625)"/>
      </defs>
      <use xlink:href="#DejaVuSans-46"/>
      <use xlink:href="#DejaVuSans-65" x="52.019531"/>
      <use xlink:href="#DejaVuSans-64" x="113.542969"/>
      <use xlink:href="#DejaVuSans-50" x="177.019531"/>
      <use xlink:href="#DejaVuSans-72" x="235.572266"/>
      <use xlink:href="#DejaVuSans-65" x="274.435547"/>
      <use xlink:href="#DejaVuSans-64" x="335.958984"/>
      <use xlink:href="#DejaVuSans-69" x="399.435547"/>
      <use xlink:href="#DejaVuSans-63" x="427.21875"/>
      <use xlink:href="#DejaVuSans-74" x="482.199219"/>
     </g>
    </g>
    <g id="line2d_26">
     <path d="M 297.442813 57.254398 
L 308.442813 57.254398 
L 319.442813 57.254398 
" style="fill: none; stroke: #dd8452; stroke-width: 1.5; stroke-linecap: round"/>
    </g>
    <g id="text_19">
     <!-- FedAVG -->
     <g style="fill: #262626" transform="translate(328.242813 61.104398) scale(0.11 -0.11)">
      <defs>
       <path id="DejaVuSans-41" d="M 2188 4044 
L 1331 1722 
L 3047 1722 
L 2188 4044 
z
M 1831 4666 
L 2547 4666 
L 4325 0 
L 3669 0 
L 3244 1197 
L 1141 1197 
L 716 0 
L 50 0 
L 1831 4666 
z
" transform="scale(0.015625)"/>
       <path id="DejaVuSans-56" d="M 1831 0 
L 50 4666 
L 709 4666 
L 2188 738 
L 3669 4666 
L 4325 4666 
L 2547 0 
L 1831 0 
z
" transform="scale(0.015625)"/>
       <path id="DejaVuSans-47" d="M 3809 666 
L 3809 1919 
L 2778 1919 
L 2778 2438 
L 4434 2438 
L 4434 434 
Q 4069 175 3628 42 
Q 3188 -91 2688 -91 
Q 1594 -91 976 548 
Q 359 1188 359 2328 
Q 359 3472 976 4111 
Q 1594 4750 2688 4750 
Q 3144 4750 3555 4637 
Q 3966 4525 4313 4306 
L 4313 3634 
Q 3963 3931 3569 4081 
Q 3175 4231 2741 4231 
Q 1884 4231 1454 3753 
Q 1025 3275 1025 2328 
Q 1025 1384 1454 906 
Q 1884 428 2741 428 
Q 3075 428 3337 486 
Q 3600 544 3809 666 
z
" transform="scale(0.015625)"/>
      </defs>
      <use xlink:href="#DejaVuSans-46"/>
      <use xlink:href="#DejaVuSans-65" x="52.019531"/>
      <use xlink:href="#DejaVuSans-64" x="113.542969"/>
      <use xlink:href="#DejaVuSans-41" x="177.019531"/>
      <use xlink:href="#DejaVuSans-56" x="239.052734"/>
      <use xlink:href="#DejaVuSans-47" x="307.460938"/>
     </g>
    </g>
    <g id="line2d_27">
     <path d="M 297.442813 73.400335 
L 308.442813 73.400335 
L 319.442813 73.400335 
" style="fill: none; stroke: #55a868; stroke-width: 1.5; stroke-linecap: round"/>
    </g>
    <g id="text_20">
     <!-- FedProto -->
     <g style="fill: #262626" transform="translate(328.242813 77.250335) scale(0.11 -0.11)">
      <use xlink:href="#DejaVuSans-46"/>
      <use xlink:href="#DejaVuSans-65" x="52.019531"/>
      <use xlink:href="#DejaVuSans-64" x="113.542969"/>
      <use xlink:href="#DejaVuSans-50" x="177.019531"/>
      <use xlink:href="#DejaVuSans-72" x="235.572266"/>
      <use xlink:href="#DejaVuSans-6f" x="274.435547"/>
      <use xlink:href="#DejaVuSans-74" x="335.617188"/>
      <use xlink:href="#DejaVuSans-6f" x="374.826172"/>
     </g>
    </g>
    <g id="line2d_28">
     <path d="M 297.442813 89.546273 
L 308.442813 89.546273 
L 319.442813 89.546273 
" style="fill: none; stroke: #c44e52; stroke-width: 1.5; stroke-linecap: round"/>
    </g>
    <g id="text_21">
     <!-- FedClassAvg -->
     <g style="fill: #262626" transform="translate(328.242813 93.396273) scale(0.11 -0.11)">
      <defs>
       <path id="DejaVuSans-43" d="M 4122 4306 
L 4122 3641 
Q 3803 3938 3442 4084 
Q 3081 4231 2675 4231 
Q 1875 4231 1450 3742 
Q 1025 3253 1025 2328 
Q 1025 1406 1450 917 
Q 1875 428 2675 428 
Q 3081 428 3442 575 
Q 3803 722 4122 1019 
L 4122 359 
Q 3791 134 3420 21 
Q 3050 -91 2638 -91 
Q 1578 -91 968 557 
Q 359 1206 359 2328 
Q 359 3453 968 4101 
Q 1578 4750 2638 4750 
Q 3056 4750 3426 4639 
Q 3797 4528 4122 4306 
z
" transform="scale(0.015625)"/>
       <path id="DejaVuSans-6c" d="M 603 4863 
L 1178 4863 
L 1178 0 
L 603 0 
L 603 4863 
z
" transform="scale(0.015625)"/>
       <path id="DejaVuSans-76" d="M 191 3500 
L 800 3500 
L 1894 563 
L 2988 3500 
L 3597 3500 
L 2284 0 
L 1503 0 
L 191 3500 
z
" transform="scale(0.015625)"/>
      </defs>
      <use xlink:href="#DejaVuSans-46"/>
      <use xlink:href="#DejaVuSans-65" x="52.019531"/>
      <use xlink:href="#DejaVuSans-64" x="113.542969"/>
      <use xlink:href="#DejaVuSans-43" x="177.019531"/>
      <use xlink:href="#DejaVuSans-6c" x="246.84375"/>
      <use xlink:href="#DejaVuSans-61" x="274.626953"/>
      <use xlink:href="#DejaVuSans-73" x="335.90625"/>
      <use xlink:href="#DejaVuSans-73" x="388.005859"/>
      <use xlink:href="#DejaVuSans-41" x="440.105469"/>
      <use xlink:href="#DejaVuSans-76" x="502.638672"/>
      <use xlink:href="#DejaVuSans-67" x="561.818359"/>
     </g>
    </g>
    <g id="line2d_29">
     <path d="M 297.442813 105.69221 
L 308.442813 105.69221 
L 319.442813 105.69221 
" style="fill: none; stroke: #8172b3; stroke-width: 1.5; stroke-linecap: round"/>
    </g>
    <g id="text_22">
     <!-- FedPer -->
     <g style="fill: #262626" transform="translate(328.242813 109.54221) scale(0.11 -0.11)">
      <use xlink:href="#DejaVuSans-46"/>
      <use xlink:href="#DejaVuSans-65" x="52.019531"/>
      <use xlink:href="#DejaVuSans-64" x="113.542969"/>
      <use xlink:href="#DejaVuSans-50" x="177.019531"/>
      <use xlink:href="#DejaVuSans-65" x="233.697266"/>
      <use xlink:href="#DejaVuSans-72" x="295.220703"/>
     </g>
    </g>
   </g>
  </g>
 </g>
 <defs>
  <clipPath id="p337bc7be15">
   <rect x="49.807187" y="9.586429" width="357.12" height="266.112"/>
  </clipPath>
 </defs>
</svg>
