<?xml version="1.0" encoding="utf-8" standalone="no"?>
<!DOCTYPE svg PUBLIC "-//W3C//DTD SVG 1.1//EN"
  "http://www.w3.org/Graphics/SVG/1.1/DTD/svg11.dtd">
<svg xmlns:xlink="http://www.w3.org/1999/xlink" width="417.63pt" height="331.389812pt" viewBox="0 0 417.63 331.389812" xmlns="http://www.w3.org/2000/svg" version="1.1">
 <metadata>
  <rdf:RDF xmlns:dc="http://purl.org/dc/elements/1.1/" xmlns:cc="http://creativecommons.org/ns#" xmlns:rdf="http://www.w3.org/1999/02/22-rdf-syntax-ns#">
   <cc:Work>
    <dc:type rdf:resource="http://purl.org/dc/dcmitype/StillImage"/>
    <dc:date>2023-02-06T20:14:43.732651</dc:date>
    <dc:format>image/svg+xml</dc:format>
    <dc:creator>
     <cc:Agent>
      <dc:title>Matplotlib v3.6.3, https://matplotlib.org/</dc:title>
     </cc:Agent>
    </dc:creator>
   </cc:Work>
  </rdf:RDF>
 </metadata>
 <defs>
  <style type="text/css">*{stroke-linejoin: round; stroke-linecap: butt}</style>
 </defs>
 <g id="figure_1">
  <g id="patch_1">
   <path d="M 0 331.389812 
L 417.63 331.389812 
L 417.63 0 
L 0 0 
z
" style="fill: #ffffff"/>
  </g>
  <g id="axes_1">
   <g id="patch_2">
    <path d="M 53.31 288.430125 
L 410.43 288.430125 
L 410.43 22.318125 
L 53.31 22.318125 
z
" style="fill: #ffffff"/>
   </g>
   <g id="matplotlib.axis_1">
    <g id="xtick_1">
     <g id="line2d_1">
      <path d="M 66.263388 288.430125 
L 66.263388 22.318125 
" clip-path="url(#p76e3596b3d)" style="fill: none; stroke: #cccccc; stroke-linecap: round"/>
     </g>
     <g id="text_1">
      <!-- 0 -->
      <g style="fill: #262626" transform="translate(62.764013 306.288406) scale(0.11 -0.11)">
       <defs>
        <path id="DejaVuSans-30" d="M 2034 4250 
Q 1547 4250 1301 3770 
Q 1056 3291 1056 2328 
Q 1056 1369 1301 889 
Q 1547 409 2034 409 
Q 2525 409 2770 889 
Q 3016 1369 3016 2328 
Q 3016 3291 2770 3770 
Q 2525 4250 2034 4250 
z
M 2034 4750 
Q 2819 4750 3233 4129 
Q 3647 3509 3647 2328 
Q 3647 1150 3233 529 
Q 2819 -91 2034 -91 
Q 1250 -91 836 529 
Q 422 1150 422 2328 
Q 422 3509 836 4129 
Q 1250 4750 2034 4750 
z
" transform="scale(0.015625)"/>
       </defs>
       <use xlink:href="#DejaVuSans-30"/>
      </g>
     </g>
    </g>
    <g id="xtick_2">
     <g id="line2d_2">
      <path d="M 131.850165 288.430125 
L 131.850165 22.318125 
" clip-path="url(#p76e3596b3d)" style="fill: none; stroke: #cccccc; stroke-linecap: round"/>
     </g>
     <g id="text_2">
      <!-- 20 -->
      <g style="fill: #262626" transform="translate(124.851415 306.288406) scale(0.11 -0.11)">
       <defs>
        <path id="DejaVuSans-32" d="M 1228 531 
L 3431 531 
L 3431 0 
L 469 0 
L 469 531 
Q 828 903 1448 1529 
Q 2069 2156 2228 2338 
Q 2531 2678 2651 2914 
Q 2772 3150 2772 3378 
Q 2772 3750 2511 3984 
Q 2250 4219 1831 4219 
Q 1534 4219 1204 4116 
Q 875 4013 500 3803 
L 500 4441 
Q 881 4594 1212 4672 
Q 1544 4750 1819 4750 
Q 2544 4750 2975 4387 
Q 3406 4025 3406 3419 
Q 3406 3131 3298 2873 
Q 3191 2616 2906 2266 
Q 2828 2175 2409 1742 
Q 1991 1309 1228 531 
z
" transform="scale(0.015625)"/>
       </defs>
       <use xlink:href="#DejaVuSans-32"/>
       <use xlink:href="#DejaVuSans-30" x="63.623047"/>
      </g>
     </g>
    </g>
    <g id="xtick_3">
     <g id="line2d_3">
      <path d="M 197.436942 288.430125 
L 197.436942 22.318125 
" clip-path="url(#p76e3596b3d)" style="fill: none; stroke: #cccccc; stroke-linecap: round"/>
     </g>
     <g id="text_3">
      <!-- 40 -->
      <g style="fill: #262626" transform="translate(190.438192 306.288406) scale(0.11 -0.11)">
       <defs>
        <path id="DejaVuSans-34" d="M 2419 4116 
L 825 1625 
L 2419 1625 
L 2419 4116 
z
M 2253 4666 
L 3047 4666 
L 3047 1625 
L 3713 1625 
L 3713 1100 
L 3047 1100 
L 3047 0 
L 2419 0 
L 2419 1100 
L 313 1100 
L 313 1709 
L 2253 4666 
z
" transform="scale(0.015625)"/>
       </defs>
       <use xlink:href="#DejaVuSans-34"/>
       <use xlink:href="#DejaVuSans-30" x="63.623047"/>
      </g>
     </g>
    </g>
    <g id="xtick_4">
     <g id="line2d_4">
      <path d="M 263.023719 288.430125 
L 263.023719 22.318125 
" clip-path="url(#p76e3596b3d)" style="fill: none; stroke: #cccccc; stroke-linecap: round"/>
     </g>
     <g id="text_4">
      <!-- 60 -->
      <g style="fill: #262626" transform="translate(256.024969 306.288406) scale(0.11 -0.11)">
       <defs>
        <path id="DejaVuSans-36" d="M 2113 2584 
Q 1688 2584 1439 2293 
Q 1191 2003 1191 1497 
Q 1191 994 1439 701 
Q 1688 409 2113 409 
Q 2538 409 2786 701 
Q 3034 994 3034 1497 
Q 3034 2003 2786 2293 
Q 2538 2584 2113 2584 
z
M 3366 4563 
L 3366 3988 
Q 3128 4100 2886 4159 
Q 2644 4219 2406 4219 
Q 1781 4219 1451 3797 
Q 1122 3375 1075 2522 
Q 1259 2794 1537 2939 
Q 1816 3084 2150 3084 
Q 2853 3084 3261 2657 
Q 3669 2231 3669 1497 
Q 3669 778 3244 343 
Q 2819 -91 2113 -91 
Q 1303 -91 875 529 
Q 447 1150 447 2328 
Q 447 3434 972 4092 
Q 1497 4750 2381 4750 
Q 2619 4750 2861 4703 
Q 3103 4656 3366 4563 
z
" transform="scale(0.015625)"/>
       </defs>
       <use xlink:href="#DejaVuSans-36"/>
       <use xlink:href="#DejaVuSans-30" x="63.623047"/>
      </g>
     </g>
    </g>
    <g id="xtick_5">
     <g id="line2d_5">
      <path d="M 328.610496 288.430125 
L 328.610496 22.318125 
" clip-path="url(#p76e3596b3d)" style="fill: none; stroke: #cccccc; stroke-linecap: round"/>
     </g>
     <g id="text_5">
      <!-- 80 -->
      <g style="fill: #262626" transform="translate(321.611746 306.288406) scale(0.11 -0.11)">
       <defs>
        <path id="DejaVuSans-38" d="M 2034 2216 
Q 1584 2216 1326 1975 
Q 1069 1734 1069 1313 
Q 1069 891 1326 650 
Q 1584 409 2034 409 
Q 2484 409 2743 651 
Q 3003 894 3003 1313 
Q 3003 1734 2745 1975 
Q 2488 2216 2034 2216 
z
M 1403 2484 
Q 997 2584 770 2862 
Q 544 3141 544 3541 
Q 544 4100 942 4425 
Q 1341 4750 2034 4750 
Q 2731 4750 3128 4425 
Q 3525 4100 3525 3541 
Q 3525 3141 3298 2862 
Q 3072 2584 2669 2484 
Q 3125 2378 3379 2068 
Q 3634 1759 3634 1313 
Q 3634 634 3220 271 
Q 2806 -91 2034 -91 
Q 1263 -91 848 271 
Q 434 634 434 1313 
Q 434 1759 690 2068 
Q 947 2378 1403 2484 
z
M 1172 3481 
Q 1172 3119 1398 2916 
Q 1625 2713 2034 2713 
Q 2441 2713 2670 2916 
Q 2900 3119 2900 3481 
Q 2900 3844 2670 4047 
Q 2441 4250 2034 4250 
Q 1625 4250 1398 4047 
Q 1172 3844 1172 3481 
z
" transform="scale(0.015625)"/>
       </defs>
       <use xlink:href="#DejaVuSans-38"/>
       <use xlink:href="#DejaVuSans-30" x="63.623047"/>
      </g>
     </g>
    </g>
    <g id="xtick_6">
     <g id="line2d_6">
      <path d="M 394.197273 288.430125 
L 394.197273 22.318125 
" clip-path="url(#p76e3596b3d)" style="fill: none; stroke: #cccccc; stroke-linecap: round"/>
     </g>
     <g id="text_6">
      <!-- 100 -->
      <g style="fill: #262626" transform="translate(383.699148 306.288406) scale(0.11 -0.11)">
       <defs>
        <path id="DejaVuSans-31" d="M 794 531 
L 1825 531 
L 1825 4091 
L 703 3866 
L 703 4441 
L 1819 4666 
L 2450 4666 
L 2450 531 
L 3481 531 
L 3481 0 
L 794 0 
L 794 531 
z
" transform="scale(0.015625)"/>
       </defs>
       <use xlink:href="#DejaVuSans-31"/>
       <use xlink:href="#DejaVuSans-30" x="63.623047"/>
       <use xlink:href="#DejaVuSans-30" x="127.246094"/>
      </g>
     </g>
    </g>
    <g id="text_7">
     <!-- Server round -->
     <g style="fill: #262626" transform="translate(192.869063 321.694187) scale(0.12 -0.12)">
      <defs>
       <path id="DejaVuSans-53" d="M 3425 4513 
L 3425 3897 
Q 3066 4069 2747 4153 
Q 2428 4238 2131 4238 
Q 1616 4238 1336 4038 
Q 1056 3838 1056 3469 
Q 1056 3159 1242 3001 
Q 1428 2844 1947 2747 
L 2328 2669 
Q 3034 2534 3370 2195 
Q 3706 1856 3706 1288 
Q 3706 609 3251 259 
Q 2797 -91 1919 -91 
Q 1588 -91 1214 -16 
Q 841 59 441 206 
L 441 856 
Q 825 641 1194 531 
Q 1563 422 1919 422 
Q 2459 422 2753 634 
Q 3047 847 3047 1241 
Q 3047 1584 2836 1778 
Q 2625 1972 2144 2069 
L 1759 2144 
Q 1053 2284 737 2584 
Q 422 2884 422 3419 
Q 422 4038 858 4394 
Q 1294 4750 2059 4750 
Q 2388 4750 2728 4690 
Q 3069 4631 3425 4513 
z
" transform="scale(0.015625)"/>
       <path id="DejaVuSans-65" d="M 3597 1894 
L 3597 1613 
L 953 1613 
Q 991 1019 1311 708 
Q 1631 397 2203 397 
Q 2534 397 2845 478 
Q 3156 559 3463 722 
L 3463 178 
Q 3153 47 2828 -22 
Q 2503 -91 2169 -91 
Q 1331 -91 842 396 
Q 353 884 353 1716 
Q 353 2575 817 3079 
Q 1281 3584 2069 3584 
Q 2775 3584 3186 3129 
Q 3597 2675 3597 1894 
z
M 3022 2063 
Q 3016 2534 2758 2815 
Q 2500 3097 2075 3097 
Q 1594 3097 1305 2825 
Q 1016 2553 972 2059 
L 3022 2063 
z
" transform="scale(0.015625)"/>
       <path id="DejaVuSans-72" d="M 2631 2963 
Q 2534 3019 2420 3045 
Q 2306 3072 2169 3072 
Q 1681 3072 1420 2755 
Q 1159 2438 1159 1844 
L 1159 0 
L 581 0 
L 581 3500 
L 1159 3500 
L 1159 2956 
Q 1341 3275 1631 3429 
Q 1922 3584 2338 3584 
Q 2397 3584 2469 3576 
Q 2541 3569 2628 3553 
L 2631 2963 
z
" transform="scale(0.015625)"/>
       <path id="DejaVuSans-76" d="M 191 3500 
L 800 3500 
L 1894 563 
L 2988 3500 
L 3597 3500 
L 2284 0 
L 1503 0 
L 191 3500 
z
" transform="scale(0.015625)"/>
       <path id="DejaVuSans-20" transform="scale(0.015625)"/>
       <path id="DejaVuSans-6f" d="M 1959 3097 
Q 1497 3097 1228 2736 
Q 959 2375 959 1747 
Q 959 1119 1226 758 
Q 1494 397 1959 397 
Q 2419 397 2687 759 
Q 2956 1122 2956 1747 
Q 2956 2369 2687 2733 
Q 2419 3097 1959 3097 
z
M 1959 3584 
Q 2709 3584 3137 3096 
Q 3566 2609 3566 1747 
Q 3566 888 3137 398 
Q 2709 -91 1959 -91 
Q 1206 -91 779 398 
Q 353 888 353 1747 
Q 353 2609 779 3096 
Q 1206 3584 1959 3584 
z
" transform="scale(0.015625)"/>
       <path id="DejaVuSans-75" d="M 544 1381 
L 544 3500 
L 1119 3500 
L 1119 1403 
Q 1119 906 1312 657 
Q 1506 409 1894 409 
Q 2359 409 2629 706 
Q 2900 1003 2900 1516 
L 2900 3500 
L 3475 3500 
L 3475 0 
L 2900 0 
L 2900 538 
Q 2691 219 2414 64 
Q 2138 -91 1772 -91 
Q 1169 -91 856 284 
Q 544 659 544 1381 
z
M 1991 3584 
L 1991 3584 
z
" transform="scale(0.015625)"/>
       <path id="DejaVuSans-6e" d="M 3513 2113 
L 3513 0 
L 2938 0 
L 2938 2094 
Q 2938 2591 2744 2837 
Q 2550 3084 2163 3084 
Q 1697 3084 1428 2787 
Q 1159 2491 1159 1978 
L 1159 0 
L 581 0 
L 581 3500 
L 1159 3500 
L 1159 2956 
Q 1366 3272 1645 3428 
Q 1925 3584 2291 3584 
Q 2894 3584 3203 3211 
Q 3513 2838 3513 2113 
z
" transform="scale(0.015625)"/>
       <path id="DejaVuSans-64" d="M 2906 2969 
L 2906 4863 
L 3481 4863 
L 3481 0 
L 2906 0 
L 2906 525 
Q 2725 213 2448 61 
Q 2172 -91 1784 -91 
Q 1150 -91 751 415 
Q 353 922 353 1747 
Q 353 2572 751 3078 
Q 1150 3584 1784 3584 
Q 2172 3584 2448 3432 
Q 2725 3281 2906 2969 
z
M 947 1747 
Q 947 1113 1208 752 
Q 1469 391 1925 391 
Q 2381 391 2643 752 
Q 2906 1113 2906 1747 
Q 2906 2381 2643 2742 
Q 2381 3103 1925 3103 
Q 1469 3103 1208 2742 
Q 947 2381 947 1747 
z
" transform="scale(0.015625)"/>
      </defs>
      <use xlink:href="#DejaVuSans-53"/>
      <use xlink:href="#DejaVuSans-65" x="63.476562"/>
      <use xlink:href="#DejaVuSans-72" x="125"/>
      <use xlink:href="#DejaVuSans-76" x="166.113281"/>
      <use xlink:href="#DejaVuSans-65" x="225.292969"/>
      <use xlink:href="#DejaVuSans-72" x="286.816406"/>
      <use xlink:href="#DejaVuSans-20" x="327.929688"/>
      <use xlink:href="#DejaVuSans-72" x="359.716797"/>
      <use xlink:href="#DejaVuSans-6f" x="398.580078"/>
      <use xlink:href="#DejaVuSans-75" x="459.761719"/>
      <use xlink:href="#DejaVuSans-6e" x="523.140625"/>
      <use xlink:href="#DejaVuSans-64" x="586.519531"/>
     </g>
    </g>
   </g>
   <g id="matplotlib.axis_2">
    <g id="ytick_1">
     <g id="line2d_7">
      <path d="M 53.31 267.78025 
L 410.43 267.78025 
" clip-path="url(#p76e3596b3d)" style="fill: none; stroke: #cccccc; stroke-linecap: round"/>
     </g>
     <g id="text_8">
      <!-- 20 -->
      <g style="fill: #262626" transform="translate(29.8125 271.95939) scale(0.11 -0.11)">
       <use xlink:href="#DejaVuSans-32"/>
       <use xlink:href="#DejaVuSans-30" x="63.623047"/>
      </g>
     </g>
    </g>
    <g id="ytick_2">
     <g id="line2d_8">
      <path d="M 53.31 208.671247 
L 410.43 208.671247 
" clip-path="url(#p76e3596b3d)" style="fill: none; stroke: #cccccc; stroke-linecap: round"/>
     </g>
     <g id="text_9">
      <!-- 40 -->
      <g style="fill: #262626" transform="translate(29.8125 212.850388) scale(0.11 -0.11)">
       <use xlink:href="#DejaVuSans-34"/>
       <use xlink:href="#DejaVuSans-30" x="63.623047"/>
      </g>
     </g>
    </g>
    <g id="ytick_3">
     <g id="line2d_9">
      <path d="M 53.31 149.562245 
L 410.43 149.562245 
" clip-path="url(#p76e3596b3d)" style="fill: none; stroke: #cccccc; stroke-linecap: round"/>
     </g>
     <g id="text_10">
      <!-- 60 -->
      <g style="fill: #262626" transform="translate(29.8125 153.741386) scale(0.11 -0.11)">
       <use xlink:href="#DejaVuSans-36"/>
       <use xlink:href="#DejaVuSans-30" x="63.623047"/>
      </g>
     </g>
    </g>
    <g id="ytick_4">
     <g id="line2d_10">
      <path d="M 53.31 90.453242 
L 410.43 90.453242 
" clip-path="url(#p76e3596b3d)" style="fill: none; stroke: #cccccc; stroke-linecap: round"/>
     </g>
     <g id="text_11">
      <!-- 80 -->
      <g style="fill: #262626" transform="translate(29.8125 94.632383) scale(0.11 -0.11)">
       <use xlink:href="#DejaVuSans-38"/>
       <use xlink:href="#DejaVuSans-30" x="63.623047"/>
      </g>
     </g>
    </g>
    <g id="ytick_5">
     <g id="line2d_11">
      <path d="M 53.31 31.34424 
L 410.43 31.34424 
" clip-path="url(#p76e3596b3d)" style="fill: none; stroke: #cccccc; stroke-linecap: round"/>
     </g>
     <g id="text_12">
      <!-- 100 -->
      <g style="fill: #262626" transform="translate(22.81375 35.523381) scale(0.11 -0.11)">
       <use xlink:href="#DejaVuSans-31"/>
       <use xlink:href="#DejaVuSans-30" x="63.623047"/>
       <use xlink:href="#DejaVuSans-30" x="127.246094"/>
      </g>
     </g>
    </g>
    <g id="text_13">
     <!-- Accuracy aggregated (%) -->
     <g style="fill: #262626" transform="translate(16.318125 231.621937) rotate(-90) scale(0.12 -0.12)">
      <defs>
       <path id="DejaVuSans-41" d="M 2188 4044 
L 1331 1722 
L 3047 1722 
L 2188 4044 
z
M 1831 4666 
L 2547 4666 
L 4325 0 
L 3669 0 
L 3244 1197 
L 1141 1197 
L 716 0 
L 50 0 
L 1831 4666 
z
" transform="scale(0.015625)"/>
       <path id="DejaVuSans-63" d="M 3122 3366 
L 3122 2828 
Q 2878 2963 2633 3030 
Q 2388 3097 2138 3097 
Q 1578 3097 1268 2742 
Q 959 2388 959 1747 
Q 959 1106 1268 751 
Q 1578 397 2138 397 
Q 2388 397 2633 464 
Q 2878 531 3122 666 
L 3122 134 
Q 2881 22 2623 -34 
Q 2366 -91 2075 -91 
Q 1284 -91 818 406 
Q 353 903 353 1747 
Q 353 2603 823 3093 
Q 1294 3584 2113 3584 
Q 2378 3584 2631 3529 
Q 2884 3475 3122 3366 
z
" transform="scale(0.015625)"/>
       <path id="DejaVuSans-61" d="M 2194 1759 
Q 1497 1759 1228 1600 
Q 959 1441 959 1056 
Q 959 750 1161 570 
Q 1363 391 1709 391 
Q 2188 391 2477 730 
Q 2766 1069 2766 1631 
L 2766 1759 
L 2194 1759 
z
M 3341 1997 
L 3341 0 
L 2766 0 
L 2766 531 
Q 2569 213 2275 61 
Q 1981 -91 1556 -91 
Q 1019 -91 701 211 
Q 384 513 384 1019 
Q 384 1609 779 1909 
Q 1175 2209 1959 2209 
L 2766 2209 
L 2766 2266 
Q 2766 2663 2505 2880 
Q 2244 3097 1772 3097 
Q 1472 3097 1187 3025 
Q 903 2953 641 2809 
L 641 3341 
Q 956 3463 1253 3523 
Q 1550 3584 1831 3584 
Q 2591 3584 2966 3190 
Q 3341 2797 3341 1997 
z
" transform="scale(0.015625)"/>
       <path id="DejaVuSans-79" d="M 2059 -325 
Q 1816 -950 1584 -1140 
Q 1353 -1331 966 -1331 
L 506 -1331 
L 506 -850 
L 844 -850 
Q 1081 -850 1212 -737 
Q 1344 -625 1503 -206 
L 1606 56 
L 191 3500 
L 800 3500 
L 1894 763 
L 2988 3500 
L 3597 3500 
L 2059 -325 
z
" transform="scale(0.015625)"/>
       <path id="DejaVuSans-67" d="M 2906 1791 
Q 2906 2416 2648 2759 
Q 2391 3103 1925 3103 
Q 1463 3103 1205 2759 
Q 947 2416 947 1791 
Q 947 1169 1205 825 
Q 1463 481 1925 481 
Q 2391 481 2648 825 
Q 2906 1169 2906 1791 
z
M 3481 434 
Q 3481 -459 3084 -895 
Q 2688 -1331 1869 -1331 
Q 1566 -1331 1297 -1286 
Q 1028 -1241 775 -1147 
L 775 -588 
Q 1028 -725 1275 -790 
Q 1522 -856 1778 -856 
Q 2344 -856 2625 -561 
Q 2906 -266 2906 331 
L 2906 616 
Q 2728 306 2450 153 
Q 2172 0 1784 0 
Q 1141 0 747 490 
Q 353 981 353 1791 
Q 353 2603 747 3093 
Q 1141 3584 1784 3584 
Q 2172 3584 2450 3431 
Q 2728 3278 2906 2969 
L 2906 3500 
L 3481 3500 
L 3481 434 
z
" transform="scale(0.015625)"/>
       <path id="DejaVuSans-74" d="M 1172 4494 
L 1172 3500 
L 2356 3500 
L 2356 3053 
L 1172 3053 
L 1172 1153 
Q 1172 725 1289 603 
Q 1406 481 1766 481 
L 2356 481 
L 2356 0 
L 1766 0 
Q 1100 0 847 248 
Q 594 497 594 1153 
L 594 3053 
L 172 3053 
L 172 3500 
L 594 3500 
L 594 4494 
L 1172 4494 
z
" transform="scale(0.015625)"/>
       <path id="DejaVuSans-28" d="M 1984 4856 
Q 1566 4138 1362 3434 
Q 1159 2731 1159 2009 
Q 1159 1288 1364 580 
Q 1569 -128 1984 -844 
L 1484 -844 
Q 1016 -109 783 600 
Q 550 1309 550 2009 
Q 550 2706 781 3412 
Q 1013 4119 1484 4856 
L 1984 4856 
z
" transform="scale(0.015625)"/>
       <path id="DejaVuSans-25" d="M 4653 2053 
Q 4381 2053 4226 1822 
Q 4072 1591 4072 1178 
Q 4072 772 4226 539 
Q 4381 306 4653 306 
Q 4919 306 5073 539 
Q 5228 772 5228 1178 
Q 5228 1588 5073 1820 
Q 4919 2053 4653 2053 
z
M 4653 2450 
Q 5147 2450 5437 2106 
Q 5728 1763 5728 1178 
Q 5728 594 5436 251 
Q 5144 -91 4653 -91 
Q 4153 -91 3862 251 
Q 3572 594 3572 1178 
Q 3572 1766 3864 2108 
Q 4156 2450 4653 2450 
z
M 1428 4353 
Q 1159 4353 1004 4120 
Q 850 3888 850 3481 
Q 850 3069 1003 2837 
Q 1156 2606 1428 2606 
Q 1700 2606 1854 2837 
Q 2009 3069 2009 3481 
Q 2009 3884 1853 4118 
Q 1697 4353 1428 4353 
z
M 4250 4750 
L 4750 4750 
L 1831 -91 
L 1331 -91 
L 4250 4750 
z
M 1428 4750 
Q 1922 4750 2215 4408 
Q 2509 4066 2509 3481 
Q 2509 2891 2217 2550 
Q 1925 2209 1428 2209 
Q 931 2209 642 2551 
Q 353 2894 353 3481 
Q 353 4063 643 4406 
Q 934 4750 1428 4750 
z
" transform="scale(0.015625)"/>
       <path id="DejaVuSans-29" d="M 513 4856 
L 1013 4856 
Q 1481 4119 1714 3412 
Q 1947 2706 1947 2009 
Q 1947 1309 1714 600 
Q 1481 -109 1013 -844 
L 513 -844 
Q 928 -128 1133 580 
Q 1338 1288 1338 2009 
Q 1338 2731 1133 3434 
Q 928 4138 513 4856 
z
" transform="scale(0.015625)"/>
      </defs>
      <use xlink:href="#DejaVuSans-41"/>
      <use xlink:href="#DejaVuSans-63" x="66.658203"/>
      <use xlink:href="#DejaVuSans-63" x="121.638672"/>
      <use xlink:href="#DejaVuSans-75" x="176.619141"/>
      <use xlink:href="#DejaVuSans-72" x="239.998047"/>
      <use xlink:href="#DejaVuSans-61" x="281.111328"/>
      <use xlink:href="#DejaVuSans-63" x="342.390625"/>
      <use xlink:href="#DejaVuSans-79" x="397.371094"/>
      <use xlink:href="#DejaVuSans-20" x="456.550781"/>
      <use xlink:href="#DejaVuSans-61" x="488.337891"/>
      <use xlink:href="#DejaVuSans-67" x="549.617188"/>
      <use xlink:href="#DejaVuSans-67" x="613.09375"/>
      <use xlink:href="#DejaVuSans-72" x="676.570312"/>
      <use xlink:href="#DejaVuSans-65" x="715.433594"/>
      <use xlink:href="#DejaVuSans-67" x="776.957031"/>
      <use xlink:href="#DejaVuSans-61" x="840.433594"/>
      <use xlink:href="#DejaVuSans-74" x="901.712891"/>
      <use xlink:href="#DejaVuSans-65" x="940.921875"/>
      <use xlink:href="#DejaVuSans-64" x="1002.445312"/>
      <use xlink:href="#DejaVuSans-20" x="1065.921875"/>
      <use xlink:href="#DejaVuSans-28" x="1097.708984"/>
      <use xlink:href="#DejaVuSans-25" x="1136.722656"/>
      <use xlink:href="#DejaVuSans-29" x="1231.742188"/>
     </g>
    </g>
   </g>
   <g id="PolyCollection_1"/>
   <g id="PolyCollection_2"/>
   <g id="PolyCollection_3"/>
   <g id="PolyCollection_4"/>
   <g id="PolyCollection_5"/>
   <g id="line2d_12">
    <path d="M 69.542727 241.533386 
L 72.822066 197.000459 
L 76.101405 176.922105 
L 79.380744 130.468867 
L 82.660083 91.291909 
L 85.939421 94.218097 
L 89.21876 67.686453 
L 92.498099 67.568883 
L 95.777438 59.796195 
L 99.056777 43.832793 
L 102.336116 42.735473 
L 105.615455 41.768786 
L 108.894793 41.455265 
L 112.174132 41.011112 
L 115.453471 43.963427 
L 118.73281 43.062056 
L 122.012149 41.298505 
L 125.291488 38.241684 
L 128.570826 39.365131 
L 131.850165 39.352068 
L 135.129504 39.012421 
L 138.408843 37.862847 
L 141.688182 37.144363 
L 144.967521 37.418693 
L 148.24686 36.543449 
L 151.526198 36.70021 
L 154.805537 36.987603 
L 158.084876 37.810593 
L 161.364215 38.26781 
L 164.643554 38.34619 
L 167.922893 37.810593 
L 171.202231 37.627707 
L 174.48157 37.000666 
L 177.760909 36.713273 
L 181.040248 36.465069 
L 184.319587 36.608766 
L 187.598926 36.478133 
L 190.878264 35.642079 
L 194.157603 37.431757 
L 197.436942 36.674083 
L 200.716281 36.242993 
L 203.99562 35.903346 
L 207.274959 35.406939 
L 210.554298 35.550636 
L 213.833636 35.119545 
L 217.112975 35.119545 
L 220.392314 35.224052 
L 223.671653 35.093419 
L 226.950992 35.184862 
L 230.230331 34.897469 
L 233.509669 35.433066 
L 236.789008 34.897469 
L 240.068347 34.766835 
L 243.347686 34.427188 
L 246.627025 34.662328 
L 249.906364 34.414125 
L 253.185702 35.263242 
L 256.465041 35.224052 
L 259.74438 35.589826 
L 263.023719 35.615952 
L 266.303058 35.563699 
L 269.582397 35.093419 
L 272.861736 34.714582 
L 276.141074 34.910532 
L 279.420413 34.910532 
L 282.699752 34.636202 
L 285.979091 34.610075 
L 289.25843 34.740709 
L 292.537769 34.753772 
L 295.817107 40.996882 
L 299.096446 41.543433 
L 302.375785 41.756495 
L 305.655124 41.636069 
L 308.934463 41.682387 
L 312.213802 40.820875 
L 315.49314 40.950565 
L 318.772479 40.867192 
L 322.051818 40.774557 
L 325.331157 41.052464 
L 328.610496 40.857929 
L 331.889835 40.91351 
L 335.169174 40.996882 
L 338.448512 41.01541 
L 341.727851 41.17289 
L 345.00719 41.200681 
L 348.286529 41.395216 
L 351.565868 41.209945 
L 354.845207 41.154363 
L 358.124545 41.080255 
L 361.403884 41.135836 
L 364.683223 41.01541 
L 367.962562 40.894983 
L 371.241901 41.033937 
L 374.52124 40.978355 
L 377.800579 40.978355 
L 381.079917 40.969092 
L 384.359256 41.052464 
L 387.638595 41.070991 
L 390.917934 40.950565 
L 394.197273 41.0432 
" clip-path="url(#p76e3596b3d)" style="fill: none; stroke: #4c72b0; stroke-width: 1.5; stroke-linecap: round"/>
   </g>
   <g id="line2d_13">
    <path d="M 69.542727 265.857326 
L 72.822066 242.539264 
L 76.101405 231.278664 
L 79.380744 175.093237 
L 82.660083 145.779102 
L 85.939421 164.472742 
L 89.21876 115.485215 
L 92.498099 113.329764 
L 95.777438 112.624344 
L 99.056777 86.066573 
L 102.336116 88.640051 
L 105.615455 76.974488 
L 108.894793 75.054177 
L 112.174132 86.001256 
L 115.453471 92.559053 
L 118.73281 105.37419 
L 122.012149 78.920926 
L 125.291488 93.982957 
L 128.570826 85.361152 
L 131.850165 87.6603 
L 135.129504 82.199824 
L 138.408843 68.431063 
L 141.688182 72.036545 
L 144.967521 70.299121 
L 148.24686 55.419976 
L 151.526198 83.924185 
L 154.805537 94.988834 
L 158.084876 95.210911 
L 161.364215 75.550584 
L 164.643554 90.664869 
L 167.922893 71.905912 
L 171.202231 73.93073 
L 174.48157 78.855609 
L 177.760909 59.064648 
L 181.040248 58.581305 
L 184.319587 66.131915 
L 187.598926 68.875217 
L 190.878264 55.145646 
L 194.157603 80.527716 
L 197.436942 56.778564 
L 200.716281 61.598936 
L 203.99562 52.010444 
L 207.274959 47.503592 
L 210.554298 61.207036 
L 213.833636 54.165896 
L 217.112975 81.79486 
L 220.392314 69.2018 
L 223.671653 74.884353 
L 226.950992 62.617877 
L 230.230331 50.11626 
L 233.509669 66.184169 
L 236.789008 46.563032 
L 240.068347 52.519915 
L 243.347686 48.757673 
L 246.627025 55.31547 
L 249.906364 43.989553 
L 253.185702 46.549968 
L 256.465041 78.790292 
L 259.74438 45.531028 
L 263.023719 68.208986 
L 266.303058 89.881068 
L 269.582397 44.760291 
L 272.861736 51.696924 
L 276.141074 49.698233 
L 279.420413 47.033312 
L 282.699752 54.636176 
L 285.979091 80.449336 
L 289.25843 76.151497 
L 292.537769 68.509443 
L 295.817107 49.621268 
L 299.096446 69.806592 
L 302.375785 64.415193 
L 305.655124 56.42073 
L 308.934463 67.926087 
L 312.213802 49.15809 
L 315.49314 50.918168 
L 318.772479 51.566618 
L 322.051818 43.423938 
L 325.331157 48.79681 
L 328.610496 46.842197 
L 331.889835 43.813008 
L 335.169174 59.820461 
L 338.448512 52.993209 
L 341.727851 50.695843 
L 345.00719 55.957552 
L 348.286529 52.029797 
L 351.565868 50.316036 
L 354.845207 50.927432 
L 358.124545 44.64673 
L 361.403884 60.450384 
L 364.683223 48.417004 
L 367.962562 45.304444 
L 371.241901 42.284519 
L 374.52124 45.415606 
L 377.800579 67.277637 
L 381.079917 58.523561 
L 384.359256 46.351227 
L 387.638595 41.469325 
L 390.917934 50.807006 
L 394.197273 44.924637 
" clip-path="url(#p76e3596b3d)" style="fill: none; stroke: #dd8452; stroke-width: 1.5; stroke-linecap: round"/>
   </g>
   <g id="line2d_14">
    <path d="M 69.542727 247.346573 
L 72.822066 249.711037 
L 76.101405 255.654857 
L 79.380744 240.566699 
L 82.660083 223.767243 
L 85.939421 209.854786 
L 89.21876 199.051403 
L 92.498099 196.412609 
L 95.777438 190.612486 
L 99.056777 173.826093 
L 102.336116 165.125909 
L 105.615455 158.555048 
L 108.894793 145.700721 
L 112.174132 140.919539 
L 115.453471 137.392437 
L 118.73281 135.432936 
L 122.012149 131.474744 
L 125.291488 122.800686 
L 128.570826 118.150137 
L 131.850165 115.419899 
L 135.129504 112.624344 
L 138.408843 109.201749 
L 141.688182 106.994044 
L 144.967521 102.970535 
L 148.24686 101.050224 
L 151.526198 99.23442 
L 154.805537 99.03847 
L 158.084876 95.955521 
L 161.364215 95.916331 
L 164.643554 94.427111 
L 167.922893 92.258596 
L 171.202231 88.953571 
L 174.48157 85.779179 
L 177.760909 82.003874 
L 181.040248 80.77592 
L 184.319587 80.514653 
L 187.598926 80.096626 
L 190.878264 76.922235 
L 194.157603 76.726284 
L 197.436942 75.798787 
L 200.716281 73.303689 
L 203.99562 72.532952 
L 207.274959 71.631582 
L 210.554298 70.782465 
L 213.833636 70.677958 
L 217.112975 70.455881 
L 220.392314 68.013036 
L 223.671653 66.340929 
L 226.950992 66.066599 
L 230.230331 64.681885 
L 233.509669 64.708011 
L 236.789008 62.918334 
L 240.068347 62.0039 
L 243.347686 60.710629 
L 246.627025 60.632249 
L 249.906364 60.475489 
L 253.185702 60.527742 
L 256.465041 60.423236 
L 259.74438 60.318729 
L 263.023719 60.096652 
L 266.303058 60.005209 
L 269.582397 59.822322 
L 272.861736 59.770069 
L 276.141074 59.770069 
L 279.420413 59.600245 
L 282.699752 59.391232 
L 285.979091 59.352042 
L 289.25843 59.665562 
L 292.537769 59.312852 
L 295.817107 99.70014 
L 299.096446 99.607505 
L 302.375785 99.764985 
L 305.655124 99.690877 
L 308.934463 99.246225 
L 312.213802 98.986845 
L 315.49314 98.783047 
L 318.772479 98.607039 
L 322.051818 98.597775 
L 325.331157 98.699675 
L 328.610496 98.551457 
L 331.889835 97.374984 
L 335.169174 97.134131 
L 338.448512 96.809906 
L 341.727851 96.772852 
L 345.00719 96.708006 
L 348.286529 96.856224 
L 351.565868 96.809906 
L 354.845207 96.865487 
L 358.124545 96.606107 
L 361.403884 96.513471 
L 364.683223 96.939596 
L 367.962562 96.013239 
L 371.241901 96.013239 
L 374.52124 96.031766 
L 377.800579 95.80944 
L 381.079917 95.253626 
L 384.359256 95.179517 
L 387.638595 94.494013 
L 390.917934 94.623703 
L 394.197273 94.456958 
" clip-path="url(#p76e3596b3d)" style="fill: none; stroke: #55a868; stroke-width: 1.5; stroke-linecap: round"/>
   </g>
   <g id="line2d_15">
    <path d="M 69.542727 250.599345 
L 72.822066 241.66402 
L 76.101405 229.750253 
L 79.380744 206.366874 
L 82.660083 178.607276 
L 85.939421 148.914303 
L 89.21876 150.782361 
L 92.498099 137.09198 
L 95.777438 114.910428 
L 99.056777 96.765449 
L 102.336116 86.68055 
L 105.615455 81.860177 
L 108.894793 66.863462 
L 112.174132 64.316111 
L 115.453471 62.696257 
L 118.73281 61.612 
L 122.012149 59.221408 
L 125.291488 59.521865 
L 128.570826 59.352042 
L 131.850165 58.411481 
L 135.129504 58.058771 
L 138.408843 57.183527 
L 141.688182 55.968637 
L 144.967521 55.916383 
L 148.24686 53.499665 
L 151.526198 53.969946 
L 154.805537 53.917692 
L 158.084876 53.747869 
L 161.364215 53.551919 
L 164.643554 52.402345 
L 167.922893 51.657734 
L 171.202231 50.70411 
L 174.48157 50.07707 
L 177.760909 49.162636 
L 181.040248 47.098628 
L 184.319587 47.320705 
L 187.598926 46.680602 
L 190.878264 45.269761 
L 194.157603 46.732855 
L 197.436942 45.687788 
L 200.716281 46.118878 
L 203.99562 46.105815 
L 207.274959 44.56434 
L 210.554298 44.316137 
L 213.833636 42.683219 
L 217.112975 44.159377 
L 220.392314 44.760291 
L 223.671653 42.866106 
L 226.950992 43.009803 
L 230.230331 42.617903 
L 233.509669 42.604839 
L 236.789008 42.304383 
L 240.068347 41.899419 
L 243.347686 41.115619 
L 246.627025 40.815162 
L 249.906364 40.253438 
L 253.185702 39.717841 
L 256.465041 40.828225 
L 259.74438 40.475515 
L 263.023719 39.352068 
L 266.303058 38.163304 
L 269.582397 38.437634 
L 272.861736 38.829534 
L 276.141074 39.103864 
L 279.420413 38.359254 
L 282.699752 38.607457 
L 285.979091 38.986294 
L 289.25843 38.868724 
L 292.537769 38.816471 
L 295.817107 54.141892 
L 299.096446 53.335961 
L 302.375785 53.521232 
L 305.655124 53.085844 
L 308.934463 52.696774 
L 312.213802 53.43786 
L 315.49314 53.206271 
L 318.772479 52.668984 
L 322.051818 52.641193 
L 325.331157 53.586077 
L 328.610496 53.095108 
L 331.889835 53.298906 
L 335.169174 52.882046 
L 338.448512 52.863519 
L 341.727851 52.706038 
L 345.00719 52.14096 
L 348.286529 52.854255 
L 351.565868 52.252123 
L 354.845207 52.316968 
L 358.124545 52.835728 
L 361.403884 52.01127 
L 364.683223 52.696774 
L 367.962562 52.937627 
L 371.241901 52.724565 
L 374.52124 52.483712 
L 377.800579 52.9191 
L 381.079917 52.650456 
L 384.359256 52.761619 
L 387.638595 52.27065 
L 390.917934 52.354022 
L 394.197273 53.020999 
" clip-path="url(#p76e3596b3d)" style="fill: none; stroke: #c44e52; stroke-width: 1.5; stroke-linecap: round"/>
   </g>
   <g id="line2d_16">
    <path d="M 69.542727 276.334125 
L 72.822066 265.805073 
L 76.101405 260.723433 
L 79.380744 241.141486 
L 82.660083 224.799247 
L 85.939421 219.495531 
L 89.21876 184.106942 
L 92.498099 194.126524 
L 95.777438 180.410017 
L 99.056777 183.584408 
L 102.336116 166.954776 
L 105.615455 146.915612 
L 108.894793 123.728183 
L 112.174132 117.092006 
L 115.453471 110.024739 
L 118.73281 97.562312 
L 122.012149 96.817702 
L 125.291488 93.512677 
L 128.570826 87.634174 
L 131.850165 80.710603 
L 135.129504 77.692972 
L 138.408843 65.988219 
L 141.688182 65.962092 
L 144.967521 63.336361 
L 148.24686 61.703443 
L 151.526198 59.273662 
L 154.805537 57.079021 
L 158.084876 54.623113 
L 161.364215 54.492479 
L 164.643554 54.335719 
L 167.922893 52.323965 
L 171.202231 51.239707 
L 174.48157 50.7433 
L 177.760909 50.064007 
L 181.040248 48.026126 
L 184.319587 48.457216 
L 187.598926 47.830176 
L 190.878264 46.602222 
L 194.157603 46.066625 
L 197.436942 45.531028 
L 200.716281 45.491838 
L 203.99562 44.433707 
L 207.274959 44.120187 
L 210.554298 44.028743 
L 213.833636 42.435016 
L 217.112975 42.500333 
L 220.392314 42.199876 
L 223.671653 41.559772 
L 226.950992 41.533645 
L 230.230331 41.180935 
L 233.509669 41.024175 
L 236.789008 40.789035 
L 240.068347 40.436325 
L 243.347686 39.730905 
L 246.627025 39.613334 
L 249.906364 39.534954 
L 253.185702 38.529077 
L 256.465041 38.620521 
L 259.74438 38.764217 
L 263.023719 38.372317 
L 266.303058 37.928164 
L 269.582397 37.862847 
L 272.861736 37.549327 
L 276.141074 37.549327 
L 279.420413 37.261933 
L 282.699752 37.17049 
L 285.979091 37.026793 
L 289.25843 37.05292 
L 292.537769 36.70021 
L 295.817107 66.295698 
L 299.096446 66.360543 
L 302.375785 66.082636 
L 305.655124 65.758411 
L 308.934463 65.869574 
L 312.213802 65.591667 
L 315.49314 65.44345 
L 318.772479 65.610194 
L 322.051818 65.517558 
L 325.331157 65.424923 
L 328.610496 65.610194 
L 331.889835 65.378605 
L 335.169174 65.582403 
L 338.448512 65.851047 
L 341.727851 65.906628 
L 345.00719 65.999264 
L 348.286529 65.656512 
L 351.565868 65.971473 
L 354.845207 66.369807 
L 358.124545 66.008528 
L 361.403884 66.008528 
L 364.683223 65.897365 
L 367.962562 65.952946 
L 371.241901 65.637985 
L 374.52124 65.424923 
L 377.800579 65.637985 
L 381.079917 65.57314 
L 384.359256 65.202597 
L 387.638595 65.202597 
L 390.917934 65.248915 
L 394.197273 64.998798 
" clip-path="url(#p76e3596b3d)" style="fill: none; stroke: #8172b3; stroke-width: 1.5; stroke-linecap: round"/>
   </g>
   <g id="line2d_17"/>
   <g id="line2d_18"/>
   <g id="line2d_19"/>
   <g id="line2d_20"/>
   <g id="line2d_21"/>
   <g id="patch_3">
    <path d="M 53.31 288.430125 
L 53.31 22.318125 
" style="fill: none; stroke: #cccccc; stroke-width: 1.25; stroke-linejoin: miter; stroke-linecap: square"/>
   </g>
   <g id="patch_4">
    <path d="M 410.43 288.430125 
L 410.43 22.318125 
" style="fill: none; stroke: #cccccc; stroke-width: 1.25; stroke-linejoin: miter; stroke-linecap: square"/>
   </g>
   <g id="patch_5">
    <path d="M 53.31 288.430125 
L 410.43 288.430125 
" style="fill: none; stroke: #cccccc; stroke-width: 1.25; stroke-linejoin: miter; stroke-linecap: square"/>
   </g>
   <g id="patch_6">
    <path d="M 53.31 22.318125 
L 410.43 22.318125 
" style="fill: none; stroke: #cccccc; stroke-width: 1.25; stroke-linejoin: miter; stroke-linecap: square"/>
   </g>
   <g id="text_14">
    <!-- Exp. 4 (MNIST) -->
    <g style="fill: #262626" transform="translate(187.589063 16.318125) scale(0.12 -0.12)">
     <defs>
      <path id="DejaVuSans-45" d="M 628 4666 
L 3578 4666 
L 3578 4134 
L 1259 4134 
L 1259 2753 
L 3481 2753 
L 3481 2222 
L 1259 2222 
L 1259 531 
L 3634 531 
L 3634 0 
L 628 0 
L 628 4666 
z
" transform="scale(0.015625)"/>
      <path id="DejaVuSans-78" d="M 3513 3500 
L 2247 1797 
L 3578 0 
L 2900 0 
L 1881 1375 
L 863 0 
L 184 0 
L 1544 1831 
L 300 3500 
L 978 3500 
L 1906 2253 
L 2834 3500 
L 3513 3500 
z
" transform="scale(0.015625)"/>
      <path id="DejaVuSans-70" d="M 1159 525 
L 1159 -1331 
L 581 -1331 
L 581 3500 
L 1159 3500 
L 1159 2969 
Q 1341 3281 1617 3432 
Q 1894 3584 2278 3584 
Q 2916 3584 3314 3078 
Q 3713 2572 3713 1747 
Q 3713 922 3314 415 
Q 2916 -91 2278 -91 
Q 1894 -91 1617 61 
Q 1341 213 1159 525 
z
M 3116 1747 
Q 3116 2381 2855 2742 
Q 2594 3103 2138 3103 
Q 1681 3103 1420 2742 
Q 1159 2381 1159 1747 
Q 1159 1113 1420 752 
Q 1681 391 2138 391 
Q 2594 391 2855 752 
Q 3116 1113 3116 1747 
z
" transform="scale(0.015625)"/>
      <path id="DejaVuSans-2e" d="M 684 794 
L 1344 794 
L 1344 0 
L 684 0 
L 684 794 
z
" transform="scale(0.015625)"/>
      <path id="DejaVuSans-4d" d="M 628 4666 
L 1569 4666 
L 2759 1491 
L 3956 4666 
L 4897 4666 
L 4897 0 
L 4281 0 
L 4281 4097 
L 3078 897 
L 2444 897 
L 1241 4097 
L 1241 0 
L 628 0 
L 628 4666 
z
" transform="scale(0.015625)"/>
      <path id="DejaVuSans-4e" d="M 628 4666 
L 1478 4666 
L 3547 763 
L 3547 4666 
L 4159 4666 
L 4159 0 
L 3309 0 
L 1241 3903 
L 1241 0 
L 628 0 
L 628 4666 
z
" transform="scale(0.015625)"/>
      <path id="DejaVuSans-49" d="M 628 4666 
L 1259 4666 
L 1259 0 
L 628 0 
L 628 4666 
z
" transform="scale(0.015625)"/>
      <path id="DejaVuSans-54" d="M -19 4666 
L 3928 4666 
L 3928 4134 
L 2272 4134 
L 2272 0 
L 1638 0 
L 1638 4134 
L -19 4134 
L -19 4666 
z
" transform="scale(0.015625)"/>
     </defs>
     <use xlink:href="#DejaVuSans-45"/>
     <use xlink:href="#DejaVuSans-78" x="63.183594"/>
     <use xlink:href="#DejaVuSans-70" x="122.363281"/>
     <use xlink:href="#DejaVuSans-2e" x="185.839844"/>
     <use xlink:href="#DejaVuSans-20" x="217.626953"/>
     <use xlink:href="#DejaVuSans-34" x="249.414062"/>
     <use xlink:href="#DejaVuSans-20" x="313.037109"/>
     <use xlink:href="#DejaVuSans-28" x="344.824219"/>
     <use xlink:href="#DejaVuSans-4d" x="383.837891"/>
     <use xlink:href="#DejaVuSans-4e" x="470.117188"/>
     <use xlink:href="#DejaVuSans-49" x="544.921875"/>
     <use xlink:href="#DejaVuSans-53" x="574.414062"/>
     <use xlink:href="#DejaVuSans-54" x="637.890625"/>
     <use xlink:href="#DejaVuSans-29" x="698.974609"/>
    </g>
   </g>
   <g id="legend_1">
    <g id="patch_7">
     <path d="M 298.745625 282.930125 
L 402.73 282.930125 
Q 404.93 282.930125 404.93 280.730125 
L 404.93 183.986687 
Q 404.93 181.786687 402.73 181.786687 
L 298.745625 181.786687 
Q 296.545625 181.786687 296.545625 183.986687 
L 296.545625 280.730125 
Q 296.545625 282.930125 298.745625 282.930125 
z
" style="fill: #ffffff; opacity: 0.8; stroke: #cccccc; stroke-linejoin: miter"/>
    </g>
    <g id="text_15">
     <!-- Strategy -->
     <g style="fill: #262626" transform="translate(325.02875 195.304812) scale(0.12 -0.12)">
      <use xlink:href="#DejaVuSans-53"/>
      <use xlink:href="#DejaVuSans-74" x="63.476562"/>
      <use xlink:href="#DejaVuSans-72" x="102.685547"/>
      <use xlink:href="#DejaVuSans-61" x="143.798828"/>
      <use xlink:href="#DejaVuSans-74" x="205.078125"/>
      <use xlink:href="#DejaVuSans-65" x="244.287109"/>
      <use xlink:href="#DejaVuSans-67" x="305.810547"/>
      <use xlink:href="#DejaVuSans-79" x="369.287109"/>
     </g>
    </g>
    <g id="line2d_22">
     <path d="M 300.945625 207.808719 
L 311.945625 207.808719 
L 322.945625 207.808719 
" style="fill: none; stroke: #4c72b0; stroke-width: 1.5; stroke-linecap: round"/>
    </g>
    <g id="text_16">
     <!-- FedPredict -->
     <g style="fill: #262626" transform="translate(331.745625 211.658719) scale(0.11 -0.11)">
      <defs>
       <path id="DejaVuSans-46" d="M 628 4666 
L 3309 4666 
L 3309 4134 
L 1259 4134 
L 1259 2759 
L 3109 2759 
L 3109 2228 
L 1259 2228 
L 1259 0 
L 628 0 
L 628 4666 
z
" transform="scale(0.015625)"/>
       <path id="DejaVuSans-50" d="M 1259 4147 
L 1259 2394 
L 2053 2394 
Q 2494 2394 2734 2622 
Q 2975 2850 2975 3272 
Q 2975 3691 2734 3919 
Q 2494 4147 2053 4147 
L 1259 4147 
z
M 628 4666 
L 2053 4666 
Q 2838 4666 3239 4311 
Q 3641 3956 3641 3272 
Q 3641 2581 3239 2228 
Q 2838 1875 2053 1875 
L 1259 1875 
L 1259 0 
L 628 0 
L 628 4666 
z
" transform="scale(0.015625)"/>
       <path id="DejaVuSans-69" d="M 603 3500 
L 1178 3500 
L 1178 0 
L 603 0 
L 603 3500 
z
M 603 4863 
L 1178 4863 
L 1178 4134 
L 603 4134 
L 603 4863 
z
" transform="scale(0.015625)"/>
      </defs>
      <use xlink:href="#DejaVuSans-46"/>
      <use xlink:href="#DejaVuSans-65" x="52.019531"/>
      <use xlink:href="#DejaVuSans-64" x="113.542969"/>
      <use xlink:href="#DejaVuSans-50" x="177.019531"/>
      <use xlink:href="#DejaVuSans-72" x="235.572266"/>
      <use xlink:href="#DejaVuSans-65" x="274.435547"/>
      <use xlink:href="#DejaVuSans-64" x="335.958984"/>
      <use xlink:href="#DejaVuSans-69" x="399.435547"/>
      <use xlink:href="#DejaVuSans-63" x="427.21875"/>
      <use xlink:href="#DejaVuSans-74" x="482.199219"/>
     </g>
    </g>
    <g id="line2d_23">
     <path d="M 300.945625 223.954656 
L 311.945625 223.954656 
L 322.945625 223.954656 
" style="fill: none; stroke: #dd8452; stroke-width: 1.5; stroke-linecap: round"/>
    </g>
    <g id="text_17">
     <!-- FedAVG -->
     <g style="fill: #262626" transform="translate(331.745625 227.804656) scale(0.11 -0.11)">
      <defs>
       <path id="DejaVuSans-56" d="M 1831 0 
L 50 4666 
L 709 4666 
L 2188 738 
L 3669 4666 
L 4325 4666 
L 2547 0 
L 1831 0 
z
" transform="scale(0.015625)"/>
       <path id="DejaVuSans-47" d="M 3809 666 
L 3809 1919 
L 2778 1919 
L 2778 2438 
L 4434 2438 
L 4434 434 
Q 4069 175 3628 42 
Q 3188 -91 2688 -91 
Q 1594 -91 976 548 
Q 359 1188 359 2328 
Q 359 3472 976 4111 
Q 1594 4750 2688 4750 
Q 3144 4750 3555 4637 
Q 3966 4525 4313 4306 
L 4313 3634 
Q 3963 3931 3569 4081 
Q 3175 4231 2741 4231 
Q 1884 4231 1454 3753 
Q 1025 3275 1025 2328 
Q 1025 1384 1454 906 
Q 1884 428 2741 428 
Q 3075 428 3337 486 
Q 3600 544 3809 666 
z
" transform="scale(0.015625)"/>
      </defs>
      <use xlink:href="#DejaVuSans-46"/>
      <use xlink:href="#DejaVuSans-65" x="52.019531"/>
      <use xlink:href="#DejaVuSans-64" x="113.542969"/>
      <use xlink:href="#DejaVuSans-41" x="177.019531"/>
      <use xlink:href="#DejaVuSans-56" x="239.052734"/>
      <use xlink:href="#DejaVuSans-47" x="307.460938"/>
     </g>
    </g>
    <g id="line2d_24">
     <path d="M 300.945625 240.100594 
L 311.945625 240.100594 
L 322.945625 240.100594 
" style="fill: none; stroke: #55a868; stroke-width: 1.5; stroke-linecap: round"/>
    </g>
    <g id="text_18">
     <!-- FedProto -->
     <g style="fill: #262626" transform="translate(331.745625 243.950594) scale(0.11 -0.11)">
      <use xlink:href="#DejaVuSans-46"/>
      <use xlink:href="#DejaVuSans-65" x="52.019531"/>
      <use xlink:href="#DejaVuSans-64" x="113.542969"/>
      <use xlink:href="#DejaVuSans-50" x="177.019531"/>
      <use xlink:href="#DejaVuSans-72" x="235.572266"/>
      <use xlink:href="#DejaVuSans-6f" x="274.435547"/>
      <use xlink:href="#DejaVuSans-74" x="335.617188"/>
      <use xlink:href="#DejaVuSans-6f" x="374.826172"/>
     </g>
    </g>
    <g id="line2d_25">
     <path d="M 300.945625 256.246531 
L 311.945625 256.246531 
L 322.945625 256.246531 
" style="fill: none; stroke: #c44e52; stroke-width: 1.5; stroke-linecap: round"/>
    </g>
    <g id="text_19">
     <!-- FedClassAvg -->
     <g style="fill: #262626" transform="translate(331.745625 260.096531) scale(0.11 -0.11)">
      <defs>
       <path id="DejaVuSans-43" d="M 4122 4306 
L 4122 3641 
Q 3803 3938 3442 4084 
Q 3081 4231 2675 4231 
Q 1875 4231 1450 3742 
Q 1025 3253 1025 2328 
Q 1025 1406 1450 917 
Q 1875 428 2675 428 
Q 3081 428 3442 575 
Q 3803 722 4122 1019 
L 4122 359 
Q 3791 134 3420 21 
Q 3050 -91 2638 -91 
Q 1578 -91 968 557 
Q 359 1206 359 2328 
Q 359 3453 968 4101 
Q 1578 4750 2638 4750 
Q 3056 4750 3426 4639 
Q 3797 4528 4122 4306 
z
" transform="scale(0.015625)"/>
       <path id="DejaVuSans-6c" d="M 603 4863 
L 1178 4863 
L 1178 0 
L 603 0 
L 603 4863 
z
" transform="scale(0.015625)"/>
       <path id="DejaVuSans-73" d="M 2834 3397 
L 2834 2853 
Q 2591 2978 2328 3040 
Q 2066 3103 1784 3103 
Q 1356 3103 1142 2972 
Q 928 2841 928 2578 
Q 928 2378 1081 2264 
Q 1234 2150 1697 2047 
L 1894 2003 
Q 2506 1872 2764 1633 
Q 3022 1394 3022 966 
Q 3022 478 2636 193 
Q 2250 -91 1575 -91 
Q 1294 -91 989 -36 
Q 684 19 347 128 
L 347 722 
Q 666 556 975 473 
Q 1284 391 1588 391 
Q 1994 391 2212 530 
Q 2431 669 2431 922 
Q 2431 1156 2273 1281 
Q 2116 1406 1581 1522 
L 1381 1569 
Q 847 1681 609 1914 
Q 372 2147 372 2553 
Q 372 3047 722 3315 
Q 1072 3584 1716 3584 
Q 2034 3584 2315 3537 
Q 2597 3491 2834 3397 
z
" transform="scale(0.015625)"/>
      </defs>
      <use xlink:href="#DejaVuSans-46"/>
      <use xlink:href="#DejaVuSans-65" x="52.019531"/>
      <use xlink:href="#DejaVuSans-64" x="113.542969"/>
      <use xlink:href="#DejaVuSans-43" x="177.019531"/>
      <use xlink:href="#DejaVuSans-6c" x="246.84375"/>
      <use xlink:href="#DejaVuSans-61" x="274.626953"/>
      <use xlink:href="#DejaVuSans-73" x="335.90625"/>
      <use xlink:href="#DejaVuSans-73" x="388.005859"/>
      <use xlink:href="#DejaVuSans-41" x="440.105469"/>
      <use xlink:href="#DejaVuSans-76" x="502.638672"/>
      <use xlink:href="#DejaVuSans-67" x="561.818359"/>
     </g>
    </g>
    <g id="line2d_26">
     <path d="M 300.945625 272.392469 
L 311.945625 272.392469 
L 322.945625 272.392469 
" style="fill: none; stroke: #8172b3; stroke-width: 1.5; stroke-linecap: round"/>
    </g>
    <g id="text_20">
     <!-- FedPer -->
     <g style="fill: #262626" transform="translate(331.745625 276.242469) scale(0.11 -0.11)">
      <use xlink:href="#DejaVuSans-46"/>
      <use xlink:href="#DejaVuSans-65" x="52.019531"/>
      <use xlink:href="#DejaVuSans-64" x="113.542969"/>
      <use xlink:href="#DejaVuSans-50" x="177.019531"/>
      <use xlink:href="#DejaVuSans-65" x="233.697266"/>
      <use xlink:href="#DejaVuSans-72" x="295.220703"/>
     </g>
    </g>
   </g>
  </g>
 </g>
 <defs>
  <clipPath id="p76e3596b3d">
   <rect x="53.31" y="22.318125" width="357.12" height="266.112"/>
  </clipPath>
 </defs>
</svg>
