<?xml version="1.0" encoding="utf-8" standalone="no"?>
<!DOCTYPE svg PUBLIC "-//W3C//DTD SVG 1.1//EN"
  "http://www.w3.org/Graphics/SVG/1.1/DTD/svg11.dtd">
<svg xmlns:xlink="http://www.w3.org/1999/xlink" width="410.63125pt" height="316.271687pt" viewBox="0 0 410.63125 316.271687" xmlns="http://www.w3.org/2000/svg" version="1.1">
 <metadata>
  <rdf:RDF xmlns:dc="http://purl.org/dc/elements/1.1/" xmlns:cc="http://creativecommons.org/ns#" xmlns:rdf="http://www.w3.org/1999/02/22-rdf-syntax-ns#">
   <cc:Work>
    <dc:type rdf:resource="http://purl.org/dc/dcmitype/StillImage"/>
    <dc:date>2023-02-09T18:50:38.866082</dc:date>
    <dc:format>image/svg+xml</dc:format>
    <dc:creator>
     <cc:Agent>
      <dc:title>Matplotlib v3.6.3, https://matplotlib.org/</dc:title>
     </cc:Agent>
    </dc:creator>
   </cc:Work>
  </rdf:RDF>
 </metadata>
 <defs>
  <style type="text/css">*{stroke-linejoin: round; stroke-linecap: butt}</style>
 </defs>
 <g id="figure_1">
  <g id="patch_1">
   <path d="M 0 316.271687 
L 410.63125 316.271687 
L 410.63125 0 
L 0 0 
z
" style="fill: #ffffff"/>
  </g>
  <g id="axes_1">
   <g id="patch_2">
    <path d="M 46.31125 273.312 
L 403.43125 273.312 
L 403.43125 7.2 
L 46.31125 7.2 
z
" style="fill: #ffffff"/>
   </g>
   <g id="matplotlib.axis_1">
    <g id="xtick_1">
     <g id="line2d_1">
      <path d="M 59.264638 273.312 
L 59.264638 7.2 
" clip-path="url(#p2a9940a1ea)" style="fill: none; stroke: #cccccc; stroke-linecap: round"/>
     </g>
     <g id="text_1">
      <!-- 0 -->
      <g style="fill: #262626" transform="translate(55.765263 291.170281) scale(0.11 -0.11)">
       <defs>
        <path id="DejaVuSans-30" d="M 2034 4250 
Q 1547 4250 1301 3770 
Q 1056 3291 1056 2328 
Q 1056 1369 1301 889 
Q 1547 409 2034 409 
Q 2525 409 2770 889 
Q 3016 1369 3016 2328 
Q 3016 3291 2770 3770 
Q 2525 4250 2034 4250 
z
M 2034 4750 
Q 2819 4750 3233 4129 
Q 3647 3509 3647 2328 
Q 3647 1150 3233 529 
Q 2819 -91 2034 -91 
Q 1250 -91 836 529 
Q 422 1150 422 2328 
Q 422 3509 836 4129 
Q 1250 4750 2034 4750 
z
" transform="scale(0.015625)"/>
       </defs>
       <use xlink:href="#DejaVuSans-30"/>
      </g>
     </g>
    </g>
    <g id="xtick_2">
     <g id="line2d_2">
      <path d="M 124.851415 273.312 
L 124.851415 7.2 
" clip-path="url(#p2a9940a1ea)" style="fill: none; stroke: #cccccc; stroke-linecap: round"/>
     </g>
     <g id="text_2">
      <!-- 20 -->
      <g style="fill: #262626" transform="translate(117.852665 291.170281) scale(0.11 -0.11)">
       <defs>
        <path id="DejaVuSans-32" d="M 1228 531 
L 3431 531 
L 3431 0 
L 469 0 
L 469 531 
Q 828 903 1448 1529 
Q 2069 2156 2228 2338 
Q 2531 2678 2651 2914 
Q 2772 3150 2772 3378 
Q 2772 3750 2511 3984 
Q 2250 4219 1831 4219 
Q 1534 4219 1204 4116 
Q 875 4013 500 3803 
L 500 4441 
Q 881 4594 1212 4672 
Q 1544 4750 1819 4750 
Q 2544 4750 2975 4387 
Q 3406 4025 3406 3419 
Q 3406 3131 3298 2873 
Q 3191 2616 2906 2266 
Q 2828 2175 2409 1742 
Q 1991 1309 1228 531 
z
" transform="scale(0.015625)"/>
       </defs>
       <use xlink:href="#DejaVuSans-32"/>
       <use xlink:href="#DejaVuSans-30" x="63.623047"/>
      </g>
     </g>
    </g>
    <g id="xtick_3">
     <g id="line2d_3">
      <path d="M 190.438192 273.312 
L 190.438192 7.2 
" clip-path="url(#p2a9940a1ea)" style="fill: none; stroke: #cccccc; stroke-linecap: round"/>
     </g>
     <g id="text_3">
      <!-- 40 -->
      <g style="fill: #262626" transform="translate(183.439442 291.170281) scale(0.11 -0.11)">
       <defs>
        <path id="DejaVuSans-34" d="M 2419 4116 
L 825 1625 
L 2419 1625 
L 2419 4116 
z
M 2253 4666 
L 3047 4666 
L 3047 1625 
L 3713 1625 
L 3713 1100 
L 3047 1100 
L 3047 0 
L 2419 0 
L 2419 1100 
L 313 1100 
L 313 1709 
L 2253 4666 
z
" transform="scale(0.015625)"/>
       </defs>
       <use xlink:href="#DejaVuSans-34"/>
       <use xlink:href="#DejaVuSans-30" x="63.623047"/>
      </g>
     </g>
    </g>
    <g id="xtick_4">
     <g id="line2d_4">
      <path d="M 256.024969 273.312 
L 256.024969 7.2 
" clip-path="url(#p2a9940a1ea)" style="fill: none; stroke: #cccccc; stroke-linecap: round"/>
     </g>
     <g id="text_4">
      <!-- 60 -->
      <g style="fill: #262626" transform="translate(249.026219 291.170281) scale(0.11 -0.11)">
       <defs>
        <path id="DejaVuSans-36" d="M 2113 2584 
Q 1688 2584 1439 2293 
Q 1191 2003 1191 1497 
Q 1191 994 1439 701 
Q 1688 409 2113 409 
Q 2538 409 2786 701 
Q 3034 994 3034 1497 
Q 3034 2003 2786 2293 
Q 2538 2584 2113 2584 
z
M 3366 4563 
L 3366 3988 
Q 3128 4100 2886 4159 
Q 2644 4219 2406 4219 
Q 1781 4219 1451 3797 
Q 1122 3375 1075 2522 
Q 1259 2794 1537 2939 
Q 1816 3084 2150 3084 
Q 2853 3084 3261 2657 
Q 3669 2231 3669 1497 
Q 3669 778 3244 343 
Q 2819 -91 2113 -91 
Q 1303 -91 875 529 
Q 447 1150 447 2328 
Q 447 3434 972 4092 
Q 1497 4750 2381 4750 
Q 2619 4750 2861 4703 
Q 3103 4656 3366 4563 
z
" transform="scale(0.015625)"/>
       </defs>
       <use xlink:href="#DejaVuSans-36"/>
       <use xlink:href="#DejaVuSans-30" x="63.623047"/>
      </g>
     </g>
    </g>
    <g id="xtick_5">
     <g id="line2d_5">
      <path d="M 321.611746 273.312 
L 321.611746 7.2 
" clip-path="url(#p2a9940a1ea)" style="fill: none; stroke: #cccccc; stroke-linecap: round"/>
     </g>
     <g id="text_5">
      <!-- 80 -->
      <g style="fill: #262626" transform="translate(314.612996 291.170281) scale(0.11 -0.11)">
       <defs>
        <path id="DejaVuSans-38" d="M 2034 2216 
Q 1584 2216 1326 1975 
Q 1069 1734 1069 1313 
Q 1069 891 1326 650 
Q 1584 409 2034 409 
Q 2484 409 2743 651 
Q 3003 894 3003 1313 
Q 3003 1734 2745 1975 
Q 2488 2216 2034 2216 
z
M 1403 2484 
Q 997 2584 770 2862 
Q 544 3141 544 3541 
Q 544 4100 942 4425 
Q 1341 4750 2034 4750 
Q 2731 4750 3128 4425 
Q 3525 4100 3525 3541 
Q 3525 3141 3298 2862 
Q 3072 2584 2669 2484 
Q 3125 2378 3379 2068 
Q 3634 1759 3634 1313 
Q 3634 634 3220 271 
Q 2806 -91 2034 -91 
Q 1263 -91 848 271 
Q 434 634 434 1313 
Q 434 1759 690 2068 
Q 947 2378 1403 2484 
z
M 1172 3481 
Q 1172 3119 1398 2916 
Q 1625 2713 2034 2713 
Q 2441 2713 2670 2916 
Q 2900 3119 2900 3481 
Q 2900 3844 2670 4047 
Q 2441 4250 2034 4250 
Q 1625 4250 1398 4047 
Q 1172 3844 1172 3481 
z
" transform="scale(0.015625)"/>
       </defs>
       <use xlink:href="#DejaVuSans-38"/>
       <use xlink:href="#DejaVuSans-30" x="63.623047"/>
      </g>
     </g>
    </g>
    <g id="xtick_6">
     <g id="line2d_6">
      <path d="M 387.198523 273.312 
L 387.198523 7.2 
" clip-path="url(#p2a9940a1ea)" style="fill: none; stroke: #cccccc; stroke-linecap: round"/>
     </g>
     <g id="text_6">
      <!-- 100 -->
      <g style="fill: #262626" transform="translate(376.700398 291.170281) scale(0.11 -0.11)">
       <defs>
        <path id="DejaVuSans-31" d="M 794 531 
L 1825 531 
L 1825 4091 
L 703 3866 
L 703 4441 
L 1819 4666 
L 2450 4666 
L 2450 531 
L 3481 531 
L 3481 0 
L 794 0 
L 794 531 
z
" transform="scale(0.015625)"/>
       </defs>
       <use xlink:href="#DejaVuSans-31"/>
       <use xlink:href="#DejaVuSans-30" x="63.623047"/>
       <use xlink:href="#DejaVuSans-30" x="127.246094"/>
      </g>
     </g>
    </g>
    <g id="text_7">
     <!-- Round -->
     <g style="fill: #262626" transform="translate(205.886875 306.576062) scale(0.12 -0.12)">
      <defs>
       <path id="DejaVuSans-52" d="M 2841 2188 
Q 3044 2119 3236 1894 
Q 3428 1669 3622 1275 
L 4263 0 
L 3584 0 
L 2988 1197 
Q 2756 1666 2539 1819 
Q 2322 1972 1947 1972 
L 1259 1972 
L 1259 0 
L 628 0 
L 628 4666 
L 2053 4666 
Q 2853 4666 3247 4331 
Q 3641 3997 3641 3322 
Q 3641 2881 3436 2590 
Q 3231 2300 2841 2188 
z
M 1259 4147 
L 1259 2491 
L 2053 2491 
Q 2509 2491 2742 2702 
Q 2975 2913 2975 3322 
Q 2975 3731 2742 3939 
Q 2509 4147 2053 4147 
L 1259 4147 
z
" transform="scale(0.015625)"/>
       <path id="DejaVuSans-6f" d="M 1959 3097 
Q 1497 3097 1228 2736 
Q 959 2375 959 1747 
Q 959 1119 1226 758 
Q 1494 397 1959 397 
Q 2419 397 2687 759 
Q 2956 1122 2956 1747 
Q 2956 2369 2687 2733 
Q 2419 3097 1959 3097 
z
M 1959 3584 
Q 2709 3584 3137 3096 
Q 3566 2609 3566 1747 
Q 3566 888 3137 398 
Q 2709 -91 1959 -91 
Q 1206 -91 779 398 
Q 353 888 353 1747 
Q 353 2609 779 3096 
Q 1206 3584 1959 3584 
z
" transform="scale(0.015625)"/>
       <path id="DejaVuSans-75" d="M 544 1381 
L 544 3500 
L 1119 3500 
L 1119 1403 
Q 1119 906 1312 657 
Q 1506 409 1894 409 
Q 2359 409 2629 706 
Q 2900 1003 2900 1516 
L 2900 3500 
L 3475 3500 
L 3475 0 
L 2900 0 
L 2900 538 
Q 2691 219 2414 64 
Q 2138 -91 1772 -91 
Q 1169 -91 856 284 
Q 544 659 544 1381 
z
M 1991 3584 
L 1991 3584 
z
" transform="scale(0.015625)"/>
       <path id="DejaVuSans-6e" d="M 3513 2113 
L 3513 0 
L 2938 0 
L 2938 2094 
Q 2938 2591 2744 2837 
Q 2550 3084 2163 3084 
Q 1697 3084 1428 2787 
Q 1159 2491 1159 1978 
L 1159 0 
L 581 0 
L 581 3500 
L 1159 3500 
L 1159 2956 
Q 1366 3272 1645 3428 
Q 1925 3584 2291 3584 
Q 2894 3584 3203 3211 
Q 3513 2838 3513 2113 
z
" transform="scale(0.015625)"/>
       <path id="DejaVuSans-64" d="M 2906 2969 
L 2906 4863 
L 3481 4863 
L 3481 0 
L 2906 0 
L 2906 525 
Q 2725 213 2448 61 
Q 2172 -91 1784 -91 
Q 1150 -91 751 415 
Q 353 922 353 1747 
Q 353 2572 751 3078 
Q 1150 3584 1784 3584 
Q 2172 3584 2448 3432 
Q 2725 3281 2906 2969 
z
M 947 1747 
Q 947 1113 1208 752 
Q 1469 391 1925 391 
Q 2381 391 2643 752 
Q 2906 1113 2906 1747 
Q 2906 2381 2643 2742 
Q 2381 3103 1925 3103 
Q 1469 3103 1208 2742 
Q 947 2381 947 1747 
z
" transform="scale(0.015625)"/>
      </defs>
      <use xlink:href="#DejaVuSans-52"/>
      <use xlink:href="#DejaVuSans-6f" x="64.982422"/>
      <use xlink:href="#DejaVuSans-75" x="126.164062"/>
      <use xlink:href="#DejaVuSans-6e" x="189.542969"/>
      <use xlink:href="#DejaVuSans-64" x="252.921875"/>
     </g>
    </g>
   </g>
   <g id="matplotlib.axis_2">
    <g id="ytick_1">
     <g id="line2d_7">
      <path d="M 46.31125 243.557158 
L 403.43125 243.557158 
" clip-path="url(#p2a9940a1ea)" style="fill: none; stroke: #cccccc; stroke-linecap: round"/>
     </g>
     <g id="text_8">
      <!-- 10 -->
      <g style="fill: #262626" transform="translate(22.81375 247.736299) scale(0.11 -0.11)">
       <use xlink:href="#DejaVuSans-31"/>
       <use xlink:href="#DejaVuSans-30" x="63.623047"/>
      </g>
     </g>
    </g>
    <g id="ytick_2">
     <g id="line2d_8">
      <path d="M 46.31125 211.955394 
L 403.43125 211.955394 
" clip-path="url(#p2a9940a1ea)" style="fill: none; stroke: #cccccc; stroke-linecap: round"/>
     </g>
     <g id="text_9">
      <!-- 20 -->
      <g style="fill: #262626" transform="translate(22.81375 216.134534) scale(0.11 -0.11)">
       <use xlink:href="#DejaVuSans-32"/>
       <use xlink:href="#DejaVuSans-30" x="63.623047"/>
      </g>
     </g>
    </g>
    <g id="ytick_3">
     <g id="line2d_9">
      <path d="M 46.31125 180.35363 
L 403.43125 180.35363 
" clip-path="url(#p2a9940a1ea)" style="fill: none; stroke: #cccccc; stroke-linecap: round"/>
     </g>
     <g id="text_10">
      <!-- 30 -->
      <g style="fill: #262626" transform="translate(22.81375 184.53277) scale(0.11 -0.11)">
       <defs>
        <path id="DejaVuSans-33" d="M 2597 2516 
Q 3050 2419 3304 2112 
Q 3559 1806 3559 1356 
Q 3559 666 3084 287 
Q 2609 -91 1734 -91 
Q 1441 -91 1130 -33 
Q 819 25 488 141 
L 488 750 
Q 750 597 1062 519 
Q 1375 441 1716 441 
Q 2309 441 2620 675 
Q 2931 909 2931 1356 
Q 2931 1769 2642 2001 
Q 2353 2234 1838 2234 
L 1294 2234 
L 1294 2753 
L 1863 2753 
Q 2328 2753 2575 2939 
Q 2822 3125 2822 3475 
Q 2822 3834 2567 4026 
Q 2313 4219 1838 4219 
Q 1578 4219 1281 4162 
Q 984 4106 628 3988 
L 628 4550 
Q 988 4650 1302 4700 
Q 1616 4750 1894 4750 
Q 2613 4750 3031 4423 
Q 3450 4097 3450 3541 
Q 3450 3153 3228 2886 
Q 3006 2619 2597 2516 
z
" transform="scale(0.015625)"/>
       </defs>
       <use xlink:href="#DejaVuSans-33"/>
       <use xlink:href="#DejaVuSans-30" x="63.623047"/>
      </g>
     </g>
    </g>
    <g id="ytick_4">
     <g id="line2d_10">
      <path d="M 46.31125 148.751865 
L 403.43125 148.751865 
" clip-path="url(#p2a9940a1ea)" style="fill: none; stroke: #cccccc; stroke-linecap: round"/>
     </g>
     <g id="text_11">
      <!-- 40 -->
      <g style="fill: #262626" transform="translate(22.81375 152.931006) scale(0.11 -0.11)">
       <use xlink:href="#DejaVuSans-34"/>
       <use xlink:href="#DejaVuSans-30" x="63.623047"/>
      </g>
     </g>
    </g>
    <g id="ytick_5">
     <g id="line2d_11">
      <path d="M 46.31125 117.150101 
L 403.43125 117.150101 
" clip-path="url(#p2a9940a1ea)" style="fill: none; stroke: #cccccc; stroke-linecap: round"/>
     </g>
     <g id="text_12">
      <!-- 50 -->
      <g style="fill: #262626" transform="translate(22.81375 121.329241) scale(0.11 -0.11)">
       <defs>
        <path id="DejaVuSans-35" d="M 691 4666 
L 3169 4666 
L 3169 4134 
L 1269 4134 
L 1269 2991 
Q 1406 3038 1543 3061 
Q 1681 3084 1819 3084 
Q 2600 3084 3056 2656 
Q 3513 2228 3513 1497 
Q 3513 744 3044 326 
Q 2575 -91 1722 -91 
Q 1428 -91 1123 -41 
Q 819 9 494 109 
L 494 744 
Q 775 591 1075 516 
Q 1375 441 1709 441 
Q 2250 441 2565 725 
Q 2881 1009 2881 1497 
Q 2881 1984 2565 2268 
Q 2250 2553 1709 2553 
Q 1456 2553 1204 2497 
Q 953 2441 691 2322 
L 691 4666 
z
" transform="scale(0.015625)"/>
       </defs>
       <use xlink:href="#DejaVuSans-35"/>
       <use xlink:href="#DejaVuSans-30" x="63.623047"/>
      </g>
     </g>
    </g>
    <g id="ytick_6">
     <g id="line2d_12">
      <path d="M 46.31125 85.548336 
L 403.43125 85.548336 
" clip-path="url(#p2a9940a1ea)" style="fill: none; stroke: #cccccc; stroke-linecap: round"/>
     </g>
     <g id="text_13">
      <!-- 60 -->
      <g style="fill: #262626" transform="translate(22.81375 89.727477) scale(0.11 -0.11)">
       <use xlink:href="#DejaVuSans-36"/>
       <use xlink:href="#DejaVuSans-30" x="63.623047"/>
      </g>
     </g>
    </g>
    <g id="ytick_7">
     <g id="line2d_13">
      <path d="M 46.31125 53.946572 
L 403.43125 53.946572 
" clip-path="url(#p2a9940a1ea)" style="fill: none; stroke: #cccccc; stroke-linecap: round"/>
     </g>
     <g id="text_14">
      <!-- 70 -->
      <g style="fill: #262626" transform="translate(22.81375 58.125713) scale(0.11 -0.11)">
       <defs>
        <path id="DejaVuSans-37" d="M 525 4666 
L 3525 4666 
L 3525 4397 
L 1831 0 
L 1172 0 
L 2766 4134 
L 525 4134 
L 525 4666 
z
" transform="scale(0.015625)"/>
       </defs>
       <use xlink:href="#DejaVuSans-37"/>
       <use xlink:href="#DejaVuSans-30" x="63.623047"/>
      </g>
     </g>
    </g>
    <g id="ytick_8">
     <g id="line2d_14">
      <path d="M 46.31125 22.344808 
L 403.43125 22.344808 
" clip-path="url(#p2a9940a1ea)" style="fill: none; stroke: #cccccc; stroke-linecap: round"/>
     </g>
     <g id="text_15">
      <!-- 80 -->
      <g style="fill: #262626" transform="translate(22.81375 26.523948) scale(0.11 -0.11)">
       <use xlink:href="#DejaVuSans-38"/>
       <use xlink:href="#DejaVuSans-30" x="63.623047"/>
      </g>
     </g>
    </g>
    <g id="text_16">
     <!-- Accuracy (%) -->
     <g style="fill: #262626" transform="translate(16.318125 179.939437) rotate(-90) scale(0.12 -0.12)">
      <defs>
       <path id="DejaVuSans-41" d="M 2188 4044 
L 1331 1722 
L 3047 1722 
L 2188 4044 
z
M 1831 4666 
L 2547 4666 
L 4325 0 
L 3669 0 
L 3244 1197 
L 1141 1197 
L 716 0 
L 50 0 
L 1831 4666 
z
" transform="scale(0.015625)"/>
       <path id="DejaVuSans-63" d="M 3122 3366 
L 3122 2828 
Q 2878 2963 2633 3030 
Q 2388 3097 2138 3097 
Q 1578 3097 1268 2742 
Q 959 2388 959 1747 
Q 959 1106 1268 751 
Q 1578 397 2138 397 
Q 2388 397 2633 464 
Q 2878 531 3122 666 
L 3122 134 
Q 2881 22 2623 -34 
Q 2366 -91 2075 -91 
Q 1284 -91 818 406 
Q 353 903 353 1747 
Q 353 2603 823 3093 
Q 1294 3584 2113 3584 
Q 2378 3584 2631 3529 
Q 2884 3475 3122 3366 
z
" transform="scale(0.015625)"/>
       <path id="DejaVuSans-72" d="M 2631 2963 
Q 2534 3019 2420 3045 
Q 2306 3072 2169 3072 
Q 1681 3072 1420 2755 
Q 1159 2438 1159 1844 
L 1159 0 
L 581 0 
L 581 3500 
L 1159 3500 
L 1159 2956 
Q 1341 3275 1631 3429 
Q 1922 3584 2338 3584 
Q 2397 3584 2469 3576 
Q 2541 3569 2628 3553 
L 2631 2963 
z
" transform="scale(0.015625)"/>
       <path id="DejaVuSans-61" d="M 2194 1759 
Q 1497 1759 1228 1600 
Q 959 1441 959 1056 
Q 959 750 1161 570 
Q 1363 391 1709 391 
Q 2188 391 2477 730 
Q 2766 1069 2766 1631 
L 2766 1759 
L 2194 1759 
z
M 3341 1997 
L 3341 0 
L 2766 0 
L 2766 531 
Q 2569 213 2275 61 
Q 1981 -91 1556 -91 
Q 1019 -91 701 211 
Q 384 513 384 1019 
Q 384 1609 779 1909 
Q 1175 2209 1959 2209 
L 2766 2209 
L 2766 2266 
Q 2766 2663 2505 2880 
Q 2244 3097 1772 3097 
Q 1472 3097 1187 3025 
Q 903 2953 641 2809 
L 641 3341 
Q 956 3463 1253 3523 
Q 1550 3584 1831 3584 
Q 2591 3584 2966 3190 
Q 3341 2797 3341 1997 
z
" transform="scale(0.015625)"/>
       <path id="DejaVuSans-79" d="M 2059 -325 
Q 1816 -950 1584 -1140 
Q 1353 -1331 966 -1331 
L 506 -1331 
L 506 -850 
L 844 -850 
Q 1081 -850 1212 -737 
Q 1344 -625 1503 -206 
L 1606 56 
L 191 3500 
L 800 3500 
L 1894 763 
L 2988 3500 
L 3597 3500 
L 2059 -325 
z
" transform="scale(0.015625)"/>
       <path id="DejaVuSans-20" transform="scale(0.015625)"/>
       <path id="DejaVuSans-28" d="M 1984 4856 
Q 1566 4138 1362 3434 
Q 1159 2731 1159 2009 
Q 1159 1288 1364 580 
Q 1569 -128 1984 -844 
L 1484 -844 
Q 1016 -109 783 600 
Q 550 1309 550 2009 
Q 550 2706 781 3412 
Q 1013 4119 1484 4856 
L 1984 4856 
z
" transform="scale(0.015625)"/>
       <path id="DejaVuSans-25" d="M 4653 2053 
Q 4381 2053 4226 1822 
Q 4072 1591 4072 1178 
Q 4072 772 4226 539 
Q 4381 306 4653 306 
Q 4919 306 5073 539 
Q 5228 772 5228 1178 
Q 5228 1588 5073 1820 
Q 4919 2053 4653 2053 
z
M 4653 2450 
Q 5147 2450 5437 2106 
Q 5728 1763 5728 1178 
Q 5728 594 5436 251 
Q 5144 -91 4653 -91 
Q 4153 -91 3862 251 
Q 3572 594 3572 1178 
Q 3572 1766 3864 2108 
Q 4156 2450 4653 2450 
z
M 1428 4353 
Q 1159 4353 1004 4120 
Q 850 3888 850 3481 
Q 850 3069 1003 2837 
Q 1156 2606 1428 2606 
Q 1700 2606 1854 2837 
Q 2009 3069 2009 3481 
Q 2009 3884 1853 4118 
Q 1697 4353 1428 4353 
z
M 4250 4750 
L 4750 4750 
L 1831 -91 
L 1331 -91 
L 4250 4750 
z
M 1428 4750 
Q 1922 4750 2215 4408 
Q 2509 4066 2509 3481 
Q 2509 2891 2217 2550 
Q 1925 2209 1428 2209 
Q 931 2209 642 2551 
Q 353 2894 353 3481 
Q 353 4063 643 4406 
Q 934 4750 1428 4750 
z
" transform="scale(0.015625)"/>
       <path id="DejaVuSans-29" d="M 513 4856 
L 1013 4856 
Q 1481 4119 1714 3412 
Q 1947 2706 1947 2009 
Q 1947 1309 1714 600 
Q 1481 -109 1013 -844 
L 513 -844 
Q 928 -128 1133 580 
Q 1338 1288 1338 2009 
Q 1338 2731 1133 3434 
Q 928 4138 513 4856 
z
" transform="scale(0.015625)"/>
      </defs>
      <use xlink:href="#DejaVuSans-41"/>
      <use xlink:href="#DejaVuSans-63" x="66.658203"/>
      <use xlink:href="#DejaVuSans-63" x="121.638672"/>
      <use xlink:href="#DejaVuSans-75" x="176.619141"/>
      <use xlink:href="#DejaVuSans-72" x="239.998047"/>
      <use xlink:href="#DejaVuSans-61" x="281.111328"/>
      <use xlink:href="#DejaVuSans-63" x="342.390625"/>
      <use xlink:href="#DejaVuSans-79" x="397.371094"/>
      <use xlink:href="#DejaVuSans-20" x="456.550781"/>
      <use xlink:href="#DejaVuSans-28" x="488.337891"/>
      <use xlink:href="#DejaVuSans-25" x="527.351562"/>
      <use xlink:href="#DejaVuSans-29" x="622.371094"/>
     </g>
    </g>
   </g>
   <g id="PolyCollection_1">
    <defs>
     <path id="m0bd84adf3a" d="M 62.543977 -143.44553 
L 62.543977 -89.221422 
L 65.823316 -119.323304 
L 69.102655 -158.678233 
L 72.381994 -172.21878 
L 75.661333 -164.851139 
L 78.940671 -172.773428 
L 82.22001 -182.921606 
L 85.499349 -182.430745 
L 88.778688 -188.750757 
L 92.058027 -200.693091 
L 95.337366 -196.905159 
L 98.616705 -191.092658 
L 101.896043 -197.014539 
L 105.175382 -211.238898 
L 108.454721 -217.420533 
L 111.73406 -217.00216 
L 115.013399 -234.424188 
L 118.292738 -230.305832 
L 121.572076 -227.427096 
L 124.851415 -231.997061 
L 128.130754 -236.778059 
L 131.410093 -242.705995 
L 134.689432 -233.707902 
L 137.968771 -232.568055 
L 141.24811 -247.412954 
L 144.527448 -249.048143 
L 147.806787 -248.295979 
L 151.086126 -241.477853 
L 154.365465 -247.249651 
L 157.644804 -249.859211 
L 160.924143 -252.276747 
L 164.203481 -251.31903 
L 167.48282 -255.471647 
L 170.762159 -255.360253 
L 174.041498 -252.796277 
L 177.320837 -252.44506 
L 180.600176 -251.943154 
L 183.879514 -249.578137 
L 187.158853 -253.215692 
L 190.438192 -251.193138 
L 193.717531 -257.775067 
L 196.99687 -261.870535 
L 200.276209 -255.930693 
L 203.555548 -264.684532 
L 206.834886 -254.018666 
L 210.114225 -257.51599 
L 213.393564 -258.948442 
L 216.672903 -259.147349 
L 219.952242 -258.988054 
L 223.231581 -261.009887 
L 226.510919 -262.221405 
L 229.790258 -265.58756 
L 233.069597 -263.542286 
L 236.348936 -259.971057 
L 239.628275 -261.697468 
L 242.907614 -268.122429 
L 246.186952 -266.232385 
L 249.466291 -262.557395 
L 252.74563 -265.663529 
L 256.024969 -266.459666 
L 259.304308 -265.742276 
L 262.583647 -265.208527 
L 265.862986 -268.455844 
L 269.142324 -271.724023 
L 272.421663 -268.133717 
L 275.701002 -265.963666 
L 278.980341 -267.787226 
L 282.25968 -265.038981 
L 285.539019 -267.608953 
L 288.818357 -236.397813 
L 292.097696 -240.701 
L 295.377035 -235.27419 
L 298.656374 -242.587457 
L 301.935713 -239.704081 
L 305.215052 -244.403326 
L 308.49439 -236.247806 
L 311.773729 -232.067602 
L 315.053068 -245.671157 
L 318.332407 -238.522669 
L 321.611746 -233.857108 
L 324.891085 -238.191903 
L 328.170424 -243.512055 
L 331.449762 -242.652526 
L 334.729101 -240.381444 
L 338.00844 -227.639953 
L 341.287779 -231.171104 
L 344.567118 -228.486794 
L 347.846457 -223.123815 
L 351.125795 -246.518689 
L 354.405134 -247.472007 
L 357.684473 -245.317065 
L 360.963812 -243.718157 
L 364.243151 -239.651564 
L 367.52249 -239.466908 
L 370.801829 -244.455794 
L 374.081167 -245.550114 
L 377.360506 -240.446369 
L 380.639845 -245.375828 
L 383.919184 -249.248338 
L 387.198523 -245.444394 
L 387.198523 -277.104584 
L 387.198523 -277.104584 
L 383.919184 -279.63089 
L 380.639845 -278.14018 
L 377.360506 -275.836888 
L 374.081167 -279.792184 
L 370.801829 -276.923254 
L 367.52249 -275.087089 
L 364.243151 -273.92875 
L 360.963812 -277.359865 
L 357.684473 -276.215818 
L 354.405134 -276.849842 
L 351.125795 -274.98487 
L 347.846457 -263.694927 
L 344.567118 -266.279524 
L 341.287779 -269.425747 
L 338.00844 -268.275237 
L 334.729101 -274.228589 
L 331.449762 -276.982105 
L 328.170424 -274.257424 
L 324.891085 -270.367926 
L 321.611746 -266.193031 
L 318.332407 -267.08027 
L 315.053068 -273.637977 
L 311.773729 -267.932109 
L 308.49439 -272.596809 
L 305.215052 -276.361616 
L 301.935713 -271.914079 
L 298.656374 -273.225869 
L 295.377035 -271.370934 
L 292.097696 -274.100153 
L 288.818357 -269.952468 
L 285.539019 -295.181811 
L 282.25968 -292.637935 
L 278.980341 -295.340034 
L 275.701002 -294.546359 
L 272.421663 -296.345041 
L 269.142324 -296.975687 
L 265.862986 -292.839866 
L 262.583647 -291.968284 
L 259.304308 -292.321168 
L 256.024969 -292.719036 
L 252.74563 -290.332068 
L 249.466291 -288.581898 
L 246.186952 -292.214519 
L 242.907614 -292.841999 
L 239.628275 -290.4857 
L 236.348936 -289.294857 
L 233.069597 -290.493125 
L 229.790258 -291.23016 
L 226.510919 -289.507862 
L 223.231581 -289.106299 
L 219.952242 -286.150145 
L 216.672903 -286.358694 
L 213.393564 -287.098897 
L 210.114225 -287.012955 
L 206.834886 -284.371087 
L 203.555548 -290.851205 
L 200.276209 -282.679049 
L 196.99687 -288.52731 
L 193.717531 -284.350632 
L 190.438192 -280.721485 
L 187.158853 -277.43576 
L 183.879514 -276.702523 
L 180.600176 -280.055958 
L 177.320837 -280.962757 
L 174.041498 -283.748396 
L 170.762159 -284.112984 
L 167.48282 -285.383198 
L 164.203481 -279.409063 
L 160.924143 -281.832087 
L 157.644804 -280.03803 
L 154.365465 -275.627398 
L 151.086126 -272.290988 
L 147.806787 -279.459232 
L 144.527448 -279.561334 
L 141.24811 -276.365574 
L 137.968771 -263.541456 
L 134.689432 -263.662004 
L 131.410093 -270.342017 
L 128.130754 -266.221829 
L 124.851415 -264.222369 
L 121.572076 -263.89088 
L 118.292738 -261.515033 
L 115.013399 -264.827012 
L 111.73406 -253.600486 
L 108.454721 -255.575041 
L 105.175382 -252.394777 
L 101.896043 -243.836497 
L 98.616705 -235.368328 
L 95.337366 -238.299462 
L 92.058027 -242.363139 
L 88.778688 -231.903525 
L 85.499349 -222.745139 
L 82.22001 -228.579829 
L 78.940671 -218.701915 
L 75.661333 -213.933357 
L 72.381994 -220.165254 
L 69.102655 -205.006276 
L 65.823316 -174.929921 
L 62.543977 -143.44553 
z
" style="stroke: #4c72b0; stroke-opacity: 0.2"/>
    </defs>
    <g clip-path="url(#p2a9940a1ea)">
     <use xlink:href="#m0bd84adf3a" x="0" y="316.271687" style="fill: #4c72b0; fill-opacity: 0.2; stroke: #4c72b0; stroke-opacity: 0.2"/>
    </g>
   </g>
   <g id="PolyCollection_2">
    <defs>
     <path id="m5402251004" d="M 62.543977 -82.979241 
L 62.543977 -57.474501 
L 65.823316 -55.055688 
L 69.102655 -96.726242 
L 72.381994 -87.615957 
L 75.661333 -86.772621 
L 78.940671 -95.025715 
L 82.22001 -94.367549 
L 85.499349 -92.677115 
L 88.778688 -102.31709 
L 92.058027 -96.860322 
L 95.337366 -111.90263 
L 98.616705 -107.36789 
L 101.896043 -101.378343 
L 105.175382 -115.517622 
L 108.454721 -134.543436 
L 111.73406 -116.528122 
L 115.013399 -142.728024 
L 118.292738 -135.392782 
L 121.572076 -152.028076 
L 124.851415 -145.313906 
L 128.130754 -120.781029 
L 131.410093 -143.574514 
L 134.689432 -127.33915 
L 137.968771 -142.281674 
L 141.24811 -141.067744 
L 144.527448 -167.831321 
L 147.806787 -150.938554 
L 151.086126 -141.652887 
L 154.365465 -145.135389 
L 157.644804 -144.646044 
L 160.924143 -162.841344 
L 164.203481 -165.133386 
L 167.48282 -150.363778 
L 170.762159 -161.621211 
L 174.041498 -163.921586 
L 177.320837 -136.87213 
L 180.600176 -165.992238 
L 183.879514 -143.776678 
L 187.158853 -157.441851 
L 190.438192 -155.574229 
L 193.717531 -145.012336 
L 196.99687 -169.072003 
L 200.276209 -164.260622 
L 203.555548 -167.282289 
L 206.834886 -161.304293 
L 210.114225 -149.05328 
L 213.393564 -156.907925 
L 216.672903 -172.766094 
L 219.952242 -146.662245 
L 223.231581 -135.635239 
L 226.510919 -151.176088 
L 229.790258 -159.512849 
L 233.069597 -164.143965 
L 236.348936 -180.700136 
L 239.628275 -177.117399 
L 242.907614 -177.845725 
L 246.186952 -186.717015 
L 249.466291 -176.908862 
L 252.74563 -168.208108 
L 256.024969 -172.345522 
L 259.304308 -162.587552 
L 262.583647 -176.716828 
L 265.862986 -188.887259 
L 269.142324 -170.315344 
L 272.421663 -181.366444 
L 275.701002 -190.242602 
L 278.980341 -183.725998 
L 282.25968 -189.253156 
L 285.539019 -167.123254 
L 288.818357 -179.515614 
L 292.097696 -187.098671 
L 295.377035 -171.936903 
L 298.656374 -191.669434 
L 301.935713 -183.686664 
L 305.215052 -194.983671 
L 308.49439 -179.759845 
L 311.773729 -176.898805 
L 315.053068 -192.852026 
L 318.332407 -192.514973 
L 321.611746 -184.121061 
L 324.891085 -175.031237 
L 328.170424 -182.716526 
L 331.449762 -189.587973 
L 334.729101 -187.378756 
L 338.00844 -165.692848 
L 341.287779 -177.195912 
L 344.567118 -164.366843 
L 347.846457 -147.407593 
L 351.125795 -195.660643 
L 354.405134 -200.790954 
L 357.684473 -184.174461 
L 360.963812 -189.262274 
L 364.243151 -185.487525 
L 367.52249 -191.21547 
L 370.801829 -196.809089 
L 374.081167 -183.245631 
L 377.360506 -181.573819 
L 380.639845 -189.669457 
L 383.919184 -197.456451 
L 387.198523 -197.248283 
L 387.198523 -218.941232 
L 387.198523 -218.941232 
L 383.919184 -222.684927 
L 380.639845 -218.234413 
L 377.360506 -209.140759 
L 374.081167 -212.399327 
L 370.801829 -224.93903 
L 367.52249 -218.017486 
L 364.243151 -209.673581 
L 360.963812 -217.348597 
L 357.684473 -212.349271 
L 354.405134 -223.984839 
L 351.125795 -222.528033 
L 347.846457 -176.963722 
L 344.567118 -193.024941 
L 341.287779 -203.927268 
L 338.00844 -196.653704 
L 334.729101 -216.067268 
L 331.449762 -217.367285 
L 328.170424 -214.3719 
L 324.891085 -206.623266 
L 321.611746 -208.637338 
L 318.332407 -215.860768 
L 315.053068 -218.176475 
L 311.773729 -204.101707 
L 308.49439 -207.479685 
L 305.215052 -214.149474 
L 301.935713 -203.824524 
L 298.656374 -218.321381 
L 295.377035 -203.644686 
L 292.097696 -215.806548 
L 288.818357 -207.02617 
L 285.539019 -206.439444 
L 282.25968 -221.029306 
L 278.980341 -216.154318 
L 275.701002 -217.969868 
L 272.421663 -216.379438 
L 269.142324 -203.723612 
L 265.862986 -211.468328 
L 262.583647 -203.513393 
L 259.304308 -200.497514 
L 256.024969 -209.327923 
L 252.74563 -206.348742 
L 249.466291 -212.203839 
L 246.186952 -217.251783 
L 242.907614 -209.66393 
L 239.628275 -211.999283 
L 236.348936 -213.985613 
L 233.069597 -200.379127 
L 229.790258 -192.193113 
L 226.510919 -185.322803 
L 223.231581 -174.548613 
L 219.952242 -184.098228 
L 216.672903 -199.837533 
L 213.393564 -197.884611 
L 210.114225 -186.164543 
L 206.834886 -189.487871 
L 203.555548 -198.525664 
L 200.276209 -196.786702 
L 196.99687 -202.135965 
L 193.717531 -179.279748 
L 190.438192 -184.02037 
L 187.158853 -190.414685 
L 183.879514 -180.424529 
L 180.600176 -199.769718 
L 177.320837 -181.925439 
L 174.041498 -194.387124 
L 170.762159 -195.352681 
L 167.48282 -187.271989 
L 164.203481 -194.878059 
L 160.924143 -189.352732 
L 157.644804 -180.913349 
L 154.365465 -179.615739 
L 151.086126 -173.772571 
L 147.806787 -184.708696 
L 144.527448 -191.718279 
L 141.24811 -174.220366 
L 137.968771 -180.77241 
L 134.689432 -167.16247 
L 131.410093 -174.864839 
L 128.130754 -158.737825 
L 124.851415 -171.728292 
L 121.572076 -178.165239 
L 118.292738 -165.768928 
L 115.013399 -168.307428 
L 111.73406 -158.194299 
L 108.454721 -168.662148 
L 105.175382 -142.78137 
L 101.896043 -143.546488 
L 98.616705 -145.283489 
L 95.337366 -152.887746 
L 92.058027 -135.273529 
L 88.778688 -151.891992 
L 85.499349 -134.584871 
L 82.22001 -126.000498 
L 78.940671 -131.518718 
L 75.661333 -121.394612 
L 72.381994 -130.749076 
L 69.102655 -130.208845 
L 65.823316 -91.248134 
L 62.543977 -82.979241 
z
" style="stroke: #dd8452; stroke-opacity: 0.2"/>
    </defs>
    <g clip-path="url(#p2a9940a1ea)">
     <use xlink:href="#m5402251004" x="0" y="316.271687" style="fill: #dd8452; fill-opacity: 0.2; stroke: #dd8452; stroke-opacity: 0.2"/>
    </g>
   </g>
   <g id="PolyCollection_3">
    <defs>
     <path id="mf0021b91d2" d="M 62.543977 -132.049092 
L 62.543977 -83.444968 
L 65.823316 -138.098008 
L 69.102655 -154.045807 
L 72.381994 -163.898831 
L 75.661333 -162.218615 
L 78.940671 -169.478731 
L 82.22001 -173.770901 
L 85.499349 -180.531561 
L 88.778688 -180.694567 
L 92.058027 -178.2563 
L 95.337366 -178.49845 
L 98.616705 -180.736431 
L 101.896043 -182.719657 
L 105.175382 -185.605397 
L 108.454721 -190.764818 
L 111.73406 -198.736621 
L 115.013399 -197.756622 
L 118.292738 -203.222112 
L 121.572076 -201.827201 
L 124.851415 -200.004689 
L 128.130754 -198.237018 
L 131.410093 -198.645782 
L 134.689432 -203.864864 
L 137.968771 -205.273183 
L 141.24811 -208.453296 
L 144.527448 -204.092675 
L 147.806787 -205.316016 
L 151.086126 -211.411481 
L 154.365465 -214.987993 
L 157.644804 -219.536327 
L 160.924143 -216.040157 
L 164.203481 -216.720822 
L 167.48282 -219.33712 
L 170.762159 -217.157572 
L 174.041498 -219.958564 
L 177.320837 -223.903709 
L 180.600176 -216.767671 
L 183.879514 -213.117047 
L 187.158853 -211.779973 
L 190.438192 -211.00764 
L 193.717531 -221.645839 
L 196.99687 -220.810712 
L 200.276209 -232.84397 
L 203.555548 -233.812113 
L 206.834886 -238.306696 
L 210.114225 -236.924252 
L 213.393564 -235.089568 
L 216.672903 -236.367812 
L 219.952242 -234.346878 
L 223.231581 -239.917919 
L 226.510919 -239.399958 
L 229.790258 -237.117435 
L 233.069597 -243.108382 
L 236.348936 -244.643176 
L 239.628275 -241.44774 
L 242.907614 -240.388738 
L 246.186952 -241.090246 
L 249.466291 -243.09756 
L 252.74563 -242.838721 
L 256.024969 -245.615456 
L 259.304308 -244.288979 
L 262.583647 -241.057665 
L 265.862986 -243.168836 
L 269.142324 -239.178908 
L 272.421663 -236.354003 
L 275.701002 -248.951571 
L 278.980341 -247.124041 
L 282.25968 -245.498686 
L 285.539019 -242.140329 
L 288.818357 -180.248824 
L 292.097696 -174.44345 
L 295.377035 -182.402235 
L 298.656374 -178.169815 
L 301.935713 -177.893692 
L 305.215052 -167.576585 
L 308.49439 -173.24953 
L 311.773729 -175.594201 
L 315.053068 -173.948524 
L 318.332407 -180.943132 
L 321.611746 -173.110829 
L 324.891085 -181.422234 
L 328.170424 -176.756651 
L 331.449762 -175.487343 
L 334.729101 -173.341967 
L 338.00844 -179.442808 
L 341.287779 -175.797803 
L 344.567118 -178.615445 
L 347.846457 -172.844247 
L 351.125795 -184.89583 
L 354.405134 -177.977143 
L 357.684473 -177.812426 
L 360.963812 -188.816798 
L 364.243151 -178.049086 
L 367.52249 -178.325663 
L 370.801829 -184.729789 
L 374.081167 -183.459165 
L 377.360506 -172.990594 
L 380.639845 -187.3624 
L 383.919184 -183.018518 
L 387.198523 -186.810426 
L 387.198523 -241.716038 
L 387.198523 -241.716038 
L 383.919184 -238.970679 
L 380.639845 -240.656239 
L 377.360506 -233.816114 
L 374.081167 -242.189321 
L 370.801829 -238.025028 
L 367.52249 -236.661172 
L 364.243151 -237.597759 
L 360.963812 -239.686257 
L 357.684473 -236.011347 
L 354.405134 -233.927812 
L 351.125795 -239.970541 
L 347.846457 -232.076445 
L 344.567118 -234.384632 
L 341.287779 -230.310588 
L 338.00844 -233.336467 
L 334.729101 -231.467445 
L 331.449762 -232.079266 
L 328.170424 -233.401997 
L 324.891085 -234.665598 
L 321.611746 -231.992553 
L 318.332407 -235.138225 
L 315.053068 -231.046839 
L 311.773729 -230.912027 
L 308.49439 -225.757268 
L 305.215052 -225.316741 
L 301.935713 -231.569239 
L 298.656374 -229.519929 
L 295.377035 -234.005756 
L 292.097696 -229.893232 
L 288.818357 -229.586871 
L 285.539019 -276.002805 
L 282.25968 -278.347657 
L 278.980341 -278.114946 
L 275.701002 -279.49875 
L 272.421663 -269.845922 
L 269.142324 -272.803182 
L 265.862986 -275.548091 
L 262.583647 -272.192465 
L 259.304308 -274.864322 
L 256.024969 -279.058487 
L 252.74563 -276.807542 
L 249.466291 -276.623122 
L 246.186952 -273.640074 
L 242.907614 -270.727192 
L 239.628275 -271.332883 
L 236.348936 -271.949816 
L 233.069597 -273.077626 
L 229.790258 -270.090929 
L 226.510919 -272.937159 
L 223.231581 -274.236897 
L 219.952242 -271.492793 
L 216.672903 -272.404887 
L 213.393564 -271.004251 
L 210.114225 -271.990228 
L 206.834886 -272.258696 
L 203.555548 -269.094562 
L 200.276209 -267.348002 
L 196.99687 -259.876359 
L 193.717531 -259.497591 
L 190.438192 -252.076441 
L 187.158853 -254.72208 
L 183.879514 -256.367668 
L 180.600176 -257.56791 
L 177.320837 -259.272301 
L 174.041498 -255.092839 
L 170.762159 -256.240173 
L 167.48282 -254.761937 
L 164.203481 -252.009771 
L 160.924143 -251.519112 
L 157.644804 -257.800002 
L 154.365465 -255.105227 
L 151.086126 -250.549539 
L 147.806787 -246.583968 
L 144.527448 -246.045262 
L 141.24811 -249.326924 
L 137.968771 -246.200701 
L 134.689432 -245.236838 
L 131.410093 -241.34592 
L 128.130754 -241.679093 
L 124.851415 -245.811341 
L 121.572076 -242.310714 
L 118.292738 -244.043131 
L 115.013399 -240.190927 
L 111.73406 -241.556579 
L 108.454721 -237.108518 
L 105.175382 -234.30802 
L 101.896043 -229.56758 
L 98.616705 -229.513763 
L 95.337366 -225.716156 
L 92.058027 -226.614155 
L 88.778688 -225.805425 
L 85.499349 -229.660075 
L 82.22001 -220.700262 
L 78.940671 -214.159323 
L 75.661333 -214.868802 
L 72.381994 -210.389947 
L 69.102655 -202.264248 
L 65.823316 -189.626435 
L 62.543977 -132.049092 
z
" style="stroke: #55a868; stroke-opacity: 0.2"/>
    </defs>
    <g clip-path="url(#p2a9940a1ea)">
     <use xlink:href="#mf0021b91d2" x="0" y="316.271687" style="fill: #55a868; fill-opacity: 0.2; stroke: #55a868; stroke-opacity: 0.2"/>
    </g>
   </g>
   <g id="PolyCollection_4">
    <defs>
     <path id="mc33165ce0b" d="M 62.543977 -122.472434 
L 62.543977 -78.623661 
L 65.823316 -103.86541 
L 69.102655 -123.535587 
L 72.381994 -127.72114 
L 75.661333 -142.484782 
L 78.940671 -139.713619 
L 82.22001 -146.705974 
L 85.499349 -147.359062 
L 88.778688 -148.403297 
L 92.058027 -147.97608 
L 95.337366 -157.038354 
L 98.616705 -161.446211 
L 101.896043 -161.931553 
L 105.175382 -166.122829 
L 108.454721 -180.319197 
L 111.73406 -185.378771 
L 115.013399 -188.34053 
L 118.292738 -188.386632 
L 121.572076 -188.197058 
L 124.851415 -189.700072 
L 128.130754 -186.511448 
L 131.410093 -191.072906 
L 134.689432 -193.091134 
L 137.968771 -202.291473 
L 141.24811 -204.860683 
L 144.527448 -207.755073 
L 147.806787 -213.95938 
L 151.086126 -208.797525 
L 154.365465 -210.020182 
L 157.644804 -214.931961 
L 160.924143 -221.21047 
L 164.203481 -222.108999 
L 167.48282 -225.19644 
L 170.762159 -228.363245 
L 174.041498 -227.693972 
L 177.320837 -227.977193 
L 180.600176 -231.007328 
L 183.879514 -234.323685 
L 187.158853 -234.059672 
L 190.438192 -235.021083 
L 193.717531 -236.186743 
L 196.99687 -236.102969 
L 200.276209 -235.250532 
L 203.555548 -239.027225 
L 206.834886 -238.433547 
L 210.114225 -239.644819 
L 213.393564 -240.381067 
L 216.672903 -245.917062 
L 219.952242 -243.609717 
L 223.231581 -245.970602 
L 226.510919 -247.518157 
L 229.790258 -245.422326 
L 233.069597 -246.444902 
L 236.348936 -248.05122 
L 239.628275 -249.826242 
L 242.907614 -251.473611 
L 246.186952 -249.827507 
L 249.466291 -250.978307 
L 252.74563 -252.254194 
L 256.024969 -251.595475 
L 259.304308 -253.556291 
L 262.583647 -254.201772 
L 265.862986 -255.113184 
L 269.142324 -255.664018 
L 272.421663 -254.261962 
L 275.701002 -254.242196 
L 278.980341 -255.093082 
L 282.25968 -256.5592 
L 285.539019 -258.196379 
L 288.818357 -181.442867 
L 292.097696 -175.361973 
L 295.377035 -179.63066 
L 298.656374 -183.956989 
L 301.935713 -187.959142 
L 305.215052 -178.706447 
L 308.49439 -193.538393 
L 311.773729 -182.135978 
L 315.053068 -189.697448 
L 318.332407 -185.193673 
L 321.611746 -189.844678 
L 324.891085 -177.190027 
L 328.170424 -190.343841 
L 331.449762 -188.303232 
L 334.729101 -185.047121 
L 338.00844 -192.620475 
L 341.287779 -185.907951 
L 344.567118 -189.682801 
L 347.846457 -186.908466 
L 351.125795 -185.854048 
L 354.405134 -186.579195 
L 357.684473 -184.303314 
L 360.963812 -184.682887 
L 364.243151 -193.26823 
L 367.52249 -184.019836 
L 370.801829 -188.242611 
L 374.081167 -195.49406 
L 377.360506 -187.289213 
L 380.639845 -185.529041 
L 383.919184 -183.396303 
L 387.198523 -186.169333 
L 387.198523 -245.383926 
L 387.198523 -245.383926 
L 383.919184 -242.758655 
L 380.639845 -242.660798 
L 377.360506 -244.734971 
L 374.081167 -248.946138 
L 370.801829 -247.133916 
L 367.52249 -247.369362 
L 364.243151 -247.453011 
L 360.963812 -241.420089 
L 357.684473 -241.445402 
L 354.405134 -245.078462 
L 351.125795 -244.85762 
L 347.846457 -242.241702 
L 344.567118 -241.816429 
L 341.287779 -241.368484 
L 338.00844 -249.619858 
L 334.729101 -240.081964 
L 331.449762 -243.555079 
L 328.170424 -245.092457 
L 324.891085 -238.769147 
L 321.611746 -243.458471 
L 318.332407 -240.14622 
L 315.053068 -243.917774 
L 311.773729 -238.397781 
L 308.49439 -246.718411 
L 305.215052 -236.79082 
L 301.935713 -241.856163 
L 298.656374 -241.076384 
L 295.377035 -236.01596 
L 292.097696 -237.094322 
L 288.818357 -234.265996 
L 285.539019 -284.938436 
L 282.25968 -283.207592 
L 278.980341 -283.94959 
L 275.701002 -282.123486 
L 272.421663 -282.730519 
L 269.142324 -284.529697 
L 265.862986 -283.037319 
L 262.583647 -284.503145 
L 259.304308 -282.726556 
L 256.024969 -280.798344 
L 252.74563 -280.707691 
L 249.466291 -280.238356 
L 246.186952 -279.903398 
L 242.907614 -278.967383 
L 239.628275 -278.963055 
L 236.348936 -277.156929 
L 233.069597 -276.910979 
L 229.790258 -276.188496 
L 226.510919 -275.384745 
L 223.231581 -276.452315 
L 219.952242 -275.091673 
L 216.672903 -275.068242 
L 213.393564 -272.556455 
L 210.114225 -270.596406 
L 206.834886 -270.439616 
L 203.555548 -270.276553 
L 200.276209 -268.066584 
L 196.99687 -268.465908 
L 193.717531 -267.647175 
L 190.438192 -267.070216 
L 187.158853 -266.950603 
L 183.879514 -267.638417 
L 180.600176 -265.311968 
L 177.320837 -263.927454 
L 174.041498 -261.199587 
L 170.762159 -262.755079 
L 167.48282 -259.642144 
L 164.203481 -257.788569 
L 160.924143 -256.042918 
L 157.644804 -250.727106 
L 154.365465 -248.621457 
L 151.086126 -247.596528 
L 147.806787 -251.677262 
L 144.527448 -247.851712 
L 141.24811 -244.527605 
L 137.968771 -241.224398 
L 134.689432 -233.012498 
L 131.410093 -231.455063 
L 128.130754 -226.25696 
L 124.851415 -227.602718 
L 121.572076 -228.976195 
L 118.292738 -229.510135 
L 115.013399 -228.216707 
L 111.73406 -227.401537 
L 108.454721 -220.42213 
L 105.175382 -213.755841 
L 101.896043 -208.679889 
L 98.616705 -207.360709 
L 95.337366 -203.181403 
L 92.058027 -194.946603 
L 88.778688 -193.012411 
L 85.499349 -189.068735 
L 82.22001 -190.555031 
L 78.940671 -189.002893 
L 75.661333 -193.034653 
L 72.381994 -178.586727 
L 69.102655 -172.534885 
L 65.823316 -149.328634 
L 62.543977 -122.472434 
z
" style="stroke: #c44e52; stroke-opacity: 0.2"/>
    </defs>
    <g clip-path="url(#p2a9940a1ea)">
     <use xlink:href="#mc33165ce0b" x="0" y="316.271687" style="fill: #c44e52; fill-opacity: 0.2; stroke: #c44e52; stroke-opacity: 0.2"/>
    </g>
   </g>
   <g id="PolyCollection_5">
    <defs>
     <path id="m56bc0fea33" d="M 62.543977 -138.155172 
L 62.543977 -87.611536 
L 65.823316 -120.835979 
L 69.102655 -126.85861 
L 72.381994 -138.383292 
L 75.661333 -158.994337 
L 78.940671 -155.841265 
L 82.22001 -157.632196 
L 85.499349 -157.742915 
L 88.778688 -157.511977 
L 92.058027 -160.477956 
L 95.337366 -157.675213 
L 98.616705 -164.377128 
L 101.896043 -159.890356 
L 105.175382 -161.822184 
L 108.454721 -170.295627 
L 111.73406 -164.017108 
L 115.013399 -168.782484 
L 118.292738 -169.800915 
L 121.572076 -170.28785 
L 124.851415 -176.697395 
L 128.130754 -173.732911 
L 131.410093 -172.684099 
L 134.689432 -177.829307 
L 137.968771 -174.644319 
L 141.24811 -173.501187 
L 144.527448 -175.402469 
L 147.806787 -172.605904 
L 151.086126 -180.765032 
L 154.365465 -176.761308 
L 157.644804 -182.16948 
L 160.924143 -184.673875 
L 164.203481 -183.74198 
L 167.48282 -186.650626 
L 170.762159 -186.860281 
L 174.041498 -186.813569 
L 177.320837 -186.50303 
L 180.600176 -188.749234 
L 183.879514 -187.241162 
L 187.158853 -190.851169 
L 190.438192 -191.845649 
L 193.717531 -195.388618 
L 196.99687 -195.392463 
L 200.276209 -197.412843 
L 203.555548 -196.964036 
L 206.834886 -195.234229 
L 210.114225 -195.015868 
L 213.393564 -196.841708 
L 216.672903 -195.672248 
L 219.952242 -198.914117 
L 223.231581 -197.602109 
L 226.510919 -198.282042 
L 229.790258 -200.711879 
L 233.069597 -201.785426 
L 236.348936 -203.124333 
L 239.628275 -202.069753 
L 242.907614 -199.425213 
L 246.186952 -204.041146 
L 249.466291 -203.213398 
L 252.74563 -206.0052 
L 256.024969 -204.927912 
L 259.304308 -208.030642 
L 262.583647 -210.567138 
L 265.862986 -206.147951 
L 269.142324 -207.415265 
L 272.421663 -206.976646 
L 275.701002 -201.260142 
L 278.980341 -204.911902 
L 282.25968 -203.182231 
L 285.539019 -215.708153 
L 288.818357 -157.501904 
L 292.097696 -149.446207 
L 295.377035 -157.154155 
L 298.656374 -164.589678 
L 301.935713 -158.083166 
L 305.215052 -152.830483 
L 308.49439 -163.072667 
L 311.773729 -160.991745 
L 315.053068 -164.553118 
L 318.332407 -160.298908 
L 321.611746 -162.557367 
L 324.891085 -165.115097 
L 328.170424 -160.917901 
L 331.449762 -153.993069 
L 334.729101 -163.758656 
L 338.00844 -173.229154 
L 341.287779 -171.826203 
L 344.567118 -178.103526 
L 347.846457 -161.487254 
L 351.125795 -166.65745 
L 354.405134 -166.658013 
L 357.684473 -166.732765 
L 360.963812 -177.795921 
L 364.243151 -166.692946 
L 367.52249 -164.023296 
L 370.801829 -169.669549 
L 374.081167 -169.79181 
L 377.360506 -172.669923 
L 380.639845 -162.291771 
L 383.919184 -163.645558 
L 387.198523 -169.315642 
L 387.198523 -224.764224 
L 387.198523 -224.764224 
L 383.919184 -218.204657 
L 380.639845 -217.097064 
L 377.360506 -226.034671 
L 374.081167 -219.661512 
L 370.801829 -221.41039 
L 367.52249 -220.274023 
L 364.243151 -220.455862 
L 360.963812 -229.215257 
L 357.684473 -223.004866 
L 354.405134 -222.18061 
L 351.125795 -218.523124 
L 347.846457 -214.156673 
L 344.567118 -227.660769 
L 341.287779 -225.947243 
L 338.00844 -225.836398 
L 334.729101 -216.540293 
L 331.449762 -209.138319 
L 328.170424 -212.785899 
L 324.891085 -217.012772 
L 321.611746 -217.499123 
L 318.332407 -215.63902 
L 315.053068 -218.200573 
L 311.773729 -213.499942 
L 308.49439 -214.41006 
L 305.215052 -209.310744 
L 301.935713 -210.135505 
L 298.656374 -215.617249 
L 295.377035 -207.719086 
L 292.097696 -205.471856 
L 288.818357 -206.813304 
L 285.539019 -257.146514 
L 282.25968 -245.001534 
L 278.980341 -245.714895 
L 275.701002 -244.039492 
L 272.421663 -251.707438 
L 269.142324 -250.937075 
L 265.862986 -246.328459 
L 262.583647 -250.813596 
L 259.304308 -248.865001 
L 256.024969 -242.712736 
L 252.74563 -246.32933 
L 249.466291 -244.488682 
L 246.186952 -246.925798 
L 242.907614 -242.917596 
L 239.628275 -243.087077 
L 236.348936 -246.355454 
L 233.069597 -247.494179 
L 229.790258 -244.607536 
L 226.510919 -243.909541 
L 223.231581 -240.986919 
L 219.952242 -244.118468 
L 216.672903 -241.614631 
L 213.393564 -242.642177 
L 210.114225 -240.19152 
L 206.834886 -242.917661 
L 203.555548 -246.28663 
L 200.276209 -243.262196 
L 196.99687 -242.536424 
L 193.717531 -241.701939 
L 190.438192 -239.881146 
L 187.158853 -238.810985 
L 183.879514 -238.703701 
L 180.600176 -238.739978 
L 177.320837 -235.764766 
L 174.041498 -234.060424 
L 170.762159 -235.070391 
L 167.48282 -231.745931 
L 164.203481 -230.97638 
L 160.924143 -231.93535 
L 157.644804 -230.623388 
L 154.365465 -225.087789 
L 151.086126 -230.302084 
L 147.806787 -225.934409 
L 144.527448 -226.509391 
L 141.24811 -225.391585 
L 137.968771 -225.689691 
L 134.689432 -225.938048 
L 131.410093 -220.297019 
L 128.130754 -221.663465 
L 124.851415 -222.487398 
L 121.572076 -216.385576 
L 118.292738 -215.922817 
L 115.013399 -215.456838 
L 111.73406 -211.642147 
L 108.454721 -219.777444 
L 105.175382 -213.191964 
L 101.896043 -212.588963 
L 98.616705 -213.208148 
L 95.337366 -210.097235 
L 92.058027 -210.849947 
L 88.778688 -210.546648 
L 85.499349 -210.580405 
L 82.22001 -208.600374 
L 78.940671 -208.954346 
L 75.661333 -208.860027 
L 72.381994 -188.180293 
L 69.102655 -182.141439 
L 65.823316 -174.532574 
L 62.543977 -138.155172 
z
" style="stroke: #8172b3; stroke-opacity: 0.2"/>
    </defs>
    <g clip-path="url(#p2a9940a1ea)">
     <use xlink:href="#m56bc0fea33" x="0" y="316.271687" style="fill: #8172b3; fill-opacity: 0.2; stroke: #8172b3; stroke-opacity: 0.2"/>
    </g>
   </g>
   <g id="line2d_15">
    <path d="M 62.543977 199.650516 
L 65.823316 168.431313 
L 69.102655 133.745975 
L 72.381994 121.045479 
L 75.661333 128.384068 
L 78.940671 120.561394 
L 82.22001 111.360089 
L 85.499349 112.986505 
L 88.778688 105.771046 
L 92.058027 94.541467 
L 95.337366 99.082912 
L 98.616705 103.261387 
L 101.896043 95.504508 
L 105.175382 84.431584 
L 108.454721 79.582122 
L 111.73406 81.345464 
L 115.013399 67.054794 
L 118.292738 69.985127 
L 121.572076 71.052237 
L 124.851415 67.661774 
L 128.130754 64.856079 
L 131.410093 59.571677 
L 134.689432 68.120939 
L 137.968771 67.783585 
L 141.24811 54.316322 
L 144.527448 51.706133 
L 147.806787 52.455348 
L 151.086126 59.703086 
L 154.365465 55.106628 
L 157.644804 52.11897 
L 160.924143 49.007054 
L 164.203481 50.871161 
L 167.48282 46.121551 
L 170.762159 46.25994 
L 174.041498 48.030722 
L 177.320837 49.410021 
L 180.600176 49.648172 
L 183.879514 52.581096 
L 187.158853 51.641648 
L 190.438192 50.477114 
L 193.717531 44.681115 
L 196.99687 41.79675 
L 200.276209 46.682256 
L 203.555548 37.706778 
L 206.834886 46.892851 
L 210.114225 44.074389 
L 213.393564 43.33339 
L 216.672903 43.516753 
L 219.952242 43.114246 
L 223.231581 42.012897 
L 226.510919 40.517122 
L 229.790258 37.914618 
L 233.069597 39.424902 
L 236.348936 40.903477 
L 239.628275 39.389346 
L 242.907614 36.176412 
L 246.186952 36.933221 
L 249.466291 40.80124 
L 252.74563 38.371904 
L 256.024969 36.060533 
L 259.304308 36.935469 
L 262.583647 36.94318 
L 265.862986 35.303039 
L 269.142324 32.375912 
L 272.421663 33.886648 
L 275.701002 35.752687 
L 278.980341 34.761574 
L 282.25968 37.131734 
L 285.539019 35.64348 
L 288.818357 63.252021 
L 292.097696 58.882749 
L 295.377035 62.984734 
L 298.656374 57.341935 
L 301.935713 60.351561 
L 305.215052 55.024553 
L 308.49439 60.858769 
L 311.773729 66.878052 
L 315.053068 56.55136 
L 318.332407 62.989139 
L 321.611746 65.767939 
L 324.891085 61.328371 
L 328.170424 56.211148 
L 331.449762 55.5443 
L 334.729101 58.06779 
L 338.00844 66.633138 
L 341.287779 65.602257 
L 344.567118 68.845015 
L 347.846457 71.714746 
L 351.125795 55.200726 
L 354.405134 53.984121 
L 357.684473 55.559444 
L 360.963812 55.331551 
L 364.243151 59.577975 
L 367.52249 58.541235 
L 370.801829 53.684486 
L 374.081167 53.607984 
L 377.360506 57.702745 
L 380.639845 55.06561 
L 383.919184 51.037883 
L 387.198523 54.72536 
" clip-path="url(#p2a9940a1ea)" style="fill: none; stroke: #4c72b0; stroke-width: 1.5; stroke-linecap: round"/>
   </g>
   <g id="line2d_16">
    <path d="M 62.543977 247.108005 
L 65.823316 245.377953 
L 69.102655 203.875554 
L 72.381994 209.121546 
L 75.661333 213.137679 
L 78.940671 202.317587 
L 82.22001 206.069791 
L 85.499349 203.975127 
L 88.778688 191.934006 
L 92.058027 201.415411 
L 95.337366 184.849161 
L 98.616705 189.936142 
L 101.896043 193.99631 
L 105.175382 186.891628 
L 108.454721 165.234181 
L 111.73406 179.383546 
L 115.013399 160.092565 
L 118.292738 165.878351 
L 121.572076 150.646147 
L 124.851415 157.399155 
L 128.130754 176.066209 
L 131.410093 156.84375 
L 134.689432 169.089488 
L 137.968771 155.266045 
L 141.24811 158.036436 
L 144.527448 136.554749 
L 147.806787 148.161535 
L 151.086126 158.807763 
L 154.365465 153.827226 
L 157.644804 154.004485 
L 160.924143 140.099672 
L 164.203481 136.842569 
L 167.48282 147.322355 
L 170.762159 138.396373 
L 174.041498 137.91478 
L 177.320837 156.825484 
L 180.600176 133.681372 
L 183.879514 154.854473 
L 187.158853 141.935744 
L 190.438192 145.807005 
L 193.717531 154.206754 
L 196.99687 129.837514 
L 200.276209 136.071802 
L 203.555548 133.232157 
L 206.834886 140.628135 
L 210.114225 148.527475 
L 213.393564 139.382375 
L 216.672903 129.907218 
L 219.952242 151.975724 
L 223.231581 162.437361 
L 226.510919 148.043489 
L 229.790258 140.839659 
L 233.069597 133.741451 
L 236.348936 118.708844 
L 239.628275 121.696845 
L 242.907614 123.11943 
L 246.186952 114.027991 
L 249.466291 121.57293 
L 252.74563 130.548463 
L 256.024969 125.340475 
L 259.304308 135.343742 
L 262.583647 125.892657 
L 265.862986 115.600522 
L 269.142324 129.212828 
L 272.421663 115.221608 
L 275.701002 112.277145 
L 278.980341 116.04877 
L 282.25968 110.321564 
L 285.539019 129.016013 
L 288.818357 122.465834 
L 292.097696 114.218285 
L 295.377035 128.794555 
L 298.656374 110.577996 
L 301.935713 122.502865 
L 305.215052 111.547683 
L 308.49439 122.809863 
L 311.773729 126.896275 
L 315.053068 111.296683 
L 318.332407 112.703815 
L 321.611746 119.732881 
L 324.891085 125.141511 
L 328.170424 117.929299 
L 331.449762 112.860654 
L 334.729101 115.433588 
L 338.00844 135.204827 
L 341.287779 125.868415 
L 344.567118 137.625427 
L 347.846457 154.400573 
L 351.125795 107.326945 
L 354.405134 103.556987 
L 357.684473 117.757525 
L 360.963812 111.537684 
L 364.243151 118.299015 
L 367.52249 112.229769 
L 370.801829 105.531244 
L 374.081167 118.365062 
L 377.360506 121.615133 
L 380.639845 111.816778 
L 383.919184 106.61923 
L 387.198523 107.65147 
" clip-path="url(#p2a9940a1ea)" style="fill: none; stroke: #dd8452; stroke-width: 1.5; stroke-linecap: round"/>
   </g>
   <g id="line2d_17">
    <path d="M 62.543977 210.058457 
L 65.823316 152.333401 
L 69.102655 137.179155 
L 72.381994 128.734107 
L 75.661333 127.264534 
L 78.940671 124.289039 
L 82.22001 119.495503 
L 85.499349 111.973705 
L 88.778688 112.842202 
L 92.058027 114.885482 
L 95.337366 113.317565 
L 98.616705 111.645245 
L 101.896043 109.607229 
L 105.175382 106.428381 
L 108.454721 102.429078 
L 111.73406 97.123331 
L 115.013399 98.122805 
L 118.292738 94.637889 
L 121.572076 94.021618 
L 124.851415 93.438665 
L 128.130754 96.731054 
L 131.410093 96.654154 
L 134.689432 91.202921 
L 137.968771 89.856018 
L 141.24811 87.859717 
L 144.527448 90.878651 
L 147.806787 90.196541 
L 151.086126 85.534838 
L 154.365465 81.746066 
L 157.644804 77.949638 
L 160.924143 82.532544 
L 164.203481 81.727782 
L 167.48282 78.789252 
L 170.762159 79.383518 
L 174.041498 77.886805 
L 177.320837 75.681877 
L 180.600176 79.210621 
L 183.879514 81.204159 
L 187.158853 82.755156 
L 190.438192 82.890493 
L 193.717531 75.470326 
L 196.99687 75.240202 
L 200.276209 66.254945 
L 203.555548 65.635351 
L 206.834886 61.040446 
L 210.114225 61.157607 
L 213.393564 62.968262 
L 216.672903 61.73852 
L 219.952242 63.151724 
L 223.231581 59.969399 
L 226.510919 60.053062 
L 229.790258 62.396279 
L 233.069597 57.710171 
L 236.348936 58.820575 
L 239.628275 60.655275 
L 242.907614 60.181275 
L 246.186952 58.986566 
L 249.466291 56.821791 
L 252.74563 57.376375 
L 256.024969 54.87719 
L 259.304308 57.385268 
L 262.583647 59.445171 
L 265.862986 56.796717 
L 269.142324 59.242008 
L 272.421663 62.045824 
L 275.701002 52.0907 
L 278.980341 53.070887 
L 282.25968 53.179751 
L 285.539019 56.247063 
L 288.818357 111.553586 
L 292.097696 113.119422 
L 295.377035 106.046536 
L 298.656374 111.111914 
L 301.935713 111.043711 
L 305.215052 118.831454 
L 308.49439 115.600654 
L 311.773729 113.424544 
L 315.053068 112.34097 
L 318.332407 106.607468 
L 321.611746 112.43379 
L 324.891085 108.518477 
L 328.170424 109.622643 
L 331.449762 111.991018 
L 334.729101 113.145841 
L 338.00844 109.810996 
L 341.287779 111.471226 
L 344.567118 108.387639 
L 347.846457 113.34887 
L 351.125795 104.436818 
L 354.405134 110.622611 
L 357.684473 108.072507 
L 360.963812 101.471271 
L 364.243151 108.367364 
L 367.52249 106.639733 
L 370.801829 101.424033 
L 374.081167 103.875546 
L 377.360506 111.559483 
L 380.639845 100.846959 
L 383.919184 104.290938 
L 387.198523 102.079959 
" clip-path="url(#p2a9940a1ea)" style="fill: none; stroke: #55a868; stroke-width: 1.5; stroke-linecap: round"/>
   </g>
   <g id="line2d_18">
    <path d="M 62.543977 217.704676 
L 65.823316 190.305106 
L 69.102655 169.656468 
L 72.381994 162.516221 
L 75.661333 147.654038 
L 78.940671 151.363164 
L 82.22001 147.135588 
L 85.499349 147.933569 
L 88.778688 146.061905 
L 92.058027 145.370169 
L 95.337366 135.348528 
L 98.616705 131.69809 
L 101.896043 130.5949 
L 105.175382 125.343075 
L 108.454721 116.381347 
L 111.73406 110.042512 
L 115.013399 108.343195 
L 118.292738 107.783392 
L 121.572076 109.039255 
L 124.851415 108.898618 
L 128.130754 109.00545 
L 131.410093 107.011135 
L 134.689432 103.63808 
L 137.968771 94.583534 
L 141.24811 92.008089 
L 144.527448 88.431113 
L 147.806787 84.014486 
L 151.086126 87.88805 
L 154.365465 86.387986 
L 157.644804 83.261317 
L 160.924143 77.558553 
L 164.203481 75.558215 
L 167.48282 73.849851 
L 170.762159 71.514688 
L 174.041498 71.907579 
L 177.320837 69.132448 
L 180.600176 68.136243 
L 183.879514 65.192954 
L 187.158853 64.474194 
L 190.438192 64.807837 
L 193.717531 63.810241 
L 196.99687 63.707265 
L 200.276209 63.961866 
L 203.555548 61.70997 
L 206.834886 62.64252 
L 210.114225 61.040572 
L 213.393564 59.360126 
L 216.672903 54.891826 
L 219.952242 57.183225 
L 223.231581 55.871977 
L 226.510919 54.944159 
L 229.790258 55.118754 
L 233.069597 55.061248 
L 236.348936 53.074517 
L 239.628275 51.676347 
L 242.907614 51.291979 
L 246.186952 50.914979 
L 249.466291 50.333967 
L 252.74563 49.404414 
L 256.024969 49.638376 
L 259.304308 48.522581 
L 262.583647 46.986572 
L 265.862986 47.90529 
L 269.142324 47.145159 
L 272.421663 47.716591 
L 275.701002 47.041848 
L 278.980341 47.034833 
L 282.25968 46.707646 
L 285.539019 44.906219 
L 288.818357 109.272786 
L 292.097696 109.979111 
L 295.377035 106.363749 
L 298.656374 104.026059 
L 301.935713 100.808614 
L 305.215052 107.338543 
L 308.49439 95.276699 
L 311.773729 105.805744 
L 315.053068 98.997845 
L 318.332407 103.105247 
L 321.611746 98.662247 
L 324.891085 107.046359 
L 328.170424 98.479564 
L 331.449762 98.754979 
L 334.729101 100.493089 
L 338.00844 94.262643 
L 341.287779 101.910106 
L 344.567118 99.955328 
L 347.846457 101.341818 
L 351.125795 101.13889 
L 354.405134 101.650383 
L 357.684473 101.900897 
L 360.963812 103.020762 
L 364.243151 95.078853 
L 367.52249 99.973739 
L 370.801829 96.859897 
L 374.081167 93.213269 
L 377.360506 101.040697 
L 380.639845 101.07465 
L 383.919184 102.896852 
L 387.198523 99.694335 
" clip-path="url(#p2a9940a1ea)" style="fill: none; stroke: #c44e52; stroke-width: 1.5; stroke-linecap: round"/>
   </g>
   <g id="line2d_19">
    <path d="M 62.543977 203.121319 
L 65.823316 169.613969 
L 69.102655 163.037542 
L 72.381994 154.339662 
L 75.661333 133.993101 
L 78.940671 134.309922 
L 82.22001 133.092812 
L 85.499349 132.735441 
L 88.778688 132.87503 
L 92.058027 132.274886 
L 95.337366 131.572821 
L 98.616705 127.872525 
L 101.896043 130.679764 
L 105.175382 128.738721 
L 108.454721 121.596758 
L 111.73406 128.933144 
L 115.013399 124.990941 
L 118.292738 123.935866 
L 121.572076 124.292072 
L 124.851415 117.239787 
L 128.130754 118.966814 
L 131.410093 120.209359 
L 134.689432 115.222041 
L 137.968771 117.606024 
L 141.24811 114.971972 
L 144.527448 115.308016 
L 147.806787 114.93656 
L 151.086126 111.531081 
L 154.365465 115.391056 
L 157.644804 110.616283 
L 160.924143 109.690658 
L 164.203481 109.521011 
L 167.48282 106.767675 
L 170.762159 105.738072 
L 174.041498 106.211367 
L 177.320837 104.651124 
L 180.600176 103.38811 
L 183.879514 103.771521 
L 187.158853 101.568354 
L 190.438192 102.040259 
L 193.717531 97.959324 
L 196.99687 97.596229 
L 200.276209 96.993737 
L 203.555548 96.492641 
L 206.834886 97.674304 
L 210.114225 98.611657 
L 213.393564 97.804006 
L 216.672903 97.22545 
L 219.952242 95.146262 
L 223.231581 96.93271 
L 226.510919 94.538533 
L 229.790258 94.426545 
L 233.069597 92.034337 
L 236.348936 92.08322 
L 239.628275 94.864771 
L 242.907614 95.050617 
L 246.186952 91.210434 
L 249.466291 92.923637 
L 252.74563 90.487512 
L 256.024969 92.553689 
L 259.304308 88.034276 
L 262.583647 85.634086 
L 265.862986 90.441815 
L 269.142324 87.56024 
L 272.421663 87.780188 
L 275.701002 93.364121 
L 278.980341 91.829268 
L 282.25968 91.55743 
L 285.539019 81.206994 
L 288.818357 132.976031 
L 292.097696 137.121708 
L 295.377035 132.457692 
L 298.656374 125.191334 
L 301.935713 131.17947 
L 305.215052 135.322714 
L 308.49439 126.48901 
L 311.773729 129.083034 
L 315.053068 122.870147 
L 318.332407 127.859534 
L 321.611746 127.279288 
L 324.891085 124.014137 
L 328.170424 128.695622 
L 331.449762 133.574814 
L 334.729101 126.563906 
L 338.00844 118.075154 
L 341.287779 116.296322 
L 344.567118 113.290034 
L 347.846457 128.881763 
L 351.125795 123.595167 
L 354.405134 121.323727 
L 357.684473 122.61756 
L 360.963812 112.825399 
L 364.243151 123.117045 
L 367.52249 124.192181 
L 370.801829 120.730606 
L 374.081167 120.85451 
L 377.360506 116.840157 
L 380.639845 125.36393 
L 383.919184 125.086713 
L 387.198523 118.526117 
" clip-path="url(#p2a9940a1ea)" style="fill: none; stroke: #8172b3; stroke-width: 1.5; stroke-linecap: round"/>
   </g>
   <g id="line2d_20"/>
   <g id="line2d_21"/>
   <g id="line2d_22"/>
   <g id="line2d_23"/>
   <g id="line2d_24"/>
   <g id="patch_3">
    <path d="M 46.31125 273.312 
L 46.31125 7.2 
" style="fill: none; stroke: #cccccc; stroke-width: 1.25; stroke-linejoin: miter; stroke-linecap: square"/>
   </g>
   <g id="patch_4">
    <path d="M 403.43125 273.312 
L 403.43125 7.2 
" style="fill: none; stroke: #cccccc; stroke-width: 1.25; stroke-linejoin: miter; stroke-linecap: square"/>
   </g>
   <g id="patch_5">
    <path d="M 46.31125 273.312 
L 403.43125 273.312 
" style="fill: none; stroke: #cccccc; stroke-width: 1.25; stroke-linejoin: miter; stroke-linecap: square"/>
   </g>
   <g id="patch_6">
    <path d="M 46.31125 7.2 
L 403.43125 7.2 
" style="fill: none; stroke: #cccccc; stroke-width: 1.25; stroke-linejoin: miter; stroke-linecap: square"/>
   </g>
   <g id="legend_1">
    <g id="patch_7">
     <path d="M 291.746875 267.812 
L 395.73125 267.812 
Q 397.93125 267.812 397.93125 265.612 
L 397.93125 168.868562 
Q 397.93125 166.668562 395.73125 166.668562 
L 291.746875 166.668562 
Q 289.546875 166.668562 289.546875 168.868562 
L 289.546875 265.612 
Q 289.546875 267.812 291.746875 267.812 
z
" style="fill: #ffffff; opacity: 0.8; stroke: #cccccc; stroke-linejoin: miter"/>
    </g>
    <g id="text_17">
     <!-- Strategy -->
     <g style="fill: #262626" transform="translate(318.03 180.186687) scale(0.12 -0.12)">
      <defs>
       <path id="DejaVuSans-53" d="M 3425 4513 
L 3425 3897 
Q 3066 4069 2747 4153 
Q 2428 4238 2131 4238 
Q 1616 4238 1336 4038 
Q 1056 3838 1056 3469 
Q 1056 3159 1242 3001 
Q 1428 2844 1947 2747 
L 2328 2669 
Q 3034 2534 3370 2195 
Q 3706 1856 3706 1288 
Q 3706 609 3251 259 
Q 2797 -91 1919 -91 
Q 1588 -91 1214 -16 
Q 841 59 441 206 
L 441 856 
Q 825 641 1194 531 
Q 1563 422 1919 422 
Q 2459 422 2753 634 
Q 3047 847 3047 1241 
Q 3047 1584 2836 1778 
Q 2625 1972 2144 2069 
L 1759 2144 
Q 1053 2284 737 2584 
Q 422 2884 422 3419 
Q 422 4038 858 4394 
Q 1294 4750 2059 4750 
Q 2388 4750 2728 4690 
Q 3069 4631 3425 4513 
z
" transform="scale(0.015625)"/>
       <path id="DejaVuSans-74" d="M 1172 4494 
L 1172 3500 
L 2356 3500 
L 2356 3053 
L 1172 3053 
L 1172 1153 
Q 1172 725 1289 603 
Q 1406 481 1766 481 
L 2356 481 
L 2356 0 
L 1766 0 
Q 1100 0 847 248 
Q 594 497 594 1153 
L 594 3053 
L 172 3053 
L 172 3500 
L 594 3500 
L 594 4494 
L 1172 4494 
z
" transform="scale(0.015625)"/>
       <path id="DejaVuSans-65" d="M 3597 1894 
L 3597 1613 
L 953 1613 
Q 991 1019 1311 708 
Q 1631 397 2203 397 
Q 2534 397 2845 478 
Q 3156 559 3463 722 
L 3463 178 
Q 3153 47 2828 -22 
Q 2503 -91 2169 -91 
Q 1331 -91 842 396 
Q 353 884 353 1716 
Q 353 2575 817 3079 
Q 1281 3584 2069 3584 
Q 2775 3584 3186 3129 
Q 3597 2675 3597 1894 
z
M 3022 2063 
Q 3016 2534 2758 2815 
Q 2500 3097 2075 3097 
Q 1594 3097 1305 2825 
Q 1016 2553 972 2059 
L 3022 2063 
z
" transform="scale(0.015625)"/>
       <path id="DejaVuSans-67" d="M 2906 1791 
Q 2906 2416 2648 2759 
Q 2391 3103 1925 3103 
Q 1463 3103 1205 2759 
Q 947 2416 947 1791 
Q 947 1169 1205 825 
Q 1463 481 1925 481 
Q 2391 481 2648 825 
Q 2906 1169 2906 1791 
z
M 3481 434 
Q 3481 -459 3084 -895 
Q 2688 -1331 1869 -1331 
Q 1566 -1331 1297 -1286 
Q 1028 -1241 775 -1147 
L 775 -588 
Q 1028 -725 1275 -790 
Q 1522 -856 1778 -856 
Q 2344 -856 2625 -561 
Q 2906 -266 2906 331 
L 2906 616 
Q 2728 306 2450 153 
Q 2172 0 1784 0 
Q 1141 0 747 490 
Q 353 981 353 1791 
Q 353 2603 747 3093 
Q 1141 3584 1784 3584 
Q 2172 3584 2450 3431 
Q 2728 3278 2906 2969 
L 2906 3500 
L 3481 3500 
L 3481 434 
z
" transform="scale(0.015625)"/>
      </defs>
      <use xlink:href="#DejaVuSans-53"/>
      <use xlink:href="#DejaVuSans-74" x="63.476562"/>
      <use xlink:href="#DejaVuSans-72" x="102.685547"/>
      <use xlink:href="#DejaVuSans-61" x="143.798828"/>
      <use xlink:href="#DejaVuSans-74" x="205.078125"/>
      <use xlink:href="#DejaVuSans-65" x="244.287109"/>
      <use xlink:href="#DejaVuSans-67" x="305.810547"/>
      <use xlink:href="#DejaVuSans-79" x="369.287109"/>
     </g>
    </g>
    <g id="line2d_25">
     <path d="M 293.946875 192.690594 
L 304.946875 192.690594 
L 315.946875 192.690594 
" style="fill: none; stroke: #4c72b0; stroke-width: 1.5; stroke-linecap: round"/>
    </g>
    <g id="text_18">
     <!-- FedPredict -->
     <g style="fill: #262626" transform="translate(324.746875 196.540594) scale(0.11 -0.11)">
      <defs>
       <path id="DejaVuSans-46" d="M 628 4666 
L 3309 4666 
L 3309 4134 
L 1259 4134 
L 1259 2759 
L 3109 2759 
L 3109 2228 
L 1259 2228 
L 1259 0 
L 628 0 
L 628 4666 
z
" transform="scale(0.015625)"/>
       <path id="DejaVuSans-50" d="M 1259 4147 
L 1259 2394 
L 2053 2394 
Q 2494 2394 2734 2622 
Q 2975 2850 2975 3272 
Q 2975 3691 2734 3919 
Q 2494 4147 2053 4147 
L 1259 4147 
z
M 628 4666 
L 2053 4666 
Q 2838 4666 3239 4311 
Q 3641 3956 3641 3272 
Q 3641 2581 3239 2228 
Q 2838 1875 2053 1875 
L 1259 1875 
L 1259 0 
L 628 0 
L 628 4666 
z
" transform="scale(0.015625)"/>
       <path id="DejaVuSans-69" d="M 603 3500 
L 1178 3500 
L 1178 0 
L 603 0 
L 603 3500 
z
M 603 4863 
L 1178 4863 
L 1178 4134 
L 603 4134 
L 603 4863 
z
" transform="scale(0.015625)"/>
      </defs>
      <use xlink:href="#DejaVuSans-46"/>
      <use xlink:href="#DejaVuSans-65" x="52.019531"/>
      <use xlink:href="#DejaVuSans-64" x="113.542969"/>
      <use xlink:href="#DejaVuSans-50" x="177.019531"/>
      <use xlink:href="#DejaVuSans-72" x="235.572266"/>
      <use xlink:href="#DejaVuSans-65" x="274.435547"/>
      <use xlink:href="#DejaVuSans-64" x="335.958984"/>
      <use xlink:href="#DejaVuSans-69" x="399.435547"/>
      <use xlink:href="#DejaVuSans-63" x="427.21875"/>
      <use xlink:href="#DejaVuSans-74" x="482.199219"/>
     </g>
    </g>
    <g id="line2d_26">
     <path d="M 293.946875 208.836531 
L 304.946875 208.836531 
L 315.946875 208.836531 
" style="fill: none; stroke: #dd8452; stroke-width: 1.5; stroke-linecap: round"/>
    </g>
    <g id="text_19">
     <!-- FedAVG -->
     <g style="fill: #262626" transform="translate(324.746875 212.686531) scale(0.11 -0.11)">
      <defs>
       <path id="DejaVuSans-56" d="M 1831 0 
L 50 4666 
L 709 4666 
L 2188 738 
L 3669 4666 
L 4325 4666 
L 2547 0 
L 1831 0 
z
" transform="scale(0.015625)"/>
       <path id="DejaVuSans-47" d="M 3809 666 
L 3809 1919 
L 2778 1919 
L 2778 2438 
L 4434 2438 
L 4434 434 
Q 4069 175 3628 42 
Q 3188 -91 2688 -91 
Q 1594 -91 976 548 
Q 359 1188 359 2328 
Q 359 3472 976 4111 
Q 1594 4750 2688 4750 
Q 3144 4750 3555 4637 
Q 3966 4525 4313 4306 
L 4313 3634 
Q 3963 3931 3569 4081 
Q 3175 4231 2741 4231 
Q 1884 4231 1454 3753 
Q 1025 3275 1025 2328 
Q 1025 1384 1454 906 
Q 1884 428 2741 428 
Q 3075 428 3337 486 
Q 3600 544 3809 666 
z
" transform="scale(0.015625)"/>
      </defs>
      <use xlink:href="#DejaVuSans-46"/>
      <use xlink:href="#DejaVuSans-65" x="52.019531"/>
      <use xlink:href="#DejaVuSans-64" x="113.542969"/>
      <use xlink:href="#DejaVuSans-41" x="177.019531"/>
      <use xlink:href="#DejaVuSans-56" x="239.052734"/>
      <use xlink:href="#DejaVuSans-47" x="307.460938"/>
     </g>
    </g>
    <g id="line2d_27">
     <path d="M 293.946875 224.982469 
L 304.946875 224.982469 
L 315.946875 224.982469 
" style="fill: none; stroke: #55a868; stroke-width: 1.5; stroke-linecap: round"/>
    </g>
    <g id="text_20">
     <!-- FedClassAvg -->
     <g style="fill: #262626" transform="translate(324.746875 228.832469) scale(0.11 -0.11)">
      <defs>
       <path id="DejaVuSans-43" d="M 4122 4306 
L 4122 3641 
Q 3803 3938 3442 4084 
Q 3081 4231 2675 4231 
Q 1875 4231 1450 3742 
Q 1025 3253 1025 2328 
Q 1025 1406 1450 917 
Q 1875 428 2675 428 
Q 3081 428 3442 575 
Q 3803 722 4122 1019 
L 4122 359 
Q 3791 134 3420 21 
Q 3050 -91 2638 -91 
Q 1578 -91 968 557 
Q 359 1206 359 2328 
Q 359 3453 968 4101 
Q 1578 4750 2638 4750 
Q 3056 4750 3426 4639 
Q 3797 4528 4122 4306 
z
" transform="scale(0.015625)"/>
       <path id="DejaVuSans-6c" d="M 603 4863 
L 1178 4863 
L 1178 0 
L 603 0 
L 603 4863 
z
" transform="scale(0.015625)"/>
       <path id="DejaVuSans-73" d="M 2834 3397 
L 2834 2853 
Q 2591 2978 2328 3040 
Q 2066 3103 1784 3103 
Q 1356 3103 1142 2972 
Q 928 2841 928 2578 
Q 928 2378 1081 2264 
Q 1234 2150 1697 2047 
L 1894 2003 
Q 2506 1872 2764 1633 
Q 3022 1394 3022 966 
Q 3022 478 2636 193 
Q 2250 -91 1575 -91 
Q 1294 -91 989 -36 
Q 684 19 347 128 
L 347 722 
Q 666 556 975 473 
Q 1284 391 1588 391 
Q 1994 391 2212 530 
Q 2431 669 2431 922 
Q 2431 1156 2273 1281 
Q 2116 1406 1581 1522 
L 1381 1569 
Q 847 1681 609 1914 
Q 372 2147 372 2553 
Q 372 3047 722 3315 
Q 1072 3584 1716 3584 
Q 2034 3584 2315 3537 
Q 2597 3491 2834 3397 
z
" transform="scale(0.015625)"/>
       <path id="DejaVuSans-76" d="M 191 3500 
L 800 3500 
L 1894 563 
L 2988 3500 
L 3597 3500 
L 2284 0 
L 1503 0 
L 191 3500 
z
" transform="scale(0.015625)"/>
      </defs>
      <use xlink:href="#DejaVuSans-46"/>
      <use xlink:href="#DejaVuSans-65" x="52.019531"/>
      <use xlink:href="#DejaVuSans-64" x="113.542969"/>
      <use xlink:href="#DejaVuSans-43" x="177.019531"/>
      <use xlink:href="#DejaVuSans-6c" x="246.84375"/>
      <use xlink:href="#DejaVuSans-61" x="274.626953"/>
      <use xlink:href="#DejaVuSans-73" x="335.90625"/>
      <use xlink:href="#DejaVuSans-73" x="388.005859"/>
      <use xlink:href="#DejaVuSans-41" x="440.105469"/>
      <use xlink:href="#DejaVuSans-76" x="502.638672"/>
      <use xlink:href="#DejaVuSans-67" x="561.818359"/>
     </g>
    </g>
    <g id="line2d_28">
     <path d="M 293.946875 241.128406 
L 304.946875 241.128406 
L 315.946875 241.128406 
" style="fill: none; stroke: #c44e52; stroke-width: 1.5; stroke-linecap: round"/>
    </g>
    <g id="text_21">
     <!-- FedPer -->
     <g style="fill: #262626" transform="translate(324.746875 244.978406) scale(0.11 -0.11)">
      <use xlink:href="#DejaVuSans-46"/>
      <use xlink:href="#DejaVuSans-65" x="52.019531"/>
      <use xlink:href="#DejaVuSans-64" x="113.542969"/>
      <use xlink:href="#DejaVuSans-50" x="177.019531"/>
      <use xlink:href="#DejaVuSans-65" x="233.697266"/>
      <use xlink:href="#DejaVuSans-72" x="295.220703"/>
     </g>
    </g>
    <g id="line2d_29">
     <path d="M 293.946875 257.274344 
L 304.946875 257.274344 
L 315.946875 257.274344 
" style="fill: none; stroke: #8172b3; stroke-width: 1.5; stroke-linecap: round"/>
    </g>
    <g id="text_22">
     <!-- FedProto -->
     <g style="fill: #262626" transform="translate(324.746875 261.124344) scale(0.11 -0.11)">
      <use xlink:href="#DejaVuSans-46"/>
      <use xlink:href="#DejaVuSans-65" x="52.019531"/>
      <use xlink:href="#DejaVuSans-64" x="113.542969"/>
      <use xlink:href="#DejaVuSans-50" x="177.019531"/>
      <use xlink:href="#DejaVuSans-72" x="235.572266"/>
      <use xlink:href="#DejaVuSans-6f" x="274.435547"/>
      <use xlink:href="#DejaVuSans-74" x="335.617188"/>
      <use xlink:href="#DejaVuSans-6f" x="374.826172"/>
     </g>
    </g>
   </g>
  </g>
 </g>
 <defs>
  <clipPath id="p2a9940a1ea">
   <rect x="46.31125" y="7.2" width="357.12" height="266.112"/>
  </clipPath>
 </defs>
</svg>
