<?xml version="1.0" encoding="utf-8" standalone="no"?>
<!DOCTYPE svg PUBLIC "-//W3C//DTD SVG 1.1//EN"
  "http://www.w3.org/Graphics/SVG/1.1/DTD/svg11.dtd">
<svg xmlns:xlink="http://www.w3.org/1999/xlink" width="421.125937pt" height="316.271687pt" viewBox="0 0 421.125937 316.271687" xmlns="http://www.w3.org/2000/svg" version="1.1">
 <metadata>
  <rdf:RDF xmlns:dc="http://purl.org/dc/elements/1.1/" xmlns:cc="http://creativecommons.org/ns#" xmlns:rdf="http://www.w3.org/1999/02/22-rdf-syntax-ns#">
   <cc:Work>
    <dc:type rdf:resource="http://purl.org/dc/dcmitype/StillImage"/>
    <dc:date>2023-03-01T16:55:33.577312</dc:date>
    <dc:format>image/svg+xml</dc:format>
    <dc:creator>
     <cc:Agent>
      <dc:title>Matplotlib v3.6.3, https://matplotlib.org/</dc:title>
     </cc:Agent>
    </dc:creator>
   </cc:Work>
  </rdf:RDF>
 </metadata>
 <defs>
  <style type="text/css">*{stroke-linejoin: round; stroke-linecap: butt}</style>
 </defs>
 <g id="figure_1">
  <g id="patch_1">
   <path d="M 0 316.271687 
L 421.125937 316.271687 
L 421.125937 0 
L 0 0 
z
" style="fill: #ffffff"/>
  </g>
  <g id="axes_1">
   <g id="patch_2">
    <path d="M 56.805938 273.312 
L 413.925938 273.312 
L 413.925938 7.2 
L 56.805938 7.2 
z
" style="fill: #ffffff"/>
   </g>
   <g id="matplotlib.axis_1">
    <g id="xtick_1">
     <g id="line2d_1">
      <path d="M 69.759326 273.312 
L 69.759326 7.2 
" clip-path="url(#p6b94c158ca)" style="fill: none; stroke: #cccccc; stroke-linecap: round"/>
     </g>
     <g id="text_1">
      <!-- 0 -->
      <g style="fill: #262626" transform="translate(66.259951 291.170281) scale(0.11 -0.11)">
       <defs>
        <path id="DejaVuSans-30" d="M 2034 4250 
Q 1547 4250 1301 3770 
Q 1056 3291 1056 2328 
Q 1056 1369 1301 889 
Q 1547 409 2034 409 
Q 2525 409 2770 889 
Q 3016 1369 3016 2328 
Q 3016 3291 2770 3770 
Q 2525 4250 2034 4250 
z
M 2034 4750 
Q 2819 4750 3233 4129 
Q 3647 3509 3647 2328 
Q 3647 1150 3233 529 
Q 2819 -91 2034 -91 
Q 1250 -91 836 529 
Q 422 1150 422 2328 
Q 422 3509 836 4129 
Q 1250 4750 2034 4750 
z
" transform="scale(0.015625)"/>
       </defs>
       <use xlink:href="#DejaVuSans-30"/>
      </g>
     </g>
    </g>
    <g id="xtick_2">
     <g id="line2d_2">
      <path d="M 135.346103 273.312 
L 135.346103 7.2 
" clip-path="url(#p6b94c158ca)" style="fill: none; stroke: #cccccc; stroke-linecap: round"/>
     </g>
     <g id="text_2">
      <!-- 20 -->
      <g style="fill: #262626" transform="translate(128.347353 291.170281) scale(0.11 -0.11)">
       <defs>
        <path id="DejaVuSans-32" d="M 1228 531 
L 3431 531 
L 3431 0 
L 469 0 
L 469 531 
Q 828 903 1448 1529 
Q 2069 2156 2228 2338 
Q 2531 2678 2651 2914 
Q 2772 3150 2772 3378 
Q 2772 3750 2511 3984 
Q 2250 4219 1831 4219 
Q 1534 4219 1204 4116 
Q 875 4013 500 3803 
L 500 4441 
Q 881 4594 1212 4672 
Q 1544 4750 1819 4750 
Q 2544 4750 2975 4387 
Q 3406 4025 3406 3419 
Q 3406 3131 3298 2873 
Q 3191 2616 2906 2266 
Q 2828 2175 2409 1742 
Q 1991 1309 1228 531 
z
" transform="scale(0.015625)"/>
       </defs>
       <use xlink:href="#DejaVuSans-32"/>
       <use xlink:href="#DejaVuSans-30" x="63.623047"/>
      </g>
     </g>
    </g>
    <g id="xtick_3">
     <g id="line2d_3">
      <path d="M 200.93288 273.312 
L 200.93288 7.2 
" clip-path="url(#p6b94c158ca)" style="fill: none; stroke: #cccccc; stroke-linecap: round"/>
     </g>
     <g id="text_3">
      <!-- 40 -->
      <g style="fill: #262626" transform="translate(193.93413 291.170281) scale(0.11 -0.11)">
       <defs>
        <path id="DejaVuSans-34" d="M 2419 4116 
L 825 1625 
L 2419 1625 
L 2419 4116 
z
M 2253 4666 
L 3047 4666 
L 3047 1625 
L 3713 1625 
L 3713 1100 
L 3047 1100 
L 3047 0 
L 2419 0 
L 2419 1100 
L 313 1100 
L 313 1709 
L 2253 4666 
z
" transform="scale(0.015625)"/>
       </defs>
       <use xlink:href="#DejaVuSans-34"/>
       <use xlink:href="#DejaVuSans-30" x="63.623047"/>
      </g>
     </g>
    </g>
    <g id="xtick_4">
     <g id="line2d_4">
      <path d="M 266.519657 273.312 
L 266.519657 7.2 
" clip-path="url(#p6b94c158ca)" style="fill: none; stroke: #cccccc; stroke-linecap: round"/>
     </g>
     <g id="text_4">
      <!-- 60 -->
      <g style="fill: #262626" transform="translate(259.520907 291.170281) scale(0.11 -0.11)">
       <defs>
        <path id="DejaVuSans-36" d="M 2113 2584 
Q 1688 2584 1439 2293 
Q 1191 2003 1191 1497 
Q 1191 994 1439 701 
Q 1688 409 2113 409 
Q 2538 409 2786 701 
Q 3034 994 3034 1497 
Q 3034 2003 2786 2293 
Q 2538 2584 2113 2584 
z
M 3366 4563 
L 3366 3988 
Q 3128 4100 2886 4159 
Q 2644 4219 2406 4219 
Q 1781 4219 1451 3797 
Q 1122 3375 1075 2522 
Q 1259 2794 1537 2939 
Q 1816 3084 2150 3084 
Q 2853 3084 3261 2657 
Q 3669 2231 3669 1497 
Q 3669 778 3244 343 
Q 2819 -91 2113 -91 
Q 1303 -91 875 529 
Q 447 1150 447 2328 
Q 447 3434 972 4092 
Q 1497 4750 2381 4750 
Q 2619 4750 2861 4703 
Q 3103 4656 3366 4563 
z
" transform="scale(0.015625)"/>
       </defs>
       <use xlink:href="#DejaVuSans-36"/>
       <use xlink:href="#DejaVuSans-30" x="63.623047"/>
      </g>
     </g>
    </g>
    <g id="xtick_5">
     <g id="line2d_5">
      <path d="M 332.106433 273.312 
L 332.106433 7.2 
" clip-path="url(#p6b94c158ca)" style="fill: none; stroke: #cccccc; stroke-linecap: round"/>
     </g>
     <g id="text_5">
      <!-- 80 -->
      <g style="fill: #262626" transform="translate(325.107683 291.170281) scale(0.11 -0.11)">
       <defs>
        <path id="DejaVuSans-38" d="M 2034 2216 
Q 1584 2216 1326 1975 
Q 1069 1734 1069 1313 
Q 1069 891 1326 650 
Q 1584 409 2034 409 
Q 2484 409 2743 651 
Q 3003 894 3003 1313 
Q 3003 1734 2745 1975 
Q 2488 2216 2034 2216 
z
M 1403 2484 
Q 997 2584 770 2862 
Q 544 3141 544 3541 
Q 544 4100 942 4425 
Q 1341 4750 2034 4750 
Q 2731 4750 3128 4425 
Q 3525 4100 3525 3541 
Q 3525 3141 3298 2862 
Q 3072 2584 2669 2484 
Q 3125 2378 3379 2068 
Q 3634 1759 3634 1313 
Q 3634 634 3220 271 
Q 2806 -91 2034 -91 
Q 1263 -91 848 271 
Q 434 634 434 1313 
Q 434 1759 690 2068 
Q 947 2378 1403 2484 
z
M 1172 3481 
Q 1172 3119 1398 2916 
Q 1625 2713 2034 2713 
Q 2441 2713 2670 2916 
Q 2900 3119 2900 3481 
Q 2900 3844 2670 4047 
Q 2441 4250 2034 4250 
Q 1625 4250 1398 4047 
Q 1172 3844 1172 3481 
z
" transform="scale(0.015625)"/>
       </defs>
       <use xlink:href="#DejaVuSans-38"/>
       <use xlink:href="#DejaVuSans-30" x="63.623047"/>
      </g>
     </g>
    </g>
    <g id="xtick_6">
     <g id="line2d_6">
      <path d="M 397.69321 273.312 
L 397.69321 7.2 
" clip-path="url(#p6b94c158ca)" style="fill: none; stroke: #cccccc; stroke-linecap: round"/>
     </g>
     <g id="text_6">
      <!-- 100 -->
      <g style="fill: #262626" transform="translate(387.195085 291.170281) scale(0.11 -0.11)">
       <defs>
        <path id="DejaVuSans-31" d="M 794 531 
L 1825 531 
L 1825 4091 
L 703 3866 
L 703 4441 
L 1819 4666 
L 2450 4666 
L 2450 531 
L 3481 531 
L 3481 0 
L 794 0 
L 794 531 
z
" transform="scale(0.015625)"/>
       </defs>
       <use xlink:href="#DejaVuSans-31"/>
       <use xlink:href="#DejaVuSans-30" x="63.623047"/>
       <use xlink:href="#DejaVuSans-30" x="127.246094"/>
      </g>
     </g>
    </g>
    <g id="text_7">
     <!-- Server round -->
     <g style="fill: #262626" transform="translate(196.365 306.576062) scale(0.12 -0.12)">
      <defs>
       <path id="DejaVuSans-53" d="M 3425 4513 
L 3425 3897 
Q 3066 4069 2747 4153 
Q 2428 4238 2131 4238 
Q 1616 4238 1336 4038 
Q 1056 3838 1056 3469 
Q 1056 3159 1242 3001 
Q 1428 2844 1947 2747 
L 2328 2669 
Q 3034 2534 3370 2195 
Q 3706 1856 3706 1288 
Q 3706 609 3251 259 
Q 2797 -91 1919 -91 
Q 1588 -91 1214 -16 
Q 841 59 441 206 
L 441 856 
Q 825 641 1194 531 
Q 1563 422 1919 422 
Q 2459 422 2753 634 
Q 3047 847 3047 1241 
Q 3047 1584 2836 1778 
Q 2625 1972 2144 2069 
L 1759 2144 
Q 1053 2284 737 2584 
Q 422 2884 422 3419 
Q 422 4038 858 4394 
Q 1294 4750 2059 4750 
Q 2388 4750 2728 4690 
Q 3069 4631 3425 4513 
z
" transform="scale(0.015625)"/>
       <path id="DejaVuSans-65" d="M 3597 1894 
L 3597 1613 
L 953 1613 
Q 991 1019 1311 708 
Q 1631 397 2203 397 
Q 2534 397 2845 478 
Q 3156 559 3463 722 
L 3463 178 
Q 3153 47 2828 -22 
Q 2503 -91 2169 -91 
Q 1331 -91 842 396 
Q 353 884 353 1716 
Q 353 2575 817 3079 
Q 1281 3584 2069 3584 
Q 2775 3584 3186 3129 
Q 3597 2675 3597 1894 
z
M 3022 2063 
Q 3016 2534 2758 2815 
Q 2500 3097 2075 3097 
Q 1594 3097 1305 2825 
Q 1016 2553 972 2059 
L 3022 2063 
z
" transform="scale(0.015625)"/>
       <path id="DejaVuSans-72" d="M 2631 2963 
Q 2534 3019 2420 3045 
Q 2306 3072 2169 3072 
Q 1681 3072 1420 2755 
Q 1159 2438 1159 1844 
L 1159 0 
L 581 0 
L 581 3500 
L 1159 3500 
L 1159 2956 
Q 1341 3275 1631 3429 
Q 1922 3584 2338 3584 
Q 2397 3584 2469 3576 
Q 2541 3569 2628 3553 
L 2631 2963 
z
" transform="scale(0.015625)"/>
       <path id="DejaVuSans-76" d="M 191 3500 
L 800 3500 
L 1894 563 
L 2988 3500 
L 3597 3500 
L 2284 0 
L 1503 0 
L 191 3500 
z
" transform="scale(0.015625)"/>
       <path id="DejaVuSans-20" transform="scale(0.015625)"/>
       <path id="DejaVuSans-6f" d="M 1959 3097 
Q 1497 3097 1228 2736 
Q 959 2375 959 1747 
Q 959 1119 1226 758 
Q 1494 397 1959 397 
Q 2419 397 2687 759 
Q 2956 1122 2956 1747 
Q 2956 2369 2687 2733 
Q 2419 3097 1959 3097 
z
M 1959 3584 
Q 2709 3584 3137 3096 
Q 3566 2609 3566 1747 
Q 3566 888 3137 398 
Q 2709 -91 1959 -91 
Q 1206 -91 779 398 
Q 353 888 353 1747 
Q 353 2609 779 3096 
Q 1206 3584 1959 3584 
z
" transform="scale(0.015625)"/>
       <path id="DejaVuSans-75" d="M 544 1381 
L 544 3500 
L 1119 3500 
L 1119 1403 
Q 1119 906 1312 657 
Q 1506 409 1894 409 
Q 2359 409 2629 706 
Q 2900 1003 2900 1516 
L 2900 3500 
L 3475 3500 
L 3475 0 
L 2900 0 
L 2900 538 
Q 2691 219 2414 64 
Q 2138 -91 1772 -91 
Q 1169 -91 856 284 
Q 544 659 544 1381 
z
M 1991 3584 
L 1991 3584 
z
" transform="scale(0.015625)"/>
       <path id="DejaVuSans-6e" d="M 3513 2113 
L 3513 0 
L 2938 0 
L 2938 2094 
Q 2938 2591 2744 2837 
Q 2550 3084 2163 3084 
Q 1697 3084 1428 2787 
Q 1159 2491 1159 1978 
L 1159 0 
L 581 0 
L 581 3500 
L 1159 3500 
L 1159 2956 
Q 1366 3272 1645 3428 
Q 1925 3584 2291 3584 
Q 2894 3584 3203 3211 
Q 3513 2838 3513 2113 
z
" transform="scale(0.015625)"/>
       <path id="DejaVuSans-64" d="M 2906 2969 
L 2906 4863 
L 3481 4863 
L 3481 0 
L 2906 0 
L 2906 525 
Q 2725 213 2448 61 
Q 2172 -91 1784 -91 
Q 1150 -91 751 415 
Q 353 922 353 1747 
Q 353 2572 751 3078 
Q 1150 3584 1784 3584 
Q 2172 3584 2448 3432 
Q 2725 3281 2906 2969 
z
M 947 1747 
Q 947 1113 1208 752 
Q 1469 391 1925 391 
Q 2381 391 2643 752 
Q 2906 1113 2906 1747 
Q 2906 2381 2643 2742 
Q 2381 3103 1925 3103 
Q 1469 3103 1208 2742 
Q 947 2381 947 1747 
z
" transform="scale(0.015625)"/>
      </defs>
      <use xlink:href="#DejaVuSans-53"/>
      <use xlink:href="#DejaVuSans-65" x="63.476562"/>
      <use xlink:href="#DejaVuSans-72" x="125"/>
      <use xlink:href="#DejaVuSans-76" x="166.113281"/>
      <use xlink:href="#DejaVuSans-65" x="225.292969"/>
      <use xlink:href="#DejaVuSans-72" x="286.816406"/>
      <use xlink:href="#DejaVuSans-20" x="327.929688"/>
      <use xlink:href="#DejaVuSans-72" x="359.716797"/>
      <use xlink:href="#DejaVuSans-6f" x="398.580078"/>
      <use xlink:href="#DejaVuSans-75" x="459.761719"/>
      <use xlink:href="#DejaVuSans-6e" x="523.140625"/>
      <use xlink:href="#DejaVuSans-64" x="586.519531"/>
     </g>
    </g>
   </g>
   <g id="matplotlib.axis_2">
    <g id="ytick_1">
     <g id="line2d_7">
      <path d="M 56.805938 259.836306 
L 413.925938 259.836306 
" clip-path="url(#p6b94c158ca)" style="fill: none; stroke: #cccccc; stroke-linecap: round"/>
     </g>
     <g id="text_8">
      <!-- 12.5 -->
      <g style="fill: #262626" transform="translate(22.81375 264.015446) scale(0.11 -0.11)">
       <defs>
        <path id="DejaVuSans-2e" d="M 684 794 
L 1344 794 
L 1344 0 
L 684 0 
L 684 794 
z
" transform="scale(0.015625)"/>
        <path id="DejaVuSans-35" d="M 691 4666 
L 3169 4666 
L 3169 4134 
L 1269 4134 
L 1269 2991 
Q 1406 3038 1543 3061 
Q 1681 3084 1819 3084 
Q 2600 3084 3056 2656 
Q 3513 2228 3513 1497 
Q 3513 744 3044 326 
Q 2575 -91 1722 -91 
Q 1428 -91 1123 -41 
Q 819 9 494 109 
L 494 744 
Q 775 591 1075 516 
Q 1375 441 1709 441 
Q 2250 441 2565 725 
Q 2881 1009 2881 1497 
Q 2881 1984 2565 2268 
Q 2250 2553 1709 2553 
Q 1456 2553 1204 2497 
Q 953 2441 691 2322 
L 691 4666 
z
" transform="scale(0.015625)"/>
       </defs>
       <use xlink:href="#DejaVuSans-31"/>
       <use xlink:href="#DejaVuSans-32" x="63.623047"/>
       <use xlink:href="#DejaVuSans-2e" x="127.246094"/>
       <use xlink:href="#DejaVuSans-35" x="159.033203"/>
      </g>
     </g>
    </g>
    <g id="ytick_2">
     <g id="line2d_8">
      <path d="M 56.805938 224.829022 
L 413.925938 224.829022 
" clip-path="url(#p6b94c158ca)" style="fill: none; stroke: #cccccc; stroke-linecap: round"/>
     </g>
     <g id="text_9">
      <!-- 15.0 -->
      <g style="fill: #262626" transform="translate(22.81375 229.008162) scale(0.11 -0.11)">
       <use xlink:href="#DejaVuSans-31"/>
       <use xlink:href="#DejaVuSans-35" x="63.623047"/>
       <use xlink:href="#DejaVuSans-2e" x="127.246094"/>
       <use xlink:href="#DejaVuSans-30" x="159.033203"/>
      </g>
     </g>
    </g>
    <g id="ytick_3">
     <g id="line2d_9">
      <path d="M 56.805938 189.821738 
L 413.925938 189.821738 
" clip-path="url(#p6b94c158ca)" style="fill: none; stroke: #cccccc; stroke-linecap: round"/>
     </g>
     <g id="text_10">
      <!-- 17.5 -->
      <g style="fill: #262626" transform="translate(22.81375 194.000878) scale(0.11 -0.11)">
       <defs>
        <path id="DejaVuSans-37" d="M 525 4666 
L 3525 4666 
L 3525 4397 
L 1831 0 
L 1172 0 
L 2766 4134 
L 525 4134 
L 525 4666 
z
" transform="scale(0.015625)"/>
       </defs>
       <use xlink:href="#DejaVuSans-31"/>
       <use xlink:href="#DejaVuSans-37" x="63.623047"/>
       <use xlink:href="#DejaVuSans-2e" x="127.246094"/>
       <use xlink:href="#DejaVuSans-35" x="159.033203"/>
      </g>
     </g>
    </g>
    <g id="ytick_4">
     <g id="line2d_10">
      <path d="M 56.805938 154.814454 
L 413.925938 154.814454 
" clip-path="url(#p6b94c158ca)" style="fill: none; stroke: #cccccc; stroke-linecap: round"/>
     </g>
     <g id="text_11">
      <!-- 20.0 -->
      <g style="fill: #262626" transform="translate(22.81375 158.993595) scale(0.11 -0.11)">
       <use xlink:href="#DejaVuSans-32"/>
       <use xlink:href="#DejaVuSans-30" x="63.623047"/>
       <use xlink:href="#DejaVuSans-2e" x="127.246094"/>
       <use xlink:href="#DejaVuSans-30" x="159.033203"/>
      </g>
     </g>
    </g>
    <g id="ytick_5">
     <g id="line2d_11">
      <path d="M 56.805938 119.80717 
L 413.925938 119.80717 
" clip-path="url(#p6b94c158ca)" style="fill: none; stroke: #cccccc; stroke-linecap: round"/>
     </g>
     <g id="text_12">
      <!-- 22.5 -->
      <g style="fill: #262626" transform="translate(22.81375 123.986311) scale(0.11 -0.11)">
       <use xlink:href="#DejaVuSans-32"/>
       <use xlink:href="#DejaVuSans-32" x="63.623047"/>
       <use xlink:href="#DejaVuSans-2e" x="127.246094"/>
       <use xlink:href="#DejaVuSans-35" x="159.033203"/>
      </g>
     </g>
    </g>
    <g id="ytick_6">
     <g id="line2d_12">
      <path d="M 56.805938 84.799886 
L 413.925938 84.799886 
" clip-path="url(#p6b94c158ca)" style="fill: none; stroke: #cccccc; stroke-linecap: round"/>
     </g>
     <g id="text_13">
      <!-- 25.0 -->
      <g style="fill: #262626" transform="translate(22.81375 88.979027) scale(0.11 -0.11)">
       <use xlink:href="#DejaVuSans-32"/>
       <use xlink:href="#DejaVuSans-35" x="63.623047"/>
       <use xlink:href="#DejaVuSans-2e" x="127.246094"/>
       <use xlink:href="#DejaVuSans-30" x="159.033203"/>
      </g>
     </g>
    </g>
    <g id="ytick_7">
     <g id="line2d_13">
      <path d="M 56.805938 49.792603 
L 413.925938 49.792603 
" clip-path="url(#p6b94c158ca)" style="fill: none; stroke: #cccccc; stroke-linecap: round"/>
     </g>
     <g id="text_14">
      <!-- 27.5 -->
      <g style="fill: #262626" transform="translate(22.81375 53.971743) scale(0.11 -0.11)">
       <use xlink:href="#DejaVuSans-32"/>
       <use xlink:href="#DejaVuSans-37" x="63.623047"/>
       <use xlink:href="#DejaVuSans-2e" x="127.246094"/>
       <use xlink:href="#DejaVuSans-35" x="159.033203"/>
      </g>
     </g>
    </g>
    <g id="ytick_8">
     <g id="line2d_14">
      <path d="M 56.805938 14.785319 
L 413.925938 14.785319 
" clip-path="url(#p6b94c158ca)" style="fill: none; stroke: #cccccc; stroke-linecap: round"/>
     </g>
     <g id="text_15">
      <!-- 30.0 -->
      <g style="fill: #262626" transform="translate(22.81375 18.964459) scale(0.11 -0.11)">
       <defs>
        <path id="DejaVuSans-33" d="M 2597 2516 
Q 3050 2419 3304 2112 
Q 3559 1806 3559 1356 
Q 3559 666 3084 287 
Q 2609 -91 1734 -91 
Q 1441 -91 1130 -33 
Q 819 25 488 141 
L 488 750 
Q 750 597 1062 519 
Q 1375 441 1716 441 
Q 2309 441 2620 675 
Q 2931 909 2931 1356 
Q 2931 1769 2642 2001 
Q 2353 2234 1838 2234 
L 1294 2234 
L 1294 2753 
L 1863 2753 
Q 2328 2753 2575 2939 
Q 2822 3125 2822 3475 
Q 2822 3834 2567 4026 
Q 2313 4219 1838 4219 
Q 1578 4219 1281 4162 
Q 984 4106 628 3988 
L 628 4550 
Q 988 4650 1302 4700 
Q 1616 4750 1894 4750 
Q 2613 4750 3031 4423 
Q 3450 4097 3450 3541 
Q 3450 3153 3228 2886 
Q 3006 2619 2597 2516 
z
" transform="scale(0.015625)"/>
       </defs>
       <use xlink:href="#DejaVuSans-33"/>
       <use xlink:href="#DejaVuSans-30" x="63.623047"/>
       <use xlink:href="#DejaVuSans-2e" x="127.246094"/>
       <use xlink:href="#DejaVuSans-30" x="159.033203"/>
      </g>
     </g>
    </g>
    <g id="text_16">
     <!-- Time (seconds) -->
     <g style="fill: #262626" transform="translate(16.318125 186.050062) rotate(-90) scale(0.12 -0.12)">
      <defs>
       <path id="DejaVuSans-54" d="M -19 4666 
L 3928 4666 
L 3928 4134 
L 2272 4134 
L 2272 0 
L 1638 0 
L 1638 4134 
L -19 4134 
L -19 4666 
z
" transform="scale(0.015625)"/>
       <path id="DejaVuSans-69" d="M 603 3500 
L 1178 3500 
L 1178 0 
L 603 0 
L 603 3500 
z
M 603 4863 
L 1178 4863 
L 1178 4134 
L 603 4134 
L 603 4863 
z
" transform="scale(0.015625)"/>
       <path id="DejaVuSans-6d" d="M 3328 2828 
Q 3544 3216 3844 3400 
Q 4144 3584 4550 3584 
Q 5097 3584 5394 3201 
Q 5691 2819 5691 2113 
L 5691 0 
L 5113 0 
L 5113 2094 
Q 5113 2597 4934 2840 
Q 4756 3084 4391 3084 
Q 3944 3084 3684 2787 
Q 3425 2491 3425 1978 
L 3425 0 
L 2847 0 
L 2847 2094 
Q 2847 2600 2669 2842 
Q 2491 3084 2119 3084 
Q 1678 3084 1418 2786 
Q 1159 2488 1159 1978 
L 1159 0 
L 581 0 
L 581 3500 
L 1159 3500 
L 1159 2956 
Q 1356 3278 1631 3431 
Q 1906 3584 2284 3584 
Q 2666 3584 2933 3390 
Q 3200 3197 3328 2828 
z
" transform="scale(0.015625)"/>
       <path id="DejaVuSans-28" d="M 1984 4856 
Q 1566 4138 1362 3434 
Q 1159 2731 1159 2009 
Q 1159 1288 1364 580 
Q 1569 -128 1984 -844 
L 1484 -844 
Q 1016 -109 783 600 
Q 550 1309 550 2009 
Q 550 2706 781 3412 
Q 1013 4119 1484 4856 
L 1984 4856 
z
" transform="scale(0.015625)"/>
       <path id="DejaVuSans-73" d="M 2834 3397 
L 2834 2853 
Q 2591 2978 2328 3040 
Q 2066 3103 1784 3103 
Q 1356 3103 1142 2972 
Q 928 2841 928 2578 
Q 928 2378 1081 2264 
Q 1234 2150 1697 2047 
L 1894 2003 
Q 2506 1872 2764 1633 
Q 3022 1394 3022 966 
Q 3022 478 2636 193 
Q 2250 -91 1575 -91 
Q 1294 -91 989 -36 
Q 684 19 347 128 
L 347 722 
Q 666 556 975 473 
Q 1284 391 1588 391 
Q 1994 391 2212 530 
Q 2431 669 2431 922 
Q 2431 1156 2273 1281 
Q 2116 1406 1581 1522 
L 1381 1569 
Q 847 1681 609 1914 
Q 372 2147 372 2553 
Q 372 3047 722 3315 
Q 1072 3584 1716 3584 
Q 2034 3584 2315 3537 
Q 2597 3491 2834 3397 
z
" transform="scale(0.015625)"/>
       <path id="DejaVuSans-63" d="M 3122 3366 
L 3122 2828 
Q 2878 2963 2633 3030 
Q 2388 3097 2138 3097 
Q 1578 3097 1268 2742 
Q 959 2388 959 1747 
Q 959 1106 1268 751 
Q 1578 397 2138 397 
Q 2388 397 2633 464 
Q 2878 531 3122 666 
L 3122 134 
Q 2881 22 2623 -34 
Q 2366 -91 2075 -91 
Q 1284 -91 818 406 
Q 353 903 353 1747 
Q 353 2603 823 3093 
Q 1294 3584 2113 3584 
Q 2378 3584 2631 3529 
Q 2884 3475 3122 3366 
z
" transform="scale(0.015625)"/>
       <path id="DejaVuSans-29" d="M 513 4856 
L 1013 4856 
Q 1481 4119 1714 3412 
Q 1947 2706 1947 2009 
Q 1947 1309 1714 600 
Q 1481 -109 1013 -844 
L 513 -844 
Q 928 -128 1133 580 
Q 1338 1288 1338 2009 
Q 1338 2731 1133 3434 
Q 928 4138 513 4856 
z
" transform="scale(0.015625)"/>
      </defs>
      <use xlink:href="#DejaVuSans-54"/>
      <use xlink:href="#DejaVuSans-69" x="57.958984"/>
      <use xlink:href="#DejaVuSans-6d" x="85.742188"/>
      <use xlink:href="#DejaVuSans-65" x="183.154297"/>
      <use xlink:href="#DejaVuSans-20" x="244.677734"/>
      <use xlink:href="#DejaVuSans-28" x="276.464844"/>
      <use xlink:href="#DejaVuSans-73" x="315.478516"/>
      <use xlink:href="#DejaVuSans-65" x="367.578125"/>
      <use xlink:href="#DejaVuSans-63" x="429.101562"/>
      <use xlink:href="#DejaVuSans-6f" x="484.082031"/>
      <use xlink:href="#DejaVuSans-6e" x="545.263672"/>
      <use xlink:href="#DejaVuSans-64" x="608.642578"/>
      <use xlink:href="#DejaVuSans-73" x="672.119141"/>
      <use xlink:href="#DejaVuSans-29" x="724.21875"/>
     </g>
    </g>
   </g>
   <g id="PolyCollection_1"/>
   <g id="PolyCollection_2"/>
   <g id="PolyCollection_3"/>
   <g id="PolyCollection_4"/>
   <g id="PolyCollection_5"/>
   <g id="line2d_15">
    <path d="M 73.038665 69.759644 
L 76.318004 165.854594 
L 79.597342 146.008722 
L 82.876681 122.551843 
L 86.15602 132.56307 
L 89.435359 170.690617 
L 92.714698 104.469275 
L 95.994037 142.24746 
L 99.273376 190.284018 
L 102.552714 126.16876 
L 105.832053 157.491478 
L 109.111392 155.375301 
L 112.390731 148.895046 
L 115.67007 137.406088 
L 118.949409 195.092314 
L 122.228747 106.874694 
L 125.508086 141.880529 
L 128.787425 154.550922 
L 132.066764 167.048398 
L 135.346103 138.621792 
L 138.625442 160.206076 
L 141.90478 154.38325 
L 145.184119 130.605642 
L 148.463458 143.714925 
L 151.742797 170.718858 
L 155.022136 133.278202 
L 158.301475 148.498272 
L 161.580814 176.436921 
L 164.860152 139.093797 
L 168.139491 151.087859 
L 171.41883 161.575702 
L 174.698169 124.34247 
L 177.977508 143.76113 
L 181.256847 150.200331 
L 184.536185 149.471892 
L 187.815524 142.024297 
L 191.094863 124.430821 
L 194.374202 171.133016 
L 197.653541 137.653201 
L 200.93288 142.88686 
L 204.212218 166.842289 
L 207.491557 129.171666 
L 210.770896 144.448525 
L 214.050235 156.788094 
L 217.329574 147.777545 
L 220.608913 170.793895 
L 223.888252 186.803454 
L 227.16759 145.863936 
L 230.446929 159.490768 
L 233.726268 172.463727 
L 237.005607 137.855441 
L 240.284946 129.764497 
L 243.564285 174.690914 
L 246.843623 103.909316 
L 250.122962 125.463009 
L 253.402301 153.375908 
L 256.68164 169.802518 
L 259.960979 116.617926 
L 263.240318 161.281448 
L 266.519657 159.104961 
L 269.798995 128.267442 
L 273.078334 155.637274 
L 276.357673 175.699711 
L 279.637012 107.191122 
L 282.916351 151.73216 
L 286.19569 190.048886 
L 289.475028 133.670108 
L 292.754367 141.358286 
L 296.033706 152.563847 
L 299.313045 122.921097 
L 302.592384 88.757813 
L 305.871723 113.050526 
L 309.151061 96.815265 
L 312.4304 98.277849 
L 315.709739 127.415296 
L 318.989078 94.33785 
L 322.268417 119.968075 
L 325.547756 158.569684 
L 328.827095 94.074635 
L 332.106433 121.958295 
L 335.385772 135.556725 
L 338.665111 96.111798 
L 341.94445 96.182695 
L 345.223789 95.29251 
L 348.503128 97.795464 
L 351.782466 136.571339 
L 355.061805 99.77895 
L 358.341144 103.135149 
L 361.620483 92.354318 
L 364.899822 132.453646 
L 368.179161 91.534676 
L 371.458499 107.895748 
L 374.737838 128.914861 
L 378.017177 145.238357 
L 381.296516 94.372421 
L 384.575855 106.002874 
L 387.855194 106.846473 
L 391.134533 136.969942 
L 394.413871 88.084463 
L 397.69321 108.640392 
" clip-path="url(#p6b94c158ca)" style="fill: none; stroke: #4c72b0; stroke-width: 1.5; stroke-linecap: round"/>
   </g>
   <g id="line2d_16">
    <path d="M 73.038665 31.491183 
L 76.318004 182.152523 
L 79.597342 125.418853 
L 82.876681 159.914337 
L 86.15602 139.271692 
L 89.435359 157.675792 
L 92.714698 189.915535 
L 95.994037 136.058667 
L 99.273376 163.75685 
L 102.552714 175.059781 
L 105.832053 139.581079 
L 109.111392 154.132184 
L 112.390731 163.662352 
L 115.67007 136.958788 
L 118.949409 194.952599 
L 122.228747 126.886005 
L 125.508086 177.017796 
L 128.787425 122.402085 
L 132.066764 139.520541 
L 135.346103 172.593013 
L 138.625442 121.243563 
L 141.90478 112.869276 
L 145.184119 166.746305 
L 148.463458 124.825422 
L 151.742797 153.78692 
L 155.022136 163.081981 
L 158.301475 134.538727 
L 161.580814 188.742757 
L 164.860152 152.970296 
L 168.139491 154.712772 
L 171.41883 148.8359 
L 174.698169 158.223359 
L 177.977508 178.707746 
L 181.256847 106.735229 
L 184.536185 127.724449 
L 187.815524 183.581298 
L 191.094863 119.475281 
L 194.374202 141.546326 
L 197.653541 173.38869 
L 200.93288 132.521311 
L 204.212218 189.565357 
L 207.491557 121.489892 
L 210.770896 141.487174 
L 214.050235 163.158881 
L 217.329574 139.918731 
L 220.608913 113.84171 
L 223.888252 201.97562 
L 227.16759 151.628371 
L 230.446929 237.308155 
L 233.726268 164.88441 
L 237.005607 165.032335 
L 240.284946 154.503591 
L 243.564285 160.365245 
L 246.843623 168.137384 
L 250.122962 126.016438 
L 253.402301 138.503441 
L 256.68164 196.714839 
L 259.960979 138.743747 
L 263.240318 183.433587 
L 266.519657 149.132361 
L 269.798995 149.600576 
L 273.078334 193.531523 
L 276.357673 157.278454 
L 279.637012 132.477553 
L 282.916351 161.437452 
L 286.19569 190.053601 
L 289.475028 178.214985 
L 292.754367 205.347166 
L 296.033706 134.860797 
L 299.313045 110.940403 
L 302.592384 107.821969 
L 305.871723 133.439084 
L 309.151061 103.853319 
L 312.4304 121.259064 
L 315.709739 171.173112 
L 318.989078 88.141316 
L 322.268417 135.121355 
L 325.547756 120.704797 
L 328.827095 128.297352 
L 332.106433 116.147116 
L 335.385772 119.965134 
L 338.665111 115.180534 
L 341.94445 138.808728 
L 345.223789 110.443556 
L 348.503128 112.420818 
L 351.782466 137.04922 
L 355.061805 137.71451 
L 358.341144 116.441727 
L 361.620483 133.558347 
L 364.899822 148.894058 
L 368.179161 114.122403 
L 371.458499 120.153225 
L 374.737838 112.631394 
L 378.017177 162.672283 
L 381.296516 110.136646 
L 384.575855 133.323399 
L 387.855194 114.714308 
L 391.134533 144.497866 
L 394.413871 103.535962 
L 397.69321 115.107937 
" clip-path="url(#p6b94c158ca)" style="fill: none; stroke-dasharray: 6,2.25; stroke-dashoffset: 0; stroke: #dd8452; stroke-width: 1.5"/>
   </g>
   <g id="line2d_17">
    <path d="M 73.038665 48.73578 
L 76.318004 123.360568 
L 79.597342 182.554773 
L 82.876681 151.647685 
L 86.15602 157.104118 
L 89.435359 170.231002 
L 92.714698 147.117897 
L 95.994037 157.284681 
L 99.273376 172.078084 
L 102.552714 172.249639 
L 105.832053 153.006039 
L 109.111392 152.875558 
L 112.390731 185.472633 
L 115.67007 142.09833 
L 118.949409 172.227581 
L 122.228747 180.896439 
L 125.508086 148.222755 
L 128.787425 134.378209 
L 132.066764 188.925636 
L 135.346103 127.706388 
L 138.625442 162.274254 
L 141.90478 174.226701 
L 145.184119 144.078183 
L 148.463458 156.201473 
L 151.742797 141.128884 
L 155.022136 145.646729 
L 158.301475 152.64005 
L 161.580814 180.12331 
L 164.860152 156.565509 
L 168.139491 150.44916 
L 171.41883 167.572073 
L 174.698169 142.030671 
L 177.977508 153.280782 
L 181.256847 150.126449 
L 184.536185 132.677386 
L 187.815524 145.68995 
L 191.094863 193.199317 
L 194.374202 115.988014 
L 197.653541 156.400742 
L 200.93288 182.632654 
L 204.212218 152.265962 
L 207.491557 160.559776 
L 210.770896 176.482322 
L 214.050235 113.529766 
L 217.329574 145.416102 
L 220.608913 190.693304 
L 223.888252 151.895933 
L 227.16759 146.417335 
L 230.446929 147.114241 
L 233.726268 153.740408 
L 237.005607 130.977617 
L 240.284946 185.659421 
L 243.564285 112.175932 
L 246.843623 129.793806 
L 250.122962 151.942593 
L 253.402301 115.624489 
L 256.68164 170.379481 
L 259.960979 131.383879 
L 263.240318 144.782811 
L 266.519657 193.072916 
L 269.798995 116.894275 
L 273.078334 121.383542 
L 276.357673 205.69295 
L 279.637012 102.196094 
L 282.916351 147.301731 
L 286.19569 172.915787 
L 289.475028 145.001664 
L 292.754367 179.408729 
L 296.033706 119.38705 
L 299.313045 92.516168 
L 302.592384 102.975412 
L 305.871723 109.210324 
L 309.151061 80.85065 
L 312.4304 111.570011 
L 315.709739 152.55675 
L 318.989078 80.666983 
L 322.268417 118.649029 
L 325.547756 89.006953 
L 328.827095 133.520354 
L 332.106433 75.424216 
L 335.385772 81.778471 
L 338.665111 84.148444 
L 341.94445 137.848313 
L 345.223789 86.906381 
L 348.503128 95.879381 
L 351.782466 159.944638 
L 355.061805 100.456753 
L 358.341144 100.711044 
L 361.620483 108.767621 
L 364.899822 134.951766 
L 368.179161 82.846284 
L 371.458499 106.860495 
L 374.737838 163.779475 
L 378.017177 132.567347 
L 381.296516 161.226569 
L 384.575855 106.049317 
L 387.855194 112.083748 
L 391.134533 64.384911 
L 394.413871 115.119943 
L 397.69321 67.044841 
" clip-path="url(#p6b94c158ca)" style="fill: none; stroke-dasharray: 1.5,1.5; stroke-dashoffset: 0; stroke: #55a868; stroke-width: 1.5"/>
   </g>
   <g id="line2d_18">
    <path d="M 73.038665 19.296 
L 76.318004 153.820653 
L 79.597342 111.937853 
L 82.876681 150.236915 
L 86.15602 156.041256 
L 89.435359 123.55147 
L 92.714698 146.934627 
L 95.994037 113.020092 
L 99.273376 149.419096 
L 102.552714 162.432832 
L 105.832053 119.562007 
L 109.111392 150.528317 
L 112.390731 155.976635 
L 115.67007 117.311681 
L 118.949409 172.061712 
L 122.228747 122.080165 
L 125.508086 159.509213 
L 128.787425 96.27723 
L 132.066764 159.897534 
L 135.346103 114.478276 
L 138.625442 140.092199 
L 141.90478 108.790123 
L 145.184119 138.142636 
L 148.463458 154.058248 
L 151.742797 89.373686 
L 155.022136 167.788983 
L 158.301475 117.914317 
L 161.580814 148.121129 
L 164.860152 179.069936 
L 168.139491 125.636778 
L 171.41883 148.470836 
L 174.698169 167.511085 
L 177.977508 114.592127 
L 181.256847 146.259177 
L 184.536185 123.862109 
L 187.815524 132.877435 
L 191.094863 163.015357 
L 194.374202 110.892214 
L 197.653541 158.563134 
L 200.93288 108.970198 
L 204.212218 151.553801 
L 207.491557 128.8436 
L 210.770896 111.363071 
L 214.050235 136.718746 
L 217.329574 145.309665 
L 220.608913 79.304552 
L 223.888252 146.400004 
L 227.16759 136.942473 
L 230.446929 143.181754 
L 233.726268 84.318961 
L 237.005607 127.744481 
L 240.284946 159.090629 
L 243.564285 138.433508 
L 246.843623 72.020506 
L 250.122962 118.666149 
L 253.402301 138.712788 
L 256.68164 119.76009 
L 259.960979 109.008909 
L 263.240318 144.571337 
L 266.519657 106.324664 
L 269.798995 114.328555 
L 273.078334 142.768378 
L 276.357673 143.05092 
L 279.637012 87.349875 
L 282.916351 134.432417 
L 286.19569 127.846928 
L 289.475028 163.05133 
L 292.754367 235.889169 
L 296.033706 243.274647 
L 299.313045 202.786317 
L 302.592384 69.166913 
L 305.871723 97.905954 
L 309.151061 80.939796 
L 312.4304 81.052352 
L 315.709739 109.624528 
L 318.989078 91.793975 
L 322.268417 98.960066 
L 325.547756 120.207977 
L 328.827095 95.729617 
L 332.106433 84.233077 
L 335.385772 81.944808 
L 338.665111 130.531082 
L 341.94445 57.652348 
L 345.223789 98.590835 
L 348.503128 113.154168 
L 351.782466 119.596557 
L 355.061805 124.027441 
L 358.341144 103.768964 
L 361.620483 137.710681 
L 364.899822 100.639245 
L 368.179161 112.477497 
L 371.458499 110.938143 
L 374.737838 79.804634 
L 378.017177 130.600594 
L 381.296516 130.998553 
L 384.575855 58.296489 
L 387.855194 107.032337 
L 391.134533 115.697369 
L 394.413871 81.533084 
L 397.69321 89.755527 
" clip-path="url(#p6b94c158ca)" style="fill: none; stroke-dasharray: 4.5,1.875,2.25,1.875; stroke-dashoffset: 0; stroke: #c44e52; stroke-width: 1.5"/>
   </g>
   <g id="line2d_19">
    <path d="M 73.038665 168.303688 
L 76.318004 228.135576 
L 79.597342 242.981482 
L 82.876681 244.968035 
L 86.15602 241.439186 
L 89.435359 251.020458 
L 92.714698 235.853591 
L 95.994037 240.111987 
L 99.273376 255.45314 
L 102.552714 247.320211 
L 105.832053 241.646727 
L 109.111392 247.468753 
L 112.390731 261.216 
L 115.67007 239.270972 
L 118.949409 249.213458 
L 122.228747 245.344494 
L 125.508086 259.215972 
L 128.787425 229.342574 
L 132.066764 238.178146 
L 135.346103 246.915718 
L 138.625442 238.762396 
L 141.90478 235.005331 
L 145.184119 248.058966 
L 148.463458 231.198664 
L 151.742797 231.057396 
L 155.022136 248.146854 
L 158.301475 238.640419 
L 161.580814 237.894192 
L 164.860152 256.964821 
L 168.139491 242.282889 
L 171.41883 253.524681 
L 174.698169 246.517402 
L 177.977508 248.032278 
L 181.256847 236.047026 
L 184.536185 236.631263 
L 187.815524 244.512506 
L 191.094863 246.510251 
L 194.374202 244.425874 
L 197.653541 246.825086 
L 200.93288 237.548324 
L 204.212218 248.891108 
L 207.491557 236.629815 
L 210.770896 240.913003 
L 214.050235 241.376224 
L 217.329574 250.482226 
L 220.608913 234.567793 
L 223.888252 255.028386 
L 227.16759 243.393222 
L 230.446929 241.616597 
L 233.726268 246.964982 
L 237.005607 237.699905 
L 240.284946 238.048677 
L 243.564285 246.127786 
L 246.843623 246.953387 
L 250.122962 248.830753 
L 253.402301 235.978499 
L 256.68164 251.424186 
L 259.960979 232.710879 
L 263.240318 254.510686 
L 266.519657 242.250959 
L 269.798995 240.994267 
L 273.078334 236.180388 
L 276.357673 244.30833 
L 279.637012 243.70484 
L 282.916351 249.510697 
L 286.19569 247.747556 
L 289.475028 243.461272 
L 292.754367 234.452586 
L 296.033706 242.581426 
L 299.313045 204.247817 
L 302.592384 218.176087 
L 305.871723 215.57145 
L 309.151061 213.417421 
L 312.4304 213.779884 
L 315.709739 217.269736 
L 318.989078 201.565515 
L 322.268417 215.900972 
L 325.547756 222.276593 
L 328.827095 216.775096 
L 332.106433 219.435927 
L 335.385772 210.952753 
L 338.665111 215.883885 
L 341.94445 210.380528 
L 345.223789 219.351936 
L 348.503128 213.927001 
L 351.782466 227.397075 
L 355.061805 221.589832 
L 358.341144 224.4508 
L 361.620483 215.419288 
L 364.899822 213.75555 
L 368.179161 209.742647 
L 371.458499 216.812895 
L 374.737838 221.250328 
L 378.017177 214.111183 
L 381.296516 213.496822 
L 384.575855 220.586156 
L 387.855194 220.312415 
L 391.134533 220.887895 
L 394.413871 212.353731 
L 397.69321 212.898413 
" clip-path="url(#p6b94c158ca)" style="fill: none; stroke-dasharray: 7.5,1.5,1.5,1.5; stroke-dashoffset: 0; stroke: #8172b3; stroke-width: 1.5"/>
   </g>
   <g id="line2d_20"/>
   <g id="line2d_21"/>
   <g id="line2d_22"/>
   <g id="line2d_23"/>
   <g id="line2d_24"/>
   <g id="patch_3">
    <path d="M 56.805938 273.312 
L 56.805938 7.2 
" style="fill: none; stroke: #cccccc; stroke-width: 1.25; stroke-linejoin: miter; stroke-linecap: square"/>
   </g>
   <g id="patch_4">
    <path d="M 413.925938 273.312 
L 413.925938 7.2 
" style="fill: none; stroke: #cccccc; stroke-width: 1.25; stroke-linejoin: miter; stroke-linecap: square"/>
   </g>
   <g id="patch_5">
    <path d="M 56.805937 273.312 
L 413.925938 273.312 
" style="fill: none; stroke: #cccccc; stroke-width: 1.25; stroke-linejoin: miter; stroke-linecap: square"/>
   </g>
   <g id="patch_6">
    <path d="M 56.805937 7.2 
L 413.925938 7.2 
" style="fill: none; stroke: #cccccc; stroke-width: 1.25; stroke-linejoin: miter; stroke-linecap: square"/>
   </g>
   <g id="legend_1">
    <g id="patch_7">
     <path d="M 64.505938 113.843437 
L 168.490313 113.843437 
Q 170.690313 113.843437 170.690313 111.643437 
L 170.690313 14.9 
Q 170.690313 12.7 168.490313 12.7 
L 64.505938 12.7 
Q 62.305938 12.7 62.305938 14.9 
L 62.305938 111.643437 
Q 62.305938 113.843437 64.505938 113.843437 
z
" style="fill: #ffffff; opacity: 0.8; stroke: #cccccc; stroke-linejoin: miter"/>
    </g>
    <g id="text_17">
     <!-- Strategy -->
     <g style="fill: #262626" transform="translate(90.789062 26.218125) scale(0.12 -0.12)">
      <defs>
       <path id="DejaVuSans-74" d="M 1172 4494 
L 1172 3500 
L 2356 3500 
L 2356 3053 
L 1172 3053 
L 1172 1153 
Q 1172 725 1289 603 
Q 1406 481 1766 481 
L 2356 481 
L 2356 0 
L 1766 0 
Q 1100 0 847 248 
Q 594 497 594 1153 
L 594 3053 
L 172 3053 
L 172 3500 
L 594 3500 
L 594 4494 
L 1172 4494 
z
" transform="scale(0.015625)"/>
       <path id="DejaVuSans-61" d="M 2194 1759 
Q 1497 1759 1228 1600 
Q 959 1441 959 1056 
Q 959 750 1161 570 
Q 1363 391 1709 391 
Q 2188 391 2477 730 
Q 2766 1069 2766 1631 
L 2766 1759 
L 2194 1759 
z
M 3341 1997 
L 3341 0 
L 2766 0 
L 2766 531 
Q 2569 213 2275 61 
Q 1981 -91 1556 -91 
Q 1019 -91 701 211 
Q 384 513 384 1019 
Q 384 1609 779 1909 
Q 1175 2209 1959 2209 
L 2766 2209 
L 2766 2266 
Q 2766 2663 2505 2880 
Q 2244 3097 1772 3097 
Q 1472 3097 1187 3025 
Q 903 2953 641 2809 
L 641 3341 
Q 956 3463 1253 3523 
Q 1550 3584 1831 3584 
Q 2591 3584 2966 3190 
Q 3341 2797 3341 1997 
z
" transform="scale(0.015625)"/>
       <path id="DejaVuSans-67" d="M 2906 1791 
Q 2906 2416 2648 2759 
Q 2391 3103 1925 3103 
Q 1463 3103 1205 2759 
Q 947 2416 947 1791 
Q 947 1169 1205 825 
Q 1463 481 1925 481 
Q 2391 481 2648 825 
Q 2906 1169 2906 1791 
z
M 3481 434 
Q 3481 -459 3084 -895 
Q 2688 -1331 1869 -1331 
Q 1566 -1331 1297 -1286 
Q 1028 -1241 775 -1147 
L 775 -588 
Q 1028 -725 1275 -790 
Q 1522 -856 1778 -856 
Q 2344 -856 2625 -561 
Q 2906 -266 2906 331 
L 2906 616 
Q 2728 306 2450 153 
Q 2172 0 1784 0 
Q 1141 0 747 490 
Q 353 981 353 1791 
Q 353 2603 747 3093 
Q 1141 3584 1784 3584 
Q 2172 3584 2450 3431 
Q 2728 3278 2906 2969 
L 2906 3500 
L 3481 3500 
L 3481 434 
z
" transform="scale(0.015625)"/>
       <path id="DejaVuSans-79" d="M 2059 -325 
Q 1816 -950 1584 -1140 
Q 1353 -1331 966 -1331 
L 506 -1331 
L 506 -850 
L 844 -850 
Q 1081 -850 1212 -737 
Q 1344 -625 1503 -206 
L 1606 56 
L 191 3500 
L 800 3500 
L 1894 763 
L 2988 3500 
L 3597 3500 
L 2059 -325 
z
" transform="scale(0.015625)"/>
      </defs>
      <use xlink:href="#DejaVuSans-53"/>
      <use xlink:href="#DejaVuSans-74" x="63.476562"/>
      <use xlink:href="#DejaVuSans-72" x="102.685547"/>
      <use xlink:href="#DejaVuSans-61" x="143.798828"/>
      <use xlink:href="#DejaVuSans-74" x="205.078125"/>
      <use xlink:href="#DejaVuSans-65" x="244.287109"/>
      <use xlink:href="#DejaVuSans-67" x="305.810547"/>
      <use xlink:href="#DejaVuSans-79" x="369.287109"/>
     </g>
    </g>
    <g id="line2d_25">
     <path d="M 66.705938 38.722031 
L 77.705938 38.722031 
L 88.705938 38.722031 
" style="fill: none; stroke: #4c72b0; stroke-width: 1.5; stroke-linecap: round"/>
    </g>
    <g id="text_18">
     <!-- FedPredict -->
     <g style="fill: #262626" transform="translate(97.505938 42.572031) scale(0.11 -0.11)">
      <defs>
       <path id="DejaVuSans-46" d="M 628 4666 
L 3309 4666 
L 3309 4134 
L 1259 4134 
L 1259 2759 
L 3109 2759 
L 3109 2228 
L 1259 2228 
L 1259 0 
L 628 0 
L 628 4666 
z
" transform="scale(0.015625)"/>
       <path id="DejaVuSans-50" d="M 1259 4147 
L 1259 2394 
L 2053 2394 
Q 2494 2394 2734 2622 
Q 2975 2850 2975 3272 
Q 2975 3691 2734 3919 
Q 2494 4147 2053 4147 
L 1259 4147 
z
M 628 4666 
L 2053 4666 
Q 2838 4666 3239 4311 
Q 3641 3956 3641 3272 
Q 3641 2581 3239 2228 
Q 2838 1875 2053 1875 
L 1259 1875 
L 1259 0 
L 628 0 
L 628 4666 
z
" transform="scale(0.015625)"/>
      </defs>
      <use xlink:href="#DejaVuSans-46"/>
      <use xlink:href="#DejaVuSans-65" x="52.019531"/>
      <use xlink:href="#DejaVuSans-64" x="113.542969"/>
      <use xlink:href="#DejaVuSans-50" x="177.019531"/>
      <use xlink:href="#DejaVuSans-72" x="235.572266"/>
      <use xlink:href="#DejaVuSans-65" x="274.435547"/>
      <use xlink:href="#DejaVuSans-64" x="335.958984"/>
      <use xlink:href="#DejaVuSans-69" x="399.435547"/>
      <use xlink:href="#DejaVuSans-63" x="427.21875"/>
      <use xlink:href="#DejaVuSans-74" x="482.199219"/>
     </g>
    </g>
    <g id="line2d_26">
     <path d="M 66.705938 54.867969 
L 77.705938 54.867969 
L 88.705938 54.867969 
" style="fill: none; stroke-dasharray: 6,2.25; stroke-dashoffset: 0; stroke: #dd8452; stroke-width: 1.5"/>
    </g>
    <g id="text_19">
     <!-- FedAVG -->
     <g style="fill: #262626" transform="translate(97.505938 58.717969) scale(0.11 -0.11)">
      <defs>
       <path id="DejaVuSans-41" d="M 2188 4044 
L 1331 1722 
L 3047 1722 
L 2188 4044 
z
M 1831 4666 
L 2547 4666 
L 4325 0 
L 3669 0 
L 3244 1197 
L 1141 1197 
L 716 0 
L 50 0 
L 1831 4666 
z
" transform="scale(0.015625)"/>
       <path id="DejaVuSans-56" d="M 1831 0 
L 50 4666 
L 709 4666 
L 2188 738 
L 3669 4666 
L 4325 4666 
L 2547 0 
L 1831 0 
z
" transform="scale(0.015625)"/>
       <path id="DejaVuSans-47" d="M 3809 666 
L 3809 1919 
L 2778 1919 
L 2778 2438 
L 4434 2438 
L 4434 434 
Q 4069 175 3628 42 
Q 3188 -91 2688 -91 
Q 1594 -91 976 548 
Q 359 1188 359 2328 
Q 359 3472 976 4111 
Q 1594 4750 2688 4750 
Q 3144 4750 3555 4637 
Q 3966 4525 4313 4306 
L 4313 3634 
Q 3963 3931 3569 4081 
Q 3175 4231 2741 4231 
Q 1884 4231 1454 3753 
Q 1025 3275 1025 2328 
Q 1025 1384 1454 906 
Q 1884 428 2741 428 
Q 3075 428 3337 486 
Q 3600 544 3809 666 
z
" transform="scale(0.015625)"/>
      </defs>
      <use xlink:href="#DejaVuSans-46"/>
      <use xlink:href="#DejaVuSans-65" x="52.019531"/>
      <use xlink:href="#DejaVuSans-64" x="113.542969"/>
      <use xlink:href="#DejaVuSans-41" x="177.019531"/>
      <use xlink:href="#DejaVuSans-56" x="239.052734"/>
      <use xlink:href="#DejaVuSans-47" x="307.460938"/>
     </g>
    </g>
    <g id="line2d_27">
     <path d="M 66.705938 71.013906 
L 77.705938 71.013906 
L 88.705938 71.013906 
" style="fill: none; stroke-dasharray: 1.5,1.5; stroke-dashoffset: 0; stroke: #55a868; stroke-width: 1.5"/>
    </g>
    <g id="text_20">
     <!-- FedClassAvg -->
     <g style="fill: #262626" transform="translate(97.505938 74.863906) scale(0.11 -0.11)">
      <defs>
       <path id="DejaVuSans-43" d="M 4122 4306 
L 4122 3641 
Q 3803 3938 3442 4084 
Q 3081 4231 2675 4231 
Q 1875 4231 1450 3742 
Q 1025 3253 1025 2328 
Q 1025 1406 1450 917 
Q 1875 428 2675 428 
Q 3081 428 3442 575 
Q 3803 722 4122 1019 
L 4122 359 
Q 3791 134 3420 21 
Q 3050 -91 2638 -91 
Q 1578 -91 968 557 
Q 359 1206 359 2328 
Q 359 3453 968 4101 
Q 1578 4750 2638 4750 
Q 3056 4750 3426 4639 
Q 3797 4528 4122 4306 
z
" transform="scale(0.015625)"/>
       <path id="DejaVuSans-6c" d="M 603 4863 
L 1178 4863 
L 1178 0 
L 603 0 
L 603 4863 
z
" transform="scale(0.015625)"/>
      </defs>
      <use xlink:href="#DejaVuSans-46"/>
      <use xlink:href="#DejaVuSans-65" x="52.019531"/>
      <use xlink:href="#DejaVuSans-64" x="113.542969"/>
      <use xlink:href="#DejaVuSans-43" x="177.019531"/>
      <use xlink:href="#DejaVuSans-6c" x="246.84375"/>
      <use xlink:href="#DejaVuSans-61" x="274.626953"/>
      <use xlink:href="#DejaVuSans-73" x="335.90625"/>
      <use xlink:href="#DejaVuSans-73" x="388.005859"/>
      <use xlink:href="#DejaVuSans-41" x="440.105469"/>
      <use xlink:href="#DejaVuSans-76" x="502.638672"/>
      <use xlink:href="#DejaVuSans-67" x="561.818359"/>
     </g>
    </g>
    <g id="line2d_28">
     <path d="M 66.705938 87.159844 
L 77.705938 87.159844 
L 88.705938 87.159844 
" style="fill: none; stroke-dasharray: 4.5,1.875,2.25,1.875; stroke-dashoffset: 0; stroke: #c44e52; stroke-width: 1.5"/>
    </g>
    <g id="text_21">
     <!-- FedPer -->
     <g style="fill: #262626" transform="translate(97.505938 91.009844) scale(0.11 -0.11)">
      <use xlink:href="#DejaVuSans-46"/>
      <use xlink:href="#DejaVuSans-65" x="52.019531"/>
      <use xlink:href="#DejaVuSans-64" x="113.542969"/>
      <use xlink:href="#DejaVuSans-50" x="177.019531"/>
      <use xlink:href="#DejaVuSans-65" x="233.697266"/>
      <use xlink:href="#DejaVuSans-72" x="295.220703"/>
     </g>
    </g>
    <g id="line2d_29">
     <path d="M 66.705938 103.305781 
L 77.705938 103.305781 
L 88.705938 103.305781 
" style="fill: none; stroke-dasharray: 7.5,1.5,1.5,1.5; stroke-dashoffset: 0; stroke: #8172b3; stroke-width: 1.5"/>
    </g>
    <g id="text_22">
     <!-- FedProto -->
     <g style="fill: #262626" transform="translate(97.505938 107.155781) scale(0.11 -0.11)">
      <use xlink:href="#DejaVuSans-46"/>
      <use xlink:href="#DejaVuSans-65" x="52.019531"/>
      <use xlink:href="#DejaVuSans-64" x="113.542969"/>
      <use xlink:href="#DejaVuSans-50" x="177.019531"/>
      <use xlink:href="#DejaVuSans-72" x="235.572266"/>
      <use xlink:href="#DejaVuSans-6f" x="274.435547"/>
      <use xlink:href="#DejaVuSans-74" x="335.617188"/>
      <use xlink:href="#DejaVuSans-6f" x="374.826172"/>
     </g>
    </g>
   </g>
  </g>
 </g>
 <defs>
  <clipPath id="p6b94c158ca">
   <rect x="56.805938" y="7.2" width="357.12" height="266.112"/>
  </clipPath>
 </defs>
</svg>
