<?xml version="1.0" encoding="utf-8" standalone="no"?>
<!DOCTYPE svg PUBLIC "-//W3C//DTD SVG 1.1//EN"
  "http://www.w3.org/Graphics/SVG/1.1/DTD/svg11.dtd">
<svg xmlns:xlink="http://www.w3.org/1999/xlink" width="417.63pt" height="316.271687pt" viewBox="0 0 417.63 316.271687" xmlns="http://www.w3.org/2000/svg" version="1.1">
 <metadata>
  <rdf:RDF xmlns:dc="http://purl.org/dc/elements/1.1/" xmlns:cc="http://creativecommons.org/ns#" xmlns:rdf="http://www.w3.org/1999/02/22-rdf-syntax-ns#">
   <cc:Work>
    <dc:type rdf:resource="http://purl.org/dc/dcmitype/StillImage"/>
    <dc:date>2023-02-10T18:57:05.284825</dc:date>
    <dc:format>image/svg+xml</dc:format>
    <dc:creator>
     <cc:Agent>
      <dc:title>Matplotlib v3.6.3, https://matplotlib.org/</dc:title>
     </cc:Agent>
    </dc:creator>
   </cc:Work>
  </rdf:RDF>
 </metadata>
 <defs>
  <style type="text/css">*{stroke-linejoin: round; stroke-linecap: butt}</style>
 </defs>
 <g id="figure_1">
  <g id="patch_1">
   <path d="M 0 316.271687 
L 417.63 316.271687 
L 417.63 0 
L 0 0 
z
" style="fill: #ffffff"/>
  </g>
  <g id="axes_1">
   <g id="patch_2">
    <path d="M 53.31 273.312 
L 410.43 273.312 
L 410.43 7.2 
L 53.31 7.2 
z
" style="fill: #ffffff"/>
   </g>
   <g id="matplotlib.axis_1">
    <g id="xtick_1">
     <g id="line2d_1">
      <path d="M 66.263388 273.312 
L 66.263388 7.2 
" clip-path="url(#pe6d2caccd7)" style="fill: none; stroke: #cccccc; stroke-linecap: round"/>
     </g>
     <g id="text_1">
      <!-- 0 -->
      <g style="fill: #262626" transform="translate(62.764013 291.170281) scale(0.11 -0.11)">
       <defs>
        <path id="DejaVuSans-30" d="M 2034 4250 
Q 1547 4250 1301 3770 
Q 1056 3291 1056 2328 
Q 1056 1369 1301 889 
Q 1547 409 2034 409 
Q 2525 409 2770 889 
Q 3016 1369 3016 2328 
Q 3016 3291 2770 3770 
Q 2525 4250 2034 4250 
z
M 2034 4750 
Q 2819 4750 3233 4129 
Q 3647 3509 3647 2328 
Q 3647 1150 3233 529 
Q 2819 -91 2034 -91 
Q 1250 -91 836 529 
Q 422 1150 422 2328 
Q 422 3509 836 4129 
Q 1250 4750 2034 4750 
z
" transform="scale(0.015625)"/>
       </defs>
       <use xlink:href="#DejaVuSans-30"/>
      </g>
     </g>
    </g>
    <g id="xtick_2">
     <g id="line2d_2">
      <path d="M 131.850165 273.312 
L 131.850165 7.2 
" clip-path="url(#pe6d2caccd7)" style="fill: none; stroke: #cccccc; stroke-linecap: round"/>
     </g>
     <g id="text_2">
      <!-- 20 -->
      <g style="fill: #262626" transform="translate(124.851415 291.170281) scale(0.11 -0.11)">
       <defs>
        <path id="DejaVuSans-32" d="M 1228 531 
L 3431 531 
L 3431 0 
L 469 0 
L 469 531 
Q 828 903 1448 1529 
Q 2069 2156 2228 2338 
Q 2531 2678 2651 2914 
Q 2772 3150 2772 3378 
Q 2772 3750 2511 3984 
Q 2250 4219 1831 4219 
Q 1534 4219 1204 4116 
Q 875 4013 500 3803 
L 500 4441 
Q 881 4594 1212 4672 
Q 1544 4750 1819 4750 
Q 2544 4750 2975 4387 
Q 3406 4025 3406 3419 
Q 3406 3131 3298 2873 
Q 3191 2616 2906 2266 
Q 2828 2175 2409 1742 
Q 1991 1309 1228 531 
z
" transform="scale(0.015625)"/>
       </defs>
       <use xlink:href="#DejaVuSans-32"/>
       <use xlink:href="#DejaVuSans-30" x="63.623047"/>
      </g>
     </g>
    </g>
    <g id="xtick_3">
     <g id="line2d_3">
      <path d="M 197.436942 273.312 
L 197.436942 7.2 
" clip-path="url(#pe6d2caccd7)" style="fill: none; stroke: #cccccc; stroke-linecap: round"/>
     </g>
     <g id="text_3">
      <!-- 40 -->
      <g style="fill: #262626" transform="translate(190.438192 291.170281) scale(0.11 -0.11)">
       <defs>
        <path id="DejaVuSans-34" d="M 2419 4116 
L 825 1625 
L 2419 1625 
L 2419 4116 
z
M 2253 4666 
L 3047 4666 
L 3047 1625 
L 3713 1625 
L 3713 1100 
L 3047 1100 
L 3047 0 
L 2419 0 
L 2419 1100 
L 313 1100 
L 313 1709 
L 2253 4666 
z
" transform="scale(0.015625)"/>
       </defs>
       <use xlink:href="#DejaVuSans-34"/>
       <use xlink:href="#DejaVuSans-30" x="63.623047"/>
      </g>
     </g>
    </g>
    <g id="xtick_4">
     <g id="line2d_4">
      <path d="M 263.023719 273.312 
L 263.023719 7.2 
" clip-path="url(#pe6d2caccd7)" style="fill: none; stroke: #cccccc; stroke-linecap: round"/>
     </g>
     <g id="text_4">
      <!-- 60 -->
      <g style="fill: #262626" transform="translate(256.024969 291.170281) scale(0.11 -0.11)">
       <defs>
        <path id="DejaVuSans-36" d="M 2113 2584 
Q 1688 2584 1439 2293 
Q 1191 2003 1191 1497 
Q 1191 994 1439 701 
Q 1688 409 2113 409 
Q 2538 409 2786 701 
Q 3034 994 3034 1497 
Q 3034 2003 2786 2293 
Q 2538 2584 2113 2584 
z
M 3366 4563 
L 3366 3988 
Q 3128 4100 2886 4159 
Q 2644 4219 2406 4219 
Q 1781 4219 1451 3797 
Q 1122 3375 1075 2522 
Q 1259 2794 1537 2939 
Q 1816 3084 2150 3084 
Q 2853 3084 3261 2657 
Q 3669 2231 3669 1497 
Q 3669 778 3244 343 
Q 2819 -91 2113 -91 
Q 1303 -91 875 529 
Q 447 1150 447 2328 
Q 447 3434 972 4092 
Q 1497 4750 2381 4750 
Q 2619 4750 2861 4703 
Q 3103 4656 3366 4563 
z
" transform="scale(0.015625)"/>
       </defs>
       <use xlink:href="#DejaVuSans-36"/>
       <use xlink:href="#DejaVuSans-30" x="63.623047"/>
      </g>
     </g>
    </g>
    <g id="xtick_5">
     <g id="line2d_5">
      <path d="M 328.610496 273.312 
L 328.610496 7.2 
" clip-path="url(#pe6d2caccd7)" style="fill: none; stroke: #cccccc; stroke-linecap: round"/>
     </g>
     <g id="text_5">
      <!-- 80 -->
      <g style="fill: #262626" transform="translate(321.611746 291.170281) scale(0.11 -0.11)">
       <defs>
        <path id="DejaVuSans-38" d="M 2034 2216 
Q 1584 2216 1326 1975 
Q 1069 1734 1069 1313 
Q 1069 891 1326 650 
Q 1584 409 2034 409 
Q 2484 409 2743 651 
Q 3003 894 3003 1313 
Q 3003 1734 2745 1975 
Q 2488 2216 2034 2216 
z
M 1403 2484 
Q 997 2584 770 2862 
Q 544 3141 544 3541 
Q 544 4100 942 4425 
Q 1341 4750 2034 4750 
Q 2731 4750 3128 4425 
Q 3525 4100 3525 3541 
Q 3525 3141 3298 2862 
Q 3072 2584 2669 2484 
Q 3125 2378 3379 2068 
Q 3634 1759 3634 1313 
Q 3634 634 3220 271 
Q 2806 -91 2034 -91 
Q 1263 -91 848 271 
Q 434 634 434 1313 
Q 434 1759 690 2068 
Q 947 2378 1403 2484 
z
M 1172 3481 
Q 1172 3119 1398 2916 
Q 1625 2713 2034 2713 
Q 2441 2713 2670 2916 
Q 2900 3119 2900 3481 
Q 2900 3844 2670 4047 
Q 2441 4250 2034 4250 
Q 1625 4250 1398 4047 
Q 1172 3844 1172 3481 
z
" transform="scale(0.015625)"/>
       </defs>
       <use xlink:href="#DejaVuSans-38"/>
       <use xlink:href="#DejaVuSans-30" x="63.623047"/>
      </g>
     </g>
    </g>
    <g id="xtick_6">
     <g id="line2d_6">
      <path d="M 394.197273 273.312 
L 394.197273 7.2 
" clip-path="url(#pe6d2caccd7)" style="fill: none; stroke: #cccccc; stroke-linecap: round"/>
     </g>
     <g id="text_6">
      <!-- 100 -->
      <g style="fill: #262626" transform="translate(383.699148 291.170281) scale(0.11 -0.11)">
       <defs>
        <path id="DejaVuSans-31" d="M 794 531 
L 1825 531 
L 1825 4091 
L 703 3866 
L 703 4441 
L 1819 4666 
L 2450 4666 
L 2450 531 
L 3481 531 
L 3481 0 
L 794 0 
L 794 531 
z
" transform="scale(0.015625)"/>
       </defs>
       <use xlink:href="#DejaVuSans-31"/>
       <use xlink:href="#DejaVuSans-30" x="63.623047"/>
       <use xlink:href="#DejaVuSans-30" x="127.246094"/>
      </g>
     </g>
    </g>
    <g id="text_7">
     <!-- Round -->
     <g style="fill: #262626" transform="translate(212.885625 306.576062) scale(0.12 -0.12)">
      <defs>
       <path id="DejaVuSans-52" d="M 2841 2188 
Q 3044 2119 3236 1894 
Q 3428 1669 3622 1275 
L 4263 0 
L 3584 0 
L 2988 1197 
Q 2756 1666 2539 1819 
Q 2322 1972 1947 1972 
L 1259 1972 
L 1259 0 
L 628 0 
L 628 4666 
L 2053 4666 
Q 2853 4666 3247 4331 
Q 3641 3997 3641 3322 
Q 3641 2881 3436 2590 
Q 3231 2300 2841 2188 
z
M 1259 4147 
L 1259 2491 
L 2053 2491 
Q 2509 2491 2742 2702 
Q 2975 2913 2975 3322 
Q 2975 3731 2742 3939 
Q 2509 4147 2053 4147 
L 1259 4147 
z
" transform="scale(0.015625)"/>
       <path id="DejaVuSans-6f" d="M 1959 3097 
Q 1497 3097 1228 2736 
Q 959 2375 959 1747 
Q 959 1119 1226 758 
Q 1494 397 1959 397 
Q 2419 397 2687 759 
Q 2956 1122 2956 1747 
Q 2956 2369 2687 2733 
Q 2419 3097 1959 3097 
z
M 1959 3584 
Q 2709 3584 3137 3096 
Q 3566 2609 3566 1747 
Q 3566 888 3137 398 
Q 2709 -91 1959 -91 
Q 1206 -91 779 398 
Q 353 888 353 1747 
Q 353 2609 779 3096 
Q 1206 3584 1959 3584 
z
" transform="scale(0.015625)"/>
       <path id="DejaVuSans-75" d="M 544 1381 
L 544 3500 
L 1119 3500 
L 1119 1403 
Q 1119 906 1312 657 
Q 1506 409 1894 409 
Q 2359 409 2629 706 
Q 2900 1003 2900 1516 
L 2900 3500 
L 3475 3500 
L 3475 0 
L 2900 0 
L 2900 538 
Q 2691 219 2414 64 
Q 2138 -91 1772 -91 
Q 1169 -91 856 284 
Q 544 659 544 1381 
z
M 1991 3584 
L 1991 3584 
z
" transform="scale(0.015625)"/>
       <path id="DejaVuSans-6e" d="M 3513 2113 
L 3513 0 
L 2938 0 
L 2938 2094 
Q 2938 2591 2744 2837 
Q 2550 3084 2163 3084 
Q 1697 3084 1428 2787 
Q 1159 2491 1159 1978 
L 1159 0 
L 581 0 
L 581 3500 
L 1159 3500 
L 1159 2956 
Q 1366 3272 1645 3428 
Q 1925 3584 2291 3584 
Q 2894 3584 3203 3211 
Q 3513 2838 3513 2113 
z
" transform="scale(0.015625)"/>
       <path id="DejaVuSans-64" d="M 2906 2969 
L 2906 4863 
L 3481 4863 
L 3481 0 
L 2906 0 
L 2906 525 
Q 2725 213 2448 61 
Q 2172 -91 1784 -91 
Q 1150 -91 751 415 
Q 353 922 353 1747 
Q 353 2572 751 3078 
Q 1150 3584 1784 3584 
Q 2172 3584 2448 3432 
Q 2725 3281 2906 2969 
z
M 947 1747 
Q 947 1113 1208 752 
Q 1469 391 1925 391 
Q 2381 391 2643 752 
Q 2906 1113 2906 1747 
Q 2906 2381 2643 2742 
Q 2381 3103 1925 3103 
Q 1469 3103 1208 2742 
Q 947 2381 947 1747 
z
" transform="scale(0.015625)"/>
      </defs>
      <use xlink:href="#DejaVuSans-52"/>
      <use xlink:href="#DejaVuSans-6f" x="64.982422"/>
      <use xlink:href="#DejaVuSans-75" x="126.164062"/>
      <use xlink:href="#DejaVuSans-6e" x="189.542969"/>
      <use xlink:href="#DejaVuSans-64" x="252.921875"/>
     </g>
    </g>
   </g>
   <g id="matplotlib.axis_2">
    <g id="ytick_1">
     <g id="line2d_7">
      <path d="M 53.31 227.526111 
L 410.43 227.526111 
" clip-path="url(#pe6d2caccd7)" style="fill: none; stroke: #cccccc; stroke-linecap: round"/>
     </g>
     <g id="text_8">
      <!-- 20 -->
      <g style="fill: #262626" transform="translate(29.8125 231.705251) scale(0.11 -0.11)">
       <use xlink:href="#DejaVuSans-32"/>
       <use xlink:href="#DejaVuSans-30" x="63.623047"/>
      </g>
     </g>
    </g>
    <g id="ytick_2">
     <g id="line2d_8">
      <path d="M 53.31 174.902231 
L 410.43 174.902231 
" clip-path="url(#pe6d2caccd7)" style="fill: none; stroke: #cccccc; stroke-linecap: round"/>
     </g>
     <g id="text_9">
      <!-- 40 -->
      <g style="fill: #262626" transform="translate(29.8125 179.081372) scale(0.11 -0.11)">
       <use xlink:href="#DejaVuSans-34"/>
       <use xlink:href="#DejaVuSans-30" x="63.623047"/>
      </g>
     </g>
    </g>
    <g id="ytick_3">
     <g id="line2d_9">
      <path d="M 53.31 122.278352 
L 410.43 122.278352 
" clip-path="url(#pe6d2caccd7)" style="fill: none; stroke: #cccccc; stroke-linecap: round"/>
     </g>
     <g id="text_10">
      <!-- 60 -->
      <g style="fill: #262626" transform="translate(29.8125 126.457492) scale(0.11 -0.11)">
       <use xlink:href="#DejaVuSans-36"/>
       <use xlink:href="#DejaVuSans-30" x="63.623047"/>
      </g>
     </g>
    </g>
    <g id="ytick_4">
     <g id="line2d_10">
      <path d="M 53.31 69.654472 
L 410.43 69.654472 
" clip-path="url(#pe6d2caccd7)" style="fill: none; stroke: #cccccc; stroke-linecap: round"/>
     </g>
     <g id="text_11">
      <!-- 80 -->
      <g style="fill: #262626" transform="translate(29.8125 73.833613) scale(0.11 -0.11)">
       <use xlink:href="#DejaVuSans-38"/>
       <use xlink:href="#DejaVuSans-30" x="63.623047"/>
      </g>
     </g>
    </g>
    <g id="ytick_5">
     <g id="line2d_11">
      <path d="M 53.31 17.030593 
L 410.43 17.030593 
" clip-path="url(#pe6d2caccd7)" style="fill: none; stroke: #cccccc; stroke-linecap: round"/>
     </g>
     <g id="text_12">
      <!-- 100 -->
      <g style="fill: #262626" transform="translate(22.81375 21.209733) scale(0.11 -0.11)">
       <use xlink:href="#DejaVuSans-31"/>
       <use xlink:href="#DejaVuSans-30" x="63.623047"/>
       <use xlink:href="#DejaVuSans-30" x="127.246094"/>
      </g>
     </g>
    </g>
    <g id="text_13">
     <!-- Accuracy (%) -->
     <g style="fill: #262626" transform="translate(16.318125 179.939437) rotate(-90) scale(0.12 -0.12)">
      <defs>
       <path id="DejaVuSans-41" d="M 2188 4044 
L 1331 1722 
L 3047 1722 
L 2188 4044 
z
M 1831 4666 
L 2547 4666 
L 4325 0 
L 3669 0 
L 3244 1197 
L 1141 1197 
L 716 0 
L 50 0 
L 1831 4666 
z
" transform="scale(0.015625)"/>
       <path id="DejaVuSans-63" d="M 3122 3366 
L 3122 2828 
Q 2878 2963 2633 3030 
Q 2388 3097 2138 3097 
Q 1578 3097 1268 2742 
Q 959 2388 959 1747 
Q 959 1106 1268 751 
Q 1578 397 2138 397 
Q 2388 397 2633 464 
Q 2878 531 3122 666 
L 3122 134 
Q 2881 22 2623 -34 
Q 2366 -91 2075 -91 
Q 1284 -91 818 406 
Q 353 903 353 1747 
Q 353 2603 823 3093 
Q 1294 3584 2113 3584 
Q 2378 3584 2631 3529 
Q 2884 3475 3122 3366 
z
" transform="scale(0.015625)"/>
       <path id="DejaVuSans-72" d="M 2631 2963 
Q 2534 3019 2420 3045 
Q 2306 3072 2169 3072 
Q 1681 3072 1420 2755 
Q 1159 2438 1159 1844 
L 1159 0 
L 581 0 
L 581 3500 
L 1159 3500 
L 1159 2956 
Q 1341 3275 1631 3429 
Q 1922 3584 2338 3584 
Q 2397 3584 2469 3576 
Q 2541 3569 2628 3553 
L 2631 2963 
z
" transform="scale(0.015625)"/>
       <path id="DejaVuSans-61" d="M 2194 1759 
Q 1497 1759 1228 1600 
Q 959 1441 959 1056 
Q 959 750 1161 570 
Q 1363 391 1709 391 
Q 2188 391 2477 730 
Q 2766 1069 2766 1631 
L 2766 1759 
L 2194 1759 
z
M 3341 1997 
L 3341 0 
L 2766 0 
L 2766 531 
Q 2569 213 2275 61 
Q 1981 -91 1556 -91 
Q 1019 -91 701 211 
Q 384 513 384 1019 
Q 384 1609 779 1909 
Q 1175 2209 1959 2209 
L 2766 2209 
L 2766 2266 
Q 2766 2663 2505 2880 
Q 2244 3097 1772 3097 
Q 1472 3097 1187 3025 
Q 903 2953 641 2809 
L 641 3341 
Q 956 3463 1253 3523 
Q 1550 3584 1831 3584 
Q 2591 3584 2966 3190 
Q 3341 2797 3341 1997 
z
" transform="scale(0.015625)"/>
       <path id="DejaVuSans-79" d="M 2059 -325 
Q 1816 -950 1584 -1140 
Q 1353 -1331 966 -1331 
L 506 -1331 
L 506 -850 
L 844 -850 
Q 1081 -850 1212 -737 
Q 1344 -625 1503 -206 
L 1606 56 
L 191 3500 
L 800 3500 
L 1894 763 
L 2988 3500 
L 3597 3500 
L 2059 -325 
z
" transform="scale(0.015625)"/>
       <path id="DejaVuSans-20" transform="scale(0.015625)"/>
       <path id="DejaVuSans-28" d="M 1984 4856 
Q 1566 4138 1362 3434 
Q 1159 2731 1159 2009 
Q 1159 1288 1364 580 
Q 1569 -128 1984 -844 
L 1484 -844 
Q 1016 -109 783 600 
Q 550 1309 550 2009 
Q 550 2706 781 3412 
Q 1013 4119 1484 4856 
L 1984 4856 
z
" transform="scale(0.015625)"/>
       <path id="DejaVuSans-25" d="M 4653 2053 
Q 4381 2053 4226 1822 
Q 4072 1591 4072 1178 
Q 4072 772 4226 539 
Q 4381 306 4653 306 
Q 4919 306 5073 539 
Q 5228 772 5228 1178 
Q 5228 1588 5073 1820 
Q 4919 2053 4653 2053 
z
M 4653 2450 
Q 5147 2450 5437 2106 
Q 5728 1763 5728 1178 
Q 5728 594 5436 251 
Q 5144 -91 4653 -91 
Q 4153 -91 3862 251 
Q 3572 594 3572 1178 
Q 3572 1766 3864 2108 
Q 4156 2450 4653 2450 
z
M 1428 4353 
Q 1159 4353 1004 4120 
Q 850 3888 850 3481 
Q 850 3069 1003 2837 
Q 1156 2606 1428 2606 
Q 1700 2606 1854 2837 
Q 2009 3069 2009 3481 
Q 2009 3884 1853 4118 
Q 1697 4353 1428 4353 
z
M 4250 4750 
L 4750 4750 
L 1831 -91 
L 1331 -91 
L 4250 4750 
z
M 1428 4750 
Q 1922 4750 2215 4408 
Q 2509 4066 2509 3481 
Q 2509 2891 2217 2550 
Q 1925 2209 1428 2209 
Q 931 2209 642 2551 
Q 353 2894 353 3481 
Q 353 4063 643 4406 
Q 934 4750 1428 4750 
z
" transform="scale(0.015625)"/>
       <path id="DejaVuSans-29" d="M 513 4856 
L 1013 4856 
Q 1481 4119 1714 3412 
Q 1947 2706 1947 2009 
Q 1947 1309 1714 600 
Q 1481 -109 1013 -844 
L 513 -844 
Q 928 -128 1133 580 
Q 1338 1288 1338 2009 
Q 1338 2731 1133 3434 
Q 928 4138 513 4856 
z
" transform="scale(0.015625)"/>
      </defs>
      <use xlink:href="#DejaVuSans-41"/>
      <use xlink:href="#DejaVuSans-63" x="66.658203"/>
      <use xlink:href="#DejaVuSans-63" x="121.638672"/>
      <use xlink:href="#DejaVuSans-75" x="176.619141"/>
      <use xlink:href="#DejaVuSans-72" x="239.998047"/>
      <use xlink:href="#DejaVuSans-61" x="281.111328"/>
      <use xlink:href="#DejaVuSans-63" x="342.390625"/>
      <use xlink:href="#DejaVuSans-79" x="397.371094"/>
      <use xlink:href="#DejaVuSans-20" x="456.550781"/>
      <use xlink:href="#DejaVuSans-28" x="488.337891"/>
      <use xlink:href="#DejaVuSans-25" x="527.351562"/>
      <use xlink:href="#DejaVuSans-29" x="622.371094"/>
     </g>
    </g>
   </g>
   <g id="PolyCollection_1">
    <defs>
     <path id="m381d4882eb" d="M 69.542727 -136.1829 
L 69.542727 -90.030807 
L 72.822066 -128.142984 
L 76.101405 -188.270483 
L 79.380744 -209.810199 
L 82.660083 -222.170573 
L 85.939421 -252.207999 
L 89.21876 -254.194221 
L 92.498099 -254.335074 
L 95.777438 -271.370827 
L 99.056777 -276.858618 
L 102.336116 -279.936297 
L 105.615455 -279.116716 
L 108.894793 -272.354229 
L 112.174132 -277.385799 
L 115.453471 -280.878487 
L 118.73281 -283.727779 
L 122.012149 -281.564433 
L 125.291488 -278.013275 
L 128.570826 -287.080866 
L 131.850165 -280.521745 
L 135.129504 -282.468669 
L 138.408843 -285.043081 
L 141.688182 -287.843432 
L 144.967521 -287.255289 
L 148.24686 -278.039081 
L 151.526198 -281.649717 
L 154.805537 -284.733397 
L 158.084876 -285.739217 
L 161.364215 -286.866053 
L 164.643554 -285.037549 
L 167.922893 -286.063347 
L 171.202231 -288.407664 
L 174.48157 -287.204509 
L 177.760909 -288.914703 
L 181.040248 -288.444281 
L 184.319587 -290.586455 
L 187.598926 -290.974299 
L 190.878264 -291.486903 
L 194.157603 -288.655891 
L 197.436942 -289.474268 
L 200.716281 -292.178466 
L 203.99562 -292.431573 
L 207.274959 -292.623146 
L 210.554298 -291.625604 
L 213.833636 -291.516602 
L 217.112975 -291.34869 
L 220.392314 -284.344625 
L 223.671653 -288.235543 
L 226.950992 -290.056551 
L 230.230331 -290.873042 
L 233.509669 -284.923427 
L 236.789008 -287.862445 
L 240.068347 -291.253647 
L 243.347686 -292.445531 
L 246.627025 -293.023128 
L 249.906364 -290.145805 
L 253.185702 -290.361842 
L 256.465041 -291.248337 
L 259.74438 -291.413259 
L 263.023719 -291.635699 
L 266.303058 -292.169845 
L 269.582397 -287.272093 
L 272.861736 -291.727307 
L 276.141074 -292.323733 
L 279.420413 -293.635034 
L 282.699752 -291.323813 
L 285.979091 -292.1513 
L 289.25843 -292.106852 
L 292.537769 -293.688304 
L 295.817107 -293.143427 
L 299.096446 -291.83572 
L 302.375785 -291.903306 
L 305.655124 -291.791255 
L 308.934463 -293.200953 
L 312.213802 -292.07733 
L 315.49314 -293.742702 
L 318.772479 -295.071004 
L 322.051818 -291.501196 
L 325.331157 -291.842901 
L 328.610496 -293.29153 
L 331.889835 -293.360074 
L 335.169174 -294.506639 
L 338.448512 -294.88418 
L 341.727851 -294.807694 
L 345.00719 -295.185096 
L 348.286529 -295.110213 
L 351.565868 -295.101818 
L 354.845207 -294.968418 
L 358.124545 -291.843466 
L 361.403884 -292.756943 
L 364.683223 -292.664766 
L 367.962562 -293.257619 
L 371.241901 -293.370516 
L 374.52124 -294.194906 
L 377.800579 -294.165292 
L 381.079917 -294.905589 
L 384.359256 -294.919802 
L 387.638595 -295.004777 
L 390.917934 -291.777316 
L 394.197273 -294.965179 
L 394.197273 -296.817543 
L 394.197273 -296.817543 
L 390.917934 -296.817051 
L 387.638595 -296.901695 
L 384.359256 -296.824467 
L 381.079917 -296.855287 
L 377.800579 -296.866759 
L 374.52124 -296.81769 
L 371.241901 -296.713091 
L 367.962562 -296.803685 
L 364.683223 -296.654769 
L 361.403884 -296.527399 
L 358.124545 -296.626558 
L 354.845207 -296.780998 
L 351.565868 -296.793657 
L 348.286529 -296.846713 
L 345.00719 -296.975687 
L 341.727851 -296.851322 
L 338.448512 -296.651528 
L 335.169174 -296.712032 
L 331.889835 -296.571803 
L 328.610496 -296.688966 
L 325.331157 -296.503982 
L 322.051818 -296.529623 
L 318.772479 -296.75444 
L 315.49314 -296.583718 
L 312.213802 -296.43683 
L 308.934463 -296.482373 
L 305.655124 -296.359764 
L 302.375785 -296.432609 
L 299.096446 -296.17836 
L 295.817107 -295.965689 
L 292.537769 -296.483092 
L 289.25843 -296.56688 
L 285.979091 -296.261654 
L 282.699752 -296.216566 
L 279.420413 -296.12312 
L 276.141074 -295.67653 
L 272.861736 -295.890504 
L 269.582397 -295.985335 
L 266.303058 -295.919614 
L 263.023719 -296.032539 
L 259.74438 -296.142567 
L 256.465041 -295.771171 
L 253.185702 -295.646696 
L 249.906364 -296.085697 
L 246.627025 -295.757041 
L 243.347686 -295.803631 
L 240.068347 -295.768823 
L 236.789008 -295.86696 
L 233.509669 -295.75399 
L 230.230331 -295.534644 
L 226.950992 -295.491974 
L 223.671653 -295.412914 
L 220.392314 -295.249493 
L 217.112975 -295.234646 
L 213.833636 -295.543415 
L 210.554298 -295.40313 
L 207.274959 -295.415628 
L 203.99562 -295.152626 
L 200.716281 -295.101389 
L 197.436942 -294.718944 
L 194.157603 -294.637419 
L 190.878264 -294.333708 
L 187.598926 -294.093629 
L 184.319587 -294.135999 
L 181.040248 -293.979071 
L 177.760909 -293.716728 
L 174.48157 -293.85317 
L 171.202231 -294.025548 
L 167.922893 -293.911088 
L 164.643554 -293.467233 
L 161.364215 -293.753712 
L 158.084876 -293.667972 
L 154.805537 -293.845426 
L 151.526198 -292.389138 
L 148.24686 -292.41202 
L 144.967521 -293.059714 
L 141.688182 -293.021356 
L 138.408843 -292.239653 
L 135.129504 -291.132338 
L 131.850165 -291.633847 
L 128.570826 -292.045437 
L 125.291488 -292.010685 
L 122.012149 -290.613953 
L 118.73281 -290.39933 
L 115.453471 -290.717542 
L 112.174132 -289.910204 
L 108.894793 -287.917747 
L 105.615455 -288.693765 
L 102.336116 -289.705143 
L 99.056777 -288.322018 
L 95.777438 -288.159932 
L 92.498099 -280.42009 
L 89.21876 -278.635119 
L 85.939421 -276.733477 
L 82.660083 -256.468235 
L 79.380744 -247.695385 
L 76.101405 -230.331538 
L 72.822066 -184.839875 
L 69.542727 -136.1829 
z
" style="stroke: #4c72b0; stroke-opacity: 0.2"/>
    </defs>
    <g clip-path="url(#pe6d2caccd7)">
     <use xlink:href="#m381d4882eb" x="0" y="316.271687" style="fill: #4c72b0; fill-opacity: 0.2; stroke: #4c72b0; stroke-opacity: 0.2"/>
    </g>
   </g>
   <g id="PolyCollection_2">
    <defs>
     <path id="m18ea5731ff" d="M 69.542727 -100.686556 
L 69.542727 -70.560128 
L 72.822066 -55.055687 
L 76.101405 -111.41542 
L 79.380744 -156.534351 
L 82.660083 -155.773157 
L 85.939421 -224.405994 
L 89.21876 -191.800111 
L 92.498099 -203.452677 
L 95.777438 -228.753593 
L 99.056777 -235.422952 
L 102.336116 -230.004701 
L 105.615455 -224.594663 
L 108.894793 -234.274507 
L 112.174132 -241.03123 
L 115.453471 -256.547914 
L 118.73281 -256.68481 
L 122.012149 -256.343105 
L 125.291488 -261.430159 
L 128.570826 -239.158549 
L 131.850165 -241.311186 
L 135.129504 -245.155629 
L 138.408843 -256.755925 
L 141.688182 -265.387023 
L 144.967521 -244.649409 
L 148.24686 -246.167867 
L 151.526198 -229.285365 
L 154.805537 -266.010724 
L 158.084876 -241.93306 
L 161.364215 -240.81313 
L 164.643554 -246.684525 
L 167.922893 -244.563857 
L 171.202231 -255.893649 
L 174.48157 -255.048364 
L 177.760909 -269.753993 
L 181.040248 -261.749403 
L 184.319587 -265.967341 
L 187.598926 -270.451174 
L 190.878264 -263.781153 
L 194.157603 -254.763694 
L 197.436942 -267.211778 
L 200.716281 -275.125085 
L 203.99562 -274.548417 
L 207.274959 -267.245323 
L 210.554298 -275.076718 
L 213.833636 -277.949457 
L 217.112975 -256.210602 
L 220.392314 -269.733473 
L 223.671653 -261.540652 
L 226.950992 -263.413713 
L 230.230331 -274.050789 
L 233.509669 -278.468705 
L 236.789008 -280.55606 
L 240.068347 -254.362941 
L 243.347686 -275.216549 
L 246.627025 -265.590728 
L 249.906364 -277.515849 
L 253.185702 -265.325311 
L 256.465041 -257.151403 
L 259.74438 -259.178565 
L 263.023719 -270.811128 
L 266.303058 -268.291381 
L 269.582397 -272.387781 
L 272.861736 -277.746161 
L 276.141074 -273.080332 
L 279.420413 -277.752396 
L 282.699752 -280.38814 
L 285.979091 -274.549474 
L 289.25843 -281.220282 
L 292.537769 -282.9831 
L 295.817107 -267.47499 
L 299.096446 -271.615222 
L 302.375785 -275.421957 
L 305.655124 -262.05601 
L 308.934463 -278.76594 
L 312.213802 -283.114413 
L 315.49314 -283.027855 
L 318.772479 -270.923608 
L 322.051818 -281.824052 
L 325.331157 -280.979446 
L 328.610496 -284.525057 
L 331.889835 -281.812146 
L 335.169174 -279.063633 
L 338.448512 -272.897426 
L 341.727851 -275.243641 
L 345.00719 -280.756229 
L 348.286529 -279.510004 
L 351.565868 -286.346956 
L 354.845207 -281.505095 
L 358.124545 -277.254463 
L 361.403884 -284.314169 
L 364.683223 -283.90648 
L 367.962562 -287.440061 
L 371.241901 -274.525025 
L 374.52124 -287.309429 
L 377.800579 -279.691778 
L 381.079917 -279.496403 
L 384.359256 -286.50179 
L 387.638595 -279.626564 
L 390.917934 -282.854047 
L 394.197273 -283.683512 
L 394.197273 -289.851732 
L 394.197273 -289.851732 
L 390.917934 -289.274129 
L 387.638595 -287.488018 
L 384.359256 -289.864059 
L 381.079917 -288.005105 
L 377.800579 -286.725759 
L 374.52124 -290.757827 
L 371.241901 -287.121632 
L 367.962562 -290.69231 
L 364.683223 -289.638411 
L 361.403884 -289.076491 
L 358.124545 -287.05578 
L 354.845207 -289.256057 
L 351.565868 -290.652158 
L 348.286529 -287.547879 
L 345.00719 -288.548913 
L 341.727851 -286.078265 
L 338.448512 -285.052522 
L 335.169174 -287.420224 
L 331.889835 -288.122472 
L 328.610496 -289.004407 
L 325.331157 -287.282103 
L 322.051818 -287.847258 
L 318.772479 -285.015027 
L 315.49314 -287.917538 
L 312.213802 -287.771766 
L 308.934463 -286.633154 
L 305.655124 -281.775541 
L 302.375785 -284.078514 
L 299.096446 -283.391866 
L 295.817107 -279.938807 
L 292.537769 -288.483644 
L 289.25843 -286.025606 
L 285.979091 -285.140601 
L 282.699752 -285.190011 
L 279.420413 -284.721799 
L 276.141074 -283.271036 
L 272.861736 -285.344757 
L 269.582397 -283.794558 
L 266.303058 -282.689677 
L 263.023719 -282.33743 
L 259.74438 -281.033308 
L 256.465041 -278.346644 
L 253.185702 -281.918107 
L 249.906364 -284.545352 
L 246.627025 -281.237383 
L 243.347686 -282.905828 
L 240.068347 -275.499238 
L 236.789008 -285.760194 
L 233.509669 -283.91944 
L 230.230331 -280.624167 
L 226.950992 -278.837627 
L 223.671653 -276.900826 
L 220.392314 -280.449986 
L 217.112975 -277.597347 
L 213.833636 -283.995482 
L 210.554298 -283.41691 
L 207.274959 -277.535219 
L 203.99562 -281.514257 
L 200.716281 -281.609928 
L 197.436942 -281.256313 
L 194.157603 -276.544822 
L 190.878264 -278.050684 
L 187.598926 -278.583079 
L 184.319587 -277.814237 
L 181.040248 -275.983152 
L 177.760909 -277.788652 
L 174.48157 -273.152532 
L 171.202231 -273.719713 
L 167.922893 -269.338646 
L 164.643554 -270.293578 
L 161.364215 -266.703808 
L 158.084876 -265.658378 
L 154.805537 -277.240656 
L 151.526198 -257.203237 
L 148.24686 -265.325109 
L 144.967521 -269.3214 
L 141.688182 -274.368697 
L 138.408843 -267.059599 
L 135.129504 -268.358366 
L 131.850165 -265.107856 
L 128.570826 -262.560932 
L 125.291488 -270.601452 
L 122.012149 -267.620362 
L 118.73281 -264.692743 
L 115.453471 -268.292273 
L 112.174132 -263.8931 
L 108.894793 -258.922139 
L 105.615455 -238.720966 
L 102.336116 -253.348499 
L 99.056777 -257.111066 
L 95.777438 -253.00111 
L 92.498099 -231.813657 
L 89.21876 -221.310666 
L 85.939421 -247.796947 
L 82.660083 -191.951635 
L 79.380744 -198.788324 
L 76.101405 -145.851862 
L 72.822066 -80.360032 
L 69.542727 -100.686556 
z
" style="stroke: #dd8452; stroke-opacity: 0.2"/>
    </defs>
    <g clip-path="url(#pe6d2caccd7)">
     <use xlink:href="#m18ea5731ff" x="0" y="316.271687" style="fill: #dd8452; fill-opacity: 0.2; stroke: #dd8452; stroke-opacity: 0.2"/>
    </g>
   </g>
   <g id="PolyCollection_3">
    <defs>
     <path id="m44e8930f5f" d="M 69.542727 -127.920503 
L 69.542727 -80.459406 
L 72.822066 -116.222974 
L 76.101405 -141.01356 
L 79.380744 -161.348912 
L 82.660083 -178.448908 
L 85.939421 -195.39676 
L 89.21876 -193.680501 
L 92.498099 -205.977846 
L 95.777438 -228.646472 
L 99.056777 -227.959393 
L 102.336116 -236.116395 
L 105.615455 -234.336763 
L 108.894793 -240.004434 
L 112.174132 -241.480147 
L 115.453471 -241.697822 
L 118.73281 -245.571784 
L 122.012149 -251.697212 
L 125.291488 -253.409033 
L 128.570826 -256.057445 
L 131.850165 -251.367148 
L 135.129504 -257.280592 
L 138.408843 -257.479809 
L 141.688182 -260.451214 
L 144.967521 -259.274195 
L 148.24686 -262.792149 
L 151.526198 -263.562521 
L 154.805537 -264.193055 
L 158.084876 -259.449305 
L 161.364215 -263.631499 
L 164.643554 -264.498398 
L 167.922893 -265.373456 
L 171.202231 -265.204603 
L 174.48157 -266.54261 
L 177.760909 -266.812856 
L 181.040248 -267.762227 
L 184.319587 -268.264241 
L 187.598926 -267.814388 
L 190.878264 -265.391667 
L 194.157603 -266.390519 
L 197.436942 -266.805752 
L 200.716281 -268.482946 
L 203.99562 -268.677809 
L 207.274959 -268.52501 
L 210.554298 -272.023057 
L 213.833636 -271.701292 
L 217.112975 -272.077309 
L 220.392314 -275.640752 
L 223.671653 -275.863317 
L 226.950992 -275.550982 
L 230.230331 -276.276875 
L 233.509669 -275.556867 
L 236.789008 -275.498928 
L 240.068347 -276.244631 
L 243.347686 -277.635303 
L 246.627025 -278.633069 
L 249.906364 -281.674892 
L 253.185702 -281.592752 
L 256.465041 -282.960021 
L 259.74438 -283.49421 
L 263.023719 -283.460097 
L 266.303058 -283.034138 
L 269.582397 -280.619856 
L 272.861736 -281.038676 
L 276.141074 -281.049593 
L 279.420413 -282.016321 
L 282.699752 -279.024059 
L 285.979091 -278.125403 
L 289.25843 -282.41344 
L 292.537769 -284.010499 
L 295.817107 -283.034626 
L 299.096446 -286.01274 
L 302.375785 -287.045364 
L 305.655124 -287.341984 
L 308.934463 -287.703151 
L 312.213802 -285.750475 
L 315.49314 -285.492213 
L 318.772479 -287.015375 
L 322.051818 -284.652418 
L 325.331157 -284.705793 
L 328.610496 -284.257758 
L 331.889835 -284.384376 
L 335.169174 -285.155017 
L 338.448512 -284.587584 
L 341.727851 -285.228099 
L 345.00719 -285.854656 
L 348.286529 -285.242544 
L 351.565868 -284.769625 
L 354.845207 -285.329957 
L 358.124545 -286.290376 
L 361.403884 -286.437526 
L 364.683223 -286.136431 
L 367.962562 -287.356484 
L 371.241901 -287.395974 
L 374.52124 -287.263442 
L 377.800579 -288.43067 
L 381.079917 -290.08214 
L 384.359256 -289.725777 
L 387.638595 -290.139884 
L 390.917934 -288.090487 
L 394.197273 -289.873256 
L 394.197273 -295.034334 
L 394.197273 -295.034334 
L 390.917934 -295.310753 
L 387.638595 -295.033056 
L 384.359256 -295.218152 
L 381.079917 -295.292305 
L 377.800579 -294.994247 
L 374.52124 -294.905094 
L 371.241901 -294.838014 
L 367.962562 -294.605131 
L 364.683223 -294.470735 
L 361.403884 -294.556379 
L 358.124545 -294.896441 
L 354.845207 -295.019628 
L 351.565868 -294.803831 
L 348.286529 -294.314737 
L 345.00719 -294.935253 
L 341.727851 -294.445321 
L 338.448512 -294.353704 
L 335.169174 -294.584501 
L 331.889835 -294.424704 
L 328.610496 -294.504917 
L 325.331157 -294.470052 
L 322.051818 -294.756781 
L 318.772479 -294.628846 
L 315.49314 -294.574968 
L 312.213802 -294.64071 
L 308.934463 -294.803699 
L 305.655124 -294.2989 
L 302.375785 -294.118873 
L 299.096446 -294.206141 
L 295.817107 -294.259912 
L 292.537769 -294.25246 
L 289.25843 -293.519602 
L 285.979091 -293.496375 
L 282.699752 -293.803156 
L 279.420413 -293.733244 
L 276.141074 -293.426958 
L 272.861736 -293.35163 
L 269.582397 -293.796387 
L 266.303058 -293.859782 
L 263.023719 -293.684208 
L 259.74438 -293.455076 
L 256.465041 -293.132281 
L 253.185702 -293.257757 
L 249.906364 -293.840083 
L 246.627025 -293.716152 
L 243.347686 -293.527647 
L 240.068347 -292.52917 
L 236.789008 -292.677684 
L 233.509669 -292.59898 
L 230.230331 -292.175026 
L 226.950992 -292.486602 
L 223.671653 -291.993441 
L 220.392314 -292.1219 
L 217.112975 -291.410363 
L 213.833636 -290.703539 
L 210.554298 -290.943575 
L 207.274959 -289.55994 
L 203.99562 -290.268705 
L 200.716281 -290.570821 
L 197.436942 -290.041743 
L 194.157603 -289.118182 
L 190.878264 -288.187746 
L 187.598926 -288.136674 
L 184.319587 -288.681993 
L 181.040248 -288.473903 
L 177.760909 -288.553591 
L 174.48157 -288.283727 
L 171.202231 -288.304784 
L 167.922893 -287.639164 
L 164.643554 -286.129457 
L 161.364215 -286.498916 
L 158.084876 -285.098465 
L 154.805537 -286.417586 
L 151.526198 -286.707954 
L 148.24686 -285.977628 
L 144.967521 -284.73623 
L 141.688182 -284.662214 
L 138.408843 -284.10292 
L 135.129504 -283.169027 
L 131.850165 -281.448492 
L 128.570826 -282.624867 
L 125.291488 -281.076892 
L 122.012149 -280.446405 
L 118.73281 -276.840476 
L 115.453471 -275.67202 
L 112.174132 -275.435883 
L 108.894793 -274.449138 
L 105.615455 -267.790699 
L 102.336116 -267.706743 
L 99.056777 -262.687947 
L 95.777438 -261.231355 
L 92.498099 -247.609356 
L 89.21876 -241.635544 
L 85.939421 -242.106286 
L 82.660083 -228.426628 
L 79.380744 -210.666297 
L 76.101405 -194.581482 
L 72.822066 -169.220142 
L 69.542727 -127.920503 
z
" style="stroke: #55a868; stroke-opacity: 0.2"/>
    </defs>
    <g clip-path="url(#pe6d2caccd7)">
     <use xlink:href="#m44e8930f5f" x="0" y="316.271687" style="fill: #55a868; fill-opacity: 0.2; stroke: #55a868; stroke-opacity: 0.2"/>
    </g>
   </g>
   <g id="PolyCollection_4">
    <defs>
     <path id="m7b07790dd8" d="M 69.542727 -125.854175 
L 69.542727 -83.608289 
L 72.822066 -93.859654 
L 76.101405 -104.440368 
L 79.380744 -106.612804 
L 82.660083 -126.676061 
L 85.939421 -145.048042 
L 89.21876 -154.849531 
L 92.498099 -170.219317 
L 95.777438 -178.228106 
L 99.056777 -192.669218 
L 102.336116 -205.566604 
L 105.615455 -213.728585 
L 108.894793 -226.843333 
L 112.174132 -224.070905 
L 115.453471 -232.771786 
L 118.73281 -238.797044 
L 122.012149 -243.006415 
L 125.291488 -243.909331 
L 128.570826 -246.284839 
L 131.850165 -252.510575 
L 135.129504 -253.860541 
L 138.408843 -260.194568 
L 141.688182 -261.655106 
L 144.967521 -261.800306 
L 148.24686 -261.096845 
L 151.526198 -261.793131 
L 154.805537 -263.778915 
L 158.084876 -266.884489 
L 161.364215 -267.68413 
L 164.643554 -269.909502 
L 167.922893 -270.3221 
L 171.202231 -271.071046 
L 174.48157 -272.073567 
L 177.760909 -273.4736 
L 181.040248 -273.422445 
L 184.319587 -274.212064 
L 187.598926 -273.84577 
L 190.878264 -274.728438 
L 194.157603 -273.916618 
L 197.436942 -274.426808 
L 200.716281 -275.387708 
L 203.99562 -276.967137 
L 207.274959 -275.514126 
L 210.554298 -276.990485 
L 213.833636 -277.59686 
L 217.112975 -276.694175 
L 220.392314 -280.426688 
L 223.671653 -279.975766 
L 226.950992 -279.330693 
L 230.230331 -280.165346 
L 233.509669 -281.156578 
L 236.789008 -281.25627 
L 240.068347 -281.871174 
L 243.347686 -282.737182 
L 246.627025 -282.459326 
L 249.906364 -281.434701 
L 253.185702 -283.095842 
L 256.465041 -282.619233 
L 259.74438 -282.718139 
L 263.023719 -283.62433 
L 266.303058 -284.050088 
L 269.582397 -285.991923 
L 272.861736 -285.170207 
L 276.141074 -285.599186 
L 279.420413 -285.992489 
L 282.699752 -285.707715 
L 285.979091 -285.917525 
L 289.25843 -286.718502 
L 292.537769 -287.371834 
L 295.817107 -287.101492 
L 299.096446 -286.695228 
L 302.375785 -287.165971 
L 305.655124 -287.282442 
L 308.934463 -287.116514 
L 312.213802 -287.290844 
L 315.49314 -287.420564 
L 318.772479 -288.299686 
L 322.051818 -288.153835 
L 325.331157 -287.805814 
L 328.610496 -288.088702 
L 331.889835 -287.90271 
L 335.169174 -288.867097 
L 338.448512 -288.848908 
L 341.727851 -288.598836 
L 345.00719 -288.445223 
L 348.286529 -288.983686 
L 351.565868 -288.884027 
L 354.845207 -288.64524 
L 358.124545 -290.435101 
L 361.403884 -290.763763 
L 364.683223 -290.006099 
L 367.962562 -290.538121 
L 371.241901 -290.548845 
L 374.52124 -290.586241 
L 377.800579 -290.752852 
L 381.079917 -290.769179 
L 384.359256 -291.334372 
L 387.638595 -291.419443 
L 390.917934 -291.104668 
L 394.197273 -290.770129 
L 394.197273 -295.917635 
L 394.197273 -295.917635 
L 390.917934 -295.748734 
L 387.638595 -295.804259 
L 384.359256 -295.69201 
L 381.079917 -295.558869 
L 377.800579 -295.490598 
L 374.52124 -295.529744 
L 371.241901 -295.375285 
L 367.962562 -295.317869 
L 364.683223 -295.383539 
L 361.403884 -295.376584 
L 358.124545 -295.326554 
L 354.845207 -295.425476 
L 351.565868 -295.319663 
L 348.286529 -295.203904 
L 345.00719 -295.171787 
L 341.727851 -295.187051 
L 338.448512 -295.113868 
L 335.169174 -295.141662 
L 331.889835 -294.960644 
L 328.610496 -294.978139 
L 325.331157 -294.819223 
L 322.051818 -294.783475 
L 318.772479 -294.874433 
L 315.49314 -294.678872 
L 312.213802 -294.564319 
L 308.934463 -294.483646 
L 305.655124 -294.539483 
L 302.375785 -294.466149 
L 299.096446 -294.590813 
L 295.817107 -294.449356 
L 292.537769 -294.28766 
L 289.25843 -294.232765 
L 285.979091 -294.14111 
L 282.699752 -294.373854 
L 279.420413 -294.292608 
L 276.141074 -293.97853 
L 272.861736 -293.797904 
L 269.582397 -293.468792 
L 266.303058 -293.516932 
L 263.023719 -293.668073 
L 259.74438 -293.325183 
L 256.465041 -293.155237 
L 253.185702 -293.271091 
L 249.906364 -293.234432 
L 246.627025 -292.955047 
L 243.347686 -292.927571 
L 240.068347 -292.533884 
L 236.789008 -292.313789 
L 233.509669 -291.901425 
L 230.230331 -291.669432 
L 226.950992 -291.537197 
L 223.671653 -291.637866 
L 220.392314 -291.34872 
L 217.112975 -291.018732 
L 213.833636 -291.013903 
L 210.554298 -290.804236 
L 207.274959 -290.358218 
L 203.99562 -290.669373 
L 200.716281 -290.217629 
L 197.436942 -289.864388 
L 194.157603 -289.597599 
L 190.878264 -289.348787 
L 187.598926 -288.748216 
L 184.319587 -288.690845 
L 181.040248 -288.473161 
L 177.760909 -287.956944 
L 174.48157 -287.667194 
L 171.202231 -287.122891 
L 167.922893 -286.267562 
L 164.643554 -285.926076 
L 161.364215 -285.799923 
L 158.084876 -284.637121 
L 154.805537 -283.120356 
L 151.526198 -282.054972 
L 148.24686 -281.376395 
L 144.967521 -280.819899 
L 141.688182 -280.508677 
L 138.408843 -279.456461 
L 135.129504 -275.734097 
L 131.850165 -275.30581 
L 128.570826 -271.939767 
L 125.291488 -270.593633 
L 122.012149 -269.320162 
L 118.73281 -267.861133 
L 115.453471 -264.474138 
L 112.174132 -260.452691 
L 108.894793 -259.15194 
L 105.615455 -249.172774 
L 102.336116 -241.332215 
L 99.056777 -230.991045 
L 95.777438 -216.419068 
L 92.498099 -212.7162 
L 89.21876 -200.826262 
L 85.939421 -183.931246 
L 82.660083 -167.612152 
L 79.380744 -145.620749 
L 76.101405 -144.566144 
L 72.822066 -134.879648 
L 69.542727 -125.854175 
z
" style="stroke: #c44e52; stroke-opacity: 0.2"/>
    </defs>
    <g clip-path="url(#pe6d2caccd7)">
     <use xlink:href="#m7b07790dd8" x="0" y="316.271687" style="fill: #c44e52; fill-opacity: 0.2; stroke: #c44e52; stroke-opacity: 0.2"/>
    </g>
   </g>
   <g id="PolyCollection_5">
    <defs>
     <path id="m027aecb1a7" d="M 69.542727 -124.009553 
L 69.542727 -83.132399 
L 72.822066 -90.583292 
L 76.101405 -110.002908 
L 79.380744 -114.285321 
L 82.660083 -125.971611 
L 85.939421 -128.877463 
L 89.21876 -132.452308 
L 92.498099 -140.888398 
L 95.777438 -148.325837 
L 99.056777 -143.856289 
L 102.336116 -145.07956 
L 105.615455 -151.374798 
L 108.894793 -154.083026 
L 112.174132 -158.464318 
L 115.453471 -157.685499 
L 118.73281 -161.026367 
L 122.012149 -163.097573 
L 125.291488 -167.247775 
L 128.570826 -176.225393 
L 131.850165 -177.539968 
L 135.129504 -181.54812 
L 138.408843 -185.705201 
L 141.688182 -188.492002 
L 144.967521 -189.674393 
L 148.24686 -190.175532 
L 151.526198 -195.031225 
L 154.805537 -200.860002 
L 158.084876 -200.394216 
L 161.364215 -203.771105 
L 164.643554 -207.930948 
L 167.922893 -206.199619 
L 171.202231 -208.331362 
L 174.48157 -210.046504 
L 177.760909 -209.512825 
L 181.040248 -213.131208 
L 184.319587 -213.179521 
L 187.598926 -211.427744 
L 190.878264 -213.895207 
L 194.157603 -216.073161 
L 197.436942 -215.860988 
L 200.716281 -219.237631 
L 203.99562 -222.63764 
L 207.274959 -223.595192 
L 210.554298 -225.546811 
L 213.833636 -227.465242 
L 217.112975 -229.606189 
L 220.392314 -228.52347 
L 223.671653 -233.609512 
L 226.950992 -233.944937 
L 230.230331 -233.332327 
L 233.509669 -234.525022 
L 236.789008 -232.249134 
L 240.068347 -235.572367 
L 243.347686 -232.935329 
L 246.627025 -234.740758 
L 249.906364 -235.173875 
L 253.185702 -236.137658 
L 256.465041 -235.488312 
L 259.74438 -237.397732 
L 263.023719 -239.718804 
L 266.303058 -239.952824 
L 269.582397 -239.795279 
L 272.861736 -240.128056 
L 276.141074 -242.906935 
L 279.420413 -243.336179 
L 282.699752 -244.298214 
L 285.979091 -245.048339 
L 289.25843 -243.573884 
L 292.537769 -244.983147 
L 295.817107 -244.274166 
L 299.096446 -246.850796 
L 302.375785 -246.646057 
L 305.655124 -246.940894 
L 308.934463 -246.125919 
L 312.213802 -247.051386 
L 315.49314 -247.515004 
L 318.772479 -247.525826 
L 322.051818 -247.09907 
L 325.331157 -249.224968 
L 328.610496 -249.915982 
L 331.889835 -250.384436 
L 335.169174 -249.380004 
L 338.448512 -250.431801 
L 341.727851 -247.940314 
L 345.00719 -250.707012 
L 348.286529 -250.550135 
L 351.565868 -249.517726 
L 354.845207 -250.049176 
L 358.124545 -253.279231 
L 361.403884 -254.109595 
L 364.683223 -254.724943 
L 367.962562 -254.417832 
L 371.241901 -252.705056 
L 374.52124 -254.066063 
L 377.800579 -255.790167 
L 381.079917 -255.713439 
L 384.359256 -255.458802 
L 387.638595 -256.632588 
L 390.917934 -256.506762 
L 394.197273 -256.413109 
L 394.197273 -286.049163 
L 394.197273 -286.049163 
L 390.917934 -285.818104 
L 387.638595 -285.991907 
L 384.359256 -284.597383 
L 381.079917 -284.577548 
L 377.800579 -285.516038 
L 374.52124 -284.451537 
L 371.241901 -283.529541 
L 367.962562 -283.787429 
L 364.683223 -283.02623 
L 361.403884 -283.990585 
L 358.124545 -283.578503 
L 354.845207 -282.374438 
L 351.565868 -281.655979 
L 348.286529 -281.897798 
L 345.00719 -281.919835 
L 341.727851 -281.09995 
L 338.448512 -281.239013 
L 335.169174 -281.710672 
L 331.889835 -280.296426 
L 328.610496 -280.605014 
L 325.331157 -281.014085 
L 322.051818 -281.196317 
L 318.772479 -280.673435 
L 315.49314 -279.308036 
L 312.213802 -279.737756 
L 308.934463 -279.446303 
L 305.655124 -278.970969 
L 302.375785 -279.409954 
L 299.096446 -278.243067 
L 295.817107 -276.823921 
L 292.537769 -277.511608 
L 289.25843 -275.754467 
L 285.979091 -275.226061 
L 282.699752 -275.055638 
L 279.420413 -275.555941 
L 276.141074 -275.595213 
L 272.861736 -274.148617 
L 269.582397 -273.374988 
L 266.303058 -274.143769 
L 263.023719 -271.55619 
L 259.74438 -270.8767 
L 256.465041 -269.337615 
L 253.185702 -269.786766 
L 249.906364 -269.093256 
L 246.627025 -269.366674 
L 243.347686 -267.758112 
L 240.068347 -269.64377 
L 236.789008 -267.004155 
L 233.509669 -267.466726 
L 230.230331 -267.028977 
L 226.950992 -267.745366 
L 223.671653 -268.040025 
L 220.392314 -263.725447 
L 217.112975 -263.398948 
L 213.833636 -261.745293 
L 210.554298 -262.022595 
L 207.274959 -259.524312 
L 203.99562 -258.669008 
L 200.716281 -257.721306 
L 197.436942 -256.785158 
L 194.157603 -254.793588 
L 190.878264 -253.822148 
L 187.598926 -252.220997 
L 184.319587 -251.919458 
L 181.040248 -253.258403 
L 177.760909 -251.984624 
L 174.48157 -252.051844 
L 171.202231 -248.923754 
L 167.922893 -246.248083 
L 164.643554 -247.453782 
L 161.364215 -245.342989 
L 158.084876 -242.149788 
L 154.805537 -240.348264 
L 151.526198 -234.313022 
L 148.24686 -231.519462 
L 144.967521 -230.055696 
L 141.688182 -227.722494 
L 138.408843 -225.166141 
L 135.129504 -219.2585 
L 131.850165 -215.556573 
L 128.570826 -215.991725 
L 125.291488 -205.459398 
L 122.012149 -201.326961 
L 118.73281 -200.149886 
L 115.453471 -196.889982 
L 112.174132 -196.601383 
L 108.894793 -194.620652 
L 105.615455 -187.463529 
L 102.336116 -182.288549 
L 99.056777 -180.430032 
L 95.777438 -181.228768 
L 92.498099 -175.128469 
L 89.21876 -172.161738 
L 85.939421 -166.933866 
L 82.660083 -166.734672 
L 79.380744 -156.614607 
L 76.101405 -154.197053 
L 72.822066 -134.578704 
L 69.542727 -124.009553 
z
" style="stroke: #8172b3; stroke-opacity: 0.2"/>
    </defs>
    <g clip-path="url(#pe6d2caccd7)">
     <use xlink:href="#m027aecb1a7" x="0" y="316.271687" style="fill: #8172b3; fill-opacity: 0.2; stroke: #8172b3; stroke-opacity: 0.2"/>
    </g>
   </g>
   <g id="line2d_12">
    <path d="M 69.542727 203.476519 
L 72.822066 160.340925 
L 76.101405 106.759006 
L 79.380744 86.744124 
L 82.660083 75.998497 
L 85.939421 50.695162 
L 89.21876 49.034463 
L 92.498099 47.519716 
L 95.777438 35.040279 
L 99.056777 32.867386 
L 102.336116 31.060608 
L 105.615455 32.051374 
L 108.894793 35.310255 
L 112.174132 31.760669 
L 115.453471 29.611215 
L 118.73281 28.987485 
L 122.012149 29.352132 
L 125.291488 29.443024 
L 128.570826 26.601277 
L 131.850165 29.026559 
L 135.129504 28.916506 
L 138.408843 27.104087 
L 141.688182 25.582173 
L 144.967521 25.689015 
L 148.24686 29.206269 
L 151.526198 27.732737 
L 154.805537 25.845808 
L 158.084876 25.56727 
L 161.364215 25.282185 
L 164.643554 26.148685 
L 167.922893 25.45205 
L 171.202231 24.62946 
L 174.48157 25.432084 
L 177.760909 24.641279 
L 181.040248 24.685773 
L 184.319587 23.863788 
L 187.598926 23.550781 
L 190.878264 23.338859 
L 194.157603 23.924005 
L 197.436942 23.64552 
L 200.716281 22.474133 
L 203.99562 22.339542 
L 207.274959 22.205599 
L 210.554298 22.575397 
L 213.833636 22.381904 
L 217.112975 22.65498 
L 220.392314 24.920649 
L 223.671653 23.621818 
L 226.950992 22.959746 
L 230.230331 22.610739 
L 233.509669 24.500342 
L 236.789008 23.415353 
L 240.068347 22.417436 
L 243.347686 21.9455 
L 246.627025 21.712797 
L 249.906364 22.481569 
L 253.185702 22.58197 
L 256.465041 22.371885 
L 259.74438 22.032703 
L 263.023719 21.923766 
L 266.303058 21.977279 
L 269.582397 23.579471 
L 272.861736 22.118843 
L 276.141074 22.017326 
L 279.420413 21.307646 
L 282.699752 22.005707 
L 285.979091 21.584037 
L 289.25843 21.354528 
L 292.537769 20.985051 
L 295.817107 21.562177 
L 299.096446 21.996113 
L 302.375785 21.54729 
L 305.655124 21.649943 
L 308.934463 21.103855 
L 312.213802 21.601298 
L 315.49314 20.933974 
L 318.772479 20.341945 
L 322.051818 21.669782 
L 325.331157 21.523567 
L 328.610496 21.02023 
L 331.889835 21.067139 
L 335.169174 20.5747 
L 338.448512 20.51072 
L 341.727851 20.432121 
L 345.00719 20.159887 
L 348.286529 20.258478 
L 351.565868 20.271755 
L 354.845207 20.313302 
L 358.124545 21.422076 
L 361.403884 21.248544 
L 364.683223 21.299821 
L 367.962562 20.894522 
L 371.241901 20.88104 
L 374.52124 20.611485 
L 377.800579 20.602296 
L 381.079917 20.335351 
L 384.359256 20.3254 
L 387.638595 20.27024 
L 390.917934 21.397875 
L 394.197273 20.322006 
" clip-path="url(#pe6d2caccd7)" style="fill: none; stroke: #4c72b0; stroke-width: 1.5; stroke-linecap: round"/>
   </g>
   <g id="line2d_13">
    <path d="M 69.542727 231.135288 
L 72.822066 249.163034 
L 76.101405 186.588811 
L 79.380744 138.104841 
L 82.660083 142.850663 
L 85.939421 79.400094 
L 89.21876 108.478755 
L 92.498099 98.244684 
L 95.777438 74.413423 
L 99.056777 68.932325 
L 102.336116 74.174532 
L 105.615455 84.825894 
L 108.894793 68.991511 
L 112.174132 62.948022 
L 115.453471 53.874428 
L 118.73281 55.842414 
L 122.012149 53.963705 
L 125.291488 50.136307 
L 128.570826 64.346817 
L 131.850165 62.46343 
L 135.129504 58.478749 
L 138.408843 54.095949 
L 141.688182 46.533944 
L 144.967521 58.373375 
L 148.24686 60.35046 
L 151.526198 72.596179 
L 154.805537 44.060543 
L 158.084876 61.91793 
L 161.364215 61.482405 
L 164.643554 56.812604 
L 167.922893 59.549861 
L 171.202231 50.70225 
L 174.48157 51.98792 
L 177.760909 42.181786 
L 181.040248 46.878489 
L 184.319587 44.255425 
L 187.598926 41.661426 
L 190.878264 45.215653 
L 194.157603 49.943977 
L 197.436942 41.670077 
L 200.716281 37.769316 
L 203.99562 38.169926 
L 207.274959 43.688966 
L 210.554298 36.941074 
L 213.833636 35.344045 
L 217.112975 48.421631 
L 220.392314 41.16484 
L 223.671653 46.931176 
L 226.950992 44.601785 
L 230.230331 38.889879 
L 233.509669 34.898841 
L 236.789008 32.913421 
L 240.068347 50.466732 
L 243.347686 36.960782 
L 246.627025 42.418683 
L 249.906364 34.979367 
L 253.185702 42.18527 
L 256.465041 47.483769 
L 259.74438 44.918439 
L 263.023719 39.005262 
L 266.303058 40.527339 
L 269.582397 37.664074 
L 272.861736 34.45107 
L 276.141074 37.844705 
L 279.420413 34.784637 
L 282.699752 33.444702 
L 285.979091 35.9754 
L 289.25843 32.580765 
L 292.537769 30.386623 
L 295.817107 42.012911 
L 299.096446 38.206973 
L 302.375785 36.221453 
L 305.655124 43.429977 
L 308.934463 33.302438 
L 312.213802 30.752443 
L 315.49314 30.86701 
L 318.772479 37.731932 
L 322.051818 31.374557 
L 325.331157 31.905569 
L 328.610496 29.364367 
L 331.889835 31.150953 
L 335.169174 32.694911 
L 338.448512 36.809646 
L 341.727851 35.056082 
L 345.00719 31.407458 
L 348.286529 32.536624 
L 351.565868 27.550511 
L 354.845207 30.84364 
L 358.124545 33.606846 
L 361.403884 29.507835 
L 364.683223 29.429236 
L 367.962562 27.14075 
L 371.241901 34.659861 
L 374.52124 27.224759 
L 377.800579 32.923415 
L 381.079917 32.137624 
L 384.359256 28.043329 
L 387.638595 32.298875 
L 390.917934 29.957343 
L 394.197273 29.319905 
" clip-path="url(#pe6d2caccd7)" style="fill: none; stroke: #dd8452; stroke-width: 1.5; stroke-linecap: round"/>
   </g>
   <g id="line2d_14">
    <path d="M 69.542727 214.069332 
L 72.822066 174.755795 
L 76.101405 148.347032 
L 79.380744 128.83695 
L 82.660083 112.662116 
L 85.939421 97.586806 
L 89.21876 97.18055 
L 92.498099 87.346968 
L 95.777438 70.660835 
L 99.056777 70.543658 
L 102.336116 63.832677 
L 105.615455 64.8259 
L 108.894793 57.629142 
L 112.174132 56.850114 
L 115.453471 56.044811 
L 118.73281 53.703048 
L 122.012149 49.765677 
L 125.291488 46.994614 
L 128.570826 46.080163 
L 131.850165 48.004682 
L 135.129504 45.497775 
L 138.408843 44.171269 
L 141.688182 42.951795 
L 144.967521 42.830181 
L 148.24686 41.158257 
L 151.526198 39.93823 
L 154.805537 39.886064 
L 158.084876 42.21967 
L 161.364215 39.977698 
L 164.643554 40.007247 
L 167.922893 38.369902 
L 171.202231 37.938918 
L 174.48157 37.629126 
L 177.760909 37.115001 
L 181.040248 36.934402 
L 184.319587 37.172946 
L 187.598926 37.264858 
L 190.878264 38.000309 
L 194.157603 37.021094 
L 197.436942 35.914667 
L 200.716281 35.638981 
L 203.99562 35.824543 
L 207.274959 35.886644 
L 210.554298 33.358919 
L 213.833636 33.455237 
L 217.112975 32.788855 
L 220.392314 31.597367 
L 223.671653 31.34202 
L 226.950992 30.90029 
L 230.230331 30.712028 
L 233.509669 30.676233 
L 236.789008 30.244091 
L 240.068347 30.406914 
L 243.347686 29.249963 
L 246.627025 28.445728 
L 249.906364 27.693922 
L 253.185702 27.874974 
L 256.465041 27.249787 
L 259.74438 27.211077 
L 263.023719 27.201126 
L 266.303058 27.077986 
L 269.582397 27.905607 
L 272.861736 28.156944 
L 276.141074 27.946101 
L 279.420413 27.399802 
L 282.699752 28.41269 
L 285.979091 28.658844 
L 289.25843 27.288808 
L 292.537769 26.542964 
L 295.817107 26.592015 
L 299.096446 25.697761 
L 302.375785 25.414987 
L 305.655124 25.246333 
L 308.934463 24.399404 
L 312.213802 25.306234 
L 315.49314 25.520056 
L 318.772479 24.835198 
L 322.051818 25.526071 
L 325.331157 25.746549 
L 328.610496 26.070654 
L 331.889835 25.962702 
L 335.169174 25.427201 
L 338.448512 26.015957 
L 341.727851 25.744323 
L 345.00719 25.37904 
L 348.286529 25.797736 
L 351.565868 25.502906 
L 354.845207 25.442441 
L 358.124545 24.931505 
L 361.403884 25.314691 
L 364.683223 25.425917 
L 367.962562 24.938799 
L 371.241901 24.666549 
L 374.52124 24.754215 
L 377.800579 24.067379 
L 381.079917 23.198753 
L 384.359256 23.458194 
L 387.638595 23.420679 
L 390.917934 23.857457 
L 394.197273 23.494857 
" clip-path="url(#pe6d2caccd7)" style="fill: none; stroke: #55a868; stroke-width: 1.5; stroke-linecap: round"/>
   </g>
   <g id="line2d_15">
    <path d="M 69.542727 212.509934 
L 72.822066 202.736048 
L 76.101405 192.410548 
L 79.380744 190.379056 
L 82.660083 168.700138 
L 85.939421 152.403697 
L 89.21876 137.86185 
L 92.498099 124.858885 
L 95.777438 118.468083 
L 99.056777 103.682925 
L 102.336116 91.903043 
L 105.615455 84.114057 
L 108.894793 73.429115 
L 112.174132 71.696137 
L 115.453471 65.369804 
L 118.73281 61.179754 
L 122.012149 59.51776 
L 125.291488 58.836229 
L 128.570826 56.187895 
L 131.850165 51.987441 
L 135.129504 50.631487 
L 138.408843 46.221732 
L 141.688182 44.467242 
L 144.967521 44.248716 
L 148.24686 43.558132 
L 151.526198 42.831986 
L 154.805537 41.792259 
L 158.084876 39.844081 
L 161.364215 38.295876 
L 164.643554 37.322382 
L 167.922893 36.810483 
L 171.202231 36.310519 
L 174.48157 35.293121 
L 177.760909 34.746853 
L 181.040248 34.032721 
L 184.319587 33.694123 
L 187.598926 33.436787 
L 190.878264 33.00856 
L 194.157603 32.964246 
L 197.436942 32.667557 
L 200.716281 32.067329 
L 203.99562 31.517263 
L 207.274959 31.808373 
L 210.554298 31.136155 
L 213.833636 30.937563 
L 217.112975 31.240556 
L 220.392314 29.966853 
L 223.671653 29.552561 
L 226.950992 29.815401 
L 230.230331 29.356658 
L 233.509669 29.079856 
L 236.789008 28.352557 
L 240.068347 28.001114 
L 243.347686 27.52992 
L 246.627025 27.531846 
L 249.906364 27.469923 
L 253.185702 27.21515 
L 256.465041 27.242404 
L 259.74438 26.95763 
L 263.023719 26.732742 
L 266.303058 26.795974 
L 269.582397 26.048873 
L 272.861736 26.121468 
L 276.141074 25.846266 
L 279.420413 25.411056 
L 282.699752 25.310134 
L 285.979091 25.380266 
L 289.25843 24.946361 
L 292.537769 24.760488 
L 295.817107 24.838908 
L 299.096446 24.854416 
L 302.375785 24.898826 
L 305.655124 24.725672 
L 308.934463 24.689172 
L 312.213802 24.570411 
L 315.49314 24.533695 
L 318.772479 24.203917 
L 322.051818 24.255651 
L 325.331157 24.262329 
L 328.610496 24.088234 
L 331.889835 24.104568 
L 335.169174 23.715615 
L 338.448512 23.65174 
L 341.727851 23.601142 
L 345.00719 23.759334 
L 348.286529 23.651703 
L 351.565868 23.537135 
L 354.845207 23.398361 
L 358.124545 23.058442 
L 361.403884 22.814683 
L 364.683223 23.118676 
L 367.962562 22.907107 
L 371.241901 22.95622 
L 374.52124 22.949874 
L 377.800579 22.798538 
L 381.079917 22.758997 
L 384.359256 22.45673 
L 387.638595 22.393613 
L 390.917934 22.517495 
L 394.197273 22.447058 
" clip-path="url(#pe6d2caccd7)" style="fill: none; stroke: #c44e52; stroke-width: 1.5; stroke-linecap: round"/>
   </g>
   <g id="line2d_16">
    <path d="M 69.542727 213.383517 
L 72.822066 203.358973 
L 76.101405 184.763657 
L 79.380744 181.353503 
L 82.660083 170.495718 
L 85.939421 168.507188 
L 89.21876 164.093918 
L 92.498099 158.392883 
L 95.777438 151.680502 
L 99.056777 153.890995 
L 102.336116 151.862255 
L 105.615455 148.304038 
L 108.894793 142.013901 
L 112.174132 137.692796 
L 115.453471 138.512087 
L 118.73281 134.809039 
L 122.012149 133.943482 
L 125.291488 129.571079 
L 128.570826 119.425301 
L 131.850165 119.646642 
L 135.129504 115.261099 
L 138.408843 110.745481 
L 141.688182 108.145025 
L 144.967521 105.895149 
L 148.24686 105.215732 
L 151.526198 101.175329 
L 154.805537 94.224472 
L 158.084876 93.638947 
L 161.364215 91.030876 
L 164.643554 88.807817 
L 167.922893 88.870603 
L 171.202231 87.838517 
L 174.48157 85.443483 
L 177.760909 84.440667 
L 181.040248 83.987849 
L 184.319587 83.508882 
L 187.598926 82.683282 
L 190.878264 81.824623 
L 194.157603 79.765535 
L 197.436942 79.280858 
L 200.716281 77.172409 
L 203.99562 75.293073 
L 207.274959 74.926132 
L 210.554298 72.019963 
L 213.833636 70.660504 
L 217.112975 68.855484 
L 220.392314 68.487174 
L 223.671653 65.823627 
L 226.950992 65.610711 
L 230.230331 65.221847 
L 233.509669 64.744948 
L 236.789008 64.625192 
L 240.068347 64.343891 
L 243.347686 64.293541 
L 246.627025 63.738506 
L 249.906364 63.350684 
L 253.185702 63.050438 
L 256.465041 63.121849 
L 259.74438 61.353187 
L 263.023719 60.055113 
L 266.303058 58.459515 
L 269.582397 58.132426 
L 272.861736 57.961625 
L 276.141074 57.175556 
L 279.420413 56.331721 
L 282.699752 55.722116 
L 285.979091 55.642901 
L 289.25843 55.20206 
L 292.537769 54.554071 
L 295.817107 54.598459 
L 299.096446 53.056474 
L 302.375785 52.634525 
L 305.655124 52.210624 
L 308.934463 51.812146 
L 312.213802 51.836653 
L 315.49314 51.654658 
L 318.772479 51.356276 
L 322.051818 51.223863 
L 325.331157 50.775182 
L 328.610496 50.469495 
L 331.889835 50.210085 
L 335.169174 50.144485 
L 338.448512 49.947066 
L 341.727851 49.488423 
L 345.00719 49.057891 
L 348.286529 48.810943 
L 351.565868 48.746668 
L 354.845207 48.707116 
L 358.124545 46.617464 
L 361.403884 46.546621 
L 364.683223 46.486446 
L 367.962562 45.733019 
L 371.241901 45.739408 
L 374.52124 45.741313 
L 377.800579 44.991933 
L 381.079917 45.039426 
L 384.359256 44.962658 
L 387.638595 44.162376 
L 390.917934 43.769786 
L 394.197273 43.733028 
" clip-path="url(#pe6d2caccd7)" style="fill: none; stroke: #8172b3; stroke-width: 1.5; stroke-linecap: round"/>
   </g>
   <g id="line2d_17"/>
   <g id="line2d_18"/>
   <g id="line2d_19"/>
   <g id="line2d_20"/>
   <g id="line2d_21"/>
   <g id="patch_3">
    <path d="M 53.31 273.312 
L 53.31 7.2 
" style="fill: none; stroke: #cccccc; stroke-width: 1.25; stroke-linejoin: miter; stroke-linecap: square"/>
   </g>
   <g id="patch_4">
    <path d="M 410.43 273.312 
L 410.43 7.2 
" style="fill: none; stroke: #cccccc; stroke-width: 1.25; stroke-linejoin: miter; stroke-linecap: square"/>
   </g>
   <g id="patch_5">
    <path d="M 53.31 273.312 
L 410.43 273.312 
" style="fill: none; stroke: #cccccc; stroke-width: 1.25; stroke-linejoin: miter; stroke-linecap: square"/>
   </g>
   <g id="patch_6">
    <path d="M 53.31 7.2 
L 410.43 7.2 
" style="fill: none; stroke: #cccccc; stroke-width: 1.25; stroke-linejoin: miter; stroke-linecap: square"/>
   </g>
   <g id="legend_1">
    <g id="patch_7">
     <path d="M 298.745625 267.812 
L 402.73 267.812 
Q 404.93 267.812 404.93 265.612 
L 404.93 168.868562 
Q 404.93 166.668562 402.73 166.668562 
L 298.745625 166.668562 
Q 296.545625 166.668562 296.545625 168.868562 
L 296.545625 265.612 
Q 296.545625 267.812 298.745625 267.812 
z
" style="fill: #ffffff; opacity: 0.8; stroke: #cccccc; stroke-linejoin: miter"/>
    </g>
    <g id="text_14">
     <!-- Strategy -->
     <g style="fill: #262626" transform="translate(325.02875 180.186687) scale(0.12 -0.12)">
      <defs>
       <path id="DejaVuSans-53" d="M 3425 4513 
L 3425 3897 
Q 3066 4069 2747 4153 
Q 2428 4238 2131 4238 
Q 1616 4238 1336 4038 
Q 1056 3838 1056 3469 
Q 1056 3159 1242 3001 
Q 1428 2844 1947 2747 
L 2328 2669 
Q 3034 2534 3370 2195 
Q 3706 1856 3706 1288 
Q 3706 609 3251 259 
Q 2797 -91 1919 -91 
Q 1588 -91 1214 -16 
Q 841 59 441 206 
L 441 856 
Q 825 641 1194 531 
Q 1563 422 1919 422 
Q 2459 422 2753 634 
Q 3047 847 3047 1241 
Q 3047 1584 2836 1778 
Q 2625 1972 2144 2069 
L 1759 2144 
Q 1053 2284 737 2584 
Q 422 2884 422 3419 
Q 422 4038 858 4394 
Q 1294 4750 2059 4750 
Q 2388 4750 2728 4690 
Q 3069 4631 3425 4513 
z
" transform="scale(0.015625)"/>
       <path id="DejaVuSans-74" d="M 1172 4494 
L 1172 3500 
L 2356 3500 
L 2356 3053 
L 1172 3053 
L 1172 1153 
Q 1172 725 1289 603 
Q 1406 481 1766 481 
L 2356 481 
L 2356 0 
L 1766 0 
Q 1100 0 847 248 
Q 594 497 594 1153 
L 594 3053 
L 172 3053 
L 172 3500 
L 594 3500 
L 594 4494 
L 1172 4494 
z
" transform="scale(0.015625)"/>
       <path id="DejaVuSans-65" d="M 3597 1894 
L 3597 1613 
L 953 1613 
Q 991 1019 1311 708 
Q 1631 397 2203 397 
Q 2534 397 2845 478 
Q 3156 559 3463 722 
L 3463 178 
Q 3153 47 2828 -22 
Q 2503 -91 2169 -91 
Q 1331 -91 842 396 
Q 353 884 353 1716 
Q 353 2575 817 3079 
Q 1281 3584 2069 3584 
Q 2775 3584 3186 3129 
Q 3597 2675 3597 1894 
z
M 3022 2063 
Q 3016 2534 2758 2815 
Q 2500 3097 2075 3097 
Q 1594 3097 1305 2825 
Q 1016 2553 972 2059 
L 3022 2063 
z
" transform="scale(0.015625)"/>
       <path id="DejaVuSans-67" d="M 2906 1791 
Q 2906 2416 2648 2759 
Q 2391 3103 1925 3103 
Q 1463 3103 1205 2759 
Q 947 2416 947 1791 
Q 947 1169 1205 825 
Q 1463 481 1925 481 
Q 2391 481 2648 825 
Q 2906 1169 2906 1791 
z
M 3481 434 
Q 3481 -459 3084 -895 
Q 2688 -1331 1869 -1331 
Q 1566 -1331 1297 -1286 
Q 1028 -1241 775 -1147 
L 775 -588 
Q 1028 -725 1275 -790 
Q 1522 -856 1778 -856 
Q 2344 -856 2625 -561 
Q 2906 -266 2906 331 
L 2906 616 
Q 2728 306 2450 153 
Q 2172 0 1784 0 
Q 1141 0 747 490 
Q 353 981 353 1791 
Q 353 2603 747 3093 
Q 1141 3584 1784 3584 
Q 2172 3584 2450 3431 
Q 2728 3278 2906 2969 
L 2906 3500 
L 3481 3500 
L 3481 434 
z
" transform="scale(0.015625)"/>
      </defs>
      <use xlink:href="#DejaVuSans-53"/>
      <use xlink:href="#DejaVuSans-74" x="63.476562"/>
      <use xlink:href="#DejaVuSans-72" x="102.685547"/>
      <use xlink:href="#DejaVuSans-61" x="143.798828"/>
      <use xlink:href="#DejaVuSans-74" x="205.078125"/>
      <use xlink:href="#DejaVuSans-65" x="244.287109"/>
      <use xlink:href="#DejaVuSans-67" x="305.810547"/>
      <use xlink:href="#DejaVuSans-79" x="369.287109"/>
     </g>
    </g>
    <g id="line2d_22">
     <path d="M 300.945625 192.690594 
L 311.945625 192.690594 
L 322.945625 192.690594 
" style="fill: none; stroke: #4c72b0; stroke-width: 1.5; stroke-linecap: round"/>
    </g>
    <g id="text_15">
     <!-- FedPredict -->
     <g style="fill: #262626" transform="translate(331.745625 196.540594) scale(0.11 -0.11)">
      <defs>
       <path id="DejaVuSans-46" d="M 628 4666 
L 3309 4666 
L 3309 4134 
L 1259 4134 
L 1259 2759 
L 3109 2759 
L 3109 2228 
L 1259 2228 
L 1259 0 
L 628 0 
L 628 4666 
z
" transform="scale(0.015625)"/>
       <path id="DejaVuSans-50" d="M 1259 4147 
L 1259 2394 
L 2053 2394 
Q 2494 2394 2734 2622 
Q 2975 2850 2975 3272 
Q 2975 3691 2734 3919 
Q 2494 4147 2053 4147 
L 1259 4147 
z
M 628 4666 
L 2053 4666 
Q 2838 4666 3239 4311 
Q 3641 3956 3641 3272 
Q 3641 2581 3239 2228 
Q 2838 1875 2053 1875 
L 1259 1875 
L 1259 0 
L 628 0 
L 628 4666 
z
" transform="scale(0.015625)"/>
       <path id="DejaVuSans-69" d="M 603 3500 
L 1178 3500 
L 1178 0 
L 603 0 
L 603 3500 
z
M 603 4863 
L 1178 4863 
L 1178 4134 
L 603 4134 
L 603 4863 
z
" transform="scale(0.015625)"/>
      </defs>
      <use xlink:href="#DejaVuSans-46"/>
      <use xlink:href="#DejaVuSans-65" x="52.019531"/>
      <use xlink:href="#DejaVuSans-64" x="113.542969"/>
      <use xlink:href="#DejaVuSans-50" x="177.019531"/>
      <use xlink:href="#DejaVuSans-72" x="235.572266"/>
      <use xlink:href="#DejaVuSans-65" x="274.435547"/>
      <use xlink:href="#DejaVuSans-64" x="335.958984"/>
      <use xlink:href="#DejaVuSans-69" x="399.435547"/>
      <use xlink:href="#DejaVuSans-63" x="427.21875"/>
      <use xlink:href="#DejaVuSans-74" x="482.199219"/>
     </g>
    </g>
    <g id="line2d_23">
     <path d="M 300.945625 208.836531 
L 311.945625 208.836531 
L 322.945625 208.836531 
" style="fill: none; stroke: #dd8452; stroke-width: 1.5; stroke-linecap: round"/>
    </g>
    <g id="text_16">
     <!-- FedAVG -->
     <g style="fill: #262626" transform="translate(331.745625 212.686531) scale(0.11 -0.11)">
      <defs>
       <path id="DejaVuSans-56" d="M 1831 0 
L 50 4666 
L 709 4666 
L 2188 738 
L 3669 4666 
L 4325 4666 
L 2547 0 
L 1831 0 
z
" transform="scale(0.015625)"/>
       <path id="DejaVuSans-47" d="M 3809 666 
L 3809 1919 
L 2778 1919 
L 2778 2438 
L 4434 2438 
L 4434 434 
Q 4069 175 3628 42 
Q 3188 -91 2688 -91 
Q 1594 -91 976 548 
Q 359 1188 359 2328 
Q 359 3472 976 4111 
Q 1594 4750 2688 4750 
Q 3144 4750 3555 4637 
Q 3966 4525 4313 4306 
L 4313 3634 
Q 3963 3931 3569 4081 
Q 3175 4231 2741 4231 
Q 1884 4231 1454 3753 
Q 1025 3275 1025 2328 
Q 1025 1384 1454 906 
Q 1884 428 2741 428 
Q 3075 428 3337 486 
Q 3600 544 3809 666 
z
" transform="scale(0.015625)"/>
      </defs>
      <use xlink:href="#DejaVuSans-46"/>
      <use xlink:href="#DejaVuSans-65" x="52.019531"/>
      <use xlink:href="#DejaVuSans-64" x="113.542969"/>
      <use xlink:href="#DejaVuSans-41" x="177.019531"/>
      <use xlink:href="#DejaVuSans-56" x="239.052734"/>
      <use xlink:href="#DejaVuSans-47" x="307.460938"/>
     </g>
    </g>
    <g id="line2d_24">
     <path d="M 300.945625 224.982469 
L 311.945625 224.982469 
L 322.945625 224.982469 
" style="fill: none; stroke: #55a868; stroke-width: 1.5; stroke-linecap: round"/>
    </g>
    <g id="text_17">
     <!-- FedClassAvg -->
     <g style="fill: #262626" transform="translate(331.745625 228.832469) scale(0.11 -0.11)">
      <defs>
       <path id="DejaVuSans-43" d="M 4122 4306 
L 4122 3641 
Q 3803 3938 3442 4084 
Q 3081 4231 2675 4231 
Q 1875 4231 1450 3742 
Q 1025 3253 1025 2328 
Q 1025 1406 1450 917 
Q 1875 428 2675 428 
Q 3081 428 3442 575 
Q 3803 722 4122 1019 
L 4122 359 
Q 3791 134 3420 21 
Q 3050 -91 2638 -91 
Q 1578 -91 968 557 
Q 359 1206 359 2328 
Q 359 3453 968 4101 
Q 1578 4750 2638 4750 
Q 3056 4750 3426 4639 
Q 3797 4528 4122 4306 
z
" transform="scale(0.015625)"/>
       <path id="DejaVuSans-6c" d="M 603 4863 
L 1178 4863 
L 1178 0 
L 603 0 
L 603 4863 
z
" transform="scale(0.015625)"/>
       <path id="DejaVuSans-73" d="M 2834 3397 
L 2834 2853 
Q 2591 2978 2328 3040 
Q 2066 3103 1784 3103 
Q 1356 3103 1142 2972 
Q 928 2841 928 2578 
Q 928 2378 1081 2264 
Q 1234 2150 1697 2047 
L 1894 2003 
Q 2506 1872 2764 1633 
Q 3022 1394 3022 966 
Q 3022 478 2636 193 
Q 2250 -91 1575 -91 
Q 1294 -91 989 -36 
Q 684 19 347 128 
L 347 722 
Q 666 556 975 473 
Q 1284 391 1588 391 
Q 1994 391 2212 530 
Q 2431 669 2431 922 
Q 2431 1156 2273 1281 
Q 2116 1406 1581 1522 
L 1381 1569 
Q 847 1681 609 1914 
Q 372 2147 372 2553 
Q 372 3047 722 3315 
Q 1072 3584 1716 3584 
Q 2034 3584 2315 3537 
Q 2597 3491 2834 3397 
z
" transform="scale(0.015625)"/>
       <path id="DejaVuSans-76" d="M 191 3500 
L 800 3500 
L 1894 563 
L 2988 3500 
L 3597 3500 
L 2284 0 
L 1503 0 
L 191 3500 
z
" transform="scale(0.015625)"/>
      </defs>
      <use xlink:href="#DejaVuSans-46"/>
      <use xlink:href="#DejaVuSans-65" x="52.019531"/>
      <use xlink:href="#DejaVuSans-64" x="113.542969"/>
      <use xlink:href="#DejaVuSans-43" x="177.019531"/>
      <use xlink:href="#DejaVuSans-6c" x="246.84375"/>
      <use xlink:href="#DejaVuSans-61" x="274.626953"/>
      <use xlink:href="#DejaVuSans-73" x="335.90625"/>
      <use xlink:href="#DejaVuSans-73" x="388.005859"/>
      <use xlink:href="#DejaVuSans-41" x="440.105469"/>
      <use xlink:href="#DejaVuSans-76" x="502.638672"/>
      <use xlink:href="#DejaVuSans-67" x="561.818359"/>
     </g>
    </g>
    <g id="line2d_25">
     <path d="M 300.945625 241.128406 
L 311.945625 241.128406 
L 322.945625 241.128406 
" style="fill: none; stroke: #c44e52; stroke-width: 1.5; stroke-linecap: round"/>
    </g>
    <g id="text_18">
     <!-- FedPer -->
     <g style="fill: #262626" transform="translate(331.745625 244.978406) scale(0.11 -0.11)">
      <use xlink:href="#DejaVuSans-46"/>
      <use xlink:href="#DejaVuSans-65" x="52.019531"/>
      <use xlink:href="#DejaVuSans-64" x="113.542969"/>
      <use xlink:href="#DejaVuSans-50" x="177.019531"/>
      <use xlink:href="#DejaVuSans-65" x="233.697266"/>
      <use xlink:href="#DejaVuSans-72" x="295.220703"/>
     </g>
    </g>
    <g id="line2d_26">
     <path d="M 300.945625 257.274344 
L 311.945625 257.274344 
L 322.945625 257.274344 
" style="fill: none; stroke: #8172b3; stroke-width: 1.5; stroke-linecap: round"/>
    </g>
    <g id="text_19">
     <!-- FedProto -->
     <g style="fill: #262626" transform="translate(331.745625 261.124344) scale(0.11 -0.11)">
      <use xlink:href="#DejaVuSans-46"/>
      <use xlink:href="#DejaVuSans-65" x="52.019531"/>
      <use xlink:href="#DejaVuSans-64" x="113.542969"/>
      <use xlink:href="#DejaVuSans-50" x="177.019531"/>
      <use xlink:href="#DejaVuSans-72" x="235.572266"/>
      <use xlink:href="#DejaVuSans-6f" x="274.435547"/>
      <use xlink:href="#DejaVuSans-74" x="335.617188"/>
      <use xlink:href="#DejaVuSans-6f" x="374.826172"/>
     </g>
    </g>
   </g>
  </g>
 </g>
 <defs>
  <clipPath id="pe6d2caccd7">
   <rect x="53.31" y="7.2" width="357.12" height="266.112"/>
  </clipPath>
 </defs>
</svg>
