<?xml version="1.0" encoding="utf-8" standalone="no"?>
<!DOCTYPE svg PUBLIC "-//W3C//DTD SVG 1.1//EN"
  "http://www.w3.org/Graphics/SVG/1.1/DTD/svg11.dtd">
<svg xmlns:xlink="http://www.w3.org/1999/xlink" width="410.63125pt" height="316.271687pt" viewBox="0 0 410.63125 316.271687" xmlns="http://www.w3.org/2000/svg" version="1.1">
 <metadata>
  <rdf:RDF xmlns:dc="http://purl.org/dc/elements/1.1/" xmlns:cc="http://creativecommons.org/ns#" xmlns:rdf="http://www.w3.org/1999/02/22-rdf-syntax-ns#">
   <cc:Work>
    <dc:type rdf:resource="http://purl.org/dc/dcmitype/StillImage"/>
    <dc:date>2023-03-01T12:56:41.383198</dc:date>
    <dc:format>image/svg+xml</dc:format>
    <dc:creator>
     <cc:Agent>
      <dc:title>Matplotlib v3.6.3, https://matplotlib.org/</dc:title>
     </cc:Agent>
    </dc:creator>
   </cc:Work>
  </rdf:RDF>
 </metadata>
 <defs>
  <style type="text/css">*{stroke-linejoin: round; stroke-linecap: butt}</style>
 </defs>
 <g id="figure_1">
  <g id="patch_1">
   <path d="M 0 316.271687 
L 410.63125 316.271687 
L 410.63125 0 
L 0 0 
z
" style="fill: #ffffff"/>
  </g>
  <g id="axes_1">
   <g id="patch_2">
    <path d="M 46.31125 273.312 
L 403.43125 273.312 
L 403.43125 7.2 
L 46.31125 7.2 
z
" style="fill: #ffffff"/>
   </g>
   <g id="matplotlib.axis_1">
    <g id="xtick_1">
     <g id="line2d_1">
      <path d="M 59.264638 273.312 
L 59.264638 7.2 
" clip-path="url(#p35e613dfef)" style="fill: none; stroke: #cccccc; stroke-linecap: round"/>
     </g>
     <g id="text_1">
      <!-- 0 -->
      <g style="fill: #262626" transform="translate(55.765263 291.170281) scale(0.11 -0.11)">
       <defs>
        <path id="DejaVuSans-30" d="M 2034 4250 
Q 1547 4250 1301 3770 
Q 1056 3291 1056 2328 
Q 1056 1369 1301 889 
Q 1547 409 2034 409 
Q 2525 409 2770 889 
Q 3016 1369 3016 2328 
Q 3016 3291 2770 3770 
Q 2525 4250 2034 4250 
z
M 2034 4750 
Q 2819 4750 3233 4129 
Q 3647 3509 3647 2328 
Q 3647 1150 3233 529 
Q 2819 -91 2034 -91 
Q 1250 -91 836 529 
Q 422 1150 422 2328 
Q 422 3509 836 4129 
Q 1250 4750 2034 4750 
z
" transform="scale(0.015625)"/>
       </defs>
       <use xlink:href="#DejaVuSans-30"/>
      </g>
     </g>
    </g>
    <g id="xtick_2">
     <g id="line2d_2">
      <path d="M 124.851415 273.312 
L 124.851415 7.2 
" clip-path="url(#p35e613dfef)" style="fill: none; stroke: #cccccc; stroke-linecap: round"/>
     </g>
     <g id="text_2">
      <!-- 20 -->
      <g style="fill: #262626" transform="translate(117.852665 291.170281) scale(0.11 -0.11)">
       <defs>
        <path id="DejaVuSans-32" d="M 1228 531 
L 3431 531 
L 3431 0 
L 469 0 
L 469 531 
Q 828 903 1448 1529 
Q 2069 2156 2228 2338 
Q 2531 2678 2651 2914 
Q 2772 3150 2772 3378 
Q 2772 3750 2511 3984 
Q 2250 4219 1831 4219 
Q 1534 4219 1204 4116 
Q 875 4013 500 3803 
L 500 4441 
Q 881 4594 1212 4672 
Q 1544 4750 1819 4750 
Q 2544 4750 2975 4387 
Q 3406 4025 3406 3419 
Q 3406 3131 3298 2873 
Q 3191 2616 2906 2266 
Q 2828 2175 2409 1742 
Q 1991 1309 1228 531 
z
" transform="scale(0.015625)"/>
       </defs>
       <use xlink:href="#DejaVuSans-32"/>
       <use xlink:href="#DejaVuSans-30" x="63.623047"/>
      </g>
     </g>
    </g>
    <g id="xtick_3">
     <g id="line2d_3">
      <path d="M 190.438192 273.312 
L 190.438192 7.2 
" clip-path="url(#p35e613dfef)" style="fill: none; stroke: #cccccc; stroke-linecap: round"/>
     </g>
     <g id="text_3">
      <!-- 40 -->
      <g style="fill: #262626" transform="translate(183.439442 291.170281) scale(0.11 -0.11)">
       <defs>
        <path id="DejaVuSans-34" d="M 2419 4116 
L 825 1625 
L 2419 1625 
L 2419 4116 
z
M 2253 4666 
L 3047 4666 
L 3047 1625 
L 3713 1625 
L 3713 1100 
L 3047 1100 
L 3047 0 
L 2419 0 
L 2419 1100 
L 313 1100 
L 313 1709 
L 2253 4666 
z
" transform="scale(0.015625)"/>
       </defs>
       <use xlink:href="#DejaVuSans-34"/>
       <use xlink:href="#DejaVuSans-30" x="63.623047"/>
      </g>
     </g>
    </g>
    <g id="xtick_4">
     <g id="line2d_4">
      <path d="M 256.024969 273.312 
L 256.024969 7.2 
" clip-path="url(#p35e613dfef)" style="fill: none; stroke: #cccccc; stroke-linecap: round"/>
     </g>
     <g id="text_4">
      <!-- 60 -->
      <g style="fill: #262626" transform="translate(249.026219 291.170281) scale(0.11 -0.11)">
       <defs>
        <path id="DejaVuSans-36" d="M 2113 2584 
Q 1688 2584 1439 2293 
Q 1191 2003 1191 1497 
Q 1191 994 1439 701 
Q 1688 409 2113 409 
Q 2538 409 2786 701 
Q 3034 994 3034 1497 
Q 3034 2003 2786 2293 
Q 2538 2584 2113 2584 
z
M 3366 4563 
L 3366 3988 
Q 3128 4100 2886 4159 
Q 2644 4219 2406 4219 
Q 1781 4219 1451 3797 
Q 1122 3375 1075 2522 
Q 1259 2794 1537 2939 
Q 1816 3084 2150 3084 
Q 2853 3084 3261 2657 
Q 3669 2231 3669 1497 
Q 3669 778 3244 343 
Q 2819 -91 2113 -91 
Q 1303 -91 875 529 
Q 447 1150 447 2328 
Q 447 3434 972 4092 
Q 1497 4750 2381 4750 
Q 2619 4750 2861 4703 
Q 3103 4656 3366 4563 
z
" transform="scale(0.015625)"/>
       </defs>
       <use xlink:href="#DejaVuSans-36"/>
       <use xlink:href="#DejaVuSans-30" x="63.623047"/>
      </g>
     </g>
    </g>
    <g id="xtick_5">
     <g id="line2d_5">
      <path d="M 321.611746 273.312 
L 321.611746 7.2 
" clip-path="url(#p35e613dfef)" style="fill: none; stroke: #cccccc; stroke-linecap: round"/>
     </g>
     <g id="text_5">
      <!-- 80 -->
      <g style="fill: #262626" transform="translate(314.612996 291.170281) scale(0.11 -0.11)">
       <defs>
        <path id="DejaVuSans-38" d="M 2034 2216 
Q 1584 2216 1326 1975 
Q 1069 1734 1069 1313 
Q 1069 891 1326 650 
Q 1584 409 2034 409 
Q 2484 409 2743 651 
Q 3003 894 3003 1313 
Q 3003 1734 2745 1975 
Q 2488 2216 2034 2216 
z
M 1403 2484 
Q 997 2584 770 2862 
Q 544 3141 544 3541 
Q 544 4100 942 4425 
Q 1341 4750 2034 4750 
Q 2731 4750 3128 4425 
Q 3525 4100 3525 3541 
Q 3525 3141 3298 2862 
Q 3072 2584 2669 2484 
Q 3125 2378 3379 2068 
Q 3634 1759 3634 1313 
Q 3634 634 3220 271 
Q 2806 -91 2034 -91 
Q 1263 -91 848 271 
Q 434 634 434 1313 
Q 434 1759 690 2068 
Q 947 2378 1403 2484 
z
M 1172 3481 
Q 1172 3119 1398 2916 
Q 1625 2713 2034 2713 
Q 2441 2713 2670 2916 
Q 2900 3119 2900 3481 
Q 2900 3844 2670 4047 
Q 2441 4250 2034 4250 
Q 1625 4250 1398 4047 
Q 1172 3844 1172 3481 
z
" transform="scale(0.015625)"/>
       </defs>
       <use xlink:href="#DejaVuSans-38"/>
       <use xlink:href="#DejaVuSans-30" x="63.623047"/>
      </g>
     </g>
    </g>
    <g id="xtick_6">
     <g id="line2d_6">
      <path d="M 387.198523 273.312 
L 387.198523 7.2 
" clip-path="url(#p35e613dfef)" style="fill: none; stroke: #cccccc; stroke-linecap: round"/>
     </g>
     <g id="text_6">
      <!-- 100 -->
      <g style="fill: #262626" transform="translate(376.700398 291.170281) scale(0.11 -0.11)">
       <defs>
        <path id="DejaVuSans-31" d="M 794 531 
L 1825 531 
L 1825 4091 
L 703 3866 
L 703 4441 
L 1819 4666 
L 2450 4666 
L 2450 531 
L 3481 531 
L 3481 0 
L 794 0 
L 794 531 
z
" transform="scale(0.015625)"/>
       </defs>
       <use xlink:href="#DejaVuSans-31"/>
       <use xlink:href="#DejaVuSans-30" x="63.623047"/>
       <use xlink:href="#DejaVuSans-30" x="127.246094"/>
      </g>
     </g>
    </g>
    <g id="text_7">
     <!-- Server round -->
     <g style="fill: #262626" transform="translate(185.870313 306.576062) scale(0.12 -0.12)">
      <defs>
       <path id="DejaVuSans-53" d="M 3425 4513 
L 3425 3897 
Q 3066 4069 2747 4153 
Q 2428 4238 2131 4238 
Q 1616 4238 1336 4038 
Q 1056 3838 1056 3469 
Q 1056 3159 1242 3001 
Q 1428 2844 1947 2747 
L 2328 2669 
Q 3034 2534 3370 2195 
Q 3706 1856 3706 1288 
Q 3706 609 3251 259 
Q 2797 -91 1919 -91 
Q 1588 -91 1214 -16 
Q 841 59 441 206 
L 441 856 
Q 825 641 1194 531 
Q 1563 422 1919 422 
Q 2459 422 2753 634 
Q 3047 847 3047 1241 
Q 3047 1584 2836 1778 
Q 2625 1972 2144 2069 
L 1759 2144 
Q 1053 2284 737 2584 
Q 422 2884 422 3419 
Q 422 4038 858 4394 
Q 1294 4750 2059 4750 
Q 2388 4750 2728 4690 
Q 3069 4631 3425 4513 
z
" transform="scale(0.015625)"/>
       <path id="DejaVuSans-65" d="M 3597 1894 
L 3597 1613 
L 953 1613 
Q 991 1019 1311 708 
Q 1631 397 2203 397 
Q 2534 397 2845 478 
Q 3156 559 3463 722 
L 3463 178 
Q 3153 47 2828 -22 
Q 2503 -91 2169 -91 
Q 1331 -91 842 396 
Q 353 884 353 1716 
Q 353 2575 817 3079 
Q 1281 3584 2069 3584 
Q 2775 3584 3186 3129 
Q 3597 2675 3597 1894 
z
M 3022 2063 
Q 3016 2534 2758 2815 
Q 2500 3097 2075 3097 
Q 1594 3097 1305 2825 
Q 1016 2553 972 2059 
L 3022 2063 
z
" transform="scale(0.015625)"/>
       <path id="DejaVuSans-72" d="M 2631 2963 
Q 2534 3019 2420 3045 
Q 2306 3072 2169 3072 
Q 1681 3072 1420 2755 
Q 1159 2438 1159 1844 
L 1159 0 
L 581 0 
L 581 3500 
L 1159 3500 
L 1159 2956 
Q 1341 3275 1631 3429 
Q 1922 3584 2338 3584 
Q 2397 3584 2469 3576 
Q 2541 3569 2628 3553 
L 2631 2963 
z
" transform="scale(0.015625)"/>
       <path id="DejaVuSans-76" d="M 191 3500 
L 800 3500 
L 1894 563 
L 2988 3500 
L 3597 3500 
L 2284 0 
L 1503 0 
L 191 3500 
z
" transform="scale(0.015625)"/>
       <path id="DejaVuSans-20" transform="scale(0.015625)"/>
       <path id="DejaVuSans-6f" d="M 1959 3097 
Q 1497 3097 1228 2736 
Q 959 2375 959 1747 
Q 959 1119 1226 758 
Q 1494 397 1959 397 
Q 2419 397 2687 759 
Q 2956 1122 2956 1747 
Q 2956 2369 2687 2733 
Q 2419 3097 1959 3097 
z
M 1959 3584 
Q 2709 3584 3137 3096 
Q 3566 2609 3566 1747 
Q 3566 888 3137 398 
Q 2709 -91 1959 -91 
Q 1206 -91 779 398 
Q 353 888 353 1747 
Q 353 2609 779 3096 
Q 1206 3584 1959 3584 
z
" transform="scale(0.015625)"/>
       <path id="DejaVuSans-75" d="M 544 1381 
L 544 3500 
L 1119 3500 
L 1119 1403 
Q 1119 906 1312 657 
Q 1506 409 1894 409 
Q 2359 409 2629 706 
Q 2900 1003 2900 1516 
L 2900 3500 
L 3475 3500 
L 3475 0 
L 2900 0 
L 2900 538 
Q 2691 219 2414 64 
Q 2138 -91 1772 -91 
Q 1169 -91 856 284 
Q 544 659 544 1381 
z
M 1991 3584 
L 1991 3584 
z
" transform="scale(0.015625)"/>
       <path id="DejaVuSans-6e" d="M 3513 2113 
L 3513 0 
L 2938 0 
L 2938 2094 
Q 2938 2591 2744 2837 
Q 2550 3084 2163 3084 
Q 1697 3084 1428 2787 
Q 1159 2491 1159 1978 
L 1159 0 
L 581 0 
L 581 3500 
L 1159 3500 
L 1159 2956 
Q 1366 3272 1645 3428 
Q 1925 3584 2291 3584 
Q 2894 3584 3203 3211 
Q 3513 2838 3513 2113 
z
" transform="scale(0.015625)"/>
       <path id="DejaVuSans-64" d="M 2906 2969 
L 2906 4863 
L 3481 4863 
L 3481 0 
L 2906 0 
L 2906 525 
Q 2725 213 2448 61 
Q 2172 -91 1784 -91 
Q 1150 -91 751 415 
Q 353 922 353 1747 
Q 353 2572 751 3078 
Q 1150 3584 1784 3584 
Q 2172 3584 2448 3432 
Q 2725 3281 2906 2969 
z
M 947 1747 
Q 947 1113 1208 752 
Q 1469 391 1925 391 
Q 2381 391 2643 752 
Q 2906 1113 2906 1747 
Q 2906 2381 2643 2742 
Q 2381 3103 1925 3103 
Q 1469 3103 1208 2742 
Q 947 2381 947 1747 
z
" transform="scale(0.015625)"/>
      </defs>
      <use xlink:href="#DejaVuSans-53"/>
      <use xlink:href="#DejaVuSans-65" x="63.476562"/>
      <use xlink:href="#DejaVuSans-72" x="125"/>
      <use xlink:href="#DejaVuSans-76" x="166.113281"/>
      <use xlink:href="#DejaVuSans-65" x="225.292969"/>
      <use xlink:href="#DejaVuSans-72" x="286.816406"/>
      <use xlink:href="#DejaVuSans-20" x="327.929688"/>
      <use xlink:href="#DejaVuSans-72" x="359.716797"/>
      <use xlink:href="#DejaVuSans-6f" x="398.580078"/>
      <use xlink:href="#DejaVuSans-75" x="459.761719"/>
      <use xlink:href="#DejaVuSans-6e" x="523.140625"/>
      <use xlink:href="#DejaVuSans-64" x="586.519531"/>
     </g>
    </g>
   </g>
   <g id="matplotlib.axis_2">
    <g id="ytick_1">
     <g id="line2d_7">
      <path d="M 46.31125 237.348373 
L 403.43125 237.348373 
" clip-path="url(#p35e613dfef)" style="fill: none; stroke: #cccccc; stroke-linecap: round"/>
     </g>
     <g id="text_8">
      <!-- 6 -->
      <g style="fill: #262626" transform="translate(29.8125 241.527514) scale(0.11 -0.11)">
       <use xlink:href="#DejaVuSans-36"/>
      </g>
     </g>
    </g>
    <g id="ytick_2">
     <g id="line2d_8">
      <path d="M 46.31125 200.838161 
L 403.43125 200.838161 
" clip-path="url(#p35e613dfef)" style="fill: none; stroke: #cccccc; stroke-linecap: round"/>
     </g>
     <g id="text_9">
      <!-- 7 -->
      <g style="fill: #262626" transform="translate(29.8125 205.017301) scale(0.11 -0.11)">
       <defs>
        <path id="DejaVuSans-37" d="M 525 4666 
L 3525 4666 
L 3525 4397 
L 1831 0 
L 1172 0 
L 2766 4134 
L 525 4134 
L 525 4666 
z
" transform="scale(0.015625)"/>
       </defs>
       <use xlink:href="#DejaVuSans-37"/>
      </g>
     </g>
    </g>
    <g id="ytick_3">
     <g id="line2d_9">
      <path d="M 46.31125 164.327948 
L 403.43125 164.327948 
" clip-path="url(#p35e613dfef)" style="fill: none; stroke: #cccccc; stroke-linecap: round"/>
     </g>
     <g id="text_10">
      <!-- 8 -->
      <g style="fill: #262626" transform="translate(29.8125 168.507089) scale(0.11 -0.11)">
       <use xlink:href="#DejaVuSans-38"/>
      </g>
     </g>
    </g>
    <g id="ytick_4">
     <g id="line2d_10">
      <path d="M 46.31125 127.817735 
L 403.43125 127.817735 
" clip-path="url(#p35e613dfef)" style="fill: none; stroke: #cccccc; stroke-linecap: round"/>
     </g>
     <g id="text_11">
      <!-- 9 -->
      <g style="fill: #262626" transform="translate(29.8125 131.996876) scale(0.11 -0.11)">
       <defs>
        <path id="DejaVuSans-39" d="M 703 97 
L 703 672 
Q 941 559 1184 500 
Q 1428 441 1663 441 
Q 2288 441 2617 861 
Q 2947 1281 2994 2138 
Q 2813 1869 2534 1725 
Q 2256 1581 1919 1581 
Q 1219 1581 811 2004 
Q 403 2428 403 3163 
Q 403 3881 828 4315 
Q 1253 4750 1959 4750 
Q 2769 4750 3195 4129 
Q 3622 3509 3622 2328 
Q 3622 1225 3098 567 
Q 2575 -91 1691 -91 
Q 1453 -91 1209 -44 
Q 966 3 703 97 
z
M 1959 2075 
Q 2384 2075 2632 2365 
Q 2881 2656 2881 3163 
Q 2881 3666 2632 3958 
Q 2384 4250 1959 4250 
Q 1534 4250 1286 3958 
Q 1038 3666 1038 3163 
Q 1038 2656 1286 2365 
Q 1534 2075 1959 2075 
z
" transform="scale(0.015625)"/>
       </defs>
       <use xlink:href="#DejaVuSans-39"/>
      </g>
     </g>
    </g>
    <g id="ytick_5">
     <g id="line2d_11">
      <path d="M 46.31125 91.307523 
L 403.43125 91.307523 
" clip-path="url(#p35e613dfef)" style="fill: none; stroke: #cccccc; stroke-linecap: round"/>
     </g>
     <g id="text_12">
      <!-- 10 -->
      <g style="fill: #262626" transform="translate(22.81375 95.486663) scale(0.11 -0.11)">
       <use xlink:href="#DejaVuSans-31"/>
       <use xlink:href="#DejaVuSans-30" x="63.623047"/>
      </g>
     </g>
    </g>
    <g id="ytick_6">
     <g id="line2d_12">
      <path d="M 46.31125 54.79731 
L 403.43125 54.79731 
" clip-path="url(#p35e613dfef)" style="fill: none; stroke: #cccccc; stroke-linecap: round"/>
     </g>
     <g id="text_13">
      <!-- 11 -->
      <g style="fill: #262626" transform="translate(22.81375 58.976451) scale(0.11 -0.11)">
       <use xlink:href="#DejaVuSans-31"/>
       <use xlink:href="#DejaVuSans-31" x="63.623047"/>
      </g>
     </g>
    </g>
    <g id="ytick_7">
     <g id="line2d_13">
      <path d="M 46.31125 18.287098 
L 403.43125 18.287098 
" clip-path="url(#p35e613dfef)" style="fill: none; stroke: #cccccc; stroke-linecap: round"/>
     </g>
     <g id="text_14">
      <!-- 12 -->
      <g style="fill: #262626" transform="translate(22.81375 22.466238) scale(0.11 -0.11)">
       <use xlink:href="#DejaVuSans-31"/>
       <use xlink:href="#DejaVuSans-32" x="63.623047"/>
      </g>
     </g>
    </g>
    <g id="text_15">
     <!-- Time (seconds) -->
     <g style="fill: #262626" transform="translate(16.318125 186.050062) rotate(-90) scale(0.12 -0.12)">
      <defs>
       <path id="DejaVuSans-54" d="M -19 4666 
L 3928 4666 
L 3928 4134 
L 2272 4134 
L 2272 0 
L 1638 0 
L 1638 4134 
L -19 4134 
L -19 4666 
z
" transform="scale(0.015625)"/>
       <path id="DejaVuSans-69" d="M 603 3500 
L 1178 3500 
L 1178 0 
L 603 0 
L 603 3500 
z
M 603 4863 
L 1178 4863 
L 1178 4134 
L 603 4134 
L 603 4863 
z
" transform="scale(0.015625)"/>
       <path id="DejaVuSans-6d" d="M 3328 2828 
Q 3544 3216 3844 3400 
Q 4144 3584 4550 3584 
Q 5097 3584 5394 3201 
Q 5691 2819 5691 2113 
L 5691 0 
L 5113 0 
L 5113 2094 
Q 5113 2597 4934 2840 
Q 4756 3084 4391 3084 
Q 3944 3084 3684 2787 
Q 3425 2491 3425 1978 
L 3425 0 
L 2847 0 
L 2847 2094 
Q 2847 2600 2669 2842 
Q 2491 3084 2119 3084 
Q 1678 3084 1418 2786 
Q 1159 2488 1159 1978 
L 1159 0 
L 581 0 
L 581 3500 
L 1159 3500 
L 1159 2956 
Q 1356 3278 1631 3431 
Q 1906 3584 2284 3584 
Q 2666 3584 2933 3390 
Q 3200 3197 3328 2828 
z
" transform="scale(0.015625)"/>
       <path id="DejaVuSans-28" d="M 1984 4856 
Q 1566 4138 1362 3434 
Q 1159 2731 1159 2009 
Q 1159 1288 1364 580 
Q 1569 -128 1984 -844 
L 1484 -844 
Q 1016 -109 783 600 
Q 550 1309 550 2009 
Q 550 2706 781 3412 
Q 1013 4119 1484 4856 
L 1984 4856 
z
" transform="scale(0.015625)"/>
       <path id="DejaVuSans-73" d="M 2834 3397 
L 2834 2853 
Q 2591 2978 2328 3040 
Q 2066 3103 1784 3103 
Q 1356 3103 1142 2972 
Q 928 2841 928 2578 
Q 928 2378 1081 2264 
Q 1234 2150 1697 2047 
L 1894 2003 
Q 2506 1872 2764 1633 
Q 3022 1394 3022 966 
Q 3022 478 2636 193 
Q 2250 -91 1575 -91 
Q 1294 -91 989 -36 
Q 684 19 347 128 
L 347 722 
Q 666 556 975 473 
Q 1284 391 1588 391 
Q 1994 391 2212 530 
Q 2431 669 2431 922 
Q 2431 1156 2273 1281 
Q 2116 1406 1581 1522 
L 1381 1569 
Q 847 1681 609 1914 
Q 372 2147 372 2553 
Q 372 3047 722 3315 
Q 1072 3584 1716 3584 
Q 2034 3584 2315 3537 
Q 2597 3491 2834 3397 
z
" transform="scale(0.015625)"/>
       <path id="DejaVuSans-63" d="M 3122 3366 
L 3122 2828 
Q 2878 2963 2633 3030 
Q 2388 3097 2138 3097 
Q 1578 3097 1268 2742 
Q 959 2388 959 1747 
Q 959 1106 1268 751 
Q 1578 397 2138 397 
Q 2388 397 2633 464 
Q 2878 531 3122 666 
L 3122 134 
Q 2881 22 2623 -34 
Q 2366 -91 2075 -91 
Q 1284 -91 818 406 
Q 353 903 353 1747 
Q 353 2603 823 3093 
Q 1294 3584 2113 3584 
Q 2378 3584 2631 3529 
Q 2884 3475 3122 3366 
z
" transform="scale(0.015625)"/>
       <path id="DejaVuSans-29" d="M 513 4856 
L 1013 4856 
Q 1481 4119 1714 3412 
Q 1947 2706 1947 2009 
Q 1947 1309 1714 600 
Q 1481 -109 1013 -844 
L 513 -844 
Q 928 -128 1133 580 
Q 1338 1288 1338 2009 
Q 1338 2731 1133 3434 
Q 928 4138 513 4856 
z
" transform="scale(0.015625)"/>
      </defs>
      <use xlink:href="#DejaVuSans-54"/>
      <use xlink:href="#DejaVuSans-69" x="57.958984"/>
      <use xlink:href="#DejaVuSans-6d" x="85.742188"/>
      <use xlink:href="#DejaVuSans-65" x="183.154297"/>
      <use xlink:href="#DejaVuSans-20" x="244.677734"/>
      <use xlink:href="#DejaVuSans-28" x="276.464844"/>
      <use xlink:href="#DejaVuSans-73" x="315.478516"/>
      <use xlink:href="#DejaVuSans-65" x="367.578125"/>
      <use xlink:href="#DejaVuSans-63" x="429.101562"/>
      <use xlink:href="#DejaVuSans-6f" x="484.082031"/>
      <use xlink:href="#DejaVuSans-6e" x="545.263672"/>
      <use xlink:href="#DejaVuSans-64" x="608.642578"/>
      <use xlink:href="#DejaVuSans-73" x="672.119141"/>
      <use xlink:href="#DejaVuSans-29" x="724.21875"/>
     </g>
    </g>
   </g>
   <g id="PolyCollection_1"/>
   <g id="PolyCollection_2"/>
   <g id="PolyCollection_3"/>
   <g id="PolyCollection_4"/>
   <g id="PolyCollection_5"/>
   <g id="line2d_14">
    <path d="M 62.543977 60.134657 
L 65.823316 221.948926 
L 69.102655 227.737743 
L 72.381994 222.673237 
L 75.661333 222.798768 
L 78.940671 229.891368 
L 82.22001 208.987461 
L 85.499349 217.05491 
L 88.778688 223.352579 
L 92.058027 221.035262 
L 95.337366 219.749881 
L 98.616705 225.950361 
L 101.896043 225.055203 
L 105.175382 223.809167 
L 108.454721 227.724547 
L 111.73406 249.974925 
L 115.013399 229.007282 
L 118.292738 228.494679 
L 121.572076 217.428491 
L 124.851415 218.535121 
L 128.130754 217.144021 
L 131.410093 231.844714 
L 134.689432 214.620672 
L 137.968771 221.206484 
L 141.24811 219.395625 
L 144.527448 216.654128 
L 147.806787 214.770907 
L 151.086126 229.151554 
L 154.365465 231.074538 
L 157.644804 228.769626 
L 160.924143 220.76371 
L 164.203481 212.115665 
L 167.48282 222.822366 
L 170.762159 212.246732 
L 174.041498 220.094944 
L 177.320837 217.202899 
L 180.600176 218.539395 
L 183.879514 221.126235 
L 187.158853 223.613346 
L 190.438192 225.989576 
L 193.717531 232.789802 
L 196.99687 229.356089 
L 200.276209 223.699862 
L 203.555548 227.040078 
L 206.834886 235.632126 
L 210.114225 212.524125 
L 213.393564 222.82637 
L 216.672903 223.112294 
L 219.952242 215.604566 
L 223.231581 218.690378 
L 226.510919 216.375264 
L 229.790258 217.134254 
L 233.069597 216.771363 
L 236.348936 228.894878 
L 239.628275 216.786788 
L 242.907614 224.28676 
L 246.186952 217.298312 
L 249.466291 220.180312 
L 252.74563 221.691807 
L 256.024969 230.582687 
L 259.304308 225.759528 
L 262.583647 229.305619 
L 265.862986 212.760327 
L 269.142324 229.148847 
L 272.421663 220.004677 
L 275.701002 229.030576 
L 278.980341 238.700537 
L 282.25968 221.224659 
L 285.539019 222.104158 
L 288.818357 232.907246 
L 292.097696 203.612771 
L 295.377035 231.614152 
L 298.656374 210.852428 
L 301.935713 217.242497 
L 305.215052 215.243608 
L 308.49439 232.009947 
L 311.773729 226.513321 
L 315.053068 212.93154 
L 318.332407 238.804576 
L 321.611746 226.590462 
L 324.891085 224.003683 
L 328.170424 214.621978 
L 331.449762 219.133613 
L 334.729101 213.628866 
L 338.00844 219.002172 
L 341.287779 220.075263 
L 344.567118 214.947613 
L 347.846457 218.109695 
L 351.125795 212.617169 
L 354.405134 228.091512 
L 357.684473 205.167476 
L 360.963812 221.308538 
L 364.243151 215.522785 
L 367.52249 220.973868 
L 370.801829 219.058379 
L 374.081167 216.069789 
L 377.360506 226.047828 
L 380.639845 222.87778 
L 383.919184 226.3257 
L 387.198523 223.864869 
" clip-path="url(#p35e613dfef)" style="fill: none; stroke: #4c72b0; stroke-width: 1.5; stroke-linecap: round"/>
   </g>
   <g id="line2d_15">
    <path d="M 62.543977 20.614015 
L 65.823316 243.425656 
L 69.102655 237.715442 
L 72.381994 243.744718 
L 75.661333 238.796559 
L 78.940671 243.646651 
L 82.22001 228.589569 
L 85.499349 236.823888 
L 88.778688 230.17629 
L 92.058027 243.666994 
L 95.337366 235.167564 
L 98.616705 247.01252 
L 101.896043 239.280115 
L 105.175382 236.700847 
L 108.454721 241.423372 
L 111.73406 258.024225 
L 115.013399 244.455162 
L 118.292738 240.610508 
L 121.572076 230.84758 
L 124.851415 237.195849 
L 128.130754 239.071245 
L 131.410093 246.363366 
L 134.689432 235.37518 
L 137.968771 239.544825 
L 141.24811 228.607466 
L 144.527448 229.350361 
L 147.806787 224.742617 
L 151.086126 245.153002 
L 154.365465 237.918697 
L 157.644804 240.892375 
L 160.924143 229.092528 
L 164.203481 230.77359 
L 167.48282 236.460493 
L 170.762159 240.088556 
L 174.041498 235.249484 
L 177.320837 227.10438 
L 180.600176 233.059265 
L 183.879514 237.789041 
L 187.158853 239.28297 
L 190.438192 241.673989 
L 193.717531 250.168326 
L 196.99687 248.698614 
L 200.276209 240.386849 
L 203.555548 241.448032 
L 206.834886 258.488204 
L 210.114225 219.87562 
L 213.393564 245.123214 
L 216.672903 236.466969 
L 219.952242 241.008122 
L 223.231581 236.465898 
L 226.510919 238.220603 
L 229.790258 229.508439 
L 233.069597 240.932321 
L 236.348936 228.072535 
L 239.628275 227.799077 
L 242.907614 241.715754 
L 246.186952 232.139238 
L 249.466291 241.174713 
L 252.74563 240.070938 
L 256.024969 234.261595 
L 259.304308 232.348804 
L 262.583647 240.15862 
L 265.862986 225.30515 
L 269.142324 236.691002 
L 272.421663 235.094131 
L 275.701002 250.076013 
L 278.980341 254.716852 
L 282.25968 248.556788 
L 285.539019 240.793942 
L 288.818357 244.371936 
L 292.097696 233.2429 
L 295.377035 247.874495 
L 298.656374 227.316557 
L 301.935713 240.983435 
L 305.215052 237.609053 
L 308.49439 244.933364 
L 311.773729 232.440647 
L 315.053068 233.755442 
L 318.332407 238.388003 
L 321.611746 234.186778 
L 324.891085 237.068726 
L 328.170424 236.97549 
L 331.449762 232.6122 
L 334.729101 246.661937 
L 338.00844 230.385003 
L 341.287779 237.745317 
L 344.567118 242.462688 
L 347.846457 229.876718 
L 351.125795 239.641926 
L 354.405134 250.749305 
L 357.684473 230.532392 
L 360.963812 252.789159 
L 364.243151 241.481005 
L 367.52249 239.011069 
L 370.801829 236.976534 
L 374.081167 237.729605 
L 377.360506 219.448297 
L 380.639845 239.634274 
L 383.919184 233.08067 
L 387.198523 240.106183 
" clip-path="url(#p35e613dfef)" style="fill: none; stroke-dasharray: 6,2.25; stroke-dashoffset: 0; stroke: #dd8452; stroke-width: 1.5"/>
   </g>
   <g id="line2d_16">
    <path d="M 62.543977 19.613548 
L 65.823316 232.618076 
L 69.102655 222.103322 
L 72.381994 229.299587 
L 75.661333 229.258718 
L 78.940671 231.882101 
L 82.22001 214.979472 
L 85.499349 219.312051 
L 88.778688 218.579558 
L 92.058027 231.975633 
L 95.337366 227.577925 
L 98.616705 223.744256 
L 101.896043 219.2755 
L 105.175382 229.686511 
L 108.454721 226.052119 
L 111.73406 251.796256 
L 115.013399 236.297375 
L 118.292738 228.841309 
L 121.572076 221.613847 
L 124.851415 219.468048 
L 128.130754 231.2672 
L 131.410093 236.820467 
L 134.689432 222.23062 
L 137.968771 232.623237 
L 141.24811 223.312877 
L 144.527448 223.947816 
L 147.806787 228.253332 
L 151.086126 231.590937 
L 154.365465 232.036723 
L 157.644804 229.340063 
L 160.924143 223.449689 
L 164.203481 224.929229 
L 167.48282 226.39747 
L 170.762159 224.535549 
L 174.041498 231.918922 
L 177.320837 226.206463 
L 180.600176 216.516437 
L 183.879514 214.819201 
L 187.158853 220.264347 
L 190.438192 237.396423 
L 193.717531 237.877333 
L 196.99687 235.841814 
L 200.276209 229.549351 
L 203.555548 233.93865 
L 206.834886 241.207086 
L 210.114225 220.677029 
L 213.393564 230.759715 
L 216.672903 221.995749 
L 219.952242 228.52693 
L 223.231581 227.088041 
L 226.510919 221.637724 
L 229.790258 221.568774 
L 233.069597 223.473235 
L 236.348936 221.367617 
L 239.628275 217.596692 
L 242.907614 223.537032 
L 246.186952 223.015637 
L 249.466291 224.894166 
L 252.74563 226.963625 
L 256.024969 230.123723 
L 259.304308 222.155533 
L 262.583647 232.829722 
L 265.862986 223.887353 
L 269.142324 229.561041 
L 272.421663 235.702538 
L 275.701002 228.606448 
L 278.980341 240.498861 
L 282.25968 239.637896 
L 285.539019 224.89508 
L 288.818357 245.164588 
L 292.097696 212.015082 
L 295.377035 233.260649 
L 298.656374 214.51565 
L 301.935713 232.750718 
L 305.215052 229.137957 
L 308.49439 231.702392 
L 311.773729 233.420032 
L 315.053068 223.429398 
L 318.332407 234.090391 
L 321.611746 222.672506 
L 324.891085 236.491194 
L 328.170424 222.210016 
L 331.449762 226.542656 
L 334.729101 222.482612 
L 338.00844 216.893769 
L 341.287779 228.591641 
L 344.567118 223.286258 
L 347.846457 218.641579 
L 351.125795 226.341542 
L 354.405134 233.873417 
L 357.684473 213.159665 
L 360.963812 232.102034 
L 364.243151 233.456113 
L 367.52249 226.046261 
L 370.801829 211.367086 
L 374.081167 220.140026 
L 377.360506 217.284358 
L 380.639845 219.941515 
L 383.919184 223.630468 
L 387.198523 226.484517 
" clip-path="url(#p35e613dfef)" style="fill: none; stroke-dasharray: 1.5,1.5; stroke-dashoffset: 0; stroke: #55a868; stroke-width: 1.5"/>
   </g>
   <g id="line2d_17">
    <path d="M 62.543977 36.685092 
L 65.823316 243.070773 
L 69.102655 250.692794 
L 72.381994 245.149119 
L 75.661333 252.091093 
L 78.940671 244.734427 
L 82.22001 228.655847 
L 85.499349 235.837636 
L 88.778688 241.264128 
L 92.058027 244.047651 
L 95.337366 235.556082 
L 98.616705 240.715835 
L 101.896043 227.646831 
L 105.175382 243.961988 
L 108.454721 235.581891 
L 111.73406 261.216 
L 115.013399 248.333477 
L 118.292738 240.051004 
L 121.572076 232.670286 
L 124.851415 242.484441 
L 128.130754 234.319943 
L 131.410093 237.929395 
L 134.689432 233.809081 
L 137.968771 233.227545 
L 141.24811 231.083417 
L 144.527448 225.20099 
L 147.806787 228.771776 
L 151.086126 238.876503 
L 154.365465 246.886876 
L 157.644804 240.803309 
L 160.924143 226.452031 
L 164.203481 235.534207 
L 167.48282 230.054799 
L 170.762159 229.327729 
L 174.041498 240.320267 
L 177.320837 232.50064 
L 180.600176 230.739903 
L 183.879514 228.569174 
L 187.158853 229.738948 
L 190.438192 251.389667 
L 193.717531 244.988004 
L 196.99687 250.296939 
L 200.276209 244.151951 
L 203.555548 239.143973 
L 206.834886 258.249869 
L 210.114225 234.543811 
L 213.393564 240.929101 
L 216.672903 237.087815 
L 219.952242 232.322202 
L 223.231581 247.393194 
L 226.510919 229.092945 
L 229.790258 238.10134 
L 233.069597 240.639216 
L 236.348936 229.923375 
L 239.628275 233.227527 
L 242.907614 243.606479 
L 246.186952 226.639139 
L 249.466291 239.695712 
L 252.74563 233.864913 
L 256.024969 238.47848 
L 259.304308 229.737268 
L 262.583647 234.513866 
L 265.862986 224.128465 
L 269.142324 234.554535 
L 272.421663 234.67506 
L 275.701002 249.22081 
L 278.980341 255.215511 
L 282.25968 245.979088 
L 285.539019 244.100262 
L 288.818357 251.504361 
L 292.097696 223.163765 
L 295.377035 243.435649 
L 298.656374 225.625292 
L 301.935713 239.778102 
L 305.215052 233.358368 
L 308.49439 238.601434 
L 311.773729 236.97018 
L 315.053068 230.891574 
L 318.332407 233.765914 
L 321.611746 235.52666 
L 324.891085 252.301634 
L 328.170424 228.423414 
L 331.449762 227.826749 
L 334.729101 234.916259 
L 338.00844 228.572003 
L 341.287779 233.022549 
L 344.567118 236.879833 
L 347.846457 230.140044 
L 351.125795 240.23275 
L 354.405134 247.045711 
L 357.684473 230.671702 
L 360.963812 242.090005 
L 364.243151 234.450705 
L 367.52249 232.7163 
L 370.801829 243.501874 
L 374.081167 239.017354 
L 377.360506 228.456074 
L 380.639845 238.919887 
L 383.919184 232.605549 
L 387.198523 243.078991 
" clip-path="url(#p35e613dfef)" style="fill: none; stroke-dasharray: 4.5,1.875,2.25,1.875; stroke-dashoffset: 0; stroke: #c44e52; stroke-width: 1.5"/>
   </g>
   <g id="line2d_18">
    <path d="M 62.543977 19.296 
L 65.823316 235.031866 
L 69.102655 236.157011 
L 72.381994 239.423768 
L 75.661333 240.088486 
L 78.940671 235.932238 
L 82.22001 221.501748 
L 85.499349 223.387728 
L 88.778688 219.571521 
L 92.058027 233.721494 
L 95.337366 240.274001 
L 98.616705 237.442445 
L 101.896043 223.703858 
L 105.175382 235.483745 
L 108.454721 242.348656 
L 111.73406 244.776653 
L 115.013399 245.309669 
L 118.292738 239.362226 
L 121.572076 221.360322 
L 124.851415 219.856801 
L 128.130754 227.32091 
L 131.410093 244.810149 
L 134.689432 231.732249 
L 137.968771 226.959359 
L 141.24811 218.138212 
L 144.527448 229.671791 
L 147.806787 212.594581 
L 151.086126 237.177613 
L 154.365465 244.592105 
L 157.644804 239.043364 
L 160.924143 221.911662 
L 164.203481 227.454823 
L 167.48282 229.739592 
L 170.762159 226.045852 
L 174.041498 233.070224 
L 177.320837 236.698218 
L 180.600176 224.262604 
L 183.879514 223.031732 
L 187.158853 225.442493 
L 190.438192 233.261754 
L 193.717531 241.450069 
L 196.99687 243.230313 
L 200.276209 234.724694 
L 203.555548 249.785232 
L 206.834886 254.055442 
L 210.114225 227.97869 
L 213.393564 230.267664 
L 216.672903 225.832299 
L 219.952242 226.557515 
L 223.231581 233.162094 
L 226.510919 215.719024 
L 229.790258 222.725369 
L 233.069597 238.535922 
L 236.348936 217.128047 
L 239.628275 218.770392 
L 242.907614 238.03985 
L 246.186952 224.381345 
L 249.466291 227.661325 
L 252.74563 237.329641 
L 256.024969 239.499404 
L 259.304308 223.594239 
L 262.583647 236.200587 
L 265.862986 221.578515 
L 269.142324 234.61673 
L 272.421663 232.810554 
L 275.701002 244.256407 
L 278.980341 248.270882 
L 282.25968 237.879152 
L 285.539019 236.215507 
L 288.818357 249.052347 
L 292.097696 215.349309 
L 295.377035 243.789565 
L 298.656374 224.168045 
L 301.935713 229.86266 
L 305.215052 229.82435 
L 308.49439 241.073721 
L 311.773729 228.475111 
L 315.053068 217.771143 
L 318.332407 235.164387 
L 321.611746 231.431362 
L 324.891085 240.296851 
L 328.170424 232.976405 
L 331.449762 218.070951 
L 334.729101 225.801136 
L 338.00844 220.853499 
L 341.287779 227.879212 
L 344.567118 225.513132 
L 347.846457 225.417215 
L 351.125795 237.712195 
L 354.405134 241.443123 
L 357.684473 228.132354 
L 360.963812 235.030091 
L 364.243151 236.405688 
L 367.52249 235.590909 
L 370.801829 228.293217 
L 374.081167 212.706323 
L 377.360506 224.675347 
L 380.639845 232.343059 
L 383.919184 231.187508 
L 387.198523 229.171157 
" clip-path="url(#p35e613dfef)" style="fill: none; stroke-dasharray: 7.5,1.5,1.5,1.5; stroke-dashoffset: 0; stroke: #8172b3; stroke-width: 1.5"/>
   </g>
   <g id="line2d_19"/>
   <g id="line2d_20"/>
   <g id="line2d_21"/>
   <g id="line2d_22"/>
   <g id="line2d_23"/>
   <g id="patch_3">
    <path d="M 46.31125 273.312 
L 46.31125 7.2 
" style="fill: none; stroke: #cccccc; stroke-width: 1.25; stroke-linejoin: miter; stroke-linecap: square"/>
   </g>
   <g id="patch_4">
    <path d="M 403.43125 273.312 
L 403.43125 7.2 
" style="fill: none; stroke: #cccccc; stroke-width: 1.25; stroke-linejoin: miter; stroke-linecap: square"/>
   </g>
   <g id="patch_5">
    <path d="M 46.31125 273.312 
L 403.43125 273.312 
" style="fill: none; stroke: #cccccc; stroke-width: 1.25; stroke-linejoin: miter; stroke-linecap: square"/>
   </g>
   <g id="patch_6">
    <path d="M 46.31125 7.2 
L 403.43125 7.2 
" style="fill: none; stroke: #cccccc; stroke-width: 1.25; stroke-linejoin: miter; stroke-linecap: square"/>
   </g>
   <g id="legend_1">
    <g id="patch_7">
     <path d="M 291.746875 113.843437 
L 395.73125 113.843437 
Q 397.93125 113.843437 397.93125 111.643437 
L 397.93125 14.9 
Q 397.93125 12.7 395.73125 12.7 
L 291.746875 12.7 
Q 289.546875 12.7 289.546875 14.9 
L 289.546875 111.643437 
Q 289.546875 113.843437 291.746875 113.843437 
z
" style="fill: #ffffff; opacity: 0.8; stroke: #cccccc; stroke-linejoin: miter"/>
    </g>
    <g id="text_16">
     <!-- Strategy -->
     <g style="fill: #262626" transform="translate(318.03 26.218125) scale(0.12 -0.12)">
      <defs>
       <path id="DejaVuSans-74" d="M 1172 4494 
L 1172 3500 
L 2356 3500 
L 2356 3053 
L 1172 3053 
L 1172 1153 
Q 1172 725 1289 603 
Q 1406 481 1766 481 
L 2356 481 
L 2356 0 
L 1766 0 
Q 1100 0 847 248 
Q 594 497 594 1153 
L 594 3053 
L 172 3053 
L 172 3500 
L 594 3500 
L 594 4494 
L 1172 4494 
z
" transform="scale(0.015625)"/>
       <path id="DejaVuSans-61" d="M 2194 1759 
Q 1497 1759 1228 1600 
Q 959 1441 959 1056 
Q 959 750 1161 570 
Q 1363 391 1709 391 
Q 2188 391 2477 730 
Q 2766 1069 2766 1631 
L 2766 1759 
L 2194 1759 
z
M 3341 1997 
L 3341 0 
L 2766 0 
L 2766 531 
Q 2569 213 2275 61 
Q 1981 -91 1556 -91 
Q 1019 -91 701 211 
Q 384 513 384 1019 
Q 384 1609 779 1909 
Q 1175 2209 1959 2209 
L 2766 2209 
L 2766 2266 
Q 2766 2663 2505 2880 
Q 2244 3097 1772 3097 
Q 1472 3097 1187 3025 
Q 903 2953 641 2809 
L 641 3341 
Q 956 3463 1253 3523 
Q 1550 3584 1831 3584 
Q 2591 3584 2966 3190 
Q 3341 2797 3341 1997 
z
" transform="scale(0.015625)"/>
       <path id="DejaVuSans-67" d="M 2906 1791 
Q 2906 2416 2648 2759 
Q 2391 3103 1925 3103 
Q 1463 3103 1205 2759 
Q 947 2416 947 1791 
Q 947 1169 1205 825 
Q 1463 481 1925 481 
Q 2391 481 2648 825 
Q 2906 1169 2906 1791 
z
M 3481 434 
Q 3481 -459 3084 -895 
Q 2688 -1331 1869 -1331 
Q 1566 -1331 1297 -1286 
Q 1028 -1241 775 -1147 
L 775 -588 
Q 1028 -725 1275 -790 
Q 1522 -856 1778 -856 
Q 2344 -856 2625 -561 
Q 2906 -266 2906 331 
L 2906 616 
Q 2728 306 2450 153 
Q 2172 0 1784 0 
Q 1141 0 747 490 
Q 353 981 353 1791 
Q 353 2603 747 3093 
Q 1141 3584 1784 3584 
Q 2172 3584 2450 3431 
Q 2728 3278 2906 2969 
L 2906 3500 
L 3481 3500 
L 3481 434 
z
" transform="scale(0.015625)"/>
       <path id="DejaVuSans-79" d="M 2059 -325 
Q 1816 -950 1584 -1140 
Q 1353 -1331 966 -1331 
L 506 -1331 
L 506 -850 
L 844 -850 
Q 1081 -850 1212 -737 
Q 1344 -625 1503 -206 
L 1606 56 
L 191 3500 
L 800 3500 
L 1894 763 
L 2988 3500 
L 3597 3500 
L 2059 -325 
z
" transform="scale(0.015625)"/>
      </defs>
      <use xlink:href="#DejaVuSans-53"/>
      <use xlink:href="#DejaVuSans-74" x="63.476562"/>
      <use xlink:href="#DejaVuSans-72" x="102.685547"/>
      <use xlink:href="#DejaVuSans-61" x="143.798828"/>
      <use xlink:href="#DejaVuSans-74" x="205.078125"/>
      <use xlink:href="#DejaVuSans-65" x="244.287109"/>
      <use xlink:href="#DejaVuSans-67" x="305.810547"/>
      <use xlink:href="#DejaVuSans-79" x="369.287109"/>
     </g>
    </g>
    <g id="line2d_24">
     <path d="M 293.946875 38.722031 
L 304.946875 38.722031 
L 315.946875 38.722031 
" style="fill: none; stroke: #4c72b0; stroke-width: 1.5; stroke-linecap: round"/>
    </g>
    <g id="text_17">
     <!-- FedPredict -->
     <g style="fill: #262626" transform="translate(324.746875 42.572031) scale(0.11 -0.11)">
      <defs>
       <path id="DejaVuSans-46" d="M 628 4666 
L 3309 4666 
L 3309 4134 
L 1259 4134 
L 1259 2759 
L 3109 2759 
L 3109 2228 
L 1259 2228 
L 1259 0 
L 628 0 
L 628 4666 
z
" transform="scale(0.015625)"/>
       <path id="DejaVuSans-50" d="M 1259 4147 
L 1259 2394 
L 2053 2394 
Q 2494 2394 2734 2622 
Q 2975 2850 2975 3272 
Q 2975 3691 2734 3919 
Q 2494 4147 2053 4147 
L 1259 4147 
z
M 628 4666 
L 2053 4666 
Q 2838 4666 3239 4311 
Q 3641 3956 3641 3272 
Q 3641 2581 3239 2228 
Q 2838 1875 2053 1875 
L 1259 1875 
L 1259 0 
L 628 0 
L 628 4666 
z
" transform="scale(0.015625)"/>
      </defs>
      <use xlink:href="#DejaVuSans-46"/>
      <use xlink:href="#DejaVuSans-65" x="52.019531"/>
      <use xlink:href="#DejaVuSans-64" x="113.542969"/>
      <use xlink:href="#DejaVuSans-50" x="177.019531"/>
      <use xlink:href="#DejaVuSans-72" x="235.572266"/>
      <use xlink:href="#DejaVuSans-65" x="274.435547"/>
      <use xlink:href="#DejaVuSans-64" x="335.958984"/>
      <use xlink:href="#DejaVuSans-69" x="399.435547"/>
      <use xlink:href="#DejaVuSans-63" x="427.21875"/>
      <use xlink:href="#DejaVuSans-74" x="482.199219"/>
     </g>
    </g>
    <g id="line2d_25">
     <path d="M 293.946875 54.867969 
L 304.946875 54.867969 
L 315.946875 54.867969 
" style="fill: none; stroke-dasharray: 6,2.25; stroke-dashoffset: 0; stroke: #dd8452; stroke-width: 1.5"/>
    </g>
    <g id="text_18">
     <!-- FedAVG -->
     <g style="fill: #262626" transform="translate(324.746875 58.717969) scale(0.11 -0.11)">
      <defs>
       <path id="DejaVuSans-41" d="M 2188 4044 
L 1331 1722 
L 3047 1722 
L 2188 4044 
z
M 1831 4666 
L 2547 4666 
L 4325 0 
L 3669 0 
L 3244 1197 
L 1141 1197 
L 716 0 
L 50 0 
L 1831 4666 
z
" transform="scale(0.015625)"/>
       <path id="DejaVuSans-56" d="M 1831 0 
L 50 4666 
L 709 4666 
L 2188 738 
L 3669 4666 
L 4325 4666 
L 2547 0 
L 1831 0 
z
" transform="scale(0.015625)"/>
       <path id="DejaVuSans-47" d="M 3809 666 
L 3809 1919 
L 2778 1919 
L 2778 2438 
L 4434 2438 
L 4434 434 
Q 4069 175 3628 42 
Q 3188 -91 2688 -91 
Q 1594 -91 976 548 
Q 359 1188 359 2328 
Q 359 3472 976 4111 
Q 1594 4750 2688 4750 
Q 3144 4750 3555 4637 
Q 3966 4525 4313 4306 
L 4313 3634 
Q 3963 3931 3569 4081 
Q 3175 4231 2741 4231 
Q 1884 4231 1454 3753 
Q 1025 3275 1025 2328 
Q 1025 1384 1454 906 
Q 1884 428 2741 428 
Q 3075 428 3337 486 
Q 3600 544 3809 666 
z
" transform="scale(0.015625)"/>
      </defs>
      <use xlink:href="#DejaVuSans-46"/>
      <use xlink:href="#DejaVuSans-65" x="52.019531"/>
      <use xlink:href="#DejaVuSans-64" x="113.542969"/>
      <use xlink:href="#DejaVuSans-41" x="177.019531"/>
      <use xlink:href="#DejaVuSans-56" x="239.052734"/>
      <use xlink:href="#DejaVuSans-47" x="307.460938"/>
     </g>
    </g>
    <g id="line2d_26">
     <path d="M 293.946875 71.013906 
L 304.946875 71.013906 
L 315.946875 71.013906 
" style="fill: none; stroke-dasharray: 1.5,1.5; stroke-dashoffset: 0; stroke: #55a868; stroke-width: 1.5"/>
    </g>
    <g id="text_19">
     <!-- FedClassAvg -->
     <g style="fill: #262626" transform="translate(324.746875 74.863906) scale(0.11 -0.11)">
      <defs>
       <path id="DejaVuSans-43" d="M 4122 4306 
L 4122 3641 
Q 3803 3938 3442 4084 
Q 3081 4231 2675 4231 
Q 1875 4231 1450 3742 
Q 1025 3253 1025 2328 
Q 1025 1406 1450 917 
Q 1875 428 2675 428 
Q 3081 428 3442 575 
Q 3803 722 4122 1019 
L 4122 359 
Q 3791 134 3420 21 
Q 3050 -91 2638 -91 
Q 1578 -91 968 557 
Q 359 1206 359 2328 
Q 359 3453 968 4101 
Q 1578 4750 2638 4750 
Q 3056 4750 3426 4639 
Q 3797 4528 4122 4306 
z
" transform="scale(0.015625)"/>
       <path id="DejaVuSans-6c" d="M 603 4863 
L 1178 4863 
L 1178 0 
L 603 0 
L 603 4863 
z
" transform="scale(0.015625)"/>
      </defs>
      <use xlink:href="#DejaVuSans-46"/>
      <use xlink:href="#DejaVuSans-65" x="52.019531"/>
      <use xlink:href="#DejaVuSans-64" x="113.542969"/>
      <use xlink:href="#DejaVuSans-43" x="177.019531"/>
      <use xlink:href="#DejaVuSans-6c" x="246.84375"/>
      <use xlink:href="#DejaVuSans-61" x="274.626953"/>
      <use xlink:href="#DejaVuSans-73" x="335.90625"/>
      <use xlink:href="#DejaVuSans-73" x="388.005859"/>
      <use xlink:href="#DejaVuSans-41" x="440.105469"/>
      <use xlink:href="#DejaVuSans-76" x="502.638672"/>
      <use xlink:href="#DejaVuSans-67" x="561.818359"/>
     </g>
    </g>
    <g id="line2d_27">
     <path d="M 293.946875 87.159844 
L 304.946875 87.159844 
L 315.946875 87.159844 
" style="fill: none; stroke-dasharray: 4.5,1.875,2.25,1.875; stroke-dashoffset: 0; stroke: #c44e52; stroke-width: 1.5"/>
    </g>
    <g id="text_20">
     <!-- FedPer -->
     <g style="fill: #262626" transform="translate(324.746875 91.009844) scale(0.11 -0.11)">
      <use xlink:href="#DejaVuSans-46"/>
      <use xlink:href="#DejaVuSans-65" x="52.019531"/>
      <use xlink:href="#DejaVuSans-64" x="113.542969"/>
      <use xlink:href="#DejaVuSans-50" x="177.019531"/>
      <use xlink:href="#DejaVuSans-65" x="233.697266"/>
      <use xlink:href="#DejaVuSans-72" x="295.220703"/>
     </g>
    </g>
    <g id="line2d_28">
     <path d="M 293.946875 103.305781 
L 304.946875 103.305781 
L 315.946875 103.305781 
" style="fill: none; stroke-dasharray: 7.5,1.5,1.5,1.5; stroke-dashoffset: 0; stroke: #8172b3; stroke-width: 1.5"/>
    </g>
    <g id="text_21">
     <!-- FedProto -->
     <g style="fill: #262626" transform="translate(324.746875 107.155781) scale(0.11 -0.11)">
      <use xlink:href="#DejaVuSans-46"/>
      <use xlink:href="#DejaVuSans-65" x="52.019531"/>
      <use xlink:href="#DejaVuSans-64" x="113.542969"/>
      <use xlink:href="#DejaVuSans-50" x="177.019531"/>
      <use xlink:href="#DejaVuSans-72" x="235.572266"/>
      <use xlink:href="#DejaVuSans-6f" x="274.435547"/>
      <use xlink:href="#DejaVuSans-74" x="335.617188"/>
      <use xlink:href="#DejaVuSans-6f" x="374.826172"/>
     </g>
    </g>
   </g>
  </g>
 </g>
 <defs>
  <clipPath id="p35e613dfef">
   <rect x="46.31125" y="7.2" width="357.12" height="266.112"/>
  </clipPath>
 </defs>
</svg>
