<?xml version="1.0" encoding="utf-8" standalone="no"?>
<!DOCTYPE svg PUBLIC "-//W3C//DTD SVG 1.1//EN"
  "http://www.w3.org/Graphics/SVG/1.1/DTD/svg11.dtd">
<svg xmlns:xlink="http://www.w3.org/1999/xlink" width="410.63125pt" height="316.271687pt" viewBox="0 0 410.63125 316.271687" xmlns="http://www.w3.org/2000/svg" version="1.1">
 <metadata>
  <rdf:RDF xmlns:dc="http://purl.org/dc/elements/1.1/" xmlns:cc="http://creativecommons.org/ns#" xmlns:rdf="http://www.w3.org/1999/02/22-rdf-syntax-ns#">
   <cc:Work>
    <dc:type rdf:resource="http://purl.org/dc/dcmitype/StillImage"/>
    <dc:date>2023-02-10T18:56:58.219260</dc:date>
    <dc:format>image/svg+xml</dc:format>
    <dc:creator>
     <cc:Agent>
      <dc:title>Matplotlib v3.6.3, https://matplotlib.org/</dc:title>
     </cc:Agent>
    </dc:creator>
   </cc:Work>
  </rdf:RDF>
 </metadata>
 <defs>
  <style type="text/css">*{stroke-linejoin: round; stroke-linecap: butt}</style>
 </defs>
 <g id="figure_1">
  <g id="patch_1">
   <path d="M 0 316.271687 
L 410.63125 316.271687 
L 410.63125 0 
L 0 0 
z
" style="fill: #ffffff"/>
  </g>
  <g id="axes_1">
   <g id="patch_2">
    <path d="M 46.31125 273.312 
L 403.43125 273.312 
L 403.43125 7.2 
L 46.31125 7.2 
z
" style="fill: #ffffff"/>
   </g>
   <g id="matplotlib.axis_1">
    <g id="xtick_1">
     <g id="line2d_1">
      <path d="M 59.264638 273.312 
L 59.264638 7.2 
" clip-path="url(#pe4419174ea)" style="fill: none; stroke: #cccccc; stroke-linecap: round"/>
     </g>
     <g id="text_1">
      <!-- 0 -->
      <g style="fill: #262626" transform="translate(55.765263 291.170281) scale(0.11 -0.11)">
       <defs>
        <path id="DejaVuSans-30" d="M 2034 4250 
Q 1547 4250 1301 3770 
Q 1056 3291 1056 2328 
Q 1056 1369 1301 889 
Q 1547 409 2034 409 
Q 2525 409 2770 889 
Q 3016 1369 3016 2328 
Q 3016 3291 2770 3770 
Q 2525 4250 2034 4250 
z
M 2034 4750 
Q 2819 4750 3233 4129 
Q 3647 3509 3647 2328 
Q 3647 1150 3233 529 
Q 2819 -91 2034 -91 
Q 1250 -91 836 529 
Q 422 1150 422 2328 
Q 422 3509 836 4129 
Q 1250 4750 2034 4750 
z
" transform="scale(0.015625)"/>
       </defs>
       <use xlink:href="#DejaVuSans-30"/>
      </g>
     </g>
    </g>
    <g id="xtick_2">
     <g id="line2d_2">
      <path d="M 124.851415 273.312 
L 124.851415 7.2 
" clip-path="url(#pe4419174ea)" style="fill: none; stroke: #cccccc; stroke-linecap: round"/>
     </g>
     <g id="text_2">
      <!-- 20 -->
      <g style="fill: #262626" transform="translate(117.852665 291.170281) scale(0.11 -0.11)">
       <defs>
        <path id="DejaVuSans-32" d="M 1228 531 
L 3431 531 
L 3431 0 
L 469 0 
L 469 531 
Q 828 903 1448 1529 
Q 2069 2156 2228 2338 
Q 2531 2678 2651 2914 
Q 2772 3150 2772 3378 
Q 2772 3750 2511 3984 
Q 2250 4219 1831 4219 
Q 1534 4219 1204 4116 
Q 875 4013 500 3803 
L 500 4441 
Q 881 4594 1212 4672 
Q 1544 4750 1819 4750 
Q 2544 4750 2975 4387 
Q 3406 4025 3406 3419 
Q 3406 3131 3298 2873 
Q 3191 2616 2906 2266 
Q 2828 2175 2409 1742 
Q 1991 1309 1228 531 
z
" transform="scale(0.015625)"/>
       </defs>
       <use xlink:href="#DejaVuSans-32"/>
       <use xlink:href="#DejaVuSans-30" x="63.623047"/>
      </g>
     </g>
    </g>
    <g id="xtick_3">
     <g id="line2d_3">
      <path d="M 190.438192 273.312 
L 190.438192 7.2 
" clip-path="url(#pe4419174ea)" style="fill: none; stroke: #cccccc; stroke-linecap: round"/>
     </g>
     <g id="text_3">
      <!-- 40 -->
      <g style="fill: #262626" transform="translate(183.439442 291.170281) scale(0.11 -0.11)">
       <defs>
        <path id="DejaVuSans-34" d="M 2419 4116 
L 825 1625 
L 2419 1625 
L 2419 4116 
z
M 2253 4666 
L 3047 4666 
L 3047 1625 
L 3713 1625 
L 3713 1100 
L 3047 1100 
L 3047 0 
L 2419 0 
L 2419 1100 
L 313 1100 
L 313 1709 
L 2253 4666 
z
" transform="scale(0.015625)"/>
       </defs>
       <use xlink:href="#DejaVuSans-34"/>
       <use xlink:href="#DejaVuSans-30" x="63.623047"/>
      </g>
     </g>
    </g>
    <g id="xtick_4">
     <g id="line2d_4">
      <path d="M 256.024969 273.312 
L 256.024969 7.2 
" clip-path="url(#pe4419174ea)" style="fill: none; stroke: #cccccc; stroke-linecap: round"/>
     </g>
     <g id="text_4">
      <!-- 60 -->
      <g style="fill: #262626" transform="translate(249.026219 291.170281) scale(0.11 -0.11)">
       <defs>
        <path id="DejaVuSans-36" d="M 2113 2584 
Q 1688 2584 1439 2293 
Q 1191 2003 1191 1497 
Q 1191 994 1439 701 
Q 1688 409 2113 409 
Q 2538 409 2786 701 
Q 3034 994 3034 1497 
Q 3034 2003 2786 2293 
Q 2538 2584 2113 2584 
z
M 3366 4563 
L 3366 3988 
Q 3128 4100 2886 4159 
Q 2644 4219 2406 4219 
Q 1781 4219 1451 3797 
Q 1122 3375 1075 2522 
Q 1259 2794 1537 2939 
Q 1816 3084 2150 3084 
Q 2853 3084 3261 2657 
Q 3669 2231 3669 1497 
Q 3669 778 3244 343 
Q 2819 -91 2113 -91 
Q 1303 -91 875 529 
Q 447 1150 447 2328 
Q 447 3434 972 4092 
Q 1497 4750 2381 4750 
Q 2619 4750 2861 4703 
Q 3103 4656 3366 4563 
z
" transform="scale(0.015625)"/>
       </defs>
       <use xlink:href="#DejaVuSans-36"/>
       <use xlink:href="#DejaVuSans-30" x="63.623047"/>
      </g>
     </g>
    </g>
    <g id="xtick_5">
     <g id="line2d_5">
      <path d="M 321.611746 273.312 
L 321.611746 7.2 
" clip-path="url(#pe4419174ea)" style="fill: none; stroke: #cccccc; stroke-linecap: round"/>
     </g>
     <g id="text_5">
      <!-- 80 -->
      <g style="fill: #262626" transform="translate(314.612996 291.170281) scale(0.11 -0.11)">
       <defs>
        <path id="DejaVuSans-38" d="M 2034 2216 
Q 1584 2216 1326 1975 
Q 1069 1734 1069 1313 
Q 1069 891 1326 650 
Q 1584 409 2034 409 
Q 2484 409 2743 651 
Q 3003 894 3003 1313 
Q 3003 1734 2745 1975 
Q 2488 2216 2034 2216 
z
M 1403 2484 
Q 997 2584 770 2862 
Q 544 3141 544 3541 
Q 544 4100 942 4425 
Q 1341 4750 2034 4750 
Q 2731 4750 3128 4425 
Q 3525 4100 3525 3541 
Q 3525 3141 3298 2862 
Q 3072 2584 2669 2484 
Q 3125 2378 3379 2068 
Q 3634 1759 3634 1313 
Q 3634 634 3220 271 
Q 2806 -91 2034 -91 
Q 1263 -91 848 271 
Q 434 634 434 1313 
Q 434 1759 690 2068 
Q 947 2378 1403 2484 
z
M 1172 3481 
Q 1172 3119 1398 2916 
Q 1625 2713 2034 2713 
Q 2441 2713 2670 2916 
Q 2900 3119 2900 3481 
Q 2900 3844 2670 4047 
Q 2441 4250 2034 4250 
Q 1625 4250 1398 4047 
Q 1172 3844 1172 3481 
z
" transform="scale(0.015625)"/>
       </defs>
       <use xlink:href="#DejaVuSans-38"/>
       <use xlink:href="#DejaVuSans-30" x="63.623047"/>
      </g>
     </g>
    </g>
    <g id="xtick_6">
     <g id="line2d_6">
      <path d="M 387.198523 273.312 
L 387.198523 7.2 
" clip-path="url(#pe4419174ea)" style="fill: none; stroke: #cccccc; stroke-linecap: round"/>
     </g>
     <g id="text_6">
      <!-- 100 -->
      <g style="fill: #262626" transform="translate(376.700398 291.170281) scale(0.11 -0.11)">
       <defs>
        <path id="DejaVuSans-31" d="M 794 531 
L 1825 531 
L 1825 4091 
L 703 3866 
L 703 4441 
L 1819 4666 
L 2450 4666 
L 2450 531 
L 3481 531 
L 3481 0 
L 794 0 
L 794 531 
z
" transform="scale(0.015625)"/>
       </defs>
       <use xlink:href="#DejaVuSans-31"/>
       <use xlink:href="#DejaVuSans-30" x="63.623047"/>
       <use xlink:href="#DejaVuSans-30" x="127.246094"/>
      </g>
     </g>
    </g>
    <g id="text_7">
     <!-- Server round -->
     <g style="fill: #262626" transform="translate(185.870313 306.576062) scale(0.12 -0.12)">
      <defs>
       <path id="DejaVuSans-53" d="M 3425 4513 
L 3425 3897 
Q 3066 4069 2747 4153 
Q 2428 4238 2131 4238 
Q 1616 4238 1336 4038 
Q 1056 3838 1056 3469 
Q 1056 3159 1242 3001 
Q 1428 2844 1947 2747 
L 2328 2669 
Q 3034 2534 3370 2195 
Q 3706 1856 3706 1288 
Q 3706 609 3251 259 
Q 2797 -91 1919 -91 
Q 1588 -91 1214 -16 
Q 841 59 441 206 
L 441 856 
Q 825 641 1194 531 
Q 1563 422 1919 422 
Q 2459 422 2753 634 
Q 3047 847 3047 1241 
Q 3047 1584 2836 1778 
Q 2625 1972 2144 2069 
L 1759 2144 
Q 1053 2284 737 2584 
Q 422 2884 422 3419 
Q 422 4038 858 4394 
Q 1294 4750 2059 4750 
Q 2388 4750 2728 4690 
Q 3069 4631 3425 4513 
z
" transform="scale(0.015625)"/>
       <path id="DejaVuSans-65" d="M 3597 1894 
L 3597 1613 
L 953 1613 
Q 991 1019 1311 708 
Q 1631 397 2203 397 
Q 2534 397 2845 478 
Q 3156 559 3463 722 
L 3463 178 
Q 3153 47 2828 -22 
Q 2503 -91 2169 -91 
Q 1331 -91 842 396 
Q 353 884 353 1716 
Q 353 2575 817 3079 
Q 1281 3584 2069 3584 
Q 2775 3584 3186 3129 
Q 3597 2675 3597 1894 
z
M 3022 2063 
Q 3016 2534 2758 2815 
Q 2500 3097 2075 3097 
Q 1594 3097 1305 2825 
Q 1016 2553 972 2059 
L 3022 2063 
z
" transform="scale(0.015625)"/>
       <path id="DejaVuSans-72" d="M 2631 2963 
Q 2534 3019 2420 3045 
Q 2306 3072 2169 3072 
Q 1681 3072 1420 2755 
Q 1159 2438 1159 1844 
L 1159 0 
L 581 0 
L 581 3500 
L 1159 3500 
L 1159 2956 
Q 1341 3275 1631 3429 
Q 1922 3584 2338 3584 
Q 2397 3584 2469 3576 
Q 2541 3569 2628 3553 
L 2631 2963 
z
" transform="scale(0.015625)"/>
       <path id="DejaVuSans-76" d="M 191 3500 
L 800 3500 
L 1894 563 
L 2988 3500 
L 3597 3500 
L 2284 0 
L 1503 0 
L 191 3500 
z
" transform="scale(0.015625)"/>
       <path id="DejaVuSans-20" transform="scale(0.015625)"/>
       <path id="DejaVuSans-6f" d="M 1959 3097 
Q 1497 3097 1228 2736 
Q 959 2375 959 1747 
Q 959 1119 1226 758 
Q 1494 397 1959 397 
Q 2419 397 2687 759 
Q 2956 1122 2956 1747 
Q 2956 2369 2687 2733 
Q 2419 3097 1959 3097 
z
M 1959 3584 
Q 2709 3584 3137 3096 
Q 3566 2609 3566 1747 
Q 3566 888 3137 398 
Q 2709 -91 1959 -91 
Q 1206 -91 779 398 
Q 353 888 353 1747 
Q 353 2609 779 3096 
Q 1206 3584 1959 3584 
z
" transform="scale(0.015625)"/>
       <path id="DejaVuSans-75" d="M 544 1381 
L 544 3500 
L 1119 3500 
L 1119 1403 
Q 1119 906 1312 657 
Q 1506 409 1894 409 
Q 2359 409 2629 706 
Q 2900 1003 2900 1516 
L 2900 3500 
L 3475 3500 
L 3475 0 
L 2900 0 
L 2900 538 
Q 2691 219 2414 64 
Q 2138 -91 1772 -91 
Q 1169 -91 856 284 
Q 544 659 544 1381 
z
M 1991 3584 
L 1991 3584 
z
" transform="scale(0.015625)"/>
       <path id="DejaVuSans-6e" d="M 3513 2113 
L 3513 0 
L 2938 0 
L 2938 2094 
Q 2938 2591 2744 2837 
Q 2550 3084 2163 3084 
Q 1697 3084 1428 2787 
Q 1159 2491 1159 1978 
L 1159 0 
L 581 0 
L 581 3500 
L 1159 3500 
L 1159 2956 
Q 1366 3272 1645 3428 
Q 1925 3584 2291 3584 
Q 2894 3584 3203 3211 
Q 3513 2838 3513 2113 
z
" transform="scale(0.015625)"/>
       <path id="DejaVuSans-64" d="M 2906 2969 
L 2906 4863 
L 3481 4863 
L 3481 0 
L 2906 0 
L 2906 525 
Q 2725 213 2448 61 
Q 2172 -91 1784 -91 
Q 1150 -91 751 415 
Q 353 922 353 1747 
Q 353 2572 751 3078 
Q 1150 3584 1784 3584 
Q 2172 3584 2448 3432 
Q 2725 3281 2906 2969 
z
M 947 1747 
Q 947 1113 1208 752 
Q 1469 391 1925 391 
Q 2381 391 2643 752 
Q 2906 1113 2906 1747 
Q 2906 2381 2643 2742 
Q 2381 3103 1925 3103 
Q 1469 3103 1208 2742 
Q 947 2381 947 1747 
z
" transform="scale(0.015625)"/>
      </defs>
      <use xlink:href="#DejaVuSans-53"/>
      <use xlink:href="#DejaVuSans-65" x="63.476562"/>
      <use xlink:href="#DejaVuSans-72" x="125"/>
      <use xlink:href="#DejaVuSans-76" x="166.113281"/>
      <use xlink:href="#DejaVuSans-65" x="225.292969"/>
      <use xlink:href="#DejaVuSans-72" x="286.816406"/>
      <use xlink:href="#DejaVuSans-20" x="327.929688"/>
      <use xlink:href="#DejaVuSans-72" x="359.716797"/>
      <use xlink:href="#DejaVuSans-6f" x="398.580078"/>
      <use xlink:href="#DejaVuSans-75" x="459.761719"/>
      <use xlink:href="#DejaVuSans-6e" x="523.140625"/>
      <use xlink:href="#DejaVuSans-64" x="586.519531"/>
     </g>
    </g>
   </g>
   <g id="matplotlib.axis_2">
    <g id="ytick_1">
     <g id="line2d_7">
      <path d="M 46.31125 244.003043 
L 403.43125 244.003043 
" clip-path="url(#pe4419174ea)" style="fill: none; stroke: #cccccc; stroke-linecap: round"/>
     </g>
     <g id="text_8">
      <!-- 4 -->
      <g style="fill: #262626" transform="translate(29.8125 248.182184) scale(0.11 -0.11)">
       <use xlink:href="#DejaVuSans-34"/>
      </g>
     </g>
    </g>
    <g id="ytick_2">
     <g id="line2d_8">
      <path d="M 46.31125 187.569999 
L 403.43125 187.569999 
" clip-path="url(#pe4419174ea)" style="fill: none; stroke: #cccccc; stroke-linecap: round"/>
     </g>
     <g id="text_9">
      <!-- 6 -->
      <g style="fill: #262626" transform="translate(29.8125 191.74914) scale(0.11 -0.11)">
       <use xlink:href="#DejaVuSans-36"/>
      </g>
     </g>
    </g>
    <g id="ytick_3">
     <g id="line2d_9">
      <path d="M 46.31125 131.136955 
L 403.43125 131.136955 
" clip-path="url(#pe4419174ea)" style="fill: none; stroke: #cccccc; stroke-linecap: round"/>
     </g>
     <g id="text_10">
      <!-- 8 -->
      <g style="fill: #262626" transform="translate(29.8125 135.316096) scale(0.11 -0.11)">
       <use xlink:href="#DejaVuSans-38"/>
      </g>
     </g>
    </g>
    <g id="ytick_4">
     <g id="line2d_10">
      <path d="M 46.31125 74.703911 
L 403.43125 74.703911 
" clip-path="url(#pe4419174ea)" style="fill: none; stroke: #cccccc; stroke-linecap: round"/>
     </g>
     <g id="text_11">
      <!-- 10 -->
      <g style="fill: #262626" transform="translate(22.81375 78.883052) scale(0.11 -0.11)">
       <use xlink:href="#DejaVuSans-31"/>
       <use xlink:href="#DejaVuSans-30" x="63.623047"/>
      </g>
     </g>
    </g>
    <g id="ytick_5">
     <g id="line2d_11">
      <path d="M 46.31125 18.270867 
L 403.43125 18.270867 
" clip-path="url(#pe4419174ea)" style="fill: none; stroke: #cccccc; stroke-linecap: round"/>
     </g>
     <g id="text_12">
      <!-- 12 -->
      <g style="fill: #262626" transform="translate(22.81375 22.450008) scale(0.11 -0.11)">
       <use xlink:href="#DejaVuSans-31"/>
       <use xlink:href="#DejaVuSans-32" x="63.623047"/>
      </g>
     </g>
    </g>
    <g id="text_13">
     <!-- Time (seconds) -->
     <g style="fill: #262626" transform="translate(16.318125 186.050062) rotate(-90) scale(0.12 -0.12)">
      <defs>
       <path id="DejaVuSans-54" d="M -19 4666 
L 3928 4666 
L 3928 4134 
L 2272 4134 
L 2272 0 
L 1638 0 
L 1638 4134 
L -19 4134 
L -19 4666 
z
" transform="scale(0.015625)"/>
       <path id="DejaVuSans-69" d="M 603 3500 
L 1178 3500 
L 1178 0 
L 603 0 
L 603 3500 
z
M 603 4863 
L 1178 4863 
L 1178 4134 
L 603 4134 
L 603 4863 
z
" transform="scale(0.015625)"/>
       <path id="DejaVuSans-6d" d="M 3328 2828 
Q 3544 3216 3844 3400 
Q 4144 3584 4550 3584 
Q 5097 3584 5394 3201 
Q 5691 2819 5691 2113 
L 5691 0 
L 5113 0 
L 5113 2094 
Q 5113 2597 4934 2840 
Q 4756 3084 4391 3084 
Q 3944 3084 3684 2787 
Q 3425 2491 3425 1978 
L 3425 0 
L 2847 0 
L 2847 2094 
Q 2847 2600 2669 2842 
Q 2491 3084 2119 3084 
Q 1678 3084 1418 2786 
Q 1159 2488 1159 1978 
L 1159 0 
L 581 0 
L 581 3500 
L 1159 3500 
L 1159 2956 
Q 1356 3278 1631 3431 
Q 1906 3584 2284 3584 
Q 2666 3584 2933 3390 
Q 3200 3197 3328 2828 
z
" transform="scale(0.015625)"/>
       <path id="DejaVuSans-28" d="M 1984 4856 
Q 1566 4138 1362 3434 
Q 1159 2731 1159 2009 
Q 1159 1288 1364 580 
Q 1569 -128 1984 -844 
L 1484 -844 
Q 1016 -109 783 600 
Q 550 1309 550 2009 
Q 550 2706 781 3412 
Q 1013 4119 1484 4856 
L 1984 4856 
z
" transform="scale(0.015625)"/>
       <path id="DejaVuSans-73" d="M 2834 3397 
L 2834 2853 
Q 2591 2978 2328 3040 
Q 2066 3103 1784 3103 
Q 1356 3103 1142 2972 
Q 928 2841 928 2578 
Q 928 2378 1081 2264 
Q 1234 2150 1697 2047 
L 1894 2003 
Q 2506 1872 2764 1633 
Q 3022 1394 3022 966 
Q 3022 478 2636 193 
Q 2250 -91 1575 -91 
Q 1294 -91 989 -36 
Q 684 19 347 128 
L 347 722 
Q 666 556 975 473 
Q 1284 391 1588 391 
Q 1994 391 2212 530 
Q 2431 669 2431 922 
Q 2431 1156 2273 1281 
Q 2116 1406 1581 1522 
L 1381 1569 
Q 847 1681 609 1914 
Q 372 2147 372 2553 
Q 372 3047 722 3315 
Q 1072 3584 1716 3584 
Q 2034 3584 2315 3537 
Q 2597 3491 2834 3397 
z
" transform="scale(0.015625)"/>
       <path id="DejaVuSans-63" d="M 3122 3366 
L 3122 2828 
Q 2878 2963 2633 3030 
Q 2388 3097 2138 3097 
Q 1578 3097 1268 2742 
Q 959 2388 959 1747 
Q 959 1106 1268 751 
Q 1578 397 2138 397 
Q 2388 397 2633 464 
Q 2878 531 3122 666 
L 3122 134 
Q 2881 22 2623 -34 
Q 2366 -91 2075 -91 
Q 1284 -91 818 406 
Q 353 903 353 1747 
Q 353 2603 823 3093 
Q 1294 3584 2113 3584 
Q 2378 3584 2631 3529 
Q 2884 3475 3122 3366 
z
" transform="scale(0.015625)"/>
       <path id="DejaVuSans-29" d="M 513 4856 
L 1013 4856 
Q 1481 4119 1714 3412 
Q 1947 2706 1947 2009 
Q 1947 1309 1714 600 
Q 1481 -109 1013 -844 
L 513 -844 
Q 928 -128 1133 580 
Q 1338 1288 1338 2009 
Q 1338 2731 1133 3434 
Q 928 4138 513 4856 
z
" transform="scale(0.015625)"/>
      </defs>
      <use xlink:href="#DejaVuSans-54"/>
      <use xlink:href="#DejaVuSans-69" x="57.958984"/>
      <use xlink:href="#DejaVuSans-6d" x="85.742188"/>
      <use xlink:href="#DejaVuSans-65" x="183.154297"/>
      <use xlink:href="#DejaVuSans-20" x="244.677734"/>
      <use xlink:href="#DejaVuSans-28" x="276.464844"/>
      <use xlink:href="#DejaVuSans-73" x="315.478516"/>
      <use xlink:href="#DejaVuSans-65" x="367.578125"/>
      <use xlink:href="#DejaVuSans-63" x="429.101562"/>
      <use xlink:href="#DejaVuSans-6f" x="484.082031"/>
      <use xlink:href="#DejaVuSans-6e" x="545.263672"/>
      <use xlink:href="#DejaVuSans-64" x="608.642578"/>
      <use xlink:href="#DejaVuSans-73" x="672.119141"/>
      <use xlink:href="#DejaVuSans-29" x="724.21875"/>
     </g>
    </g>
   </g>
   <g id="PolyCollection_1"/>
   <g id="PolyCollection_2"/>
   <g id="PolyCollection_3"/>
   <g id="PolyCollection_4"/>
   <g id="PolyCollection_5"/>
   <g id="line2d_12">
    <path d="M 62.543977 50.6123 
L 65.823316 175.668704 
L 69.102655 180.142528 
L 72.381994 176.228479 
L 75.661333 176.325494 
L 78.940671 181.806933 
L 82.22001 165.651575 
L 85.499349 171.886417 
L 88.778688 176.753501 
L 92.058027 174.962588 
L 95.337366 173.969195 
L 98.616705 178.761169 
L 101.896043 178.069356 
L 105.175382 177.106371 
L 108.454721 180.132329 
L 111.73406 197.328293 
L 115.013399 181.123677 
L 118.292738 180.727518 
L 121.572076 172.175134 
L 124.851415 173.030381 
L 128.130754 171.955284 
L 131.410093 183.316556 
L 134.689432 170.005142 
L 137.968771 175.094915 
L 141.24811 173.695413 
L 144.527448 171.576676 
L 147.806787 170.121249 
L 151.086126 181.235176 
L 154.365465 182.721334 
L 157.644804 180.940008 
L 160.924143 174.752722 
L 164.203481 168.069174 
L 167.48282 176.343732 
L 170.762159 168.170468 
L 174.041498 174.235874 
L 177.320837 172.000788 
L 180.600176 173.033684 
L 183.879514 175.032896 
L 187.158853 176.955032 
L 190.438192 178.791476 
L 193.717531 184.046957 
L 196.99687 181.393249 
L 200.276209 177.021895 
L 203.555548 179.603345 
L 206.834886 186.243616 
L 210.114225 168.384848 
L 213.393564 176.346827 
L 216.672903 176.5678 
L 219.952242 170.765534 
L 223.231581 173.15037 
L 226.510919 171.361159 
L 229.790258 171.947736 
L 233.069597 171.66728 
L 236.348936 181.036807 
L 239.628275 171.679201 
L 242.907614 177.475473 
L 246.186952 172.074526 
L 249.466291 174.301849 
L 252.74563 175.469991 
L 256.024969 182.341212 
L 259.304308 178.613686 
L 262.583647 181.354244 
L 265.862986 168.567394 
L 269.142324 181.233084 
L 272.421663 174.166111 
L 275.701002 181.14168 
L 278.980341 188.615005 
L 282.25968 175.108962 
L 285.539019 175.788672 
L 288.818357 184.137722 
L 292.097696 161.497804 
L 295.377035 183.138369 
L 298.656374 167.092895 
L 301.935713 172.031391 
L 305.215052 170.486571 
L 308.49439 183.444254 
L 311.773729 179.196247 
L 315.053068 168.699714 
L 318.332407 188.69541 
L 321.611746 179.255864 
L 324.891085 177.2567 
L 328.170424 170.006151 
L 331.449762 173.49292 
L 334.729101 169.238635 
L 338.00844 173.391337 
L 341.287779 174.220663 
L 344.567118 170.257814 
L 347.846457 172.701596 
L 351.125795 168.456756 
L 354.405134 180.415934 
L 357.684473 162.699342 
L 360.963812 175.173787 
L 364.243151 170.70233 
L 367.52249 174.91514 
L 370.801829 173.434775 
L 374.081167 171.125076 
L 377.360506 178.836495 
L 380.639845 176.386558 
L 383.919184 179.051245 
L 387.198523 177.149419 
" clip-path="url(#pe4419174ea)" style="fill: none; stroke: #4c72b0; stroke-width: 1.5; stroke-linecap: round"/>
   </g>
   <g id="line2d_13">
    <path d="M 62.543977 20.0692 
L 65.823316 192.266761 
L 69.102655 187.853685 
L 72.381994 192.513345 
L 75.661333 188.689214 
L 78.940671 192.437555 
L 82.22001 180.800852 
L 85.499349 187.164657 
L 88.778688 182.027133 
L 92.058027 192.453277 
L 95.337366 185.884585 
L 98.616705 195.03883 
L 101.896043 189.062925 
L 105.175382 187.069566 
L 108.454721 190.719317 
L 111.73406 203.549107 
L 115.013399 193.062404 
L 118.292738 190.091105 
L 121.572076 182.545932 
L 124.851415 187.452123 
L 128.130754 188.901502 
L 131.410093 194.537138 
L 134.689432 186.045038 
L 137.968771 189.267503 
L 141.24811 180.814684 
L 144.527448 181.388822 
L 147.806787 177.827777 
L 151.086126 193.601722 
L 154.365465 188.010768 
L 157.644804 190.308943 
L 160.924143 181.189558 
L 164.203481 182.48875 
L 167.48282 186.88381 
L 170.762159 189.68772 
L 174.041498 185.947896 
L 177.320837 179.65304 
L 180.600176 184.255209 
L 183.879514 187.910564 
L 187.158853 189.065131 
L 190.438192 190.913004 
L 193.717531 197.477761 
L 196.99687 196.34191 
L 200.276209 189.918252 
L 203.555548 190.738376 
L 206.834886 203.907688 
L 210.114225 174.066372 
L 213.393564 193.578701 
L 216.672903 186.888815 
L 219.952242 190.398396 
L 223.231581 186.887988 
L 226.510919 188.244092 
L 229.790258 181.510991 
L 233.069597 190.339815 
L 236.348936 180.401268 
L 239.628275 180.189929 
L 242.907614 190.945282 
L 246.186952 183.544176 
L 249.466291 190.527144 
L 252.74563 189.674104 
L 256.024969 185.184416 
L 259.304308 183.706136 
L 262.583647 189.741868 
L 265.862986 178.262525 
L 269.142324 187.061957 
L 272.421663 185.827833 
L 275.701002 197.406418 
L 278.980341 200.99304 
L 282.25968 196.232301 
L 285.539019 190.23287 
L 288.818357 192.998084 
L 292.097696 184.397129 
L 295.377035 195.704999 
L 298.656374 179.817019 
L 301.935713 190.379318 
L 305.215052 187.771463 
L 308.49439 193.431977 
L 311.773729 183.777117 
L 315.053068 184.793241 
L 318.332407 188.373466 
L 321.611746 185.126595 
L 324.891085 187.353877 
L 328.170424 187.28182 
L 331.449762 183.909699 
L 334.729101 194.767886 
L 338.00844 182.188434 
L 341.287779 187.876773 
L 344.567118 191.522542 
L 347.846457 181.795611 
L 351.125795 189.342547 
L 354.405134 197.926764 
L 357.684473 182.302342 
L 360.963812 199.503243 
L 364.243151 190.763859 
L 367.52249 188.854996 
L 370.801829 187.282627 
L 374.081167 187.86463 
L 377.360506 173.73612 
L 380.639845 189.336633 
L 383.919184 184.271751 
L 387.198523 189.701343 
" clip-path="url(#pe4419174ea)" style="fill: none; stroke: #dd8452; stroke-width: 1.5; stroke-linecap: round"/>
   </g>
   <g id="line2d_14">
    <path d="M 62.543977 19.296 
L 65.823316 183.91424 
L 69.102655 175.788027 
L 72.381994 181.349582 
L 75.661333 181.317997 
L 78.940671 183.34545 
L 82.22001 170.282436 
L 85.499349 173.630823 
L 88.778688 173.064724 
L 92.058027 183.417735 
L 95.337366 180.019014 
L 98.616705 177.056205 
L 101.896043 173.602575 
L 105.175382 181.648612 
L 108.454721 178.839812 
L 111.73406 198.735889 
L 115.013399 186.757747 
L 118.292738 180.995407 
L 121.572076 175.409741 
L 124.851415 173.751384 
L 128.130754 182.87023 
L 131.410093 187.162013 
L 134.689432 175.886407 
L 137.968771 183.918229 
L 141.24811 176.722818 
L 144.527448 177.213524 
L 147.806787 180.540995 
L 151.086126 183.120427 
L 154.365465 183.464948 
L 157.644804 181.380864 
L 160.924143 176.828551 
L 164.203481 177.971998 
L 167.48282 179.106712 
L 170.762159 177.667747 
L 174.041498 183.373906 
L 177.320837 178.959094 
L 180.600176 171.470263 
L 183.879514 170.158572 
L 187.158853 174.366795 
L 190.438192 187.607134 
L 193.717531 187.9788 
L 196.99687 186.405671 
L 200.276209 181.542609 
L 203.555548 184.934832 
L 206.834886 190.552163 
L 210.114225 174.685731 
L 213.393564 182.478026 
L 216.672903 175.70489 
L 219.952242 180.752443 
L 223.231581 179.640413 
L 226.510919 175.428194 
L 229.790258 175.374907 
L 233.069597 176.846749 
L 236.348936 175.219445 
L 239.628275 172.305126 
L 242.907614 176.896054 
L 246.186952 176.493099 
L 249.466291 177.9449 
L 252.74563 179.544259 
L 256.024969 181.986506 
L 259.304308 175.828377 
L 262.583647 184.077809 
L 265.862986 177.166796 
L 269.142324 181.551644 
L 272.421663 186.298034 
L 275.701002 180.813897 
L 278.980341 190.00482 
L 282.25968 189.339432 
L 285.539019 177.945607 
L 288.818357 193.610676 
L 292.097696 167.99144 
L 295.377035 184.410846 
L 298.656374 169.923977 
L 301.935713 184.016751 
L 305.215052 181.224668 
L 308.49439 183.206564 
L 311.773729 184.534023 
L 315.053068 176.81287 
L 318.332407 185.052103 
L 321.611746 176.227914 
L 324.891085 186.907538 
L 328.170424 175.870484 
L 331.449762 179.218918 
L 334.729101 176.081157 
L 338.00844 171.76188 
L 341.287779 180.802454 
L 344.567118 176.702246 
L 347.846457 173.112656 
L 351.125795 179.063489 
L 354.405134 184.884417 
L 357.684473 168.876018 
L 360.963812 183.515423 
L 364.243151 184.561908 
L 367.52249 178.835284 
L 370.801829 167.490643 
L 374.081167 174.270715 
L 377.360506 172.063743 
L 380.639845 174.117298 
L 383.919184 176.968265 
L 387.198523 179.173986 
" clip-path="url(#pe4419174ea)" style="fill: none; stroke: #55a868; stroke-width: 1.5; stroke-linecap: round"/>
   </g>
   <g id="line2d_15">
    <path d="M 62.543977 32.489558 
L 65.823316 191.992494 
L 69.102655 197.88309 
L 72.381994 193.598721 
L 75.661333 198.96375 
L 78.940671 193.278231 
L 82.22001 180.852074 
L 85.499349 186.402442 
L 88.778688 190.596247 
L 92.058027 192.747463 
L 95.337366 186.184846 
L 98.616705 190.172506 
L 101.896043 180.072268 
L 105.175382 192.68126 
L 108.454721 186.204793 
L 111.73406 206.015836 
L 115.013399 196.059718 
L 118.292738 189.658698 
L 121.572076 183.954591 
L 124.851415 191.539354 
L 128.130754 185.22951 
L 131.410093 188.019036 
L 134.689432 184.834695 
L 137.968771 184.385262 
L 141.24811 182.728196 
L 144.527448 178.182026 
L 147.806787 180.941669 
L 151.086126 188.750998 
L 154.365465 194.941728 
L 157.644804 190.240109 
L 160.924143 179.148879 
L 164.203481 186.16794 
L 167.48282 181.933239 
L 170.762159 181.371331 
L 174.041498 189.866795 
L 177.320837 183.823481 
L 180.600176 182.462715 
L 183.879514 180.78509 
L 187.158853 181.689138 
L 190.438192 198.421661 
L 193.717531 193.474205 
L 196.99687 197.577158 
L 200.276209 192.82807 
L 203.555548 188.957709 
L 206.834886 203.723494 
L 210.114225 185.402523 
L 213.393564 190.337325 
L 216.672903 187.36863 
L 219.952242 183.685578 
L 223.231581 195.33303 
L 226.510919 181.189881 
L 229.790258 188.151921 
L 233.069597 190.113291 
L 236.348936 181.83167 
L 239.628275 184.385248 
L 242.907614 192.406508 
L 246.186952 179.293484 
L 249.466291 189.384115 
L 252.74563 184.877844 
L 256.024969 188.44339 
L 259.304308 181.687839 
L 262.583647 185.379381 
L 265.862986 177.353136 
L 269.142324 185.410811 
L 272.421663 185.503958 
L 275.701002 196.745483 
L 278.980341 201.378423 
L 282.25968 194.240153 
L 285.539019 192.788123 
L 288.818357 198.510301 
L 292.097696 176.607578 
L 295.377035 192.274484 
L 298.656374 178.509943 
L 301.935713 189.447789 
L 305.215052 184.486367 
L 308.49439 188.538414 
L 311.773729 187.277716 
L 315.053068 182.579932 
L 318.332407 184.801334 
L 321.611746 186.162108 
L 324.891085 199.126465 
L 328.170424 180.672441 
L 331.449762 180.211315 
L 334.729101 185.690366 
L 338.00844 180.787277 
L 341.287779 184.226833 
L 344.567118 187.207893 
L 347.846457 181.99912 
L 351.125795 189.799158 
L 354.405134 195.064481 
L 357.684473 182.410006 
L 360.963812 191.234518 
L 364.243151 185.330568 
L 367.52249 183.990151 
L 370.801829 192.325666 
L 374.081167 188.859853 
L 377.360506 180.697682 
L 380.639845 188.784527 
L 383.919184 183.904559 
L 387.198523 191.998845 
" clip-path="url(#pe4419174ea)" style="fill: none; stroke: #c44e52; stroke-width: 1.5; stroke-linecap: round"/>
   </g>
   <g id="line2d_16">
    <path d="M 62.543977 101.399314 
L 65.823316 257.252539 
L 69.102655 255.467593 
L 72.381994 255.256428 
L 75.661333 256.67873 
L 78.940671 257.442647 
L 82.22001 252.133206 
L 85.499349 254.604064 
L 88.778688 255.361584 
L 92.058027 257.018878 
L 95.337366 255.220592 
L 98.616705 258.076235 
L 101.896043 251.841286 
L 105.175382 257.074311 
L 108.454721 257.220362 
L 111.73406 259.706593 
L 115.013399 260.592543 
L 118.292738 257.461201 
L 121.572076 253.004861 
L 124.851415 254.283459 
L 128.130754 256.978023 
L 131.410093 260.018506 
L 134.689432 256.66872 
L 137.968771 253.400139 
L 141.24811 252.378034 
L 144.527448 256.878431 
L 147.806787 259.378971 
L 151.086126 255.823644 
L 154.365465 256.429549 
L 157.644804 254.725264 
L 160.924143 252.793447 
L 164.203481 255.827001 
L 167.48282 253.895305 
L 170.762159 257.351854 
L 174.041498 257.512349 
L 177.320837 257.546766 
L 180.600176 253.366718 
L 183.879514 253.98673 
L 187.158853 255.217834 
L 190.438192 256.255614 
L 193.717531 261.037813 
L 196.99687 257.260356 
L 200.276209 257.99665 
L 203.555548 257.701522 
L 206.834886 258.876876 
L 210.114225 253.00289 
L 213.393564 257.243094 
L 216.672903 252.23684 
L 219.952242 255.649877 
L 223.231581 258.44784 
L 226.510919 254.23844 
L 229.790258 257.534461 
L 233.069597 255.971949 
L 236.348936 254.509882 
L 239.628275 256.423535 
L 242.907614 258.06502 
L 246.186952 253.222134 
L 249.466291 254.166673 
L 252.74563 257.078792 
L 256.024969 258.095253 
L 259.304308 256.979086 
L 262.583647 257.882602 
L 265.862986 252.168948 
L 269.142324 254.115384 
L 272.421663 254.629326 
L 275.701002 258.227593 
L 278.980341 259.367346 
L 282.25968 257.605112 
L 285.539019 254.598393 
L 288.818357 258.154729 
L 292.097696 251.330647 
L 295.377035 258.294423 
L 298.656374 250.256734 
L 301.935713 255.633092 
L 305.215052 255.103576 
L 308.49439 253.531632 
L 311.773729 255.179131 
L 315.053068 253.7491 
L 318.332407 259.646248 
L 321.611746 251.996277 
L 324.891085 260.454613 
L 328.170424 254.485818 
L 331.449762 253.51883 
L 334.729101 254.281549 
L 338.00844 251.737059 
L 341.287779 254.042896 
L 344.567118 256.415987 
L 347.846457 256.633664 
L 351.125795 256.123408 
L 354.405134 261.216 
L 357.684473 252.685386 
L 360.963812 256.177072 
L 364.243151 255.222913 
L 367.52249 254.452114 
L 370.801829 255.850655 
L 374.081167 254.456668 
L 377.360506 253.704511 
L 380.639845 254.66566 
L 383.919184 255.825851 
L 387.198523 257.694539 
" clip-path="url(#pe4419174ea)" style="fill: none; stroke: #8172b3; stroke-width: 1.5; stroke-linecap: round"/>
   </g>
   <g id="line2d_17"/>
   <g id="line2d_18"/>
   <g id="line2d_19"/>
   <g id="line2d_20"/>
   <g id="line2d_21"/>
   <g id="patch_3">
    <path d="M 46.31125 273.312 
L 46.31125 7.2 
" style="fill: none; stroke: #cccccc; stroke-width: 1.25; stroke-linejoin: miter; stroke-linecap: square"/>
   </g>
   <g id="patch_4">
    <path d="M 403.43125 273.312 
L 403.43125 7.2 
" style="fill: none; stroke: #cccccc; stroke-width: 1.25; stroke-linejoin: miter; stroke-linecap: square"/>
   </g>
   <g id="patch_5">
    <path d="M 46.31125 273.312 
L 403.43125 273.312 
" style="fill: none; stroke: #cccccc; stroke-width: 1.25; stroke-linejoin: miter; stroke-linecap: square"/>
   </g>
   <g id="patch_6">
    <path d="M 46.31125 7.2 
L 403.43125 7.2 
" style="fill: none; stroke: #cccccc; stroke-width: 1.25; stroke-linejoin: miter; stroke-linecap: square"/>
   </g>
   <g id="legend_1">
    <g id="patch_7">
     <path d="M 291.746875 113.843437 
L 395.73125 113.843437 
Q 397.93125 113.843437 397.93125 111.643437 
L 397.93125 14.9 
Q 397.93125 12.7 395.73125 12.7 
L 291.746875 12.7 
Q 289.546875 12.7 289.546875 14.9 
L 289.546875 111.643437 
Q 289.546875 113.843437 291.746875 113.843437 
z
" style="fill: #ffffff; opacity: 0.8; stroke: #cccccc; stroke-linejoin: miter"/>
    </g>
    <g id="text_14">
     <!-- Strategy -->
     <g style="fill: #262626" transform="translate(318.03 26.218125) scale(0.12 -0.12)">
      <defs>
       <path id="DejaVuSans-74" d="M 1172 4494 
L 1172 3500 
L 2356 3500 
L 2356 3053 
L 1172 3053 
L 1172 1153 
Q 1172 725 1289 603 
Q 1406 481 1766 481 
L 2356 481 
L 2356 0 
L 1766 0 
Q 1100 0 847 248 
Q 594 497 594 1153 
L 594 3053 
L 172 3053 
L 172 3500 
L 594 3500 
L 594 4494 
L 1172 4494 
z
" transform="scale(0.015625)"/>
       <path id="DejaVuSans-61" d="M 2194 1759 
Q 1497 1759 1228 1600 
Q 959 1441 959 1056 
Q 959 750 1161 570 
Q 1363 391 1709 391 
Q 2188 391 2477 730 
Q 2766 1069 2766 1631 
L 2766 1759 
L 2194 1759 
z
M 3341 1997 
L 3341 0 
L 2766 0 
L 2766 531 
Q 2569 213 2275 61 
Q 1981 -91 1556 -91 
Q 1019 -91 701 211 
Q 384 513 384 1019 
Q 384 1609 779 1909 
Q 1175 2209 1959 2209 
L 2766 2209 
L 2766 2266 
Q 2766 2663 2505 2880 
Q 2244 3097 1772 3097 
Q 1472 3097 1187 3025 
Q 903 2953 641 2809 
L 641 3341 
Q 956 3463 1253 3523 
Q 1550 3584 1831 3584 
Q 2591 3584 2966 3190 
Q 3341 2797 3341 1997 
z
" transform="scale(0.015625)"/>
       <path id="DejaVuSans-67" d="M 2906 1791 
Q 2906 2416 2648 2759 
Q 2391 3103 1925 3103 
Q 1463 3103 1205 2759 
Q 947 2416 947 1791 
Q 947 1169 1205 825 
Q 1463 481 1925 481 
Q 2391 481 2648 825 
Q 2906 1169 2906 1791 
z
M 3481 434 
Q 3481 -459 3084 -895 
Q 2688 -1331 1869 -1331 
Q 1566 -1331 1297 -1286 
Q 1028 -1241 775 -1147 
L 775 -588 
Q 1028 -725 1275 -790 
Q 1522 -856 1778 -856 
Q 2344 -856 2625 -561 
Q 2906 -266 2906 331 
L 2906 616 
Q 2728 306 2450 153 
Q 2172 0 1784 0 
Q 1141 0 747 490 
Q 353 981 353 1791 
Q 353 2603 747 3093 
Q 1141 3584 1784 3584 
Q 2172 3584 2450 3431 
Q 2728 3278 2906 2969 
L 2906 3500 
L 3481 3500 
L 3481 434 
z
" transform="scale(0.015625)"/>
       <path id="DejaVuSans-79" d="M 2059 -325 
Q 1816 -950 1584 -1140 
Q 1353 -1331 966 -1331 
L 506 -1331 
L 506 -850 
L 844 -850 
Q 1081 -850 1212 -737 
Q 1344 -625 1503 -206 
L 1606 56 
L 191 3500 
L 800 3500 
L 1894 763 
L 2988 3500 
L 3597 3500 
L 2059 -325 
z
" transform="scale(0.015625)"/>
      </defs>
      <use xlink:href="#DejaVuSans-53"/>
      <use xlink:href="#DejaVuSans-74" x="63.476562"/>
      <use xlink:href="#DejaVuSans-72" x="102.685547"/>
      <use xlink:href="#DejaVuSans-61" x="143.798828"/>
      <use xlink:href="#DejaVuSans-74" x="205.078125"/>
      <use xlink:href="#DejaVuSans-65" x="244.287109"/>
      <use xlink:href="#DejaVuSans-67" x="305.810547"/>
      <use xlink:href="#DejaVuSans-79" x="369.287109"/>
     </g>
    </g>
    <g id="line2d_22">
     <path d="M 293.946875 38.722031 
L 304.946875 38.722031 
L 315.946875 38.722031 
" style="fill: none; stroke: #4c72b0; stroke-width: 1.5; stroke-linecap: round"/>
    </g>
    <g id="text_15">
     <!-- FedPredict -->
     <g style="fill: #262626" transform="translate(324.746875 42.572031) scale(0.11 -0.11)">
      <defs>
       <path id="DejaVuSans-46" d="M 628 4666 
L 3309 4666 
L 3309 4134 
L 1259 4134 
L 1259 2759 
L 3109 2759 
L 3109 2228 
L 1259 2228 
L 1259 0 
L 628 0 
L 628 4666 
z
" transform="scale(0.015625)"/>
       <path id="DejaVuSans-50" d="M 1259 4147 
L 1259 2394 
L 2053 2394 
Q 2494 2394 2734 2622 
Q 2975 2850 2975 3272 
Q 2975 3691 2734 3919 
Q 2494 4147 2053 4147 
L 1259 4147 
z
M 628 4666 
L 2053 4666 
Q 2838 4666 3239 4311 
Q 3641 3956 3641 3272 
Q 3641 2581 3239 2228 
Q 2838 1875 2053 1875 
L 1259 1875 
L 1259 0 
L 628 0 
L 628 4666 
z
" transform="scale(0.015625)"/>
      </defs>
      <use xlink:href="#DejaVuSans-46"/>
      <use xlink:href="#DejaVuSans-65" x="52.019531"/>
      <use xlink:href="#DejaVuSans-64" x="113.542969"/>
      <use xlink:href="#DejaVuSans-50" x="177.019531"/>
      <use xlink:href="#DejaVuSans-72" x="235.572266"/>
      <use xlink:href="#DejaVuSans-65" x="274.435547"/>
      <use xlink:href="#DejaVuSans-64" x="335.958984"/>
      <use xlink:href="#DejaVuSans-69" x="399.435547"/>
      <use xlink:href="#DejaVuSans-63" x="427.21875"/>
      <use xlink:href="#DejaVuSans-74" x="482.199219"/>
     </g>
    </g>
    <g id="line2d_23">
     <path d="M 293.946875 54.867969 
L 304.946875 54.867969 
L 315.946875 54.867969 
" style="fill: none; stroke: #dd8452; stroke-width: 1.5; stroke-linecap: round"/>
    </g>
    <g id="text_16">
     <!-- FedAVG -->
     <g style="fill: #262626" transform="translate(324.746875 58.717969) scale(0.11 -0.11)">
      <defs>
       <path id="DejaVuSans-41" d="M 2188 4044 
L 1331 1722 
L 3047 1722 
L 2188 4044 
z
M 1831 4666 
L 2547 4666 
L 4325 0 
L 3669 0 
L 3244 1197 
L 1141 1197 
L 716 0 
L 50 0 
L 1831 4666 
z
" transform="scale(0.015625)"/>
       <path id="DejaVuSans-56" d="M 1831 0 
L 50 4666 
L 709 4666 
L 2188 738 
L 3669 4666 
L 4325 4666 
L 2547 0 
L 1831 0 
z
" transform="scale(0.015625)"/>
       <path id="DejaVuSans-47" d="M 3809 666 
L 3809 1919 
L 2778 1919 
L 2778 2438 
L 4434 2438 
L 4434 434 
Q 4069 175 3628 42 
Q 3188 -91 2688 -91 
Q 1594 -91 976 548 
Q 359 1188 359 2328 
Q 359 3472 976 4111 
Q 1594 4750 2688 4750 
Q 3144 4750 3555 4637 
Q 3966 4525 4313 4306 
L 4313 3634 
Q 3963 3931 3569 4081 
Q 3175 4231 2741 4231 
Q 1884 4231 1454 3753 
Q 1025 3275 1025 2328 
Q 1025 1384 1454 906 
Q 1884 428 2741 428 
Q 3075 428 3337 486 
Q 3600 544 3809 666 
z
" transform="scale(0.015625)"/>
      </defs>
      <use xlink:href="#DejaVuSans-46"/>
      <use xlink:href="#DejaVuSans-65" x="52.019531"/>
      <use xlink:href="#DejaVuSans-64" x="113.542969"/>
      <use xlink:href="#DejaVuSans-41" x="177.019531"/>
      <use xlink:href="#DejaVuSans-56" x="239.052734"/>
      <use xlink:href="#DejaVuSans-47" x="307.460938"/>
     </g>
    </g>
    <g id="line2d_24">
     <path d="M 293.946875 71.013906 
L 304.946875 71.013906 
L 315.946875 71.013906 
" style="fill: none; stroke: #55a868; stroke-width: 1.5; stroke-linecap: round"/>
    </g>
    <g id="text_17">
     <!-- FedClassAvg -->
     <g style="fill: #262626" transform="translate(324.746875 74.863906) scale(0.11 -0.11)">
      <defs>
       <path id="DejaVuSans-43" d="M 4122 4306 
L 4122 3641 
Q 3803 3938 3442 4084 
Q 3081 4231 2675 4231 
Q 1875 4231 1450 3742 
Q 1025 3253 1025 2328 
Q 1025 1406 1450 917 
Q 1875 428 2675 428 
Q 3081 428 3442 575 
Q 3803 722 4122 1019 
L 4122 359 
Q 3791 134 3420 21 
Q 3050 -91 2638 -91 
Q 1578 -91 968 557 
Q 359 1206 359 2328 
Q 359 3453 968 4101 
Q 1578 4750 2638 4750 
Q 3056 4750 3426 4639 
Q 3797 4528 4122 4306 
z
" transform="scale(0.015625)"/>
       <path id="DejaVuSans-6c" d="M 603 4863 
L 1178 4863 
L 1178 0 
L 603 0 
L 603 4863 
z
" transform="scale(0.015625)"/>
      </defs>
      <use xlink:href="#DejaVuSans-46"/>
      <use xlink:href="#DejaVuSans-65" x="52.019531"/>
      <use xlink:href="#DejaVuSans-64" x="113.542969"/>
      <use xlink:href="#DejaVuSans-43" x="177.019531"/>
      <use xlink:href="#DejaVuSans-6c" x="246.84375"/>
      <use xlink:href="#DejaVuSans-61" x="274.626953"/>
      <use xlink:href="#DejaVuSans-73" x="335.90625"/>
      <use xlink:href="#DejaVuSans-73" x="388.005859"/>
      <use xlink:href="#DejaVuSans-41" x="440.105469"/>
      <use xlink:href="#DejaVuSans-76" x="502.638672"/>
      <use xlink:href="#DejaVuSans-67" x="561.818359"/>
     </g>
    </g>
    <g id="line2d_25">
     <path d="M 293.946875 87.159844 
L 304.946875 87.159844 
L 315.946875 87.159844 
" style="fill: none; stroke: #c44e52; stroke-width: 1.5; stroke-linecap: round"/>
    </g>
    <g id="text_18">
     <!-- FedPer -->
     <g style="fill: #262626" transform="translate(324.746875 91.009844) scale(0.11 -0.11)">
      <use xlink:href="#DejaVuSans-46"/>
      <use xlink:href="#DejaVuSans-65" x="52.019531"/>
      <use xlink:href="#DejaVuSans-64" x="113.542969"/>
      <use xlink:href="#DejaVuSans-50" x="177.019531"/>
      <use xlink:href="#DejaVuSans-65" x="233.697266"/>
      <use xlink:href="#DejaVuSans-72" x="295.220703"/>
     </g>
    </g>
    <g id="line2d_26">
     <path d="M 293.946875 103.305781 
L 304.946875 103.305781 
L 315.946875 103.305781 
" style="fill: none; stroke: #8172b3; stroke-width: 1.5; stroke-linecap: round"/>
    </g>
    <g id="text_19">
     <!-- FedProto -->
     <g style="fill: #262626" transform="translate(324.746875 107.155781) scale(0.11 -0.11)">
      <use xlink:href="#DejaVuSans-46"/>
      <use xlink:href="#DejaVuSans-65" x="52.019531"/>
      <use xlink:href="#DejaVuSans-64" x="113.542969"/>
      <use xlink:href="#DejaVuSans-50" x="177.019531"/>
      <use xlink:href="#DejaVuSans-72" x="235.572266"/>
      <use xlink:href="#DejaVuSans-6f" x="274.435547"/>
      <use xlink:href="#DejaVuSans-74" x="335.617188"/>
      <use xlink:href="#DejaVuSans-6f" x="374.826172"/>
     </g>
    </g>
   </g>
  </g>
 </g>
 <defs>
  <clipPath id="pe4419174ea">
   <rect x="46.31125" y="7.2" width="357.12" height="266.112"/>
  </clipPath>
 </defs>
</svg>
