<?xml version="1.0" encoding="utf-8" standalone="no"?>
<!DOCTYPE svg PUBLIC "-//W3C//DTD SVG 1.1//EN"
  "http://www.w3.org/Graphics/SVG/1.1/DTD/svg11.dtd">
<svg xmlns:xlink="http://www.w3.org/1999/xlink" width="410.63125pt" height="316.271687pt" viewBox="0 0 410.63125 316.271687" xmlns="http://www.w3.org/2000/svg" version="1.1">
 <metadata>
  <rdf:RDF xmlns:dc="http://purl.org/dc/elements/1.1/" xmlns:cc="http://creativecommons.org/ns#" xmlns:rdf="http://www.w3.org/1999/02/22-rdf-syntax-ns#">
   <cc:Work>
    <dc:type rdf:resource="http://purl.org/dc/dcmitype/StillImage"/>
    <dc:date>2023-03-01T15:48:45.962102</dc:date>
    <dc:format>image/svg+xml</dc:format>
    <dc:creator>
     <cc:Agent>
      <dc:title>Matplotlib v3.6.3, https://matplotlib.org/</dc:title>
     </cc:Agent>
    </dc:creator>
   </cc:Work>
  </rdf:RDF>
 </metadata>
 <defs>
  <style type="text/css">*{stroke-linejoin: round; stroke-linecap: butt}</style>
 </defs>
 <g id="figure_1">
  <g id="patch_1">
   <path d="M 0 316.271687 
L 410.63125 316.271687 
L 410.63125 0 
L 0 0 
z
" style="fill: #ffffff"/>
  </g>
  <g id="axes_1">
   <g id="patch_2">
    <path d="M 46.31125 273.312 
L 403.43125 273.312 
L 403.43125 7.2 
L 46.31125 7.2 
z
" style="fill: #ffffff"/>
   </g>
   <g id="matplotlib.axis_1">
    <g id="xtick_1">
     <g id="line2d_1">
      <path d="M 59.264638 273.312 
L 59.264638 7.2 
" clip-path="url(#p8d3fb24a1a)" style="fill: none; stroke: #cccccc; stroke-linecap: round"/>
     </g>
     <g id="text_1">
      <!-- 0 -->
      <g style="fill: #262626" transform="translate(55.765263 291.170281) scale(0.11 -0.11)">
       <defs>
        <path id="DejaVuSans-30" d="M 2034 4250 
Q 1547 4250 1301 3770 
Q 1056 3291 1056 2328 
Q 1056 1369 1301 889 
Q 1547 409 2034 409 
Q 2525 409 2770 889 
Q 3016 1369 3016 2328 
Q 3016 3291 2770 3770 
Q 2525 4250 2034 4250 
z
M 2034 4750 
Q 2819 4750 3233 4129 
Q 3647 3509 3647 2328 
Q 3647 1150 3233 529 
Q 2819 -91 2034 -91 
Q 1250 -91 836 529 
Q 422 1150 422 2328 
Q 422 3509 836 4129 
Q 1250 4750 2034 4750 
z
" transform="scale(0.015625)"/>
       </defs>
       <use xlink:href="#DejaVuSans-30"/>
      </g>
     </g>
    </g>
    <g id="xtick_2">
     <g id="line2d_2">
      <path d="M 124.851415 273.312 
L 124.851415 7.2 
" clip-path="url(#p8d3fb24a1a)" style="fill: none; stroke: #cccccc; stroke-linecap: round"/>
     </g>
     <g id="text_2">
      <!-- 20 -->
      <g style="fill: #262626" transform="translate(117.852665 291.170281) scale(0.11 -0.11)">
       <defs>
        <path id="DejaVuSans-32" d="M 1228 531 
L 3431 531 
L 3431 0 
L 469 0 
L 469 531 
Q 828 903 1448 1529 
Q 2069 2156 2228 2338 
Q 2531 2678 2651 2914 
Q 2772 3150 2772 3378 
Q 2772 3750 2511 3984 
Q 2250 4219 1831 4219 
Q 1534 4219 1204 4116 
Q 875 4013 500 3803 
L 500 4441 
Q 881 4594 1212 4672 
Q 1544 4750 1819 4750 
Q 2544 4750 2975 4387 
Q 3406 4025 3406 3419 
Q 3406 3131 3298 2873 
Q 3191 2616 2906 2266 
Q 2828 2175 2409 1742 
Q 1991 1309 1228 531 
z
" transform="scale(0.015625)"/>
       </defs>
       <use xlink:href="#DejaVuSans-32"/>
       <use xlink:href="#DejaVuSans-30" x="63.623047"/>
      </g>
     </g>
    </g>
    <g id="xtick_3">
     <g id="line2d_3">
      <path d="M 190.438192 273.312 
L 190.438192 7.2 
" clip-path="url(#p8d3fb24a1a)" style="fill: none; stroke: #cccccc; stroke-linecap: round"/>
     </g>
     <g id="text_3">
      <!-- 40 -->
      <g style="fill: #262626" transform="translate(183.439442 291.170281) scale(0.11 -0.11)">
       <defs>
        <path id="DejaVuSans-34" d="M 2419 4116 
L 825 1625 
L 2419 1625 
L 2419 4116 
z
M 2253 4666 
L 3047 4666 
L 3047 1625 
L 3713 1625 
L 3713 1100 
L 3047 1100 
L 3047 0 
L 2419 0 
L 2419 1100 
L 313 1100 
L 313 1709 
L 2253 4666 
z
" transform="scale(0.015625)"/>
       </defs>
       <use xlink:href="#DejaVuSans-34"/>
       <use xlink:href="#DejaVuSans-30" x="63.623047"/>
      </g>
     </g>
    </g>
    <g id="xtick_4">
     <g id="line2d_4">
      <path d="M 256.024969 273.312 
L 256.024969 7.2 
" clip-path="url(#p8d3fb24a1a)" style="fill: none; stroke: #cccccc; stroke-linecap: round"/>
     </g>
     <g id="text_4">
      <!-- 60 -->
      <g style="fill: #262626" transform="translate(249.026219 291.170281) scale(0.11 -0.11)">
       <defs>
        <path id="DejaVuSans-36" d="M 2113 2584 
Q 1688 2584 1439 2293 
Q 1191 2003 1191 1497 
Q 1191 994 1439 701 
Q 1688 409 2113 409 
Q 2538 409 2786 701 
Q 3034 994 3034 1497 
Q 3034 2003 2786 2293 
Q 2538 2584 2113 2584 
z
M 3366 4563 
L 3366 3988 
Q 3128 4100 2886 4159 
Q 2644 4219 2406 4219 
Q 1781 4219 1451 3797 
Q 1122 3375 1075 2522 
Q 1259 2794 1537 2939 
Q 1816 3084 2150 3084 
Q 2853 3084 3261 2657 
Q 3669 2231 3669 1497 
Q 3669 778 3244 343 
Q 2819 -91 2113 -91 
Q 1303 -91 875 529 
Q 447 1150 447 2328 
Q 447 3434 972 4092 
Q 1497 4750 2381 4750 
Q 2619 4750 2861 4703 
Q 3103 4656 3366 4563 
z
" transform="scale(0.015625)"/>
       </defs>
       <use xlink:href="#DejaVuSans-36"/>
       <use xlink:href="#DejaVuSans-30" x="63.623047"/>
      </g>
     </g>
    </g>
    <g id="xtick_5">
     <g id="line2d_5">
      <path d="M 321.611746 273.312 
L 321.611746 7.2 
" clip-path="url(#p8d3fb24a1a)" style="fill: none; stroke: #cccccc; stroke-linecap: round"/>
     </g>
     <g id="text_5">
      <!-- 80 -->
      <g style="fill: #262626" transform="translate(314.612996 291.170281) scale(0.11 -0.11)">
       <defs>
        <path id="DejaVuSans-38" d="M 2034 2216 
Q 1584 2216 1326 1975 
Q 1069 1734 1069 1313 
Q 1069 891 1326 650 
Q 1584 409 2034 409 
Q 2484 409 2743 651 
Q 3003 894 3003 1313 
Q 3003 1734 2745 1975 
Q 2488 2216 2034 2216 
z
M 1403 2484 
Q 997 2584 770 2862 
Q 544 3141 544 3541 
Q 544 4100 942 4425 
Q 1341 4750 2034 4750 
Q 2731 4750 3128 4425 
Q 3525 4100 3525 3541 
Q 3525 3141 3298 2862 
Q 3072 2584 2669 2484 
Q 3125 2378 3379 2068 
Q 3634 1759 3634 1313 
Q 3634 634 3220 271 
Q 2806 -91 2034 -91 
Q 1263 -91 848 271 
Q 434 634 434 1313 
Q 434 1759 690 2068 
Q 947 2378 1403 2484 
z
M 1172 3481 
Q 1172 3119 1398 2916 
Q 1625 2713 2034 2713 
Q 2441 2713 2670 2916 
Q 2900 3119 2900 3481 
Q 2900 3844 2670 4047 
Q 2441 4250 2034 4250 
Q 1625 4250 1398 4047 
Q 1172 3844 1172 3481 
z
" transform="scale(0.015625)"/>
       </defs>
       <use xlink:href="#DejaVuSans-38"/>
       <use xlink:href="#DejaVuSans-30" x="63.623047"/>
      </g>
     </g>
    </g>
    <g id="xtick_6">
     <g id="line2d_6">
      <path d="M 387.198523 273.312 
L 387.198523 7.2 
" clip-path="url(#p8d3fb24a1a)" style="fill: none; stroke: #cccccc; stroke-linecap: round"/>
     </g>
     <g id="text_6">
      <!-- 100 -->
      <g style="fill: #262626" transform="translate(376.700398 291.170281) scale(0.11 -0.11)">
       <defs>
        <path id="DejaVuSans-31" d="M 794 531 
L 1825 531 
L 1825 4091 
L 703 3866 
L 703 4441 
L 1819 4666 
L 2450 4666 
L 2450 531 
L 3481 531 
L 3481 0 
L 794 0 
L 794 531 
z
" transform="scale(0.015625)"/>
       </defs>
       <use xlink:href="#DejaVuSans-31"/>
       <use xlink:href="#DejaVuSans-30" x="63.623047"/>
       <use xlink:href="#DejaVuSans-30" x="127.246094"/>
      </g>
     </g>
    </g>
    <g id="text_7">
     <!-- Server round -->
     <g style="fill: #262626" transform="translate(185.870313 306.576062) scale(0.12 -0.12)">
      <defs>
       <path id="DejaVuSans-53" d="M 3425 4513 
L 3425 3897 
Q 3066 4069 2747 4153 
Q 2428 4238 2131 4238 
Q 1616 4238 1336 4038 
Q 1056 3838 1056 3469 
Q 1056 3159 1242 3001 
Q 1428 2844 1947 2747 
L 2328 2669 
Q 3034 2534 3370 2195 
Q 3706 1856 3706 1288 
Q 3706 609 3251 259 
Q 2797 -91 1919 -91 
Q 1588 -91 1214 -16 
Q 841 59 441 206 
L 441 856 
Q 825 641 1194 531 
Q 1563 422 1919 422 
Q 2459 422 2753 634 
Q 3047 847 3047 1241 
Q 3047 1584 2836 1778 
Q 2625 1972 2144 2069 
L 1759 2144 
Q 1053 2284 737 2584 
Q 422 2884 422 3419 
Q 422 4038 858 4394 
Q 1294 4750 2059 4750 
Q 2388 4750 2728 4690 
Q 3069 4631 3425 4513 
z
" transform="scale(0.015625)"/>
       <path id="DejaVuSans-65" d="M 3597 1894 
L 3597 1613 
L 953 1613 
Q 991 1019 1311 708 
Q 1631 397 2203 397 
Q 2534 397 2845 478 
Q 3156 559 3463 722 
L 3463 178 
Q 3153 47 2828 -22 
Q 2503 -91 2169 -91 
Q 1331 -91 842 396 
Q 353 884 353 1716 
Q 353 2575 817 3079 
Q 1281 3584 2069 3584 
Q 2775 3584 3186 3129 
Q 3597 2675 3597 1894 
z
M 3022 2063 
Q 3016 2534 2758 2815 
Q 2500 3097 2075 3097 
Q 1594 3097 1305 2825 
Q 1016 2553 972 2059 
L 3022 2063 
z
" transform="scale(0.015625)"/>
       <path id="DejaVuSans-72" d="M 2631 2963 
Q 2534 3019 2420 3045 
Q 2306 3072 2169 3072 
Q 1681 3072 1420 2755 
Q 1159 2438 1159 1844 
L 1159 0 
L 581 0 
L 581 3500 
L 1159 3500 
L 1159 2956 
Q 1341 3275 1631 3429 
Q 1922 3584 2338 3584 
Q 2397 3584 2469 3576 
Q 2541 3569 2628 3553 
L 2631 2963 
z
" transform="scale(0.015625)"/>
       <path id="DejaVuSans-76" d="M 191 3500 
L 800 3500 
L 1894 563 
L 2988 3500 
L 3597 3500 
L 2284 0 
L 1503 0 
L 191 3500 
z
" transform="scale(0.015625)"/>
       <path id="DejaVuSans-20" transform="scale(0.015625)"/>
       <path id="DejaVuSans-6f" d="M 1959 3097 
Q 1497 3097 1228 2736 
Q 959 2375 959 1747 
Q 959 1119 1226 758 
Q 1494 397 1959 397 
Q 2419 397 2687 759 
Q 2956 1122 2956 1747 
Q 2956 2369 2687 2733 
Q 2419 3097 1959 3097 
z
M 1959 3584 
Q 2709 3584 3137 3096 
Q 3566 2609 3566 1747 
Q 3566 888 3137 398 
Q 2709 -91 1959 -91 
Q 1206 -91 779 398 
Q 353 888 353 1747 
Q 353 2609 779 3096 
Q 1206 3584 1959 3584 
z
" transform="scale(0.015625)"/>
       <path id="DejaVuSans-75" d="M 544 1381 
L 544 3500 
L 1119 3500 
L 1119 1403 
Q 1119 906 1312 657 
Q 1506 409 1894 409 
Q 2359 409 2629 706 
Q 2900 1003 2900 1516 
L 2900 3500 
L 3475 3500 
L 3475 0 
L 2900 0 
L 2900 538 
Q 2691 219 2414 64 
Q 2138 -91 1772 -91 
Q 1169 -91 856 284 
Q 544 659 544 1381 
z
M 1991 3584 
L 1991 3584 
z
" transform="scale(0.015625)"/>
       <path id="DejaVuSans-6e" d="M 3513 2113 
L 3513 0 
L 2938 0 
L 2938 2094 
Q 2938 2591 2744 2837 
Q 2550 3084 2163 3084 
Q 1697 3084 1428 2787 
Q 1159 2491 1159 1978 
L 1159 0 
L 581 0 
L 581 3500 
L 1159 3500 
L 1159 2956 
Q 1366 3272 1645 3428 
Q 1925 3584 2291 3584 
Q 2894 3584 3203 3211 
Q 3513 2838 3513 2113 
z
" transform="scale(0.015625)"/>
       <path id="DejaVuSans-64" d="M 2906 2969 
L 2906 4863 
L 3481 4863 
L 3481 0 
L 2906 0 
L 2906 525 
Q 2725 213 2448 61 
Q 2172 -91 1784 -91 
Q 1150 -91 751 415 
Q 353 922 353 1747 
Q 353 2572 751 3078 
Q 1150 3584 1784 3584 
Q 2172 3584 2448 3432 
Q 2725 3281 2906 2969 
z
M 947 1747 
Q 947 1113 1208 752 
Q 1469 391 1925 391 
Q 2381 391 2643 752 
Q 2906 1113 2906 1747 
Q 2906 2381 2643 2742 
Q 2381 3103 1925 3103 
Q 1469 3103 1208 2742 
Q 947 2381 947 1747 
z
" transform="scale(0.015625)"/>
      </defs>
      <use xlink:href="#DejaVuSans-53"/>
      <use xlink:href="#DejaVuSans-65" x="63.476562"/>
      <use xlink:href="#DejaVuSans-72" x="125"/>
      <use xlink:href="#DejaVuSans-76" x="166.113281"/>
      <use xlink:href="#DejaVuSans-65" x="225.292969"/>
      <use xlink:href="#DejaVuSans-72" x="286.816406"/>
      <use xlink:href="#DejaVuSans-20" x="327.929688"/>
      <use xlink:href="#DejaVuSans-72" x="359.716797"/>
      <use xlink:href="#DejaVuSans-6f" x="398.580078"/>
      <use xlink:href="#DejaVuSans-75" x="459.761719"/>
      <use xlink:href="#DejaVuSans-6e" x="523.140625"/>
      <use xlink:href="#DejaVuSans-64" x="586.519531"/>
     </g>
    </g>
   </g>
   <g id="matplotlib.axis_2">
    <g id="ytick_1">
     <g id="line2d_7">
      <path d="M 46.31125 262.427696 
L 403.43125 262.427696 
" clip-path="url(#p8d3fb24a1a)" style="fill: none; stroke: #cccccc; stroke-linecap: round"/>
     </g>
     <g id="text_8">
      <!-- 8 -->
      <g style="fill: #262626" transform="translate(29.8125 266.606837) scale(0.11 -0.11)">
       <use xlink:href="#DejaVuSans-38"/>
      </g>
     </g>
    </g>
    <g id="ytick_2">
     <g id="line2d_8">
      <path d="M 46.31125 229.142566 
L 403.43125 229.142566 
" clip-path="url(#p8d3fb24a1a)" style="fill: none; stroke: #cccccc; stroke-linecap: round"/>
     </g>
     <g id="text_9">
      <!-- 10 -->
      <g style="fill: #262626" transform="translate(22.81375 233.321706) scale(0.11 -0.11)">
       <use xlink:href="#DejaVuSans-31"/>
       <use xlink:href="#DejaVuSans-30" x="63.623047"/>
      </g>
     </g>
    </g>
    <g id="ytick_3">
     <g id="line2d_9">
      <path d="M 46.31125 195.857435 
L 403.43125 195.857435 
" clip-path="url(#p8d3fb24a1a)" style="fill: none; stroke: #cccccc; stroke-linecap: round"/>
     </g>
     <g id="text_10">
      <!-- 12 -->
      <g style="fill: #262626" transform="translate(22.81375 200.036576) scale(0.11 -0.11)">
       <use xlink:href="#DejaVuSans-31"/>
       <use xlink:href="#DejaVuSans-32" x="63.623047"/>
      </g>
     </g>
    </g>
    <g id="ytick_4">
     <g id="line2d_10">
      <path d="M 46.31125 162.572305 
L 403.43125 162.572305 
" clip-path="url(#p8d3fb24a1a)" style="fill: none; stroke: #cccccc; stroke-linecap: round"/>
     </g>
     <g id="text_11">
      <!-- 14 -->
      <g style="fill: #262626" transform="translate(22.81375 166.751445) scale(0.11 -0.11)">
       <use xlink:href="#DejaVuSans-31"/>
       <use xlink:href="#DejaVuSans-34" x="63.623047"/>
      </g>
     </g>
    </g>
    <g id="ytick_5">
     <g id="line2d_11">
      <path d="M 46.31125 129.287174 
L 403.43125 129.287174 
" clip-path="url(#p8d3fb24a1a)" style="fill: none; stroke: #cccccc; stroke-linecap: round"/>
     </g>
     <g id="text_12">
      <!-- 16 -->
      <g style="fill: #262626" transform="translate(22.81375 133.466315) scale(0.11 -0.11)">
       <use xlink:href="#DejaVuSans-31"/>
       <use xlink:href="#DejaVuSans-36" x="63.623047"/>
      </g>
     </g>
    </g>
    <g id="ytick_6">
     <g id="line2d_12">
      <path d="M 46.31125 96.002043 
L 403.43125 96.002043 
" clip-path="url(#p8d3fb24a1a)" style="fill: none; stroke: #cccccc; stroke-linecap: round"/>
     </g>
     <g id="text_13">
      <!-- 18 -->
      <g style="fill: #262626" transform="translate(22.81375 100.181184) scale(0.11 -0.11)">
       <use xlink:href="#DejaVuSans-31"/>
       <use xlink:href="#DejaVuSans-38" x="63.623047"/>
      </g>
     </g>
    </g>
    <g id="ytick_7">
     <g id="line2d_13">
      <path d="M 46.31125 62.716913 
L 403.43125 62.716913 
" clip-path="url(#p8d3fb24a1a)" style="fill: none; stroke: #cccccc; stroke-linecap: round"/>
     </g>
     <g id="text_14">
      <!-- 20 -->
      <g style="fill: #262626" transform="translate(22.81375 66.896053) scale(0.11 -0.11)">
       <use xlink:href="#DejaVuSans-32"/>
       <use xlink:href="#DejaVuSans-30" x="63.623047"/>
      </g>
     </g>
    </g>
    <g id="ytick_8">
     <g id="line2d_14">
      <path d="M 46.31125 29.431782 
L 403.43125 29.431782 
" clip-path="url(#p8d3fb24a1a)" style="fill: none; stroke: #cccccc; stroke-linecap: round"/>
     </g>
     <g id="text_15">
      <!-- 22 -->
      <g style="fill: #262626" transform="translate(22.81375 33.610923) scale(0.11 -0.11)">
       <use xlink:href="#DejaVuSans-32"/>
       <use xlink:href="#DejaVuSans-32" x="63.623047"/>
      </g>
     </g>
    </g>
    <g id="text_16">
     <!-- Time (seconds) -->
     <g style="fill: #262626" transform="translate(16.318125 186.050062) rotate(-90) scale(0.12 -0.12)">
      <defs>
       <path id="DejaVuSans-54" d="M -19 4666 
L 3928 4666 
L 3928 4134 
L 2272 4134 
L 2272 0 
L 1638 0 
L 1638 4134 
L -19 4134 
L -19 4666 
z
" transform="scale(0.015625)"/>
       <path id="DejaVuSans-69" d="M 603 3500 
L 1178 3500 
L 1178 0 
L 603 0 
L 603 3500 
z
M 603 4863 
L 1178 4863 
L 1178 4134 
L 603 4134 
L 603 4863 
z
" transform="scale(0.015625)"/>
       <path id="DejaVuSans-6d" d="M 3328 2828 
Q 3544 3216 3844 3400 
Q 4144 3584 4550 3584 
Q 5097 3584 5394 3201 
Q 5691 2819 5691 2113 
L 5691 0 
L 5113 0 
L 5113 2094 
Q 5113 2597 4934 2840 
Q 4756 3084 4391 3084 
Q 3944 3084 3684 2787 
Q 3425 2491 3425 1978 
L 3425 0 
L 2847 0 
L 2847 2094 
Q 2847 2600 2669 2842 
Q 2491 3084 2119 3084 
Q 1678 3084 1418 2786 
Q 1159 2488 1159 1978 
L 1159 0 
L 581 0 
L 581 3500 
L 1159 3500 
L 1159 2956 
Q 1356 3278 1631 3431 
Q 1906 3584 2284 3584 
Q 2666 3584 2933 3390 
Q 3200 3197 3328 2828 
z
" transform="scale(0.015625)"/>
       <path id="DejaVuSans-28" d="M 1984 4856 
Q 1566 4138 1362 3434 
Q 1159 2731 1159 2009 
Q 1159 1288 1364 580 
Q 1569 -128 1984 -844 
L 1484 -844 
Q 1016 -109 783 600 
Q 550 1309 550 2009 
Q 550 2706 781 3412 
Q 1013 4119 1484 4856 
L 1984 4856 
z
" transform="scale(0.015625)"/>
       <path id="DejaVuSans-73" d="M 2834 3397 
L 2834 2853 
Q 2591 2978 2328 3040 
Q 2066 3103 1784 3103 
Q 1356 3103 1142 2972 
Q 928 2841 928 2578 
Q 928 2378 1081 2264 
Q 1234 2150 1697 2047 
L 1894 2003 
Q 2506 1872 2764 1633 
Q 3022 1394 3022 966 
Q 3022 478 2636 193 
Q 2250 -91 1575 -91 
Q 1294 -91 989 -36 
Q 684 19 347 128 
L 347 722 
Q 666 556 975 473 
Q 1284 391 1588 391 
Q 1994 391 2212 530 
Q 2431 669 2431 922 
Q 2431 1156 2273 1281 
Q 2116 1406 1581 1522 
L 1381 1569 
Q 847 1681 609 1914 
Q 372 2147 372 2553 
Q 372 3047 722 3315 
Q 1072 3584 1716 3584 
Q 2034 3584 2315 3537 
Q 2597 3491 2834 3397 
z
" transform="scale(0.015625)"/>
       <path id="DejaVuSans-63" d="M 3122 3366 
L 3122 2828 
Q 2878 2963 2633 3030 
Q 2388 3097 2138 3097 
Q 1578 3097 1268 2742 
Q 959 2388 959 1747 
Q 959 1106 1268 751 
Q 1578 397 2138 397 
Q 2388 397 2633 464 
Q 2878 531 3122 666 
L 3122 134 
Q 2881 22 2623 -34 
Q 2366 -91 2075 -91 
Q 1284 -91 818 406 
Q 353 903 353 1747 
Q 353 2603 823 3093 
Q 1294 3584 2113 3584 
Q 2378 3584 2631 3529 
Q 2884 3475 3122 3366 
z
" transform="scale(0.015625)"/>
       <path id="DejaVuSans-29" d="M 513 4856 
L 1013 4856 
Q 1481 4119 1714 3412 
Q 1947 2706 1947 2009 
Q 1947 1309 1714 600 
Q 1481 -109 1013 -844 
L 513 -844 
Q 928 -128 1133 580 
Q 1338 1288 1338 2009 
Q 1338 2731 1133 3434 
Q 928 4138 513 4856 
z
" transform="scale(0.015625)"/>
      </defs>
      <use xlink:href="#DejaVuSans-54"/>
      <use xlink:href="#DejaVuSans-69" x="57.958984"/>
      <use xlink:href="#DejaVuSans-6d" x="85.742188"/>
      <use xlink:href="#DejaVuSans-65" x="183.154297"/>
      <use xlink:href="#DejaVuSans-20" x="244.677734"/>
      <use xlink:href="#DejaVuSans-28" x="276.464844"/>
      <use xlink:href="#DejaVuSans-73" x="315.478516"/>
      <use xlink:href="#DejaVuSans-65" x="367.578125"/>
      <use xlink:href="#DejaVuSans-63" x="429.101562"/>
      <use xlink:href="#DejaVuSans-6f" x="484.082031"/>
      <use xlink:href="#DejaVuSans-6e" x="545.263672"/>
      <use xlink:href="#DejaVuSans-64" x="608.642578"/>
      <use xlink:href="#DejaVuSans-73" x="672.119141"/>
      <use xlink:href="#DejaVuSans-29" x="724.21875"/>
     </g>
    </g>
   </g>
   <g id="PolyCollection_1"/>
   <g id="PolyCollection_2"/>
   <g id="PolyCollection_3"/>
   <g id="PolyCollection_4"/>
   <g id="PolyCollection_5"/>
   <g id="line2d_15">
    <path d="M 62.543977 67.161207 
L 65.823316 162.003145 
L 69.102655 199.747573 
L 72.381994 143.782817 
L 75.661333 131.180702 
L 78.940671 229.853613 
L 82.22001 111.62205 
L 85.499349 115.782346 
L 88.778688 239.503213 
L 92.058027 133.497922 
L 95.337366 185.838476 
L 98.616705 117.631842 
L 101.896043 119.509721 
L 105.175382 179.617092 
L 108.454721 138.236229 
L 111.73406 129.474824 
L 115.013399 106.684895 
L 118.292738 202.449183 
L 121.572076 119.170997 
L 124.851415 96.840464 
L 128.130754 200.720819 
L 131.410093 123.599646 
L 134.689432 177.089224 
L 137.968771 137.852038 
L 141.24811 99.452931 
L 144.527448 167.64513 
L 147.806787 173.11755 
L 151.086126 114.896898 
L 154.365465 203.674553 
L 157.644804 126.869344 
L 160.924143 148.806595 
L 164.203481 191.863664 
L 167.48282 124.46118 
L 170.762159 119.943821 
L 174.041498 122.493234 
L 177.320837 140.971499 
L 180.600176 169.596327 
L 183.879514 121.85772 
L 187.158853 98.205432 
L 190.438192 159.599338 
L 193.717531 140.851185 
L 196.99687 126.935108 
L 200.276209 193.234655 
L 203.555548 117.241088 
L 206.834886 123.965304 
L 210.114225 129.58754 
L 213.393564 237.788502 
L 216.672903 122.32288 
L 219.952242 117.978315 
L 223.231581 229.302127 
L 226.510919 105.882582 
L 229.790258 182.938558 
L 233.069597 183.077808 
L 236.348936 123.158499 
L 239.628275 191.644822 
L 242.907614 141.100801 
L 246.186952 133.932827 
L 249.466291 203.361498 
L 252.74563 146.986731 
L 256.024969 123.884728 
L 259.304308 141.302767 
L 262.583647 204.293132 
L 265.862986 146.441769 
L 269.142324 205.336201 
L 272.421663 79.833749 
L 275.701002 197.79261 
L 278.980341 140.314193 
L 282.25968 132.41473 
L 285.539019 207.53509 
L 288.818357 109.371292 
L 292.097696 87.034013 
L 295.377035 151.724773 
L 298.656374 120.141803 
L 301.935713 100.344502 
L 305.215052 114.560492 
L 308.49439 157.174544 
L 311.773729 147.56191 
L 315.053068 89.41733 
L 318.332407 156.950902 
L 321.611746 116.306092 
L 324.891085 105.592926 
L 328.170424 92.53032 
L 331.449762 187.567217 
L 334.729101 100.512185 
L 338.00844 109.001675 
L 341.287779 172.050955 
L 344.567118 107.735162 
L 347.846457 125.8534 
L 351.125795 117.889922 
L 354.405134 165.013057 
L 357.684473 104.700546 
L 360.963812 91.943357 
L 364.243151 186.662807 
L 367.52249 97.568569 
L 370.801829 87.156403 
L 374.081167 140.483888 
L 377.360506 198.884254 
L 380.639845 103.223421 
L 383.919184 88.741883 
L 387.198523 94.944595 
" clip-path="url(#p8d3fb24a1a)" style="fill: none; stroke: #4c72b0; stroke-width: 1.5; stroke-linecap: round"/>
   </g>
   <g id="line2d_16">
    <path d="M 62.543977 45.32282 
L 65.823316 221.966847 
L 69.102655 141.622754 
L 72.381994 128.159093 
L 75.661333 205.050413 
L 78.940671 176.171668 
L 82.22001 195.520549 
L 85.499349 139.896759 
L 88.778688 188.447559 
L 92.058027 218.451112 
L 95.337366 135.298815 
L 98.616705 135.100912 
L 101.896043 207.404713 
L 105.175382 133.255872 
L 108.454721 144.95153 
L 111.73406 216.817088 
L 115.013399 106.267449 
L 118.292738 189.129831 
L 121.572076 136.925847 
L 124.851415 199.859011 
L 128.130754 154.555594 
L 131.410093 157.288463 
L 134.689432 150.994652 
L 137.968771 195.173997 
L 141.24811 145.025126 
L 144.527448 231.85281 
L 147.806787 156.083135 
L 151.086126 152.866893 
L 154.365465 213.488947 
L 157.644804 146.415207 
L 160.924143 234.547928 
L 164.203481 136.140144 
L 167.48282 156.745123 
L 170.762159 197.154814 
L 174.041498 156.124123 
L 177.320837 136.619085 
L 180.600176 192.132778 
L 183.879514 144.47781 
L 187.158853 149.89043 
L 190.438192 152.518729 
L 193.717531 183.412175 
L 196.99687 149.031928 
L 200.276209 148.970172 
L 203.555548 203.698483 
L 206.834886 147.464522 
L 210.114225 160.214592 
L 213.393564 242.680133 
L 216.672903 141.377816 
L 219.952242 212.077106 
L 223.231581 184.881463 
L 226.510919 165.36914 
L 229.790258 164.024297 
L 233.069597 109.762527 
L 236.348936 214.843508 
L 239.628275 119.203177 
L 242.907614 104.477126 
L 246.186952 213.313483 
L 249.466291 117.763735 
L 252.74563 211.006821 
L 256.024969 122.287463 
L 259.304308 157.208847 
L 262.583647 175.637053 
L 265.862986 125.611108 
L 269.142324 171.510032 
L 272.421663 155.308649 
L 275.701002 125.835108 
L 278.980341 213.625689 
L 282.25968 121.05065 
L 285.539019 136.005617 
L 288.818357 165.625811 
L 292.097696 73.456267 
L 295.377035 172.199589 
L 298.656374 75.073784 
L 301.935713 71.80907 
L 305.215052 79.882498 
L 308.49439 104.962391 
L 311.773729 176.167156 
L 315.053068 78.208423 
L 318.332407 168.083816 
L 321.611746 86.804268 
L 324.891085 87.824557 
L 328.170424 82.975891 
L 331.449762 111.427052 
L 334.729101 176.021903 
L 338.00844 100.473331 
L 341.287779 95.018636 
L 344.567118 103.018447 
L 347.846457 170.349327 
L 351.125795 105.613214 
L 354.405134 184.993223 
L 357.684473 96.784929 
L 360.963812 86.996501 
L 364.243151 99.996243 
L 367.52249 171.428456 
L 370.801829 65.057091 
L 374.081167 117.186362 
L 377.360506 197.464604 
L 380.639845 94.949892 
L 383.919184 143.455018 
L 387.198523 161.879415 
" clip-path="url(#p8d3fb24a1a)" style="fill: none; stroke-dasharray: 6,2.25; stroke-dashoffset: 0; stroke: #dd8452; stroke-width: 1.5"/>
   </g>
   <g id="line2d_17">
    <path d="M 62.543977 63.430884 
L 65.823316 151.225929 
L 69.102655 191.234582 
L 72.381994 143.802474 
L 75.661333 137.576011 
L 78.940671 162.267832 
L 82.22001 199.359386 
L 85.499349 137.360281 
L 88.778688 177.998971 
L 92.058027 159.743329 
L 95.337366 172.178567 
L 98.616705 141.244673 
L 101.896043 139.432312 
L 105.175382 197.526825 
L 108.454721 135.617469 
L 111.73406 154.689744 
L 115.013399 156.714149 
L 118.292738 181.558072 
L 121.572076 145.403025 
L 124.851415 136.409981 
L 128.130754 186.462217 
L 131.410093 151.594023 
L 134.689432 147.179238 
L 137.968771 182.806451 
L 141.24811 138.252026 
L 144.527448 220.462863 
L 147.806787 147.985661 
L 151.086126 132.639654 
L 154.365465 205.946487 
L 157.644804 145.528371 
L 160.924143 171.534589 
L 164.203481 195.85688 
L 167.48282 144.833147 
L 170.762159 170.406829 
L 174.041498 174.115186 
L 177.320837 138.954847 
L 180.600176 125.096202 
L 183.879514 146.0384 
L 187.158853 189.296355 
L 190.438192 137.67007 
L 193.717531 128.842059 
L 196.99687 150.039266 
L 200.276209 201.323265 
L 203.555548 135.150729 
L 206.834886 133.345237 
L 210.114225 210.599017 
L 213.393564 188.488154 
L 216.672903 144.180627 
L 219.952242 204.074961 
L 223.231581 173.376415 
L 226.510919 191.444582 
L 229.790258 121.586018 
L 233.069597 133.6173 
L 236.348936 149.65263 
L 239.628275 188.968964 
L 242.907614 150.48692 
L 246.186952 206.18022 
L 249.466291 155.73071 
L 252.74563 133.733476 
L 256.024969 193.668005 
L 259.304308 146.325426 
L 262.583647 138.901848 
L 265.862986 208.358516 
L 269.142324 161.87134 
L 272.421663 118.892058 
L 275.701002 134.362316 
L 278.980341 201.64049 
L 282.25968 136.950599 
L 285.539019 140.216083 
L 288.818357 112.649029 
L 292.097696 77.156168 
L 295.377035 167.187131 
L 298.656374 101.262764 
L 301.935713 94.445481 
L 305.215052 126.670493 
L 308.49439 153.360892 
L 311.773729 139.976204 
L 315.053068 123.331559 
L 318.332407 160.655009 
L 321.611746 106.953669 
L 324.891085 101.128149 
L 328.170424 98.831852 
L 331.449762 171.266339 
L 334.729101 114.898926 
L 338.00844 112.745754 
L 341.287779 108.616412 
L 344.567118 108.001935 
L 347.846457 185.864835 
L 351.125795 115.378835 
L 354.405134 112.92373 
L 357.684473 168.866996 
L 360.963812 111.490816 
L 364.243151 113.952086 
L 367.52249 155.497894 
L 370.801829 106.421363 
L 374.081167 145.481688 
L 377.360506 160.113462 
L 380.639845 122.868502 
L 383.919184 62.726872 
L 387.198523 62.728201 
" clip-path="url(#p8d3fb24a1a)" style="fill: none; stroke-dasharray: 1.5,1.5; stroke-dashoffset: 0; stroke: #55a868; stroke-width: 1.5"/>
   </g>
   <g id="line2d_18">
    <path d="M 62.543977 61.072584 
L 65.823316 179.788679 
L 69.102655 129.400846 
L 72.381994 165.174281 
L 75.661333 94.578414 
L 78.940671 222.412207 
L 82.22001 128.992355 
L 85.499349 199.392998 
L 88.778688 178.120207 
L 92.058027 224.160947 
L 95.337366 114.679298 
L 98.616705 109.197998 
L 101.896043 210.438523 
L 105.175382 123.608709 
L 108.454721 123.879034 
L 111.73406 208.137592 
L 115.013399 125.79748 
L 118.292738 148.945146 
L 121.572076 194.832131 
L 124.851415 127.145331 
L 128.130754 153.300806 
L 131.410093 143.569412 
L 134.689432 154.08637 
L 137.968771 124.080865 
L 141.24811 127.38306 
L 144.527448 222.975335 
L 147.806787 132.836525 
L 151.086126 165.545025 
L 154.365465 171.663744 
L 157.644804 134.518663 
L 160.924143 210.741452 
L 164.203481 139.900377 
L 167.48282 130.043586 
L 170.762159 133.857449 
L 174.041498 118.582439 
L 177.320837 206.934125 
L 180.600176 117.607991 
L 183.879514 203.785329 
L 187.158853 126.919248 
L 190.438192 110.353819 
L 193.717531 185.976773 
L 196.99687 211.636293 
L 200.276209 132.50246 
L 203.555548 150.209247 
L 206.834886 142.812655 
L 210.114225 149.049125 
L 213.393564 188.760836 
L 216.672903 155.930014 
L 219.952242 93.819668 
L 223.231581 178.114913 
L 226.510919 151.755477 
L 229.790258 105.689647 
L 233.069597 120.742185 
L 236.348936 165.905703 
L 239.628275 135.749568 
L 242.907614 119.848174 
L 246.186952 154.9736 
L 249.466291 144.287895 
L 252.74563 124.140605 
L 256.024969 147.729712 
L 259.304308 161.846497 
L 262.583647 92.23241 
L 265.862986 171.128574 
L 269.142324 182.911982 
L 272.421663 88.47463 
L 275.701002 171.504925 
L 278.980341 162.610579 
L 282.25968 101.216467 
L 285.539019 162.475452 
L 288.818357 57.904663 
L 292.097696 111.001328 
L 295.377035 57.251544 
L 298.656374 80.619277 
L 301.935713 86.387746 
L 305.215052 137.08 
L 308.49439 62.816336 
L 311.773729 156.617019 
L 315.053068 68.638959 
L 318.332407 60.519277 
L 321.611746 126.908725 
L 324.891085 73.986081 
L 328.170424 112.404741 
L 331.449762 149.053922 
L 334.729101 61.957917 
L 338.00844 127.794415 
L 341.287779 67.857601 
L 344.567118 120.083935 
L 347.846457 92.16081 
L 351.125795 131.175 
L 354.405134 139.889688 
L 357.684473 44.142482 
L 360.963812 113.649939 
L 364.243151 114.774286 
L 367.52249 21.903753 
L 370.801829 95.610241 
L 374.081167 128.860935 
L 377.360506 132.422467 
L 380.639845 19.296 
L 383.919184 97.085362 
L 387.198523 83.451086 
" clip-path="url(#p8d3fb24a1a)" style="fill: none; stroke-dasharray: 4.5,1.875,2.25,1.875; stroke-dashoffset: 0; stroke: #c44e52; stroke-width: 1.5"/>
   </g>
   <g id="line2d_19">
    <path d="M 62.543977 121.112374 
L 65.823316 230.211192 
L 69.102655 214.021844 
L 72.381994 218.86311 
L 75.661333 212.356648 
L 78.940671 242.013729 
L 82.22001 213.528519 
L 85.499349 206.522947 
L 88.778688 252.907371 
L 92.058027 231.408136 
L 95.337366 203.473424 
L 98.616705 217.687343 
L 101.896043 226.261059 
L 105.175382 215.851409 
L 108.454721 211.580024 
L 111.73406 225.953135 
L 115.013399 210.0138 
L 118.292738 225.934724 
L 121.572076 205.417995 
L 124.851415 214.764983 
L 128.130754 217.550597 
L 131.410093 218.766456 
L 134.689432 222.226486 
L 137.968771 210.90589 
L 141.24811 208.505253 
L 144.527448 236.872283 
L 147.806787 226.52329 
L 151.086126 218.519601 
L 154.365465 227.305886 
L 157.644804 208.248197 
L 160.924143 234.669667 
L 164.203481 221.66014 
L 167.48282 221.267473 
L 170.762159 214.758928 
L 174.041498 212.723127 
L 177.320837 223.043016 
L 180.600176 200.170317 
L 183.879514 224.128501 
L 187.158853 210.448999 
L 190.438192 212.46467 
L 193.717531 213.34742 
L 196.99687 222.55431 
L 200.276209 216.275403 
L 203.555548 209.523046 
L 206.834886 224.776272 
L 210.114225 231.838692 
L 213.393564 261.216 
L 216.672903 219.195957 
L 219.952242 225.603646 
L 223.231581 249.150304 
L 226.510919 209.222169 
L 229.790258 203.945406 
L 233.069597 200.465628 
L 236.348936 224.980679 
L 239.628275 215.320219 
L 242.907614 208.96808 
L 246.186952 218.432546 
L 249.466291 236.33618 
L 252.74563 216.847716 
L 256.024969 215.033261 
L 259.304308 222.639711 
L 262.583647 222.101541 
L 265.862986 221.33436 
L 269.142324 236.091222 
L 272.421663 204.929007 
L 275.701002 221.557376 
L 278.980341 222.933303 
L 282.25968 208.847655 
L 285.539019 223.68293 
L 288.818357 191.936991 
L 292.097696 182.694156 
L 295.377035 190.885657 
L 298.656374 170.884687 
L 301.935713 176.699434 
L 305.215052 194.825548 
L 308.49439 178.4122 
L 311.773729 222.072944 
L 315.053068 188.12756 
L 318.332407 182.376212 
L 321.611746 183.397192 
L 324.891085 179.777141 
L 328.170424 176.180461 
L 331.449762 212.061 
L 334.729101 192.523854 
L 338.00844 186.939964 
L 341.287779 186.898484 
L 344.567118 179.474954 
L 347.846457 209.089177 
L 351.125795 197.42302 
L 354.405134 196.848461 
L 357.684473 191.650373 
L 360.963812 174.922344 
L 364.243151 202.831553 
L 367.52249 187.810648 
L 370.801829 178.547438 
L 374.081167 219.566241 
L 377.360506 226.189399 
L 380.639845 190.502683 
L 383.919184 176.876799 
L 387.198523 178.660805 
" clip-path="url(#p8d3fb24a1a)" style="fill: none; stroke-dasharray: 7.5,1.5,1.5,1.5; stroke-dashoffset: 0; stroke: #8172b3; stroke-width: 1.5"/>
   </g>
   <g id="line2d_20"/>
   <g id="line2d_21"/>
   <g id="line2d_22"/>
   <g id="line2d_23"/>
   <g id="line2d_24"/>
   <g id="patch_3">
    <path d="M 46.31125 273.312 
L 46.31125 7.2 
" style="fill: none; stroke: #cccccc; stroke-width: 1.25; stroke-linejoin: miter; stroke-linecap: square"/>
   </g>
   <g id="patch_4">
    <path d="M 403.43125 273.312 
L 403.43125 7.2 
" style="fill: none; stroke: #cccccc; stroke-width: 1.25; stroke-linejoin: miter; stroke-linecap: square"/>
   </g>
   <g id="patch_5">
    <path d="M 46.31125 273.312 
L 403.43125 273.312 
" style="fill: none; stroke: #cccccc; stroke-width: 1.25; stroke-linejoin: miter; stroke-linecap: square"/>
   </g>
   <g id="patch_6">
    <path d="M 46.31125 7.2 
L 403.43125 7.2 
" style="fill: none; stroke: #cccccc; stroke-width: 1.25; stroke-linejoin: miter; stroke-linecap: square"/>
   </g>
   <g id="legend_1">
    <g id="patch_7">
     <path d="M 172.879063 113.843437 
L 276.863438 113.843437 
Q 279.063438 113.843437 279.063438 111.643437 
L 279.063438 14.9 
Q 279.063438 12.7 276.863438 12.7 
L 172.879063 12.7 
Q 170.679063 12.7 170.679063 14.9 
L 170.679063 111.643437 
Q 170.679063 113.843437 172.879063 113.843437 
z
" style="fill: #ffffff; opacity: 0.8; stroke: #cccccc; stroke-linejoin: miter"/>
    </g>
    <g id="text_17">
     <!-- Strategy -->
     <g style="fill: #262626" transform="translate(199.162188 26.218125) scale(0.12 -0.12)">
      <defs>
       <path id="DejaVuSans-74" d="M 1172 4494 
L 1172 3500 
L 2356 3500 
L 2356 3053 
L 1172 3053 
L 1172 1153 
Q 1172 725 1289 603 
Q 1406 481 1766 481 
L 2356 481 
L 2356 0 
L 1766 0 
Q 1100 0 847 248 
Q 594 497 594 1153 
L 594 3053 
L 172 3053 
L 172 3500 
L 594 3500 
L 594 4494 
L 1172 4494 
z
" transform="scale(0.015625)"/>
       <path id="DejaVuSans-61" d="M 2194 1759 
Q 1497 1759 1228 1600 
Q 959 1441 959 1056 
Q 959 750 1161 570 
Q 1363 391 1709 391 
Q 2188 391 2477 730 
Q 2766 1069 2766 1631 
L 2766 1759 
L 2194 1759 
z
M 3341 1997 
L 3341 0 
L 2766 0 
L 2766 531 
Q 2569 213 2275 61 
Q 1981 -91 1556 -91 
Q 1019 -91 701 211 
Q 384 513 384 1019 
Q 384 1609 779 1909 
Q 1175 2209 1959 2209 
L 2766 2209 
L 2766 2266 
Q 2766 2663 2505 2880 
Q 2244 3097 1772 3097 
Q 1472 3097 1187 3025 
Q 903 2953 641 2809 
L 641 3341 
Q 956 3463 1253 3523 
Q 1550 3584 1831 3584 
Q 2591 3584 2966 3190 
Q 3341 2797 3341 1997 
z
" transform="scale(0.015625)"/>
       <path id="DejaVuSans-67" d="M 2906 1791 
Q 2906 2416 2648 2759 
Q 2391 3103 1925 3103 
Q 1463 3103 1205 2759 
Q 947 2416 947 1791 
Q 947 1169 1205 825 
Q 1463 481 1925 481 
Q 2391 481 2648 825 
Q 2906 1169 2906 1791 
z
M 3481 434 
Q 3481 -459 3084 -895 
Q 2688 -1331 1869 -1331 
Q 1566 -1331 1297 -1286 
Q 1028 -1241 775 -1147 
L 775 -588 
Q 1028 -725 1275 -790 
Q 1522 -856 1778 -856 
Q 2344 -856 2625 -561 
Q 2906 -266 2906 331 
L 2906 616 
Q 2728 306 2450 153 
Q 2172 0 1784 0 
Q 1141 0 747 490 
Q 353 981 353 1791 
Q 353 2603 747 3093 
Q 1141 3584 1784 3584 
Q 2172 3584 2450 3431 
Q 2728 3278 2906 2969 
L 2906 3500 
L 3481 3500 
L 3481 434 
z
" transform="scale(0.015625)"/>
       <path id="DejaVuSans-79" d="M 2059 -325 
Q 1816 -950 1584 -1140 
Q 1353 -1331 966 -1331 
L 506 -1331 
L 506 -850 
L 844 -850 
Q 1081 -850 1212 -737 
Q 1344 -625 1503 -206 
L 1606 56 
L 191 3500 
L 800 3500 
L 1894 763 
L 2988 3500 
L 3597 3500 
L 2059 -325 
z
" transform="scale(0.015625)"/>
      </defs>
      <use xlink:href="#DejaVuSans-53"/>
      <use xlink:href="#DejaVuSans-74" x="63.476562"/>
      <use xlink:href="#DejaVuSans-72" x="102.685547"/>
      <use xlink:href="#DejaVuSans-61" x="143.798828"/>
      <use xlink:href="#DejaVuSans-74" x="205.078125"/>
      <use xlink:href="#DejaVuSans-65" x="244.287109"/>
      <use xlink:href="#DejaVuSans-67" x="305.810547"/>
      <use xlink:href="#DejaVuSans-79" x="369.287109"/>
     </g>
    </g>
    <g id="line2d_25">
     <path d="M 175.079063 38.722031 
L 186.079063 38.722031 
L 197.079063 38.722031 
" style="fill: none; stroke: #4c72b0; stroke-width: 1.5; stroke-linecap: round"/>
    </g>
    <g id="text_18">
     <!-- FedPredict -->
     <g style="fill: #262626" transform="translate(205.879063 42.572031) scale(0.11 -0.11)">
      <defs>
       <path id="DejaVuSans-46" d="M 628 4666 
L 3309 4666 
L 3309 4134 
L 1259 4134 
L 1259 2759 
L 3109 2759 
L 3109 2228 
L 1259 2228 
L 1259 0 
L 628 0 
L 628 4666 
z
" transform="scale(0.015625)"/>
       <path id="DejaVuSans-50" d="M 1259 4147 
L 1259 2394 
L 2053 2394 
Q 2494 2394 2734 2622 
Q 2975 2850 2975 3272 
Q 2975 3691 2734 3919 
Q 2494 4147 2053 4147 
L 1259 4147 
z
M 628 4666 
L 2053 4666 
Q 2838 4666 3239 4311 
Q 3641 3956 3641 3272 
Q 3641 2581 3239 2228 
Q 2838 1875 2053 1875 
L 1259 1875 
L 1259 0 
L 628 0 
L 628 4666 
z
" transform="scale(0.015625)"/>
      </defs>
      <use xlink:href="#DejaVuSans-46"/>
      <use xlink:href="#DejaVuSans-65" x="52.019531"/>
      <use xlink:href="#DejaVuSans-64" x="113.542969"/>
      <use xlink:href="#DejaVuSans-50" x="177.019531"/>
      <use xlink:href="#DejaVuSans-72" x="235.572266"/>
      <use xlink:href="#DejaVuSans-65" x="274.435547"/>
      <use xlink:href="#DejaVuSans-64" x="335.958984"/>
      <use xlink:href="#DejaVuSans-69" x="399.435547"/>
      <use xlink:href="#DejaVuSans-63" x="427.21875"/>
      <use xlink:href="#DejaVuSans-74" x="482.199219"/>
     </g>
    </g>
    <g id="line2d_26">
     <path d="M 175.079063 54.867969 
L 186.079063 54.867969 
L 197.079063 54.867969 
" style="fill: none; stroke-dasharray: 6,2.25; stroke-dashoffset: 0; stroke: #dd8452; stroke-width: 1.5"/>
    </g>
    <g id="text_19">
     <!-- FedAVG -->
     <g style="fill: #262626" transform="translate(205.879063 58.717969) scale(0.11 -0.11)">
      <defs>
       <path id="DejaVuSans-41" d="M 2188 4044 
L 1331 1722 
L 3047 1722 
L 2188 4044 
z
M 1831 4666 
L 2547 4666 
L 4325 0 
L 3669 0 
L 3244 1197 
L 1141 1197 
L 716 0 
L 50 0 
L 1831 4666 
z
" transform="scale(0.015625)"/>
       <path id="DejaVuSans-56" d="M 1831 0 
L 50 4666 
L 709 4666 
L 2188 738 
L 3669 4666 
L 4325 4666 
L 2547 0 
L 1831 0 
z
" transform="scale(0.015625)"/>
       <path id="DejaVuSans-47" d="M 3809 666 
L 3809 1919 
L 2778 1919 
L 2778 2438 
L 4434 2438 
L 4434 434 
Q 4069 175 3628 42 
Q 3188 -91 2688 -91 
Q 1594 -91 976 548 
Q 359 1188 359 2328 
Q 359 3472 976 4111 
Q 1594 4750 2688 4750 
Q 3144 4750 3555 4637 
Q 3966 4525 4313 4306 
L 4313 3634 
Q 3963 3931 3569 4081 
Q 3175 4231 2741 4231 
Q 1884 4231 1454 3753 
Q 1025 3275 1025 2328 
Q 1025 1384 1454 906 
Q 1884 428 2741 428 
Q 3075 428 3337 486 
Q 3600 544 3809 666 
z
" transform="scale(0.015625)"/>
      </defs>
      <use xlink:href="#DejaVuSans-46"/>
      <use xlink:href="#DejaVuSans-65" x="52.019531"/>
      <use xlink:href="#DejaVuSans-64" x="113.542969"/>
      <use xlink:href="#DejaVuSans-41" x="177.019531"/>
      <use xlink:href="#DejaVuSans-56" x="239.052734"/>
      <use xlink:href="#DejaVuSans-47" x="307.460938"/>
     </g>
    </g>
    <g id="line2d_27">
     <path d="M 175.079063 71.013906 
L 186.079063 71.013906 
L 197.079063 71.013906 
" style="fill: none; stroke-dasharray: 1.5,1.5; stroke-dashoffset: 0; stroke: #55a868; stroke-width: 1.5"/>
    </g>
    <g id="text_20">
     <!-- FedClassAvg -->
     <g style="fill: #262626" transform="translate(205.879063 74.863906) scale(0.11 -0.11)">
      <defs>
       <path id="DejaVuSans-43" d="M 4122 4306 
L 4122 3641 
Q 3803 3938 3442 4084 
Q 3081 4231 2675 4231 
Q 1875 4231 1450 3742 
Q 1025 3253 1025 2328 
Q 1025 1406 1450 917 
Q 1875 428 2675 428 
Q 3081 428 3442 575 
Q 3803 722 4122 1019 
L 4122 359 
Q 3791 134 3420 21 
Q 3050 -91 2638 -91 
Q 1578 -91 968 557 
Q 359 1206 359 2328 
Q 359 3453 968 4101 
Q 1578 4750 2638 4750 
Q 3056 4750 3426 4639 
Q 3797 4528 4122 4306 
z
" transform="scale(0.015625)"/>
       <path id="DejaVuSans-6c" d="M 603 4863 
L 1178 4863 
L 1178 0 
L 603 0 
L 603 4863 
z
" transform="scale(0.015625)"/>
      </defs>
      <use xlink:href="#DejaVuSans-46"/>
      <use xlink:href="#DejaVuSans-65" x="52.019531"/>
      <use xlink:href="#DejaVuSans-64" x="113.542969"/>
      <use xlink:href="#DejaVuSans-43" x="177.019531"/>
      <use xlink:href="#DejaVuSans-6c" x="246.84375"/>
      <use xlink:href="#DejaVuSans-61" x="274.626953"/>
      <use xlink:href="#DejaVuSans-73" x="335.90625"/>
      <use xlink:href="#DejaVuSans-73" x="388.005859"/>
      <use xlink:href="#DejaVuSans-41" x="440.105469"/>
      <use xlink:href="#DejaVuSans-76" x="502.638672"/>
      <use xlink:href="#DejaVuSans-67" x="561.818359"/>
     </g>
    </g>
    <g id="line2d_28">
     <path d="M 175.079063 87.159844 
L 186.079063 87.159844 
L 197.079063 87.159844 
" style="fill: none; stroke-dasharray: 4.5,1.875,2.25,1.875; stroke-dashoffset: 0; stroke: #c44e52; stroke-width: 1.5"/>
    </g>
    <g id="text_21">
     <!-- FedPer -->
     <g style="fill: #262626" transform="translate(205.879063 91.009844) scale(0.11 -0.11)">
      <use xlink:href="#DejaVuSans-46"/>
      <use xlink:href="#DejaVuSans-65" x="52.019531"/>
      <use xlink:href="#DejaVuSans-64" x="113.542969"/>
      <use xlink:href="#DejaVuSans-50" x="177.019531"/>
      <use xlink:href="#DejaVuSans-65" x="233.697266"/>
      <use xlink:href="#DejaVuSans-72" x="295.220703"/>
     </g>
    </g>
    <g id="line2d_29">
     <path d="M 175.079063 103.305781 
L 186.079063 103.305781 
L 197.079063 103.305781 
" style="fill: none; stroke-dasharray: 7.5,1.5,1.5,1.5; stroke-dashoffset: 0; stroke: #8172b3; stroke-width: 1.5"/>
    </g>
    <g id="text_22">
     <!-- FedProto -->
     <g style="fill: #262626" transform="translate(205.879063 107.155781) scale(0.11 -0.11)">
      <use xlink:href="#DejaVuSans-46"/>
      <use xlink:href="#DejaVuSans-65" x="52.019531"/>
      <use xlink:href="#DejaVuSans-64" x="113.542969"/>
      <use xlink:href="#DejaVuSans-50" x="177.019531"/>
      <use xlink:href="#DejaVuSans-72" x="235.572266"/>
      <use xlink:href="#DejaVuSans-6f" x="274.435547"/>
      <use xlink:href="#DejaVuSans-74" x="335.617188"/>
      <use xlink:href="#DejaVuSans-6f" x="374.826172"/>
     </g>
    </g>
   </g>
  </g>
 </g>
 <defs>
  <clipPath id="p8d3fb24a1a">
   <rect x="46.31125" y="7.2" width="357.12" height="266.112"/>
  </clipPath>
 </defs>
</svg>
