<?xml version="1.0" encoding="utf-8" standalone="no"?>
<!DOCTYPE svg PUBLIC "-//W3C//DTD SVG 1.1//EN"
  "http://www.w3.org/Graphics/SVG/1.1/DTD/svg11.dtd">
<svg xmlns:xlink="http://www.w3.org/1999/xlink" width="417.63pt" height="316.271687pt" viewBox="0 0 417.63 316.271687" xmlns="http://www.w3.org/2000/svg" version="1.1">
 <metadata>
  <rdf:RDF xmlns:dc="http://purl.org/dc/elements/1.1/" xmlns:cc="http://creativecommons.org/ns#" xmlns:rdf="http://www.w3.org/1999/02/22-rdf-syntax-ns#">
   <cc:Work>
    <dc:type rdf:resource="http://purl.org/dc/dcmitype/StillImage"/>
    <dc:date>2023-02-11T04:35:45.098974</dc:date>
    <dc:format>image/svg+xml</dc:format>
    <dc:creator>
     <cc:Agent>
      <dc:title>Matplotlib v3.6.3, https://matplotlib.org/</dc:title>
     </cc:Agent>
    </dc:creator>
   </cc:Work>
  </rdf:RDF>
 </metadata>
 <defs>
  <style type="text/css">*{stroke-linejoin: round; stroke-linecap: butt}</style>
 </defs>
 <g id="figure_1">
  <g id="patch_1">
   <path d="M 0 316.271687 
L 417.63 316.271687 
L 417.63 0 
L 0 0 
z
" style="fill: #ffffff"/>
  </g>
  <g id="axes_1">
   <g id="patch_2">
    <path d="M 53.31 273.312 
L 410.43 273.312 
L 410.43 7.2 
L 53.31 7.2 
z
" style="fill: #ffffff"/>
   </g>
   <g id="matplotlib.axis_1">
    <g id="xtick_1">
     <g id="line2d_1">
      <path d="M 66.263388 273.312 
L 66.263388 7.2 
" clip-path="url(#p7e0e09179c)" style="fill: none; stroke: #cccccc; stroke-linecap: round"/>
     </g>
     <g id="text_1">
      <!-- 0 -->
      <g style="fill: #262626" transform="translate(62.764013 291.170281) scale(0.11 -0.11)">
       <defs>
        <path id="DejaVuSans-30" d="M 2034 4250 
Q 1547 4250 1301 3770 
Q 1056 3291 1056 2328 
Q 1056 1369 1301 889 
Q 1547 409 2034 409 
Q 2525 409 2770 889 
Q 3016 1369 3016 2328 
Q 3016 3291 2770 3770 
Q 2525 4250 2034 4250 
z
M 2034 4750 
Q 2819 4750 3233 4129 
Q 3647 3509 3647 2328 
Q 3647 1150 3233 529 
Q 2819 -91 2034 -91 
Q 1250 -91 836 529 
Q 422 1150 422 2328 
Q 422 3509 836 4129 
Q 1250 4750 2034 4750 
z
" transform="scale(0.015625)"/>
       </defs>
       <use xlink:href="#DejaVuSans-30"/>
      </g>
     </g>
    </g>
    <g id="xtick_2">
     <g id="line2d_2">
      <path d="M 131.850165 273.312 
L 131.850165 7.2 
" clip-path="url(#p7e0e09179c)" style="fill: none; stroke: #cccccc; stroke-linecap: round"/>
     </g>
     <g id="text_2">
      <!-- 20 -->
      <g style="fill: #262626" transform="translate(124.851415 291.170281) scale(0.11 -0.11)">
       <defs>
        <path id="DejaVuSans-32" d="M 1228 531 
L 3431 531 
L 3431 0 
L 469 0 
L 469 531 
Q 828 903 1448 1529 
Q 2069 2156 2228 2338 
Q 2531 2678 2651 2914 
Q 2772 3150 2772 3378 
Q 2772 3750 2511 3984 
Q 2250 4219 1831 4219 
Q 1534 4219 1204 4116 
Q 875 4013 500 3803 
L 500 4441 
Q 881 4594 1212 4672 
Q 1544 4750 1819 4750 
Q 2544 4750 2975 4387 
Q 3406 4025 3406 3419 
Q 3406 3131 3298 2873 
Q 3191 2616 2906 2266 
Q 2828 2175 2409 1742 
Q 1991 1309 1228 531 
z
" transform="scale(0.015625)"/>
       </defs>
       <use xlink:href="#DejaVuSans-32"/>
       <use xlink:href="#DejaVuSans-30" x="63.623047"/>
      </g>
     </g>
    </g>
    <g id="xtick_3">
     <g id="line2d_3">
      <path d="M 197.436942 273.312 
L 197.436942 7.2 
" clip-path="url(#p7e0e09179c)" style="fill: none; stroke: #cccccc; stroke-linecap: round"/>
     </g>
     <g id="text_3">
      <!-- 40 -->
      <g style="fill: #262626" transform="translate(190.438192 291.170281) scale(0.11 -0.11)">
       <defs>
        <path id="DejaVuSans-34" d="M 2419 4116 
L 825 1625 
L 2419 1625 
L 2419 4116 
z
M 2253 4666 
L 3047 4666 
L 3047 1625 
L 3713 1625 
L 3713 1100 
L 3047 1100 
L 3047 0 
L 2419 0 
L 2419 1100 
L 313 1100 
L 313 1709 
L 2253 4666 
z
" transform="scale(0.015625)"/>
       </defs>
       <use xlink:href="#DejaVuSans-34"/>
       <use xlink:href="#DejaVuSans-30" x="63.623047"/>
      </g>
     </g>
    </g>
    <g id="xtick_4">
     <g id="line2d_4">
      <path d="M 263.023719 273.312 
L 263.023719 7.2 
" clip-path="url(#p7e0e09179c)" style="fill: none; stroke: #cccccc; stroke-linecap: round"/>
     </g>
     <g id="text_4">
      <!-- 60 -->
      <g style="fill: #262626" transform="translate(256.024969 291.170281) scale(0.11 -0.11)">
       <defs>
        <path id="DejaVuSans-36" d="M 2113 2584 
Q 1688 2584 1439 2293 
Q 1191 2003 1191 1497 
Q 1191 994 1439 701 
Q 1688 409 2113 409 
Q 2538 409 2786 701 
Q 3034 994 3034 1497 
Q 3034 2003 2786 2293 
Q 2538 2584 2113 2584 
z
M 3366 4563 
L 3366 3988 
Q 3128 4100 2886 4159 
Q 2644 4219 2406 4219 
Q 1781 4219 1451 3797 
Q 1122 3375 1075 2522 
Q 1259 2794 1537 2939 
Q 1816 3084 2150 3084 
Q 2853 3084 3261 2657 
Q 3669 2231 3669 1497 
Q 3669 778 3244 343 
Q 2819 -91 2113 -91 
Q 1303 -91 875 529 
Q 447 1150 447 2328 
Q 447 3434 972 4092 
Q 1497 4750 2381 4750 
Q 2619 4750 2861 4703 
Q 3103 4656 3366 4563 
z
" transform="scale(0.015625)"/>
       </defs>
       <use xlink:href="#DejaVuSans-36"/>
       <use xlink:href="#DejaVuSans-30" x="63.623047"/>
      </g>
     </g>
    </g>
    <g id="xtick_5">
     <g id="line2d_5">
      <path d="M 328.610496 273.312 
L 328.610496 7.2 
" clip-path="url(#p7e0e09179c)" style="fill: none; stroke: #cccccc; stroke-linecap: round"/>
     </g>
     <g id="text_5">
      <!-- 80 -->
      <g style="fill: #262626" transform="translate(321.611746 291.170281) scale(0.11 -0.11)">
       <defs>
        <path id="DejaVuSans-38" d="M 2034 2216 
Q 1584 2216 1326 1975 
Q 1069 1734 1069 1313 
Q 1069 891 1326 650 
Q 1584 409 2034 409 
Q 2484 409 2743 651 
Q 3003 894 3003 1313 
Q 3003 1734 2745 1975 
Q 2488 2216 2034 2216 
z
M 1403 2484 
Q 997 2584 770 2862 
Q 544 3141 544 3541 
Q 544 4100 942 4425 
Q 1341 4750 2034 4750 
Q 2731 4750 3128 4425 
Q 3525 4100 3525 3541 
Q 3525 3141 3298 2862 
Q 3072 2584 2669 2484 
Q 3125 2378 3379 2068 
Q 3634 1759 3634 1313 
Q 3634 634 3220 271 
Q 2806 -91 2034 -91 
Q 1263 -91 848 271 
Q 434 634 434 1313 
Q 434 1759 690 2068 
Q 947 2378 1403 2484 
z
M 1172 3481 
Q 1172 3119 1398 2916 
Q 1625 2713 2034 2713 
Q 2441 2713 2670 2916 
Q 2900 3119 2900 3481 
Q 2900 3844 2670 4047 
Q 2441 4250 2034 4250 
Q 1625 4250 1398 4047 
Q 1172 3844 1172 3481 
z
" transform="scale(0.015625)"/>
       </defs>
       <use xlink:href="#DejaVuSans-38"/>
       <use xlink:href="#DejaVuSans-30" x="63.623047"/>
      </g>
     </g>
    </g>
    <g id="xtick_6">
     <g id="line2d_6">
      <path d="M 394.197273 273.312 
L 394.197273 7.2 
" clip-path="url(#p7e0e09179c)" style="fill: none; stroke: #cccccc; stroke-linecap: round"/>
     </g>
     <g id="text_6">
      <!-- 100 -->
      <g style="fill: #262626" transform="translate(383.699148 291.170281) scale(0.11 -0.11)">
       <defs>
        <path id="DejaVuSans-31" d="M 794 531 
L 1825 531 
L 1825 4091 
L 703 3866 
L 703 4441 
L 1819 4666 
L 2450 4666 
L 2450 531 
L 3481 531 
L 3481 0 
L 794 0 
L 794 531 
z
" transform="scale(0.015625)"/>
       </defs>
       <use xlink:href="#DejaVuSans-31"/>
       <use xlink:href="#DejaVuSans-30" x="63.623047"/>
       <use xlink:href="#DejaVuSans-30" x="127.246094"/>
      </g>
     </g>
    </g>
    <g id="text_7">
     <!-- Round -->
     <g style="fill: #262626" transform="translate(212.885625 306.576062) scale(0.12 -0.12)">
      <defs>
       <path id="DejaVuSans-52" d="M 2841 2188 
Q 3044 2119 3236 1894 
Q 3428 1669 3622 1275 
L 4263 0 
L 3584 0 
L 2988 1197 
Q 2756 1666 2539 1819 
Q 2322 1972 1947 1972 
L 1259 1972 
L 1259 0 
L 628 0 
L 628 4666 
L 2053 4666 
Q 2853 4666 3247 4331 
Q 3641 3997 3641 3322 
Q 3641 2881 3436 2590 
Q 3231 2300 2841 2188 
z
M 1259 4147 
L 1259 2491 
L 2053 2491 
Q 2509 2491 2742 2702 
Q 2975 2913 2975 3322 
Q 2975 3731 2742 3939 
Q 2509 4147 2053 4147 
L 1259 4147 
z
" transform="scale(0.015625)"/>
       <path id="DejaVuSans-6f" d="M 1959 3097 
Q 1497 3097 1228 2736 
Q 959 2375 959 1747 
Q 959 1119 1226 758 
Q 1494 397 1959 397 
Q 2419 397 2687 759 
Q 2956 1122 2956 1747 
Q 2956 2369 2687 2733 
Q 2419 3097 1959 3097 
z
M 1959 3584 
Q 2709 3584 3137 3096 
Q 3566 2609 3566 1747 
Q 3566 888 3137 398 
Q 2709 -91 1959 -91 
Q 1206 -91 779 398 
Q 353 888 353 1747 
Q 353 2609 779 3096 
Q 1206 3584 1959 3584 
z
" transform="scale(0.015625)"/>
       <path id="DejaVuSans-75" d="M 544 1381 
L 544 3500 
L 1119 3500 
L 1119 1403 
Q 1119 906 1312 657 
Q 1506 409 1894 409 
Q 2359 409 2629 706 
Q 2900 1003 2900 1516 
L 2900 3500 
L 3475 3500 
L 3475 0 
L 2900 0 
L 2900 538 
Q 2691 219 2414 64 
Q 2138 -91 1772 -91 
Q 1169 -91 856 284 
Q 544 659 544 1381 
z
M 1991 3584 
L 1991 3584 
z
" transform="scale(0.015625)"/>
       <path id="DejaVuSans-6e" d="M 3513 2113 
L 3513 0 
L 2938 0 
L 2938 2094 
Q 2938 2591 2744 2837 
Q 2550 3084 2163 3084 
Q 1697 3084 1428 2787 
Q 1159 2491 1159 1978 
L 1159 0 
L 581 0 
L 581 3500 
L 1159 3500 
L 1159 2956 
Q 1366 3272 1645 3428 
Q 1925 3584 2291 3584 
Q 2894 3584 3203 3211 
Q 3513 2838 3513 2113 
z
" transform="scale(0.015625)"/>
       <path id="DejaVuSans-64" d="M 2906 2969 
L 2906 4863 
L 3481 4863 
L 3481 0 
L 2906 0 
L 2906 525 
Q 2725 213 2448 61 
Q 2172 -91 1784 -91 
Q 1150 -91 751 415 
Q 353 922 353 1747 
Q 353 2572 751 3078 
Q 1150 3584 1784 3584 
Q 2172 3584 2448 3432 
Q 2725 3281 2906 2969 
z
M 947 1747 
Q 947 1113 1208 752 
Q 1469 391 1925 391 
Q 2381 391 2643 752 
Q 2906 1113 2906 1747 
Q 2906 2381 2643 2742 
Q 2381 3103 1925 3103 
Q 1469 3103 1208 2742 
Q 947 2381 947 1747 
z
" transform="scale(0.015625)"/>
      </defs>
      <use xlink:href="#DejaVuSans-52"/>
      <use xlink:href="#DejaVuSans-6f" x="64.982422"/>
      <use xlink:href="#DejaVuSans-75" x="126.164062"/>
      <use xlink:href="#DejaVuSans-6e" x="189.542969"/>
      <use xlink:href="#DejaVuSans-64" x="252.921875"/>
     </g>
    </g>
   </g>
   <g id="matplotlib.axis_2">
    <g id="ytick_1">
     <g id="line2d_7">
      <path d="M 53.31 246.765897 
L 410.43 246.765897 
" clip-path="url(#p7e0e09179c)" style="fill: none; stroke: #cccccc; stroke-linecap: round"/>
     </g>
     <g id="text_8">
      <!-- 20 -->
      <g style="fill: #262626" transform="translate(29.8125 250.945038) scale(0.11 -0.11)">
       <use xlink:href="#DejaVuSans-32"/>
       <use xlink:href="#DejaVuSans-30" x="63.623047"/>
      </g>
     </g>
    </g>
    <g id="ytick_2">
     <g id="line2d_8">
      <path d="M 53.31 189.414664 
L 410.43 189.414664 
" clip-path="url(#p7e0e09179c)" style="fill: none; stroke: #cccccc; stroke-linecap: round"/>
     </g>
     <g id="text_9">
      <!-- 40 -->
      <g style="fill: #262626" transform="translate(29.8125 193.593805) scale(0.11 -0.11)">
       <use xlink:href="#DejaVuSans-34"/>
       <use xlink:href="#DejaVuSans-30" x="63.623047"/>
      </g>
     </g>
    </g>
    <g id="ytick_3">
     <g id="line2d_9">
      <path d="M 53.31 132.063432 
L 410.43 132.063432 
" clip-path="url(#p7e0e09179c)" style="fill: none; stroke: #cccccc; stroke-linecap: round"/>
     </g>
     <g id="text_10">
      <!-- 60 -->
      <g style="fill: #262626" transform="translate(29.8125 136.242572) scale(0.11 -0.11)">
       <use xlink:href="#DejaVuSans-36"/>
       <use xlink:href="#DejaVuSans-30" x="63.623047"/>
      </g>
     </g>
    </g>
    <g id="ytick_4">
     <g id="line2d_10">
      <path d="M 53.31 74.712199 
L 410.43 74.712199 
" clip-path="url(#p7e0e09179c)" style="fill: none; stroke: #cccccc; stroke-linecap: round"/>
     </g>
     <g id="text_11">
      <!-- 80 -->
      <g style="fill: #262626" transform="translate(29.8125 78.89134) scale(0.11 -0.11)">
       <use xlink:href="#DejaVuSans-38"/>
       <use xlink:href="#DejaVuSans-30" x="63.623047"/>
      </g>
     </g>
    </g>
    <g id="ytick_5">
     <g id="line2d_11">
      <path d="M 53.31 17.360966 
L 410.43 17.360966 
" clip-path="url(#p7e0e09179c)" style="fill: none; stroke: #cccccc; stroke-linecap: round"/>
     </g>
     <g id="text_12">
      <!-- 100 -->
      <g style="fill: #262626" transform="translate(22.81375 21.540107) scale(0.11 -0.11)">
       <use xlink:href="#DejaVuSans-31"/>
       <use xlink:href="#DejaVuSans-30" x="63.623047"/>
       <use xlink:href="#DejaVuSans-30" x="127.246094"/>
      </g>
     </g>
    </g>
    <g id="text_13">
     <!-- Accuracy (%) -->
     <g style="fill: #262626" transform="translate(16.318125 179.939437) rotate(-90) scale(0.12 -0.12)">
      <defs>
       <path id="DejaVuSans-41" d="M 2188 4044 
L 1331 1722 
L 3047 1722 
L 2188 4044 
z
M 1831 4666 
L 2547 4666 
L 4325 0 
L 3669 0 
L 3244 1197 
L 1141 1197 
L 716 0 
L 50 0 
L 1831 4666 
z
" transform="scale(0.015625)"/>
       <path id="DejaVuSans-63" d="M 3122 3366 
L 3122 2828 
Q 2878 2963 2633 3030 
Q 2388 3097 2138 3097 
Q 1578 3097 1268 2742 
Q 959 2388 959 1747 
Q 959 1106 1268 751 
Q 1578 397 2138 397 
Q 2388 397 2633 464 
Q 2878 531 3122 666 
L 3122 134 
Q 2881 22 2623 -34 
Q 2366 -91 2075 -91 
Q 1284 -91 818 406 
Q 353 903 353 1747 
Q 353 2603 823 3093 
Q 1294 3584 2113 3584 
Q 2378 3584 2631 3529 
Q 2884 3475 3122 3366 
z
" transform="scale(0.015625)"/>
       <path id="DejaVuSans-72" d="M 2631 2963 
Q 2534 3019 2420 3045 
Q 2306 3072 2169 3072 
Q 1681 3072 1420 2755 
Q 1159 2438 1159 1844 
L 1159 0 
L 581 0 
L 581 3500 
L 1159 3500 
L 1159 2956 
Q 1341 3275 1631 3429 
Q 1922 3584 2338 3584 
Q 2397 3584 2469 3576 
Q 2541 3569 2628 3553 
L 2631 2963 
z
" transform="scale(0.015625)"/>
       <path id="DejaVuSans-61" d="M 2194 1759 
Q 1497 1759 1228 1600 
Q 959 1441 959 1056 
Q 959 750 1161 570 
Q 1363 391 1709 391 
Q 2188 391 2477 730 
Q 2766 1069 2766 1631 
L 2766 1759 
L 2194 1759 
z
M 3341 1997 
L 3341 0 
L 2766 0 
L 2766 531 
Q 2569 213 2275 61 
Q 1981 -91 1556 -91 
Q 1019 -91 701 211 
Q 384 513 384 1019 
Q 384 1609 779 1909 
Q 1175 2209 1959 2209 
L 2766 2209 
L 2766 2266 
Q 2766 2663 2505 2880 
Q 2244 3097 1772 3097 
Q 1472 3097 1187 3025 
Q 903 2953 641 2809 
L 641 3341 
Q 956 3463 1253 3523 
Q 1550 3584 1831 3584 
Q 2591 3584 2966 3190 
Q 3341 2797 3341 1997 
z
" transform="scale(0.015625)"/>
       <path id="DejaVuSans-79" d="M 2059 -325 
Q 1816 -950 1584 -1140 
Q 1353 -1331 966 -1331 
L 506 -1331 
L 506 -850 
L 844 -850 
Q 1081 -850 1212 -737 
Q 1344 -625 1503 -206 
L 1606 56 
L 191 3500 
L 800 3500 
L 1894 763 
L 2988 3500 
L 3597 3500 
L 2059 -325 
z
" transform="scale(0.015625)"/>
       <path id="DejaVuSans-20" transform="scale(0.015625)"/>
       <path id="DejaVuSans-28" d="M 1984 4856 
Q 1566 4138 1362 3434 
Q 1159 2731 1159 2009 
Q 1159 1288 1364 580 
Q 1569 -128 1984 -844 
L 1484 -844 
Q 1016 -109 783 600 
Q 550 1309 550 2009 
Q 550 2706 781 3412 
Q 1013 4119 1484 4856 
L 1984 4856 
z
" transform="scale(0.015625)"/>
       <path id="DejaVuSans-25" d="M 4653 2053 
Q 4381 2053 4226 1822 
Q 4072 1591 4072 1178 
Q 4072 772 4226 539 
Q 4381 306 4653 306 
Q 4919 306 5073 539 
Q 5228 772 5228 1178 
Q 5228 1588 5073 1820 
Q 4919 2053 4653 2053 
z
M 4653 2450 
Q 5147 2450 5437 2106 
Q 5728 1763 5728 1178 
Q 5728 594 5436 251 
Q 5144 -91 4653 -91 
Q 4153 -91 3862 251 
Q 3572 594 3572 1178 
Q 3572 1766 3864 2108 
Q 4156 2450 4653 2450 
z
M 1428 4353 
Q 1159 4353 1004 4120 
Q 850 3888 850 3481 
Q 850 3069 1003 2837 
Q 1156 2606 1428 2606 
Q 1700 2606 1854 2837 
Q 2009 3069 2009 3481 
Q 2009 3884 1853 4118 
Q 1697 4353 1428 4353 
z
M 4250 4750 
L 4750 4750 
L 1831 -91 
L 1331 -91 
L 4250 4750 
z
M 1428 4750 
Q 1922 4750 2215 4408 
Q 2509 4066 2509 3481 
Q 2509 2891 2217 2550 
Q 1925 2209 1428 2209 
Q 931 2209 642 2551 
Q 353 2894 353 3481 
Q 353 4063 643 4406 
Q 934 4750 1428 4750 
z
" transform="scale(0.015625)"/>
       <path id="DejaVuSans-29" d="M 513 4856 
L 1013 4856 
Q 1481 4119 1714 3412 
Q 1947 2706 1947 2009 
Q 1947 1309 1714 600 
Q 1481 -109 1013 -844 
L 513 -844 
Q 928 -128 1133 580 
Q 1338 1288 1338 2009 
Q 1338 2731 1133 3434 
Q 928 4138 513 4856 
z
" transform="scale(0.015625)"/>
      </defs>
      <use xlink:href="#DejaVuSans-41"/>
      <use xlink:href="#DejaVuSans-63" x="66.658203"/>
      <use xlink:href="#DejaVuSans-63" x="121.638672"/>
      <use xlink:href="#DejaVuSans-75" x="176.619141"/>
      <use xlink:href="#DejaVuSans-72" x="239.998047"/>
      <use xlink:href="#DejaVuSans-61" x="281.111328"/>
      <use xlink:href="#DejaVuSans-63" x="342.390625"/>
      <use xlink:href="#DejaVuSans-79" x="397.371094"/>
      <use xlink:href="#DejaVuSans-20" x="456.550781"/>
      <use xlink:href="#DejaVuSans-28" x="488.337891"/>
      <use xlink:href="#DejaVuSans-25" x="527.351562"/>
      <use xlink:href="#DejaVuSans-29" x="622.371094"/>
     </g>
    </g>
   </g>
   <g id="PolyCollection_1">
    <defs>
     <path id="m1481fed4fc" d="M 69.542727 -169.044691 
L 69.542727 -105.810688 
L 72.822066 -193.691347 
L 76.101405 -178.204447 
L 79.380744 -230.353163 
L 82.660083 -258.677039 
L 85.939421 -270.061894 
L 89.21876 -273.772213 
L 92.498099 -271.262399 
L 95.777438 -280.806588 
L 99.056777 -279.78406 
L 102.336116 -277.768051 
L 105.615455 -278.717556 
L 108.894793 -281.584504 
L 112.174132 -285.798541 
L 115.453471 -283.150064 
L 118.73281 -285.566666 
L 122.012149 -289.792409 
L 125.291488 -288.47741 
L 128.570826 -285.520426 
L 131.850165 -290.237259 
L 135.129504 -277.183328 
L 138.408843 -284.714397 
L 141.688182 -289.081106 
L 144.967521 -290.002462 
L 148.24686 -290.465686 
L 151.526198 -286.547532 
L 154.805537 -288.904645 
L 158.084876 -288.559507 
L 161.364215 -290.154002 
L 164.643554 -286.91447 
L 167.922893 -288.872027 
L 171.202231 -290.762577 
L 174.48157 -287.041445 
L 177.760909 -289.712744 
L 181.040248 -290.670811 
L 184.319587 -292.53355 
L 187.598926 -287.07484 
L 190.878264 -289.885144 
L 194.157603 -292.483623 
L 197.436942 -292.937572 
L 200.716281 -294.241868 
L 203.99562 -292.63141 
L 207.274959 -293.294211 
L 210.554298 -293.57901 
L 213.833636 -291.306096 
L 217.112975 -292.939742 
L 220.392314 -292.523083 
L 223.671653 -293.317657 
L 226.950992 -289.17192 
L 230.230331 -291.710242 
L 233.509669 -293.717167 
L 236.789008 -292.497604 
L 240.068347 -293.826128 
L 243.347686 -294.367051 
L 246.627025 -294.437909 
L 249.906364 -293.969799 
L 253.185702 -293.613537 
L 256.465041 -294.369583 
L 259.74438 -294.006039 
L 263.023719 -294.891304 
L 266.303058 -294.303192 
L 269.582397 -294.752792 
L 272.861736 -293.652258 
L 276.141074 -294.22976 
L 279.420413 -292.622737 
L 282.699752 -293.874113 
L 285.979091 -292.565779 
L 289.25843 -293.481585 
L 292.537769 -294.027933 
L 295.817107 -288.792457 
L 299.096446 -287.751822 
L 302.375785 -287.980326 
L 305.655124 -288.299898 
L 308.934463 -287.156447 
L 312.213802 -289.731604 
L 315.49314 -288.300736 
L 318.772479 -286.029746 
L 322.051818 -286.571496 
L 325.331157 -287.274122 
L 328.610496 -285.352883 
L 331.889835 -287.257308 
L 335.169174 -285.728008 
L 338.448512 -286.281762 
L 341.727851 -286.023047 
L 345.00719 -286.228393 
L 348.286529 -287.006957 
L 351.565868 -286.367774 
L 354.845207 -286.406575 
L 358.124545 -286.540296 
L 361.403884 -283.868879 
L 364.683223 -284.723901 
L 367.962562 -284.974129 
L 371.241901 -285.852401 
L 374.52124 -285.182604 
L 377.800579 -284.005794 
L 381.079917 -285.248159 
L 384.359256 -285.505924 
L 387.638595 -286.352172 
L 390.917934 -284.80974 
L 394.197273 -285.706626 
L 394.197273 -295.757008 
L 394.197273 -295.757008 
L 390.917934 -295.708013 
L 387.638595 -295.715748 
L 384.359256 -295.337555 
L 381.079917 -295.283273 
L 377.800579 -295.566697 
L 374.52124 -295.568989 
L 371.241901 -295.360098 
L 367.962562 -295.462448 
L 364.683223 -295.383018 
L 361.403884 -295.04202 
L 358.124545 -295.35091 
L 354.845207 -295.40804 
L 351.565868 -295.804634 
L 348.286529 -296.007258 
L 345.00719 -295.664884 
L 341.727851 -295.586291 
L 338.448512 -295.565144 
L 335.169174 -295.548466 
L 331.889835 -295.595911 
L 328.610496 -295.456532 
L 325.331157 -295.504807 
L 322.051818 -295.664345 
L 318.772479 -295.662432 
L 315.49314 -295.674482 
L 312.213802 -295.864356 
L 308.934463 -295.602807 
L 305.655124 -296.069055 
L 302.375785 -295.4559 
L 299.096446 -295.642959 
L 295.817107 -295.798168 
L 292.537769 -296.944533 
L 289.25843 -296.895342 
L 285.979091 -296.688209 
L 282.699752 -296.874176 
L 279.420413 -296.878287 
L 276.141074 -296.683589 
L 272.861736 -296.716049 
L 269.582397 -296.938665 
L 266.303058 -296.772442 
L 263.023719 -296.94565 
L 259.74438 -296.799299 
L 256.465041 -296.838857 
L 253.185702 -296.71134 
L 249.906364 -296.787447 
L 246.627025 -296.876781 
L 243.347686 -296.975687 
L 240.068347 -296.551908 
L 236.789008 -296.387827 
L 233.509669 -296.643258 
L 230.230331 -296.346646 
L 226.950992 -296.074183 
L 223.671653 -296.118092 
L 220.392314 -296.232123 
L 217.112975 -296.361965 
L 213.833636 -296.456137 
L 210.554298 -296.192545 
L 207.274959 -296.323249 
L 203.99562 -296.008647 
L 200.716281 -296.485506 
L 197.436942 -296.237297 
L 194.157603 -296.107842 
L 190.878264 -296.124 
L 187.598926 -295.783838 
L 184.319587 -295.703401 
L 181.040248 -295.787278 
L 177.760909 -295.801722 
L 174.48157 -295.422988 
L 171.202231 -295.379076 
L 167.922893 -295.610183 
L 164.643554 -295.086946 
L 161.364215 -295.424367 
L 158.084876 -295.486595 
L 154.805537 -295.529097 
L 151.526198 -295.009235 
L 148.24686 -295.252992 
L 144.967521 -294.974399 
L 141.688182 -294.691725 
L 138.408843 -294.401822 
L 135.129504 -294.476207 
L 131.850165 -294.291463 
L 128.570826 -294.507601 
L 125.291488 -294.166845 
L 122.012149 -294.854472 
L 118.73281 -293.630899 
L 115.453471 -293.332156 
L 112.174132 -293.983976 
L 108.894793 -294.074164 
L 105.615455 -291.984415 
L 102.336116 -291.881363 
L 99.056777 -292.139895 
L 95.777438 -292.744974 
L 92.498099 -289.721669 
L 89.21876 -288.530646 
L 85.939421 -288.713956 
L 82.660083 -285.501397 
L 79.380744 -272.737855 
L 76.101405 -246.067699 
L 72.822066 -247.753518 
L 69.542727 -169.044691 
z
" style="stroke: #4c72b0; stroke-opacity: 0.2"/>
    </defs>
    <g clip-path="url(#p7e0e09179c)">
     <use xlink:href="#m1481fed4fc" x="0" y="316.271687" style="fill: #4c72b0; fill-opacity: 0.2; stroke: #4c72b0; stroke-opacity: 0.2"/>
    </g>
   </g>
   <g id="PolyCollection_2">
    <defs>
     <path id="m7217972b8b" d="M 69.542727 -106.249779 
L 69.542727 -59.456716 
L 72.822066 -102.380756 
L 76.101405 -55.055687 
L 79.380744 -125.09584 
L 82.660083 -194.702746 
L 85.939421 -184.851277 
L 89.21876 -196.85744 
L 92.498099 -191.132107 
L 95.777438 -212.018285 
L 99.056777 -215.312505 
L 102.336116 -210.568287 
L 105.615455 -207.298174 
L 108.894793 -246.387839 
L 112.174132 -259.761529 
L 115.453471 -231.719435 
L 118.73281 -223.854336 
L 122.012149 -257.893118 
L 125.291488 -256.103484 
L 128.570826 -240.834579 
L 131.850165 -236.048977 
L 135.129504 -254.452784 
L 138.408843 -263.919924 
L 141.688182 -241.875614 
L 144.967521 -245.79397 
L 148.24686 -258.877189 
L 151.526198 -265.882317 
L 154.805537 -258.473486 
L 158.084876 -229.782406 
L 161.364215 -242.194796 
L 164.643554 -228.823802 
L 167.922893 -273.211568 
L 171.202231 -273.72182 
L 174.48157 -256.744956 
L 177.760909 -269.577246 
L 181.040248 -275.154744 
L 184.319587 -272.82593 
L 187.598926 -260.561716 
L 190.878264 -280.418037 
L 194.157603 -274.802341 
L 197.436942 -271.476855 
L 200.716281 -278.841004 
L 203.99562 -275.850166 
L 207.274959 -278.402448 
L 210.554298 -272.251267 
L 213.833636 -278.880495 
L 217.112975 -249.09961 
L 220.392314 -269.117347 
L 223.671653 -260.723037 
L 226.950992 -265.391652 
L 230.230331 -281.8318 
L 233.509669 -276.239697 
L 236.789008 -280.725837 
L 240.068347 -276.211903 
L 243.347686 -280.061242 
L 246.627025 -281.237255 
L 249.906364 -262.399143 
L 253.185702 -261.607278 
L 256.465041 -252.908648 
L 259.74438 -282.124646 
L 263.023719 -271.429846 
L 266.303058 -256.571313 
L 269.582397 -280.422122 
L 272.861736 -282.456337 
L 276.141074 -279.928765 
L 279.420413 -267.537269 
L 282.699752 -278.816958 
L 285.979091 -272.98408 
L 289.25843 -277.72564 
L 292.537769 -271.53177 
L 295.817107 -282.53555 
L 299.096446 -273.449076 
L 302.375785 -280.589801 
L 305.655124 -279.415062 
L 308.934463 -283.851194 
L 312.213802 -285.801477 
L 315.49314 -284.482534 
L 318.772479 -277.861085 
L 322.051818 -285.913178 
L 325.331157 -282.717683 
L 328.610496 -283.082685 
L 331.889835 -281.227444 
L 335.169174 -276.542789 
L 338.448512 -276.522147 
L 341.727851 -285.360119 
L 345.00719 -285.228925 
L 348.286529 -286.90294 
L 351.565868 -286.48631 
L 354.845207 -271.646369 
L 358.124545 -284.179254 
L 361.403884 -269.841045 
L 364.683223 -284.245388 
L 367.962562 -286.702025 
L 371.241901 -284.397674 
L 374.52124 -286.122826 
L 377.800579 -273.758727 
L 381.079917 -279.039008 
L 384.359256 -285.967037 
L 387.638595 -289.460432 
L 390.917934 -283.763022 
L 394.197273 -288.117606 
L 394.197273 -291.621531 
L 394.197273 -291.621531 
L 390.917934 -290.346263 
L 387.638595 -292.009418 
L 384.359256 -290.814592 
L 381.079917 -288.311436 
L 377.800579 -285.337506 
L 374.52124 -290.262246 
L 371.241901 -289.635971 
L 367.962562 -290.606301 
L 364.683223 -289.49673 
L 361.403884 -280.581849 
L 358.124545 -289.498949 
L 354.845207 -284.431817 
L 351.565868 -290.303034 
L 348.286529 -290.944961 
L 345.00719 -289.340073 
L 341.727851 -289.652833 
L 338.448512 -286.50909 
L 335.169174 -284.464353 
L 331.889835 -287.049752 
L 328.610496 -289.250426 
L 325.331157 -288.470529 
L 322.051818 -290.021232 
L 318.772479 -285.715101 
L 315.49314 -289.576126 
L 312.213802 -289.701289 
L 308.934463 -288.705429 
L 305.655124 -287.20239 
L 302.375785 -286.98009 
L 299.096446 -283.993898 
L 295.817107 -287.768663 
L 292.537769 -283.866401 
L 289.25843 -286.852856 
L 285.979091 -284.877165 
L 282.699752 -287.391609 
L 279.420413 -283.206819 
L 276.141074 -287.92497 
L 272.861736 -288.238371 
L 269.582397 -288.758556 
L 266.303058 -280.997186 
L 263.023719 -284.623887 
L 259.74438 -288.850604 
L 256.465041 -279.35685 
L 253.185702 -283.260685 
L 249.906364 -282.861141 
L 246.627025 -288.533369 
L 243.347686 -288.334094 
L 240.068347 -286.177072 
L 236.789008 -287.127935 
L 233.509669 -285.034376 
L 230.230331 -287.100232 
L 226.950992 -281.555991 
L 223.671653 -280.13975 
L 220.392314 -281.684324 
L 217.112975 -276.524824 
L 213.833636 -285.378941 
L 210.554298 -283.772277 
L 207.274959 -285.673651 
L 203.99562 -283.827025 
L 200.716281 -286.655542 
L 197.436942 -284.019126 
L 194.157603 -285.303997 
L 190.878264 -285.604516 
L 187.598926 -278.424831 
L 184.319587 -282.710667 
L 181.040248 -285.077964 
L 177.760909 -282.888534 
L 174.48157 -274.526085 
L 171.202231 -281.931242 
L 167.922893 -280.570627 
L 164.643554 -264.13208 
L 161.364215 -273.744359 
L 158.084876 -266.723242 
L 154.805537 -277.753169 
L 151.526198 -277.580756 
L 148.24686 -275.273387 
L 144.967521 -273.380119 
L 141.688182 -271.647101 
L 138.408843 -276.417887 
L 135.129504 -272.514139 
L 131.850165 -265.560808 
L 128.570826 -269.17237 
L 125.291488 -273.548298 
L 122.012149 -272.004852 
L 118.73281 -258.624012 
L 115.453471 -268.060772 
L 112.174132 -273.406698 
L 108.894793 -267.793397 
L 105.615455 -248.874029 
L 102.336116 -252.653355 
L 99.056777 -254.151463 
L 95.777438 -249.384451 
L 92.498099 -233.226097 
L 89.21876 -235.657086 
L 85.939421 -224.833447 
L 82.660083 -232.907997 
L 79.380744 -181.53581 
L 76.101405 -101.269175 
L 72.822066 -167.380102 
L 69.542727 -106.249779 
z
" style="stroke: #dd8452; stroke-opacity: 0.2"/>
    </defs>
    <g clip-path="url(#p7e0e09179c)">
     <use xlink:href="#m7217972b8b" x="0" y="316.271687" style="fill: #dd8452; fill-opacity: 0.2; stroke: #dd8452; stroke-opacity: 0.2"/>
    </g>
   </g>
   <g id="PolyCollection_3">
    <defs>
     <path id="md132e9d764" d="M 69.542727 -158.842542 
L 69.542727 -84.728134 
L 72.822066 -162.953014 
L 76.101405 -156.045351 
L 79.380744 -181.579828 
L 82.660083 -207.156581 
L 85.939421 -223.962056 
L 89.21876 -235.561057 
L 92.498099 -249.398254 
L 95.777438 -243.48735 
L 99.056777 -255.994093 
L 102.336116 -259.105229 
L 105.615455 -257.901296 
L 108.894793 -262.571393 
L 112.174132 -265.727603 
L 115.453471 -264.678838 
L 118.73281 -262.501926 
L 122.012149 -266.31999 
L 125.291488 -267.939067 
L 128.570826 -269.699184 
L 131.850165 -274.385459 
L 135.129504 -276.184794 
L 138.408843 -275.14813 
L 141.688182 -280.357441 
L 144.967521 -283.067701 
L 148.24686 -282.347309 
L 151.526198 -286.582911 
L 154.805537 -286.759692 
L 158.084876 -286.251825 
L 161.364215 -283.209579 
L 164.643554 -279.42279 
L 167.922893 -280.939783 
L 171.202231 -284.290239 
L 174.48157 -284.320704 
L 177.760909 -284.028709 
L 181.040248 -287.204606 
L 184.319587 -288.567506 
L 187.598926 -289.378841 
L 190.878264 -288.661699 
L 194.157603 -285.614291 
L 197.436942 -285.625941 
L 200.716281 -286.118232 
L 203.99562 -285.145216 
L 207.274959 -285.903841 
L 210.554298 -286.989696 
L 213.833636 -289.090216 
L 217.112975 -287.215938 
L 220.392314 -288.210452 
L 223.671653 -288.455431 
L 226.950992 -289.28504 
L 230.230331 -289.785138 
L 233.509669 -289.989266 
L 236.789008 -289.145741 
L 240.068347 -289.029435 
L 243.347686 -289.403249 
L 246.627025 -289.427511 
L 249.906364 -289.632266 
L 253.185702 -289.170234 
L 256.465041 -289.742398 
L 259.74438 -289.962846 
L 263.023719 -291.538132 
L 266.303058 -291.666461 
L 269.582397 -289.591299 
L 272.861736 -290.733181 
L 276.141074 -290.780888 
L 279.420413 -290.08452 
L 282.699752 -290.23627 
L 285.979091 -289.755465 
L 289.25843 -289.090917 
L 292.537769 -290.090145 
L 295.817107 -268.204574 
L 299.096446 -268.498424 
L 302.375785 -268.207272 
L 305.655124 -268.894381 
L 308.934463 -268.806354 
L 312.213802 -267.690778 
L 315.49314 -268.786582 
L 318.772479 -270.005845 
L 322.051818 -269.149224 
L 325.331157 -268.725152 
L 328.610496 -268.844645 
L 331.889835 -268.424718 
L 335.169174 -268.217016 
L 338.448512 -269.947408 
L 341.727851 -269.332231 
L 345.00719 -269.205596 
L 348.286529 -268.190134 
L 351.565868 -268.727721 
L 354.845207 -267.533143 
L 358.124545 -267.599397 
L 361.403884 -269.298109 
L 364.683223 -269.141083 
L 367.962562 -267.966264 
L 371.241901 -269.905737 
L 374.52124 -268.278051 
L 377.800579 -268.054323 
L 381.079917 -268.188585 
L 384.359256 -268.780363 
L 387.638595 -269.216355 
L 390.917934 -267.269612 
L 394.197273 -269.180991 
L 394.197273 -289.962265 
L 394.197273 -289.962265 
L 390.917934 -289.922759 
L 387.638595 -289.846204 
L 384.359256 -289.943142 
L 381.079917 -290.029251 
L 377.800579 -289.413634 
L 374.52124 -289.447753 
L 371.241901 -290.11429 
L 367.962562 -288.684678 
L 364.683223 -290.211555 
L 361.403884 -289.936895 
L 358.124545 -290.09586 
L 354.845207 -289.684168 
L 351.565868 -289.658617 
L 348.286529 -289.272705 
L 345.00719 -289.752048 
L 341.727851 -289.392726 
L 338.448512 -289.93632 
L 335.169174 -289.970318 
L 331.889835 -289.121992 
L 328.610496 -289.220714 
L 325.331157 -289.210742 
L 322.051818 -289.793469 
L 318.772479 -290.01725 
L 315.49314 -289.326915 
L 312.213802 -289.17251 
L 308.934463 -290.288339 
L 305.655124 -289.7529 
L 302.375785 -289.2286 
L 299.096446 -290.135479 
L 295.817107 -289.727007 
L 292.537769 -295.910825 
L 289.25843 -295.498584 
L 285.979091 -295.664363 
L 282.699752 -295.91864 
L 279.420413 -295.717208 
L 276.141074 -295.8932 
L 272.861736 -295.859411 
L 269.582397 -296.01899 
L 266.303058 -295.956875 
L 263.023719 -296.022999 
L 259.74438 -296.024739 
L 256.465041 -295.602535 
L 253.185702 -295.517035 
L 249.906364 -295.76178 
L 246.627025 -295.742053 
L 243.347686 -295.778434 
L 240.068347 -295.741151 
L 236.789008 -295.633173 
L 233.509669 -295.796786 
L 230.230331 -295.517584 
L 226.950992 -295.465577 
L 223.671653 -295.348153 
L 220.392314 -295.091858 
L 217.112975 -294.899761 
L 213.833636 -295.104529 
L 210.554298 -295.195463 
L 207.274959 -295.011976 
L 203.99562 -294.326273 
L 200.716281 -294.599753 
L 197.436942 -295.046646 
L 194.157603 -294.66358 
L 190.878264 -294.930959 
L 187.598926 -295.076243 
L 184.319587 -294.778552 
L 181.040248 -294.350465 
L 177.760909 -294.093439 
L 174.48157 -294.70661 
L 171.202231 -294.556235 
L 167.922893 -294.138745 
L 164.643554 -294.166681 
L 161.364215 -294.435848 
L 158.084876 -294.099322 
L 154.805537 -294.160208 
L 151.526198 -294.229033 
L 148.24686 -293.741716 
L 144.967521 -293.866994 
L 141.688182 -293.654989 
L 138.408843 -293.29233 
L 135.129504 -293.09342 
L 131.850165 -291.89413 
L 128.570826 -291.469413 
L 125.291488 -291.083101 
L 122.012149 -291.425969 
L 118.73281 -289.301596 
L 115.453471 -290.201773 
L 112.174132 -289.959405 
L 108.894793 -289.606482 
L 105.615455 -289.679063 
L 102.336116 -287.955682 
L 99.056777 -287.772532 
L 95.777438 -284.936994 
L 92.498099 -281.72792 
L 89.21876 -278.516305 
L 85.939421 -273.564252 
L 82.660083 -264.963384 
L 79.380744 -248.511184 
L 76.101405 -227.292272 
L 72.822066 -223.313577 
L 69.542727 -158.842542 
z
" style="stroke: #55a868; stroke-opacity: 0.2"/>
    </defs>
    <g clip-path="url(#p7e0e09179c)">
     <use xlink:href="#md132e9d764" x="0" y="316.271687" style="fill: #55a868; fill-opacity: 0.2; stroke: #55a868; stroke-opacity: 0.2"/>
    </g>
   </g>
   <g id="PolyCollection_4">
    <defs>
     <path id="m0e1428f3c3" d="M 69.542727 -128.418245 
L 69.542727 -65.809795 
L 72.822066 -87.288817 
L 76.101405 -117.53609 
L 79.380744 -139.909512 
L 82.660083 -156.516029 
L 85.939421 -187.536198 
L 89.21876 -201.401361 
L 92.498099 -213.427471 
L 95.777438 -221.221059 
L 99.056777 -238.175772 
L 102.336116 -237.018387 
L 105.615455 -240.251135 
L 108.894793 -250.485059 
L 112.174132 -256.515097 
L 115.453471 -260.075977 
L 118.73281 -261.793343 
L 122.012149 -265.279889 
L 125.291488 -266.520601 
L 128.570826 -268.311977 
L 131.850165 -269.929385 
L 135.129504 -273.115707 
L 138.408843 -274.675484 
L 141.688182 -277.977722 
L 144.967521 -277.980755 
L 148.24686 -278.516706 
L 151.526198 -278.544278 
L 154.805537 -279.867272 
L 158.084876 -279.45588 
L 161.364215 -279.008186 
L 164.643554 -280.527714 
L 167.922893 -280.2305 
L 171.202231 -279.991356 
L 174.48157 -283.626582 
L 177.760909 -283.834936 
L 181.040248 -283.833426 
L 184.319587 -284.327833 
L 187.598926 -284.779717 
L 190.878264 -285.505092 
L 194.157603 -285.968234 
L 197.436942 -286.201926 
L 200.716281 -287.12089 
L 203.99562 -286.266526 
L 207.274959 -285.66953 
L 210.554298 -286.520469 
L 213.833636 -286.963518 
L 217.112975 -289.344467 
L 220.392314 -289.508713 
L 223.671653 -289.489473 
L 226.950992 -290.108406 
L 230.230331 -290.245448 
L 233.509669 -290.039408 
L 236.789008 -290.39492 
L 240.068347 -290.728117 
L 243.347686 -291.54954 
L 246.627025 -291.005578 
L 249.906364 -291.140939 
L 253.185702 -291.242449 
L 256.465041 -290.772206 
L 259.74438 -291.256291 
L 263.023719 -291.234377 
L 266.303058 -291.185309 
L 269.582397 -291.144651 
L 272.861736 -290.262261 
L 276.141074 -290.470903 
L 279.420413 -290.800899 
L 282.699752 -290.583758 
L 285.979091 -290.702357 
L 289.25843 -291.101592 
L 292.537769 -291.173156 
L 295.817107 -252.063664 
L 299.096446 -250.358848 
L 302.375785 -251.440945 
L 305.655124 -251.314286 
L 308.934463 -252.068951 
L 312.213802 -252.133695 
L 315.49314 -250.952024 
L 318.772479 -252.294663 
L 322.051818 -252.817111 
L 325.331157 -253.392885 
L 328.610496 -250.188838 
L 331.889835 -251.960278 
L 335.169174 -250.805458 
L 338.448512 -251.403248 
L 341.727851 -249.996068 
L 345.00719 -251.773916 
L 348.286529 -250.649953 
L 351.565868 -251.245574 
L 354.845207 -252.014942 
L 358.124545 -249.709287 
L 361.403884 -251.238991 
L 364.683223 -250.457074 
L 367.962562 -251.648241 
L 371.241901 -251.426009 
L 374.52124 -250.409954 
L 377.800579 -249.509121 
L 381.079917 -251.885453 
L 384.359256 -251.954241 
L 387.638595 -250.598011 
L 390.917934 -250.624302 
L 394.197273 -250.560659 
L 394.197273 -283.803014 
L 394.197273 -283.803014 
L 390.917934 -283.371938 
L 387.638595 -283.750519 
L 384.359256 -282.759055 
L 381.079917 -283.176994 
L 377.800579 -282.890804 
L 374.52124 -283.101257 
L 371.241901 -282.934404 
L 367.962562 -283.285435 
L 364.683223 -283.607509 
L 361.403884 -283.630804 
L 358.124545 -284.314813 
L 354.845207 -283.584108 
L 351.565868 -282.9862 
L 348.286529 -283.797274 
L 345.00719 -283.069484 
L 341.727851 -283.57108 
L 338.448512 -283.157207 
L 335.169174 -283.869707 
L 331.889835 -283.136649 
L 328.610496 -282.831884 
L 325.331157 -283.145946 
L 322.051818 -283.831146 
L 318.772479 -282.927655 
L 315.49314 -283.75356 
L 312.213802 -283.341543 
L 308.934463 -283.647862 
L 305.655124 -282.735256 
L 302.375785 -282.572595 
L 299.096446 -282.427158 
L 295.817107 -283.517254 
L 292.537769 -296.535988 
L 289.25843 -296.432603 
L 285.979091 -296.309369 
L 282.699752 -296.129737 
L 279.420413 -296.210881 
L 276.141074 -295.98808 
L 272.861736 -295.887396 
L 269.582397 -296.030023 
L 266.303058 -295.98374 
L 263.023719 -296.159404 
L 259.74438 -295.963749 
L 256.465041 -296.092414 
L 253.185702 -296.048767 
L 249.906364 -295.951687 
L 246.627025 -295.92913 
L 243.347686 -295.942298 
L 240.068347 -295.680015 
L 236.789008 -295.599145 
L 233.509669 -295.588276 
L 230.230331 -295.434391 
L 226.950992 -295.398248 
L 223.671653 -295.513898 
L 220.392314 -295.290358 
L 217.112975 -295.176025 
L 213.833636 -294.889747 
L 210.554298 -294.985536 
L 207.274959 -294.902717 
L 203.99562 -294.792288 
L 200.716281 -294.909343 
L 197.436942 -294.442009 
L 194.157603 -294.222954 
L 190.878264 -294.301165 
L 187.598926 -294.304707 
L 184.319587 -294.435493 
L 181.040248 -294.282853 
L 177.760909 -293.764872 
L 174.48157 -293.666935 
L 171.202231 -293.393774 
L 167.922893 -293.007474 
L 164.643554 -293.522456 
L 161.364215 -293.178772 
L 158.084876 -293.475083 
L 154.805537 -293.149172 
L 151.526198 -292.552236 
L 148.24686 -292.961044 
L 144.967521 -292.077026 
L 141.688182 -291.941414 
L 138.408843 -290.965304 
L 135.129504 -290.333731 
L 131.850165 -289.021802 
L 128.570826 -289.13927 
L 125.291488 -288.483254 
L 122.012149 -287.741943 
L 118.73281 -286.488229 
L 115.453471 -285.380207 
L 112.174132 -282.885742 
L 108.894793 -280.451951 
L 105.615455 -277.061619 
L 102.336116 -275.128634 
L 99.056777 -272.657108 
L 95.777438 -265.591118 
L 92.498099 -260.244228 
L 89.21876 -248.165537 
L 85.939421 -234.356056 
L 82.660083 -217.16111 
L 79.380744 -201.39384 
L 76.101405 -185.813418 
L 72.822066 -146.069745 
L 69.542727 -128.418245 
z
" style="stroke: #c44e52; stroke-opacity: 0.2"/>
    </defs>
    <g clip-path="url(#p7e0e09179c)">
     <use xlink:href="#m0e1428f3c3" x="0" y="316.271687" style="fill: #c44e52; fill-opacity: 0.2; stroke: #c44e52; stroke-opacity: 0.2"/>
    </g>
   </g>
   <g id="PolyCollection_5">
    <defs>
     <path id="meac881455b" d="M 69.542727 -141.718313 
L 69.542727 -77.877529 
L 72.822066 -112.154134 
L 76.101405 -119.260463 
L 79.380744 -129.960996 
L 82.660083 -128.087004 
L 85.939421 -146.12637 
L 89.21876 -167.175371 
L 92.498099 -164.132345 
L 95.777438 -169.198571 
L 99.056777 -176.050571 
L 102.336116 -179.564533 
L 105.615455 -196.960074 
L 108.894793 -202.806345 
L 112.174132 -206.239487 
L 115.453471 -208.978425 
L 118.73281 -209.754471 
L 122.012149 -217.073432 
L 125.291488 -219.910802 
L 128.570826 -219.494511 
L 131.850165 -221.130711 
L 135.129504 -224.790967 
L 138.408843 -226.654926 
L 141.688182 -232.484116 
L 144.967521 -232.730755 
L 148.24686 -233.339491 
L 151.526198 -236.465676 
L 154.805537 -239.924437 
L 158.084876 -240.499155 
L 161.364215 -241.201647 
L 164.643554 -242.176021 
L 167.922893 -242.146718 
L 171.202231 -241.594576 
L 174.48157 -242.047323 
L 177.760909 -243.039052 
L 181.040248 -242.432962 
L 184.319587 -242.591851 
L 187.598926 -242.366364 
L 190.878264 -243.081004 
L 194.157603 -245.189107 
L 197.436942 -243.163819 
L 200.716281 -245.312464 
L 203.99562 -246.495555 
L 207.274959 -244.23051 
L 210.554298 -245.32588 
L 213.833636 -245.256837 
L 217.112975 -245.423722 
L 220.392314 -246.368909 
L 223.671653 -246.728739 
L 226.950992 -245.042976 
L 230.230331 -247.133905 
L 233.509669 -248.060504 
L 236.789008 -248.155055 
L 240.068347 -249.674371 
L 243.347686 -251.771996 
L 246.627025 -250.844054 
L 249.906364 -256.210766 
L 253.185702 -256.85882 
L 256.465041 -255.912447 
L 259.74438 -257.195472 
L 263.023719 -257.166288 
L 266.303058 -257.671823 
L 269.582397 -258.268167 
L 272.861736 -259.571263 
L 276.141074 -257.865202 
L 279.420413 -258.158642 
L 282.699752 -260.184189 
L 285.979091 -262.015009 
L 289.25843 -260.273717 
L 292.537769 -260.623932 
L 295.817107 -217.796816 
L 299.096446 -220.233301 
L 302.375785 -218.969021 
L 305.655124 -218.950016 
L 308.934463 -219.186854 
L 312.213802 -220.535176 
L 315.49314 -218.941553 
L 318.772479 -219.620283 
L 322.051818 -219.176136 
L 325.331157 -218.515968 
L 328.610496 -217.650994 
L 331.889835 -219.442531 
L 335.169174 -218.730963 
L 338.448512 -218.586013 
L 341.727851 -220.881585 
L 345.00719 -219.917775 
L 348.286529 -217.94263 
L 351.565868 -217.895755 
L 354.845207 -221.0952 
L 358.124545 -221.433603 
L 361.403884 -220.56097 
L 364.683223 -220.594119 
L 367.962562 -219.497746 
L 371.241901 -219.246678 
L 374.52124 -218.299614 
L 377.800579 -222.467125 
L 381.079917 -221.073801 
L 384.359256 -221.834516 
L 387.638595 -220.025374 
L 390.917934 -221.756398 
L 394.197273 -218.678474 
L 394.197273 -262.470885 
L 394.197273 -262.470885 
L 390.917934 -262.038937 
L 387.638595 -264.173962 
L 384.359256 -264.332177 
L 381.079917 -265.126759 
L 377.800579 -263.286738 
L 374.52124 -263.626709 
L 371.241901 -264.567854 
L 367.962562 -262.515531 
L 364.683223 -264.129556 
L 361.403884 -263.607964 
L 358.124545 -264.968447 
L 354.845207 -263.440804 
L 351.565868 -263.449311 
L 348.286529 -263.921273 
L 345.00719 -262.350456 
L 341.727851 -262.0982 
L 338.448512 -263.142169 
L 335.169174 -262.230949 
L 331.889835 -262.382007 
L 328.610496 -262.343161 
L 325.331157 -261.025948 
L 322.051818 -262.497853 
L 318.772479 -262.117127 
L 315.49314 -262.223506 
L 312.213802 -260.845329 
L 308.934463 -263.083487 
L 305.655124 -262.475381 
L 302.375785 -262.12311 
L 299.096446 -261.359855 
L 295.817107 -262.144646 
L 292.537769 -293.018463 
L 289.25843 -293.072779 
L 285.979091 -292.968713 
L 282.699752 -292.596068 
L 279.420413 -292.338071 
L 276.141074 -292.708999 
L 272.861736 -292.565846 
L 269.582397 -291.777826 
L 266.303058 -291.22453 
L 263.023719 -292.178877 
L 259.74438 -291.763178 
L 256.465041 -290.660022 
L 253.185702 -289.810843 
L 249.906364 -289.986136 
L 246.627025 -289.295978 
L 243.347686 -288.521465 
L 240.068347 -286.597127 
L 236.789008 -287.893306 
L 233.509669 -288.305101 
L 230.230331 -286.924846 
L 226.950992 -286.175382 
L 223.671653 -286.97459 
L 220.392314 -286.546124 
L 217.112975 -286.789132 
L 213.833636 -285.325247 
L 210.554298 -285.53851 
L 207.274959 -285.55808 
L 203.99562 -285.896169 
L 200.716281 -285.218677 
L 197.436942 -284.434334 
L 194.157603 -284.391568 
L 190.878264 -285.592983 
L 187.598926 -284.848685 
L 184.319587 -283.651248 
L 181.040248 -282.366349 
L 177.760909 -282.801027 
L 174.48157 -283.461473 
L 171.202231 -283.315503 
L 167.922893 -283.010823 
L 164.643554 -282.94487 
L 161.364215 -281.246148 
L 158.084876 -280.277385 
L 154.805537 -279.184555 
L 151.526198 -278.106829 
L 148.24686 -275.519221 
L 144.967521 -271.788587 
L 141.688182 -272.834951 
L 138.408843 -269.415965 
L 135.129504 -265.990579 
L 131.850165 -266.533459 
L 128.570826 -264.047031 
L 125.291488 -263.688059 
L 122.012149 -259.699051 
L 118.73281 -257.627616 
L 115.453471 -253.824376 
L 112.174132 -251.87496 
L 108.894793 -248.580033 
L 105.615455 -243.739995 
L 102.336116 -233.298222 
L 99.056777 -229.834151 
L 95.777438 -227.396827 
L 92.498099 -220.591576 
L 89.21876 -221.838638 
L 85.939421 -202.794125 
L 82.660083 -189.711221 
L 79.380744 -191.250723 
L 76.101405 -175.93223 
L 72.822066 -166.34495 
L 69.542727 -141.718313 
z
" style="stroke: #8172b3; stroke-opacity: 0.2"/>
    </defs>
    <g clip-path="url(#p7e0e09179c)">
     <use xlink:href="#meac881455b" x="0" y="316.271687" style="fill: #8172b3; fill-opacity: 0.2; stroke: #8172b3; stroke-opacity: 0.2"/>
    </g>
   </g>
   <g id="line2d_12">
    <path d="M 69.542727 178.709508 
L 72.822066 94.573431 
L 76.101405 100.561751 
L 79.380744 62.916263 
L 82.660083 41.768438 
L 85.939421 35.457255 
L 89.21876 34.216682 
L 92.498099 34.483906 
L 95.777438 28.38493 
L 99.056777 29.069638 
L 102.336116 29.755387 
L 105.615455 29.287786 
L 108.894793 26.901532 
L 112.174132 25.976613 
L 115.453471 27.003888 
L 118.73281 26.016275 
L 122.012149 23.654133 
L 125.291488 24.792375 
L 128.570826 25.146937 
L 131.850165 23.843843 
L 135.129504 27.890325 
L 138.408843 25.784429 
L 141.688182 24.0425 
L 144.967521 23.427473 
L 148.24686 23.153728 
L 151.526198 24.847637 
L 154.805537 23.434347 
L 158.084876 23.44041 
L 161.364215 23.073886 
L 164.643554 24.295435 
L 167.922893 23.426785 
L 171.202231 22.87346 
L 174.48157 24.046506 
L 177.760909 22.950049 
L 181.040248 22.586663 
L 184.319587 22.042842 
L 187.598926 23.740816 
L 190.878264 22.767295 
L 194.157603 21.838877 
L 197.436942 21.545763 
L 200.716281 20.893819 
L 203.99562 21.807121 
L 207.274959 21.363738 
L 210.554298 21.312515 
L 213.833636 21.918644 
L 217.112975 21.37416 
L 220.392314 21.607391 
L 223.671653 21.364607 
L 226.950992 22.724986 
L 230.230331 21.829856 
L 233.509669 20.963787 
L 236.789008 21.649954 
L 240.068347 20.936127 
L 243.347686 20.50442 
L 246.627025 20.605678 
L 249.906364 20.652329 
L 253.185702 20.986851 
L 256.465041 20.566294 
L 259.74438 20.778698 
L 263.023719 20.324444 
L 266.303058 20.65228 
L 269.582397 20.288706 
L 272.861736 20.923772 
L 276.141074 20.719889 
L 279.420413 21.013478 
L 282.699752 20.62285 
L 285.979091 21.356922 
L 289.25843 20.860997 
L 292.537769 20.554144 
L 295.817107 23.17653 
L 299.096446 24.074375 
L 302.375785 23.911601 
L 305.655124 23.192709 
L 308.934463 24.239082 
L 312.213802 23.081264 
L 315.49314 23.446815 
L 318.772479 24.360879 
L 322.051818 24.151559 
L 325.331157 24.257578 
L 328.610496 24.772587 
L 331.889835 23.979987 
L 335.169174 24.616694 
L 338.448512 24.212322 
L 341.727851 24.41854 
L 345.00719 24.104881 
L 348.286529 23.647499 
L 351.565868 24.061569 
L 354.845207 24.294512 
L 358.124545 24.29254 
L 361.403884 25.64452 
L 364.683223 24.800413 
L 367.962562 24.810702 
L 371.241901 24.812801 
L 374.52124 24.691641 
L 377.800579 25.03237 
L 381.079917 24.863953 
L 384.359256 24.606165 
L 387.638595 24.235813 
L 390.917934 24.1811 
L 394.197273 24.411784 
" clip-path="url(#p7e0e09179c)" style="fill: none; stroke: #4c72b0; stroke-width: 1.5; stroke-linecap: round"/>
   </g>
   <g id="line2d_13">
    <path d="M 69.542727 232.962602 
L 72.822066 183.161151 
L 76.101405 239.006988 
L 79.380744 162.601595 
L 82.660083 101.806765 
L 85.939421 110.665892 
L 89.21876 99.358121 
L 92.498099 104.574593 
L 95.777438 84.946887 
L 99.056777 80.701511 
L 102.336116 83.046234 
L 105.615455 87.048023 
L 108.894793 57.996314 
L 112.174132 49.379856 
L 115.453471 64.121524 
L 118.73281 73.608229 
L 122.012149 50.771345 
L 125.291488 51.826771 
L 128.570826 59.609547 
L 131.850165 64.601193 
L 135.129504 52.215334 
L 138.408843 45.812937 
L 141.688182 58.775832 
L 144.967521 55.68873 
L 148.24686 48.606573 
L 151.526198 44.67903 
L 154.805537 47.6327 
L 158.084876 66.255588 
L 161.364215 57.370686 
L 164.643554 69.632207 
L 167.922893 39.542457 
L 171.202231 38.138712 
L 174.48157 50.060247 
L 177.760909 39.14734 
L 181.040248 35.937072 
L 184.319587 38.331166 
L 187.598926 46.066897 
L 190.878264 33.263922 
L 194.157603 35.808588 
L 197.436942 38.025328 
L 200.716281 33.309648 
L 203.99562 36.462499 
L 207.274959 34.24231 
L 210.554298 37.594235 
L 213.833636 33.976094 
L 217.112975 52.734043 
L 220.392314 40.422126 
L 223.671653 44.970759 
L 226.950992 42.465141 
L 230.230331 31.823112 
L 233.509669 35.023376 
L 236.789008 32.129589 
L 240.068347 34.683111 
L 243.347686 31.723255 
L 246.627025 31.133152 
L 249.906364 42.888582 
L 253.185702 42.18217 
L 256.465041 49.280499 
L 259.74438 30.423226 
L 263.023719 37.830416 
L 266.303058 46.311606 
L 269.582397 31.630494 
L 272.861736 30.9279 
L 276.141074 32.239736 
L 279.420413 40.324392 
L 282.699752 33.171964 
L 285.979091 37.203928 
L 289.25843 33.90338 
L 292.537769 38.055225 
L 295.817107 31.017562 
L 299.096446 37.501934 
L 302.375785 32.325996 
L 305.655124 32.560242 
L 308.934463 29.966027 
L 312.213802 28.499103 
L 315.49314 29.165571 
L 318.772479 34.180626 
L 322.051818 28.290792 
L 325.331157 30.491881 
L 328.610496 29.93652 
L 331.889835 32.096614 
L 335.169174 35.566588 
L 338.448512 34.54413 
L 341.727851 28.715312 
L 345.00719 28.818274 
L 348.286529 27.292623 
L 351.565868 27.770456 
L 354.845207 37.777931 
L 358.124545 29.363604 
L 361.403884 40.827938 
L 364.683223 29.32866 
L 367.962562 27.45296 
L 371.241901 29.136 
L 374.52124 27.943978 
L 377.800579 36.313605 
L 381.079917 32.097446 
L 384.359256 27.951732 
L 387.638595 25.484969 
L 390.917934 29.021997 
L 394.197273 26.432176 
" clip-path="url(#p7e0e09179c)" style="fill: none; stroke: #dd8452; stroke-width: 1.5; stroke-linecap: round"/>
   </g>
   <g id="line2d_14">
    <path d="M 69.542727 195.503448 
L 72.822066 122.741407 
L 76.101405 122.295738 
L 79.380744 99.972033 
L 82.660083 78.582326 
L 85.939421 63.72689 
L 89.21876 57.342248 
L 92.498099 49.156482 
L 95.777438 50.319343 
L 99.056777 41.768914 
L 102.336116 41.3147 
L 105.615455 40.31615 
L 108.894793 38.851178 
L 112.174132 37.340137 
L 115.453471 38.131682 
L 118.73281 38.094068 
L 122.012149 34.49926 
L 125.291488 35.401288 
L 128.570826 34.556283 
L 131.850165 31.956003 
L 135.129504 30.132283 
L 138.408843 30.143696 
L 141.688182 28.688916 
L 144.967521 26.970182 
L 148.24686 27.088497 
L 151.526198 25.323284 
L 154.805537 25.455765 
L 158.084876 25.459182 
L 161.364215 26.324587 
L 164.643554 27.342883 
L 167.922893 27.372861 
L 171.202231 25.631203 
L 174.48157 25.559604 
L 177.760909 26.272389 
L 181.040248 24.952934 
L 184.319587 24.247883 
L 187.598926 23.699875 
L 190.878264 24.179676 
L 194.157603 25.471414 
L 197.436942 25.251849 
L 200.716281 25.277132 
L 203.99562 25.837266 
L 207.274959 25.118229 
L 210.554298 24.271012 
L 213.833636 23.730083 
L 217.112975 24.376136 
L 220.392314 24.009228 
L 223.671653 23.651299 
L 226.950992 23.211153 
L 230.230331 23.052511 
L 233.509669 22.897507 
L 236.789008 23.274124 
L 240.068347 23.216576 
L 243.347686 23.194332 
L 246.627025 23.078327 
L 249.906364 23.09491 
L 253.185702 23.487954 
L 256.465041 23.143601 
L 259.74438 22.84612 
L 263.023719 22.122897 
L 266.303058 22.166311 
L 269.582397 22.764337 
L 272.861736 22.501595 
L 276.141074 22.498162 
L 279.420413 22.757422 
L 282.699752 22.71259 
L 285.979091 23.169753 
L 289.25843 23.351499 
L 292.537769 22.771605 
L 295.817107 36.207941 
L 299.096446 36.431456 
L 302.375785 36.395181 
L 305.655124 36.056155 
L 308.934463 36.060812 
L 312.213802 36.38893 
L 315.49314 36.315417 
L 318.772479 35.469176 
L 322.051818 35.974286 
L 325.331157 36.037281 
L 328.610496 35.924144 
L 331.889835 36.071204 
L 335.169174 35.668128 
L 338.448512 35.638747 
L 341.727851 35.623176 
L 345.00719 35.614808 
L 348.286529 36.157449 
L 351.565868 35.797214 
L 354.845207 36.075448 
L 358.124545 35.883958 
L 361.403884 35.404129 
L 364.683223 35.787332 
L 367.962562 35.866345 
L 371.241901 35.626984 
L 374.52124 35.810663 
L 377.800579 36.196814 
L 381.079917 35.802485 
L 384.359256 35.963418 
L 387.638595 35.588381 
L 390.917934 35.957671 
L 394.197273 35.633608 
" clip-path="url(#p7e0e09179c)" style="fill: none; stroke: #55a868; stroke-width: 1.5; stroke-linecap: round"/>
   </g>
   <g id="line2d_15">
    <path d="M 69.542727 220.861017 
L 72.822066 199.207141 
L 76.101405 165.673859 
L 79.380744 145.613603 
L 82.660083 127.978164 
L 85.939421 104.849346 
L 89.21876 90.051007 
L 92.498099 79.117601 
L 95.777438 71.749885 
L 99.056777 60.322496 
L 102.336116 58.579289 
L 105.615455 56.036237 
L 108.894793 49.198004 
L 112.174132 45.373127 
L 115.453471 41.495299 
L 118.73281 39.99427 
L 122.012149 37.33223 
L 125.291488 36.539096 
L 128.570826 35.441835 
L 131.850165 34.737136 
L 135.129504 33.154349 
L 138.408843 31.887755 
L 141.688182 30.127613 
L 144.967521 29.984497 
L 148.24686 29.279675 
L 151.526198 29.405168 
L 154.805537 28.518599 
L 158.084876 28.463346 
L 161.364215 28.324212 
L 164.643554 27.83299 
L 167.922893 28.121549 
L 171.202231 28.185987 
L 174.48157 26.70263 
L 177.760909 26.572762 
L 181.040248 26.315452 
L 184.319587 26.051956 
L 187.598926 25.824747 
L 190.878264 25.596554 
L 194.157603 25.546257 
L 197.436942 25.368698 
L 200.716281 24.82119 
L 203.99562 25.001003 
L 207.274959 24.891339 
L 210.554298 24.911789 
L 213.833636 24.680016 
L 217.112975 23.45723 
L 220.392314 23.577381 
L 223.671653 23.481097 
L 226.950992 23.180871 
L 230.230331 23.074993 
L 233.509669 23.022401 
L 236.789008 22.864473 
L 240.068347 22.769171 
L 243.347686 22.36133 
L 246.627025 22.505708 
L 249.906364 22.478073 
L 253.185702 22.386286 
L 256.465041 22.41048 
L 259.74438 22.350524 
L 263.023719 22.317014 
L 266.303058 22.460843 
L 269.582397 22.393332 
L 272.861736 22.84213 
L 276.141074 22.720365 
L 279.420413 22.282513 
L 282.699752 22.35802 
L 285.979091 22.136997 
L 289.25843 22.054501 
L 292.537769 22.061596 
L 295.817107 48.217191 
L 299.096446 48.448873 
L 302.375785 48.346455 
L 305.655124 48.058609 
L 308.934463 47.813811 
L 312.213802 47.571606 
L 315.49314 47.715603 
L 318.772479 47.562802 
L 322.051818 47.738589 
L 325.331157 47.62543 
L 328.610496 47.588673 
L 331.889835 47.872201 
L 335.169174 47.729884 
L 338.448512 47.898582 
L 341.727851 47.740717 
L 345.00719 47.895795 
L 348.286529 47.891884 
L 351.565868 47.884353 
L 354.845207 47.709409 
L 358.124545 47.757556 
L 361.403884 47.70684 
L 364.683223 47.607565 
L 367.962562 47.623658 
L 371.241901 47.582623 
L 374.52124 47.520253 
L 377.800579 47.582416 
L 381.079917 47.653016 
L 384.359256 47.351796 
L 387.638595 47.346903 
L 390.917934 47.287803 
L 394.197273 47.295855 
" clip-path="url(#p7e0e09179c)" style="fill: none; stroke: #c44e52; stroke-width: 1.5; stroke-linecap: round"/>
   </g>
   <g id="line2d_16">
    <path d="M 69.542727 205.495122 
L 72.822066 177.044544 
L 76.101405 168.964919 
L 79.380744 156.756005 
L 82.660083 157.05428 
L 85.939421 141.339084 
L 89.21876 122.962651 
L 92.498099 122.841509 
L 95.777438 117.595043 
L 99.056777 112.795154 
L 102.336116 109.328649 
L 105.615455 95.414863 
L 108.894793 89.547578 
L 112.174132 86.470357 
L 115.453471 84.81257 
L 118.73281 81.31027 
L 122.012149 76.274971 
L 125.291488 74.257609 
L 128.570826 73.262614 
L 131.850165 70.16609 
L 135.129504 68.733194 
L 138.408843 66.705336 
L 141.688182 63.268031 
L 144.967521 63.061788 
L 148.24686 59.690248 
L 151.526198 56.423481 
L 154.805537 54.335085 
L 158.084876 53.998261 
L 161.364215 53.590887 
L 164.643554 53.140647 
L 167.922893 51.711495 
L 171.202231 51.77146 
L 174.48157 51.647852 
L 177.760909 51.316362 
L 181.040248 51.22174 
L 184.319587 51.145955 
L 187.598926 51.204011 
L 190.878264 49.991016 
L 194.157603 49.877813 
L 197.436942 50.009909 
L 200.716281 49.556564 
L 203.99562 49.291839 
L 207.274959 49.406918 
L 210.554298 49.183297 
L 213.833636 49.146593 
L 217.112975 48.368418 
L 220.392314 48.321022 
L 223.671653 48.266227 
L 226.950992 48.145568 
L 230.230331 48.136179 
L 233.509669 46.665644 
L 236.789008 46.442908 
L 240.068347 46.319013 
L 243.347686 44.50025 
L 246.627025 43.784457 
L 249.906364 41.476627 
L 253.185702 41.071883 
L 256.465041 41.166128 
L 259.74438 38.925341 
L 263.023719 38.964487 
L 266.303058 38.921064 
L 269.582397 38.334533 
L 272.861736 38.252775 
L 276.141074 37.82115 
L 279.420413 37.575924 
L 282.699752 37.482597 
L 285.979091 37.43221 
L 289.25843 37.188484 
L 292.537769 37.067161 
L 295.817107 75.230906 
L 299.096446 75.206704 
L 302.375785 75.175419 
L 305.655124 75.145155 
L 308.934463 75.065787 
L 312.213802 75.008217 
L 315.49314 74.81542 
L 318.772479 74.850926 
L 322.051818 74.67195 
L 325.331157 74.720079 
L 328.610496 74.778417 
L 331.889835 74.723549 
L 335.169174 74.478986 
L 338.448512 74.07993 
L 341.727851 74.112477 
L 345.00719 73.883072 
L 348.286529 73.643155 
L 351.565868 73.65997 
L 354.845207 73.698728 
L 358.124545 73.655812 
L 361.403884 73.764286 
L 364.683223 73.99165 
L 367.962562 73.858761 
L 371.241901 73.95206 
L 374.52124 74.015858 
L 377.800579 73.504663 
L 381.079917 73.421848 
L 384.359256 73.253178 
L 387.638595 73.392518 
L 390.917934 73.352464 
L 394.197273 73.568971 
" clip-path="url(#p7e0e09179c)" style="fill: none; stroke: #8172b3; stroke-width: 1.5; stroke-linecap: round"/>
   </g>
   <g id="line2d_17"/>
   <g id="line2d_18"/>
   <g id="line2d_19"/>
   <g id="line2d_20"/>
   <g id="line2d_21"/>
   <g id="patch_3">
    <path d="M 53.31 273.312 
L 53.31 7.2 
" style="fill: none; stroke: #cccccc; stroke-width: 1.25; stroke-linejoin: miter; stroke-linecap: square"/>
   </g>
   <g id="patch_4">
    <path d="M 410.43 273.312 
L 410.43 7.2 
" style="fill: none; stroke: #cccccc; stroke-width: 1.25; stroke-linejoin: miter; stroke-linecap: square"/>
   </g>
   <g id="patch_5">
    <path d="M 53.31 273.312 
L 410.43 273.312 
" style="fill: none; stroke: #cccccc; stroke-width: 1.25; stroke-linejoin: miter; stroke-linecap: square"/>
   </g>
   <g id="patch_6">
    <path d="M 53.31 7.2 
L 410.43 7.2 
" style="fill: none; stroke: #cccccc; stroke-width: 1.25; stroke-linejoin: miter; stroke-linecap: square"/>
   </g>
   <g id="legend_1">
    <g id="patch_7">
     <path d="M 298.745625 267.812 
L 402.73 267.812 
Q 404.93 267.812 404.93 265.612 
L 404.93 168.868562 
Q 404.93 166.668562 402.73 166.668562 
L 298.745625 166.668562 
Q 296.545625 166.668562 296.545625 168.868562 
L 296.545625 265.612 
Q 296.545625 267.812 298.745625 267.812 
z
" style="fill: #ffffff; opacity: 0.8; stroke: #cccccc; stroke-linejoin: miter"/>
    </g>
    <g id="text_14">
     <!-- Strategy -->
     <g style="fill: #262626" transform="translate(325.02875 180.186687) scale(0.12 -0.12)">
      <defs>
       <path id="DejaVuSans-53" d="M 3425 4513 
L 3425 3897 
Q 3066 4069 2747 4153 
Q 2428 4238 2131 4238 
Q 1616 4238 1336 4038 
Q 1056 3838 1056 3469 
Q 1056 3159 1242 3001 
Q 1428 2844 1947 2747 
L 2328 2669 
Q 3034 2534 3370 2195 
Q 3706 1856 3706 1288 
Q 3706 609 3251 259 
Q 2797 -91 1919 -91 
Q 1588 -91 1214 -16 
Q 841 59 441 206 
L 441 856 
Q 825 641 1194 531 
Q 1563 422 1919 422 
Q 2459 422 2753 634 
Q 3047 847 3047 1241 
Q 3047 1584 2836 1778 
Q 2625 1972 2144 2069 
L 1759 2144 
Q 1053 2284 737 2584 
Q 422 2884 422 3419 
Q 422 4038 858 4394 
Q 1294 4750 2059 4750 
Q 2388 4750 2728 4690 
Q 3069 4631 3425 4513 
z
" transform="scale(0.015625)"/>
       <path id="DejaVuSans-74" d="M 1172 4494 
L 1172 3500 
L 2356 3500 
L 2356 3053 
L 1172 3053 
L 1172 1153 
Q 1172 725 1289 603 
Q 1406 481 1766 481 
L 2356 481 
L 2356 0 
L 1766 0 
Q 1100 0 847 248 
Q 594 497 594 1153 
L 594 3053 
L 172 3053 
L 172 3500 
L 594 3500 
L 594 4494 
L 1172 4494 
z
" transform="scale(0.015625)"/>
       <path id="DejaVuSans-65" d="M 3597 1894 
L 3597 1613 
L 953 1613 
Q 991 1019 1311 708 
Q 1631 397 2203 397 
Q 2534 397 2845 478 
Q 3156 559 3463 722 
L 3463 178 
Q 3153 47 2828 -22 
Q 2503 -91 2169 -91 
Q 1331 -91 842 396 
Q 353 884 353 1716 
Q 353 2575 817 3079 
Q 1281 3584 2069 3584 
Q 2775 3584 3186 3129 
Q 3597 2675 3597 1894 
z
M 3022 2063 
Q 3016 2534 2758 2815 
Q 2500 3097 2075 3097 
Q 1594 3097 1305 2825 
Q 1016 2553 972 2059 
L 3022 2063 
z
" transform="scale(0.015625)"/>
       <path id="DejaVuSans-67" d="M 2906 1791 
Q 2906 2416 2648 2759 
Q 2391 3103 1925 3103 
Q 1463 3103 1205 2759 
Q 947 2416 947 1791 
Q 947 1169 1205 825 
Q 1463 481 1925 481 
Q 2391 481 2648 825 
Q 2906 1169 2906 1791 
z
M 3481 434 
Q 3481 -459 3084 -895 
Q 2688 -1331 1869 -1331 
Q 1566 -1331 1297 -1286 
Q 1028 -1241 775 -1147 
L 775 -588 
Q 1028 -725 1275 -790 
Q 1522 -856 1778 -856 
Q 2344 -856 2625 -561 
Q 2906 -266 2906 331 
L 2906 616 
Q 2728 306 2450 153 
Q 2172 0 1784 0 
Q 1141 0 747 490 
Q 353 981 353 1791 
Q 353 2603 747 3093 
Q 1141 3584 1784 3584 
Q 2172 3584 2450 3431 
Q 2728 3278 2906 2969 
L 2906 3500 
L 3481 3500 
L 3481 434 
z
" transform="scale(0.015625)"/>
      </defs>
      <use xlink:href="#DejaVuSans-53"/>
      <use xlink:href="#DejaVuSans-74" x="63.476562"/>
      <use xlink:href="#DejaVuSans-72" x="102.685547"/>
      <use xlink:href="#DejaVuSans-61" x="143.798828"/>
      <use xlink:href="#DejaVuSans-74" x="205.078125"/>
      <use xlink:href="#DejaVuSans-65" x="244.287109"/>
      <use xlink:href="#DejaVuSans-67" x="305.810547"/>
      <use xlink:href="#DejaVuSans-79" x="369.287109"/>
     </g>
    </g>
    <g id="line2d_22">
     <path d="M 300.945625 192.690594 
L 311.945625 192.690594 
L 322.945625 192.690594 
" style="fill: none; stroke: #4c72b0; stroke-width: 1.5; stroke-linecap: round"/>
    </g>
    <g id="text_15">
     <!-- FedPredict -->
     <g style="fill: #262626" transform="translate(331.745625 196.540594) scale(0.11 -0.11)">
      <defs>
       <path id="DejaVuSans-46" d="M 628 4666 
L 3309 4666 
L 3309 4134 
L 1259 4134 
L 1259 2759 
L 3109 2759 
L 3109 2228 
L 1259 2228 
L 1259 0 
L 628 0 
L 628 4666 
z
" transform="scale(0.015625)"/>
       <path id="DejaVuSans-50" d="M 1259 4147 
L 1259 2394 
L 2053 2394 
Q 2494 2394 2734 2622 
Q 2975 2850 2975 3272 
Q 2975 3691 2734 3919 
Q 2494 4147 2053 4147 
L 1259 4147 
z
M 628 4666 
L 2053 4666 
Q 2838 4666 3239 4311 
Q 3641 3956 3641 3272 
Q 3641 2581 3239 2228 
Q 2838 1875 2053 1875 
L 1259 1875 
L 1259 0 
L 628 0 
L 628 4666 
z
" transform="scale(0.015625)"/>
       <path id="DejaVuSans-69" d="M 603 3500 
L 1178 3500 
L 1178 0 
L 603 0 
L 603 3500 
z
M 603 4863 
L 1178 4863 
L 1178 4134 
L 603 4134 
L 603 4863 
z
" transform="scale(0.015625)"/>
      </defs>
      <use xlink:href="#DejaVuSans-46"/>
      <use xlink:href="#DejaVuSans-65" x="52.019531"/>
      <use xlink:href="#DejaVuSans-64" x="113.542969"/>
      <use xlink:href="#DejaVuSans-50" x="177.019531"/>
      <use xlink:href="#DejaVuSans-72" x="235.572266"/>
      <use xlink:href="#DejaVuSans-65" x="274.435547"/>
      <use xlink:href="#DejaVuSans-64" x="335.958984"/>
      <use xlink:href="#DejaVuSans-69" x="399.435547"/>
      <use xlink:href="#DejaVuSans-63" x="427.21875"/>
      <use xlink:href="#DejaVuSans-74" x="482.199219"/>
     </g>
    </g>
    <g id="line2d_23">
     <path d="M 300.945625 208.836531 
L 311.945625 208.836531 
L 322.945625 208.836531 
" style="fill: none; stroke: #dd8452; stroke-width: 1.5; stroke-linecap: round"/>
    </g>
    <g id="text_16">
     <!-- FedAVG -->
     <g style="fill: #262626" transform="translate(331.745625 212.686531) scale(0.11 -0.11)">
      <defs>
       <path id="DejaVuSans-56" d="M 1831 0 
L 50 4666 
L 709 4666 
L 2188 738 
L 3669 4666 
L 4325 4666 
L 2547 0 
L 1831 0 
z
" transform="scale(0.015625)"/>
       <path id="DejaVuSans-47" d="M 3809 666 
L 3809 1919 
L 2778 1919 
L 2778 2438 
L 4434 2438 
L 4434 434 
Q 4069 175 3628 42 
Q 3188 -91 2688 -91 
Q 1594 -91 976 548 
Q 359 1188 359 2328 
Q 359 3472 976 4111 
Q 1594 4750 2688 4750 
Q 3144 4750 3555 4637 
Q 3966 4525 4313 4306 
L 4313 3634 
Q 3963 3931 3569 4081 
Q 3175 4231 2741 4231 
Q 1884 4231 1454 3753 
Q 1025 3275 1025 2328 
Q 1025 1384 1454 906 
Q 1884 428 2741 428 
Q 3075 428 3337 486 
Q 3600 544 3809 666 
z
" transform="scale(0.015625)"/>
      </defs>
      <use xlink:href="#DejaVuSans-46"/>
      <use xlink:href="#DejaVuSans-65" x="52.019531"/>
      <use xlink:href="#DejaVuSans-64" x="113.542969"/>
      <use xlink:href="#DejaVuSans-41" x="177.019531"/>
      <use xlink:href="#DejaVuSans-56" x="239.052734"/>
      <use xlink:href="#DejaVuSans-47" x="307.460938"/>
     </g>
    </g>
    <g id="line2d_24">
     <path d="M 300.945625 224.982469 
L 311.945625 224.982469 
L 322.945625 224.982469 
" style="fill: none; stroke: #55a868; stroke-width: 1.5; stroke-linecap: round"/>
    </g>
    <g id="text_17">
     <!-- FedClassAvg -->
     <g style="fill: #262626" transform="translate(331.745625 228.832469) scale(0.11 -0.11)">
      <defs>
       <path id="DejaVuSans-43" d="M 4122 4306 
L 4122 3641 
Q 3803 3938 3442 4084 
Q 3081 4231 2675 4231 
Q 1875 4231 1450 3742 
Q 1025 3253 1025 2328 
Q 1025 1406 1450 917 
Q 1875 428 2675 428 
Q 3081 428 3442 575 
Q 3803 722 4122 1019 
L 4122 359 
Q 3791 134 3420 21 
Q 3050 -91 2638 -91 
Q 1578 -91 968 557 
Q 359 1206 359 2328 
Q 359 3453 968 4101 
Q 1578 4750 2638 4750 
Q 3056 4750 3426 4639 
Q 3797 4528 4122 4306 
z
" transform="scale(0.015625)"/>
       <path id="DejaVuSans-6c" d="M 603 4863 
L 1178 4863 
L 1178 0 
L 603 0 
L 603 4863 
z
" transform="scale(0.015625)"/>
       <path id="DejaVuSans-73" d="M 2834 3397 
L 2834 2853 
Q 2591 2978 2328 3040 
Q 2066 3103 1784 3103 
Q 1356 3103 1142 2972 
Q 928 2841 928 2578 
Q 928 2378 1081 2264 
Q 1234 2150 1697 2047 
L 1894 2003 
Q 2506 1872 2764 1633 
Q 3022 1394 3022 966 
Q 3022 478 2636 193 
Q 2250 -91 1575 -91 
Q 1294 -91 989 -36 
Q 684 19 347 128 
L 347 722 
Q 666 556 975 473 
Q 1284 391 1588 391 
Q 1994 391 2212 530 
Q 2431 669 2431 922 
Q 2431 1156 2273 1281 
Q 2116 1406 1581 1522 
L 1381 1569 
Q 847 1681 609 1914 
Q 372 2147 372 2553 
Q 372 3047 722 3315 
Q 1072 3584 1716 3584 
Q 2034 3584 2315 3537 
Q 2597 3491 2834 3397 
z
" transform="scale(0.015625)"/>
       <path id="DejaVuSans-76" d="M 191 3500 
L 800 3500 
L 1894 563 
L 2988 3500 
L 3597 3500 
L 2284 0 
L 1503 0 
L 191 3500 
z
" transform="scale(0.015625)"/>
      </defs>
      <use xlink:href="#DejaVuSans-46"/>
      <use xlink:href="#DejaVuSans-65" x="52.019531"/>
      <use xlink:href="#DejaVuSans-64" x="113.542969"/>
      <use xlink:href="#DejaVuSans-43" x="177.019531"/>
      <use xlink:href="#DejaVuSans-6c" x="246.84375"/>
      <use xlink:href="#DejaVuSans-61" x="274.626953"/>
      <use xlink:href="#DejaVuSans-73" x="335.90625"/>
      <use xlink:href="#DejaVuSans-73" x="388.005859"/>
      <use xlink:href="#DejaVuSans-41" x="440.105469"/>
      <use xlink:href="#DejaVuSans-76" x="502.638672"/>
      <use xlink:href="#DejaVuSans-67" x="561.818359"/>
     </g>
    </g>
    <g id="line2d_25">
     <path d="M 300.945625 241.128406 
L 311.945625 241.128406 
L 322.945625 241.128406 
" style="fill: none; stroke: #c44e52; stroke-width: 1.5; stroke-linecap: round"/>
    </g>
    <g id="text_18">
     <!-- FedPer -->
     <g style="fill: #262626" transform="translate(331.745625 244.978406) scale(0.11 -0.11)">
      <use xlink:href="#DejaVuSans-46"/>
      <use xlink:href="#DejaVuSans-65" x="52.019531"/>
      <use xlink:href="#DejaVuSans-64" x="113.542969"/>
      <use xlink:href="#DejaVuSans-50" x="177.019531"/>
      <use xlink:href="#DejaVuSans-65" x="233.697266"/>
      <use xlink:href="#DejaVuSans-72" x="295.220703"/>
     </g>
    </g>
    <g id="line2d_26">
     <path d="M 300.945625 257.274344 
L 311.945625 257.274344 
L 322.945625 257.274344 
" style="fill: none; stroke: #8172b3; stroke-width: 1.5; stroke-linecap: round"/>
    </g>
    <g id="text_19">
     <!-- FedProto -->
     <g style="fill: #262626" transform="translate(331.745625 261.124344) scale(0.11 -0.11)">
      <use xlink:href="#DejaVuSans-46"/>
      <use xlink:href="#DejaVuSans-65" x="52.019531"/>
      <use xlink:href="#DejaVuSans-64" x="113.542969"/>
      <use xlink:href="#DejaVuSans-50" x="177.019531"/>
      <use xlink:href="#DejaVuSans-72" x="235.572266"/>
      <use xlink:href="#DejaVuSans-6f" x="274.435547"/>
      <use xlink:href="#DejaVuSans-74" x="335.617188"/>
      <use xlink:href="#DejaVuSans-6f" x="374.826172"/>
     </g>
    </g>
   </g>
  </g>
 </g>
 <defs>
  <clipPath id="p7e0e09179c">
   <rect x="53.31" y="7.2" width="357.12" height="266.112"/>
  </clipPath>
 </defs>
</svg>
