<?xml version="1.0" encoding="utf-8" standalone="no"?>
<!DOCTYPE svg PUBLIC "-//W3C//DTD SVG 1.1//EN"
  "http://www.w3.org/Graphics/SVG/1.1/DTD/svg11.dtd">
<svg xmlns:xlink="http://www.w3.org/1999/xlink" width="417.63pt" height="331.389812pt" viewBox="0 0 417.63 331.389812" xmlns="http://www.w3.org/2000/svg" version="1.1">
 <metadata>
  <rdf:RDF xmlns:dc="http://purl.org/dc/elements/1.1/" xmlns:cc="http://creativecommons.org/ns#" xmlns:rdf="http://www.w3.org/1999/02/22-rdf-syntax-ns#">
   <cc:Work>
    <dc:type rdf:resource="http://purl.org/dc/dcmitype/StillImage"/>
    <dc:date>2023-03-01T19:46:44.404721</dc:date>
    <dc:format>image/svg+xml</dc:format>
    <dc:creator>
     <cc:Agent>
      <dc:title>Matplotlib v3.6.3, https://matplotlib.org/</dc:title>
     </cc:Agent>
    </dc:creator>
   </cc:Work>
  </rdf:RDF>
 </metadata>
 <defs>
  <style type="text/css">*{stroke-linejoin: round; stroke-linecap: butt}</style>
 </defs>
 <g id="figure_1">
  <g id="patch_1">
   <path d="M 0 331.389812 
L 417.63 331.389812 
L 417.63 0 
L 0 0 
z
" style="fill: #ffffff"/>
  </g>
  <g id="axes_1">
   <g id="patch_2">
    <path d="M 53.31 288.430125 
L 410.43 288.430125 
L 410.43 22.318125 
L 53.31 22.318125 
z
" style="fill: #ffffff"/>
   </g>
   <g id="matplotlib.axis_1">
    <g id="xtick_1">
     <g id="line2d_1">
      <path d="M 66.263388 288.430125 
L 66.263388 22.318125 
" clip-path="url(#p117b025252)" style="fill: none; stroke: #cccccc; stroke-linecap: round"/>
     </g>
     <g id="text_1">
      <!-- 0 -->
      <g style="fill: #262626" transform="translate(62.764013 306.288406) scale(0.11 -0.11)">
       <defs>
        <path id="DejaVuSans-30" d="M 2034 4250 
Q 1547 4250 1301 3770 
Q 1056 3291 1056 2328 
Q 1056 1369 1301 889 
Q 1547 409 2034 409 
Q 2525 409 2770 889 
Q 3016 1369 3016 2328 
Q 3016 3291 2770 3770 
Q 2525 4250 2034 4250 
z
M 2034 4750 
Q 2819 4750 3233 4129 
Q 3647 3509 3647 2328 
Q 3647 1150 3233 529 
Q 2819 -91 2034 -91 
Q 1250 -91 836 529 
Q 422 1150 422 2328 
Q 422 3509 836 4129 
Q 1250 4750 2034 4750 
z
" transform="scale(0.015625)"/>
       </defs>
       <use xlink:href="#DejaVuSans-30"/>
      </g>
     </g>
    </g>
    <g id="xtick_2">
     <g id="line2d_2">
      <path d="M 131.850165 288.430125 
L 131.850165 22.318125 
" clip-path="url(#p117b025252)" style="fill: none; stroke: #cccccc; stroke-linecap: round"/>
     </g>
     <g id="text_2">
      <!-- 20 -->
      <g style="fill: #262626" transform="translate(124.851415 306.288406) scale(0.11 -0.11)">
       <defs>
        <path id="DejaVuSans-32" d="M 1228 531 
L 3431 531 
L 3431 0 
L 469 0 
L 469 531 
Q 828 903 1448 1529 
Q 2069 2156 2228 2338 
Q 2531 2678 2651 2914 
Q 2772 3150 2772 3378 
Q 2772 3750 2511 3984 
Q 2250 4219 1831 4219 
Q 1534 4219 1204 4116 
Q 875 4013 500 3803 
L 500 4441 
Q 881 4594 1212 4672 
Q 1544 4750 1819 4750 
Q 2544 4750 2975 4387 
Q 3406 4025 3406 3419 
Q 3406 3131 3298 2873 
Q 3191 2616 2906 2266 
Q 2828 2175 2409 1742 
Q 1991 1309 1228 531 
z
" transform="scale(0.015625)"/>
       </defs>
       <use xlink:href="#DejaVuSans-32"/>
       <use xlink:href="#DejaVuSans-30" x="63.623047"/>
      </g>
     </g>
    </g>
    <g id="xtick_3">
     <g id="line2d_3">
      <path d="M 197.436942 288.430125 
L 197.436942 22.318125 
" clip-path="url(#p117b025252)" style="fill: none; stroke: #cccccc; stroke-linecap: round"/>
     </g>
     <g id="text_3">
      <!-- 40 -->
      <g style="fill: #262626" transform="translate(190.438192 306.288406) scale(0.11 -0.11)">
       <defs>
        <path id="DejaVuSans-34" d="M 2419 4116 
L 825 1625 
L 2419 1625 
L 2419 4116 
z
M 2253 4666 
L 3047 4666 
L 3047 1625 
L 3713 1625 
L 3713 1100 
L 3047 1100 
L 3047 0 
L 2419 0 
L 2419 1100 
L 313 1100 
L 313 1709 
L 2253 4666 
z
" transform="scale(0.015625)"/>
       </defs>
       <use xlink:href="#DejaVuSans-34"/>
       <use xlink:href="#DejaVuSans-30" x="63.623047"/>
      </g>
     </g>
    </g>
    <g id="xtick_4">
     <g id="line2d_4">
      <path d="M 263.023719 288.430125 
L 263.023719 22.318125 
" clip-path="url(#p117b025252)" style="fill: none; stroke: #cccccc; stroke-linecap: round"/>
     </g>
     <g id="text_4">
      <!-- 60 -->
      <g style="fill: #262626" transform="translate(256.024969 306.288406) scale(0.11 -0.11)">
       <defs>
        <path id="DejaVuSans-36" d="M 2113 2584 
Q 1688 2584 1439 2293 
Q 1191 2003 1191 1497 
Q 1191 994 1439 701 
Q 1688 409 2113 409 
Q 2538 409 2786 701 
Q 3034 994 3034 1497 
Q 3034 2003 2786 2293 
Q 2538 2584 2113 2584 
z
M 3366 4563 
L 3366 3988 
Q 3128 4100 2886 4159 
Q 2644 4219 2406 4219 
Q 1781 4219 1451 3797 
Q 1122 3375 1075 2522 
Q 1259 2794 1537 2939 
Q 1816 3084 2150 3084 
Q 2853 3084 3261 2657 
Q 3669 2231 3669 1497 
Q 3669 778 3244 343 
Q 2819 -91 2113 -91 
Q 1303 -91 875 529 
Q 447 1150 447 2328 
Q 447 3434 972 4092 
Q 1497 4750 2381 4750 
Q 2619 4750 2861 4703 
Q 3103 4656 3366 4563 
z
" transform="scale(0.015625)"/>
       </defs>
       <use xlink:href="#DejaVuSans-36"/>
       <use xlink:href="#DejaVuSans-30" x="63.623047"/>
      </g>
     </g>
    </g>
    <g id="xtick_5">
     <g id="line2d_5">
      <path d="M 328.610496 288.430125 
L 328.610496 22.318125 
" clip-path="url(#p117b025252)" style="fill: none; stroke: #cccccc; stroke-linecap: round"/>
     </g>
     <g id="text_5">
      <!-- 80 -->
      <g style="fill: #262626" transform="translate(321.611746 306.288406) scale(0.11 -0.11)">
       <defs>
        <path id="DejaVuSans-38" d="M 2034 2216 
Q 1584 2216 1326 1975 
Q 1069 1734 1069 1313 
Q 1069 891 1326 650 
Q 1584 409 2034 409 
Q 2484 409 2743 651 
Q 3003 894 3003 1313 
Q 3003 1734 2745 1975 
Q 2488 2216 2034 2216 
z
M 1403 2484 
Q 997 2584 770 2862 
Q 544 3141 544 3541 
Q 544 4100 942 4425 
Q 1341 4750 2034 4750 
Q 2731 4750 3128 4425 
Q 3525 4100 3525 3541 
Q 3525 3141 3298 2862 
Q 3072 2584 2669 2484 
Q 3125 2378 3379 2068 
Q 3634 1759 3634 1313 
Q 3634 634 3220 271 
Q 2806 -91 2034 -91 
Q 1263 -91 848 271 
Q 434 634 434 1313 
Q 434 1759 690 2068 
Q 947 2378 1403 2484 
z
M 1172 3481 
Q 1172 3119 1398 2916 
Q 1625 2713 2034 2713 
Q 2441 2713 2670 2916 
Q 2900 3119 2900 3481 
Q 2900 3844 2670 4047 
Q 2441 4250 2034 4250 
Q 1625 4250 1398 4047 
Q 1172 3844 1172 3481 
z
" transform="scale(0.015625)"/>
       </defs>
       <use xlink:href="#DejaVuSans-38"/>
       <use xlink:href="#DejaVuSans-30" x="63.623047"/>
      </g>
     </g>
    </g>
    <g id="xtick_6">
     <g id="line2d_6">
      <path d="M 394.197273 288.430125 
L 394.197273 22.318125 
" clip-path="url(#p117b025252)" style="fill: none; stroke: #cccccc; stroke-linecap: round"/>
     </g>
     <g id="text_6">
      <!-- 100 -->
      <g style="fill: #262626" transform="translate(383.699148 306.288406) scale(0.11 -0.11)">
       <defs>
        <path id="DejaVuSans-31" d="M 794 531 
L 1825 531 
L 1825 4091 
L 703 3866 
L 703 4441 
L 1819 4666 
L 2450 4666 
L 2450 531 
L 3481 531 
L 3481 0 
L 794 0 
L 794 531 
z
" transform="scale(0.015625)"/>
       </defs>
       <use xlink:href="#DejaVuSans-31"/>
       <use xlink:href="#DejaVuSans-30" x="63.623047"/>
       <use xlink:href="#DejaVuSans-30" x="127.246094"/>
      </g>
     </g>
    </g>
    <g id="text_7">
     <!-- Server round -->
     <g style="fill: #262626" transform="translate(192.869063 321.694187) scale(0.12 -0.12)">
      <defs>
       <path id="DejaVuSans-53" d="M 3425 4513 
L 3425 3897 
Q 3066 4069 2747 4153 
Q 2428 4238 2131 4238 
Q 1616 4238 1336 4038 
Q 1056 3838 1056 3469 
Q 1056 3159 1242 3001 
Q 1428 2844 1947 2747 
L 2328 2669 
Q 3034 2534 3370 2195 
Q 3706 1856 3706 1288 
Q 3706 609 3251 259 
Q 2797 -91 1919 -91 
Q 1588 -91 1214 -16 
Q 841 59 441 206 
L 441 856 
Q 825 641 1194 531 
Q 1563 422 1919 422 
Q 2459 422 2753 634 
Q 3047 847 3047 1241 
Q 3047 1584 2836 1778 
Q 2625 1972 2144 2069 
L 1759 2144 
Q 1053 2284 737 2584 
Q 422 2884 422 3419 
Q 422 4038 858 4394 
Q 1294 4750 2059 4750 
Q 2388 4750 2728 4690 
Q 3069 4631 3425 4513 
z
" transform="scale(0.015625)"/>
       <path id="DejaVuSans-65" d="M 3597 1894 
L 3597 1613 
L 953 1613 
Q 991 1019 1311 708 
Q 1631 397 2203 397 
Q 2534 397 2845 478 
Q 3156 559 3463 722 
L 3463 178 
Q 3153 47 2828 -22 
Q 2503 -91 2169 -91 
Q 1331 -91 842 396 
Q 353 884 353 1716 
Q 353 2575 817 3079 
Q 1281 3584 2069 3584 
Q 2775 3584 3186 3129 
Q 3597 2675 3597 1894 
z
M 3022 2063 
Q 3016 2534 2758 2815 
Q 2500 3097 2075 3097 
Q 1594 3097 1305 2825 
Q 1016 2553 972 2059 
L 3022 2063 
z
" transform="scale(0.015625)"/>
       <path id="DejaVuSans-72" d="M 2631 2963 
Q 2534 3019 2420 3045 
Q 2306 3072 2169 3072 
Q 1681 3072 1420 2755 
Q 1159 2438 1159 1844 
L 1159 0 
L 581 0 
L 581 3500 
L 1159 3500 
L 1159 2956 
Q 1341 3275 1631 3429 
Q 1922 3584 2338 3584 
Q 2397 3584 2469 3576 
Q 2541 3569 2628 3553 
L 2631 2963 
z
" transform="scale(0.015625)"/>
       <path id="DejaVuSans-76" d="M 191 3500 
L 800 3500 
L 1894 563 
L 2988 3500 
L 3597 3500 
L 2284 0 
L 1503 0 
L 191 3500 
z
" transform="scale(0.015625)"/>
       <path id="DejaVuSans-20" transform="scale(0.015625)"/>
       <path id="DejaVuSans-6f" d="M 1959 3097 
Q 1497 3097 1228 2736 
Q 959 2375 959 1747 
Q 959 1119 1226 758 
Q 1494 397 1959 397 
Q 2419 397 2687 759 
Q 2956 1122 2956 1747 
Q 2956 2369 2687 2733 
Q 2419 3097 1959 3097 
z
M 1959 3584 
Q 2709 3584 3137 3096 
Q 3566 2609 3566 1747 
Q 3566 888 3137 398 
Q 2709 -91 1959 -91 
Q 1206 -91 779 398 
Q 353 888 353 1747 
Q 353 2609 779 3096 
Q 1206 3584 1959 3584 
z
" transform="scale(0.015625)"/>
       <path id="DejaVuSans-75" d="M 544 1381 
L 544 3500 
L 1119 3500 
L 1119 1403 
Q 1119 906 1312 657 
Q 1506 409 1894 409 
Q 2359 409 2629 706 
Q 2900 1003 2900 1516 
L 2900 3500 
L 3475 3500 
L 3475 0 
L 2900 0 
L 2900 538 
Q 2691 219 2414 64 
Q 2138 -91 1772 -91 
Q 1169 -91 856 284 
Q 544 659 544 1381 
z
M 1991 3584 
L 1991 3584 
z
" transform="scale(0.015625)"/>
       <path id="DejaVuSans-6e" d="M 3513 2113 
L 3513 0 
L 2938 0 
L 2938 2094 
Q 2938 2591 2744 2837 
Q 2550 3084 2163 3084 
Q 1697 3084 1428 2787 
Q 1159 2491 1159 1978 
L 1159 0 
L 581 0 
L 581 3500 
L 1159 3500 
L 1159 2956 
Q 1366 3272 1645 3428 
Q 1925 3584 2291 3584 
Q 2894 3584 3203 3211 
Q 3513 2838 3513 2113 
z
" transform="scale(0.015625)"/>
       <path id="DejaVuSans-64" d="M 2906 2969 
L 2906 4863 
L 3481 4863 
L 3481 0 
L 2906 0 
L 2906 525 
Q 2725 213 2448 61 
Q 2172 -91 1784 -91 
Q 1150 -91 751 415 
Q 353 922 353 1747 
Q 353 2572 751 3078 
Q 1150 3584 1784 3584 
Q 2172 3584 2448 3432 
Q 2725 3281 2906 2969 
z
M 947 1747 
Q 947 1113 1208 752 
Q 1469 391 1925 391 
Q 2381 391 2643 752 
Q 2906 1113 2906 1747 
Q 2906 2381 2643 2742 
Q 2381 3103 1925 3103 
Q 1469 3103 1208 2742 
Q 947 2381 947 1747 
z
" transform="scale(0.015625)"/>
      </defs>
      <use xlink:href="#DejaVuSans-53"/>
      <use xlink:href="#DejaVuSans-65" x="63.476562"/>
      <use xlink:href="#DejaVuSans-72" x="125"/>
      <use xlink:href="#DejaVuSans-76" x="166.113281"/>
      <use xlink:href="#DejaVuSans-65" x="225.292969"/>
      <use xlink:href="#DejaVuSans-72" x="286.816406"/>
      <use xlink:href="#DejaVuSans-20" x="327.929688"/>
      <use xlink:href="#DejaVuSans-72" x="359.716797"/>
      <use xlink:href="#DejaVuSans-6f" x="398.580078"/>
      <use xlink:href="#DejaVuSans-75" x="459.761719"/>
      <use xlink:href="#DejaVuSans-6e" x="523.140625"/>
      <use xlink:href="#DejaVuSans-64" x="586.519531"/>
     </g>
    </g>
   </g>
   <g id="matplotlib.axis_2">
    <g id="ytick_1">
     <g id="line2d_7">
      <path d="M 53.31 282.010893 
L 410.43 282.010893 
" clip-path="url(#p117b025252)" style="fill: none; stroke: #cccccc; stroke-linecap: round"/>
     </g>
     <g id="text_8">
      <!-- 20 -->
      <g style="fill: #262626" transform="translate(29.8125 286.190034) scale(0.11 -0.11)">
       <use xlink:href="#DejaVuSans-32"/>
       <use xlink:href="#DejaVuSans-30" x="63.623047"/>
      </g>
     </g>
    </g>
    <g id="ytick_2">
     <g id="line2d_8">
      <path d="M 53.31 250.701482 
L 410.43 250.701482 
" clip-path="url(#p117b025252)" style="fill: none; stroke: #cccccc; stroke-linecap: round"/>
     </g>
     <g id="text_9">
      <!-- 30 -->
      <g style="fill: #262626" transform="translate(29.8125 254.880623) scale(0.11 -0.11)">
       <defs>
        <path id="DejaVuSans-33" d="M 2597 2516 
Q 3050 2419 3304 2112 
Q 3559 1806 3559 1356 
Q 3559 666 3084 287 
Q 2609 -91 1734 -91 
Q 1441 -91 1130 -33 
Q 819 25 488 141 
L 488 750 
Q 750 597 1062 519 
Q 1375 441 1716 441 
Q 2309 441 2620 675 
Q 2931 909 2931 1356 
Q 2931 1769 2642 2001 
Q 2353 2234 1838 2234 
L 1294 2234 
L 1294 2753 
L 1863 2753 
Q 2328 2753 2575 2939 
Q 2822 3125 2822 3475 
Q 2822 3834 2567 4026 
Q 2313 4219 1838 4219 
Q 1578 4219 1281 4162 
Q 984 4106 628 3988 
L 628 4550 
Q 988 4650 1302 4700 
Q 1616 4750 1894 4750 
Q 2613 4750 3031 4423 
Q 3450 4097 3450 3541 
Q 3450 3153 3228 2886 
Q 3006 2619 2597 2516 
z
" transform="scale(0.015625)"/>
       </defs>
       <use xlink:href="#DejaVuSans-33"/>
       <use xlink:href="#DejaVuSans-30" x="63.623047"/>
      </g>
     </g>
    </g>
    <g id="ytick_3">
     <g id="line2d_9">
      <path d="M 53.31 219.392072 
L 410.43 219.392072 
" clip-path="url(#p117b025252)" style="fill: none; stroke: #cccccc; stroke-linecap: round"/>
     </g>
     <g id="text_10">
      <!-- 40 -->
      <g style="fill: #262626" transform="translate(29.8125 223.571212) scale(0.11 -0.11)">
       <use xlink:href="#DejaVuSans-34"/>
       <use xlink:href="#DejaVuSans-30" x="63.623047"/>
      </g>
     </g>
    </g>
    <g id="ytick_4">
     <g id="line2d_10">
      <path d="M 53.31 188.082661 
L 410.43 188.082661 
" clip-path="url(#p117b025252)" style="fill: none; stroke: #cccccc; stroke-linecap: round"/>
     </g>
     <g id="text_11">
      <!-- 50 -->
      <g style="fill: #262626" transform="translate(29.8125 192.261802) scale(0.11 -0.11)">
       <defs>
        <path id="DejaVuSans-35" d="M 691 4666 
L 3169 4666 
L 3169 4134 
L 1269 4134 
L 1269 2991 
Q 1406 3038 1543 3061 
Q 1681 3084 1819 3084 
Q 2600 3084 3056 2656 
Q 3513 2228 3513 1497 
Q 3513 744 3044 326 
Q 2575 -91 1722 -91 
Q 1428 -91 1123 -41 
Q 819 9 494 109 
L 494 744 
Q 775 591 1075 516 
Q 1375 441 1709 441 
Q 2250 441 2565 725 
Q 2881 1009 2881 1497 
Q 2881 1984 2565 2268 
Q 2250 2553 1709 2553 
Q 1456 2553 1204 2497 
Q 953 2441 691 2322 
L 691 4666 
z
" transform="scale(0.015625)"/>
       </defs>
       <use xlink:href="#DejaVuSans-35"/>
       <use xlink:href="#DejaVuSans-30" x="63.623047"/>
      </g>
     </g>
    </g>
    <g id="ytick_5">
     <g id="line2d_11">
      <path d="M 53.31 156.77325 
L 410.43 156.77325 
" clip-path="url(#p117b025252)" style="fill: none; stroke: #cccccc; stroke-linecap: round"/>
     </g>
     <g id="text_12">
      <!-- 60 -->
      <g style="fill: #262626" transform="translate(29.8125 160.952391) scale(0.11 -0.11)">
       <use xlink:href="#DejaVuSans-36"/>
       <use xlink:href="#DejaVuSans-30" x="63.623047"/>
      </g>
     </g>
    </g>
    <g id="ytick_6">
     <g id="line2d_12">
      <path d="M 53.31 125.46384 
L 410.43 125.46384 
" clip-path="url(#p117b025252)" style="fill: none; stroke: #cccccc; stroke-linecap: round"/>
     </g>
     <g id="text_13">
      <!-- 70 -->
      <g style="fill: #262626" transform="translate(29.8125 129.64298) scale(0.11 -0.11)">
       <defs>
        <path id="DejaVuSans-37" d="M 525 4666 
L 3525 4666 
L 3525 4397 
L 1831 0 
L 1172 0 
L 2766 4134 
L 525 4134 
L 525 4666 
z
" transform="scale(0.015625)"/>
       </defs>
       <use xlink:href="#DejaVuSans-37"/>
       <use xlink:href="#DejaVuSans-30" x="63.623047"/>
      </g>
     </g>
    </g>
    <g id="ytick_7">
     <g id="line2d_13">
      <path d="M 53.31 94.154429 
L 410.43 94.154429 
" clip-path="url(#p117b025252)" style="fill: none; stroke: #cccccc; stroke-linecap: round"/>
     </g>
     <g id="text_14">
      <!-- 80 -->
      <g style="fill: #262626" transform="translate(29.8125 98.33357) scale(0.11 -0.11)">
       <use xlink:href="#DejaVuSans-38"/>
       <use xlink:href="#DejaVuSans-30" x="63.623047"/>
      </g>
     </g>
    </g>
    <g id="ytick_8">
     <g id="line2d_14">
      <path d="M 53.31 62.845018 
L 410.43 62.845018 
" clip-path="url(#p117b025252)" style="fill: none; stroke: #cccccc; stroke-linecap: round"/>
     </g>
     <g id="text_15">
      <!-- 90 -->
      <g style="fill: #262626" transform="translate(29.8125 67.024159) scale(0.11 -0.11)">
       <defs>
        <path id="DejaVuSans-39" d="M 703 97 
L 703 672 
Q 941 559 1184 500 
Q 1428 441 1663 441 
Q 2288 441 2617 861 
Q 2947 1281 2994 2138 
Q 2813 1869 2534 1725 
Q 2256 1581 1919 1581 
Q 1219 1581 811 2004 
Q 403 2428 403 3163 
Q 403 3881 828 4315 
Q 1253 4750 1959 4750 
Q 2769 4750 3195 4129 
Q 3622 3509 3622 2328 
Q 3622 1225 3098 567 
Q 2575 -91 1691 -91 
Q 1453 -91 1209 -44 
Q 966 3 703 97 
z
M 1959 2075 
Q 2384 2075 2632 2365 
Q 2881 2656 2881 3163 
Q 2881 3666 2632 3958 
Q 2384 4250 1959 4250 
Q 1534 4250 1286 3958 
Q 1038 3666 1038 3163 
Q 1038 2656 1286 2365 
Q 1534 2075 1959 2075 
z
" transform="scale(0.015625)"/>
       </defs>
       <use xlink:href="#DejaVuSans-39"/>
       <use xlink:href="#DejaVuSans-30" x="63.623047"/>
      </g>
     </g>
    </g>
    <g id="ytick_9">
     <g id="line2d_15">
      <path d="M 53.31 31.535608 
L 410.43 31.535608 
" clip-path="url(#p117b025252)" style="fill: none; stroke: #cccccc; stroke-linecap: round"/>
     </g>
     <g id="text_16">
      <!-- 100 -->
      <g style="fill: #262626" transform="translate(22.81375 35.714748) scale(0.11 -0.11)">
       <use xlink:href="#DejaVuSans-31"/>
       <use xlink:href="#DejaVuSans-30" x="63.623047"/>
       <use xlink:href="#DejaVuSans-30" x="127.246094"/>
      </g>
     </g>
    </g>
    <g id="text_17">
     <!-- Accuracy aggregated (%) -->
     <g style="fill: #262626" transform="translate(16.318125 231.621937) rotate(-90) scale(0.12 -0.12)">
      <defs>
       <path id="DejaVuSans-41" d="M 2188 4044 
L 1331 1722 
L 3047 1722 
L 2188 4044 
z
M 1831 4666 
L 2547 4666 
L 4325 0 
L 3669 0 
L 3244 1197 
L 1141 1197 
L 716 0 
L 50 0 
L 1831 4666 
z
" transform="scale(0.015625)"/>
       <path id="DejaVuSans-63" d="M 3122 3366 
L 3122 2828 
Q 2878 2963 2633 3030 
Q 2388 3097 2138 3097 
Q 1578 3097 1268 2742 
Q 959 2388 959 1747 
Q 959 1106 1268 751 
Q 1578 397 2138 397 
Q 2388 397 2633 464 
Q 2878 531 3122 666 
L 3122 134 
Q 2881 22 2623 -34 
Q 2366 -91 2075 -91 
Q 1284 -91 818 406 
Q 353 903 353 1747 
Q 353 2603 823 3093 
Q 1294 3584 2113 3584 
Q 2378 3584 2631 3529 
Q 2884 3475 3122 3366 
z
" transform="scale(0.015625)"/>
       <path id="DejaVuSans-61" d="M 2194 1759 
Q 1497 1759 1228 1600 
Q 959 1441 959 1056 
Q 959 750 1161 570 
Q 1363 391 1709 391 
Q 2188 391 2477 730 
Q 2766 1069 2766 1631 
L 2766 1759 
L 2194 1759 
z
M 3341 1997 
L 3341 0 
L 2766 0 
L 2766 531 
Q 2569 213 2275 61 
Q 1981 -91 1556 -91 
Q 1019 -91 701 211 
Q 384 513 384 1019 
Q 384 1609 779 1909 
Q 1175 2209 1959 2209 
L 2766 2209 
L 2766 2266 
Q 2766 2663 2505 2880 
Q 2244 3097 1772 3097 
Q 1472 3097 1187 3025 
Q 903 2953 641 2809 
L 641 3341 
Q 956 3463 1253 3523 
Q 1550 3584 1831 3584 
Q 2591 3584 2966 3190 
Q 3341 2797 3341 1997 
z
" transform="scale(0.015625)"/>
       <path id="DejaVuSans-79" d="M 2059 -325 
Q 1816 -950 1584 -1140 
Q 1353 -1331 966 -1331 
L 506 -1331 
L 506 -850 
L 844 -850 
Q 1081 -850 1212 -737 
Q 1344 -625 1503 -206 
L 1606 56 
L 191 3500 
L 800 3500 
L 1894 763 
L 2988 3500 
L 3597 3500 
L 2059 -325 
z
" transform="scale(0.015625)"/>
       <path id="DejaVuSans-67" d="M 2906 1791 
Q 2906 2416 2648 2759 
Q 2391 3103 1925 3103 
Q 1463 3103 1205 2759 
Q 947 2416 947 1791 
Q 947 1169 1205 825 
Q 1463 481 1925 481 
Q 2391 481 2648 825 
Q 2906 1169 2906 1791 
z
M 3481 434 
Q 3481 -459 3084 -895 
Q 2688 -1331 1869 -1331 
Q 1566 -1331 1297 -1286 
Q 1028 -1241 775 -1147 
L 775 -588 
Q 1028 -725 1275 -790 
Q 1522 -856 1778 -856 
Q 2344 -856 2625 -561 
Q 2906 -266 2906 331 
L 2906 616 
Q 2728 306 2450 153 
Q 2172 0 1784 0 
Q 1141 0 747 490 
Q 353 981 353 1791 
Q 353 2603 747 3093 
Q 1141 3584 1784 3584 
Q 2172 3584 2450 3431 
Q 2728 3278 2906 2969 
L 2906 3500 
L 3481 3500 
L 3481 434 
z
" transform="scale(0.015625)"/>
       <path id="DejaVuSans-74" d="M 1172 4494 
L 1172 3500 
L 2356 3500 
L 2356 3053 
L 1172 3053 
L 1172 1153 
Q 1172 725 1289 603 
Q 1406 481 1766 481 
L 2356 481 
L 2356 0 
L 1766 0 
Q 1100 0 847 248 
Q 594 497 594 1153 
L 594 3053 
L 172 3053 
L 172 3500 
L 594 3500 
L 594 4494 
L 1172 4494 
z
" transform="scale(0.015625)"/>
       <path id="DejaVuSans-28" d="M 1984 4856 
Q 1566 4138 1362 3434 
Q 1159 2731 1159 2009 
Q 1159 1288 1364 580 
Q 1569 -128 1984 -844 
L 1484 -844 
Q 1016 -109 783 600 
Q 550 1309 550 2009 
Q 550 2706 781 3412 
Q 1013 4119 1484 4856 
L 1984 4856 
z
" transform="scale(0.015625)"/>
       <path id="DejaVuSans-25" d="M 4653 2053 
Q 4381 2053 4226 1822 
Q 4072 1591 4072 1178 
Q 4072 772 4226 539 
Q 4381 306 4653 306 
Q 4919 306 5073 539 
Q 5228 772 5228 1178 
Q 5228 1588 5073 1820 
Q 4919 2053 4653 2053 
z
M 4653 2450 
Q 5147 2450 5437 2106 
Q 5728 1763 5728 1178 
Q 5728 594 5436 251 
Q 5144 -91 4653 -91 
Q 4153 -91 3862 251 
Q 3572 594 3572 1178 
Q 3572 1766 3864 2108 
Q 4156 2450 4653 2450 
z
M 1428 4353 
Q 1159 4353 1004 4120 
Q 850 3888 850 3481 
Q 850 3069 1003 2837 
Q 1156 2606 1428 2606 
Q 1700 2606 1854 2837 
Q 2009 3069 2009 3481 
Q 2009 3884 1853 4118 
Q 1697 4353 1428 4353 
z
M 4250 4750 
L 4750 4750 
L 1831 -91 
L 1331 -91 
L 4250 4750 
z
M 1428 4750 
Q 1922 4750 2215 4408 
Q 2509 4066 2509 3481 
Q 2509 2891 2217 2550 
Q 1925 2209 1428 2209 
Q 931 2209 642 2551 
Q 353 2894 353 3481 
Q 353 4063 643 4406 
Q 934 4750 1428 4750 
z
" transform="scale(0.015625)"/>
       <path id="DejaVuSans-29" d="M 513 4856 
L 1013 4856 
Q 1481 4119 1714 3412 
Q 1947 2706 1947 2009 
Q 1947 1309 1714 600 
Q 1481 -109 1013 -844 
L 513 -844 
Q 928 -128 1133 580 
Q 1338 1288 1338 2009 
Q 1338 2731 1133 3434 
Q 928 4138 513 4856 
z
" transform="scale(0.015625)"/>
      </defs>
      <use xlink:href="#DejaVuSans-41"/>
      <use xlink:href="#DejaVuSans-63" x="66.658203"/>
      <use xlink:href="#DejaVuSans-63" x="121.638672"/>
      <use xlink:href="#DejaVuSans-75" x="176.619141"/>
      <use xlink:href="#DejaVuSans-72" x="239.998047"/>
      <use xlink:href="#DejaVuSans-61" x="281.111328"/>
      <use xlink:href="#DejaVuSans-63" x="342.390625"/>
      <use xlink:href="#DejaVuSans-79" x="397.371094"/>
      <use xlink:href="#DejaVuSans-20" x="456.550781"/>
      <use xlink:href="#DejaVuSans-61" x="488.337891"/>
      <use xlink:href="#DejaVuSans-67" x="549.617188"/>
      <use xlink:href="#DejaVuSans-67" x="613.09375"/>
      <use xlink:href="#DejaVuSans-72" x="676.570312"/>
      <use xlink:href="#DejaVuSans-65" x="715.433594"/>
      <use xlink:href="#DejaVuSans-67" x="776.957031"/>
      <use xlink:href="#DejaVuSans-61" x="840.433594"/>
      <use xlink:href="#DejaVuSans-74" x="901.712891"/>
      <use xlink:href="#DejaVuSans-65" x="940.921875"/>
      <use xlink:href="#DejaVuSans-64" x="1002.445312"/>
      <use xlink:href="#DejaVuSans-20" x="1065.921875"/>
      <use xlink:href="#DejaVuSans-28" x="1097.708984"/>
      <use xlink:href="#DejaVuSans-25" x="1136.722656"/>
      <use xlink:href="#DejaVuSans-29" x="1231.742188"/>
     </g>
    </g>
   </g>
   <g id="PolyCollection_1"/>
   <g id="PolyCollection_2"/>
   <g id="PolyCollection_3"/>
   <g id="PolyCollection_4"/>
   <g id="PolyCollection_5"/>
   <g id="line2d_16">
    <path d="M 69.542727 218.791458 
L 72.822066 128.561014 
L 76.101405 139.68759 
L 79.380744 84.981923 
L 82.660083 55.795419 
L 85.939421 48.903584 
L 89.21876 47.25674 
L 92.498099 51.24238 
L 95.777438 42.745218 
L 99.056777 43.644755 
L 102.336116 44.087604 
L 105.615455 43.880018 
L 108.894793 40.932306 
L 112.174132 40.30955 
L 115.453471 41.416672 
L 118.73281 40.655525 
L 122.012149 38.441281 
L 125.291488 39.423852 
L 128.570826 39.17475 
L 131.850165 38.468959 
L 135.129504 40.904628 
L 138.408843 39.74215 
L 141.688182 38.88413 
L 144.967521 38.067628 
L 148.24686 37.680135 
L 151.526198 38.759579 
L 154.805537 37.74933 
L 158.084876 37.74933 
L 161.364215 37.583262 
L 164.643554 38.593511 
L 167.922893 37.555584 
L 171.202231 37.347998 
L 174.48157 38.192179 
L 177.760909 37.085057 
L 181.040248 37.126574 
L 184.319587 36.573013 
L 187.598926 37.569423 
L 190.878264 36.974345 
L 194.157603 36.32391 
L 197.436942 36.088647 
L 200.716281 35.47973 
L 203.99562 36.33775 
L 207.274959 35.631959 
L 210.554298 35.548925 
L 213.833636 35.881062 
L 217.112975 35.576603 
L 220.392314 35.922579 
L 223.671653 35.798028 
L 226.950992 36.683725 
L 230.230331 35.853384 
L 233.509669 35.327501 
L 236.789008 36.033291 
L 240.068347 35.452052 
L 243.347686 34.967686 
L 246.627025 34.926169 
L 249.906364 34.953847 
L 253.185702 35.382857 
L 256.465041 34.953847 
L 259.74438 35.023042 
L 263.023719 34.607871 
L 266.303058 34.884652 
L 269.582397 34.414125 
L 272.861736 35.05072 
L 276.141074 35.036881 
L 279.420413 35.023042 
L 282.699752 34.718584 
L 285.979091 35.34134 
L 289.25843 35.161432 
L 292.537769 34.760101 
L 295.817107 38.83695 
L 299.096446 39.258936 
L 302.375785 39.396327 
L 305.655124 39.062663 
L 308.934463 40.102908 
L 312.213802 38.257945 
L 315.49314 39.337445 
L 318.772479 40.48564 
L 322.051818 39.739804 
L 325.331157 40.004772 
L 328.610496 40.730981 
L 331.889835 39.690736 
L 335.169174 40.80949 
L 338.448512 40.289367 
L 341.727851 40.573963 
L 345.00719 40.328622 
L 348.286529 39.779058 
L 351.565868 40.279554 
L 354.845207 40.358063 
L 358.124545 40.289367 
L 361.403884 42.291348 
L 364.683223 41.094085 
L 367.962562 40.603403 
L 371.241901 40.789862 
L 374.52124 40.91744 
L 377.800579 41.13334 
L 381.079917 41.02539 
L 384.359256 40.652472 
L 387.638595 40.259926 
L 390.917934 40.318808 
L 394.197273 40.691726 
" clip-path="url(#p117b025252)" style="fill: none; stroke: #4c72b0; stroke-width: 1.5; stroke-linecap: round"/>
   </g>
   <g id="line2d_17">
    <path d="M 69.542727 274.341305 
L 72.822066 224.313229 
L 76.101405 276.334125 
L 79.380744 183.252841 
L 82.660083 114.569759 
L 85.939421 128.671726 
L 89.21876 117.240691 
L 92.498099 126.568194 
L 95.777438 107.511856 
L 99.056777 99.042373 
L 102.336116 99.111568 
L 105.615455 107.276593 
L 108.894793 74.782562 
L 112.174132 67.032707 
L 115.453471 80.48424 
L 118.73281 93.437568 
L 122.012149 68.236703 
L 125.291488 70.492464 
L 128.570826 74.865596 
L 131.850165 79.792289 
L 135.129504 67.821532 
L 138.408843 62.521185 
L 141.688182 75.862006 
L 144.967521 72.000918 
L 148.24686 65.219795 
L 151.526198 59.158302 
L 154.805537 62.202888 
L 158.084876 82.449382 
L 161.364215 72.775903 
L 164.643554 86.891709 
L 167.922893 55.573995 
L 171.202231 54.729814 
L 174.48157 68.250542 
L 177.760909 53.927151 
L 181.040248 52.100399 
L 184.319587 52.861546 
L 187.598926 61.151122 
L 190.878264 48.68216 
L 194.157603 50.744175 
L 197.436942 53.318233 
L 200.716281 48.40538 
L 203.99562 51.699068 
L 207.274959 49.263399 
L 210.554298 52.487892 
L 213.833636 49.733926 
L 217.112975 68.651873 
L 220.392314 55.158824 
L 223.671653 59.75338 
L 226.950992 58.244926 
L 230.230331 47.187545 
L 233.509669 50.633463 
L 236.789008 47.630394 
L 240.068347 51.062472 
L 243.347686 47.436648 
L 246.627025 46.288009 
L 249.906364 58.784648 
L 253.185702 57.525297 
L 256.465041 64.666234 
L 259.74438 45.208565 
L 263.023719 52.446375 
L 266.303058 60.722112 
L 269.582397 47.021477 
L 272.861736 45.692931 
L 276.141074 47.893336 
L 279.420413 55.449443 
L 282.699752 49.055814 
L 285.979091 53.027614 
L 289.25843 50.841048 
L 292.537769 54.909721 
L 295.817107 46.108851 
L 299.096446 52.487711 
L 302.375785 48.199154 
L 305.655124 47.757541 
L 308.934463 45.490592 
L 312.213802 44.273702 
L 315.49314 44.75457 
L 318.772479 49.05294 
L 322.051818 43.204016 
L 325.331157 46.206987 
L 328.610496 45.382642 
L 331.889835 47.757541 
L 335.169174 51.251194 
L 338.448512 49.70064 
L 341.727851 43.635816 
L 345.00719 43.45917 
L 348.286529 42.153957 
L 351.565868 42.467994 
L 354.845207 53.253175 
L 358.124545 44.420906 
L 361.403884 57.443596 
L 364.683223 45.098047 
L 367.962562 42.369857 
L 371.241901 43.881156 
L 374.52124 43.145134 
L 377.800579 51.584857 
L 381.079917 47.227605 
L 384.359256 42.752589 
L 387.638595 40.70154 
L 390.917934 43.99892 
L 394.197273 41.251103 
" clip-path="url(#p117b025252)" style="fill: none; stroke-dasharray: 6,2.25; stroke-dashoffset: 0; stroke: #dd8452; stroke-width: 1.5"/>
   </g>
   <g id="line2d_18">
    <path d="M 69.542727 240.740152 
L 72.822066 155.560952 
L 76.101405 161.871547 
L 79.380744 133.695292 
L 82.660083 99.388348 
L 85.939421 76.207981 
L 89.21876 69.454537 
L 92.498099 65.28899 
L 95.777438 62.908678 
L 99.056777 57.7744 
L 102.336116 57.566814 
L 105.615455 56.528887 
L 108.894793 55.421765 
L 112.174132 53.664209 
L 115.453471 53.013775 
L 118.73281 53.138326 
L 122.012149 49.194204 
L 125.291488 49.415628 
L 128.570826 48.433058 
L 131.850165 46.55095 
L 135.129504 44.904106 
L 138.408843 44.793394 
L 141.688182 43.700111 
L 144.967521 41.292121 
L 148.24686 41.402833 
L 151.526198 39.908218 
L 154.805537 40.101964 
L 158.084876 40.295711 
L 161.364215 40.406423 
L 164.643554 41.375155 
L 167.922893 41.236764 
L 171.202231 39.839023 
L 174.48157 39.520725 
L 177.760909 40.240355 
L 181.040248 39.091716 
L 184.319587 38.565833 
L 187.598926 38.17834 
L 190.878264 38.275213 
L 194.157603 39.119394 
L 197.436942 39.077877 
L 200.716281 39.243945 
L 203.99562 39.672955 
L 207.274959 38.897969 
L 210.554298 38.482798 
L 213.833636 38.122984 
L 217.112975 38.524315 
L 220.392314 38.219857 
L 223.671653 37.88772 
L 226.950992 37.403354 
L 230.230331 37.334159 
L 233.509669 37.140413 
L 236.789008 37.652457 
L 240.068347 37.514067 
L 243.347686 37.500228 
L 246.627025 37.403354 
L 249.906364 37.417193 
L 253.185702 37.88772 
L 256.465041 37.47255 
L 259.74438 37.140413 
L 263.023719 36.573013 
L 266.303058 36.600691 
L 269.582397 36.891311 
L 272.861736 36.849793 
L 276.141074 36.835954 
L 279.420413 37.057379 
L 282.699752 36.932828 
L 285.979091 37.347998 
L 289.25843 37.47255 
L 292.537769 36.974345 
L 295.817107 52.703611 
L 299.096446 53.007834 
L 302.375785 52.929325 
L 305.655124 52.615289 
L 308.934463 52.576034 
L 312.213802 52.929325 
L 315.49314 52.634916 
L 318.772479 52.016657 
L 322.051818 52.723239 
L 325.331157 52.821375 
L 328.610496 52.674171 
L 331.889835 52.811561 
L 335.169174 52.419016 
L 338.448512 52.311066 
L 341.727851 52.252184 
L 345.00719 52.281625 
L 348.286529 52.683984 
L 351.565868 52.340507 
L 354.845207 52.683984 
L 358.124545 52.468084 
L 361.403884 52.006844 
L 364.683223 52.458271 
L 367.962562 52.409202 
L 371.241901 52.203116 
L 374.52124 52.311066 
L 377.800579 52.683984 
L 381.079917 52.330693 
L 384.359256 52.477898 
L 387.638595 52.016657 
L 390.917934 52.546593 
L 394.197273 52.222743 
" clip-path="url(#p117b025252)" style="fill: none; stroke-dasharray: 1.5,1.5; stroke-dashoffset: 0; stroke: #55a868; stroke-width: 1.5"/>
   </g>
   <g id="line2d_19">
    <path d="M 69.542727 256.170665 
L 72.822066 231.454166 
L 76.101405 204.315838 
L 79.380744 183.501944 
L 82.660083 152.931537 
L 85.939421 126.720423 
L 89.21876 108.065417 
L 92.498099 99.180763 
L 95.777438 90.863509 
L 99.056777 82.394025 
L 102.336116 80.608791 
L 105.615455 77.467332 
L 108.894793 67.406361 
L 112.174132 61.123444 
L 115.453471 55.615512 
L 118.73281 53.899473 
L 122.012149 51.491482 
L 125.291488 50.744175 
L 128.570826 49.166526 
L 131.850165 48.626804 
L 135.129504 47.381292 
L 138.408843 46.218814 
L 141.688182 44.668843 
L 144.967521 44.309028 
L 148.24686 43.534043 
L 151.526198 43.630916 
L 154.805537 42.703701 
L 158.084876 42.537633 
L 161.364215 42.468438 
L 164.643554 42.343886 
L 167.922893 42.592989 
L 171.202231 42.44076 
L 174.48157 41.485867 
L 177.760909 40.918467 
L 181.040248 40.544813 
L 184.319587 40.420262 
L 187.598926 40.240355 
L 190.878264 40.032769 
L 194.157603 39.922057 
L 197.436942 39.755989 
L 200.716281 39.188589 
L 203.99562 39.285462 
L 207.274959 39.091716 
L 210.554298 38.994842 
L 213.833636 38.870291 
L 217.112975 37.873881 
L 220.392314 38.012272 
L 223.671653 37.818525 
L 226.950992 37.624779 
L 230.230331 37.527906 
L 233.509669 37.444872 
L 236.789008 37.195769 
L 240.068347 37.04354 
L 243.347686 36.711403 
L 246.627025 36.75292 
L 249.906364 36.683725 
L 253.185702 36.573013 
L 256.465041 36.600691 
L 259.74438 36.559174 
L 263.023719 36.559174 
L 266.303058 36.780598 
L 269.582397 36.669886 
L 272.861736 37.04354 
L 276.141074 36.877471 
L 279.420413 36.434623 
L 282.699752 36.462301 
L 285.979091 36.310071 
L 289.25843 36.254715 
L 292.537769 36.227037 
L 295.817107 64.234629 
L 299.096446 64.499597 
L 302.375785 64.362206 
L 305.655124 64.107051 
L 308.934463 63.861711 
L 312.213802 63.685065 
L 315.49314 63.83227 
L 318.772479 63.596743 
L 322.051818 63.822456 
L 325.331157 63.714506 
L 328.610496 63.685065 
L 331.889835 63.871524 
L 335.169174 63.72432 
L 338.448512 63.802829 
L 341.727851 63.685065 
L 345.00719 63.793015 
L 348.286529 63.753761 
L 351.565868 63.675252 
L 354.845207 63.528047 
L 358.124545 63.606556 
L 361.403884 63.528047 
L 364.683223 63.410284 
L 367.962562 63.459352 
L 371.241901 63.420097 
L 374.52124 63.40047 
L 377.800579 63.459352 
L 381.079917 63.498606 
L 384.359256 63.272893 
L 387.638595 63.223825 
L 390.917934 63.145316 
L 394.197273 63.145316 
" clip-path="url(#p117b025252)" style="fill: none; stroke-dasharray: 4.5,1.875,2.25,1.875; stroke-dashoffset: 0; stroke: #c44e52; stroke-width: 1.5"/>
   </g>
   <g id="line2d_20">
    <path d="M 69.542727 246.718611 
L 72.822066 165.580406 
L 76.101405 154.066337 
L 79.380744 132.422102 
L 82.660083 104.536466 
L 85.939421 77.50885 
L 89.21876 68.541161 
L 92.498099 67.946083 
L 95.777438 66.672893 
L 99.056777 61.123444 
L 102.336116 60.805146 
L 105.615455 60.044 
L 108.894793 59.255175 
L 112.174132 57.746722 
L 115.453471 55.753902 
L 118.73281 54.992756 
L 122.012149 53.94099 
L 125.291488 53.041453 
L 128.570826 52.487892 
L 131.850165 51.353092 
L 135.129504 49.927672 
L 138.408843 48.25315 
L 141.688182 47.658072 
L 144.967521 46.398721 
L 148.24686 45.056335 
L 151.526198 43.28494 
L 154.805537 42.897447 
L 158.084876 42.191657 
L 161.364215 41.596579 
L 164.643554 40.946145 
L 167.922893 40.337228 
L 171.202231 39.368496 
L 174.48157 39.382335 
L 177.760909 39.437691 
L 181.040248 38.828774 
L 184.319587 38.648867 
L 187.598926 38.45512 
L 190.878264 38.17834 
L 194.157603 37.998433 
L 197.436942 38.261374 
L 200.716281 38.026111 
L 203.99562 37.804686 
L 207.274959 37.832364 
L 210.554298 37.680135 
L 213.833636 37.74933 
L 217.112975 37.680135 
L 220.392314 37.361837 
L 223.671653 37.306481 
L 226.950992 37.04354 
L 230.230331 36.683725 
L 233.509669 36.988184 
L 236.789008 36.960506 
L 240.068347 37.168091 
L 243.347686 36.586852 
L 246.627025 36.780598 
L 249.906364 36.669886 
L 253.185702 36.628369 
L 256.465041 36.794437 
L 259.74438 36.628369 
L 263.023719 36.531496 
L 266.303058 36.642208 
L 269.582397 36.517657 
L 272.861736 36.489979 
L 276.141074 36.531496 
L 279.420413 36.296232 
L 282.699752 36.282393 
L 285.979091 36.379267 
L 289.25843 36.365428 
L 292.537769 36.33775 
L 295.817107 53.086343 
L 299.096446 53.037275 
L 302.375785 52.978393 
L 305.655124 52.919511 
L 308.934463 52.899884 
L 312.213802 52.733052 
L 315.49314 52.772307 
L 318.772479 52.939139 
L 322.051818 52.811561 
L 325.331157 52.899884 
L 328.610496 52.86063 
L 331.889835 53.027461 
L 335.169174 52.78212 
L 338.448512 52.880257 
L 341.727851 52.801748 
L 345.00719 52.919511 
L 348.286529 52.870443 
L 351.565868 52.703611 
L 354.845207 52.733052 
L 358.124545 52.64473 
L 361.403884 52.713425 
L 364.683223 52.674171 
L 367.962562 52.723239 
L 371.241901 52.733052 
L 374.52124 52.772307 
L 377.800579 52.762493 
L 381.079917 52.64473 
L 384.359256 52.605475 
L 387.638595 52.683984 
L 390.917934 52.713425 
L 394.197273 52.477898 
" clip-path="url(#p117b025252)" style="fill: none; stroke-dasharray: 7.5,1.5,1.5,1.5; stroke-dashoffset: 0; stroke: #8172b3; stroke-width: 1.5"/>
   </g>
   <g id="line2d_21"/>
   <g id="line2d_22"/>
   <g id="line2d_23"/>
   <g id="line2d_24"/>
   <g id="line2d_25"/>
   <g id="patch_3">
    <path d="M 53.31 288.430125 
L 53.31 22.318125 
" style="fill: none; stroke: #cccccc; stroke-width: 1.25; stroke-linejoin: miter; stroke-linecap: square"/>
   </g>
   <g id="patch_4">
    <path d="M 410.43 288.430125 
L 410.43 22.318125 
" style="fill: none; stroke: #cccccc; stroke-width: 1.25; stroke-linejoin: miter; stroke-linecap: square"/>
   </g>
   <g id="patch_5">
    <path d="M 53.31 288.430125 
L 410.43 288.430125 
" style="fill: none; stroke: #cccccc; stroke-width: 1.25; stroke-linejoin: miter; stroke-linecap: square"/>
   </g>
   <g id="patch_6">
    <path d="M 53.31 22.318125 
L 410.43 22.318125 
" style="fill: none; stroke: #cccccc; stroke-width: 1.25; stroke-linejoin: miter; stroke-linecap: square"/>
   </g>
   <g id="text_18">
    <!-- Exp. 4 (MNIST) -->
    <g style="fill: #262626" transform="translate(187.589063 16.318125) scale(0.12 -0.12)">
     <defs>
      <path id="DejaVuSans-45" d="M 628 4666 
L 3578 4666 
L 3578 4134 
L 1259 4134 
L 1259 2753 
L 3481 2753 
L 3481 2222 
L 1259 2222 
L 1259 531 
L 3634 531 
L 3634 0 
L 628 0 
L 628 4666 
z
" transform="scale(0.015625)"/>
      <path id="DejaVuSans-78" d="M 3513 3500 
L 2247 1797 
L 3578 0 
L 2900 0 
L 1881 1375 
L 863 0 
L 184 0 
L 1544 1831 
L 300 3500 
L 978 3500 
L 1906 2253 
L 2834 3500 
L 3513 3500 
z
" transform="scale(0.015625)"/>
      <path id="DejaVuSans-70" d="M 1159 525 
L 1159 -1331 
L 581 -1331 
L 581 3500 
L 1159 3500 
L 1159 2969 
Q 1341 3281 1617 3432 
Q 1894 3584 2278 3584 
Q 2916 3584 3314 3078 
Q 3713 2572 3713 1747 
Q 3713 922 3314 415 
Q 2916 -91 2278 -91 
Q 1894 -91 1617 61 
Q 1341 213 1159 525 
z
M 3116 1747 
Q 3116 2381 2855 2742 
Q 2594 3103 2138 3103 
Q 1681 3103 1420 2742 
Q 1159 2381 1159 1747 
Q 1159 1113 1420 752 
Q 1681 391 2138 391 
Q 2594 391 2855 752 
Q 3116 1113 3116 1747 
z
" transform="scale(0.015625)"/>
      <path id="DejaVuSans-2e" d="M 684 794 
L 1344 794 
L 1344 0 
L 684 0 
L 684 794 
z
" transform="scale(0.015625)"/>
      <path id="DejaVuSans-4d" d="M 628 4666 
L 1569 4666 
L 2759 1491 
L 3956 4666 
L 4897 4666 
L 4897 0 
L 4281 0 
L 4281 4097 
L 3078 897 
L 2444 897 
L 1241 4097 
L 1241 0 
L 628 0 
L 628 4666 
z
" transform="scale(0.015625)"/>
      <path id="DejaVuSans-4e" d="M 628 4666 
L 1478 4666 
L 3547 763 
L 3547 4666 
L 4159 4666 
L 4159 0 
L 3309 0 
L 1241 3903 
L 1241 0 
L 628 0 
L 628 4666 
z
" transform="scale(0.015625)"/>
      <path id="DejaVuSans-49" d="M 628 4666 
L 1259 4666 
L 1259 0 
L 628 0 
L 628 4666 
z
" transform="scale(0.015625)"/>
      <path id="DejaVuSans-54" d="M -19 4666 
L 3928 4666 
L 3928 4134 
L 2272 4134 
L 2272 0 
L 1638 0 
L 1638 4134 
L -19 4134 
L -19 4666 
z
" transform="scale(0.015625)"/>
     </defs>
     <use xlink:href="#DejaVuSans-45"/>
     <use xlink:href="#DejaVuSans-78" x="63.183594"/>
     <use xlink:href="#DejaVuSans-70" x="122.363281"/>
     <use xlink:href="#DejaVuSans-2e" x="185.839844"/>
     <use xlink:href="#DejaVuSans-20" x="217.626953"/>
     <use xlink:href="#DejaVuSans-34" x="249.414062"/>
     <use xlink:href="#DejaVuSans-20" x="313.037109"/>
     <use xlink:href="#DejaVuSans-28" x="344.824219"/>
     <use xlink:href="#DejaVuSans-4d" x="383.837891"/>
     <use xlink:href="#DejaVuSans-4e" x="470.117188"/>
     <use xlink:href="#DejaVuSans-49" x="544.921875"/>
     <use xlink:href="#DejaVuSans-53" x="574.414062"/>
     <use xlink:href="#DejaVuSans-54" x="637.890625"/>
     <use xlink:href="#DejaVuSans-29" x="698.974609"/>
    </g>
   </g>
   <g id="legend_1">
    <g id="patch_7">
     <path d="M 298.745625 282.930125 
L 402.73 282.930125 
Q 404.93 282.930125 404.93 280.730125 
L 404.93 183.986687 
Q 404.93 181.786687 402.73 181.786687 
L 298.745625 181.786687 
Q 296.545625 181.786687 296.545625 183.986687 
L 296.545625 280.730125 
Q 296.545625 282.930125 298.745625 282.930125 
z
" style="fill: #ffffff; opacity: 0.8; stroke: #cccccc; stroke-linejoin: miter"/>
    </g>
    <g id="text_19">
     <!-- Strategy -->
     <g style="fill: #262626" transform="translate(325.02875 195.304812) scale(0.12 -0.12)">
      <use xlink:href="#DejaVuSans-53"/>
      <use xlink:href="#DejaVuSans-74" x="63.476562"/>
      <use xlink:href="#DejaVuSans-72" x="102.685547"/>
      <use xlink:href="#DejaVuSans-61" x="143.798828"/>
      <use xlink:href="#DejaVuSans-74" x="205.078125"/>
      <use xlink:href="#DejaVuSans-65" x="244.287109"/>
      <use xlink:href="#DejaVuSans-67" x="305.810547"/>
      <use xlink:href="#DejaVuSans-79" x="369.287109"/>
     </g>
    </g>
    <g id="line2d_26">
     <path d="M 300.945625 207.808719 
L 311.945625 207.808719 
L 322.945625 207.808719 
" style="fill: none; stroke: #4c72b0; stroke-width: 1.5; stroke-linecap: round"/>
    </g>
    <g id="text_20">
     <!-- FedPredict -->
     <g style="fill: #262626" transform="translate(331.745625 211.658719) scale(0.11 -0.11)">
      <defs>
       <path id="DejaVuSans-46" d="M 628 4666 
L 3309 4666 
L 3309 4134 
L 1259 4134 
L 1259 2759 
L 3109 2759 
L 3109 2228 
L 1259 2228 
L 1259 0 
L 628 0 
L 628 4666 
z
" transform="scale(0.015625)"/>
       <path id="DejaVuSans-50" d="M 1259 4147 
L 1259 2394 
L 2053 2394 
Q 2494 2394 2734 2622 
Q 2975 2850 2975 3272 
Q 2975 3691 2734 3919 
Q 2494 4147 2053 4147 
L 1259 4147 
z
M 628 4666 
L 2053 4666 
Q 2838 4666 3239 4311 
Q 3641 3956 3641 3272 
Q 3641 2581 3239 2228 
Q 2838 1875 2053 1875 
L 1259 1875 
L 1259 0 
L 628 0 
L 628 4666 
z
" transform="scale(0.015625)"/>
       <path id="DejaVuSans-69" d="M 603 3500 
L 1178 3500 
L 1178 0 
L 603 0 
L 603 3500 
z
M 603 4863 
L 1178 4863 
L 1178 4134 
L 603 4134 
L 603 4863 
z
" transform="scale(0.015625)"/>
      </defs>
      <use xlink:href="#DejaVuSans-46"/>
      <use xlink:href="#DejaVuSans-65" x="52.019531"/>
      <use xlink:href="#DejaVuSans-64" x="113.542969"/>
      <use xlink:href="#DejaVuSans-50" x="177.019531"/>
      <use xlink:href="#DejaVuSans-72" x="235.572266"/>
      <use xlink:href="#DejaVuSans-65" x="274.435547"/>
      <use xlink:href="#DejaVuSans-64" x="335.958984"/>
      <use xlink:href="#DejaVuSans-69" x="399.435547"/>
      <use xlink:href="#DejaVuSans-63" x="427.21875"/>
      <use xlink:href="#DejaVuSans-74" x="482.199219"/>
     </g>
    </g>
    <g id="line2d_27">
     <path d="M 300.945625 223.954656 
L 311.945625 223.954656 
L 322.945625 223.954656 
" style="fill: none; stroke-dasharray: 6,2.25; stroke-dashoffset: 0; stroke: #dd8452; stroke-width: 1.5"/>
    </g>
    <g id="text_21">
     <!-- FedAVG -->
     <g style="fill: #262626" transform="translate(331.745625 227.804656) scale(0.11 -0.11)">
      <defs>
       <path id="DejaVuSans-56" d="M 1831 0 
L 50 4666 
L 709 4666 
L 2188 738 
L 3669 4666 
L 4325 4666 
L 2547 0 
L 1831 0 
z
" transform="scale(0.015625)"/>
       <path id="DejaVuSans-47" d="M 3809 666 
L 3809 1919 
L 2778 1919 
L 2778 2438 
L 4434 2438 
L 4434 434 
Q 4069 175 3628 42 
Q 3188 -91 2688 -91 
Q 1594 -91 976 548 
Q 359 1188 359 2328 
Q 359 3472 976 4111 
Q 1594 4750 2688 4750 
Q 3144 4750 3555 4637 
Q 3966 4525 4313 4306 
L 4313 3634 
Q 3963 3931 3569 4081 
Q 3175 4231 2741 4231 
Q 1884 4231 1454 3753 
Q 1025 3275 1025 2328 
Q 1025 1384 1454 906 
Q 1884 428 2741 428 
Q 3075 428 3337 486 
Q 3600 544 3809 666 
z
" transform="scale(0.015625)"/>
      </defs>
      <use xlink:href="#DejaVuSans-46"/>
      <use xlink:href="#DejaVuSans-65" x="52.019531"/>
      <use xlink:href="#DejaVuSans-64" x="113.542969"/>
      <use xlink:href="#DejaVuSans-41" x="177.019531"/>
      <use xlink:href="#DejaVuSans-56" x="239.052734"/>
      <use xlink:href="#DejaVuSans-47" x="307.460938"/>
     </g>
    </g>
    <g id="line2d_28">
     <path d="M 300.945625 240.100594 
L 311.945625 240.100594 
L 322.945625 240.100594 
" style="fill: none; stroke-dasharray: 1.5,1.5; stroke-dashoffset: 0; stroke: #55a868; stroke-width: 1.5"/>
    </g>
    <g id="text_22">
     <!-- FedClassAvg -->
     <g style="fill: #262626" transform="translate(331.745625 243.950594) scale(0.11 -0.11)">
      <defs>
       <path id="DejaVuSans-43" d="M 4122 4306 
L 4122 3641 
Q 3803 3938 3442 4084 
Q 3081 4231 2675 4231 
Q 1875 4231 1450 3742 
Q 1025 3253 1025 2328 
Q 1025 1406 1450 917 
Q 1875 428 2675 428 
Q 3081 428 3442 575 
Q 3803 722 4122 1019 
L 4122 359 
Q 3791 134 3420 21 
Q 3050 -91 2638 -91 
Q 1578 -91 968 557 
Q 359 1206 359 2328 
Q 359 3453 968 4101 
Q 1578 4750 2638 4750 
Q 3056 4750 3426 4639 
Q 3797 4528 4122 4306 
z
" transform="scale(0.015625)"/>
       <path id="DejaVuSans-6c" d="M 603 4863 
L 1178 4863 
L 1178 0 
L 603 0 
L 603 4863 
z
" transform="scale(0.015625)"/>
       <path id="DejaVuSans-73" d="M 2834 3397 
L 2834 2853 
Q 2591 2978 2328 3040 
Q 2066 3103 1784 3103 
Q 1356 3103 1142 2972 
Q 928 2841 928 2578 
Q 928 2378 1081 2264 
Q 1234 2150 1697 2047 
L 1894 2003 
Q 2506 1872 2764 1633 
Q 3022 1394 3022 966 
Q 3022 478 2636 193 
Q 2250 -91 1575 -91 
Q 1294 -91 989 -36 
Q 684 19 347 128 
L 347 722 
Q 666 556 975 473 
Q 1284 391 1588 391 
Q 1994 391 2212 530 
Q 2431 669 2431 922 
Q 2431 1156 2273 1281 
Q 2116 1406 1581 1522 
L 1381 1569 
Q 847 1681 609 1914 
Q 372 2147 372 2553 
Q 372 3047 722 3315 
Q 1072 3584 1716 3584 
Q 2034 3584 2315 3537 
Q 2597 3491 2834 3397 
z
" transform="scale(0.015625)"/>
      </defs>
      <use xlink:href="#DejaVuSans-46"/>
      <use xlink:href="#DejaVuSans-65" x="52.019531"/>
      <use xlink:href="#DejaVuSans-64" x="113.542969"/>
      <use xlink:href="#DejaVuSans-43" x="177.019531"/>
      <use xlink:href="#DejaVuSans-6c" x="246.84375"/>
      <use xlink:href="#DejaVuSans-61" x="274.626953"/>
      <use xlink:href="#DejaVuSans-73" x="335.90625"/>
      <use xlink:href="#DejaVuSans-73" x="388.005859"/>
      <use xlink:href="#DejaVuSans-41" x="440.105469"/>
      <use xlink:href="#DejaVuSans-76" x="502.638672"/>
      <use xlink:href="#DejaVuSans-67" x="561.818359"/>
     </g>
    </g>
    <g id="line2d_29">
     <path d="M 300.945625 256.246531 
L 311.945625 256.246531 
L 322.945625 256.246531 
" style="fill: none; stroke-dasharray: 4.5,1.875,2.25,1.875; stroke-dashoffset: 0; stroke: #c44e52; stroke-width: 1.5"/>
    </g>
    <g id="text_23">
     <!-- FedPer -->
     <g style="fill: #262626" transform="translate(331.745625 260.096531) scale(0.11 -0.11)">
      <use xlink:href="#DejaVuSans-46"/>
      <use xlink:href="#DejaVuSans-65" x="52.019531"/>
      <use xlink:href="#DejaVuSans-64" x="113.542969"/>
      <use xlink:href="#DejaVuSans-50" x="177.019531"/>
      <use xlink:href="#DejaVuSans-65" x="233.697266"/>
      <use xlink:href="#DejaVuSans-72" x="295.220703"/>
     </g>
    </g>
    <g id="line2d_30">
     <path d="M 300.945625 272.392469 
L 311.945625 272.392469 
L 322.945625 272.392469 
" style="fill: none; stroke-dasharray: 7.5,1.5,1.5,1.5; stroke-dashoffset: 0; stroke: #8172b3; stroke-width: 1.5"/>
    </g>
    <g id="text_24">
     <!-- FedProto -->
     <g style="fill: #262626" transform="translate(331.745625 276.242469) scale(0.11 -0.11)">
      <use xlink:href="#DejaVuSans-46"/>
      <use xlink:href="#DejaVuSans-65" x="52.019531"/>
      <use xlink:href="#DejaVuSans-64" x="113.542969"/>
      <use xlink:href="#DejaVuSans-50" x="177.019531"/>
      <use xlink:href="#DejaVuSans-72" x="235.572266"/>
      <use xlink:href="#DejaVuSans-6f" x="274.435547"/>
      <use xlink:href="#DejaVuSans-74" x="335.617188"/>
      <use xlink:href="#DejaVuSans-6f" x="374.826172"/>
     </g>
    </g>
   </g>
  </g>
 </g>
 <defs>
  <clipPath id="p117b025252">
   <rect x="53.31" y="22.318125" width="357.12" height="266.112"/>
  </clipPath>
 </defs>
</svg>
