<?xml version="1.0" encoding="utf-8" standalone="no"?>
<!DOCTYPE svg PUBLIC "-//W3C//DTD SVG 1.1//EN"
  "http://www.w3.org/Graphics/SVG/1.1/DTD/svg11.dtd">
<svg xmlns:xlink="http://www.w3.org/1999/xlink" width="410.63125pt" height="316.271687pt" viewBox="0 0 410.63125 316.271687" xmlns="http://www.w3.org/2000/svg" version="1.1">
 <metadata>
  <rdf:RDF xmlns:dc="http://purl.org/dc/elements/1.1/" xmlns:cc="http://creativecommons.org/ns#" xmlns:rdf="http://www.w3.org/1999/02/22-rdf-syntax-ns#">
   <cc:Work>
    <dc:type rdf:resource="http://purl.org/dc/dcmitype/StillImage"/>
    <dc:date>2023-02-09T04:43:26.364175</dc:date>
    <dc:format>image/svg+xml</dc:format>
    <dc:creator>
     <cc:Agent>
      <dc:title>Matplotlib v3.6.3, https://matplotlib.org/</dc:title>
     </cc:Agent>
    </dc:creator>
   </cc:Work>
  </rdf:RDF>
 </metadata>
 <defs>
  <style type="text/css">*{stroke-linejoin: round; stroke-linecap: butt}</style>
 </defs>
 <g id="figure_1">
  <g id="patch_1">
   <path d="M 0 316.271687 
L 410.63125 316.271687 
L 410.63125 0 
L 0 0 
z
" style="fill: #ffffff"/>
  </g>
  <g id="axes_1">
   <g id="patch_2">
    <path d="M 46.31125 273.312 
L 403.43125 273.312 
L 403.43125 7.2 
L 46.31125 7.2 
z
" style="fill: #ffffff"/>
   </g>
   <g id="matplotlib.axis_1">
    <g id="xtick_1">
     <g id="line2d_1">
      <path d="M 59.264638 273.312 
L 59.264638 7.2 
" clip-path="url(#p901e59412f)" style="fill: none; stroke: #cccccc; stroke-linecap: round"/>
     </g>
     <g id="text_1">
      <!-- 0 -->
      <g style="fill: #262626" transform="translate(55.765263 291.170281) scale(0.11 -0.11)">
       <defs>
        <path id="DejaVuSans-30" d="M 2034 4250 
Q 1547 4250 1301 3770 
Q 1056 3291 1056 2328 
Q 1056 1369 1301 889 
Q 1547 409 2034 409 
Q 2525 409 2770 889 
Q 3016 1369 3016 2328 
Q 3016 3291 2770 3770 
Q 2525 4250 2034 4250 
z
M 2034 4750 
Q 2819 4750 3233 4129 
Q 3647 3509 3647 2328 
Q 3647 1150 3233 529 
Q 2819 -91 2034 -91 
Q 1250 -91 836 529 
Q 422 1150 422 2328 
Q 422 3509 836 4129 
Q 1250 4750 2034 4750 
z
" transform="scale(0.015625)"/>
       </defs>
       <use xlink:href="#DejaVuSans-30"/>
      </g>
     </g>
    </g>
    <g id="xtick_2">
     <g id="line2d_2">
      <path d="M 124.851415 273.312 
L 124.851415 7.2 
" clip-path="url(#p901e59412f)" style="fill: none; stroke: #cccccc; stroke-linecap: round"/>
     </g>
     <g id="text_2">
      <!-- 20 -->
      <g style="fill: #262626" transform="translate(117.852665 291.170281) scale(0.11 -0.11)">
       <defs>
        <path id="DejaVuSans-32" d="M 1228 531 
L 3431 531 
L 3431 0 
L 469 0 
L 469 531 
Q 828 903 1448 1529 
Q 2069 2156 2228 2338 
Q 2531 2678 2651 2914 
Q 2772 3150 2772 3378 
Q 2772 3750 2511 3984 
Q 2250 4219 1831 4219 
Q 1534 4219 1204 4116 
Q 875 4013 500 3803 
L 500 4441 
Q 881 4594 1212 4672 
Q 1544 4750 1819 4750 
Q 2544 4750 2975 4387 
Q 3406 4025 3406 3419 
Q 3406 3131 3298 2873 
Q 3191 2616 2906 2266 
Q 2828 2175 2409 1742 
Q 1991 1309 1228 531 
z
" transform="scale(0.015625)"/>
       </defs>
       <use xlink:href="#DejaVuSans-32"/>
       <use xlink:href="#DejaVuSans-30" x="63.623047"/>
      </g>
     </g>
    </g>
    <g id="xtick_3">
     <g id="line2d_3">
      <path d="M 190.438192 273.312 
L 190.438192 7.2 
" clip-path="url(#p901e59412f)" style="fill: none; stroke: #cccccc; stroke-linecap: round"/>
     </g>
     <g id="text_3">
      <!-- 40 -->
      <g style="fill: #262626" transform="translate(183.439442 291.170281) scale(0.11 -0.11)">
       <defs>
        <path id="DejaVuSans-34" d="M 2419 4116 
L 825 1625 
L 2419 1625 
L 2419 4116 
z
M 2253 4666 
L 3047 4666 
L 3047 1625 
L 3713 1625 
L 3713 1100 
L 3047 1100 
L 3047 0 
L 2419 0 
L 2419 1100 
L 313 1100 
L 313 1709 
L 2253 4666 
z
" transform="scale(0.015625)"/>
       </defs>
       <use xlink:href="#DejaVuSans-34"/>
       <use xlink:href="#DejaVuSans-30" x="63.623047"/>
      </g>
     </g>
    </g>
    <g id="xtick_4">
     <g id="line2d_4">
      <path d="M 256.024969 273.312 
L 256.024969 7.2 
" clip-path="url(#p901e59412f)" style="fill: none; stroke: #cccccc; stroke-linecap: round"/>
     </g>
     <g id="text_4">
      <!-- 60 -->
      <g style="fill: #262626" transform="translate(249.026219 291.170281) scale(0.11 -0.11)">
       <defs>
        <path id="DejaVuSans-36" d="M 2113 2584 
Q 1688 2584 1439 2293 
Q 1191 2003 1191 1497 
Q 1191 994 1439 701 
Q 1688 409 2113 409 
Q 2538 409 2786 701 
Q 3034 994 3034 1497 
Q 3034 2003 2786 2293 
Q 2538 2584 2113 2584 
z
M 3366 4563 
L 3366 3988 
Q 3128 4100 2886 4159 
Q 2644 4219 2406 4219 
Q 1781 4219 1451 3797 
Q 1122 3375 1075 2522 
Q 1259 2794 1537 2939 
Q 1816 3084 2150 3084 
Q 2853 3084 3261 2657 
Q 3669 2231 3669 1497 
Q 3669 778 3244 343 
Q 2819 -91 2113 -91 
Q 1303 -91 875 529 
Q 447 1150 447 2328 
Q 447 3434 972 4092 
Q 1497 4750 2381 4750 
Q 2619 4750 2861 4703 
Q 3103 4656 3366 4563 
z
" transform="scale(0.015625)"/>
       </defs>
       <use xlink:href="#DejaVuSans-36"/>
       <use xlink:href="#DejaVuSans-30" x="63.623047"/>
      </g>
     </g>
    </g>
    <g id="xtick_5">
     <g id="line2d_5">
      <path d="M 321.611746 273.312 
L 321.611746 7.2 
" clip-path="url(#p901e59412f)" style="fill: none; stroke: #cccccc; stroke-linecap: round"/>
     </g>
     <g id="text_5">
      <!-- 80 -->
      <g style="fill: #262626" transform="translate(314.612996 291.170281) scale(0.11 -0.11)">
       <defs>
        <path id="DejaVuSans-38" d="M 2034 2216 
Q 1584 2216 1326 1975 
Q 1069 1734 1069 1313 
Q 1069 891 1326 650 
Q 1584 409 2034 409 
Q 2484 409 2743 651 
Q 3003 894 3003 1313 
Q 3003 1734 2745 1975 
Q 2488 2216 2034 2216 
z
M 1403 2484 
Q 997 2584 770 2862 
Q 544 3141 544 3541 
Q 544 4100 942 4425 
Q 1341 4750 2034 4750 
Q 2731 4750 3128 4425 
Q 3525 4100 3525 3541 
Q 3525 3141 3298 2862 
Q 3072 2584 2669 2484 
Q 3125 2378 3379 2068 
Q 3634 1759 3634 1313 
Q 3634 634 3220 271 
Q 2806 -91 2034 -91 
Q 1263 -91 848 271 
Q 434 634 434 1313 
Q 434 1759 690 2068 
Q 947 2378 1403 2484 
z
M 1172 3481 
Q 1172 3119 1398 2916 
Q 1625 2713 2034 2713 
Q 2441 2713 2670 2916 
Q 2900 3119 2900 3481 
Q 2900 3844 2670 4047 
Q 2441 4250 2034 4250 
Q 1625 4250 1398 4047 
Q 1172 3844 1172 3481 
z
" transform="scale(0.015625)"/>
       </defs>
       <use xlink:href="#DejaVuSans-38"/>
       <use xlink:href="#DejaVuSans-30" x="63.623047"/>
      </g>
     </g>
    </g>
    <g id="xtick_6">
     <g id="line2d_6">
      <path d="M 387.198523 273.312 
L 387.198523 7.2 
" clip-path="url(#p901e59412f)" style="fill: none; stroke: #cccccc; stroke-linecap: round"/>
     </g>
     <g id="text_6">
      <!-- 100 -->
      <g style="fill: #262626" transform="translate(376.700398 291.170281) scale(0.11 -0.11)">
       <defs>
        <path id="DejaVuSans-31" d="M 794 531 
L 1825 531 
L 1825 4091 
L 703 3866 
L 703 4441 
L 1819 4666 
L 2450 4666 
L 2450 531 
L 3481 531 
L 3481 0 
L 794 0 
L 794 531 
z
" transform="scale(0.015625)"/>
       </defs>
       <use xlink:href="#DejaVuSans-31"/>
       <use xlink:href="#DejaVuSans-30" x="63.623047"/>
       <use xlink:href="#DejaVuSans-30" x="127.246094"/>
      </g>
     </g>
    </g>
    <g id="text_7">
     <!-- Round -->
     <g style="fill: #262626" transform="translate(205.886875 306.576062) scale(0.12 -0.12)">
      <defs>
       <path id="DejaVuSans-52" d="M 2841 2188 
Q 3044 2119 3236 1894 
Q 3428 1669 3622 1275 
L 4263 0 
L 3584 0 
L 2988 1197 
Q 2756 1666 2539 1819 
Q 2322 1972 1947 1972 
L 1259 1972 
L 1259 0 
L 628 0 
L 628 4666 
L 2053 4666 
Q 2853 4666 3247 4331 
Q 3641 3997 3641 3322 
Q 3641 2881 3436 2590 
Q 3231 2300 2841 2188 
z
M 1259 4147 
L 1259 2491 
L 2053 2491 
Q 2509 2491 2742 2702 
Q 2975 2913 2975 3322 
Q 2975 3731 2742 3939 
Q 2509 4147 2053 4147 
L 1259 4147 
z
" transform="scale(0.015625)"/>
       <path id="DejaVuSans-6f" d="M 1959 3097 
Q 1497 3097 1228 2736 
Q 959 2375 959 1747 
Q 959 1119 1226 758 
Q 1494 397 1959 397 
Q 2419 397 2687 759 
Q 2956 1122 2956 1747 
Q 2956 2369 2687 2733 
Q 2419 3097 1959 3097 
z
M 1959 3584 
Q 2709 3584 3137 3096 
Q 3566 2609 3566 1747 
Q 3566 888 3137 398 
Q 2709 -91 1959 -91 
Q 1206 -91 779 398 
Q 353 888 353 1747 
Q 353 2609 779 3096 
Q 1206 3584 1959 3584 
z
" transform="scale(0.015625)"/>
       <path id="DejaVuSans-75" d="M 544 1381 
L 544 3500 
L 1119 3500 
L 1119 1403 
Q 1119 906 1312 657 
Q 1506 409 1894 409 
Q 2359 409 2629 706 
Q 2900 1003 2900 1516 
L 2900 3500 
L 3475 3500 
L 3475 0 
L 2900 0 
L 2900 538 
Q 2691 219 2414 64 
Q 2138 -91 1772 -91 
Q 1169 -91 856 284 
Q 544 659 544 1381 
z
M 1991 3584 
L 1991 3584 
z
" transform="scale(0.015625)"/>
       <path id="DejaVuSans-6e" d="M 3513 2113 
L 3513 0 
L 2938 0 
L 2938 2094 
Q 2938 2591 2744 2837 
Q 2550 3084 2163 3084 
Q 1697 3084 1428 2787 
Q 1159 2491 1159 1978 
L 1159 0 
L 581 0 
L 581 3500 
L 1159 3500 
L 1159 2956 
Q 1366 3272 1645 3428 
Q 1925 3584 2291 3584 
Q 2894 3584 3203 3211 
Q 3513 2838 3513 2113 
z
" transform="scale(0.015625)"/>
       <path id="DejaVuSans-64" d="M 2906 2969 
L 2906 4863 
L 3481 4863 
L 3481 0 
L 2906 0 
L 2906 525 
Q 2725 213 2448 61 
Q 2172 -91 1784 -91 
Q 1150 -91 751 415 
Q 353 922 353 1747 
Q 353 2572 751 3078 
Q 1150 3584 1784 3584 
Q 2172 3584 2448 3432 
Q 2725 3281 2906 2969 
z
M 947 1747 
Q 947 1113 1208 752 
Q 1469 391 1925 391 
Q 2381 391 2643 752 
Q 2906 1113 2906 1747 
Q 2906 2381 2643 2742 
Q 2381 3103 1925 3103 
Q 1469 3103 1208 2742 
Q 947 2381 947 1747 
z
" transform="scale(0.015625)"/>
      </defs>
      <use xlink:href="#DejaVuSans-52"/>
      <use xlink:href="#DejaVuSans-6f" x="64.982422"/>
      <use xlink:href="#DejaVuSans-75" x="126.164062"/>
      <use xlink:href="#DejaVuSans-6e" x="189.542969"/>
      <use xlink:href="#DejaVuSans-64" x="252.921875"/>
     </g>
    </g>
   </g>
   <g id="matplotlib.axis_2">
    <g id="ytick_1">
     <g id="line2d_7">
      <path d="M 46.31125 247.394844 
L 403.43125 247.394844 
" clip-path="url(#p901e59412f)" style="fill: none; stroke: #cccccc; stroke-linecap: round"/>
     </g>
     <g id="text_8">
      <!-- 10 -->
      <g style="fill: #262626" transform="translate(22.81375 251.573984) scale(0.11 -0.11)">
       <use xlink:href="#DejaVuSans-31"/>
       <use xlink:href="#DejaVuSans-30" x="63.623047"/>
      </g>
     </g>
    </g>
    <g id="ytick_2">
     <g id="line2d_8">
      <path d="M 46.31125 215.097367 
L 403.43125 215.097367 
" clip-path="url(#p901e59412f)" style="fill: none; stroke: #cccccc; stroke-linecap: round"/>
     </g>
     <g id="text_9">
      <!-- 20 -->
      <g style="fill: #262626" transform="translate(22.81375 219.276507) scale(0.11 -0.11)">
       <use xlink:href="#DejaVuSans-32"/>
       <use xlink:href="#DejaVuSans-30" x="63.623047"/>
      </g>
     </g>
    </g>
    <g id="ytick_3">
     <g id="line2d_9">
      <path d="M 46.31125 182.79989 
L 403.43125 182.79989 
" clip-path="url(#p901e59412f)" style="fill: none; stroke: #cccccc; stroke-linecap: round"/>
     </g>
     <g id="text_10">
      <!-- 30 -->
      <g style="fill: #262626" transform="translate(22.81375 186.979031) scale(0.11 -0.11)">
       <defs>
        <path id="DejaVuSans-33" d="M 2597 2516 
Q 3050 2419 3304 2112 
Q 3559 1806 3559 1356 
Q 3559 666 3084 287 
Q 2609 -91 1734 -91 
Q 1441 -91 1130 -33 
Q 819 25 488 141 
L 488 750 
Q 750 597 1062 519 
Q 1375 441 1716 441 
Q 2309 441 2620 675 
Q 2931 909 2931 1356 
Q 2931 1769 2642 2001 
Q 2353 2234 1838 2234 
L 1294 2234 
L 1294 2753 
L 1863 2753 
Q 2328 2753 2575 2939 
Q 2822 3125 2822 3475 
Q 2822 3834 2567 4026 
Q 2313 4219 1838 4219 
Q 1578 4219 1281 4162 
Q 984 4106 628 3988 
L 628 4550 
Q 988 4650 1302 4700 
Q 1616 4750 1894 4750 
Q 2613 4750 3031 4423 
Q 3450 4097 3450 3541 
Q 3450 3153 3228 2886 
Q 3006 2619 2597 2516 
z
" transform="scale(0.015625)"/>
       </defs>
       <use xlink:href="#DejaVuSans-33"/>
       <use xlink:href="#DejaVuSans-30" x="63.623047"/>
      </g>
     </g>
    </g>
    <g id="ytick_4">
     <g id="line2d_10">
      <path d="M 46.31125 150.502413 
L 403.43125 150.502413 
" clip-path="url(#p901e59412f)" style="fill: none; stroke: #cccccc; stroke-linecap: round"/>
     </g>
     <g id="text_11">
      <!-- 40 -->
      <g style="fill: #262626" transform="translate(22.81375 154.681554) scale(0.11 -0.11)">
       <use xlink:href="#DejaVuSans-34"/>
       <use xlink:href="#DejaVuSans-30" x="63.623047"/>
      </g>
     </g>
    </g>
    <g id="ytick_5">
     <g id="line2d_11">
      <path d="M 46.31125 118.204936 
L 403.43125 118.204936 
" clip-path="url(#p901e59412f)" style="fill: none; stroke: #cccccc; stroke-linecap: round"/>
     </g>
     <g id="text_12">
      <!-- 50 -->
      <g style="fill: #262626" transform="translate(22.81375 122.384077) scale(0.11 -0.11)">
       <defs>
        <path id="DejaVuSans-35" d="M 691 4666 
L 3169 4666 
L 3169 4134 
L 1269 4134 
L 1269 2991 
Q 1406 3038 1543 3061 
Q 1681 3084 1819 3084 
Q 2600 3084 3056 2656 
Q 3513 2228 3513 1497 
Q 3513 744 3044 326 
Q 2575 -91 1722 -91 
Q 1428 -91 1123 -41 
Q 819 9 494 109 
L 494 744 
Q 775 591 1075 516 
Q 1375 441 1709 441 
Q 2250 441 2565 725 
Q 2881 1009 2881 1497 
Q 2881 1984 2565 2268 
Q 2250 2553 1709 2553 
Q 1456 2553 1204 2497 
Q 953 2441 691 2322 
L 691 4666 
z
" transform="scale(0.015625)"/>
       </defs>
       <use xlink:href="#DejaVuSans-35"/>
       <use xlink:href="#DejaVuSans-30" x="63.623047"/>
      </g>
     </g>
    </g>
    <g id="ytick_6">
     <g id="line2d_12">
      <path d="M 46.31125 85.907459 
L 403.43125 85.907459 
" clip-path="url(#p901e59412f)" style="fill: none; stroke: #cccccc; stroke-linecap: round"/>
     </g>
     <g id="text_13">
      <!-- 60 -->
      <g style="fill: #262626" transform="translate(22.81375 90.0866) scale(0.11 -0.11)">
       <use xlink:href="#DejaVuSans-36"/>
       <use xlink:href="#DejaVuSans-30" x="63.623047"/>
      </g>
     </g>
    </g>
    <g id="ytick_7">
     <g id="line2d_13">
      <path d="M 46.31125 53.609982 
L 403.43125 53.609982 
" clip-path="url(#p901e59412f)" style="fill: none; stroke: #cccccc; stroke-linecap: round"/>
     </g>
     <g id="text_14">
      <!-- 70 -->
      <g style="fill: #262626" transform="translate(22.81375 57.789123) scale(0.11 -0.11)">
       <defs>
        <path id="DejaVuSans-37" d="M 525 4666 
L 3525 4666 
L 3525 4397 
L 1831 0 
L 1172 0 
L 2766 4134 
L 525 4134 
L 525 4666 
z
" transform="scale(0.015625)"/>
       </defs>
       <use xlink:href="#DejaVuSans-37"/>
       <use xlink:href="#DejaVuSans-30" x="63.623047"/>
      </g>
     </g>
    </g>
    <g id="ytick_8">
     <g id="line2d_14">
      <path d="M 46.31125 21.312505 
L 403.43125 21.312505 
" clip-path="url(#p901e59412f)" style="fill: none; stroke: #cccccc; stroke-linecap: round"/>
     </g>
     <g id="text_15">
      <!-- 80 -->
      <g style="fill: #262626" transform="translate(22.81375 25.491646) scale(0.11 -0.11)">
       <use xlink:href="#DejaVuSans-38"/>
       <use xlink:href="#DejaVuSans-30" x="63.623047"/>
      </g>
     </g>
    </g>
    <g id="text_16">
     <!-- Accuracy (%) -->
     <g style="fill: #262626" transform="translate(16.318125 179.939437) rotate(-90) scale(0.12 -0.12)">
      <defs>
       <path id="DejaVuSans-41" d="M 2188 4044 
L 1331 1722 
L 3047 1722 
L 2188 4044 
z
M 1831 4666 
L 2547 4666 
L 4325 0 
L 3669 0 
L 3244 1197 
L 1141 1197 
L 716 0 
L 50 0 
L 1831 4666 
z
" transform="scale(0.015625)"/>
       <path id="DejaVuSans-63" d="M 3122 3366 
L 3122 2828 
Q 2878 2963 2633 3030 
Q 2388 3097 2138 3097 
Q 1578 3097 1268 2742 
Q 959 2388 959 1747 
Q 959 1106 1268 751 
Q 1578 397 2138 397 
Q 2388 397 2633 464 
Q 2878 531 3122 666 
L 3122 134 
Q 2881 22 2623 -34 
Q 2366 -91 2075 -91 
Q 1284 -91 818 406 
Q 353 903 353 1747 
Q 353 2603 823 3093 
Q 1294 3584 2113 3584 
Q 2378 3584 2631 3529 
Q 2884 3475 3122 3366 
z
" transform="scale(0.015625)"/>
       <path id="DejaVuSans-72" d="M 2631 2963 
Q 2534 3019 2420 3045 
Q 2306 3072 2169 3072 
Q 1681 3072 1420 2755 
Q 1159 2438 1159 1844 
L 1159 0 
L 581 0 
L 581 3500 
L 1159 3500 
L 1159 2956 
Q 1341 3275 1631 3429 
Q 1922 3584 2338 3584 
Q 2397 3584 2469 3576 
Q 2541 3569 2628 3553 
L 2631 2963 
z
" transform="scale(0.015625)"/>
       <path id="DejaVuSans-61" d="M 2194 1759 
Q 1497 1759 1228 1600 
Q 959 1441 959 1056 
Q 959 750 1161 570 
Q 1363 391 1709 391 
Q 2188 391 2477 730 
Q 2766 1069 2766 1631 
L 2766 1759 
L 2194 1759 
z
M 3341 1997 
L 3341 0 
L 2766 0 
L 2766 531 
Q 2569 213 2275 61 
Q 1981 -91 1556 -91 
Q 1019 -91 701 211 
Q 384 513 384 1019 
Q 384 1609 779 1909 
Q 1175 2209 1959 2209 
L 2766 2209 
L 2766 2266 
Q 2766 2663 2505 2880 
Q 2244 3097 1772 3097 
Q 1472 3097 1187 3025 
Q 903 2953 641 2809 
L 641 3341 
Q 956 3463 1253 3523 
Q 1550 3584 1831 3584 
Q 2591 3584 2966 3190 
Q 3341 2797 3341 1997 
z
" transform="scale(0.015625)"/>
       <path id="DejaVuSans-79" d="M 2059 -325 
Q 1816 -950 1584 -1140 
Q 1353 -1331 966 -1331 
L 506 -1331 
L 506 -850 
L 844 -850 
Q 1081 -850 1212 -737 
Q 1344 -625 1503 -206 
L 1606 56 
L 191 3500 
L 800 3500 
L 1894 763 
L 2988 3500 
L 3597 3500 
L 2059 -325 
z
" transform="scale(0.015625)"/>
       <path id="DejaVuSans-20" transform="scale(0.015625)"/>
       <path id="DejaVuSans-28" d="M 1984 4856 
Q 1566 4138 1362 3434 
Q 1159 2731 1159 2009 
Q 1159 1288 1364 580 
Q 1569 -128 1984 -844 
L 1484 -844 
Q 1016 -109 783 600 
Q 550 1309 550 2009 
Q 550 2706 781 3412 
Q 1013 4119 1484 4856 
L 1984 4856 
z
" transform="scale(0.015625)"/>
       <path id="DejaVuSans-25" d="M 4653 2053 
Q 4381 2053 4226 1822 
Q 4072 1591 4072 1178 
Q 4072 772 4226 539 
Q 4381 306 4653 306 
Q 4919 306 5073 539 
Q 5228 772 5228 1178 
Q 5228 1588 5073 1820 
Q 4919 2053 4653 2053 
z
M 4653 2450 
Q 5147 2450 5437 2106 
Q 5728 1763 5728 1178 
Q 5728 594 5436 251 
Q 5144 -91 4653 -91 
Q 4153 -91 3862 251 
Q 3572 594 3572 1178 
Q 3572 1766 3864 2108 
Q 4156 2450 4653 2450 
z
M 1428 4353 
Q 1159 4353 1004 4120 
Q 850 3888 850 3481 
Q 850 3069 1003 2837 
Q 1156 2606 1428 2606 
Q 1700 2606 1854 2837 
Q 2009 3069 2009 3481 
Q 2009 3884 1853 4118 
Q 1697 4353 1428 4353 
z
M 4250 4750 
L 4750 4750 
L 1831 -91 
L 1331 -91 
L 4250 4750 
z
M 1428 4750 
Q 1922 4750 2215 4408 
Q 2509 4066 2509 3481 
Q 2509 2891 2217 2550 
Q 1925 2209 1428 2209 
Q 931 2209 642 2551 
Q 353 2894 353 3481 
Q 353 4063 643 4406 
Q 934 4750 1428 4750 
z
" transform="scale(0.015625)"/>
       <path id="DejaVuSans-29" d="M 513 4856 
L 1013 4856 
Q 1481 4119 1714 3412 
Q 1947 2706 1947 2009 
Q 1947 1309 1714 600 
Q 1481 -109 1013 -844 
L 513 -844 
Q 928 -128 1133 580 
Q 1338 1288 1338 2009 
Q 1338 2731 1133 3434 
Q 928 4138 513 4856 
z
" transform="scale(0.015625)"/>
      </defs>
      <use xlink:href="#DejaVuSans-41"/>
      <use xlink:href="#DejaVuSans-63" x="66.658203"/>
      <use xlink:href="#DejaVuSans-63" x="121.638672"/>
      <use xlink:href="#DejaVuSans-75" x="176.619141"/>
      <use xlink:href="#DejaVuSans-72" x="239.998047"/>
      <use xlink:href="#DejaVuSans-61" x="281.111328"/>
      <use xlink:href="#DejaVuSans-63" x="342.390625"/>
      <use xlink:href="#DejaVuSans-79" x="397.371094"/>
      <use xlink:href="#DejaVuSans-20" x="456.550781"/>
      <use xlink:href="#DejaVuSans-28" x="488.337891"/>
      <use xlink:href="#DejaVuSans-25" x="527.351562"/>
      <use xlink:href="#DejaVuSans-29" x="622.371094"/>
     </g>
    </g>
   </g>
   <g id="PolyCollection_1">
    <defs>
     <path id="m762ceed3f8" d="M 62.543977 -126.659201 
L 62.543977 -82.807802 
L 65.823316 -100.26232 
L 69.102655 -121.68431 
L 72.381994 -122.243718 
L 75.661333 -166.750847 
L 78.940671 -175.70682 
L 82.22001 -168.824748 
L 85.499349 -176.427073 
L 88.778688 -176.651147 
L 92.058027 -204.378417 
L 95.337366 -201.215901 
L 98.616705 -177.248 
L 101.896043 -193.413309 
L 105.175382 -214.237042 
L 108.454721 -215.250213 
L 111.73406 -215.996183 
L 115.013399 -226.675495 
L 118.292738 -229.649151 
L 121.572076 -219.871164 
L 124.851415 -224.380273 
L 128.130754 -226.957779 
L 131.410093 -227.514376 
L 134.689432 -218.240758 
L 137.968771 -233.586448 
L 141.24811 -244.407396 
L 144.527448 -237.019934 
L 147.806787 -244.798573 
L 151.086126 -240.331039 
L 154.365465 -232.576837 
L 157.644804 -238.468347 
L 160.924143 -239.188367 
L 164.203481 -237.017839 
L 167.48282 -252.246929 
L 170.762159 -250.452099 
L 174.041498 -248.446492 
L 177.320837 -250.358479 
L 180.600176 -243.51458 
L 183.879514 -244.329831 
L 187.158853 -252.634476 
L 190.438192 -251.205985 
L 193.717531 -255.65324 
L 196.99687 -255.537312 
L 200.276209 -251.181823 
L 203.555548 -253.03679 
L 206.834886 -250.130112 
L 210.114225 -248.640188 
L 213.393564 -253.368703 
L 216.672903 -257.891978 
L 219.952242 -255.394422 
L 223.231581 -253.840875 
L 226.510919 -259.244077 
L 229.790258 -265.099309 
L 233.069597 -261.304053 
L 236.348936 -264.942885 
L 239.628275 -261.577497 
L 242.907614 -263.635827 
L 246.186952 -265.352232 
L 249.466291 -260.666381 
L 252.74563 -265.260768 
L 256.024969 -261.867913 
L 259.304308 -265.173227 
L 262.583647 -266.356041 
L 265.862986 -272.353348 
L 269.142324 -272.566066 
L 272.421663 -269.14724 
L 275.701002 -270.308541 
L 278.980341 -268.024018 
L 282.25968 -268.024231 
L 285.539019 -261.157239 
L 288.818357 -245.894935 
L 292.097696 -253.01878 
L 295.377035 -237.615317 
L 298.656374 -248.729328 
L 301.935713 -249.479604 
L 305.215052 -252.910127 
L 308.49439 -250.648473 
L 311.773729 -243.806846 
L 315.053068 -247.109735 
L 318.332407 -247.050567 
L 321.611746 -246.74872 
L 324.891085 -250.575425 
L 328.170424 -251.155107 
L 331.449762 -252.540264 
L 334.729101 -245.513467 
L 338.00844 -251.458701 
L 341.287779 -248.656844 
L 344.567118 -244.593661 
L 347.846457 -245.630245 
L 351.125795 -247.862009 
L 354.405134 -250.007315 
L 357.684473 -245.777574 
L 360.963812 -248.48037 
L 364.243151 -247.8009 
L 367.52249 -246.414332 
L 370.801829 -239.823725 
L 374.081167 -247.939186 
L 377.360506 -252.21651 
L 380.639845 -243.547521 
L 383.919184 -242.279208 
L 387.198523 -242.135372 
L 387.198523 -279.5444 
L 387.198523 -279.5444 
L 383.919184 -278.390378 
L 380.639845 -280.712796 
L 377.360506 -288.415117 
L 374.081167 -284.757959 
L 370.801829 -280.537871 
L 367.52249 -283.642218 
L 364.243151 -283.664917 
L 360.963812 -283.755213 
L 357.684473 -282.717701 
L 354.405134 -284.621412 
L 351.125795 -282.493234 
L 347.846457 -282.568806 
L 344.567118 -280.667847 
L 341.287779 -282.629461 
L 338.00844 -284.590074 
L 334.729101 -281.956413 
L 331.449762 -283.737312 
L 328.170424 -284.397494 
L 324.891085 -282.736842 
L 321.611746 -280.769051 
L 318.332407 -281.638344 
L 315.053068 -281.018149 
L 311.773729 -277.386938 
L 308.49439 -283.076938 
L 305.215052 -282.67118 
L 301.935713 -282.567826 
L 298.656374 -281.314676 
L 295.377035 -274.269606 
L 292.097696 -284.46885 
L 288.818357 -278.465888 
L 285.539019 -290.603598 
L 282.25968 -296.01754 
L 278.980341 -294.737444 
L 275.701002 -294.053412 
L 272.421663 -295.874095 
L 269.142324 -296.894149 
L 265.862986 -296.975687 
L 262.583647 -293.310247 
L 259.304308 -293.311231 
L 256.024969 -291.047349 
L 252.74563 -290.449436 
L 249.466291 -287.768347 
L 246.186952 -292.685069 
L 242.907614 -290.708713 
L 239.628275 -290.622472 
L 236.348936 -291.380649 
L 233.069597 -287.469169 
L 229.790258 -289.335636 
L 226.510919 -289.320047 
L 223.231581 -286.283131 
L 219.952242 -284.674998 
L 216.672903 -286.118937 
L 213.393564 -280.857649 
L 210.114225 -278.755106 
L 206.834886 -281.200245 
L 203.555548 -283.365461 
L 200.276209 -280.607917 
L 196.99687 -280.887949 
L 193.717531 -282.100162 
L 190.438192 -282.924042 
L 187.158853 -277.913037 
L 183.879514 -272.518111 
L 180.600176 -275.938253 
L 177.320837 -276.51991 
L 174.041498 -280.251849 
L 170.762159 -280.86147 
L 167.48282 -281.242848 
L 164.203481 -272.203422 
L 160.924143 -271.508573 
L 157.644804 -269.993445 
L 154.365465 -269.836983 
L 151.086126 -269.561519 
L 147.806787 -275.041562 
L 144.527448 -269.974825 
L 141.24811 -272.999227 
L 137.968771 -265.268194 
L 134.689432 -259.47778 
L 131.410093 -265.908422 
L 128.130754 -262.14593 
L 124.851415 -262.479892 
L 121.572076 -258.344138 
L 118.292738 -263.352133 
L 115.013399 -259.350903 
L 111.73406 -253.004333 
L 108.454721 -254.587294 
L 105.175382 -251.735226 
L 101.896043 -235.665315 
L 98.616705 -223.517067 
L 95.337366 -240.251513 
L 92.058027 -243.163351 
L 88.778688 -222.438605 
L 85.499349 -222.171509 
L 82.22001 -217.009308 
L 78.940671 -222.96984 
L 75.661333 -205.745813 
L 72.381994 -180.735587 
L 69.102655 -177.720403 
L 65.823316 -151.730306 
L 62.543977 -126.659201 
z
" style="stroke: #4c72b0; stroke-opacity: 0.2"/>
    </defs>
    <g clip-path="url(#p901e59412f)">
     <use xlink:href="#m762ceed3f8" x="0" y="316.271687" style="fill: #4c72b0; fill-opacity: 0.2; stroke: #4c72b0; stroke-opacity: 0.2"/>
    </g>
   </g>
   <g id="PolyCollection_2">
    <defs>
     <path id="m75a87876f9" d="M 62.543977 -107.138359 
L 62.543977 -71.011402 
L 65.823316 -55.055688 
L 69.102655 -65.482568 
L 72.381994 -66.605055 
L 75.661333 -76.822287 
L 78.940671 -75.931607 
L 82.22001 -76.753615 
L 85.499349 -76.643766 
L 88.778688 -94.423487 
L 92.058027 -118.344488 
L 95.337366 -108.067618 
L 98.616705 -79.585239 
L 101.896043 -101.690218 
L 105.175382 -113.454794 
L 108.454721 -132.574226 
L 111.73406 -107.425244 
L 115.013399 -115.008773 
L 118.292738 -131.382533 
L 121.572076 -134.771 
L 124.851415 -130.044173 
L 128.130754 -115.005421 
L 131.410093 -137.891397 
L 134.689432 -129.799009 
L 137.968771 -131.438138 
L 141.24811 -153.031762 
L 144.527448 -152.560658 
L 147.806787 -130.989035 
L 151.086126 -134.606465 
L 154.365465 -135.282919 
L 157.644804 -112.4131 
L 160.924143 -147.316368 
L 164.203481 -132.737231 
L 167.48282 -145.64627 
L 170.762159 -129.525604 
L 174.041498 -127.007548 
L 177.320837 -135.881889 
L 180.600176 -137.341215 
L 183.879514 -98.204023 
L 187.158853 -144.356895 
L 190.438192 -158.507042 
L 193.717531 -134.613153 
L 196.99687 -164.700312 
L 200.276209 -156.308613 
L 203.555548 -158.348684 
L 206.834886 -145.568751 
L 210.114225 -149.658487 
L 213.393564 -145.142018 
L 216.672903 -178.782623 
L 219.952242 -151.306656 
L 223.231581 -120.653014 
L 226.510919 -149.78264 
L 229.790258 -168.354612 
L 233.069597 -168.329527 
L 236.348936 -177.246472 
L 239.628275 -158.776033 
L 242.907614 -158.079304 
L 246.186952 -178.030768 
L 249.466291 -158.932133 
L 252.74563 -135.93268 
L 256.024969 -170.229984 
L 259.304308 -142.974889 
L 262.583647 -160.670361 
L 265.862986 -180.125582 
L 269.142324 -168.214473 
L 272.421663 -161.160215 
L 275.701002 -169.609551 
L 278.980341 -169.64392 
L 282.25968 -166.343532 
L 285.539019 -165.118772 
L 288.818357 -185.598677 
L 292.097696 -162.910186 
L 295.377035 -162.773751 
L 298.656374 -183.081449 
L 301.935713 -178.96824 
L 305.215052 -201.266832 
L 308.49439 -176.48215 
L 311.773729 -145.862072 
L 315.053068 -186.931589 
L 318.332407 -205.749221 
L 321.611746 -169.697255 
L 324.891085 -164.244449 
L 328.170424 -182.411295 
L 331.449762 -167.775843 
L 334.729101 -175.117546 
L 338.00844 -153.406203 
L 341.287779 -187.355721 
L 344.567118 -162.72385 
L 347.846457 -115.301207 
L 351.125795 -190.275437 
L 354.405134 -187.889905 
L 357.684473 -170.704218 
L 360.963812 -186.325148 
L 364.243151 -179.803653 
L 367.52249 -182.006145 
L 370.801829 -183.188799 
L 374.081167 -176.789986 
L 377.360506 -177.209524 
L 380.639845 -180.821443 
L 383.919184 -188.02959 
L 387.198523 -188.949629 
L 387.198523 -217.765909 
L 387.198523 -217.765909 
L 383.919184 -212.114037 
L 380.639845 -207.526508 
L 377.360506 -205.502168 
L 374.081167 -206.782774 
L 370.801829 -213.823643 
L 367.52249 -210.556531 
L 364.243151 -205.153145 
L 360.963812 -217.976937 
L 357.684473 -202.785231 
L 354.405134 -214.099601 
L 351.125795 -223.148802 
L 347.846457 -152.495923 
L 344.567118 -191.370473 
L 341.287779 -213.36786 
L 338.00844 -186.338315 
L 334.729101 -206.286961 
L 331.449762 -200.456058 
L 328.170424 -211.997706 
L 324.891085 -194.982747 
L 321.611746 -195.313214 
L 318.332407 -225.724896 
L 315.053068 -217.311822 
L 311.773729 -178.79584 
L 308.49439 -206.193629 
L 305.215052 -217.325642 
L 301.935713 -203.81092 
L 298.656374 -212.710707 
L 295.377035 -195.03517 
L 292.097696 -193.588916 
L 288.818357 -209.002416 
L 285.539019 -203.872436 
L 282.25968 -204.995862 
L 278.980341 -212.69892 
L 275.701002 -204.451069 
L 272.421663 -198.984888 
L 269.142324 -206.891149 
L 265.862986 -208.052587 
L 262.583647 -197.636514 
L 259.304308 -189.571592 
L 256.024969 -203.669155 
L 252.74563 -177.452641 
L 249.466291 -197.360903 
L 246.186952 -212.989867 
L 242.907614 -197.168839 
L 239.628275 -200.350628 
L 236.348936 -210.659758 
L 233.069597 -199.151519 
L 229.790258 -198.567961 
L 226.510919 -187.316959 
L 223.231581 -169.708357 
L 219.952242 -183.539466 
L 216.672903 -203.908163 
L 213.393564 -188.82184 
L 210.114225 -187.2798 
L 206.834886 -180.043645 
L 203.555548 -193.904582 
L 200.276209 -191.229393 
L 196.99687 -189.959487 
L 193.717531 -167.330514 
L 190.438192 -189.711033 
L 187.158853 -184.214054 
L 183.879514 -143.425407 
L 180.600176 -169.926652 
L 177.320837 -176.593125 
L 174.041498 -173.672849 
L 170.762159 -165.613327 
L 167.48282 -179.250455 
L 164.203481 -179.689164 
L 160.924143 -177.484952 
L 157.644804 -160.710476 
L 154.365465 -174.987315 
L 151.086126 -170.681298 
L 147.806787 -176.723771 
L 144.527448 -180.867161 
L 141.24811 -182.226535 
L 137.968771 -169.602166 
L 134.689432 -168.884583 
L 131.410093 -169.858457 
L 128.130754 -156.315718 
L 124.851415 -161.412553 
L 121.572076 -168.554252 
L 118.292738 -162.509597 
L 115.013399 -152.034956 
L 111.73406 -148.475137 
L 108.454721 -165.007776 
L 105.175382 -144.09664 
L 101.896043 -143.267606 
L 98.616705 -127.191042 
L 95.337366 -140.571518 
L 92.058027 -152.981679 
L 88.778688 -143.896045 
L 85.499349 -113.994818 
L 82.22001 -116.957074 
L 78.940671 -107.321672 
L 75.661333 -118.728482 
L 72.381994 -111.542808 
L 69.102655 -89.989029 
L 65.823316 -98.947729 
L 62.543977 -107.138359 
z
" style="stroke: #dd8452; stroke-opacity: 0.2"/>
    </defs>
    <g clip-path="url(#p901e59412f)">
     <use xlink:href="#m75a87876f9" x="0" y="316.271687" style="fill: #dd8452; fill-opacity: 0.2; stroke: #dd8452; stroke-opacity: 0.2"/>
    </g>
   </g>
   <g id="PolyCollection_3">
    <defs>
     <path id="mbdeb56768f" d="M 62.543977 -125.597328 
L 62.543977 -77.981516 
L 65.823316 -108.951657 
L 69.102655 -125.237592 
L 72.381994 -124.142685 
L 75.661333 -149.58352 
L 78.940671 -155.297854 
L 82.22001 -162.169212 
L 85.499349 -169.290623 
L 88.778688 -175.594854 
L 92.058027 -179.586376 
L 95.337366 -179.278641 
L 98.616705 -175.349021 
L 101.896043 -179.551067 
L 105.175382 -185.29324 
L 108.454721 -190.688907 
L 111.73406 -190.958731 
L 115.013399 -191.804078 
L 118.292738 -190.201141 
L 121.572076 -188.51405 
L 124.851415 -189.710433 
L 128.130754 -189.90293 
L 131.410093 -190.415395 
L 134.689432 -189.357585 
L 137.968771 -194.196271 
L 141.24811 -190.220721 
L 144.527448 -186.236131 
L 147.806787 -188.051806 
L 151.086126 -189.546747 
L 154.365465 -190.533902 
L 157.644804 -195.437101 
L 160.924143 -204.115307 
L 164.203481 -208.263477 
L 167.48282 -208.016423 
L 170.762159 -205.374143 
L 174.041498 -206.424883 
L 177.320837 -207.961786 
L 180.600176 -207.81543 
L 183.879514 -213.598769 
L 187.158853 -215.234021 
L 190.438192 -214.642964 
L 193.717531 -215.957477 
L 196.99687 -217.649391 
L 200.276209 -218.410503 
L 203.555548 -218.995616 
L 206.834886 -220.430334 
L 210.114225 -219.367156 
L 213.393564 -216.722834 
L 216.672903 -221.712446 
L 219.952242 -223.187323 
L 223.231581 -224.882364 
L 226.510919 -223.187017 
L 229.790258 -222.086942 
L 233.069597 -223.590293 
L 236.348936 -223.423767 
L 239.628275 -227.998415 
L 242.907614 -229.219349 
L 246.186952 -231.980276 
L 249.466291 -229.515999 
L 252.74563 -225.637046 
L 256.024969 -226.130779 
L 259.304308 -226.279397 
L 262.583647 -227.474323 
L 265.862986 -230.456517 
L 269.142324 -233.536182 
L 272.421663 -233.684024 
L 275.701002 -232.18482 
L 278.980341 -236.491983 
L 282.25968 -239.010362 
L 285.539019 -235.248853 
L 288.818357 -214.331099 
L 292.097696 -214.965305 
L 295.377035 -215.648951 
L 298.656374 -215.50154 
L 301.935713 -213.890637 
L 305.215052 -213.116572 
L 308.49439 -214.593264 
L 311.773729 -214.997372 
L 315.053068 -214.179702 
L 318.332407 -211.583139 
L 321.611746 -206.680145 
L 324.891085 -207.611699 
L 328.170424 -211.730582 
L 331.449762 -213.63882 
L 334.729101 -214.94382 
L 338.00844 -212.685124 
L 341.287779 -214.8622 
L 344.567118 -214.38987 
L 347.846457 -218.143986 
L 351.125795 -217.903113 
L 354.405134 -218.95837 
L 357.684473 -219.309424 
L 360.963812 -220.181286 
L 364.243151 -219.386379 
L 367.52249 -218.245203 
L 370.801829 -218.351603 
L 374.081167 -221.149755 
L 377.360506 -217.168054 
L 380.639845 -219.127971 
L 383.919184 -217.383409 
L 387.198523 -217.978236 
L 387.198523 -257.000816 
L 387.198523 -257.000816 
L 383.919184 -256.137914 
L 380.639845 -258.384573 
L 377.360506 -257.979392 
L 374.081167 -261.10674 
L 370.801829 -258.56776 
L 367.52249 -258.603046 
L 364.243151 -260.703968 
L 360.963812 -258.514996 
L 357.684473 -259.132036 
L 354.405134 -258.35838 
L 351.125795 -258.508591 
L 347.846457 -257.188066 
L 344.567118 -253.677951 
L 341.287779 -253.815011 
L 338.00844 -254.3156 
L 334.729101 -253.600154 
L 331.449762 -251.230123 
L 328.170424 -249.312095 
L 324.891085 -247.6304 
L 321.611746 -246.784793 
L 318.332407 -252.485362 
L 315.053068 -254.868683 
L 311.773729 -252.853245 
L 308.49439 -252.856116 
L 305.215052 -252.229509 
L 301.935713 -256.019475 
L 298.656374 -255.496114 
L 295.377035 -254.589224 
L 292.097696 -255.48454 
L 288.818357 -252.225183 
L 285.539019 -270.64506 
L 282.25968 -274.086731 
L 278.980341 -272.553577 
L 275.701002 -270.096484 
L 272.421663 -269.918417 
L 269.142324 -269.472185 
L 265.862986 -268.602172 
L 262.583647 -265.790871 
L 259.304308 -263.392089 
L 256.024969 -263.77506 
L 252.74563 -266.149437 
L 249.466291 -267.926905 
L 246.186952 -267.662514 
L 242.907614 -267.20201 
L 239.628275 -264.094321 
L 236.348936 -258.948492 
L 233.069597 -260.409197 
L 229.790258 -260.386276 
L 226.510919 -263.252261 
L 223.231581 -262.855919 
L 219.952242 -261.580968 
L 216.672903 -262.476901 
L 213.393564 -257.158959 
L 210.114225 -258.695559 
L 206.834886 -259.670732 
L 203.555548 -258.731322 
L 200.276209 -258.951646 
L 196.99687 -257.682774 
L 193.717531 -256.967486 
L 190.438192 -254.506541 
L 187.158853 -255.258924 
L 183.879514 -253.155133 
L 180.600176 -247.985187 
L 177.320837 -249.893729 
L 174.041498 -248.464007 
L 170.762159 -246.145534 
L 167.48282 -250.652424 
L 164.203481 -249.003004 
L 160.924143 -246.157769 
L 157.644804 -237.138306 
L 154.365465 -231.646873 
L 151.086126 -233.394368 
L 147.806787 -229.85319 
L 144.527448 -228.611704 
L 141.24811 -233.965028 
L 137.968771 -237.600036 
L 134.689432 -235.71683 
L 131.410093 -231.634373 
L 128.130754 -234.429285 
L 124.851415 -234.014242 
L 121.572076 -231.89028 
L 118.292738 -234.794031 
L 115.013399 -234.489102 
L 111.73406 -236.060206 
L 108.454721 -233.305594 
L 105.175382 -229.091825 
L 101.896043 -225.848091 
L 98.616705 -217.937929 
L 95.337366 -223.595529 
L 92.058027 -222.19597 
L 88.778688 -216.321085 
L 85.499349 -216.361009 
L 82.22001 -207.312707 
L 78.940671 -201.565648 
L 75.661333 -196.069974 
L 72.381994 -176.562635 
L 69.102655 -177.826882 
L 65.823316 -160.65761 
L 62.543977 -125.597328 
z
" style="stroke: #55a868; stroke-opacity: 0.2"/>
    </defs>
    <g clip-path="url(#p901e59412f)">
     <use xlink:href="#mbdeb56768f" x="0" y="316.271687" style="fill: #55a868; fill-opacity: 0.2; stroke: #55a868; stroke-opacity: 0.2"/>
    </g>
   </g>
   <g id="PolyCollection_4">
    <defs>
     <path id="meb652bfb61" d="M 62.543977 -102.979064 
L 62.543977 -64.759353 
L 65.823316 -87.403486 
L 69.102655 -96.33434 
L 72.381994 -121.804102 
L 75.661333 -122.265442 
L 78.940671 -128.676532 
L 82.22001 -141.656949 
L 85.499349 -144.030465 
L 88.778688 -155.056852 
L 92.058027 -155.86214 
L 95.337366 -151.403635 
L 98.616705 -155.047354 
L 101.896043 -159.607406 
L 105.175382 -158.558521 
L 108.454721 -154.74332 
L 111.73406 -157.022512 
L 115.013399 -163.030453 
L 118.292738 -168.33022 
L 121.572076 -169.60102 
L 124.851415 -169.979233 
L 128.130754 -182.477546 
L 131.410093 -185.885179 
L 134.689432 -183.285841 
L 137.968771 -193.443052 
L 141.24811 -190.052603 
L 144.527448 -192.939404 
L 147.806787 -195.784136 
L 151.086126 -197.913385 
L 154.365465 -199.501114 
L 157.644804 -200.6316 
L 160.924143 -203.972251 
L 164.203481 -204.244639 
L 167.48282 -210.910821 
L 170.762159 -213.638192 
L 174.041498 -215.248369 
L 177.320837 -215.369605 
L 180.600176 -214.140541 
L 183.879514 -214.200995 
L 187.158853 -218.567828 
L 190.438192 -220.493807 
L 193.717531 -221.892455 
L 196.99687 -224.573283 
L 200.276209 -229.383761 
L 203.555548 -232.743608 
L 206.834886 -234.724399 
L 210.114225 -235.459263 
L 213.393564 -236.332013 
L 216.672903 -234.15668 
L 219.952242 -235.234549 
L 223.231581 -236.731655 
L 226.510919 -237.798543 
L 229.790258 -239.576047 
L 233.069597 -240.297254 
L 236.348936 -239.138572 
L 239.628275 -240.221808 
L 242.907614 -242.08364 
L 246.186952 -244.801722 
L 249.466291 -244.744733 
L 252.74563 -245.507076 
L 256.024969 -245.026596 
L 259.304308 -245.254749 
L 262.583647 -248.22509 
L 265.862986 -246.0855 
L 269.142324 -248.480557 
L 272.421663 -248.129009 
L 275.701002 -248.849627 
L 278.980341 -247.852268 
L 282.25968 -249.121222 
L 285.539019 -250.921284 
L 288.818357 -224.333413 
L 292.097696 -224.48273 
L 295.377035 -223.165248 
L 298.656374 -222.240468 
L 301.935713 -224.18799 
L 305.215052 -225.869825 
L 308.49439 -224.865551 
L 311.773729 -224.45829 
L 315.053068 -226.977391 
L 318.332407 -225.856665 
L 321.611746 -225.512449 
L 324.891085 -225.922684 
L 328.170424 -226.14186 
L 331.449762 -224.59213 
L 334.729101 -227.230388 
L 338.00844 -226.036753 
L 341.287779 -226.368664 
L 344.567118 -228.183833 
L 347.846457 -228.796888 
L 351.125795 -227.698979 
L 354.405134 -227.202978 
L 357.684473 -228.853727 
L 360.963812 -227.842961 
L 364.243151 -227.861879 
L 367.52249 -229.701213 
L 370.801829 -228.976218 
L 374.081167 -226.809431 
L 377.360506 -226.996256 
L 380.639845 -228.206338 
L 383.919184 -231.256675 
L 387.198523 -231.106406 
L 387.198523 -269.904468 
L 387.198523 -269.904468 
L 383.919184 -271.638079 
L 380.639845 -268.34652 
L 377.360506 -268.543809 
L 374.081167 -266.56569 
L 370.801829 -268.012977 
L 367.52249 -270.27698 
L 364.243151 -269.031165 
L 360.963812 -268.691253 
L 357.684473 -269.505806 
L 354.405134 -268.63611 
L 351.125795 -268.793517 
L 347.846457 -266.272822 
L 344.567118 -267.184104 
L 341.287779 -266.581239 
L 338.00844 -267.633614 
L 334.729101 -266.616071 
L 331.449762 -265.852697 
L 328.170424 -267.046397 
L 324.891085 -266.225093 
L 321.611746 -264.5302 
L 318.332407 -263.227038 
L 315.053068 -265.669072 
L 311.773729 -265.339334 
L 308.49439 -264.361459 
L 305.215052 -263.150782 
L 301.935713 -263.308674 
L 298.656374 -263.389082 
L 295.377035 -263.704672 
L 292.097696 -261.859224 
L 288.818357 -263.279159 
L 285.539019 -281.460517 
L 282.25968 -280.43306 
L 278.980341 -278.937609 
L 275.701002 -277.365772 
L 272.421663 -277.277346 
L 269.142324 -278.883547 
L 265.862986 -278.118121 
L 262.583647 -277.428562 
L 259.304308 -276.09743 
L 256.024969 -274.832867 
L 252.74563 -276.44528 
L 249.466291 -274.959278 
L 246.186952 -275.8338 
L 242.907614 -273.75853 
L 239.628275 -271.148078 
L 236.348936 -270.521063 
L 233.069597 -270.611372 
L 229.790258 -269.600307 
L 226.510919 -269.071928 
L 223.231581 -266.050747 
L 219.952242 -266.163753 
L 216.672903 -263.828171 
L 213.393564 -267.512035 
L 210.114225 -267.436904 
L 206.834886 -266.854358 
L 203.555548 -266.093539 
L 200.276209 -266.652846 
L 196.99687 -259.716375 
L 193.717531 -258.813405 
L 190.438192 -258.641584 
L 187.158853 -257.38043 
L 183.879514 -253.146105 
L 180.600176 -250.193504 
L 177.320837 -252.291153 
L 174.041498 -251.903621 
L 170.762159 -250.5808 
L 167.48282 -248.728069 
L 164.203481 -242.855302 
L 160.924143 -241.371983 
L 157.644804 -239.109328 
L 154.365465 -238.948771 
L 151.086126 -237.102423 
L 147.806787 -235.455115 
L 144.527448 -235.454112 
L 141.24811 -232.104631 
L 137.968771 -232.364582 
L 134.689432 -231.021831 
L 131.410093 -229.235205 
L 128.130754 -223.599076 
L 124.851415 -212.76834 
L 121.572076 -211.878104 
L 118.292738 -210.797534 
L 115.013399 -204.791681 
L 111.73406 -200.970368 
L 108.454721 -201.018299 
L 105.175382 -201.048671 
L 101.896043 -201.587569 
L 98.616705 -199.066484 
L 95.337366 -194.327348 
L 92.058027 -198.495593 
L 88.778688 -201.124061 
L 85.499349 -191.809627 
L 82.22001 -194.436041 
L 78.940671 -177.130236 
L 75.661333 -175.047245 
L 72.381994 -179.341372 
L 69.102655 -148.281395 
L 65.823316 -137.227754 
L 62.543977 -102.979064 
z
" style="stroke: #c44e52; stroke-opacity: 0.2"/>
    </defs>
    <g clip-path="url(#p901e59412f)">
     <use xlink:href="#meb652bfb61" x="0" y="316.271687" style="fill: #c44e52; fill-opacity: 0.2; stroke: #c44e52; stroke-opacity: 0.2"/>
    </g>
   </g>
   <g id="PolyCollection_5">
    <defs>
     <path id="m4167f4521d" d="M 62.543977 -113.338394 
L 62.543977 -65.18438 
L 65.823316 -97.784972 
L 69.102655 -109.497919 
L 72.381994 -119.401782 
L 75.661333 -131.576106 
L 78.940671 -136.938937 
L 82.22001 -147.821285 
L 85.499349 -145.813644 
L 88.778688 -154.24139 
L 92.058027 -156.166894 
L 95.337366 -154.996425 
L 98.616705 -153.759971 
L 101.896043 -154.226999 
L 105.175382 -157.071731 
L 108.454721 -157.913103 
L 111.73406 -160.764057 
L 115.013399 -161.157221 
L 118.292738 -158.771452 
L 121.572076 -160.067907 
L 124.851415 -167.124204 
L 128.130754 -167.107988 
L 131.410093 -168.620499 
L 134.689432 -161.324737 
L 137.968771 -170.177428 
L 141.24811 -163.180362 
L 144.527448 -171.339233 
L 147.806787 -170.131055 
L 151.086126 -174.401128 
L 154.365465 -174.429968 
L 157.644804 -173.626625 
L 160.924143 -166.328937 
L 164.203481 -167.898943 
L 167.48282 -167.861858 
L 170.762159 -168.644153 
L 174.041498 -173.130794 
L 177.320837 -173.655623 
L 180.600176 -183.142815 
L 183.879514 -184.054038 
L 187.158853 -181.643236 
L 190.438192 -181.361799 
L 193.717531 -180.302666 
L 196.99687 -180.482138 
L 200.276209 -180.733084 
L 203.555548 -180.737089 
L 206.834886 -180.797555 
L 210.114225 -183.407229 
L 213.393564 -185.184013 
L 216.672903 -185.882565 
L 219.952242 -189.255128 
L 223.231581 -189.588368 
L 226.510919 -189.575187 
L 229.790258 -190.291912 
L 233.069597 -190.616796 
L 236.348936 -188.481876 
L 239.628275 -187.597674 
L 242.907614 -188.187974 
L 246.186952 -189.271822 
L 249.466291 -190.951079 
L 252.74563 -192.782475 
L 256.024969 -191.697004 
L 259.304308 -193.107386 
L 262.583647 -193.431091 
L 265.862986 -194.159356 
L 269.142324 -191.921843 
L 272.421663 -197.113258 
L 275.701002 -198.329223 
L 278.980341 -197.923427 
L 282.25968 -197.669612 
L 285.539019 -200.238829 
L 288.818357 -182.070994 
L 292.097696 -181.76626 
L 295.377035 -184.375865 
L 298.656374 -184.498204 
L 301.935713 -184.737352 
L 305.215052 -185.831453 
L 308.49439 -183.898566 
L 311.773729 -185.442188 
L 315.053068 -187.585649 
L 318.332407 -186.384543 
L 321.611746 -184.181464 
L 324.891085 -185.591121 
L 328.170424 -186.975922 
L 331.449762 -185.665266 
L 334.729101 -185.752181 
L 338.00844 -185.826812 
L 341.287779 -188.47186 
L 344.567118 -187.36746 
L 347.846457 -187.873956 
L 351.125795 -190.082382 
L 354.405134 -189.761409 
L 357.684473 -190.203276 
L 360.963812 -189.158164 
L 364.243151 -191.214578 
L 367.52249 -192.835678 
L 370.801829 -190.267128 
L 374.081167 -191.432337 
L 377.360506 -191.270327 
L 380.639845 -193.178254 
L 383.919184 -192.253329 
L 387.198523 -192.643866 
L 387.198523 -235.448299 
L 387.198523 -235.448299 
L 383.919184 -236.656655 
L 380.639845 -236.171686 
L 377.360506 -233.850728 
L 374.081167 -234.840025 
L 370.801829 -235.595787 
L 367.52249 -237.885947 
L 364.243151 -236.058204 
L 360.963812 -238.208749 
L 357.684473 -235.152906 
L 354.405134 -235.554404 
L 351.125795 -235.586927 
L 347.846457 -233.902537 
L 344.567118 -235.042492 
L 341.287779 -235.622174 
L 338.00844 -233.734474 
L 334.729101 -231.357703 
L 331.449762 -230.968086 
L 328.170424 -232.803104 
L 324.891085 -230.327994 
L 321.611746 -230.653621 
L 318.332407 -231.515344 
L 315.053068 -231.743087 
L 311.773729 -229.23281 
L 308.49439 -229.897234 
L 305.215052 -229.887565 
L 301.935713 -228.738789 
L 298.656374 -229.1195 
L 295.377035 -227.684839 
L 292.097696 -226.641365 
L 288.818357 -227.429655 
L 285.539019 -245.486339 
L 282.25968 -246.228678 
L 278.980341 -241.829919 
L 275.701002 -242.985937 
L 272.421663 -242.401991 
L 269.142324 -239.317378 
L 265.862986 -237.984634 
L 262.583647 -240.83989 
L 259.304308 -239.991028 
L 256.024969 -238.990651 
L 252.74563 -238.529158 
L 249.466291 -239.555103 
L 246.186952 -239.735064 
L 242.907614 -236.049683 
L 239.628275 -237.441841 
L 236.348936 -236.538856 
L 233.069597 -237.472024 
L 229.790258 -237.968092 
L 226.510919 -236.191617 
L 223.231581 -236.789994 
L 219.952242 -235.299953 
L 216.672903 -233.457257 
L 213.393564 -234.319941 
L 210.114225 -234.058746 
L 206.834886 -232.371908 
L 203.555548 -232.964675 
L 200.276209 -233.815238 
L 196.99687 -230.925377 
L 193.717531 -230.509631 
L 190.438192 -233.816156 
L 187.158853 -230.91108 
L 183.879514 -233.041434 
L 180.600176 -231.115774 
L 177.320837 -222.395277 
L 174.041498 -220.057827 
L 170.762159 -217.117919 
L 167.48282 -214.923915 
L 164.203481 -217.509947 
L 160.924143 -215.463077 
L 157.644804 -225.3576 
L 154.365465 -223.930828 
L 151.086126 -223.823138 
L 147.806787 -222.1185 
L 144.527448 -220.740092 
L 141.24811 -218.341416 
L 137.968771 -220.382747 
L 134.689432 -217.8714 
L 131.410093 -220.463464 
L 128.130754 -215.422056 
L 124.851415 -218.01904 
L 121.572076 -213.91562 
L 118.292738 -212.321942 
L 115.013399 -215.012805 
L 111.73406 -213.168296 
L 108.454721 -210.77959 
L 105.175382 -210.719494 
L 101.896043 -209.707703 
L 98.616705 -206.886957 
L 95.337366 -204.97171 
L 92.058027 -207.310258 
L 88.778688 -206.509255 
L 85.499349 -199.215656 
L 82.22001 -201.901803 
L 78.940671 -188.839055 
L 75.661333 -188.153034 
L 72.381994 -176.087201 
L 69.102655 -170.034582 
L 65.823316 -158.423356 
L 62.543977 -113.338394 
z
" style="stroke: #8172b3; stroke-opacity: 0.2"/>
    </defs>
    <g clip-path="url(#p901e59412f)">
     <use xlink:href="#m4167f4521d" x="0" y="316.271687" style="fill: #8172b3; fill-opacity: 0.2; stroke: #8172b3; stroke-opacity: 0.2"/>
    </g>
   </g>
   <g id="line2d_15">
    <path d="M 62.543977 212.713878 
L 65.823316 189.297072 
L 69.102655 167.584595 
L 72.381994 164.121705 
L 75.661333 129.977948 
L 78.940671 117.970226 
L 82.22001 123.108164 
L 85.499349 116.709065 
L 88.778688 117.099089 
L 92.058027 93.632794 
L 95.337366 95.278526 
L 98.616705 116.35107 
L 101.896043 101.725868 
L 105.175382 83.598116 
L 108.454721 81.157386 
L 111.73406 81.880831 
L 115.013399 73.241025 
L 118.292738 70.228409 
L 121.572076 77.424259 
L 124.851415 72.3584 
L 128.130754 71.904962 
L 131.410093 68.844333 
L 134.689432 76.552596 
L 137.968771 67.860081 
L 141.24811 57.166931 
L 144.527448 62.662808 
L 147.806787 56.364053 
L 151.086126 61.752794 
L 154.365465 66.230526 
L 157.644804 61.742376 
L 160.924143 60.665634 
L 164.203481 60.902023 
L 167.48282 50.135982 
L 170.762159 50.999719 
L 174.041498 51.962017 
L 177.320837 52.509229 
L 180.600176 56.32943 
L 183.879514 57.498986 
L 187.158853 51.304856 
L 190.438192 49.144699 
L 193.717531 47.123071 
L 196.99687 48.412451 
L 200.276209 50.644908 
L 203.555548 47.505261 
L 206.834886 51.027587 
L 210.114225 52.052976 
L 213.393564 48.069987 
L 216.672903 43.568004 
L 219.952242 46.258652 
L 223.231581 46.039518 
L 226.510919 42.466836 
L 229.790258 39.099639 
L 233.069597 41.660811 
L 236.348936 37.779318 
L 239.628275 40.61369 
L 242.907614 39.351615 
L 246.186952 36.90988 
L 249.466291 41.275566 
L 252.74563 37.916001 
L 256.024969 39.103801 
L 259.304308 37.761961 
L 262.583647 36.215253 
L 265.862986 31.678713 
L 269.142324 31.393074 
L 272.421663 33.689978 
L 275.701002 34.216473 
L 278.980341 35.232183 
L 282.25968 35.352338 
L 285.539019 39.592665 
L 288.818357 53.767788 
L 292.097696 47.421747 
L 295.377035 59.643112 
L 298.656374 51.36087 
L 301.935713 48.480445 
L 305.215052 48.683351 
L 308.49439 48.752513 
L 311.773729 55.295736 
L 315.053068 51.715231 
L 318.332407 50.579904 
L 321.611746 51.777985 
L 324.891085 49.506865 
L 328.170424 48.346165 
L 331.449762 47.535557 
L 334.729101 51.04542 
L 338.00844 48.084336 
L 341.287779 50.585298 
L 344.567118 53.466704 
L 347.846457 51.471192 
L 351.125795 51.081522 
L 354.405134 48.191867 
L 357.684473 51.567729 
L 360.963812 49.141652 
L 364.243151 50.498372 
L 367.52249 51.888126 
L 370.801829 55.938876 
L 374.081167 49.240702 
L 377.360506 45.052565 
L 380.639845 53.568073 
L 383.919184 55.335933 
L 387.198523 54.488008 
" clip-path="url(#p901e59412f)" style="fill: none; stroke: #4c72b0; stroke-width: 1.5; stroke-linecap: round"/>
   </g>
   <g id="line2d_16">
    <path d="M 62.543977 227.276662 
L 65.823316 239.24022 
L 69.102655 239.749902 
L 72.381994 227.733819 
L 75.661333 219.345205 
L 78.940671 225.672105 
L 82.22001 220.474159 
L 85.499349 222.306385 
L 88.778688 198.64828 
L 92.058027 180.163096 
L 95.337366 192.267056 
L 98.616705 215.030207 
L 101.896043 193.39851 
L 105.175382 187.531415 
L 108.454721 167.873306 
L 111.73406 189.027545 
L 115.013399 182.875918 
L 118.292738 169.199035 
L 121.572076 164.588016 
L 124.851415 169.750556 
L 128.130754 180.755976 
L 131.410093 162.448834 
L 134.689432 166.887025 
L 137.968771 166.647959 
L 141.24811 148.157902 
L 144.527448 149.306465 
L 147.806787 163.933817 
L 151.086126 164.477504 
L 154.365465 161.472962 
L 157.644804 181.745414 
L 160.924143 153.457346 
L 164.203481 160.855711 
L 167.48282 153.844473 
L 170.762159 168.821717 
L 174.041498 167.025747 
L 177.320837 161.522718 
L 180.600176 162.960869 
L 183.879514 197.144011 
L 187.158853 153.003825 
L 190.438192 142.909304 
L 193.717531 165.439645 
L 196.99687 139.130813 
L 200.276209 143.015544 
L 203.555548 140.173025 
L 206.834886 153.686031 
L 210.114225 146.54671 
L 213.393564 149.99979 
L 216.672903 125.178626 
L 219.952242 148.065199 
L 223.231581 171.76028 
L 226.510919 149.100749 
L 229.790258 133.479585 
L 233.069597 132.507099 
L 236.348936 122.142524 
L 239.628275 136.721495 
L 242.907614 139.228259 
L 246.186952 120.555251 
L 249.466291 139.401456 
L 252.74563 160.125409 
L 256.024969 128.738232 
L 259.304308 150.911308 
L 262.583647 136.881893 
L 265.862986 122.329638 
L 269.142324 128.89493 
L 272.421663 135.85882 
L 275.701002 129.318092 
L 278.980341 124.121926 
L 282.25968 129.929695 
L 285.539019 132.173955 
L 288.818357 118.124393 
L 292.097696 138.369504 
L 295.377035 137.578726 
L 298.656374 117.876354 
L 301.935713 124.722877 
L 305.215052 106.638828 
L 308.49439 124.45535 
L 311.773729 154.143379 
L 315.053068 112.986019 
L 318.332407 100.630471 
L 321.611746 134.453616 
L 324.891085 136.288623 
L 328.170424 119.14965 
L 331.449762 133.115015 
L 334.729101 125.305892 
L 338.00844 146.363801 
L 341.287779 116.192932 
L 344.567118 138.932223 
L 347.846457 182.90516 
L 351.125795 108.690073 
L 354.405134 115.522198 
L 357.684473 128.950604 
L 360.963812 113.787707 
L 364.243151 123.809033 
L 367.52249 120.408167 
L 370.801829 118.023101 
L 374.081167 124.226245 
L 377.360506 125.160463 
L 380.639845 122.336313 
L 383.919184 116.505243 
L 387.198523 113.368118 
" clip-path="url(#p901e59412f)" style="fill: none; stroke: #dd8452; stroke-width: 1.5; stroke-linecap: round"/>
   </g>
   <g id="line2d_17">
    <path d="M 62.543977 215.782544 
L 65.823316 182.459004 
L 69.102655 166.657971 
L 72.381994 165.875274 
L 75.661333 142.997513 
L 78.940671 137.642397 
L 82.22001 132.618709 
L 85.499349 125.122114 
L 88.778688 121.156566 
L 92.058027 117.304898 
L 95.337366 116.287416 
L 98.616705 121.004112 
L 101.896043 113.947104 
L 105.175382 108.997285 
L 108.454721 103.389253 
L 111.73406 104.561688 
L 115.013399 104.351496 
L 118.292738 104.277498 
L 121.572076 107.367278 
L 124.851415 104.724855 
L 128.130754 103.696088 
L 131.410093 105.424538 
L 134.689432 102.002787 
L 137.968771 101.615743 
L 141.24811 104.403467 
L 144.527448 108.95194 
L 147.806787 108.335694 
L 151.086126 105.593768 
L 154.365465 105.331383 
L 157.644804 100.803609 
L 160.924143 91.385997 
L 164.203481 86.644838 
L 167.48282 87.772426 
L 170.762159 91.063456 
L 174.041498 88.841048 
L 177.320837 87.480079 
L 180.600176 89.530618 
L 183.879514 82.492269 
L 187.158853 81.720082 
L 190.438192 81.351383 
L 193.717531 80.058681 
L 196.99687 78.289342 
L 200.276209 77.914664 
L 203.555548 77.26243 
L 206.834886 75.537219 
L 210.114225 77.543603 
L 213.393564 77.962169 
L 216.672903 73.419833 
L 219.952242 73.374589 
L 223.231581 73.126609 
L 226.510919 72.937152 
L 229.790258 74.329496 
L 233.069597 74.856601 
L 236.348936 74.956953 
L 239.628275 70.569516 
L 242.907614 66.720359 
L 246.186952 65.471932 
L 249.466291 69.048785 
L 252.74563 69.75227 
L 256.024969 70.806755 
L 259.304308 72.270514 
L 262.583647 69.030283 
L 265.862986 65.725107 
L 269.142324 64.700511 
L 272.421663 64.952367 
L 275.701002 64.028447 
L 278.980341 61.51658 
L 282.25968 59.204293 
L 285.539019 62.627908 
L 288.818357 83.097262 
L 292.097696 81.627921 
L 295.377035 81.972121 
L 298.656374 80.998559 
L 301.935713 80.091995 
L 305.215052 83.723794 
L 308.49439 82.341417 
L 311.773729 82.414752 
L 315.053068 81.460956 
L 318.332407 84.077245 
L 321.611746 89.150707 
L 324.891085 88.360123 
L 328.170424 85.132546 
L 331.449762 83.650298 
L 334.729101 81.579526 
L 338.00844 82.773874 
L 341.287779 80.537939 
L 344.567118 80.604917 
L 347.846457 78.099738 
L 351.125795 76.908407 
L 354.405134 77.107127 
L 357.684473 77.14746 
L 360.963812 76.861239 
L 364.243151 76.044042 
L 367.52249 76.564703 
L 370.801829 77.233797 
L 374.081167 75.195264 
L 377.360506 77.3711 
L 380.639845 76.799028 
L 383.919184 79.756644 
L 387.198523 79.115661 
" clip-path="url(#p901e59412f)" style="fill: none; stroke: #55a868; stroke-width: 1.5; stroke-linecap: round"/>
   </g>
   <g id="line2d_18">
    <path d="M 62.543977 233.177402 
L 65.823316 205.420443 
L 69.102655 194.871118 
L 72.381994 165.793866 
L 75.661333 168.455362 
L 78.940671 162.094937 
L 82.22001 148.298202 
L 85.499349 148.772348 
L 88.778688 138.795325 
L 92.058027 139.285868 
L 95.337366 143.068826 
L 98.616705 139.331915 
L 101.896043 135.030279 
L 105.175382 135.134627 
L 108.454721 138.498419 
L 111.73406 137.172894 
L 115.013399 132.274547 
L 118.292738 127.272213 
L 121.572076 125.975312 
L 124.851415 124.921446 
L 128.130754 113.550288 
L 131.410093 109.294293 
L 134.689432 109.762034 
L 137.968771 104.7763 
L 141.24811 104.196201 
L 144.527448 101.192351 
L 147.806787 101.316262 
L 151.086126 99.756248 
L 154.365465 98.296568 
L 157.644804 95.473021 
L 160.924143 93.714747 
L 164.203481 92.896725 
L 167.48282 88.232333 
L 170.762159 84.346919 
L 174.041498 83.437505 
L 177.320837 82.010722 
L 180.600176 84.214416 
L 183.879514 82.466403 
L 187.158853 78.907996 
L 190.438192 77.283562 
L 193.717531 76.279434 
L 196.99687 74.745359 
L 200.276209 68.674753 
L 203.555548 67.387671 
L 206.834886 64.952994 
L 210.114225 64.646528 
L 213.393564 64.6728 
L 216.672903 66.391487 
L 219.952242 65.370435 
L 223.231581 65.063784 
L 226.510919 62.456372 
L 229.790258 61.821237 
L 233.069597 61.295481 
L 236.348936 60.551559 
L 239.628275 59.711086 
L 242.907614 58.428812 
L 246.186952 56.751899 
L 249.466291 56.180142 
L 252.74563 55.286858 
L 256.024969 56.675142 
L 259.304308 54.621161 
L 262.583647 53.862779 
L 265.862986 54.215661 
L 269.142324 52.909791 
L 272.421663 53.636494 
L 275.701002 53.187503 
L 278.980341 53.358034 
L 282.25968 51.260904 
L 285.539019 50.766079 
L 288.818357 72.73627 
L 292.097696 72.243127 
L 295.377035 72.102226 
L 298.656374 72.672198 
L 301.935713 72.188628 
L 305.215052 71.784922 
L 308.49439 70.943321 
L 311.773729 71.099092 
L 315.053068 70.868501 
L 318.332407 70.665201 
L 321.611746 70.488624 
L 324.891085 69.769715 
L 328.170424 69.346908 
L 331.449762 70.10617 
L 334.729101 69.074815 
L 338.00844 68.904323 
L 341.287779 68.785766 
L 344.567118 68.426799 
L 347.846457 68.390083 
L 351.125795 67.3413 
L 354.405134 67.870048 
L 357.684473 67.064607 
L 360.963812 67.30012 
L 364.243151 66.624102 
L 367.52249 66.351957 
L 370.801829 66.459579 
L 374.081167 67.985596 
L 377.360506 67.597018 
L 380.639845 67.313194 
L 383.919184 65.497437 
L 387.198523 65.326654 
" clip-path="url(#p901e59412f)" style="fill: none; stroke: #c44e52; stroke-width: 1.5; stroke-linecap: round"/>
   </g>
   <g id="line2d_19">
    <path d="M 62.543977 228.844096 
L 65.823316 188.769949 
L 69.102655 176.435755 
L 72.381994 168.122698 
L 75.661333 158.948028 
L 78.940671 153.511929 
L 82.22001 142.044165 
L 85.499349 143.99867 
L 88.778688 136.404371 
L 92.058027 135.583673 
L 95.337366 136.371418 
L 98.616705 136.273141 
L 101.896043 134.099198 
L 105.175382 133.49817 
L 108.454721 132.763319 
L 111.73406 130.761318 
L 115.013399 129.123366 
L 118.292738 130.567801 
L 121.572076 129.732607 
L 124.851415 124.705966 
L 128.130754 124.454784 
L 131.410093 124.099484 
L 134.689432 127.972616 
L 137.968771 121.976598 
L 141.24811 125.634186 
L 144.527448 121.135258 
L 147.806787 120.877977 
L 151.086126 118.453322 
L 154.365465 117.091402 
L 157.644804 118.863869 
L 160.924143 126.534059 
L 164.203481 125.523148 
L 167.48282 125.858617 
L 170.762159 123.780689 
L 174.041498 120.359962 
L 177.320837 118.430954 
L 180.600176 109.334148 
L 183.879514 108.715116 
L 187.158853 110.268643 
L 190.438192 110.544048 
L 193.717531 110.888044 
L 196.99687 110.327618 
L 200.276209 110.114916 
L 203.555548 109.410831 
L 206.834886 108.818127 
L 210.114225 107.139784 
L 213.393564 105.98992 
L 216.672903 107.281127 
L 219.952242 105.159219 
L 223.231581 103.624111 
L 226.510919 103.432965 
L 229.790258 102.692569 
L 233.069597 102.79354 
L 236.348936 103.645713 
L 239.628275 103.771821 
L 242.907614 103.679496 
L 246.186952 100.745483 
L 249.466291 101.014244 
L 252.74563 100.611845 
L 256.024969 100.694204 
L 259.304308 99.94564 
L 262.583647 99.8743 
L 265.862986 100.613617 
L 269.142324 99.974238 
L 272.421663 96.466722 
L 275.701002 96.138229 
L 278.980341 96.103625 
L 282.25968 94.670235 
L 285.539019 93.801941 
L 288.818357 110.319836 
L 292.097696 111.478935 
L 295.377035 109.724142 
L 298.656374 109.322303 
L 301.935713 109.668622 
L 305.215052 109.645711 
L 308.49439 109.646376 
L 311.773729 109.480554 
L 315.053068 107.212089 
L 318.332407 107.307244 
L 321.611746 107.829481 
L 324.891085 107.770086 
L 328.170424 107.640677 
L 331.449762 107.223923 
L 334.729101 108.222393 
L 338.00844 107.035319 
L 341.287779 104.727238 
L 344.567118 103.828082 
L 347.846457 105.16899 
L 351.125795 102.856697 
L 354.405134 103.854185 
L 357.684473 102.957155 
L 360.963812 102.823069 
L 364.243151 102.459212 
L 367.52249 101.56972 
L 370.801829 102.358631 
L 374.081167 102.78353 
L 377.360506 102.911629 
L 380.639845 102.178844 
L 383.919184 102.967949 
L 387.198523 102.670521 
" clip-path="url(#p901e59412f)" style="fill: none; stroke: #8172b3; stroke-width: 1.5; stroke-linecap: round"/>
   </g>
   <g id="line2d_20"/>
   <g id="line2d_21"/>
   <g id="line2d_22"/>
   <g id="line2d_23"/>
   <g id="line2d_24"/>
   <g id="patch_3">
    <path d="M 46.31125 273.312 
L 46.31125 7.2 
" style="fill: none; stroke: #cccccc; stroke-width: 1.25; stroke-linejoin: miter; stroke-linecap: square"/>
   </g>
   <g id="patch_4">
    <path d="M 403.43125 273.312 
L 403.43125 7.2 
" style="fill: none; stroke: #cccccc; stroke-width: 1.25; stroke-linejoin: miter; stroke-linecap: square"/>
   </g>
   <g id="patch_5">
    <path d="M 46.31125 273.312 
L 403.43125 273.312 
" style="fill: none; stroke: #cccccc; stroke-width: 1.25; stroke-linejoin: miter; stroke-linecap: square"/>
   </g>
   <g id="patch_6">
    <path d="M 46.31125 7.2 
L 403.43125 7.2 
" style="fill: none; stroke: #cccccc; stroke-width: 1.25; stroke-linejoin: miter; stroke-linecap: square"/>
   </g>
   <g id="legend_1">
    <g id="patch_7">
     <path d="M 291.746875 267.812 
L 395.73125 267.812 
Q 397.93125 267.812 397.93125 265.612 
L 397.93125 168.868562 
Q 397.93125 166.668562 395.73125 166.668562 
L 291.746875 166.668562 
Q 289.546875 166.668562 289.546875 168.868562 
L 289.546875 265.612 
Q 289.546875 267.812 291.746875 267.812 
z
" style="fill: #ffffff; opacity: 0.8; stroke: #cccccc; stroke-linejoin: miter"/>
    </g>
    <g id="text_17">
     <!-- Strategy -->
     <g style="fill: #262626" transform="translate(318.03 180.186687) scale(0.12 -0.12)">
      <defs>
       <path id="DejaVuSans-53" d="M 3425 4513 
L 3425 3897 
Q 3066 4069 2747 4153 
Q 2428 4238 2131 4238 
Q 1616 4238 1336 4038 
Q 1056 3838 1056 3469 
Q 1056 3159 1242 3001 
Q 1428 2844 1947 2747 
L 2328 2669 
Q 3034 2534 3370 2195 
Q 3706 1856 3706 1288 
Q 3706 609 3251 259 
Q 2797 -91 1919 -91 
Q 1588 -91 1214 -16 
Q 841 59 441 206 
L 441 856 
Q 825 641 1194 531 
Q 1563 422 1919 422 
Q 2459 422 2753 634 
Q 3047 847 3047 1241 
Q 3047 1584 2836 1778 
Q 2625 1972 2144 2069 
L 1759 2144 
Q 1053 2284 737 2584 
Q 422 2884 422 3419 
Q 422 4038 858 4394 
Q 1294 4750 2059 4750 
Q 2388 4750 2728 4690 
Q 3069 4631 3425 4513 
z
" transform="scale(0.015625)"/>
       <path id="DejaVuSans-74" d="M 1172 4494 
L 1172 3500 
L 2356 3500 
L 2356 3053 
L 1172 3053 
L 1172 1153 
Q 1172 725 1289 603 
Q 1406 481 1766 481 
L 2356 481 
L 2356 0 
L 1766 0 
Q 1100 0 847 248 
Q 594 497 594 1153 
L 594 3053 
L 172 3053 
L 172 3500 
L 594 3500 
L 594 4494 
L 1172 4494 
z
" transform="scale(0.015625)"/>
       <path id="DejaVuSans-65" d="M 3597 1894 
L 3597 1613 
L 953 1613 
Q 991 1019 1311 708 
Q 1631 397 2203 397 
Q 2534 397 2845 478 
Q 3156 559 3463 722 
L 3463 178 
Q 3153 47 2828 -22 
Q 2503 -91 2169 -91 
Q 1331 -91 842 396 
Q 353 884 353 1716 
Q 353 2575 817 3079 
Q 1281 3584 2069 3584 
Q 2775 3584 3186 3129 
Q 3597 2675 3597 1894 
z
M 3022 2063 
Q 3016 2534 2758 2815 
Q 2500 3097 2075 3097 
Q 1594 3097 1305 2825 
Q 1016 2553 972 2059 
L 3022 2063 
z
" transform="scale(0.015625)"/>
       <path id="DejaVuSans-67" d="M 2906 1791 
Q 2906 2416 2648 2759 
Q 2391 3103 1925 3103 
Q 1463 3103 1205 2759 
Q 947 2416 947 1791 
Q 947 1169 1205 825 
Q 1463 481 1925 481 
Q 2391 481 2648 825 
Q 2906 1169 2906 1791 
z
M 3481 434 
Q 3481 -459 3084 -895 
Q 2688 -1331 1869 -1331 
Q 1566 -1331 1297 -1286 
Q 1028 -1241 775 -1147 
L 775 -588 
Q 1028 -725 1275 -790 
Q 1522 -856 1778 -856 
Q 2344 -856 2625 -561 
Q 2906 -266 2906 331 
L 2906 616 
Q 2728 306 2450 153 
Q 2172 0 1784 0 
Q 1141 0 747 490 
Q 353 981 353 1791 
Q 353 2603 747 3093 
Q 1141 3584 1784 3584 
Q 2172 3584 2450 3431 
Q 2728 3278 2906 2969 
L 2906 3500 
L 3481 3500 
L 3481 434 
z
" transform="scale(0.015625)"/>
      </defs>
      <use xlink:href="#DejaVuSans-53"/>
      <use xlink:href="#DejaVuSans-74" x="63.476562"/>
      <use xlink:href="#DejaVuSans-72" x="102.685547"/>
      <use xlink:href="#DejaVuSans-61" x="143.798828"/>
      <use xlink:href="#DejaVuSans-74" x="205.078125"/>
      <use xlink:href="#DejaVuSans-65" x="244.287109"/>
      <use xlink:href="#DejaVuSans-67" x="305.810547"/>
      <use xlink:href="#DejaVuSans-79" x="369.287109"/>
     </g>
    </g>
    <g id="line2d_25">
     <path d="M 293.946875 192.690594 
L 304.946875 192.690594 
L 315.946875 192.690594 
" style="fill: none; stroke: #4c72b0; stroke-width: 1.5; stroke-linecap: round"/>
    </g>
    <g id="text_18">
     <!-- FedPredict -->
     <g style="fill: #262626" transform="translate(324.746875 196.540594) scale(0.11 -0.11)">
      <defs>
       <path id="DejaVuSans-46" d="M 628 4666 
L 3309 4666 
L 3309 4134 
L 1259 4134 
L 1259 2759 
L 3109 2759 
L 3109 2228 
L 1259 2228 
L 1259 0 
L 628 0 
L 628 4666 
z
" transform="scale(0.015625)"/>
       <path id="DejaVuSans-50" d="M 1259 4147 
L 1259 2394 
L 2053 2394 
Q 2494 2394 2734 2622 
Q 2975 2850 2975 3272 
Q 2975 3691 2734 3919 
Q 2494 4147 2053 4147 
L 1259 4147 
z
M 628 4666 
L 2053 4666 
Q 2838 4666 3239 4311 
Q 3641 3956 3641 3272 
Q 3641 2581 3239 2228 
Q 2838 1875 2053 1875 
L 1259 1875 
L 1259 0 
L 628 0 
L 628 4666 
z
" transform="scale(0.015625)"/>
       <path id="DejaVuSans-69" d="M 603 3500 
L 1178 3500 
L 1178 0 
L 603 0 
L 603 3500 
z
M 603 4863 
L 1178 4863 
L 1178 4134 
L 603 4134 
L 603 4863 
z
" transform="scale(0.015625)"/>
      </defs>
      <use xlink:href="#DejaVuSans-46"/>
      <use xlink:href="#DejaVuSans-65" x="52.019531"/>
      <use xlink:href="#DejaVuSans-64" x="113.542969"/>
      <use xlink:href="#DejaVuSans-50" x="177.019531"/>
      <use xlink:href="#DejaVuSans-72" x="235.572266"/>
      <use xlink:href="#DejaVuSans-65" x="274.435547"/>
      <use xlink:href="#DejaVuSans-64" x="335.958984"/>
      <use xlink:href="#DejaVuSans-69" x="399.435547"/>
      <use xlink:href="#DejaVuSans-63" x="427.21875"/>
      <use xlink:href="#DejaVuSans-74" x="482.199219"/>
     </g>
    </g>
    <g id="line2d_26">
     <path d="M 293.946875 208.836531 
L 304.946875 208.836531 
L 315.946875 208.836531 
" style="fill: none; stroke: #dd8452; stroke-width: 1.5; stroke-linecap: round"/>
    </g>
    <g id="text_19">
     <!-- FedAVG -->
     <g style="fill: #262626" transform="translate(324.746875 212.686531) scale(0.11 -0.11)">
      <defs>
       <path id="DejaVuSans-56" d="M 1831 0 
L 50 4666 
L 709 4666 
L 2188 738 
L 3669 4666 
L 4325 4666 
L 2547 0 
L 1831 0 
z
" transform="scale(0.015625)"/>
       <path id="DejaVuSans-47" d="M 3809 666 
L 3809 1919 
L 2778 1919 
L 2778 2438 
L 4434 2438 
L 4434 434 
Q 4069 175 3628 42 
Q 3188 -91 2688 -91 
Q 1594 -91 976 548 
Q 359 1188 359 2328 
Q 359 3472 976 4111 
Q 1594 4750 2688 4750 
Q 3144 4750 3555 4637 
Q 3966 4525 4313 4306 
L 4313 3634 
Q 3963 3931 3569 4081 
Q 3175 4231 2741 4231 
Q 1884 4231 1454 3753 
Q 1025 3275 1025 2328 
Q 1025 1384 1454 906 
Q 1884 428 2741 428 
Q 3075 428 3337 486 
Q 3600 544 3809 666 
z
" transform="scale(0.015625)"/>
      </defs>
      <use xlink:href="#DejaVuSans-46"/>
      <use xlink:href="#DejaVuSans-65" x="52.019531"/>
      <use xlink:href="#DejaVuSans-64" x="113.542969"/>
      <use xlink:href="#DejaVuSans-41" x="177.019531"/>
      <use xlink:href="#DejaVuSans-56" x="239.052734"/>
      <use xlink:href="#DejaVuSans-47" x="307.460938"/>
     </g>
    </g>
    <g id="line2d_27">
     <path d="M 293.946875 224.982469 
L 304.946875 224.982469 
L 315.946875 224.982469 
" style="fill: none; stroke: #55a868; stroke-width: 1.5; stroke-linecap: round"/>
    </g>
    <g id="text_20">
     <!-- FedClassAvg -->
     <g style="fill: #262626" transform="translate(324.746875 228.832469) scale(0.11 -0.11)">
      <defs>
       <path id="DejaVuSans-43" d="M 4122 4306 
L 4122 3641 
Q 3803 3938 3442 4084 
Q 3081 4231 2675 4231 
Q 1875 4231 1450 3742 
Q 1025 3253 1025 2328 
Q 1025 1406 1450 917 
Q 1875 428 2675 428 
Q 3081 428 3442 575 
Q 3803 722 4122 1019 
L 4122 359 
Q 3791 134 3420 21 
Q 3050 -91 2638 -91 
Q 1578 -91 968 557 
Q 359 1206 359 2328 
Q 359 3453 968 4101 
Q 1578 4750 2638 4750 
Q 3056 4750 3426 4639 
Q 3797 4528 4122 4306 
z
" transform="scale(0.015625)"/>
       <path id="DejaVuSans-6c" d="M 603 4863 
L 1178 4863 
L 1178 0 
L 603 0 
L 603 4863 
z
" transform="scale(0.015625)"/>
       <path id="DejaVuSans-73" d="M 2834 3397 
L 2834 2853 
Q 2591 2978 2328 3040 
Q 2066 3103 1784 3103 
Q 1356 3103 1142 2972 
Q 928 2841 928 2578 
Q 928 2378 1081 2264 
Q 1234 2150 1697 2047 
L 1894 2003 
Q 2506 1872 2764 1633 
Q 3022 1394 3022 966 
Q 3022 478 2636 193 
Q 2250 -91 1575 -91 
Q 1294 -91 989 -36 
Q 684 19 347 128 
L 347 722 
Q 666 556 975 473 
Q 1284 391 1588 391 
Q 1994 391 2212 530 
Q 2431 669 2431 922 
Q 2431 1156 2273 1281 
Q 2116 1406 1581 1522 
L 1381 1569 
Q 847 1681 609 1914 
Q 372 2147 372 2553 
Q 372 3047 722 3315 
Q 1072 3584 1716 3584 
Q 2034 3584 2315 3537 
Q 2597 3491 2834 3397 
z
" transform="scale(0.015625)"/>
       <path id="DejaVuSans-76" d="M 191 3500 
L 800 3500 
L 1894 563 
L 2988 3500 
L 3597 3500 
L 2284 0 
L 1503 0 
L 191 3500 
z
" transform="scale(0.015625)"/>
      </defs>
      <use xlink:href="#DejaVuSans-46"/>
      <use xlink:href="#DejaVuSans-65" x="52.019531"/>
      <use xlink:href="#DejaVuSans-64" x="113.542969"/>
      <use xlink:href="#DejaVuSans-43" x="177.019531"/>
      <use xlink:href="#DejaVuSans-6c" x="246.84375"/>
      <use xlink:href="#DejaVuSans-61" x="274.626953"/>
      <use xlink:href="#DejaVuSans-73" x="335.90625"/>
      <use xlink:href="#DejaVuSans-73" x="388.005859"/>
      <use xlink:href="#DejaVuSans-41" x="440.105469"/>
      <use xlink:href="#DejaVuSans-76" x="502.638672"/>
      <use xlink:href="#DejaVuSans-67" x="561.818359"/>
     </g>
    </g>
    <g id="line2d_28">
     <path d="M 293.946875 241.128406 
L 304.946875 241.128406 
L 315.946875 241.128406 
" style="fill: none; stroke: #c44e52; stroke-width: 1.5; stroke-linecap: round"/>
    </g>
    <g id="text_21">
     <!-- FedPer -->
     <g style="fill: #262626" transform="translate(324.746875 244.978406) scale(0.11 -0.11)">
      <use xlink:href="#DejaVuSans-46"/>
      <use xlink:href="#DejaVuSans-65" x="52.019531"/>
      <use xlink:href="#DejaVuSans-64" x="113.542969"/>
      <use xlink:href="#DejaVuSans-50" x="177.019531"/>
      <use xlink:href="#DejaVuSans-65" x="233.697266"/>
      <use xlink:href="#DejaVuSans-72" x="295.220703"/>
     </g>
    </g>
    <g id="line2d_29">
     <path d="M 293.946875 257.274344 
L 304.946875 257.274344 
L 315.946875 257.274344 
" style="fill: none; stroke: #8172b3; stroke-width: 1.5; stroke-linecap: round"/>
    </g>
    <g id="text_22">
     <!-- FedProto -->
     <g style="fill: #262626" transform="translate(324.746875 261.124344) scale(0.11 -0.11)">
      <use xlink:href="#DejaVuSans-46"/>
      <use xlink:href="#DejaVuSans-65" x="52.019531"/>
      <use xlink:href="#DejaVuSans-64" x="113.542969"/>
      <use xlink:href="#DejaVuSans-50" x="177.019531"/>
      <use xlink:href="#DejaVuSans-72" x="235.572266"/>
      <use xlink:href="#DejaVuSans-6f" x="274.435547"/>
      <use xlink:href="#DejaVuSans-74" x="335.617188"/>
      <use xlink:href="#DejaVuSans-6f" x="374.826172"/>
     </g>
    </g>
   </g>
  </g>
 </g>
 <defs>
  <clipPath id="p901e59412f">
   <rect x="46.31125" y="7.2" width="357.12" height="266.112"/>
  </clipPath>
 </defs>
</svg>
