<?xml version="1.0" encoding="utf-8" standalone="no"?>
<!DOCTYPE svg PUBLIC "-//W3C//DTD SVG 1.1//EN"
  "http://www.w3.org/Graphics/SVG/1.1/DTD/svg11.dtd">
<svg xmlns:xlink="http://www.w3.org/1999/xlink" width="414.127187pt" height="316.271687pt" viewBox="0 0 414.127187 316.271687" xmlns="http://www.w3.org/2000/svg" version="1.1">
 <metadata>
  <rdf:RDF xmlns:dc="http://purl.org/dc/elements/1.1/" xmlns:cc="http://creativecommons.org/ns#" xmlns:rdf="http://www.w3.org/1999/02/22-rdf-syntax-ns#">
   <cc:Work>
    <dc:type rdf:resource="http://purl.org/dc/dcmitype/StillImage"/>
    <dc:date>2023-02-10T00:49:42.030101</dc:date>
    <dc:format>image/svg+xml</dc:format>
    <dc:creator>
     <cc:Agent>
      <dc:title>Matplotlib v3.6.3, https://matplotlib.org/</dc:title>
     </cc:Agent>
    </dc:creator>
   </cc:Work>
  </rdf:RDF>
 </metadata>
 <defs>
  <style type="text/css">*{stroke-linejoin: round; stroke-linecap: butt}</style>
 </defs>
 <g id="figure_1">
  <g id="patch_1">
   <path d="M 0 316.271687 
L 414.127187 316.271687 
L 414.127187 0 
L 0 0 
z
" style="fill: #ffffff"/>
  </g>
  <g id="axes_1">
   <g id="patch_2">
    <path d="M 49.807187 273.312 
L 406.927188 273.312 
L 406.927188 7.2 
L 49.807187 7.2 
z
" style="fill: #ffffff"/>
   </g>
   <g id="matplotlib.axis_1">
    <g id="xtick_1">
     <g id="line2d_1">
      <path d="M 62.760576 273.312 
L 62.760576 7.2 
" clip-path="url(#p5af78de25e)" style="fill: none; stroke: #cccccc; stroke-linecap: round"/>
     </g>
     <g id="text_1">
      <!-- 0 -->
      <g style="fill: #262626" transform="translate(59.261201 291.170281) scale(0.11 -0.11)">
       <defs>
        <path id="DejaVuSans-30" d="M 2034 4250 
Q 1547 4250 1301 3770 
Q 1056 3291 1056 2328 
Q 1056 1369 1301 889 
Q 1547 409 2034 409 
Q 2525 409 2770 889 
Q 3016 1369 3016 2328 
Q 3016 3291 2770 3770 
Q 2525 4250 2034 4250 
z
M 2034 4750 
Q 2819 4750 3233 4129 
Q 3647 3509 3647 2328 
Q 3647 1150 3233 529 
Q 2819 -91 2034 -91 
Q 1250 -91 836 529 
Q 422 1150 422 2328 
Q 422 3509 836 4129 
Q 1250 4750 2034 4750 
z
" transform="scale(0.015625)"/>
       </defs>
       <use xlink:href="#DejaVuSans-30"/>
      </g>
     </g>
    </g>
    <g id="xtick_2">
     <g id="line2d_2">
      <path d="M 128.347353 273.312 
L 128.347353 7.2 
" clip-path="url(#p5af78de25e)" style="fill: none; stroke: #cccccc; stroke-linecap: round"/>
     </g>
     <g id="text_2">
      <!-- 20 -->
      <g style="fill: #262626" transform="translate(121.348603 291.170281) scale(0.11 -0.11)">
       <defs>
        <path id="DejaVuSans-32" d="M 1228 531 
L 3431 531 
L 3431 0 
L 469 0 
L 469 531 
Q 828 903 1448 1529 
Q 2069 2156 2228 2338 
Q 2531 2678 2651 2914 
Q 2772 3150 2772 3378 
Q 2772 3750 2511 3984 
Q 2250 4219 1831 4219 
Q 1534 4219 1204 4116 
Q 875 4013 500 3803 
L 500 4441 
Q 881 4594 1212 4672 
Q 1544 4750 1819 4750 
Q 2544 4750 2975 4387 
Q 3406 4025 3406 3419 
Q 3406 3131 3298 2873 
Q 3191 2616 2906 2266 
Q 2828 2175 2409 1742 
Q 1991 1309 1228 531 
z
" transform="scale(0.015625)"/>
       </defs>
       <use xlink:href="#DejaVuSans-32"/>
       <use xlink:href="#DejaVuSans-30" x="63.623047"/>
      </g>
     </g>
    </g>
    <g id="xtick_3">
     <g id="line2d_3">
      <path d="M 193.93413 273.312 
L 193.93413 7.2 
" clip-path="url(#p5af78de25e)" style="fill: none; stroke: #cccccc; stroke-linecap: round"/>
     </g>
     <g id="text_3">
      <!-- 40 -->
      <g style="fill: #262626" transform="translate(186.93538 291.170281) scale(0.11 -0.11)">
       <defs>
        <path id="DejaVuSans-34" d="M 2419 4116 
L 825 1625 
L 2419 1625 
L 2419 4116 
z
M 2253 4666 
L 3047 4666 
L 3047 1625 
L 3713 1625 
L 3713 1100 
L 3047 1100 
L 3047 0 
L 2419 0 
L 2419 1100 
L 313 1100 
L 313 1709 
L 2253 4666 
z
" transform="scale(0.015625)"/>
       </defs>
       <use xlink:href="#DejaVuSans-34"/>
       <use xlink:href="#DejaVuSans-30" x="63.623047"/>
      </g>
     </g>
    </g>
    <g id="xtick_4">
     <g id="line2d_4">
      <path d="M 259.520907 273.312 
L 259.520907 7.2 
" clip-path="url(#p5af78de25e)" style="fill: none; stroke: #cccccc; stroke-linecap: round"/>
     </g>
     <g id="text_4">
      <!-- 60 -->
      <g style="fill: #262626" transform="translate(252.522157 291.170281) scale(0.11 -0.11)">
       <defs>
        <path id="DejaVuSans-36" d="M 2113 2584 
Q 1688 2584 1439 2293 
Q 1191 2003 1191 1497 
Q 1191 994 1439 701 
Q 1688 409 2113 409 
Q 2538 409 2786 701 
Q 3034 994 3034 1497 
Q 3034 2003 2786 2293 
Q 2538 2584 2113 2584 
z
M 3366 4563 
L 3366 3988 
Q 3128 4100 2886 4159 
Q 2644 4219 2406 4219 
Q 1781 4219 1451 3797 
Q 1122 3375 1075 2522 
Q 1259 2794 1537 2939 
Q 1816 3084 2150 3084 
Q 2853 3084 3261 2657 
Q 3669 2231 3669 1497 
Q 3669 778 3244 343 
Q 2819 -91 2113 -91 
Q 1303 -91 875 529 
Q 447 1150 447 2328 
Q 447 3434 972 4092 
Q 1497 4750 2381 4750 
Q 2619 4750 2861 4703 
Q 3103 4656 3366 4563 
z
" transform="scale(0.015625)"/>
       </defs>
       <use xlink:href="#DejaVuSans-36"/>
       <use xlink:href="#DejaVuSans-30" x="63.623047"/>
      </g>
     </g>
    </g>
    <g id="xtick_5">
     <g id="line2d_5">
      <path d="M 325.107683 273.312 
L 325.107683 7.2 
" clip-path="url(#p5af78de25e)" style="fill: none; stroke: #cccccc; stroke-linecap: round"/>
     </g>
     <g id="text_5">
      <!-- 80 -->
      <g style="fill: #262626" transform="translate(318.108933 291.170281) scale(0.11 -0.11)">
       <defs>
        <path id="DejaVuSans-38" d="M 2034 2216 
Q 1584 2216 1326 1975 
Q 1069 1734 1069 1313 
Q 1069 891 1326 650 
Q 1584 409 2034 409 
Q 2484 409 2743 651 
Q 3003 894 3003 1313 
Q 3003 1734 2745 1975 
Q 2488 2216 2034 2216 
z
M 1403 2484 
Q 997 2584 770 2862 
Q 544 3141 544 3541 
Q 544 4100 942 4425 
Q 1341 4750 2034 4750 
Q 2731 4750 3128 4425 
Q 3525 4100 3525 3541 
Q 3525 3141 3298 2862 
Q 3072 2584 2669 2484 
Q 3125 2378 3379 2068 
Q 3634 1759 3634 1313 
Q 3634 634 3220 271 
Q 2806 -91 2034 -91 
Q 1263 -91 848 271 
Q 434 634 434 1313 
Q 434 1759 690 2068 
Q 947 2378 1403 2484 
z
M 1172 3481 
Q 1172 3119 1398 2916 
Q 1625 2713 2034 2713 
Q 2441 2713 2670 2916 
Q 2900 3119 2900 3481 
Q 2900 3844 2670 4047 
Q 2441 4250 2034 4250 
Q 1625 4250 1398 4047 
Q 1172 3844 1172 3481 
z
" transform="scale(0.015625)"/>
       </defs>
       <use xlink:href="#DejaVuSans-38"/>
       <use xlink:href="#DejaVuSans-30" x="63.623047"/>
      </g>
     </g>
    </g>
    <g id="xtick_6">
     <g id="line2d_6">
      <path d="M 390.69446 273.312 
L 390.69446 7.2 
" clip-path="url(#p5af78de25e)" style="fill: none; stroke: #cccccc; stroke-linecap: round"/>
     </g>
     <g id="text_6">
      <!-- 100 -->
      <g style="fill: #262626" transform="translate(380.196335 291.170281) scale(0.11 -0.11)">
       <defs>
        <path id="DejaVuSans-31" d="M 794 531 
L 1825 531 
L 1825 4091 
L 703 3866 
L 703 4441 
L 1819 4666 
L 2450 4666 
L 2450 531 
L 3481 531 
L 3481 0 
L 794 0 
L 794 531 
z
" transform="scale(0.015625)"/>
       </defs>
       <use xlink:href="#DejaVuSans-31"/>
       <use xlink:href="#DejaVuSans-30" x="63.623047"/>
       <use xlink:href="#DejaVuSans-30" x="127.246094"/>
      </g>
     </g>
    </g>
    <g id="text_7">
     <!-- Round -->
     <g style="fill: #262626" transform="translate(209.382812 306.576062) scale(0.12 -0.12)">
      <defs>
       <path id="DejaVuSans-52" d="M 2841 2188 
Q 3044 2119 3236 1894 
Q 3428 1669 3622 1275 
L 4263 0 
L 3584 0 
L 2988 1197 
Q 2756 1666 2539 1819 
Q 2322 1972 1947 1972 
L 1259 1972 
L 1259 0 
L 628 0 
L 628 4666 
L 2053 4666 
Q 2853 4666 3247 4331 
Q 3641 3997 3641 3322 
Q 3641 2881 3436 2590 
Q 3231 2300 2841 2188 
z
M 1259 4147 
L 1259 2491 
L 2053 2491 
Q 2509 2491 2742 2702 
Q 2975 2913 2975 3322 
Q 2975 3731 2742 3939 
Q 2509 4147 2053 4147 
L 1259 4147 
z
" transform="scale(0.015625)"/>
       <path id="DejaVuSans-6f" d="M 1959 3097 
Q 1497 3097 1228 2736 
Q 959 2375 959 1747 
Q 959 1119 1226 758 
Q 1494 397 1959 397 
Q 2419 397 2687 759 
Q 2956 1122 2956 1747 
Q 2956 2369 2687 2733 
Q 2419 3097 1959 3097 
z
M 1959 3584 
Q 2709 3584 3137 3096 
Q 3566 2609 3566 1747 
Q 3566 888 3137 398 
Q 2709 -91 1959 -91 
Q 1206 -91 779 398 
Q 353 888 353 1747 
Q 353 2609 779 3096 
Q 1206 3584 1959 3584 
z
" transform="scale(0.015625)"/>
       <path id="DejaVuSans-75" d="M 544 1381 
L 544 3500 
L 1119 3500 
L 1119 1403 
Q 1119 906 1312 657 
Q 1506 409 1894 409 
Q 2359 409 2629 706 
Q 2900 1003 2900 1516 
L 2900 3500 
L 3475 3500 
L 3475 0 
L 2900 0 
L 2900 538 
Q 2691 219 2414 64 
Q 2138 -91 1772 -91 
Q 1169 -91 856 284 
Q 544 659 544 1381 
z
M 1991 3584 
L 1991 3584 
z
" transform="scale(0.015625)"/>
       <path id="DejaVuSans-6e" d="M 3513 2113 
L 3513 0 
L 2938 0 
L 2938 2094 
Q 2938 2591 2744 2837 
Q 2550 3084 2163 3084 
Q 1697 3084 1428 2787 
Q 1159 2491 1159 1978 
L 1159 0 
L 581 0 
L 581 3500 
L 1159 3500 
L 1159 2956 
Q 1366 3272 1645 3428 
Q 1925 3584 2291 3584 
Q 2894 3584 3203 3211 
Q 3513 2838 3513 2113 
z
" transform="scale(0.015625)"/>
       <path id="DejaVuSans-64" d="M 2906 2969 
L 2906 4863 
L 3481 4863 
L 3481 0 
L 2906 0 
L 2906 525 
Q 2725 213 2448 61 
Q 2172 -91 1784 -91 
Q 1150 -91 751 415 
Q 353 922 353 1747 
Q 353 2572 751 3078 
Q 1150 3584 1784 3584 
Q 2172 3584 2448 3432 
Q 2725 3281 2906 2969 
z
M 947 1747 
Q 947 1113 1208 752 
Q 1469 391 1925 391 
Q 2381 391 2643 752 
Q 2906 1113 2906 1747 
Q 2906 2381 2643 2742 
Q 2381 3103 1925 3103 
Q 1469 3103 1208 2742 
Q 947 2381 947 1747 
z
" transform="scale(0.015625)"/>
      </defs>
      <use xlink:href="#DejaVuSans-52"/>
      <use xlink:href="#DejaVuSans-6f" x="64.982422"/>
      <use xlink:href="#DejaVuSans-75" x="126.164062"/>
      <use xlink:href="#DejaVuSans-6e" x="189.542969"/>
      <use xlink:href="#DejaVuSans-64" x="252.921875"/>
     </g>
    </g>
   </g>
   <g id="matplotlib.axis_2">
    <g id="ytick_1">
     <g id="line2d_7">
      <path d="M 49.807187 262.169115 
L 406.927188 262.169115 
" clip-path="url(#p5af78de25e)" style="fill: none; stroke: #cccccc; stroke-linecap: round"/>
     </g>
     <g id="text_8">
      <!-- 0.5 -->
      <g style="fill: #262626" transform="translate(22.81375 266.348256) scale(0.11 -0.11)">
       <defs>
        <path id="DejaVuSans-2e" d="M 684 794 
L 1344 794 
L 1344 0 
L 684 0 
L 684 794 
z
" transform="scale(0.015625)"/>
        <path id="DejaVuSans-35" d="M 691 4666 
L 3169 4666 
L 3169 4134 
L 1269 4134 
L 1269 2991 
Q 1406 3038 1543 3061 
Q 1681 3084 1819 3084 
Q 2600 3084 3056 2656 
Q 3513 2228 3513 1497 
Q 3513 744 3044 326 
Q 2575 -91 1722 -91 
Q 1428 -91 1123 -41 
Q 819 9 494 109 
L 494 744 
Q 775 591 1075 516 
Q 1375 441 1709 441 
Q 2250 441 2565 725 
Q 2881 1009 2881 1497 
Q 2881 1984 2565 2268 
Q 2250 2553 1709 2553 
Q 1456 2553 1204 2497 
Q 953 2441 691 2322 
L 691 4666 
z
" transform="scale(0.015625)"/>
       </defs>
       <use xlink:href="#DejaVuSans-30"/>
       <use xlink:href="#DejaVuSans-2e" x="63.623047"/>
       <use xlink:href="#DejaVuSans-35" x="95.410156"/>
      </g>
     </g>
    </g>
    <g id="ytick_2">
     <g id="line2d_8">
      <path d="M 49.807187 216.639833 
L 406.927188 216.639833 
" clip-path="url(#p5af78de25e)" style="fill: none; stroke: #cccccc; stroke-linecap: round"/>
     </g>
     <g id="text_9">
      <!-- 1.0 -->
      <g style="fill: #262626" transform="translate(22.81375 220.818973) scale(0.11 -0.11)">
       <use xlink:href="#DejaVuSans-31"/>
       <use xlink:href="#DejaVuSans-2e" x="63.623047"/>
       <use xlink:href="#DejaVuSans-30" x="95.410156"/>
      </g>
     </g>
    </g>
    <g id="ytick_3">
     <g id="line2d_9">
      <path d="M 49.807187 171.11055 
L 406.927188 171.11055 
" clip-path="url(#p5af78de25e)" style="fill: none; stroke: #cccccc; stroke-linecap: round"/>
     </g>
     <g id="text_10">
      <!-- 1.5 -->
      <g style="fill: #262626" transform="translate(22.81375 175.289691) scale(0.11 -0.11)">
       <use xlink:href="#DejaVuSans-31"/>
       <use xlink:href="#DejaVuSans-2e" x="63.623047"/>
       <use xlink:href="#DejaVuSans-35" x="95.410156"/>
      </g>
     </g>
    </g>
    <g id="ytick_4">
     <g id="line2d_10">
      <path d="M 49.807187 125.581268 
L 406.927188 125.581268 
" clip-path="url(#p5af78de25e)" style="fill: none; stroke: #cccccc; stroke-linecap: round"/>
     </g>
     <g id="text_11">
      <!-- 2.0 -->
      <g style="fill: #262626" transform="translate(22.81375 129.760409) scale(0.11 -0.11)">
       <use xlink:href="#DejaVuSans-32"/>
       <use xlink:href="#DejaVuSans-2e" x="63.623047"/>
       <use xlink:href="#DejaVuSans-30" x="95.410156"/>
      </g>
     </g>
    </g>
    <g id="ytick_5">
     <g id="line2d_11">
      <path d="M 49.807187 80.051986 
L 406.927188 80.051986 
" clip-path="url(#p5af78de25e)" style="fill: none; stroke: #cccccc; stroke-linecap: round"/>
     </g>
     <g id="text_12">
      <!-- 2.5 -->
      <g style="fill: #262626" transform="translate(22.81375 84.231126) scale(0.11 -0.11)">
       <use xlink:href="#DejaVuSans-32"/>
       <use xlink:href="#DejaVuSans-2e" x="63.623047"/>
       <use xlink:href="#DejaVuSans-35" x="95.410156"/>
      </g>
     </g>
    </g>
    <g id="ytick_6">
     <g id="line2d_12">
      <path d="M 49.807187 34.522703 
L 406.927188 34.522703 
" clip-path="url(#p5af78de25e)" style="fill: none; stroke: #cccccc; stroke-linecap: round"/>
     </g>
     <g id="text_13">
      <!-- 3.0 -->
      <g style="fill: #262626" transform="translate(22.81375 38.701844) scale(0.11 -0.11)">
       <defs>
        <path id="DejaVuSans-33" d="M 2597 2516 
Q 3050 2419 3304 2112 
Q 3559 1806 3559 1356 
Q 3559 666 3084 287 
Q 2609 -91 1734 -91 
Q 1441 -91 1130 -33 
Q 819 25 488 141 
L 488 750 
Q 750 597 1062 519 
Q 1375 441 1716 441 
Q 2309 441 2620 675 
Q 2931 909 2931 1356 
Q 2931 1769 2642 2001 
Q 2353 2234 1838 2234 
L 1294 2234 
L 1294 2753 
L 1863 2753 
Q 2328 2753 2575 2939 
Q 2822 3125 2822 3475 
Q 2822 3834 2567 4026 
Q 2313 4219 1838 4219 
Q 1578 4219 1281 4162 
Q 984 4106 628 3988 
L 628 4550 
Q 988 4650 1302 4700 
Q 1616 4750 1894 4750 
Q 2613 4750 3031 4423 
Q 3450 4097 3450 3541 
Q 3450 3153 3228 2886 
Q 3006 2619 2597 2516 
z
" transform="scale(0.015625)"/>
       </defs>
       <use xlink:href="#DejaVuSans-33"/>
       <use xlink:href="#DejaVuSans-2e" x="63.623047"/>
       <use xlink:href="#DejaVuSans-30" x="95.410156"/>
      </g>
     </g>
    </g>
    <g id="text_14">
     <!-- Loss -->
     <g style="fill: #262626" transform="translate(16.318125 153.416625) rotate(-90) scale(0.12 -0.12)">
      <defs>
       <path id="DejaVuSans-4c" d="M 628 4666 
L 1259 4666 
L 1259 531 
L 3531 531 
L 3531 0 
L 628 0 
L 628 4666 
z
" transform="scale(0.015625)"/>
       <path id="DejaVuSans-73" d="M 2834 3397 
L 2834 2853 
Q 2591 2978 2328 3040 
Q 2066 3103 1784 3103 
Q 1356 3103 1142 2972 
Q 928 2841 928 2578 
Q 928 2378 1081 2264 
Q 1234 2150 1697 2047 
L 1894 2003 
Q 2506 1872 2764 1633 
Q 3022 1394 3022 966 
Q 3022 478 2636 193 
Q 2250 -91 1575 -91 
Q 1294 -91 989 -36 
Q 684 19 347 128 
L 347 722 
Q 666 556 975 473 
Q 1284 391 1588 391 
Q 1994 391 2212 530 
Q 2431 669 2431 922 
Q 2431 1156 2273 1281 
Q 2116 1406 1581 1522 
L 1381 1569 
Q 847 1681 609 1914 
Q 372 2147 372 2553 
Q 372 3047 722 3315 
Q 1072 3584 1716 3584 
Q 2034 3584 2315 3537 
Q 2597 3491 2834 3397 
z
" transform="scale(0.015625)"/>
      </defs>
      <use xlink:href="#DejaVuSans-4c"/>
      <use xlink:href="#DejaVuSans-6f" x="53.962891"/>
      <use xlink:href="#DejaVuSans-73" x="115.144531"/>
      <use xlink:href="#DejaVuSans-73" x="167.244141"/>
     </g>
    </g>
   </g>
   <g id="PolyCollection_1">
    <defs>
     <path id="mba80850767" d="M 66.039915 -232.471771 
L 66.039915 -190.291562 
L 69.319254 -160.163917 
L 72.598592 -134.394628 
L 75.877931 -138.685829 
L 79.15727 -116.941008 
L 82.436609 -117.349694 
L 85.715948 -116.025382 
L 88.995287 -111.123138 
L 92.274626 -106.142097 
L 95.553964 -97.823301 
L 98.833303 -95.916193 
L 102.112642 -105.892138 
L 105.391981 -97.583501 
L 108.67132 -93.266585 
L 111.950659 -88.372731 
L 115.229997 -93.765819 
L 118.509336 -85.83193 
L 121.788675 -83.374515 
L 125.068014 -82.545742 
L 128.347353 -86.392831 
L 131.626692 -83.375166 
L 134.90603 -79.538023 
L 138.185369 -78.381657 
L 141.464708 -81.898187 
L 144.744047 -75.983158 
L 148.023386 -74.776349 
L 151.302725 -72.844982 
L 154.582064 -74.409466 
L 157.861402 -72.435573 
L 161.140741 -74.419975 
L 164.42008 -74.496551 
L 167.699419 -72.453891 
L 170.978758 -69.009995 
L 174.258097 -69.45305 
L 177.537435 -68.993619 
L 180.816774 -70.113879 
L 184.096113 -70.894865 
L 187.375452 -69.706058 
L 190.654791 -64.805913 
L 193.93413 -63.487083 
L 197.213468 -67.684837 
L 200.492807 -65.966325 
L 203.772146 -66.081715 
L 207.051485 -64.656543 
L 210.330824 -63.167283 
L 213.610163 -63.586762 
L 216.889502 -63.704733 
L 220.16884 -60.726476 
L 223.448179 -62.284183 
L 226.727518 -63.536531 
L 230.006857 -63.756105 
L 233.286196 -61.662887 
L 236.565535 -62.607271 
L 239.844873 -62.615229 
L 243.124212 -64.852492 
L 246.403551 -62.526648 
L 249.68289 -59.130252 
L 252.962229 -61.903363 
L 256.241568 -61.592688 
L 259.520907 -59.876071 
L 262.800245 -57.972514 
L 266.079584 -58.389368 
L 269.358923 -55.055688 
L 272.638262 -56.466186 
L 275.917601 -56.843435 
L 279.19694 -57.451925 
L 282.476278 -56.853684 
L 285.755617 -60.243842 
L 289.034956 -60.806909 
L 292.314295 -69.47105 
L 295.593634 -66.921763 
L 298.872973 -70.508246 
L 302.152311 -68.413707 
L 305.43165 -65.831856 
L 308.710989 -65.533648 
L 311.990328 -65.798664 
L 315.269667 -67.435547 
L 318.549006 -65.623254 
L 321.828345 -66.30369 
L 325.107683 -66.211136 
L 328.387022 -64.760462 
L 331.666361 -64.673527 
L 334.9457 -67.023051 
L 338.225039 -66.555759 
L 341.504378 -65.259605 
L 344.783716 -65.291261 
L 348.063055 -67.043859 
L 351.342394 -67.23327 
L 354.621733 -64.414776 
L 357.901072 -64.641232 
L 361.180411 -65.562438 
L 364.459749 -64.205308 
L 367.739088 -64.528316 
L 371.018427 -64.139565 
L 374.297766 -64.134423 
L 377.577105 -63.738308 
L 380.856444 -62.697633 
L 384.135783 -64.373057 
L 387.415121 -65.049919 
L 390.69446 -64.085654 
L 390.69446 -86.894453 
L 390.69446 -86.894453 
L 387.415121 -88.736032 
L 384.135783 -88.549266 
L 380.856444 -84.939508 
L 377.577105 -85.2736 
L 374.297766 -87.117622 
L 371.018427 -87.086243 
L 367.739088 -87.928285 
L 364.459749 -87.291294 
L 361.180411 -90.403054 
L 357.901072 -88.341118 
L 354.621733 -87.721138 
L 351.342394 -90.734012 
L 348.063055 -90.305276 
L 344.783716 -86.310473 
L 341.504378 -87.86592 
L 338.225039 -87.662564 
L 334.9457 -88.690893 
L 331.666361 -86.135586 
L 328.387022 -85.799506 
L 325.107683 -87.158444 
L 321.828345 -86.302554 
L 318.549006 -88.102656 
L 315.269667 -88.485895 
L 311.990328 -86.70321 
L 308.710989 -85.719311 
L 305.43165 -87.474437 
L 302.152311 -90.939605 
L 298.872973 -91.920033 
L 295.593634 -87.384517 
L 292.314295 -88.841669 
L 289.034956 -78.319125 
L 285.755617 -78.888988 
L 282.476278 -72.139843 
L 279.19694 -74.599211 
L 275.917601 -73.516822 
L 272.638262 -73.589857 
L 269.358923 -71.828935 
L 266.079584 -76.375406 
L 262.800245 -78.016597 
L 259.520907 -77.326946 
L 256.241568 -77.008737 
L 252.962229 -78.941595 
L 249.68289 -76.048268 
L 246.403551 -79.841475 
L 243.124212 -82.685647 
L 239.844873 -78.784411 
L 236.565535 -80.033442 
L 233.286196 -77.578865 
L 230.006857 -82.087467 
L 226.727518 -83.062197 
L 223.448179 -80.471359 
L 220.16884 -78.626826 
L 216.889502 -82.925667 
L 213.610163 -83.624642 
L 210.330824 -82.988857 
L 207.051485 -83.522833 
L 203.772146 -85.985652 
L 200.492807 -83.183545 
L 197.213468 -85.646246 
L 193.93413 -82.317625 
L 190.654791 -83.058782 
L 187.375452 -89.669206 
L 184.096113 -90.155061 
L 180.816774 -87.621433 
L 177.537435 -90.217923 
L 174.258097 -88.421815 
L 170.978758 -87.297026 
L 167.699419 -91.968141 
L 164.42008 -93.011824 
L 161.140741 -95.11433 
L 157.861402 -92.518443 
L 154.582064 -92.411214 
L 151.302725 -93.118923 
L 148.023386 -92.80242 
L 144.744047 -94.655623 
L 141.464708 -102.553715 
L 138.185369 -106.230409 
L 134.90603 -100.065432 
L 131.626692 -104.460685 
L 128.347353 -109.652292 
L 125.068014 -103.686291 
L 121.788675 -104.872136 
L 118.509336 -107.403996 
L 115.229997 -118.454845 
L 111.950659 -111.527488 
L 108.67132 -119.364481 
L 105.391981 -124.540301 
L 102.112642 -135.418892 
L 98.833303 -119.922797 
L 95.553964 -123.664046 
L 92.274626 -142.231742 
L 88.995287 -140.771623 
L 85.715948 -149.160144 
L 82.436609 -146.80197 
L 79.15727 -148.237216 
L 75.877931 -190.831907 
L 72.598592 -174.037471 
L 69.319254 -211.534167 
L 66.039915 -232.471771 
z
" style="stroke: #4c72b0; stroke-opacity: 0.2"/>
    </defs>
    <g clip-path="url(#p5af78de25e)">
     <use xlink:href="#mba80850767" x="0" y="316.271687" style="fill: #4c72b0; fill-opacity: 0.2; stroke: #4c72b0; stroke-opacity: 0.2"/>
    </g>
   </g>
   <g id="PolyCollection_2">
    <defs>
     <path id="maca22832ff" d="M 66.039915 -246.761605 
L 66.039915 -217.383258 
L 69.319254 -224.207891 
L 72.598592 -209.467421 
L 75.877931 -251.665342 
L 79.15727 -202.386951 
L 82.436609 -197.844551 
L 85.715948 -197.361628 
L 88.995287 -188.743506 
L 92.274626 -198.934053 
L 95.553964 -177.67744 
L 98.833303 -181.933641 
L 102.112642 -206.637202 
L 105.391981 -185.156976 
L 108.67132 -171.277826 
L 111.950659 -166.992249 
L 115.229997 -175.361875 
L 118.509336 -166.084945 
L 121.788675 -164.09292 
L 125.068014 -159.207163 
L 128.347353 -162.880631 
L 131.626692 -173.335539 
L 134.90603 -161.31098 
L 138.185369 -168.021931 
L 141.464708 -160.733507 
L 144.744047 -150.058424 
L 148.023386 -150.641061 
L 151.302725 -155.330969 
L 154.582064 -157.174348 
L 157.861402 -155.589594 
L 161.140741 -169.669808 
L 164.42008 -152.148562 
L 167.699419 -154.302805 
L 170.978758 -150.10062 
L 174.258097 -165.044989 
L 177.537435 -155.361839 
L 180.816774 -149.69986 
L 184.096113 -152.474417 
L 187.375452 -185.446927 
L 190.654791 -147.076831 
L 193.93413 -143.720297 
L 197.213468 -160.721663 
L 200.492807 -141.354848 
L 203.772146 -144.267333 
L 207.051485 -142.591503 
L 210.330824 -147.780542 
L 213.610163 -143.946221 
L 216.889502 -144.995323 
L 220.16884 -129.450663 
L 223.448179 -145.268111 
L 226.727518 -166.321719 
L 230.006857 -147.090113 
L 233.286196 -133.684287 
L 236.565535 -138.083755 
L 239.844873 -128.254972 
L 243.124212 -136.662425 
L 246.403551 -136.654033 
L 249.68289 -125.172186 
L 252.962229 -136.982118 
L 256.241568 -154.856506 
L 259.520907 -131.320546 
L 262.800245 -140.789541 
L 266.079584 -137.880243 
L 269.358923 -128.239915 
L 272.638262 -129.503534 
L 275.917601 -133.640507 
L 279.19694 -132.60856 
L 282.476278 -129.838446 
L 285.755617 -130.277181 
L 289.034956 -134.596833 
L 292.314295 -126.017375 
L 295.593634 -141.150893 
L 298.872973 -142.821294 
L 302.152311 -123.91753 
L 305.43165 -128.950836 
L 308.710989 -124.009353 
L 311.990328 -128.514469 
L 315.269667 -159.454969 
L 318.549006 -125.175929 
L 321.828345 -118.297455 
L 325.107683 -148.340359 
L 328.387022 -139.152943 
L 331.666361 -122.349445 
L 334.9457 -137.973057 
L 338.225039 -136.678506 
L 341.504378 -147.321695 
L 344.783716 -126.977895 
L 348.063055 -153.332868 
L 351.342394 -193.671386 
L 354.621733 -119.006645 
L 357.901072 -126.346702 
L 361.180411 -129.359313 
L 364.459749 -126.951723 
L 367.739088 -133.033126 
L 371.018427 -125.867172 
L 374.297766 -122.558437 
L 377.577105 -131.031073 
L 380.856444 -130.894044 
L 384.135783 -134.023258 
L 387.415121 -124.724884 
L 390.69446 -119.665928 
L 390.69446 -137.000469 
L 390.69446 -137.000469 
L 387.415121 -146.58554 
L 384.135783 -157.702321 
L 380.856444 -150.80542 
L 377.577105 -155.026541 
L 374.297766 -145.23703 
L 371.018427 -145.007221 
L 367.739088 -156.238499 
L 364.459749 -149.042783 
L 361.180411 -151.762611 
L 357.901072 -144.205564 
L 354.621733 -145.214787 
L 351.342394 -235.174395 
L 348.063055 -188.160784 
L 344.783716 -146.870092 
L 341.504378 -170.341409 
L 338.225039 -169.094028 
L 334.9457 -164.671643 
L 331.666361 -140.880226 
L 328.387022 -160.082756 
L 325.107683 -173.162952 
L 321.828345 -131.16547 
L 318.549006 -147.420312 
L 315.269667 -185.626102 
L 311.990328 -149.497249 
L 308.710989 -130.776172 
L 305.43165 -144.245609 
L 302.152311 -148.92344 
L 298.872973 -168.460959 
L 295.593634 -164.974732 
L 292.314295 -141.412983 
L 289.034956 -165.44992 
L 285.755617 -162.297144 
L 282.476278 -167.316938 
L 279.19694 -159.378105 
L 275.917601 -164.325136 
L 272.638262 -159.378403 
L 269.358923 -146.0168 
L 266.079584 -168.337411 
L 262.800245 -176.100346 
L 259.520907 -159.385146 
L 256.241568 -191.662045 
L 252.962229 -162.950035 
L 249.68289 -146.710525 
L 246.403551 -162.60182 
L 243.124212 -167.024459 
L 239.844873 -148.513099 
L 236.565535 -162.350521 
L 233.286196 -153.677051 
L 230.006857 -175.148003 
L 226.727518 -207.347701 
L 223.448179 -170.430528 
L 220.16884 -145.881957 
L 216.889502 -178.874273 
L 213.610163 -176.281898 
L 210.330824 -176.720216 
L 207.051485 -167.456578 
L 203.772146 -172.73043 
L 200.492807 -156.000554 
L 197.213468 -187.293331 
L 193.93413 -172.187246 
L 190.654791 -178.864703 
L 187.375452 -226.092414 
L 184.096113 -175.940443 
L 180.816774 -176.621906 
L 177.537435 -187.191294 
L 174.258097 -193.646189 
L 170.978758 -173.753271 
L 167.699419 -192.062139 
L 164.42008 -173.151154 
L 161.140741 -207.740504 
L 157.861402 -191.038796 
L 154.582064 -178.21343 
L 151.302725 -186.130553 
L 148.023386 -160.939082 
L 144.744047 -167.848958 
L 141.464708 -184.481478 
L 138.185369 -214.419419 
L 134.90603 -186.672758 
L 131.626692 -200.83548 
L 128.347353 -188.899593 
L 125.068014 -179.504634 
L 121.788675 -181.936347 
L 118.509336 -188.564485 
L 115.229997 -208.715316 
L 111.950659 -191.00346 
L 108.67132 -189.230512 
L 105.391981 -216.225725 
L 102.112642 -249.915479 
L 98.833303 -204.071272 
L 95.553964 -207.099198 
L 92.274626 -238.502584 
L 88.995287 -207.449199 
L 85.715948 -231.682201 
L 82.436609 -223.44621 
L 79.15727 -228.270285 
L 75.877931 -296.975687 
L 72.598592 -225.288897 
L 69.319254 -257.748649 
L 66.039915 -246.761605 
z
" style="stroke: #dd8452; stroke-opacity: 0.2"/>
    </defs>
    <g clip-path="url(#p5af78de25e)">
     <use xlink:href="#maca22832ff" x="0" y="316.271687" style="fill: #dd8452; fill-opacity: 0.2; stroke: #dd8452; stroke-opacity: 0.2"/>
    </g>
   </g>
   <g id="PolyCollection_3">
    <defs>
     <path id="m6c941b4031" d="M 66.039915 -272.61573 
L 66.039915 -204.219463 
L 69.319254 -158.105769 
L 72.598592 -146.753077 
L 75.877931 -135.746801 
L 79.15727 -123.480032 
L 82.436609 -113.686879 
L 85.715948 -112.4261 
L 88.995287 -110.179182 
L 92.274626 -108.316825 
L 95.553964 -108.06102 
L 98.833303 -106.047347 
L 102.112642 -103.465959 
L 105.391981 -103.056786 
L 108.67132 -101.023138 
L 111.950659 -100.80633 
L 115.229997 -100.495497 
L 118.509336 -99.542838 
L 121.788675 -98.011903 
L 125.068014 -97.241699 
L 128.347353 -99.659206 
L 131.626692 -99.770989 
L 134.90603 -98.899315 
L 138.185369 -93.748541 
L 141.464708 -93.954897 
L 144.744047 -91.53623 
L 148.023386 -89.536879 
L 151.302725 -89.005002 
L 154.582064 -87.477774 
L 157.861402 -87.895251 
L 161.140741 -87.500146 
L 164.42008 -86.485573 
L 167.699419 -86.542924 
L 170.978758 -86.356095 
L 174.258097 -85.939577 
L 177.537435 -84.930849 
L 180.816774 -85.776002 
L 184.096113 -85.064432 
L 187.375452 -85.427542 
L 190.654791 -84.536132 
L 193.93413 -83.809686 
L 197.213468 -81.972503 
L 200.492807 -81.810822 
L 203.772146 -81.300588 
L 207.051485 -80.067683 
L 210.330824 -80.038238 
L 213.610163 -80.109401 
L 216.889502 -80.495592 
L 220.16884 -79.428748 
L 223.448179 -79.299486 
L 226.727518 -77.501773 
L 230.006857 -77.994033 
L 233.286196 -78.856677 
L 236.565535 -79.325872 
L 239.844873 -76.585001 
L 243.124212 -73.792537 
L 246.403551 -77.432551 
L 249.68289 -77.335571 
L 252.962229 -77.308131 
L 256.241568 -77.322768 
L 259.520907 -76.981769 
L 262.800245 -72.740592 
L 266.079584 -74.701404 
L 269.358923 -73.772579 
L 272.638262 -73.39526 
L 275.917601 -73.550349 
L 279.19694 -74.310113 
L 282.476278 -73.241571 
L 285.755617 -74.728444 
L 289.034956 -75.639202 
L 292.314295 -85.841691 
L 295.593634 -83.468065 
L 298.872973 -83.255343 
L 302.152311 -83.327593 
L 305.43165 -82.067349 
L 308.710989 -84.532837 
L 311.990328 -83.600438 
L 315.269667 -83.995052 
L 318.549006 -83.867481 
L 321.828345 -82.133722 
L 325.107683 -82.060676 
L 328.387022 -81.805172 
L 331.666361 -82.285081 
L 334.9457 -81.035157 
L 338.225039 -83.216275 
L 341.504378 -82.447714 
L 344.783716 -81.253376 
L 348.063055 -80.190504 
L 351.342394 -80.82241 
L 354.621733 -82.190853 
L 357.901072 -81.340704 
L 361.180411 -81.194402 
L 364.459749 -81.50351 
L 367.739088 -82.738013 
L 371.018427 -82.161622 
L 374.297766 -81.303945 
L 377.577105 -80.483474 
L 380.856444 -80.462584 
L 384.135783 -81.407884 
L 387.415121 -82.50115 
L 390.69446 -80.301057 
L 390.69446 -107.594882 
L 390.69446 -107.594882 
L 387.415121 -110.476512 
L 384.135783 -109.374981 
L 380.856444 -109.346447 
L 377.577105 -107.807524 
L 374.297766 -109.387871 
L 371.018427 -110.807937 
L 367.739088 -109.235428 
L 364.459749 -111.277594 
L 361.180411 -110.415999 
L 357.901072 -110.064064 
L 354.621733 -109.813833 
L 351.342394 -108.384147 
L 348.063055 -110.497932 
L 344.783716 -109.549149 
L 341.504378 -109.790224 
L 338.225039 -110.858902 
L 334.9457 -111.31475 
L 331.666361 -111.508565 
L 328.387022 -110.060867 
L 325.107683 -110.242699 
L 321.828345 -111.530341 
L 318.549006 -111.497713 
L 315.269667 -113.167303 
L 311.990328 -112.518618 
L 308.710989 -111.643551 
L 305.43165 -110.043965 
L 302.152311 -112.312186 
L 298.872973 -110.400579 
L 295.593634 -112.904669 
L 292.314295 -114.19007 
L 289.034956 -100.283124 
L 285.755617 -99.227939 
L 282.476278 -98.519062 
L 279.19694 -98.154039 
L 275.917601 -98.526449 
L 272.638262 -98.544846 
L 269.358923 -98.37304 
L 266.079584 -99.316289 
L 262.800245 -97.957897 
L 259.520907 -98.346077 
L 256.241568 -99.14353 
L 252.962229 -102.22113 
L 249.68289 -101.431317 
L 246.403551 -100.409485 
L 243.124212 -98.28911 
L 239.844873 -100.912361 
L 236.565535 -104.494467 
L 233.286196 -104.595489 
L 230.006857 -105.105824 
L 226.727518 -105.207292 
L 223.448179 -103.800065 
L 220.16884 -104.179272 
L 216.889502 -106.2924 
L 213.610163 -104.498735 
L 210.330824 -104.362221 
L 207.051485 -105.439981 
L 203.772146 -104.713096 
L 200.492807 -106.869835 
L 197.213468 -106.164384 
L 193.93413 -110.065839 
L 190.654791 -110.841356 
L 187.375452 -110.273659 
L 184.096113 -109.64761 
L 180.816774 -109.559622 
L 177.537435 -110.558989 
L 174.258097 -114.237637 
L 170.978758 -115.106274 
L 167.699419 -115.180527 
L 164.42008 -113.027759 
L 161.140741 -114.630404 
L 157.861402 -115.680363 
L 154.582064 -116.081736 
L 151.302725 -117.292927 
L 148.023386 -118.707439 
L 144.744047 -121.503861 
L 141.464708 -125.325175 
L 138.185369 -125.193799 
L 134.90603 -126.311915 
L 131.626692 -128.050606 
L 128.347353 -125.55772 
L 125.068014 -125.380514 
L 121.788675 -122.849123 
L 118.509336 -124.898489 
L 115.229997 -126.793798 
L 111.950659 -130.523354 
L 108.67132 -128.983765 
L 105.391981 -129.874459 
L 102.112642 -131.574926 
L 98.833303 -135.167335 
L 95.553964 -137.43581 
L 92.274626 -139.044459 
L 88.995287 -142.61469 
L 85.715948 -144.049986 
L 82.436609 -145.95242 
L 79.15727 -157.20779 
L 75.877931 -174.053254 
L 72.598592 -187.457162 
L 69.319254 -196.652589 
L 66.039915 -272.61573 
z
" style="stroke: #55a868; stroke-opacity: 0.2"/>
    </defs>
    <g clip-path="url(#p5af78de25e)">
     <use xlink:href="#m6c941b4031" x="0" y="316.271687" style="fill: #55a868; fill-opacity: 0.2; stroke: #55a868; stroke-opacity: 0.2"/>
    </g>
   </g>
   <g id="PolyCollection_4">
    <defs>
     <path id="mfa82565173" d="M 66.039915 -208.213569 
L 66.039915 -189.238758 
L 69.319254 -198.081023 
L 72.598592 -200.091591 
L 75.877931 -167.164017 
L 79.15727 -179.164058 
L 82.436609 -156.054813 
L 85.715948 -133.747744 
L 88.995287 -126.008328 
L 92.274626 -122.258044 
L 95.553964 -132.210716 
L 98.833303 -126.242859 
L 102.112642 -114.078795 
L 105.391981 -110.281069 
L 108.67132 -110.876049 
L 111.950659 -108.618105 
L 115.229997 -106.289642 
L 118.509336 -100.323087 
L 121.788675 -99.185622 
L 125.068014 -98.491493 
L 128.347353 -97.250635 
L 131.626692 -95.968583 
L 134.90603 -95.242361 
L 138.185369 -94.693834 
L 141.464708 -92.579625 
L 144.744047 -92.010254 
L 148.023386 -90.889891 
L 151.302725 -89.724516 
L 154.582064 -88.943802 
L 157.861402 -87.847697 
L 161.140741 -86.479365 
L 164.42008 -88.223736 
L 167.699419 -87.886014 
L 170.978758 -85.397675 
L 174.258097 -83.281296 
L 177.537435 -82.65147 
L 180.816774 -82.776828 
L 184.096113 -81.74945 
L 187.375452 -80.726231 
L 190.654791 -80.012907 
L 193.93413 -80.717726 
L 197.213468 -77.43029 
L 200.492807 -78.472233 
L 203.772146 -77.638968 
L 207.051485 -76.057633 
L 210.330824 -74.339539 
L 213.610163 -75.079654 
L 216.889502 -72.996429 
L 220.16884 -71.712253 
L 223.448179 -70.850594 
L 226.727518 -69.998734 
L 230.006857 -70.314748 
L 233.286196 -70.269397 
L 236.565535 -69.962542 
L 239.844873 -69.042959 
L 243.124212 -68.128388 
L 246.403551 -67.662376 
L 249.68289 -68.546994 
L 252.962229 -67.069621 
L 256.241568 -67.191084 
L 259.520907 -66.40882 
L 262.800245 -66.488524 
L 266.079584 -65.888635 
L 269.358923 -65.500391 
L 272.638262 -65.477569 
L 275.917601 -63.313284 
L 279.19694 -63.94873 
L 282.476278 -63.000964 
L 285.755617 -62.909944 
L 289.034956 -63.130117 
L 292.314295 -83.46812 
L 295.593634 -80.608394 
L 298.872973 -81.373745 
L 302.152311 -81.233339 
L 305.43165 -82.107062 
L 308.710989 -80.888224 
L 311.990328 -80.446061 
L 315.269667 -80.438048 
L 318.549006 -80.480793 
L 321.828345 -80.767237 
L 325.107683 -79.504537 
L 328.387022 -79.077799 
L 331.666361 -79.385807 
L 334.9457 -79.187051 
L 338.225039 -78.985024 
L 341.504378 -77.500055 
L 344.783716 -77.778995 
L 348.063055 -78.350582 
L 351.342394 -77.658947 
L 354.621733 -76.608377 
L 357.901072 -77.707912 
L 361.180411 -78.147288 
L 364.459749 -78.313907 
L 367.739088 -78.250902 
L 371.018427 -77.127092 
L 374.297766 -77.553274 
L 377.577105 -77.097395 
L 380.856444 -76.597325 
L 384.135783 -76.34728 
L 387.415121 -77.100352 
L 390.69446 -76.780602 
L 390.69446 -103.357288 
L 390.69446 -103.357288 
L 387.415121 -103.902612 
L 384.135783 -103.136298 
L 380.856444 -102.223259 
L 377.577105 -103.511177 
L 374.297766 -101.328393 
L 371.018427 -104.474554 
L 367.739088 -102.99663 
L 364.459749 -103.012689 
L 361.180411 -104.309861 
L 357.901072 -103.073558 
L 354.621733 -103.700175 
L 351.342394 -104.397325 
L 348.063055 -105.476073 
L 344.783716 -103.607576 
L 341.504378 -104.528497 
L 338.225039 -103.562781 
L 334.9457 -103.738787 
L 331.666361 -103.50289 
L 328.387022 -104.61676 
L 325.107683 -104.374036 
L 321.828345 -104.656764 
L 318.549006 -105.411516 
L 315.269667 -106.031408 
L 311.990328 -105.638512 
L 308.710989 -105.170367 
L 305.43165 -106.288911 
L 302.152311 -107.356568 
L 298.872973 -105.805573 
L 295.593634 -106.845607 
L 292.314295 -107.794181 
L 289.034956 -82.579689 
L 285.755617 -83.050577 
L 282.476278 -82.232082 
L 279.19694 -83.108393 
L 275.917601 -84.383999 
L 272.638262 -84.699155 
L 269.358923 -85.620158 
L 266.079584 -85.80859 
L 262.800245 -86.189437 
L 259.520907 -85.441631 
L 256.241568 -87.254884 
L 252.962229 -86.690397 
L 249.68289 -88.934068 
L 246.403551 -88.038906 
L 243.124212 -88.777067 
L 239.844873 -90.265695 
L 236.565535 -91.141228 
L 233.286196 -91.730803 
L 230.006857 -90.657064 
L 226.727518 -91.118603 
L 223.448179 -91.191609 
L 220.16884 -93.545557 
L 216.889502 -95.032518 
L 213.610163 -96.111828 
L 210.330824 -97.344929 
L 207.051485 -99.697038 
L 203.772146 -100.082401 
L 200.492807 -100.565731 
L 197.213468 -99.008549 
L 193.93413 -101.811354 
L 190.654791 -104.082292 
L 187.375452 -104.275035 
L 184.096113 -106.119893 
L 180.816774 -107.098186 
L 177.537435 -106.204282 
L 174.258097 -107.62554 
L 170.978758 -108.431039 
L 167.699419 -112.638128 
L 164.42008 -112.399056 
L 161.140741 -110.750731 
L 157.861402 -112.73672 
L 154.582064 -111.819378 
L 151.302725 -113.088373 
L 148.023386 -115.488173 
L 144.744047 -115.190377 
L 141.464708 -117.102889 
L 138.185369 -118.995211 
L 134.90603 -120.802817 
L 131.626692 -119.088772 
L 128.347353 -120.81771 
L 125.068014 -121.687266 
L 121.788675 -122.166708 
L 118.509336 -125.059661 
L 115.229997 -130.573947 
L 111.950659 -132.280213 
L 108.67132 -135.107465 
L 105.391981 -135.961118 
L 102.112642 -138.624171 
L 98.833303 -146.130497 
L 95.553964 -153.045466 
L 92.274626 -146.019486 
L 88.995287 -149.803066 
L 85.715948 -156.335377 
L 82.436609 -173.884063 
L 79.15727 -192.509971 
L 75.877931 -189.072892 
L 72.598592 -208.214343 
L 69.319254 -208.503677 
L 66.039915 -208.213569 
z
" style="stroke: #c44e52; stroke-opacity: 0.2"/>
    </defs>
    <g clip-path="url(#p5af78de25e)">
     <use xlink:href="#mfa82565173" x="0" y="316.271687" style="fill: #c44e52; fill-opacity: 0.2; stroke: #c44e52; stroke-opacity: 0.2"/>
    </g>
   </g>
   <g id="PolyCollection_5">
    <defs>
     <path id="mb6d5293a00" d="M 66.039915 -251.472094 
L 66.039915 -221.376674 
L 69.319254 -194.381474 
L 72.598592 -176.69968 
L 75.877931 -163.269543 
L 79.15727 -157.717748 
L 82.436609 -146.111164 
L 85.715948 -142.535698 
L 88.995287 -138.909167 
L 92.274626 -137.979208 
L 95.553964 -134.214321 
L 98.833303 -128.548124 
L 102.112642 -126.303813 
L 105.391981 -124.166986 
L 108.67132 -122.44535 
L 111.950659 -121.219583 
L 115.229997 -119.868707 
L 118.509336 -117.058953 
L 121.788675 -117.746559 
L 125.068014 -117.157373 
L 128.347353 -116.683542 
L 131.626692 -116.446952 
L 134.90603 -114.620673 
L 138.185369 -114.051886 
L 141.464708 -111.820313 
L 144.744047 -113.000726 
L 148.023386 -111.25051 
L 151.302725 -109.658539 
L 154.582064 -110.464216 
L 157.861402 -108.367116 
L 161.140741 -109.28434 
L 164.42008 -106.946563 
L 167.699419 -107.915658 
L 170.978758 -107.872866 
L 174.258097 -107.528804 
L 177.537435 -105.829684 
L 180.816774 -106.70557 
L 184.096113 -104.463059 
L 187.375452 -103.327632 
L 190.654791 -102.597428 
L 193.93413 -103.095228 
L 197.213468 -103.76255 
L 200.492807 -101.369991 
L 203.772146 -100.933611 
L 207.051485 -100.370328 
L 210.330824 -99.090026 
L 213.610163 -98.697855 
L 216.889502 -99.293162 
L 220.16884 -98.366663 
L 223.448179 -98.20491 
L 226.727518 -96.388988 
L 230.006857 -96.923305 
L 233.286196 -97.216473 
L 236.565535 -95.855828 
L 239.844873 -95.313138 
L 243.124212 -96.607663 
L 246.403551 -95.194774 
L 249.68289 -95.349092 
L 252.962229 -95.098443 
L 256.241568 -95.803418 
L 259.520907 -95.026025 
L 262.800245 -95.189908 
L 266.079584 -96.550325 
L 269.358923 -95.80405 
L 272.638262 -94.499821 
L 275.917601 -93.19603 
L 279.19694 -91.234217 
L 282.476278 -93.233678 
L 285.755617 -91.532488 
L 289.034956 -90.315005 
L 292.314295 -116.607629 
L 295.593634 -116.585667 
L 298.872973 -117.725886 
L 302.152311 -116.384827 
L 305.43165 -116.535358 
L 308.710989 -116.632919 
L 311.990328 -115.68188 
L 315.269667 -116.413333 
L 318.549006 -116.79194 
L 321.828345 -114.204574 
L 325.107683 -114.639138 
L 328.387022 -113.694248 
L 331.666361 -112.134868 
L 334.9457 -115.534071 
L 338.225039 -113.793319 
L 341.504378 -114.140697 
L 344.783716 -114.007781 
L 348.063055 -112.960197 
L 351.342394 -111.603533 
L 354.621733 -112.59054 
L 357.901072 -113.026237 
L 361.180411 -113.633309 
L 364.459749 -111.622003 
L 367.739088 -112.74137 
L 371.018427 -111.364008 
L 374.297766 -112.394334 
L 377.577105 -112.023599 
L 380.856444 -110.720666 
L 384.135783 -112.353177 
L 387.415121 -111.367887 
L 390.69446 -109.270552 
L 390.69446 -151.254069 
L 390.69446 -151.254069 
L 387.415121 -150.054599 
L 384.135783 -152.867083 
L 380.856444 -153.014111 
L 377.577105 -151.62056 
L 374.297766 -152.029582 
L 371.018427 -152.21259 
L 367.739088 -154.454562 
L 364.459749 -151.383927 
L 361.180411 -152.582794 
L 357.901072 -154.138634 
L 354.621733 -154.014294 
L 351.342394 -152.801665 
L 348.063055 -153.849435 
L 344.783716 -154.94607 
L 341.504378 -152.684303 
L 338.225039 -154.005504 
L 334.9457 -154.682668 
L 331.666361 -155.953103 
L 328.387022 -154.413994 
L 325.107683 -156.311307 
L 321.828345 -155.381473 
L 318.549006 -155.553504 
L 315.269667 -155.54625 
L 311.990328 -154.754498 
L 308.710989 -156.364434 
L 305.43165 -159.465032 
L 302.152311 -157.370212 
L 298.872973 -155.849647 
L 295.593634 -156.600422 
L 292.314295 -156.990805 
L 289.034956 -117.017616 
L 285.755617 -117.683141 
L 282.476278 -121.091639 
L 279.19694 -120.714398 
L 275.917601 -122.066947 
L 272.638262 -121.680257 
L 269.358923 -123.172129 
L 266.079584 -122.886069 
L 262.800245 -123.026553 
L 259.520907 -123.540816 
L 256.241568 -124.338601 
L 252.962229 -123.218639 
L 249.68289 -123.120072 
L 246.403551 -122.891668 
L 243.124212 -123.682703 
L 239.844873 -124.360894 
L 236.565535 -124.012673 
L 233.286196 -127.709332 
L 230.006857 -126.572871 
L 226.727518 -125.401545 
L 223.448179 -125.853251 
L 220.16884 -128.205231 
L 216.889502 -128.535916 
L 213.610163 -127.361453 
L 210.330824 -127.471325 
L 207.051485 -128.5216 
L 203.772146 -129.753417 
L 200.492807 -130.3797 
L 197.213468 -131.860521 
L 193.93413 -133.083389 
L 190.654791 -132.738316 
L 187.375452 -134.00182 
L 184.096113 -133.379245 
L 180.816774 -135.058576 
L 177.537435 -135.3688 
L 174.258097 -137.468571 
L 170.978758 -136.90621 
L 167.699419 -137.674751 
L 164.42008 -136.797619 
L 161.140741 -136.852844 
L 157.861402 -138.084766 
L 154.582064 -139.246444 
L 151.302725 -139.787125 
L 148.023386 -139.635051 
L 144.744047 -140.85479 
L 141.464708 -141.815309 
L 138.185369 -143.315384 
L 134.90603 -144.216922 
L 131.626692 -144.544226 
L 128.347353 -144.941554 
L 125.068014 -145.795342 
L 121.788675 -147.143655 
L 118.509336 -147.518123 
L 115.229997 -149.939118 
L 111.950659 -152.973625 
L 108.67132 -153.360181 
L 105.391981 -154.858717 
L 102.112642 -156.274913 
L 98.833303 -160.648832 
L 95.553964 -168.099045 
L 92.274626 -172.362682 
L 88.995287 -172.443533 
L 85.715948 -180.391202 
L 82.436609 -183.114988 
L 79.15727 -203.361386 
L 75.877931 -210.16114 
L 72.598592 -222.769838 
L 69.319254 -237.528725 
L 66.039915 -251.472094 
z
" style="stroke: #8172b3; stroke-opacity: 0.2"/>
    </defs>
    <g clip-path="url(#p5af78de25e)">
     <use xlink:href="#mb6d5293a00" x="0" y="316.271687" style="fill: #8172b3; fill-opacity: 0.2; stroke: #8172b3; stroke-opacity: 0.2"/>
    </g>
   </g>
   <g id="line2d_13">
    <path d="M 66.039915 104.782418 
L 69.319254 129.965965 
L 72.598592 161.605558 
L 75.877931 152.578109 
L 79.15727 184.23573 
L 82.436609 183.704794 
L 85.715948 183.456064 
L 88.995287 191.099154 
L 92.274626 191.398346 
L 95.553964 205.139411 
L 98.833303 207.911882 
L 102.112642 196.093031 
L 105.391981 204.821342 
L 108.67132 210.190494 
L 111.950659 215.862075 
L 115.229997 209.789674 
L 118.509336 220.035962 
L 121.788675 222.536581 
L 125.068014 223.148271 
L 128.347353 218.392502 
L 131.626692 222.555372 
L 134.90603 226.36983 
L 138.185369 224.416933 
L 141.464708 223.825198 
L 144.744047 231.348335 
L 148.023386 232.450649 
L 151.302725 233.603747 
L 154.582064 232.471546 
L 157.861402 233.254285 
L 161.140741 231.768072 
L 164.42008 232.40902 
L 167.699419 233.95828 
L 170.978758 238.322925 
L 174.258097 237.294977 
L 177.537435 236.882361 
L 180.816774 237.396033 
L 184.096113 235.887064 
L 187.375452 236.187932 
L 190.654791 242.967943 
L 193.93413 243.427006 
L 197.213468 239.630926 
L 200.492807 241.534279 
L 203.772146 240.14863 
L 207.051485 242.137913 
L 210.330824 243.175955 
L 213.610163 242.167081 
L 216.889502 243.048778 
L 220.16884 246.548573 
L 223.448179 244.412098 
L 226.727518 242.925096 
L 230.006857 243.422476 
L 233.286196 246.81764 
L 236.565535 244.825768 
L 239.844873 245.517727 
L 243.124212 242.756673 
L 246.403551 244.946915 
L 249.68289 248.262702 
L 252.962229 245.711145 
L 256.241568 247.172088 
L 259.520907 247.998837 
L 262.800245 248.090717 
L 266.079584 249.27411 
L 269.358923 253.080011 
L 272.638262 251.146109 
L 275.917601 250.798046 
L 279.19694 250.451626 
L 282.476278 251.924082 
L 285.755617 246.849056 
L 289.034956 247.15431 
L 292.314295 237.574676 
L 295.593634 239.083596 
L 298.872973 235.50304 
L 302.152311 237.625468 
L 305.43165 239.593891 
L 308.710989 240.683431 
L 311.990328 240.529963 
L 315.269667 238.718585 
L 318.549006 239.854887 
L 321.828345 240.42909 
L 325.107683 239.488088 
L 328.387022 240.884761 
L 331.666361 240.893881 
L 334.9457 238.881496 
L 338.225039 239.562792 
L 341.504378 239.88008 
L 344.783716 240.999113 
L 348.063055 237.711563 
L 351.342394 237.301988 
L 354.621733 240.802928 
L 357.901072 239.644615 
L 361.180411 239.840386 
L 364.459749 241.195439 
L 367.739088 240.188188 
L 371.018427 240.555931 
L 374.297766 240.970401 
L 377.577105 242.211331 
L 380.856444 242.275278 
L 384.135783 239.69372 
L 387.415121 239.63971 
L 390.69446 241.218178 
" clip-path="url(#p5af78de25e)" style="fill: none; stroke: #4c72b0; stroke-width: 1.5; stroke-linecap: round"/>
   </g>
   <g id="line2d_14">
    <path d="M 66.039915 84.983244 
L 69.319254 74.899481 
L 72.598592 99.022945 
L 75.877931 41.484463 
L 79.15727 101.059135 
L 82.436609 105.352188 
L 85.715948 102.967615 
L 88.995287 118.037772 
L 92.274626 97.412024 
L 95.553964 123.880259 
L 98.833303 122.732833 
L 102.112642 87.244823 
L 105.391981 114.855366 
L 108.67132 135.997009 
L 111.950659 137.843479 
L 115.229997 124.949782 
L 118.509336 139.273092 
L 121.788675 143.295987 
L 125.068014 147.329796 
L 128.347353 140.842179 
L 131.626692 129.238355 
L 134.90603 143.289573 
L 138.185369 125.350198 
L 141.464708 143.16165 
L 144.744047 157.556931 
L 148.023386 160.320224 
L 151.302725 145.358488 
L 154.582064 148.52847 
L 157.861402 143.227537 
L 161.140741 127.057709 
L 164.42008 153.474556 
L 167.699419 142.717369 
L 170.978758 154.689076 
L 174.258097 136.838825 
L 177.537435 144.979046 
L 180.816774 152.125946 
L 184.096113 151.832666 
L 187.375452 109.785983 
L 190.654791 154.088393 
L 193.93413 158.436699 
L 197.213468 142.028326 
L 200.492807 167.616479 
L 203.772146 156.86036 
L 207.051485 161.408055 
L 210.330824 154.485356 
L 213.610163 157.286663 
L 216.889502 153.801925 
L 220.16884 178.284652 
L 223.448179 159.230643 
L 226.727518 130.392204 
L 230.006857 155.374125 
L 233.286196 173.598252 
L 236.565535 166.831825 
L 239.844873 177.971189 
L 243.124212 164.78574 
L 246.403551 166.087258 
L 249.68289 180.215808 
L 252.962229 165.87879 
L 256.241568 143.845074 
L 259.520907 170.225335 
L 262.800245 156.976656 
L 266.079584 163.738748 
L 269.358923 179.443866 
L 272.638262 172.38326 
L 275.917601 167.961615 
L 279.19694 170.737001 
L 282.476278 168.566224 
L 285.755617 170.75092 
L 289.034956 166.043898 
L 292.314295 182.594511 
L 295.593634 162.99189 
L 298.872973 161.091242 
L 302.152311 180.149499 
L 305.43165 179.700174 
L 308.710989 188.83265 
L 311.990328 176.972234 
L 315.269667 143.710564 
L 318.549006 180.622698 
L 321.828345 191.628081 
L 325.107683 155.954621 
L 328.387022 167.168548 
L 331.666361 184.918353 
L 334.9457 165.260607 
L 338.225039 163.79926 
L 341.504378 158.321545 
L 344.783716 179.32561 
L 348.063055 145.726728 
L 351.342394 102.735008 
L 354.621733 184.173575 
L 357.901072 180.818092 
L 361.180411 175.34848 
L 364.459749 178.408295 
L 367.739088 171.081754 
L 371.018427 180.922771 
L 374.297766 182.168134 
L 377.577105 173.844374 
L 380.856444 175.592282 
L 384.135783 170.967964 
L 387.415121 180.452394 
L 390.69446 188.279 
" clip-path="url(#p5af78de25e)" style="fill: none; stroke: #dd8452; stroke-width: 1.5; stroke-linecap: round"/>
   </g>
   <g id="line2d_15">
    <path d="M 66.039915 82.371662 
L 69.319254 138.358346 
L 72.598592 147.686578 
L 75.877931 160.70614 
L 79.15727 175.933495 
L 82.436609 185.909546 
L 85.715948 187.927363 
L 88.995287 189.728114 
L 92.274626 192.585427 
L 95.553964 193.671524 
L 98.833303 195.441249 
L 102.112642 199.136246 
L 105.391981 199.165377 
L 108.67132 200.456433 
L 111.950659 201.056659 
L 115.229997 202.479361 
L 118.509336 202.980537 
L 121.788675 205.84547 
L 125.068014 205.302279 
L 128.347353 203.388352 
L 131.626692 203.039504 
L 134.90603 203.76872 
L 138.185369 206.415776 
L 141.464708 206.976241 
L 144.744047 209.624588 
L 148.023386 212.529759 
L 151.302725 213.147298 
L 154.582064 214.635695 
L 157.861402 214.494826 
L 161.140741 215.735786 
L 164.42008 216.697878 
L 167.699419 216.467222 
L 170.978758 215.495032 
L 174.258097 215.706371 
L 177.537435 218.025355 
L 180.816774 219.122587 
L 184.096113 218.751267 
L 187.375452 218.681382 
L 190.654791 218.73674 
L 193.93413 219.587684 
L 197.213468 222.305005 
L 200.492807 221.914648 
L 203.772146 223.21387 
L 207.051485 223.601862 
L 210.330824 223.997358 
L 213.610163 224.389589 
L 216.889502 223.165352 
L 220.16884 224.917975 
L 223.448179 224.93405 
L 226.727518 224.797746 
L 230.006857 224.675621 
L 233.286196 224.811084 
L 236.565535 224.223401 
L 239.844873 227.258939 
L 243.124212 230.298639 
L 246.403551 227.715851 
L 249.68289 227.167444 
L 252.962229 226.388061 
L 256.241568 228.013152 
L 259.520907 228.52125 
L 262.800245 229.85768 
L 266.079584 229.711967 
L 269.358923 230.7853 
L 272.638262 230.701878 
L 275.917601 230.506662 
L 279.19694 230.462856 
L 282.476278 230.94917 
L 285.755617 229.545394 
L 289.034956 228.173868 
L 292.314295 216.708984 
L 295.593634 218.223017 
L 298.872973 219.250356 
L 302.152311 219.258824 
L 305.43165 220.02046 
L 308.710989 218.844425 
L 311.990328 218.862457 
L 315.269667 218.431832 
L 318.549006 219.387442 
L 321.828345 220.097776 
L 325.107683 221.268066 
L 328.387022 220.516701 
L 331.666361 219.528324 
L 334.9457 220.024171 
L 338.225039 220.484033 
L 341.504378 220.243796 
L 344.783716 221.738491 
L 348.063055 222.152082 
L 351.342394 222.137115 
L 354.621733 220.899487 
L 357.901072 221.19134 
L 361.180411 221.281515 
L 364.459749 220.851824 
L 367.739088 220.935459 
L 371.018427 221.026574 
L 374.297766 221.591921 
L 377.577105 222.778131 
L 380.856444 222.001832 
L 384.135783 221.296203 
L 387.415121 220.882497 
L 390.69446 222.489581 
" clip-path="url(#p5af78de25e)" style="fill: none; stroke: #55a868; stroke-width: 1.5; stroke-linecap: round"/>
   </g>
   <g id="line2d_16">
    <path d="M 66.039915 116.994684 
L 69.319254 112.397469 
L 72.598592 111.993683 
L 75.877931 137.501286 
L 79.15727 130.32806 
L 82.436609 150.960155 
L 85.715948 171.027821 
L 88.995287 177.676784 
L 92.274626 182.397009 
L 95.553964 173.467443 
L 98.833303 180.270626 
L 102.112642 190.454718 
L 105.391981 192.625037 
L 108.67132 193.765378 
L 111.950659 195.545904 
L 115.229997 197.862589 
L 118.509336 203.41291 
L 121.788675 205.143699 
L 125.068014 205.858007 
L 128.347353 206.684816 
L 131.626692 208.471008 
L 134.90603 208.244768 
L 138.185369 209.420498 
L 141.464708 211.005507 
L 144.744047 212.276671 
L 148.023386 213.236223 
L 151.302725 215.093402 
L 154.582064 215.311236 
L 157.861402 215.878367 
L 161.140741 217.368975 
L 164.42008 216.392073 
L 167.699419 216.515373 
L 170.978758 218.884172 
L 174.258097 220.347073 
L 177.537435 221.408598 
L 180.816774 221.965461 
L 184.096113 222.119622 
L 187.375452 223.84916 
L 190.654791 224.546043 
L 193.93413 225.097335 
L 197.213468 227.77652 
L 200.492807 227.049585 
L 203.772146 227.071069 
L 207.051485 228.586184 
L 210.330824 230.219188 
L 213.610163 230.967525 
L 216.889502 232.33871 
L 220.16884 233.624357 
L 223.448179 234.756462 
L 226.727518 235.531796 
L 230.006857 235.784228 
L 233.286196 235.435234 
L 236.565535 235.602707 
L 239.844873 237.035201 
L 243.124212 237.790892 
L 246.403551 238.307473 
L 249.68289 238.018879 
L 252.962229 238.984151 
L 256.241568 239.044819 
L 259.520907 239.762137 
L 262.800245 239.905628 
L 266.079584 240.840343 
L 269.358923 240.892172 
L 272.638262 241.416526 
L 275.917601 241.885505 
L 279.19694 242.747148 
L 282.476278 242.739291 
L 285.755617 243.348565 
L 289.034956 243.219998 
L 292.314295 221.465851 
L 295.593634 222.533377 
L 298.872973 222.754105 
L 302.152311 222.199983 
L 305.43165 222.674656 
L 308.710989 223.103538 
L 311.990328 223.065564 
L 315.269667 223.289565 
L 318.549006 223.507532 
L 321.828345 223.461275 
L 325.107683 224.301933 
L 328.387022 224.230641 
L 331.666361 224.647992 
L 334.9457 224.755456 
L 338.225039 224.887701 
L 341.504378 225.010893 
L 344.783716 225.341438 
L 348.063055 225.207229 
L 351.342394 225.766998 
L 354.621733 225.958836 
L 357.901072 226.010323 
L 361.180411 225.782739 
L 364.459749 225.875411 
L 367.739088 226.172624 
L 371.018427 226.121586 
L 374.297766 226.540065 
L 377.577105 226.724903 
L 380.856444 226.937899 
L 384.135783 226.916345 
L 387.415121 226.589653 
L 390.69446 226.719895 
" clip-path="url(#p5af78de25e)" style="fill: none; stroke: #c44e52; stroke-width: 1.5; stroke-linecap: round"/>
   </g>
   <g id="line2d_17">
    <path d="M 66.039915 81.498732 
L 69.319254 100.988696 
L 72.598592 116.990753 
L 75.877931 128.114132 
L 79.15727 136.714541 
L 82.436609 151.672299 
L 85.715948 154.014591 
L 88.995287 160.268651 
L 92.274626 161.319331 
L 95.553964 164.887024 
L 98.833303 171.534305 
L 102.112642 174.509505 
L 105.391981 176.887432 
L 108.67132 178.160776 
L 111.950659 179.267281 
L 115.229997 180.471564 
L 118.509336 184.053484 
L 121.788675 183.590036 
L 125.068014 185.062284 
L 128.347353 185.174969 
L 131.626692 185.920099 
L 134.90603 186.978755 
L 138.185369 188.027899 
L 141.464708 188.725364 
L 144.744047 189.884516 
L 148.023386 190.119924 
L 151.302725 191.369567 
L 154.582064 191.302749 
L 157.861402 191.823751 
L 161.140741 192.984102 
L 164.42008 193.291726 
L 167.699419 193.831974 
L 170.978758 194.397213 
L 174.258097 194.189109 
L 177.537435 195.624223 
L 180.816774 195.837998 
L 184.096113 196.841052 
L 187.375452 197.333415 
L 190.654791 198.044575 
L 193.93413 198.019963 
L 197.213468 198.45224 
L 200.492807 200.016237 
L 203.772146 200.450321 
L 207.051485 201.822436 
L 210.330824 202.739048 
L 213.610163 203.727701 
L 216.889502 202.371803 
L 220.16884 203.194329 
L 223.448179 203.933431 
L 226.727518 204.323246 
L 230.006857 204.528748 
L 233.286196 204.183263 
L 236.565535 205.807748 
L 239.844873 205.911976 
L 243.124212 206.595484 
L 246.403551 206.706273 
L 249.68289 206.883379 
L 252.962229 206.977377 
L 256.241568 206.203826 
L 259.520907 206.534884 
L 262.800245 206.454617 
L 266.079584 206.447355 
L 269.358923 206.464812 
L 272.638262 208.038637 
L 275.917601 208.253162 
L 279.19694 209.648649 
L 282.476278 208.987946 
L 285.755617 211.85624 
L 289.034956 212.732539 
L 292.314295 180.684369 
L 295.593634 180.418971 
L 298.872973 180.613533 
L 302.152311 179.953174 
L 305.43165 180.560101 
L 308.710989 180.728213 
L 311.990328 181.370802 
L 315.269667 181.127411 
L 318.549006 181.272973 
L 321.828345 181.922707 
L 325.107683 181.880958 
L 328.387022 181.770579 
L 331.666361 183.316503 
L 334.9457 183.047071 
L 338.225039 183.993333 
L 341.504378 184.259662 
L 344.783716 183.799123 
L 348.063055 183.933767 
L 351.342394 184.215918 
L 354.621733 183.878742 
L 357.901072 184.086942 
L 361.180411 184.394189 
L 364.459749 184.035217 
L 367.739088 184.48508 
L 371.018427 184.911449 
L 374.297766 184.737826 
L 377.577105 185.573058 
L 380.856444 185.138021 
L 384.135783 184.890224 
L 387.415121 185.957609 
L 390.69446 186.45457 
" clip-path="url(#p5af78de25e)" style="fill: none; stroke: #8172b3; stroke-width: 1.5; stroke-linecap: round"/>
   </g>
   <g id="line2d_18"/>
   <g id="line2d_19"/>
   <g id="line2d_20"/>
   <g id="line2d_21"/>
   <g id="line2d_22"/>
   <g id="patch_3">
    <path d="M 49.807187 273.312 
L 49.807187 7.2 
" style="fill: none; stroke: #cccccc; stroke-width: 1.25; stroke-linejoin: miter; stroke-linecap: square"/>
   </g>
   <g id="patch_4">
    <path d="M 406.927188 273.312 
L 406.927188 7.2 
" style="fill: none; stroke: #cccccc; stroke-width: 1.25; stroke-linejoin: miter; stroke-linecap: square"/>
   </g>
   <g id="patch_5">
    <path d="M 49.807187 273.312 
L 406.927188 273.312 
" style="fill: none; stroke: #cccccc; stroke-width: 1.25; stroke-linejoin: miter; stroke-linecap: square"/>
   </g>
   <g id="patch_6">
    <path d="M 49.807187 7.2 
L 406.927188 7.2 
" style="fill: none; stroke: #cccccc; stroke-width: 1.25; stroke-linejoin: miter; stroke-linecap: square"/>
   </g>
   <g id="legend_1">
    <g id="patch_7">
     <path d="M 295.242813 113.843437 
L 399.227188 113.843437 
Q 401.427188 113.843437 401.427188 111.643437 
L 401.427188 14.9 
Q 401.427188 12.7 399.227188 12.7 
L 295.242813 12.7 
Q 293.042813 12.7 293.042813 14.9 
L 293.042813 111.643437 
Q 293.042813 113.843437 295.242813 113.843437 
z
" style="fill: #ffffff; opacity: 0.8; stroke: #cccccc; stroke-linejoin: miter"/>
    </g>
    <g id="text_15">
     <!-- Strategy -->
     <g style="fill: #262626" transform="translate(321.525937 26.218125) scale(0.12 -0.12)">
      <defs>
       <path id="DejaVuSans-53" d="M 3425 4513 
L 3425 3897 
Q 3066 4069 2747 4153 
Q 2428 4238 2131 4238 
Q 1616 4238 1336 4038 
Q 1056 3838 1056 3469 
Q 1056 3159 1242 3001 
Q 1428 2844 1947 2747 
L 2328 2669 
Q 3034 2534 3370 2195 
Q 3706 1856 3706 1288 
Q 3706 609 3251 259 
Q 2797 -91 1919 -91 
Q 1588 -91 1214 -16 
Q 841 59 441 206 
L 441 856 
Q 825 641 1194 531 
Q 1563 422 1919 422 
Q 2459 422 2753 634 
Q 3047 847 3047 1241 
Q 3047 1584 2836 1778 
Q 2625 1972 2144 2069 
L 1759 2144 
Q 1053 2284 737 2584 
Q 422 2884 422 3419 
Q 422 4038 858 4394 
Q 1294 4750 2059 4750 
Q 2388 4750 2728 4690 
Q 3069 4631 3425 4513 
z
" transform="scale(0.015625)"/>
       <path id="DejaVuSans-74" d="M 1172 4494 
L 1172 3500 
L 2356 3500 
L 2356 3053 
L 1172 3053 
L 1172 1153 
Q 1172 725 1289 603 
Q 1406 481 1766 481 
L 2356 481 
L 2356 0 
L 1766 0 
Q 1100 0 847 248 
Q 594 497 594 1153 
L 594 3053 
L 172 3053 
L 172 3500 
L 594 3500 
L 594 4494 
L 1172 4494 
z
" transform="scale(0.015625)"/>
       <path id="DejaVuSans-72" d="M 2631 2963 
Q 2534 3019 2420 3045 
Q 2306 3072 2169 3072 
Q 1681 3072 1420 2755 
Q 1159 2438 1159 1844 
L 1159 0 
L 581 0 
L 581 3500 
L 1159 3500 
L 1159 2956 
Q 1341 3275 1631 3429 
Q 1922 3584 2338 3584 
Q 2397 3584 2469 3576 
Q 2541 3569 2628 3553 
L 2631 2963 
z
" transform="scale(0.015625)"/>
       <path id="DejaVuSans-61" d="M 2194 1759 
Q 1497 1759 1228 1600 
Q 959 1441 959 1056 
Q 959 750 1161 570 
Q 1363 391 1709 391 
Q 2188 391 2477 730 
Q 2766 1069 2766 1631 
L 2766 1759 
L 2194 1759 
z
M 3341 1997 
L 3341 0 
L 2766 0 
L 2766 531 
Q 2569 213 2275 61 
Q 1981 -91 1556 -91 
Q 1019 -91 701 211 
Q 384 513 384 1019 
Q 384 1609 779 1909 
Q 1175 2209 1959 2209 
L 2766 2209 
L 2766 2266 
Q 2766 2663 2505 2880 
Q 2244 3097 1772 3097 
Q 1472 3097 1187 3025 
Q 903 2953 641 2809 
L 641 3341 
Q 956 3463 1253 3523 
Q 1550 3584 1831 3584 
Q 2591 3584 2966 3190 
Q 3341 2797 3341 1997 
z
" transform="scale(0.015625)"/>
       <path id="DejaVuSans-65" d="M 3597 1894 
L 3597 1613 
L 953 1613 
Q 991 1019 1311 708 
Q 1631 397 2203 397 
Q 2534 397 2845 478 
Q 3156 559 3463 722 
L 3463 178 
Q 3153 47 2828 -22 
Q 2503 -91 2169 -91 
Q 1331 -91 842 396 
Q 353 884 353 1716 
Q 353 2575 817 3079 
Q 1281 3584 2069 3584 
Q 2775 3584 3186 3129 
Q 3597 2675 3597 1894 
z
M 3022 2063 
Q 3016 2534 2758 2815 
Q 2500 3097 2075 3097 
Q 1594 3097 1305 2825 
Q 1016 2553 972 2059 
L 3022 2063 
z
" transform="scale(0.015625)"/>
       <path id="DejaVuSans-67" d="M 2906 1791 
Q 2906 2416 2648 2759 
Q 2391 3103 1925 3103 
Q 1463 3103 1205 2759 
Q 947 2416 947 1791 
Q 947 1169 1205 825 
Q 1463 481 1925 481 
Q 2391 481 2648 825 
Q 2906 1169 2906 1791 
z
M 3481 434 
Q 3481 -459 3084 -895 
Q 2688 -1331 1869 -1331 
Q 1566 -1331 1297 -1286 
Q 1028 -1241 775 -1147 
L 775 -588 
Q 1028 -725 1275 -790 
Q 1522 -856 1778 -856 
Q 2344 -856 2625 -561 
Q 2906 -266 2906 331 
L 2906 616 
Q 2728 306 2450 153 
Q 2172 0 1784 0 
Q 1141 0 747 490 
Q 353 981 353 1791 
Q 353 2603 747 3093 
Q 1141 3584 1784 3584 
Q 2172 3584 2450 3431 
Q 2728 3278 2906 2969 
L 2906 3500 
L 3481 3500 
L 3481 434 
z
" transform="scale(0.015625)"/>
       <path id="DejaVuSans-79" d="M 2059 -325 
Q 1816 -950 1584 -1140 
Q 1353 -1331 966 -1331 
L 506 -1331 
L 506 -850 
L 844 -850 
Q 1081 -850 1212 -737 
Q 1344 -625 1503 -206 
L 1606 56 
L 191 3500 
L 800 3500 
L 1894 763 
L 2988 3500 
L 3597 3500 
L 2059 -325 
z
" transform="scale(0.015625)"/>
      </defs>
      <use xlink:href="#DejaVuSans-53"/>
      <use xlink:href="#DejaVuSans-74" x="63.476562"/>
      <use xlink:href="#DejaVuSans-72" x="102.685547"/>
      <use xlink:href="#DejaVuSans-61" x="143.798828"/>
      <use xlink:href="#DejaVuSans-74" x="205.078125"/>
      <use xlink:href="#DejaVuSans-65" x="244.287109"/>
      <use xlink:href="#DejaVuSans-67" x="305.810547"/>
      <use xlink:href="#DejaVuSans-79" x="369.287109"/>
     </g>
    </g>
    <g id="line2d_23">
     <path d="M 297.442813 38.722031 
L 308.442813 38.722031 
L 319.442813 38.722031 
" style="fill: none; stroke: #4c72b0; stroke-width: 1.5; stroke-linecap: round"/>
    </g>
    <g id="text_16">
     <!-- FedPredict -->
     <g style="fill: #262626" transform="translate(328.242813 42.572031) scale(0.11 -0.11)">
      <defs>
       <path id="DejaVuSans-46" d="M 628 4666 
L 3309 4666 
L 3309 4134 
L 1259 4134 
L 1259 2759 
L 3109 2759 
L 3109 2228 
L 1259 2228 
L 1259 0 
L 628 0 
L 628 4666 
z
" transform="scale(0.015625)"/>
       <path id="DejaVuSans-50" d="M 1259 4147 
L 1259 2394 
L 2053 2394 
Q 2494 2394 2734 2622 
Q 2975 2850 2975 3272 
Q 2975 3691 2734 3919 
Q 2494 4147 2053 4147 
L 1259 4147 
z
M 628 4666 
L 2053 4666 
Q 2838 4666 3239 4311 
Q 3641 3956 3641 3272 
Q 3641 2581 3239 2228 
Q 2838 1875 2053 1875 
L 1259 1875 
L 1259 0 
L 628 0 
L 628 4666 
z
" transform="scale(0.015625)"/>
       <path id="DejaVuSans-69" d="M 603 3500 
L 1178 3500 
L 1178 0 
L 603 0 
L 603 3500 
z
M 603 4863 
L 1178 4863 
L 1178 4134 
L 603 4134 
L 603 4863 
z
" transform="scale(0.015625)"/>
       <path id="DejaVuSans-63" d="M 3122 3366 
L 3122 2828 
Q 2878 2963 2633 3030 
Q 2388 3097 2138 3097 
Q 1578 3097 1268 2742 
Q 959 2388 959 1747 
Q 959 1106 1268 751 
Q 1578 397 2138 397 
Q 2388 397 2633 464 
Q 2878 531 3122 666 
L 3122 134 
Q 2881 22 2623 -34 
Q 2366 -91 2075 -91 
Q 1284 -91 818 406 
Q 353 903 353 1747 
Q 353 2603 823 3093 
Q 1294 3584 2113 3584 
Q 2378 3584 2631 3529 
Q 2884 3475 3122 3366 
z
" transform="scale(0.015625)"/>
      </defs>
      <use xlink:href="#DejaVuSans-46"/>
      <use xlink:href="#DejaVuSans-65" x="52.019531"/>
      <use xlink:href="#DejaVuSans-64" x="113.542969"/>
      <use xlink:href="#DejaVuSans-50" x="177.019531"/>
      <use xlink:href="#DejaVuSans-72" x="235.572266"/>
      <use xlink:href="#DejaVuSans-65" x="274.435547"/>
      <use xlink:href="#DejaVuSans-64" x="335.958984"/>
      <use xlink:href="#DejaVuSans-69" x="399.435547"/>
      <use xlink:href="#DejaVuSans-63" x="427.21875"/>
      <use xlink:href="#DejaVuSans-74" x="482.199219"/>
     </g>
    </g>
    <g id="line2d_24">
     <path d="M 297.442813 54.867969 
L 308.442813 54.867969 
L 319.442813 54.867969 
" style="fill: none; stroke: #dd8452; stroke-width: 1.5; stroke-linecap: round"/>
    </g>
    <g id="text_17">
     <!-- FedAVG -->
     <g style="fill: #262626" transform="translate(328.242813 58.717969) scale(0.11 -0.11)">
      <defs>
       <path id="DejaVuSans-41" d="M 2188 4044 
L 1331 1722 
L 3047 1722 
L 2188 4044 
z
M 1831 4666 
L 2547 4666 
L 4325 0 
L 3669 0 
L 3244 1197 
L 1141 1197 
L 716 0 
L 50 0 
L 1831 4666 
z
" transform="scale(0.015625)"/>
       <path id="DejaVuSans-56" d="M 1831 0 
L 50 4666 
L 709 4666 
L 2188 738 
L 3669 4666 
L 4325 4666 
L 2547 0 
L 1831 0 
z
" transform="scale(0.015625)"/>
       <path id="DejaVuSans-47" d="M 3809 666 
L 3809 1919 
L 2778 1919 
L 2778 2438 
L 4434 2438 
L 4434 434 
Q 4069 175 3628 42 
Q 3188 -91 2688 -91 
Q 1594 -91 976 548 
Q 359 1188 359 2328 
Q 359 3472 976 4111 
Q 1594 4750 2688 4750 
Q 3144 4750 3555 4637 
Q 3966 4525 4313 4306 
L 4313 3634 
Q 3963 3931 3569 4081 
Q 3175 4231 2741 4231 
Q 1884 4231 1454 3753 
Q 1025 3275 1025 2328 
Q 1025 1384 1454 906 
Q 1884 428 2741 428 
Q 3075 428 3337 486 
Q 3600 544 3809 666 
z
" transform="scale(0.015625)"/>
      </defs>
      <use xlink:href="#DejaVuSans-46"/>
      <use xlink:href="#DejaVuSans-65" x="52.019531"/>
      <use xlink:href="#DejaVuSans-64" x="113.542969"/>
      <use xlink:href="#DejaVuSans-41" x="177.019531"/>
      <use xlink:href="#DejaVuSans-56" x="239.052734"/>
      <use xlink:href="#DejaVuSans-47" x="307.460938"/>
     </g>
    </g>
    <g id="line2d_25">
     <path d="M 297.442813 71.013906 
L 308.442813 71.013906 
L 319.442813 71.013906 
" style="fill: none; stroke: #55a868; stroke-width: 1.5; stroke-linecap: round"/>
    </g>
    <g id="text_18">
     <!-- FedClassAvg -->
     <g style="fill: #262626" transform="translate(328.242813 74.863906) scale(0.11 -0.11)">
      <defs>
       <path id="DejaVuSans-43" d="M 4122 4306 
L 4122 3641 
Q 3803 3938 3442 4084 
Q 3081 4231 2675 4231 
Q 1875 4231 1450 3742 
Q 1025 3253 1025 2328 
Q 1025 1406 1450 917 
Q 1875 428 2675 428 
Q 3081 428 3442 575 
Q 3803 722 4122 1019 
L 4122 359 
Q 3791 134 3420 21 
Q 3050 -91 2638 -91 
Q 1578 -91 968 557 
Q 359 1206 359 2328 
Q 359 3453 968 4101 
Q 1578 4750 2638 4750 
Q 3056 4750 3426 4639 
Q 3797 4528 4122 4306 
z
" transform="scale(0.015625)"/>
       <path id="DejaVuSans-6c" d="M 603 4863 
L 1178 4863 
L 1178 0 
L 603 0 
L 603 4863 
z
" transform="scale(0.015625)"/>
       <path id="DejaVuSans-76" d="M 191 3500 
L 800 3500 
L 1894 563 
L 2988 3500 
L 3597 3500 
L 2284 0 
L 1503 0 
L 191 3500 
z
" transform="scale(0.015625)"/>
      </defs>
      <use xlink:href="#DejaVuSans-46"/>
      <use xlink:href="#DejaVuSans-65" x="52.019531"/>
      <use xlink:href="#DejaVuSans-64" x="113.542969"/>
      <use xlink:href="#DejaVuSans-43" x="177.019531"/>
      <use xlink:href="#DejaVuSans-6c" x="246.84375"/>
      <use xlink:href="#DejaVuSans-61" x="274.626953"/>
      <use xlink:href="#DejaVuSans-73" x="335.90625"/>
      <use xlink:href="#DejaVuSans-73" x="388.005859"/>
      <use xlink:href="#DejaVuSans-41" x="440.105469"/>
      <use xlink:href="#DejaVuSans-76" x="502.638672"/>
      <use xlink:href="#DejaVuSans-67" x="561.818359"/>
     </g>
    </g>
    <g id="line2d_26">
     <path d="M 297.442813 87.159844 
L 308.442813 87.159844 
L 319.442813 87.159844 
" style="fill: none; stroke: #c44e52; stroke-width: 1.5; stroke-linecap: round"/>
    </g>
    <g id="text_19">
     <!-- FedPer -->
     <g style="fill: #262626" transform="translate(328.242813 91.009844) scale(0.11 -0.11)">
      <use xlink:href="#DejaVuSans-46"/>
      <use xlink:href="#DejaVuSans-65" x="52.019531"/>
      <use xlink:href="#DejaVuSans-64" x="113.542969"/>
      <use xlink:href="#DejaVuSans-50" x="177.019531"/>
      <use xlink:href="#DejaVuSans-65" x="233.697266"/>
      <use xlink:href="#DejaVuSans-72" x="295.220703"/>
     </g>
    </g>
    <g id="line2d_27">
     <path d="M 297.442813 103.305781 
L 308.442813 103.305781 
L 319.442813 103.305781 
" style="fill: none; stroke: #8172b3; stroke-width: 1.5; stroke-linecap: round"/>
    </g>
    <g id="text_20">
     <!-- FedProto -->
     <g style="fill: #262626" transform="translate(328.242813 107.155781) scale(0.11 -0.11)">
      <use xlink:href="#DejaVuSans-46"/>
      <use xlink:href="#DejaVuSans-65" x="52.019531"/>
      <use xlink:href="#DejaVuSans-64" x="113.542969"/>
      <use xlink:href="#DejaVuSans-50" x="177.019531"/>
      <use xlink:href="#DejaVuSans-72" x="235.572266"/>
      <use xlink:href="#DejaVuSans-6f" x="274.435547"/>
      <use xlink:href="#DejaVuSans-74" x="335.617188"/>
      <use xlink:href="#DejaVuSans-6f" x="374.826172"/>
     </g>
    </g>
   </g>
  </g>
 </g>
 <defs>
  <clipPath id="p5af78de25e">
   <rect x="49.807187" y="7.2" width="357.12" height="266.112"/>
  </clipPath>
 </defs>
</svg>
