<?xml version="1.0" encoding="utf-8" standalone="no"?>
<!DOCTYPE svg PUBLIC "-//W3C//DTD SVG 1.1//EN"
  "http://www.w3.org/Graphics/SVG/1.1/DTD/svg11.dtd">
<svg xmlns:xlink="http://www.w3.org/1999/xlink" width="414.127187pt" height="316.271687pt" viewBox="0 0 414.127187 316.271687" xmlns="http://www.w3.org/2000/svg" version="1.1">
 <metadata>
  <rdf:RDF xmlns:dc="http://purl.org/dc/elements/1.1/" xmlns:cc="http://creativecommons.org/ns#" xmlns:rdf="http://www.w3.org/1999/02/22-rdf-syntax-ns#">
   <cc:Work>
    <dc:type rdf:resource="http://purl.org/dc/dcmitype/StillImage"/>
    <dc:date>2023-02-09T16:03:33.947570</dc:date>
    <dc:format>image/svg+xml</dc:format>
    <dc:creator>
     <cc:Agent>
      <dc:title>Matplotlib v3.6.3, https://matplotlib.org/</dc:title>
     </cc:Agent>
    </dc:creator>
   </cc:Work>
  </rdf:RDF>
 </metadata>
 <defs>
  <style type="text/css">*{stroke-linejoin: round; stroke-linecap: butt}</style>
 </defs>
 <g id="figure_1">
  <g id="patch_1">
   <path d="M 0 316.271687 
L 414.127187 316.271687 
L 414.127187 0 
L 0 0 
z
" style="fill: #ffffff"/>
  </g>
  <g id="axes_1">
   <g id="patch_2">
    <path d="M 49.807187 273.312 
L 406.927188 273.312 
L 406.927188 7.2 
L 49.807187 7.2 
z
" style="fill: #ffffff"/>
   </g>
   <g id="matplotlib.axis_1">
    <g id="xtick_1">
     <g id="line2d_1">
      <path d="M 62.760576 273.312 
L 62.760576 7.2 
" clip-path="url(#pc1887efd0f)" style="fill: none; stroke: #cccccc; stroke-linecap: round"/>
     </g>
     <g id="text_1">
      <!-- 0 -->
      <g style="fill: #262626" transform="translate(59.261201 291.170281) scale(0.11 -0.11)">
       <defs>
        <path id="DejaVuSans-30" d="M 2034 4250 
Q 1547 4250 1301 3770 
Q 1056 3291 1056 2328 
Q 1056 1369 1301 889 
Q 1547 409 2034 409 
Q 2525 409 2770 889 
Q 3016 1369 3016 2328 
Q 3016 3291 2770 3770 
Q 2525 4250 2034 4250 
z
M 2034 4750 
Q 2819 4750 3233 4129 
Q 3647 3509 3647 2328 
Q 3647 1150 3233 529 
Q 2819 -91 2034 -91 
Q 1250 -91 836 529 
Q 422 1150 422 2328 
Q 422 3509 836 4129 
Q 1250 4750 2034 4750 
z
" transform="scale(0.015625)"/>
       </defs>
       <use xlink:href="#DejaVuSans-30"/>
      </g>
     </g>
    </g>
    <g id="xtick_2">
     <g id="line2d_2">
      <path d="M 128.347353 273.312 
L 128.347353 7.2 
" clip-path="url(#pc1887efd0f)" style="fill: none; stroke: #cccccc; stroke-linecap: round"/>
     </g>
     <g id="text_2">
      <!-- 20 -->
      <g style="fill: #262626" transform="translate(121.348603 291.170281) scale(0.11 -0.11)">
       <defs>
        <path id="DejaVuSans-32" d="M 1228 531 
L 3431 531 
L 3431 0 
L 469 0 
L 469 531 
Q 828 903 1448 1529 
Q 2069 2156 2228 2338 
Q 2531 2678 2651 2914 
Q 2772 3150 2772 3378 
Q 2772 3750 2511 3984 
Q 2250 4219 1831 4219 
Q 1534 4219 1204 4116 
Q 875 4013 500 3803 
L 500 4441 
Q 881 4594 1212 4672 
Q 1544 4750 1819 4750 
Q 2544 4750 2975 4387 
Q 3406 4025 3406 3419 
Q 3406 3131 3298 2873 
Q 3191 2616 2906 2266 
Q 2828 2175 2409 1742 
Q 1991 1309 1228 531 
z
" transform="scale(0.015625)"/>
       </defs>
       <use xlink:href="#DejaVuSans-32"/>
       <use xlink:href="#DejaVuSans-30" x="63.623047"/>
      </g>
     </g>
    </g>
    <g id="xtick_3">
     <g id="line2d_3">
      <path d="M 193.93413 273.312 
L 193.93413 7.2 
" clip-path="url(#pc1887efd0f)" style="fill: none; stroke: #cccccc; stroke-linecap: round"/>
     </g>
     <g id="text_3">
      <!-- 40 -->
      <g style="fill: #262626" transform="translate(186.93538 291.170281) scale(0.11 -0.11)">
       <defs>
        <path id="DejaVuSans-34" d="M 2419 4116 
L 825 1625 
L 2419 1625 
L 2419 4116 
z
M 2253 4666 
L 3047 4666 
L 3047 1625 
L 3713 1625 
L 3713 1100 
L 3047 1100 
L 3047 0 
L 2419 0 
L 2419 1100 
L 313 1100 
L 313 1709 
L 2253 4666 
z
" transform="scale(0.015625)"/>
       </defs>
       <use xlink:href="#DejaVuSans-34"/>
       <use xlink:href="#DejaVuSans-30" x="63.623047"/>
      </g>
     </g>
    </g>
    <g id="xtick_4">
     <g id="line2d_4">
      <path d="M 259.520907 273.312 
L 259.520907 7.2 
" clip-path="url(#pc1887efd0f)" style="fill: none; stroke: #cccccc; stroke-linecap: round"/>
     </g>
     <g id="text_4">
      <!-- 60 -->
      <g style="fill: #262626" transform="translate(252.522157 291.170281) scale(0.11 -0.11)">
       <defs>
        <path id="DejaVuSans-36" d="M 2113 2584 
Q 1688 2584 1439 2293 
Q 1191 2003 1191 1497 
Q 1191 994 1439 701 
Q 1688 409 2113 409 
Q 2538 409 2786 701 
Q 3034 994 3034 1497 
Q 3034 2003 2786 2293 
Q 2538 2584 2113 2584 
z
M 3366 4563 
L 3366 3988 
Q 3128 4100 2886 4159 
Q 2644 4219 2406 4219 
Q 1781 4219 1451 3797 
Q 1122 3375 1075 2522 
Q 1259 2794 1537 2939 
Q 1816 3084 2150 3084 
Q 2853 3084 3261 2657 
Q 3669 2231 3669 1497 
Q 3669 778 3244 343 
Q 2819 -91 2113 -91 
Q 1303 -91 875 529 
Q 447 1150 447 2328 
Q 447 3434 972 4092 
Q 1497 4750 2381 4750 
Q 2619 4750 2861 4703 
Q 3103 4656 3366 4563 
z
" transform="scale(0.015625)"/>
       </defs>
       <use xlink:href="#DejaVuSans-36"/>
       <use xlink:href="#DejaVuSans-30" x="63.623047"/>
      </g>
     </g>
    </g>
    <g id="xtick_5">
     <g id="line2d_5">
      <path d="M 325.107683 273.312 
L 325.107683 7.2 
" clip-path="url(#pc1887efd0f)" style="fill: none; stroke: #cccccc; stroke-linecap: round"/>
     </g>
     <g id="text_5">
      <!-- 80 -->
      <g style="fill: #262626" transform="translate(318.108933 291.170281) scale(0.11 -0.11)">
       <defs>
        <path id="DejaVuSans-38" d="M 2034 2216 
Q 1584 2216 1326 1975 
Q 1069 1734 1069 1313 
Q 1069 891 1326 650 
Q 1584 409 2034 409 
Q 2484 409 2743 651 
Q 3003 894 3003 1313 
Q 3003 1734 2745 1975 
Q 2488 2216 2034 2216 
z
M 1403 2484 
Q 997 2584 770 2862 
Q 544 3141 544 3541 
Q 544 4100 942 4425 
Q 1341 4750 2034 4750 
Q 2731 4750 3128 4425 
Q 3525 4100 3525 3541 
Q 3525 3141 3298 2862 
Q 3072 2584 2669 2484 
Q 3125 2378 3379 2068 
Q 3634 1759 3634 1313 
Q 3634 634 3220 271 
Q 2806 -91 2034 -91 
Q 1263 -91 848 271 
Q 434 634 434 1313 
Q 434 1759 690 2068 
Q 947 2378 1403 2484 
z
M 1172 3481 
Q 1172 3119 1398 2916 
Q 1625 2713 2034 2713 
Q 2441 2713 2670 2916 
Q 2900 3119 2900 3481 
Q 2900 3844 2670 4047 
Q 2441 4250 2034 4250 
Q 1625 4250 1398 4047 
Q 1172 3844 1172 3481 
z
" transform="scale(0.015625)"/>
       </defs>
       <use xlink:href="#DejaVuSans-38"/>
       <use xlink:href="#DejaVuSans-30" x="63.623047"/>
      </g>
     </g>
    </g>
    <g id="xtick_6">
     <g id="line2d_6">
      <path d="M 390.69446 273.312 
L 390.69446 7.2 
" clip-path="url(#pc1887efd0f)" style="fill: none; stroke: #cccccc; stroke-linecap: round"/>
     </g>
     <g id="text_6">
      <!-- 100 -->
      <g style="fill: #262626" transform="translate(380.196335 291.170281) scale(0.11 -0.11)">
       <defs>
        <path id="DejaVuSans-31" d="M 794 531 
L 1825 531 
L 1825 4091 
L 703 3866 
L 703 4441 
L 1819 4666 
L 2450 4666 
L 2450 531 
L 3481 531 
L 3481 0 
L 794 0 
L 794 531 
z
" transform="scale(0.015625)"/>
       </defs>
       <use xlink:href="#DejaVuSans-31"/>
       <use xlink:href="#DejaVuSans-30" x="63.623047"/>
       <use xlink:href="#DejaVuSans-30" x="127.246094"/>
      </g>
     </g>
    </g>
    <g id="text_7">
     <!-- Round -->
     <g style="fill: #262626" transform="translate(209.382812 306.576062) scale(0.12 -0.12)">
      <defs>
       <path id="DejaVuSans-52" d="M 2841 2188 
Q 3044 2119 3236 1894 
Q 3428 1669 3622 1275 
L 4263 0 
L 3584 0 
L 2988 1197 
Q 2756 1666 2539 1819 
Q 2322 1972 1947 1972 
L 1259 1972 
L 1259 0 
L 628 0 
L 628 4666 
L 2053 4666 
Q 2853 4666 3247 4331 
Q 3641 3997 3641 3322 
Q 3641 2881 3436 2590 
Q 3231 2300 2841 2188 
z
M 1259 4147 
L 1259 2491 
L 2053 2491 
Q 2509 2491 2742 2702 
Q 2975 2913 2975 3322 
Q 2975 3731 2742 3939 
Q 2509 4147 2053 4147 
L 1259 4147 
z
" transform="scale(0.015625)"/>
       <path id="DejaVuSans-6f" d="M 1959 3097 
Q 1497 3097 1228 2736 
Q 959 2375 959 1747 
Q 959 1119 1226 758 
Q 1494 397 1959 397 
Q 2419 397 2687 759 
Q 2956 1122 2956 1747 
Q 2956 2369 2687 2733 
Q 2419 3097 1959 3097 
z
M 1959 3584 
Q 2709 3584 3137 3096 
Q 3566 2609 3566 1747 
Q 3566 888 3137 398 
Q 2709 -91 1959 -91 
Q 1206 -91 779 398 
Q 353 888 353 1747 
Q 353 2609 779 3096 
Q 1206 3584 1959 3584 
z
" transform="scale(0.015625)"/>
       <path id="DejaVuSans-75" d="M 544 1381 
L 544 3500 
L 1119 3500 
L 1119 1403 
Q 1119 906 1312 657 
Q 1506 409 1894 409 
Q 2359 409 2629 706 
Q 2900 1003 2900 1516 
L 2900 3500 
L 3475 3500 
L 3475 0 
L 2900 0 
L 2900 538 
Q 2691 219 2414 64 
Q 2138 -91 1772 -91 
Q 1169 -91 856 284 
Q 544 659 544 1381 
z
M 1991 3584 
L 1991 3584 
z
" transform="scale(0.015625)"/>
       <path id="DejaVuSans-6e" d="M 3513 2113 
L 3513 0 
L 2938 0 
L 2938 2094 
Q 2938 2591 2744 2837 
Q 2550 3084 2163 3084 
Q 1697 3084 1428 2787 
Q 1159 2491 1159 1978 
L 1159 0 
L 581 0 
L 581 3500 
L 1159 3500 
L 1159 2956 
Q 1366 3272 1645 3428 
Q 1925 3584 2291 3584 
Q 2894 3584 3203 3211 
Q 3513 2838 3513 2113 
z
" transform="scale(0.015625)"/>
       <path id="DejaVuSans-64" d="M 2906 2969 
L 2906 4863 
L 3481 4863 
L 3481 0 
L 2906 0 
L 2906 525 
Q 2725 213 2448 61 
Q 2172 -91 1784 -91 
Q 1150 -91 751 415 
Q 353 922 353 1747 
Q 353 2572 751 3078 
Q 1150 3584 1784 3584 
Q 2172 3584 2448 3432 
Q 2725 3281 2906 2969 
z
M 947 1747 
Q 947 1113 1208 752 
Q 1469 391 1925 391 
Q 2381 391 2643 752 
Q 2906 1113 2906 1747 
Q 2906 2381 2643 2742 
Q 2381 3103 1925 3103 
Q 1469 3103 1208 2742 
Q 947 2381 947 1747 
z
" transform="scale(0.015625)"/>
      </defs>
      <use xlink:href="#DejaVuSans-52"/>
      <use xlink:href="#DejaVuSans-6f" x="64.982422"/>
      <use xlink:href="#DejaVuSans-75" x="126.164062"/>
      <use xlink:href="#DejaVuSans-6e" x="189.542969"/>
      <use xlink:href="#DejaVuSans-64" x="252.921875"/>
     </g>
    </g>
   </g>
   <g id="matplotlib.axis_2">
    <g id="ytick_1">
     <g id="line2d_7">
      <path d="M 49.807187 262.384885 
L 406.927188 262.384885 
" clip-path="url(#pc1887efd0f)" style="fill: none; stroke: #cccccc; stroke-linecap: round"/>
     </g>
     <g id="text_8">
      <!-- 0.5 -->
      <g style="fill: #262626" transform="translate(22.81375 266.564026) scale(0.11 -0.11)">
       <defs>
        <path id="DejaVuSans-2e" d="M 684 794 
L 1344 794 
L 1344 0 
L 684 0 
L 684 794 
z
" transform="scale(0.015625)"/>
        <path id="DejaVuSans-35" d="M 691 4666 
L 3169 4666 
L 3169 4134 
L 1269 4134 
L 1269 2991 
Q 1406 3038 1543 3061 
Q 1681 3084 1819 3084 
Q 2600 3084 3056 2656 
Q 3513 2228 3513 1497 
Q 3513 744 3044 326 
Q 2575 -91 1722 -91 
Q 1428 -91 1123 -41 
Q 819 9 494 109 
L 494 744 
Q 775 591 1075 516 
Q 1375 441 1709 441 
Q 2250 441 2565 725 
Q 2881 1009 2881 1497 
Q 2881 1984 2565 2268 
Q 2250 2553 1709 2553 
Q 1456 2553 1204 2497 
Q 953 2441 691 2322 
L 691 4666 
z
" transform="scale(0.015625)"/>
       </defs>
       <use xlink:href="#DejaVuSans-30"/>
       <use xlink:href="#DejaVuSans-2e" x="63.623047"/>
       <use xlink:href="#DejaVuSans-35" x="95.410156"/>
      </g>
     </g>
    </g>
    <g id="ytick_2">
     <g id="line2d_8">
      <path d="M 49.807187 206.608955 
L 406.927188 206.608955 
" clip-path="url(#pc1887efd0f)" style="fill: none; stroke: #cccccc; stroke-linecap: round"/>
     </g>
     <g id="text_9">
      <!-- 1.0 -->
      <g style="fill: #262626" transform="translate(22.81375 210.788095) scale(0.11 -0.11)">
       <use xlink:href="#DejaVuSans-31"/>
       <use xlink:href="#DejaVuSans-2e" x="63.623047"/>
       <use xlink:href="#DejaVuSans-30" x="95.410156"/>
      </g>
     </g>
    </g>
    <g id="ytick_3">
     <g id="line2d_9">
      <path d="M 49.807187 150.833024 
L 406.927188 150.833024 
" clip-path="url(#pc1887efd0f)" style="fill: none; stroke: #cccccc; stroke-linecap: round"/>
     </g>
     <g id="text_10">
      <!-- 1.5 -->
      <g style="fill: #262626" transform="translate(22.81375 155.012164) scale(0.11 -0.11)">
       <use xlink:href="#DejaVuSans-31"/>
       <use xlink:href="#DejaVuSans-2e" x="63.623047"/>
       <use xlink:href="#DejaVuSans-35" x="95.410156"/>
      </g>
     </g>
    </g>
    <g id="ytick_4">
     <g id="line2d_10">
      <path d="M 49.807187 95.057093 
L 406.927188 95.057093 
" clip-path="url(#pc1887efd0f)" style="fill: none; stroke: #cccccc; stroke-linecap: round"/>
     </g>
     <g id="text_11">
      <!-- 2.0 -->
      <g style="fill: #262626" transform="translate(22.81375 99.236234) scale(0.11 -0.11)">
       <use xlink:href="#DejaVuSans-32"/>
       <use xlink:href="#DejaVuSans-2e" x="63.623047"/>
       <use xlink:href="#DejaVuSans-30" x="95.410156"/>
      </g>
     </g>
    </g>
    <g id="ytick_5">
     <g id="line2d_11">
      <path d="M 49.807187 39.281162 
L 406.927188 39.281162 
" clip-path="url(#pc1887efd0f)" style="fill: none; stroke: #cccccc; stroke-linecap: round"/>
     </g>
     <g id="text_12">
      <!-- 2.5 -->
      <g style="fill: #262626" transform="translate(22.81375 43.460303) scale(0.11 -0.11)">
       <use xlink:href="#DejaVuSans-32"/>
       <use xlink:href="#DejaVuSans-2e" x="63.623047"/>
       <use xlink:href="#DejaVuSans-35" x="95.410156"/>
      </g>
     </g>
    </g>
    <g id="text_13">
     <!-- Loss -->
     <g style="fill: #262626" transform="translate(16.318125 153.416625) rotate(-90) scale(0.12 -0.12)">
      <defs>
       <path id="DejaVuSans-4c" d="M 628 4666 
L 1259 4666 
L 1259 531 
L 3531 531 
L 3531 0 
L 628 0 
L 628 4666 
z
" transform="scale(0.015625)"/>
       <path id="DejaVuSans-73" d="M 2834 3397 
L 2834 2853 
Q 2591 2978 2328 3040 
Q 2066 3103 1784 3103 
Q 1356 3103 1142 2972 
Q 928 2841 928 2578 
Q 928 2378 1081 2264 
Q 1234 2150 1697 2047 
L 1894 2003 
Q 2506 1872 2764 1633 
Q 3022 1394 3022 966 
Q 3022 478 2636 193 
Q 2250 -91 1575 -91 
Q 1294 -91 989 -36 
Q 684 19 347 128 
L 347 722 
Q 666 556 975 473 
Q 1284 391 1588 391 
Q 1994 391 2212 530 
Q 2431 669 2431 922 
Q 2431 1156 2273 1281 
Q 2116 1406 1581 1522 
L 1381 1569 
Q 847 1681 609 1914 
Q 372 2147 372 2553 
Q 372 3047 722 3315 
Q 1072 3584 1716 3584 
Q 2034 3584 2315 3537 
Q 2597 3491 2834 3397 
z
" transform="scale(0.015625)"/>
      </defs>
      <use xlink:href="#DejaVuSans-4c"/>
      <use xlink:href="#DejaVuSans-6f" x="53.962891"/>
      <use xlink:href="#DejaVuSans-73" x="115.144531"/>
      <use xlink:href="#DejaVuSans-73" x="167.244141"/>
     </g>
    </g>
   </g>
   <g id="PolyCollection_1">
    <defs>
     <path id="me63fd89e67" d="M 66.039915 -274.014137 
L 66.039915 -220.600962 
L 69.319254 -184.871581 
L 72.598592 -144.996315 
L 75.877931 -144.621058 
L 79.15727 -127.973425 
L 82.436609 -133.504941 
L 85.715948 -121.523844 
L 88.995287 -123.622027 
L 92.274626 -116.681829 
L 95.553964 -117.756845 
L 98.833303 -103.827692 
L 102.112642 -116.003054 
L 105.391981 -109.80435 
L 108.67132 -98.005931 
L 111.950659 -99.497085 
L 115.229997 -101.954146 
L 118.509336 -93.49871 
L 121.788675 -90.430071 
L 125.068014 -93.981969 
L 128.347353 -94.427298 
L 131.626692 -89.144854 
L 134.90603 -83.609684 
L 138.185369 -84.599105 
L 141.464708 -85.61639 
L 144.744047 -77.726387 
L 148.023386 -80.689179 
L 151.302725 -79.660404 
L 154.582064 -81.212215 
L 157.861402 -76.896937 
L 161.140741 -75.076036 
L 164.42008 -77.35087 
L 167.699419 -74.797193 
L 170.978758 -69.275251 
L 174.258097 -72.92156 
L 177.537435 -74.044509 
L 180.816774 -69.993566 
L 184.096113 -71.635679 
L 187.375452 -74.327912 
L 190.654791 -70.025624 
L 193.93413 -68.015265 
L 197.213468 -69.042476 
L 200.492807 -66.501208 
L 203.772146 -69.606044 
L 207.051485 -66.155294 
L 210.330824 -67.610561 
L 213.610163 -69.269698 
L 216.889502 -66.356839 
L 220.16884 -62.974417 
L 223.448179 -65.006147 
L 226.727518 -65.646192 
L 230.006857 -64.671921 
L 233.286196 -63.280477 
L 236.565535 -62.263464 
L 239.844873 -60.146436 
L 243.124212 -63.458607 
L 246.403551 -63.786416 
L 249.68289 -60.504818 
L 252.962229 -63.555503 
L 256.241568 -60.34873 
L 259.520907 -59.917403 
L 262.800245 -62.29013 
L 266.079584 -60.204084 
L 269.358923 -56.420393 
L 272.638262 -56.781699 
L 275.917601 -56.826192 
L 279.19694 -58.564876 
L 282.476278 -56.759231 
L 285.755617 -56.771846 
L 289.034956 -55.055687 
L 292.314295 -79.880674 
L 295.593634 -83.653739 
L 298.872973 -85.280936 
L 302.152311 -77.799363 
L 305.43165 -79.925977 
L 308.710989 -74.131912 
L 311.990328 -78.27011 
L 315.269667 -89.427718 
L 318.549006 -75.17814 
L 321.828345 -73.478051 
L 325.107683 -87.032781 
L 328.387022 -81.332043 
L 331.666361 -73.820681 
L 334.9457 -80.418599 
L 338.225039 -82.575772 
L 341.504378 -86.971321 
L 344.783716 -77.815266 
L 348.063055 -90.811442 
L 351.342394 -105.91587 
L 354.621733 -74.755615 
L 357.901072 -76.011758 
L 361.180411 -80.073507 
L 364.459749 -75.132857 
L 367.739088 -79.883624 
L 371.018427 -74.663801 
L 374.297766 -72.456785 
L 377.577105 -75.539135 
L 380.856444 -74.653898 
L 384.135783 -76.449936 
L 387.415121 -77.332221 
L 390.69446 -74.516797 
L 390.69446 -104.911755 
L 390.69446 -104.911755 
L 387.415121 -113.792993 
L 384.135783 -111.877033 
L 380.856444 -107.041626 
L 377.577105 -110.186543 
L 374.297766 -102.923653 
L 371.018427 -108.467893 
L 367.739088 -115.858651 
L 364.459749 -107.664407 
L 361.180411 -114.236234 
L 357.901072 -105.358877 
L 354.621733 -100.999884 
L 351.342394 -168.776505 
L 348.063055 -140.920698 
L 344.783716 -111.245972 
L 341.504378 -126.314617 
L 338.225039 -121.064089 
L 334.9457 -119.624995 
L 331.666361 -104.598616 
L 328.387022 -116.845517 
L 325.107683 -126.857271 
L 321.828345 -99.174563 
L 318.549006 -106.764606 
L 315.269667 -130.336344 
L 311.990328 -109.265105 
L 308.710989 -99.602909 
L 305.43165 -110.120522 
L 302.152311 -109.54656 
L 298.872973 -123.377285 
L 295.593634 -118.144691 
L 292.314295 -107.77361 
L 289.034956 -77.656659 
L 285.755617 -77.548877 
L 282.476278 -77.870656 
L 279.19694 -82.867562 
L 275.917601 -80.337605 
L 272.638262 -78.273366 
L 269.358923 -77.260813 
L 266.079584 -83.889553 
L 262.800245 -86.739038 
L 259.520907 -80.592435 
L 256.241568 -80.974761 
L 252.962229 -85.267079 
L 249.68289 -81.043929 
L 246.403551 -83.966757 
L 243.124212 -84.933977 
L 239.844873 -81.405669 
L 236.565535 -84.182969 
L 233.286196 -83.529705 
L 230.006857 -88.103848 
L 226.727518 -90.108611 
L 223.448179 -87.053381 
L 220.16884 -84.227566 
L 216.889502 -87.868282 
L 213.610163 -92.517657 
L 210.330824 -90.035912 
L 207.051485 -88.714347 
L 203.772146 -91.884861 
L 200.492807 -86.387224 
L 197.213468 -90.849732 
L 193.93413 -89.982287 
L 190.654791 -89.900253 
L 187.375452 -96.878534 
L 184.096113 -95.20463 
L 180.816774 -92.76652 
L 177.537435 -96.866171 
L 174.258097 -97.504902 
L 170.978758 -92.858759 
L 167.699419 -101.413665 
L 164.42008 -98.922453 
L 161.140741 -100.542154 
L 157.861402 -104.815101 
L 154.582064 -105.625677 
L 151.302725 -105.455534 
L 148.023386 -102.642798 
L 144.744047 -100.570978 
L 141.464708 -109.590539 
L 138.185369 -113.360507 
L 134.90603 -107.824309 
L 131.626692 -115.033427 
L 128.347353 -120.707786 
L 125.068014 -119.64097 
L 121.788675 -115.839475 
L 118.509336 -120.587084 
L 115.229997 -131.15909 
L 111.950659 -127.919333 
L 108.67132 -134.331779 
L 105.391981 -146.240944 
L 102.112642 -163.152405 
L 98.833303 -137.47848 
L 95.553964 -152.539951 
L 92.274626 -148.193649 
L 88.995287 -165.843615 
L 85.715948 -171.981534 
L 82.436609 -182.622463 
L 79.15727 -171.822575 
L 75.877931 -193.59353 
L 72.598592 -193.855935 
L 69.319254 -245.678334 
L 66.039915 -274.014137 
z
" style="stroke: #4c72b0; stroke-opacity: 0.2"/>
    </defs>
    <g clip-path="url(#pc1887efd0f)">
     <use xlink:href="#me63fd89e67" x="0" y="316.271687" style="fill: #4c72b0; fill-opacity: 0.2; stroke: #4c72b0; stroke-opacity: 0.2"/>
    </g>
   </g>
   <g id="PolyCollection_2">
    <defs>
     <path id="m5d832b24bd" d="M 66.039915 -296.975687 
L 66.039915 -267.972127 
L 69.319254 -258.565846 
L 72.598592 -234.711787 
L 75.877931 -238.048578 
L 79.15727 -238.806901 
L 82.436609 -235.996202 
L 85.715948 -224.299165 
L 88.995287 -224.167797 
L 92.274626 -211.345589 
L 95.553964 -225.536988 
L 98.833303 -203.584847 
L 102.112642 -241.155338 
L 105.391981 -215.34208 
L 108.67132 -198.954003 
L 111.950659 -189.462056 
L 115.229997 -204.035787 
L 118.509336 -190.746838 
L 121.788675 -188.894221 
L 125.068014 -183.188027 
L 128.347353 -186.820727 
L 131.626692 -198.844786 
L 134.90603 -182.222691 
L 138.185369 -196.953322 
L 141.464708 -186.568384 
L 144.744047 -169.300609 
L 148.023386 -173.079987 
L 151.302725 -181.799918 
L 154.582064 -181.034942 
L 157.861402 -181.759085 
L 161.140741 -199.081897 
L 164.42008 -176.831824 
L 167.699419 -177.636266 
L 170.978758 -169.264916 
L 174.258097 -189.382706 
L 177.537435 -173.541646 
L 180.816774 -172.808193 
L 184.096113 -172.850265 
L 187.375452 -224.254315 
L 190.654791 -170.316169 
L 193.93413 -165.606689 
L 197.213468 -182.294417 
L 200.492807 -162.299569 
L 203.772146 -162.678647 
L 207.051485 -161.566536 
L 210.330824 -165.335464 
L 213.610163 -159.436451 
L 216.889502 -165.759605 
L 220.16884 -146.531325 
L 223.448179 -161.160002 
L 226.727518 -191.26236 
L 230.006857 -170.531069 
L 233.286196 -152.341594 
L 236.565535 -156.11318 
L 239.844873 -144.871295 
L 243.124212 -155.104765 
L 246.403551 -157.740896 
L 249.68289 -140.086312 
L 252.962229 -157.014465 
L 256.241568 -178.770313 
L 259.520907 -145.004358 
L 262.800245 -165.07971 
L 266.079584 -154.006959 
L 269.358923 -143.451817 
L 272.638262 -150.390978 
L 275.917601 -152.324041 
L 279.19694 -152.990155 
L 282.476278 -146.151431 
L 285.755617 -149.065357 
L 289.034956 -152.714345 
L 292.314295 -140.273416 
L 295.593634 -157.253108 
L 298.872973 -162.788633 
L 302.152311 -139.085191 
L 305.43165 -145.574676 
L 308.710989 -139.360926 
L 311.990328 -150.10722 
L 315.269667 -183.962722 
L 318.549006 -137.33348 
L 321.828345 -131.949528 
L 325.107683 -162.98247 
L 328.387022 -157.012205 
L 331.666361 -134.650431 
L 334.9457 -154.166028 
L 338.225039 -154.039207 
L 341.504378 -171.894481 
L 344.783716 -145.331542 
L 348.063055 -179.258177 
L 351.342394 -235.430127 
L 354.621733 -133.237315 
L 357.901072 -146.400959 
L 361.180411 -148.007673 
L 364.459749 -141.545143 
L 367.739088 -154.612121 
L 371.018427 -141.814182 
L 374.297766 -138.050633 
L 377.577105 -148.278887 
L 380.856444 -142.919698 
L 384.135783 -149.287174 
L 387.415121 -141.143223 
L 390.69446 -132.419552 
L 390.69446 -154.094763 
L 390.69446 -154.094763 
L 387.415121 -164.313688 
L 384.135783 -177.731831 
L 380.856444 -166.284024 
L 377.577105 -177.928985 
L 374.297766 -166.784425 
L 371.018427 -164.922587 
L 367.739088 -182.343378 
L 364.459749 -168.981146 
L 361.180411 -176.931632 
L 357.901072 -170.225572 
L 354.621733 -165.489678 
L 351.342394 -292.666453 
L 348.063055 -220.736112 
L 344.783716 -171.448095 
L 341.504378 -201.459768 
L 338.225039 -193.490113 
L 334.9457 -185.726396 
L 331.666361 -160.482574 
L 328.387022 -182.095419 
L 325.107683 -190.057235 
L 321.828345 -148.205848 
L 318.549006 -164.28081 
L 315.269667 -216.807361 
L 311.990328 -174.779917 
L 308.710989 -147.273441 
L 305.43165 -164.346409 
L 302.152311 -168.966349 
L 298.872973 -195.759244 
L 295.593634 -184.993437 
L 292.314295 -160.439442 
L 289.034956 -190.154704 
L 285.755617 -194.163857 
L 282.476278 -195.095889 
L 279.19694 -185.039171 
L 275.917601 -189.570296 
L 272.638262 -184.276373 
L 269.358923 -166.970163 
L 266.079584 -188.143689 
L 262.800245 -209.86165 
L 259.520907 -178.139041 
L 256.241568 -222.618412 
L 252.962229 -190.232196 
L 249.68289 -165.480923 
L 246.403551 -189.058976 
L 243.124212 -191.757354 
L 239.844873 -169.954258 
L 236.565535 -185.078231 
L 233.286196 -175.980528 
L 230.006857 -205.627995 
L 226.727518 -239.325751 
L 223.448179 -192.704158 
L 220.16884 -166.156406 
L 216.889502 -210.383622 
L 213.610163 -194.348205 
L 210.330824 -199.451711 
L 207.051485 -190.890503 
L 203.772146 -194.700762 
L 200.492807 -183.307747 
L 197.213468 -212.508966 
L 193.93413 -200.33355 
L 190.654791 -211.430793 
L 187.375452 -272.09116 
L 184.096113 -202.752443 
L 180.816774 -205.820193 
L 177.537435 -212.085053 
L 174.258097 -223.680369 
L 170.978758 -199.357621 
L 167.699419 -223.104321 
L 164.42008 -202.966538 
L 161.140741 -246.876899 
L 157.861402 -226.25568 
L 154.582064 -206.391007 
L 151.302725 -223.048349 
L 148.023386 -184.247654 
L 144.744047 -188.124709 
L 141.464708 -217.253645 
L 138.185369 -252.245982 
L 134.90603 -211.579048 
L 131.626692 -233.390832 
L 128.347353 -221.781234 
L 125.068014 -207.671612 
L 121.788675 -213.009563 
L 118.509336 -219.754578 
L 115.229997 -247.16898 
L 111.950659 -218.050994 
L 108.67132 -221.610178 
L 105.391981 -257.095507 
L 102.112642 -296.907194 
L 98.833303 -232.027611 
L 95.553964 -266.366135 
L 92.274626 -265.627929 
L 88.995287 -261.478665 
L 85.715948 -266.304968 
L 82.436609 -265.941129 
L 79.15727 -271.37947 
L 75.877931 -280.657016 
L 72.598592 -267.951923 
L 69.319254 -293.359252 
L 66.039915 -296.975687 
z
" style="stroke: #dd8452; stroke-opacity: 0.2"/>
    </defs>
    <g clip-path="url(#pc1887efd0f)">
     <use xlink:href="#m5d832b24bd" x="0" y="316.271687" style="fill: #dd8452; fill-opacity: 0.2; stroke: #dd8452; stroke-opacity: 0.2"/>
    </g>
   </g>
   <g id="PolyCollection_3">
    <defs>
     <path id="m1751700dce" d="M 66.039915 -271.829122 
L 66.039915 -224.587813 
L 69.319254 -190.520395 
L 72.598592 -155.365745 
L 75.877931 -151.016253 
L 79.15727 -140.491868 
L 82.436609 -136.07601 
L 85.715948 -128.866473 
L 88.995287 -124.529083 
L 92.274626 -113.860593 
L 95.553964 -114.455785 
L 98.833303 -113.241812 
L 102.112642 -118.597716 
L 105.391981 -122.103565 
L 108.67132 -115.653976 
L 111.950659 -114.615783 
L 115.229997 -111.682712 
L 118.509336 -111.243017 
L 121.788675 -109.148642 
L 125.068014 -105.401012 
L 128.347353 -105.624945 
L 131.626692 -106.675421 
L 134.90603 -104.132549 
L 138.185369 -100.724587 
L 141.464708 -102.97501 
L 144.744047 -102.318058 
L 148.023386 -99.243979 
L 151.302725 -100.379729 
L 154.582064 -100.381426 
L 157.861402 -98.026564 
L 161.140741 -96.992873 
L 164.42008 -97.195983 
L 167.699419 -93.444354 
L 170.978758 -95.139174 
L 174.258097 -92.36258 
L 177.537435 -91.750002 
L 180.816774 -89.372269 
L 184.096113 -87.899692 
L 187.375452 -87.324314 
L 190.654791 -87.838548 
L 193.93413 -89.289725 
L 197.213468 -87.440535 
L 200.492807 -86.137983 
L 203.772146 -87.84859 
L 207.051485 -88.159041 
L 210.330824 -85.744304 
L 213.610163 -82.998938 
L 216.889502 -79.233987 
L 220.16884 -80.058869 
L 223.448179 -80.583964 
L 226.727518 -80.676076 
L 230.006857 -81.385131 
L 233.286196 -79.391828 
L 236.565535 -83.683762 
L 239.844873 -85.915718 
L 243.124212 -85.861202 
L 246.403551 -82.051313 
L 249.68289 -74.582039 
L 252.962229 -76.130409 
L 256.241568 -77.235307 
L 259.520907 -79.759913 
L 262.800245 -79.574621 
L 266.079584 -79.586956 
L 269.358923 -79.939894 
L 272.638262 -77.433221 
L 275.917601 -75.389124 
L 279.19694 -73.989078 
L 282.476278 -75.253265 
L 285.755617 -74.898931 
L 289.034956 -75.904302 
L 292.314295 -114.5509 
L 295.593634 -116.528952 
L 298.872973 -116.588534 
L 302.152311 -114.926375 
L 305.43165 -115.845631 
L 308.710989 -113.704219 
L 311.990328 -115.63964 
L 315.269667 -115.314323 
L 318.549006 -111.842377 
L 321.828345 -112.941761 
L 325.107683 -112.989526 
L 328.387022 -114.912529 
L 331.666361 -111.635957 
L 334.9457 -112.554761 
L 338.225039 -113.596933 
L 341.504378 -113.523087 
L 344.783716 -114.178678 
L 348.063055 -111.402968 
L 351.342394 -112.344718 
L 354.621733 -110.613762 
L 357.901072 -110.647262 
L 361.180411 -112.708303 
L 364.459749 -111.605788 
L 367.739088 -112.826617 
L 371.018427 -111.400806 
L 374.297766 -110.983519 
L 377.577105 -109.449533 
L 380.856444 -109.533294 
L 384.135783 -108.439411 
L 387.415121 -110.742016 
L 390.69446 -109.70364 
L 390.69446 -155.832275 
L 390.69446 -155.832275 
L 387.415121 -157.574137 
L 384.135783 -156.874224 
L 380.856444 -155.994108 
L 377.577105 -159.841999 
L 374.297766 -159.395355 
L 371.018427 -159.331013 
L 367.739088 -160.71971 
L 364.459749 -159.694165 
L 361.180411 -159.275729 
L 357.901072 -159.040226 
L 354.621733 -158.46497 
L 351.342394 -159.999951 
L 348.063055 -160.191607 
L 344.783716 -162.247216 
L 341.504378 -161.760048 
L 338.225039 -161.130679 
L 334.9457 -159.051408 
L 331.666361 -161.664131 
L 328.387022 -163.235141 
L 325.107683 -161.034012 
L 321.828345 -159.922267 
L 318.549006 -158.39096 
L 315.269667 -160.121305 
L 311.990328 -160.605018 
L 308.710989 -158.368871 
L 305.43165 -162.233629 
L 302.152311 -162.902233 
L 298.872973 -162.038702 
L 295.593634 -159.910365 
L 292.314295 -163.174345 
L 289.034956 -104.220099 
L 285.755617 -103.674379 
L 282.476278 -104.300055 
L 279.19694 -103.020068 
L 275.917601 -104.284673 
L 272.638262 -110.302006 
L 269.358923 -110.417081 
L 266.079584 -110.491186 
L 262.800245 -108.845997 
L 259.520907 -108.694074 
L 256.241568 -108.655907 
L 252.962229 -104.541676 
L 249.68289 -104.168715 
L 246.403551 -110.418414 
L 243.124212 -115.256714 
L 239.844873 -115.31948 
L 236.565535 -113.51658 
L 233.286196 -110.662512 
L 230.006857 -113.167215 
L 226.727518 -111.922064 
L 223.448179 -109.098972 
L 220.16884 -109.650037 
L 216.889502 -110.589161 
L 213.610163 -114.226799 
L 210.330824 -117.088675 
L 207.051485 -120.966676 
L 203.772146 -119.932392 
L 200.492807 -119.393389 
L 197.213468 -119.319105 
L 193.93413 -121.292727 
L 190.654791 -118.699458 
L 187.375452 -117.976881 
L 184.096113 -119.216847 
L 180.816774 -120.482814 
L 177.537435 -121.305841 
L 174.258097 -122.526667 
L 170.978758 -124.033759 
L 167.699419 -127.604514 
L 164.42008 -131.950591 
L 161.140741 -130.931775 
L 157.861402 -131.455223 
L 154.582064 -134.294831 
L 151.302725 -134.403956 
L 148.023386 -133.474615 
L 144.744047 -134.023258 
L 141.464708 -137.49154 
L 138.185369 -136.275893 
L 134.90603 -138.269483 
L 131.626692 -141.082627 
L 128.347353 -141.389866 
L 125.068014 -140.504942 
L 121.788675 -144.324578 
L 118.509336 -142.298181 
L 115.229997 -144.620468 
L 111.950659 -149.822828 
L 108.67132 -152.040906 
L 105.391981 -156.444268 
L 102.112642 -153.863372 
L 98.833303 -152.393554 
L 95.553964 -152.872919 
L 92.274626 -150.361236 
L 88.995287 -165.758439 
L 85.715948 -169.350326 
L 82.436609 -179.556775 
L 79.15727 -187.775907 
L 75.877931 -195.655703 
L 72.598592 -204.001866 
L 69.319254 -247.042525 
L 66.039915 -271.829122 
z
" style="stroke: #55a868; stroke-opacity: 0.2"/>
    </defs>
    <g clip-path="url(#pc1887efd0f)">
     <use xlink:href="#m1751700dce" x="0" y="316.271687" style="fill: #55a868; fill-opacity: 0.2; stroke: #55a868; stroke-opacity: 0.2"/>
    </g>
   </g>
   <g id="PolyCollection_4">
    <defs>
     <path id="me84dda91e6" d="M 66.039915 -245.249671 
L 66.039915 -223.068463 
L 69.319254 -200.854607 
L 72.598592 -227.526549 
L 75.877931 -184.365452 
L 79.15727 -173.452573 
L 82.436609 -151.443325 
L 85.715948 -156.188186 
L 88.995287 -143.863878 
L 92.274626 -159.678303 
L 95.553964 -134.43986 
L 98.833303 -128.013437 
L 102.112642 -128.433176 
L 105.391981 -126.233296 
L 108.67132 -124.465311 
L 111.950659 -126.686277 
L 115.229997 -121.730898 
L 118.509336 -115.44509 
L 121.788675 -113.842714 
L 125.068014 -112.216385 
L 128.347353 -110.090918 
L 131.626692 -108.239329 
L 134.90603 -106.580274 
L 138.185369 -105.724628 
L 141.464708 -102.933371 
L 144.744047 -102.464572 
L 148.023386 -100.869562 
L 151.302725 -97.799166 
L 154.582064 -96.489015 
L 157.861402 -95.635382 
L 161.140741 -93.590869 
L 164.42008 -95.145248 
L 167.699419 -93.068144 
L 170.978758 -90.868874 
L 174.258097 -90.501196 
L 177.537435 -88.596576 
L 180.816774 -88.816298 
L 184.096113 -87.46905 
L 187.375452 -86.139894 
L 190.654791 -84.872927 
L 193.93413 -84.27354 
L 197.213468 -82.680682 
L 200.492807 -81.157837 
L 203.772146 -81.755534 
L 207.051485 -79.514032 
L 210.330824 -79.50572 
L 213.610163 -78.667144 
L 216.889502 -78.614499 
L 220.16884 -75.958281 
L 223.448179 -75.814973 
L 226.727518 -75.321464 
L 230.006857 -72.293345 
L 233.286196 -72.443894 
L 236.565535 -73.115989 
L 239.844873 -72.115933 
L 243.124212 -71.60473 
L 246.403551 -71.505708 
L 249.68289 -71.608297 
L 252.962229 -68.352045 
L 256.241568 -69.198907 
L 259.520907 -68.614735 
L 262.800245 -69.017804 
L 266.079584 -67.771344 
L 269.358923 -67.27693 
L 272.638262 -66.711337 
L 275.917601 -66.457628 
L 279.19694 -66.295335 
L 282.476278 -66.357204 
L 285.755617 -65.265262 
L 289.034956 -63.838712 
L 292.314295 -107.817207 
L 295.593634 -106.505112 
L 298.872973 -105.714626 
L 302.152311 -104.130871 
L 305.43165 -104.397906 
L 308.710989 -104.993807 
L 311.990328 -105.081023 
L 315.269667 -105.367258 
L 318.549006 -103.712977 
L 321.828345 -103.04787 
L 325.107683 -101.909424 
L 328.387022 -103.30742 
L 331.666361 -102.900429 
L 334.9457 -102.544222 
L 338.225039 -102.629117 
L 341.504378 -103.022306 
L 344.783716 -98.952691 
L 348.063055 -101.258394 
L 351.342394 -102.678481 
L 354.621733 -102.036092 
L 357.901072 -101.330422 
L 361.180411 -102.251405 
L 364.459749 -99.747429 
L 367.739088 -100.66118 
L 371.018427 -102.05096 
L 374.297766 -102.119139 
L 377.577105 -99.484929 
L 380.856444 -100.476303 
L 384.135783 -100.140826 
L 387.415121 -101.586423 
L 390.69446 -97.289433 
L 390.69446 -148.666438 
L 390.69446 -148.666438 
L 387.415121 -149.694585 
L 384.135783 -148.355211 
L 380.856444 -151.531655 
L 377.577105 -148.12769 
L 374.297766 -150.483678 
L 371.018427 -150.185853 
L 367.739088 -149.040842 
L 364.459749 -151.507834 
L 361.180411 -151.491306 
L 357.901072 -152.181252 
L 354.621733 -150.349077 
L 351.342394 -152.623749 
L 348.063055 -150.602429 
L 344.783716 -150.011784 
L 341.504378 -149.871312 
L 338.225039 -151.121678 
L 334.9457 -153.055018 
L 331.666361 -151.105909 
L 328.387022 -152.048781 
L 325.107683 -151.411375 
L 321.828345 -150.403245 
L 318.549006 -151.916558 
L 315.269667 -152.778975 
L 311.990328 -153.496808 
L 308.710989 -150.891963 
L 305.43165 -153.632179 
L 302.152311 -154.640883 
L 298.872973 -152.632538 
L 295.593634 -154.959047 
L 292.314295 -154.811137 
L 289.034956 -88.887918 
L 285.755617 -90.281525 
L 282.476278 -91.485823 
L 279.19694 -91.551059 
L 275.917601 -91.478979 
L 272.638262 -91.502136 
L 269.358923 -92.00282 
L 266.079584 -92.207607 
L 262.800245 -93.450681 
L 259.520907 -92.361164 
L 256.241568 -93.580972 
L 252.962229 -93.756739 
L 249.68289 -97.465606 
L 246.403551 -96.420884 
L 243.124212 -96.958582 
L 239.844873 -98.017513 
L 236.565535 -98.339449 
L 233.286196 -96.766344 
L 230.006857 -98.145853 
L 226.727518 -99.767936 
L 223.448179 -101.320836 
L 220.16884 -102.748745 
L 216.889502 -104.622782 
L 213.610163 -105.178394 
L 210.330824 -106.049923 
L 207.051485 -106.760702 
L 203.772146 -108.852231 
L 200.492807 -110.045594 
L 197.213468 -110.638835 
L 193.93413 -112.970878 
L 190.654791 -112.848985 
L 187.375452 -113.529135 
L 184.096113 -116.380408 
L 180.816774 -117.578874 
L 177.537435 -118.161177 
L 174.258097 -120.736098 
L 170.978758 -120.310113 
L 167.699419 -124.410688 
L 164.42008 -125.490742 
L 161.140741 -124.5754 
L 157.861402 -126.026621 
L 154.582064 -128.379867 
L 151.302725 -128.900731 
L 148.023386 -130.237893 
L 144.744047 -132.44516 
L 141.464708 -133.736509 
L 138.185369 -138.043368 
L 134.90603 -138.706358 
L 131.626692 -138.698377 
L 128.347353 -139.866657 
L 125.068014 -139.847799 
L 121.788675 -144.139901 
L 118.509336 -145.530039 
L 115.229997 -150.878631 
L 111.950659 -152.139695 
L 108.67132 -155.284331 
L 105.391981 -157.53593 
L 102.112642 -157.904791 
L 98.833303 -159.343262 
L 95.553964 -161.179108 
L 92.274626 -181.20288 
L 88.995287 -175.164848 
L 85.715948 -185.693085 
L 82.436609 -186.965046 
L 79.15727 -203.655269 
L 75.877931 -212.323828 
L 72.598592 -239.42936 
L 69.319254 -229.067648 
L 66.039915 -245.249671 
z
" style="stroke: #c44e52; stroke-opacity: 0.2"/>
    </defs>
    <g clip-path="url(#pc1887efd0f)">
     <use xlink:href="#me84dda91e6" x="0" y="316.271687" style="fill: #c44e52; fill-opacity: 0.2; stroke: #c44e52; stroke-opacity: 0.2"/>
    </g>
   </g>
   <g id="PolyCollection_5">
    <defs>
     <path id="mb2858a8842" d="M 66.039915 -276.119865 
L 66.039915 -249.5395 
L 69.319254 -237.130841 
L 72.598592 -189.631918 
L 75.877931 -183.043929 
L 79.15727 -168.97853 
L 82.436609 -162.506532 
L 85.715948 -159.873153 
L 88.995287 -154.674358 
L 92.274626 -152.785068 
L 95.553964 -151.220699 
L 98.833303 -148.322809 
L 102.112642 -145.386297 
L 105.391981 -142.480837 
L 108.67132 -139.845636 
L 111.950659 -137.538327 
L 115.229997 -136.702104 
L 118.509336 -133.120326 
L 121.788675 -133.525037 
L 125.068014 -134.306261 
L 128.347353 -131.002283 
L 131.626692 -130.067605 
L 134.90603 -129.39788 
L 138.185369 -128.864951 
L 141.464708 -127.018606 
L 144.744047 -124.112379 
L 148.023386 -123.092185 
L 151.302725 -123.76238 
L 154.582064 -122.801423 
L 157.861402 -122.854585 
L 161.140741 -124.024322 
L 164.42008 -122.403854 
L 167.699419 -122.717629 
L 170.978758 -122.158096 
L 174.258097 -120.852078 
L 177.537435 -121.484533 
L 180.816774 -118.327736 
L 184.096113 -117.230457 
L 187.375452 -116.965176 
L 190.654791 -117.725551 
L 193.93413 -116.113152 
L 197.213468 -116.823142 
L 200.492807 -114.949788 
L 203.772146 -117.193745 
L 207.051485 -116.51148 
L 210.330824 -116.561418 
L 213.610163 -115.605117 
L 216.889502 -113.840354 
L 220.16884 -113.615864 
L 223.448179 -111.462767 
L 226.727518 -113.295606 
L 230.006857 -110.994853 
L 233.286196 -110.367827 
L 236.565535 -109.015506 
L 239.844873 -107.666446 
L 243.124212 -106.790895 
L 246.403551 -106.983534 
L 249.68289 -107.617075 
L 252.962229 -108.095262 
L 256.241568 -105.761614 
L 259.520907 -106.046911 
L 262.800245 -107.891131 
L 266.079584 -104.282804 
L 269.358923 -104.161096 
L 272.638262 -104.445863 
L 275.917601 -105.5199 
L 279.19694 -103.506647 
L 282.476278 -104.050304 
L 285.755617 -104.245958 
L 289.034956 -100.849135 
L 292.314295 -139.828725 
L 295.593634 -138.98201 
L 298.872973 -139.146434 
L 302.152311 -137.747799 
L 305.43165 -139.907813 
L 308.710989 -138.592202 
L 311.990328 -139.090112 
L 315.269667 -136.915133 
L 318.549006 -134.216857 
L 321.828345 -136.264011 
L 325.107683 -134.909373 
L 328.387022 -134.900565 
L 331.666361 -134.962576 
L 334.9457 -135.825399 
L 338.225039 -135.922546 
L 341.504378 -134.48741 
L 344.783716 -132.753445 
L 348.063055 -132.190749 
L 351.342394 -134.890797 
L 354.621733 -131.688341 
L 357.901072 -133.368552 
L 361.180411 -131.277156 
L 364.459749 -133.877491 
L 367.739088 -132.298355 
L 371.018427 -131.384195 
L 374.297766 -132.749855 
L 377.577105 -131.287917 
L 380.856444 -131.755168 
L 384.135783 -132.481719 
L 387.415121 -129.766124 
L 390.69446 -131.955734 
L 390.69446 -175.00384 
L 390.69446 -175.00384 
L 387.415121 -174.534136 
L 384.135783 -174.817505 
L 380.856444 -173.850776 
L 377.577105 -173.470647 
L 374.297766 -174.791405 
L 371.018427 -174.732655 
L 367.739088 -174.929995 
L 364.459749 -173.491441 
L 361.180411 -175.371868 
L 357.901072 -175.723157 
L 354.621733 -174.271155 
L 351.342394 -176.069853 
L 348.063055 -175.591176 
L 344.783716 -176.290729 
L 341.504378 -178.135424 
L 338.225039 -177.988083 
L 334.9457 -178.352885 
L 331.666361 -177.246717 
L 328.387022 -177.325858 
L 325.107683 -177.609761 
L 321.828345 -178.126017 
L 318.549006 -177.429303 
L 315.269667 -180.851996 
L 311.990328 -178.418955 
L 308.710989 -181.127991 
L 305.43165 -180.59771 
L 302.152311 -180.64247 
L 298.872973 -180.538433 
L 295.593634 -180.337224 
L 292.314295 -182.166011 
L 289.034956 -134.315392 
L 285.755617 -135.36753 
L 282.476278 -136.479761 
L 279.19694 -138.152623 
L 275.917601 -138.758992 
L 272.638262 -137.607789 
L 269.358923 -140.008973 
L 266.079584 -139.513419 
L 262.800245 -141.499747 
L 259.520907 -139.854395 
L 256.241568 -136.914972 
L 252.962229 -139.687427 
L 249.68289 -141.370543 
L 246.403551 -141.989136 
L 243.124212 -142.380188 
L 239.844873 -140.223861 
L 236.565535 -142.679261 
L 233.286196 -143.197944 
L 230.006857 -144.31696 
L 226.727518 -146.165172 
L 223.448179 -145.29677 
L 220.16884 -146.888483 
L 216.889502 -147.255214 
L 213.610163 -147.405258 
L 210.330824 -149.589876 
L 207.051485 -151.577758 
L 203.772146 -151.277611 
L 200.492807 -152.151164 
L 197.213468 -152.050928 
L 193.93413 -152.327203 
L 190.654791 -151.837599 
L 187.375452 -152.093362 
L 184.096113 -153.963204 
L 180.816774 -154.232011 
L 177.537435 -155.584162 
L 174.258097 -155.636358 
L 170.978758 -157.374092 
L 167.699419 -157.656772 
L 164.42008 -158.125242 
L 161.140741 -160.163567 
L 157.861402 -159.06644 
L 154.582064 -160.177478 
L 151.302725 -159.637489 
L 148.023386 -161.192416 
L 144.744047 -163.093482 
L 141.464708 -163.618918 
L 138.185369 -166.432287 
L 134.90603 -166.686309 
L 131.626692 -166.54439 
L 128.347353 -166.406407 
L 125.068014 -168.433186 
L 121.788675 -171.956321 
L 118.509336 -169.266889 
L 115.229997 -172.064575 
L 111.950659 -173.730003 
L 108.67132 -178.615567 
L 105.391981 -181.398977 
L 102.112642 -182.279536 
L 98.833303 -188.164606 
L 95.553964 -190.849651 
L 92.274626 -194.653162 
L 88.995287 -199.472476 
L 85.715948 -201.357122 
L 82.436609 -208.401673 
L 79.15727 -211.749219 
L 75.877931 -234.722899 
L 72.598592 -241.217861 
L 69.319254 -274.816816 
L 66.039915 -276.119865 
z
" style="stroke: #8172b3; stroke-opacity: 0.2"/>
    </defs>
    <g clip-path="url(#pc1887efd0f)">
     <use xlink:href="#mb2858a8842" x="0" y="316.271687" style="fill: #8172b3; fill-opacity: 0.2; stroke: #8172b3; stroke-opacity: 0.2"/>
    </g>
   </g>
   <g id="line2d_12">
    <path d="M 66.039915 69.032274 
L 69.319254 103.571341 
L 72.598592 147.207049 
L 75.877931 148.128535 
L 79.15727 166.375773 
L 82.436609 158.453424 
L 85.715948 170.976944 
L 88.995287 171.451738 
L 92.274626 183.180334 
L 95.553964 181.418649 
L 98.833303 196.581065 
L 102.112642 177.461293 
L 105.391981 189.044111 
L 108.67132 199.130438 
L 111.950659 202.830133 
L 115.229997 198.962987 
L 118.509336 208.88245 
L 121.788675 212.789926 
L 125.068014 210.051476 
L 128.347353 208.592037 
L 131.626692 213.221419 
L 134.90603 220.291775 
L 138.185369 217.350306 
L 141.464708 218.741679 
L 144.744047 227.147246 
L 148.023386 224.434234 
L 151.302725 223.635504 
L 154.582064 222.966383 
L 157.861402 225.021211 
L 161.140741 228.329387 
L 164.42008 228.233065 
L 167.699419 228.531645 
L 170.978758 234.546985 
L 174.258097 231.019175 
L 177.537435 230.518379 
L 180.816774 234.856173 
L 184.096113 231.879712 
L 187.375452 230.348685 
L 190.654791 236.197502 
L 193.93413 237.48542 
L 197.213468 236.233131 
L 200.492807 239.62468 
L 203.772146 235.76447 
L 207.051485 238.972034 
L 210.330824 237.645905 
L 213.610163 235.379478 
L 216.889502 238.787152 
L 220.16884 242.638508 
L 223.448179 240.617603 
L 226.727518 238.200882 
L 230.006857 239.421474 
L 233.286196 243.050414 
L 236.565535 243.010948 
L 239.844873 245.137839 
L 243.124212 241.900469 
L 246.403551 242.260861 
L 249.68289 245.435218 
L 252.962229 242.166081 
L 256.241568 245.388131 
L 259.520907 246.808521 
L 262.800245 242.106981 
L 266.079584 243.798163 
L 269.358923 249.486203 
L 272.638262 248.667818 
L 275.917601 247.691884 
L 279.19694 246.130487 
L 282.476278 248.568598 
L 285.755617 249.706844 
L 289.034956 250.142999 
L 292.314295 223.056301 
L 295.593634 216.720961 
L 298.872973 212.411988 
L 302.152311 223.318987 
L 305.43165 221.557717 
L 308.710989 228.890868 
L 311.990328 222.57064 
L 315.269667 207.639098 
L 318.549006 225.710896 
L 321.828345 230.60169 
L 325.107683 210.800786 
L 328.387022 218.294789 
L 331.666361 227.68077 
L 334.9457 217.141584 
L 338.225039 215.881242 
L 341.504378 209.840706 
L 344.783716 222.375749 
L 348.063055 201.795739 
L 351.342394 180.889522 
L 354.621733 228.38539 
L 357.901072 225.546946 
L 361.180411 219.864261 
L 364.459749 225.938856 
L 367.739088 219.136268 
L 371.018427 225.168433 
L 374.297766 228.666241 
L 377.577105 224.484019 
L 380.856444 225.25799 
L 384.135783 222.952034 
L 387.415121 221.371476 
L 390.69446 226.88392 
" clip-path="url(#pc1887efd0f)" style="fill: none; stroke: #4c72b0; stroke-width: 1.5; stroke-linecap: round"/>
   </g>
   <g id="line2d_13">
    <path d="M 66.039915 34.969824 
L 69.319254 39.5871 
L 72.598592 63.947099 
L 75.877931 56.691764 
L 79.15727 61.956576 
L 82.436609 65.239007 
L 85.715948 71.395473 
L 88.995287 73.734237 
L 92.274626 79.093919 
L 95.553964 70.122052 
L 98.833303 98.54444 
L 102.112642 44.52817 
L 105.391981 79.091466 
L 108.67132 105.992918 
L 111.950659 113.025936 
L 115.229997 92.370172 
L 118.509336 110.620891 
L 121.788675 115.585182 
L 125.068014 121.434569 
L 128.347353 112.73519 
L 131.626692 101.016071 
L 134.90603 120.196214 
L 138.185369 94.133605 
L 141.464708 115.52462 
L 144.744047 137.693026 
L 148.023386 137.561275 
L 151.302725 114.953243 
L 154.582064 122.580752 
L 157.861402 112.346629 
L 161.140741 92.974479 
L 164.42008 126.497649 
L 167.699419 114.166805 
L 170.978758 131.445984 
L 174.258097 109.331445 
L 177.537435 123.045492 
L 180.816774 127.198504 
L 184.096113 128.621182 
L 187.375452 68.184801 
L 190.654791 125.269377 
L 193.93413 133.211941 
L 197.213468 119.103852 
L 200.492807 143.633615 
L 203.772146 137.276126 
L 207.051485 140.781948 
L 210.330824 133.495227 
L 213.610163 139.094563 
L 216.889502 129.121228 
L 220.16884 160.380773 
L 223.448179 139.043715 
L 226.727518 101.486324 
L 230.006857 129.077855 
L 233.286196 152.622431 
L 236.565535 145.877242 
L 239.844873 158.954518 
L 243.124212 142.720432 
L 246.403551 142.827639 
L 249.68289 162.565327 
L 252.962229 142.060968 
L 256.241568 114.898027 
L 259.520907 154.658048 
L 262.800245 128.659791 
L 266.079584 144.923597 
L 269.358923 160.918313 
L 272.638262 149.640477 
L 275.917601 145.791238 
L 279.19694 146.94444 
L 282.476278 148.637634 
L 285.755617 145.547265 
L 289.034956 145.76616 
L 292.314295 166.232505 
L 295.593634 144.510452 
L 298.872973 136.407765 
L 302.152311 163.080752 
L 305.43165 161.693717 
L 308.710989 172.710454 
L 311.990328 153.796813 
L 315.269667 116.507896 
L 318.549006 165.884504 
L 321.828345 176.744365 
L 325.107683 139.83019 
L 328.387022 147.031946 
L 331.666361 168.211303 
L 334.9457 145.930029 
L 338.225039 142.734396 
L 341.504378 130.06263 
L 344.783716 158.48764 
L 348.063055 116.446957 
L 351.342394 51.970955 
L 354.621733 166.602301 
L 357.901072 157.499217 
L 361.180411 153.269557 
L 364.459749 161.552152 
L 367.739088 147.379077 
L 371.018427 162.926985 
L 374.297766 164.282423 
L 377.577105 153.689531 
L 380.856444 162.05284 
L 384.135783 152.690459 
L 387.415121 163.442335 
L 390.69446 173.059035 
" clip-path="url(#pc1887efd0f)" style="fill: none; stroke: #dd8452; stroke-width: 1.5; stroke-linecap: round"/>
   </g>
   <g id="line2d_14">
    <path d="M 66.039915 66.191514 
L 69.319254 96.80736 
L 72.598592 135.69822 
L 75.877931 142.306385 
L 79.15727 151.385915 
L 82.436609 157.960274 
L 85.715948 166.398507 
L 88.995287 172.541966 
L 92.274626 184.174767 
L 95.553964 182.447297 
L 98.833303 183.154449 
L 102.112642 179.314872 
L 105.391981 177.31158 
L 108.67132 182.378008 
L 111.950659 184.748687 
L 115.229997 188.409901 
L 118.509336 189.458576 
L 121.788675 190.226375 
L 125.068014 193.281631 
L 128.347353 192.718105 
L 131.626692 193.349767 
L 134.90603 194.9005 
L 138.185369 197.943724 
L 141.464708 196.572649 
L 144.744047 197.709001 
L 148.023386 200.008795 
L 151.302725 198.739906 
L 154.582064 199.19896 
L 157.861402 201.478433 
L 161.140741 203.255755 
L 164.42008 202.681453 
L 167.699419 206.46976 
L 170.978758 206.284269 
L 174.258097 208.281613 
L 177.537435 209.859157 
L 180.816774 211.792437 
L 184.096113 212.781314 
L 187.375452 212.983183 
L 190.654791 213.53493 
L 193.93413 211.242894 
L 197.213468 212.557896 
L 200.492807 213.293112 
L 203.772146 212.360549 
L 207.051485 211.26411 
L 210.330824 214.755306 
L 213.610163 217.9902 
L 216.889502 221.204249 
L 220.16884 221.203581 
L 223.448179 221.055306 
L 226.727518 219.545589 
L 230.006857 219.056717 
L 233.286196 220.593574 
L 236.565535 217.645767 
L 239.844873 215.496196 
L 243.124212 216.323166 
L 246.403551 221.206198 
L 249.68289 226.504888 
L 252.962229 226.255115 
L 256.241568 223.460097 
L 259.520907 222.125783 
L 262.800245 221.551925 
L 266.079584 221.332174 
L 269.358923 220.833241 
L 272.638262 222.879162 
L 275.917601 226.746863 
L 279.19694 227.257683 
L 282.476278 226.807745 
L 285.755617 227.41592 
L 289.034956 227.116933 
L 292.314295 176.993426 
L 295.593634 177.380709 
L 298.872973 176.628737 
L 302.152311 176.531919 
L 305.43165 177.537499 
L 308.710989 180.463767 
L 311.990328 178.066916 
L 315.269667 178.530494 
L 318.549006 180.096546 
L 321.828345 180.322336 
L 325.107683 180.029567 
L 328.387022 178.591638 
L 331.666361 179.623904 
L 334.9457 179.925581 
L 338.225039 179.497003 
L 341.504378 177.968789 
L 344.783716 177.867421 
L 348.063055 180.825349 
L 351.342394 180.437301 
L 354.621733 181.453469 
L 357.901072 181.560474 
L 361.180411 179.446267 
L 364.459749 180.667386 
L 367.739088 180.607797 
L 371.018427 181.366954 
L 374.297766 181.388054 
L 377.577105 182.155922 
L 380.856444 183.146711 
L 384.135783 182.635373 
L 387.415121 181.892511 
L 390.69446 182.813657 
" clip-path="url(#pc1887efd0f)" style="fill: none; stroke: #55a868; stroke-width: 1.5; stroke-linecap: round"/>
   </g>
   <g id="line2d_15">
    <path d="M 66.039915 81.303794 
L 69.319254 100.639584 
L 72.598592 82.80061 
L 75.877931 117.447121 
L 79.15727 127.083765 
L 82.436609 146.986482 
L 85.715948 145.585499 
L 88.995287 156.989582 
L 92.274626 144.737158 
L 95.553964 168.554975 
L 98.833303 171.448014 
L 102.112642 173.636951 
L 105.391981 173.784318 
L 108.67132 175.776042 
L 111.950659 176.406493 
L 115.229997 179.046345 
L 118.509336 185.138398 
L 121.788675 187.334815 
L 125.068014 189.685103 
L 128.347353 190.913285 
L 131.626692 192.547788 
L 134.90603 193.502248 
L 138.185369 194.085943 
L 141.464708 197.745414 
L 144.744047 199.086306 
L 148.023386 200.457919 
L 151.302725 203.223446 
L 154.582064 204.358544 
L 157.861402 205.370874 
L 161.140741 207.113605 
L 164.42008 205.738604 
L 167.699419 207.35688 
L 170.978758 210.786391 
L 174.258097 210.897813 
L 177.537435 212.585458 
L 180.816774 213.100829 
L 184.096113 214.254373 
L 187.375452 216.281936 
L 190.654791 217.608781 
L 193.93413 218.421373 
L 197.213468 219.590282 
L 200.492807 220.403921 
L 203.772146 221.005462 
L 207.051485 222.595523 
L 210.330824 223.542157 
L 213.610163 224.229415 
L 216.889502 225.164014 
L 220.16884 226.657099 
L 223.448179 228.365422 
L 226.727518 229.122682 
L 230.006857 230.281417 
L 233.286196 231.004276 
L 236.565535 231.102962 
L 239.844873 231.506597 
L 243.124212 231.852113 
L 246.403551 232.618943 
L 249.68289 232.625228 
L 252.962229 235.024038 
L 256.241568 235.190023 
L 259.520907 235.719049 
L 262.800245 235.33824 
L 266.079584 235.98134 
L 269.358923 236.745603 
L 272.638262 236.927392 
L 275.917601 237.775732 
L 279.19694 237.340655 
L 282.476278 237.25965 
L 285.755617 238.67099 
L 289.034956 239.616368 
L 292.314295 186.435097 
L 295.593634 187.134564 
L 298.872973 186.688951 
L 302.152311 187.624952 
L 305.43165 187.912016 
L 308.710989 187.176871 
L 311.990328 188.052721 
L 315.269667 188.147792 
L 318.549006 188.325539 
L 321.828345 188.460163 
L 325.107683 188.740254 
L 328.387022 188.53483 
L 331.666361 189.48304 
L 334.9457 189.258263 
L 338.225039 189.733728 
L 341.504378 190.227617 
L 344.783716 190.165908 
L 348.063055 189.768811 
L 351.342394 189.654849 
L 354.621733 189.887572 
L 357.901072 189.981644 
L 361.180411 190.803311 
L 364.459749 190.815952 
L 367.739088 190.8374 
L 371.018427 191.0112 
L 374.297766 191.375322 
L 377.577105 191.506484 
L 380.856444 191.907212 
L 384.135783 191.1972 
L 387.415121 192.324111 
L 390.69446 191.938993 
" clip-path="url(#pc1887efd0f)" style="fill: none; stroke: #c44e52; stroke-width: 1.5; stroke-linecap: round"/>
   </g>
   <g id="line2d_16">
    <path d="M 66.039915 54.080831 
L 69.319254 61.952639 
L 72.598592 98.390498 
L 75.877931 106.654063 
L 79.15727 126.591828 
L 82.436609 129.868548 
L 85.715948 135.254864 
L 88.995287 138.92396 
L 92.274626 141.618377 
L 95.553964 145.543103 
L 98.833303 148.884898 
L 102.112642 151.962564 
L 105.391981 153.771272 
L 108.67132 156.552338 
L 111.950659 160.28317 
L 115.229997 161.806723 
L 118.509336 163.983969 
L 121.788675 163.47107 
L 125.068014 164.843368 
L 128.347353 166.424358 
L 131.626692 167.350307 
L 134.90603 168.565811 
L 138.185369 169.3944 
L 141.464708 171.534277 
L 144.744047 173.120456 
L 148.023386 173.730624 
L 151.302725 174.090347 
L 154.582064 174.230152 
L 157.861402 174.598556 
L 161.140741 175.01188 
L 164.42008 175.382157 
L 167.699419 176.540405 
L 170.978758 177.069552 
L 174.258097 177.665922 
L 177.537435 177.999989 
L 180.816774 178.737189 
L 184.096113 179.608841 
L 187.375452 180.764193 
L 190.654791 181.784524 
L 193.93413 181.031949 
L 197.213468 181.858211 
L 200.492807 182.382195 
L 203.772146 182.533638 
L 207.051485 182.026189 
L 210.330824 183.327666 
L 213.610163 184.617746 
L 216.889502 184.604367 
L 220.16884 186.174429 
L 223.448179 186.718815 
L 226.727518 187.37491 
L 230.006857 187.570429 
L 233.286196 189.268005 
L 236.565535 190.682863 
L 239.844873 191.134254 
L 243.124212 191.983084 
L 246.403551 192.372234 
L 249.68289 191.475096 
L 252.962229 192.070572 
L 256.241568 194.443496 
L 259.520907 193.218447 
L 262.800245 192.715221 
L 266.079584 192.967906 
L 269.358923 193.714078 
L 272.638262 194.742946 
L 275.917601 194.011203 
L 279.19694 194.350297 
L 282.476278 196.835164 
L 285.755617 196.742621 
L 289.034956 197.263605 
L 292.314295 155.83906 
L 295.593634 156.263737 
L 298.872973 156.311835 
L 302.152311 157.442845 
L 305.43165 156.699615 
L 308.710989 155.874341 
L 311.990328 156.712299 
L 315.269667 157.314855 
L 318.549006 159.378088 
L 321.828345 159.483711 
L 325.107683 159.46609 
L 328.387022 160.365588 
L 331.666361 159.56304 
L 334.9457 158.781643 
L 338.225039 159.828736 
L 341.504378 160.063084 
L 344.783716 161.071005 
L 348.063055 162.241931 
L 351.342394 161.258765 
L 354.621733 162.463397 
L 357.901072 162.390326 
L 361.180411 161.986611 
L 364.459749 163.153646 
L 367.739088 162.812182 
L 371.018427 163.556316 
L 374.297766 162.845733 
L 377.577105 163.959913 
L 380.856444 163.147881 
L 384.135783 163.720423 
L 387.415121 163.84011 
L 390.69446 164.254854 
" clip-path="url(#pc1887efd0f)" style="fill: none; stroke: #8172b3; stroke-width: 1.5; stroke-linecap: round"/>
   </g>
   <g id="line2d_17"/>
   <g id="line2d_18"/>
   <g id="line2d_19"/>
   <g id="line2d_20"/>
   <g id="line2d_21"/>
   <g id="patch_3">
    <path d="M 49.807187 273.312 
L 49.807187 7.2 
" style="fill: none; stroke: #cccccc; stroke-width: 1.25; stroke-linejoin: miter; stroke-linecap: square"/>
   </g>
   <g id="patch_4">
    <path d="M 406.927188 273.312 
L 406.927188 7.2 
" style="fill: none; stroke: #cccccc; stroke-width: 1.25; stroke-linejoin: miter; stroke-linecap: square"/>
   </g>
   <g id="patch_5">
    <path d="M 49.807187 273.312 
L 406.927188 273.312 
" style="fill: none; stroke: #cccccc; stroke-width: 1.25; stroke-linejoin: miter; stroke-linecap: square"/>
   </g>
   <g id="patch_6">
    <path d="M 49.807187 7.2 
L 406.927188 7.2 
" style="fill: none; stroke: #cccccc; stroke-width: 1.25; stroke-linejoin: miter; stroke-linecap: square"/>
   </g>
   <g id="legend_1">
    <g id="patch_7">
     <path d="M 295.242813 113.843437 
L 399.227188 113.843437 
Q 401.427188 113.843437 401.427188 111.643437 
L 401.427188 14.9 
Q 401.427188 12.7 399.227188 12.7 
L 295.242813 12.7 
Q 293.042813 12.7 293.042813 14.9 
L 293.042813 111.643437 
Q 293.042813 113.843437 295.242813 113.843437 
z
" style="fill: #ffffff; opacity: 0.8; stroke: #cccccc; stroke-linejoin: miter"/>
    </g>
    <g id="text_14">
     <!-- Strategy -->
     <g style="fill: #262626" transform="translate(321.525937 26.218125) scale(0.12 -0.12)">
      <defs>
       <path id="DejaVuSans-53" d="M 3425 4513 
L 3425 3897 
Q 3066 4069 2747 4153 
Q 2428 4238 2131 4238 
Q 1616 4238 1336 4038 
Q 1056 3838 1056 3469 
Q 1056 3159 1242 3001 
Q 1428 2844 1947 2747 
L 2328 2669 
Q 3034 2534 3370 2195 
Q 3706 1856 3706 1288 
Q 3706 609 3251 259 
Q 2797 -91 1919 -91 
Q 1588 -91 1214 -16 
Q 841 59 441 206 
L 441 856 
Q 825 641 1194 531 
Q 1563 422 1919 422 
Q 2459 422 2753 634 
Q 3047 847 3047 1241 
Q 3047 1584 2836 1778 
Q 2625 1972 2144 2069 
L 1759 2144 
Q 1053 2284 737 2584 
Q 422 2884 422 3419 
Q 422 4038 858 4394 
Q 1294 4750 2059 4750 
Q 2388 4750 2728 4690 
Q 3069 4631 3425 4513 
z
" transform="scale(0.015625)"/>
       <path id="DejaVuSans-74" d="M 1172 4494 
L 1172 3500 
L 2356 3500 
L 2356 3053 
L 1172 3053 
L 1172 1153 
Q 1172 725 1289 603 
Q 1406 481 1766 481 
L 2356 481 
L 2356 0 
L 1766 0 
Q 1100 0 847 248 
Q 594 497 594 1153 
L 594 3053 
L 172 3053 
L 172 3500 
L 594 3500 
L 594 4494 
L 1172 4494 
z
" transform="scale(0.015625)"/>
       <path id="DejaVuSans-72" d="M 2631 2963 
Q 2534 3019 2420 3045 
Q 2306 3072 2169 3072 
Q 1681 3072 1420 2755 
Q 1159 2438 1159 1844 
L 1159 0 
L 581 0 
L 581 3500 
L 1159 3500 
L 1159 2956 
Q 1341 3275 1631 3429 
Q 1922 3584 2338 3584 
Q 2397 3584 2469 3576 
Q 2541 3569 2628 3553 
L 2631 2963 
z
" transform="scale(0.015625)"/>
       <path id="DejaVuSans-61" d="M 2194 1759 
Q 1497 1759 1228 1600 
Q 959 1441 959 1056 
Q 959 750 1161 570 
Q 1363 391 1709 391 
Q 2188 391 2477 730 
Q 2766 1069 2766 1631 
L 2766 1759 
L 2194 1759 
z
M 3341 1997 
L 3341 0 
L 2766 0 
L 2766 531 
Q 2569 213 2275 61 
Q 1981 -91 1556 -91 
Q 1019 -91 701 211 
Q 384 513 384 1019 
Q 384 1609 779 1909 
Q 1175 2209 1959 2209 
L 2766 2209 
L 2766 2266 
Q 2766 2663 2505 2880 
Q 2244 3097 1772 3097 
Q 1472 3097 1187 3025 
Q 903 2953 641 2809 
L 641 3341 
Q 956 3463 1253 3523 
Q 1550 3584 1831 3584 
Q 2591 3584 2966 3190 
Q 3341 2797 3341 1997 
z
" transform="scale(0.015625)"/>
       <path id="DejaVuSans-65" d="M 3597 1894 
L 3597 1613 
L 953 1613 
Q 991 1019 1311 708 
Q 1631 397 2203 397 
Q 2534 397 2845 478 
Q 3156 559 3463 722 
L 3463 178 
Q 3153 47 2828 -22 
Q 2503 -91 2169 -91 
Q 1331 -91 842 396 
Q 353 884 353 1716 
Q 353 2575 817 3079 
Q 1281 3584 2069 3584 
Q 2775 3584 3186 3129 
Q 3597 2675 3597 1894 
z
M 3022 2063 
Q 3016 2534 2758 2815 
Q 2500 3097 2075 3097 
Q 1594 3097 1305 2825 
Q 1016 2553 972 2059 
L 3022 2063 
z
" transform="scale(0.015625)"/>
       <path id="DejaVuSans-67" d="M 2906 1791 
Q 2906 2416 2648 2759 
Q 2391 3103 1925 3103 
Q 1463 3103 1205 2759 
Q 947 2416 947 1791 
Q 947 1169 1205 825 
Q 1463 481 1925 481 
Q 2391 481 2648 825 
Q 2906 1169 2906 1791 
z
M 3481 434 
Q 3481 -459 3084 -895 
Q 2688 -1331 1869 -1331 
Q 1566 -1331 1297 -1286 
Q 1028 -1241 775 -1147 
L 775 -588 
Q 1028 -725 1275 -790 
Q 1522 -856 1778 -856 
Q 2344 -856 2625 -561 
Q 2906 -266 2906 331 
L 2906 616 
Q 2728 306 2450 153 
Q 2172 0 1784 0 
Q 1141 0 747 490 
Q 353 981 353 1791 
Q 353 2603 747 3093 
Q 1141 3584 1784 3584 
Q 2172 3584 2450 3431 
Q 2728 3278 2906 2969 
L 2906 3500 
L 3481 3500 
L 3481 434 
z
" transform="scale(0.015625)"/>
       <path id="DejaVuSans-79" d="M 2059 -325 
Q 1816 -950 1584 -1140 
Q 1353 -1331 966 -1331 
L 506 -1331 
L 506 -850 
L 844 -850 
Q 1081 -850 1212 -737 
Q 1344 -625 1503 -206 
L 1606 56 
L 191 3500 
L 800 3500 
L 1894 763 
L 2988 3500 
L 3597 3500 
L 2059 -325 
z
" transform="scale(0.015625)"/>
      </defs>
      <use xlink:href="#DejaVuSans-53"/>
      <use xlink:href="#DejaVuSans-74" x="63.476562"/>
      <use xlink:href="#DejaVuSans-72" x="102.685547"/>
      <use xlink:href="#DejaVuSans-61" x="143.798828"/>
      <use xlink:href="#DejaVuSans-74" x="205.078125"/>
      <use xlink:href="#DejaVuSans-65" x="244.287109"/>
      <use xlink:href="#DejaVuSans-67" x="305.810547"/>
      <use xlink:href="#DejaVuSans-79" x="369.287109"/>
     </g>
    </g>
    <g id="line2d_22">
     <path d="M 297.442813 38.722031 
L 308.442813 38.722031 
L 319.442813 38.722031 
" style="fill: none; stroke: #4c72b0; stroke-width: 1.5; stroke-linecap: round"/>
    </g>
    <g id="text_15">
     <!-- FedPredict -->
     <g style="fill: #262626" transform="translate(328.242813 42.572031) scale(0.11 -0.11)">
      <defs>
       <path id="DejaVuSans-46" d="M 628 4666 
L 3309 4666 
L 3309 4134 
L 1259 4134 
L 1259 2759 
L 3109 2759 
L 3109 2228 
L 1259 2228 
L 1259 0 
L 628 0 
L 628 4666 
z
" transform="scale(0.015625)"/>
       <path id="DejaVuSans-50" d="M 1259 4147 
L 1259 2394 
L 2053 2394 
Q 2494 2394 2734 2622 
Q 2975 2850 2975 3272 
Q 2975 3691 2734 3919 
Q 2494 4147 2053 4147 
L 1259 4147 
z
M 628 4666 
L 2053 4666 
Q 2838 4666 3239 4311 
Q 3641 3956 3641 3272 
Q 3641 2581 3239 2228 
Q 2838 1875 2053 1875 
L 1259 1875 
L 1259 0 
L 628 0 
L 628 4666 
z
" transform="scale(0.015625)"/>
       <path id="DejaVuSans-69" d="M 603 3500 
L 1178 3500 
L 1178 0 
L 603 0 
L 603 3500 
z
M 603 4863 
L 1178 4863 
L 1178 4134 
L 603 4134 
L 603 4863 
z
" transform="scale(0.015625)"/>
       <path id="DejaVuSans-63" d="M 3122 3366 
L 3122 2828 
Q 2878 2963 2633 3030 
Q 2388 3097 2138 3097 
Q 1578 3097 1268 2742 
Q 959 2388 959 1747 
Q 959 1106 1268 751 
Q 1578 397 2138 397 
Q 2388 397 2633 464 
Q 2878 531 3122 666 
L 3122 134 
Q 2881 22 2623 -34 
Q 2366 -91 2075 -91 
Q 1284 -91 818 406 
Q 353 903 353 1747 
Q 353 2603 823 3093 
Q 1294 3584 2113 3584 
Q 2378 3584 2631 3529 
Q 2884 3475 3122 3366 
z
" transform="scale(0.015625)"/>
      </defs>
      <use xlink:href="#DejaVuSans-46"/>
      <use xlink:href="#DejaVuSans-65" x="52.019531"/>
      <use xlink:href="#DejaVuSans-64" x="113.542969"/>
      <use xlink:href="#DejaVuSans-50" x="177.019531"/>
      <use xlink:href="#DejaVuSans-72" x="235.572266"/>
      <use xlink:href="#DejaVuSans-65" x="274.435547"/>
      <use xlink:href="#DejaVuSans-64" x="335.958984"/>
      <use xlink:href="#DejaVuSans-69" x="399.435547"/>
      <use xlink:href="#DejaVuSans-63" x="427.21875"/>
      <use xlink:href="#DejaVuSans-74" x="482.199219"/>
     </g>
    </g>
    <g id="line2d_23">
     <path d="M 297.442813 54.867969 
L 308.442813 54.867969 
L 319.442813 54.867969 
" style="fill: none; stroke: #dd8452; stroke-width: 1.5; stroke-linecap: round"/>
    </g>
    <g id="text_16">
     <!-- FedAVG -->
     <g style="fill: #262626" transform="translate(328.242813 58.717969) scale(0.11 -0.11)">
      <defs>
       <path id="DejaVuSans-41" d="M 2188 4044 
L 1331 1722 
L 3047 1722 
L 2188 4044 
z
M 1831 4666 
L 2547 4666 
L 4325 0 
L 3669 0 
L 3244 1197 
L 1141 1197 
L 716 0 
L 50 0 
L 1831 4666 
z
" transform="scale(0.015625)"/>
       <path id="DejaVuSans-56" d="M 1831 0 
L 50 4666 
L 709 4666 
L 2188 738 
L 3669 4666 
L 4325 4666 
L 2547 0 
L 1831 0 
z
" transform="scale(0.015625)"/>
       <path id="DejaVuSans-47" d="M 3809 666 
L 3809 1919 
L 2778 1919 
L 2778 2438 
L 4434 2438 
L 4434 434 
Q 4069 175 3628 42 
Q 3188 -91 2688 -91 
Q 1594 -91 976 548 
Q 359 1188 359 2328 
Q 359 3472 976 4111 
Q 1594 4750 2688 4750 
Q 3144 4750 3555 4637 
Q 3966 4525 4313 4306 
L 4313 3634 
Q 3963 3931 3569 4081 
Q 3175 4231 2741 4231 
Q 1884 4231 1454 3753 
Q 1025 3275 1025 2328 
Q 1025 1384 1454 906 
Q 1884 428 2741 428 
Q 3075 428 3337 486 
Q 3600 544 3809 666 
z
" transform="scale(0.015625)"/>
      </defs>
      <use xlink:href="#DejaVuSans-46"/>
      <use xlink:href="#DejaVuSans-65" x="52.019531"/>
      <use xlink:href="#DejaVuSans-64" x="113.542969"/>
      <use xlink:href="#DejaVuSans-41" x="177.019531"/>
      <use xlink:href="#DejaVuSans-56" x="239.052734"/>
      <use xlink:href="#DejaVuSans-47" x="307.460938"/>
     </g>
    </g>
    <g id="line2d_24">
     <path d="M 297.442813 71.013906 
L 308.442813 71.013906 
L 319.442813 71.013906 
" style="fill: none; stroke: #55a868; stroke-width: 1.5; stroke-linecap: round"/>
    </g>
    <g id="text_17">
     <!-- FedClassAvg -->
     <g style="fill: #262626" transform="translate(328.242813 74.863906) scale(0.11 -0.11)">
      <defs>
       <path id="DejaVuSans-43" d="M 4122 4306 
L 4122 3641 
Q 3803 3938 3442 4084 
Q 3081 4231 2675 4231 
Q 1875 4231 1450 3742 
Q 1025 3253 1025 2328 
Q 1025 1406 1450 917 
Q 1875 428 2675 428 
Q 3081 428 3442 575 
Q 3803 722 4122 1019 
L 4122 359 
Q 3791 134 3420 21 
Q 3050 -91 2638 -91 
Q 1578 -91 968 557 
Q 359 1206 359 2328 
Q 359 3453 968 4101 
Q 1578 4750 2638 4750 
Q 3056 4750 3426 4639 
Q 3797 4528 4122 4306 
z
" transform="scale(0.015625)"/>
       <path id="DejaVuSans-6c" d="M 603 4863 
L 1178 4863 
L 1178 0 
L 603 0 
L 603 4863 
z
" transform="scale(0.015625)"/>
       <path id="DejaVuSans-76" d="M 191 3500 
L 800 3500 
L 1894 563 
L 2988 3500 
L 3597 3500 
L 2284 0 
L 1503 0 
L 191 3500 
z
" transform="scale(0.015625)"/>
      </defs>
      <use xlink:href="#DejaVuSans-46"/>
      <use xlink:href="#DejaVuSans-65" x="52.019531"/>
      <use xlink:href="#DejaVuSans-64" x="113.542969"/>
      <use xlink:href="#DejaVuSans-43" x="177.019531"/>
      <use xlink:href="#DejaVuSans-6c" x="246.84375"/>
      <use xlink:href="#DejaVuSans-61" x="274.626953"/>
      <use xlink:href="#DejaVuSans-73" x="335.90625"/>
      <use xlink:href="#DejaVuSans-73" x="388.005859"/>
      <use xlink:href="#DejaVuSans-41" x="440.105469"/>
      <use xlink:href="#DejaVuSans-76" x="502.638672"/>
      <use xlink:href="#DejaVuSans-67" x="561.818359"/>
     </g>
    </g>
    <g id="line2d_25">
     <path d="M 297.442813 87.159844 
L 308.442813 87.159844 
L 319.442813 87.159844 
" style="fill: none; stroke: #c44e52; stroke-width: 1.5; stroke-linecap: round"/>
    </g>
    <g id="text_18">
     <!-- FedPer -->
     <g style="fill: #262626" transform="translate(328.242813 91.009844) scale(0.11 -0.11)">
      <use xlink:href="#DejaVuSans-46"/>
      <use xlink:href="#DejaVuSans-65" x="52.019531"/>
      <use xlink:href="#DejaVuSans-64" x="113.542969"/>
      <use xlink:href="#DejaVuSans-50" x="177.019531"/>
      <use xlink:href="#DejaVuSans-65" x="233.697266"/>
      <use xlink:href="#DejaVuSans-72" x="295.220703"/>
     </g>
    </g>
    <g id="line2d_26">
     <path d="M 297.442813 103.305781 
L 308.442813 103.305781 
L 319.442813 103.305781 
" style="fill: none; stroke: #8172b3; stroke-width: 1.5; stroke-linecap: round"/>
    </g>
    <g id="text_19">
     <!-- FedProto -->
     <g style="fill: #262626" transform="translate(328.242813 107.155781) scale(0.11 -0.11)">
      <use xlink:href="#DejaVuSans-46"/>
      <use xlink:href="#DejaVuSans-65" x="52.019531"/>
      <use xlink:href="#DejaVuSans-64" x="113.542969"/>
      <use xlink:href="#DejaVuSans-50" x="177.019531"/>
      <use xlink:href="#DejaVuSans-72" x="235.572266"/>
      <use xlink:href="#DejaVuSans-6f" x="274.435547"/>
      <use xlink:href="#DejaVuSans-74" x="335.617188"/>
      <use xlink:href="#DejaVuSans-6f" x="374.826172"/>
     </g>
    </g>
   </g>
  </g>
 </g>
 <defs>
  <clipPath id="pc1887efd0f">
   <rect x="49.807187" y="7.2" width="357.12" height="266.112"/>
  </clipPath>
 </defs>
</svg>
