<?xml version="1.0" encoding="utf-8" standalone="no"?>
<!DOCTYPE svg PUBLIC "-//W3C//DTD SVG 1.1//EN"
  "http://www.w3.org/Graphics/SVG/1.1/DTD/svg11.dtd">
<svg xmlns:xlink="http://www.w3.org/1999/xlink" width="414.127187pt" height="319.16187pt" viewBox="0 0 414.127187 319.16187" xmlns="http://www.w3.org/2000/svg" version="1.1">
 <metadata>
  <rdf:RDF xmlns:dc="http://purl.org/dc/elements/1.1/" xmlns:cc="http://creativecommons.org/ns#" xmlns:rdf="http://www.w3.org/1999/02/22-rdf-syntax-ns#">
   <cc:Work>
    <dc:type rdf:resource="http://purl.org/dc/dcmitype/StillImage"/>
    <dc:date>2023-02-10T21:03:50.245871</dc:date>
    <dc:format>image/svg+xml</dc:format>
    <dc:creator>
     <cc:Agent>
      <dc:title>Matplotlib v3.6.3, https://matplotlib.org/</dc:title>
     </cc:Agent>
    </dc:creator>
   </cc:Work>
  </rdf:RDF>
 </metadata>
 <defs>
  <style type="text/css">*{stroke-linejoin: round; stroke-linecap: butt}</style>
 </defs>
 <g id="figure_1">
  <g id="patch_1">
   <path d="M 0 319.16187 
L 414.127187 319.16187 
L 414.127187 0 
L 0 0 
z
" style="fill: #ffffff"/>
  </g>
  <g id="axes_1">
   <g id="patch_2">
    <path d="M 49.807187 276.202182 
L 406.927188 276.202182 
L 406.927188 10.090182 
L 49.807187 10.090182 
z
" style="fill: #ffffff"/>
   </g>
   <g id="matplotlib.axis_1">
    <g id="xtick_1">
     <g id="line2d_1">
      <path d="M 62.760576 276.202182 
L 62.760576 10.090182 
" clip-path="url(#pe5a09fb21f)" style="fill: none; stroke: #cccccc; stroke-linecap: round"/>
     </g>
     <g id="text_1">
      <!-- 0 -->
      <g style="fill: #262626" transform="translate(59.261201 294.060463) scale(0.11 -0.11)">
       <defs>
        <path id="DejaVuSans-30" d="M 2034 4250 
Q 1547 4250 1301 3770 
Q 1056 3291 1056 2328 
Q 1056 1369 1301 889 
Q 1547 409 2034 409 
Q 2525 409 2770 889 
Q 3016 1369 3016 2328 
Q 3016 3291 2770 3770 
Q 2525 4250 2034 4250 
z
M 2034 4750 
Q 2819 4750 3233 4129 
Q 3647 3509 3647 2328 
Q 3647 1150 3233 529 
Q 2819 -91 2034 -91 
Q 1250 -91 836 529 
Q 422 1150 422 2328 
Q 422 3509 836 4129 
Q 1250 4750 2034 4750 
z
" transform="scale(0.015625)"/>
       </defs>
       <use xlink:href="#DejaVuSans-30"/>
      </g>
     </g>
    </g>
    <g id="xtick_2">
     <g id="line2d_2">
      <path d="M 128.347353 276.202182 
L 128.347353 10.090182 
" clip-path="url(#pe5a09fb21f)" style="fill: none; stroke: #cccccc; stroke-linecap: round"/>
     </g>
     <g id="text_2">
      <!-- 20 -->
      <g style="fill: #262626" transform="translate(121.348603 294.060463) scale(0.11 -0.11)">
       <defs>
        <path id="DejaVuSans-32" d="M 1228 531 
L 3431 531 
L 3431 0 
L 469 0 
L 469 531 
Q 828 903 1448 1529 
Q 2069 2156 2228 2338 
Q 2531 2678 2651 2914 
Q 2772 3150 2772 3378 
Q 2772 3750 2511 3984 
Q 2250 4219 1831 4219 
Q 1534 4219 1204 4116 
Q 875 4013 500 3803 
L 500 4441 
Q 881 4594 1212 4672 
Q 1544 4750 1819 4750 
Q 2544 4750 2975 4387 
Q 3406 4025 3406 3419 
Q 3406 3131 3298 2873 
Q 3191 2616 2906 2266 
Q 2828 2175 2409 1742 
Q 1991 1309 1228 531 
z
" transform="scale(0.015625)"/>
       </defs>
       <use xlink:href="#DejaVuSans-32"/>
       <use xlink:href="#DejaVuSans-30" x="63.623047"/>
      </g>
     </g>
    </g>
    <g id="xtick_3">
     <g id="line2d_3">
      <path d="M 193.93413 276.202182 
L 193.93413 10.090182 
" clip-path="url(#pe5a09fb21f)" style="fill: none; stroke: #cccccc; stroke-linecap: round"/>
     </g>
     <g id="text_3">
      <!-- 40 -->
      <g style="fill: #262626" transform="translate(186.93538 294.060463) scale(0.11 -0.11)">
       <defs>
        <path id="DejaVuSans-34" d="M 2419 4116 
L 825 1625 
L 2419 1625 
L 2419 4116 
z
M 2253 4666 
L 3047 4666 
L 3047 1625 
L 3713 1625 
L 3713 1100 
L 3047 1100 
L 3047 0 
L 2419 0 
L 2419 1100 
L 313 1100 
L 313 1709 
L 2253 4666 
z
" transform="scale(0.015625)"/>
       </defs>
       <use xlink:href="#DejaVuSans-34"/>
       <use xlink:href="#DejaVuSans-30" x="63.623047"/>
      </g>
     </g>
    </g>
    <g id="xtick_4">
     <g id="line2d_4">
      <path d="M 259.520907 276.202182 
L 259.520907 10.090182 
" clip-path="url(#pe5a09fb21f)" style="fill: none; stroke: #cccccc; stroke-linecap: round"/>
     </g>
     <g id="text_4">
      <!-- 60 -->
      <g style="fill: #262626" transform="translate(252.522157 294.060463) scale(0.11 -0.11)">
       <defs>
        <path id="DejaVuSans-36" d="M 2113 2584 
Q 1688 2584 1439 2293 
Q 1191 2003 1191 1497 
Q 1191 994 1439 701 
Q 1688 409 2113 409 
Q 2538 409 2786 701 
Q 3034 994 3034 1497 
Q 3034 2003 2786 2293 
Q 2538 2584 2113 2584 
z
M 3366 4563 
L 3366 3988 
Q 3128 4100 2886 4159 
Q 2644 4219 2406 4219 
Q 1781 4219 1451 3797 
Q 1122 3375 1075 2522 
Q 1259 2794 1537 2939 
Q 1816 3084 2150 3084 
Q 2853 3084 3261 2657 
Q 3669 2231 3669 1497 
Q 3669 778 3244 343 
Q 2819 -91 2113 -91 
Q 1303 -91 875 529 
Q 447 1150 447 2328 
Q 447 3434 972 4092 
Q 1497 4750 2381 4750 
Q 2619 4750 2861 4703 
Q 3103 4656 3366 4563 
z
" transform="scale(0.015625)"/>
       </defs>
       <use xlink:href="#DejaVuSans-36"/>
       <use xlink:href="#DejaVuSans-30" x="63.623047"/>
      </g>
     </g>
    </g>
    <g id="xtick_5">
     <g id="line2d_5">
      <path d="M 325.107683 276.202182 
L 325.107683 10.090182 
" clip-path="url(#pe5a09fb21f)" style="fill: none; stroke: #cccccc; stroke-linecap: round"/>
     </g>
     <g id="text_5">
      <!-- 80 -->
      <g style="fill: #262626" transform="translate(318.108933 294.060463) scale(0.11 -0.11)">
       <defs>
        <path id="DejaVuSans-38" d="M 2034 2216 
Q 1584 2216 1326 1975 
Q 1069 1734 1069 1313 
Q 1069 891 1326 650 
Q 1584 409 2034 409 
Q 2484 409 2743 651 
Q 3003 894 3003 1313 
Q 3003 1734 2745 1975 
Q 2488 2216 2034 2216 
z
M 1403 2484 
Q 997 2584 770 2862 
Q 544 3141 544 3541 
Q 544 4100 942 4425 
Q 1341 4750 2034 4750 
Q 2731 4750 3128 4425 
Q 3525 4100 3525 3541 
Q 3525 3141 3298 2862 
Q 3072 2584 2669 2484 
Q 3125 2378 3379 2068 
Q 3634 1759 3634 1313 
Q 3634 634 3220 271 
Q 2806 -91 2034 -91 
Q 1263 -91 848 271 
Q 434 634 434 1313 
Q 434 1759 690 2068 
Q 947 2378 1403 2484 
z
M 1172 3481 
Q 1172 3119 1398 2916 
Q 1625 2713 2034 2713 
Q 2441 2713 2670 2916 
Q 2900 3119 2900 3481 
Q 2900 3844 2670 4047 
Q 2441 4250 2034 4250 
Q 1625 4250 1398 4047 
Q 1172 3844 1172 3481 
z
" transform="scale(0.015625)"/>
       </defs>
       <use xlink:href="#DejaVuSans-38"/>
       <use xlink:href="#DejaVuSans-30" x="63.623047"/>
      </g>
     </g>
    </g>
    <g id="xtick_6">
     <g id="line2d_6">
      <path d="M 390.69446 276.202182 
L 390.69446 10.090182 
" clip-path="url(#pe5a09fb21f)" style="fill: none; stroke: #cccccc; stroke-linecap: round"/>
     </g>
     <g id="text_6">
      <!-- 100 -->
      <g style="fill: #262626" transform="translate(380.196335 294.060463) scale(0.11 -0.11)">
       <defs>
        <path id="DejaVuSans-31" d="M 794 531 
L 1825 531 
L 1825 4091 
L 703 3866 
L 703 4441 
L 1819 4666 
L 2450 4666 
L 2450 531 
L 3481 531 
L 3481 0 
L 794 0 
L 794 531 
z
" transform="scale(0.015625)"/>
       </defs>
       <use xlink:href="#DejaVuSans-31"/>
       <use xlink:href="#DejaVuSans-30" x="63.623047"/>
       <use xlink:href="#DejaVuSans-30" x="127.246094"/>
      </g>
     </g>
    </g>
    <g id="text_7">
     <!-- Round -->
     <g style="fill: #262626" transform="translate(209.382812 309.466245) scale(0.12 -0.12)">
      <defs>
       <path id="DejaVuSans-52" d="M 2841 2188 
Q 3044 2119 3236 1894 
Q 3428 1669 3622 1275 
L 4263 0 
L 3584 0 
L 2988 1197 
Q 2756 1666 2539 1819 
Q 2322 1972 1947 1972 
L 1259 1972 
L 1259 0 
L 628 0 
L 628 4666 
L 2053 4666 
Q 2853 4666 3247 4331 
Q 3641 3997 3641 3322 
Q 3641 2881 3436 2590 
Q 3231 2300 2841 2188 
z
M 1259 4147 
L 1259 2491 
L 2053 2491 
Q 2509 2491 2742 2702 
Q 2975 2913 2975 3322 
Q 2975 3731 2742 3939 
Q 2509 4147 2053 4147 
L 1259 4147 
z
" transform="scale(0.015625)"/>
       <path id="DejaVuSans-6f" d="M 1959 3097 
Q 1497 3097 1228 2736 
Q 959 2375 959 1747 
Q 959 1119 1226 758 
Q 1494 397 1959 397 
Q 2419 397 2687 759 
Q 2956 1122 2956 1747 
Q 2956 2369 2687 2733 
Q 2419 3097 1959 3097 
z
M 1959 3584 
Q 2709 3584 3137 3096 
Q 3566 2609 3566 1747 
Q 3566 888 3137 398 
Q 2709 -91 1959 -91 
Q 1206 -91 779 398 
Q 353 888 353 1747 
Q 353 2609 779 3096 
Q 1206 3584 1959 3584 
z
" transform="scale(0.015625)"/>
       <path id="DejaVuSans-75" d="M 544 1381 
L 544 3500 
L 1119 3500 
L 1119 1403 
Q 1119 906 1312 657 
Q 1506 409 1894 409 
Q 2359 409 2629 706 
Q 2900 1003 2900 1516 
L 2900 3500 
L 3475 3500 
L 3475 0 
L 2900 0 
L 2900 538 
Q 2691 219 2414 64 
Q 2138 -91 1772 -91 
Q 1169 -91 856 284 
Q 544 659 544 1381 
z
M 1991 3584 
L 1991 3584 
z
" transform="scale(0.015625)"/>
       <path id="DejaVuSans-6e" d="M 3513 2113 
L 3513 0 
L 2938 0 
L 2938 2094 
Q 2938 2591 2744 2837 
Q 2550 3084 2163 3084 
Q 1697 3084 1428 2787 
Q 1159 2491 1159 1978 
L 1159 0 
L 581 0 
L 581 3500 
L 1159 3500 
L 1159 2956 
Q 1366 3272 1645 3428 
Q 1925 3584 2291 3584 
Q 2894 3584 3203 3211 
Q 3513 2838 3513 2113 
z
" transform="scale(0.015625)"/>
       <path id="DejaVuSans-64" d="M 2906 2969 
L 2906 4863 
L 3481 4863 
L 3481 0 
L 2906 0 
L 2906 525 
Q 2725 213 2448 61 
Q 2172 -91 1784 -91 
Q 1150 -91 751 415 
Q 353 922 353 1747 
Q 353 2572 751 3078 
Q 1150 3584 1784 3584 
Q 2172 3584 2448 3432 
Q 2725 3281 2906 2969 
z
M 947 1747 
Q 947 1113 1208 752 
Q 1469 391 1925 391 
Q 2381 391 2643 752 
Q 2906 1113 2906 1747 
Q 2906 2381 2643 2742 
Q 2381 3103 1925 3103 
Q 1469 3103 1208 2742 
Q 947 2381 947 1747 
z
" transform="scale(0.015625)"/>
      </defs>
      <use xlink:href="#DejaVuSans-52"/>
      <use xlink:href="#DejaVuSans-6f" x="64.982422"/>
      <use xlink:href="#DejaVuSans-75" x="126.164062"/>
      <use xlink:href="#DejaVuSans-6e" x="189.542969"/>
      <use xlink:href="#DejaVuSans-64" x="252.921875"/>
     </g>
    </g>
   </g>
   <g id="matplotlib.axis_2">
    <g id="ytick_1">
     <g id="line2d_7">
      <path d="M 49.807187 266.633571 
L 406.927188 266.633571 
" clip-path="url(#pe5a09fb21f)" style="fill: none; stroke: #cccccc; stroke-linecap: round"/>
     </g>
     <g id="text_8">
      <!-- 0.0 -->
      <g style="fill: #262626" transform="translate(22.81375 270.812712) scale(0.11 -0.11)">
       <defs>
        <path id="DejaVuSans-2e" d="M 684 794 
L 1344 794 
L 1344 0 
L 684 0 
L 684 794 
z
" transform="scale(0.015625)"/>
       </defs>
       <use xlink:href="#DejaVuSans-30"/>
       <use xlink:href="#DejaVuSans-2e" x="63.623047"/>
       <use xlink:href="#DejaVuSans-30" x="95.410156"/>
      </g>
     </g>
    </g>
    <g id="ytick_2">
     <g id="line2d_8">
      <path d="M 49.807187 230.168653 
L 406.927188 230.168653 
" clip-path="url(#pe5a09fb21f)" style="fill: none; stroke: #cccccc; stroke-linecap: round"/>
     </g>
     <g id="text_9">
      <!-- 0.5 -->
      <g style="fill: #262626" transform="translate(22.81375 234.347793) scale(0.11 -0.11)">
       <defs>
        <path id="DejaVuSans-35" d="M 691 4666 
L 3169 4666 
L 3169 4134 
L 1269 4134 
L 1269 2991 
Q 1406 3038 1543 3061 
Q 1681 3084 1819 3084 
Q 2600 3084 3056 2656 
Q 3513 2228 3513 1497 
Q 3513 744 3044 326 
Q 2575 -91 1722 -91 
Q 1428 -91 1123 -41 
Q 819 9 494 109 
L 494 744 
Q 775 591 1075 516 
Q 1375 441 1709 441 
Q 2250 441 2565 725 
Q 2881 1009 2881 1497 
Q 2881 1984 2565 2268 
Q 2250 2553 1709 2553 
Q 1456 2553 1204 2497 
Q 953 2441 691 2322 
L 691 4666 
z
" transform="scale(0.015625)"/>
       </defs>
       <use xlink:href="#DejaVuSans-30"/>
       <use xlink:href="#DejaVuSans-2e" x="63.623047"/>
       <use xlink:href="#DejaVuSans-35" x="95.410156"/>
      </g>
     </g>
    </g>
    <g id="ytick_3">
     <g id="line2d_9">
      <path d="M 49.807187 193.703734 
L 406.927188 193.703734 
" clip-path="url(#pe5a09fb21f)" style="fill: none; stroke: #cccccc; stroke-linecap: round"/>
     </g>
     <g id="text_10">
      <!-- 1.0 -->
      <g style="fill: #262626" transform="translate(22.81375 197.882875) scale(0.11 -0.11)">
       <use xlink:href="#DejaVuSans-31"/>
       <use xlink:href="#DejaVuSans-2e" x="63.623047"/>
       <use xlink:href="#DejaVuSans-30" x="95.410156"/>
      </g>
     </g>
    </g>
    <g id="ytick_4">
     <g id="line2d_10">
      <path d="M 49.807187 157.238815 
L 406.927188 157.238815 
" clip-path="url(#pe5a09fb21f)" style="fill: none; stroke: #cccccc; stroke-linecap: round"/>
     </g>
     <g id="text_11">
      <!-- 1.5 -->
      <g style="fill: #262626" transform="translate(22.81375 161.417956) scale(0.11 -0.11)">
       <use xlink:href="#DejaVuSans-31"/>
       <use xlink:href="#DejaVuSans-2e" x="63.623047"/>
       <use xlink:href="#DejaVuSans-35" x="95.410156"/>
      </g>
     </g>
    </g>
    <g id="ytick_5">
     <g id="line2d_11">
      <path d="M 49.807187 120.773897 
L 406.927188 120.773897 
" clip-path="url(#pe5a09fb21f)" style="fill: none; stroke: #cccccc; stroke-linecap: round"/>
     </g>
     <g id="text_12">
      <!-- 2.0 -->
      <g style="fill: #262626" transform="translate(22.81375 124.953037) scale(0.11 -0.11)">
       <use xlink:href="#DejaVuSans-32"/>
       <use xlink:href="#DejaVuSans-2e" x="63.623047"/>
       <use xlink:href="#DejaVuSans-30" x="95.410156"/>
      </g>
     </g>
    </g>
    <g id="ytick_6">
     <g id="line2d_12">
      <path d="M 49.807187 84.308978 
L 406.927188 84.308978 
" clip-path="url(#pe5a09fb21f)" style="fill: none; stroke: #cccccc; stroke-linecap: round"/>
     </g>
     <g id="text_13">
      <!-- 2.5 -->
      <g style="fill: #262626" transform="translate(22.81375 88.488119) scale(0.11 -0.11)">
       <use xlink:href="#DejaVuSans-32"/>
       <use xlink:href="#DejaVuSans-2e" x="63.623047"/>
       <use xlink:href="#DejaVuSans-35" x="95.410156"/>
      </g>
     </g>
    </g>
    <g id="ytick_7">
     <g id="line2d_13">
      <path d="M 49.807187 47.844059 
L 406.927188 47.844059 
" clip-path="url(#pe5a09fb21f)" style="fill: none; stroke: #cccccc; stroke-linecap: round"/>
     </g>
     <g id="text_14">
      <!-- 3.0 -->
      <g style="fill: #262626" transform="translate(22.81375 52.0232) scale(0.11 -0.11)">
       <defs>
        <path id="DejaVuSans-33" d="M 2597 2516 
Q 3050 2419 3304 2112 
Q 3559 1806 3559 1356 
Q 3559 666 3084 287 
Q 2609 -91 1734 -91 
Q 1441 -91 1130 -33 
Q 819 25 488 141 
L 488 750 
Q 750 597 1062 519 
Q 1375 441 1716 441 
Q 2309 441 2620 675 
Q 2931 909 2931 1356 
Q 2931 1769 2642 2001 
Q 2353 2234 1838 2234 
L 1294 2234 
L 1294 2753 
L 1863 2753 
Q 2328 2753 2575 2939 
Q 2822 3125 2822 3475 
Q 2822 3834 2567 4026 
Q 2313 4219 1838 4219 
Q 1578 4219 1281 4162 
Q 984 4106 628 3988 
L 628 4550 
Q 988 4650 1302 4700 
Q 1616 4750 1894 4750 
Q 2613 4750 3031 4423 
Q 3450 4097 3450 3541 
Q 3450 3153 3228 2886 
Q 3006 2619 2597 2516 
z
" transform="scale(0.015625)"/>
       </defs>
       <use xlink:href="#DejaVuSans-33"/>
       <use xlink:href="#DejaVuSans-2e" x="63.623047"/>
       <use xlink:href="#DejaVuSans-30" x="95.410156"/>
      </g>
     </g>
    </g>
    <g id="ytick_8">
     <g id="line2d_14">
      <path d="M 49.807187 11.379141 
L 406.927188 11.379141 
" clip-path="url(#pe5a09fb21f)" style="fill: none; stroke: #cccccc; stroke-linecap: round"/>
     </g>
     <g id="text_15">
      <!-- 3.5 -->
      <g style="fill: #262626" transform="translate(22.81375 15.558281) scale(0.11 -0.11)">
       <use xlink:href="#DejaVuSans-33"/>
       <use xlink:href="#DejaVuSans-2e" x="63.623047"/>
       <use xlink:href="#DejaVuSans-35" x="95.410156"/>
      </g>
     </g>
    </g>
    <g id="text_16">
     <!-- Loss -->
     <g style="fill: #262626" transform="translate(16.318125 156.306807) rotate(-90) scale(0.12 -0.12)">
      <defs>
       <path id="DejaVuSans-4c" d="M 628 4666 
L 1259 4666 
L 1259 531 
L 3531 531 
L 3531 0 
L 628 0 
L 628 4666 
z
" transform="scale(0.015625)"/>
       <path id="DejaVuSans-73" d="M 2834 3397 
L 2834 2853 
Q 2591 2978 2328 3040 
Q 2066 3103 1784 3103 
Q 1356 3103 1142 2972 
Q 928 2841 928 2578 
Q 928 2378 1081 2264 
Q 1234 2150 1697 2047 
L 1894 2003 
Q 2506 1872 2764 1633 
Q 3022 1394 3022 966 
Q 3022 478 2636 193 
Q 2250 -91 1575 -91 
Q 1294 -91 989 -36 
Q 684 19 347 128 
L 347 722 
Q 666 556 975 473 
Q 1284 391 1588 391 
Q 1994 391 2212 530 
Q 2431 669 2431 922 
Q 2431 1156 2273 1281 
Q 2116 1406 1581 1522 
L 1381 1569 
Q 847 1681 609 1914 
Q 372 2147 372 2553 
Q 372 3047 722 3315 
Q 1072 3584 1716 3584 
Q 2034 3584 2315 3537 
Q 2597 3491 2834 3397 
z
" transform="scale(0.015625)"/>
      </defs>
      <use xlink:href="#DejaVuSans-4c"/>
      <use xlink:href="#DejaVuSans-6f" x="53.962891"/>
      <use xlink:href="#DejaVuSans-73" x="115.144531"/>
      <use xlink:href="#DejaVuSans-73" x="167.244141"/>
     </g>
    </g>
   </g>
   <g id="PolyCollection_1">
    <defs>
     <path id="m7c1e153c32" d="M 66.039915 -243.093211 
L 66.039915 -199.586977 
L 69.319254 -174.844038 
L 72.598592 -131.522737 
L 75.877931 -112.135881 
L 79.15727 -91.042403 
L 82.436609 -88.508478 
L 85.715948 -82.353516 
L 88.995287 -74.832121 
L 92.274626 -71.066667 
L 95.553964 -69.273447 
L 98.833303 -67.903144 
L 102.112642 -63.957943 
L 105.391981 -63.951904 
L 108.67132 -63.215743 
L 111.950659 -62.548104 
L 115.229997 -62.590534 
L 118.509336 -62.420208 
L 121.788675 -60.299183 
L 125.068014 -60.983281 
L 128.347353 -61.176795 
L 131.626692 -61.117046 
L 134.90603 -59.065737 
L 138.185369 -60.663259 
L 141.464708 -59.262182 
L 144.744047 -59.857561 
L 148.023386 -60.490545 
L 151.302725 -59.890572 
L 154.582064 -59.326006 
L 157.861402 -58.937266 
L 161.140741 -60.527451 
L 164.42008 -58.185865 
L 167.699419 -57.757193 
L 170.978758 -57.872584 
L 174.258097 -57.607136 
L 177.537435 -57.263131 
L 180.816774 -57.868428 
L 184.096113 -57.255606 
L 187.375452 -56.636465 
L 190.654791 -57.339809 
L 193.93413 -56.48445 
L 197.213468 -56.528442 
L 200.492807 -56.549479 
L 203.772146 -56.212521 
L 207.051485 -56.232978 
L 210.330824 -56.311029 
L 213.610163 -57.348685 
L 216.889502 -57.030795 
L 220.16884 -57.341407 
L 223.448179 -56.491663 
L 226.727518 -56.441371 
L 230.006857 -56.80405 
L 233.286196 -55.963842 
L 236.565535 -56.119611 
L 239.844873 -55.611354 
L 243.124212 -55.708705 
L 246.403551 -55.179809 
L 249.68289 -55.513525 
L 252.962229 -55.823934 
L 256.241568 -55.437995 
L 259.520907 -55.694426 
L 262.800245 -56.019154 
L 266.079584 -55.580488 
L 269.358923 -55.656362 
L 272.638262 -55.326036 
L 275.917601 -55.055688 
L 279.19694 -55.650907 
L 282.476278 -55.661234 
L 285.755617 -55.442154 
L 289.034956 -55.394834 
L 292.314295 -59.02325 
L 295.593634 -62.15925 
L 298.872973 -60.597754 
L 302.152311 -59.197349 
L 305.43165 -60.397456 
L 308.710989 -57.811013 
L 311.990328 -57.631926 
L 315.269667 -58.507206 
L 318.549006 -57.557657 
L 321.828345 -58.671406 
L 325.107683 -57.730123 
L 328.387022 -57.478508 
L 331.666361 -59.784937 
L 334.9457 -57.801661 
L 338.225039 -58.002951 
L 341.504378 -58.367068 
L 344.783716 -58.417133 
L 348.063055 -57.917295 
L 351.342394 -58.614152 
L 354.621733 -57.391422 
L 357.901072 -60.029284 
L 361.180411 -58.40816 
L 364.459749 -56.713656 
L 367.739088 -57.108875 
L 371.018427 -57.498816 
L 374.297766 -60.546714 
L 377.577105 -59.53863 
L 380.856444 -57.306355 
L 384.135783 -56.594597 
L 387.415121 -57.204753 
L 390.69446 -56.124417 
L 390.69446 -60.023228 
L 390.69446 -60.023228 
L 387.415121 -62.571309 
L 384.135783 -59.378373 
L 380.856444 -61.671527 
L 377.577105 -66.902131 
L 374.297766 -71.969 
L 371.018427 -62.760781 
L 367.739088 -60.981575 
L 364.459749 -61.639253 
L 361.180411 -65.114477 
L 357.901072 -69.154465 
L 354.621733 -61.941102 
L 351.342394 -64.861266 
L 348.063055 -62.552113 
L 344.783716 -64.259499 
L 341.504378 -65.52999 
L 338.225039 -64.801035 
L 334.9457 -64.22059 
L 331.666361 -68.108605 
L 328.387022 -61.656095 
L 325.107683 -62.579475 
L 321.828345 -64.737469 
L 318.549006 -61.423384 
L 315.269667 -64.931877 
L 311.990328 -63.371682 
L 308.710989 -62.317684 
L 305.43165 -71.043851 
L 302.152311 -67.536892 
L 298.872973 -70.92942 
L 295.593634 -74.605975 
L 292.314295 -65.632828 
L 289.034956 -59.388852 
L 285.755617 -58.986547 
L 282.476278 -60.67276 
L 279.19694 -63.408828 
L 275.917601 -58.736798 
L 272.638262 -58.565856 
L 269.358923 -59.749722 
L 266.079584 -59.154297 
L 262.800245 -60.201744 
L 259.520907 -60.518021 
L 256.241568 -58.792109 
L 252.962229 -58.593931 
L 249.68289 -58.726171 
L 246.403551 -57.93333 
L 243.124212 -58.548597 
L 239.844873 -58.242555 
L 236.565535 -59.087315 
L 233.286196 -58.383762 
L 230.006857 -60.892502 
L 226.727518 -59.682364 
L 223.448179 -61.281634 
L 220.16884 -63.532215 
L 216.889502 -61.355509 
L 213.610163 -65.042069 
L 210.330824 -67.3343 
L 207.051485 -59.810833 
L 203.772146 -59.137226 
L 200.492807 -60.153204 
L 197.213468 -59.743008 
L 193.93413 -59.861738 
L 190.654791 -61.174374 
L 187.375452 -61.559384 
L 184.096113 -63.938173 
L 180.816774 -62.636048 
L 177.537435 -61.092551 
L 174.258097 -62.557425 
L 170.978758 -62.429617 
L 167.699419 -64.941056 
L 164.42008 -65.692262 
L 161.140741 -67.430678 
L 157.861402 -64.285149 
L 154.582064 -69.587497 
L 151.302725 -66.206555 
L 148.023386 -66.727439 
L 144.744047 -66.120778 
L 141.464708 -63.951204 
L 138.185369 -67.724525 
L 134.90603 -63.187734 
L 131.626692 -67.182748 
L 128.347353 -67.822296 
L 125.068014 -67.450142 
L 121.788675 -65.366135 
L 118.509336 -73.484768 
L 115.229997 -74.28125 
L 111.950659 -74.761473 
L 108.67132 -73.283495 
L 105.391981 -76.272183 
L 102.112642 -71.574341 
L 98.833303 -79.11859 
L 95.553964 -86.025515 
L 92.274626 -88.437552 
L 88.995287 -97.576639 
L 85.715948 -126.051697 
L 82.436609 -123.658443 
L 79.15727 -130.400429 
L 75.877931 -172.618749 
L 72.598592 -190.902804 
L 69.319254 -238.886117 
L 66.039915 -243.093211 
z
" style="stroke: #4c72b0; stroke-opacity: 0.2"/>
    </defs>
    <g clip-path="url(#pe5a09fb21f)">
     <use xlink:href="#m7c1e153c32" x="0" y="319.16187" style="fill: #4c72b0; fill-opacity: 0.2; stroke: #4c72b0; stroke-opacity: 0.2"/>
    </g>
   </g>
   <g id="PolyCollection_2">
    <defs>
     <path id="m1341ece2b0" d="M 66.039915 -255.005248 
L 66.039915 -223.311686 
L 69.319254 -237.282765 
L 72.598592 -179.470358 
L 75.877931 -162.846547 
L 79.15727 -145.317859 
L 82.436609 -141.572241 
L 85.715948 -155.848851 
L 88.995287 -123.72364 
L 92.274626 -108.445801 
L 95.553964 -105.166574 
L 98.833303 -110.747687 
L 102.112642 -89.280775 
L 105.391981 -89.076139 
L 108.67132 -87.47591 
L 111.950659 -96.469464 
L 115.229997 -95.742978 
L 118.509336 -89.633329 
L 121.788675 -91.00818 
L 125.068014 -93.147 
L 128.347353 -89.296187 
L 131.626692 -93.138154 
L 134.90603 -80.278609 
L 138.185369 -89.830346 
L 141.464708 -75.306674 
L 144.744047 -80.907539 
L 148.023386 -94.086165 
L 151.302725 -93.736383 
L 154.582064 -94.859817 
L 157.861402 -80.584885 
L 161.140741 -96.885062 
L 164.42008 -75.295534 
L 167.699419 -77.123711 
L 170.978758 -83.294215 
L 174.258097 -78.973195 
L 177.537435 -75.139585 
L 180.816774 -81.09729 
L 184.096113 -78.074682 
L 187.375452 -75.781344 
L 190.654791 -90.641165 
L 193.93413 -73.408779 
L 197.213468 -76.005762 
L 200.492807 -77.112501 
L 203.772146 -68.77099 
L 207.051485 -70.461171 
L 210.330824 -71.571955 
L 213.610163 -89.482878 
L 216.889502 -81.032427 
L 220.16884 -81.838972 
L 223.448179 -73.985031 
L 226.727518 -71.961672 
L 230.006857 -78.355486 
L 233.286196 -67.928061 
L 236.565535 -69.605505 
L 239.844873 -67.601984 
L 243.124212 -69.508518 
L 246.403551 -66.063752 
L 249.68289 -68.320781 
L 252.962229 -84.739544 
L 256.241568 -66.993246 
L 259.520907 -78.20131 
L 262.800245 -91.028617 
L 266.079584 -67.09392 
L 269.358923 -69.1146 
L 272.638262 -67.248428 
L 275.917601 -66.341842 
L 279.19694 -69.527028 
L 282.476278 -82.179002 
L 285.755617 -79.133812 
L 289.034956 -73.792501 
L 292.314295 -71.003716 
L 295.593634 -81.925576 
L 298.872973 -74.54826 
L 302.152311 -71.990939 
L 305.43165 -79.269102 
L 308.710989 -68.660321 
L 311.990328 -69.197712 
L 315.269667 -69.916241 
L 318.549006 -66.057332 
L 321.828345 -69.428994 
L 325.107683 -65.898618 
L 328.387022 -65.693626 
L 331.666361 -75.54085 
L 334.9457 -68.957933 
L 338.225039 -69.495418 
L 341.504378 -70.526379 
L 344.783716 -68.968382 
L 348.063055 -68.884383 
L 351.342394 -67.574051 
L 354.621733 -64.755345 
L 357.901072 -72.98604 
L 361.180411 -67.843134 
L 364.459749 -65.152233 
L 367.739088 -64.158353 
L 371.018427 -64.955879 
L 374.297766 -78.795032 
L 377.577105 -71.331401 
L 380.856444 -66.757751 
L 384.135783 -62.867867 
L 387.415121 -66.798738 
L 390.69446 -63.83792 
L 390.69446 -73.106821 
L 390.69446 -73.106821 
L 387.415121 -79.508859 
L 384.135783 -66.681627 
L 380.856444 -72.059048 
L 377.577105 -83.528799 
L 374.297766 -96.675094 
L 371.018427 -69.959658 
L 367.739088 -68.875807 
L 364.459749 -70.915278 
L 361.180411 -75.552521 
L 357.901072 -82.25659 
L 354.621733 -70.748983 
L 351.342394 -75.09216 
L 348.063055 -77.675657 
L 344.783716 -79.314712 
L 341.504378 -81.599487 
L 338.225039 -79.502499 
L 334.9457 -80.101234 
L 331.666361 -87.865474 
L 328.387022 -69.899034 
L 325.107683 -72.252325 
L 321.828345 -77.200477 
L 318.549006 -69.87872 
L 315.269667 -77.169065 
L 311.990328 -77.356266 
L 308.710989 -76.197991 
L 305.43165 -97.249275 
L 302.152311 -82.347031 
L 298.872973 -88.849516 
L 295.593634 -98.410201 
L 292.314295 -78.245079 
L 289.034956 -93.945755 
L 285.755617 -103.636893 
L 282.476278 -110.303232 
L 279.19694 -83.764984 
L 275.917601 -75.035144 
L 272.638262 -75.38631 
L 269.358923 -76.221027 
L 266.079584 -73.893847 
L 262.800245 -118.873574 
L 259.520907 -95.349675 
L 256.241568 -74.228916 
L 252.962229 -113.43473 
L 249.68289 -75.900243 
L 246.403551 -71.308298 
L 243.124212 -83.604504 
L 239.844873 -77.402093 
L 236.565535 -80.393581 
L 233.286196 -72.20727 
L 230.006857 -91.845235 
L 226.727518 -79.002929 
L 223.448179 -91.68197 
L 220.16884 -110.865676 
L 216.889502 -99.577407 
L 213.610163 -125.068759 
L 210.330824 -84.092082 
L 207.051485 -85.194696 
L 203.772146 -76.072567 
L 200.492807 -85.390928 
L 197.213468 -90.124577 
L 193.93413 -86.912111 
L 190.654791 -108.048768 
L 187.375452 -83.986056 
L 184.096113 -94.90944 
L 180.816774 -99.133099 
L 177.537435 -89.126905 
L 174.258097 -89.510194 
L 170.978758 -100.351308 
L 167.699419 -97.209095 
L 164.42008 -96.141802 
L 161.140741 -143.527967 
L 157.861402 -107.943605 
L 154.582064 -130.285286 
L 151.302725 -127.088702 
L 148.023386 -119.034116 
L 144.744047 -98.291818 
L 141.464708 -84.638546 
L 138.185369 -114.988769 
L 134.90603 -89.951654 
L 131.626692 -117.40087 
L 128.347353 -106.658241 
L 125.068014 -114.777892 
L 121.788675 -107.701553 
L 118.509336 -111.787065 
L 115.229997 -120.861287 
L 111.950659 -127.164239 
L 108.67132 -98.825051 
L 105.391981 -100.142523 
L 102.112642 -107.563857 
L 98.833303 -141.211436 
L 95.553964 -127.327668 
L 92.274626 -124.898632 
L 88.995287 -153.80543 
L 85.715948 -218.669295 
L 82.436609 -187.812351 
L 79.15727 -181.144896 
L 75.877931 -221.186097 
L 72.598592 -233.124446 
L 69.319254 -290.283411 
L 66.039915 -255.005248 
z
" style="stroke: #dd8452; stroke-opacity: 0.2"/>
    </defs>
    <g clip-path="url(#pe5a09fb21f)">
     <use xlink:href="#m1341ece2b0" x="0" y="319.16187" style="fill: #dd8452; fill-opacity: 0.2; stroke: #dd8452; stroke-opacity: 0.2"/>
    </g>
   </g>
   <g id="PolyCollection_3">
    <defs>
     <path id="m2d6a7ca3c2" d="M 66.039915 -296.975687 
L 66.039915 -200.794806 
L 69.319254 -164.882387 
L 72.598592 -144.159019 
L 75.877931 -128.49045 
L 79.15727 -125.4202 
L 82.436609 -114.066345 
L 85.715948 -104.776178 
L 88.995287 -100.734538 
L 92.274626 -98.919157 
L 95.553964 -94.123084 
L 98.833303 -87.597042 
L 102.112642 -83.333852 
L 105.391981 -80.417985 
L 108.67132 -76.892455 
L 111.950659 -74.69618 
L 115.229997 -73.298532 
L 118.509336 -72.152909 
L 121.788675 -70.002165 
L 125.068014 -69.239539 
L 128.347353 -68.938637 
L 131.626692 -68.223934 
L 134.90603 -66.20815 
L 138.185369 -65.90978 
L 141.464708 -65.845743 
L 144.744047 -64.713006 
L 148.023386 -64.927034 
L 151.302725 -63.824306 
L 154.582064 -63.164237 
L 157.861402 -62.822484 
L 161.140741 -62.77477 
L 164.42008 -61.875972 
L 167.699419 -61.773509 
L 170.978758 -61.306591 
L 174.258097 -60.957638 
L 177.537435 -60.893718 
L 180.816774 -60.781325 
L 184.096113 -60.558229 
L 187.375452 -60.339907 
L 190.654791 -60.998341 
L 193.93413 -60.432459 
L 197.213468 -60.542593 
L 200.492807 -60.662687 
L 203.772146 -60.790798 
L 207.051485 -59.939569 
L 210.330824 -59.896644 
L 213.610163 -60.100864 
L 216.889502 -59.750037 
L 220.16884 -59.855591 
L 223.448179 -59.866555 
L 226.727518 -58.811786 
L 230.006857 -58.498813 
L 233.286196 -58.345472 
L 236.565535 -58.469626 
L 239.844873 -58.43821 
L 243.124212 -58.233607 
L 246.403551 -58.216326 
L 249.68289 -57.88465 
L 252.962229 -57.830659 
L 256.241568 -57.874137 
L 259.520907 -58.353205 
L 262.800245 -58.157814 
L 266.079584 -57.912073 
L 269.358923 -57.881296 
L 272.638262 -57.629322 
L 275.917601 -57.258224 
L 279.19694 -57.544175 
L 282.476278 -57.46842 
L 285.755617 -57.329297 
L 289.034956 -57.424678 
L 292.314295 -90.602721 
L 295.593634 -89.254145 
L 298.872973 -90.134769 
L 302.152311 -88.104385 
L 305.43165 -89.848964 
L 308.710989 -88.023674 
L 311.990328 -87.020673 
L 315.269667 -90.011468 
L 318.549006 -90.052956 
L 321.828345 -90.77777 
L 325.107683 -88.939638 
L 328.387022 -88.939238 
L 331.666361 -89.51012 
L 334.9457 -89.263234 
L 338.225039 -88.478733 
L 341.504378 -89.217326 
L 344.783716 -89.420575 
L 348.063055 -88.158364 
L 351.342394 -89.170147 
L 354.621733 -88.6154 
L 357.901072 -88.027667 
L 361.180411 -89.49616 
L 364.459749 -87.629868 
L 367.739088 -88.149935 
L 371.018427 -89.961214 
L 374.297766 -87.938907 
L 377.577105 -90.021947 
L 380.856444 -87.416497 
L 384.135783 -88.49997 
L 387.415121 -87.468999 
L 390.69446 -88.100217 
L 390.69446 -128.634576 
L 390.69446 -128.634576 
L 387.415121 -128.410731 
L 384.135783 -129.923627 
L 380.856444 -129.503047 
L 377.577105 -128.132956 
L 374.297766 -130.155659 
L 371.018427 -130.34922 
L 367.739088 -130.116291 
L 364.459749 -130.290455 
L 361.180411 -129.882327 
L 357.901072 -131.878075 
L 354.621733 -129.713436 
L 351.342394 -128.96306 
L 348.063055 -129.737171 
L 344.783716 -127.817261 
L 341.504378 -128.995552 
L 338.225039 -129.419739 
L 334.9457 -130.529111 
L 331.666361 -131.51304 
L 328.387022 -129.065548 
L 325.107683 -129.955528 
L 321.828345 -130.20678 
L 318.549006 -129.926864 
L 315.269667 -130.769165 
L 311.990328 -128.558295 
L 308.710989 -128.547434 
L 305.43165 -130.294261 
L 302.152311 -129.552585 
L 298.872973 -131.7405 
L 295.593634 -129.64847 
L 292.314295 -133.060016 
L 289.034956 -71.981169 
L 285.755617 -74.150861 
L 282.476278 -74.007384 
L 279.19694 -73.239956 
L 275.917601 -72.211508 
L 272.638262 -71.764884 
L 269.358923 -71.589647 
L 266.079584 -68.012862 
L 262.800245 -67.967666 
L 259.520907 -68.081073 
L 256.241568 -71.05925 
L 252.962229 -70.572261 
L 249.68289 -72.369833 
L 246.403551 -72.967949 
L 243.124212 -73.732344 
L 239.844873 -73.443504 
L 236.565535 -73.962343 
L 233.286196 -74.206581 
L 230.006857 -75.745679 
L 226.727518 -76.03958 
L 223.448179 -77.027532 
L 220.16884 -77.489117 
L 216.889502 -76.855284 
L 213.610163 -77.574035 
L 210.330824 -76.896551 
L 207.051485 -80.744517 
L 203.772146 -80.022656 
L 200.492807 -80.831111 
L 197.213468 -80.48047 
L 193.93413 -80.999375 
L 190.654791 -81.595625 
L 187.375452 -79.880592 
L 184.096113 -79.53467 
L 180.816774 -82.401664 
L 177.537435 -83.52998 
L 174.258097 -81.081529 
L 170.978758 -83.669256 
L 167.699419 -85.380604 
L 164.42008 -85.310045 
L 161.140741 -85.996634 
L 157.861402 -86.441686 
L 154.582064 -87.632756 
L 151.302725 -88.095931 
L 148.023386 -87.31175 
L 144.744047 -88.647175 
L 141.464708 -91.360061 
L 138.185369 -89.875229 
L 134.90603 -88.475778 
L 131.626692 -91.106535 
L 128.347353 -91.444078 
L 125.068014 -96.130365 
L 121.788675 -94.846699 
L 118.509336 -97.511996 
L 115.229997 -98.937247 
L 111.950659 -102.171113 
L 108.67132 -109.478588 
L 105.391981 -112.882842 
L 102.112642 -116.484671 
L 98.833303 -121.533455 
L 95.553964 -133.441909 
L 92.274626 -136.481606 
L 88.995287 -142.816484 
L 85.715948 -144.196314 
L 82.436609 -157.050613 
L 79.15727 -168.854824 
L 75.877931 -182.250787 
L 72.598592 -191.368566 
L 69.319254 -212.603072 
L 66.039915 -296.975687 
z
" style="stroke: #55a868; stroke-opacity: 0.2"/>
    </defs>
    <g clip-path="url(#pe5a09fb21f)">
     <use xlink:href="#m2d6a7ca3c2" x="0" y="319.16187" style="fill: #55a868; fill-opacity: 0.2; stroke: #55a868; stroke-opacity: 0.2"/>
    </g>
   </g>
   <g id="PolyCollection_4">
    <defs>
     <path id="mffb4d4d440" d="M 66.039915 -218.12494 
L 66.039915 -201.449868 
L 69.319254 -178.075226 
L 72.598592 -198.04701 
L 75.877931 -187.449391 
L 79.15727 -179.991224 
L 82.436609 -160.411886 
L 85.715948 -148.729446 
L 88.995287 -127.743679 
L 92.274626 -127.487583 
L 95.553964 -116.956075 
L 98.833303 -132.057099 
L 102.112642 -121.92415 
L 105.391981 -104.698015 
L 108.67132 -95.611665 
L 111.950659 -108.022238 
L 115.229997 -94.563865 
L 118.509336 -88.142045 
L 121.788675 -83.09495 
L 125.068014 -80.638896 
L 128.347353 -78.672515 
L 131.626692 -75.768193 
L 134.90603 -72.988374 
L 138.185369 -72.109235 
L 141.464708 -71.294336 
L 144.744047 -68.583618 
L 148.023386 -68.304573 
L 151.302725 -66.197586 
L 154.582064 -66.402332 
L 157.861402 -66.423437 
L 161.140741 -64.783028 
L 164.42008 -64.031453 
L 167.699419 -63.15466 
L 170.978758 -62.359799 
L 174.258097 -62.14382 
L 177.537435 -61.006153 
L 180.816774 -61.392507 
L 184.096113 -61.032112 
L 187.375452 -60.423418 
L 190.654791 -60.282146 
L 193.93413 -59.683317 
L 197.213468 -59.507302 
L 200.492807 -59.618496 
L 203.772146 -59.236416 
L 207.051485 -59.029145 
L 210.330824 -59.207065 
L 213.610163 -58.831151 
L 216.889502 -58.427981 
L 220.16884 -58.197771 
L 223.448179 -58.220424 
L 226.727518 -58.044215 
L 230.006857 -58.173756 
L 233.286196 -58.11548 
L 236.565535 -57.865286 
L 239.844873 -57.579084 
L 243.124212 -57.386114 
L 246.403551 -57.102176 
L 249.68289 -57.280898 
L 252.962229 -57.166647 
L 256.241568 -57.052741 
L 259.520907 -56.918236 
L 262.800245 -56.948354 
L 266.079584 -56.814455 
L 269.358923 -56.786721 
L 272.638262 -56.729366 
L 275.917601 -56.628455 
L 279.19694 -56.660374 
L 282.476278 -56.405965 
L 285.755617 -56.333033 
L 289.034956 -56.428407 
L 292.314295 -87.930925 
L 295.593634 -86.876696 
L 298.872973 -87.290508 
L 302.152311 -88.34013 
L 305.43165 -88.676471 
L 308.710989 -87.689076 
L 311.990328 -87.598162 
L 315.269667 -88.131838 
L 318.549006 -89.376756 
L 321.828345 -86.594458 
L 325.107683 -87.018984 
L 328.387022 -86.383932 
L 331.666361 -87.260112 
L 334.9457 -86.461335 
L 338.225039 -86.9587 
L 341.504378 -88.398823 
L 344.783716 -87.620983 
L 348.063055 -87.510485 
L 351.342394 -85.77723 
L 354.621733 -88.934042 
L 357.901072 -87.872431 
L 361.180411 -86.83454 
L 364.459749 -87.001431 
L 367.739088 -86.771971 
L 371.018427 -86.438212 
L 374.297766 -87.438705 
L 377.577105 -87.198747 
L 380.856444 -86.029098 
L 384.135783 -86.010395 
L 387.415121 -86.964309 
L 390.69446 -86.091513 
L 390.69446 -131.695844 
L 390.69446 -131.695844 
L 387.415121 -128.472533 
L 384.135783 -129.180686 
L 380.856444 -128.931518 
L 377.577105 -127.78334 
L 374.297766 -128.349352 
L 371.018427 -127.902866 
L 367.739088 -128.120743 
L 364.459749 -128.89954 
L 361.180411 -128.543407 
L 357.901072 -129.567138 
L 354.621733 -128.364068 
L 351.342394 -127.603732 
L 348.063055 -129.359694 
L 344.783716 -128.353952 
L 341.504378 -129.344543 
L 338.225039 -128.036641 
L 334.9457 -127.519948 
L 331.666361 -126.696905 
L 328.387022 -128.884492 
L 325.107683 -130.032234 
L 321.828345 -127.993109 
L 318.549006 -128.683427 
L 315.269667 -129.142518 
L 311.990328 -128.900828 
L 308.710989 -130.054215 
L 305.43165 -129.676467 
L 302.152311 -130.164057 
L 298.872973 -128.875412 
L 295.593634 -129.218647 
L 292.314295 -128.041725 
L 289.034956 -64.974124 
L 285.755617 -64.977175 
L 282.476278 -65.181728 
L 279.19694 -65.156504 
L 275.917601 -64.793009 
L 272.638262 -67.81453 
L 269.358923 -67.605743 
L 266.079584 -69.245565 
L 262.800245 -68.289831 
L 259.520907 -68.931491 
L 256.241568 -67.009762 
L 252.962229 -67.181785 
L 249.68289 -66.827881 
L 246.403551 -67.166378 
L 243.124212 -67.337658 
L 239.844873 -67.195568 
L 236.565535 -67.257299 
L 233.286196 -70.042715 
L 230.006857 -69.60488 
L 226.727518 -69.334813 
L 223.448179 -70.882724 
L 220.16884 -71.441098 
L 216.889502 -70.715565 
L 213.610163 -70.499193 
L 210.330824 -71.699486 
L 207.051485 -75.455436 
L 203.772146 -75.403357 
L 200.492807 -75.095473 
L 197.213468 -77.872323 
L 193.93413 -77.958823 
L 190.654791 -77.965959 
L 187.375452 -79.054728 
L 184.096113 -79.845 
L 180.816774 -81.190678 
L 177.537435 -81.962913 
L 174.258097 -81.090059 
L 170.978758 -82.85129 
L 167.699419 -83.256928 
L 164.42008 -85.318953 
L 161.140741 -85.092948 
L 157.861402 -86.514403 
L 154.582064 -87.024341 
L 151.302725 -88.113294 
L 148.023386 -91.243021 
L 144.744047 -90.930512 
L 141.464708 -93.818519 
L 138.185369 -95.029866 
L 134.90603 -96.96779 
L 131.626692 -102.324362 
L 128.347353 -104.528903 
L 125.068014 -107.922218 
L 121.788675 -112.475367 
L 118.509336 -114.677529 
L 115.229997 -119.211011 
L 111.950659 -126.157288 
L 108.67132 -127.267737 
L 105.391981 -133.650632 
L 102.112642 -144.575719 
L 98.833303 -155.766404 
L 95.553964 -152.464173 
L 92.274626 -158.993462 
L 88.995287 -163.249184 
L 85.715948 -174.119332 
L 82.436609 -184.104615 
L 79.15727 -196.665037 
L 75.877931 -202.443757 
L 72.598592 -210.51602 
L 69.319254 -205.085688 
L 66.039915 -218.12494 
z
" style="stroke: #c44e52; stroke-opacity: 0.2"/>
    </defs>
    <g clip-path="url(#pe5a09fb21f)">
     <use xlink:href="#mffb4d4d440" x="0" y="319.16187" style="fill: #c44e52; fill-opacity: 0.2; stroke: #c44e52; stroke-opacity: 0.2"/>
    </g>
   </g>
   <g id="PolyCollection_5">
    <defs>
     <path id="mca4076b2d9" d="M 66.039915 -222.389482 
L 66.039915 -205.817608 
L 69.319254 -193.683317 
L 72.598592 -190.655164 
L 75.877931 -188.722357 
L 79.15727 -183.284708 
L 82.436609 -176.059324 
L 85.715948 -172.313115 
L 88.995287 -169.086697 
L 92.274626 -162.160921 
L 95.553964 -158.67818 
L 98.833303 -154.909314 
L 102.112642 -151.538354 
L 105.391981 -149.829671 
L 108.67132 -146.022291 
L 111.950659 -141.216354 
L 115.229997 -137.704999 
L 118.509336 -135.628109 
L 121.788675 -132.698291 
L 125.068014 -130.677698 
L 128.347353 -127.604199 
L 131.626692 -122.767743 
L 134.90603 -121.974068 
L 138.185369 -120.987637 
L 141.464708 -117.711066 
L 144.744047 -115.654827 
L 148.023386 -114.221385 
L 151.302725 -114.123268 
L 154.582064 -111.292421 
L 157.861402 -108.075556 
L 161.140741 -106.441662 
L 164.42008 -104.530011 
L 167.699419 -102.430812 
L 170.978758 -102.279405 
L 174.258097 -101.091895 
L 177.537435 -101.097859 
L 180.816774 -98.561051 
L 184.096113 -96.8634 
L 187.375452 -95.659974 
L 190.654791 -94.698512 
L 193.93413 -94.219637 
L 197.213468 -93.095013 
L 200.492807 -94.43602 
L 203.772146 -92.551082 
L 207.051485 -92.36081 
L 210.330824 -90.637255 
L 213.610163 -90.242259 
L 216.889502 -90.212534 
L 220.16884 -89.363243 
L 223.448179 -88.703247 
L 226.727518 -89.695922 
L 230.006857 -89.139807 
L 233.286196 -86.634595 
L 236.565535 -86.991959 
L 239.844873 -87.295992 
L 243.124212 -85.78325 
L 246.403551 -85.862722 
L 249.68289 -85.201583 
L 252.962229 -84.02337 
L 256.241568 -83.272121 
L 259.520907 -83.192199 
L 262.800245 -82.932801 
L 266.079584 -82.062855 
L 269.358923 -81.037693 
L 272.638262 -80.856384 
L 275.917601 -80.363687 
L 279.19694 -80.651788 
L 282.476278 -80.773184 
L 285.755617 -79.343534 
L 289.034956 -78.900494 
L 292.314295 -111.7836 
L 295.593634 -112.168823 
L 298.872973 -113.133777 
L 302.152311 -110.684286 
L 305.43165 -110.752121 
L 308.710989 -111.440824 
L 311.990328 -109.965433 
L 315.269667 -110.743919 
L 318.549006 -110.149243 
L 321.828345 -110.303334 
L 325.107683 -109.786062 
L 328.387022 -108.7971 
L 331.666361 -111.073872 
L 334.9457 -109.663246 
L 338.225039 -108.753725 
L 341.504378 -109.41374 
L 344.783716 -108.376508 
L 348.063055 -110.078203 
L 351.342394 -110.589896 
L 354.621733 -107.762976 
L 357.901072 -107.008851 
L 361.180411 -107.622114 
L 364.459749 -106.05669 
L 367.739088 -106.051551 
L 371.018427 -107.04779 
L 374.297766 -107.839429 
L 377.577105 -106.044718 
L 380.856444 -106.08673 
L 384.135783 -106.539252 
L 387.415121 -104.495189 
L 390.69446 -103.915007 
L 390.69446 -144.72742 
L 390.69446 -144.72742 
L 387.415121 -144.933293 
L 384.135783 -146.122607 
L 380.856444 -145.408099 
L 377.577105 -146.48388 
L 374.297766 -146.860065 
L 371.018427 -145.023635 
L 367.739088 -144.849017 
L 364.459749 -146.531999 
L 361.180411 -146.971916 
L 357.901072 -145.929641 
L 354.621733 -147.103084 
L 351.342394 -149.913058 
L 348.063055 -146.533859 
L 344.783716 -147.928399 
L 341.504378 -149.215248 
L 338.225039 -148.548799 
L 334.9457 -147.670064 
L 331.666361 -150.199441 
L 328.387022 -149.874083 
L 325.107683 -149.845165 
L 321.828345 -149.719575 
L 318.549006 -149.728255 
L 315.269667 -151.071626 
L 311.990328 -152.021698 
L 308.710989 -150.348568 
L 305.43165 -150.615711 
L 302.152311 -149.23388 
L 298.872973 -150.270854 
L 295.593634 -149.629536 
L 292.314295 -151.274017 
L 289.034956 -107.09064 
L 285.755617 -107.630129 
L 282.476278 -107.811345 
L 279.19694 -108.904606 
L 275.917601 -109.791054 
L 272.638262 -110.495705 
L 269.358923 -110.06052 
L 266.079584 -110.212394 
L 262.800245 -111.116838 
L 259.520907 -110.330193 
L 256.241568 -112.011351 
L 252.962229 -112.823234 
L 249.68289 -113.689659 
L 246.403551 -113.667894 
L 243.124212 -114.863538 
L 239.844873 -115.052838 
L 236.565535 -115.207014 
L 233.286196 -117.830989 
L 230.006857 -117.769557 
L 226.727518 -118.269711 
L 223.448179 -119.643033 
L 220.16884 -118.851476 
L 216.889502 -120.206096 
L 213.610163 -122.86082 
L 210.330824 -121.915464 
L 207.051485 -122.231053 
L 203.772146 -122.271331 
L 200.492807 -123.865096 
L 197.213468 -123.362299 
L 193.93413 -126.101887 
L 190.654791 -125.649883 
L 187.375452 -126.335655 
L 184.096113 -127.71159 
L 180.816774 -129.751723 
L 177.537435 -130.729905 
L 174.258097 -132.048121 
L 170.978758 -134.205017 
L 167.699419 -133.646681 
L 164.42008 -135.384632 
L 161.140741 -137.357561 
L 157.861402 -138.440589 
L 154.582064 -143.550483 
L 151.302725 -146.897396 
L 148.023386 -146.691119 
L 144.744047 -149.302284 
L 141.464708 -150.523934 
L 138.185369 -152.602525 
L 134.90603 -155.85417 
L 131.626692 -154.920874 
L 128.347353 -160.001819 
L 125.068014 -163.602013 
L 121.788675 -168.661761 
L 118.509336 -169.482964 
L 115.229997 -170.631662 
L 111.950659 -175.339707 
L 108.67132 -179.310194 
L 105.391981 -183.094525 
L 102.112642 -187.12734 
L 98.833303 -190.447119 
L 95.553964 -196.889856 
L 92.274626 -198.573669 
L 88.995287 -203.220918 
L 85.715948 -204.028773 
L 82.436609 -209.524303 
L 79.15727 -214.631697 
L 75.877931 -210.38656 
L 72.598592 -213.097164 
L 69.319254 -216.842547 
L 66.039915 -222.389482 
z
" style="stroke: #8172b3; stroke-opacity: 0.2"/>
    </defs>
    <g clip-path="url(#pe5a09fb21f)">
     <use xlink:href="#mca4076b2d9" x="0" y="319.16187" style="fill: #8172b3; fill-opacity: 0.2; stroke: #8172b3; stroke-opacity: 0.2"/>
    </g>
   </g>
   <g id="line2d_15">
    <path d="M 66.039915 96.637951 
L 69.319254 113.677763 
L 72.598592 158.403381 
L 75.877931 178.803142 
L 79.15727 209.429106 
L 82.436609 214.697076 
L 85.715948 217.079919 
L 88.995287 233.379876 
L 92.274626 240.016298 
L 95.553964 242.424925 
L 98.833303 246.038657 
L 102.112642 251.722319 
L 105.391981 249.815053 
L 108.67132 251.28266 
L 111.950659 251.281884 
L 115.229997 251.333512 
L 118.509336 252.327037 
L 121.788675 256.357927 
L 125.068014 255.123036 
L 128.347353 254.790339 
L 131.626692 255.099439 
L 134.90603 258.174801 
L 138.185369 255.437072 
L 141.464708 257.843076 
L 144.744047 256.348857 
L 148.023386 255.51227 
L 151.302725 256.363824 
L 154.582064 255.607716 
L 157.861402 257.752845 
L 161.140741 255.451215 
L 164.42008 257.852364 
L 167.699419 258.306863 
L 170.978758 259.156394 
L 174.258097 259.480005 
L 177.537435 260.257689 
L 180.816774 259.207606 
L 184.096113 259.099149 
L 187.375452 260.439175 
L 190.654791 260.050057 
L 193.93413 261.022649 
L 197.213468 261.120741 
L 200.492807 260.957179 
L 203.772146 261.531115 
L 207.051485 261.256355 
L 210.330824 258.64285 
L 213.610163 258.559295 
L 216.889502 260.328671 
L 220.16884 259.232028 
L 223.448179 260.676906 
L 226.727518 261.290616 
L 230.006857 260.456207 
L 233.286196 262.03564 
L 236.565535 261.701368 
L 239.844873 262.336273 
L 243.124212 262.210297 
L 246.403551 262.755526 
L 249.68289 262.22775 
L 252.962229 262.127578 
L 256.241568 262.25623 
L 259.520907 261.509755 
L 262.800245 261.322712 
L 266.079584 262.047596 
L 269.358923 261.849389 
L 272.638262 262.477294 
L 275.917601 262.608853 
L 279.19694 260.353781 
L 282.476278 261.581995 
L 285.755617 262.158774 
L 289.034956 262.144165 
L 292.314295 257.034176 
L 295.593634 251.339904 
L 298.872973 253.825812 
L 302.152311 256.161651 
L 305.43165 253.905249 
L 308.710989 259.360259 
L 311.990328 258.970588 
L 315.269667 257.68325 
L 318.549006 259.777636 
L 321.828345 257.650491 
L 325.107683 259.215903 
L 328.387022 259.595945 
L 331.666361 255.62396 
L 334.9457 258.398574 
L 338.225039 258.138875 
L 341.504378 257.500488 
L 344.783716 258.022578 
L 348.063055 259.125238 
L 351.342394 257.649657 
L 354.621733 259.64662 
L 357.901072 254.844751 
L 361.180411 257.608212 
L 364.459749 260.173267 
L 367.739088 260.283099 
L 371.018427 259.192888 
L 374.297766 253.446096 
L 377.577105 256.196974 
L 380.856444 259.763148 
L 384.135783 261.196157 
L 387.415121 259.528807 
L 390.69446 261.24536 
" clip-path="url(#pe5a09fb21f)" style="fill: none; stroke: #4c72b0; stroke-width: 1.5; stroke-linecap: round"/>
   </g>
   <g id="line2d_16">
    <path d="M 66.039915 80.637141 
L 69.319254 53.880006 
L 72.598592 111.359008 
L 75.877931 129.042781 
L 79.15727 156.645156 
L 82.436609 154.809389 
L 85.715948 133.126255 
L 88.995287 180.427518 
L 92.274626 202.606087 
L 95.553964 204.114719 
L 98.833303 193.002998 
L 102.112642 221.229482 
L 105.391981 224.705751 
L 108.67132 226.170992 
L 111.950659 207.479699 
L 115.229997 212.215968 
L 118.509336 219.539763 
L 121.788675 220.315905 
L 125.068014 215.778288 
L 128.347353 221.503596 
L 131.626692 213.5622 
L 134.90603 234.336991 
L 138.185369 217.995642 
L 141.464708 239.060006 
L 144.744047 229.892207 
L 148.023386 212.977583 
L 151.302725 209.585865 
L 154.582064 207.982174 
L 157.861402 225.829207 
L 161.140741 201.35944 
L 164.42008 234.496337 
L 167.699419 232.90434 
L 170.978758 227.894352 
L 174.258097 235.334475 
L 177.537435 237.809032 
L 180.816774 229.372501 
L 184.096113 233.176836 
L 187.375452 239.150662 
L 190.654791 219.972199 
L 193.93413 238.926364 
L 197.213468 236.155349 
L 200.492807 237.844222 
L 203.772146 246.95748 
L 207.051485 241.772685 
L 210.330824 241.929131 
L 213.610163 212.931559 
L 216.889502 229.046783 
L 220.16884 224.049486 
L 223.448179 237.146422 
L 226.727518 243.517109 
L 230.006857 234.215354 
L 233.286196 249.19993 
L 236.565535 244.780404 
L 239.844873 246.933536 
L 243.124212 243.231579 
L 246.403551 250.732255 
L 249.68289 247.114853 
L 252.962229 220.45091 
L 256.241568 248.508467 
L 259.520907 232.829956 
L 262.800245 214.821441 
L 266.079584 248.809204 
L 269.358923 246.474098 
L 272.638262 248.285671 
L 275.917601 248.610104 
L 279.19694 243.13614 
L 282.476278 223.973242 
L 285.755617 228.004771 
L 289.034956 235.99681 
L 292.314295 244.473141 
L 295.593634 229.128042 
L 298.872973 238.079781 
L 302.152311 242.382752 
L 305.43165 231.088615 
L 308.710989 246.769092 
L 311.990328 246.079978 
L 315.269667 245.888711 
L 318.549006 251.276867 
L 321.828345 246.097725 
L 325.107683 250.390371 
L 328.387022 251.282835 
L 331.666361 237.972471 
L 334.9457 244.939437 
L 338.225039 244.852015 
L 341.504378 243.443463 
L 344.783716 245.176984 
L 348.063055 246.139453 
L 351.342394 248.037028 
L 354.621733 251.61842 
L 357.901072 241.611012 
L 361.180411 247.682976 
L 364.459749 251.021909 
L 367.739088 252.6956 
L 371.018427 251.878649 
L 374.297766 232.257123 
L 377.577105 242.201673 
L 380.856444 249.80094 
L 384.135783 254.430402 
L 387.415121 246.507885 
L 390.69446 250.985024 
" clip-path="url(#pe5a09fb21f)" style="fill: none; stroke: #dd8452; stroke-width: 1.5; stroke-linecap: round"/>
   </g>
   <g id="line2d_17">
    <path d="M 66.039915 78.918899 
L 69.319254 131.226323 
L 72.598592 150.937843 
L 75.877931 166.12637 
L 79.15727 172.227671 
L 82.436609 184.354918 
L 85.715948 195.664357 
L 88.995287 198.382313 
L 92.274626 202.189973 
L 95.553964 206.163538 
L 98.833303 215.119843 
L 102.112642 220.514576 
L 105.391981 223.509161 
L 108.67132 226.95828 
L 111.950659 232.158867 
L 115.229997 233.750704 
L 118.509336 235.2507 
L 121.788675 237.647308 
L 125.068014 237.635645 
L 128.347353 239.684217 
L 131.626692 240.532448 
L 134.90603 242.073034 
L 138.185369 242.144309 
L 141.464708 242.409485 
L 144.744047 244.162678 
L 148.023386 244.366745 
L 151.302725 245.242483 
L 154.582064 245.509048 
L 157.861402 245.690457 
L 161.140741 246.200303 
L 164.42008 247.117929 
L 167.699419 247.415921 
L 170.978758 248.13433 
L 174.258097 249.103187 
L 177.537435 248.644777 
L 180.816774 249.014381 
L 184.096113 250.152894 
L 187.375452 250.204568 
L 190.654791 249.868306 
L 193.93413 250.027284 
L 197.213468 249.894327 
L 200.492807 249.6596 
L 203.772146 250.129824 
L 207.051485 250.745167 
L 210.330824 252.088534 
L 213.610163 251.707709 
L 216.889502 252.045764 
L 220.16884 252.066604 
L 223.448179 251.660532 
L 226.727518 252.780013 
L 230.006857 253.584897 
L 233.286196 254.664159 
L 236.565535 254.518767 
L 239.844873 254.661575 
L 243.124212 254.42221 
L 246.403551 254.751506 
L 249.68289 255.159889 
L 252.962229 256.172792 
L 256.241568 255.982628 
L 259.520907 256.690663 
L 262.800245 256.49045 
L 266.079584 256.833102 
L 269.358923 255.636306 
L 272.638262 255.561228 
L 275.917601 255.795751 
L 279.19694 255.367147 
L 282.476278 254.889432 
L 285.755617 256.090114 
L 289.034956 256.039693 
L 292.314295 208.910742 
L 295.593634 209.837315 
L 298.872973 209.725547 
L 302.152311 209.78821 
L 305.43165 209.466013 
L 308.710989 210.873748 
L 311.990328 210.781301 
L 315.269667 210.174269 
L 318.549006 209.407538 
L 321.828345 209.512013 
L 325.107683 210.146285 
L 328.387022 209.782839 
L 331.666361 209.776578 
L 334.9457 210.107636 
L 338.225039 210.846855 
L 341.504378 210.833644 
L 344.783716 210.952626 
L 348.063055 210.67792 
L 351.342394 210.742209 
L 354.621733 209.961936 
L 357.901072 209.671921 
L 361.180411 210.289063 
L 364.459749 211.131511 
L 367.739088 210.828195 
L 371.018427 211.365298 
L 374.297766 211.340916 
L 377.577105 210.986169 
L 380.856444 211.138542 
L 384.135783 211.283713 
L 387.415121 211.384964 
L 390.69446 211.542437 
" clip-path="url(#pe5a09fb21f)" style="fill: none; stroke: #55a868; stroke-width: 1.5; stroke-linecap: round"/>
   </g>
   <g id="line2d_18">
    <path d="M 66.039915 108.475517 
L 69.319254 126.267263 
L 72.598592 114.567983 
L 75.877931 124.254411 
L 79.15727 130.692798 
L 82.436609 146.859174 
L 85.715948 158.040583 
L 88.995287 174.43205 
L 92.274626 176.858672 
L 95.553964 185.474802 
L 98.833303 175.866927 
L 102.112642 186.430565 
L 105.391981 201.260722 
L 108.67132 208.639908 
L 111.950659 202.425562 
L 115.229997 213.143308 
L 118.509336 219.196814 
L 121.788675 223.181379 
L 125.068014 226.262636 
L 128.347353 228.803789 
L 131.626692 231.895164 
L 134.90603 236.144813 
L 138.185369 237.777486 
L 141.464708 238.001505 
L 144.744047 240.918388 
L 148.023386 241.795916 
L 151.302725 244.037827 
L 154.582064 244.328772 
L 157.861402 244.869524 
L 161.140741 246.431948 
L 164.42008 246.993342 
L 167.699419 247.939966 
L 170.978758 248.908873 
L 174.258097 249.584335 
L 177.537435 250.500825 
L 180.816774 250.278652 
L 184.096113 251.324197 
L 187.375452 251.425148 
L 190.654791 252.033795 
L 193.93413 252.498368 
L 197.213468 252.393965 
L 200.492807 253.319285 
L 203.772146 253.429214 
L 207.051485 253.702962 
L 210.330824 255.184262 
L 213.610163 255.688565 
L 216.889502 255.86702 
L 220.16884 256.185182 
L 223.448179 256.219787 
L 226.727518 256.657741 
L 230.006857 256.59248 
L 233.286196 256.586796 
L 236.565535 257.369503 
L 239.844873 257.8675 
L 243.124212 258.117319 
L 246.403551 258.066794 
L 249.68289 258.174709 
L 252.962229 258.123451 
L 256.241568 258.222696 
L 259.520907 257.779019 
L 262.800245 257.878523 
L 266.079584 258.015014 
L 269.358923 258.211784 
L 272.638262 258.314359 
L 275.917601 259.267573 
L 279.19694 259.163173 
L 282.476278 259.291255 
L 285.755617 259.49189 
L 289.034956 259.539404 
L 292.314295 211.151256 
L 295.593634 211.024087 
L 298.872973 211.185854 
L 302.152311 211.162433 
L 305.43165 211.217635 
L 308.710989 211.355692 
L 311.990328 211.503078 
L 315.269667 211.481192 
L 318.549006 211.176859 
L 321.828345 211.505112 
L 325.107683 211.116319 
L 328.387022 211.545202 
L 331.666361 211.525072 
L 334.9457 211.556866 
L 338.225039 211.799428 
L 341.504378 212.122672 
L 344.783716 211.630956 
L 348.063055 211.76772 
L 351.342394 211.636517 
L 354.621733 211.917179 
L 357.901072 211.778929 
L 361.180411 211.845371 
L 364.459749 212.238671 
L 367.739088 211.938628 
L 371.018427 211.958055 
L 374.297766 212.194975 
L 377.577105 212.320517 
L 380.856444 211.95138 
L 384.135783 212.371558 
L 387.415121 212.218906 
L 390.69446 212.380927 
" clip-path="url(#pe5a09fb21f)" style="fill: none; stroke: #c44e52; stroke-width: 1.5; stroke-linecap: round"/>
   </g>
   <g id="line2d_19">
    <path d="M 66.039915 103.457334 
L 69.319254 112.394327 
L 72.598592 115.922456 
L 75.877931 118.831118 
L 79.15727 119.716875 
L 82.436609 126.631695 
L 85.715948 130.663658 
L 88.995287 133.150748 
L 92.274626 138.172174 
L 95.553964 141.770449 
L 98.833303 146.607362 
L 102.112642 150.577114 
L 105.391981 153.557307 
L 108.67132 157.401319 
L 111.950659 161.529392 
L 115.229997 163.716767 
L 118.509336 166.706302 
L 121.788675 169.417499 
L 125.068014 172.510109 
L 128.347353 176.317482 
L 131.626692 180.591214 
L 134.90603 181.074478 
L 138.185369 183.023469 
L 141.464708 185.73242 
L 144.744047 187.190318 
L 148.023386 188.843435 
L 151.302725 189.536503 
L 154.582064 192.843247 
L 157.861402 195.76024 
L 161.140741 197.931096 
L 164.42008 200.243786 
L 167.699419 201.215873 
L 170.978758 201.710832 
L 174.258097 202.651498 
L 177.537435 204.372733 
L 180.816774 206.343473 
L 184.096113 207.835442 
L 187.375452 209.383713 
L 190.654791 210.034512 
L 193.93413 210.404886 
L 197.213468 211.164103 
L 200.492807 210.917907 
L 203.772146 212.340476 
L 207.051485 212.970965 
L 210.330824 213.634996 
L 213.610163 214.084761 
L 216.889502 214.746093 
L 220.16884 215.603566 
L 223.448179 215.777547 
L 226.727518 216.380686 
L 230.006857 216.557365 
L 233.286196 218.149605 
L 236.565535 218.584179 
L 239.844873 218.944636 
L 243.124212 219.573615 
L 246.403551 219.883485 
L 249.68289 220.750476 
L 252.962229 221.135424 
L 256.241568 222.532836 
L 259.520907 222.957018 
L 262.800245 223.296152 
L 266.079584 223.907642 
L 269.358923 224.306842 
L 272.638262 224.565524 
L 275.917601 224.64872 
L 279.19694 225.31466 
L 282.476278 225.951755 
L 285.755617 226.858646 
L 289.034956 227.079903 
L 292.314295 188.599762 
L 295.593634 187.734893 
L 298.872973 188.431973 
L 302.152311 188.821278 
L 305.43165 188.273715 
L 308.710989 189.468234 
L 311.990328 188.906904 
L 315.269667 189.611016 
L 318.549006 189.893123 
L 321.828345 189.920164 
L 325.107683 189.490196 
L 328.387022 189.863018 
L 331.666361 189.564935 
L 334.9457 190.441589 
L 338.225039 191.181391 
L 341.504378 191.08465 
L 344.783716 190.840896 
L 348.063055 191.756534 
L 351.342394 190.282358 
L 354.621733 191.879629 
L 357.901072 192.194851 
L 361.180411 192.309823 
L 364.459749 193.392465 
L 367.739088 193.558396 
L 371.018427 193.330581 
L 374.297766 193.154414 
L 377.577105 192.762407 
L 380.856444 194.061735 
L 384.135783 194.372416 
L 387.415121 194.622896 
L 390.69446 194.643113 
" clip-path="url(#pe5a09fb21f)" style="fill: none; stroke: #8172b3; stroke-width: 1.5; stroke-linecap: round"/>
   </g>
   <g id="line2d_20"/>
   <g id="line2d_21"/>
   <g id="line2d_22"/>
   <g id="line2d_23"/>
   <g id="line2d_24"/>
   <g id="patch_3">
    <path d="M 49.807187 276.202182 
L 49.807187 10.090182 
" style="fill: none; stroke: #cccccc; stroke-width: 1.25; stroke-linejoin: miter; stroke-linecap: square"/>
   </g>
   <g id="patch_4">
    <path d="M 406.927188 276.202182 
L 406.927188 10.090182 
" style="fill: none; stroke: #cccccc; stroke-width: 1.25; stroke-linejoin: miter; stroke-linecap: square"/>
   </g>
   <g id="patch_5">
    <path d="M 49.807187 276.202182 
L 406.927188 276.202182 
" style="fill: none; stroke: #cccccc; stroke-width: 1.25; stroke-linejoin: miter; stroke-linecap: square"/>
   </g>
   <g id="patch_6">
    <path d="M 49.807187 10.090182 
L 406.927188 10.090182 
" style="fill: none; stroke: #cccccc; stroke-width: 1.25; stroke-linejoin: miter; stroke-linecap: square"/>
   </g>
   <g id="legend_1">
    <g id="patch_7">
     <path d="M 295.242813 116.73362 
L 399.227188 116.73362 
Q 401.427188 116.73362 401.427188 114.53362 
L 401.427188 17.790182 
Q 401.427188 15.590182 399.227188 15.590182 
L 295.242813 15.590182 
Q 293.042813 15.590182 293.042813 17.790182 
L 293.042813 114.53362 
Q 293.042813 116.73362 295.242813 116.73362 
z
" style="fill: #ffffff; opacity: 0.8; stroke: #cccccc; stroke-linejoin: miter"/>
    </g>
    <g id="text_17">
     <!-- Strategy -->
     <g style="fill: #262626" transform="translate(321.525937 29.108307) scale(0.12 -0.12)">
      <defs>
       <path id="DejaVuSans-53" d="M 3425 4513 
L 3425 3897 
Q 3066 4069 2747 4153 
Q 2428 4238 2131 4238 
Q 1616 4238 1336 4038 
Q 1056 3838 1056 3469 
Q 1056 3159 1242 3001 
Q 1428 2844 1947 2747 
L 2328 2669 
Q 3034 2534 3370 2195 
Q 3706 1856 3706 1288 
Q 3706 609 3251 259 
Q 2797 -91 1919 -91 
Q 1588 -91 1214 -16 
Q 841 59 441 206 
L 441 856 
Q 825 641 1194 531 
Q 1563 422 1919 422 
Q 2459 422 2753 634 
Q 3047 847 3047 1241 
Q 3047 1584 2836 1778 
Q 2625 1972 2144 2069 
L 1759 2144 
Q 1053 2284 737 2584 
Q 422 2884 422 3419 
Q 422 4038 858 4394 
Q 1294 4750 2059 4750 
Q 2388 4750 2728 4690 
Q 3069 4631 3425 4513 
z
" transform="scale(0.015625)"/>
       <path id="DejaVuSans-74" d="M 1172 4494 
L 1172 3500 
L 2356 3500 
L 2356 3053 
L 1172 3053 
L 1172 1153 
Q 1172 725 1289 603 
Q 1406 481 1766 481 
L 2356 481 
L 2356 0 
L 1766 0 
Q 1100 0 847 248 
Q 594 497 594 1153 
L 594 3053 
L 172 3053 
L 172 3500 
L 594 3500 
L 594 4494 
L 1172 4494 
z
" transform="scale(0.015625)"/>
       <path id="DejaVuSans-72" d="M 2631 2963 
Q 2534 3019 2420 3045 
Q 2306 3072 2169 3072 
Q 1681 3072 1420 2755 
Q 1159 2438 1159 1844 
L 1159 0 
L 581 0 
L 581 3500 
L 1159 3500 
L 1159 2956 
Q 1341 3275 1631 3429 
Q 1922 3584 2338 3584 
Q 2397 3584 2469 3576 
Q 2541 3569 2628 3553 
L 2631 2963 
z
" transform="scale(0.015625)"/>
       <path id="DejaVuSans-61" d="M 2194 1759 
Q 1497 1759 1228 1600 
Q 959 1441 959 1056 
Q 959 750 1161 570 
Q 1363 391 1709 391 
Q 2188 391 2477 730 
Q 2766 1069 2766 1631 
L 2766 1759 
L 2194 1759 
z
M 3341 1997 
L 3341 0 
L 2766 0 
L 2766 531 
Q 2569 213 2275 61 
Q 1981 -91 1556 -91 
Q 1019 -91 701 211 
Q 384 513 384 1019 
Q 384 1609 779 1909 
Q 1175 2209 1959 2209 
L 2766 2209 
L 2766 2266 
Q 2766 2663 2505 2880 
Q 2244 3097 1772 3097 
Q 1472 3097 1187 3025 
Q 903 2953 641 2809 
L 641 3341 
Q 956 3463 1253 3523 
Q 1550 3584 1831 3584 
Q 2591 3584 2966 3190 
Q 3341 2797 3341 1997 
z
" transform="scale(0.015625)"/>
       <path id="DejaVuSans-65" d="M 3597 1894 
L 3597 1613 
L 953 1613 
Q 991 1019 1311 708 
Q 1631 397 2203 397 
Q 2534 397 2845 478 
Q 3156 559 3463 722 
L 3463 178 
Q 3153 47 2828 -22 
Q 2503 -91 2169 -91 
Q 1331 -91 842 396 
Q 353 884 353 1716 
Q 353 2575 817 3079 
Q 1281 3584 2069 3584 
Q 2775 3584 3186 3129 
Q 3597 2675 3597 1894 
z
M 3022 2063 
Q 3016 2534 2758 2815 
Q 2500 3097 2075 3097 
Q 1594 3097 1305 2825 
Q 1016 2553 972 2059 
L 3022 2063 
z
" transform="scale(0.015625)"/>
       <path id="DejaVuSans-67" d="M 2906 1791 
Q 2906 2416 2648 2759 
Q 2391 3103 1925 3103 
Q 1463 3103 1205 2759 
Q 947 2416 947 1791 
Q 947 1169 1205 825 
Q 1463 481 1925 481 
Q 2391 481 2648 825 
Q 2906 1169 2906 1791 
z
M 3481 434 
Q 3481 -459 3084 -895 
Q 2688 -1331 1869 -1331 
Q 1566 -1331 1297 -1286 
Q 1028 -1241 775 -1147 
L 775 -588 
Q 1028 -725 1275 -790 
Q 1522 -856 1778 -856 
Q 2344 -856 2625 -561 
Q 2906 -266 2906 331 
L 2906 616 
Q 2728 306 2450 153 
Q 2172 0 1784 0 
Q 1141 0 747 490 
Q 353 981 353 1791 
Q 353 2603 747 3093 
Q 1141 3584 1784 3584 
Q 2172 3584 2450 3431 
Q 2728 3278 2906 2969 
L 2906 3500 
L 3481 3500 
L 3481 434 
z
" transform="scale(0.015625)"/>
       <path id="DejaVuSans-79" d="M 2059 -325 
Q 1816 -950 1584 -1140 
Q 1353 -1331 966 -1331 
L 506 -1331 
L 506 -850 
L 844 -850 
Q 1081 -850 1212 -737 
Q 1344 -625 1503 -206 
L 1606 56 
L 191 3500 
L 800 3500 
L 1894 763 
L 2988 3500 
L 3597 3500 
L 2059 -325 
z
" transform="scale(0.015625)"/>
      </defs>
      <use xlink:href="#DejaVuSans-53"/>
      <use xlink:href="#DejaVuSans-74" x="63.476562"/>
      <use xlink:href="#DejaVuSans-72" x="102.685547"/>
      <use xlink:href="#DejaVuSans-61" x="143.798828"/>
      <use xlink:href="#DejaVuSans-74" x="205.078125"/>
      <use xlink:href="#DejaVuSans-65" x="244.287109"/>
      <use xlink:href="#DejaVuSans-67" x="305.810547"/>
      <use xlink:href="#DejaVuSans-79" x="369.287109"/>
     </g>
    </g>
    <g id="line2d_25">
     <path d="M 297.442813 41.612213 
L 308.442813 41.612213 
L 319.442813 41.612213 
" style="fill: none; stroke: #4c72b0; stroke-width: 1.5; stroke-linecap: round"/>
    </g>
    <g id="text_18">
     <!-- FedPredict -->
     <g style="fill: #262626" transform="translate(328.242813 45.462213) scale(0.11 -0.11)">
      <defs>
       <path id="DejaVuSans-46" d="M 628 4666 
L 3309 4666 
L 3309 4134 
L 1259 4134 
L 1259 2759 
L 3109 2759 
L 3109 2228 
L 1259 2228 
L 1259 0 
L 628 0 
L 628 4666 
z
" transform="scale(0.015625)"/>
       <path id="DejaVuSans-50" d="M 1259 4147 
L 1259 2394 
L 2053 2394 
Q 2494 2394 2734 2622 
Q 2975 2850 2975 3272 
Q 2975 3691 2734 3919 
Q 2494 4147 2053 4147 
L 1259 4147 
z
M 628 4666 
L 2053 4666 
Q 2838 4666 3239 4311 
Q 3641 3956 3641 3272 
Q 3641 2581 3239 2228 
Q 2838 1875 2053 1875 
L 1259 1875 
L 1259 0 
L 628 0 
L 628 4666 
z
" transform="scale(0.015625)"/>
       <path id="DejaVuSans-69" d="M 603 3500 
L 1178 3500 
L 1178 0 
L 603 0 
L 603 3500 
z
M 603 4863 
L 1178 4863 
L 1178 4134 
L 603 4134 
L 603 4863 
z
" transform="scale(0.015625)"/>
       <path id="DejaVuSans-63" d="M 3122 3366 
L 3122 2828 
Q 2878 2963 2633 3030 
Q 2388 3097 2138 3097 
Q 1578 3097 1268 2742 
Q 959 2388 959 1747 
Q 959 1106 1268 751 
Q 1578 397 2138 397 
Q 2388 397 2633 464 
Q 2878 531 3122 666 
L 3122 134 
Q 2881 22 2623 -34 
Q 2366 -91 2075 -91 
Q 1284 -91 818 406 
Q 353 903 353 1747 
Q 353 2603 823 3093 
Q 1294 3584 2113 3584 
Q 2378 3584 2631 3529 
Q 2884 3475 3122 3366 
z
" transform="scale(0.015625)"/>
      </defs>
      <use xlink:href="#DejaVuSans-46"/>
      <use xlink:href="#DejaVuSans-65" x="52.019531"/>
      <use xlink:href="#DejaVuSans-64" x="113.542969"/>
      <use xlink:href="#DejaVuSans-50" x="177.019531"/>
      <use xlink:href="#DejaVuSans-72" x="235.572266"/>
      <use xlink:href="#DejaVuSans-65" x="274.435547"/>
      <use xlink:href="#DejaVuSans-64" x="335.958984"/>
      <use xlink:href="#DejaVuSans-69" x="399.435547"/>
      <use xlink:href="#DejaVuSans-63" x="427.21875"/>
      <use xlink:href="#DejaVuSans-74" x="482.199219"/>
     </g>
    </g>
    <g id="line2d_26">
     <path d="M 297.442813 57.758151 
L 308.442813 57.758151 
L 319.442813 57.758151 
" style="fill: none; stroke: #dd8452; stroke-width: 1.5; stroke-linecap: round"/>
    </g>
    <g id="text_19">
     <!-- FedAVG -->
     <g style="fill: #262626" transform="translate(328.242813 61.608151) scale(0.11 -0.11)">
      <defs>
       <path id="DejaVuSans-41" d="M 2188 4044 
L 1331 1722 
L 3047 1722 
L 2188 4044 
z
M 1831 4666 
L 2547 4666 
L 4325 0 
L 3669 0 
L 3244 1197 
L 1141 1197 
L 716 0 
L 50 0 
L 1831 4666 
z
" transform="scale(0.015625)"/>
       <path id="DejaVuSans-56" d="M 1831 0 
L 50 4666 
L 709 4666 
L 2188 738 
L 3669 4666 
L 4325 4666 
L 2547 0 
L 1831 0 
z
" transform="scale(0.015625)"/>
       <path id="DejaVuSans-47" d="M 3809 666 
L 3809 1919 
L 2778 1919 
L 2778 2438 
L 4434 2438 
L 4434 434 
Q 4069 175 3628 42 
Q 3188 -91 2688 -91 
Q 1594 -91 976 548 
Q 359 1188 359 2328 
Q 359 3472 976 4111 
Q 1594 4750 2688 4750 
Q 3144 4750 3555 4637 
Q 3966 4525 4313 4306 
L 4313 3634 
Q 3963 3931 3569 4081 
Q 3175 4231 2741 4231 
Q 1884 4231 1454 3753 
Q 1025 3275 1025 2328 
Q 1025 1384 1454 906 
Q 1884 428 2741 428 
Q 3075 428 3337 486 
Q 3600 544 3809 666 
z
" transform="scale(0.015625)"/>
      </defs>
      <use xlink:href="#DejaVuSans-46"/>
      <use xlink:href="#DejaVuSans-65" x="52.019531"/>
      <use xlink:href="#DejaVuSans-64" x="113.542969"/>
      <use xlink:href="#DejaVuSans-41" x="177.019531"/>
      <use xlink:href="#DejaVuSans-56" x="239.052734"/>
      <use xlink:href="#DejaVuSans-47" x="307.460938"/>
     </g>
    </g>
    <g id="line2d_27">
     <path d="M 297.442813 73.904088 
L 308.442813 73.904088 
L 319.442813 73.904088 
" style="fill: none; stroke: #55a868; stroke-width: 1.5; stroke-linecap: round"/>
    </g>
    <g id="text_20">
     <!-- FedClassAvg -->
     <g style="fill: #262626" transform="translate(328.242813 77.754088) scale(0.11 -0.11)">
      <defs>
       <path id="DejaVuSans-43" d="M 4122 4306 
L 4122 3641 
Q 3803 3938 3442 4084 
Q 3081 4231 2675 4231 
Q 1875 4231 1450 3742 
Q 1025 3253 1025 2328 
Q 1025 1406 1450 917 
Q 1875 428 2675 428 
Q 3081 428 3442 575 
Q 3803 722 4122 1019 
L 4122 359 
Q 3791 134 3420 21 
Q 3050 -91 2638 -91 
Q 1578 -91 968 557 
Q 359 1206 359 2328 
Q 359 3453 968 4101 
Q 1578 4750 2638 4750 
Q 3056 4750 3426 4639 
Q 3797 4528 4122 4306 
z
" transform="scale(0.015625)"/>
       <path id="DejaVuSans-6c" d="M 603 4863 
L 1178 4863 
L 1178 0 
L 603 0 
L 603 4863 
z
" transform="scale(0.015625)"/>
       <path id="DejaVuSans-76" d="M 191 3500 
L 800 3500 
L 1894 563 
L 2988 3500 
L 3597 3500 
L 2284 0 
L 1503 0 
L 191 3500 
z
" transform="scale(0.015625)"/>
      </defs>
      <use xlink:href="#DejaVuSans-46"/>
      <use xlink:href="#DejaVuSans-65" x="52.019531"/>
      <use xlink:href="#DejaVuSans-64" x="113.542969"/>
      <use xlink:href="#DejaVuSans-43" x="177.019531"/>
      <use xlink:href="#DejaVuSans-6c" x="246.84375"/>
      <use xlink:href="#DejaVuSans-61" x="274.626953"/>
      <use xlink:href="#DejaVuSans-73" x="335.90625"/>
      <use xlink:href="#DejaVuSans-73" x="388.005859"/>
      <use xlink:href="#DejaVuSans-41" x="440.105469"/>
      <use xlink:href="#DejaVuSans-76" x="502.638672"/>
      <use xlink:href="#DejaVuSans-67" x="561.818359"/>
     </g>
    </g>
    <g id="line2d_28">
     <path d="M 297.442813 90.050026 
L 308.442813 90.050026 
L 319.442813 90.050026 
" style="fill: none; stroke: #c44e52; stroke-width: 1.5; stroke-linecap: round"/>
    </g>
    <g id="text_21">
     <!-- FedPer -->
     <g style="fill: #262626" transform="translate(328.242813 93.900026) scale(0.11 -0.11)">
      <use xlink:href="#DejaVuSans-46"/>
      <use xlink:href="#DejaVuSans-65" x="52.019531"/>
      <use xlink:href="#DejaVuSans-64" x="113.542969"/>
      <use xlink:href="#DejaVuSans-50" x="177.019531"/>
      <use xlink:href="#DejaVuSans-65" x="233.697266"/>
      <use xlink:href="#DejaVuSans-72" x="295.220703"/>
     </g>
    </g>
    <g id="line2d_29">
     <path d="M 297.442813 106.195963 
L 308.442813 106.195963 
L 319.442813 106.195963 
" style="fill: none; stroke: #8172b3; stroke-width: 1.5; stroke-linecap: round"/>
    </g>
    <g id="text_22">
     <!-- FedProto -->
     <g style="fill: #262626" transform="translate(328.242813 110.045963) scale(0.11 -0.11)">
      <use xlink:href="#DejaVuSans-46"/>
      <use xlink:href="#DejaVuSans-65" x="52.019531"/>
      <use xlink:href="#DejaVuSans-64" x="113.542969"/>
      <use xlink:href="#DejaVuSans-50" x="177.019531"/>
      <use xlink:href="#DejaVuSans-72" x="235.572266"/>
      <use xlink:href="#DejaVuSans-6f" x="274.435547"/>
      <use xlink:href="#DejaVuSans-74" x="335.617188"/>
      <use xlink:href="#DejaVuSans-6f" x="374.826172"/>
     </g>
    </g>
   </g>
  </g>
 </g>
 <defs>
  <clipPath id="pe5a09fb21f">
   <rect x="49.807187" y="10.090182" width="357.12" height="266.112"/>
  </clipPath>
 </defs>
</svg>
