<?xml version="1.0" encoding="utf-8" standalone="no"?>
<!DOCTYPE svg PUBLIC "-//W3C//DTD SVG 1.1//EN"
  "http://www.w3.org/Graphics/SVG/1.1/DTD/svg11.dtd">
<svg xmlns:xlink="http://www.w3.org/1999/xlink" width="417.63pt" height="316.271687pt" viewBox="0 0 417.63 316.271687" xmlns="http://www.w3.org/2000/svg" version="1.1">
 <metadata>
  <rdf:RDF xmlns:dc="http://purl.org/dc/elements/1.1/" xmlns:cc="http://creativecommons.org/ns#" xmlns:rdf="http://www.w3.org/1999/02/22-rdf-syntax-ns#">
   <cc:Work>
    <dc:type rdf:resource="http://purl.org/dc/dcmitype/StillImage"/>
    <dc:date>2023-02-08T14:26:45.306236</dc:date>
    <dc:format>image/svg+xml</dc:format>
    <dc:creator>
     <cc:Agent>
      <dc:title>Matplotlib v3.6.3, https://matplotlib.org/</dc:title>
     </cc:Agent>
    </dc:creator>
   </cc:Work>
  </rdf:RDF>
 </metadata>
 <defs>
  <style type="text/css">*{stroke-linejoin: round; stroke-linecap: butt}</style>
 </defs>
 <g id="figure_1">
  <g id="patch_1">
   <path d="M 0 316.271687 
L 417.63 316.271687 
L 417.63 0 
L 0 0 
z
" style="fill: #ffffff"/>
  </g>
  <g id="axes_1">
   <g id="patch_2">
    <path d="M 53.31 273.312 
L 410.43 273.312 
L 410.43 7.2 
L 53.31 7.2 
z
" style="fill: #ffffff"/>
   </g>
   <g id="matplotlib.axis_1">
    <g id="xtick_1">
     <g id="line2d_1">
      <path d="M 66.263388 273.312 
L 66.263388 7.2 
" clip-path="url(#pbb582a4b23)" style="fill: none; stroke: #cccccc; stroke-linecap: round"/>
     </g>
     <g id="text_1">
      <!-- 0 -->
      <g style="fill: #262626" transform="translate(62.764013 291.170281) scale(0.11 -0.11)">
       <defs>
        <path id="DejaVuSans-30" d="M 2034 4250 
Q 1547 4250 1301 3770 
Q 1056 3291 1056 2328 
Q 1056 1369 1301 889 
Q 1547 409 2034 409 
Q 2525 409 2770 889 
Q 3016 1369 3016 2328 
Q 3016 3291 2770 3770 
Q 2525 4250 2034 4250 
z
M 2034 4750 
Q 2819 4750 3233 4129 
Q 3647 3509 3647 2328 
Q 3647 1150 3233 529 
Q 2819 -91 2034 -91 
Q 1250 -91 836 529 
Q 422 1150 422 2328 
Q 422 3509 836 4129 
Q 1250 4750 2034 4750 
z
" transform="scale(0.015625)"/>
       </defs>
       <use xlink:href="#DejaVuSans-30"/>
      </g>
     </g>
    </g>
    <g id="xtick_2">
     <g id="line2d_2">
      <path d="M 131.850165 273.312 
L 131.850165 7.2 
" clip-path="url(#pbb582a4b23)" style="fill: none; stroke: #cccccc; stroke-linecap: round"/>
     </g>
     <g id="text_2">
      <!-- 20 -->
      <g style="fill: #262626" transform="translate(124.851415 291.170281) scale(0.11 -0.11)">
       <defs>
        <path id="DejaVuSans-32" d="M 1228 531 
L 3431 531 
L 3431 0 
L 469 0 
L 469 531 
Q 828 903 1448 1529 
Q 2069 2156 2228 2338 
Q 2531 2678 2651 2914 
Q 2772 3150 2772 3378 
Q 2772 3750 2511 3984 
Q 2250 4219 1831 4219 
Q 1534 4219 1204 4116 
Q 875 4013 500 3803 
L 500 4441 
Q 881 4594 1212 4672 
Q 1544 4750 1819 4750 
Q 2544 4750 2975 4387 
Q 3406 4025 3406 3419 
Q 3406 3131 3298 2873 
Q 3191 2616 2906 2266 
Q 2828 2175 2409 1742 
Q 1991 1309 1228 531 
z
" transform="scale(0.015625)"/>
       </defs>
       <use xlink:href="#DejaVuSans-32"/>
       <use xlink:href="#DejaVuSans-30" x="63.623047"/>
      </g>
     </g>
    </g>
    <g id="xtick_3">
     <g id="line2d_3">
      <path d="M 197.436942 273.312 
L 197.436942 7.2 
" clip-path="url(#pbb582a4b23)" style="fill: none; stroke: #cccccc; stroke-linecap: round"/>
     </g>
     <g id="text_3">
      <!-- 40 -->
      <g style="fill: #262626" transform="translate(190.438192 291.170281) scale(0.11 -0.11)">
       <defs>
        <path id="DejaVuSans-34" d="M 2419 4116 
L 825 1625 
L 2419 1625 
L 2419 4116 
z
M 2253 4666 
L 3047 4666 
L 3047 1625 
L 3713 1625 
L 3713 1100 
L 3047 1100 
L 3047 0 
L 2419 0 
L 2419 1100 
L 313 1100 
L 313 1709 
L 2253 4666 
z
" transform="scale(0.015625)"/>
       </defs>
       <use xlink:href="#DejaVuSans-34"/>
       <use xlink:href="#DejaVuSans-30" x="63.623047"/>
      </g>
     </g>
    </g>
    <g id="xtick_4">
     <g id="line2d_4">
      <path d="M 263.023719 273.312 
L 263.023719 7.2 
" clip-path="url(#pbb582a4b23)" style="fill: none; stroke: #cccccc; stroke-linecap: round"/>
     </g>
     <g id="text_4">
      <!-- 60 -->
      <g style="fill: #262626" transform="translate(256.024969 291.170281) scale(0.11 -0.11)">
       <defs>
        <path id="DejaVuSans-36" d="M 2113 2584 
Q 1688 2584 1439 2293 
Q 1191 2003 1191 1497 
Q 1191 994 1439 701 
Q 1688 409 2113 409 
Q 2538 409 2786 701 
Q 3034 994 3034 1497 
Q 3034 2003 2786 2293 
Q 2538 2584 2113 2584 
z
M 3366 4563 
L 3366 3988 
Q 3128 4100 2886 4159 
Q 2644 4219 2406 4219 
Q 1781 4219 1451 3797 
Q 1122 3375 1075 2522 
Q 1259 2794 1537 2939 
Q 1816 3084 2150 3084 
Q 2853 3084 3261 2657 
Q 3669 2231 3669 1497 
Q 3669 778 3244 343 
Q 2819 -91 2113 -91 
Q 1303 -91 875 529 
Q 447 1150 447 2328 
Q 447 3434 972 4092 
Q 1497 4750 2381 4750 
Q 2619 4750 2861 4703 
Q 3103 4656 3366 4563 
z
" transform="scale(0.015625)"/>
       </defs>
       <use xlink:href="#DejaVuSans-36"/>
       <use xlink:href="#DejaVuSans-30" x="63.623047"/>
      </g>
     </g>
    </g>
    <g id="xtick_5">
     <g id="line2d_5">
      <path d="M 328.610496 273.312 
L 328.610496 7.2 
" clip-path="url(#pbb582a4b23)" style="fill: none; stroke: #cccccc; stroke-linecap: round"/>
     </g>
     <g id="text_5">
      <!-- 80 -->
      <g style="fill: #262626" transform="translate(321.611746 291.170281) scale(0.11 -0.11)">
       <defs>
        <path id="DejaVuSans-38" d="M 2034 2216 
Q 1584 2216 1326 1975 
Q 1069 1734 1069 1313 
Q 1069 891 1326 650 
Q 1584 409 2034 409 
Q 2484 409 2743 651 
Q 3003 894 3003 1313 
Q 3003 1734 2745 1975 
Q 2488 2216 2034 2216 
z
M 1403 2484 
Q 997 2584 770 2862 
Q 544 3141 544 3541 
Q 544 4100 942 4425 
Q 1341 4750 2034 4750 
Q 2731 4750 3128 4425 
Q 3525 4100 3525 3541 
Q 3525 3141 3298 2862 
Q 3072 2584 2669 2484 
Q 3125 2378 3379 2068 
Q 3634 1759 3634 1313 
Q 3634 634 3220 271 
Q 2806 -91 2034 -91 
Q 1263 -91 848 271 
Q 434 634 434 1313 
Q 434 1759 690 2068 
Q 947 2378 1403 2484 
z
M 1172 3481 
Q 1172 3119 1398 2916 
Q 1625 2713 2034 2713 
Q 2441 2713 2670 2916 
Q 2900 3119 2900 3481 
Q 2900 3844 2670 4047 
Q 2441 4250 2034 4250 
Q 1625 4250 1398 4047 
Q 1172 3844 1172 3481 
z
" transform="scale(0.015625)"/>
       </defs>
       <use xlink:href="#DejaVuSans-38"/>
       <use xlink:href="#DejaVuSans-30" x="63.623047"/>
      </g>
     </g>
    </g>
    <g id="xtick_6">
     <g id="line2d_6">
      <path d="M 394.197273 273.312 
L 394.197273 7.2 
" clip-path="url(#pbb582a4b23)" style="fill: none; stroke: #cccccc; stroke-linecap: round"/>
     </g>
     <g id="text_6">
      <!-- 100 -->
      <g style="fill: #262626" transform="translate(383.699148 291.170281) scale(0.11 -0.11)">
       <defs>
        <path id="DejaVuSans-31" d="M 794 531 
L 1825 531 
L 1825 4091 
L 703 3866 
L 703 4441 
L 1819 4666 
L 2450 4666 
L 2450 531 
L 3481 531 
L 3481 0 
L 794 0 
L 794 531 
z
" transform="scale(0.015625)"/>
       </defs>
       <use xlink:href="#DejaVuSans-31"/>
       <use xlink:href="#DejaVuSans-30" x="63.623047"/>
       <use xlink:href="#DejaVuSans-30" x="127.246094"/>
      </g>
     </g>
    </g>
    <g id="text_7">
     <!-- Round -->
     <g style="fill: #262626" transform="translate(212.885625 306.576062) scale(0.12 -0.12)">
      <defs>
       <path id="DejaVuSans-52" d="M 2841 2188 
Q 3044 2119 3236 1894 
Q 3428 1669 3622 1275 
L 4263 0 
L 3584 0 
L 2988 1197 
Q 2756 1666 2539 1819 
Q 2322 1972 1947 1972 
L 1259 1972 
L 1259 0 
L 628 0 
L 628 4666 
L 2053 4666 
Q 2853 4666 3247 4331 
Q 3641 3997 3641 3322 
Q 3641 2881 3436 2590 
Q 3231 2300 2841 2188 
z
M 1259 4147 
L 1259 2491 
L 2053 2491 
Q 2509 2491 2742 2702 
Q 2975 2913 2975 3322 
Q 2975 3731 2742 3939 
Q 2509 4147 2053 4147 
L 1259 4147 
z
" transform="scale(0.015625)"/>
       <path id="DejaVuSans-6f" d="M 1959 3097 
Q 1497 3097 1228 2736 
Q 959 2375 959 1747 
Q 959 1119 1226 758 
Q 1494 397 1959 397 
Q 2419 397 2687 759 
Q 2956 1122 2956 1747 
Q 2956 2369 2687 2733 
Q 2419 3097 1959 3097 
z
M 1959 3584 
Q 2709 3584 3137 3096 
Q 3566 2609 3566 1747 
Q 3566 888 3137 398 
Q 2709 -91 1959 -91 
Q 1206 -91 779 398 
Q 353 888 353 1747 
Q 353 2609 779 3096 
Q 1206 3584 1959 3584 
z
" transform="scale(0.015625)"/>
       <path id="DejaVuSans-75" d="M 544 1381 
L 544 3500 
L 1119 3500 
L 1119 1403 
Q 1119 906 1312 657 
Q 1506 409 1894 409 
Q 2359 409 2629 706 
Q 2900 1003 2900 1516 
L 2900 3500 
L 3475 3500 
L 3475 0 
L 2900 0 
L 2900 538 
Q 2691 219 2414 64 
Q 2138 -91 1772 -91 
Q 1169 -91 856 284 
Q 544 659 544 1381 
z
M 1991 3584 
L 1991 3584 
z
" transform="scale(0.015625)"/>
       <path id="DejaVuSans-6e" d="M 3513 2113 
L 3513 0 
L 2938 0 
L 2938 2094 
Q 2938 2591 2744 2837 
Q 2550 3084 2163 3084 
Q 1697 3084 1428 2787 
Q 1159 2491 1159 1978 
L 1159 0 
L 581 0 
L 581 3500 
L 1159 3500 
L 1159 2956 
Q 1366 3272 1645 3428 
Q 1925 3584 2291 3584 
Q 2894 3584 3203 3211 
Q 3513 2838 3513 2113 
z
" transform="scale(0.015625)"/>
       <path id="DejaVuSans-64" d="M 2906 2969 
L 2906 4863 
L 3481 4863 
L 3481 0 
L 2906 0 
L 2906 525 
Q 2725 213 2448 61 
Q 2172 -91 1784 -91 
Q 1150 -91 751 415 
Q 353 922 353 1747 
Q 353 2572 751 3078 
Q 1150 3584 1784 3584 
Q 2172 3584 2448 3432 
Q 2725 3281 2906 2969 
z
M 947 1747 
Q 947 1113 1208 752 
Q 1469 391 1925 391 
Q 2381 391 2643 752 
Q 2906 1113 2906 1747 
Q 2906 2381 2643 2742 
Q 2381 3103 1925 3103 
Q 1469 3103 1208 2742 
Q 947 2381 947 1747 
z
" transform="scale(0.015625)"/>
      </defs>
      <use xlink:href="#DejaVuSans-52"/>
      <use xlink:href="#DejaVuSans-6f" x="64.982422"/>
      <use xlink:href="#DejaVuSans-75" x="126.164062"/>
      <use xlink:href="#DejaVuSans-6e" x="189.542969"/>
      <use xlink:href="#DejaVuSans-64" x="252.921875"/>
     </g>
    </g>
   </g>
   <g id="matplotlib.axis_2">
    <g id="ytick_1">
     <g id="line2d_7">
      <path d="M 53.31 226.212029 
L 410.43 226.212029 
" clip-path="url(#pbb582a4b23)" style="fill: none; stroke: #cccccc; stroke-linecap: round"/>
     </g>
     <g id="text_8">
      <!-- 20 -->
      <g style="fill: #262626" transform="translate(29.8125 230.391169) scale(0.11 -0.11)">
       <use xlink:href="#DejaVuSans-32"/>
       <use xlink:href="#DejaVuSans-30" x="63.623047"/>
      </g>
     </g>
    </g>
    <g id="ytick_2">
     <g id="line2d_8">
      <path d="M 53.31 173.762577 
L 410.43 173.762577 
" clip-path="url(#pbb582a4b23)" style="fill: none; stroke: #cccccc; stroke-linecap: round"/>
     </g>
     <g id="text_9">
      <!-- 40 -->
      <g style="fill: #262626" transform="translate(29.8125 177.941718) scale(0.11 -0.11)">
       <use xlink:href="#DejaVuSans-34"/>
       <use xlink:href="#DejaVuSans-30" x="63.623047"/>
      </g>
     </g>
    </g>
    <g id="ytick_3">
     <g id="line2d_9">
      <path d="M 53.31 121.313125 
L 410.43 121.313125 
" clip-path="url(#pbb582a4b23)" style="fill: none; stroke: #cccccc; stroke-linecap: round"/>
     </g>
     <g id="text_10">
      <!-- 60 -->
      <g style="fill: #262626" transform="translate(29.8125 125.492266) scale(0.11 -0.11)">
       <use xlink:href="#DejaVuSans-36"/>
       <use xlink:href="#DejaVuSans-30" x="63.623047"/>
      </g>
     </g>
    </g>
    <g id="ytick_4">
     <g id="line2d_10">
      <path d="M 53.31 68.863674 
L 410.43 68.863674 
" clip-path="url(#pbb582a4b23)" style="fill: none; stroke: #cccccc; stroke-linecap: round"/>
     </g>
     <g id="text_11">
      <!-- 80 -->
      <g style="fill: #262626" transform="translate(29.8125 73.042814) scale(0.11 -0.11)">
       <use xlink:href="#DejaVuSans-38"/>
       <use xlink:href="#DejaVuSans-30" x="63.623047"/>
      </g>
     </g>
    </g>
    <g id="ytick_5">
     <g id="line2d_11">
      <path d="M 53.31 16.414222 
L 410.43 16.414222 
" clip-path="url(#pbb582a4b23)" style="fill: none; stroke: #cccccc; stroke-linecap: round"/>
     </g>
     <g id="text_12">
      <!-- 100 -->
      <g style="fill: #262626" transform="translate(22.81375 20.593363) scale(0.11 -0.11)">
       <use xlink:href="#DejaVuSans-31"/>
       <use xlink:href="#DejaVuSans-30" x="63.623047"/>
       <use xlink:href="#DejaVuSans-30" x="127.246094"/>
      </g>
     </g>
    </g>
    <g id="text_13">
     <!-- Accuracy (%) -->
     <g style="fill: #262626" transform="translate(16.318125 179.939437) rotate(-90) scale(0.12 -0.12)">
      <defs>
       <path id="DejaVuSans-41" d="M 2188 4044 
L 1331 1722 
L 3047 1722 
L 2188 4044 
z
M 1831 4666 
L 2547 4666 
L 4325 0 
L 3669 0 
L 3244 1197 
L 1141 1197 
L 716 0 
L 50 0 
L 1831 4666 
z
" transform="scale(0.015625)"/>
       <path id="DejaVuSans-63" d="M 3122 3366 
L 3122 2828 
Q 2878 2963 2633 3030 
Q 2388 3097 2138 3097 
Q 1578 3097 1268 2742 
Q 959 2388 959 1747 
Q 959 1106 1268 751 
Q 1578 397 2138 397 
Q 2388 397 2633 464 
Q 2878 531 3122 666 
L 3122 134 
Q 2881 22 2623 -34 
Q 2366 -91 2075 -91 
Q 1284 -91 818 406 
Q 353 903 353 1747 
Q 353 2603 823 3093 
Q 1294 3584 2113 3584 
Q 2378 3584 2631 3529 
Q 2884 3475 3122 3366 
z
" transform="scale(0.015625)"/>
       <path id="DejaVuSans-72" d="M 2631 2963 
Q 2534 3019 2420 3045 
Q 2306 3072 2169 3072 
Q 1681 3072 1420 2755 
Q 1159 2438 1159 1844 
L 1159 0 
L 581 0 
L 581 3500 
L 1159 3500 
L 1159 2956 
Q 1341 3275 1631 3429 
Q 1922 3584 2338 3584 
Q 2397 3584 2469 3576 
Q 2541 3569 2628 3553 
L 2631 2963 
z
" transform="scale(0.015625)"/>
       <path id="DejaVuSans-61" d="M 2194 1759 
Q 1497 1759 1228 1600 
Q 959 1441 959 1056 
Q 959 750 1161 570 
Q 1363 391 1709 391 
Q 2188 391 2477 730 
Q 2766 1069 2766 1631 
L 2766 1759 
L 2194 1759 
z
M 3341 1997 
L 3341 0 
L 2766 0 
L 2766 531 
Q 2569 213 2275 61 
Q 1981 -91 1556 -91 
Q 1019 -91 701 211 
Q 384 513 384 1019 
Q 384 1609 779 1909 
Q 1175 2209 1959 2209 
L 2766 2209 
L 2766 2266 
Q 2766 2663 2505 2880 
Q 2244 3097 1772 3097 
Q 1472 3097 1187 3025 
Q 903 2953 641 2809 
L 641 3341 
Q 956 3463 1253 3523 
Q 1550 3584 1831 3584 
Q 2591 3584 2966 3190 
Q 3341 2797 3341 1997 
z
" transform="scale(0.015625)"/>
       <path id="DejaVuSans-79" d="M 2059 -325 
Q 1816 -950 1584 -1140 
Q 1353 -1331 966 -1331 
L 506 -1331 
L 506 -850 
L 844 -850 
Q 1081 -850 1212 -737 
Q 1344 -625 1503 -206 
L 1606 56 
L 191 3500 
L 800 3500 
L 1894 763 
L 2988 3500 
L 3597 3500 
L 2059 -325 
z
" transform="scale(0.015625)"/>
       <path id="DejaVuSans-20" transform="scale(0.015625)"/>
       <path id="DejaVuSans-28" d="M 1984 4856 
Q 1566 4138 1362 3434 
Q 1159 2731 1159 2009 
Q 1159 1288 1364 580 
Q 1569 -128 1984 -844 
L 1484 -844 
Q 1016 -109 783 600 
Q 550 1309 550 2009 
Q 550 2706 781 3412 
Q 1013 4119 1484 4856 
L 1984 4856 
z
" transform="scale(0.015625)"/>
       <path id="DejaVuSans-25" d="M 4653 2053 
Q 4381 2053 4226 1822 
Q 4072 1591 4072 1178 
Q 4072 772 4226 539 
Q 4381 306 4653 306 
Q 4919 306 5073 539 
Q 5228 772 5228 1178 
Q 5228 1588 5073 1820 
Q 4919 2053 4653 2053 
z
M 4653 2450 
Q 5147 2450 5437 2106 
Q 5728 1763 5728 1178 
Q 5728 594 5436 251 
Q 5144 -91 4653 -91 
Q 4153 -91 3862 251 
Q 3572 594 3572 1178 
Q 3572 1766 3864 2108 
Q 4156 2450 4653 2450 
z
M 1428 4353 
Q 1159 4353 1004 4120 
Q 850 3888 850 3481 
Q 850 3069 1003 2837 
Q 1156 2606 1428 2606 
Q 1700 2606 1854 2837 
Q 2009 3069 2009 3481 
Q 2009 3884 1853 4118 
Q 1697 4353 1428 4353 
z
M 4250 4750 
L 4750 4750 
L 1831 -91 
L 1331 -91 
L 4250 4750 
z
M 1428 4750 
Q 1922 4750 2215 4408 
Q 2509 4066 2509 3481 
Q 2509 2891 2217 2550 
Q 1925 2209 1428 2209 
Q 931 2209 642 2551 
Q 353 2894 353 3481 
Q 353 4063 643 4406 
Q 934 4750 1428 4750 
z
" transform="scale(0.015625)"/>
       <path id="DejaVuSans-29" d="M 513 4856 
L 1013 4856 
Q 1481 4119 1714 3412 
Q 1947 2706 1947 2009 
Q 1947 1309 1714 600 
Q 1481 -109 1013 -844 
L 513 -844 
Q 928 -128 1133 580 
Q 1338 1288 1338 2009 
Q 1338 2731 1133 3434 
Q 928 4138 513 4856 
z
" transform="scale(0.015625)"/>
      </defs>
      <use xlink:href="#DejaVuSans-41"/>
      <use xlink:href="#DejaVuSans-63" x="66.658203"/>
      <use xlink:href="#DejaVuSans-63" x="121.638672"/>
      <use xlink:href="#DejaVuSans-75" x="176.619141"/>
      <use xlink:href="#DejaVuSans-72" x="239.998047"/>
      <use xlink:href="#DejaVuSans-61" x="281.111328"/>
      <use xlink:href="#DejaVuSans-63" x="342.390625"/>
      <use xlink:href="#DejaVuSans-79" x="397.371094"/>
      <use xlink:href="#DejaVuSans-20" x="456.550781"/>
      <use xlink:href="#DejaVuSans-28" x="488.337891"/>
      <use xlink:href="#DejaVuSans-25" x="527.351562"/>
      <use xlink:href="#DejaVuSans-29" x="622.371094"/>
     </g>
    </g>
   </g>
   <g id="PolyCollection_1">
    <defs>
     <path id="mb16844a8be" d="M 69.542727 -124.803978 
L 69.542727 -77.154709 
L 72.822066 -97.67161 
L 76.101405 -135.89133 
L 79.380744 -186.051009 
L 82.660083 -208.479273 
L 85.939421 -211.843926 
L 89.21876 -211.89188 
L 92.498099 -243.306226 
L 95.777438 -253.966955 
L 99.056777 -252.756123 
L 102.336116 -258.028386 
L 105.615455 -267.925516 
L 108.894793 -269.701021 
L 112.174132 -274.666593 
L 115.453471 -274.110855 
L 118.73281 -276.11131 
L 122.012149 -276.932294 
L 125.291488 -286.492359 
L 128.570826 -284.028333 
L 131.850165 -279.056067 
L 135.129504 -283.932857 
L 138.408843 -289.03078 
L 141.688182 -284.304932 
L 144.967521 -288.756581 
L 148.24686 -283.308689 
L 151.526198 -284.877793 
L 154.805537 -285.927619 
L 158.084876 -276.855785 
L 161.364215 -285.111182 
L 164.643554 -278.66565 
L 167.922893 -281.682879 
L 171.202231 -284.279838 
L 174.48157 -288.417936 
L 177.760909 -287.870698 
L 181.040248 -289.843302 
L 184.319587 -288.616257 
L 187.598926 -290.680764 
L 190.878264 -292.011034 
L 194.157603 -281.801758 
L 197.436942 -287.642164 
L 200.716281 -290.782824 
L 203.99562 -288.100631 
L 207.274959 -290.508496 
L 210.554298 -289.09353 
L 213.833636 -288.141845 
L 217.112975 -291.2298 
L 220.392314 -291.087394 
L 223.671653 -290.643564 
L 226.950992 -289.380573 
L 230.230331 -292.345369 
L 233.509669 -291.518654 
L 236.789008 -293.596651 
L 240.068347 -289.146903 
L 243.347686 -291.273379 
L 246.627025 -290.993254 
L 249.906364 -291.581997 
L 253.185702 -290.535671 
L 256.465041 -291.566313 
L 259.74438 -292.921831 
L 263.023719 -288.529718 
L 266.303058 -289.005192 
L 269.582397 -291.944651 
L 272.861736 -289.677098 
L 276.141074 -291.966506 
L 279.420413 -290.340118 
L 282.699752 -292.343835 
L 285.979091 -289.408255 
L 289.25843 -291.878124 
L 292.537769 -290.65734 
L 295.817107 -284.270357 
L 299.096446 -273.110735 
L 302.375785 -274.926278 
L 305.655124 -280.109912 
L 308.934463 -276.68861 
L 312.213802 -288.668422 
L 315.49314 -287.75045 
L 318.772479 -285.657757 
L 322.051818 -287.078227 
L 325.331157 -283.41927 
L 328.610496 -287.123256 
L 331.889835 -287.036098 
L 335.169174 -280.252329 
L 338.448512 -285.638415 
L 341.727851 -285.9679 
L 345.00719 -283.903609 
L 348.286529 -282.7783 
L 351.565868 -287.060485 
L 354.845207 -286.068837 
L 358.124545 -290.316499 
L 361.403884 -280.547007 
L 364.683223 -282.723585 
L 367.962562 -287.549405 
L 371.241901 -288.984056 
L 374.52124 -286.963907 
L 377.800579 -274.624185 
L 381.079917 -282.844262 
L 384.359256 -289.408656 
L 387.638595 -292.502448 
L 390.917934 -286.30211 
L 394.197273 -290.568144 
L 394.197273 -295.465131 
L 394.197273 -295.465131 
L 390.917934 -294.286823 
L 387.638595 -295.53126 
L 384.359256 -294.533922 
L 381.079917 -292.064206 
L 377.800579 -290.04335 
L 374.52124 -293.686286 
L 371.241901 -294.459719 
L 367.962562 -295.11542 
L 364.683223 -292.443951 
L 361.403884 -291.730268 
L 358.124545 -294.907704 
L 354.845207 -293.269687 
L 351.565868 -293.722008 
L 348.286529 -292.166234 
L 345.00719 -293.334215 
L 341.727851 -294.15805 
L 338.448512 -293.664773 
L 335.169174 -291.21836 
L 331.889835 -292.973375 
L 328.610496 -293.37377 
L 325.331157 -292.216224 
L 322.051818 -293.848533 
L 318.772479 -292.8565 
L 315.49314 -293.800528 
L 312.213802 -294.175262 
L 308.934463 -291.184979 
L 305.655124 -291.208437 
L 302.375785 -289.526943 
L 299.096446 -288.190621 
L 295.817107 -291.973356 
L 292.537769 -296.975687 
L 289.25843 -296.700078 
L 285.979091 -296.722161 
L 282.699752 -296.831843 
L 279.420413 -296.871778 
L 276.141074 -296.697297 
L 272.861736 -296.364334 
L 269.582397 -296.713318 
L 266.303058 -295.921205 
L 263.023719 -296.291648 
L 259.74438 -296.410241 
L 256.465041 -295.671263 
L 253.185702 -295.943177 
L 249.906364 -296.50023 
L 246.627025 -296.002069 
L 243.347686 -296.46285 
L 240.068347 -295.688255 
L 236.789008 -295.933676 
L 233.509669 -295.124515 
L 230.230331 -295.652687 
L 226.950992 -295.224559 
L 223.671653 -294.994302 
L 220.392314 -295.139953 
L 217.112975 -294.694058 
L 213.833636 -296.097037 
L 210.554298 -295.854915 
L 207.274959 -296.001924 
L 203.99562 -295.723485 
L 200.716281 -295.377499 
L 197.436942 -295.28808 
L 194.157603 -294.973364 
L 190.878264 -295.683144 
L 187.598926 -294.830477 
L 184.319587 -294.034633 
L 181.040248 -294.321727 
L 177.760909 -294.38753 
L 174.48157 -293.706122 
L 171.202231 -294.275477 
L 167.922893 -294.032524 
L 164.643554 -290.316545 
L 161.364215 -293.38442 
L 158.084876 -292.901015 
L 154.805537 -292.770181 
L 151.526198 -291.182313 
L 148.24686 -291.895361 
L 144.967521 -293.523939 
L 141.688182 -291.91192 
L 138.408843 -293.664012 
L 135.129504 -291.046251 
L 131.850165 -290.377334 
L 128.570826 -291.694615 
L 125.291488 -292.287121 
L 122.012149 -291.437568 
L 118.73281 -289.520922 
L 115.453471 -290.326453 
L 112.174132 -289.399376 
L 108.894793 -289.971002 
L 105.615455 -290.084244 
L 102.336116 -284.803548 
L 99.056777 -284.619033 
L 95.777438 -280.176941 
L 92.498099 -277.400823 
L 89.21876 -261.287692 
L 85.939421 -257.946838 
L 82.660083 -252.723967 
L 79.380744 -239.272571 
L 76.101405 -206.799123 
L 72.822066 -161.824357 
L 69.542727 -124.803978 
z
" style="stroke: #4c72b0; stroke-opacity: 0.2"/>
    </defs>
    <g clip-path="url(#pbb582a4b23)">
     <use xlink:href="#mb16844a8be" x="0" y="316.271687" style="fill: #4c72b0; fill-opacity: 0.2; stroke: #4c72b0; stroke-opacity: 0.2"/>
    </g>
   </g>
   <g id="PolyCollection_2">
    <defs>
     <path id="me00027652b" d="M 69.542727 -103.656994 
L 69.542727 -62.496365 
L 72.822066 -55.055688 
L 76.101405 -89.834004 
L 79.380744 -143.425766 
L 82.660083 -159.694976 
L 85.939421 -152.784952 
L 89.21876 -124.08222 
L 92.498099 -157.421368 
L 95.777438 -198.863052 
L 99.056777 -207.935553 
L 102.336116 -191.168403 
L 105.615455 -223.656466 
L 108.894793 -241.575153 
L 112.174132 -237.17476 
L 115.453471 -207.414384 
L 118.73281 -219.362581 
L 122.012149 -224.885245 
L 125.291488 -226.823017 
L 128.570826 -209.074736 
L 131.850165 -234.22515 
L 135.129504 -211.394332 
L 138.408843 -256.010066 
L 141.688182 -217.209746 
L 144.967521 -259.721564 
L 148.24686 -232.397303 
L 151.526198 -202.197259 
L 154.805537 -212.497817 
L 158.084876 -217.546678 
L 161.364215 -233.96717 
L 164.643554 -224.610415 
L 167.922893 -239.169313 
L 171.202231 -237.37827 
L 174.48157 -235.906197 
L 177.760909 -263.081414 
L 181.040248 -257.674248 
L 184.319587 -243.613332 
L 187.598926 -238.612884 
L 190.878264 -257.265335 
L 194.157603 -225.332911 
L 197.436942 -257.880144 
L 200.716281 -246.801358 
L 203.99562 -259.799949 
L 207.274959 -273.433053 
L 210.554298 -250.240466 
L 213.833636 -260.573595 
L 217.112975 -220.660033 
L 220.392314 -232.979259 
L 223.671653 -233.298101 
L 226.950992 -248.426473 
L 230.230331 -269.603487 
L 233.509669 -244.707668 
L 236.789008 -276.731542 
L 240.068347 -265.029616 
L 243.347686 -271.926623 
L 246.627025 -257.694783 
L 249.906364 -280.6986 
L 253.185702 -276.793381 
L 256.465041 -231.496374 
L 259.74438 -275.539982 
L 263.023719 -245.998161 
L 266.303058 -219.030338 
L 269.582397 -274.359245 
L 272.861736 -268.26581 
L 276.141074 -268.286013 
L 279.420413 -276.156723 
L 282.699752 -263.348392 
L 285.979091 -229.796098 
L 289.25843 -237.164113 
L 292.537769 -244.979529 
L 295.817107 -270.814113 
L 299.096446 -236.803782 
L 302.375785 -248.343782 
L 305.655124 -260.154392 
L 308.934463 -244.195561 
L 312.213802 -274.821869 
L 315.49314 -269.785871 
L 318.772479 -268.476318 
L 322.051818 -281.25912 
L 325.331157 -271.051832 
L 328.610496 -277.885502 
L 331.889835 -278.579264 
L 335.169174 -255.110176 
L 338.448512 -260.042414 
L 341.727851 -262.992622 
L 345.00719 -260.372794 
L 348.286529 -261.793929 
L 351.565868 -273.135724 
L 354.845207 -268.190149 
L 358.124545 -280.05824 
L 361.403884 -261.096781 
L 364.683223 -272.324944 
L 367.962562 -277.1826 
L 371.241901 -280.478449 
L 374.52124 -277.966044 
L 377.800579 -243.629436 
L 381.079917 -256.316391 
L 384.359256 -279.235078 
L 387.638595 -285.889096 
L 390.917934 -265.694277 
L 394.197273 -275.255549 
L 394.197273 -287.488131 
L 394.197273 -287.488131 
L 390.917934 -283.331907 
L 387.638595 -289.680392 
L 384.359256 -285.215631 
L 381.079917 -275.571421 
L 377.800579 -266.501362 
L 374.52124 -284.733661 
L 371.241901 -286.55022 
L 367.962562 -285.25404 
L 364.683223 -281.496433 
L 361.403884 -274.296228 
L 358.124545 -286.785525 
L 354.845207 -279.958458 
L 351.565868 -282.850266 
L 348.286529 -277.677742 
L 345.00719 -277.078386 
L 341.727851 -277.310149 
L 338.448512 -278.465034 
L 335.169174 -272.090184 
L 331.889835 -283.64089 
L 328.610496 -285.868559 
L 325.331157 -280.53191 
L 322.051818 -286.138501 
L 318.772479 -278.320176 
L 315.49314 -280.583578 
L 312.213802 -282.824439 
L 308.934463 -267.406192 
L 305.655124 -274.217098 
L 302.375785 -270.389149 
L 299.096446 -261.986219 
L 295.817107 -279.375095 
L 292.537769 -271.39904 
L 289.25843 -267.538908 
L 285.979091 -266.929964 
L 282.699752 -280.733089 
L 279.420413 -284.63484 
L 276.141074 -281.982296 
L 272.861736 -279.184685 
L 269.582397 -283.576698 
L 266.303058 -254.363046 
L 263.023719 -267.899748 
L 259.74438 -283.878724 
L 256.465041 -264.521319 
L 253.185702 -284.465078 
L 249.906364 -286.107753 
L 246.627025 -279.352774 
L 243.347686 -284.387276 
L 240.068347 -278.759531 
L 236.789008 -282.862878 
L 233.509669 -267.611128 
L 230.230331 -277.7931 
L 226.950992 -273.591115 
L 223.671653 -267.111268 
L 220.392314 -263.706346 
L 217.112975 -258.404861 
L 213.833636 -278.153384 
L 210.554298 -276.609792 
L 207.274959 -282.63573 
L 203.99562 -270.946867 
L 200.716281 -267.523313 
L 197.436942 -274.604875 
L 194.157603 -251.748389 
L 190.878264 -269.036147 
L 187.598926 -267.164478 
L 184.319587 -266.240946 
L 181.040248 -272.859567 
L 177.760909 -274.475044 
L 174.48157 -261.094006 
L 171.202231 -268.449555 
L 167.922893 -270.576882 
L 164.643554 -258.230111 
L 161.364215 -266.481095 
L 158.084876 -253.629238 
L 154.805537 -252.803956 
L 151.526198 -239.689102 
L 148.24686 -261.768626 
L 144.967521 -272.650878 
L 141.688182 -251.973158 
L 138.408843 -269.657067 
L 135.129504 -244.562602 
L 131.850165 -255.555531 
L 128.570826 -243.572718 
L 125.291488 -254.157157 
L 122.012149 -257.922443 
L 118.73281 -250.938549 
L 115.453471 -243.209759 
L 112.174132 -254.909811 
L 108.894793 -256.085804 
L 105.615455 -256.52122 
L 102.336116 -232.88555 
L 99.056777 -238.04111 
L 95.777438 -230.779696 
L 92.498099 -204.530631 
L 89.21876 -175.774981 
L 85.939421 -206.226111 
L 82.660083 -197.166153 
L 79.380744 -190.723096 
L 76.101405 -140.526299 
L 72.822066 -90.677249 
L 69.542727 -103.656994 
z
" style="stroke: #dd8452; stroke-opacity: 0.2"/>
    </defs>
    <g clip-path="url(#pbb582a4b23)">
     <use xlink:href="#me00027652b" x="0" y="316.271687" style="fill: #dd8452; fill-opacity: 0.2; stroke: #dd8452; stroke-opacity: 0.2"/>
    </g>
   </g>
   <g id="PolyCollection_3">
    <defs>
     <path id="md3b6900540" d="M 69.542727 -113.301512 
L 69.542727 -63.765806 
L 72.822066 -92.750076 
L 76.101405 -102.802602 
L 79.380744 -117.36192 
L 82.660083 -136.393246 
L 85.939421 -154.057485 
L 89.21876 -159.971224 
L 92.498099 -167.38918 
L 95.777438 -172.628056 
L 99.056777 -192.285557 
L 102.336116 -195.232958 
L 105.615455 -206.590649 
L 108.894793 -214.062082 
L 112.174132 -222.663957 
L 115.453471 -232.924295 
L 118.73281 -232.752062 
L 122.012149 -235.592886 
L 125.291488 -244.525547 
L 128.570826 -246.195111 
L 131.850165 -248.342132 
L 135.129504 -243.619481 
L 138.408843 -253.702111 
L 141.688182 -253.885483 
L 144.967521 -256.131922 
L 148.24686 -255.843321 
L 151.526198 -252.920944 
L 154.805537 -254.063715 
L 158.084876 -254.841576 
L 161.364215 -254.119814 
L 164.643554 -254.823124 
L 167.922893 -256.839654 
L 171.202231 -256.043952 
L 174.48157 -256.956029 
L 177.760909 -258.789073 
L 181.040248 -257.298313 
L 184.319587 -258.511668 
L 187.598926 -257.617535 
L 190.878264 -257.415165 
L 194.157603 -256.822318 
L 197.436942 -257.864386 
L 200.716281 -258.307037 
L 203.99562 -256.041353 
L 207.274959 -258.608505 
L 210.554298 -262.037274 
L 213.833636 -260.044455 
L 217.112975 -259.845722 
L 220.392314 -258.893811 
L 223.671653 -259.385896 
L 226.950992 -264.512103 
L 230.230331 -265.044409 
L 233.509669 -265.391537 
L 236.789008 -265.720798 
L 240.068347 -267.760197 
L 243.347686 -265.235003 
L 246.627025 -264.675938 
L 249.906364 -267.836195 
L 253.185702 -270.4431 
L 256.465041 -269.150035 
L 259.74438 -270.350039 
L 263.023719 -272.792381 
L 266.303058 -273.325544 
L 269.582397 -270.719548 
L 272.861736 -271.177793 
L 276.141074 -271.099787 
L 279.420413 -270.408386 
L 282.699752 -269.895042 
L 285.979091 -268.607604 
L 289.25843 -268.333329 
L 292.537769 -272.022243 
L 295.817107 -183.337792 
L 299.096446 -183.718796 
L 302.375785 -189.062207 
L 305.655124 -192.526025 
L 308.934463 -196.972824 
L 312.213802 -188.144732 
L 315.49314 -191.8854 
L 318.772479 -184.119709 
L 322.051818 -188.419963 
L 325.331157 -185.18224 
L 328.610496 -195.633087 
L 331.889835 -188.103248 
L 335.169174 -185.532247 
L 338.448512 -188.883064 
L 341.727851 -193.350216 
L 345.00719 -188.530876 
L 348.286529 -189.313223 
L 351.565868 -200.581057 
L 354.845207 -192.108289 
L 358.124545 -191.972553 
L 361.403884 -194.988118 
L 364.683223 -188.19707 
L 367.962562 -188.371823 
L 371.241901 -183.457924 
L 374.52124 -192.746632 
L 377.800579 -192.540626 
L 381.079917 -186.700592 
L 384.359256 -189.604593 
L 387.638595 -192.880791 
L 390.917934 -191.479071 
L 394.197273 -186.362456 
L 394.197273 -247.915513 
L 394.197273 -247.915513 
L 390.917934 -252.961585 
L 387.638595 -253.610417 
L 384.359256 -250.216529 
L 381.079917 -249.323095 
L 377.800579 -252.023902 
L 374.52124 -251.229624 
L 371.241901 -248.958854 
L 367.962562 -249.564342 
L 364.683223 -248.934271 
L 361.403884 -251.30129 
L 358.124545 -250.817655 
L 354.845207 -253.074642 
L 351.565868 -253.024269 
L 348.286529 -248.540654 
L 345.00719 -249.068655 
L 341.727851 -249.902826 
L 338.448512 -248.679727 
L 335.169174 -246.284224 
L 331.889835 -247.701737 
L 328.610496 -253.836366 
L 325.331157 -247.915977 
L 322.051818 -244.488503 
L 318.772479 -247.933334 
L 315.49314 -252.730411 
L 312.213802 -249.622403 
L 308.934463 -254.926983 
L 305.655124 -248.951171 
L 302.375785 -251.118886 
L 299.096446 -248.090578 
L 295.817107 -243.510384 
L 292.537769 -293.709082 
L 289.25843 -293.485209 
L 285.979091 -293.698754 
L 282.699752 -293.337975 
L 279.420413 -293.415509 
L 276.141074 -293.896355 
L 272.861736 -293.707625 
L 269.582397 -293.322188 
L 266.303058 -293.504023 
L 263.023719 -293.447073 
L 259.74438 -293.558963 
L 256.465041 -292.96459 
L 253.185702 -292.795502 
L 249.906364 -293.017092 
L 246.627025 -291.317126 
L 243.347686 -291.614675 
L 240.068347 -292.168646 
L 236.789008 -291.753514 
L 233.509669 -291.746135 
L 230.230331 -292.475115 
L 226.950992 -291.628563 
L 223.671653 -290.254142 
L 220.392314 -289.216976 
L 217.112975 -289.804183 
L 213.833636 -289.203992 
L 210.554298 -289.667822 
L 207.274959 -288.250499 
L 203.99562 -287.715881 
L 200.716281 -288.93352 
L 197.436942 -288.331093 
L 194.157603 -288.72781 
L 190.878264 -288.882309 
L 187.598926 -287.904478 
L 184.319587 -287.752394 
L 181.040248 -288.006381 
L 177.760909 -286.812568 
L 174.48157 -286.750469 
L 171.202231 -287.02027 
L 167.922893 -286.147709 
L 164.643554 -285.178254 
L 161.364215 -284.654547 
L 158.084876 -284.708034 
L 154.805537 -285.766024 
L 151.526198 -284.509954 
L 148.24686 -285.129239 
L 144.967521 -284.698621 
L 141.688182 -284.086603 
L 138.408843 -284.047599 
L 135.129504 -279.200681 
L 131.850165 -280.977781 
L 128.570826 -279.495052 
L 125.291488 -277.98544 
L 122.012149 -274.520422 
L 118.73281 -272.051837 
L 115.453471 -272.108998 
L 112.174132 -267.72975 
L 108.894793 -262.23193 
L 105.615455 -257.601049 
L 102.336116 -250.155513 
L 99.056777 -242.651033 
L 95.777438 -233.594148 
L 92.498099 -229.880599 
L 89.21876 -221.57621 
L 85.939421 -217.137009 
L 82.660083 -197.230054 
L 79.380744 -183.095177 
L 76.101405 -165.573354 
L 72.822066 -155.023871 
L 69.542727 -113.301512 
z
" style="stroke: #55a868; stroke-opacity: 0.2"/>
    </defs>
    <g clip-path="url(#pbb582a4b23)">
     <use xlink:href="#md3b6900540" x="0" y="316.271687" style="fill: #55a868; fill-opacity: 0.2; stroke: #55a868; stroke-opacity: 0.2"/>
    </g>
   </g>
   <g id="PolyCollection_4">
    <defs>
     <path id="mdd13a03005" d="M 69.542727 -118.269329 
L 69.542727 -66.156671 
L 72.822066 -83.125698 
L 76.101405 -97.013507 
L 79.380744 -106.416085 
L 82.660083 -128.402199 
L 85.939421 -120.259097 
L 89.21876 -148.607286 
L 92.498099 -153.062595 
L 95.777438 -155.670923 
L 99.056777 -162.890601 
L 102.336116 -164.159312 
L 105.615455 -172.82637 
L 108.894793 -200.42175 
L 112.174132 -200.255941 
L 115.453471 -205.646585 
L 118.73281 -206.041556 
L 122.012149 -217.698554 
L 125.291488 -226.923345 
L 128.570826 -228.284463 
L 131.850165 -232.726616 
L 135.129504 -235.913973 
L 138.408843 -242.63097 
L 141.688182 -243.621306 
L 144.967521 -244.006979 
L 148.24686 -246.149737 
L 151.526198 -247.44505 
L 154.805537 -251.330092 
L 158.084876 -255.006887 
L 161.364215 -256.751913 
L 164.643554 -257.192973 
L 167.922893 -259.984912 
L 171.202231 -262.213927 
L 174.48157 -262.159257 
L 177.760909 -262.462039 
L 181.040248 -263.742076 
L 184.319587 -264.332048 
L 187.598926 -266.000444 
L 190.878264 -264.553172 
L 194.157603 -268.256061 
L 197.436942 -267.401572 
L 200.716281 -268.385294 
L 203.99562 -269.219871 
L 207.274959 -270.513871 
L 210.554298 -268.654166 
L 213.833636 -272.580257 
L 217.112975 -277.256771 
L 220.392314 -276.927238 
L 223.671653 -276.030211 
L 226.950992 -276.656682 
L 230.230331 -278.575751 
L 233.509669 -277.444884 
L 236.789008 -279.120232 
L 240.068347 -277.135577 
L 243.347686 -276.96795 
L 246.627025 -276.534862 
L 249.906364 -277.067569 
L 253.185702 -279.930733 
L 256.465041 -279.816908 
L 259.74438 -280.473155 
L 263.023719 -280.081997 
L 266.303058 -278.479848 
L 269.582397 -280.478754 
L 272.861736 -279.766739 
L 276.141074 -280.106546 
L 279.420413 -278.993415 
L 282.699752 -280.558471 
L 285.979091 -279.592462 
L 289.25843 -277.870718 
L 292.537769 -280.505829 
L 295.817107 -192.059046 
L 299.096446 -192.779179 
L 302.375785 -198.88544 
L 305.655124 -185.426519 
L 308.934463 -195.540463 
L 312.213802 -189.07017 
L 315.49314 -198.299488 
L 318.772479 -182.568786 
L 322.051818 -190.462589 
L 325.331157 -199.061525 
L 328.610496 -190.931656 
L 331.889835 -199.33552 
L 335.169174 -189.97032 
L 338.448512 -193.051127 
L 341.727851 -194.467708 
L 345.00719 -189.467803 
L 348.286529 -198.771297 
L 351.565868 -193.901992 
L 354.845207 -194.325316 
L 358.124545 -191.251101 
L 361.403884 -190.912201 
L 364.683223 -191.310169 
L 367.962562 -198.901019 
L 371.241901 -190.832374 
L 374.52124 -188.668731 
L 377.800579 -190.502379 
L 381.079917 -196.008871 
L 384.359256 -196.518751 
L 387.638595 -183.746125 
L 390.917934 -192.574298 
L 394.197273 -193.183165 
L 394.197273 -251.164928 
L 394.197273 -251.164928 
L 390.917934 -252.432353 
L 387.638595 -248.609988 
L 384.359256 -252.633602 
L 381.079917 -253.12732 
L 377.800579 -251.58312 
L 374.52124 -250.259397 
L 371.241901 -252.697426 
L 367.962562 -256.372145 
L 364.683223 -251.82215 
L 361.403884 -252.312649 
L 358.124545 -252.659576 
L 354.845207 -252.650939 
L 351.565868 -252.658399 
L 348.286529 -255.640398 
L 345.00719 -250.364062 
L 341.727851 -252.230491 
L 338.448512 -253.07018 
L 335.169174 -250.491083 
L 331.889835 -257.541511 
L 328.610496 -248.960228 
L 325.331157 -253.548193 
L 322.051818 -249.798127 
L 318.772479 -248.020831 
L 315.49314 -253.747431 
L 312.213802 -250.872037 
L 308.934463 -250.673182 
L 305.655124 -250.431098 
L 302.375785 -253.728727 
L 299.096446 -250.638607 
L 295.817107 -252.381303 
L 292.537769 -295.206435 
L 289.25843 -294.899306 
L 285.979091 -295.072821 
L 282.699752 -295.237117 
L 279.420413 -294.7756 
L 276.141074 -294.471358 
L 272.861736 -294.848662 
L 269.582397 -294.69734 
L 266.303058 -294.795571 
L 263.023719 -294.451403 
L 259.74438 -294.168526 
L 256.465041 -294.044925 
L 253.185702 -294.211852 
L 249.906364 -293.984415 
L 246.627025 -293.990735 
L 243.347686 -293.53303 
L 240.068347 -293.097332 
L 236.789008 -292.995441 
L 233.509669 -292.844423 
L 230.230331 -292.467511 
L 226.950992 -292.500753 
L 223.671653 -292.274884 
L 220.392314 -291.995068 
L 217.112975 -292.195027 
L 213.833636 -291.663113 
L 210.554298 -291.613302 
L 207.274959 -291.384824 
L 203.99562 -291.089927 
L 200.716281 -290.882142 
L 197.436942 -290.897325 
L 194.157603 -290.288795 
L 190.878264 -289.085092 
L 187.598926 -289.497203 
L 184.319587 -289.204818 
L 181.040248 -288.900666 
L 177.760909 -287.314795 
L 174.48157 -286.910954 
L 171.202231 -287.164546 
L 167.922893 -285.116569 
L 164.643554 -283.148519 
L 161.364215 -281.689797 
L 158.084876 -280.731325 
L 154.805537 -279.319669 
L 151.526198 -277.204681 
L 148.24686 -275.034549 
L 144.967521 -274.269206 
L 141.688182 -273.876222 
L 138.408843 -273.501759 
L 135.129504 -271.349834 
L 131.850165 -265.540359 
L 128.570826 -262.405172 
L 125.291488 -262.123421 
L 122.012149 -254.794444 
L 118.73281 -246.776875 
L 115.453471 -246.061059 
L 112.174132 -248.581687 
L 108.894793 -243.433583 
L 105.615455 -223.877084 
L 102.336116 -216.545637 
L 99.056777 -218.432871 
L 95.777438 -210.693827 
L 92.498099 -210.79149 
L 89.21876 -203.106741 
L 85.939421 -175.853741 
L 82.660083 -180.114264 
L 79.380744 -162.610817 
L 76.101405 -151.282082 
L 72.822066 -139.824072 
L 69.542727 -118.269329 
z
" style="stroke: #c44e52; stroke-opacity: 0.2"/>
    </defs>
    <g clip-path="url(#pbb582a4b23)">
     <use xlink:href="#mdd13a03005" x="0" y="316.271687" style="fill: #c44e52; fill-opacity: 0.2; stroke: #c44e52; stroke-opacity: 0.2"/>
    </g>
   </g>
   <g id="PolyCollection_5">
    <defs>
     <path id="m4df89434fb" d="M 69.542727 -97.075392 
L 69.542727 -55.360881 
L 72.822066 -76.760464 
L 76.101405 -83.241453 
L 79.380744 -104.190913 
L 82.660083 -114.596202 
L 85.939421 -116.731206 
L 89.21876 -128.885462 
L 92.498099 -122.431053 
L 95.777438 -126.663678 
L 99.056777 -125.974023 
L 102.336116 -139.297004 
L 105.615455 -143.682267 
L 108.894793 -140.125756 
L 112.174132 -144.524886 
L 115.453471 -153.716677 
L 118.73281 -155.272266 
L 122.012149 -155.60384 
L 125.291488 -156.616829 
L 128.570826 -157.521919 
L 131.850165 -167.795535 
L 135.129504 -167.622901 
L 138.408843 -168.663578 
L 141.688182 -170.525166 
L 144.967521 -171.621855 
L 148.24686 -171.073912 
L 151.526198 -169.831673 
L 154.805537 -172.523715 
L 158.084876 -178.810475 
L 161.364215 -181.497475 
L 164.643554 -180.62985 
L 167.922893 -184.247692 
L 171.202231 -183.952043 
L 174.48157 -192.970783 
L 177.760909 -194.392149 
L 181.040248 -195.397852 
L 184.319587 -198.955789 
L 187.598926 -201.099605 
L 190.878264 -201.680279 
L 194.157603 -198.748957 
L 197.436942 -202.20106 
L 200.716281 -199.570249 
L 203.99562 -202.945054 
L 207.274959 -201.462879 
L 210.554298 -204.205457 
L 213.833636 -202.352211 
L 217.112975 -206.077761 
L 220.392314 -207.828367 
L 223.671653 -208.058774 
L 226.950992 -211.104294 
L 230.230331 -211.904996 
L 233.509669 -209.432215 
L 236.789008 -212.044237 
L 240.068347 -209.601163 
L 243.347686 -214.040331 
L 246.627025 -212.689032 
L 249.906364 -218.892659 
L 253.185702 -219.438149 
L 256.465041 -223.364363 
L 259.74438 -221.805031 
L 263.023719 -223.100101 
L 266.303058 -224.364529 
L 269.582397 -225.39657 
L 272.861736 -223.025249 
L 276.141074 -222.942264 
L 279.420413 -223.875519 
L 282.699752 -225.05273 
L 285.979091 -225.592465 
L 289.25843 -226.01547 
L 292.537769 -228.667541 
L 295.817107 -164.995659 
L 299.096446 -161.963797 
L 302.375785 -167.757726 
L 305.655124 -167.457067 
L 308.934463 -163.905639 
L 312.213802 -162.562963 
L 315.49314 -160.211682 
L 318.772479 -162.946579 
L 322.051818 -166.705974 
L 325.331157 -167.488892 
L 328.610496 -159.71738 
L 331.889835 -160.741545 
L 335.169174 -168.112798 
L 338.448512 -166.052118 
L 341.727851 -168.244558 
L 345.00719 -173.00248 
L 348.286529 -172.481264 
L 351.565868 -164.29139 
L 354.845207 -172.057992 
L 358.124545 -163.736972 
L 361.403884 -161.512858 
L 364.683223 -170.010044 
L 367.962562 -167.172437 
L 371.241901 -173.254276 
L 374.52124 -169.471449 
L 377.800579 -168.153348 
L 381.079917 -172.302496 
L 384.359256 -166.073931 
L 387.638595 -175.555253 
L 390.917934 -171.291406 
L 394.197273 -169.44461 
L 394.197273 -227.245319 
L 394.197273 -227.245319 
L 390.917934 -229.823736 
L 387.638595 -232.459546 
L 384.359256 -226.056608 
L 381.079917 -231.102257 
L 377.800579 -227.259992 
L 374.52124 -227.289831 
L 371.241901 -230.25061 
L 367.962562 -223.439062 
L 364.683223 -223.469543 
L 361.403884 -222.042757 
L 358.124545 -220.835768 
L 354.845207 -227.860911 
L 351.565868 -221.8054 
L 348.286529 -225.91796 
L 345.00719 -224.661846 
L 341.727851 -222.642952 
L 338.448512 -223.200972 
L 335.169174 -225.32957 
L 331.889835 -220.011846 
L 328.610496 -217.261045 
L 325.331157 -224.158663 
L 322.051818 -222.81175 
L 318.772479 -221.619521 
L 315.49314 -218.209223 
L 312.213802 -219.78366 
L 308.934463 -221.999074 
L 305.655124 -223.926317 
L 302.375785 -222.671789 
L 299.096446 -218.705663 
L 295.817107 -223.121402 
L 292.537769 -268.229139 
L 289.25843 -267.481813 
L 285.979091 -267.549753 
L 282.699752 -266.140749 
L 279.420413 -264.015945 
L 276.141074 -264.365881 
L 272.861736 -261.148404 
L 269.582397 -263.324037 
L 266.303058 -265.909875 
L 263.023719 -262.000008 
L 259.74438 -262.256666 
L 256.465041 -260.591215 
L 253.185702 -259.780674 
L 249.906364 -259.789393 
L 246.627025 -257.96722 
L 243.347686 -255.120072 
L 240.068347 -255.630334 
L 236.789008 -255.932918 
L 233.509669 -254.777542 
L 230.230331 -257.616415 
L 226.950992 -256.408392 
L 223.671653 -254.008131 
L 220.392314 -253.19306 
L 217.112975 -253.388911 
L 213.833636 -248.276801 
L 210.554298 -250.079284 
L 207.274959 -249.407509 
L 203.99562 -252.16043 
L 200.716281 -249.512643 
L 197.436942 -250.312817 
L 194.157603 -249.809087 
L 190.878264 -250.460486 
L 187.598926 -246.998008 
L 184.319587 -246.055609 
L 181.040248 -242.953077 
L 177.760909 -241.119659 
L 174.48157 -239.258673 
L 171.202231 -236.095368 
L 167.922893 -234.036083 
L 164.643554 -230.431207 
L 161.364215 -229.055768 
L 158.084876 -223.992659 
L 154.805537 -222.229695 
L 151.526198 -220.347766 
L 148.24686 -219.430673 
L 144.967521 -219.68231 
L 141.688182 -217.307711 
L 138.408843 -214.181965 
L 135.129504 -214.697297 
L 131.850165 -214.733291 
L 128.570826 -204.742249 
L 125.291488 -200.685344 
L 122.012149 -198.584234 
L 118.73281 -199.13474 
L 115.453471 -198.454024 
L 112.174132 -193.738586 
L 108.894793 -190.555208 
L 105.615455 -190.702078 
L 102.336116 -187.232952 
L 99.056777 -177.790223 
L 95.777438 -172.301385 
L 92.498099 -171.232053 
L 89.21876 -176.59624 
L 85.939421 -167.004588 
L 82.660083 -163.814336 
L 79.380744 -157.772982 
L 76.101405 -135.016654 
L 72.822066 -127.548512 
L 69.542727 -97.075392 
z
" style="stroke: #8172b3; stroke-opacity: 0.2"/>
    </defs>
    <g clip-path="url(#pbb582a4b23)">
     <use xlink:href="#m4df89434fb" x="0" y="316.271687" style="fill: #8172b3; fill-opacity: 0.2; stroke: #8172b3; stroke-opacity: 0.2"/>
    </g>
   </g>
   <g id="line2d_12">
    <path d="M 69.542727 216.837408 
L 72.822066 188.432359 
L 76.101405 144.119038 
L 79.380744 102.472196 
L 82.660083 84.685103 
L 85.939421 80.323879 
L 89.21876 78.048105 
L 92.498099 54.621137 
L 95.777438 48.080623 
L 99.056777 43.792461 
L 102.336116 43.226052 
L 105.615455 35.508685 
L 108.894793 33.666225 
L 112.174132 33.333583 
L 115.453471 32.495509 
L 118.73281 32.439268 
L 122.012149 30.574188 
L 125.291488 26.717647 
L 128.570826 28.085881 
L 131.850165 30.60066 
L 135.129504 28.678305 
L 138.408843 24.8473 
L 141.688182 27.869924 
L 144.967521 24.918781 
L 148.24686 28.096558 
L 151.526198 28.153233 
L 154.805537 26.662942 
L 158.084876 29.407742 
L 161.364215 26.43224 
L 164.643554 30.958343 
L 167.922893 26.932682 
L 171.202231 25.91873 
L 174.48157 24.925105 
L 177.760909 24.667555 
L 181.040248 24.030879 
L 184.319587 24.790812 
L 187.598926 23.472974 
L 190.878264 22.331314 
L 194.157603 26.377213 
L 197.436942 24.170732 
L 200.716281 23.019002 
L 203.99562 23.516005 
L 207.274959 22.378257 
L 210.554298 23.076554 
L 213.833636 23.155063 
L 217.112975 23.35276 
L 220.392314 22.934888 
L 223.671653 23.1554 
L 226.950992 23.435121 
L 230.230331 22.233436 
L 233.509669 22.869034 
L 236.789008 21.488781 
L 240.068347 23.139785 
L 243.347686 21.96016 
L 246.627025 22.286897 
L 249.906364 21.775133 
L 253.185702 22.536407 
L 256.465041 22.480173 
L 259.74438 21.41031 
L 263.023719 22.948157 
L 266.303058 23.083859 
L 269.582397 21.476868 
L 272.861736 22.504368 
L 276.141074 21.453146 
L 279.420413 21.868426 
L 282.699752 21.417885 
L 285.979091 22.459149 
L 289.25843 21.664022 
L 292.537769 21.73656 
L 295.817107 27.892176 
L 299.096446 35.117686 
L 302.375785 33.153118 
L 305.655124 29.941051 
L 308.934463 31.660118 
L 312.213802 24.722331 
L 315.49314 25.242194 
L 318.772479 26.698836 
L 322.051818 25.466053 
L 325.331157 28.287309 
L 328.610496 25.859435 
L 331.889835 26.075264 
L 335.169174 30.062692 
L 338.448512 26.232959 
L 341.727851 25.701121 
L 345.00719 26.811135 
L 348.286529 28.526217 
L 351.565868 25.408946 
L 354.845207 26.228653 
L 358.124545 23.592606 
L 361.403884 29.588061 
L 364.683223 28.309411 
L 367.962562 24.644003 
L 371.241901 24.307162 
L 374.52124 25.629958 
L 377.800579 33.360566 
L 381.079917 28.305562 
L 384.359256 24.188573 
L 387.638595 22.20162 
L 390.917934 25.389828 
L 394.197273 22.905896 
" clip-path="url(#pbb582a4b23)" style="fill: none; stroke: #4c72b0; stroke-width: 1.5; stroke-linecap: round"/>
   </g>
   <g id="line2d_13">
    <path d="M 69.542727 234.728194 
L 72.822066 245.89705 
L 76.101405 201.261727 
L 79.380744 149.897589 
L 82.660083 137.994426 
L 85.939421 136.293775 
L 89.21876 167.979725 
L 92.498099 134.603786 
L 95.777438 101.501371 
L 99.056777 92.531564 
L 102.336116 103.219061 
L 105.615455 74.963695 
L 108.894793 67.269038 
L 112.174132 69.934774 
L 115.453471 90.33794 
L 118.73281 79.122944 
L 122.012149 74.14391 
L 125.291488 75.021966 
L 128.570826 89.373912 
L 131.850165 71.784524 
L 135.129504 87.790111 
L 138.408843 53.080135 
L 141.688182 81.719102 
L 144.967521 49.79375 
L 148.24686 68.369255 
L 151.526198 94.497968 
L 154.805537 82.09162 
L 158.084876 80.115632 
L 161.364215 64.367107 
L 164.643554 74.657405 
L 167.922893 59.792151 
L 171.202231 61.708714 
L 174.48157 67.033473 
L 177.760909 47.630877 
L 181.040248 50.337501 
L 184.319587 61.450138 
L 187.598926 62.410046 
L 190.878264 52.766855 
L 194.157603 77.668873 
L 197.436942 49.735089 
L 200.716281 58.684494 
L 203.99562 50.72197 
L 207.274959 38.250247 
L 210.554298 51.511702 
L 213.833636 46.669696 
L 217.112975 75.429221 
L 220.392314 66.866249 
L 223.671653 65.388021 
L 226.950992 54.911168 
L 230.230331 42.643084 
L 233.509669 59.229788 
L 236.789008 36.248072 
L 240.068347 44.572152 
L 243.347686 38.350471 
L 246.627025 46.967826 
L 249.906364 32.840176 
L 253.185702 35.522644 
L 256.465041 66.84383 
L 259.74438 36.38782 
L 263.023719 59.16885 
L 266.303058 77.976331 
L 269.582397 37.114762 
L 272.861736 42.353166 
L 276.141074 40.393729 
L 279.420413 35.745546 
L 282.699752 43.416938 
L 285.979091 66.548982 
L 289.25843 63.081639 
L 292.537769 57.125696 
L 295.817107 41.06248 
L 299.096446 66.036638 
L 302.375785 56.37536 
L 305.655124 49.036622 
L 308.934463 59.684243 
L 312.213802 37.197852 
L 315.49314 41.108667 
L 318.772479 42.736965 
L 322.051818 32.430937 
L 325.331157 40.38552 
L 328.610496 34.187857 
L 331.889835 35.114518 
L 335.169174 52.149046 
L 338.448512 46.81479 
L 341.727851 45.778855 
L 345.00719 47.402234 
L 348.286529 46.141506 
L 351.565868 38.129863 
L 354.845207 41.555793 
L 358.124545 32.636218 
L 361.403884 48.594651 
L 364.683223 39.385755 
L 367.962562 34.906939 
L 371.241901 32.574926 
L 374.52124 34.555055 
L 377.800579 60.758099 
L 381.079917 49.319933 
L 384.359256 33.993091 
L 387.638595 28.415879 
L 390.917934 40.841316 
L 394.197273 34.110074 
" clip-path="url(#pbb582a4b23)" style="fill: none; stroke: #dd8452; stroke-width: 1.5; stroke-linecap: round"/>
   </g>
   <g id="line2d_14">
    <path d="M 69.542727 229.657298 
L 72.822066 194.191886 
L 76.101405 183.696975 
L 79.380744 164.875197 
L 82.660083 148.856678 
L 85.939421 130.881531 
L 89.21876 125.07498 
L 92.498099 115.059682 
L 95.777438 113.046238 
L 99.056777 99.112793 
L 102.336116 92.376223 
L 105.615455 81.219011 
L 108.894793 75.88434 
L 112.174132 69.46703 
L 115.453471 61.718822 
L 118.73281 61.987123 
L 122.012149 59.401088 
L 125.291488 54.101903 
L 128.570826 52.270967 
L 131.850165 50.16459 
L 135.129504 52.128777 
L 138.408843 45.88727 
L 141.688182 44.639145 
L 144.967521 44.422881 
L 148.24686 44.433378 
L 151.526198 45.584434 
L 154.805537 44.48636 
L 158.084876 44.524468 
L 161.364215 44.878135 
L 164.643554 44.070938 
L 167.922893 42.520899 
L 171.202231 42.155042 
L 174.48157 41.59091 
L 177.760909 42.231655 
L 181.040248 41.826348 
L 184.319587 41.118064 
L 187.598926 41.78848 
L 190.878264 42.153453 
L 194.157603 41.561921 
L 197.436942 40.635236 
L 200.716281 40.58756 
L 203.99562 42.15726 
L 207.274959 41.400144 
L 210.554298 38.41846 
L 213.833636 40.156201 
L 217.112975 39.813736 
L 220.392314 39.796008 
L 223.671653 39.249934 
L 226.950992 36.07639 
L 230.230331 35.305398 
L 233.509669 35.485465 
L 236.789008 34.975214 
L 240.068347 34.410933 
L 243.347686 34.688832 
L 246.627025 35.164586 
L 249.906364 32.780759 
L 253.185702 32.458269 
L 256.465041 31.935498 
L 259.74438 31.26162 
L 263.023719 30.677933 
L 266.303058 30.496712 
L 269.582397 30.977891 
L 272.861736 31.009069 
L 276.141074 31.057914 
L 279.420413 31.415357 
L 282.699752 31.465604 
L 285.979091 32.195408 
L 289.25843 30.936846 
L 292.537769 30.822858 
L 295.817107 100.838071 
L 299.096446 100.448298 
L 302.375785 94.320251 
L 305.655124 92.552017 
L 308.934463 89.099627 
L 312.213802 96.195156 
L 315.49314 94.02527 
L 318.772479 98.386096 
L 322.051818 98.845705 
L 325.331157 99.165683 
L 328.610496 91.433973 
L 331.889835 97.466458 
L 335.169174 98.982467 
L 338.448512 96.178126 
L 341.727851 94.188613 
L 345.00719 95.345428 
L 348.286529 96.256213 
L 351.565868 88.984086 
L 354.845207 93.729775 
L 358.124545 93.855659 
L 361.403884 90.640681 
L 364.683223 97.940407 
L 367.962562 94.843198 
L 371.241901 98.884061 
L 374.52124 93.132308 
L 377.800579 92.740526 
L 381.079917 96.974513 
L 384.359256 96.391559 
L 387.638595 91.842618 
L 390.917934 92.067904 
L 394.197273 96.843127 
" clip-path="url(#pbb582a4b23)" style="fill: none; stroke: #55a868; stroke-width: 1.5; stroke-linecap: round"/>
   </g>
   <g id="line2d_15">
    <path d="M 69.542727 227.518477 
L 72.822066 207.145874 
L 76.101405 192.770341 
L 79.380744 182.844387 
L 82.660083 162.375239 
L 85.939421 167.94851 
L 89.21876 141.853552 
L 92.498099 132.942472 
L 95.777438 132.302312 
L 99.056777 124.844899 
L 102.336116 126.7843 
L 105.615455 118.27323 
L 108.894793 93.339622 
L 112.174132 89.978789 
L 115.453471 89.826573 
L 118.73281 89.416149 
L 122.012149 79.205911 
L 125.291488 71.265829 
L 128.570826 70.0447 
L 131.850165 65.625474 
L 135.129504 60.507554 
L 138.408843 56.570504 
L 141.688182 56.657053 
L 144.967521 56.007968 
L 148.24686 54.010686 
L 151.526198 51.647246 
L 154.805537 47.937114 
L 158.084876 46.529686 
L 161.364215 44.782557 
L 164.643554 43.034716 
L 167.922893 40.994995 
L 171.202231 39.384257 
L 174.48157 38.699267 
L 177.760909 38.937583 
L 181.040248 37.126878 
L 184.319587 37.0677 
L 187.598926 36.330253 
L 190.878264 35.891543 
L 194.157603 34.277674 
L 197.436942 33.915757 
L 200.716281 33.882677 
L 203.99562 33.232251 
L 207.274959 32.804331 
L 210.554298 33.054875 
L 213.833636 31.950342 
L 217.112975 30.583531 
L 220.392314 30.433039 
L 223.671653 30.401637 
L 226.950992 30.193615 
L 230.230331 29.470307 
L 233.509669 29.476451 
L 236.789008 28.925904 
L 240.068347 29.45419 
L 243.347686 28.979327 
L 246.627025 28.43464 
L 249.906364 28.846765 
L 253.185702 27.708432 
L 256.465041 27.83234 
L 259.74438 27.432556 
L 263.023719 27.197792 
L 266.303058 27.413599 
L 269.582397 27.079331 
L 272.861736 27.383253 
L 276.141074 27.354601 
L 279.420413 27.022521 
L 282.699752 26.893195 
L 285.979091 27.04383 
L 289.25843 27.105316 
L 292.537769 26.739758 
L 295.817107 92.218287 
L 299.096446 92.383628 
L 302.375785 90.573079 
L 305.655124 96.504409 
L 308.934463 92.171617 
L 312.213802 94.244131 
L 315.49314 89.027949 
L 318.772479 100.512459 
L 322.051818 94.785834 
L 325.331157 89.055118 
L 328.610496 95.106746 
L 331.889835 87.992681 
L 335.169174 95.29697 
L 338.448512 92.196358 
L 341.727851 92.602794 
L 345.00719 94.592993 
L 348.286529 88.429349 
L 351.565868 91.628881 
L 354.845207 91.182111 
L 358.124545 93.774787 
L 361.403884 93.820361 
L 364.683223 93.596155 
L 367.962562 86.990524 
L 371.241901 93.057609 
L 374.52124 94.814482 
L 377.800579 94.235729 
L 381.079917 90.583406 
L 384.359256 90.463711 
L 387.638595 97.987721 
L 390.917934 92.879947 
L 394.197273 92.768901 
" clip-path="url(#pbb582a4b23)" style="fill: none; stroke: #c44e52; stroke-width: 1.5; stroke-linecap: round"/>
   </g>
   <g id="line2d_16">
    <path d="M 69.542727 242.299879 
L 72.822066 215.880258 
L 76.101405 208.461681 
L 79.380744 185.153376 
L 82.660083 177.796569 
L 85.939421 175.00485 
L 89.21876 164.726915 
L 92.498099 169.626218 
L 95.777438 167.396203 
L 99.056777 165.396747 
L 102.336116 153.271168 
L 105.615455 149.728822 
L 108.894793 151.223579 
L 112.174132 147.855942 
L 115.453471 141.299393 
L 118.73281 139.231656 
L 122.012149 139.749909 
L 125.291488 136.2761 
L 128.570826 133.955534 
L 131.850165 124.832978 
L 135.129504 125.203841 
L 138.408843 123.834887 
L 141.688182 121.421411 
L 144.967521 120.308958 
L 148.24686 119.744677 
L 151.526198 119.251937 
L 154.805537 118.500846 
L 158.084876 114.855114 
L 161.364215 110.848853 
L 164.643554 110.473854 
L 167.922893 106.605213 
L 171.202231 104.49159 
L 174.48157 101.327606 
L 177.760909 97.584851 
L 181.040248 96.947013 
L 184.319587 94.387712 
L 187.598926 91.207357 
L 190.878264 90.442862 
L 194.157603 90.210608 
L 197.436942 89.675166 
L 200.716281 89.760277 
L 203.99562 89.477544 
L 207.274959 89.657296 
L 210.554298 89.095682 
L 213.833636 89.214953 
L 217.112975 85.308405 
L 220.392314 84.429667 
L 223.671653 83.659791 
L 226.950992 82.103803 
L 230.230331 81.151359 
L 233.509669 83.441744 
L 236.789008 82.686839 
L 240.068347 82.538415 
L 243.347686 80.428778 
L 246.627025 80.085953 
L 249.906364 76.628852 
L 253.185702 75.832895 
L 256.465041 73.486403 
L 259.74438 73.447906 
L 263.023719 73.060986 
L 266.303058 70.985112 
L 269.582397 70.473415 
L 272.861736 73.758346 
L 276.141074 71.590004 
L 279.420413 71.786704 
L 282.699752 69.544992 
L 285.979091 68.586313 
L 289.25843 68.561939 
L 292.537769 67.636117 
L 295.817107 121.574392 
L 299.096446 124.359363 
L 302.375785 120.475969 
L 305.655124 120.275906 
L 308.934463 124.093854 
L 312.213802 124.978052 
L 315.49314 126.53912 
L 318.772479 123.025941 
L 322.051818 120.52342 
L 325.331157 119.374426 
L 328.610496 127.060751 
L 331.889835 125.059653 
L 335.169174 118.346448 
L 338.448512 121.616393 
L 341.727851 120.017031 
L 345.00719 116.495475 
L 348.286529 116.628896 
L 351.565868 123.616658 
L 354.845207 115.455639 
L 358.124545 121.645608 
L 361.403884 124.906532 
L 364.683223 118.596333 
L 367.962562 119.419648 
L 371.241901 114.988519 
L 374.52124 117.29684 
L 377.800579 118.20516 
L 381.079917 114.537417 
L 384.359256 119.191781 
L 387.638595 113.130754 
L 390.917934 115.368678 
L 394.197273 115.971484 
" clip-path="url(#pbb582a4b23)" style="fill: none; stroke: #8172b3; stroke-width: 1.5; stroke-linecap: round"/>
   </g>
   <g id="line2d_17"/>
   <g id="line2d_18"/>
   <g id="line2d_19"/>
   <g id="line2d_20"/>
   <g id="line2d_21"/>
   <g id="patch_3">
    <path d="M 53.31 273.312 
L 53.31 7.2 
" style="fill: none; stroke: #cccccc; stroke-width: 1.25; stroke-linejoin: miter; stroke-linecap: square"/>
   </g>
   <g id="patch_4">
    <path d="M 410.43 273.312 
L 410.43 7.2 
" style="fill: none; stroke: #cccccc; stroke-width: 1.25; stroke-linejoin: miter; stroke-linecap: square"/>
   </g>
   <g id="patch_5">
    <path d="M 53.31 273.312 
L 410.43 273.312 
" style="fill: none; stroke: #cccccc; stroke-width: 1.25; stroke-linejoin: miter; stroke-linecap: square"/>
   </g>
   <g id="patch_6">
    <path d="M 53.31 7.2 
L 410.43 7.2 
" style="fill: none; stroke: #cccccc; stroke-width: 1.25; stroke-linejoin: miter; stroke-linecap: square"/>
   </g>
   <g id="legend_1">
    <g id="patch_7">
     <path d="M 298.745625 267.812 
L 402.73 267.812 
Q 404.93 267.812 404.93 265.612 
L 404.93 168.868562 
Q 404.93 166.668562 402.73 166.668562 
L 298.745625 166.668562 
Q 296.545625 166.668562 296.545625 168.868562 
L 296.545625 265.612 
Q 296.545625 267.812 298.745625 267.812 
z
" style="fill: #ffffff; opacity: 0.8; stroke: #cccccc; stroke-linejoin: miter"/>
    </g>
    <g id="text_14">
     <!-- Strategy -->
     <g style="fill: #262626" transform="translate(325.02875 180.186687) scale(0.12 -0.12)">
      <defs>
       <path id="DejaVuSans-53" d="M 3425 4513 
L 3425 3897 
Q 3066 4069 2747 4153 
Q 2428 4238 2131 4238 
Q 1616 4238 1336 4038 
Q 1056 3838 1056 3469 
Q 1056 3159 1242 3001 
Q 1428 2844 1947 2747 
L 2328 2669 
Q 3034 2534 3370 2195 
Q 3706 1856 3706 1288 
Q 3706 609 3251 259 
Q 2797 -91 1919 -91 
Q 1588 -91 1214 -16 
Q 841 59 441 206 
L 441 856 
Q 825 641 1194 531 
Q 1563 422 1919 422 
Q 2459 422 2753 634 
Q 3047 847 3047 1241 
Q 3047 1584 2836 1778 
Q 2625 1972 2144 2069 
L 1759 2144 
Q 1053 2284 737 2584 
Q 422 2884 422 3419 
Q 422 4038 858 4394 
Q 1294 4750 2059 4750 
Q 2388 4750 2728 4690 
Q 3069 4631 3425 4513 
z
" transform="scale(0.015625)"/>
       <path id="DejaVuSans-74" d="M 1172 4494 
L 1172 3500 
L 2356 3500 
L 2356 3053 
L 1172 3053 
L 1172 1153 
Q 1172 725 1289 603 
Q 1406 481 1766 481 
L 2356 481 
L 2356 0 
L 1766 0 
Q 1100 0 847 248 
Q 594 497 594 1153 
L 594 3053 
L 172 3053 
L 172 3500 
L 594 3500 
L 594 4494 
L 1172 4494 
z
" transform="scale(0.015625)"/>
       <path id="DejaVuSans-65" d="M 3597 1894 
L 3597 1613 
L 953 1613 
Q 991 1019 1311 708 
Q 1631 397 2203 397 
Q 2534 397 2845 478 
Q 3156 559 3463 722 
L 3463 178 
Q 3153 47 2828 -22 
Q 2503 -91 2169 -91 
Q 1331 -91 842 396 
Q 353 884 353 1716 
Q 353 2575 817 3079 
Q 1281 3584 2069 3584 
Q 2775 3584 3186 3129 
Q 3597 2675 3597 1894 
z
M 3022 2063 
Q 3016 2534 2758 2815 
Q 2500 3097 2075 3097 
Q 1594 3097 1305 2825 
Q 1016 2553 972 2059 
L 3022 2063 
z
" transform="scale(0.015625)"/>
       <path id="DejaVuSans-67" d="M 2906 1791 
Q 2906 2416 2648 2759 
Q 2391 3103 1925 3103 
Q 1463 3103 1205 2759 
Q 947 2416 947 1791 
Q 947 1169 1205 825 
Q 1463 481 1925 481 
Q 2391 481 2648 825 
Q 2906 1169 2906 1791 
z
M 3481 434 
Q 3481 -459 3084 -895 
Q 2688 -1331 1869 -1331 
Q 1566 -1331 1297 -1286 
Q 1028 -1241 775 -1147 
L 775 -588 
Q 1028 -725 1275 -790 
Q 1522 -856 1778 -856 
Q 2344 -856 2625 -561 
Q 2906 -266 2906 331 
L 2906 616 
Q 2728 306 2450 153 
Q 2172 0 1784 0 
Q 1141 0 747 490 
Q 353 981 353 1791 
Q 353 2603 747 3093 
Q 1141 3584 1784 3584 
Q 2172 3584 2450 3431 
Q 2728 3278 2906 2969 
L 2906 3500 
L 3481 3500 
L 3481 434 
z
" transform="scale(0.015625)"/>
      </defs>
      <use xlink:href="#DejaVuSans-53"/>
      <use xlink:href="#DejaVuSans-74" x="63.476562"/>
      <use xlink:href="#DejaVuSans-72" x="102.685547"/>
      <use xlink:href="#DejaVuSans-61" x="143.798828"/>
      <use xlink:href="#DejaVuSans-74" x="205.078125"/>
      <use xlink:href="#DejaVuSans-65" x="244.287109"/>
      <use xlink:href="#DejaVuSans-67" x="305.810547"/>
      <use xlink:href="#DejaVuSans-79" x="369.287109"/>
     </g>
    </g>
    <g id="line2d_22">
     <path d="M 300.945625 192.690594 
L 311.945625 192.690594 
L 322.945625 192.690594 
" style="fill: none; stroke: #4c72b0; stroke-width: 1.5; stroke-linecap: round"/>
    </g>
    <g id="text_15">
     <!-- FedPredict -->
     <g style="fill: #262626" transform="translate(331.745625 196.540594) scale(0.11 -0.11)">
      <defs>
       <path id="DejaVuSans-46" d="M 628 4666 
L 3309 4666 
L 3309 4134 
L 1259 4134 
L 1259 2759 
L 3109 2759 
L 3109 2228 
L 1259 2228 
L 1259 0 
L 628 0 
L 628 4666 
z
" transform="scale(0.015625)"/>
       <path id="DejaVuSans-50" d="M 1259 4147 
L 1259 2394 
L 2053 2394 
Q 2494 2394 2734 2622 
Q 2975 2850 2975 3272 
Q 2975 3691 2734 3919 
Q 2494 4147 2053 4147 
L 1259 4147 
z
M 628 4666 
L 2053 4666 
Q 2838 4666 3239 4311 
Q 3641 3956 3641 3272 
Q 3641 2581 3239 2228 
Q 2838 1875 2053 1875 
L 1259 1875 
L 1259 0 
L 628 0 
L 628 4666 
z
" transform="scale(0.015625)"/>
       <path id="DejaVuSans-69" d="M 603 3500 
L 1178 3500 
L 1178 0 
L 603 0 
L 603 3500 
z
M 603 4863 
L 1178 4863 
L 1178 4134 
L 603 4134 
L 603 4863 
z
" transform="scale(0.015625)"/>
      </defs>
      <use xlink:href="#DejaVuSans-46"/>
      <use xlink:href="#DejaVuSans-65" x="52.019531"/>
      <use xlink:href="#DejaVuSans-64" x="113.542969"/>
      <use xlink:href="#DejaVuSans-50" x="177.019531"/>
      <use xlink:href="#DejaVuSans-72" x="235.572266"/>
      <use xlink:href="#DejaVuSans-65" x="274.435547"/>
      <use xlink:href="#DejaVuSans-64" x="335.958984"/>
      <use xlink:href="#DejaVuSans-69" x="399.435547"/>
      <use xlink:href="#DejaVuSans-63" x="427.21875"/>
      <use xlink:href="#DejaVuSans-74" x="482.199219"/>
     </g>
    </g>
    <g id="line2d_23">
     <path d="M 300.945625 208.836531 
L 311.945625 208.836531 
L 322.945625 208.836531 
" style="fill: none; stroke: #dd8452; stroke-width: 1.5; stroke-linecap: round"/>
    </g>
    <g id="text_16">
     <!-- FedAVG -->
     <g style="fill: #262626" transform="translate(331.745625 212.686531) scale(0.11 -0.11)">
      <defs>
       <path id="DejaVuSans-56" d="M 1831 0 
L 50 4666 
L 709 4666 
L 2188 738 
L 3669 4666 
L 4325 4666 
L 2547 0 
L 1831 0 
z
" transform="scale(0.015625)"/>
       <path id="DejaVuSans-47" d="M 3809 666 
L 3809 1919 
L 2778 1919 
L 2778 2438 
L 4434 2438 
L 4434 434 
Q 4069 175 3628 42 
Q 3188 -91 2688 -91 
Q 1594 -91 976 548 
Q 359 1188 359 2328 
Q 359 3472 976 4111 
Q 1594 4750 2688 4750 
Q 3144 4750 3555 4637 
Q 3966 4525 4313 4306 
L 4313 3634 
Q 3963 3931 3569 4081 
Q 3175 4231 2741 4231 
Q 1884 4231 1454 3753 
Q 1025 3275 1025 2328 
Q 1025 1384 1454 906 
Q 1884 428 2741 428 
Q 3075 428 3337 486 
Q 3600 544 3809 666 
z
" transform="scale(0.015625)"/>
      </defs>
      <use xlink:href="#DejaVuSans-46"/>
      <use xlink:href="#DejaVuSans-65" x="52.019531"/>
      <use xlink:href="#DejaVuSans-64" x="113.542969"/>
      <use xlink:href="#DejaVuSans-41" x="177.019531"/>
      <use xlink:href="#DejaVuSans-56" x="239.052734"/>
      <use xlink:href="#DejaVuSans-47" x="307.460938"/>
     </g>
    </g>
    <g id="line2d_24">
     <path d="M 300.945625 224.982469 
L 311.945625 224.982469 
L 322.945625 224.982469 
" style="fill: none; stroke: #55a868; stroke-width: 1.5; stroke-linecap: round"/>
    </g>
    <g id="text_17">
     <!-- FedClassAvg -->
     <g style="fill: #262626" transform="translate(331.745625 228.832469) scale(0.11 -0.11)">
      <defs>
       <path id="DejaVuSans-43" d="M 4122 4306 
L 4122 3641 
Q 3803 3938 3442 4084 
Q 3081 4231 2675 4231 
Q 1875 4231 1450 3742 
Q 1025 3253 1025 2328 
Q 1025 1406 1450 917 
Q 1875 428 2675 428 
Q 3081 428 3442 575 
Q 3803 722 4122 1019 
L 4122 359 
Q 3791 134 3420 21 
Q 3050 -91 2638 -91 
Q 1578 -91 968 557 
Q 359 1206 359 2328 
Q 359 3453 968 4101 
Q 1578 4750 2638 4750 
Q 3056 4750 3426 4639 
Q 3797 4528 4122 4306 
z
" transform="scale(0.015625)"/>
       <path id="DejaVuSans-6c" d="M 603 4863 
L 1178 4863 
L 1178 0 
L 603 0 
L 603 4863 
z
" transform="scale(0.015625)"/>
       <path id="DejaVuSans-73" d="M 2834 3397 
L 2834 2853 
Q 2591 2978 2328 3040 
Q 2066 3103 1784 3103 
Q 1356 3103 1142 2972 
Q 928 2841 928 2578 
Q 928 2378 1081 2264 
Q 1234 2150 1697 2047 
L 1894 2003 
Q 2506 1872 2764 1633 
Q 3022 1394 3022 966 
Q 3022 478 2636 193 
Q 2250 -91 1575 -91 
Q 1294 -91 989 -36 
Q 684 19 347 128 
L 347 722 
Q 666 556 975 473 
Q 1284 391 1588 391 
Q 1994 391 2212 530 
Q 2431 669 2431 922 
Q 2431 1156 2273 1281 
Q 2116 1406 1581 1522 
L 1381 1569 
Q 847 1681 609 1914 
Q 372 2147 372 2553 
Q 372 3047 722 3315 
Q 1072 3584 1716 3584 
Q 2034 3584 2315 3537 
Q 2597 3491 2834 3397 
z
" transform="scale(0.015625)"/>
       <path id="DejaVuSans-76" d="M 191 3500 
L 800 3500 
L 1894 563 
L 2988 3500 
L 3597 3500 
L 2284 0 
L 1503 0 
L 191 3500 
z
" transform="scale(0.015625)"/>
      </defs>
      <use xlink:href="#DejaVuSans-46"/>
      <use xlink:href="#DejaVuSans-65" x="52.019531"/>
      <use xlink:href="#DejaVuSans-64" x="113.542969"/>
      <use xlink:href="#DejaVuSans-43" x="177.019531"/>
      <use xlink:href="#DejaVuSans-6c" x="246.84375"/>
      <use xlink:href="#DejaVuSans-61" x="274.626953"/>
      <use xlink:href="#DejaVuSans-73" x="335.90625"/>
      <use xlink:href="#DejaVuSans-73" x="388.005859"/>
      <use xlink:href="#DejaVuSans-41" x="440.105469"/>
      <use xlink:href="#DejaVuSans-76" x="502.638672"/>
      <use xlink:href="#DejaVuSans-67" x="561.818359"/>
     </g>
    </g>
    <g id="line2d_25">
     <path d="M 300.945625 241.128406 
L 311.945625 241.128406 
L 322.945625 241.128406 
" style="fill: none; stroke: #c44e52; stroke-width: 1.5; stroke-linecap: round"/>
    </g>
    <g id="text_18">
     <!-- FedPer -->
     <g style="fill: #262626" transform="translate(331.745625 244.978406) scale(0.11 -0.11)">
      <use xlink:href="#DejaVuSans-46"/>
      <use xlink:href="#DejaVuSans-65" x="52.019531"/>
      <use xlink:href="#DejaVuSans-64" x="113.542969"/>
      <use xlink:href="#DejaVuSans-50" x="177.019531"/>
      <use xlink:href="#DejaVuSans-65" x="233.697266"/>
      <use xlink:href="#DejaVuSans-72" x="295.220703"/>
     </g>
    </g>
    <g id="line2d_26">
     <path d="M 300.945625 257.274344 
L 311.945625 257.274344 
L 322.945625 257.274344 
" style="fill: none; stroke: #8172b3; stroke-width: 1.5; stroke-linecap: round"/>
    </g>
    <g id="text_19">
     <!-- FedProto -->
     <g style="fill: #262626" transform="translate(331.745625 261.124344) scale(0.11 -0.11)">
      <use xlink:href="#DejaVuSans-46"/>
      <use xlink:href="#DejaVuSans-65" x="52.019531"/>
      <use xlink:href="#DejaVuSans-64" x="113.542969"/>
      <use xlink:href="#DejaVuSans-50" x="177.019531"/>
      <use xlink:href="#DejaVuSans-72" x="235.572266"/>
      <use xlink:href="#DejaVuSans-6f" x="274.435547"/>
      <use xlink:href="#DejaVuSans-74" x="335.617188"/>
      <use xlink:href="#DejaVuSans-6f" x="374.826172"/>
     </g>
    </g>
   </g>
  </g>
 </g>
 <defs>
  <clipPath id="pbb582a4b23">
   <rect x="53.31" y="7.2" width="357.12" height="266.112"/>
  </clipPath>
 </defs>
</svg>
