<?xml version="1.0" encoding="utf-8" standalone="no"?>
<!DOCTYPE svg PUBLIC "-//W3C//DTD SVG 1.1//EN"
  "http://www.w3.org/Graphics/SVG/1.1/DTD/svg11.dtd">
<svg xmlns:xlink="http://www.w3.org/1999/xlink" width="410.63125pt" height="316.271687pt" viewBox="0 0 410.63125 316.271687" xmlns="http://www.w3.org/2000/svg" version="1.1">
 <metadata>
  <rdf:RDF xmlns:dc="http://purl.org/dc/elements/1.1/" xmlns:cc="http://creativecommons.org/ns#" xmlns:rdf="http://www.w3.org/1999/02/22-rdf-syntax-ns#">
   <cc:Work>
    <dc:type rdf:resource="http://purl.org/dc/dcmitype/StillImage"/>
    <dc:date>2023-02-10T21:03:36.005339</dc:date>
    <dc:format>image/svg+xml</dc:format>
    <dc:creator>
     <cc:Agent>
      <dc:title>Matplotlib v3.6.3, https://matplotlib.org/</dc:title>
     </cc:Agent>
    </dc:creator>
   </cc:Work>
  </rdf:RDF>
 </metadata>
 <defs>
  <style type="text/css">*{stroke-linejoin: round; stroke-linecap: butt}</style>
 </defs>
 <g id="figure_1">
  <g id="patch_1">
   <path d="M 0 316.271687 
L 410.63125 316.271687 
L 410.63125 0 
L 0 0 
z
" style="fill: #ffffff"/>
  </g>
  <g id="axes_1">
   <g id="patch_2">
    <path d="M 46.31125 273.312 
L 403.43125 273.312 
L 403.43125 7.2 
L 46.31125 7.2 
z
" style="fill: #ffffff"/>
   </g>
   <g id="matplotlib.axis_1">
    <g id="xtick_1">
     <g id="line2d_1">
      <path d="M 59.264638 273.312 
L 59.264638 7.2 
" clip-path="url(#p4de0393057)" style="fill: none; stroke: #cccccc; stroke-linecap: round"/>
     </g>
     <g id="text_1">
      <!-- 0 -->
      <g style="fill: #262626" transform="translate(55.765263 291.170281) scale(0.11 -0.11)">
       <defs>
        <path id="DejaVuSans-30" d="M 2034 4250 
Q 1547 4250 1301 3770 
Q 1056 3291 1056 2328 
Q 1056 1369 1301 889 
Q 1547 409 2034 409 
Q 2525 409 2770 889 
Q 3016 1369 3016 2328 
Q 3016 3291 2770 3770 
Q 2525 4250 2034 4250 
z
M 2034 4750 
Q 2819 4750 3233 4129 
Q 3647 3509 3647 2328 
Q 3647 1150 3233 529 
Q 2819 -91 2034 -91 
Q 1250 -91 836 529 
Q 422 1150 422 2328 
Q 422 3509 836 4129 
Q 1250 4750 2034 4750 
z
" transform="scale(0.015625)"/>
       </defs>
       <use xlink:href="#DejaVuSans-30"/>
      </g>
     </g>
    </g>
    <g id="xtick_2">
     <g id="line2d_2">
      <path d="M 124.851415 273.312 
L 124.851415 7.2 
" clip-path="url(#p4de0393057)" style="fill: none; stroke: #cccccc; stroke-linecap: round"/>
     </g>
     <g id="text_2">
      <!-- 20 -->
      <g style="fill: #262626" transform="translate(117.852665 291.170281) scale(0.11 -0.11)">
       <defs>
        <path id="DejaVuSans-32" d="M 1228 531 
L 3431 531 
L 3431 0 
L 469 0 
L 469 531 
Q 828 903 1448 1529 
Q 2069 2156 2228 2338 
Q 2531 2678 2651 2914 
Q 2772 3150 2772 3378 
Q 2772 3750 2511 3984 
Q 2250 4219 1831 4219 
Q 1534 4219 1204 4116 
Q 875 4013 500 3803 
L 500 4441 
Q 881 4594 1212 4672 
Q 1544 4750 1819 4750 
Q 2544 4750 2975 4387 
Q 3406 4025 3406 3419 
Q 3406 3131 3298 2873 
Q 3191 2616 2906 2266 
Q 2828 2175 2409 1742 
Q 1991 1309 1228 531 
z
" transform="scale(0.015625)"/>
       </defs>
       <use xlink:href="#DejaVuSans-32"/>
       <use xlink:href="#DejaVuSans-30" x="63.623047"/>
      </g>
     </g>
    </g>
    <g id="xtick_3">
     <g id="line2d_3">
      <path d="M 190.438192 273.312 
L 190.438192 7.2 
" clip-path="url(#p4de0393057)" style="fill: none; stroke: #cccccc; stroke-linecap: round"/>
     </g>
     <g id="text_3">
      <!-- 40 -->
      <g style="fill: #262626" transform="translate(183.439442 291.170281) scale(0.11 -0.11)">
       <defs>
        <path id="DejaVuSans-34" d="M 2419 4116 
L 825 1625 
L 2419 1625 
L 2419 4116 
z
M 2253 4666 
L 3047 4666 
L 3047 1625 
L 3713 1625 
L 3713 1100 
L 3047 1100 
L 3047 0 
L 2419 0 
L 2419 1100 
L 313 1100 
L 313 1709 
L 2253 4666 
z
" transform="scale(0.015625)"/>
       </defs>
       <use xlink:href="#DejaVuSans-34"/>
       <use xlink:href="#DejaVuSans-30" x="63.623047"/>
      </g>
     </g>
    </g>
    <g id="xtick_4">
     <g id="line2d_4">
      <path d="M 256.024969 273.312 
L 256.024969 7.2 
" clip-path="url(#p4de0393057)" style="fill: none; stroke: #cccccc; stroke-linecap: round"/>
     </g>
     <g id="text_4">
      <!-- 60 -->
      <g style="fill: #262626" transform="translate(249.026219 291.170281) scale(0.11 -0.11)">
       <defs>
        <path id="DejaVuSans-36" d="M 2113 2584 
Q 1688 2584 1439 2293 
Q 1191 2003 1191 1497 
Q 1191 994 1439 701 
Q 1688 409 2113 409 
Q 2538 409 2786 701 
Q 3034 994 3034 1497 
Q 3034 2003 2786 2293 
Q 2538 2584 2113 2584 
z
M 3366 4563 
L 3366 3988 
Q 3128 4100 2886 4159 
Q 2644 4219 2406 4219 
Q 1781 4219 1451 3797 
Q 1122 3375 1075 2522 
Q 1259 2794 1537 2939 
Q 1816 3084 2150 3084 
Q 2853 3084 3261 2657 
Q 3669 2231 3669 1497 
Q 3669 778 3244 343 
Q 2819 -91 2113 -91 
Q 1303 -91 875 529 
Q 447 1150 447 2328 
Q 447 3434 972 4092 
Q 1497 4750 2381 4750 
Q 2619 4750 2861 4703 
Q 3103 4656 3366 4563 
z
" transform="scale(0.015625)"/>
       </defs>
       <use xlink:href="#DejaVuSans-36"/>
       <use xlink:href="#DejaVuSans-30" x="63.623047"/>
      </g>
     </g>
    </g>
    <g id="xtick_5">
     <g id="line2d_5">
      <path d="M 321.611746 273.312 
L 321.611746 7.2 
" clip-path="url(#p4de0393057)" style="fill: none; stroke: #cccccc; stroke-linecap: round"/>
     </g>
     <g id="text_5">
      <!-- 80 -->
      <g style="fill: #262626" transform="translate(314.612996 291.170281) scale(0.11 -0.11)">
       <defs>
        <path id="DejaVuSans-38" d="M 2034 2216 
Q 1584 2216 1326 1975 
Q 1069 1734 1069 1313 
Q 1069 891 1326 650 
Q 1584 409 2034 409 
Q 2484 409 2743 651 
Q 3003 894 3003 1313 
Q 3003 1734 2745 1975 
Q 2488 2216 2034 2216 
z
M 1403 2484 
Q 997 2584 770 2862 
Q 544 3141 544 3541 
Q 544 4100 942 4425 
Q 1341 4750 2034 4750 
Q 2731 4750 3128 4425 
Q 3525 4100 3525 3541 
Q 3525 3141 3298 2862 
Q 3072 2584 2669 2484 
Q 3125 2378 3379 2068 
Q 3634 1759 3634 1313 
Q 3634 634 3220 271 
Q 2806 -91 2034 -91 
Q 1263 -91 848 271 
Q 434 634 434 1313 
Q 434 1759 690 2068 
Q 947 2378 1403 2484 
z
M 1172 3481 
Q 1172 3119 1398 2916 
Q 1625 2713 2034 2713 
Q 2441 2713 2670 2916 
Q 2900 3119 2900 3481 
Q 2900 3844 2670 4047 
Q 2441 4250 2034 4250 
Q 1625 4250 1398 4047 
Q 1172 3844 1172 3481 
z
" transform="scale(0.015625)"/>
       </defs>
       <use xlink:href="#DejaVuSans-38"/>
       <use xlink:href="#DejaVuSans-30" x="63.623047"/>
      </g>
     </g>
    </g>
    <g id="xtick_6">
     <g id="line2d_6">
      <path d="M 387.198523 273.312 
L 387.198523 7.2 
" clip-path="url(#p4de0393057)" style="fill: none; stroke: #cccccc; stroke-linecap: round"/>
     </g>
     <g id="text_6">
      <!-- 100 -->
      <g style="fill: #262626" transform="translate(376.700398 291.170281) scale(0.11 -0.11)">
       <defs>
        <path id="DejaVuSans-31" d="M 794 531 
L 1825 531 
L 1825 4091 
L 703 3866 
L 703 4441 
L 1819 4666 
L 2450 4666 
L 2450 531 
L 3481 531 
L 3481 0 
L 794 0 
L 794 531 
z
" transform="scale(0.015625)"/>
       </defs>
       <use xlink:href="#DejaVuSans-31"/>
       <use xlink:href="#DejaVuSans-30" x="63.623047"/>
       <use xlink:href="#DejaVuSans-30" x="127.246094"/>
      </g>
     </g>
    </g>
    <g id="text_7">
     <!-- Server round -->
     <g style="fill: #262626" transform="translate(185.870313 306.576062) scale(0.12 -0.12)">
      <defs>
       <path id="DejaVuSans-53" d="M 3425 4513 
L 3425 3897 
Q 3066 4069 2747 4153 
Q 2428 4238 2131 4238 
Q 1616 4238 1336 4038 
Q 1056 3838 1056 3469 
Q 1056 3159 1242 3001 
Q 1428 2844 1947 2747 
L 2328 2669 
Q 3034 2534 3370 2195 
Q 3706 1856 3706 1288 
Q 3706 609 3251 259 
Q 2797 -91 1919 -91 
Q 1588 -91 1214 -16 
Q 841 59 441 206 
L 441 856 
Q 825 641 1194 531 
Q 1563 422 1919 422 
Q 2459 422 2753 634 
Q 3047 847 3047 1241 
Q 3047 1584 2836 1778 
Q 2625 1972 2144 2069 
L 1759 2144 
Q 1053 2284 737 2584 
Q 422 2884 422 3419 
Q 422 4038 858 4394 
Q 1294 4750 2059 4750 
Q 2388 4750 2728 4690 
Q 3069 4631 3425 4513 
z
" transform="scale(0.015625)"/>
       <path id="DejaVuSans-65" d="M 3597 1894 
L 3597 1613 
L 953 1613 
Q 991 1019 1311 708 
Q 1631 397 2203 397 
Q 2534 397 2845 478 
Q 3156 559 3463 722 
L 3463 178 
Q 3153 47 2828 -22 
Q 2503 -91 2169 -91 
Q 1331 -91 842 396 
Q 353 884 353 1716 
Q 353 2575 817 3079 
Q 1281 3584 2069 3584 
Q 2775 3584 3186 3129 
Q 3597 2675 3597 1894 
z
M 3022 2063 
Q 3016 2534 2758 2815 
Q 2500 3097 2075 3097 
Q 1594 3097 1305 2825 
Q 1016 2553 972 2059 
L 3022 2063 
z
" transform="scale(0.015625)"/>
       <path id="DejaVuSans-72" d="M 2631 2963 
Q 2534 3019 2420 3045 
Q 2306 3072 2169 3072 
Q 1681 3072 1420 2755 
Q 1159 2438 1159 1844 
L 1159 0 
L 581 0 
L 581 3500 
L 1159 3500 
L 1159 2956 
Q 1341 3275 1631 3429 
Q 1922 3584 2338 3584 
Q 2397 3584 2469 3576 
Q 2541 3569 2628 3553 
L 2631 2963 
z
" transform="scale(0.015625)"/>
       <path id="DejaVuSans-76" d="M 191 3500 
L 800 3500 
L 1894 563 
L 2988 3500 
L 3597 3500 
L 2284 0 
L 1503 0 
L 191 3500 
z
" transform="scale(0.015625)"/>
       <path id="DejaVuSans-20" transform="scale(0.015625)"/>
       <path id="DejaVuSans-6f" d="M 1959 3097 
Q 1497 3097 1228 2736 
Q 959 2375 959 1747 
Q 959 1119 1226 758 
Q 1494 397 1959 397 
Q 2419 397 2687 759 
Q 2956 1122 2956 1747 
Q 2956 2369 2687 2733 
Q 2419 3097 1959 3097 
z
M 1959 3584 
Q 2709 3584 3137 3096 
Q 3566 2609 3566 1747 
Q 3566 888 3137 398 
Q 2709 -91 1959 -91 
Q 1206 -91 779 398 
Q 353 888 353 1747 
Q 353 2609 779 3096 
Q 1206 3584 1959 3584 
z
" transform="scale(0.015625)"/>
       <path id="DejaVuSans-75" d="M 544 1381 
L 544 3500 
L 1119 3500 
L 1119 1403 
Q 1119 906 1312 657 
Q 1506 409 1894 409 
Q 2359 409 2629 706 
Q 2900 1003 2900 1516 
L 2900 3500 
L 3475 3500 
L 3475 0 
L 2900 0 
L 2900 538 
Q 2691 219 2414 64 
Q 2138 -91 1772 -91 
Q 1169 -91 856 284 
Q 544 659 544 1381 
z
M 1991 3584 
L 1991 3584 
z
" transform="scale(0.015625)"/>
       <path id="DejaVuSans-6e" d="M 3513 2113 
L 3513 0 
L 2938 0 
L 2938 2094 
Q 2938 2591 2744 2837 
Q 2550 3084 2163 3084 
Q 1697 3084 1428 2787 
Q 1159 2491 1159 1978 
L 1159 0 
L 581 0 
L 581 3500 
L 1159 3500 
L 1159 2956 
Q 1366 3272 1645 3428 
Q 1925 3584 2291 3584 
Q 2894 3584 3203 3211 
Q 3513 2838 3513 2113 
z
" transform="scale(0.015625)"/>
       <path id="DejaVuSans-64" d="M 2906 2969 
L 2906 4863 
L 3481 4863 
L 3481 0 
L 2906 0 
L 2906 525 
Q 2725 213 2448 61 
Q 2172 -91 1784 -91 
Q 1150 -91 751 415 
Q 353 922 353 1747 
Q 353 2572 751 3078 
Q 1150 3584 1784 3584 
Q 2172 3584 2448 3432 
Q 2725 3281 2906 2969 
z
M 947 1747 
Q 947 1113 1208 752 
Q 1469 391 1925 391 
Q 2381 391 2643 752 
Q 2906 1113 2906 1747 
Q 2906 2381 2643 2742 
Q 2381 3103 1925 3103 
Q 1469 3103 1208 2742 
Q 947 2381 947 1747 
z
" transform="scale(0.015625)"/>
      </defs>
      <use xlink:href="#DejaVuSans-53"/>
      <use xlink:href="#DejaVuSans-65" x="63.476562"/>
      <use xlink:href="#DejaVuSans-72" x="125"/>
      <use xlink:href="#DejaVuSans-76" x="166.113281"/>
      <use xlink:href="#DejaVuSans-65" x="225.292969"/>
      <use xlink:href="#DejaVuSans-72" x="286.816406"/>
      <use xlink:href="#DejaVuSans-20" x="327.929688"/>
      <use xlink:href="#DejaVuSans-72" x="359.716797"/>
      <use xlink:href="#DejaVuSans-6f" x="398.580078"/>
      <use xlink:href="#DejaVuSans-75" x="459.761719"/>
      <use xlink:href="#DejaVuSans-6e" x="523.140625"/>
      <use xlink:href="#DejaVuSans-64" x="586.519531"/>
     </g>
    </g>
   </g>
   <g id="matplotlib.axis_2">
    <g id="ytick_1">
     <g id="line2d_7">
      <path d="M 46.31125 271.39669 
L 403.43125 271.39669 
" clip-path="url(#p4de0393057)" style="fill: none; stroke: #cccccc; stroke-linecap: round"/>
     </g>
     <g id="text_8">
      <!-- 2 -->
      <g style="fill: #262626" transform="translate(29.8125 275.575831) scale(0.11 -0.11)">
       <use xlink:href="#DejaVuSans-32"/>
      </g>
     </g>
    </g>
    <g id="ytick_2">
     <g id="line2d_8">
      <path d="M 46.31125 215.141555 
L 403.43125 215.141555 
" clip-path="url(#p4de0393057)" style="fill: none; stroke: #cccccc; stroke-linecap: round"/>
     </g>
     <g id="text_9">
      <!-- 4 -->
      <g style="fill: #262626" transform="translate(29.8125 219.320696) scale(0.11 -0.11)">
       <use xlink:href="#DejaVuSans-34"/>
      </g>
     </g>
    </g>
    <g id="ytick_3">
     <g id="line2d_9">
      <path d="M 46.31125 158.88642 
L 403.43125 158.88642 
" clip-path="url(#p4de0393057)" style="fill: none; stroke: #cccccc; stroke-linecap: round"/>
     </g>
     <g id="text_10">
      <!-- 6 -->
      <g style="fill: #262626" transform="translate(29.8125 163.065561) scale(0.11 -0.11)">
       <use xlink:href="#DejaVuSans-36"/>
      </g>
     </g>
    </g>
    <g id="ytick_4">
     <g id="line2d_10">
      <path d="M 46.31125 102.631285 
L 403.43125 102.631285 
" clip-path="url(#p4de0393057)" style="fill: none; stroke: #cccccc; stroke-linecap: round"/>
     </g>
     <g id="text_11">
      <!-- 8 -->
      <g style="fill: #262626" transform="translate(29.8125 106.810426) scale(0.11 -0.11)">
       <use xlink:href="#DejaVuSans-38"/>
      </g>
     </g>
    </g>
    <g id="ytick_5">
     <g id="line2d_11">
      <path d="M 46.31125 46.37615 
L 403.43125 46.37615 
" clip-path="url(#p4de0393057)" style="fill: none; stroke: #cccccc; stroke-linecap: round"/>
     </g>
     <g id="text_12">
      <!-- 10 -->
      <g style="fill: #262626" transform="translate(22.81375 50.55529) scale(0.11 -0.11)">
       <use xlink:href="#DejaVuSans-31"/>
       <use xlink:href="#DejaVuSans-30" x="63.623047"/>
      </g>
     </g>
    </g>
    <g id="text_13">
     <!-- Time (seconds) -->
     <g style="fill: #262626" transform="translate(16.318125 186.050062) rotate(-90) scale(0.12 -0.12)">
      <defs>
       <path id="DejaVuSans-54" d="M -19 4666 
L 3928 4666 
L 3928 4134 
L 2272 4134 
L 2272 0 
L 1638 0 
L 1638 4134 
L -19 4134 
L -19 4666 
z
" transform="scale(0.015625)"/>
       <path id="DejaVuSans-69" d="M 603 3500 
L 1178 3500 
L 1178 0 
L 603 0 
L 603 3500 
z
M 603 4863 
L 1178 4863 
L 1178 4134 
L 603 4134 
L 603 4863 
z
" transform="scale(0.015625)"/>
       <path id="DejaVuSans-6d" d="M 3328 2828 
Q 3544 3216 3844 3400 
Q 4144 3584 4550 3584 
Q 5097 3584 5394 3201 
Q 5691 2819 5691 2113 
L 5691 0 
L 5113 0 
L 5113 2094 
Q 5113 2597 4934 2840 
Q 4756 3084 4391 3084 
Q 3944 3084 3684 2787 
Q 3425 2491 3425 1978 
L 3425 0 
L 2847 0 
L 2847 2094 
Q 2847 2600 2669 2842 
Q 2491 3084 2119 3084 
Q 1678 3084 1418 2786 
Q 1159 2488 1159 1978 
L 1159 0 
L 581 0 
L 581 3500 
L 1159 3500 
L 1159 2956 
Q 1356 3278 1631 3431 
Q 1906 3584 2284 3584 
Q 2666 3584 2933 3390 
Q 3200 3197 3328 2828 
z
" transform="scale(0.015625)"/>
       <path id="DejaVuSans-28" d="M 1984 4856 
Q 1566 4138 1362 3434 
Q 1159 2731 1159 2009 
Q 1159 1288 1364 580 
Q 1569 -128 1984 -844 
L 1484 -844 
Q 1016 -109 783 600 
Q 550 1309 550 2009 
Q 550 2706 781 3412 
Q 1013 4119 1484 4856 
L 1984 4856 
z
" transform="scale(0.015625)"/>
       <path id="DejaVuSans-73" d="M 2834 3397 
L 2834 2853 
Q 2591 2978 2328 3040 
Q 2066 3103 1784 3103 
Q 1356 3103 1142 2972 
Q 928 2841 928 2578 
Q 928 2378 1081 2264 
Q 1234 2150 1697 2047 
L 1894 2003 
Q 2506 1872 2764 1633 
Q 3022 1394 3022 966 
Q 3022 478 2636 193 
Q 2250 -91 1575 -91 
Q 1294 -91 989 -36 
Q 684 19 347 128 
L 347 722 
Q 666 556 975 473 
Q 1284 391 1588 391 
Q 1994 391 2212 530 
Q 2431 669 2431 922 
Q 2431 1156 2273 1281 
Q 2116 1406 1581 1522 
L 1381 1569 
Q 847 1681 609 1914 
Q 372 2147 372 2553 
Q 372 3047 722 3315 
Q 1072 3584 1716 3584 
Q 2034 3584 2315 3537 
Q 2597 3491 2834 3397 
z
" transform="scale(0.015625)"/>
       <path id="DejaVuSans-63" d="M 3122 3366 
L 3122 2828 
Q 2878 2963 2633 3030 
Q 2388 3097 2138 3097 
Q 1578 3097 1268 2742 
Q 959 2388 959 1747 
Q 959 1106 1268 751 
Q 1578 397 2138 397 
Q 2388 397 2633 464 
Q 2878 531 3122 666 
L 3122 134 
Q 2881 22 2623 -34 
Q 2366 -91 2075 -91 
Q 1284 -91 818 406 
Q 353 903 353 1747 
Q 353 2603 823 3093 
Q 1294 3584 2113 3584 
Q 2378 3584 2631 3529 
Q 2884 3475 3122 3366 
z
" transform="scale(0.015625)"/>
       <path id="DejaVuSans-29" d="M 513 4856 
L 1013 4856 
Q 1481 4119 1714 3412 
Q 1947 2706 1947 2009 
Q 1947 1309 1714 600 
Q 1481 -109 1013 -844 
L 513 -844 
Q 928 -128 1133 580 
Q 1338 1288 1338 2009 
Q 1338 2731 1133 3434 
Q 928 4138 513 4856 
z
" transform="scale(0.015625)"/>
      </defs>
      <use xlink:href="#DejaVuSans-54"/>
      <use xlink:href="#DejaVuSans-69" x="57.958984"/>
      <use xlink:href="#DejaVuSans-6d" x="85.742188"/>
      <use xlink:href="#DejaVuSans-65" x="183.154297"/>
      <use xlink:href="#DejaVuSans-20" x="244.677734"/>
      <use xlink:href="#DejaVuSans-28" x="276.464844"/>
      <use xlink:href="#DejaVuSans-73" x="315.478516"/>
      <use xlink:href="#DejaVuSans-65" x="367.578125"/>
      <use xlink:href="#DejaVuSans-63" x="429.101562"/>
      <use xlink:href="#DejaVuSans-6f" x="484.082031"/>
      <use xlink:href="#DejaVuSans-6e" x="545.263672"/>
      <use xlink:href="#DejaVuSans-64" x="608.642578"/>
      <use xlink:href="#DejaVuSans-73" x="672.119141"/>
      <use xlink:href="#DejaVuSans-29" x="724.21875"/>
     </g>
    </g>
   </g>
   <g id="PolyCollection_1"/>
   <g id="PolyCollection_2"/>
   <g id="PolyCollection_3"/>
   <g id="PolyCollection_4"/>
   <g id="PolyCollection_5"/>
   <g id="line2d_12">
    <path d="M 62.543977 68.152337 
L 65.823316 194.492454 
L 69.102655 203.044439 
L 72.381994 199.952026 
L 75.661333 204.742185 
L 78.940671 203.224989 
L 82.22001 200.508514 
L 85.499349 203.446948 
L 88.778688 200.520116 
L 92.058027 210.401793 
L 95.337366 192.382778 
L 98.616705 194.535045 
L 101.896043 201.450894 
L 105.175382 198.616533 
L 108.454721 198.178837 
L 111.73406 196.720997 
L 115.013399 196.944459 
L 118.292738 194.887962 
L 121.572076 193.409259 
L 124.851415 200.08181 
L 128.130754 194.593637 
L 131.410093 206.834653 
L 134.689432 196.373767 
L 137.968771 201.136477 
L 141.24811 204.012899 
L 144.527448 193.094936 
L 147.806787 192.580126 
L 151.086126 200.103954 
L 154.365465 200.545935 
L 157.644804 191.585137 
L 160.924143 198.543972 
L 164.203481 204.498007 
L 167.48282 203.99944 
L 170.762159 198.601129 
L 174.041498 196.644373 
L 177.320837 205.457266 
L 180.600176 195.36047 
L 183.879514 200.123267 
L 187.158853 195.667356 
L 190.438192 193.078526 
L 193.717531 193.326506 
L 196.99687 201.630994 
L 200.276209 200.820363 
L 203.555548 186.820911 
L 206.834886 205.637614 
L 210.114225 196.130864 
L 213.393564 203.424905 
L 216.672903 189.129492 
L 219.952242 205.286944 
L 223.231581 201.957093 
L 226.510919 200.177869 
L 229.790258 195.489844 
L 233.069597 194.481101 
L 236.348936 194.00793 
L 239.628275 188.204146 
L 242.907614 212.048693 
L 246.186952 202.655155 
L 249.466291 191.479428 
L 252.74563 203.845447 
L 256.024969 197.374329 
L 259.304308 193.5634 
L 262.583647 203.764256 
L 265.862986 205.468687 
L 269.142324 197.944873 
L 272.421663 199.048428 
L 275.701002 194.923706 
L 278.980341 205.022501 
L 282.25968 195.081749 
L 285.539019 194.605936 
L 288.818357 184.979755 
L 292.097696 175.547543 
L 295.377035 174.256029 
L 298.656374 171.736917 
L 301.935713 172.837286 
L 305.215052 181.306604 
L 308.49439 171.886054 
L 311.773729 172.10729 
L 315.053068 173.828399 
L 318.332407 183.784253 
L 321.611746 170.452511 
L 324.891085 178.229105 
L 328.170424 172.260397 
L 331.449762 174.780482 
L 334.729101 183.612294 
L 338.00844 172.685888 
L 341.287779 178.577234 
L 344.567118 168.350996 
L 347.846457 174.269723 
L 351.125795 180.653434 
L 354.405134 181.181213 
L 357.684473 177.548279 
L 360.963812 177.180481 
L 364.243151 182.390557 
L 367.52249 182.189836 
L 370.801829 172.435971 
L 374.081167 178.828433 
L 377.360506 172.172192 
L 380.639845 184.385585 
L 383.919184 173.544307 
L 387.198523 167.738572 
" clip-path="url(#p4de0393057)" style="fill: none; stroke: #4c72b0; stroke-width: 1.5; stroke-linecap: round"/>
   </g>
   <g id="line2d_13">
    <path d="M 62.543977 33.882782 
L 65.823316 200.91669 
L 69.102655 208.499692 
L 72.381994 205.001745 
L 75.661333 212.908479 
L 78.940671 210.316397 
L 82.22001 203.411191 
L 85.499349 210.014816 
L 88.778688 206.421307 
L 92.058027 215.426854 
L 95.337366 200.781622 
L 98.616705 203.060266 
L 101.896043 208.558713 
L 105.175382 206.590335 
L 108.454721 208.813439 
L 111.73406 206.625093 
L 115.013399 207.876659 
L 118.292738 207.58745 
L 121.572076 202.345043 
L 124.851415 208.221173 
L 128.130754 206.068745 
L 131.410093 213.887468 
L 134.689432 201.5719 
L 137.968771 208.513587 
L 141.24811 212.472245 
L 144.527448 202.409422 
L 147.806787 202.347296 
L 151.086126 208.121513 
L 154.365465 210.808252 
L 157.644804 202.746855 
L 160.924143 205.413509 
L 164.203481 206.316523 
L 167.48282 210.375874 
L 170.762159 205.403986 
L 174.041498 210.076204 
L 177.320837 212.491304 
L 180.600176 202.42718 
L 183.879514 206.542212 
L 187.158853 201.361179 
L 190.438192 207.102241 
L 193.717531 200.644381 
L 196.99687 212.164622 
L 200.276209 209.95827 
L 203.555548 200.233194 
L 206.834886 215.939324 
L 210.114225 204.375312 
L 213.393564 206.911492 
L 216.672903 197.537026 
L 219.952242 212.95325 
L 223.231581 209.967289 
L 226.510919 206.016545 
L 229.790258 203.559792 
L 233.069597 204.055289 
L 236.348936 198.796324 
L 239.628275 203.041012 
L 242.907614 218.732818 
L 246.186952 210.605781 
L 249.466291 201.134371 
L 252.74563 209.430557 
L 256.024969 203.012941 
L 259.304308 201.26891 
L 262.583647 210.034096 
L 265.862986 211.209024 
L 269.142324 205.83116 
L 272.421663 210.734377 
L 275.701002 205.375901 
L 278.980341 209.79405 
L 282.25968 203.284821 
L 285.539019 200.734893 
L 288.818357 195.598859 
L 292.097696 177.701675 
L 295.377035 181.811744 
L 298.656374 185.036731 
L 301.935713 180.167138 
L 305.215052 186.516681 
L 308.49439 179.451245 
L 311.773729 176.956449 
L 315.053068 184.68262 
L 318.332407 191.997068 
L 321.611746 184.903855 
L 324.891085 181.606221 
L 328.170424 183.993531 
L 331.449762 180.759229 
L 334.729101 195.747394 
L 338.00844 177.542565 
L 341.287779 191.395669 
L 344.567118 179.241135 
L 347.846457 179.417473 
L 351.125795 193.492006 
L 354.405134 189.786626 
L 357.684473 179.210059 
L 360.963812 189.5637 
L 364.243151 188.361351 
L 367.52249 194.122108 
L 370.801829 184.875602 
L 374.081167 184.11404 
L 377.360506 180.42523 
L 380.639845 192.775939 
L 383.919184 176.215676 
L 387.198523 180.55254 
" clip-path="url(#p4de0393057)" style="fill: none; stroke: #dd8452; stroke-width: 1.5; stroke-linecap: round"/>
   </g>
   <g id="line2d_14">
    <path d="M 62.543977 19.296 
L 65.823316 195.447341 
L 69.102655 197.716932 
L 72.381994 196.442283 
L 75.661333 203.123317 
L 78.940671 202.334675 
L 82.22001 196.291355 
L 85.499349 204.202864 
L 88.778688 202.255188 
L 92.058027 207.112749 
L 95.337366 192.981395 
L 98.616705 194.891932 
L 101.896043 204.529406 
L 105.175382 201.559802 
L 108.454721 199.694692 
L 111.73406 195.771905 
L 115.013399 196.883976 
L 118.292738 201.689753 
L 121.572076 194.298057 
L 124.851415 202.368206 
L 128.130754 198.429995 
L 131.410093 206.571658 
L 134.689432 193.943906 
L 137.968771 204.606928 
L 141.24811 201.027636 
L 144.527448 194.321207 
L 147.806787 195.520471 
L 151.086126 201.200024 
L 154.365465 200.82609 
L 157.644804 195.373151 
L 160.924143 197.822138 
L 164.203481 200.137813 
L 167.48282 203.942183 
L 170.762159 201.053971 
L 174.041498 202.260881 
L 177.320837 204.604347 
L 180.600176 192.946529 
L 183.879514 202.352507 
L 187.158853 198.343801 
L 190.438192 198.728948 
L 193.717531 197.473465 
L 196.99687 202.771044 
L 200.276209 204.004583 
L 203.555548 193.662644 
L 206.834886 206.496288 
L 210.114225 196.84734 
L 213.393564 204.366648 
L 216.672903 196.29845 
L 219.952242 199.102111 
L 223.231581 202.7116 
L 226.510919 202.247449 
L 229.790258 194.757675 
L 233.069597 197.633092 
L 236.348936 192.140955 
L 239.628275 193.335157 
L 242.907614 214.133878 
L 246.186952 202.73933 
L 249.466291 193.082235 
L 252.74563 203.694639 
L 256.024969 199.814577 
L 259.304308 195.235494 
L 262.583647 200.272177 
L 265.862986 207.044407 
L 269.142324 196.327957 
L 272.421663 202.765524 
L 275.701002 198.135301 
L 278.980341 204.357621 
L 282.25968 199.563748 
L 285.539019 196.630833 
L 288.818357 185.985897 
L 292.097696 174.660436 
L 295.377035 174.988466 
L 298.656374 170.981142 
L 301.935713 169.692263 
L 305.215052 182.049342 
L 308.49439 171.427985 
L 311.773729 173.823195 
L 315.053068 175.388394 
L 318.332407 184.907765 
L 321.611746 172.995108 
L 324.891085 174.347702 
L 328.170424 177.259774 
L 331.449762 170.627165 
L 334.729101 185.668683 
L 338.00844 168.487184 
L 341.287779 180.734564 
L 344.567118 170.016364 
L 347.846457 171.849566 
L 351.125795 179.957732 
L 354.405134 180.360986 
L 357.684473 176.603129 
L 360.963812 179.373105 
L 364.243151 181.484257 
L 367.52249 180.48625 
L 370.801829 174.077572 
L 374.081167 175.034571 
L 377.360506 170.467029 
L 380.639845 184.259356 
L 383.919184 171.255939 
L 387.198523 171.449223 
" clip-path="url(#p4de0393057)" style="fill: none; stroke: #55a868; stroke-width: 1.5; stroke-linecap: round"/>
   </g>
   <g id="line2d_15">
    <path d="M 62.543977 34.965528 
L 65.823316 205.87813 
L 69.102655 211.332062 
L 72.381994 205.886533 
L 75.661333 211.673451 
L 78.940671 208.800898 
L 82.22001 205.707533 
L 85.499349 210.638768 
L 88.778688 210.682418 
L 92.058027 211.077141 
L 95.337366 202.747539 
L 98.616705 203.051776 
L 101.896043 209.706173 
L 105.175382 208.549774 
L 108.454721 210.347702 
L 111.73406 206.362849 
L 115.013399 205.66006 
L 118.292738 204.72841 
L 121.572076 204.001204 
L 124.851415 208.268498 
L 128.130754 202.599782 
L 131.410093 214.276839 
L 134.689432 201.788434 
L 137.968771 211.323491 
L 141.24811 210.532757 
L 144.527448 198.848773 
L 147.806787 201.146073 
L 151.086126 208.635411 
L 154.365465 211.065479 
L 157.644804 203.420808 
L 160.924143 207.032008 
L 164.203481 211.176084 
L 167.48282 212.911826 
L 170.762159 208.907941 
L 174.041498 210.253219 
L 177.320837 213.289193 
L 180.600176 201.904591 
L 183.879514 211.403717 
L 187.158853 200.664781 
L 190.438192 204.970448 
L 193.717531 205.584649 
L 196.99687 208.452434 
L 200.276209 209.32741 
L 203.555548 200.444766 
L 206.834886 216.036221 
L 210.114225 205.76774 
L 213.393564 210.524147 
L 216.672903 204.620327 
L 219.952242 211.197832 
L 223.231581 209.49835 
L 226.510919 208.05926 
L 229.790258 199.808139 
L 233.069597 206.168284 
L 236.348936 203.246623 
L 239.628275 201.765962 
L 242.907614 217.68086 
L 246.186952 209.886829 
L 249.466291 201.925346 
L 252.74563 207.834249 
L 256.024969 206.558259 
L 259.304308 198.098175 
L 262.583647 210.28744 
L 265.862986 212.609051 
L 269.142324 205.351537 
L 272.421663 211.172556 
L 275.701002 202.60675 
L 278.980341 212.518176 
L 282.25968 207.8168 
L 285.539019 206.656162 
L 288.818357 195.975758 
L 292.097696 185.559212 
L 295.377035 184.685028 
L 298.656374 184.740876 
L 301.935713 179.213398 
L 305.215052 192.728466 
L 308.49439 179.600463 
L 311.773729 183.013054 
L 315.053068 184.365453 
L 318.332407 188.652746 
L 321.611746 185.229572 
L 324.891085 187.954744 
L 328.170424 185.774144 
L 331.449762 181.144631 
L 334.729101 194.114054 
L 338.00844 178.686692 
L 341.287779 190.296446 
L 344.567118 178.482242 
L 347.846457 181.572221 
L 351.125795 194.399789 
L 354.405134 189.99459 
L 357.684473 184.085908 
L 360.963812 192.307247 
L 364.243151 190.234877 
L 367.52249 192.699616 
L 370.801829 183.147807 
L 374.081167 187.084181 
L 377.360506 180.404596 
L 380.639845 196.559527 
L 383.919184 181.276071 
L 387.198523 184.221486 
" clip-path="url(#p4de0393057)" style="fill: none; stroke: #c44e52; stroke-width: 1.5; stroke-linecap: round"/>
   </g>
   <g id="line2d_16">
    <path d="M 62.543977 82.507107 
L 65.823316 253.896529 
L 69.102655 256.481516 
L 72.381994 257.471133 
L 75.661333 257.93442 
L 78.940671 257.655505 
L 82.22001 255.370437 
L 85.499349 256.969052 
L 88.778688 257.854785 
L 92.058027 259.301251 
L 95.337366 253.185384 
L 98.616705 254.851576 
L 101.896043 257.366518 
L 105.175382 256.124528 
L 108.454721 258.687217 
L 111.73406 255.545279 
L 115.013399 256.688548 
L 118.292738 256.717471 
L 121.572076 254.510878 
L 124.851415 257.290886 
L 128.130754 256.630057 
L 131.410093 260.482979 
L 134.689432 255.022958 
L 137.968771 256.950342 
L 141.24811 258.755331 
L 144.527448 255.440261 
L 147.806787 255.458428 
L 151.086126 257.398392 
L 154.365465 257.882273 
L 157.644804 254.175605 
L 160.924143 256.233174 
L 164.203481 257.504597 
L 167.48282 256.445584 
L 170.762159 257.843371 
L 174.041498 256.533864 
L 177.320837 257.468927 
L 180.600176 254.449101 
L 183.879514 254.057912 
L 187.158853 255.553333 
L 190.438192 255.390837 
L 193.717531 254.661431 
L 196.99687 256.671481 
L 200.276209 257.182159 
L 203.555548 254.758596 
L 206.834886 259.423779 
L 210.114225 256.872175 
L 213.393564 256.927246 
L 216.672903 254.439934 
L 219.952242 257.383699 
L 223.231581 258.460389 
L 226.510919 256.953071 
L 229.790258 255.596004 
L 233.069597 256.023742 
L 236.348936 255.197975 
L 239.628275 254.139787 
L 242.907614 261.216 
L 246.186952 257.257543 
L 249.466291 252.603184 
L 252.74563 257.814876 
L 256.024969 255.232123 
L 259.304308 254.652404 
L 262.583647 257.616113 
L 265.862986 259.450181 
L 269.142324 256.081777 
L 272.421663 257.873307 
L 275.701002 256.823348 
L 278.980341 258.741879 
L 282.25968 256.314097 
L 285.539019 254.935638 
L 288.818357 242.833365 
L 292.097696 238.033415 
L 295.377035 237.639571 
L 298.656374 238.987075 
L 301.935713 237.981738 
L 305.215052 240.623284 
L 308.49439 235.848376 
L 311.773729 237.128537 
L 315.053068 238.813366 
L 318.332407 240.978535 
L 321.611746 237.138998 
L 324.891085 238.735957 
L 328.170424 239.201275 
L 331.449762 237.401543 
L 334.729101 243.115237 
L 338.00844 237.491278 
L 341.287779 238.222388 
L 344.567118 237.16762 
L 347.846457 236.693932 
L 351.125795 243.331362 
L 354.405134 240.233236 
L 357.684473 237.773023 
L 360.963812 238.28063 
L 364.243151 241.234012 
L 367.52249 240.211923 
L 370.801829 237.139488 
L 374.081167 237.642984 
L 377.360506 238.614106 
L 380.639845 241.80294 
L 383.919184 239.242196 
L 387.198523 235.704931 
" clip-path="url(#p4de0393057)" style="fill: none; stroke: #8172b3; stroke-width: 1.5; stroke-linecap: round"/>
   </g>
   <g id="line2d_17"/>
   <g id="line2d_18"/>
   <g id="line2d_19"/>
   <g id="line2d_20"/>
   <g id="line2d_21"/>
   <g id="patch_3">
    <path d="M 46.31125 273.312 
L 46.31125 7.2 
" style="fill: none; stroke: #cccccc; stroke-width: 1.25; stroke-linejoin: miter; stroke-linecap: square"/>
   </g>
   <g id="patch_4">
    <path d="M 403.43125 273.312 
L 403.43125 7.2 
" style="fill: none; stroke: #cccccc; stroke-width: 1.25; stroke-linejoin: miter; stroke-linecap: square"/>
   </g>
   <g id="patch_5">
    <path d="M 46.31125 273.312 
L 403.43125 273.312 
" style="fill: none; stroke: #cccccc; stroke-width: 1.25; stroke-linejoin: miter; stroke-linecap: square"/>
   </g>
   <g id="patch_6">
    <path d="M 46.31125 7.2 
L 403.43125 7.2 
" style="fill: none; stroke: #cccccc; stroke-width: 1.25; stroke-linejoin: miter; stroke-linecap: square"/>
   </g>
   <g id="legend_1">
    <g id="patch_7">
     <path d="M 291.746875 113.843437 
L 395.73125 113.843437 
Q 397.93125 113.843437 397.93125 111.643437 
L 397.93125 14.9 
Q 397.93125 12.7 395.73125 12.7 
L 291.746875 12.7 
Q 289.546875 12.7 289.546875 14.9 
L 289.546875 111.643437 
Q 289.546875 113.843437 291.746875 113.843437 
z
" style="fill: #ffffff; opacity: 0.8; stroke: #cccccc; stroke-linejoin: miter"/>
    </g>
    <g id="text_14">
     <!-- Strategy -->
     <g style="fill: #262626" transform="translate(318.03 26.218125) scale(0.12 -0.12)">
      <defs>
       <path id="DejaVuSans-74" d="M 1172 4494 
L 1172 3500 
L 2356 3500 
L 2356 3053 
L 1172 3053 
L 1172 1153 
Q 1172 725 1289 603 
Q 1406 481 1766 481 
L 2356 481 
L 2356 0 
L 1766 0 
Q 1100 0 847 248 
Q 594 497 594 1153 
L 594 3053 
L 172 3053 
L 172 3500 
L 594 3500 
L 594 4494 
L 1172 4494 
z
" transform="scale(0.015625)"/>
       <path id="DejaVuSans-61" d="M 2194 1759 
Q 1497 1759 1228 1600 
Q 959 1441 959 1056 
Q 959 750 1161 570 
Q 1363 391 1709 391 
Q 2188 391 2477 730 
Q 2766 1069 2766 1631 
L 2766 1759 
L 2194 1759 
z
M 3341 1997 
L 3341 0 
L 2766 0 
L 2766 531 
Q 2569 213 2275 61 
Q 1981 -91 1556 -91 
Q 1019 -91 701 211 
Q 384 513 384 1019 
Q 384 1609 779 1909 
Q 1175 2209 1959 2209 
L 2766 2209 
L 2766 2266 
Q 2766 2663 2505 2880 
Q 2244 3097 1772 3097 
Q 1472 3097 1187 3025 
Q 903 2953 641 2809 
L 641 3341 
Q 956 3463 1253 3523 
Q 1550 3584 1831 3584 
Q 2591 3584 2966 3190 
Q 3341 2797 3341 1997 
z
" transform="scale(0.015625)"/>
       <path id="DejaVuSans-67" d="M 2906 1791 
Q 2906 2416 2648 2759 
Q 2391 3103 1925 3103 
Q 1463 3103 1205 2759 
Q 947 2416 947 1791 
Q 947 1169 1205 825 
Q 1463 481 1925 481 
Q 2391 481 2648 825 
Q 2906 1169 2906 1791 
z
M 3481 434 
Q 3481 -459 3084 -895 
Q 2688 -1331 1869 -1331 
Q 1566 -1331 1297 -1286 
Q 1028 -1241 775 -1147 
L 775 -588 
Q 1028 -725 1275 -790 
Q 1522 -856 1778 -856 
Q 2344 -856 2625 -561 
Q 2906 -266 2906 331 
L 2906 616 
Q 2728 306 2450 153 
Q 2172 0 1784 0 
Q 1141 0 747 490 
Q 353 981 353 1791 
Q 353 2603 747 3093 
Q 1141 3584 1784 3584 
Q 2172 3584 2450 3431 
Q 2728 3278 2906 2969 
L 2906 3500 
L 3481 3500 
L 3481 434 
z
" transform="scale(0.015625)"/>
       <path id="DejaVuSans-79" d="M 2059 -325 
Q 1816 -950 1584 -1140 
Q 1353 -1331 966 -1331 
L 506 -1331 
L 506 -850 
L 844 -850 
Q 1081 -850 1212 -737 
Q 1344 -625 1503 -206 
L 1606 56 
L 191 3500 
L 800 3500 
L 1894 763 
L 2988 3500 
L 3597 3500 
L 2059 -325 
z
" transform="scale(0.015625)"/>
      </defs>
      <use xlink:href="#DejaVuSans-53"/>
      <use xlink:href="#DejaVuSans-74" x="63.476562"/>
      <use xlink:href="#DejaVuSans-72" x="102.685547"/>
      <use xlink:href="#DejaVuSans-61" x="143.798828"/>
      <use xlink:href="#DejaVuSans-74" x="205.078125"/>
      <use xlink:href="#DejaVuSans-65" x="244.287109"/>
      <use xlink:href="#DejaVuSans-67" x="305.810547"/>
      <use xlink:href="#DejaVuSans-79" x="369.287109"/>
     </g>
    </g>
    <g id="line2d_22">
     <path d="M 293.946875 38.722031 
L 304.946875 38.722031 
L 315.946875 38.722031 
" style="fill: none; stroke: #4c72b0; stroke-width: 1.5; stroke-linecap: round"/>
    </g>
    <g id="text_15">
     <!-- FedPredict -->
     <g style="fill: #262626" transform="translate(324.746875 42.572031) scale(0.11 -0.11)">
      <defs>
       <path id="DejaVuSans-46" d="M 628 4666 
L 3309 4666 
L 3309 4134 
L 1259 4134 
L 1259 2759 
L 3109 2759 
L 3109 2228 
L 1259 2228 
L 1259 0 
L 628 0 
L 628 4666 
z
" transform="scale(0.015625)"/>
       <path id="DejaVuSans-50" d="M 1259 4147 
L 1259 2394 
L 2053 2394 
Q 2494 2394 2734 2622 
Q 2975 2850 2975 3272 
Q 2975 3691 2734 3919 
Q 2494 4147 2053 4147 
L 1259 4147 
z
M 628 4666 
L 2053 4666 
Q 2838 4666 3239 4311 
Q 3641 3956 3641 3272 
Q 3641 2581 3239 2228 
Q 2838 1875 2053 1875 
L 1259 1875 
L 1259 0 
L 628 0 
L 628 4666 
z
" transform="scale(0.015625)"/>
      </defs>
      <use xlink:href="#DejaVuSans-46"/>
      <use xlink:href="#DejaVuSans-65" x="52.019531"/>
      <use xlink:href="#DejaVuSans-64" x="113.542969"/>
      <use xlink:href="#DejaVuSans-50" x="177.019531"/>
      <use xlink:href="#DejaVuSans-72" x="235.572266"/>
      <use xlink:href="#DejaVuSans-65" x="274.435547"/>
      <use xlink:href="#DejaVuSans-64" x="335.958984"/>
      <use xlink:href="#DejaVuSans-69" x="399.435547"/>
      <use xlink:href="#DejaVuSans-63" x="427.21875"/>
      <use xlink:href="#DejaVuSans-74" x="482.199219"/>
     </g>
    </g>
    <g id="line2d_23">
     <path d="M 293.946875 54.867969 
L 304.946875 54.867969 
L 315.946875 54.867969 
" style="fill: none; stroke: #dd8452; stroke-width: 1.5; stroke-linecap: round"/>
    </g>
    <g id="text_16">
     <!-- FedAVG -->
     <g style="fill: #262626" transform="translate(324.746875 58.717969) scale(0.11 -0.11)">
      <defs>
       <path id="DejaVuSans-41" d="M 2188 4044 
L 1331 1722 
L 3047 1722 
L 2188 4044 
z
M 1831 4666 
L 2547 4666 
L 4325 0 
L 3669 0 
L 3244 1197 
L 1141 1197 
L 716 0 
L 50 0 
L 1831 4666 
z
" transform="scale(0.015625)"/>
       <path id="DejaVuSans-56" d="M 1831 0 
L 50 4666 
L 709 4666 
L 2188 738 
L 3669 4666 
L 4325 4666 
L 2547 0 
L 1831 0 
z
" transform="scale(0.015625)"/>
       <path id="DejaVuSans-47" d="M 3809 666 
L 3809 1919 
L 2778 1919 
L 2778 2438 
L 4434 2438 
L 4434 434 
Q 4069 175 3628 42 
Q 3188 -91 2688 -91 
Q 1594 -91 976 548 
Q 359 1188 359 2328 
Q 359 3472 976 4111 
Q 1594 4750 2688 4750 
Q 3144 4750 3555 4637 
Q 3966 4525 4313 4306 
L 4313 3634 
Q 3963 3931 3569 4081 
Q 3175 4231 2741 4231 
Q 1884 4231 1454 3753 
Q 1025 3275 1025 2328 
Q 1025 1384 1454 906 
Q 1884 428 2741 428 
Q 3075 428 3337 486 
Q 3600 544 3809 666 
z
" transform="scale(0.015625)"/>
      </defs>
      <use xlink:href="#DejaVuSans-46"/>
      <use xlink:href="#DejaVuSans-65" x="52.019531"/>
      <use xlink:href="#DejaVuSans-64" x="113.542969"/>
      <use xlink:href="#DejaVuSans-41" x="177.019531"/>
      <use xlink:href="#DejaVuSans-56" x="239.052734"/>
      <use xlink:href="#DejaVuSans-47" x="307.460938"/>
     </g>
    </g>
    <g id="line2d_24">
     <path d="M 293.946875 71.013906 
L 304.946875 71.013906 
L 315.946875 71.013906 
" style="fill: none; stroke: #55a868; stroke-width: 1.5; stroke-linecap: round"/>
    </g>
    <g id="text_17">
     <!-- FedClassAvg -->
     <g style="fill: #262626" transform="translate(324.746875 74.863906) scale(0.11 -0.11)">
      <defs>
       <path id="DejaVuSans-43" d="M 4122 4306 
L 4122 3641 
Q 3803 3938 3442 4084 
Q 3081 4231 2675 4231 
Q 1875 4231 1450 3742 
Q 1025 3253 1025 2328 
Q 1025 1406 1450 917 
Q 1875 428 2675 428 
Q 3081 428 3442 575 
Q 3803 722 4122 1019 
L 4122 359 
Q 3791 134 3420 21 
Q 3050 -91 2638 -91 
Q 1578 -91 968 557 
Q 359 1206 359 2328 
Q 359 3453 968 4101 
Q 1578 4750 2638 4750 
Q 3056 4750 3426 4639 
Q 3797 4528 4122 4306 
z
" transform="scale(0.015625)"/>
       <path id="DejaVuSans-6c" d="M 603 4863 
L 1178 4863 
L 1178 0 
L 603 0 
L 603 4863 
z
" transform="scale(0.015625)"/>
      </defs>
      <use xlink:href="#DejaVuSans-46"/>
      <use xlink:href="#DejaVuSans-65" x="52.019531"/>
      <use xlink:href="#DejaVuSans-64" x="113.542969"/>
      <use xlink:href="#DejaVuSans-43" x="177.019531"/>
      <use xlink:href="#DejaVuSans-6c" x="246.84375"/>
      <use xlink:href="#DejaVuSans-61" x="274.626953"/>
      <use xlink:href="#DejaVuSans-73" x="335.90625"/>
      <use xlink:href="#DejaVuSans-73" x="388.005859"/>
      <use xlink:href="#DejaVuSans-41" x="440.105469"/>
      <use xlink:href="#DejaVuSans-76" x="502.638672"/>
      <use xlink:href="#DejaVuSans-67" x="561.818359"/>
     </g>
    </g>
    <g id="line2d_25">
     <path d="M 293.946875 87.159844 
L 304.946875 87.159844 
L 315.946875 87.159844 
" style="fill: none; stroke: #c44e52; stroke-width: 1.5; stroke-linecap: round"/>
    </g>
    <g id="text_18">
     <!-- FedPer -->
     <g style="fill: #262626" transform="translate(324.746875 91.009844) scale(0.11 -0.11)">
      <use xlink:href="#DejaVuSans-46"/>
      <use xlink:href="#DejaVuSans-65" x="52.019531"/>
      <use xlink:href="#DejaVuSans-64" x="113.542969"/>
      <use xlink:href="#DejaVuSans-50" x="177.019531"/>
      <use xlink:href="#DejaVuSans-65" x="233.697266"/>
      <use xlink:href="#DejaVuSans-72" x="295.220703"/>
     </g>
    </g>
    <g id="line2d_26">
     <path d="M 293.946875 103.305781 
L 304.946875 103.305781 
L 315.946875 103.305781 
" style="fill: none; stroke: #8172b3; stroke-width: 1.5; stroke-linecap: round"/>
    </g>
    <g id="text_19">
     <!-- FedProto -->
     <g style="fill: #262626" transform="translate(324.746875 107.155781) scale(0.11 -0.11)">
      <use xlink:href="#DejaVuSans-46"/>
      <use xlink:href="#DejaVuSans-65" x="52.019531"/>
      <use xlink:href="#DejaVuSans-64" x="113.542969"/>
      <use xlink:href="#DejaVuSans-50" x="177.019531"/>
      <use xlink:href="#DejaVuSans-72" x="235.572266"/>
      <use xlink:href="#DejaVuSans-6f" x="274.435547"/>
      <use xlink:href="#DejaVuSans-74" x="335.617188"/>
      <use xlink:href="#DejaVuSans-6f" x="374.826172"/>
     </g>
    </g>
   </g>
  </g>
 </g>
 <defs>
  <clipPath id="p4de0393057">
   <rect x="46.31125" y="7.2" width="357.12" height="266.112"/>
  </clipPath>
 </defs>
</svg>
