<?xml version="1.0" encoding="utf-8" standalone="no"?>
<!DOCTYPE svg PUBLIC "-//W3C//DTD SVG 1.1//EN"
  "http://www.w3.org/Graphics/SVG/1.1/DTD/svg11.dtd">
<svg xmlns:xlink="http://www.w3.org/1999/xlink" width="414.127187pt" height="316.271687pt" viewBox="0 0 414.127187 316.271687" xmlns="http://www.w3.org/2000/svg" version="1.1">
 <metadata>
  <rdf:RDF xmlns:dc="http://purl.org/dc/elements/1.1/" xmlns:cc="http://creativecommons.org/ns#" xmlns:rdf="http://www.w3.org/1999/02/22-rdf-syntax-ns#">
   <cc:Work>
    <dc:type rdf:resource="http://purl.org/dc/dcmitype/StillImage"/>
    <dc:date>2023-02-06T20:45:43.976292</dc:date>
    <dc:format>image/svg+xml</dc:format>
    <dc:creator>
     <cc:Agent>
      <dc:title>Matplotlib v3.6.3, https://matplotlib.org/</dc:title>
     </cc:Agent>
    </dc:creator>
   </cc:Work>
  </rdf:RDF>
 </metadata>
 <defs>
  <style type="text/css">*{stroke-linejoin: round; stroke-linecap: butt}</style>
 </defs>
 <g id="figure_1">
  <g id="patch_1">
   <path d="M 0 316.271687 
L 414.127187 316.271687 
L 414.127187 0 
L 0 0 
z
" style="fill: #ffffff"/>
  </g>
  <g id="axes_1">
   <g id="patch_2">
    <path d="M 49.807187 273.312 
L 406.927188 273.312 
L 406.927188 7.2 
L 49.807187 7.2 
z
" style="fill: #ffffff"/>
   </g>
   <g id="matplotlib.axis_1">
    <g id="xtick_1">
     <g id="line2d_1">
      <path d="M 62.760576 273.312 
L 62.760576 7.2 
" clip-path="url(#p53cc4ae9cf)" style="fill: none; stroke: #cccccc; stroke-linecap: round"/>
     </g>
     <g id="text_1">
      <!-- 0 -->
      <g style="fill: #262626" transform="translate(59.261201 291.170281) scale(0.11 -0.11)">
       <defs>
        <path id="DejaVuSans-30" d="M 2034 4250 
Q 1547 4250 1301 3770 
Q 1056 3291 1056 2328 
Q 1056 1369 1301 889 
Q 1547 409 2034 409 
Q 2525 409 2770 889 
Q 3016 1369 3016 2328 
Q 3016 3291 2770 3770 
Q 2525 4250 2034 4250 
z
M 2034 4750 
Q 2819 4750 3233 4129 
Q 3647 3509 3647 2328 
Q 3647 1150 3233 529 
Q 2819 -91 2034 -91 
Q 1250 -91 836 529 
Q 422 1150 422 2328 
Q 422 3509 836 4129 
Q 1250 4750 2034 4750 
z
" transform="scale(0.015625)"/>
       </defs>
       <use xlink:href="#DejaVuSans-30"/>
      </g>
     </g>
    </g>
    <g id="xtick_2">
     <g id="line2d_2">
      <path d="M 128.347353 273.312 
L 128.347353 7.2 
" clip-path="url(#p53cc4ae9cf)" style="fill: none; stroke: #cccccc; stroke-linecap: round"/>
     </g>
     <g id="text_2">
      <!-- 20 -->
      <g style="fill: #262626" transform="translate(121.348603 291.170281) scale(0.11 -0.11)">
       <defs>
        <path id="DejaVuSans-32" d="M 1228 531 
L 3431 531 
L 3431 0 
L 469 0 
L 469 531 
Q 828 903 1448 1529 
Q 2069 2156 2228 2338 
Q 2531 2678 2651 2914 
Q 2772 3150 2772 3378 
Q 2772 3750 2511 3984 
Q 2250 4219 1831 4219 
Q 1534 4219 1204 4116 
Q 875 4013 500 3803 
L 500 4441 
Q 881 4594 1212 4672 
Q 1544 4750 1819 4750 
Q 2544 4750 2975 4387 
Q 3406 4025 3406 3419 
Q 3406 3131 3298 2873 
Q 3191 2616 2906 2266 
Q 2828 2175 2409 1742 
Q 1991 1309 1228 531 
z
" transform="scale(0.015625)"/>
       </defs>
       <use xlink:href="#DejaVuSans-32"/>
       <use xlink:href="#DejaVuSans-30" x="63.623047"/>
      </g>
     </g>
    </g>
    <g id="xtick_3">
     <g id="line2d_3">
      <path d="M 193.93413 273.312 
L 193.93413 7.2 
" clip-path="url(#p53cc4ae9cf)" style="fill: none; stroke: #cccccc; stroke-linecap: round"/>
     </g>
     <g id="text_3">
      <!-- 40 -->
      <g style="fill: #262626" transform="translate(186.93538 291.170281) scale(0.11 -0.11)">
       <defs>
        <path id="DejaVuSans-34" d="M 2419 4116 
L 825 1625 
L 2419 1625 
L 2419 4116 
z
M 2253 4666 
L 3047 4666 
L 3047 1625 
L 3713 1625 
L 3713 1100 
L 3047 1100 
L 3047 0 
L 2419 0 
L 2419 1100 
L 313 1100 
L 313 1709 
L 2253 4666 
z
" transform="scale(0.015625)"/>
       </defs>
       <use xlink:href="#DejaVuSans-34"/>
       <use xlink:href="#DejaVuSans-30" x="63.623047"/>
      </g>
     </g>
    </g>
    <g id="xtick_4">
     <g id="line2d_4">
      <path d="M 259.520907 273.312 
L 259.520907 7.2 
" clip-path="url(#p53cc4ae9cf)" style="fill: none; stroke: #cccccc; stroke-linecap: round"/>
     </g>
     <g id="text_4">
      <!-- 60 -->
      <g style="fill: #262626" transform="translate(252.522157 291.170281) scale(0.11 -0.11)">
       <defs>
        <path id="DejaVuSans-36" d="M 2113 2584 
Q 1688 2584 1439 2293 
Q 1191 2003 1191 1497 
Q 1191 994 1439 701 
Q 1688 409 2113 409 
Q 2538 409 2786 701 
Q 3034 994 3034 1497 
Q 3034 2003 2786 2293 
Q 2538 2584 2113 2584 
z
M 3366 4563 
L 3366 3988 
Q 3128 4100 2886 4159 
Q 2644 4219 2406 4219 
Q 1781 4219 1451 3797 
Q 1122 3375 1075 2522 
Q 1259 2794 1537 2939 
Q 1816 3084 2150 3084 
Q 2853 3084 3261 2657 
Q 3669 2231 3669 1497 
Q 3669 778 3244 343 
Q 2819 -91 2113 -91 
Q 1303 -91 875 529 
Q 447 1150 447 2328 
Q 447 3434 972 4092 
Q 1497 4750 2381 4750 
Q 2619 4750 2861 4703 
Q 3103 4656 3366 4563 
z
" transform="scale(0.015625)"/>
       </defs>
       <use xlink:href="#DejaVuSans-36"/>
       <use xlink:href="#DejaVuSans-30" x="63.623047"/>
      </g>
     </g>
    </g>
    <g id="xtick_5">
     <g id="line2d_5">
      <path d="M 325.107683 273.312 
L 325.107683 7.2 
" clip-path="url(#p53cc4ae9cf)" style="fill: none; stroke: #cccccc; stroke-linecap: round"/>
     </g>
     <g id="text_5">
      <!-- 80 -->
      <g style="fill: #262626" transform="translate(318.108933 291.170281) scale(0.11 -0.11)">
       <defs>
        <path id="DejaVuSans-38" d="M 2034 2216 
Q 1584 2216 1326 1975 
Q 1069 1734 1069 1313 
Q 1069 891 1326 650 
Q 1584 409 2034 409 
Q 2484 409 2743 651 
Q 3003 894 3003 1313 
Q 3003 1734 2745 1975 
Q 2488 2216 2034 2216 
z
M 1403 2484 
Q 997 2584 770 2862 
Q 544 3141 544 3541 
Q 544 4100 942 4425 
Q 1341 4750 2034 4750 
Q 2731 4750 3128 4425 
Q 3525 4100 3525 3541 
Q 3525 3141 3298 2862 
Q 3072 2584 2669 2484 
Q 3125 2378 3379 2068 
Q 3634 1759 3634 1313 
Q 3634 634 3220 271 
Q 2806 -91 2034 -91 
Q 1263 -91 848 271 
Q 434 634 434 1313 
Q 434 1759 690 2068 
Q 947 2378 1403 2484 
z
M 1172 3481 
Q 1172 3119 1398 2916 
Q 1625 2713 2034 2713 
Q 2441 2713 2670 2916 
Q 2900 3119 2900 3481 
Q 2900 3844 2670 4047 
Q 2441 4250 2034 4250 
Q 1625 4250 1398 4047 
Q 1172 3844 1172 3481 
z
" transform="scale(0.015625)"/>
       </defs>
       <use xlink:href="#DejaVuSans-38"/>
       <use xlink:href="#DejaVuSans-30" x="63.623047"/>
      </g>
     </g>
    </g>
    <g id="xtick_6">
     <g id="line2d_6">
      <path d="M 390.69446 273.312 
L 390.69446 7.2 
" clip-path="url(#p53cc4ae9cf)" style="fill: none; stroke: #cccccc; stroke-linecap: round"/>
     </g>
     <g id="text_6">
      <!-- 100 -->
      <g style="fill: #262626" transform="translate(380.196335 291.170281) scale(0.11 -0.11)">
       <defs>
        <path id="DejaVuSans-31" d="M 794 531 
L 1825 531 
L 1825 4091 
L 703 3866 
L 703 4441 
L 1819 4666 
L 2450 4666 
L 2450 531 
L 3481 531 
L 3481 0 
L 794 0 
L 794 531 
z
" transform="scale(0.015625)"/>
       </defs>
       <use xlink:href="#DejaVuSans-31"/>
       <use xlink:href="#DejaVuSans-30" x="63.623047"/>
       <use xlink:href="#DejaVuSans-30" x="127.246094"/>
      </g>
     </g>
    </g>
    <g id="text_7">
     <!-- Round -->
     <g style="fill: #262626" transform="translate(209.382812 306.576062) scale(0.12 -0.12)">
      <defs>
       <path id="DejaVuSans-52" d="M 2841 2188 
Q 3044 2119 3236 1894 
Q 3428 1669 3622 1275 
L 4263 0 
L 3584 0 
L 2988 1197 
Q 2756 1666 2539 1819 
Q 2322 1972 1947 1972 
L 1259 1972 
L 1259 0 
L 628 0 
L 628 4666 
L 2053 4666 
Q 2853 4666 3247 4331 
Q 3641 3997 3641 3322 
Q 3641 2881 3436 2590 
Q 3231 2300 2841 2188 
z
M 1259 4147 
L 1259 2491 
L 2053 2491 
Q 2509 2491 2742 2702 
Q 2975 2913 2975 3322 
Q 2975 3731 2742 3939 
Q 2509 4147 2053 4147 
L 1259 4147 
z
" transform="scale(0.015625)"/>
       <path id="DejaVuSans-6f" d="M 1959 3097 
Q 1497 3097 1228 2736 
Q 959 2375 959 1747 
Q 959 1119 1226 758 
Q 1494 397 1959 397 
Q 2419 397 2687 759 
Q 2956 1122 2956 1747 
Q 2956 2369 2687 2733 
Q 2419 3097 1959 3097 
z
M 1959 3584 
Q 2709 3584 3137 3096 
Q 3566 2609 3566 1747 
Q 3566 888 3137 398 
Q 2709 -91 1959 -91 
Q 1206 -91 779 398 
Q 353 888 353 1747 
Q 353 2609 779 3096 
Q 1206 3584 1959 3584 
z
" transform="scale(0.015625)"/>
       <path id="DejaVuSans-75" d="M 544 1381 
L 544 3500 
L 1119 3500 
L 1119 1403 
Q 1119 906 1312 657 
Q 1506 409 1894 409 
Q 2359 409 2629 706 
Q 2900 1003 2900 1516 
L 2900 3500 
L 3475 3500 
L 3475 0 
L 2900 0 
L 2900 538 
Q 2691 219 2414 64 
Q 2138 -91 1772 -91 
Q 1169 -91 856 284 
Q 544 659 544 1381 
z
M 1991 3584 
L 1991 3584 
z
" transform="scale(0.015625)"/>
       <path id="DejaVuSans-6e" d="M 3513 2113 
L 3513 0 
L 2938 0 
L 2938 2094 
Q 2938 2591 2744 2837 
Q 2550 3084 2163 3084 
Q 1697 3084 1428 2787 
Q 1159 2491 1159 1978 
L 1159 0 
L 581 0 
L 581 3500 
L 1159 3500 
L 1159 2956 
Q 1366 3272 1645 3428 
Q 1925 3584 2291 3584 
Q 2894 3584 3203 3211 
Q 3513 2838 3513 2113 
z
" transform="scale(0.015625)"/>
       <path id="DejaVuSans-64" d="M 2906 2969 
L 2906 4863 
L 3481 4863 
L 3481 0 
L 2906 0 
L 2906 525 
Q 2725 213 2448 61 
Q 2172 -91 1784 -91 
Q 1150 -91 751 415 
Q 353 922 353 1747 
Q 353 2572 751 3078 
Q 1150 3584 1784 3584 
Q 2172 3584 2448 3432 
Q 2725 3281 2906 2969 
z
M 947 1747 
Q 947 1113 1208 752 
Q 1469 391 1925 391 
Q 2381 391 2643 752 
Q 2906 1113 2906 1747 
Q 2906 2381 2643 2742 
Q 2381 3103 1925 3103 
Q 1469 3103 1208 2742 
Q 947 2381 947 1747 
z
" transform="scale(0.015625)"/>
      </defs>
      <use xlink:href="#DejaVuSans-52"/>
      <use xlink:href="#DejaVuSans-6f" x="64.982422"/>
      <use xlink:href="#DejaVuSans-75" x="126.164062"/>
      <use xlink:href="#DejaVuSans-6e" x="189.542969"/>
      <use xlink:href="#DejaVuSans-64" x="252.921875"/>
     </g>
    </g>
   </g>
   <g id="matplotlib.axis_2">
    <g id="ytick_1">
     <g id="line2d_7">
      <path d="M 49.807187 263.760176 
L 406.927188 263.760176 
" clip-path="url(#p53cc4ae9cf)" style="fill: none; stroke: #cccccc; stroke-linecap: round"/>
     </g>
     <g id="text_8">
      <!-- 0.0 -->
      <g style="fill: #262626" transform="translate(22.81375 267.939316) scale(0.11 -0.11)">
       <defs>
        <path id="DejaVuSans-2e" d="M 684 794 
L 1344 794 
L 1344 0 
L 684 0 
L 684 794 
z
" transform="scale(0.015625)"/>
       </defs>
       <use xlink:href="#DejaVuSans-30"/>
       <use xlink:href="#DejaVuSans-2e" x="63.623047"/>
       <use xlink:href="#DejaVuSans-30" x="95.410156"/>
      </g>
     </g>
    </g>
    <g id="ytick_2">
     <g id="line2d_8">
      <path d="M 49.807187 226.451125 
L 406.927188 226.451125 
" clip-path="url(#p53cc4ae9cf)" style="fill: none; stroke: #cccccc; stroke-linecap: round"/>
     </g>
     <g id="text_9">
      <!-- 0.5 -->
      <g style="fill: #262626" transform="translate(22.81375 230.630266) scale(0.11 -0.11)">
       <defs>
        <path id="DejaVuSans-35" d="M 691 4666 
L 3169 4666 
L 3169 4134 
L 1269 4134 
L 1269 2991 
Q 1406 3038 1543 3061 
Q 1681 3084 1819 3084 
Q 2600 3084 3056 2656 
Q 3513 2228 3513 1497 
Q 3513 744 3044 326 
Q 2575 -91 1722 -91 
Q 1428 -91 1123 -41 
Q 819 9 494 109 
L 494 744 
Q 775 591 1075 516 
Q 1375 441 1709 441 
Q 2250 441 2565 725 
Q 2881 1009 2881 1497 
Q 2881 1984 2565 2268 
Q 2250 2553 1709 2553 
Q 1456 2553 1204 2497 
Q 953 2441 691 2322 
L 691 4666 
z
" transform="scale(0.015625)"/>
       </defs>
       <use xlink:href="#DejaVuSans-30"/>
       <use xlink:href="#DejaVuSans-2e" x="63.623047"/>
       <use xlink:href="#DejaVuSans-35" x="95.410156"/>
      </g>
     </g>
    </g>
    <g id="ytick_3">
     <g id="line2d_9">
      <path d="M 49.807187 189.142075 
L 406.927188 189.142075 
" clip-path="url(#p53cc4ae9cf)" style="fill: none; stroke: #cccccc; stroke-linecap: round"/>
     </g>
     <g id="text_10">
      <!-- 1.0 -->
      <g style="fill: #262626" transform="translate(22.81375 193.321215) scale(0.11 -0.11)">
       <use xlink:href="#DejaVuSans-31"/>
       <use xlink:href="#DejaVuSans-2e" x="63.623047"/>
       <use xlink:href="#DejaVuSans-30" x="95.410156"/>
      </g>
     </g>
    </g>
    <g id="ytick_4">
     <g id="line2d_10">
      <path d="M 49.807187 151.833024 
L 406.927188 151.833024 
" clip-path="url(#p53cc4ae9cf)" style="fill: none; stroke: #cccccc; stroke-linecap: round"/>
     </g>
     <g id="text_11">
      <!-- 1.5 -->
      <g style="fill: #262626" transform="translate(22.81375 156.012165) scale(0.11 -0.11)">
       <use xlink:href="#DejaVuSans-31"/>
       <use xlink:href="#DejaVuSans-2e" x="63.623047"/>
       <use xlink:href="#DejaVuSans-35" x="95.410156"/>
      </g>
     </g>
    </g>
    <g id="ytick_5">
     <g id="line2d_11">
      <path d="M 49.807187 114.523973 
L 406.927188 114.523973 
" clip-path="url(#p53cc4ae9cf)" style="fill: none; stroke: #cccccc; stroke-linecap: round"/>
     </g>
     <g id="text_12">
      <!-- 2.0 -->
      <g style="fill: #262626" transform="translate(22.81375 118.703114) scale(0.11 -0.11)">
       <use xlink:href="#DejaVuSans-32"/>
       <use xlink:href="#DejaVuSans-2e" x="63.623047"/>
       <use xlink:href="#DejaVuSans-30" x="95.410156"/>
      </g>
     </g>
    </g>
    <g id="ytick_6">
     <g id="line2d_12">
      <path d="M 49.807187 77.214923 
L 406.927188 77.214923 
" clip-path="url(#p53cc4ae9cf)" style="fill: none; stroke: #cccccc; stroke-linecap: round"/>
     </g>
     <g id="text_13">
      <!-- 2.5 -->
      <g style="fill: #262626" transform="translate(22.81375 81.394064) scale(0.11 -0.11)">
       <use xlink:href="#DejaVuSans-32"/>
       <use xlink:href="#DejaVuSans-2e" x="63.623047"/>
       <use xlink:href="#DejaVuSans-35" x="95.410156"/>
      </g>
     </g>
    </g>
    <g id="ytick_7">
     <g id="line2d_13">
      <path d="M 49.807187 39.905872 
L 406.927188 39.905872 
" clip-path="url(#p53cc4ae9cf)" style="fill: none; stroke: #cccccc; stroke-linecap: round"/>
     </g>
     <g id="text_14">
      <!-- 3.0 -->
      <g style="fill: #262626" transform="translate(22.81375 44.085013) scale(0.11 -0.11)">
       <defs>
        <path id="DejaVuSans-33" d="M 2597 2516 
Q 3050 2419 3304 2112 
Q 3559 1806 3559 1356 
Q 3559 666 3084 287 
Q 2609 -91 1734 -91 
Q 1441 -91 1130 -33 
Q 819 25 488 141 
L 488 750 
Q 750 597 1062 519 
Q 1375 441 1716 441 
Q 2309 441 2620 675 
Q 2931 909 2931 1356 
Q 2931 1769 2642 2001 
Q 2353 2234 1838 2234 
L 1294 2234 
L 1294 2753 
L 1863 2753 
Q 2328 2753 2575 2939 
Q 2822 3125 2822 3475 
Q 2822 3834 2567 4026 
Q 2313 4219 1838 4219 
Q 1578 4219 1281 4162 
Q 984 4106 628 3988 
L 628 4550 
Q 988 4650 1302 4700 
Q 1616 4750 1894 4750 
Q 2613 4750 3031 4423 
Q 3450 4097 3450 3541 
Q 3450 3153 3228 2886 
Q 3006 2619 2597 2516 
z
" transform="scale(0.015625)"/>
       </defs>
       <use xlink:href="#DejaVuSans-33"/>
       <use xlink:href="#DejaVuSans-2e" x="63.623047"/>
       <use xlink:href="#DejaVuSans-30" x="95.410156"/>
      </g>
     </g>
    </g>
    <g id="text_15">
     <!-- Loss -->
     <g style="fill: #262626" transform="translate(16.318125 153.416625) rotate(-90) scale(0.12 -0.12)">
      <defs>
       <path id="DejaVuSans-4c" d="M 628 4666 
L 1259 4666 
L 1259 531 
L 3531 531 
L 3531 0 
L 628 0 
L 628 4666 
z
" transform="scale(0.015625)"/>
       <path id="DejaVuSans-73" d="M 2834 3397 
L 2834 2853 
Q 2591 2978 2328 3040 
Q 2066 3103 1784 3103 
Q 1356 3103 1142 2972 
Q 928 2841 928 2578 
Q 928 2378 1081 2264 
Q 1234 2150 1697 2047 
L 1894 2003 
Q 2506 1872 2764 1633 
Q 3022 1394 3022 966 
Q 3022 478 2636 193 
Q 2250 -91 1575 -91 
Q 1294 -91 989 -36 
Q 684 19 347 128 
L 347 722 
Q 666 556 975 473 
Q 1284 391 1588 391 
Q 1994 391 2212 530 
Q 2431 669 2431 922 
Q 2431 1156 2273 1281 
Q 2116 1406 1581 1522 
L 1381 1569 
Q 847 1681 609 1914 
Q 372 2147 372 2553 
Q 372 3047 722 3315 
Q 1072 3584 1716 3584 
Q 2034 3584 2315 3537 
Q 2597 3491 2834 3397 
z
" transform="scale(0.015625)"/>
      </defs>
      <use xlink:href="#DejaVuSans-4c"/>
      <use xlink:href="#DejaVuSans-6f" x="53.962891"/>
      <use xlink:href="#DejaVuSans-73" x="115.144531"/>
      <use xlink:href="#DejaVuSans-73" x="167.244141"/>
     </g>
    </g>
   </g>
   <g id="PolyCollection_1">
    <defs>
     <path id="mdb26abfc71" d="M 66.039915 -239.179462 
L 66.039915 -191.623225 
L 69.319254 -148.810968 
L 72.598592 -144.981812 
L 75.877931 -121.32936 
L 79.15727 -99.728892 
L 82.436609 -94.108189 
L 85.715948 -75.434913 
L 88.995287 -74.307193 
L 92.274626 -68.35523 
L 95.553964 -64.451982 
L 98.833303 -63.425988 
L 102.112642 -62.200644 
L 105.391981 -60.985643 
L 108.67132 -61.160328 
L 111.950659 -61.857034 
L 115.229997 -61.353102 
L 118.509336 -60.897659 
L 121.788675 -59.533149 
L 125.068014 -59.763166 
L 128.347353 -58.459728 
L 131.626692 -58.691409 
L 134.90603 -58.148769 
L 138.185369 -58.13002 
L 141.464708 -58.258482 
L 144.744047 -57.531543 
L 148.023386 -57.698371 
L 151.302725 -58.162156 
L 154.582064 -57.60941 
L 157.861402 -57.863323 
L 161.140741 -57.865771 
L 164.42008 -56.703312 
L 167.699419 -56.794637 
L 170.978758 -56.813977 
L 174.258097 -56.327059 
L 177.537435 -56.511928 
L 180.816774 -56.849023 
L 184.096113 -56.601423 
L 187.375452 -56.344378 
L 190.654791 -56.556003 
L 193.93413 -56.067837 
L 197.213468 -55.865605 
L 200.492807 -55.974522 
L 203.772146 -55.721899 
L 207.051485 -55.57845 
L 210.330824 -55.765779 
L 213.610163 -55.961919 
L 216.889502 -55.843777 
L 220.16884 -55.718735 
L 223.448179 -55.624247 
L 226.727518 -55.523025 
L 230.006857 -55.64816 
L 233.286196 -55.488009 
L 236.565535 -55.557467 
L 239.844873 -55.255274 
L 243.124212 -55.232842 
L 246.403551 -55.055687 
L 249.68289 -55.078493 
L 252.962229 -55.157136 
L 256.241568 -55.122158 
L 259.520907 -55.144991 
L 262.800245 -55.361884 
L 266.079584 -55.340112 
L 269.358923 -55.460494 
L 272.638262 -55.339785 
L 275.917601 -55.168464 
L 279.19694 -55.308264 
L 282.476278 -55.18848 
L 285.755617 -55.34854 
L 289.034956 -55.16777 
L 292.314295 -57.794744 
L 295.593634 -57.639365 
L 298.872973 -57.711197 
L 302.152311 -57.434307 
L 305.43165 -57.64125 
L 308.710989 -57.920688 
L 311.990328 -57.805017 
L 315.269667 -57.455527 
L 318.549006 -57.437973 
L 321.828345 -57.385187 
L 325.107683 -57.398033 
L 328.387022 -57.243252 
L 331.666361 -57.210323 
L 334.9457 -57.532898 
L 338.225039 -58.009758 
L 341.504378 -58.053328 
L 344.783716 -57.775545 
L 348.063055 -57.678287 
L 351.342394 -57.756228 
L 354.621733 -57.920728 
L 357.901072 -57.893877 
L 361.180411 -57.694047 
L 364.459749 -57.702157 
L 367.739088 -57.864643 
L 371.018427 -57.728601 
L 374.297766 -58.066731 
L 377.577105 -57.927431 
L 380.856444 -57.572999 
L 384.135783 -57.68458 
L 387.415121 -57.653199 
L 390.69446 -57.72889 
L 390.69446 -68.622315 
L 390.69446 -68.622315 
L 387.415121 -69.4903 
L 384.135783 -68.539503 
L 380.856444 -69.0826 
L 377.577105 -69.117971 
L 374.297766 -68.829388 
L 371.018427 -69.519649 
L 367.739088 -69.021401 
L 364.459749 -68.644348 
L 361.180411 -68.6569 
L 357.901072 -68.922492 
L 354.621733 -68.742514 
L 351.342394 -69.208188 
L 348.063055 -68.654251 
L 344.783716 -68.909661 
L 341.504378 -68.823141 
L 338.225039 -68.285847 
L 334.9457 -68.198372 
L 331.666361 -67.310307 
L 328.387022 -68.059153 
L 325.107683 -68.290855 
L 321.828345 -68.077517 
L 318.549006 -67.944659 
L 315.269667 -67.977404 
L 311.990328 -68.210515 
L 308.710989 -68.436958 
L 305.43165 -68.093089 
L 302.152311 -67.795377 
L 298.872973 -67.635219 
L 295.593634 -67.613045 
L 292.314295 -67.259233 
L 289.034956 -59.125818 
L 285.755617 -59.16245 
L 282.476278 -59.58815 
L 279.19694 -58.516326 
L 275.917601 -58.865568 
L 272.638262 -58.206449 
L 269.358923 -58.329444 
L 266.079584 -57.718979 
L 262.800245 -58.14615 
L 259.520907 -57.785842 
L 256.241568 -58.782285 
L 252.962229 -58.963956 
L 249.68289 -59.557148 
L 246.403551 -58.22837 
L 243.124212 -58.644746 
L 239.844873 -58.228296 
L 236.565535 -58.977892 
L 233.286196 -59.116976 
L 230.006857 -60.290741 
L 226.727518 -60.356351 
L 223.448179 -61.791218 
L 220.16884 -61.803901 
L 216.889502 -62.13265 
L 213.610163 -62.853253 
L 210.330824 -62.772371 
L 207.051485 -59.381641 
L 203.772146 -59.223051 
L 200.492807 -60.169493 
L 197.213468 -58.98458 
L 193.93413 -59.364751 
L 190.654791 -60.489843 
L 187.375452 -62.866391 
L 184.096113 -64.011512 
L 180.816774 -62.377063 
L 177.537435 -62.873281 
L 174.258097 -64.433785 
L 170.978758 -63.683147 
L 167.699419 -67.496701 
L 164.42008 -69.024209 
L 161.140741 -69.393929 
L 157.861402 -70.02902 
L 154.582064 -64.301511 
L 151.302725 -63.650588 
L 148.023386 -61.328012 
L 144.744047 -62.765245 
L 141.464708 -62.753359 
L 138.185369 -63.807803 
L 134.90603 -62.36151 
L 131.626692 -63.829477 
L 128.347353 -64.010853 
L 125.068014 -66.373102 
L 121.788675 -63.935808 
L 118.509336 -69.733707 
L 115.229997 -69.966809 
L 111.950659 -72.398631 
L 108.67132 -67.252555 
L 105.391981 -72.793149 
L 102.112642 -70.960925 
L 98.833303 -74.147151 
L 95.553964 -73.432677 
L 92.274626 -88.461427 
L 88.995287 -104.693362 
L 85.715948 -98.896765 
L 82.436609 -130.348044 
L 79.15727 -145.794081 
L 75.877931 -173.089843 
L 72.598592 -200.349158 
L 69.319254 -192.422335 
L 66.039915 -239.179462 
z
" style="stroke: #4c72b0; stroke-opacity: 0.2"/>
    </defs>
    <g clip-path="url(#p53cc4ae9cf)">
     <use xlink:href="#mdb26abfc71" x="0" y="316.271687" style="fill: #4c72b0; fill-opacity: 0.2; stroke: #4c72b0; stroke-opacity: 0.2"/>
    </g>
   </g>
   <g id="PolyCollection_2">
    <defs>
     <path id="m184980b435" d="M 66.039915 -254.638093 
L 66.039915 -226.18854 
L 69.319254 -198.820152 
L 72.598592 -219.924312 
L 75.877931 -177.752086 
L 79.15727 -157.750286 
L 82.436609 -158.072311 
L 85.715948 -119.271135 
L 88.995287 -121.544577 
L 92.274626 -111.988541 
L 95.553964 -94.511089 
L 98.833303 -96.371738 
L 102.112642 -88.120863 
L 105.391981 -88.915256 
L 108.67132 -87.404998 
L 111.950659 -97.444457 
L 115.229997 -105.104092 
L 118.509336 -86.99777 
L 121.788675 -92.191463 
L 125.068014 -93.471697 
L 128.347353 -90.336262 
L 131.626692 -90.330846 
L 134.90603 -83.13926 
L 138.185369 -83.985797 
L 141.464708 -82.89253 
L 144.744047 -76.633926 
L 148.023386 -86.872451 
L 151.302725 -95.564534 
L 154.582064 -94.714789 
L 157.861402 -84.516801 
L 161.140741 -95.235619 
L 164.42008 -76.517647 
L 167.699419 -77.770385 
L 170.978758 -85.666618 
L 174.258097 -76.41211 
L 177.537435 -74.284812 
L 180.816774 -82.625644 
L 184.096113 -77.365534 
L 187.375452 -74.690328 
L 190.654791 -89.854001 
L 193.93413 -73.390405 
L 197.213468 -76.531638 
L 200.492807 -75.795611 
L 203.772146 -69.075865 
L 207.051485 -71.021447 
L 210.330824 -71.940776 
L 213.610163 -87.658144 
L 216.889502 -80.972911 
L 220.16884 -83.678472 
L 223.448179 -73.864481 
L 226.727518 -72.652901 
L 230.006857 -78.646634 
L 233.286196 -67.110768 
L 236.565535 -70.03514 
L 239.844873 -67.515056 
L 243.124212 -69.061521 
L 246.403551 -65.979128 
L 249.68289 -67.525562 
L 252.962229 -81.210632 
L 256.241568 -66.641448 
L 259.520907 -77.375778 
L 262.800245 -93.059807 
L 266.079584 -67.879529 
L 269.358923 -70.372499 
L 272.638262 -68.272441 
L 275.917601 -66.362295 
L 279.19694 -67.352896 
L 282.476278 -81.308547 
L 285.755617 -77.330857 
L 289.034956 -74.370764 
L 292.314295 -70.684841 
L 295.593634 -84.203588 
L 298.872973 -75.274927 
L 302.152311 -73.200995 
L 305.43165 -79.285677 
L 308.710989 -68.879193 
L 311.990328 -68.057743 
L 315.269667 -70.069117 
L 318.549006 -65.202498 
L 321.828345 -69.033722 
L 325.107683 -65.912001 
L 328.387022 -66.214646 
L 331.666361 -75.964474 
L 334.9457 -68.805899 
L 338.225039 -69.897885 
L 341.504378 -69.296308 
L 344.783716 -68.470148 
L 348.063055 -68.030584 
L 351.342394 -67.934408 
L 354.621733 -64.706629 
L 357.901072 -71.292794 
L 361.180411 -66.152427 
L 364.459749 -64.956111 
L 367.739088 -64.079233 
L 371.018427 -65.069885 
L 374.297766 -78.646558 
L 377.577105 -71.665804 
L 380.856444 -66.101925 
L 384.135783 -63.014415 
L 387.415121 -67.050935 
L 390.69446 -63.128129 
L 390.69446 -72.065696 
L 390.69446 -72.065696 
L 387.415121 -79.857855 
L 384.135783 -66.460678 
L 380.856444 -70.385958 
L 377.577105 -83.480667 
L 374.297766 -95.820113 
L 371.018427 -70.109012 
L 367.739088 -69.104904 
L 364.459749 -71.056944 
L 361.180411 -72.626666 
L 357.901072 -80.884864 
L 354.621733 -70.543365 
L 351.342394 -75.696008 
L 348.063055 -76.624956 
L 344.783716 -78.959826 
L 341.504378 -79.727111 
L 338.225039 -80.253444 
L 334.9457 -80.742499 
L 331.666361 -90.219386 
L 328.387022 -70.667201 
L 325.107683 -73.223819 
L 321.828345 -76.831656 
L 318.549006 -69.381831 
L 315.269667 -77.401103 
L 311.990328 -76.05222 
L 308.710989 -75.419724 
L 305.43165 -96.697808 
L 302.152311 -83.563395 
L 298.872973 -89.657526 
L 295.593634 -102.726586 
L 292.314295 -77.59089 
L 289.034956 -96.494658 
L 285.755617 -99.563091 
L 282.476278 -110.936135 
L 279.19694 -81.533193 
L 275.917601 -74.492903 
L 272.638262 -76.672604 
L 269.358923 -78.306025 
L 266.079584 -74.632706 
L 262.800245 -122.020356 
L 259.520907 -95.837503 
L 256.241568 -74.872676 
L 252.962229 -108.322845 
L 249.68289 -75.407504 
L 246.403551 -71.586075 
L 243.124212 -82.451277 
L 239.844873 -76.652259 
L 236.565535 -81.437821 
L 233.286196 -71.753057 
L 230.006857 -93.579452 
L 226.727518 -79.630277 
L 223.448179 -91.240964 
L 220.16884 -115.396792 
L 216.889502 -98.524713 
L 213.610163 -122.71963 
L 210.330824 -85.692628 
L 207.051485 -87.252427 
L 203.772146 -76.435038 
L 200.492807 -83.737535 
L 197.213468 -90.768364 
L 193.93413 -86.612893 
L 190.654791 -108.273168 
L 187.375452 -82.01103 
L 184.096113 -94.208185 
L 180.816774 -102.278122 
L 177.537435 -86.65467 
L 174.258097 -84.953408 
L 170.978758 -102.339621 
L 167.699419 -99.645548 
L 164.42008 -100.198087 
L 161.140741 -142.229888 
L 157.861402 -114.9387 
L 154.582064 -129.953238 
L 151.302725 -130.503839 
L 148.023386 -107.391567 
L 144.744047 -86.077946 
L 141.464708 -98.197879 
L 138.185369 -97.952544 
L 134.90603 -93.345231 
L 131.626692 -113.398836 
L 128.347353 -117.112504 
L 125.068014 -121.502004 
L 121.788675 -114.254184 
L 118.509336 -112.914848 
L 115.229997 -136.344731 
L 111.950659 -131.588474 
L 108.67132 -104.322187 
L 105.391981 -100.48088 
L 102.112642 -105.722361 
L 98.833303 -116.448037 
L 95.553964 -118.325309 
L 92.274626 -134.493478 
L 88.995287 -162.507061 
L 85.715948 -154.056485 
L 82.436609 -203.140205 
L 79.15727 -201.237154 
L 75.877931 -229.710679 
L 72.598592 -257.777377 
L 69.319254 -218.765888 
L 66.039915 -254.638093 
z
" style="stroke: #dd8452; stroke-opacity: 0.2"/>
    </defs>
    <g clip-path="url(#p53cc4ae9cf)">
     <use xlink:href="#m184980b435" x="0" y="316.271687" style="fill: #dd8452; fill-opacity: 0.2; stroke: #dd8452; stroke-opacity: 0.2"/>
    </g>
   </g>
   <g id="PolyCollection_3">
    <defs>
     <path id="m747991336c" d="M 66.039915 -227.632391 
L 66.039915 -215.326933 
L 69.319254 -203.733775 
L 72.598592 -202.646352 
L 75.877931 -196.950369 
L 79.15727 -193.320459 
L 82.436609 -183.864242 
L 85.715948 -178.720901 
L 88.995287 -171.219445 
L 92.274626 -165.998476 
L 95.553964 -165.24527 
L 98.833303 -158.828536 
L 102.112642 -156.070735 
L 105.391981 -152.879129 
L 108.67132 -147.755967 
L 111.950659 -143.280048 
L 115.229997 -138.684248 
L 118.509336 -136.731141 
L 121.788675 -132.818424 
L 125.068014 -128.428052 
L 128.347353 -126.497053 
L 131.626692 -125.478341 
L 134.90603 -124.367659 
L 138.185369 -122.443498 
L 141.464708 -121.721069 
L 144.744047 -119.706222 
L 148.023386 -120.096198 
L 151.302725 -117.347553 
L 154.582064 -116.342744 
L 157.861402 -113.483888 
L 161.140741 -114.411298 
L 164.42008 -111.482795 
L 167.699419 -111.617258 
L 170.978758 -109.327522 
L 174.258097 -108.449313 
L 177.537435 -106.044958 
L 180.816774 -104.63039 
L 184.096113 -102.870636 
L 187.375452 -101.913437 
L 190.654791 -101.258551 
L 193.93413 -101.254193 
L 197.213468 -98.425695 
L 200.492807 -99.916735 
L 203.772146 -98.244359 
L 207.051485 -98.234704 
L 210.330824 -96.748366 
L 213.610163 -95.92778 
L 216.889502 -93.997986 
L 220.16884 -94.302189 
L 223.448179 -93.08706 
L 226.727518 -93.637189 
L 230.006857 -92.51752 
L 233.286196 -90.415648 
L 236.565535 -90.662459 
L 239.844873 -90.544754 
L 243.124212 -89.618311 
L 246.403551 -88.768855 
L 249.68289 -87.763863 
L 252.962229 -87.699717 
L 256.241568 -86.206541 
L 259.520907 -84.686345 
L 262.800245 -84.157038 
L 266.079584 -84.01175 
L 269.358923 -82.57059 
L 272.638262 -82.720846 
L 275.917601 -83.197094 
L 279.19694 -81.793067 
L 282.476278 -80.820187 
L 285.755617 -79.970182 
L 289.034956 -79.83765 
L 292.314295 -106.966505 
L 295.593634 -106.676624 
L 298.872973 -107.13048 
L 302.152311 -105.500911 
L 305.43165 -107.772497 
L 308.710989 -106.049751 
L 311.990328 -104.412278 
L 315.269667 -106.713597 
L 318.549006 -105.610945 
L 321.828345 -106.174486 
L 325.107683 -104.9771 
L 328.387022 -105.155355 
L 331.666361 -105.161712 
L 334.9457 -105.08468 
L 338.225039 -104.583099 
L 341.504378 -104.555009 
L 344.783716 -103.383014 
L 348.063055 -104.602803 
L 351.342394 -104.087745 
L 354.621733 -103.233646 
L 357.901072 -101.414598 
L 361.180411 -102.287461 
L 364.459749 -102.727847 
L 367.739088 -102.030772 
L 371.018427 -101.140298 
L 374.297766 -101.342126 
L 377.577105 -102.16413 
L 380.856444 -100.337783 
L 384.135783 -100.820609 
L 387.415121 -101.243445 
L 390.69446 -100.408915 
L 390.69446 -136.483462 
L 390.69446 -136.483462 
L 387.415121 -136.62435 
L 384.135783 -135.93244 
L 380.856444 -136.165358 
L 377.577105 -138.016198 
L 374.297766 -137.570124 
L 371.018427 -136.874722 
L 367.739088 -135.968726 
L 364.459749 -136.487853 
L 361.180411 -137.167707 
L 357.901072 -136.557026 
L 354.621733 -137.43993 
L 351.342394 -138.630171 
L 348.063055 -139.538067 
L 344.783716 -138.831488 
L 341.504378 -139.136903 
L 338.225039 -139.420868 
L 334.9457 -138.893241 
L 331.666361 -140.82792 
L 328.387022 -140.138686 
L 325.107683 -139.560566 
L 321.828345 -140.210809 
L 318.549006 -139.114613 
L 315.269667 -139.024119 
L 311.990328 -139.723021 
L 308.710989 -140.885418 
L 305.43165 -141.70124 
L 302.152311 -143.242371 
L 298.872973 -142.055353 
L 295.593634 -141.278706 
L 292.314295 -143.246942 
L 289.034956 -110.094517 
L 285.755617 -109.111682 
L 282.476278 -111.15238 
L 279.19694 -111.116322 
L 275.917601 -110.939992 
L 272.638262 -113.109554 
L 269.358923 -113.172146 
L 266.079584 -111.849155 
L 262.800245 -113.618358 
L 259.520907 -113.488155 
L 256.241568 -115.393676 
L 252.962229 -117.455098 
L 249.68289 -117.59099 
L 246.403551 -116.904636 
L 243.124212 -119.010751 
L 239.844873 -120.437235 
L 236.565535 -121.566616 
L 233.286196 -122.56649 
L 230.006857 -123.550654 
L 226.727518 -125.568758 
L 223.448179 -124.620994 
L 220.16884 -125.586647 
L 216.889502 -125.474237 
L 213.610163 -126.714135 
L 210.330824 -129.210358 
L 207.051485 -130.703444 
L 203.772146 -131.475128 
L 200.492807 -132.494445 
L 197.213468 -132.636021 
L 193.93413 -132.001054 
L 190.654791 -132.714165 
L 187.375452 -135.736824 
L 184.096113 -136.560963 
L 180.816774 -138.302837 
L 177.537435 -140.16246 
L 174.258097 -142.792101 
L 170.978758 -142.893391 
L 167.699419 -144.469177 
L 164.42008 -146.34243 
L 161.140741 -146.954268 
L 157.861402 -149.125614 
L 154.582064 -148.795625 
L 151.302725 -151.051897 
L 148.023386 -152.853689 
L 144.744047 -153.463883 
L 141.464708 -154.300305 
L 138.185369 -156.97373 
L 134.90603 -157.554732 
L 131.626692 -160.361497 
L 128.347353 -160.698243 
L 125.068014 -162.587048 
L 121.788675 -166.945956 
L 118.509336 -170.811013 
L 115.229997 -172.199196 
L 111.950659 -177.938451 
L 108.67132 -180.302033 
L 105.391981 -185.850786 
L 102.112642 -192.595344 
L 98.833303 -193.282692 
L 95.553964 -198.677812 
L 92.274626 -200.706126 
L 88.995287 -206.186703 
L 85.715948 -210.530877 
L 82.436609 -213.979754 
L 79.15727 -220.393183 
L 75.877931 -220.857944 
L 72.598592 -224.79341 
L 69.319254 -226.579778 
L 66.039915 -227.632391 
z
" style="stroke: #55a868; stroke-opacity: 0.2"/>
    </defs>
    <g clip-path="url(#p53cc4ae9cf)">
     <use xlink:href="#m747991336c" x="0" y="316.271687" style="fill: #55a868; fill-opacity: 0.2; stroke: #55a868; stroke-opacity: 0.2"/>
    </g>
   </g>
   <g id="PolyCollection_4">
    <defs>
     <path id="m7928fdd1ab" d="M 66.039915 -296.975687 
L 66.039915 -197.474404 
L 69.319254 -166.017061 
L 72.598592 -155.017038 
L 75.877931 -137.318619 
L 79.15727 -132.293969 
L 82.436609 -122.622881 
L 85.715948 -116.619893 
L 88.995287 -105.482146 
L 92.274626 -96.76628 
L 95.553964 -93.133713 
L 98.833303 -86.339008 
L 102.112642 -85.232639 
L 105.391981 -82.583234 
L 108.67132 -79.406847 
L 111.950659 -79.021408 
L 115.229997 -75.358469 
L 118.509336 -74.4229 
L 121.788675 -72.224716 
L 125.068014 -73.18691 
L 128.347353 -71.44203 
L 131.626692 -70.329485 
L 134.90603 -67.290356 
L 138.185369 -66.458621 
L 141.464708 -66.532995 
L 144.744047 -65.74123 
L 148.023386 -65.027469 
L 151.302725 -64.214526 
L 154.582064 -64.394413 
L 157.861402 -63.527769 
L 161.140741 -63.474069 
L 164.42008 -63.074918 
L 167.699419 -62.431736 
L 170.978758 -61.95344 
L 174.258097 -62.097654 
L 177.537435 -61.572747 
L 180.816774 -62.003055 
L 184.096113 -61.326922 
L 187.375452 -60.970052 
L 190.654791 -61.465906 
L 193.93413 -60.761587 
L 197.213468 -60.611398 
L 200.492807 -61.999705 
L 203.772146 -61.245287 
L 207.051485 -60.494469 
L 210.330824 -60.757618 
L 213.610163 -60.342438 
L 216.889502 -60.927681 
L 220.16884 -60.473927 
L 223.448179 -60.230728 
L 226.727518 -59.666196 
L 230.006857 -59.674532 
L 233.286196 -59.658994 
L 236.565535 -59.2286 
L 239.844873 -59.235691 
L 243.124212 -58.687407 
L 246.403551 -58.850826 
L 249.68289 -58.986997 
L 252.962229 -58.786283 
L 256.241568 -58.462379 
L 259.520907 -58.425857 
L 262.800245 -58.152967 
L 266.079584 -57.795083 
L 269.358923 -57.851707 
L 272.638262 -57.607334 
L 275.917601 -57.72462 
L 279.19694 -57.787511 
L 282.476278 -57.492279 
L 285.755617 -57.404796 
L 289.034956 -57.583714 
L 292.314295 -68.897447 
L 295.593634 -68.672602 
L 298.872973 -68.669187 
L 302.152311 -68.356316 
L 305.43165 -67.847657 
L 308.710989 -68.525206 
L 311.990328 -68.051082 
L 315.269667 -67.608044 
L 318.549006 -68.296892 
L 321.828345 -67.717662 
L 325.107683 -67.794334 
L 328.387022 -67.919797 
L 331.666361 -67.845892 
L 334.9457 -67.977787 
L 338.225039 -68.196263 
L 341.504378 -67.47264 
L 344.783716 -67.399575 
L 348.063055 -67.166541 
L 351.342394 -67.826087 
L 354.621733 -66.740516 
L 357.901072 -67.603285 
L 361.180411 -67.550036 
L 364.459749 -67.746028 
L 367.739088 -68.187164 
L 371.018427 -67.594969 
L 374.297766 -67.358969 
L 377.577105 -67.41088 
L 380.856444 -67.349824 
L 384.135783 -67.925405 
L 387.415121 -67.060969 
L 390.69446 -68.096196 
L 390.69446 -89.412225 
L 390.69446 -89.412225 
L 387.415121 -88.381815 
L 384.135783 -89.604244 
L 380.856444 -89.107649 
L 377.577105 -88.798722 
L 374.297766 -88.959026 
L 371.018427 -88.803051 
L 367.739088 -88.851484 
L 364.459749 -89.095512 
L 361.180411 -88.201732 
L 357.901072 -87.310036 
L 354.621733 -88.614881 
L 351.342394 -88.477904 
L 348.063055 -89.399161 
L 344.783716 -89.949781 
L 341.504378 -88.786055 
L 338.225039 -88.642785 
L 334.9457 -88.593633 
L 331.666361 -88.668278 
L 328.387022 -90.193393 
L 325.107683 -89.636779 
L 321.828345 -88.191438 
L 318.549006 -89.883833 
L 315.269667 -88.988749 
L 311.990328 -89.903444 
L 308.710989 -89.892882 
L 305.43165 -88.60518 
L 302.152311 -89.033182 
L 298.872973 -89.013223 
L 295.593634 -88.454021 
L 292.314295 -90.014276 
L 289.034956 -69.533745 
L 285.755617 -68.637955 
L 282.476278 -68.860126 
L 279.19694 -69.821427 
L 275.917601 -68.954307 
L 272.638262 -69.107332 
L 269.358923 -69.851564 
L 266.079584 -75.617797 
L 262.800245 -74.811597 
L 259.520907 -76.346926 
L 256.241568 -76.110668 
L 252.962229 -74.928667 
L 249.68289 -75.138037 
L 246.403551 -75.763617 
L 243.124212 -76.73388 
L 239.844873 -77.44291 
L 236.565535 -77.553987 
L 233.286196 -77.400098 
L 230.006857 -78.824267 
L 226.727518 -78.185089 
L 223.448179 -80.145246 
L 220.16884 -80.009727 
L 216.889502 -80.766085 
L 213.610163 -82.015763 
L 210.330824 -79.621468 
L 207.051485 -81.212139 
L 203.772146 -81.523669 
L 200.492807 -81.56317 
L 197.213468 -79.860749 
L 193.93413 -80.372634 
L 190.654791 -80.960173 
L 187.375452 -83.018725 
L 184.096113 -83.496831 
L 180.816774 -86.496342 
L 177.537435 -86.800985 
L 174.258097 -85.573649 
L 170.978758 -85.53023 
L 167.699419 -87.360023 
L 164.42008 -88.008757 
L 161.140741 -90.26081 
L 157.861402 -90.012197 
L 154.582064 -91.524484 
L 151.302725 -93.106438 
L 148.023386 -92.344852 
L 144.744047 -92.116589 
L 141.464708 -92.807625 
L 138.185369 -94.785757 
L 134.90603 -95.129183 
L 131.626692 -98.660897 
L 128.347353 -100.166329 
L 125.068014 -103.917731 
L 121.788675 -103.179131 
L 118.509336 -104.784588 
L 115.229997 -106.772316 
L 111.950659 -112.392978 
L 108.67132 -114.291564 
L 105.391981 -115.498342 
L 102.112642 -123.313942 
L 98.833303 -126.822029 
L 95.553964 -134.89285 
L 92.274626 -139.353244 
L 88.995287 -152.179662 
L 85.715948 -166.873563 
L 82.436609 -171.862807 
L 79.15727 -176.045679 
L 75.877931 -189.242568 
L 72.598592 -207.345729 
L 69.319254 -208.899869 
L 66.039915 -296.975687 
z
" style="stroke: #c44e52; stroke-opacity: 0.2"/>
    </defs>
    <g clip-path="url(#p53cc4ae9cf)">
     <use xlink:href="#m7928fdd1ab" x="0" y="316.271687" style="fill: #c44e52; fill-opacity: 0.2; stroke: #c44e52; stroke-opacity: 0.2"/>
    </g>
   </g>
   <g id="PolyCollection_5">
    <defs>
     <path id="m3d442cea02" d="M 66.039915 -221.338455 
L 66.039915 -198.092514 
L 69.319254 -188.028033 
L 72.598592 -194.908655 
L 75.877931 -189.5778 
L 79.15727 -202.137213 
L 82.436609 -182.813092 
L 85.715948 -151.999004 
L 88.995287 -163.188347 
L 92.274626 -169.228216 
L 95.553964 -171.18138 
L 98.833303 -157.609018 
L 102.112642 -126.470332 
L 105.391981 -123.143448 
L 108.67132 -113.670276 
L 111.950659 -108.009769 
L 115.229997 -106.720372 
L 118.509336 -99.788139 
L 121.788675 -92.409759 
L 125.068014 -88.92706 
L 128.347353 -85.268104 
L 131.626692 -83.398544 
L 134.90603 -78.359614 
L 138.185369 -77.16439 
L 141.464708 -76.439167 
L 144.744047 -74.648087 
L 148.023386 -73.075205 
L 151.302725 -71.018206 
L 154.582064 -69.132759 
L 157.861402 -71.073099 
L 161.140741 -69.220214 
L 164.42008 -67.49377 
L 167.699419 -65.970639 
L 170.978758 -65.613632 
L 174.258097 -64.862752 
L 177.537435 -64.150913 
L 180.816774 -63.495915 
L 184.096113 -63.261384 
L 187.375452 -62.950867 
L 190.654791 -62.761357 
L 193.93413 -61.499718 
L 197.213468 -61.630555 
L 200.492807 -61.380701 
L 203.772146 -61.272877 
L 207.051485 -60.930276 
L 210.330824 -60.44329 
L 213.610163 -60.248016 
L 216.889502 -60.418681 
L 220.16884 -59.40648 
L 223.448179 -59.454664 
L 226.727518 -59.245478 
L 230.006857 -58.654147 
L 233.286196 -58.603612 
L 236.565535 -58.349527 
L 239.844873 -58.028155 
L 243.124212 -57.925084 
L 246.403551 -57.596021 
L 249.68289 -57.723273 
L 252.962229 -57.580896 
L 256.241568 -57.659739 
L 259.520907 -57.579119 
L 262.800245 -57.248797 
L 266.079584 -57.115438 
L 269.358923 -57.120739 
L 272.638262 -57.125662 
L 275.917601 -57.147331 
L 279.19694 -56.682873 
L 282.476278 -56.874774 
L 285.755617 -56.684483 
L 289.034956 -56.746504 
L 292.314295 -73.05616 
L 295.593634 -72.824546 
L 298.872973 -73.855569 
L 302.152311 -73.465618 
L 305.43165 -73.211268 
L 308.710989 -72.707441 
L 311.990328 -72.53359 
L 315.269667 -73.624969 
L 318.549006 -73.087293 
L 321.828345 -73.577412 
L 325.107683 -73.346548 
L 328.387022 -73.096508 
L 331.666361 -72.60867 
L 334.9457 -72.915225 
L 338.225039 -73.570003 
L 341.504378 -72.09326 
L 344.783716 -72.89235 
L 348.063055 -72.753323 
L 351.342394 -72.761491 
L 354.621733 -71.527939 
L 357.901072 -72.106485 
L 361.180411 -71.806768 
L 364.459749 -71.691493 
L 367.739088 -72.720104 
L 371.018427 -72.863498 
L 374.297766 -72.655265 
L 377.577105 -72.005099 
L 380.856444 -72.110667 
L 384.135783 -72.489399 
L 387.415121 -72.08584 
L 390.69446 -72.032225 
L 390.69446 -97.210838 
L 390.69446 -97.210838 
L 387.415121 -97.993757 
L 384.135783 -97.921732 
L 380.856444 -98.267292 
L 377.577105 -97.995933 
L 374.297766 -97.60547 
L 371.018427 -98.580532 
L 367.739088 -97.924486 
L 364.459749 -97.490812 
L 361.180411 -99.007979 
L 357.901072 -98.702898 
L 354.621733 -97.039611 
L 351.342394 -99.22491 
L 348.063055 -98.300982 
L 344.783716 -97.400746 
L 341.504378 -99.707981 
L 338.225039 -99.011832 
L 334.9457 -98.169215 
L 331.666361 -98.495483 
L 328.387022 -98.725122 
L 325.107683 -100.004866 
L 321.828345 -98.700602 
L 318.549006 -98.612385 
L 315.269667 -98.599283 
L 311.990328 -99.185125 
L 308.710989 -97.902697 
L 305.43165 -98.436026 
L 302.152311 -98.481665 
L 298.872973 -99.600959 
L 295.593634 -98.689196 
L 292.314295 -99.942367 
L 289.034956 -63.558729 
L 285.755617 -64.072655 
L 282.476278 -64.233533 
L 279.19694 -63.294013 
L 275.917601 -63.752329 
L 272.638262 -65.407308 
L 269.358923 -64.838535 
L 266.079584 -65.60187 
L 262.800245 -66.113625 
L 259.520907 -66.407087 
L 256.241568 -66.43878 
L 252.962229 -66.422823 
L 249.68289 -66.462913 
L 246.403551 -67.732732 
L 243.124212 -66.688242 
L 239.844873 -67.314659 
L 236.565535 -68.510926 
L 233.286196 -69.179397 
L 230.006857 -69.936106 
L 226.727518 -70.730938 
L 223.448179 -71.2194 
L 220.16884 -71.32829 
L 216.889502 -72.550534 
L 213.610163 -72.258207 
L 210.330824 -70.963827 
L 207.051485 -75.615104 
L 203.772146 -75.086223 
L 200.492807 -76.499451 
L 197.213468 -79.650876 
L 193.93413 -78.975629 
L 190.654791 -79.805736 
L 187.375452 -81.505919 
L 184.096113 -81.527551 
L 180.816774 -86.7409 
L 177.537435 -86.328065 
L 174.258097 -86.835337 
L 170.978758 -88.580415 
L 167.699419 -89.716088 
L 164.42008 -88.969038 
L 161.140741 -87.399771 
L 157.861402 -88.949047 
L 154.582064 -93.821366 
L 151.302725 -96.508256 
L 148.023386 -99.246412 
L 144.744047 -101.372135 
L 141.464708 -102.26319 
L 138.185369 -101.059563 
L 134.90603 -100.682524 
L 131.626692 -109.900721 
L 128.347353 -112.784244 
L 125.068014 -121.802981 
L 121.788675 -122.660914 
L 118.509336 -127.429642 
L 115.229997 -132.289208 
L 111.950659 -138.778237 
L 108.67132 -141.309055 
L 105.391981 -146.544955 
L 102.112642 -153.938506 
L 98.833303 -174.98142 
L 95.553964 -187.225933 
L 92.274626 -187.580215 
L 88.995287 -185.801287 
L 85.715948 -182.187003 
L 82.436609 -200.364544 
L 79.15727 -211.431405 
L 75.877931 -207.688466 
L 72.598592 -212.591474 
L 69.319254 -210.484483 
L 66.039915 -221.338455 
z
" style="stroke: #8172b3; stroke-opacity: 0.2"/>
    </defs>
    <g clip-path="url(#p53cc4ae9cf)">
     <use xlink:href="#m3d442cea02" x="0" y="316.271687" style="fill: #8172b3; fill-opacity: 0.2; stroke: #8172b3; stroke-opacity: 0.2"/>
    </g>
   </g>
   <g id="line2d_14">
    <path d="M 66.039915 100.442375 
L 69.319254 144.554952 
L 72.598592 142.428009 
L 75.877931 169.421754 
L 79.15727 194.022897 
L 82.436609 205.357283 
L 85.715948 229.841204 
L 88.995287 228.483585 
L 92.274626 238.486962 
L 95.553964 247.684217 
L 98.833303 247.960255 
L 102.112642 250.267901 
L 105.391981 250.696379 
L 108.67132 252.433828 
L 111.950659 249.823296 
L 115.229997 250.922779 
L 118.509336 251.527545 
L 121.788675 254.69324 
L 125.068014 253.43226 
L 128.347353 255.312257 
L 131.626692 255.223792 
L 134.90603 256.145201 
L 138.185369 255.672624 
L 141.464708 256.086402 
L 144.744047 256.585838 
L 148.023386 256.892332 
L 151.302725 255.616964 
L 154.582064 255.957719 
L 157.861402 253.772685 
L 161.140741 253.978533 
L 164.42008 255.323463 
L 167.699419 255.474066 
L 170.978758 256.808934 
L 174.258097 256.839222 
L 177.537435 257.136892 
L 180.816774 256.901696 
L 184.096113 256.593892 
L 187.375452 257.402526 
L 190.654791 258.024082 
L 193.93413 258.624923 
L 197.213468 259.011093 
L 200.492807 258.463586 
L 203.772146 258.923195 
L 207.051485 258.984258 
L 210.330824 257.650026 
L 213.610163 257.74641 
L 216.889502 257.973823 
L 220.16884 258.085338 
L 223.448179 258.207471 
L 226.727518 258.774029 
L 230.006857 258.732667 
L 233.286196 259.179166 
L 236.565535 259.227 
L 239.844873 259.704724 
L 243.124212 259.644853 
L 246.403551 259.862234 
L 249.68289 259.417265 
L 252.962229 259.540377 
L 256.241568 259.462406 
L 259.520907 259.885504 
L 262.800245 259.552066 
L 266.079584 259.794515 
L 269.358923 259.540496 
L 272.638262 259.611206 
L 275.917601 259.526764 
L 279.19694 259.507186 
L 282.476278 259.341016 
L 285.755617 259.372276 
L 289.034956 259.440466 
L 292.314295 254.269871 
L 295.593634 254.459052 
L 298.872973 254.209542 
L 302.152311 254.469388 
L 305.43165 254.252151 
L 308.710989 253.806303 
L 311.990328 253.956407 
L 315.269667 254.278578 
L 318.549006 254.489145 
L 321.828345 254.39223 
L 325.107683 254.326918 
L 328.387022 254.479 
L 331.666361 254.262291 
L 334.9457 254.151857 
L 338.225039 253.759484 
L 341.504378 253.684504 
L 344.783716 253.739493 
L 348.063055 253.873529 
L 351.342394 253.585593 
L 354.621733 253.741602 
L 357.901072 253.561665 
L 361.180411 253.80326 
L 364.459749 253.713939 
L 367.739088 253.667908 
L 371.018427 253.651564 
L 374.297766 253.582221 
L 377.577105 253.637815 
L 380.856444 253.874531 
L 384.135783 253.842006 
L 387.415121 253.737528 
L 390.69446 253.742158 
" clip-path="url(#p53cc4ae9cf)" style="fill: none; stroke: #4c72b0; stroke-width: 1.5; stroke-linecap: round"/>
   </g>
   <g id="line2d_15">
    <path d="M 66.039915 76.952785 
L 69.319254 107.322506 
L 72.598592 77.307492 
L 75.877931 111.261188 
L 79.15727 137.88087 
L 82.436609 135.869211 
L 85.715948 179.986916 
L 88.995287 175.600127 
L 92.274626 193.509455 
L 95.553964 211.140848 
L 98.833303 209.875456 
L 102.112642 219.558246 
L 105.391981 221.574089 
L 108.67132 221.047578 
L 111.950659 202.299319 
L 115.229997 197.113528 
L 118.509336 217.593338 
L 121.788675 213.800493 
L 125.068014 209.101131 
L 128.347353 214.008682 
L 131.626692 214.602114 
L 134.90603 228.27631 
L 138.185369 225.599919 
L 141.464708 225.79909 
L 144.744047 235.338577 
L 148.023386 219.466245 
L 151.302725 204.532818 
L 154.582064 205.282442 
L 157.861402 217.151462 
L 161.140741 198.619853 
L 164.42008 228.940708 
L 167.699419 228.698282 
L 170.978758 222.226266 
L 174.258097 235.611692 
L 177.537435 235.86835 
L 180.816774 223.784518 
L 184.096113 231.301623 
L 187.375452 237.876109 
L 190.654791 217.946183 
L 193.93413 236.538595 
L 197.213468 232.965245 
L 200.492807 236.497555 
L 203.772146 243.741554 
L 207.051485 237.536359 
L 210.330824 238.326678 
L 213.610163 211.820682 
L 216.889502 226.754755 
L 220.16884 217.831423 
L 223.448179 234.484732 
L 226.727518 240.206821 
L 230.006857 230.300103 
L 233.286196 246.938586 
L 236.565535 241.118924 
L 239.844873 244.461163 
L 243.124212 241.176581 
L 246.403551 247.543787 
L 249.68289 244.955552 
L 252.962229 222.754326 
L 256.241568 245.667409 
L 259.520907 230.429462 
L 262.800245 209.901142 
L 266.079584 245.143735 
L 269.358923 242.061579 
L 272.638262 244.192123 
L 275.917601 246.216385 
L 279.19694 242.446682 
L 282.476278 220.742 
L 285.755617 228.000134 
L 289.034956 231.131249 
L 292.314295 242.1935 
L 295.593634 223.118549 
L 298.872973 234.254712 
L 302.152311 238.179164 
L 305.43165 228.682777 
L 308.710989 244.19692 
L 311.990328 244.350647 
L 315.269667 242.75286 
L 318.549006 248.929444 
L 321.828345 243.341072 
L 325.107683 246.829344 
L 328.387022 247.853882 
L 331.666361 233.692742 
L 334.9457 241.730374 
L 338.225039 241.429822 
L 341.504378 242.120357 
L 344.783716 242.778015 
L 348.063055 244.254899 
L 351.342394 244.709957 
L 354.621733 248.863998 
L 357.901072 240.437041 
L 361.180411 246.939272 
L 364.459749 248.324208 
L 367.739088 249.751545 
L 371.018427 248.756343 
L 374.297766 229.272673 
L 377.577105 239.317715 
L 380.856444 248.026879 
L 384.135783 251.598716 
L 387.415121 243.309197 
L 390.69446 248.90057 
" clip-path="url(#p53cc4ae9cf)" style="fill: none; stroke: #dd8452; stroke-width: 1.5; stroke-linecap: round"/>
   </g>
   <g id="line2d_16">
    <path d="M 66.039915 93.934923 
L 69.319254 100.485029 
L 72.598592 101.886184 
L 75.877931 106.686159 
L 79.15727 109.203782 
L 82.436609 117.250261 
L 85.715948 122.222895 
L 88.995287 128.015038 
L 92.274626 132.23644 
L 95.553964 134.869359 
L 98.833303 140.991118 
L 102.112642 142.542404 
L 105.391981 147.350876 
L 108.67132 152.587438 
L 111.950659 156.576787 
L 115.229997 160.045732 
L 118.509336 162.530459 
L 121.788675 166.943634 
L 125.068014 170.269836 
L 128.347353 173.144108 
L 131.626692 175.179687 
L 134.90603 175.780792 
L 138.185369 176.831675 
L 141.464708 178.900314 
L 144.744047 180.208318 
L 148.023386 180.403112 
L 151.302725 181.557698 
L 154.582064 183.911454 
L 157.861402 185.000798 
L 161.140741 186.399633 
L 164.42008 188.352135 
L 167.699419 189.156127 
L 170.978758 190.843643 
L 174.258097 191.480717 
L 177.537435 193.610035 
L 180.816774 195.850822 
L 184.096113 196.905538 
L 187.375452 197.952195 
L 190.654791 199.344456 
L 193.93413 200.255735 
L 197.213468 200.90249 
L 200.492807 201.240232 
L 203.772146 202.072395 
L 207.051485 202.583586 
L 210.330824 203.724112 
L 213.610163 205.449018 
L 216.889502 206.409317 
L 220.16884 207.171729 
L 223.448179 208.003381 
L 226.727518 208.03505 
L 230.006857 209.189522 
L 233.286196 210.437207 
L 236.565535 211.273289 
L 239.844873 211.734799 
L 243.124212 212.891249 
L 246.403551 213.604961 
L 249.68289 214.431635 
L 252.962229 214.429791 
L 256.241568 215.737225 
L 259.520907 217.426185 
L 262.800245 217.863663 
L 266.079584 218.249675 
L 269.358923 219.196507 
L 272.638262 219.243895 
L 275.917601 219.795411 
L 279.19694 220.876637 
L 282.476278 221.592167 
L 285.755617 222.498392 
L 289.034956 222.512184 
L 292.314295 192.314489 
L 295.593634 192.188018 
L 298.872973 192.314657 
L 302.152311 192.451289 
L 305.43165 192.599957 
L 308.710989 193.009778 
L 311.990328 193.072482 
L 315.269667 193.716376 
L 318.549006 193.709297 
L 321.828345 193.499918 
L 325.107683 194.077369 
L 328.387022 194.225128 
L 331.666361 193.893328 
L 334.9457 194.339131 
L 338.225039 194.935477 
L 341.504378 195.303055 
L 344.783716 195.308436 
L 348.063055 195.449426 
L 351.342394 195.159296 
L 354.621733 196.243522 
L 357.901072 196.503338 
L 361.180411 196.501396 
L 364.459749 196.536604 
L 367.739088 197.148238 
L 371.018427 197.143457 
L 374.297766 196.996692 
L 377.577105 196.734453 
L 380.856444 198.025326 
L 384.135783 198.368479 
L 387.415121 198.277803 
L 390.69446 198.55355 
" clip-path="url(#p53cc4ae9cf)" style="fill: none; stroke: #55a868; stroke-width: 1.5; stroke-linecap: round"/>
   </g>
   <g id="line2d_17">
    <path d="M 66.039915 76.151349 
L 69.319254 128.164513 
L 72.598592 136.193206 
L 75.877931 153.570864 
L 79.15727 161.467351 
L 82.436609 170.051773 
L 85.715948 176.730609 
L 88.995287 187.540797 
L 92.274626 199.573486 
L 95.553964 203.595301 
L 98.833303 210.383867 
L 102.112642 213.062394 
L 105.391981 218.246601 
L 108.67132 220.322092 
L 111.950659 221.324614 
L 115.229997 226.785811 
L 118.509336 228.164931 
L 121.788675 229.169466 
L 125.068014 229.452752 
L 128.347353 232.374865 
L 131.626692 233.517943 
L 134.90603 236.401888 
L 138.185369 237.562754 
L 141.464708 237.955446 
L 144.744047 239.083324 
L 148.023386 239.33288 
L 151.302725 239.965788 
L 154.582064 240.952864 
L 157.861402 241.107083 
L 161.140741 241.711921 
L 164.42008 242.409929 
L 167.699419 242.853378 
L 170.978758 243.803069 
L 174.258097 243.790473 
L 177.537435 243.796053 
L 180.816774 244.071052 
L 184.096113 244.665356 
L 187.375452 245.235157 
L 190.654791 246.226213 
L 193.93413 246.980776 
L 197.213468 247.009249 
L 200.492807 246.40543 
L 203.772146 246.403753 
L 207.051485 246.667074 
L 210.330824 247.461191 
L 213.610163 246.588539 
L 216.889502 247.158455 
L 220.16884 247.36881 
L 223.448179 247.869309 
L 226.727518 248.836297 
L 230.006857 248.528019 
L 233.286196 249.34027 
L 236.565535 249.759861 
L 239.844873 249.962882 
L 243.124212 250.484821 
L 246.403551 250.802533 
L 249.68289 250.726511 
L 252.962229 250.992134 
L 256.241568 251.10811 
L 259.520907 251.218673 
L 262.800245 251.675692 
L 266.079584 251.975431 
L 269.358923 253.636497 
L 272.638262 253.943191 
L 275.917601 254.104138 
L 279.19694 253.724495 
L 282.476278 254.149973 
L 285.755617 254.288019 
L 289.034956 254.043211 
L 292.314295 237.429728 
L 295.593634 238.735969 
L 298.872973 238.761318 
L 302.152311 238.815934 
L 305.43165 238.825334 
L 308.710989 238.585131 
L 311.990328 238.465226 
L 315.269667 238.595369 
L 318.549006 238.832204 
L 321.828345 239.000491 
L 325.107683 239.12353 
L 328.387022 239.088374 
L 331.666361 239.082813 
L 334.9457 239.14385 
L 338.225039 238.837245 
L 341.504378 238.951026 
L 344.783716 239.192972 
L 348.063055 239.179606 
L 351.342394 238.961735 
L 354.621733 239.262704 
L 357.901072 239.347607 
L 361.180411 239.180474 
L 364.459749 239.134652 
L 367.739088 239.178971 
L 371.018427 239.301425 
L 374.297766 239.268373 
L 377.577105 239.173238 
L 380.856444 239.079601 
L 384.135783 239.249664 
L 387.415121 239.367089 
L 390.69446 239.170982 
" clip-path="url(#p53cc4ae9cf)" style="fill: none; stroke: #c44e52; stroke-width: 1.5; stroke-linecap: round"/>
   </g>
   <g id="line2d_18">
    <path d="M 66.039915 105.530544 
L 69.319254 116.618088 
L 72.598592 111.842372 
L 75.877931 117.322283 
L 79.15727 109.417088 
L 82.436609 124.195671 
L 85.715948 149.309285 
L 88.995287 142.17192 
L 92.274626 137.54158 
L 95.553964 137.244226 
L 98.833303 150.131823 
L 102.112642 175.974275 
L 105.391981 182.079203 
L 108.67132 189.558233 
L 111.950659 193.775278 
L 115.229997 197.449386 
L 118.509336 203.549191 
L 121.788675 209.187634 
L 125.068014 211.969055 
L 128.347353 217.492732 
L 131.626692 220.132484 
L 134.90603 227.124129 
L 138.185369 228.203431 
L 141.464708 228.5243 
L 144.744047 230.157908 
L 148.023386 231.685791 
L 151.302725 234.234059 
L 154.582064 236.976579 
L 157.861402 237.297045 
L 161.140741 238.970568 
L 164.42008 239.53778 
L 167.699419 240.272092 
L 170.978758 241.275038 
L 174.258097 242.02435 
L 177.537435 242.985044 
L 180.816774 243.157037 
L 184.096113 245.131044 
L 187.375452 245.519713 
L 190.654791 246.361079 
L 193.93413 247.347934 
L 197.213468 247.431509 
L 200.492807 248.306854 
L 203.772146 248.842437 
L 207.051485 249.364432 
L 210.330824 251.083399 
L 213.610163 250.586761 
L 216.889502 250.541595 
L 220.16884 251.464595 
L 223.448179 251.947871 
L 226.727518 252.158026 
L 230.006857 252.902861 
L 233.286196 253.509361 
L 236.565535 253.816184 
L 239.844873 254.556744 
L 243.124212 254.756464 
L 246.403551 254.713958 
L 249.68289 255.027395 
L 252.962229 255.041974 
L 256.241568 254.982151 
L 259.520907 255.272735 
L 262.800245 255.220542 
L 266.079584 255.578169 
L 269.358923 255.922051 
L 272.638262 255.893703 
L 275.917601 256.401381 
L 279.19694 256.528097 
L 282.476278 256.259563 
L 285.755617 256.393247 
L 289.034956 256.675414 
L 292.314295 230.535332 
L 295.593634 231.087675 
L 298.872973 231.005081 
L 302.152311 231.357919 
L 305.43165 231.251258 
L 308.710989 231.203066 
L 311.990328 231.102093 
L 315.269667 230.931462 
L 318.549006 230.824241 
L 321.828345 230.753027 
L 325.107683 230.746608 
L 328.387022 230.905629 
L 331.666361 231.044472 
L 334.9457 231.149203 
L 338.225039 230.990598 
L 341.504378 231.225413 
L 344.783716 231.526522 
L 348.063055 231.399858 
L 351.342394 231.469482 
L 354.621733 231.651025 
L 357.901072 231.571047 
L 361.180411 231.669162 
L 364.459749 231.837026 
L 367.739088 231.7434 
L 371.018427 231.780299 
L 374.297766 231.686454 
L 377.577105 231.586692 
L 380.856444 231.642015 
L 384.135783 231.879875 
L 387.415121 231.813921 
L 390.69446 231.895828 
" clip-path="url(#p53cc4ae9cf)" style="fill: none; stroke: #8172b3; stroke-width: 1.5; stroke-linecap: round"/>
   </g>
   <g id="line2d_19"/>
   <g id="line2d_20"/>
   <g id="line2d_21"/>
   <g id="line2d_22"/>
   <g id="line2d_23"/>
   <g id="patch_3">
    <path d="M 49.807187 273.312 
L 49.807187 7.2 
" style="fill: none; stroke: #cccccc; stroke-width: 1.25; stroke-linejoin: miter; stroke-linecap: square"/>
   </g>
   <g id="patch_4">
    <path d="M 406.927188 273.312 
L 406.927188 7.2 
" style="fill: none; stroke: #cccccc; stroke-width: 1.25; stroke-linejoin: miter; stroke-linecap: square"/>
   </g>
   <g id="patch_5">
    <path d="M 49.807187 273.312 
L 406.927188 273.312 
" style="fill: none; stroke: #cccccc; stroke-width: 1.25; stroke-linejoin: miter; stroke-linecap: square"/>
   </g>
   <g id="patch_6">
    <path d="M 49.807187 7.2 
L 406.927188 7.2 
" style="fill: none; stroke: #cccccc; stroke-width: 1.25; stroke-linejoin: miter; stroke-linecap: square"/>
   </g>
   <g id="legend_1">
    <g id="patch_7">
     <path d="M 295.242813 113.843437 
L 399.227188 113.843437 
Q 401.427188 113.843437 401.427188 111.643437 
L 401.427188 14.9 
Q 401.427188 12.7 399.227188 12.7 
L 295.242813 12.7 
Q 293.042813 12.7 293.042813 14.9 
L 293.042813 111.643437 
Q 293.042813 113.843437 295.242813 113.843437 
z
" style="fill: #ffffff; opacity: 0.8; stroke: #cccccc; stroke-linejoin: miter"/>
    </g>
    <g id="text_16">
     <!-- Strategy -->
     <g style="fill: #262626" transform="translate(321.525937 26.218125) scale(0.12 -0.12)">
      <defs>
       <path id="DejaVuSans-53" d="M 3425 4513 
L 3425 3897 
Q 3066 4069 2747 4153 
Q 2428 4238 2131 4238 
Q 1616 4238 1336 4038 
Q 1056 3838 1056 3469 
Q 1056 3159 1242 3001 
Q 1428 2844 1947 2747 
L 2328 2669 
Q 3034 2534 3370 2195 
Q 3706 1856 3706 1288 
Q 3706 609 3251 259 
Q 2797 -91 1919 -91 
Q 1588 -91 1214 -16 
Q 841 59 441 206 
L 441 856 
Q 825 641 1194 531 
Q 1563 422 1919 422 
Q 2459 422 2753 634 
Q 3047 847 3047 1241 
Q 3047 1584 2836 1778 
Q 2625 1972 2144 2069 
L 1759 2144 
Q 1053 2284 737 2584 
Q 422 2884 422 3419 
Q 422 4038 858 4394 
Q 1294 4750 2059 4750 
Q 2388 4750 2728 4690 
Q 3069 4631 3425 4513 
z
" transform="scale(0.015625)"/>
       <path id="DejaVuSans-74" d="M 1172 4494 
L 1172 3500 
L 2356 3500 
L 2356 3053 
L 1172 3053 
L 1172 1153 
Q 1172 725 1289 603 
Q 1406 481 1766 481 
L 2356 481 
L 2356 0 
L 1766 0 
Q 1100 0 847 248 
Q 594 497 594 1153 
L 594 3053 
L 172 3053 
L 172 3500 
L 594 3500 
L 594 4494 
L 1172 4494 
z
" transform="scale(0.015625)"/>
       <path id="DejaVuSans-72" d="M 2631 2963 
Q 2534 3019 2420 3045 
Q 2306 3072 2169 3072 
Q 1681 3072 1420 2755 
Q 1159 2438 1159 1844 
L 1159 0 
L 581 0 
L 581 3500 
L 1159 3500 
L 1159 2956 
Q 1341 3275 1631 3429 
Q 1922 3584 2338 3584 
Q 2397 3584 2469 3576 
Q 2541 3569 2628 3553 
L 2631 2963 
z
" transform="scale(0.015625)"/>
       <path id="DejaVuSans-61" d="M 2194 1759 
Q 1497 1759 1228 1600 
Q 959 1441 959 1056 
Q 959 750 1161 570 
Q 1363 391 1709 391 
Q 2188 391 2477 730 
Q 2766 1069 2766 1631 
L 2766 1759 
L 2194 1759 
z
M 3341 1997 
L 3341 0 
L 2766 0 
L 2766 531 
Q 2569 213 2275 61 
Q 1981 -91 1556 -91 
Q 1019 -91 701 211 
Q 384 513 384 1019 
Q 384 1609 779 1909 
Q 1175 2209 1959 2209 
L 2766 2209 
L 2766 2266 
Q 2766 2663 2505 2880 
Q 2244 3097 1772 3097 
Q 1472 3097 1187 3025 
Q 903 2953 641 2809 
L 641 3341 
Q 956 3463 1253 3523 
Q 1550 3584 1831 3584 
Q 2591 3584 2966 3190 
Q 3341 2797 3341 1997 
z
" transform="scale(0.015625)"/>
       <path id="DejaVuSans-65" d="M 3597 1894 
L 3597 1613 
L 953 1613 
Q 991 1019 1311 708 
Q 1631 397 2203 397 
Q 2534 397 2845 478 
Q 3156 559 3463 722 
L 3463 178 
Q 3153 47 2828 -22 
Q 2503 -91 2169 -91 
Q 1331 -91 842 396 
Q 353 884 353 1716 
Q 353 2575 817 3079 
Q 1281 3584 2069 3584 
Q 2775 3584 3186 3129 
Q 3597 2675 3597 1894 
z
M 3022 2063 
Q 3016 2534 2758 2815 
Q 2500 3097 2075 3097 
Q 1594 3097 1305 2825 
Q 1016 2553 972 2059 
L 3022 2063 
z
" transform="scale(0.015625)"/>
       <path id="DejaVuSans-67" d="M 2906 1791 
Q 2906 2416 2648 2759 
Q 2391 3103 1925 3103 
Q 1463 3103 1205 2759 
Q 947 2416 947 1791 
Q 947 1169 1205 825 
Q 1463 481 1925 481 
Q 2391 481 2648 825 
Q 2906 1169 2906 1791 
z
M 3481 434 
Q 3481 -459 3084 -895 
Q 2688 -1331 1869 -1331 
Q 1566 -1331 1297 -1286 
Q 1028 -1241 775 -1147 
L 775 -588 
Q 1028 -725 1275 -790 
Q 1522 -856 1778 -856 
Q 2344 -856 2625 -561 
Q 2906 -266 2906 331 
L 2906 616 
Q 2728 306 2450 153 
Q 2172 0 1784 0 
Q 1141 0 747 490 
Q 353 981 353 1791 
Q 353 2603 747 3093 
Q 1141 3584 1784 3584 
Q 2172 3584 2450 3431 
Q 2728 3278 2906 2969 
L 2906 3500 
L 3481 3500 
L 3481 434 
z
" transform="scale(0.015625)"/>
       <path id="DejaVuSans-79" d="M 2059 -325 
Q 1816 -950 1584 -1140 
Q 1353 -1331 966 -1331 
L 506 -1331 
L 506 -850 
L 844 -850 
Q 1081 -850 1212 -737 
Q 1344 -625 1503 -206 
L 1606 56 
L 191 3500 
L 800 3500 
L 1894 763 
L 2988 3500 
L 3597 3500 
L 2059 -325 
z
" transform="scale(0.015625)"/>
      </defs>
      <use xlink:href="#DejaVuSans-53"/>
      <use xlink:href="#DejaVuSans-74" x="63.476562"/>
      <use xlink:href="#DejaVuSans-72" x="102.685547"/>
      <use xlink:href="#DejaVuSans-61" x="143.798828"/>
      <use xlink:href="#DejaVuSans-74" x="205.078125"/>
      <use xlink:href="#DejaVuSans-65" x="244.287109"/>
      <use xlink:href="#DejaVuSans-67" x="305.810547"/>
      <use xlink:href="#DejaVuSans-79" x="369.287109"/>
     </g>
    </g>
    <g id="line2d_24">
     <path d="M 297.442813 38.722031 
L 308.442813 38.722031 
L 319.442813 38.722031 
" style="fill: none; stroke: #4c72b0; stroke-width: 1.5; stroke-linecap: round"/>
    </g>
    <g id="text_17">
     <!-- FedPredict -->
     <g style="fill: #262626" transform="translate(328.242813 42.572031) scale(0.11 -0.11)">
      <defs>
       <path id="DejaVuSans-46" d="M 628 4666 
L 3309 4666 
L 3309 4134 
L 1259 4134 
L 1259 2759 
L 3109 2759 
L 3109 2228 
L 1259 2228 
L 1259 0 
L 628 0 
L 628 4666 
z
" transform="scale(0.015625)"/>
       <path id="DejaVuSans-50" d="M 1259 4147 
L 1259 2394 
L 2053 2394 
Q 2494 2394 2734 2622 
Q 2975 2850 2975 3272 
Q 2975 3691 2734 3919 
Q 2494 4147 2053 4147 
L 1259 4147 
z
M 628 4666 
L 2053 4666 
Q 2838 4666 3239 4311 
Q 3641 3956 3641 3272 
Q 3641 2581 3239 2228 
Q 2838 1875 2053 1875 
L 1259 1875 
L 1259 0 
L 628 0 
L 628 4666 
z
" transform="scale(0.015625)"/>
       <path id="DejaVuSans-69" d="M 603 3500 
L 1178 3500 
L 1178 0 
L 603 0 
L 603 3500 
z
M 603 4863 
L 1178 4863 
L 1178 4134 
L 603 4134 
L 603 4863 
z
" transform="scale(0.015625)"/>
       <path id="DejaVuSans-63" d="M 3122 3366 
L 3122 2828 
Q 2878 2963 2633 3030 
Q 2388 3097 2138 3097 
Q 1578 3097 1268 2742 
Q 959 2388 959 1747 
Q 959 1106 1268 751 
Q 1578 397 2138 397 
Q 2388 397 2633 464 
Q 2878 531 3122 666 
L 3122 134 
Q 2881 22 2623 -34 
Q 2366 -91 2075 -91 
Q 1284 -91 818 406 
Q 353 903 353 1747 
Q 353 2603 823 3093 
Q 1294 3584 2113 3584 
Q 2378 3584 2631 3529 
Q 2884 3475 3122 3366 
z
" transform="scale(0.015625)"/>
      </defs>
      <use xlink:href="#DejaVuSans-46"/>
      <use xlink:href="#DejaVuSans-65" x="52.019531"/>
      <use xlink:href="#DejaVuSans-64" x="113.542969"/>
      <use xlink:href="#DejaVuSans-50" x="177.019531"/>
      <use xlink:href="#DejaVuSans-72" x="235.572266"/>
      <use xlink:href="#DejaVuSans-65" x="274.435547"/>
      <use xlink:href="#DejaVuSans-64" x="335.958984"/>
      <use xlink:href="#DejaVuSans-69" x="399.435547"/>
      <use xlink:href="#DejaVuSans-63" x="427.21875"/>
      <use xlink:href="#DejaVuSans-74" x="482.199219"/>
     </g>
    </g>
    <g id="line2d_25">
     <path d="M 297.442813 54.867969 
L 308.442813 54.867969 
L 319.442813 54.867969 
" style="fill: none; stroke: #dd8452; stroke-width: 1.5; stroke-linecap: round"/>
    </g>
    <g id="text_18">
     <!-- FedAVG -->
     <g style="fill: #262626" transform="translate(328.242813 58.717969) scale(0.11 -0.11)">
      <defs>
       <path id="DejaVuSans-41" d="M 2188 4044 
L 1331 1722 
L 3047 1722 
L 2188 4044 
z
M 1831 4666 
L 2547 4666 
L 4325 0 
L 3669 0 
L 3244 1197 
L 1141 1197 
L 716 0 
L 50 0 
L 1831 4666 
z
" transform="scale(0.015625)"/>
       <path id="DejaVuSans-56" d="M 1831 0 
L 50 4666 
L 709 4666 
L 2188 738 
L 3669 4666 
L 4325 4666 
L 2547 0 
L 1831 0 
z
" transform="scale(0.015625)"/>
       <path id="DejaVuSans-47" d="M 3809 666 
L 3809 1919 
L 2778 1919 
L 2778 2438 
L 4434 2438 
L 4434 434 
Q 4069 175 3628 42 
Q 3188 -91 2688 -91 
Q 1594 -91 976 548 
Q 359 1188 359 2328 
Q 359 3472 976 4111 
Q 1594 4750 2688 4750 
Q 3144 4750 3555 4637 
Q 3966 4525 4313 4306 
L 4313 3634 
Q 3963 3931 3569 4081 
Q 3175 4231 2741 4231 
Q 1884 4231 1454 3753 
Q 1025 3275 1025 2328 
Q 1025 1384 1454 906 
Q 1884 428 2741 428 
Q 3075 428 3337 486 
Q 3600 544 3809 666 
z
" transform="scale(0.015625)"/>
      </defs>
      <use xlink:href="#DejaVuSans-46"/>
      <use xlink:href="#DejaVuSans-65" x="52.019531"/>
      <use xlink:href="#DejaVuSans-64" x="113.542969"/>
      <use xlink:href="#DejaVuSans-41" x="177.019531"/>
      <use xlink:href="#DejaVuSans-56" x="239.052734"/>
      <use xlink:href="#DejaVuSans-47" x="307.460938"/>
     </g>
    </g>
    <g id="line2d_26">
     <path d="M 297.442813 71.013906 
L 308.442813 71.013906 
L 319.442813 71.013906 
" style="fill: none; stroke: #55a868; stroke-width: 1.5; stroke-linecap: round"/>
    </g>
    <g id="text_19">
     <!-- FedProto -->
     <g style="fill: #262626" transform="translate(328.242813 74.863906) scale(0.11 -0.11)">
      <use xlink:href="#DejaVuSans-46"/>
      <use xlink:href="#DejaVuSans-65" x="52.019531"/>
      <use xlink:href="#DejaVuSans-64" x="113.542969"/>
      <use xlink:href="#DejaVuSans-50" x="177.019531"/>
      <use xlink:href="#DejaVuSans-72" x="235.572266"/>
      <use xlink:href="#DejaVuSans-6f" x="274.435547"/>
      <use xlink:href="#DejaVuSans-74" x="335.617188"/>
      <use xlink:href="#DejaVuSans-6f" x="374.826172"/>
     </g>
    </g>
    <g id="line2d_27">
     <path d="M 297.442813 87.159844 
L 308.442813 87.159844 
L 319.442813 87.159844 
" style="fill: none; stroke: #c44e52; stroke-width: 1.5; stroke-linecap: round"/>
    </g>
    <g id="text_20">
     <!-- FedClassAvg -->
     <g style="fill: #262626" transform="translate(328.242813 91.009844) scale(0.11 -0.11)">
      <defs>
       <path id="DejaVuSans-43" d="M 4122 4306 
L 4122 3641 
Q 3803 3938 3442 4084 
Q 3081 4231 2675 4231 
Q 1875 4231 1450 3742 
Q 1025 3253 1025 2328 
Q 1025 1406 1450 917 
Q 1875 428 2675 428 
Q 3081 428 3442 575 
Q 3803 722 4122 1019 
L 4122 359 
Q 3791 134 3420 21 
Q 3050 -91 2638 -91 
Q 1578 -91 968 557 
Q 359 1206 359 2328 
Q 359 3453 968 4101 
Q 1578 4750 2638 4750 
Q 3056 4750 3426 4639 
Q 3797 4528 4122 4306 
z
" transform="scale(0.015625)"/>
       <path id="DejaVuSans-6c" d="M 603 4863 
L 1178 4863 
L 1178 0 
L 603 0 
L 603 4863 
z
" transform="scale(0.015625)"/>
       <path id="DejaVuSans-76" d="M 191 3500 
L 800 3500 
L 1894 563 
L 2988 3500 
L 3597 3500 
L 2284 0 
L 1503 0 
L 191 3500 
z
" transform="scale(0.015625)"/>
      </defs>
      <use xlink:href="#DejaVuSans-46"/>
      <use xlink:href="#DejaVuSans-65" x="52.019531"/>
      <use xlink:href="#DejaVuSans-64" x="113.542969"/>
      <use xlink:href="#DejaVuSans-43" x="177.019531"/>
      <use xlink:href="#DejaVuSans-6c" x="246.84375"/>
      <use xlink:href="#DejaVuSans-61" x="274.626953"/>
      <use xlink:href="#DejaVuSans-73" x="335.90625"/>
      <use xlink:href="#DejaVuSans-73" x="388.005859"/>
      <use xlink:href="#DejaVuSans-41" x="440.105469"/>
      <use xlink:href="#DejaVuSans-76" x="502.638672"/>
      <use xlink:href="#DejaVuSans-67" x="561.818359"/>
     </g>
    </g>
    <g id="line2d_28">
     <path d="M 297.442813 103.305781 
L 308.442813 103.305781 
L 319.442813 103.305781 
" style="fill: none; stroke: #8172b3; stroke-width: 1.5; stroke-linecap: round"/>
    </g>
    <g id="text_21">
     <!-- FedPer -->
     <g style="fill: #262626" transform="translate(328.242813 107.155781) scale(0.11 -0.11)">
      <use xlink:href="#DejaVuSans-46"/>
      <use xlink:href="#DejaVuSans-65" x="52.019531"/>
      <use xlink:href="#DejaVuSans-64" x="113.542969"/>
      <use xlink:href="#DejaVuSans-50" x="177.019531"/>
      <use xlink:href="#DejaVuSans-65" x="233.697266"/>
      <use xlink:href="#DejaVuSans-72" x="295.220703"/>
     </g>
    </g>
   </g>
  </g>
 </g>
 <defs>
  <clipPath id="p53cc4ae9cf">
   <rect x="49.807187" y="7.2" width="357.12" height="266.112"/>
  </clipPath>
 </defs>
</svg>
