<?xml version="1.0" encoding="utf-8" standalone="no"?>
<!DOCTYPE svg PUBLIC "-//W3C//DTD SVG 1.1//EN"
  "http://www.w3.org/Graphics/SVG/1.1/DTD/svg11.dtd">
<svg xmlns:xlink="http://www.w3.org/1999/xlink" width="414.127187pt" height="320.239789pt" viewBox="0 0 414.127187 320.239789" xmlns="http://www.w3.org/2000/svg" version="1.1">
 <metadata>
  <rdf:RDF xmlns:dc="http://purl.org/dc/elements/1.1/" xmlns:cc="http://creativecommons.org/ns#" xmlns:rdf="http://www.w3.org/1999/02/22-rdf-syntax-ns#">
   <cc:Work>
    <dc:type rdf:resource="http://purl.org/dc/dcmitype/StillImage"/>
    <dc:date>2023-02-10T23:39:08.760135</dc:date>
    <dc:format>image/svg+xml</dc:format>
    <dc:creator>
     <cc:Agent>
      <dc:title>Matplotlib v3.6.3, https://matplotlib.org/</dc:title>
     </cc:Agent>
    </dc:creator>
   </cc:Work>
  </rdf:RDF>
 </metadata>
 <defs>
  <style type="text/css">*{stroke-linejoin: round; stroke-linecap: butt}</style>
 </defs>
 <g id="figure_1">
  <g id="patch_1">
   <path d="M 0 320.239789 
L 414.127187 320.239789 
L 414.127187 0 
L 0 0 
z
" style="fill: #ffffff"/>
  </g>
  <g id="axes_1">
   <g id="patch_2">
    <path d="M 49.807187 277.280102 
L 406.927188 277.280102 
L 406.927188 11.168102 
L 49.807187 11.168102 
z
" style="fill: #ffffff"/>
   </g>
   <g id="matplotlib.axis_1">
    <g id="xtick_1">
     <g id="line2d_1">
      <path d="M 62.760576 277.280102 
L 62.760576 11.168102 
" clip-path="url(#pe0a3240989)" style="fill: none; stroke: #cccccc; stroke-linecap: round"/>
     </g>
     <g id="text_1">
      <!-- 0 -->
      <g style="fill: #262626" transform="translate(59.261201 295.138383) scale(0.11 -0.11)">
       <defs>
        <path id="DejaVuSans-30" d="M 2034 4250 
Q 1547 4250 1301 3770 
Q 1056 3291 1056 2328 
Q 1056 1369 1301 889 
Q 1547 409 2034 409 
Q 2525 409 2770 889 
Q 3016 1369 3016 2328 
Q 3016 3291 2770 3770 
Q 2525 4250 2034 4250 
z
M 2034 4750 
Q 2819 4750 3233 4129 
Q 3647 3509 3647 2328 
Q 3647 1150 3233 529 
Q 2819 -91 2034 -91 
Q 1250 -91 836 529 
Q 422 1150 422 2328 
Q 422 3509 836 4129 
Q 1250 4750 2034 4750 
z
" transform="scale(0.015625)"/>
       </defs>
       <use xlink:href="#DejaVuSans-30"/>
      </g>
     </g>
    </g>
    <g id="xtick_2">
     <g id="line2d_2">
      <path d="M 128.347353 277.280102 
L 128.347353 11.168102 
" clip-path="url(#pe0a3240989)" style="fill: none; stroke: #cccccc; stroke-linecap: round"/>
     </g>
     <g id="text_2">
      <!-- 20 -->
      <g style="fill: #262626" transform="translate(121.348603 295.138383) scale(0.11 -0.11)">
       <defs>
        <path id="DejaVuSans-32" d="M 1228 531 
L 3431 531 
L 3431 0 
L 469 0 
L 469 531 
Q 828 903 1448 1529 
Q 2069 2156 2228 2338 
Q 2531 2678 2651 2914 
Q 2772 3150 2772 3378 
Q 2772 3750 2511 3984 
Q 2250 4219 1831 4219 
Q 1534 4219 1204 4116 
Q 875 4013 500 3803 
L 500 4441 
Q 881 4594 1212 4672 
Q 1544 4750 1819 4750 
Q 2544 4750 2975 4387 
Q 3406 4025 3406 3419 
Q 3406 3131 3298 2873 
Q 3191 2616 2906 2266 
Q 2828 2175 2409 1742 
Q 1991 1309 1228 531 
z
" transform="scale(0.015625)"/>
       </defs>
       <use xlink:href="#DejaVuSans-32"/>
       <use xlink:href="#DejaVuSans-30" x="63.623047"/>
      </g>
     </g>
    </g>
    <g id="xtick_3">
     <g id="line2d_3">
      <path d="M 193.93413 277.280102 
L 193.93413 11.168102 
" clip-path="url(#pe0a3240989)" style="fill: none; stroke: #cccccc; stroke-linecap: round"/>
     </g>
     <g id="text_3">
      <!-- 40 -->
      <g style="fill: #262626" transform="translate(186.93538 295.138383) scale(0.11 -0.11)">
       <defs>
        <path id="DejaVuSans-34" d="M 2419 4116 
L 825 1625 
L 2419 1625 
L 2419 4116 
z
M 2253 4666 
L 3047 4666 
L 3047 1625 
L 3713 1625 
L 3713 1100 
L 3047 1100 
L 3047 0 
L 2419 0 
L 2419 1100 
L 313 1100 
L 313 1709 
L 2253 4666 
z
" transform="scale(0.015625)"/>
       </defs>
       <use xlink:href="#DejaVuSans-34"/>
       <use xlink:href="#DejaVuSans-30" x="63.623047"/>
      </g>
     </g>
    </g>
    <g id="xtick_4">
     <g id="line2d_4">
      <path d="M 259.520907 277.280102 
L 259.520907 11.168102 
" clip-path="url(#pe0a3240989)" style="fill: none; stroke: #cccccc; stroke-linecap: round"/>
     </g>
     <g id="text_4">
      <!-- 60 -->
      <g style="fill: #262626" transform="translate(252.522157 295.138383) scale(0.11 -0.11)">
       <defs>
        <path id="DejaVuSans-36" d="M 2113 2584 
Q 1688 2584 1439 2293 
Q 1191 2003 1191 1497 
Q 1191 994 1439 701 
Q 1688 409 2113 409 
Q 2538 409 2786 701 
Q 3034 994 3034 1497 
Q 3034 2003 2786 2293 
Q 2538 2584 2113 2584 
z
M 3366 4563 
L 3366 3988 
Q 3128 4100 2886 4159 
Q 2644 4219 2406 4219 
Q 1781 4219 1451 3797 
Q 1122 3375 1075 2522 
Q 1259 2794 1537 2939 
Q 1816 3084 2150 3084 
Q 2853 3084 3261 2657 
Q 3669 2231 3669 1497 
Q 3669 778 3244 343 
Q 2819 -91 2113 -91 
Q 1303 -91 875 529 
Q 447 1150 447 2328 
Q 447 3434 972 4092 
Q 1497 4750 2381 4750 
Q 2619 4750 2861 4703 
Q 3103 4656 3366 4563 
z
" transform="scale(0.015625)"/>
       </defs>
       <use xlink:href="#DejaVuSans-36"/>
       <use xlink:href="#DejaVuSans-30" x="63.623047"/>
      </g>
     </g>
    </g>
    <g id="xtick_5">
     <g id="line2d_5">
      <path d="M 325.107683 277.280102 
L 325.107683 11.168102 
" clip-path="url(#pe0a3240989)" style="fill: none; stroke: #cccccc; stroke-linecap: round"/>
     </g>
     <g id="text_5">
      <!-- 80 -->
      <g style="fill: #262626" transform="translate(318.108933 295.138383) scale(0.11 -0.11)">
       <defs>
        <path id="DejaVuSans-38" d="M 2034 2216 
Q 1584 2216 1326 1975 
Q 1069 1734 1069 1313 
Q 1069 891 1326 650 
Q 1584 409 2034 409 
Q 2484 409 2743 651 
Q 3003 894 3003 1313 
Q 3003 1734 2745 1975 
Q 2488 2216 2034 2216 
z
M 1403 2484 
Q 997 2584 770 2862 
Q 544 3141 544 3541 
Q 544 4100 942 4425 
Q 1341 4750 2034 4750 
Q 2731 4750 3128 4425 
Q 3525 4100 3525 3541 
Q 3525 3141 3298 2862 
Q 3072 2584 2669 2484 
Q 3125 2378 3379 2068 
Q 3634 1759 3634 1313 
Q 3634 634 3220 271 
Q 2806 -91 2034 -91 
Q 1263 -91 848 271 
Q 434 634 434 1313 
Q 434 1759 690 2068 
Q 947 2378 1403 2484 
z
M 1172 3481 
Q 1172 3119 1398 2916 
Q 1625 2713 2034 2713 
Q 2441 2713 2670 2916 
Q 2900 3119 2900 3481 
Q 2900 3844 2670 4047 
Q 2441 4250 2034 4250 
Q 1625 4250 1398 4047 
Q 1172 3844 1172 3481 
z
" transform="scale(0.015625)"/>
       </defs>
       <use xlink:href="#DejaVuSans-38"/>
       <use xlink:href="#DejaVuSans-30" x="63.623047"/>
      </g>
     </g>
    </g>
    <g id="xtick_6">
     <g id="line2d_6">
      <path d="M 390.69446 277.280102 
L 390.69446 11.168102 
" clip-path="url(#pe0a3240989)" style="fill: none; stroke: #cccccc; stroke-linecap: round"/>
     </g>
     <g id="text_6">
      <!-- 100 -->
      <g style="fill: #262626" transform="translate(380.196335 295.138383) scale(0.11 -0.11)">
       <defs>
        <path id="DejaVuSans-31" d="M 794 531 
L 1825 531 
L 1825 4091 
L 703 3866 
L 703 4441 
L 1819 4666 
L 2450 4666 
L 2450 531 
L 3481 531 
L 3481 0 
L 794 0 
L 794 531 
z
" transform="scale(0.015625)"/>
       </defs>
       <use xlink:href="#DejaVuSans-31"/>
       <use xlink:href="#DejaVuSans-30" x="63.623047"/>
       <use xlink:href="#DejaVuSans-30" x="127.246094"/>
      </g>
     </g>
    </g>
    <g id="text_7">
     <!-- Round -->
     <g style="fill: #262626" transform="translate(209.382812 310.544164) scale(0.12 -0.12)">
      <defs>
       <path id="DejaVuSans-52" d="M 2841 2188 
Q 3044 2119 3236 1894 
Q 3428 1669 3622 1275 
L 4263 0 
L 3584 0 
L 2988 1197 
Q 2756 1666 2539 1819 
Q 2322 1972 1947 1972 
L 1259 1972 
L 1259 0 
L 628 0 
L 628 4666 
L 2053 4666 
Q 2853 4666 3247 4331 
Q 3641 3997 3641 3322 
Q 3641 2881 3436 2590 
Q 3231 2300 2841 2188 
z
M 1259 4147 
L 1259 2491 
L 2053 2491 
Q 2509 2491 2742 2702 
Q 2975 2913 2975 3322 
Q 2975 3731 2742 3939 
Q 2509 4147 2053 4147 
L 1259 4147 
z
" transform="scale(0.015625)"/>
       <path id="DejaVuSans-6f" d="M 1959 3097 
Q 1497 3097 1228 2736 
Q 959 2375 959 1747 
Q 959 1119 1226 758 
Q 1494 397 1959 397 
Q 2419 397 2687 759 
Q 2956 1122 2956 1747 
Q 2956 2369 2687 2733 
Q 2419 3097 1959 3097 
z
M 1959 3584 
Q 2709 3584 3137 3096 
Q 3566 2609 3566 1747 
Q 3566 888 3137 398 
Q 2709 -91 1959 -91 
Q 1206 -91 779 398 
Q 353 888 353 1747 
Q 353 2609 779 3096 
Q 1206 3584 1959 3584 
z
" transform="scale(0.015625)"/>
       <path id="DejaVuSans-75" d="M 544 1381 
L 544 3500 
L 1119 3500 
L 1119 1403 
Q 1119 906 1312 657 
Q 1506 409 1894 409 
Q 2359 409 2629 706 
Q 2900 1003 2900 1516 
L 2900 3500 
L 3475 3500 
L 3475 0 
L 2900 0 
L 2900 538 
Q 2691 219 2414 64 
Q 2138 -91 1772 -91 
Q 1169 -91 856 284 
Q 544 659 544 1381 
z
M 1991 3584 
L 1991 3584 
z
" transform="scale(0.015625)"/>
       <path id="DejaVuSans-6e" d="M 3513 2113 
L 3513 0 
L 2938 0 
L 2938 2094 
Q 2938 2591 2744 2837 
Q 2550 3084 2163 3084 
Q 1697 3084 1428 2787 
Q 1159 2491 1159 1978 
L 1159 0 
L 581 0 
L 581 3500 
L 1159 3500 
L 1159 2956 
Q 1366 3272 1645 3428 
Q 1925 3584 2291 3584 
Q 2894 3584 3203 3211 
Q 3513 2838 3513 2113 
z
" transform="scale(0.015625)"/>
       <path id="DejaVuSans-64" d="M 2906 2969 
L 2906 4863 
L 3481 4863 
L 3481 0 
L 2906 0 
L 2906 525 
Q 2725 213 2448 61 
Q 2172 -91 1784 -91 
Q 1150 -91 751 415 
Q 353 922 353 1747 
Q 353 2572 751 3078 
Q 1150 3584 1784 3584 
Q 2172 3584 2448 3432 
Q 2725 3281 2906 2969 
z
M 947 1747 
Q 947 1113 1208 752 
Q 1469 391 1925 391 
Q 2381 391 2643 752 
Q 2906 1113 2906 1747 
Q 2906 2381 2643 2742 
Q 2381 3103 1925 3103 
Q 1469 3103 1208 2742 
Q 947 2381 947 1747 
z
" transform="scale(0.015625)"/>
      </defs>
      <use xlink:href="#DejaVuSans-52"/>
      <use xlink:href="#DejaVuSans-6f" x="64.982422"/>
      <use xlink:href="#DejaVuSans-75" x="126.164062"/>
      <use xlink:href="#DejaVuSans-6e" x="189.542969"/>
      <use xlink:href="#DejaVuSans-64" x="252.921875"/>
     </g>
    </g>
   </g>
   <g id="matplotlib.axis_2">
    <g id="ytick_1">
     <g id="line2d_7">
      <path d="M 49.807187 267.786875 
L 406.927188 267.786875 
" clip-path="url(#pe0a3240989)" style="fill: none; stroke: #cccccc; stroke-linecap: round"/>
     </g>
     <g id="text_8">
      <!-- 0.0 -->
      <g style="fill: #262626" transform="translate(22.81375 271.966016) scale(0.11 -0.11)">
       <defs>
        <path id="DejaVuSans-2e" d="M 684 794 
L 1344 794 
L 1344 0 
L 684 0 
L 684 794 
z
" transform="scale(0.015625)"/>
       </defs>
       <use xlink:href="#DejaVuSans-30"/>
       <use xlink:href="#DejaVuSans-2e" x="63.623047"/>
       <use xlink:href="#DejaVuSans-30" x="95.410156"/>
      </g>
     </g>
    </g>
    <g id="ytick_2">
     <g id="line2d_8">
      <path d="M 49.807187 231.157199 
L 406.927188 231.157199 
" clip-path="url(#pe0a3240989)" style="fill: none; stroke: #cccccc; stroke-linecap: round"/>
     </g>
     <g id="text_9">
      <!-- 0.5 -->
      <g style="fill: #262626" transform="translate(22.81375 235.336339) scale(0.11 -0.11)">
       <defs>
        <path id="DejaVuSans-35" d="M 691 4666 
L 3169 4666 
L 3169 4134 
L 1269 4134 
L 1269 2991 
Q 1406 3038 1543 3061 
Q 1681 3084 1819 3084 
Q 2600 3084 3056 2656 
Q 3513 2228 3513 1497 
Q 3513 744 3044 326 
Q 2575 -91 1722 -91 
Q 1428 -91 1123 -41 
Q 819 9 494 109 
L 494 744 
Q 775 591 1075 516 
Q 1375 441 1709 441 
Q 2250 441 2565 725 
Q 2881 1009 2881 1497 
Q 2881 1984 2565 2268 
Q 2250 2553 1709 2553 
Q 1456 2553 1204 2497 
Q 953 2441 691 2322 
L 691 4666 
z
" transform="scale(0.015625)"/>
       </defs>
       <use xlink:href="#DejaVuSans-30"/>
       <use xlink:href="#DejaVuSans-2e" x="63.623047"/>
       <use xlink:href="#DejaVuSans-35" x="95.410156"/>
      </g>
     </g>
    </g>
    <g id="ytick_3">
     <g id="line2d_9">
      <path d="M 49.807187 194.527522 
L 406.927188 194.527522 
" clip-path="url(#pe0a3240989)" style="fill: none; stroke: #cccccc; stroke-linecap: round"/>
     </g>
     <g id="text_10">
      <!-- 1.0 -->
      <g style="fill: #262626" transform="translate(22.81375 198.706663) scale(0.11 -0.11)">
       <use xlink:href="#DejaVuSans-31"/>
       <use xlink:href="#DejaVuSans-2e" x="63.623047"/>
       <use xlink:href="#DejaVuSans-30" x="95.410156"/>
      </g>
     </g>
    </g>
    <g id="ytick_4">
     <g id="line2d_10">
      <path d="M 49.807187 157.897846 
L 406.927188 157.897846 
" clip-path="url(#pe0a3240989)" style="fill: none; stroke: #cccccc; stroke-linecap: round"/>
     </g>
     <g id="text_11">
      <!-- 1.5 -->
      <g style="fill: #262626" transform="translate(22.81375 162.076987) scale(0.11 -0.11)">
       <use xlink:href="#DejaVuSans-31"/>
       <use xlink:href="#DejaVuSans-2e" x="63.623047"/>
       <use xlink:href="#DejaVuSans-35" x="95.410156"/>
      </g>
     </g>
    </g>
    <g id="ytick_5">
     <g id="line2d_11">
      <path d="M 49.807187 121.26817 
L 406.927188 121.26817 
" clip-path="url(#pe0a3240989)" style="fill: none; stroke: #cccccc; stroke-linecap: round"/>
     </g>
     <g id="text_12">
      <!-- 2.0 -->
      <g style="fill: #262626" transform="translate(22.81375 125.44731) scale(0.11 -0.11)">
       <use xlink:href="#DejaVuSans-32"/>
       <use xlink:href="#DejaVuSans-2e" x="63.623047"/>
       <use xlink:href="#DejaVuSans-30" x="95.410156"/>
      </g>
     </g>
    </g>
    <g id="ytick_6">
     <g id="line2d_12">
      <path d="M 49.807187 84.638493 
L 406.927188 84.638493 
" clip-path="url(#pe0a3240989)" style="fill: none; stroke: #cccccc; stroke-linecap: round"/>
     </g>
     <g id="text_13">
      <!-- 2.5 -->
      <g style="fill: #262626" transform="translate(22.81375 88.817634) scale(0.11 -0.11)">
       <use xlink:href="#DejaVuSans-32"/>
       <use xlink:href="#DejaVuSans-2e" x="63.623047"/>
       <use xlink:href="#DejaVuSans-35" x="95.410156"/>
      </g>
     </g>
    </g>
    <g id="ytick_7">
     <g id="line2d_13">
      <path d="M 49.807187 48.008817 
L 406.927188 48.008817 
" clip-path="url(#pe0a3240989)" style="fill: none; stroke: #cccccc; stroke-linecap: round"/>
     </g>
     <g id="text_14">
      <!-- 3.0 -->
      <g style="fill: #262626" transform="translate(22.81375 52.187958) scale(0.11 -0.11)">
       <defs>
        <path id="DejaVuSans-33" d="M 2597 2516 
Q 3050 2419 3304 2112 
Q 3559 1806 3559 1356 
Q 3559 666 3084 287 
Q 2609 -91 1734 -91 
Q 1441 -91 1130 -33 
Q 819 25 488 141 
L 488 750 
Q 750 597 1062 519 
Q 1375 441 1716 441 
Q 2309 441 2620 675 
Q 2931 909 2931 1356 
Q 2931 1769 2642 2001 
Q 2353 2234 1838 2234 
L 1294 2234 
L 1294 2753 
L 1863 2753 
Q 2328 2753 2575 2939 
Q 2822 3125 2822 3475 
Q 2822 3834 2567 4026 
Q 2313 4219 1838 4219 
Q 1578 4219 1281 4162 
Q 984 4106 628 3988 
L 628 4550 
Q 988 4650 1302 4700 
Q 1616 4750 1894 4750 
Q 2613 4750 3031 4423 
Q 3450 4097 3450 3541 
Q 3450 3153 3228 2886 
Q 3006 2619 2597 2516 
z
" transform="scale(0.015625)"/>
       </defs>
       <use xlink:href="#DejaVuSans-33"/>
       <use xlink:href="#DejaVuSans-2e" x="63.623047"/>
       <use xlink:href="#DejaVuSans-30" x="95.410156"/>
      </g>
     </g>
    </g>
    <g id="ytick_8">
     <g id="line2d_14">
      <path d="M 49.807187 11.379141 
L 406.927188 11.379141 
" clip-path="url(#pe0a3240989)" style="fill: none; stroke: #cccccc; stroke-linecap: round"/>
     </g>
     <g id="text_15">
      <!-- 3.5 -->
      <g style="fill: #262626" transform="translate(22.81375 15.558281) scale(0.11 -0.11)">
       <use xlink:href="#DejaVuSans-33"/>
       <use xlink:href="#DejaVuSans-2e" x="63.623047"/>
       <use xlink:href="#DejaVuSans-35" x="95.410156"/>
      </g>
     </g>
    </g>
    <g id="text_16">
     <!-- Loss -->
     <g style="fill: #262626" transform="translate(16.318125 157.384727) rotate(-90) scale(0.12 -0.12)">
      <defs>
       <path id="DejaVuSans-4c" d="M 628 4666 
L 1259 4666 
L 1259 531 
L 3531 531 
L 3531 0 
L 628 0 
L 628 4666 
z
" transform="scale(0.015625)"/>
       <path id="DejaVuSans-73" d="M 2834 3397 
L 2834 2853 
Q 2591 2978 2328 3040 
Q 2066 3103 1784 3103 
Q 1356 3103 1142 2972 
Q 928 2841 928 2578 
Q 928 2378 1081 2264 
Q 1234 2150 1697 2047 
L 1894 2003 
Q 2506 1872 2764 1633 
Q 3022 1394 3022 966 
Q 3022 478 2636 193 
Q 2250 -91 1575 -91 
Q 1294 -91 989 -36 
Q 684 19 347 128 
L 347 722 
Q 666 556 975 473 
Q 1284 391 1588 391 
Q 1994 391 2212 530 
Q 2431 669 2431 922 
Q 2431 1156 2273 1281 
Q 2116 1406 1581 1522 
L 1381 1569 
Q 847 1681 609 1914 
Q 372 2147 372 2553 
Q 372 3047 722 3315 
Q 1072 3584 1716 3584 
Q 2034 3584 2315 3537 
Q 2597 3491 2834 3397 
z
" transform="scale(0.015625)"/>
      </defs>
      <use xlink:href="#DejaVuSans-4c"/>
      <use xlink:href="#DejaVuSans-6f" x="53.962891"/>
      <use xlink:href="#DejaVuSans-73" x="115.144531"/>
      <use xlink:href="#DejaVuSans-73" x="167.244141"/>
     </g>
    </g>
   </g>
   <g id="PolyCollection_1">
    <defs>
     <path id="mb907d3af28" d="M 66.039915 -234.18437 
L 66.039915 -189.669552 
L 69.319254 -148.272687 
L 72.598592 -147.945264 
L 75.877931 -120.911051 
L 79.15727 -100.591457 
L 82.436609 -96.58651 
L 85.715948 -76.770821 
L 88.995287 -75.776957 
L 92.274626 -69.427346 
L 95.553964 -66.184912 
L 98.833303 -64.800517 
L 102.112642 -64.05417 
L 105.391981 -63.121349 
L 108.67132 -63.787352 
L 111.950659 -64.132402 
L 115.229997 -64.024343 
L 118.509336 -62.215183 
L 121.788675 -61.966612 
L 125.068014 -61.799913 
L 128.347353 -60.495542 
L 131.626692 -60.294497 
L 134.90603 -58.98991 
L 138.185369 -59.338836 
L 141.464708 -59.618024 
L 144.744047 -59.00327 
L 148.023386 -59.470072 
L 151.302725 -60.573845 
L 154.582064 -59.84078 
L 157.861402 -59.868576 
L 161.140741 -61.26569 
L 164.42008 -58.272115 
L 167.699419 -58.135366 
L 170.978758 -57.964352 
L 174.258097 -58.005351 
L 177.537435 -57.299786 
L 180.816774 -57.893255 
L 184.096113 -57.067698 
L 187.375452 -56.924353 
L 190.654791 -57.229951 
L 193.93413 -56.581858 
L 197.213468 -56.610882 
L 200.492807 -56.643063 
L 203.772146 -56.191207 
L 207.051485 -56.273175 
L 210.330824 -55.991158 
L 213.610163 -57.003563 
L 216.889502 -56.960628 
L 220.16884 -56.701586 
L 223.448179 -56.622963 
L 226.727518 -56.374743 
L 230.006857 -56.690258 
L 233.286196 -55.800589 
L 236.565535 -56.121176 
L 239.844873 -55.803601 
L 243.124212 -55.768077 
L 246.403551 -55.411669 
L 249.68289 -55.623458 
L 252.962229 -55.928738 
L 256.241568 -55.61025 
L 259.520907 -55.89526 
L 262.800245 -56.218242 
L 266.079584 -55.492354 
L 269.358923 -55.410834 
L 272.638262 -55.209572 
L 275.917601 -55.055687 
L 279.19694 -55.121054 
L 282.476278 -55.53489 
L 285.755617 -55.423416 
L 289.034956 -55.247616 
L 292.314295 -56.526815 
L 295.593634 -57.027647 
L 298.872973 -57.008392 
L 302.152311 -56.892954 
L 305.43165 -57.194659 
L 308.710989 -56.728661 
L 311.990328 -56.769773 
L 315.269667 -56.659292 
L 318.549006 -56.576495 
L 321.828345 -56.811803 
L 325.107683 -56.890162 
L 328.387022 -56.404435 
L 331.666361 -56.702501 
L 334.9457 -56.32872 
L 338.225039 -56.303975 
L 341.504378 -56.247504 
L 344.783716 -56.490806 
L 348.063055 -56.286164 
L 351.342394 -56.660516 
L 354.621733 -56.641924 
L 357.901072 -56.781562 
L 361.180411 -56.794588 
L 364.459749 -56.488295 
L 367.739088 -56.309769 
L 371.018427 -56.583151 
L 374.297766 -56.728974 
L 377.577105 -56.776687 
L 380.856444 -56.416468 
L 384.135783 -56.38495 
L 387.415121 -56.577216 
L 390.69446 -56.328854 
L 390.69446 -64.914047 
L 390.69446 -64.914047 
L 387.415121 -65.171676 
L 384.135783 -64.665334 
L 380.856444 -63.683415 
L 377.577105 -64.861284 
L 374.297766 -64.858685 
L 371.018427 -65.094389 
L 367.739088 -64.327308 
L 364.459749 -63.727191 
L 361.180411 -65.356104 
L 357.901072 -66.813493 
L 354.621733 -63.254615 
L 351.342394 -65.090595 
L 348.063055 -64.783267 
L 344.783716 -63.730037 
L 341.504378 -63.356362 
L 338.225039 -62.322235 
L 334.9457 -63.209538 
L 331.666361 -64.812553 
L 328.387022 -62.670245 
L 325.107683 -64.088298 
L 321.828345 -64.556607 
L 318.549006 -63.529726 
L 315.269667 -63.232478 
L 311.990328 -62.662707 
L 308.710989 -62.365491 
L 305.43165 -64.348139 
L 302.152311 -63.93385 
L 298.872973 -63.547417 
L 295.593634 -62.514178 
L 292.314295 -61.502356 
L 289.034956 -57.88066 
L 285.755617 -57.868515 
L 282.476278 -58.35766 
L 279.19694 -57.086321 
L 275.917601 -57.445323 
L 272.638262 -58.329036 
L 269.358923 -58.68915 
L 266.079584 -58.750387 
L 262.800245 -60.620596 
L 259.520907 -60.583005 
L 256.241568 -59.934303 
L 252.962229 -61.089832 
L 249.68289 -62.848129 
L 246.403551 -58.447856 
L 243.124212 -58.638178 
L 239.844873 -58.516727 
L 236.565535 -59.252927 
L 233.286196 -57.991462 
L 230.006857 -60.049019 
L 226.727518 -59.465222 
L 223.448179 -60.758701 
L 220.16884 -60.394728 
L 216.889502 -59.936443 
L 213.610163 -60.441692 
L 210.330824 -61.909605 
L 207.051485 -60.711087 
L 203.772146 -59.753918 
L 200.492807 -61.456464 
L 197.213468 -59.823025 
L 193.93413 -60.902408 
L 190.654791 -63.50589 
L 187.375452 -60.154429 
L 184.096113 -61.161783 
L 180.816774 -62.459818 
L 177.537435 -62.570963 
L 174.258097 -64.763955 
L 170.978758 -64.374456 
L 167.699419 -68.099868 
L 164.42008 -70.163137 
L 161.140741 -73.221831 
L 157.861402 -71.139114 
L 154.582064 -70.155503 
L 151.302725 -67.98775 
L 148.023386 -64.312997 
L 144.744047 -64.588578 
L 141.464708 -64.976105 
L 138.185369 -66.196211 
L 134.90603 -64.130677 
L 131.626692 -66.362635 
L 128.347353 -67.447341 
L 125.068014 -71.59805 
L 121.788675 -68.392165 
L 118.509336 -72.270956 
L 115.229997 -75.145446 
L 111.950659 -74.634697 
L 108.67132 -72.98143 
L 105.391981 -73.65705 
L 102.112642 -74.204952 
L 98.833303 -76.086661 
L 95.553964 -77.339907 
L 92.274626 -91.292411 
L 88.995287 -103.150749 
L 85.715948 -101.442761 
L 82.436609 -131.923221 
L 79.15727 -140.233093 
L 75.877931 -167.42003 
L 72.598592 -200.721221 
L 69.319254 -190.638541 
L 66.039915 -234.18437 
z
" style="stroke: #4c72b0; stroke-opacity: 0.2"/>
    </defs>
    <g clip-path="url(#pe0a3240989)">
     <use xlink:href="#mb907d3af28" x="0" y="320.239789" style="fill: #4c72b0; fill-opacity: 0.2; stroke: #4c72b0; stroke-opacity: 0.2"/>
    </g>
   </g>
   <g id="PolyCollection_2">
    <defs>
     <path id="mfda8c8b5c5" d="M 66.039915 -248.946208 
L 66.039915 -221.682855 
L 69.319254 -196.423429 
L 72.598592 -221.323705 
L 75.877931 -173.615149 
L 79.15727 -156.630211 
L 82.436609 -156.763841 
L 85.715948 -117.740028 
L 88.995287 -120.325146 
L 92.274626 -106.67879 
L 95.553964 -93.680753 
L 98.833303 -97.374933 
L 102.112642 -87.8821 
L 105.391981 -91.046007 
L 108.67132 -90.133664 
L 111.950659 -96.843537 
L 115.229997 -105.112316 
L 118.509336 -86.768758 
L 121.788675 -90.177388 
L 125.068014 -90.508092 
L 128.347353 -86.436308 
L 131.626692 -87.859792 
L 134.90603 -82.527763 
L 138.185369 -88.255257 
L 141.464708 -83.593107 
L 144.744047 -76.677425 
L 148.023386 -86.567975 
L 151.302725 -95.162433 
L 154.582064 -95.33034 
L 157.861402 -85.047445 
L 161.140741 -97.714232 
L 164.42008 -75.923499 
L 167.699419 -75.936393 
L 170.978758 -82.097487 
L 174.258097 -78.418441 
L 177.537435 -74.452892 
L 180.816774 -79.892595 
L 184.096113 -78.186486 
L 187.375452 -76.572854 
L 190.654791 -88.523607 
L 193.93413 -72.726825 
L 197.213468 -77.139128 
L 200.492807 -74.439602 
L 203.772146 -68.683028 
L 207.051485 -71.637306 
L 210.330824 -71.508391 
L 213.610163 -90.762496 
L 216.889502 -80.293628 
L 220.16884 -80.245485 
L 223.448179 -74.613733 
L 226.727518 -72.122632 
L 230.006857 -78.76587 
L 233.286196 -67.032819 
L 236.565535 -69.244044 
L 239.844873 -66.80246 
L 243.124212 -68.835537 
L 246.403551 -65.662023 
L 249.68289 -66.812603 
L 252.962229 -81.039009 
L 256.241568 -66.128116 
L 259.520907 -82.197373 
L 262.800245 -92.661669 
L 266.079584 -66.239158 
L 269.358923 -70.328347 
L 272.638262 -67.092705 
L 275.917601 -66.679954 
L 279.19694 -68.611069 
L 282.476278 -80.839285 
L 285.755617 -76.597942 
L 289.034956 -74.132444 
L 292.314295 -68.858707 
L 295.593634 -82.053061 
L 298.872973 -72.996372 
L 302.152311 -71.059164 
L 305.43165 -77.952081 
L 308.710989 -67.144282 
L 311.990328 -68.775588 
L 315.269667 -69.929553 
L 318.549006 -64.703561 
L 321.828345 -68.626227 
L 325.107683 -65.431262 
L 328.387022 -65.933012 
L 331.666361 -75.002918 
L 334.9457 -69.544161 
L 338.225039 -69.249651 
L 341.504378 -69.561511 
L 344.783716 -69.66747 
L 348.063055 -67.898906 
L 351.342394 -67.938111 
L 354.621733 -64.106434 
L 357.901072 -71.673163 
L 361.180411 -66.409449 
L 364.459749 -64.55695 
L 367.739088 -63.308851 
L 371.018427 -67.318805 
L 374.297766 -77.484621 
L 377.577105 -70.687694 
L 380.856444 -65.95143 
L 384.135783 -62.978699 
L 387.415121 -66.874358 
L 390.69446 -63.244584 
L 390.69446 -72.208786 
L 390.69446 -72.208786 
L 387.415121 -79.142352 
L 384.135783 -66.810939 
L 380.856444 -70.649926 
L 377.577105 -82.913786 
L 374.297766 -94.324604 
L 371.018427 -72.96834 
L 367.739088 -68.48768 
L 364.459749 -70.952217 
L 361.180411 -72.67794 
L 357.901072 -80.666393 
L 354.621733 -69.136627 
L 351.342394 -76.397371 
L 348.063055 -76.146003 
L 344.783716 -80.31668 
L 341.504378 -81.271531 
L 338.225039 -78.569765 
L 334.9457 -82.873512 
L 331.666361 -89.213404 
L 328.387022 -70.077356 
L 325.107683 -71.966555 
L 321.828345 -76.305494 
L 318.549006 -68.625118 
L 315.269667 -77.475912 
L 311.990328 -76.904644 
L 308.710989 -74.211035 
L 305.43165 -96.738582 
L 302.152311 -81.237165 
L 298.872973 -87.376476 
L 295.593634 -98.40605 
L 292.314295 -75.046189 
L 289.034956 -95.166866 
L 285.755617 -96.075432 
L 282.476278 -110.583255 
L 279.19694 -83.227455 
L 275.917601 -74.490564 
L 272.638262 -75.268443 
L 269.358923 -78.351911 
L 266.079584 -71.955818 
L 262.800245 -120.389106 
L 259.520907 -100.346805 
L 256.241568 -73.597727 
L 252.962229 -108.918777 
L 249.68289 -74.981422 
L 246.403551 -71.466693 
L 243.124212 -83.143848 
L 239.844873 -75.258454 
L 236.565535 -80.102367 
L 233.286196 -71.733684 
L 230.006857 -92.867204 
L 226.727518 -79.276241 
L 223.448179 -92.504541 
L 220.16884 -112.542146 
L 216.889502 -96.46398 
L 213.610163 -128.733079 
L 210.330824 -85.869398 
L 207.051485 -90.314333 
L 203.772146 -76.126887 
L 200.492807 -81.532103 
L 197.213468 -92.636429 
L 193.93413 -85.470688 
L 190.654791 -105.331834 
L 187.375452 -84.678306 
L 184.096113 -96.341664 
L 180.816774 -97.71232 
L 177.537435 -86.061417 
L 174.258097 -88.851216 
L 170.978758 -97.717816 
L 167.699419 -97.238481 
L 164.42008 -99.556618 
L 161.140741 -151.988795 
L 157.861402 -115.87619 
L 154.582064 -130.762717 
L 151.302725 -131.806169 
L 148.023386 -107.215078 
L 144.744047 -86.685815 
L 141.464708 -99.946741 
L 138.185369 -105.763706 
L 134.90603 -92.558779 
L 131.626692 -108.777491 
L 128.347353 -109.072753 
L 125.068014 -115.303401 
L 121.788675 -112.548753 
L 118.509336 -112.671528 
L 115.229997 -134.728404 
L 111.950659 -129.659896 
L 108.67132 -106.036859 
L 105.391981 -103.595881 
L 102.112642 -105.437338 
L 98.833303 -118.041986 
L 95.553964 -118.409305 
L 92.274626 -126.702816 
L 88.995287 -159.713156 
L 85.715948 -151.142301 
L 82.436609 -199.770599 
L 79.15727 -203.247987 
L 75.877931 -228.834238 
L 72.598592 -262.107403 
L 69.319254 -216.294528 
L 66.039915 -248.946208 
z
" style="stroke: #dd8452; stroke-opacity: 0.2"/>
    </defs>
    <g clip-path="url(#pe0a3240989)">
     <use xlink:href="#mfda8c8b5c5" x="0" y="320.239789" style="fill: #dd8452; fill-opacity: 0.2; stroke: #dd8452; stroke-opacity: 0.2"/>
    </g>
   </g>
   <g id="PolyCollection_3">
    <defs>
     <path id="me1805f58c7" d="M 66.039915 -296.975687 
L 66.039915 -194.641705 
L 69.319254 -162.124558 
L 72.598592 -153.070848 
L 75.877931 -137.6368 
L 79.15727 -129.993692 
L 82.436609 -119.22367 
L 85.715948 -112.656821 
L 88.995287 -101.614286 
L 92.274626 -95.177552 
L 95.553964 -93.044567 
L 98.833303 -87.727826 
L 102.112642 -84.388281 
L 105.391981 -81.130601 
L 108.67132 -79.496428 
L 111.950659 -80.338548 
L 115.229997 -75.043386 
L 118.509336 -73.550063 
L 121.788675 -72.716124 
L 125.068014 -71.589481 
L 128.347353 -70.352787 
L 131.626692 -69.005339 
L 134.90603 -68.895413 
L 138.185369 -66.671507 
L 141.464708 -66.61793 
L 144.744047 -65.630623 
L 148.023386 -65.552662 
L 151.302725 -64.671683 
L 154.582064 -64.32856 
L 157.861402 -64.484063 
L 161.140741 -64.20341 
L 164.42008 -63.429521 
L 167.699419 -62.918099 
L 170.978758 -63.130975 
L 174.258097 -62.065372 
L 177.537435 -61.64946 
L 180.816774 -62.452117 
L 184.096113 -61.56976 
L 187.375452 -61.455796 
L 190.654791 -61.754515 
L 193.93413 -61.246729 
L 197.213468 -61.819379 
L 200.492807 -60.474812 
L 203.772146 -60.511026 
L 207.051485 -60.28591 
L 210.330824 -60.209253 
L 213.610163 -60.237912 
L 216.889502 -60.126246 
L 220.16884 -59.956485 
L 223.448179 -59.52823 
L 226.727518 -58.981202 
L 230.006857 -58.759566 
L 233.286196 -58.58319 
L 236.565535 -58.445375 
L 239.844873 -57.986182 
L 243.124212 -57.829109 
L 246.403551 -57.821833 
L 249.68289 -57.857943 
L 252.962229 -57.988419 
L 256.241568 -57.515798 
L 259.520907 -57.76301 
L 262.800245 -57.652537 
L 266.079584 -57.870238 
L 269.358923 -57.631325 
L 272.638262 -57.351086 
L 275.917601 -57.570875 
L 279.19694 -57.382844 
L 282.476278 -57.223031 
L 285.755617 -57.331097 
L 289.034956 -57.212061 
L 292.314295 -68.171948 
L 295.593634 -67.803315 
L 298.872973 -68.351752 
L 302.152311 -68.352125 
L 305.43165 -67.501268 
L 308.710989 -67.519892 
L 311.990328 -67.822295 
L 315.269667 -67.031583 
L 318.549006 -67.895707 
L 321.828345 -67.421351 
L 325.107683 -68.308343 
L 328.387022 -68.475425 
L 331.666361 -69.138289 
L 334.9457 -68.494385 
L 338.225039 -67.355408 
L 341.504378 -68.14734 
L 344.783716 -68.279409 
L 348.063055 -68.527674 
L 351.342394 -67.514218 
L 354.621733 -67.967978 
L 357.901072 -67.907698 
L 361.180411 -67.637499 
L 364.459749 -66.917451 
L 367.739088 -67.346548 
L 371.018427 -66.024694 
L 374.297766 -67.52369 
L 377.577105 -67.372241 
L 380.856444 -67.115833 
L 384.135783 -66.717119 
L 387.415121 -66.792435 
L 390.69446 -66.844235 
L 390.69446 -89.318089 
L 390.69446 -89.318089 
L 387.415121 -88.191284 
L 384.135783 -88.204575 
L 380.856444 -87.901043 
L 377.577105 -87.48888 
L 374.297766 -87.821514 
L 371.018427 -88.174431 
L 367.739088 -88.925072 
L 364.459749 -86.828275 
L 361.180411 -89.804008 
L 357.901072 -90.155932 
L 354.621733 -91.199291 
L 351.342394 -87.928834 
L 348.063055 -89.51616 
L 344.783716 -90.32207 
L 341.504378 -89.424483 
L 338.225039 -89.626429 
L 334.9457 -91.699673 
L 331.666361 -90.893822 
L 328.387022 -90.607437 
L 325.107683 -90.336284 
L 321.828345 -89.750889 
L 318.549006 -90.045977 
L 315.269667 -88.786243 
L 311.990328 -89.507322 
L 308.710989 -89.597334 
L 305.43165 -89.445602 
L 302.152311 -89.213488 
L 298.872973 -89.738787 
L 295.593634 -89.98295 
L 292.314295 -90.952423 
L 289.034956 -68.915206 
L 285.755617 -68.404281 
L 282.476278 -69.169461 
L 279.19694 -69.610529 
L 275.917601 -68.911544 
L 272.638262 -69.809329 
L 269.358923 -69.040584 
L 266.079584 -69.267644 
L 262.800245 -69.367212 
L 259.520907 -69.157714 
L 256.241568 -69.686022 
L 252.962229 -69.884694 
L 249.68289 -70.119828 
L 246.403551 -70.363084 
L 243.124212 -69.579324 
L 239.844873 -70.58224 
L 236.565535 -70.213836 
L 233.286196 -75.204169 
L 230.006857 -77.048847 
L 226.727518 -75.258891 
L 223.448179 -78.363402 
L 220.16884 -79.074524 
L 216.889502 -79.160138 
L 213.610163 -79.116514 
L 210.330824 -79.570327 
L 207.051485 -80.066892 
L 203.772146 -79.314102 
L 200.492807 -81.844794 
L 197.213468 -82.255794 
L 193.93413 -82.108629 
L 190.654791 -83.050271 
L 187.375452 -82.994971 
L 184.096113 -84.272482 
L 180.816774 -84.04539 
L 177.537435 -85.162305 
L 174.258097 -85.34147 
L 170.978758 -85.955213 
L 167.699419 -88.034285 
L 164.42008 -87.736572 
L 161.140741 -90.172592 
L 157.861402 -88.552444 
L 154.582064 -87.75306 
L 151.302725 -87.918901 
L 148.023386 -87.982496 
L 144.744047 -88.74384 
L 141.464708 -89.999352 
L 138.185369 -92.343222 
L 134.90603 -93.795562 
L 131.626692 -97.485836 
L 128.347353 -97.551232 
L 125.068014 -100.736909 
L 121.788675 -101.30114 
L 118.509336 -102.529724 
L 115.229997 -106.166921 
L 111.950659 -110.850564 
L 108.67132 -111.423929 
L 105.391981 -111.985304 
L 102.112642 -118.655725 
L 98.833303 -123.423185 
L 95.553964 -132.539568 
L 92.274626 -138.067072 
L 88.995287 -150.634175 
L 85.715948 -163.325725 
L 82.436609 -164.523641 
L 79.15727 -176.094542 
L 75.877931 -188.117773 
L 72.598592 -202.697727 
L 69.319254 -205.983751 
L 66.039915 -296.975687 
z
" style="stroke: #55a868; stroke-opacity: 0.2"/>
    </defs>
    <g clip-path="url(#pe0a3240989)">
     <use xlink:href="#me1805f58c7" x="0" y="320.239789" style="fill: #55a868; fill-opacity: 0.2; stroke: #55a868; stroke-opacity: 0.2"/>
    </g>
   </g>
   <g id="PolyCollection_4">
    <defs>
     <path id="mc8e1f523da" d="M 66.039915 -218.518227 
L 66.039915 -195.002628 
L 69.319254 -185.243794 
L 72.598592 -195.916515 
L 75.877931 -187.080742 
L 79.15727 -197.595611 
L 82.436609 -177.802818 
L 85.715948 -149.96721 
L 88.995287 -157.08951 
L 92.274626 -166.357641 
L 95.553964 -172.250629 
L 98.833303 -157.091864 
L 102.112642 -123.544529 
L 105.391981 -121.511981 
L 108.67132 -110.621529 
L 111.950659 -103.444296 
L 115.229997 -104.681425 
L 118.509336 -96.22685 
L 121.788675 -89.971804 
L 125.068014 -86.916961 
L 128.347353 -82.69506 
L 131.626692 -80.565607 
L 134.90603 -76.812295 
L 138.185369 -75.546395 
L 141.464708 -75.394354 
L 144.744047 -74.010213 
L 148.023386 -71.375731 
L 151.302725 -70.609101 
L 154.582064 -68.199256 
L 157.861402 -70.606953 
L 161.140741 -68.017244 
L 164.42008 -66.101268 
L 167.699419 -65.883755 
L 170.978758 -64.401407 
L 174.258097 -64.101104 
L 177.537435 -63.452229 
L 180.816774 -63.312683 
L 184.096113 -63.095078 
L 187.375452 -62.741374 
L 190.654791 -62.172172 
L 193.93413 -61.500089 
L 197.213468 -61.172388 
L 200.492807 -61.225925 
L 203.772146 -60.421845 
L 207.051485 -60.229325 
L 210.330824 -59.994191 
L 213.610163 -59.838363 
L 216.889502 -59.625881 
L 220.16884 -58.981099 
L 223.448179 -59.161633 
L 226.727518 -59.143364 
L 230.006857 -58.939239 
L 233.286196 -58.216806 
L 236.565535 -58.064771 
L 239.844873 -57.997779 
L 243.124212 -57.846026 
L 246.403551 -57.303625 
L 249.68289 -57.533656 
L 252.962229 -57.397116 
L 256.241568 -57.189497 
L 259.520907 -57.083639 
L 262.800245 -56.957012 
L 266.079584 -56.947515 
L 269.358923 -56.97036 
L 272.638262 -56.64864 
L 275.917601 -56.761298 
L 279.19694 -56.854716 
L 282.476278 -56.77047 
L 285.755617 -56.570407 
L 289.034956 -56.519622 
L 292.314295 -70.830378 
L 295.593634 -69.987042 
L 298.872973 -70.272532 
L 302.152311 -69.941399 
L 305.43165 -69.886072 
L 308.710989 -69.227975 
L 311.990328 -69.463467 
L 315.269667 -69.320995 
L 318.549006 -69.665885 
L 321.828345 -69.131773 
L 325.107683 -70.464878 
L 328.387022 -69.944864 
L 331.666361 -69.406077 
L 334.9457 -69.167515 
L 338.225039 -69.638918 
L 341.504378 -69.8329 
L 344.783716 -69.460719 
L 348.063055 -68.859961 
L 351.342394 -68.470606 
L 354.621733 -68.749937 
L 357.901072 -68.378705 
L 361.180411 -68.8229 
L 364.459749 -67.970541 
L 367.739088 -68.280181 
L 371.018427 -68.413052 
L 374.297766 -68.8908 
L 377.577105 -68.419568 
L 380.856444 -68.65612 
L 384.135783 -67.789582 
L 387.415121 -68.564991 
L 390.69446 -68.517041 
L 390.69446 -89.804922 
L 390.69446 -89.804922 
L 387.415121 -90.089371 
L 384.135783 -89.699647 
L 380.856444 -91.201597 
L 377.577105 -89.11528 
L 374.297766 -89.033689 
L 371.018427 -89.871082 
L 367.739088 -90.589181 
L 364.459749 -90.425139 
L 361.180411 -89.601443 
L 357.901072 -90.093031 
L 354.621733 -90.847632 
L 351.342394 -89.919556 
L 348.063055 -90.425022 
L 344.783716 -90.279049 
L 341.504378 -91.282728 
L 338.225039 -90.814903 
L 334.9457 -90.239956 
L 331.666361 -91.059829 
L 328.387022 -91.482057 
L 325.107683 -90.509235 
L 321.828345 -90.995262 
L 318.549006 -91.763477 
L 315.269667 -90.677732 
L 311.990328 -91.579693 
L 308.710989 -90.395051 
L 305.43165 -92.122295 
L 302.152311 -91.215353 
L 298.872973 -91.214067 
L 295.593634 -90.657109 
L 292.314295 -91.890843 
L 289.034956 -63.849379 
L 285.755617 -63.808463 
L 282.476278 -63.698915 
L 279.19694 -63.991888 
L 275.917601 -64.58974 
L 272.638262 -65.752866 
L 269.358923 -65.963407 
L 266.079584 -66.656816 
L 262.800245 -66.647105 
L 259.520907 -66.621464 
L 256.241568 -66.258193 
L 252.962229 -65.870406 
L 249.68289 -65.874455 
L 246.403551 -67.231031 
L 243.124212 -66.346889 
L 239.844873 -68.03253 
L 236.565535 -67.212654 
L 233.286196 -68.895622 
L 230.006857 -68.868356 
L 226.727518 -69.695017 
L 223.448179 -69.827229 
L 220.16884 -70.536324 
L 216.889502 -70.716321 
L 213.610163 -70.318468 
L 210.330824 -72.268345 
L 207.051485 -76.144819 
L 203.772146 -77.571727 
L 200.492807 -77.422804 
L 197.213468 -79.178689 
L 193.93413 -78.226684 
L 190.654791 -80.35997 
L 187.375452 -82.202595 
L 184.096113 -82.319678 
L 180.816774 -84.22162 
L 177.537435 -82.828017 
L 174.258097 -84.730194 
L 170.978758 -85.404411 
L 167.699419 -87.859366 
L 164.42008 -89.103193 
L 161.140741 -86.910213 
L 157.861402 -87.271386 
L 154.582064 -89.338478 
L 151.302725 -92.602145 
L 148.023386 -95.145332 
L 144.744047 -95.842097 
L 141.464708 -99.304142 
L 138.185369 -98.189364 
L 134.90603 -102.285585 
L 131.626692 -108.365298 
L 128.347353 -109.162281 
L 125.068014 -117.750908 
L 121.788675 -120.533676 
L 118.509336 -122.35744 
L 115.229997 -128.703168 
L 111.950659 -132.5256 
L 108.67132 -135.646495 
L 105.391981 -141.642907 
L 102.112642 -147.741278 
L 98.833303 -172.859337 
L 95.553964 -185.597897 
L 92.274626 -184.375813 
L 88.995287 -180.845995 
L 85.715948 -179.253936 
L 82.436609 -196.239262 
L 79.15727 -208.187415 
L 75.877931 -205.347792 
L 72.598592 -211.416618 
L 69.319254 -208.896534 
L 66.039915 -218.518227 
z
" style="stroke: #c44e52; stroke-opacity: 0.2"/>
    </defs>
    <g clip-path="url(#pe0a3240989)">
     <use xlink:href="#mc8e1f523da" x="0" y="320.239789" style="fill: #c44e52; fill-opacity: 0.2; stroke: #c44e52; stroke-opacity: 0.2"/>
    </g>
   </g>
   <g id="PolyCollection_5">
    <defs>
     <path id="m2d93d25d5a" d="M 66.039915 -224.047115 
L 66.039915 -211.437819 
L 69.319254 -200.358427 
L 72.598592 -199.436407 
L 75.877931 -194.756344 
L 79.15727 -191.211342 
L 82.436609 -180.997877 
L 85.715948 -177.546436 
L 88.995287 -168.252321 
L 92.274626 -165.665581 
L 95.553964 -161.777082 
L 98.833303 -156.738564 
L 102.112642 -155.681574 
L 105.391981 -153.286498 
L 108.67132 -150.737966 
L 111.950659 -147.064666 
L 115.229997 -142.214737 
L 118.509336 -138.887925 
L 121.788675 -136.361321 
L 125.068014 -132.019398 
L 128.347353 -129.028599 
L 131.626692 -126.207138 
L 134.90603 -125.89081 
L 138.185369 -125.053535 
L 141.464708 -120.735534 
L 144.744047 -120.471755 
L 148.023386 -119.859214 
L 151.302725 -118.600747 
L 154.582064 -115.739355 
L 157.861402 -114.956925 
L 161.140741 -115.076859 
L 164.42008 -110.345983 
L 167.699419 -110.358364 
L 170.978758 -109.860276 
L 174.258097 -108.401839 
L 177.537435 -107.173503 
L 180.816774 -102.76791 
L 184.096113 -103.064365 
L 187.375452 -101.38307 
L 190.654791 -99.914449 
L 193.93413 -99.041152 
L 197.213468 -97.962122 
L 200.492807 -97.341592 
L 203.772146 -95.644749 
L 207.051485 -96.02425 
L 210.330824 -94.714307 
L 213.610163 -93.232446 
L 216.889502 -92.391603 
L 220.16884 -91.005552 
L 223.448179 -90.31292 
L 226.727518 -90.695567 
L 230.006857 -89.66274 
L 233.286196 -88.109474 
L 236.565535 -87.468566 
L 239.844873 -87.624132 
L 243.124212 -85.879959 
L 246.403551 -85.785374 
L 249.68289 -85.774699 
L 252.962229 -84.940136 
L 256.241568 -83.409369 
L 259.520907 -82.692194 
L 262.800245 -82.148539 
L 266.079584 -82.27788 
L 269.358923 -82.020189 
L 272.638262 -81.762277 
L 275.917601 -80.344238 
L 279.19694 -80.057219 
L 282.476278 -79.608633 
L 285.755617 -77.821185 
L 289.034956 -78.171946 
L 292.314295 -104.47215 
L 295.593634 -105.542729 
L 298.872973 -104.426856 
L 302.152311 -103.28378 
L 305.43165 -103.884542 
L 308.710989 -104.178253 
L 311.990328 -102.476592 
L 315.269667 -103.06123 
L 318.549006 -103.088336 
L 321.828345 -102.955649 
L 325.107683 -102.541645 
L 328.387022 -102.12009 
L 331.666361 -103.441982 
L 334.9457 -102.719011 
L 338.225039 -102.209552 
L 341.504378 -101.119346 
L 344.783716 -101.863903 
L 348.063055 -101.291648 
L 351.342394 -99.00302 
L 354.621733 -100.351136 
L 357.901072 -100.335419 
L 361.180411 -100.70885 
L 364.459749 -100.350251 
L 367.739088 -99.994118 
L 371.018427 -98.886515 
L 374.297766 -98.944832 
L 377.577105 -99.309334 
L 380.856444 -98.012031 
L 384.135783 -98.683092 
L 387.415121 -98.234293 
L 390.69446 -97.266431 
L 390.69446 -132.160081 
L 390.69446 -132.160081 
L 387.415121 -131.647312 
L 384.135783 -132.208604 
L 380.856444 -132.813727 
L 377.577105 -133.769673 
L 374.297766 -131.734681 
L 371.018427 -133.202268 
L 367.739088 -133.44479 
L 364.459749 -133.505279 
L 361.180411 -134.0415 
L 357.901072 -134.234082 
L 354.621733 -134.412983 
L 351.342394 -134.423736 
L 348.063055 -134.500183 
L 344.783716 -136.142367 
L 341.504378 -134.469858 
L 338.225039 -135.209282 
L 334.9457 -134.482807 
L 331.666361 -135.282586 
L 328.387022 -135.39789 
L 325.107683 -136.921549 
L 321.828345 -136.426188 
L 318.549006 -135.975374 
L 315.269667 -136.480564 
L 311.990328 -136.698601 
L 308.710989 -135.60697 
L 305.43165 -135.078177 
L 302.152311 -137.036042 
L 298.872973 -136.17906 
L 295.593634 -136.25301 
L 292.314295 -136.837005 
L 289.034956 -105.54369 
L 285.755617 -105.344984 
L 282.476278 -107.083919 
L 279.19694 -108.752643 
L 275.917601 -108.692786 
L 272.638262 -110.366172 
L 269.358923 -110.908811 
L 266.079584 -111.509342 
L 262.800245 -110.243292 
L 259.520907 -111.681062 
L 256.241568 -113.440363 
L 252.962229 -114.603665 
L 249.68289 -115.353075 
L 246.403551 -114.838093 
L 243.124212 -116.962843 
L 239.844873 -117.613924 
L 236.565535 -117.374672 
L 233.286196 -117.628429 
L 230.006857 -120.229196 
L 226.727518 -120.112794 
L 223.448179 -119.290262 
L 220.16884 -120.472169 
L 216.889502 -122.606988 
L 213.610163 -122.706671 
L 210.330824 -124.223253 
L 207.051485 -125.320177 
L 203.772146 -126.989414 
L 200.492807 -127.201565 
L 197.213468 -127.456325 
L 193.93413 -129.154438 
L 190.654791 -131.325406 
L 187.375452 -132.825875 
L 184.096113 -133.382959 
L 180.816774 -134.937692 
L 177.537435 -137.853948 
L 174.258097 -140.190031 
L 170.978758 -139.485456 
L 167.699419 -141.883409 
L 164.42008 -142.74874 
L 161.140741 -145.578018 
L 157.861402 -146.420902 
L 154.582064 -148.90234 
L 151.302725 -152.092756 
L 148.023386 -152.573423 
L 144.744047 -151.745724 
L 141.464708 -154.12412 
L 138.185369 -154.664486 
L 134.90603 -158.217608 
L 131.626692 -158.090338 
L 128.347353 -161.404394 
L 125.068014 -164.114513 
L 121.788675 -166.708097 
L 118.509336 -171.841805 
L 115.229997 -173.06188 
L 111.950659 -178.517584 
L 108.67132 -181.812109 
L 105.391981 -184.683551 
L 102.112642 -188.842728 
L 98.833303 -190.355857 
L 95.553964 -195.067207 
L 92.274626 -197.689894 
L 88.995287 -202.666265 
L 85.715948 -206.5117 
L 82.436609 -209.987955 
L 79.15727 -215.9273 
L 75.877931 -218.800711 
L 72.598592 -222.585578 
L 69.319254 -223.642228 
L 66.039915 -224.047115 
z
" style="stroke: #8172b3; stroke-opacity: 0.2"/>
    </defs>
    <g clip-path="url(#pe0a3240989)">
     <use xlink:href="#m2d93d25d5a" x="0" y="320.239789" style="fill: #8172b3; fill-opacity: 0.2; stroke: #8172b3; stroke-opacity: 0.2"/>
    </g>
   </g>
   <g id="line2d_15">
    <path d="M 66.039915 107.450818 
L 69.319254 150.710213 
L 72.598592 145.472606 
L 75.877931 176.298237 
L 79.15727 200.914477 
L 82.436609 207.179589 
L 85.715948 231.826493 
L 88.995287 231.51301 
L 92.274626 241.192347 
L 95.553964 248.902251 
L 98.833303 250.333448 
L 102.112642 251.792394 
L 105.391981 252.714458 
L 108.67132 252.244399 
L 111.950659 251.269959 
L 115.229997 251.341792 
L 118.509336 253.508872 
L 121.788675 255.155394 
L 125.068014 254.201646 
L 128.347353 256.673947 
L 131.626692 256.917383 
L 134.90603 258.830518 
L 138.185369 257.865568 
L 141.464708 258.294007 
L 144.744047 258.819992 
L 148.023386 258.345239 
L 151.302725 256.214399 
L 154.582064 256.252788 
L 157.861402 255.87372 
L 161.140741 253.831785 
L 164.42008 257.278136 
L 167.699419 258.227559 
L 170.978758 259.497901 
L 174.258097 259.480382 
L 177.537435 260.67145 
L 180.816774 260.334379 
L 184.096113 261.297194 
L 187.375452 261.848654 
L 190.654791 260.275101 
L 193.93413 261.742276 
L 197.213468 262.078592 
L 200.492807 261.56513 
L 203.772146 262.505765 
L 207.051485 262.017995 
L 210.330824 262.063782 
L 213.610163 261.618768 
L 216.889502 261.864137 
L 220.16884 261.826719 
L 223.448179 261.791525 
L 226.727518 262.426937 
L 230.006857 262.025483 
L 233.286196 263.409561 
L 236.565535 262.707476 
L 239.844873 263.215339 
L 243.124212 263.166061 
L 246.403551 263.558975 
L 249.68289 261.926479 
L 252.962229 262.175385 
L 256.241568 262.786942 
L 259.520907 262.324748 
L 262.800245 262.173462 
L 266.079584 263.356879 
L 269.358923 263.288261 
L 272.638262 263.643182 
L 275.917601 264.005227 
L 279.19694 264.155844 
L 282.476278 263.394431 
L 285.755617 263.673634 
L 289.034956 263.783808 
L 292.314295 261.586387 
L 295.593634 260.694963 
L 298.872973 260.175697 
L 302.152311 260.177296 
L 305.43165 259.944064 
L 308.710989 261.035797 
L 311.990328 260.964148 
L 315.269667 260.873854 
L 318.549006 260.716486 
L 321.828345 260.229206 
L 325.107683 260.23194 
L 328.387022 261.105725 
L 331.666361 260.143701 
L 334.9457 260.782626 
L 338.225039 261.290843 
L 341.504378 260.929927 
L 344.783716 260.738119 
L 348.063055 260.560801 
L 351.342394 260.306115 
L 354.621733 260.805759 
L 357.901072 259.488941 
L 361.180411 259.817377 
L 364.459749 260.670445 
L 367.739088 260.553657 
L 371.018427 260.11943 
L 374.297766 260.08455 
L 377.577105 260.025198 
L 380.856444 260.995438 
L 384.135783 260.37165 
L 387.415121 260.202793 
L 390.69446 260.345291 
" clip-path="url(#pe0a3240989)" style="fill: none; stroke: #4c72b0; stroke-width: 1.5; stroke-linecap: round"/>
   </g>
   <g id="line2d_16">
    <path d="M 66.039915 84.313459 
L 69.319254 114.241075 
L 72.598592 77.897596 
L 75.877931 120.960231 
L 79.15727 140.761127 
L 82.436609 141.867273 
L 85.715948 187.155453 
L 88.995287 182.071555 
L 92.274626 203.263054 
L 95.553964 214.780606 
L 98.833303 213.0084 
L 102.112642 223.924669 
L 105.391981 222.953562 
L 108.67132 222.365776 
L 111.950659 207.151084 
L 115.229997 200.980449 
L 118.509336 222.10433 
L 121.788675 219.267843 
L 125.068014 217.840803 
L 128.347353 222.461438 
L 131.626692 221.594588 
L 134.90603 232.811944 
L 138.185369 223.524071 
L 141.464708 228.880418 
L 144.744047 239.053851 
L 148.023386 223.550571 
L 151.302725 207.550572 
L 154.582064 207.92213 
L 157.861402 219.960769 
L 161.140741 197.741233 
L 164.42008 233.171657 
L 167.699419 234.750667 
L 170.978758 230.663864 
L 174.258097 236.418892 
L 177.537435 240.177421 
L 180.816774 231.486577 
L 184.096113 233.879914 
L 187.375452 239.666478 
L 190.654791 222.975814 
L 193.93413 241.200429 
L 197.213468 235.917653 
L 200.492807 242.176921 
L 203.772146 248.102634 
L 207.051485 240.178815 
L 210.330824 242.410769 
L 213.610163 211.361854 
L 216.889502 232.332081 
L 220.16884 226.000782 
L 223.448179 237.8294 
L 226.727518 244.491829 
L 230.006857 234.874744 
L 233.286196 250.882597 
L 236.565535 245.788725 
L 239.844873 249.541033 
L 243.124212 244.923591 
L 246.403551 252.020678 
L 249.68289 249.527272 
L 252.962229 226.079312 
L 256.241568 250.548817 
L 259.520907 229.500382 
L 262.800245 214.831304 
L 266.079584 251.300353 
L 269.358923 245.927359 
L 272.638262 249.302735 
L 275.917601 249.876264 
L 279.19694 244.568885 
L 282.476278 225.369792 
L 285.755617 234.323772 
L 289.034956 236.550169 
L 292.314295 248.169291 
L 295.593634 230.229623 
L 298.872973 240.20577 
L 302.152311 244.346471 
L 305.43165 233.469376 
L 308.710989 249.480262 
L 311.990328 247.542946 
L 315.269667 246.605132 
L 318.549006 253.6144 
L 321.828345 247.869136 
L 325.107683 251.653945 
L 328.387022 252.333775 
L 331.666361 238.975878 
L 334.9457 244.2691 
L 338.225039 246.310408 
L 341.504378 245.052172 
L 344.783716 245.514879 
L 348.063055 248.753598 
L 351.342394 248.200862 
L 354.621733 253.688707 
L 357.901072 244.077415 
L 361.180411 250.671976 
L 364.459749 252.600587 
L 367.739088 254.536869 
L 371.018427 250.274009 
L 374.297766 234.590553 
L 377.577105 243.702268 
L 380.856444 251.96878 
L 384.135783 255.525054 
L 387.415121 248.000389 
L 390.69446 253.161732 
" clip-path="url(#pe0a3240989)" style="fill: none; stroke: #dd8452; stroke-width: 1.5; stroke-linecap: round"/>
   </g>
   <g id="line2d_17">
    <path d="M 66.039915 83.644134 
L 69.319254 135.405988 
L 72.598592 142.093015 
L 75.877931 157.74027 
L 79.15727 167.282531 
L 82.436609 177.172865 
L 85.715948 183.869494 
L 88.995287 195.030092 
L 92.274626 205.244126 
L 95.553964 209.409526 
L 98.833303 215.979863 
L 102.112642 218.460735 
L 105.391981 224.713676 
L 108.67132 224.997586 
L 111.950659 226.457476 
L 115.229997 231.615984 
L 118.509336 232.943842 
L 121.788675 234.779614 
L 125.068014 235.371583 
L 128.347353 237.422309 
L 131.626692 238.199845 
L 134.90603 240.323165 
L 138.185369 242.199078 
L 141.464708 242.780539 
L 144.744047 244.291009 
L 148.023386 244.83432 
L 151.302725 245.040461 
L 154.582064 246.084983 
L 157.861402 245.32392 
L 161.140741 245.476176 
L 164.42008 246.140741 
L 167.699419 246.469453 
L 170.978758 247.218256 
L 174.258097 248.023283 
L 177.537435 248.27099 
L 180.816774 248.321704 
L 184.096113 249.031985 
L 187.375452 249.201354 
L 190.654791 249.925251 
L 193.93413 250.270056 
L 197.213468 250.169291 
L 200.492807 250.790273 
L 203.772146 251.744609 
L 207.051485 251.896961 
L 210.330824 251.986667 
L 213.610163 252.283343 
L 216.889502 252.188484 
L 220.16884 252.858362 
L 223.448179 252.929003 
L 226.727518 254.422894 
L 230.006857 254.678651 
L 233.286196 254.803347 
L 236.565535 256.849138 
L 239.844873 257.129345 
L 243.124212 257.551194 
L 246.403551 257.551441 
L 249.68289 257.22015 
L 252.962229 257.370311 
L 256.241568 257.917602 
L 259.520907 258.181165 
L 262.800245 257.712399 
L 266.079584 257.716825 
L 269.358923 257.758005 
L 272.638262 258.108889 
L 275.917601 258.014111 
L 279.19694 258.176938 
L 282.476278 258.475936 
L 285.755617 258.439528 
L 289.034956 258.463244 
L 292.314295 241.876351 
L 295.593634 242.556864 
L 298.872973 242.510042 
L 302.152311 242.680946 
L 305.43165 242.833858 
L 308.710989 242.739307 
L 311.990328 242.704806 
L 315.269667 243.039652 
L 318.549006 242.212306 
L 321.828345 242.081306 
L 325.107683 242.103832 
L 328.387022 241.742854 
L 331.666361 241.544611 
L 334.9457 241.677846 
L 338.225039 242.859272 
L 341.504378 242.835556 
L 344.783716 242.448317 
L 348.063055 242.551936 
L 351.342394 243.07029 
L 354.621733 242.22466 
L 357.901072 242.312893 
L 361.180411 242.377314 
L 364.459749 243.770769 
L 367.739088 243.49303 
L 371.018427 243.853274 
L 374.297766 243.887055 
L 377.577105 243.868287 
L 380.856444 243.916925 
L 384.135783 244.189038 
L 387.415121 244.190073 
L 390.69446 243.978492 
" clip-path="url(#pe0a3240989)" style="fill: none; stroke: #55a868; stroke-width: 1.5; stroke-linecap: round"/>
   </g>
   <g id="line2d_18">
    <path d="M 66.039915 112.482503 
L 69.319254 123.037649 
L 72.598592 116.252532 
L 75.877931 124.535763 
L 79.15727 117.345055 
L 82.436609 132.937316 
L 85.715948 154.8516 
L 88.995287 151.70407 
L 92.274626 144.997769 
L 95.553964 141.373794 
L 98.833303 155.531504 
L 102.112642 185.345268 
L 105.391981 189.088929 
L 108.67132 197.68713 
L 111.950659 203.139226 
L 115.229997 204.428834 
L 118.509336 211.796393 
L 121.788675 215.966097 
L 125.068014 219.668704 
L 128.347353 225.071858 
L 131.626692 226.476894 
L 134.90603 231.683925 
L 138.185369 234.143508 
L 141.464708 234.389346 
L 144.744047 236.396595 
L 148.023386 238.272652 
L 151.302725 240.234387 
L 154.582064 243.307306 
L 157.861402 242.376931 
L 161.140741 244.536402 
L 164.42008 245.043957 
L 167.699419 245.82736 
L 170.978758 247.293932 
L 174.258097 247.771951 
L 177.537435 248.770062 
L 180.816774 248.541483 
L 184.096113 249.257172 
L 187.375452 249.976836 
L 190.654791 250.821829 
L 193.93413 252.324276 
L 197.213468 252.51998 
L 200.492807 252.946434 
L 203.772146 253.426511 
L 207.051485 253.608357 
L 210.330824 255.168149 
L 213.610163 255.908572 
L 216.889502 256.109171 
L 220.16884 256.690499 
L 223.448179 256.615173 
L 226.727518 256.876267 
L 230.006857 257.208815 
L 233.286196 257.700999 
L 236.565535 258.269382 
L 239.844873 258.505695 
L 243.124212 258.914969 
L 246.403551 259.102732 
L 249.68289 259.492854 
L 252.962229 259.404233 
L 256.241568 259.352895 
L 259.520907 259.417662 
L 262.800245 259.405439 
L 266.079584 259.541488 
L 269.358923 259.828079 
L 272.638262 259.911333 
L 275.917601 260.319633 
L 279.19694 260.417034 
L 282.476278 260.587258 
L 285.755617 260.684554 
L 289.034956 260.808281 
L 292.314295 240.190413 
L 295.593634 240.198311 
L 298.872973 240.266499 
L 302.152311 240.439336 
L 305.43165 240.336981 
L 308.710989 240.700764 
L 311.990328 240.676788 
L 315.269667 240.385297 
L 318.549006 240.592918 
L 321.828345 240.508348 
L 325.107683 240.482483 
L 328.387022 240.749644 
L 331.666361 240.719481 
L 334.9457 240.873932 
L 338.225039 240.765421 
L 341.504378 240.794803 
L 344.783716 240.681684 
L 348.063055 240.718106 
L 351.342394 240.819324 
L 354.621733 241.211338 
L 357.901072 241.304201 
L 361.180411 241.426976 
L 364.459749 241.619985 
L 367.739088 241.691631 
L 371.018427 241.723023 
L 374.297766 241.680882 
L 377.577105 241.717392 
L 380.856444 241.67286 
L 384.135783 241.754519 
L 387.415121 241.776808 
L 390.69446 241.865908 
" clip-path="url(#pe0a3240989)" style="fill: none; stroke: #c44e52; stroke-width: 1.5; stroke-linecap: round"/>
   </g>
   <g id="line2d_19">
    <path d="M 66.039915 101.225901 
L 69.319254 107.10793 
L 72.598592 108.293668 
L 75.877931 113.394725 
L 79.15727 117.029982 
L 82.436609 124.67964 
L 85.715948 128.188238 
L 88.995287 134.134408 
L 92.274626 138.092155 
L 95.553964 140.71343 
L 98.833303 146.360499 
L 102.112642 147.461669 
L 105.391981 150.944131 
L 108.67132 154.353365 
L 111.950659 157.953176 
L 115.229997 161.489733 
L 118.509336 163.846157 
L 121.788675 168.88148 
L 125.068014 172.661866 
L 128.347353 175.91174 
L 131.626692 178.688486 
L 134.90603 179.073064 
L 138.185369 180.633476 
L 141.464708 182.405451 
L 144.744047 183.695044 
L 148.023386 184.641061 
L 151.302725 185.650935 
L 154.582064 187.680032 
L 157.861402 189.436546 
L 161.140741 191.177993 
L 164.42008 193.549837 
L 167.699419 194.400685 
L 170.978758 195.832807 
L 174.258097 196.874612 
L 177.537435 199.134485 
L 180.816774 201.865564 
L 184.096113 202.328846 
L 187.375452 204.337135 
L 190.654791 205.598652 
L 193.93413 207.467551 
L 197.213468 208.530819 
L 200.492807 208.496236 
L 203.772146 209.719287 
L 207.051485 210.302581 
L 210.330824 211.198214 
L 213.610163 213.112806 
L 216.889502 214.15131 
L 220.16884 215.272363 
L 223.448179 215.882346 
L 226.727518 215.992839 
L 230.006857 217.14778 
L 233.286196 218.507844 
L 236.565535 218.79719 
L 239.844873 219.145715 
L 243.124212 220.026448 
L 246.403551 220.301382 
L 249.68289 221.060659 
L 252.962229 221.65408 
L 256.241568 223.001477 
L 259.520907 224.220132 
L 262.800245 224.702829 
L 266.079584 225.094466 
L 269.358923 225.705749 
L 272.638262 225.557965 
L 275.917601 226.174546 
L 279.19694 227.100753 
L 282.476278 227.909901 
L 285.755617 228.760422 
L 289.034956 229.040161 
L 292.314295 199.796188 
L 295.593634 199.672261 
L 298.872973 200.037384 
L 302.152311 200.345115 
L 305.43165 200.454525 
L 308.710989 200.437743 
L 311.990328 200.517421 
L 315.269667 201.106427 
L 318.549006 201.287323 
L 321.828345 200.951578 
L 325.107683 201.585514 
L 328.387022 201.836439 
L 331.666361 201.595947 
L 334.9457 202.045249 
L 338.225039 202.615478 
L 341.504378 203.011568 
L 344.783716 202.607051 
L 348.063055 202.671995 
L 351.342394 202.961984 
L 354.621733 203.484927 
L 357.901072 203.74024 
L 361.180411 203.544495 
L 364.459749 203.774638 
L 367.739088 204.153528 
L 371.018427 204.348364 
L 374.297766 204.482415 
L 377.577105 204.222843 
L 380.856444 205.320282 
L 384.135783 205.606576 
L 387.415121 205.544975 
L 390.69446 205.554556 
" clip-path="url(#pe0a3240989)" style="fill: none; stroke: #8172b3; stroke-width: 1.5; stroke-linecap: round"/>
   </g>
   <g id="line2d_20"/>
   <g id="line2d_21"/>
   <g id="line2d_22"/>
   <g id="line2d_23"/>
   <g id="line2d_24"/>
   <g id="patch_3">
    <path d="M 49.807187 277.280102 
L 49.807187 11.168102 
" style="fill: none; stroke: #cccccc; stroke-width: 1.25; stroke-linejoin: miter; stroke-linecap: square"/>
   </g>
   <g id="patch_4">
    <path d="M 406.927188 277.280102 
L 406.927188 11.168102 
" style="fill: none; stroke: #cccccc; stroke-width: 1.25; stroke-linejoin: miter; stroke-linecap: square"/>
   </g>
   <g id="patch_5">
    <path d="M 49.807187 277.280102 
L 406.927188 277.280102 
" style="fill: none; stroke: #cccccc; stroke-width: 1.25; stroke-linejoin: miter; stroke-linecap: square"/>
   </g>
   <g id="patch_6">
    <path d="M 49.807187 11.168102 
L 406.927188 11.168102 
" style="fill: none; stroke: #cccccc; stroke-width: 1.25; stroke-linejoin: miter; stroke-linecap: square"/>
   </g>
   <g id="legend_1">
    <g id="patch_7">
     <path d="M 295.242813 117.811539 
L 399.227188 117.811539 
Q 401.427188 117.811539 401.427188 115.611539 
L 401.427188 18.868102 
Q 401.427188 16.668102 399.227188 16.668102 
L 295.242813 16.668102 
Q 293.042813 16.668102 293.042813 18.868102 
L 293.042813 115.611539 
Q 293.042813 117.811539 295.242813 117.811539 
z
" style="fill: #ffffff; opacity: 0.8; stroke: #cccccc; stroke-linejoin: miter"/>
    </g>
    <g id="text_17">
     <!-- Strategy -->
     <g style="fill: #262626" transform="translate(321.525937 30.186227) scale(0.12 -0.12)">
      <defs>
       <path id="DejaVuSans-53" d="M 3425 4513 
L 3425 3897 
Q 3066 4069 2747 4153 
Q 2428 4238 2131 4238 
Q 1616 4238 1336 4038 
Q 1056 3838 1056 3469 
Q 1056 3159 1242 3001 
Q 1428 2844 1947 2747 
L 2328 2669 
Q 3034 2534 3370 2195 
Q 3706 1856 3706 1288 
Q 3706 609 3251 259 
Q 2797 -91 1919 -91 
Q 1588 -91 1214 -16 
Q 841 59 441 206 
L 441 856 
Q 825 641 1194 531 
Q 1563 422 1919 422 
Q 2459 422 2753 634 
Q 3047 847 3047 1241 
Q 3047 1584 2836 1778 
Q 2625 1972 2144 2069 
L 1759 2144 
Q 1053 2284 737 2584 
Q 422 2884 422 3419 
Q 422 4038 858 4394 
Q 1294 4750 2059 4750 
Q 2388 4750 2728 4690 
Q 3069 4631 3425 4513 
z
" transform="scale(0.015625)"/>
       <path id="DejaVuSans-74" d="M 1172 4494 
L 1172 3500 
L 2356 3500 
L 2356 3053 
L 1172 3053 
L 1172 1153 
Q 1172 725 1289 603 
Q 1406 481 1766 481 
L 2356 481 
L 2356 0 
L 1766 0 
Q 1100 0 847 248 
Q 594 497 594 1153 
L 594 3053 
L 172 3053 
L 172 3500 
L 594 3500 
L 594 4494 
L 1172 4494 
z
" transform="scale(0.015625)"/>
       <path id="DejaVuSans-72" d="M 2631 2963 
Q 2534 3019 2420 3045 
Q 2306 3072 2169 3072 
Q 1681 3072 1420 2755 
Q 1159 2438 1159 1844 
L 1159 0 
L 581 0 
L 581 3500 
L 1159 3500 
L 1159 2956 
Q 1341 3275 1631 3429 
Q 1922 3584 2338 3584 
Q 2397 3584 2469 3576 
Q 2541 3569 2628 3553 
L 2631 2963 
z
" transform="scale(0.015625)"/>
       <path id="DejaVuSans-61" d="M 2194 1759 
Q 1497 1759 1228 1600 
Q 959 1441 959 1056 
Q 959 750 1161 570 
Q 1363 391 1709 391 
Q 2188 391 2477 730 
Q 2766 1069 2766 1631 
L 2766 1759 
L 2194 1759 
z
M 3341 1997 
L 3341 0 
L 2766 0 
L 2766 531 
Q 2569 213 2275 61 
Q 1981 -91 1556 -91 
Q 1019 -91 701 211 
Q 384 513 384 1019 
Q 384 1609 779 1909 
Q 1175 2209 1959 2209 
L 2766 2209 
L 2766 2266 
Q 2766 2663 2505 2880 
Q 2244 3097 1772 3097 
Q 1472 3097 1187 3025 
Q 903 2953 641 2809 
L 641 3341 
Q 956 3463 1253 3523 
Q 1550 3584 1831 3584 
Q 2591 3584 2966 3190 
Q 3341 2797 3341 1997 
z
" transform="scale(0.015625)"/>
       <path id="DejaVuSans-65" d="M 3597 1894 
L 3597 1613 
L 953 1613 
Q 991 1019 1311 708 
Q 1631 397 2203 397 
Q 2534 397 2845 478 
Q 3156 559 3463 722 
L 3463 178 
Q 3153 47 2828 -22 
Q 2503 -91 2169 -91 
Q 1331 -91 842 396 
Q 353 884 353 1716 
Q 353 2575 817 3079 
Q 1281 3584 2069 3584 
Q 2775 3584 3186 3129 
Q 3597 2675 3597 1894 
z
M 3022 2063 
Q 3016 2534 2758 2815 
Q 2500 3097 2075 3097 
Q 1594 3097 1305 2825 
Q 1016 2553 972 2059 
L 3022 2063 
z
" transform="scale(0.015625)"/>
       <path id="DejaVuSans-67" d="M 2906 1791 
Q 2906 2416 2648 2759 
Q 2391 3103 1925 3103 
Q 1463 3103 1205 2759 
Q 947 2416 947 1791 
Q 947 1169 1205 825 
Q 1463 481 1925 481 
Q 2391 481 2648 825 
Q 2906 1169 2906 1791 
z
M 3481 434 
Q 3481 -459 3084 -895 
Q 2688 -1331 1869 -1331 
Q 1566 -1331 1297 -1286 
Q 1028 -1241 775 -1147 
L 775 -588 
Q 1028 -725 1275 -790 
Q 1522 -856 1778 -856 
Q 2344 -856 2625 -561 
Q 2906 -266 2906 331 
L 2906 616 
Q 2728 306 2450 153 
Q 2172 0 1784 0 
Q 1141 0 747 490 
Q 353 981 353 1791 
Q 353 2603 747 3093 
Q 1141 3584 1784 3584 
Q 2172 3584 2450 3431 
Q 2728 3278 2906 2969 
L 2906 3500 
L 3481 3500 
L 3481 434 
z
" transform="scale(0.015625)"/>
       <path id="DejaVuSans-79" d="M 2059 -325 
Q 1816 -950 1584 -1140 
Q 1353 -1331 966 -1331 
L 506 -1331 
L 506 -850 
L 844 -850 
Q 1081 -850 1212 -737 
Q 1344 -625 1503 -206 
L 1606 56 
L 191 3500 
L 800 3500 
L 1894 763 
L 2988 3500 
L 3597 3500 
L 2059 -325 
z
" transform="scale(0.015625)"/>
      </defs>
      <use xlink:href="#DejaVuSans-53"/>
      <use xlink:href="#DejaVuSans-74" x="63.476562"/>
      <use xlink:href="#DejaVuSans-72" x="102.685547"/>
      <use xlink:href="#DejaVuSans-61" x="143.798828"/>
      <use xlink:href="#DejaVuSans-74" x="205.078125"/>
      <use xlink:href="#DejaVuSans-65" x="244.287109"/>
      <use xlink:href="#DejaVuSans-67" x="305.810547"/>
      <use xlink:href="#DejaVuSans-79" x="369.287109"/>
     </g>
    </g>
    <g id="line2d_25">
     <path d="M 297.442813 42.690133 
L 308.442813 42.690133 
L 319.442813 42.690133 
" style="fill: none; stroke: #4c72b0; stroke-width: 1.5; stroke-linecap: round"/>
    </g>
    <g id="text_18">
     <!-- FedPredict -->
     <g style="fill: #262626" transform="translate(328.242813 46.540133) scale(0.11 -0.11)">
      <defs>
       <path id="DejaVuSans-46" d="M 628 4666 
L 3309 4666 
L 3309 4134 
L 1259 4134 
L 1259 2759 
L 3109 2759 
L 3109 2228 
L 1259 2228 
L 1259 0 
L 628 0 
L 628 4666 
z
" transform="scale(0.015625)"/>
       <path id="DejaVuSans-50" d="M 1259 4147 
L 1259 2394 
L 2053 2394 
Q 2494 2394 2734 2622 
Q 2975 2850 2975 3272 
Q 2975 3691 2734 3919 
Q 2494 4147 2053 4147 
L 1259 4147 
z
M 628 4666 
L 2053 4666 
Q 2838 4666 3239 4311 
Q 3641 3956 3641 3272 
Q 3641 2581 3239 2228 
Q 2838 1875 2053 1875 
L 1259 1875 
L 1259 0 
L 628 0 
L 628 4666 
z
" transform="scale(0.015625)"/>
       <path id="DejaVuSans-69" d="M 603 3500 
L 1178 3500 
L 1178 0 
L 603 0 
L 603 3500 
z
M 603 4863 
L 1178 4863 
L 1178 4134 
L 603 4134 
L 603 4863 
z
" transform="scale(0.015625)"/>
       <path id="DejaVuSans-63" d="M 3122 3366 
L 3122 2828 
Q 2878 2963 2633 3030 
Q 2388 3097 2138 3097 
Q 1578 3097 1268 2742 
Q 959 2388 959 1747 
Q 959 1106 1268 751 
Q 1578 397 2138 397 
Q 2388 397 2633 464 
Q 2878 531 3122 666 
L 3122 134 
Q 2881 22 2623 -34 
Q 2366 -91 2075 -91 
Q 1284 -91 818 406 
Q 353 903 353 1747 
Q 353 2603 823 3093 
Q 1294 3584 2113 3584 
Q 2378 3584 2631 3529 
Q 2884 3475 3122 3366 
z
" transform="scale(0.015625)"/>
      </defs>
      <use xlink:href="#DejaVuSans-46"/>
      <use xlink:href="#DejaVuSans-65" x="52.019531"/>
      <use xlink:href="#DejaVuSans-64" x="113.542969"/>
      <use xlink:href="#DejaVuSans-50" x="177.019531"/>
      <use xlink:href="#DejaVuSans-72" x="235.572266"/>
      <use xlink:href="#DejaVuSans-65" x="274.435547"/>
      <use xlink:href="#DejaVuSans-64" x="335.958984"/>
      <use xlink:href="#DejaVuSans-69" x="399.435547"/>
      <use xlink:href="#DejaVuSans-63" x="427.21875"/>
      <use xlink:href="#DejaVuSans-74" x="482.199219"/>
     </g>
    </g>
    <g id="line2d_26">
     <path d="M 297.442813 58.83607 
L 308.442813 58.83607 
L 319.442813 58.83607 
" style="fill: none; stroke: #dd8452; stroke-width: 1.5; stroke-linecap: round"/>
    </g>
    <g id="text_19">
     <!-- FedAVG -->
     <g style="fill: #262626" transform="translate(328.242813 62.68607) scale(0.11 -0.11)">
      <defs>
       <path id="DejaVuSans-41" d="M 2188 4044 
L 1331 1722 
L 3047 1722 
L 2188 4044 
z
M 1831 4666 
L 2547 4666 
L 4325 0 
L 3669 0 
L 3244 1197 
L 1141 1197 
L 716 0 
L 50 0 
L 1831 4666 
z
" transform="scale(0.015625)"/>
       <path id="DejaVuSans-56" d="M 1831 0 
L 50 4666 
L 709 4666 
L 2188 738 
L 3669 4666 
L 4325 4666 
L 2547 0 
L 1831 0 
z
" transform="scale(0.015625)"/>
       <path id="DejaVuSans-47" d="M 3809 666 
L 3809 1919 
L 2778 1919 
L 2778 2438 
L 4434 2438 
L 4434 434 
Q 4069 175 3628 42 
Q 3188 -91 2688 -91 
Q 1594 -91 976 548 
Q 359 1188 359 2328 
Q 359 3472 976 4111 
Q 1594 4750 2688 4750 
Q 3144 4750 3555 4637 
Q 3966 4525 4313 4306 
L 4313 3634 
Q 3963 3931 3569 4081 
Q 3175 4231 2741 4231 
Q 1884 4231 1454 3753 
Q 1025 3275 1025 2328 
Q 1025 1384 1454 906 
Q 1884 428 2741 428 
Q 3075 428 3337 486 
Q 3600 544 3809 666 
z
" transform="scale(0.015625)"/>
      </defs>
      <use xlink:href="#DejaVuSans-46"/>
      <use xlink:href="#DejaVuSans-65" x="52.019531"/>
      <use xlink:href="#DejaVuSans-64" x="113.542969"/>
      <use xlink:href="#DejaVuSans-41" x="177.019531"/>
      <use xlink:href="#DejaVuSans-56" x="239.052734"/>
      <use xlink:href="#DejaVuSans-47" x="307.460938"/>
     </g>
    </g>
    <g id="line2d_27">
     <path d="M 297.442813 74.982008 
L 308.442813 74.982008 
L 319.442813 74.982008 
" style="fill: none; stroke: #55a868; stroke-width: 1.5; stroke-linecap: round"/>
    </g>
    <g id="text_20">
     <!-- FedClassAvg -->
     <g style="fill: #262626" transform="translate(328.242813 78.832008) scale(0.11 -0.11)">
      <defs>
       <path id="DejaVuSans-43" d="M 4122 4306 
L 4122 3641 
Q 3803 3938 3442 4084 
Q 3081 4231 2675 4231 
Q 1875 4231 1450 3742 
Q 1025 3253 1025 2328 
Q 1025 1406 1450 917 
Q 1875 428 2675 428 
Q 3081 428 3442 575 
Q 3803 722 4122 1019 
L 4122 359 
Q 3791 134 3420 21 
Q 3050 -91 2638 -91 
Q 1578 -91 968 557 
Q 359 1206 359 2328 
Q 359 3453 968 4101 
Q 1578 4750 2638 4750 
Q 3056 4750 3426 4639 
Q 3797 4528 4122 4306 
z
" transform="scale(0.015625)"/>
       <path id="DejaVuSans-6c" d="M 603 4863 
L 1178 4863 
L 1178 0 
L 603 0 
L 603 4863 
z
" transform="scale(0.015625)"/>
       <path id="DejaVuSans-76" d="M 191 3500 
L 800 3500 
L 1894 563 
L 2988 3500 
L 3597 3500 
L 2284 0 
L 1503 0 
L 191 3500 
z
" transform="scale(0.015625)"/>
      </defs>
      <use xlink:href="#DejaVuSans-46"/>
      <use xlink:href="#DejaVuSans-65" x="52.019531"/>
      <use xlink:href="#DejaVuSans-64" x="113.542969"/>
      <use xlink:href="#DejaVuSans-43" x="177.019531"/>
      <use xlink:href="#DejaVuSans-6c" x="246.84375"/>
      <use xlink:href="#DejaVuSans-61" x="274.626953"/>
      <use xlink:href="#DejaVuSans-73" x="335.90625"/>
      <use xlink:href="#DejaVuSans-73" x="388.005859"/>
      <use xlink:href="#DejaVuSans-41" x="440.105469"/>
      <use xlink:href="#DejaVuSans-76" x="502.638672"/>
      <use xlink:href="#DejaVuSans-67" x="561.818359"/>
     </g>
    </g>
    <g id="line2d_28">
     <path d="M 297.442813 91.127945 
L 308.442813 91.127945 
L 319.442813 91.127945 
" style="fill: none; stroke: #c44e52; stroke-width: 1.5; stroke-linecap: round"/>
    </g>
    <g id="text_21">
     <!-- FedPer -->
     <g style="fill: #262626" transform="translate(328.242813 94.977945) scale(0.11 -0.11)">
      <use xlink:href="#DejaVuSans-46"/>
      <use xlink:href="#DejaVuSans-65" x="52.019531"/>
      <use xlink:href="#DejaVuSans-64" x="113.542969"/>
      <use xlink:href="#DejaVuSans-50" x="177.019531"/>
      <use xlink:href="#DejaVuSans-65" x="233.697266"/>
      <use xlink:href="#DejaVuSans-72" x="295.220703"/>
     </g>
    </g>
    <g id="line2d_29">
     <path d="M 297.442813 107.273883 
L 308.442813 107.273883 
L 319.442813 107.273883 
" style="fill: none; stroke: #8172b3; stroke-width: 1.5; stroke-linecap: round"/>
    </g>
    <g id="text_22">
     <!-- FedProto -->
     <g style="fill: #262626" transform="translate(328.242813 111.123883) scale(0.11 -0.11)">
      <use xlink:href="#DejaVuSans-46"/>
      <use xlink:href="#DejaVuSans-65" x="52.019531"/>
      <use xlink:href="#DejaVuSans-64" x="113.542969"/>
      <use xlink:href="#DejaVuSans-50" x="177.019531"/>
      <use xlink:href="#DejaVuSans-72" x="235.572266"/>
      <use xlink:href="#DejaVuSans-6f" x="274.435547"/>
      <use xlink:href="#DejaVuSans-74" x="335.617188"/>
      <use xlink:href="#DejaVuSans-6f" x="374.826172"/>
     </g>
    </g>
   </g>
  </g>
 </g>
 <defs>
  <clipPath id="pe0a3240989">
   <rect x="49.807187" y="11.168102" width="357.12" height="266.112"/>
  </clipPath>
 </defs>
</svg>
