<?xml version="1.0" encoding="utf-8" standalone="no"?>
<!DOCTYPE svg PUBLIC "-//W3C//DTD SVG 1.1//EN"
  "http://www.w3.org/Graphics/SVG/1.1/DTD/svg11.dtd">
<svg xmlns:xlink="http://www.w3.org/1999/xlink" width="417.63pt" height="316.271687pt" viewBox="0 0 417.63 316.271687" xmlns="http://www.w3.org/2000/svg" version="1.1">
 <metadata>
  <rdf:RDF xmlns:dc="http://purl.org/dc/elements/1.1/" xmlns:cc="http://creativecommons.org/ns#" xmlns:rdf="http://www.w3.org/1999/02/22-rdf-syntax-ns#">
   <cc:Work>
    <dc:type rdf:resource="http://purl.org/dc/dcmitype/StillImage"/>
    <dc:date>2023-02-06T20:14:35.196567</dc:date>
    <dc:format>image/svg+xml</dc:format>
    <dc:creator>
     <cc:Agent>
      <dc:title>Matplotlib v3.6.3, https://matplotlib.org/</dc:title>
     </cc:Agent>
    </dc:creator>
   </cc:Work>
  </rdf:RDF>
 </metadata>
 <defs>
  <style type="text/css">*{stroke-linejoin: round; stroke-linecap: butt}</style>
 </defs>
 <g id="figure_1">
  <g id="patch_1">
   <path d="M 0 316.271687 
L 417.63 316.271687 
L 417.63 0 
L 0 0 
z
" style="fill: #ffffff"/>
  </g>
  <g id="axes_1">
   <g id="patch_2">
    <path d="M 53.31 273.312 
L 410.43 273.312 
L 410.43 7.2 
L 53.31 7.2 
z
" style="fill: #ffffff"/>
   </g>
   <g id="matplotlib.axis_1">
    <g id="xtick_1">
     <g id="line2d_1">
      <path d="M 66.263388 273.312 
L 66.263388 7.2 
" clip-path="url(#p57db70e142)" style="fill: none; stroke: #cccccc; stroke-linecap: round"/>
     </g>
     <g id="text_1">
      <!-- 0 -->
      <g style="fill: #262626" transform="translate(62.764013 291.170281) scale(0.11 -0.11)">
       <defs>
        <path id="DejaVuSans-30" d="M 2034 4250 
Q 1547 4250 1301 3770 
Q 1056 3291 1056 2328 
Q 1056 1369 1301 889 
Q 1547 409 2034 409 
Q 2525 409 2770 889 
Q 3016 1369 3016 2328 
Q 3016 3291 2770 3770 
Q 2525 4250 2034 4250 
z
M 2034 4750 
Q 2819 4750 3233 4129 
Q 3647 3509 3647 2328 
Q 3647 1150 3233 529 
Q 2819 -91 2034 -91 
Q 1250 -91 836 529 
Q 422 1150 422 2328 
Q 422 3509 836 4129 
Q 1250 4750 2034 4750 
z
" transform="scale(0.015625)"/>
       </defs>
       <use xlink:href="#DejaVuSans-30"/>
      </g>
     </g>
    </g>
    <g id="xtick_2">
     <g id="line2d_2">
      <path d="M 131.850165 273.312 
L 131.850165 7.2 
" clip-path="url(#p57db70e142)" style="fill: none; stroke: #cccccc; stroke-linecap: round"/>
     </g>
     <g id="text_2">
      <!-- 20 -->
      <g style="fill: #262626" transform="translate(124.851415 291.170281) scale(0.11 -0.11)">
       <defs>
        <path id="DejaVuSans-32" d="M 1228 531 
L 3431 531 
L 3431 0 
L 469 0 
L 469 531 
Q 828 903 1448 1529 
Q 2069 2156 2228 2338 
Q 2531 2678 2651 2914 
Q 2772 3150 2772 3378 
Q 2772 3750 2511 3984 
Q 2250 4219 1831 4219 
Q 1534 4219 1204 4116 
Q 875 4013 500 3803 
L 500 4441 
Q 881 4594 1212 4672 
Q 1544 4750 1819 4750 
Q 2544 4750 2975 4387 
Q 3406 4025 3406 3419 
Q 3406 3131 3298 2873 
Q 3191 2616 2906 2266 
Q 2828 2175 2409 1742 
Q 1991 1309 1228 531 
z
" transform="scale(0.015625)"/>
       </defs>
       <use xlink:href="#DejaVuSans-32"/>
       <use xlink:href="#DejaVuSans-30" x="63.623047"/>
      </g>
     </g>
    </g>
    <g id="xtick_3">
     <g id="line2d_3">
      <path d="M 197.436942 273.312 
L 197.436942 7.2 
" clip-path="url(#p57db70e142)" style="fill: none; stroke: #cccccc; stroke-linecap: round"/>
     </g>
     <g id="text_3">
      <!-- 40 -->
      <g style="fill: #262626" transform="translate(190.438192 291.170281) scale(0.11 -0.11)">
       <defs>
        <path id="DejaVuSans-34" d="M 2419 4116 
L 825 1625 
L 2419 1625 
L 2419 4116 
z
M 2253 4666 
L 3047 4666 
L 3047 1625 
L 3713 1625 
L 3713 1100 
L 3047 1100 
L 3047 0 
L 2419 0 
L 2419 1100 
L 313 1100 
L 313 1709 
L 2253 4666 
z
" transform="scale(0.015625)"/>
       </defs>
       <use xlink:href="#DejaVuSans-34"/>
       <use xlink:href="#DejaVuSans-30" x="63.623047"/>
      </g>
     </g>
    </g>
    <g id="xtick_4">
     <g id="line2d_4">
      <path d="M 263.023719 273.312 
L 263.023719 7.2 
" clip-path="url(#p57db70e142)" style="fill: none; stroke: #cccccc; stroke-linecap: round"/>
     </g>
     <g id="text_4">
      <!-- 60 -->
      <g style="fill: #262626" transform="translate(256.024969 291.170281) scale(0.11 -0.11)">
       <defs>
        <path id="DejaVuSans-36" d="M 2113 2584 
Q 1688 2584 1439 2293 
Q 1191 2003 1191 1497 
Q 1191 994 1439 701 
Q 1688 409 2113 409 
Q 2538 409 2786 701 
Q 3034 994 3034 1497 
Q 3034 2003 2786 2293 
Q 2538 2584 2113 2584 
z
M 3366 4563 
L 3366 3988 
Q 3128 4100 2886 4159 
Q 2644 4219 2406 4219 
Q 1781 4219 1451 3797 
Q 1122 3375 1075 2522 
Q 1259 2794 1537 2939 
Q 1816 3084 2150 3084 
Q 2853 3084 3261 2657 
Q 3669 2231 3669 1497 
Q 3669 778 3244 343 
Q 2819 -91 2113 -91 
Q 1303 -91 875 529 
Q 447 1150 447 2328 
Q 447 3434 972 4092 
Q 1497 4750 2381 4750 
Q 2619 4750 2861 4703 
Q 3103 4656 3366 4563 
z
" transform="scale(0.015625)"/>
       </defs>
       <use xlink:href="#DejaVuSans-36"/>
       <use xlink:href="#DejaVuSans-30" x="63.623047"/>
      </g>
     </g>
    </g>
    <g id="xtick_5">
     <g id="line2d_5">
      <path d="M 328.610496 273.312 
L 328.610496 7.2 
" clip-path="url(#p57db70e142)" style="fill: none; stroke: #cccccc; stroke-linecap: round"/>
     </g>
     <g id="text_5">
      <!-- 80 -->
      <g style="fill: #262626" transform="translate(321.611746 291.170281) scale(0.11 -0.11)">
       <defs>
        <path id="DejaVuSans-38" d="M 2034 2216 
Q 1584 2216 1326 1975 
Q 1069 1734 1069 1313 
Q 1069 891 1326 650 
Q 1584 409 2034 409 
Q 2484 409 2743 651 
Q 3003 894 3003 1313 
Q 3003 1734 2745 1975 
Q 2488 2216 2034 2216 
z
M 1403 2484 
Q 997 2584 770 2862 
Q 544 3141 544 3541 
Q 544 4100 942 4425 
Q 1341 4750 2034 4750 
Q 2731 4750 3128 4425 
Q 3525 4100 3525 3541 
Q 3525 3141 3298 2862 
Q 3072 2584 2669 2484 
Q 3125 2378 3379 2068 
Q 3634 1759 3634 1313 
Q 3634 634 3220 271 
Q 2806 -91 2034 -91 
Q 1263 -91 848 271 
Q 434 634 434 1313 
Q 434 1759 690 2068 
Q 947 2378 1403 2484 
z
M 1172 3481 
Q 1172 3119 1398 2916 
Q 1625 2713 2034 2713 
Q 2441 2713 2670 2916 
Q 2900 3119 2900 3481 
Q 2900 3844 2670 4047 
Q 2441 4250 2034 4250 
Q 1625 4250 1398 4047 
Q 1172 3844 1172 3481 
z
" transform="scale(0.015625)"/>
       </defs>
       <use xlink:href="#DejaVuSans-38"/>
       <use xlink:href="#DejaVuSans-30" x="63.623047"/>
      </g>
     </g>
    </g>
    <g id="xtick_6">
     <g id="line2d_6">
      <path d="M 394.197273 273.312 
L 394.197273 7.2 
" clip-path="url(#p57db70e142)" style="fill: none; stroke: #cccccc; stroke-linecap: round"/>
     </g>
     <g id="text_6">
      <!-- 100 -->
      <g style="fill: #262626" transform="translate(383.699148 291.170281) scale(0.11 -0.11)">
       <defs>
        <path id="DejaVuSans-31" d="M 794 531 
L 1825 531 
L 1825 4091 
L 703 3866 
L 703 4441 
L 1819 4666 
L 2450 4666 
L 2450 531 
L 3481 531 
L 3481 0 
L 794 0 
L 794 531 
z
" transform="scale(0.015625)"/>
       </defs>
       <use xlink:href="#DejaVuSans-31"/>
       <use xlink:href="#DejaVuSans-30" x="63.623047"/>
       <use xlink:href="#DejaVuSans-30" x="127.246094"/>
      </g>
     </g>
    </g>
    <g id="text_7">
     <!-- Round -->
     <g style="fill: #262626" transform="translate(212.885625 306.576062) scale(0.12 -0.12)">
      <defs>
       <path id="DejaVuSans-52" d="M 2841 2188 
Q 3044 2119 3236 1894 
Q 3428 1669 3622 1275 
L 4263 0 
L 3584 0 
L 2988 1197 
Q 2756 1666 2539 1819 
Q 2322 1972 1947 1972 
L 1259 1972 
L 1259 0 
L 628 0 
L 628 4666 
L 2053 4666 
Q 2853 4666 3247 4331 
Q 3641 3997 3641 3322 
Q 3641 2881 3436 2590 
Q 3231 2300 2841 2188 
z
M 1259 4147 
L 1259 2491 
L 2053 2491 
Q 2509 2491 2742 2702 
Q 2975 2913 2975 3322 
Q 2975 3731 2742 3939 
Q 2509 4147 2053 4147 
L 1259 4147 
z
" transform="scale(0.015625)"/>
       <path id="DejaVuSans-6f" d="M 1959 3097 
Q 1497 3097 1228 2736 
Q 959 2375 959 1747 
Q 959 1119 1226 758 
Q 1494 397 1959 397 
Q 2419 397 2687 759 
Q 2956 1122 2956 1747 
Q 2956 2369 2687 2733 
Q 2419 3097 1959 3097 
z
M 1959 3584 
Q 2709 3584 3137 3096 
Q 3566 2609 3566 1747 
Q 3566 888 3137 398 
Q 2709 -91 1959 -91 
Q 1206 -91 779 398 
Q 353 888 353 1747 
Q 353 2609 779 3096 
Q 1206 3584 1959 3584 
z
" transform="scale(0.015625)"/>
       <path id="DejaVuSans-75" d="M 544 1381 
L 544 3500 
L 1119 3500 
L 1119 1403 
Q 1119 906 1312 657 
Q 1506 409 1894 409 
Q 2359 409 2629 706 
Q 2900 1003 2900 1516 
L 2900 3500 
L 3475 3500 
L 3475 0 
L 2900 0 
L 2900 538 
Q 2691 219 2414 64 
Q 2138 -91 1772 -91 
Q 1169 -91 856 284 
Q 544 659 544 1381 
z
M 1991 3584 
L 1991 3584 
z
" transform="scale(0.015625)"/>
       <path id="DejaVuSans-6e" d="M 3513 2113 
L 3513 0 
L 2938 0 
L 2938 2094 
Q 2938 2591 2744 2837 
Q 2550 3084 2163 3084 
Q 1697 3084 1428 2787 
Q 1159 2491 1159 1978 
L 1159 0 
L 581 0 
L 581 3500 
L 1159 3500 
L 1159 2956 
Q 1366 3272 1645 3428 
Q 1925 3584 2291 3584 
Q 2894 3584 3203 3211 
Q 3513 2838 3513 2113 
z
" transform="scale(0.015625)"/>
       <path id="DejaVuSans-64" d="M 2906 2969 
L 2906 4863 
L 3481 4863 
L 3481 0 
L 2906 0 
L 2906 525 
Q 2725 213 2448 61 
Q 2172 -91 1784 -91 
Q 1150 -91 751 415 
Q 353 922 353 1747 
Q 353 2572 751 3078 
Q 1150 3584 1784 3584 
Q 2172 3584 2448 3432 
Q 2725 3281 2906 2969 
z
M 947 1747 
Q 947 1113 1208 752 
Q 1469 391 1925 391 
Q 2381 391 2643 752 
Q 2906 1113 2906 1747 
Q 2906 2381 2643 2742 
Q 2381 3103 1925 3103 
Q 1469 3103 1208 2742 
Q 947 2381 947 1747 
z
" transform="scale(0.015625)"/>
      </defs>
      <use xlink:href="#DejaVuSans-52"/>
      <use xlink:href="#DejaVuSans-6f" x="64.982422"/>
      <use xlink:href="#DejaVuSans-75" x="126.164062"/>
      <use xlink:href="#DejaVuSans-6e" x="189.542969"/>
      <use xlink:href="#DejaVuSans-64" x="252.921875"/>
     </g>
    </g>
   </g>
   <g id="matplotlib.axis_2">
    <g id="ytick_1">
     <g id="line2d_7">
      <path d="M 53.31 228.693978 
L 410.43 228.693978 
" clip-path="url(#p57db70e142)" style="fill: none; stroke: #cccccc; stroke-linecap: round"/>
     </g>
     <g id="text_8">
      <!-- 20 -->
      <g style="fill: #262626" transform="translate(29.8125 232.873119) scale(0.11 -0.11)">
       <use xlink:href="#DejaVuSans-32"/>
       <use xlink:href="#DejaVuSans-30" x="63.623047"/>
      </g>
     </g>
    </g>
    <g id="ytick_2">
     <g id="line2d_8">
      <path d="M 53.31 175.611372 
L 410.43 175.611372 
" clip-path="url(#p57db70e142)" style="fill: none; stroke: #cccccc; stroke-linecap: round"/>
     </g>
     <g id="text_9">
      <!-- 40 -->
      <g style="fill: #262626" transform="translate(29.8125 179.790513) scale(0.11 -0.11)">
       <use xlink:href="#DejaVuSans-34"/>
       <use xlink:href="#DejaVuSans-30" x="63.623047"/>
      </g>
     </g>
    </g>
    <g id="ytick_3">
     <g id="line2d_9">
      <path d="M 53.31 122.528766 
L 410.43 122.528766 
" clip-path="url(#p57db70e142)" style="fill: none; stroke: #cccccc; stroke-linecap: round"/>
     </g>
     <g id="text_10">
      <!-- 60 -->
      <g style="fill: #262626" transform="translate(29.8125 126.707906) scale(0.11 -0.11)">
       <use xlink:href="#DejaVuSans-36"/>
       <use xlink:href="#DejaVuSans-30" x="63.623047"/>
      </g>
     </g>
    </g>
    <g id="ytick_4">
     <g id="line2d_10">
      <path d="M 53.31 69.446159 
L 410.43 69.446159 
" clip-path="url(#p57db70e142)" style="fill: none; stroke: #cccccc; stroke-linecap: round"/>
     </g>
     <g id="text_11">
      <!-- 80 -->
      <g style="fill: #262626" transform="translate(29.8125 73.6253) scale(0.11 -0.11)">
       <use xlink:href="#DejaVuSans-38"/>
       <use xlink:href="#DejaVuSans-30" x="63.623047"/>
      </g>
     </g>
    </g>
    <g id="ytick_5">
     <g id="line2d_11">
      <path d="M 53.31 16.363553 
L 410.43 16.363553 
" clip-path="url(#p57db70e142)" style="fill: none; stroke: #cccccc; stroke-linecap: round"/>
     </g>
     <g id="text_12">
      <!-- 100 -->
      <g style="fill: #262626" transform="translate(22.81375 20.542693) scale(0.11 -0.11)">
       <use xlink:href="#DejaVuSans-31"/>
       <use xlink:href="#DejaVuSans-30" x="63.623047"/>
       <use xlink:href="#DejaVuSans-30" x="127.246094"/>
      </g>
     </g>
    </g>
    <g id="text_13">
     <!-- Accuracy (%) -->
     <g style="fill: #262626" transform="translate(16.318125 179.939437) rotate(-90) scale(0.12 -0.12)">
      <defs>
       <path id="DejaVuSans-41" d="M 2188 4044 
L 1331 1722 
L 3047 1722 
L 2188 4044 
z
M 1831 4666 
L 2547 4666 
L 4325 0 
L 3669 0 
L 3244 1197 
L 1141 1197 
L 716 0 
L 50 0 
L 1831 4666 
z
" transform="scale(0.015625)"/>
       <path id="DejaVuSans-63" d="M 3122 3366 
L 3122 2828 
Q 2878 2963 2633 3030 
Q 2388 3097 2138 3097 
Q 1578 3097 1268 2742 
Q 959 2388 959 1747 
Q 959 1106 1268 751 
Q 1578 397 2138 397 
Q 2388 397 2633 464 
Q 2878 531 3122 666 
L 3122 134 
Q 2881 22 2623 -34 
Q 2366 -91 2075 -91 
Q 1284 -91 818 406 
Q 353 903 353 1747 
Q 353 2603 823 3093 
Q 1294 3584 2113 3584 
Q 2378 3584 2631 3529 
Q 2884 3475 3122 3366 
z
" transform="scale(0.015625)"/>
       <path id="DejaVuSans-72" d="M 2631 2963 
Q 2534 3019 2420 3045 
Q 2306 3072 2169 3072 
Q 1681 3072 1420 2755 
Q 1159 2438 1159 1844 
L 1159 0 
L 581 0 
L 581 3500 
L 1159 3500 
L 1159 2956 
Q 1341 3275 1631 3429 
Q 1922 3584 2338 3584 
Q 2397 3584 2469 3576 
Q 2541 3569 2628 3553 
L 2631 2963 
z
" transform="scale(0.015625)"/>
       <path id="DejaVuSans-61" d="M 2194 1759 
Q 1497 1759 1228 1600 
Q 959 1441 959 1056 
Q 959 750 1161 570 
Q 1363 391 1709 391 
Q 2188 391 2477 730 
Q 2766 1069 2766 1631 
L 2766 1759 
L 2194 1759 
z
M 3341 1997 
L 3341 0 
L 2766 0 
L 2766 531 
Q 2569 213 2275 61 
Q 1981 -91 1556 -91 
Q 1019 -91 701 211 
Q 384 513 384 1019 
Q 384 1609 779 1909 
Q 1175 2209 1959 2209 
L 2766 2209 
L 2766 2266 
Q 2766 2663 2505 2880 
Q 2244 3097 1772 3097 
Q 1472 3097 1187 3025 
Q 903 2953 641 2809 
L 641 3341 
Q 956 3463 1253 3523 
Q 1550 3584 1831 3584 
Q 2591 3584 2966 3190 
Q 3341 2797 3341 1997 
z
" transform="scale(0.015625)"/>
       <path id="DejaVuSans-79" d="M 2059 -325 
Q 1816 -950 1584 -1140 
Q 1353 -1331 966 -1331 
L 506 -1331 
L 506 -850 
L 844 -850 
Q 1081 -850 1212 -737 
Q 1344 -625 1503 -206 
L 1606 56 
L 191 3500 
L 800 3500 
L 1894 763 
L 2988 3500 
L 3597 3500 
L 2059 -325 
z
" transform="scale(0.015625)"/>
       <path id="DejaVuSans-20" transform="scale(0.015625)"/>
       <path id="DejaVuSans-28" d="M 1984 4856 
Q 1566 4138 1362 3434 
Q 1159 2731 1159 2009 
Q 1159 1288 1364 580 
Q 1569 -128 1984 -844 
L 1484 -844 
Q 1016 -109 783 600 
Q 550 1309 550 2009 
Q 550 2706 781 3412 
Q 1013 4119 1484 4856 
L 1984 4856 
z
" transform="scale(0.015625)"/>
       <path id="DejaVuSans-25" d="M 4653 2053 
Q 4381 2053 4226 1822 
Q 4072 1591 4072 1178 
Q 4072 772 4226 539 
Q 4381 306 4653 306 
Q 4919 306 5073 539 
Q 5228 772 5228 1178 
Q 5228 1588 5073 1820 
Q 4919 2053 4653 2053 
z
M 4653 2450 
Q 5147 2450 5437 2106 
Q 5728 1763 5728 1178 
Q 5728 594 5436 251 
Q 5144 -91 4653 -91 
Q 4153 -91 3862 251 
Q 3572 594 3572 1178 
Q 3572 1766 3864 2108 
Q 4156 2450 4653 2450 
z
M 1428 4353 
Q 1159 4353 1004 4120 
Q 850 3888 850 3481 
Q 850 3069 1003 2837 
Q 1156 2606 1428 2606 
Q 1700 2606 1854 2837 
Q 2009 3069 2009 3481 
Q 2009 3884 1853 4118 
Q 1697 4353 1428 4353 
z
M 4250 4750 
L 4750 4750 
L 1831 -91 
L 1331 -91 
L 4250 4750 
z
M 1428 4750 
Q 1922 4750 2215 4408 
Q 2509 4066 2509 3481 
Q 2509 2891 2217 2550 
Q 1925 2209 1428 2209 
Q 931 2209 642 2551 
Q 353 2894 353 3481 
Q 353 4063 643 4406 
Q 934 4750 1428 4750 
z
" transform="scale(0.015625)"/>
       <path id="DejaVuSans-29" d="M 513 4856 
L 1013 4856 
Q 1481 4119 1714 3412 
Q 1947 2706 1947 2009 
Q 1947 1309 1714 600 
Q 1481 -109 1013 -844 
L 513 -844 
Q 928 -128 1133 580 
Q 1338 1288 1338 2009 
Q 1338 2731 1133 3434 
Q 928 4138 513 4856 
z
" transform="scale(0.015625)"/>
      </defs>
      <use xlink:href="#DejaVuSans-41"/>
      <use xlink:href="#DejaVuSans-63" x="66.658203"/>
      <use xlink:href="#DejaVuSans-63" x="121.638672"/>
      <use xlink:href="#DejaVuSans-75" x="176.619141"/>
      <use xlink:href="#DejaVuSans-72" x="239.998047"/>
      <use xlink:href="#DejaVuSans-61" x="281.111328"/>
      <use xlink:href="#DejaVuSans-63" x="342.390625"/>
      <use xlink:href="#DejaVuSans-79" x="397.371094"/>
      <use xlink:href="#DejaVuSans-20" x="456.550781"/>
      <use xlink:href="#DejaVuSans-28" x="488.337891"/>
      <use xlink:href="#DejaVuSans-25" x="527.351562"/>
      <use xlink:href="#DejaVuSans-29" x="622.371094"/>
     </g>
    </g>
   </g>
   <g id="PolyCollection_1">
    <defs>
     <path id="mfc601ff744" d="M 69.542727 -132.557082 
L 69.542727 -75.432405 
L 72.822066 -120.08822 
L 76.101405 -122.700933 
L 79.380744 -163.602185 
L 82.660083 -191.390252 
L 85.939421 -197.374808 
L 89.21876 -241.249753 
L 92.498099 -238.122519 
L 95.777438 -252.819078 
L 99.056777 -278.123783 
L 102.336116 -276.81555 
L 105.615455 -277.450602 
L 108.894793 -273.485609 
L 112.174132 -283.978791 
L 115.453471 -275.376585 
L 118.73281 -280.98667 
L 122.012149 -280.872411 
L 125.291488 -288.02941 
L 128.570826 -285.16912 
L 131.850165 -286.746023 
L 135.129504 -287.257048 
L 138.408843 -288.948552 
L 141.688182 -286.203293 
L 144.967521 -287.980632 
L 148.24686 -287.600332 
L 151.526198 -290.786179 
L 154.805537 -285.756603 
L 158.084876 -285.501222 
L 161.364215 -275.199944 
L 164.643554 -276.673095 
L 167.922893 -277.670411 
L 171.202231 -277.875672 
L 174.48157 -284.693877 
L 177.760909 -282.602947 
L 181.040248 -284.971909 
L 184.319587 -286.569845 
L 187.598926 -282.829758 
L 190.878264 -285.569148 
L 194.157603 -290.120185 
L 197.436942 -291.774203 
L 200.716281 -292.329967 
L 203.99562 -291.198114 
L 207.274959 -292.073464 
L 210.554298 -291.909395 
L 213.833636 -283.934295 
L 217.112975 -285.609676 
L 220.392314 -286.694335 
L 223.671653 -286.767697 
L 226.950992 -286.22927 
L 230.230331 -289.909264 
L 233.509669 -289.649752 
L 236.789008 -291.041097 
L 240.068347 -291.909687 
L 243.347686 -292.768436 
L 246.627025 -293.163939 
L 249.906364 -293.082874 
L 253.185702 -289.527145 
L 256.465041 -291.288804 
L 259.74438 -291.511798 
L 263.023719 -293.777118 
L 266.303058 -293.126681 
L 269.582397 -293.425123 
L 272.861736 -292.542968 
L 276.141074 -292.788954 
L 279.420413 -290.841539 
L 282.699752 -291.649926 
L 285.979091 -290.788758 
L 289.25843 -291.581405 
L 292.537769 -290.932055 
L 295.817107 -282.254437 
L 299.096446 -282.838204 
L 302.375785 -281.331137 
L 305.655124 -282.080066 
L 308.934463 -282.390571 
L 312.213802 -280.241782 
L 315.49314 -279.964975 
L 318.772479 -282.244792 
L 322.051818 -282.09114 
L 325.331157 -281.628636 
L 328.610496 -281.906953 
L 331.889835 -282.0047 
L 335.169174 -282.097888 
L 338.448512 -282.455935 
L 341.727851 -281.561515 
L 345.00719 -280.662836 
L 348.286529 -280.17726 
L 351.565868 -281.305934 
L 354.845207 -279.898995 
L 358.124545 -280.779701 
L 361.403884 -279.424855 
L 364.683223 -280.000581 
L 367.962562 -280.967419 
L 371.241901 -280.136663 
L 374.52124 -280.033817 
L 377.800579 -279.943275 
L 381.079917 -280.519477 
L 384.359256 -281.069603 
L 387.638595 -281.088979 
L 390.917934 -280.111856 
L 394.197273 -280.333068 
L 394.197273 -294.159281 
L 394.197273 -294.159281 
L 390.917934 -293.859999 
L 387.638595 -294.469808 
L 384.359256 -294.348846 
L 381.079917 -293.607722 
L 377.800579 -293.708955 
L 374.52124 -293.805606 
L 371.241901 -293.920895 
L 367.962562 -294.054834 
L 364.683223 -293.652371 
L 361.403884 -293.124881 
L 358.124545 -293.799826 
L 354.845207 -293.565356 
L 351.565868 -294.153252 
L 348.286529 -293.626432 
L 345.00719 -293.986106 
L 341.727851 -294.074162 
L 338.448512 -294.16419 
L 335.169174 -294.207352 
L 331.889835 -294.734418 
L 328.610496 -294.498772 
L 325.331157 -294.743153 
L 322.051818 -294.481758 
L 318.772479 -294.495449 
L 315.49314 -294.215075 
L 312.213802 -293.783569 
L 308.934463 -294.118492 
L 305.655124 -294.357426 
L 302.375785 -293.944203 
L 299.096446 -294.373418 
L 295.817107 -294.128719 
L 292.537769 -296.64642 
L 289.25843 -296.633542 
L 285.979091 -296.841316 
L 282.699752 -296.731096 
L 279.420413 -296.665588 
L 276.141074 -296.521379 
L 272.861736 -296.377705 
L 269.582397 -296.514986 
L 266.303058 -296.505549 
L 263.023719 -296.975688 
L 259.74438 -296.779835 
L 256.465041 -296.878586 
L 253.185702 -296.773684 
L 249.906364 -296.941415 
L 246.627025 -296.903755 
L 243.347686 -296.793217 
L 240.068347 -296.293789 
L 236.789008 -296.55649 
L 233.509669 -296.456075 
L 230.230331 -296.414207 
L 226.950992 -296.30552 
L 223.671653 -296.145964 
L 220.392314 -295.989884 
L 217.112975 -296.21993 
L 213.833636 -296.237757 
L 210.554298 -296.411608 
L 207.274959 -296.399328 
L 203.99562 -296.264823 
L 200.716281 -296.198301 
L 197.436942 -295.990884 
L 194.157603 -295.465142 
L 190.878264 -295.79977 
L 187.598926 -295.547166 
L 184.319587 -295.151903 
L 181.040248 -295.653333 
L 177.760909 -295.768675 
L 174.48157 -295.20671 
L 171.202231 -295.55839 
L 167.922893 -295.449962 
L 164.643554 -294.287301 
L 161.364215 -294.255861 
L 158.084876 -294.763659 
L 154.805537 -294.106545 
L 151.526198 -294.850239 
L 148.24686 -295.155393 
L 144.967521 -294.441998 
L 141.688182 -294.527598 
L 138.408843 -294.362958 
L 135.129504 -293.592462 
L 131.850165 -294.127664 
L 128.570826 -292.478029 
L 125.291488 -293.024327 
L 122.012149 -292.435278 
L 118.73281 -291.638276 
L 115.453471 -290.396663 
L 112.174132 -292.059762 
L 108.894793 -292.040767 
L 105.615455 -291.150692 
L 102.336116 -290.446549 
L 99.056777 -290.648344 
L 95.777438 -283.342889 
L 92.498099 -276.877822 
L 89.21876 -275.400242 
L 85.939421 -252.762318 
L 82.660083 -247.911895 
L 79.380744 -226.186016 
L 76.101405 -193.225442 
L 72.822066 -183.585362 
L 69.542727 -132.557082 
z
" style="stroke: #4c72b0; stroke-opacity: 0.2"/>
    </defs>
    <g clip-path="url(#p57db70e142)">
     <use xlink:href="#mfc601ff744" x="0" y="316.271687" style="fill: #4c72b0; fill-opacity: 0.2; stroke: #4c72b0; stroke-opacity: 0.2"/>
    </g>
   </g>
   <g id="PolyCollection_2">
    <defs>
     <path id="m8709b8d1d9" d="M 69.542727 -95.624057 
L 69.542727 -55.055688 
L 72.822066 -78.26607 
L 76.101405 -58.877988 
L 79.380744 -107.457003 
L 82.660083 -120.816873 
L 85.939421 -114.534375 
L 89.21876 -176.104274 
L 92.498099 -178.622647 
L 95.777438 -189.177502 
L 99.056777 -212.898262 
L 102.336116 -207.471615 
L 105.615455 -228.182091 
L 108.894793 -239.552172 
L 112.174132 -232.918373 
L 115.453471 -209.217814 
L 118.73281 -202.648927 
L 122.012149 -230.569038 
L 125.291488 -222.82302 
L 128.570826 -215.250303 
L 131.850165 -216.865477 
L 135.129504 -216.86985 
L 138.408843 -247.103357 
L 141.688182 -241.937641 
L 144.967521 -232.461545 
L 148.24686 -262.174205 
L 151.526198 -224.697505 
L 154.805537 -213.670954 
L 158.084876 -216.457517 
L 161.364215 -228.862533 
L 164.643554 -220.806576 
L 167.922893 -239.652789 
L 171.202231 -235.298636 
L 174.48157 -231.74256 
L 177.760909 -262.139513 
L 181.040248 -259.739993 
L 184.319587 -239.706761 
L 187.598926 -243.210846 
L 190.878264 -265.389013 
L 194.157603 -224.523521 
L 197.436942 -257.432152 
L 200.716281 -252.159981 
L 203.99562 -263.219321 
L 207.274959 -272.134428 
L 210.554298 -251.287497 
L 213.833636 -256.424025 
L 217.112975 -223.788057 
L 220.392314 -234.684321 
L 223.671653 -233.279736 
L 226.950992 -243.187258 
L 230.230331 -269.296251 
L 233.509669 -243.787583 
L 236.789008 -279.075285 
L 240.068347 -262.010868 
L 243.347686 -271.938534 
L 246.627025 -257.289458 
L 249.906364 -280.128911 
L 253.185702 -274.927216 
L 256.465041 -233.45103 
L 259.74438 -273.825962 
L 263.023719 -245.008723 
L 266.303058 -221.252434 
L 269.582397 -274.240091 
L 272.861736 -268.980333 
L 276.141074 -272.145055 
L 279.420413 -276.021307 
L 282.699752 -265.36701 
L 285.979091 -230.284375 
L 289.25843 -237.367179 
L 292.537769 -240.85269 
L 295.817107 -269.977696 
L 299.096446 -236.690187 
L 302.375785 -250.952304 
L 305.655124 -259.30857 
L 308.934463 -244.239936 
L 312.213802 -273.971228 
L 315.49314 -272.447261 
L 318.772479 -270.009196 
L 322.051818 -281.648705 
L 325.331157 -272.652233 
L 328.610496 -274.985928 
L 331.889835 -278.495672 
L 335.169174 -251.934008 
L 338.448512 -260.848637 
L 341.727851 -265.584904 
L 345.00719 -263.995896 
L 348.286529 -263.606374 
L 351.565868 -266.811183 
L 354.845207 -268.41153 
L 358.124545 -279.344862 
L 361.403884 -263.210709 
L 364.683223 -275.711715 
L 367.962562 -276.860347 
L 371.241901 -280.867857 
L 374.52124 -279.280692 
L 377.800579 -243.22855 
L 381.079917 -258.74449 
L 384.359256 -278.000265 
L 387.638595 -285.978778 
L 390.917934 -264.856021 
L 394.197273 -275.266841 
L 394.197273 -287.650911 
L 394.197273 -287.650911 
L 390.917934 -282.041755 
L 387.638595 -289.653553 
L 384.359256 -284.19536 
L 381.079917 -276.529389 
L 377.800579 -266.319205 
L 374.52124 -285.545899 
L 371.241901 -286.666451 
L 367.962562 -284.811672 
L 364.683223 -284.147229 
L 361.403884 -276.132145 
L 358.124545 -286.005585 
L 354.845207 -280.954603 
L 351.565868 -281.510819 
L 348.286529 -278.861821 
L 345.00719 -279.158153 
L 341.727851 -278.511455 
L 338.448512 -278.592667 
L 335.169174 -271.47548 
L 331.889835 -283.978337 
L 328.610496 -284.540377 
L 325.331157 -281.357524 
L 322.051818 -286.269381 
L 318.772479 -278.8319 
L 315.49314 -281.924614 
L 312.213802 -282.627022 
L 308.934463 -268.0748 
L 305.655124 -274.510036 
L 302.375785 -271.179058 
L 299.096446 -259.906138 
L 295.817107 -278.561999 
L 292.537769 -271.478829 
L 289.25843 -268.461998 
L 285.979091 -263.917766 
L 282.699752 -282.33228 
L 279.420413 -285.002088 
L 276.141074 -282.68304 
L 272.861736 -279.384596 
L 269.582397 -282.998862 
L 266.303058 -253.568818 
L 263.023719 -268.558556 
L 259.74438 -283.508379 
L 256.465041 -267.04228 
L 253.185702 -283.893642 
L 249.906364 -285.650684 
L 246.627025 -280.040214 
L 243.347686 -283.32598 
L 240.068347 -278.860328 
L 236.789008 -284.452237 
L 233.509669 -268.065814 
L 230.230331 -277.613519 
L 226.950992 -273.358226 
L 223.671653 -267.825877 
L 220.392314 -262.252868 
L 217.112975 -261.383314 
L 213.833636 -276.930354 
L 210.554298 -276.392359 
L 207.274959 -282.050634 
L 203.99562 -273.097876 
L 200.716281 -271.066343 
L 197.436942 -275.243604 
L 194.157603 -252.792936 
L 190.878264 -274.022276 
L 187.598926 -269.625549 
L 184.319587 -262.833441 
L 181.040248 -274.262609 
L 177.760909 -272.56223 
L 174.48157 -257.455719 
L 171.202231 -268.859533 
L 167.922893 -271.921729 
L 164.643554 -256.650144 
L 161.364215 -263.379511 
L 158.084876 -253.052225 
L 154.805537 -251.574573 
L 151.526198 -255.453666 
L 148.24686 -275.149681 
L 144.967521 -260.633482 
L 141.688182 -262.930278 
L 138.408843 -264.860122 
L 135.129504 -248.546448 
L 131.850165 -254.175204 
L 128.570826 -250.192906 
L 125.291488 -251.182648 
L 122.012149 -262.276782 
L 118.73281 -234.106387 
L 115.453471 -246.414904 
L 112.174132 -258.562275 
L 108.894793 -257.124301 
L 105.615455 -257.751772 
L 102.336116 -243.911067 
L 99.056777 -251.272062 
L 95.777438 -224.021753 
L 92.498099 -221.07233 
L 89.21876 -220.652861 
L 85.939421 -168.931932 
L 82.660083 -174.242233 
L 79.380744 -162.728055 
L 76.101405 -96.522899 
L 72.822066 -122.915061 
L 69.542727 -95.624057 
z
" style="stroke: #dd8452; stroke-opacity: 0.2"/>
    </defs>
    <g clip-path="url(#p57db70e142)">
     <use xlink:href="#m8709b8d1d9" x="0" y="316.271687" style="fill: #dd8452; fill-opacity: 0.2; stroke: #dd8452; stroke-opacity: 0.2"/>
    </g>
   </g>
   <g id="PolyCollection_3">
    <defs>
     <path id="m457894b913" d="M 69.542727 -129.953276 
L 69.542727 -75.853941 
L 72.822066 -84.953329 
L 76.101405 -78.583303 
L 79.380744 -87.588981 
L 82.660083 -90.529433 
L 85.939421 -110.561894 
L 89.21876 -120.340282 
L 92.498099 -114.053715 
L 95.777438 -123.203721 
L 99.056777 -131.598014 
L 102.336116 -141.314362 
L 105.615455 -139.276256 
L 108.894793 -152.338376 
L 112.174132 -154.196725 
L 115.453471 -148.110859 
L 118.73281 -152.724722 
L 122.012149 -150.552722 
L 125.291488 -154.738988 
L 128.570826 -156.799477 
L 131.850165 -160.917788 
L 135.129504 -160.025782 
L 138.408843 -163.515724 
L 141.688182 -161.418042 
L 144.967521 -163.643974 
L 148.24686 -163.9144 
L 151.526198 -167.792954 
L 154.805537 -167.224964 
L 158.084876 -168.729945 
L 161.364215 -171.200544 
L 164.643554 -176.367907 
L 167.922893 -181.038074 
L 171.202231 -180.844766 
L 174.48157 -186.821091 
L 177.760909 -187.744029 
L 181.040248 -188.497319 
L 184.319587 -192.517713 
L 187.598926 -193.023971 
L 190.878264 -192.664046 
L 194.157603 -192.598578 
L 197.436942 -195.567536 
L 200.716281 -192.328824 
L 203.99562 -193.324452 
L 207.274959 -195.340643 
L 210.554298 -196.043859 
L 213.833636 -195.508852 
L 217.112975 -198.774765 
L 220.392314 -204.202415 
L 223.671653 -204.602202 
L 226.950992 -206.903503 
L 230.230331 -210.15722 
L 233.509669 -209.986736 
L 236.789008 -211.422722 
L 240.068347 -210.825298 
L 243.347686 -212.773533 
L 246.627025 -210.153949 
L 249.906364 -214.699867 
L 253.185702 -220.491324 
L 256.465041 -219.56524 
L 259.74438 -219.696697 
L 263.023719 -222.033058 
L 266.303058 -222.407591 
L 269.582397 -223.202698 
L 272.861736 -223.699717 
L 276.141074 -224.624675 
L 279.420413 -223.779015 
L 282.699752 -224.262313 
L 285.979091 -227.041286 
L 289.25843 -226.750758 
L 292.537769 -227.951648 
L 295.817107 -197.319034 
L 299.096446 -197.381305 
L 302.375785 -198.478707 
L 305.655124 -198.257476 
L 308.934463 -199.590028 
L 312.213802 -197.911556 
L 315.49314 -199.43401 
L 318.772479 -199.272873 
L 322.051818 -198.993584 
L 325.331157 -198.359606 
L 328.610496 -199.085519 
L 331.889835 -198.71502 
L 335.169174 -201.926269 
L 338.448512 -200.986297 
L 341.727851 -200.205852 
L 345.00719 -199.854869 
L 348.286529 -202.452539 
L 351.565868 -201.02802 
L 354.845207 -200.416763 
L 358.124545 -197.435868 
L 361.403884 -200.895451 
L 364.683223 -198.731041 
L 367.962562 -201.485771 
L 371.241901 -201.663564 
L 374.52124 -198.915281 
L 377.800579 -200.853986 
L 381.079917 -201.987723 
L 384.359256 -200.886806 
L 387.638595 -202.440235 
L 390.917934 -201.033284 
L 394.197273 -201.594311 
L 394.197273 -246.430002 
L 394.197273 -246.430002 
L 390.917934 -247.709207 
L 387.638595 -247.168589 
L 384.359256 -246.629921 
L 381.079917 -246.025202 
L 377.800579 -244.698843 
L 374.52124 -245.525117 
L 371.241901 -244.038587 
L 367.962562 -244.877666 
L 364.683223 -244.894193 
L 361.403884 -243.181885 
L 358.124545 -243.091688 
L 354.845207 -244.115915 
L 351.565868 -243.916311 
L 348.286529 -244.755428 
L 345.00719 -245.571534 
L 341.727851 -243.191069 
L 338.448512 -243.615509 
L 335.169174 -242.079933 
L 331.889835 -243.761535 
L 328.610496 -242.312504 
L 325.331157 -242.402497 
L 322.051818 -242.202788 
L 318.772479 -242.403289 
L 315.49314 -243.014082 
L 312.213802 -242.570146 
L 308.934463 -241.434438 
L 305.655124 -242.344041 
L 302.375785 -242.455359 
L 299.096446 -241.956338 
L 295.817107 -242.290096 
L 292.537769 -269.902929 
L 289.25843 -269.679396 
L 285.979091 -269.7215 
L 282.699752 -268.091684 
L 279.420413 -266.843185 
L 276.141074 -266.142476 
L 272.861736 -266.892079 
L 269.582397 -263.939411 
L 266.303058 -264.401839 
L 263.023719 -264.993838 
L 259.74438 -264.67194 
L 256.465041 -261.22498 
L 253.185702 -259.570352 
L 249.906364 -257.595559 
L 246.627025 -258.119393 
L 243.347686 -257.277389 
L 240.068347 -256.812013 
L 236.789008 -257.06315 
L 233.509669 -254.571494 
L 230.230331 -255.002604 
L 226.950992 -255.510673 
L 223.671653 -251.634361 
L 220.392314 -248.475592 
L 217.112975 -245.11705 
L 213.833636 -244.478487 
L 210.554298 -242.91545 
L 207.274959 -244.271304 
L 203.99562 -243.767859 
L 200.716281 -244.451297 
L 197.436942 -244.668078 
L 194.157603 -241.066896 
L 190.878264 -241.895489 
L 187.598926 -240.591953 
L 184.319587 -239.756712 
L 181.040248 -237.617032 
L 177.760909 -237.726458 
L 174.48157 -237.191384 
L 171.202231 -227.399945 
L 167.922893 -227.301476 
L 164.643554 -223.972164 
L 161.364215 -217.585005 
L 158.084876 -216.183953 
L 154.805537 -215.035475 
L 151.526198 -212.671019 
L 148.24686 -213.087512 
L 144.967521 -211.124267 
L 141.688182 -210.823722 
L 138.408843 -207.413389 
L 135.129504 -208.495693 
L 131.850165 -205.362182 
L 128.570826 -202.853934 
L 125.291488 -199.980987 
L 122.012149 -196.73391 
L 118.73281 -194.566272 
L 115.453471 -196.258012 
L 112.174132 -198.252228 
L 108.894793 -194.948024 
L 105.615455 -187.693636 
L 102.336116 -186.338451 
L 99.056777 -181.475104 
L 95.777438 -175.584174 
L 92.498099 -169.709213 
L 89.21876 -171.215833 
L 85.939421 -166.288627 
L 82.660083 -148.944562 
L 79.380744 -143.364813 
L 76.101405 -133.24189 
L 72.822066 -138.643833 
L 69.542727 -129.953276 
z
" style="stroke: #55a868; stroke-opacity: 0.2"/>
    </defs>
    <g clip-path="url(#p57db70e142)">
     <use xlink:href="#m457894b913" x="0" y="316.271687" style="fill: #55a868; fill-opacity: 0.2; stroke: #55a868; stroke-opacity: 0.2"/>
    </g>
   </g>
   <g id="PolyCollection_4">
    <defs>
     <path id="m7c0bd62c7e" d="M 69.542727 -127.181272 
L 69.542727 -72.648008 
L 72.822066 -76.970579 
L 76.101405 -98.781242 
L 79.380744 -122.901439 
L 82.660083 -128.380925 
L 85.939421 -141.653295 
L 89.21876 -148.668112 
L 92.498099 -176.029082 
L 95.777438 -183.684768 
L 99.056777 -192.38969 
L 102.336116 -207.725192 
L 105.615455 -210.443396 
L 108.894793 -224.764419 
L 112.174132 -225.885443 
L 115.453471 -227.184795 
L 118.73281 -237.557624 
L 122.012149 -237.453285 
L 125.291488 -236.358762 
L 128.570826 -238.491657 
L 131.850165 -240.581864 
L 135.129504 -241.141021 
L 138.408843 -248.046069 
L 141.688182 -252.10939 
L 144.967521 -252.667259 
L 148.24686 -252.617244 
L 151.526198 -255.16208 
L 154.805537 -253.115854 
L 158.084876 -255.161923 
L 161.364215 -252.695351 
L 164.643554 -254.873263 
L 167.922893 -255.332347 
L 171.202231 -256.947376 
L 174.48157 -258.295531 
L 177.760909 -258.156316 
L 181.040248 -258.864661 
L 184.319587 -258.882167 
L 187.598926 -258.62395 
L 190.878264 -256.711101 
L 194.157603 -257.861215 
L 197.436942 -258.539335 
L 200.716281 -257.878546 
L 203.99562 -257.49773 
L 207.274959 -258.483598 
L 210.554298 -258.860433 
L 213.833636 -261.082443 
L 217.112975 -261.268264 
L 220.392314 -260.182801 
L 223.671653 -260.612373 
L 226.950992 -261.897681 
L 230.230331 -262.62478 
L 233.509669 -262.043965 
L 236.789008 -260.413588 
L 240.068347 -263.755735 
L 243.347686 -262.725257 
L 246.627025 -263.365908 
L 249.906364 -265.301223 
L 253.185702 -264.265426 
L 256.465041 -264.489071 
L 259.74438 -266.007566 
L 263.023719 -267.165944 
L 266.303058 -266.284796 
L 269.582397 -266.696876 
L 272.861736 -269.097583 
L 276.141074 -269.768773 
L 279.420413 -270.042422 
L 282.699752 -270.097164 
L 285.979091 -271.237183 
L 289.25843 -270.941544 
L 292.537769 -269.876091 
L 295.817107 -250.190387 
L 299.096446 -256.930573 
L 302.375785 -257.018104 
L 305.655124 -256.370759 
L 308.934463 -256.054743 
L 312.213802 -255.259786 
L 315.49314 -254.131696 
L 318.772479 -254.899991 
L 322.051818 -256.18322 
L 325.331157 -255.736672 
L 328.610496 -256.151798 
L 331.889835 -256.321371 
L 335.169174 -255.216996 
L 338.448512 -257.063328 
L 341.727851 -256.680369 
L 345.00719 -255.957227 
L 348.286529 -256.725327 
L 351.565868 -256.886244 
L 354.845207 -255.699114 
L 358.124545 -256.406608 
L 361.403884 -257.908571 
L 364.683223 -257.420328 
L 367.962562 -256.760626 
L 371.241901 -255.880036 
L 374.52124 -257.49001 
L 377.800579 -256.16304 
L 381.079917 -257.122697 
L 384.359256 -257.227539 
L 387.638595 -256.814561 
L 390.917934 -258.219106 
L 394.197273 -256.667789 
L 394.197273 -283.037145 
L 394.197273 -283.037145 
L 390.917934 -284.324642 
L 387.638595 -283.594176 
L 384.359256 -283.6994 
L 381.079917 -283.888309 
L 377.800579 -283.51627 
L 374.52124 -284.068252 
L 371.241901 -283.459732 
L 367.962562 -283.914454 
L 364.683223 -283.619572 
L 361.403884 -283.491244 
L 358.124545 -282.69614 
L 354.845207 -283.010325 
L 351.565868 -282.167026 
L 348.286529 -282.790598 
L 345.00719 -282.699488 
L 341.727851 -282.918297 
L 338.448512 -283.198743 
L 335.169174 -283.658272 
L 331.889835 -282.859929 
L 328.610496 -282.449943 
L 325.331157 -283.066944 
L 322.051818 -282.974685 
L 318.772479 -282.118884 
L 315.49314 -283.14379 
L 312.213802 -281.39319 
L 308.934463 -282.305257 
L 305.655124 -282.291926 
L 302.375785 -282.235764 
L 299.096446 -281.450996 
L 295.817107 -280.703739 
L 292.537769 -293.524202 
L 289.25843 -293.758596 
L 285.979091 -293.383734 
L 282.699752 -292.93634 
L 279.420413 -293.511071 
L 276.141074 -293.879535 
L 272.861736 -293.203943 
L 269.582397 -293.531536 
L 266.303058 -292.764685 
L 263.023719 -292.49512 
L 259.74438 -292.600971 
L 256.465041 -291.947639 
L 253.185702 -291.689786 
L 249.906364 -292.590347 
L 246.627025 -291.395955 
L 243.347686 -290.972188 
L 240.068347 -290.664483 
L 236.789008 -289.698528 
L 233.509669 -289.780877 
L 230.230331 -289.697278 
L 226.950992 -289.641601 
L 223.671653 -289.206368 
L 220.392314 -288.601311 
L 217.112975 -290.173168 
L 213.833636 -290.287549 
L 210.554298 -288.571101 
L 207.274959 -288.862171 
L 203.99562 -288.02987 
L 200.716281 -289.162134 
L 197.436942 -289.67238 
L 194.157603 -288.92867 
L 190.878264 -288.43409 
L 187.598926 -288.868836 
L 184.319587 -289.074337 
L 181.040248 -288.779673 
L 177.760909 -288.019989 
L 174.48157 -288.42993 
L 171.202231 -287.116205 
L 167.922893 -286.628033 
L 164.643554 -286.472192 
L 161.364215 -286.920502 
L 158.084876 -286.582581 
L 154.805537 -285.568344 
L 151.526198 -284.99827 
L 148.24686 -284.645904 
L 144.967521 -283.313613 
L 141.688182 -284.046999 
L 138.408843 -281.685761 
L 135.129504 -279.11274 
L 131.850165 -276.871517 
L 128.570826 -276.87547 
L 125.291488 -275.886686 
L 122.012149 -276.294369 
L 118.73281 -274.124304 
L 115.453471 -269.108745 
L 112.174132 -267.954315 
L 108.894793 -265.915562 
L 105.615455 -260.849621 
L 102.336116 -256.928893 
L 99.056777 -247.249213 
L 95.777438 -246.863723 
L 92.498099 -234.927137 
L 89.21876 -215.614748 
L 85.939421 -214.499531 
L 82.660083 -198.785786 
L 79.380744 -195.792814 
L 76.101405 -160.072162 
L 72.822066 -138.088105 
L 69.542727 -127.181272 
z
" style="stroke: #c44e52; stroke-opacity: 0.2"/>
    </defs>
    <g clip-path="url(#p57db70e142)">
     <use xlink:href="#m7c0bd62c7e" x="0" y="316.271687" style="fill: #c44e52; fill-opacity: 0.2; stroke: #c44e52; stroke-opacity: 0.2"/>
    </g>
   </g>
   <g id="PolyCollection_5">
    <defs>
     <path id="m1300b3d6dc" d="M 69.542727 -119.533755 
L 69.542727 -67.922702 
L 72.822066 -79.124958 
L 76.101405 -92.2312 
L 79.380744 -102.382529 
L 82.660083 -119.798059 
L 85.939421 -120.258815 
L 89.21876 -127.183448 
L 92.498099 -130.624853 
L 95.777438 -144.633555 
L 99.056777 -134.852566 
L 102.336116 -141.039206 
L 105.615455 -155.953749 
L 108.894793 -166.214732 
L 112.174132 -171.589697 
L 115.453471 -174.52401 
L 118.73281 -187.815024 
L 122.012149 -195.799043 
L 125.291488 -199.283226 
L 128.570826 -203.440685 
L 131.850165 -208.977269 
L 135.129504 -211.462344 
L 138.408843 -221.890613 
L 141.688182 -224.533164 
L 144.967521 -226.452884 
L 148.24686 -230.74607 
L 151.526198 -232.501709 
L 154.805537 -239.493819 
L 158.084876 -244.444239 
L 161.364215 -243.562092 
L 164.643554 -246.000996 
L 167.922893 -245.889212 
L 171.202231 -249.19885 
L 174.48157 -249.189872 
L 177.760909 -249.032382 
L 181.040248 -252.316179 
L 184.319587 -252.374277 
L 187.598926 -253.191359 
L 190.878264 -255.790057 
L 194.157603 -256.808505 
L 197.436942 -259.996224 
L 200.716281 -260.943428 
L 203.99562 -263.753665 
L 207.274959 -263.842492 
L 210.554298 -263.494343 
L 213.833636 -272.555476 
L 217.112975 -271.137288 
L 220.392314 -269.36503 
L 223.671653 -271.020998 
L 226.950992 -272.797376 
L 230.230331 -273.458357 
L 233.509669 -274.142675 
L 236.789008 -275.581937 
L 240.068347 -276.716204 
L 243.347686 -278.94478 
L 246.627025 -278.543094 
L 249.906364 -278.232692 
L 253.185702 -278.872652 
L 256.465041 -278.833247 
L 259.74438 -279.379743 
L 263.023719 -280.875087 
L 266.303058 -280.409911 
L 269.582397 -281.293391 
L 272.861736 -281.860046 
L 276.141074 -283.370862 
L 279.420413 -284.627072 
L 282.699752 -284.388895 
L 285.979091 -283.707168 
L 289.25843 -282.55995 
L 292.537769 -284.252166 
L 295.817107 -233.043906 
L 299.096446 -233.350927 
L 302.375785 -234.457457 
L 305.655124 -233.238989 
L 308.934463 -232.92372 
L 312.213802 -233.99569 
L 315.49314 -233.818437 
L 318.772479 -233.04663 
L 322.051818 -232.885008 
L 325.331157 -234.20401 
L 328.610496 -233.684219 
L 331.889835 -233.239953 
L 335.169174 -233.676012 
L 338.448512 -233.635014 
L 341.727851 -233.239004 
L 345.00719 -233.024298 
L 348.286529 -233.684863 
L 351.565868 -234.307419 
L 354.845207 -234.823778 
L 358.124545 -233.878229 
L 361.403884 -234.808147 
L 364.683223 -232.982605 
L 367.962562 -234.600058 
L 371.241901 -234.994786 
L 374.52124 -236.564831 
L 377.800579 -235.005312 
L 381.079917 -234.192114 
L 384.359256 -235.38691 
L 387.638595 -234.94304 
L 390.917934 -233.942197 
L 394.197273 -235.139842 
L 394.197273 -274.36055 
L 394.197273 -274.36055 
L 390.917934 -272.426256 
L 387.638595 -273.925983 
L 384.359256 -272.639148 
L 381.079917 -272.176835 
L 377.800579 -273.221541 
L 374.52124 -273.426634 
L 371.241901 -274.033717 
L 367.962562 -272.48928 
L 364.683223 -273.874985 
L 361.403884 -271.500406 
L 358.124545 -272.695029 
L 354.845207 -273.183931 
L 351.565868 -273.141305 
L 348.286529 -271.516535 
L 345.00719 -273.29939 
L 341.727851 -271.629841 
L 338.448512 -271.763268 
L 335.169174 -271.505243 
L 331.889835 -272.901131 
L 328.610496 -271.706492 
L 325.331157 -271.086891 
L 322.051818 -272.836103 
L 318.772479 -271.4098 
L 315.49314 -272.433796 
L 312.213802 -272.58609 
L 308.934463 -272.311967 
L 305.655124 -272.293632 
L 302.375785 -271.551824 
L 299.096446 -271.682287 
L 295.817107 -271.258102 
L 292.537769 -294.845928 
L 289.25843 -294.39905 
L 285.979091 -294.243316 
L 282.699752 -294.610248 
L 279.420413 -294.509606 
L 276.141074 -294.288675 
L 272.861736 -294.315011 
L 269.582397 -294.149821 
L 266.303058 -294.200051 
L 263.023719 -293.927018 
L 259.74438 -293.746402 
L 256.465041 -293.790482 
L 253.185702 -293.919619 
L 249.906364 -293.5326 
L 246.627025 -293.861643 
L 243.347686 -292.945565 
L 240.068347 -292.406737 
L 236.789008 -292.814489 
L 233.509669 -291.726091 
L 230.230331 -291.419533 
L 226.950992 -291.118295 
L 223.671653 -291.299134 
L 220.392314 -289.242078 
L 217.112975 -289.680754 
L 213.833636 -290.120456 
L 210.554298 -289.439191 
L 207.274959 -288.854377 
L 203.99562 -288.897214 
L 200.716281 -288.036807 
L 197.436942 -288.061941 
L 194.157603 -286.645988 
L 190.878264 -285.921744 
L 187.598926 -285.393338 
L 184.319587 -284.622019 
L 181.040248 -283.946977 
L 177.760909 -282.378481 
L 174.48157 -282.286474 
L 171.202231 -281.180614 
L 167.922893 -280.181196 
L 164.643554 -278.16851 
L 161.364215 -276.597904 
L 158.084876 -277.471263 
L 154.805537 -273.111758 
L 151.526198 -269.428166 
L 148.24686 -267.692764 
L 144.967521 -264.56997 
L 141.688182 -265.808671 
L 138.408843 -261.016206 
L 135.129504 -256.420099 
L 131.850165 -254.408313 
L 128.570826 -251.270557 
L 125.291488 -245.87627 
L 122.012149 -239.307272 
L 118.73281 -232.746083 
L 115.453471 -221.179936 
L 112.174132 -216.517716 
L 108.894793 -213.982016 
L 105.615455 -204.759764 
L 102.336116 -186.952464 
L 99.056777 -183.588594 
L 95.777438 -192.418743 
L 92.498099 -189.24805 
L 89.21876 -186.183121 
L 85.939421 -172.616257 
L 82.660083 -170.791426 
L 79.380744 -164.659511 
L 76.101405 -146.025669 
L 72.822066 -126.117387 
L 69.542727 -119.533755 
z
" style="stroke: #8172b3; stroke-opacity: 0.2"/>
    </defs>
    <g clip-path="url(#p57db70e142)">
     <use xlink:href="#m1300b3d6dc" x="0" y="316.271687" style="fill: #8172b3; fill-opacity: 0.2; stroke: #8172b3; stroke-opacity: 0.2"/>
    </g>
   </g>
   <g id="line2d_12">
    <path d="M 69.542727 211.85519 
L 72.822066 164.235777 
L 76.101405 158.469012 
L 79.380744 120.684911 
L 82.660083 97.33043 
L 85.939421 89.20095 
L 89.21876 55.89602 
L 92.498099 56.423039 
L 95.777438 46.302689 
L 99.056777 31.426167 
L 102.336116 31.813208 
L 105.615455 30.377171 
L 108.894793 31.29387 
L 112.174132 27.780575 
L 115.453471 32.069232 
L 118.73281 29.231626 
L 122.012149 28.647042 
L 125.291488 25.647883 
L 128.570826 26.973992 
L 131.850165 25.195702 
L 135.129504 25.59204 
L 138.408843 24.413174 
L 141.688182 25.27114 
L 144.967521 24.633588 
L 148.24686 24.070943 
L 151.526198 23.44001 
L 154.805537 25.48959 
L 158.084876 25.107934 
L 161.364215 29.013199 
L 164.643554 28.325529 
L 167.922893 27.170739 
L 171.202231 26.847254 
L 174.48157 25.122699 
L 177.760909 25.273514 
L 181.040248 24.759159 
L 184.319587 24.750696 
L 187.598926 25.354821 
L 190.878264 24.371549 
L 194.157603 23.173081 
L 197.436942 22.21522 
L 200.716281 21.816198 
L 203.99562 22.170471 
L 207.274959 21.799022 
L 210.554298 21.768841 
L 213.833636 24.761669 
L 217.112975 23.960136 
L 220.392314 23.856936 
L 223.671653 23.823525 
L 226.950992 23.649391 
L 230.230331 22.608941 
L 233.509669 22.461842 
L 236.789008 22.015455 
L 240.068347 21.858983 
L 243.347686 21.255676 
L 246.627025 21.153886 
L 249.906364 21.16147 
L 253.185702 22.156382 
L 256.465041 21.719239 
L 259.74438 21.610981 
L 263.023719 20.806074 
L 266.303058 21.348298 
L 269.582397 21.21415 
L 272.861736 21.599052 
L 276.141074 21.457769 
L 279.420413 21.850308 
L 282.699752 21.657125 
L 285.979091 21.873277 
L 289.25843 21.937007 
L 292.537769 21.850846 
L 295.817107 27.007014 
L 299.096446 26.591785 
L 302.375785 27.463009 
L 305.655124 27.011913 
L 308.934463 27.188349 
L 312.213802 28.164066 
L 315.49314 27.804941 
L 318.772479 26.959574 
L 322.051818 27.02263 
L 325.331157 27.436075 
L 328.610496 27.369048 
L 331.889835 26.857071 
L 335.169174 27.247966 
L 338.448512 27.194528 
L 341.727851 27.883333 
L 345.00719 28.093041 
L 348.286529 28.160069 
L 351.565868 27.701 
L 354.845207 28.569675 
L 358.124545 28.033833 
L 361.403884 28.899642 
L 364.683223 28.285407 
L 367.962562 28.04171 
L 371.241901 28.430901 
L 374.52124 28.484085 
L 377.800579 28.454428 
L 381.079917 28.308933 
L 384.359256 27.685308 
L 387.638595 27.985384 
L 390.917934 28.092224 
L 394.197273 28.23982 
" clip-path="url(#p57db70e142)" style="fill: none; stroke: #4c72b0; stroke-width: 1.5; stroke-linecap: round"/>
   </g>
   <g id="line2d_13">
    <path d="M 69.542727 241.964236 
L 72.822066 216.462229 
L 76.101405 240.123543 
L 79.380744 180.901069 
L 82.660083 169.400449 
L 85.939421 176.200536 
L 89.21876 117.326238 
L 92.498099 118.109214 
L 95.777438 109.429101 
L 99.056777 83.648577 
L 102.336116 90.208693 
L 105.615455 72.89847 
L 108.894793 67.453567 
L 112.174132 69.642679 
L 115.453471 88.212066 
L 118.73281 97.166624 
L 122.012149 68.418662 
L 125.291488 78.91097 
L 128.570826 82.595312 
L 131.850165 80.065812 
L 135.129504 83.463183 
L 138.408843 59.926613 
L 141.688182 63.598458 
L 144.967521 68.812247 
L 148.24686 47.376982 
L 151.526198 76.110825 
L 154.805537 83.122559 
L 158.084876 80.460899 
L 161.364215 68.86445 
L 164.643554 78.52418 
L 167.922893 59.834992 
L 171.202231 63.112896 
L 174.48157 70.027656 
L 177.760909 48.989533 
L 181.040248 48.888608 
L 184.319587 64.315088 
L 187.598926 59.083009 
L 190.878264 46.624241 
L 194.157603 77.156992 
L 197.436942 49.766867 
L 200.716281 54.255593 
L 203.99562 47.965403 
L 207.274959 38.913294 
L 210.554298 51.483051 
L 213.833636 49.06416 
L 217.112975 72.510967 
L 220.392314 67.213323 
L 223.671653 64.70288 
L 226.950992 56.735764 
L 230.230331 42.791654 
L 233.509669 59.946428 
L 236.789008 34.477712 
L 240.068347 45.451433 
L 243.347686 38.484167 
L 246.627025 46.563165 
L 249.906364 33.256053 
L 253.185702 36.554864 
L 256.465041 65.722043 
L 259.74438 37.067187 
L 263.023719 58.820455 
L 266.303058 78.483905 
L 269.582397 37.434671 
L 272.861736 41.856641 
L 276.141074 38.739873 
L 279.420413 35.490126 
L 282.699752 41.528978 
L 285.979091 67.434184 
L 289.25843 63.03742 
L 292.537769 58.872385 
L 295.817107 41.841288 
L 299.096446 68.027022 
L 302.375785 54.739671 
L 305.655124 48.850257 
L 308.934463 58.936859 
L 312.213802 38.01556 
L 315.49314 38.760617 
L 318.772479 41.581284 
L 322.051818 32.422034 
L 325.331157 39.052481 
L 328.610496 36.401977 
L 331.889835 34.989034 
L 335.169174 54.552995 
L 338.448512 45.709221 
L 341.727851 43.807738 
L 345.00719 44.364341 
L 348.286529 44.680459 
L 351.565868 41.379432 
L 354.845207 41.014011 
L 358.124545 33.608812 
L 361.403884 46.368937 
L 364.683223 36.319438 
L 367.962562 35.338891 
L 371.241901 32.498351 
L 374.52124 33.701139 
L 377.800579 60.42984 
L 381.079917 48.295846 
L 384.359256 35.014068 
L 387.638595 28.481595 
L 390.917934 42.331044 
L 394.197273 34.087554 
" clip-path="url(#p57db70e142)" style="fill: none; stroke: #dd8452; stroke-width: 1.5; stroke-linecap: round"/>
   </g>
   <g id="line2d_14">
    <path d="M 69.542727 214.653212 
L 72.822066 205.985982 
L 76.101405 211.050192 
L 79.380744 202.125391 
L 82.660083 196.859156 
L 85.939421 179.728679 
L 89.21876 171.331056 
L 92.498099 174.872462 
L 95.777438 167.58463 
L 99.056777 159.992513 
L 102.336116 151.811702 
L 105.615455 150.879822 
L 108.894793 142.076488 
L 112.174132 140.132581 
L 115.453471 144.761869 
L 118.73281 142.628138 
L 122.012149 142.243244 
L 125.291488 139.459895 
L 128.570826 135.460735 
L 131.850165 133.456996 
L 135.129504 132.749184 
L 138.408843 131.001993 
L 141.688182 130.744118 
L 144.967521 128.723528 
L 148.24686 127.356727 
L 151.526198 125.7158 
L 154.805537 125.557181 
L 158.084876 123.559835 
L 161.364215 122.377753 
L 164.643554 115.537756 
L 167.922893 111.340583 
L 171.202231 111.844427 
L 174.48157 104.025375 
L 177.760909 102.771867 
L 181.040248 101.920991 
L 184.319587 100.76564 
L 187.598926 98.24687 
L 190.878264 98.23429 
L 194.157603 98.110008 
L 197.436942 96.571326 
L 200.716281 96.245285 
L 203.99562 96.62917 
L 207.274959 95.725045 
L 210.554298 95.593279 
L 213.833636 95.52145 
L 217.112975 92.141264 
L 220.392314 89.441611 
L 223.671653 87.625663 
L 226.950992 84.75585 
L 230.230331 83.948267 
L 233.509669 83.485394 
L 236.789008 81.164751 
L 240.068347 81.167876 
L 243.347686 80.837247 
L 246.627025 80.997594 
L 249.906364 79.751874 
L 253.185702 75.20889 
L 256.465041 75.091661 
L 259.74438 73.327779 
L 263.023719 71.806796 
L 266.303058 71.406371 
L 269.582397 71.220362 
L 272.861736 70.792493 
L 276.141074 70.509919 
L 279.420413 70.434777 
L 282.699752 68.985296 
L 285.979091 67.109319 
L 289.25843 66.775793 
L 292.537769 66.477022 
L 295.817107 96.525152 
L 299.096446 95.970959 
L 302.375785 96.005712 
L 305.655124 95.322045 
L 308.934463 95.412716 
L 312.213802 95.312278 
L 315.49314 95.299241 
L 318.772479 95.012197 
L 322.051818 94.857992 
L 325.331157 94.821848 
L 328.610496 94.561669 
L 331.889835 94.752511 
L 335.169174 94.234409 
L 338.448512 93.750869 
L 341.727851 93.627723 
L 345.00719 93.398066 
L 348.286529 93.330413 
L 351.565868 93.314344 
L 354.845207 93.328942 
L 358.124545 93.130843 
L 361.403884 92.756266 
L 364.683223 92.681313 
L 367.962562 92.732824 
L 371.241901 92.511603 
L 374.52124 92.486999 
L 377.800579 92.238233 
L 381.079917 92.122879 
L 384.359256 91.602754 
L 387.638595 91.542941 
L 390.917934 91.493765 
L 394.197273 91.319925 
" clip-path="url(#p57db70e142)" style="fill: none; stroke: #55a868; stroke-width: 1.5; stroke-linecap: round"/>
   </g>
   <g id="line2d_15">
    <path d="M 69.542727 217.970898 
L 72.822066 211.615833 
L 76.101405 185.277313 
L 79.380744 157.134659 
L 82.660083 152.616252 
L 85.939421 138.486838 
L 89.21876 136.130418 
L 92.498099 110.789904 
L 95.777438 100.756427 
L 99.056777 94.544783 
L 102.336116 81.843989 
L 105.615455 80.477877 
L 108.894793 71.058892 
L 112.174132 68.108371 
L 115.453471 66.897474 
L 118.73281 58.702073 
L 122.012149 58.33258 
L 125.291488 57.835059 
L 128.570826 58.376798 
L 131.850165 56.802474 
L 135.129504 54.842338 
L 138.408843 50.243132 
L 141.688182 46.697654 
L 144.967521 46.598746 
L 148.24686 45.797699 
L 151.526198 45.694863 
L 154.805537 44.496417 
L 158.084876 43.647254 
L 161.364215 44.191867 
L 164.643554 43.773985 
L 167.922893 42.742833 
L 171.202231 42.404757 
L 174.48157 41.77246 
L 177.760909 41.730092 
L 181.040248 40.690181 
L 184.319587 40.480194 
L 187.598926 40.869047 
L 190.878264 41.642385 
L 194.157603 41.064679 
L 197.436942 39.391493 
L 200.716281 39.671291 
L 203.99562 40.422038 
L 207.274959 39.966362 
L 210.554298 40.008184 
L 213.833636 38.58149 
L 217.112975 38.813742 
L 220.392314 39.282256 
L 223.671653 38.684758 
L 226.950992 38.532813 
L 230.230331 37.35149 
L 233.509669 38.162357 
L 236.789008 38.064435 
L 240.068347 37.329051 
L 243.347686 36.968378 
L 246.627025 35.593478 
L 249.906364 34.737566 
L 253.185702 35.404974 
L 256.465041 35.089011 
L 259.74438 34.422483 
L 263.023719 34.494357 
L 266.303058 33.954909 
L 269.582397 33.604025 
L 272.861736 32.948743 
L 276.141074 32.040864 
L 279.420413 32.01866 
L 282.699752 32.567178 
L 285.979091 31.40319 
L 289.25843 31.465858 
L 292.537769 31.7292 
L 295.817107 49.097234 
L 299.096446 46.048392 
L 302.375785 46.051811 
L 305.655124 45.600439 
L 308.934463 45.697272 
L 312.213802 46.498384 
L 315.49314 46.781643 
L 318.772479 46.542028 
L 322.051818 46.172425 
L 325.331157 45.488583 
L 328.610496 45.460863 
L 331.889835 45.235989 
L 335.169174 45.172577 
L 338.448512 45.260848 
L 341.727851 45.760106 
L 345.00719 45.722385 
L 348.286529 45.085596 
L 351.565868 45.231663 
L 354.845207 45.754553 
L 358.124545 44.815448 
L 361.403884 44.707685 
L 364.683223 44.712436 
L 367.962562 44.788227 
L 371.241901 45.147336 
L 374.52124 44.609009 
L 377.800579 44.876981 
L 381.079917 44.810532 
L 384.359256 44.918221 
L 387.638595 44.504962 
L 390.917934 44.686069 
L 394.197273 45.024758 
" clip-path="url(#p57db70e142)" style="fill: none; stroke: #c44e52; stroke-width: 1.5; stroke-linecap: round"/>
   </g>
   <g id="line2d_16">
    <path d="M 69.542727 224.256902 
L 72.822066 215.614811 
L 76.101405 198.404702 
L 79.380744 184.283235 
L 82.660083 171.304287 
L 85.939421 170.845889 
L 89.21876 158.859434 
L 92.498099 155.748907 
L 95.777438 147.745423 
L 99.056777 157.429495 
L 102.336116 152.582249 
L 105.615455 135.91535 
L 108.894793 126.689577 
L 112.174132 121.610399 
L 115.453471 117.679116 
L 118.73281 105.483114 
L 122.012149 99.714278 
L 125.291488 92.898487 
L 128.570826 88.447237 
L 131.850165 84.314332 
L 135.129504 81.674435 
L 138.408843 73.212666 
L 141.688182 70.113514 
L 144.967521 69.085994 
L 148.24686 66.252315 
L 151.526198 63.486909 
L 154.805537 57.485685 
L 158.084876 53.636711 
L 161.364215 53.581527 
L 164.643554 53.05623 
L 167.922893 51.221149 
L 171.202231 49.364509 
L 174.48157 48.269195 
L 177.760909 47.454794 
L 181.040248 46.034098 
L 184.319587 45.543251 
L 187.598926 45.140134 
L 190.878264 43.63409 
L 194.157603 42.793716 
L 197.436942 40.708601 
L 200.716281 40.502565 
L 203.99562 38.917177 
L 207.274959 38.51566 
L 210.554298 37.519868 
L 213.833636 34.318403 
L 217.112975 35.20439 
L 220.392314 35.121983 
L 223.671653 33.729224 
L 226.950992 32.928807 
L 230.230331 32.673502 
L 233.509669 31.703122 
L 236.789008 30.702621 
L 240.068347 30.152116 
L 243.347686 29.056423 
L 246.627025 28.532285 
L 249.906364 28.6799 
L 253.185702 28.003969 
L 256.465041 28.331694 
L 259.74438 28.270497 
L 263.023719 27.658735 
L 266.303058 27.897933 
L 269.582397 27.593262 
L 272.861736 26.982349 
L 276.141074 26.707563 
L 279.420413 25.985147 
L 282.699752 25.809838 
L 285.979091 26.332353 
L 289.25843 26.218521 
L 292.537769 25.805508 
L 295.817107 63.335847 
L 299.096446 62.49005 
L 302.375785 62.587573 
L 305.655124 61.878002 
L 308.934463 62.246257 
L 312.213802 62.238444 
L 315.49314 62.470452 
L 318.772479 62.811794 
L 322.051818 62.871788 
L 325.331157 63.027304 
L 328.610496 63.079771 
L 331.889835 62.647153 
L 335.169174 62.580099 
L 338.448512 62.217487 
L 341.727851 62.460446 
L 345.00719 62.037112 
L 348.286529 61.725034 
L 351.565868 61.849412 
L 354.845207 61.73857 
L 358.124545 61.22885 
L 361.403884 61.547059 
L 364.683223 61.303935 
L 367.962562 60.928206 
L 371.241901 60.879471 
L 374.52124 60.730223 
L 377.800579 61.18675 
L 381.079917 61.446955 
L 384.359256 61.094253 
L 387.638595 60.930053 
L 390.917934 61.265217 
L 394.197273 60.921119 
" clip-path="url(#p57db70e142)" style="fill: none; stroke: #8172b3; stroke-width: 1.5; stroke-linecap: round"/>
   </g>
   <g id="line2d_17"/>
   <g id="line2d_18"/>
   <g id="line2d_19"/>
   <g id="line2d_20"/>
   <g id="line2d_21"/>
   <g id="patch_3">
    <path d="M 53.31 273.312 
L 53.31 7.2 
" style="fill: none; stroke: #cccccc; stroke-width: 1.25; stroke-linejoin: miter; stroke-linecap: square"/>
   </g>
   <g id="patch_4">
    <path d="M 410.43 273.312 
L 410.43 7.2 
" style="fill: none; stroke: #cccccc; stroke-width: 1.25; stroke-linejoin: miter; stroke-linecap: square"/>
   </g>
   <g id="patch_5">
    <path d="M 53.31 273.312 
L 410.43 273.312 
" style="fill: none; stroke: #cccccc; stroke-width: 1.25; stroke-linejoin: miter; stroke-linecap: square"/>
   </g>
   <g id="patch_6">
    <path d="M 53.31 7.2 
L 410.43 7.2 
" style="fill: none; stroke: #cccccc; stroke-width: 1.25; stroke-linejoin: miter; stroke-linecap: square"/>
   </g>
   <g id="legend_1">
    <g id="patch_7">
     <path d="M 298.745625 267.812 
L 402.73 267.812 
Q 404.93 267.812 404.93 265.612 
L 404.93 168.868562 
Q 404.93 166.668562 402.73 166.668562 
L 298.745625 166.668562 
Q 296.545625 166.668562 296.545625 168.868562 
L 296.545625 265.612 
Q 296.545625 267.812 298.745625 267.812 
z
" style="fill: #ffffff; opacity: 0.8; stroke: #cccccc; stroke-linejoin: miter"/>
    </g>
    <g id="text_14">
     <!-- Strategy -->
     <g style="fill: #262626" transform="translate(325.02875 180.186687) scale(0.12 -0.12)">
      <defs>
       <path id="DejaVuSans-53" d="M 3425 4513 
L 3425 3897 
Q 3066 4069 2747 4153 
Q 2428 4238 2131 4238 
Q 1616 4238 1336 4038 
Q 1056 3838 1056 3469 
Q 1056 3159 1242 3001 
Q 1428 2844 1947 2747 
L 2328 2669 
Q 3034 2534 3370 2195 
Q 3706 1856 3706 1288 
Q 3706 609 3251 259 
Q 2797 -91 1919 -91 
Q 1588 -91 1214 -16 
Q 841 59 441 206 
L 441 856 
Q 825 641 1194 531 
Q 1563 422 1919 422 
Q 2459 422 2753 634 
Q 3047 847 3047 1241 
Q 3047 1584 2836 1778 
Q 2625 1972 2144 2069 
L 1759 2144 
Q 1053 2284 737 2584 
Q 422 2884 422 3419 
Q 422 4038 858 4394 
Q 1294 4750 2059 4750 
Q 2388 4750 2728 4690 
Q 3069 4631 3425 4513 
z
" transform="scale(0.015625)"/>
       <path id="DejaVuSans-74" d="M 1172 4494 
L 1172 3500 
L 2356 3500 
L 2356 3053 
L 1172 3053 
L 1172 1153 
Q 1172 725 1289 603 
Q 1406 481 1766 481 
L 2356 481 
L 2356 0 
L 1766 0 
Q 1100 0 847 248 
Q 594 497 594 1153 
L 594 3053 
L 172 3053 
L 172 3500 
L 594 3500 
L 594 4494 
L 1172 4494 
z
" transform="scale(0.015625)"/>
       <path id="DejaVuSans-65" d="M 3597 1894 
L 3597 1613 
L 953 1613 
Q 991 1019 1311 708 
Q 1631 397 2203 397 
Q 2534 397 2845 478 
Q 3156 559 3463 722 
L 3463 178 
Q 3153 47 2828 -22 
Q 2503 -91 2169 -91 
Q 1331 -91 842 396 
Q 353 884 353 1716 
Q 353 2575 817 3079 
Q 1281 3584 2069 3584 
Q 2775 3584 3186 3129 
Q 3597 2675 3597 1894 
z
M 3022 2063 
Q 3016 2534 2758 2815 
Q 2500 3097 2075 3097 
Q 1594 3097 1305 2825 
Q 1016 2553 972 2059 
L 3022 2063 
z
" transform="scale(0.015625)"/>
       <path id="DejaVuSans-67" d="M 2906 1791 
Q 2906 2416 2648 2759 
Q 2391 3103 1925 3103 
Q 1463 3103 1205 2759 
Q 947 2416 947 1791 
Q 947 1169 1205 825 
Q 1463 481 1925 481 
Q 2391 481 2648 825 
Q 2906 1169 2906 1791 
z
M 3481 434 
Q 3481 -459 3084 -895 
Q 2688 -1331 1869 -1331 
Q 1566 -1331 1297 -1286 
Q 1028 -1241 775 -1147 
L 775 -588 
Q 1028 -725 1275 -790 
Q 1522 -856 1778 -856 
Q 2344 -856 2625 -561 
Q 2906 -266 2906 331 
L 2906 616 
Q 2728 306 2450 153 
Q 2172 0 1784 0 
Q 1141 0 747 490 
Q 353 981 353 1791 
Q 353 2603 747 3093 
Q 1141 3584 1784 3584 
Q 2172 3584 2450 3431 
Q 2728 3278 2906 2969 
L 2906 3500 
L 3481 3500 
L 3481 434 
z
" transform="scale(0.015625)"/>
      </defs>
      <use xlink:href="#DejaVuSans-53"/>
      <use xlink:href="#DejaVuSans-74" x="63.476562"/>
      <use xlink:href="#DejaVuSans-72" x="102.685547"/>
      <use xlink:href="#DejaVuSans-61" x="143.798828"/>
      <use xlink:href="#DejaVuSans-74" x="205.078125"/>
      <use xlink:href="#DejaVuSans-65" x="244.287109"/>
      <use xlink:href="#DejaVuSans-67" x="305.810547"/>
      <use xlink:href="#DejaVuSans-79" x="369.287109"/>
     </g>
    </g>
    <g id="line2d_22">
     <path d="M 300.945625 192.690594 
L 311.945625 192.690594 
L 322.945625 192.690594 
" style="fill: none; stroke: #4c72b0; stroke-width: 1.5; stroke-linecap: round"/>
    </g>
    <g id="text_15">
     <!-- FedPredict -->
     <g style="fill: #262626" transform="translate(331.745625 196.540594) scale(0.11 -0.11)">
      <defs>
       <path id="DejaVuSans-46" d="M 628 4666 
L 3309 4666 
L 3309 4134 
L 1259 4134 
L 1259 2759 
L 3109 2759 
L 3109 2228 
L 1259 2228 
L 1259 0 
L 628 0 
L 628 4666 
z
" transform="scale(0.015625)"/>
       <path id="DejaVuSans-50" d="M 1259 4147 
L 1259 2394 
L 2053 2394 
Q 2494 2394 2734 2622 
Q 2975 2850 2975 3272 
Q 2975 3691 2734 3919 
Q 2494 4147 2053 4147 
L 1259 4147 
z
M 628 4666 
L 2053 4666 
Q 2838 4666 3239 4311 
Q 3641 3956 3641 3272 
Q 3641 2581 3239 2228 
Q 2838 1875 2053 1875 
L 1259 1875 
L 1259 0 
L 628 0 
L 628 4666 
z
" transform="scale(0.015625)"/>
       <path id="DejaVuSans-69" d="M 603 3500 
L 1178 3500 
L 1178 0 
L 603 0 
L 603 3500 
z
M 603 4863 
L 1178 4863 
L 1178 4134 
L 603 4134 
L 603 4863 
z
" transform="scale(0.015625)"/>
      </defs>
      <use xlink:href="#DejaVuSans-46"/>
      <use xlink:href="#DejaVuSans-65" x="52.019531"/>
      <use xlink:href="#DejaVuSans-64" x="113.542969"/>
      <use xlink:href="#DejaVuSans-50" x="177.019531"/>
      <use xlink:href="#DejaVuSans-72" x="235.572266"/>
      <use xlink:href="#DejaVuSans-65" x="274.435547"/>
      <use xlink:href="#DejaVuSans-64" x="335.958984"/>
      <use xlink:href="#DejaVuSans-69" x="399.435547"/>
      <use xlink:href="#DejaVuSans-63" x="427.21875"/>
      <use xlink:href="#DejaVuSans-74" x="482.199219"/>
     </g>
    </g>
    <g id="line2d_23">
     <path d="M 300.945625 208.836531 
L 311.945625 208.836531 
L 322.945625 208.836531 
" style="fill: none; stroke: #dd8452; stroke-width: 1.5; stroke-linecap: round"/>
    </g>
    <g id="text_16">
     <!-- FedAVG -->
     <g style="fill: #262626" transform="translate(331.745625 212.686531) scale(0.11 -0.11)">
      <defs>
       <path id="DejaVuSans-56" d="M 1831 0 
L 50 4666 
L 709 4666 
L 2188 738 
L 3669 4666 
L 4325 4666 
L 2547 0 
L 1831 0 
z
" transform="scale(0.015625)"/>
       <path id="DejaVuSans-47" d="M 3809 666 
L 3809 1919 
L 2778 1919 
L 2778 2438 
L 4434 2438 
L 4434 434 
Q 4069 175 3628 42 
Q 3188 -91 2688 -91 
Q 1594 -91 976 548 
Q 359 1188 359 2328 
Q 359 3472 976 4111 
Q 1594 4750 2688 4750 
Q 3144 4750 3555 4637 
Q 3966 4525 4313 4306 
L 4313 3634 
Q 3963 3931 3569 4081 
Q 3175 4231 2741 4231 
Q 1884 4231 1454 3753 
Q 1025 3275 1025 2328 
Q 1025 1384 1454 906 
Q 1884 428 2741 428 
Q 3075 428 3337 486 
Q 3600 544 3809 666 
z
" transform="scale(0.015625)"/>
      </defs>
      <use xlink:href="#DejaVuSans-46"/>
      <use xlink:href="#DejaVuSans-65" x="52.019531"/>
      <use xlink:href="#DejaVuSans-64" x="113.542969"/>
      <use xlink:href="#DejaVuSans-41" x="177.019531"/>
      <use xlink:href="#DejaVuSans-56" x="239.052734"/>
      <use xlink:href="#DejaVuSans-47" x="307.460938"/>
     </g>
    </g>
    <g id="line2d_24">
     <path d="M 300.945625 224.982469 
L 311.945625 224.982469 
L 322.945625 224.982469 
" style="fill: none; stroke: #55a868; stroke-width: 1.5; stroke-linecap: round"/>
    </g>
    <g id="text_17">
     <!-- FedProto -->
     <g style="fill: #262626" transform="translate(331.745625 228.832469) scale(0.11 -0.11)">
      <use xlink:href="#DejaVuSans-46"/>
      <use xlink:href="#DejaVuSans-65" x="52.019531"/>
      <use xlink:href="#DejaVuSans-64" x="113.542969"/>
      <use xlink:href="#DejaVuSans-50" x="177.019531"/>
      <use xlink:href="#DejaVuSans-72" x="235.572266"/>
      <use xlink:href="#DejaVuSans-6f" x="274.435547"/>
      <use xlink:href="#DejaVuSans-74" x="335.617188"/>
      <use xlink:href="#DejaVuSans-6f" x="374.826172"/>
     </g>
    </g>
    <g id="line2d_25">
     <path d="M 300.945625 241.128406 
L 311.945625 241.128406 
L 322.945625 241.128406 
" style="fill: none; stroke: #c44e52; stroke-width: 1.5; stroke-linecap: round"/>
    </g>
    <g id="text_18">
     <!-- FedClassAvg -->
     <g style="fill: #262626" transform="translate(331.745625 244.978406) scale(0.11 -0.11)">
      <defs>
       <path id="DejaVuSans-43" d="M 4122 4306 
L 4122 3641 
Q 3803 3938 3442 4084 
Q 3081 4231 2675 4231 
Q 1875 4231 1450 3742 
Q 1025 3253 1025 2328 
Q 1025 1406 1450 917 
Q 1875 428 2675 428 
Q 3081 428 3442 575 
Q 3803 722 4122 1019 
L 4122 359 
Q 3791 134 3420 21 
Q 3050 -91 2638 -91 
Q 1578 -91 968 557 
Q 359 1206 359 2328 
Q 359 3453 968 4101 
Q 1578 4750 2638 4750 
Q 3056 4750 3426 4639 
Q 3797 4528 4122 4306 
z
" transform="scale(0.015625)"/>
       <path id="DejaVuSans-6c" d="M 603 4863 
L 1178 4863 
L 1178 0 
L 603 0 
L 603 4863 
z
" transform="scale(0.015625)"/>
       <path id="DejaVuSans-73" d="M 2834 3397 
L 2834 2853 
Q 2591 2978 2328 3040 
Q 2066 3103 1784 3103 
Q 1356 3103 1142 2972 
Q 928 2841 928 2578 
Q 928 2378 1081 2264 
Q 1234 2150 1697 2047 
L 1894 2003 
Q 2506 1872 2764 1633 
Q 3022 1394 3022 966 
Q 3022 478 2636 193 
Q 2250 -91 1575 -91 
Q 1294 -91 989 -36 
Q 684 19 347 128 
L 347 722 
Q 666 556 975 473 
Q 1284 391 1588 391 
Q 1994 391 2212 530 
Q 2431 669 2431 922 
Q 2431 1156 2273 1281 
Q 2116 1406 1581 1522 
L 1381 1569 
Q 847 1681 609 1914 
Q 372 2147 372 2553 
Q 372 3047 722 3315 
Q 1072 3584 1716 3584 
Q 2034 3584 2315 3537 
Q 2597 3491 2834 3397 
z
" transform="scale(0.015625)"/>
       <path id="DejaVuSans-76" d="M 191 3500 
L 800 3500 
L 1894 563 
L 2988 3500 
L 3597 3500 
L 2284 0 
L 1503 0 
L 191 3500 
z
" transform="scale(0.015625)"/>
      </defs>
      <use xlink:href="#DejaVuSans-46"/>
      <use xlink:href="#DejaVuSans-65" x="52.019531"/>
      <use xlink:href="#DejaVuSans-64" x="113.542969"/>
      <use xlink:href="#DejaVuSans-43" x="177.019531"/>
      <use xlink:href="#DejaVuSans-6c" x="246.84375"/>
      <use xlink:href="#DejaVuSans-61" x="274.626953"/>
      <use xlink:href="#DejaVuSans-73" x="335.90625"/>
      <use xlink:href="#DejaVuSans-73" x="388.005859"/>
      <use xlink:href="#DejaVuSans-41" x="440.105469"/>
      <use xlink:href="#DejaVuSans-76" x="502.638672"/>
      <use xlink:href="#DejaVuSans-67" x="561.818359"/>
     </g>
    </g>
    <g id="line2d_26">
     <path d="M 300.945625 257.274344 
L 311.945625 257.274344 
L 322.945625 257.274344 
" style="fill: none; stroke: #8172b3; stroke-width: 1.5; stroke-linecap: round"/>
    </g>
    <g id="text_19">
     <!-- FedPer -->
     <g style="fill: #262626" transform="translate(331.745625 261.124344) scale(0.11 -0.11)">
      <use xlink:href="#DejaVuSans-46"/>
      <use xlink:href="#DejaVuSans-65" x="52.019531"/>
      <use xlink:href="#DejaVuSans-64" x="113.542969"/>
      <use xlink:href="#DejaVuSans-50" x="177.019531"/>
      <use xlink:href="#DejaVuSans-65" x="233.697266"/>
      <use xlink:href="#DejaVuSans-72" x="295.220703"/>
     </g>
    </g>
   </g>
  </g>
 </g>
 <defs>
  <clipPath id="p57db70e142">
   <rect x="53.31" y="7.2" width="357.12" height="266.112"/>
  </clipPath>
 </defs>
</svg>
