<?xml version="1.0" encoding="utf-8" standalone="no"?>
<!DOCTYPE svg PUBLIC "-//W3C//DTD SVG 1.1//EN"
  "http://www.w3.org/Graphics/SVG/1.1/DTD/svg11.dtd">
<svg xmlns:xlink="http://www.w3.org/1999/xlink" width="417.63pt" height="316.271687pt" viewBox="0 0 417.63 316.271687" xmlns="http://www.w3.org/2000/svg" version="1.1">
 <metadata>
  <rdf:RDF xmlns:dc="http://purl.org/dc/elements/1.1/" xmlns:cc="http://creativecommons.org/ns#" xmlns:rdf="http://www.w3.org/1999/02/22-rdf-syntax-ns#">
   <cc:Work>
    <dc:type rdf:resource="http://purl.org/dc/dcmitype/StillImage"/>
    <dc:date>2023-03-01T17:11:42.474092</dc:date>
    <dc:format>image/svg+xml</dc:format>
    <dc:creator>
     <cc:Agent>
      <dc:title>Matplotlib v3.6.3, https://matplotlib.org/</dc:title>
     </cc:Agent>
    </dc:creator>
   </cc:Work>
  </rdf:RDF>
 </metadata>
 <defs>
  <style type="text/css">*{stroke-linejoin: round; stroke-linecap: butt}</style>
 </defs>
 <g id="figure_1">
  <g id="patch_1">
   <path d="M 0 316.271687 
L 417.63 316.271687 
L 417.63 0 
L 0 0 
z
" style="fill: #ffffff"/>
  </g>
  <g id="axes_1">
   <g id="patch_2">
    <path d="M 53.31 273.312 
L 410.43 273.312 
L 410.43 7.2 
L 53.31 7.2 
z
" style="fill: #ffffff"/>
   </g>
   <g id="matplotlib.axis_1">
    <g id="xtick_1">
     <g id="line2d_1">
      <path d="M 66.263388 273.312 
L 66.263388 7.2 
" clip-path="url(#p721cf87652)" style="fill: none; stroke: #cccccc; stroke-linecap: round"/>
     </g>
     <g id="text_1">
      <!-- 0 -->
      <g style="fill: #262626" transform="translate(62.764013 291.170281) scale(0.11 -0.11)">
       <defs>
        <path id="DejaVuSans-30" d="M 2034 4250 
Q 1547 4250 1301 3770 
Q 1056 3291 1056 2328 
Q 1056 1369 1301 889 
Q 1547 409 2034 409 
Q 2525 409 2770 889 
Q 3016 1369 3016 2328 
Q 3016 3291 2770 3770 
Q 2525 4250 2034 4250 
z
M 2034 4750 
Q 2819 4750 3233 4129 
Q 3647 3509 3647 2328 
Q 3647 1150 3233 529 
Q 2819 -91 2034 -91 
Q 1250 -91 836 529 
Q 422 1150 422 2328 
Q 422 3509 836 4129 
Q 1250 4750 2034 4750 
z
" transform="scale(0.015625)"/>
       </defs>
       <use xlink:href="#DejaVuSans-30"/>
      </g>
     </g>
    </g>
    <g id="xtick_2">
     <g id="line2d_2">
      <path d="M 131.850165 273.312 
L 131.850165 7.2 
" clip-path="url(#p721cf87652)" style="fill: none; stroke: #cccccc; stroke-linecap: round"/>
     </g>
     <g id="text_2">
      <!-- 20 -->
      <g style="fill: #262626" transform="translate(124.851415 291.170281) scale(0.11 -0.11)">
       <defs>
        <path id="DejaVuSans-32" d="M 1228 531 
L 3431 531 
L 3431 0 
L 469 0 
L 469 531 
Q 828 903 1448 1529 
Q 2069 2156 2228 2338 
Q 2531 2678 2651 2914 
Q 2772 3150 2772 3378 
Q 2772 3750 2511 3984 
Q 2250 4219 1831 4219 
Q 1534 4219 1204 4116 
Q 875 4013 500 3803 
L 500 4441 
Q 881 4594 1212 4672 
Q 1544 4750 1819 4750 
Q 2544 4750 2975 4387 
Q 3406 4025 3406 3419 
Q 3406 3131 3298 2873 
Q 3191 2616 2906 2266 
Q 2828 2175 2409 1742 
Q 1991 1309 1228 531 
z
" transform="scale(0.015625)"/>
       </defs>
       <use xlink:href="#DejaVuSans-32"/>
       <use xlink:href="#DejaVuSans-30" x="63.623047"/>
      </g>
     </g>
    </g>
    <g id="xtick_3">
     <g id="line2d_3">
      <path d="M 197.436942 273.312 
L 197.436942 7.2 
" clip-path="url(#p721cf87652)" style="fill: none; stroke: #cccccc; stroke-linecap: round"/>
     </g>
     <g id="text_3">
      <!-- 40 -->
      <g style="fill: #262626" transform="translate(190.438192 291.170281) scale(0.11 -0.11)">
       <defs>
        <path id="DejaVuSans-34" d="M 2419 4116 
L 825 1625 
L 2419 1625 
L 2419 4116 
z
M 2253 4666 
L 3047 4666 
L 3047 1625 
L 3713 1625 
L 3713 1100 
L 3047 1100 
L 3047 0 
L 2419 0 
L 2419 1100 
L 313 1100 
L 313 1709 
L 2253 4666 
z
" transform="scale(0.015625)"/>
       </defs>
       <use xlink:href="#DejaVuSans-34"/>
       <use xlink:href="#DejaVuSans-30" x="63.623047"/>
      </g>
     </g>
    </g>
    <g id="xtick_4">
     <g id="line2d_4">
      <path d="M 263.023719 273.312 
L 263.023719 7.2 
" clip-path="url(#p721cf87652)" style="fill: none; stroke: #cccccc; stroke-linecap: round"/>
     </g>
     <g id="text_4">
      <!-- 60 -->
      <g style="fill: #262626" transform="translate(256.024969 291.170281) scale(0.11 -0.11)">
       <defs>
        <path id="DejaVuSans-36" d="M 2113 2584 
Q 1688 2584 1439 2293 
Q 1191 2003 1191 1497 
Q 1191 994 1439 701 
Q 1688 409 2113 409 
Q 2538 409 2786 701 
Q 3034 994 3034 1497 
Q 3034 2003 2786 2293 
Q 2538 2584 2113 2584 
z
M 3366 4563 
L 3366 3988 
Q 3128 4100 2886 4159 
Q 2644 4219 2406 4219 
Q 1781 4219 1451 3797 
Q 1122 3375 1075 2522 
Q 1259 2794 1537 2939 
Q 1816 3084 2150 3084 
Q 2853 3084 3261 2657 
Q 3669 2231 3669 1497 
Q 3669 778 3244 343 
Q 2819 -91 2113 -91 
Q 1303 -91 875 529 
Q 447 1150 447 2328 
Q 447 3434 972 4092 
Q 1497 4750 2381 4750 
Q 2619 4750 2861 4703 
Q 3103 4656 3366 4563 
z
" transform="scale(0.015625)"/>
       </defs>
       <use xlink:href="#DejaVuSans-36"/>
       <use xlink:href="#DejaVuSans-30" x="63.623047"/>
      </g>
     </g>
    </g>
    <g id="xtick_5">
     <g id="line2d_5">
      <path d="M 328.610496 273.312 
L 328.610496 7.2 
" clip-path="url(#p721cf87652)" style="fill: none; stroke: #cccccc; stroke-linecap: round"/>
     </g>
     <g id="text_5">
      <!-- 80 -->
      <g style="fill: #262626" transform="translate(321.611746 291.170281) scale(0.11 -0.11)">
       <defs>
        <path id="DejaVuSans-38" d="M 2034 2216 
Q 1584 2216 1326 1975 
Q 1069 1734 1069 1313 
Q 1069 891 1326 650 
Q 1584 409 2034 409 
Q 2484 409 2743 651 
Q 3003 894 3003 1313 
Q 3003 1734 2745 1975 
Q 2488 2216 2034 2216 
z
M 1403 2484 
Q 997 2584 770 2862 
Q 544 3141 544 3541 
Q 544 4100 942 4425 
Q 1341 4750 2034 4750 
Q 2731 4750 3128 4425 
Q 3525 4100 3525 3541 
Q 3525 3141 3298 2862 
Q 3072 2584 2669 2484 
Q 3125 2378 3379 2068 
Q 3634 1759 3634 1313 
Q 3634 634 3220 271 
Q 2806 -91 2034 -91 
Q 1263 -91 848 271 
Q 434 634 434 1313 
Q 434 1759 690 2068 
Q 947 2378 1403 2484 
z
M 1172 3481 
Q 1172 3119 1398 2916 
Q 1625 2713 2034 2713 
Q 2441 2713 2670 2916 
Q 2900 3119 2900 3481 
Q 2900 3844 2670 4047 
Q 2441 4250 2034 4250 
Q 1625 4250 1398 4047 
Q 1172 3844 1172 3481 
z
" transform="scale(0.015625)"/>
       </defs>
       <use xlink:href="#DejaVuSans-38"/>
       <use xlink:href="#DejaVuSans-30" x="63.623047"/>
      </g>
     </g>
    </g>
    <g id="xtick_6">
     <g id="line2d_6">
      <path d="M 394.197273 273.312 
L 394.197273 7.2 
" clip-path="url(#p721cf87652)" style="fill: none; stroke: #cccccc; stroke-linecap: round"/>
     </g>
     <g id="text_6">
      <!-- 100 -->
      <g style="fill: #262626" transform="translate(383.699148 291.170281) scale(0.11 -0.11)">
       <defs>
        <path id="DejaVuSans-31" d="M 794 531 
L 1825 531 
L 1825 4091 
L 703 3866 
L 703 4441 
L 1819 4666 
L 2450 4666 
L 2450 531 
L 3481 531 
L 3481 0 
L 794 0 
L 794 531 
z
" transform="scale(0.015625)"/>
       </defs>
       <use xlink:href="#DejaVuSans-31"/>
       <use xlink:href="#DejaVuSans-30" x="63.623047"/>
       <use xlink:href="#DejaVuSans-30" x="127.246094"/>
      </g>
     </g>
    </g>
    <g id="text_7">
     <!-- Round -->
     <g style="fill: #262626" transform="translate(212.885625 306.576062) scale(0.12 -0.12)">
      <defs>
       <path id="DejaVuSans-52" d="M 2841 2188 
Q 3044 2119 3236 1894 
Q 3428 1669 3622 1275 
L 4263 0 
L 3584 0 
L 2988 1197 
Q 2756 1666 2539 1819 
Q 2322 1972 1947 1972 
L 1259 1972 
L 1259 0 
L 628 0 
L 628 4666 
L 2053 4666 
Q 2853 4666 3247 4331 
Q 3641 3997 3641 3322 
Q 3641 2881 3436 2590 
Q 3231 2300 2841 2188 
z
M 1259 4147 
L 1259 2491 
L 2053 2491 
Q 2509 2491 2742 2702 
Q 2975 2913 2975 3322 
Q 2975 3731 2742 3939 
Q 2509 4147 2053 4147 
L 1259 4147 
z
" transform="scale(0.015625)"/>
       <path id="DejaVuSans-6f" d="M 1959 3097 
Q 1497 3097 1228 2736 
Q 959 2375 959 1747 
Q 959 1119 1226 758 
Q 1494 397 1959 397 
Q 2419 397 2687 759 
Q 2956 1122 2956 1747 
Q 2956 2369 2687 2733 
Q 2419 3097 1959 3097 
z
M 1959 3584 
Q 2709 3584 3137 3096 
Q 3566 2609 3566 1747 
Q 3566 888 3137 398 
Q 2709 -91 1959 -91 
Q 1206 -91 779 398 
Q 353 888 353 1747 
Q 353 2609 779 3096 
Q 1206 3584 1959 3584 
z
" transform="scale(0.015625)"/>
       <path id="DejaVuSans-75" d="M 544 1381 
L 544 3500 
L 1119 3500 
L 1119 1403 
Q 1119 906 1312 657 
Q 1506 409 1894 409 
Q 2359 409 2629 706 
Q 2900 1003 2900 1516 
L 2900 3500 
L 3475 3500 
L 3475 0 
L 2900 0 
L 2900 538 
Q 2691 219 2414 64 
Q 2138 -91 1772 -91 
Q 1169 -91 856 284 
Q 544 659 544 1381 
z
M 1991 3584 
L 1991 3584 
z
" transform="scale(0.015625)"/>
       <path id="DejaVuSans-6e" d="M 3513 2113 
L 3513 0 
L 2938 0 
L 2938 2094 
Q 2938 2591 2744 2837 
Q 2550 3084 2163 3084 
Q 1697 3084 1428 2787 
Q 1159 2491 1159 1978 
L 1159 0 
L 581 0 
L 581 3500 
L 1159 3500 
L 1159 2956 
Q 1366 3272 1645 3428 
Q 1925 3584 2291 3584 
Q 2894 3584 3203 3211 
Q 3513 2838 3513 2113 
z
" transform="scale(0.015625)"/>
       <path id="DejaVuSans-64" d="M 2906 2969 
L 2906 4863 
L 3481 4863 
L 3481 0 
L 2906 0 
L 2906 525 
Q 2725 213 2448 61 
Q 2172 -91 1784 -91 
Q 1150 -91 751 415 
Q 353 922 353 1747 
Q 353 2572 751 3078 
Q 1150 3584 1784 3584 
Q 2172 3584 2448 3432 
Q 2725 3281 2906 2969 
z
M 947 1747 
Q 947 1113 1208 752 
Q 1469 391 1925 391 
Q 2381 391 2643 752 
Q 2906 1113 2906 1747 
Q 2906 2381 2643 2742 
Q 2381 3103 1925 3103 
Q 1469 3103 1208 2742 
Q 947 2381 947 1747 
z
" transform="scale(0.015625)"/>
      </defs>
      <use xlink:href="#DejaVuSans-52"/>
      <use xlink:href="#DejaVuSans-6f" x="64.982422"/>
      <use xlink:href="#DejaVuSans-75" x="126.164062"/>
      <use xlink:href="#DejaVuSans-6e" x="189.542969"/>
      <use xlink:href="#DejaVuSans-64" x="252.921875"/>
     </g>
    </g>
   </g>
   <g id="matplotlib.axis_2">
    <g id="ytick_1">
     <g id="line2d_7">
      <path d="M 53.31 228.12364 
L 410.43 228.12364 
" clip-path="url(#p721cf87652)" style="fill: none; stroke: #cccccc; stroke-linecap: round"/>
     </g>
     <g id="text_8">
      <!-- 20 -->
      <g style="fill: #262626" transform="translate(29.8125 232.302781) scale(0.11 -0.11)">
       <use xlink:href="#DejaVuSans-32"/>
       <use xlink:href="#DejaVuSans-30" x="63.623047"/>
      </g>
     </g>
    </g>
    <g id="ytick_2">
     <g id="line2d_8">
      <path d="M 53.31 175.201457 
L 410.43 175.201457 
" clip-path="url(#p721cf87652)" style="fill: none; stroke: #cccccc; stroke-linecap: round"/>
     </g>
     <g id="text_9">
      <!-- 40 -->
      <g style="fill: #262626" transform="translate(29.8125 179.380598) scale(0.11 -0.11)">
       <use xlink:href="#DejaVuSans-34"/>
       <use xlink:href="#DejaVuSans-30" x="63.623047"/>
      </g>
     </g>
    </g>
    <g id="ytick_3">
     <g id="line2d_9">
      <path d="M 53.31 122.279274 
L 410.43 122.279274 
" clip-path="url(#p721cf87652)" style="fill: none; stroke: #cccccc; stroke-linecap: round"/>
     </g>
     <g id="text_10">
      <!-- 60 -->
      <g style="fill: #262626" transform="translate(29.8125 126.458414) scale(0.11 -0.11)">
       <use xlink:href="#DejaVuSans-36"/>
       <use xlink:href="#DejaVuSans-30" x="63.623047"/>
      </g>
     </g>
    </g>
    <g id="ytick_4">
     <g id="line2d_10">
      <path d="M 53.31 69.357091 
L 410.43 69.357091 
" clip-path="url(#p721cf87652)" style="fill: none; stroke: #cccccc; stroke-linecap: round"/>
     </g>
     <g id="text_11">
      <!-- 80 -->
      <g style="fill: #262626" transform="translate(29.8125 73.536231) scale(0.11 -0.11)">
       <use xlink:href="#DejaVuSans-38"/>
       <use xlink:href="#DejaVuSans-30" x="63.623047"/>
      </g>
     </g>
    </g>
    <g id="ytick_5">
     <g id="line2d_11">
      <path d="M 53.31 16.434907 
L 410.43 16.434907 
" clip-path="url(#p721cf87652)" style="fill: none; stroke: #cccccc; stroke-linecap: round"/>
     </g>
     <g id="text_12">
      <!-- 100 -->
      <g style="fill: #262626" transform="translate(22.81375 20.614048) scale(0.11 -0.11)">
       <use xlink:href="#DejaVuSans-31"/>
       <use xlink:href="#DejaVuSans-30" x="63.623047"/>
       <use xlink:href="#DejaVuSans-30" x="127.246094"/>
      </g>
     </g>
    </g>
    <g id="text_13">
     <!-- Accuracy (%) -->
     <g style="fill: #262626" transform="translate(16.318125 179.939437) rotate(-90) scale(0.12 -0.12)">
      <defs>
       <path id="DejaVuSans-41" d="M 2188 4044 
L 1331 1722 
L 3047 1722 
L 2188 4044 
z
M 1831 4666 
L 2547 4666 
L 4325 0 
L 3669 0 
L 3244 1197 
L 1141 1197 
L 716 0 
L 50 0 
L 1831 4666 
z
" transform="scale(0.015625)"/>
       <path id="DejaVuSans-63" d="M 3122 3366 
L 3122 2828 
Q 2878 2963 2633 3030 
Q 2388 3097 2138 3097 
Q 1578 3097 1268 2742 
Q 959 2388 959 1747 
Q 959 1106 1268 751 
Q 1578 397 2138 397 
Q 2388 397 2633 464 
Q 2878 531 3122 666 
L 3122 134 
Q 2881 22 2623 -34 
Q 2366 -91 2075 -91 
Q 1284 -91 818 406 
Q 353 903 353 1747 
Q 353 2603 823 3093 
Q 1294 3584 2113 3584 
Q 2378 3584 2631 3529 
Q 2884 3475 3122 3366 
z
" transform="scale(0.015625)"/>
       <path id="DejaVuSans-72" d="M 2631 2963 
Q 2534 3019 2420 3045 
Q 2306 3072 2169 3072 
Q 1681 3072 1420 2755 
Q 1159 2438 1159 1844 
L 1159 0 
L 581 0 
L 581 3500 
L 1159 3500 
L 1159 2956 
Q 1341 3275 1631 3429 
Q 1922 3584 2338 3584 
Q 2397 3584 2469 3576 
Q 2541 3569 2628 3553 
L 2631 2963 
z
" transform="scale(0.015625)"/>
       <path id="DejaVuSans-61" d="M 2194 1759 
Q 1497 1759 1228 1600 
Q 959 1441 959 1056 
Q 959 750 1161 570 
Q 1363 391 1709 391 
Q 2188 391 2477 730 
Q 2766 1069 2766 1631 
L 2766 1759 
L 2194 1759 
z
M 3341 1997 
L 3341 0 
L 2766 0 
L 2766 531 
Q 2569 213 2275 61 
Q 1981 -91 1556 -91 
Q 1019 -91 701 211 
Q 384 513 384 1019 
Q 384 1609 779 1909 
Q 1175 2209 1959 2209 
L 2766 2209 
L 2766 2266 
Q 2766 2663 2505 2880 
Q 2244 3097 1772 3097 
Q 1472 3097 1187 3025 
Q 903 2953 641 2809 
L 641 3341 
Q 956 3463 1253 3523 
Q 1550 3584 1831 3584 
Q 2591 3584 2966 3190 
Q 3341 2797 3341 1997 
z
" transform="scale(0.015625)"/>
       <path id="DejaVuSans-79" d="M 2059 -325 
Q 1816 -950 1584 -1140 
Q 1353 -1331 966 -1331 
L 506 -1331 
L 506 -850 
L 844 -850 
Q 1081 -850 1212 -737 
Q 1344 -625 1503 -206 
L 1606 56 
L 191 3500 
L 800 3500 
L 1894 763 
L 2988 3500 
L 3597 3500 
L 2059 -325 
z
" transform="scale(0.015625)"/>
       <path id="DejaVuSans-20" transform="scale(0.015625)"/>
       <path id="DejaVuSans-28" d="M 1984 4856 
Q 1566 4138 1362 3434 
Q 1159 2731 1159 2009 
Q 1159 1288 1364 580 
Q 1569 -128 1984 -844 
L 1484 -844 
Q 1016 -109 783 600 
Q 550 1309 550 2009 
Q 550 2706 781 3412 
Q 1013 4119 1484 4856 
L 1984 4856 
z
" transform="scale(0.015625)"/>
       <path id="DejaVuSans-25" d="M 4653 2053 
Q 4381 2053 4226 1822 
Q 4072 1591 4072 1178 
Q 4072 772 4226 539 
Q 4381 306 4653 306 
Q 4919 306 5073 539 
Q 5228 772 5228 1178 
Q 5228 1588 5073 1820 
Q 4919 2053 4653 2053 
z
M 4653 2450 
Q 5147 2450 5437 2106 
Q 5728 1763 5728 1178 
Q 5728 594 5436 251 
Q 5144 -91 4653 -91 
Q 4153 -91 3862 251 
Q 3572 594 3572 1178 
Q 3572 1766 3864 2108 
Q 4156 2450 4653 2450 
z
M 1428 4353 
Q 1159 4353 1004 4120 
Q 850 3888 850 3481 
Q 850 3069 1003 2837 
Q 1156 2606 1428 2606 
Q 1700 2606 1854 2837 
Q 2009 3069 2009 3481 
Q 2009 3884 1853 4118 
Q 1697 4353 1428 4353 
z
M 4250 4750 
L 4750 4750 
L 1831 -91 
L 1331 -91 
L 4250 4750 
z
M 1428 4750 
Q 1922 4750 2215 4408 
Q 2509 4066 2509 3481 
Q 2509 2891 2217 2550 
Q 1925 2209 1428 2209 
Q 931 2209 642 2551 
Q 353 2894 353 3481 
Q 353 4063 643 4406 
Q 934 4750 1428 4750 
z
" transform="scale(0.015625)"/>
       <path id="DejaVuSans-29" d="M 513 4856 
L 1013 4856 
Q 1481 4119 1714 3412 
Q 1947 2706 1947 2009 
Q 1947 1309 1714 600 
Q 1481 -109 1013 -844 
L 513 -844 
Q 928 -128 1133 580 
Q 1338 1288 1338 2009 
Q 1338 2731 1133 3434 
Q 928 4138 513 4856 
z
" transform="scale(0.015625)"/>
      </defs>
      <use xlink:href="#DejaVuSans-41"/>
      <use xlink:href="#DejaVuSans-63" x="66.658203"/>
      <use xlink:href="#DejaVuSans-63" x="121.638672"/>
      <use xlink:href="#DejaVuSans-75" x="176.619141"/>
      <use xlink:href="#DejaVuSans-72" x="239.998047"/>
      <use xlink:href="#DejaVuSans-61" x="281.111328"/>
      <use xlink:href="#DejaVuSans-63" x="342.390625"/>
      <use xlink:href="#DejaVuSans-79" x="397.371094"/>
      <use xlink:href="#DejaVuSans-20" x="456.550781"/>
      <use xlink:href="#DejaVuSans-28" x="488.337891"/>
      <use xlink:href="#DejaVuSans-25" x="527.351562"/>
      <use xlink:href="#DejaVuSans-29" x="622.371094"/>
     </g>
    </g>
   </g>
   <g id="PolyCollection_1">
    <defs>
     <path id="m2a402f65d9" d="M 69.542727 -136.590422 
L 69.542727 -75.116966 
L 72.822066 -120.470321 
L 76.101405 -124.057739 
L 79.380744 -168.128215 
L 82.660083 -185.013025 
L 85.939421 -196.948862 
L 89.21876 -236.870207 
L 92.498099 -236.068543 
L 95.777438 -250.603363 
L 99.056777 -269.772343 
L 102.336116 -273.708678 
L 105.615455 -273.66979 
L 108.894793 -272.340086 
L 112.174132 -275.000768 
L 115.453471 -269.779291 
L 118.73281 -274.171366 
L 122.012149 -277.131859 
L 125.291488 -280.901466 
L 128.570826 -274.702592 
L 131.850165 -281.787385 
L 135.129504 -284.084066 
L 138.408843 -287.013346 
L 141.688182 -282.406167 
L 144.967521 -284.791963 
L 148.24686 -285.08438 
L 151.526198 -287.326906 
L 154.805537 -279.477147 
L 158.084876 -275.287054 
L 161.364215 -274.546227 
L 164.643554 -268.352332 
L 167.922893 -276.923625 
L 171.202231 -278.133783 
L 174.48157 -285.009456 
L 177.760909 -284.386381 
L 181.040248 -287.747992 
L 184.319587 -288.464093 
L 187.598926 -290.259095 
L 190.878264 -290.659644 
L 194.157603 -284.425777 
L 197.436942 -289.072185 
L 200.716281 -291.492113 
L 203.99562 -288.3434 
L 207.274959 -291.896333 
L 210.554298 -290.381588 
L 213.833636 -287.712222 
L 217.112975 -290.494445 
L 220.392314 -290.672382 
L 223.671653 -290.006495 
L 226.950992 -288.90131 
L 230.230331 -292.215482 
L 233.509669 -291.653264 
L 236.789008 -293.749262 
L 240.068347 -291.455938 
L 243.347686 -292.683873 
L 246.627025 -293.0707 
L 249.906364 -292.752334 
L 253.185702 -284.63654 
L 256.465041 -287.83858 
L 259.74438 -289.163669 
L 263.023719 -288.067865 
L 266.303058 -288.015108 
L 269.582397 -292.002377 
L 272.861736 -292.015184 
L 276.141074 -292.997284 
L 279.420413 -293.926284 
L 282.699752 -294.544194 
L 285.979091 -292.908174 
L 289.25843 -293.6115 
L 292.537769 -293.619118 
L 295.817107 -286.239892 
L 299.096446 -283.751169 
L 302.375785 -282.975556 
L 305.655124 -283.329226 
L 308.934463 -282.466919 
L 312.213802 -285.083756 
L 315.49314 -284.74547 
L 318.772479 -285.025387 
L 322.051818 -284.808344 
L 325.331157 -283.561464 
L 328.610496 -284.07211 
L 331.889835 -285.499708 
L 335.169174 -283.524078 
L 338.448512 -283.906477 
L 341.727851 -285.927439 
L 345.00719 -285.448987 
L 348.286529 -285.002486 
L 351.565868 -284.334126 
L 354.845207 -284.215987 
L 358.124545 -284.715559 
L 361.403884 -281.837333 
L 364.683223 -282.282525 
L 367.962562 -284.767241 
L 371.241901 -284.668529 
L 374.52124 -282.963615 
L 377.800579 -283.066466 
L 381.079917 -284.206411 
L 384.359256 -285.57015 
L 387.638595 -284.55289 
L 390.917934 -284.519361 
L 394.197273 -284.643188 
L 394.197273 -295.390521 
L 394.197273 -295.390521 
L 390.917934 -295.526757 
L 387.638595 -295.783997 
L 384.359256 -295.850792 
L 381.079917 -294.825398 
L 377.800579 -294.601448 
L 374.52124 -294.929949 
L 371.241901 -295.231478 
L 367.962562 -295.467839 
L 364.683223 -294.607726 
L 361.403884 -294.518293 
L 358.124545 -295.454648 
L 354.845207 -295.142011 
L 351.565868 -295.476133 
L 348.286529 -295.235888 
L 345.00719 -295.506034 
L 341.727851 -295.655551 
L 338.448512 -295.418949 
L 335.169174 -294.829716 
L 331.889835 -295.395744 
L 328.610496 -294.628389 
L 325.331157 -295.136287 
L 322.051818 -295.278569 
L 318.772479 -295.461299 
L 315.49314 -295.77334 
L 312.213802 -295.6501 
L 308.934463 -294.498674 
L 305.655124 -294.737236 
L 302.375785 -294.570333 
L 299.096446 -294.902534 
L 295.817107 -295.490101 
L 292.537769 -296.583625 
L 289.25843 -296.813845 
L 285.979091 -296.497034 
L 282.699752 -296.975687 
L 279.420413 -296.834084 
L 276.141074 -296.933062 
L 272.861736 -296.500868 
L 269.582397 -296.430601 
L 266.303058 -295.68165 
L 263.023719 -296.087773 
L 259.74438 -296.137517 
L 256.465041 -295.883381 
L 253.185702 -296.184925 
L 249.906364 -296.626339 
L 246.627025 -296.283749 
L 243.347686 -296.040253 
L 240.068347 -295.604486 
L 236.789008 -296.204957 
L 233.509669 -295.351572 
L 230.230331 -295.61606 
L 226.950992 -295.317787 
L 223.671653 -295.095254 
L 220.392314 -295.045063 
L 217.112975 -294.918524 
L 213.833636 -296.133882 
L 210.554298 -295.475027 
L 207.274959 -295.854961 
L 203.99562 -295.395248 
L 200.716281 -295.509262 
L 197.436942 -295.398509 
L 194.157603 -294.597572 
L 190.878264 -295.093514 
L 187.598926 -294.815465 
L 184.319587 -294.255497 
L 181.040248 -294.554861 
L 177.760909 -294.036929 
L 174.48157 -294.192894 
L 171.202231 -293.924021 
L 167.922893 -293.605822 
L 164.643554 -288.844167 
L 161.364215 -292.382225 
L 158.084876 -291.804645 
L 154.805537 -290.991936 
L 151.526198 -292.406164 
L 148.24686 -293.694699 
L 144.967521 -292.693905 
L 141.688182 -292.872236 
L 138.408843 -293.340174 
L 135.129504 -291.669299 
L 131.850165 -291.689366 
L 128.570826 -289.620331 
L 125.291488 -289.695741 
L 122.012149 -290.790587 
L 118.73281 -287.717052 
L 115.453471 -287.820614 
L 112.174132 -289.790199 
L 108.894793 -289.762101 
L 105.615455 -289.189885 
L 102.336116 -289.199159 
L 99.056777 -287.960484 
L 95.777438 -282.722923 
L 92.498099 -274.584819 
L 89.21876 -275.620652 
L 85.939421 -248.858402 
L 82.660083 -242.672587 
L 79.380744 -226.813415 
L 76.101405 -194.599031 
L 72.822066 -184.132205 
L 69.542727 -136.590422 
z
" style="stroke: #4c72b0; stroke-opacity: 0.2"/>
    </defs>
    <g clip-path="url(#p721cf87652)">
     <use xlink:href="#m2a402f65d9" x="0" y="316.271687" style="fill: #4c72b0; fill-opacity: 0.2; stroke: #4c72b0; stroke-opacity: 0.2"/>
    </g>
   </g>
   <g id="PolyCollection_2">
    <defs>
     <path id="ma034514d81" d="M 69.542727 -95.472346 
L 69.542727 -55.055687 
L 72.822066 -79.695758 
L 76.101405 -58.902058 
L 79.380744 -113.878675 
L 82.660083 -115.174147 
L 85.939421 -113.678969 
L 89.21876 -180.095544 
L 92.498099 -180.21073 
L 95.777438 -199.06312 
L 99.056777 -208.398905 
L 102.336116 -203.763717 
L 105.615455 -228.772006 
L 108.894793 -231.778313 
L 112.174132 -225.498723 
L 115.453471 -208.385179 
L 118.73281 -200.310803 
L 122.012149 -229.011708 
L 125.291488 -223.430438 
L 128.570826 -216.059439 
L 131.850165 -221.094075 
L 135.129504 -221.541593 
L 138.408843 -244.637945 
L 141.688182 -231.859163 
L 144.967521 -232.590641 
L 148.24686 -261.673472 
L 151.526198 -224.84807 
L 154.805537 -209.433235 
L 158.084876 -213.483366 
L 161.364215 -228.126991 
L 164.643554 -215.209426 
L 167.922893 -238.880445 
L 171.202231 -236.793555 
L 174.48157 -240.264273 
L 177.760909 -253.998919 
L 181.040248 -260.764669 
L 184.319587 -244.989678 
L 187.598926 -238.885794 
L 190.878264 -260.961479 
L 194.157603 -223.91904 
L 197.436942 -262.199282 
L 200.716281 -247.95901 
L 203.99562 -265.164514 
L 207.274959 -272.29435 
L 210.554298 -246.781085 
L 213.833636 -257.38736 
L 217.112975 -223.013594 
L 220.392314 -236.861726 
L 223.671653 -235.040627 
L 226.950992 -242.178236 
L 230.230331 -270.273713 
L 233.509669 -245.809572 
L 236.789008 -277.057845 
L 240.068347 -263.19687 
L 243.347686 -273.83874 
L 246.627025 -255.33778 
L 249.906364 -280.226039 
L 253.185702 -275.401379 
L 256.465041 -232.592112 
L 259.74438 -276.467794 
L 263.023719 -238.949485 
L 266.303058 -218.028898 
L 269.582397 -276.060889 
L 272.861736 -267.822345 
L 276.141074 -270.780288 
L 279.420413 -275.420156 
L 282.699752 -262.739239 
L 285.979091 -231.076569 
L 289.25843 -240.912815 
L 292.537769 -242.09532 
L 295.817107 -274.036212 
L 299.096446 -238.104461 
L 302.375785 -251.20933 
L 305.655124 -262.146003 
L 308.934463 -244.454251 
L 312.213802 -274.433873 
L 315.49314 -270.482 
L 318.772479 -268.744158 
L 322.051818 -281.904428 
L 325.331157 -272.418699 
L 328.610496 -277.207728 
L 331.889835 -278.898032 
L 335.169174 -253.484961 
L 338.448512 -258.363283 
L 341.727851 -266.521689 
L 345.00719 -260.443262 
L 348.286529 -258.259835 
L 351.565868 -268.818431 
L 354.845207 -267.44069 
L 358.124545 -280.506615 
L 361.403884 -264.318694 
L 364.683223 -275.488967 
L 367.962562 -276.231254 
L 371.241901 -281.216893 
L 374.52124 -275.532377 
L 377.800579 -243.944007 
L 381.079917 -258.539395 
L 384.359256 -277.631858 
L 387.638595 -285.594463 
L 390.917934 -264.395451 
L 394.197273 -275.572085 
L 394.197273 -287.77468 
L 394.197273 -287.77468 
L 390.917934 -282.904169 
L 387.638595 -289.403607 
L 384.359256 -284.28007 
L 381.079917 -276.075062 
L 377.800579 -266.850611 
L 374.52124 -282.467241 
L 371.241901 -287.559479 
L 367.962562 -285.163947 
L 364.683223 -283.501833 
L 361.403884 -276.595595 
L 358.124545 -286.589432 
L 354.845207 -280.22445 
L 351.565868 -281.726668 
L 348.286529 -277.437631 
L 345.00719 -277.219514 
L 341.727851 -279.053617 
L 338.448512 -277.789196 
L 335.169174 -272.03032 
L 331.889835 -283.959911 
L 328.610496 -285.591138 
L 325.331157 -281.224963 
L 322.051818 -286.482812 
L 318.772479 -278.858136 
L 315.49314 -280.9196 
L 312.213802 -283.12243 
L 308.934463 -268.527781 
L 305.655124 -276.30951 
L 302.375785 -272.138827 
L 299.096446 -262.844496 
L 295.817107 -281.21017 
L 292.537769 -272.036917 
L 289.25843 -268.603722 
L 285.979091 -265.960208 
L 282.699752 -279.535452 
L 279.420413 -283.694443 
L 276.141074 -282.774457 
L 272.861736 -278.683958 
L 269.582397 -283.832591 
L 266.303058 -252.657193 
L 263.023719 -263.826185 
L 259.74438 -285.216268 
L 256.465041 -265.578285 
L 253.185702 -284.124135 
L 249.906364 -285.78478 
L 246.627025 -279.614066 
L 243.347686 -284.52756 
L 240.068347 -278.552594 
L 236.789008 -283.671094 
L 233.509669 -267.147715 
L 230.230331 -278.49586 
L 226.950992 -272.594627 
L 223.671653 -267.824276 
L 220.392314 -262.138663 
L 217.112975 -258.548034 
L 213.833636 -277.260889 
L 210.554298 -276.613372 
L 207.274959 -282.198112 
L 203.99562 -274.794356 
L 200.716281 -269.301767 
L 197.436942 -276.873935 
L 194.157603 -252.876814 
L 190.878264 -270.934509 
L 187.598926 -268.640654 
L 184.319587 -267.394628 
L 181.040248 -273.708359 
L 177.760909 -267.873991 
L 174.48157 -264.233214 
L 171.202231 -268.023659 
L 167.922893 -271.139286 
L 164.643554 -251.615656 
L 161.364215 -261.31579 
L 158.084876 -250.696417 
L 154.805537 -250.350858 
L 151.526198 -255.046382 
L 148.24686 -274.366915 
L 144.967521 -257.733093 
L 141.688182 -255.608939 
L 138.408843 -264.061544 
L 135.129504 -251.755221 
L 131.850165 -256.608855 
L 128.570826 -252.154065 
L 125.291488 -252.559832 
L 122.012149 -261.711796 
L 118.73281 -233.156329 
L 115.453471 -244.713718 
L 112.174132 -251.878663 
L 108.894793 -251.353407 
L 105.615455 -256.608365 
L 102.336116 -240.690142 
L 99.056777 -249.423823 
L 95.777438 -231.704785 
L 92.498099 -224.020208 
L 89.21876 -224.776108 
L 85.939421 -165.194914 
L 82.660083 -171.877096 
L 79.380744 -168.869491 
L 76.101405 -95.952349 
L 72.822066 -124.245533 
L 69.542727 -95.472346 
z
" style="stroke: #dd8452; stroke-opacity: 0.2"/>
    </defs>
    <g clip-path="url(#p721cf87652)">
     <use xlink:href="#ma034514d81" x="0" y="316.271687" style="fill: #dd8452; fill-opacity: 0.2; stroke: #dd8452; stroke-opacity: 0.2"/>
    </g>
   </g>
   <g id="PolyCollection_3">
    <defs>
     <path id="m28b3192351" d="M 69.542727 -127.835937 
L 69.542727 -70.560276 
L 72.822066 -75.141663 
L 76.101405 -100.624894 
L 79.380744 -108.364306 
L 82.660083 -134.411385 
L 85.939421 -135.912678 
L 89.21876 -153.442633 
L 92.498099 -174.440841 
L 95.777438 -187.846935 
L 99.056777 -197.6025 
L 102.336116 -209.897744 
L 105.615455 -208.749316 
L 108.894793 -229.262655 
L 112.174132 -228.450133 
L 115.453471 -230.110751 
L 118.73281 -235.547359 
L 122.012149 -236.773546 
L 125.291488 -235.058412 
L 128.570826 -234.610146 
L 131.850165 -238.381713 
L 135.129504 -239.871319 
L 138.408843 -242.743298 
L 141.688182 -246.1046 
L 144.967521 -246.98202 
L 148.24686 -247.675672 
L 151.526198 -248.032377 
L 154.805537 -248.76485 
L 158.084876 -249.319675 
L 161.364215 -247.981456 
L 164.643554 -246.741576 
L 167.922893 -249.189225 
L 171.202231 -250.034545 
L 174.48157 -250.516292 
L 177.760909 -250.370798 
L 181.040248 -251.988566 
L 184.319587 -250.438095 
L 187.598926 -251.391177 
L 190.878264 -258.530104 
L 194.157603 -256.120736 
L 197.436942 -256.083931 
L 200.716281 -258.14821 
L 203.99562 -261.290206 
L 207.274959 -260.209808 
L 210.554298 -261.206419 
L 213.833636 -260.878781 
L 217.112975 -260.438734 
L 220.392314 -261.829097 
L 223.671653 -260.261953 
L 226.950992 -262.854444 
L 230.230331 -263.539005 
L 233.509669 -265.478728 
L 236.789008 -264.615339 
L 240.068347 -266.292748 
L 243.347686 -267.264388 
L 246.627025 -269.291429 
L 249.906364 -267.916754 
L 253.185702 -268.112676 
L 256.465041 -269.433704 
L 259.74438 -269.39965 
L 263.023719 -270.177022 
L 266.303058 -268.362912 
L 269.582397 -267.854965 
L 272.861736 -268.954766 
L 276.141074 -271.003239 
L 279.420413 -271.098908 
L 282.699752 -270.886898 
L 285.979091 -271.88089 
L 289.25843 -272.021066 
L 292.537769 -270.337634 
L 295.817107 -246.3943 
L 299.096446 -248.337347 
L 302.375785 -249.375962 
L 305.655124 -250.1142 
L 308.934463 -250.173288 
L 312.213802 -251.07541 
L 315.49314 -249.839175 
L 318.772479 -250.489332 
L 322.051818 -248.326802 
L 325.331157 -248.600453 
L 328.610496 -249.494388 
L 331.889835 -247.857139 
L 335.169174 -249.836414 
L 338.448512 -248.311715 
L 341.727851 -251.947762 
L 345.00719 -251.600171 
L 348.286529 -249.954628 
L 351.565868 -251.456064 
L 354.845207 -250.986669 
L 358.124545 -249.952942 
L 361.403884 -249.054858 
L 364.683223 -249.674824 
L 367.962562 -252.732478 
L 371.241901 -253.066475 
L 374.52124 -253.42119 
L 377.800579 -252.000934 
L 381.079917 -252.604586 
L 384.359256 -254.236966 
L 387.638595 -255.042421 
L 390.917934 -252.62168 
L 394.197273 -253.990549 
L 394.197273 -282.511606 
L 394.197273 -282.511606 
L 390.917934 -282.802689 
L 387.638595 -282.998745 
L 384.359256 -283.168844 
L 381.079917 -282.003437 
L 377.800579 -282.216804 
L 374.52124 -282.534078 
L 371.241901 -281.994896 
L 367.962562 -282.471008 
L 364.683223 -280.544851 
L 361.403884 -281.528904 
L 358.124545 -280.95527 
L 354.845207 -281.227699 
L 351.565868 -280.774321 
L 348.286529 -279.950449 
L 345.00719 -280.745725 
L 341.727851 -281.32668 
L 338.448512 -279.41656 
L 335.169174 -279.873782 
L 331.889835 -279.331222 
L 328.610496 -280.730997 
L 325.331157 -279.551499 
L 322.051818 -280.582465 
L 318.772479 -282.449078 
L 315.49314 -280.225422 
L 312.213802 -280.751325 
L 308.934463 -281.029025 
L 305.655124 -279.944895 
L 302.375785 -280.733442 
L 299.096446 -280.601561 
L 295.817107 -279.69622 
L 292.537769 -293.475885 
L 289.25843 -293.606735 
L 285.979091 -293.923173 
L 282.699752 -293.433882 
L 279.420413 -293.171216 
L 276.141074 -293.713789 
L 272.861736 -292.764182 
L 269.582397 -292.962193 
L 266.303058 -293.058162 
L 263.023719 -293.437113 
L 259.74438 -293.345111 
L 256.465041 -292.690286 
L 253.185702 -292.806035 
L 249.906364 -293.216775 
L 246.627025 -293.082947 
L 243.347686 -292.941555 
L 240.068347 -291.969592 
L 236.789008 -292.103534 
L 233.509669 -291.431647 
L 230.230331 -291.290516 
L 226.950992 -290.212158 
L 223.671653 -290.427712 
L 220.392314 -289.496092 
L 217.112975 -290.131719 
L 213.833636 -289.716339 
L 210.554298 -290.29493 
L 207.274959 -290.400376 
L 203.99562 -290.809399 
L 200.716281 -288.452236 
L 197.436942 -288.407971 
L 194.157603 -289.386102 
L 190.878264 -287.88337 
L 187.598926 -285.824846 
L 184.319587 -286.579412 
L 181.040248 -286.242726 
L 177.760909 -286.230735 
L 174.48157 -285.035066 
L 171.202231 -285.221892 
L 167.922893 -283.572595 
L 164.643554 -284.631121 
L 161.364215 -282.972312 
L 158.084876 -285.074773 
L 154.805537 -283.501689 
L 151.526198 -281.795897 
L 148.24686 -283.31073 
L 144.967521 -282.884364 
L 141.688182 -280.900942 
L 138.408843 -279.284783 
L 135.129504 -276.56604 
L 131.850165 -278.218708 
L 128.570826 -275.660428 
L 125.291488 -274.463242 
L 122.012149 -274.549528 
L 118.73281 -274.478091 
L 115.453471 -268.808114 
L 112.174132 -268.25186 
L 108.894793 -266.978303 
L 105.615455 -260.58463 
L 102.336116 -260.223648 
L 99.056777 -252.797603 
L 95.777438 -250.959787 
L 92.498099 -240.437322 
L 89.21876 -220.295393 
L 85.939421 -206.103696 
L 82.660083 -199.414099 
L 79.380744 -178.605478 
L 76.101405 -164.728104 
L 72.822066 -136.95114 
L 69.542727 -127.835937 
z
" style="stroke: #55a868; stroke-opacity: 0.2"/>
    </defs>
    <g clip-path="url(#p721cf87652)">
     <use xlink:href="#m28b3192351" x="0" y="316.271687" style="fill: #55a868; fill-opacity: 0.2; stroke: #55a868; stroke-opacity: 0.2"/>
    </g>
   </g>
   <g id="PolyCollection_4">
    <defs>
     <path id="mca6c292b48" d="M 69.542727 -119.601765 
L 69.542727 -68.399711 
L 72.822066 -77.939221 
L 76.101405 -87.318523 
L 79.380744 -90.939711 
L 82.660083 -102.475407 
L 85.939421 -111.436202 
L 89.21876 -112.724624 
L 92.498099 -130.618611 
L 95.777438 -138.325446 
L 99.056777 -139.463763 
L 102.336116 -143.180413 
L 105.615455 -152.915068 
L 108.894793 -160.510054 
L 112.174132 -168.435672 
L 115.453471 -173.177046 
L 118.73281 -188.411479 
L 122.012149 -193.56408 
L 125.291488 -200.811715 
L 128.570826 -204.916915 
L 131.850165 -213.539132 
L 135.129504 -216.951255 
L 138.408843 -223.096012 
L 141.688182 -229.163886 
L 144.967521 -226.551159 
L 148.24686 -231.753708 
L 151.526198 -235.702292 
L 154.805537 -240.867138 
L 158.084876 -246.584529 
L 161.364215 -246.867878 
L 164.643554 -247.817101 
L 167.922893 -250.943154 
L 171.202231 -249.963454 
L 174.48157 -254.009189 
L 177.760909 -255.257088 
L 181.040248 -256.274655 
L 184.319587 -254.444919 
L 187.598926 -256.501465 
L 190.878264 -259.334303 
L 194.157603 -260.929202 
L 197.436942 -264.621492 
L 200.716281 -263.600326 
L 203.99562 -264.287808 
L 207.274959 -264.098419 
L 210.554298 -265.237396 
L 213.833636 -270.600782 
L 217.112975 -272.667086 
L 220.392314 -271.886024 
L 223.671653 -272.405348 
L 226.950992 -273.162712 
L 230.230331 -274.04271 
L 233.509669 -273.93096 
L 236.789008 -274.259237 
L 240.068347 -277.569099 
L 243.347686 -278.115492 
L 246.627025 -277.779385 
L 249.906364 -278.846531 
L 253.185702 -281.079236 
L 256.465041 -280.035072 
L 259.74438 -279.536075 
L 263.023719 -279.478355 
L 266.303058 -278.865102 
L 269.582397 -280.154099 
L 272.861736 -280.819689 
L 276.141074 -280.820251 
L 279.420413 -282.407779 
L 282.699752 -283.926686 
L 285.979091 -283.073252 
L 289.25843 -284.34199 
L 292.537769 -283.240284 
L 295.817107 -245.560371 
L 299.096446 -244.379604 
L 302.375785 -244.20222 
L 305.655124 -243.979298 
L 308.934463 -245.871309 
L 312.213802 -245.425812 
L 315.49314 -246.742914 
L 318.772479 -244.908363 
L 322.051818 -246.891612 
L 325.331157 -243.931142 
L 328.610496 -246.57456 
L 331.889835 -244.072289 
L 335.169174 -246.524315 
L 338.448512 -245.126101 
L 341.727851 -244.480953 
L 345.00719 -245.048465 
L 348.286529 -245.163122 
L 351.565868 -245.480679 
L 354.845207 -246.702776 
L 358.124545 -245.542919 
L 361.403884 -245.733676 
L 364.683223 -245.813217 
L 367.962562 -247.798318 
L 371.241901 -248.14655 
L 374.52124 -244.77732 
L 377.800579 -246.26459 
L 381.079917 -247.178128 
L 384.359256 -247.425039 
L 387.638595 -247.846838 
L 390.917934 -247.55497 
L 394.197273 -247.543768 
L 394.197273 -280.499894 
L 394.197273 -280.499894 
L 390.917934 -279.131509 
L 387.638595 -279.296037 
L 384.359256 -278.851496 
L 381.079917 -279.672558 
L 377.800579 -279.54863 
L 374.52124 -279.542929 
L 371.241901 -278.480559 
L 367.962562 -279.403479 
L 364.683223 -278.766619 
L 361.403884 -278.54527 
L 358.124545 -279.570579 
L 354.845207 -278.297559 
L 351.565868 -277.961008 
L 348.286529 -278.9659 
L 345.00719 -278.138253 
L 341.727851 -278.626977 
L 338.448512 -279.188072 
L 335.169174 -277.782169 
L 331.889835 -278.711546 
L 328.610496 -277.92086 
L 325.331157 -277.566934 
L 322.051818 -277.901788 
L 318.772479 -277.849431 
L 315.49314 -277.781748 
L 312.213802 -278.028113 
L 308.934463 -276.824289 
L 305.655124 -278.000875 
L 302.375785 -277.356706 
L 299.096446 -276.738481 
L 295.817107 -277.106609 
L 292.537769 -294.733928 
L 289.25843 -294.642841 
L 285.979091 -294.672955 
L 282.699752 -294.640379 
L 279.420413 -294.484663 
L 276.141074 -294.681487 
L 272.861736 -294.407498 
L 269.582397 -294.420059 
L 266.303058 -294.286175 
L 263.023719 -294.144836 
L 259.74438 -293.913383 
L 256.465041 -293.831337 
L 253.185702 -293.836116 
L 249.906364 -293.864366 
L 246.627025 -293.450088 
L 243.347686 -293.179594 
L 240.068347 -292.661038 
L 236.789008 -292.55389 
L 233.509669 -292.052349 
L 230.230331 -291.470306 
L 226.950992 -291.274202 
L 223.671653 -291.814979 
L 220.392314 -291.038761 
L 217.112975 -290.583317 
L 213.833636 -290.221629 
L 210.554298 -290.069179 
L 207.274959 -289.615043 
L 203.99562 -288.394468 
L 200.716281 -289.264523 
L 197.436942 -288.051887 
L 194.157603 -286.71133 
L 190.878264 -285.421884 
L 187.598926 -285.287827 
L 184.319587 -284.983447 
L 181.040248 -284.763225 
L 177.760909 -282.962698 
L 174.48157 -283.054486 
L 171.202231 -282.472094 
L 167.922893 -280.461512 
L 164.643554 -279.165995 
L 161.364215 -278.408639 
L 158.084876 -278.03911 
L 154.805537 -273.718603 
L 151.526198 -271.348053 
L 148.24686 -267.326991 
L 144.967521 -264.250667 
L 141.688182 -264.044698 
L 138.408843 -261.667532 
L 135.129504 -258.520998 
L 131.850165 -254.079596 
L 128.570826 -250.726896 
L 125.291488 -248.16613 
L 122.012149 -240.198121 
L 118.73281 -233.888488 
L 115.453471 -224.925716 
L 112.174132 -215.921437 
L 108.894793 -206.817742 
L 105.615455 -199.689039 
L 102.336116 -190.847653 
L 99.056777 -183.981924 
L 95.777438 -188.359178 
L 92.498099 -185.191914 
L 89.21876 -172.606957 
L 85.939421 -159.28964 
L 82.660083 -154.278853 
L 79.380744 -148.435611 
L 76.101405 -139.980065 
L 72.822066 -127.647313 
L 69.542727 -119.601765 
z
" style="stroke: #c44e52; stroke-opacity: 0.2"/>
    </defs>
    <g clip-path="url(#p721cf87652)">
     <use xlink:href="#mca6c292b48" x="0" y="316.271687" style="fill: #c44e52; fill-opacity: 0.2; stroke: #c44e52; stroke-opacity: 0.2"/>
    </g>
   </g>
   <g id="PolyCollection_5">
    <defs>
     <path id="mcff559e2db" d="M 69.542727 -121.393817 
L 69.542727 -69.102163 
L 72.822066 -94.117386 
L 76.101405 -93.15654 
L 79.380744 -117.201593 
L 82.660083 -135.288854 
L 85.939421 -155.275467 
L 89.21876 -151.94951 
L 92.498099 -173.704356 
L 95.777438 -190.897641 
L 99.056777 -197.798292 
L 102.336116 -206.94085 
L 105.615455 -215.258371 
L 108.894793 -231.044812 
L 112.174132 -230.014396 
L 115.453471 -231.014163 
L 118.73281 -230.287615 
L 122.012149 -233.033974 
L 125.291488 -236.025407 
L 128.570826 -236.37058 
L 131.850165 -237.61126 
L 135.129504 -239.130723 
L 138.408843 -240.349778 
L 141.688182 -242.087642 
L 144.967521 -242.741474 
L 148.24686 -243.297138 
L 151.526198 -244.528866 
L 154.805537 -245.282955 
L 158.084876 -246.892257 
L 161.364215 -246.723071 
L 164.643554 -246.0142 
L 167.922893 -246.800545 
L 171.202231 -248.054517 
L 174.48157 -247.114645 
L 177.760909 -246.952898 
L 181.040248 -247.413447 
L 184.319587 -249.523826 
L 187.598926 -250.042756 
L 190.878264 -247.920148 
L 194.157603 -249.867593 
L 197.436942 -250.801034 
L 200.716281 -250.829146 
L 203.99562 -252.913042 
L 207.274959 -252.098336 
L 210.554298 -252.597906 
L 213.833636 -256.961855 
L 217.112975 -255.211616 
L 220.392314 -256.217844 
L 223.671653 -256.898349 
L 226.950992 -258.173452 
L 230.230331 -260.714141 
L 233.509669 -262.877872 
L 236.789008 -262.038401 
L 240.068347 -262.248968 
L 243.347686 -263.654602 
L 246.627025 -265.045698 
L 249.906364 -263.590037 
L 253.185702 -263.807747 
L 256.465041 -262.897797 
L 259.74438 -264.043409 
L 263.023719 -264.828742 
L 266.303058 -263.982078 
L 269.582397 -265.293031 
L 272.861736 -264.527375 
L 276.141074 -263.584634 
L 279.420413 -264.564571 
L 282.699752 -264.166131 
L 285.979091 -265.019046 
L 289.25843 -266.203854 
L 292.537769 -265.310065 
L 295.817107 -237.495929 
L 299.096446 -237.394661 
L 302.375785 -236.234377 
L 305.655124 -235.360524 
L 308.934463 -238.368095 
L 312.213802 -237.70685 
L 315.49314 -237.357519 
L 318.772479 -238.158311 
L 322.051818 -238.304612 
L 325.331157 -239.429606 
L 328.610496 -238.288172 
L 331.889835 -238.275459 
L 335.169174 -237.000943 
L 338.448512 -238.432417 
L 341.727851 -239.038355 
L 345.00719 -238.565662 
L 348.286529 -238.991224 
L 351.565868 -239.613408 
L 354.845207 -242.275844 
L 358.124545 -241.299582 
L 361.403884 -241.713244 
L 364.683223 -241.668182 
L 367.962562 -241.226135 
L 371.241901 -242.023843 
L 374.52124 -241.945589 
L 377.800579 -241.578056 
L 381.079917 -240.886353 
L 384.359256 -242.111607 
L 387.638595 -242.770848 
L 390.917934 -241.848184 
L 394.197273 -240.972487 
L 394.197273 -275.820909 
L 394.197273 -275.820909 
L 390.917934 -275.688554 
L 387.638595 -275.637182 
L 384.359256 -276.150241 
L 381.079917 -275.409709 
L 377.800579 -275.803723 
L 374.52124 -275.678656 
L 371.241901 -275.597316 
L 367.962562 -275.004878 
L 364.683223 -274.935138 
L 361.403884 -275.370699 
L 358.124545 -275.282653 
L 354.845207 -274.928134 
L 351.565868 -275.199506 
L 348.286529 -273.790265 
L 345.00719 -273.555005 
L 341.727851 -274.005027 
L 338.448512 -274.309714 
L 335.169174 -273.130114 
L 331.889835 -273.073833 
L 328.610496 -273.492916 
L 325.331157 -273.497585 
L 322.051818 -273.372339 
L 318.772479 -273.505729 
L 315.49314 -273.225253 
L 312.213802 -273.763759 
L 308.934463 -272.923258 
L 305.655124 -273.612779 
L 302.375785 -274.025004 
L 299.096446 -272.203584 
L 295.817107 -272.975065 
L 292.537769 -294.218442 
L 289.25843 -293.590264 
L 285.979091 -293.632998 
L 282.699752 -293.261025 
L 279.420413 -293.332196 
L 276.141074 -292.870942 
L 272.861736 -292.696953 
L 269.582397 -292.456742 
L 266.303058 -291.912523 
L 263.023719 -292.14687 
L 259.74438 -291.972629 
L 256.465041 -292.652193 
L 253.185702 -292.098125 
L 249.906364 -291.003046 
L 246.627025 -291.838248 
L 243.347686 -291.421946 
L 240.068347 -291.023842 
L 236.789008 -291.547642 
L 233.509669 -290.954207 
L 230.230331 -290.476492 
L 226.950992 -289.231173 
L 223.671653 -288.627103 
L 220.392314 -289.6611 
L 217.112975 -288.622306 
L 213.833636 -288.129019 
L 210.554298 -287.786865 
L 207.274959 -287.87717 
L 203.99562 -287.677732 
L 200.716281 -286.100212 
L 197.436942 -285.819812 
L 194.157603 -286.457959 
L 190.878264 -285.605202 
L 187.598926 -284.205728 
L 184.319587 -284.741515 
L 181.040248 -285.981877 
L 177.760909 -285.55581 
L 174.48157 -284.460982 
L 171.202231 -284.819544 
L 167.922893 -283.535913 
L 164.643554 -283.851216 
L 161.364215 -284.107667 
L 158.084876 -283.455835 
L 154.805537 -283.019596 
L 151.526198 -281.386935 
L 148.24686 -281.17361 
L 144.967521 -280.966972 
L 141.688182 -280.718601 
L 138.408843 -278.304184 
L 135.129504 -278.196408 
L 131.850165 -275.340416 
L 128.570826 -275.504735 
L 125.291488 -272.860639 
L 122.012149 -272.568685 
L 118.73281 -271.054591 
L 115.453471 -268.037517 
L 112.174132 -266.23645 
L 108.894793 -268.85585 
L 105.615455 -262.421922 
L 102.336116 -261.405229 
L 99.056777 -254.865029 
L 95.777438 -247.785107 
L 92.498099 -237.659357 
L 89.21876 -221.913963 
L 85.939421 -218.321456 
L 82.660083 -204.177017 
L 79.380744 -188.760396 
L 76.101405 -157.312342 
L 72.822066 -152.869052 
L 69.542727 -121.393817 
z
" style="stroke: #8172b3; stroke-opacity: 0.2"/>
    </defs>
    <g clip-path="url(#p721cf87652)">
     <use xlink:href="#mcff559e2db" x="0" y="316.271687" style="fill: #8172b3; fill-opacity: 0.2; stroke: #8172b3; stroke-opacity: 0.2"/>
    </g>
   </g>
   <g id="line2d_12">
    <path d="M 69.542727 211.320499 
L 72.822066 163.920201 
L 76.101405 159.922384 
L 79.380744 118.092895 
L 82.660083 100.100895 
L 85.939421 91.879252 
L 89.21876 58.222588 
L 92.498099 57.143361 
L 95.777438 48.136913 
L 99.056777 35.501318 
L 102.336116 33.682716 
L 105.615455 33.156525 
L 108.894793 33.218943 
L 112.174132 32.695808 
L 115.453471 36.407807 
L 118.73281 34.671173 
L 122.012149 30.941914 
L 125.291488 30.740484 
L 128.570826 33.126949 
L 131.850165 29.013051 
L 135.129504 28.045702 
L 138.408843 25.948025 
L 141.688182 27.619172 
L 144.967521 26.871442 
L 148.24686 26.010065 
L 151.526198 26.249198 
L 154.805537 29.945956 
L 158.084876 30.460813 
L 161.364215 30.679442 
L 164.643554 35.843317 
L 167.922893 28.881698 
L 171.202231 28.096038 
L 174.48157 25.732261 
L 177.760909 26.217134 
L 181.040248 24.5008 
L 184.319587 24.826294 
L 187.598926 23.534018 
L 190.878264 23.147028 
L 194.157603 25.525668 
L 197.436942 23.406823 
L 200.716281 22.597318 
L 203.99562 23.799498 
L 207.274959 22.051282 
L 210.554298 23.044019 
L 213.833636 23.188541 
L 217.112975 23.403746 
L 220.392314 23.256917 
L 223.671653 23.332671 
L 226.950992 23.552525 
L 230.230331 22.268618 
L 233.509669 22.619227 
L 236.789008 21.247469 
L 240.068347 22.49514 
L 243.347686 21.713842 
L 246.627025 21.391161 
L 249.906364 21.24161 
L 253.185702 24.325643 
L 256.465041 23.501501 
L 259.74438 22.814238 
L 263.023719 23.251874 
L 266.303058 23.528483 
L 269.582397 21.757488 
L 272.861736 21.730611 
L 276.141074 21.1219 
L 279.420413 20.891484 
L 282.699752 20.523388 
L 285.979091 21.373227 
L 289.25843 21.023986 
L 292.537769 20.977029 
L 295.817107 24.157587 
L 299.096446 25.647469 
L 302.375785 26.385199 
L 305.655124 26.228517 
L 308.934463 26.444006 
L 312.213802 24.964841 
L 315.49314 24.814278 
L 318.772479 24.778412 
L 322.051818 25.282205 
L 325.331157 26.015992 
L 328.610496 25.91887 
L 331.889835 24.903277 
L 335.169174 26.18185 
L 338.448512 24.957104 
L 341.727851 24.405094 
L 345.00719 24.560669 
L 348.286529 25.103852 
L 351.565868 25.046924 
L 354.845207 25.585264 
L 358.124545 24.944757 
L 361.403884 27.176094 
L 364.683223 26.708887 
L 367.962562 24.9689 
L 371.241901 25.369373 
L 374.52124 26.163857 
L 377.800579 26.379441 
L 381.079917 26.094995 
L 384.359256 24.3812 
L 387.638595 24.914242 
L 390.917934 25.047336 
L 394.197273 25.142649 
" clip-path="url(#p721cf87652)" style="fill: none; stroke: #4c72b0; stroke-width: 1.5; stroke-linecap: round"/>
   </g>
   <g id="line2d_13">
    <path d="M 69.542727 241.486688 
L 72.822066 215.94648 
L 76.101405 240.622136 
L 79.380744 174.255465 
L 82.660083 172.073234 
L 85.939421 176.205353 
L 89.21876 112.940104 
L 92.498099 114.681992 
L 95.777438 100.557507 
L 99.056777 86.519679 
L 102.336116 93.405823 
L 105.615455 72.858218 
L 108.894793 74.649815 
L 112.174132 76.410347 
L 115.453471 88.526806 
L 118.73281 98.976041 
L 122.012149 69.264673 
L 125.291488 77.552219 
L 128.570826 80.68987 
L 131.850165 76.864216 
L 135.129504 79.776629 
L 138.408843 61.262446 
L 141.688182 72.591415 
L 144.967521 70.477861 
L 148.24686 48.035968 
L 151.526198 75.478683 
L 154.805537 85.59813 
L 158.084876 82.853177 
L 161.364215 70.143688 
L 164.643554 82.026404 
L 167.922893 60.255904 
L 171.202231 61.580879 
L 174.48157 64.22816 
L 177.760909 55.129755 
L 181.040248 48.903453 
L 184.319587 59.959063 
L 187.598926 61.184136 
L 190.878264 50.262253 
L 194.157603 76.972971 
L 197.436942 46.757073 
L 200.716281 57.181057 
L 203.99562 46.374385 
L 207.274959 38.839756 
L 210.554298 53.477926 
L 213.833636 47.904244 
L 217.112975 74.643245 
L 220.392314 66.564205 
L 223.671653 63.111918 
L 226.950992 57.732718 
L 230.230331 42.214384 
L 233.509669 58.92702 
L 236.789008 35.785087 
L 240.068347 45.017279 
L 243.347686 36.951295 
L 246.627025 47.379763 
L 249.906364 33.233807 
L 253.185702 36.317507 
L 256.465041 66.878374 
L 259.74438 35.415456 
L 263.023719 63.723418 
L 266.303058 79.152699 
L 269.582397 36.129308 
L 272.861736 42.924441 
L 276.141074 39.149479 
L 279.420413 36.485225 
L 282.699752 44.585721 
L 285.979091 67.023661 
L 289.25843 61.235274 
L 292.537769 58.52742 
L 295.817107 38.811788 
L 299.096446 65.333988 
L 302.375785 53.97248 
L 305.655124 46.488256 
L 308.934463 58.547062 
L 312.213802 37.483563 
L 315.49314 40.326664 
L 318.772479 42.274984 
L 322.051818 31.987657 
L 325.331157 39.319814 
L 328.610496 34.66544 
L 331.889835 34.848535 
L 335.169174 53.366944 
L 338.448512 47.897045 
L 341.727851 43.496803 
L 345.00719 46.967594 
L 348.286529 47.279623 
L 351.565868 40.5527 
L 354.845207 42.240124 
L 358.124545 32.698672 
L 361.403884 45.798421 
L 364.683223 36.819252 
L 367.962562 35.411564 
L 371.241901 31.767919 
L 374.52124 37.167697 
L 377.800579 59.857712 
L 381.079917 48.270273 
L 384.359256 35.198859 
L 387.638595 28.695808 
L 390.917934 42.068333 
L 394.197273 34.079814 
" clip-path="url(#p721cf87652)" style="fill: none; stroke-dasharray: 6,2.25; stroke-dashoffset: 0; stroke: #dd8452; stroke-width: 1.5"/>
   </g>
   <g id="line2d_14">
    <path d="M 69.542727 219.249966 
L 72.822066 210.895942 
L 76.101405 184.15242 
L 79.380744 172.610145 
L 82.660083 148.518727 
L 85.939421 145.18748 
L 89.21876 128.725566 
L 92.498099 109.10128 
L 95.777438 95.64679 
L 99.056777 89.409215 
L 102.336116 79.801684 
L 105.615455 78.97321 
L 108.894793 68.020919 
L 112.174132 66.749826 
L 115.453471 65.955207 
L 118.73281 59.421026 
L 122.012149 59.067393 
L 125.291488 59.924354 
L 128.570826 59.847261 
L 131.850165 57.071879 
L 135.129504 56.2454 
L 138.408843 53.329025 
L 141.688182 51.385314 
L 144.967521 51.110807 
L 148.24686 49.793687 
L 151.526198 48.892309 
L 154.805537 47.831771 
L 158.084876 47.719652 
L 161.364215 48.246288 
L 164.643554 48.210225 
L 167.922893 47.89341 
L 171.202231 47.161534 
L 174.48157 46.692349 
L 177.760909 45.990684 
L 181.040248 44.995528 
L 184.319587 45.873363 
L 187.598926 45.371321 
L 190.878264 41.901553 
L 194.157603 41.498037 
L 197.436942 41.081925 
L 200.716281 41.345734 
L 203.99562 38.079884 
L 207.274959 37.872708 
L 210.554298 38.141977 
L 213.833636 39.386978 
L 217.112975 39.209213 
L 220.392314 39.087257 
L 223.671653 38.89673 
L 226.950992 38.304591 
L 230.230331 36.648709 
L 233.509669 35.647996 
L 236.789008 35.477745 
L 240.068347 34.209752 
L 243.347686 33.47207 
L 246.627025 32.766103 
L 249.906364 32.540572 
L 253.185702 32.954196 
L 256.465041 33.008215 
L 259.74438 32.235498 
L 263.023719 31.797212 
L 266.303058 33.189677 
L 269.582397 33.001214 
L 272.861736 32.831727 
L 276.141074 31.636366 
L 279.420413 32.008084 
L 282.699752 31.744554 
L 285.979091 30.702229 
L 289.25843 31.256982 
L 292.537769 31.327648 
L 295.817107 52.087693 
L 299.096446 50.801123 
L 302.375785 50.77581 
L 305.655124 50.043415 
L 308.934463 49.849519 
L 312.213802 49.819088 
L 315.49314 49.819464 
L 318.772479 48.632721 
L 322.051818 50.638033 
L 325.331157 50.902617 
L 328.610496 50.674967 
L 331.889835 51.300629 
L 335.169174 51.070433 
L 338.448512 51.21969 
L 341.727851 48.623492 
L 345.00719 48.843473 
L 348.286529 49.988429 
L 351.565868 49.196062 
L 354.845207 48.286716 
L 358.124545 50.10237 
L 361.403884 50.036868 
L 364.683223 49.643482 
L 367.962562 47.025358 
L 371.241901 47.97809 
L 374.52124 47.126106 
L 377.800579 47.518222 
L 381.079917 46.983407 
L 384.359256 46.931866 
L 387.638595 46.578954 
L 390.917934 46.673336 
L 394.197273 47.181346 
" clip-path="url(#p721cf87652)" style="fill: none; stroke-dasharray: 1.5,1.5; stroke-dashoffset: 0; stroke: #55a868; stroke-width: 1.5"/>
   </g>
   <g id="line2d_15">
    <path d="M 69.542727 223.999966 
L 72.822066 214.368492 
L 76.101405 204.837539 
L 79.380744 197.143969 
L 82.660083 188.170862 
L 85.939421 182.012784 
L 89.21876 172.953799 
L 92.498099 158.199707 
L 95.777438 152.363153 
L 99.056777 154.315717 
L 102.336116 148.63347 
L 105.615455 139.171006 
L 108.894793 132.745044 
L 112.174132 123.715363 
L 115.453471 115.987907 
L 118.73281 104.477491 
L 122.012149 98.026035 
L 125.291488 92.457162 
L 128.570826 88.160161 
L 131.850165 81.967592 
L 135.129504 77.658109 
L 138.408843 71.923559 
L 141.688182 69.320181 
L 144.967521 68.487549 
L 148.24686 65.357247 
L 151.526198 61.978294 
L 154.805537 56.625843 
L 158.084876 52.136862 
L 161.364215 52.305805 
L 164.643554 50.033977 
L 167.922893 48.684968 
L 171.202231 47.357188 
L 174.48157 45.59001 
L 177.760909 44.977398 
L 181.040248 43.341248 
L 184.319587 43.871627 
L 187.598926 43.087192 
L 190.878264 41.718261 
L 194.157603 40.404347 
L 197.436942 37.291819 
L 200.716281 36.952051 
L 203.99562 37.146888 
L 207.274959 36.056994 
L 210.554298 35.86785 
L 213.833636 34.403591 
L 217.112975 33.197381 
L 220.392314 32.995755 
L 223.671653 32.191323 
L 226.950992 32.24039 
L 230.230331 31.703502 
L 233.509669 31.100786 
L 236.789008 30.521606 
L 240.068347 29.633496 
L 243.347686 29.201772 
L 246.627025 28.727733 
L 249.906364 28.174416 
L 253.185702 27.534133 
L 256.465041 27.868942 
L 259.74438 27.891895 
L 263.023719 27.636477 
L 266.303058 27.823066 
L 269.582397 27.387788 
L 272.861736 27.071918 
L 276.141074 26.910642 
L 279.420413 26.248003 
L 282.699752 26.10373 
L 285.979091 26.1094 
L 289.25843 25.93924 
L 292.537769 25.810435 
L 295.817107 54.677218 
L 299.096446 54.384923 
L 302.375785 54.322904 
L 305.655124 53.912249 
L 308.934463 54.174563 
L 312.213802 53.20189 
L 315.49314 53.188257 
L 318.772479 54.073921 
L 322.051818 53.736431 
L 325.331157 53.787146 
L 328.610496 53.921214 
L 331.889835 53.395961 
L 335.169174 53.599151 
L 338.448512 52.949393 
L 341.727851 53.163458 
L 345.00719 53.049347 
L 348.286529 53.323246 
L 351.565868 53.119258 
L 354.845207 53.250595 
L 358.124545 52.448342 
L 361.403884 52.541945 
L 364.683223 52.372467 
L 367.962562 51.762968 
L 371.241901 51.987739 
L 374.52124 51.843425 
L 377.800579 51.897036 
L 381.079917 51.639627 
L 384.359256 51.714798 
L 387.638595 51.628355 
L 390.917934 51.746027 
L 394.197273 51.530549 
" clip-path="url(#p721cf87652)" style="fill: none; stroke-dasharray: 4.5,1.875,2.25,1.875; stroke-dashoffset: 0; stroke: #c44e52; stroke-width: 1.5"/>
   </g>
   <g id="line2d_16">
    <path d="M 69.542727 222.703297 
L 72.822066 194.007498 
L 76.101405 192.116332 
L 79.380744 163.977146 
L 82.660083 146.468499 
L 85.939421 128.381118 
L 89.21876 128.297509 
L 92.498099 109.254701 
L 95.777438 96.37512 
L 99.056777 89.076221 
L 102.336116 80.59377 
L 105.615455 76.567594 
L 108.894793 66.644035 
L 112.174132 66.174985 
L 115.453471 65.541976 
L 118.73281 63.332641 
L 122.012149 62.725767 
L 125.291488 61.148066 
L 128.570826 58.622839 
L 131.850165 58.277499 
L 135.129504 56.679498 
L 138.408843 55.215807 
L 141.688182 52.682482 
L 144.967521 52.529749 
L 148.24686 51.553962 
L 151.526198 51.283122 
L 154.805537 49.951577 
L 158.084876 49.344832 
L 161.364215 49.04251 
L 164.643554 49.107952 
L 167.922893 49.12813 
L 171.202231 48.625672 
L 174.48157 48.587288 
L 177.760909 48.629475 
L 181.040248 48.367525 
L 184.319587 47.791376 
L 187.598926 47.74671 
L 190.878264 47.779242 
L 194.157603 47.088018 
L 197.436942 45.938699 
L 200.716281 45.996536 
L 203.99562 44.201483 
L 207.274959 43.986461 
L 210.554298 43.537968 
L 213.833636 42.154824 
L 217.112975 41.908252 
L 220.392314 41.99326 
L 223.671653 41.730509 
L 226.950992 40.599237 
L 230.230331 38.413762 
L 233.509669 37.557383 
L 236.789008 37.229152 
L 240.068347 37.468171 
L 243.347686 36.479645 
L 246.627025 36.078185 
L 249.906364 36.135545 
L 253.185702 35.953024 
L 256.465041 35.568945 
L 259.74438 35.991234 
L 263.023719 35.797017 
L 266.303058 35.897025 
L 269.582397 35.480301 
L 272.861736 35.682894 
L 276.141074 35.135392 
L 279.420413 34.603252 
L 282.699752 34.852492 
L 285.979091 34.565132 
L 289.25843 34.539473 
L 292.537769 34.420526 
L 295.817107 60.425747 
L 299.096446 60.459543 
L 302.375785 60.388765 
L 305.655124 60.338463 
L 308.934463 60.319723 
L 312.213802 60.019321 
L 315.49314 60.071401 
L 318.772479 59.761669 
L 322.051818 59.293625 
L 325.331157 59.321864 
L 328.610496 59.221212 
L 331.889835 59.159642 
L 335.169174 59.147835 
L 338.448512 59.046314 
L 341.727851 58.947366 
L 345.00719 58.715154 
L 348.286529 58.749141 
L 351.565868 58.504735 
L 354.845207 57.798584 
L 358.124545 57.460343 
L 361.403884 57.164433 
L 364.683223 57.417915 
L 367.962562 56.853092 
L 371.241901 56.522445 
L 374.52124 56.383207 
L 377.800579 56.515057 
L 381.079917 56.276627 
L 384.359256 56.480287 
L 387.638595 56.142353 
L 390.917934 56.315831 
L 394.197273 56.123533 
" clip-path="url(#p721cf87652)" style="fill: none; stroke-dasharray: 7.5,1.5,1.5,1.5; stroke-dashoffset: 0; stroke: #8172b3; stroke-width: 1.5"/>
   </g>
   <g id="line2d_17"/>
   <g id="line2d_18"/>
   <g id="line2d_19"/>
   <g id="line2d_20"/>
   <g id="line2d_21"/>
   <g id="patch_3">
    <path d="M 53.31 273.312 
L 53.31 7.2 
" style="fill: none; stroke: #cccccc; stroke-width: 1.25; stroke-linejoin: miter; stroke-linecap: square"/>
   </g>
   <g id="patch_4">
    <path d="M 410.43 273.312 
L 410.43 7.2 
" style="fill: none; stroke: #cccccc; stroke-width: 1.25; stroke-linejoin: miter; stroke-linecap: square"/>
   </g>
   <g id="patch_5">
    <path d="M 53.31 273.312 
L 410.43 273.312 
" style="fill: none; stroke: #cccccc; stroke-width: 1.25; stroke-linejoin: miter; stroke-linecap: square"/>
   </g>
   <g id="patch_6">
    <path d="M 53.31 7.2 
L 410.43 7.2 
" style="fill: none; stroke: #cccccc; stroke-width: 1.25; stroke-linejoin: miter; stroke-linecap: square"/>
   </g>
   <g id="legend_1">
    <g id="patch_7">
     <path d="M 298.745625 267.812 
L 402.73 267.812 
Q 404.93 267.812 404.93 265.612 
L 404.93 168.868562 
Q 404.93 166.668562 402.73 166.668562 
L 298.745625 166.668562 
Q 296.545625 166.668562 296.545625 168.868562 
L 296.545625 265.612 
Q 296.545625 267.812 298.745625 267.812 
z
" style="fill: #ffffff; opacity: 0.8; stroke: #cccccc; stroke-linejoin: miter"/>
    </g>
    <g id="text_14">
     <!-- Strategy -->
     <g style="fill: #262626" transform="translate(325.02875 180.186687) scale(0.12 -0.12)">
      <defs>
       <path id="DejaVuSans-53" d="M 3425 4513 
L 3425 3897 
Q 3066 4069 2747 4153 
Q 2428 4238 2131 4238 
Q 1616 4238 1336 4038 
Q 1056 3838 1056 3469 
Q 1056 3159 1242 3001 
Q 1428 2844 1947 2747 
L 2328 2669 
Q 3034 2534 3370 2195 
Q 3706 1856 3706 1288 
Q 3706 609 3251 259 
Q 2797 -91 1919 -91 
Q 1588 -91 1214 -16 
Q 841 59 441 206 
L 441 856 
Q 825 641 1194 531 
Q 1563 422 1919 422 
Q 2459 422 2753 634 
Q 3047 847 3047 1241 
Q 3047 1584 2836 1778 
Q 2625 1972 2144 2069 
L 1759 2144 
Q 1053 2284 737 2584 
Q 422 2884 422 3419 
Q 422 4038 858 4394 
Q 1294 4750 2059 4750 
Q 2388 4750 2728 4690 
Q 3069 4631 3425 4513 
z
" transform="scale(0.015625)"/>
       <path id="DejaVuSans-74" d="M 1172 4494 
L 1172 3500 
L 2356 3500 
L 2356 3053 
L 1172 3053 
L 1172 1153 
Q 1172 725 1289 603 
Q 1406 481 1766 481 
L 2356 481 
L 2356 0 
L 1766 0 
Q 1100 0 847 248 
Q 594 497 594 1153 
L 594 3053 
L 172 3053 
L 172 3500 
L 594 3500 
L 594 4494 
L 1172 4494 
z
" transform="scale(0.015625)"/>
       <path id="DejaVuSans-65" d="M 3597 1894 
L 3597 1613 
L 953 1613 
Q 991 1019 1311 708 
Q 1631 397 2203 397 
Q 2534 397 2845 478 
Q 3156 559 3463 722 
L 3463 178 
Q 3153 47 2828 -22 
Q 2503 -91 2169 -91 
Q 1331 -91 842 396 
Q 353 884 353 1716 
Q 353 2575 817 3079 
Q 1281 3584 2069 3584 
Q 2775 3584 3186 3129 
Q 3597 2675 3597 1894 
z
M 3022 2063 
Q 3016 2534 2758 2815 
Q 2500 3097 2075 3097 
Q 1594 3097 1305 2825 
Q 1016 2553 972 2059 
L 3022 2063 
z
" transform="scale(0.015625)"/>
       <path id="DejaVuSans-67" d="M 2906 1791 
Q 2906 2416 2648 2759 
Q 2391 3103 1925 3103 
Q 1463 3103 1205 2759 
Q 947 2416 947 1791 
Q 947 1169 1205 825 
Q 1463 481 1925 481 
Q 2391 481 2648 825 
Q 2906 1169 2906 1791 
z
M 3481 434 
Q 3481 -459 3084 -895 
Q 2688 -1331 1869 -1331 
Q 1566 -1331 1297 -1286 
Q 1028 -1241 775 -1147 
L 775 -588 
Q 1028 -725 1275 -790 
Q 1522 -856 1778 -856 
Q 2344 -856 2625 -561 
Q 2906 -266 2906 331 
L 2906 616 
Q 2728 306 2450 153 
Q 2172 0 1784 0 
Q 1141 0 747 490 
Q 353 981 353 1791 
Q 353 2603 747 3093 
Q 1141 3584 1784 3584 
Q 2172 3584 2450 3431 
Q 2728 3278 2906 2969 
L 2906 3500 
L 3481 3500 
L 3481 434 
z
" transform="scale(0.015625)"/>
      </defs>
      <use xlink:href="#DejaVuSans-53"/>
      <use xlink:href="#DejaVuSans-74" x="63.476562"/>
      <use xlink:href="#DejaVuSans-72" x="102.685547"/>
      <use xlink:href="#DejaVuSans-61" x="143.798828"/>
      <use xlink:href="#DejaVuSans-74" x="205.078125"/>
      <use xlink:href="#DejaVuSans-65" x="244.287109"/>
      <use xlink:href="#DejaVuSans-67" x="305.810547"/>
      <use xlink:href="#DejaVuSans-79" x="369.287109"/>
     </g>
    </g>
    <g id="line2d_22">
     <path d="M 300.945625 192.690594 
L 311.945625 192.690594 
L 322.945625 192.690594 
" style="fill: none; stroke: #4c72b0; stroke-width: 1.5; stroke-linecap: round"/>
    </g>
    <g id="text_15">
     <!-- FedPredict -->
     <g style="fill: #262626" transform="translate(331.745625 196.540594) scale(0.11 -0.11)">
      <defs>
       <path id="DejaVuSans-46" d="M 628 4666 
L 3309 4666 
L 3309 4134 
L 1259 4134 
L 1259 2759 
L 3109 2759 
L 3109 2228 
L 1259 2228 
L 1259 0 
L 628 0 
L 628 4666 
z
" transform="scale(0.015625)"/>
       <path id="DejaVuSans-50" d="M 1259 4147 
L 1259 2394 
L 2053 2394 
Q 2494 2394 2734 2622 
Q 2975 2850 2975 3272 
Q 2975 3691 2734 3919 
Q 2494 4147 2053 4147 
L 1259 4147 
z
M 628 4666 
L 2053 4666 
Q 2838 4666 3239 4311 
Q 3641 3956 3641 3272 
Q 3641 2581 3239 2228 
Q 2838 1875 2053 1875 
L 1259 1875 
L 1259 0 
L 628 0 
L 628 4666 
z
" transform="scale(0.015625)"/>
       <path id="DejaVuSans-69" d="M 603 3500 
L 1178 3500 
L 1178 0 
L 603 0 
L 603 3500 
z
M 603 4863 
L 1178 4863 
L 1178 4134 
L 603 4134 
L 603 4863 
z
" transform="scale(0.015625)"/>
      </defs>
      <use xlink:href="#DejaVuSans-46"/>
      <use xlink:href="#DejaVuSans-65" x="52.019531"/>
      <use xlink:href="#DejaVuSans-64" x="113.542969"/>
      <use xlink:href="#DejaVuSans-50" x="177.019531"/>
      <use xlink:href="#DejaVuSans-72" x="235.572266"/>
      <use xlink:href="#DejaVuSans-65" x="274.435547"/>
      <use xlink:href="#DejaVuSans-64" x="335.958984"/>
      <use xlink:href="#DejaVuSans-69" x="399.435547"/>
      <use xlink:href="#DejaVuSans-63" x="427.21875"/>
      <use xlink:href="#DejaVuSans-74" x="482.199219"/>
     </g>
    </g>
    <g id="line2d_23">
     <path d="M 300.945625 208.836531 
L 311.945625 208.836531 
L 322.945625 208.836531 
" style="fill: none; stroke-dasharray: 6,2.25; stroke-dashoffset: 0; stroke: #dd8452; stroke-width: 1.5"/>
    </g>
    <g id="text_16">
     <!-- FedAVG -->
     <g style="fill: #262626" transform="translate(331.745625 212.686531) scale(0.11 -0.11)">
      <defs>
       <path id="DejaVuSans-56" d="M 1831 0 
L 50 4666 
L 709 4666 
L 2188 738 
L 3669 4666 
L 4325 4666 
L 2547 0 
L 1831 0 
z
" transform="scale(0.015625)"/>
       <path id="DejaVuSans-47" d="M 3809 666 
L 3809 1919 
L 2778 1919 
L 2778 2438 
L 4434 2438 
L 4434 434 
Q 4069 175 3628 42 
Q 3188 -91 2688 -91 
Q 1594 -91 976 548 
Q 359 1188 359 2328 
Q 359 3472 976 4111 
Q 1594 4750 2688 4750 
Q 3144 4750 3555 4637 
Q 3966 4525 4313 4306 
L 4313 3634 
Q 3963 3931 3569 4081 
Q 3175 4231 2741 4231 
Q 1884 4231 1454 3753 
Q 1025 3275 1025 2328 
Q 1025 1384 1454 906 
Q 1884 428 2741 428 
Q 3075 428 3337 486 
Q 3600 544 3809 666 
z
" transform="scale(0.015625)"/>
      </defs>
      <use xlink:href="#DejaVuSans-46"/>
      <use xlink:href="#DejaVuSans-65" x="52.019531"/>
      <use xlink:href="#DejaVuSans-64" x="113.542969"/>
      <use xlink:href="#DejaVuSans-41" x="177.019531"/>
      <use xlink:href="#DejaVuSans-56" x="239.052734"/>
      <use xlink:href="#DejaVuSans-47" x="307.460938"/>
     </g>
    </g>
    <g id="line2d_24">
     <path d="M 300.945625 224.982469 
L 311.945625 224.982469 
L 322.945625 224.982469 
" style="fill: none; stroke-dasharray: 1.5,1.5; stroke-dashoffset: 0; stroke: #55a868; stroke-width: 1.5"/>
    </g>
    <g id="text_17">
     <!-- FedClassAvg -->
     <g style="fill: #262626" transform="translate(331.745625 228.832469) scale(0.11 -0.11)">
      <defs>
       <path id="DejaVuSans-43" d="M 4122 4306 
L 4122 3641 
Q 3803 3938 3442 4084 
Q 3081 4231 2675 4231 
Q 1875 4231 1450 3742 
Q 1025 3253 1025 2328 
Q 1025 1406 1450 917 
Q 1875 428 2675 428 
Q 3081 428 3442 575 
Q 3803 722 4122 1019 
L 4122 359 
Q 3791 134 3420 21 
Q 3050 -91 2638 -91 
Q 1578 -91 968 557 
Q 359 1206 359 2328 
Q 359 3453 968 4101 
Q 1578 4750 2638 4750 
Q 3056 4750 3426 4639 
Q 3797 4528 4122 4306 
z
" transform="scale(0.015625)"/>
       <path id="DejaVuSans-6c" d="M 603 4863 
L 1178 4863 
L 1178 0 
L 603 0 
L 603 4863 
z
" transform="scale(0.015625)"/>
       <path id="DejaVuSans-73" d="M 2834 3397 
L 2834 2853 
Q 2591 2978 2328 3040 
Q 2066 3103 1784 3103 
Q 1356 3103 1142 2972 
Q 928 2841 928 2578 
Q 928 2378 1081 2264 
Q 1234 2150 1697 2047 
L 1894 2003 
Q 2506 1872 2764 1633 
Q 3022 1394 3022 966 
Q 3022 478 2636 193 
Q 2250 -91 1575 -91 
Q 1294 -91 989 -36 
Q 684 19 347 128 
L 347 722 
Q 666 556 975 473 
Q 1284 391 1588 391 
Q 1994 391 2212 530 
Q 2431 669 2431 922 
Q 2431 1156 2273 1281 
Q 2116 1406 1581 1522 
L 1381 1569 
Q 847 1681 609 1914 
Q 372 2147 372 2553 
Q 372 3047 722 3315 
Q 1072 3584 1716 3584 
Q 2034 3584 2315 3537 
Q 2597 3491 2834 3397 
z
" transform="scale(0.015625)"/>
       <path id="DejaVuSans-76" d="M 191 3500 
L 800 3500 
L 1894 563 
L 2988 3500 
L 3597 3500 
L 2284 0 
L 1503 0 
L 191 3500 
z
" transform="scale(0.015625)"/>
      </defs>
      <use xlink:href="#DejaVuSans-46"/>
      <use xlink:href="#DejaVuSans-65" x="52.019531"/>
      <use xlink:href="#DejaVuSans-64" x="113.542969"/>
      <use xlink:href="#DejaVuSans-43" x="177.019531"/>
      <use xlink:href="#DejaVuSans-6c" x="246.84375"/>
      <use xlink:href="#DejaVuSans-61" x="274.626953"/>
      <use xlink:href="#DejaVuSans-73" x="335.90625"/>
      <use xlink:href="#DejaVuSans-73" x="388.005859"/>
      <use xlink:href="#DejaVuSans-41" x="440.105469"/>
      <use xlink:href="#DejaVuSans-76" x="502.638672"/>
      <use xlink:href="#DejaVuSans-67" x="561.818359"/>
     </g>
    </g>
    <g id="line2d_25">
     <path d="M 300.945625 241.128406 
L 311.945625 241.128406 
L 322.945625 241.128406 
" style="fill: none; stroke-dasharray: 4.5,1.875,2.25,1.875; stroke-dashoffset: 0; stroke: #c44e52; stroke-width: 1.5"/>
    </g>
    <g id="text_18">
     <!-- FedPer -->
     <g style="fill: #262626" transform="translate(331.745625 244.978406) scale(0.11 -0.11)">
      <use xlink:href="#DejaVuSans-46"/>
      <use xlink:href="#DejaVuSans-65" x="52.019531"/>
      <use xlink:href="#DejaVuSans-64" x="113.542969"/>
      <use xlink:href="#DejaVuSans-50" x="177.019531"/>
      <use xlink:href="#DejaVuSans-65" x="233.697266"/>
      <use xlink:href="#DejaVuSans-72" x="295.220703"/>
     </g>
    </g>
    <g id="line2d_26">
     <path d="M 300.945625 257.274344 
L 311.945625 257.274344 
L 322.945625 257.274344 
" style="fill: none; stroke-dasharray: 7.5,1.5,1.5,1.5; stroke-dashoffset: 0; stroke: #8172b3; stroke-width: 1.5"/>
    </g>
    <g id="text_19">
     <!-- FedProto -->
     <g style="fill: #262626" transform="translate(331.745625 261.124344) scale(0.11 -0.11)">
      <use xlink:href="#DejaVuSans-46"/>
      <use xlink:href="#DejaVuSans-65" x="52.019531"/>
      <use xlink:href="#DejaVuSans-64" x="113.542969"/>
      <use xlink:href="#DejaVuSans-50" x="177.019531"/>
      <use xlink:href="#DejaVuSans-72" x="235.572266"/>
      <use xlink:href="#DejaVuSans-6f" x="274.435547"/>
      <use xlink:href="#DejaVuSans-74" x="335.617188"/>
      <use xlink:href="#DejaVuSans-6f" x="374.826172"/>
     </g>
    </g>
   </g>
  </g>
 </g>
 <defs>
  <clipPath id="p721cf87652">
   <rect x="53.31" y="7.2" width="357.12" height="266.112"/>
  </clipPath>
 </defs>
</svg>
