<?xml version="1.0" encoding="utf-8" standalone="no"?>
<!DOCTYPE svg PUBLIC "-//W3C//DTD SVG 1.1//EN"
  "http://www.w3.org/Graphics/SVG/1.1/DTD/svg11.dtd">
<svg xmlns:xlink="http://www.w3.org/1999/xlink" width="417.63pt" height="316.271687pt" viewBox="0 0 417.63 316.271687" xmlns="http://www.w3.org/2000/svg" version="1.1">
 <metadata>
  <rdf:RDF xmlns:dc="http://purl.org/dc/elements/1.1/" xmlns:cc="http://creativecommons.org/ns#" xmlns:rdf="http://www.w3.org/1999/02/22-rdf-syntax-ns#">
   <cc:Work>
    <dc:type rdf:resource="http://purl.org/dc/dcmitype/StillImage"/>
    <dc:date>2023-02-08T15:04:15.790207</dc:date>
    <dc:format>image/svg+xml</dc:format>
    <dc:creator>
     <cc:Agent>
      <dc:title>Matplotlib v3.6.3, https://matplotlib.org/</dc:title>
     </cc:Agent>
    </dc:creator>
   </cc:Work>
  </rdf:RDF>
 </metadata>
 <defs>
  <style type="text/css">*{stroke-linejoin: round; stroke-linecap: butt}</style>
 </defs>
 <g id="figure_1">
  <g id="patch_1">
   <path d="M 0 316.271687 
L 417.63 316.271687 
L 417.63 0 
L 0 0 
z
" style="fill: #ffffff"/>
  </g>
  <g id="axes_1">
   <g id="patch_2">
    <path d="M 53.31 273.312 
L 410.43 273.312 
L 410.43 7.2 
L 53.31 7.2 
z
" style="fill: #ffffff"/>
   </g>
   <g id="matplotlib.axis_1">
    <g id="xtick_1">
     <g id="line2d_1">
      <path d="M 66.263388 273.312 
L 66.263388 7.2 
" clip-path="url(#p8c066c5504)" style="fill: none; stroke: #cccccc; stroke-linecap: round"/>
     </g>
     <g id="text_1">
      <!-- 0 -->
      <g style="fill: #262626" transform="translate(62.764013 291.170281) scale(0.11 -0.11)">
       <defs>
        <path id="DejaVuSans-30" d="M 2034 4250 
Q 1547 4250 1301 3770 
Q 1056 3291 1056 2328 
Q 1056 1369 1301 889 
Q 1547 409 2034 409 
Q 2525 409 2770 889 
Q 3016 1369 3016 2328 
Q 3016 3291 2770 3770 
Q 2525 4250 2034 4250 
z
M 2034 4750 
Q 2819 4750 3233 4129 
Q 3647 3509 3647 2328 
Q 3647 1150 3233 529 
Q 2819 -91 2034 -91 
Q 1250 -91 836 529 
Q 422 1150 422 2328 
Q 422 3509 836 4129 
Q 1250 4750 2034 4750 
z
" transform="scale(0.015625)"/>
       </defs>
       <use xlink:href="#DejaVuSans-30"/>
      </g>
     </g>
    </g>
    <g id="xtick_2">
     <g id="line2d_2">
      <path d="M 131.850165 273.312 
L 131.850165 7.2 
" clip-path="url(#p8c066c5504)" style="fill: none; stroke: #cccccc; stroke-linecap: round"/>
     </g>
     <g id="text_2">
      <!-- 20 -->
      <g style="fill: #262626" transform="translate(124.851415 291.170281) scale(0.11 -0.11)">
       <defs>
        <path id="DejaVuSans-32" d="M 1228 531 
L 3431 531 
L 3431 0 
L 469 0 
L 469 531 
Q 828 903 1448 1529 
Q 2069 2156 2228 2338 
Q 2531 2678 2651 2914 
Q 2772 3150 2772 3378 
Q 2772 3750 2511 3984 
Q 2250 4219 1831 4219 
Q 1534 4219 1204 4116 
Q 875 4013 500 3803 
L 500 4441 
Q 881 4594 1212 4672 
Q 1544 4750 1819 4750 
Q 2544 4750 2975 4387 
Q 3406 4025 3406 3419 
Q 3406 3131 3298 2873 
Q 3191 2616 2906 2266 
Q 2828 2175 2409 1742 
Q 1991 1309 1228 531 
z
" transform="scale(0.015625)"/>
       </defs>
       <use xlink:href="#DejaVuSans-32"/>
       <use xlink:href="#DejaVuSans-30" x="63.623047"/>
      </g>
     </g>
    </g>
    <g id="xtick_3">
     <g id="line2d_3">
      <path d="M 197.436942 273.312 
L 197.436942 7.2 
" clip-path="url(#p8c066c5504)" style="fill: none; stroke: #cccccc; stroke-linecap: round"/>
     </g>
     <g id="text_3">
      <!-- 40 -->
      <g style="fill: #262626" transform="translate(190.438192 291.170281) scale(0.11 -0.11)">
       <defs>
        <path id="DejaVuSans-34" d="M 2419 4116 
L 825 1625 
L 2419 1625 
L 2419 4116 
z
M 2253 4666 
L 3047 4666 
L 3047 1625 
L 3713 1625 
L 3713 1100 
L 3047 1100 
L 3047 0 
L 2419 0 
L 2419 1100 
L 313 1100 
L 313 1709 
L 2253 4666 
z
" transform="scale(0.015625)"/>
       </defs>
       <use xlink:href="#DejaVuSans-34"/>
       <use xlink:href="#DejaVuSans-30" x="63.623047"/>
      </g>
     </g>
    </g>
    <g id="xtick_4">
     <g id="line2d_4">
      <path d="M 263.023719 273.312 
L 263.023719 7.2 
" clip-path="url(#p8c066c5504)" style="fill: none; stroke: #cccccc; stroke-linecap: round"/>
     </g>
     <g id="text_4">
      <!-- 60 -->
      <g style="fill: #262626" transform="translate(256.024969 291.170281) scale(0.11 -0.11)">
       <defs>
        <path id="DejaVuSans-36" d="M 2113 2584 
Q 1688 2584 1439 2293 
Q 1191 2003 1191 1497 
Q 1191 994 1439 701 
Q 1688 409 2113 409 
Q 2538 409 2786 701 
Q 3034 994 3034 1497 
Q 3034 2003 2786 2293 
Q 2538 2584 2113 2584 
z
M 3366 4563 
L 3366 3988 
Q 3128 4100 2886 4159 
Q 2644 4219 2406 4219 
Q 1781 4219 1451 3797 
Q 1122 3375 1075 2522 
Q 1259 2794 1537 2939 
Q 1816 3084 2150 3084 
Q 2853 3084 3261 2657 
Q 3669 2231 3669 1497 
Q 3669 778 3244 343 
Q 2819 -91 2113 -91 
Q 1303 -91 875 529 
Q 447 1150 447 2328 
Q 447 3434 972 4092 
Q 1497 4750 2381 4750 
Q 2619 4750 2861 4703 
Q 3103 4656 3366 4563 
z
" transform="scale(0.015625)"/>
       </defs>
       <use xlink:href="#DejaVuSans-36"/>
       <use xlink:href="#DejaVuSans-30" x="63.623047"/>
      </g>
     </g>
    </g>
    <g id="xtick_5">
     <g id="line2d_5">
      <path d="M 328.610496 273.312 
L 328.610496 7.2 
" clip-path="url(#p8c066c5504)" style="fill: none; stroke: #cccccc; stroke-linecap: round"/>
     </g>
     <g id="text_5">
      <!-- 80 -->
      <g style="fill: #262626" transform="translate(321.611746 291.170281) scale(0.11 -0.11)">
       <defs>
        <path id="DejaVuSans-38" d="M 2034 2216 
Q 1584 2216 1326 1975 
Q 1069 1734 1069 1313 
Q 1069 891 1326 650 
Q 1584 409 2034 409 
Q 2484 409 2743 651 
Q 3003 894 3003 1313 
Q 3003 1734 2745 1975 
Q 2488 2216 2034 2216 
z
M 1403 2484 
Q 997 2584 770 2862 
Q 544 3141 544 3541 
Q 544 4100 942 4425 
Q 1341 4750 2034 4750 
Q 2731 4750 3128 4425 
Q 3525 4100 3525 3541 
Q 3525 3141 3298 2862 
Q 3072 2584 2669 2484 
Q 3125 2378 3379 2068 
Q 3634 1759 3634 1313 
Q 3634 634 3220 271 
Q 2806 -91 2034 -91 
Q 1263 -91 848 271 
Q 434 634 434 1313 
Q 434 1759 690 2068 
Q 947 2378 1403 2484 
z
M 1172 3481 
Q 1172 3119 1398 2916 
Q 1625 2713 2034 2713 
Q 2441 2713 2670 2916 
Q 2900 3119 2900 3481 
Q 2900 3844 2670 4047 
Q 2441 4250 2034 4250 
Q 1625 4250 1398 4047 
Q 1172 3844 1172 3481 
z
" transform="scale(0.015625)"/>
       </defs>
       <use xlink:href="#DejaVuSans-38"/>
       <use xlink:href="#DejaVuSans-30" x="63.623047"/>
      </g>
     </g>
    </g>
    <g id="xtick_6">
     <g id="line2d_6">
      <path d="M 394.197273 273.312 
L 394.197273 7.2 
" clip-path="url(#p8c066c5504)" style="fill: none; stroke: #cccccc; stroke-linecap: round"/>
     </g>
     <g id="text_6">
      <!-- 100 -->
      <g style="fill: #262626" transform="translate(383.699148 291.170281) scale(0.11 -0.11)">
       <defs>
        <path id="DejaVuSans-31" d="M 794 531 
L 1825 531 
L 1825 4091 
L 703 3866 
L 703 4441 
L 1819 4666 
L 2450 4666 
L 2450 531 
L 3481 531 
L 3481 0 
L 794 0 
L 794 531 
z
" transform="scale(0.015625)"/>
       </defs>
       <use xlink:href="#DejaVuSans-31"/>
       <use xlink:href="#DejaVuSans-30" x="63.623047"/>
       <use xlink:href="#DejaVuSans-30" x="127.246094"/>
      </g>
     </g>
    </g>
    <g id="text_7">
     <!-- Round -->
     <g style="fill: #262626" transform="translate(212.885625 306.576062) scale(0.12 -0.12)">
      <defs>
       <path id="DejaVuSans-52" d="M 2841 2188 
Q 3044 2119 3236 1894 
Q 3428 1669 3622 1275 
L 4263 0 
L 3584 0 
L 2988 1197 
Q 2756 1666 2539 1819 
Q 2322 1972 1947 1972 
L 1259 1972 
L 1259 0 
L 628 0 
L 628 4666 
L 2053 4666 
Q 2853 4666 3247 4331 
Q 3641 3997 3641 3322 
Q 3641 2881 3436 2590 
Q 3231 2300 2841 2188 
z
M 1259 4147 
L 1259 2491 
L 2053 2491 
Q 2509 2491 2742 2702 
Q 2975 2913 2975 3322 
Q 2975 3731 2742 3939 
Q 2509 4147 2053 4147 
L 1259 4147 
z
" transform="scale(0.015625)"/>
       <path id="DejaVuSans-6f" d="M 1959 3097 
Q 1497 3097 1228 2736 
Q 959 2375 959 1747 
Q 959 1119 1226 758 
Q 1494 397 1959 397 
Q 2419 397 2687 759 
Q 2956 1122 2956 1747 
Q 2956 2369 2687 2733 
Q 2419 3097 1959 3097 
z
M 1959 3584 
Q 2709 3584 3137 3096 
Q 3566 2609 3566 1747 
Q 3566 888 3137 398 
Q 2709 -91 1959 -91 
Q 1206 -91 779 398 
Q 353 888 353 1747 
Q 353 2609 779 3096 
Q 1206 3584 1959 3584 
z
" transform="scale(0.015625)"/>
       <path id="DejaVuSans-75" d="M 544 1381 
L 544 3500 
L 1119 3500 
L 1119 1403 
Q 1119 906 1312 657 
Q 1506 409 1894 409 
Q 2359 409 2629 706 
Q 2900 1003 2900 1516 
L 2900 3500 
L 3475 3500 
L 3475 0 
L 2900 0 
L 2900 538 
Q 2691 219 2414 64 
Q 2138 -91 1772 -91 
Q 1169 -91 856 284 
Q 544 659 544 1381 
z
M 1991 3584 
L 1991 3584 
z
" transform="scale(0.015625)"/>
       <path id="DejaVuSans-6e" d="M 3513 2113 
L 3513 0 
L 2938 0 
L 2938 2094 
Q 2938 2591 2744 2837 
Q 2550 3084 2163 3084 
Q 1697 3084 1428 2787 
Q 1159 2491 1159 1978 
L 1159 0 
L 581 0 
L 581 3500 
L 1159 3500 
L 1159 2956 
Q 1366 3272 1645 3428 
Q 1925 3584 2291 3584 
Q 2894 3584 3203 3211 
Q 3513 2838 3513 2113 
z
" transform="scale(0.015625)"/>
       <path id="DejaVuSans-64" d="M 2906 2969 
L 2906 4863 
L 3481 4863 
L 3481 0 
L 2906 0 
L 2906 525 
Q 2725 213 2448 61 
Q 2172 -91 1784 -91 
Q 1150 -91 751 415 
Q 353 922 353 1747 
Q 353 2572 751 3078 
Q 1150 3584 1784 3584 
Q 2172 3584 2448 3432 
Q 2725 3281 2906 2969 
z
M 947 1747 
Q 947 1113 1208 752 
Q 1469 391 1925 391 
Q 2381 391 2643 752 
Q 2906 1113 2906 1747 
Q 2906 2381 2643 2742 
Q 2381 3103 1925 3103 
Q 1469 3103 1208 2742 
Q 947 2381 947 1747 
z
" transform="scale(0.015625)"/>
      </defs>
      <use xlink:href="#DejaVuSans-52"/>
      <use xlink:href="#DejaVuSans-6f" x="64.982422"/>
      <use xlink:href="#DejaVuSans-75" x="126.164062"/>
      <use xlink:href="#DejaVuSans-6e" x="189.542969"/>
      <use xlink:href="#DejaVuSans-64" x="252.921875"/>
     </g>
    </g>
   </g>
   <g id="matplotlib.axis_2">
    <g id="ytick_1">
     <g id="line2d_7">
      <path d="M 53.31 226.947902 
L 410.43 226.947902 
" clip-path="url(#p8c066c5504)" style="fill: none; stroke: #cccccc; stroke-linecap: round"/>
     </g>
     <g id="text_8">
      <!-- 20 -->
      <g style="fill: #262626" transform="translate(29.8125 231.127042) scale(0.11 -0.11)">
       <use xlink:href="#DejaVuSans-32"/>
       <use xlink:href="#DejaVuSans-30" x="63.623047"/>
      </g>
     </g>
    </g>
    <g id="ytick_2">
     <g id="line2d_8">
      <path d="M 53.31 174.330515 
L 410.43 174.330515 
" clip-path="url(#p8c066c5504)" style="fill: none; stroke: #cccccc; stroke-linecap: round"/>
     </g>
     <g id="text_9">
      <!-- 40 -->
      <g style="fill: #262626" transform="translate(29.8125 178.509656) scale(0.11 -0.11)">
       <use xlink:href="#DejaVuSans-34"/>
       <use xlink:href="#DejaVuSans-30" x="63.623047"/>
      </g>
     </g>
    </g>
    <g id="ytick_3">
     <g id="line2d_9">
      <path d="M 53.31 121.713129 
L 410.43 121.713129 
" clip-path="url(#p8c066c5504)" style="fill: none; stroke: #cccccc; stroke-linecap: round"/>
     </g>
     <g id="text_10">
      <!-- 60 -->
      <g style="fill: #262626" transform="translate(29.8125 125.892269) scale(0.11 -0.11)">
       <use xlink:href="#DejaVuSans-36"/>
       <use xlink:href="#DejaVuSans-30" x="63.623047"/>
      </g>
     </g>
    </g>
    <g id="ytick_4">
     <g id="line2d_10">
      <path d="M 53.31 69.095742 
L 410.43 69.095742 
" clip-path="url(#p8c066c5504)" style="fill: none; stroke: #cccccc; stroke-linecap: round"/>
     </g>
     <g id="text_11">
      <!-- 80 -->
      <g style="fill: #262626" transform="translate(29.8125 73.274883) scale(0.11 -0.11)">
       <use xlink:href="#DejaVuSans-38"/>
       <use xlink:href="#DejaVuSans-30" x="63.623047"/>
      </g>
     </g>
    </g>
    <g id="ytick_5">
     <g id="line2d_11">
      <path d="M 53.31 16.478355 
L 410.43 16.478355 
" clip-path="url(#p8c066c5504)" style="fill: none; stroke: #cccccc; stroke-linecap: round"/>
     </g>
     <g id="text_12">
      <!-- 100 -->
      <g style="fill: #262626" transform="translate(22.81375 20.657496) scale(0.11 -0.11)">
       <use xlink:href="#DejaVuSans-31"/>
       <use xlink:href="#DejaVuSans-30" x="63.623047"/>
       <use xlink:href="#DejaVuSans-30" x="127.246094"/>
      </g>
     </g>
    </g>
    <g id="text_13">
     <!-- Accuracy (%) -->
     <g style="fill: #262626" transform="translate(16.318125 179.939437) rotate(-90) scale(0.12 -0.12)">
      <defs>
       <path id="DejaVuSans-41" d="M 2188 4044 
L 1331 1722 
L 3047 1722 
L 2188 4044 
z
M 1831 4666 
L 2547 4666 
L 4325 0 
L 3669 0 
L 3244 1197 
L 1141 1197 
L 716 0 
L 50 0 
L 1831 4666 
z
" transform="scale(0.015625)"/>
       <path id="DejaVuSans-63" d="M 3122 3366 
L 3122 2828 
Q 2878 2963 2633 3030 
Q 2388 3097 2138 3097 
Q 1578 3097 1268 2742 
Q 959 2388 959 1747 
Q 959 1106 1268 751 
Q 1578 397 2138 397 
Q 2388 397 2633 464 
Q 2878 531 3122 666 
L 3122 134 
Q 2881 22 2623 -34 
Q 2366 -91 2075 -91 
Q 1284 -91 818 406 
Q 353 903 353 1747 
Q 353 2603 823 3093 
Q 1294 3584 2113 3584 
Q 2378 3584 2631 3529 
Q 2884 3475 3122 3366 
z
" transform="scale(0.015625)"/>
       <path id="DejaVuSans-72" d="M 2631 2963 
Q 2534 3019 2420 3045 
Q 2306 3072 2169 3072 
Q 1681 3072 1420 2755 
Q 1159 2438 1159 1844 
L 1159 0 
L 581 0 
L 581 3500 
L 1159 3500 
L 1159 2956 
Q 1341 3275 1631 3429 
Q 1922 3584 2338 3584 
Q 2397 3584 2469 3576 
Q 2541 3569 2628 3553 
L 2631 2963 
z
" transform="scale(0.015625)"/>
       <path id="DejaVuSans-61" d="M 2194 1759 
Q 1497 1759 1228 1600 
Q 959 1441 959 1056 
Q 959 750 1161 570 
Q 1363 391 1709 391 
Q 2188 391 2477 730 
Q 2766 1069 2766 1631 
L 2766 1759 
L 2194 1759 
z
M 3341 1997 
L 3341 0 
L 2766 0 
L 2766 531 
Q 2569 213 2275 61 
Q 1981 -91 1556 -91 
Q 1019 -91 701 211 
Q 384 513 384 1019 
Q 384 1609 779 1909 
Q 1175 2209 1959 2209 
L 2766 2209 
L 2766 2266 
Q 2766 2663 2505 2880 
Q 2244 3097 1772 3097 
Q 1472 3097 1187 3025 
Q 903 2953 641 2809 
L 641 3341 
Q 956 3463 1253 3523 
Q 1550 3584 1831 3584 
Q 2591 3584 2966 3190 
Q 3341 2797 3341 1997 
z
" transform="scale(0.015625)"/>
       <path id="DejaVuSans-79" d="M 2059 -325 
Q 1816 -950 1584 -1140 
Q 1353 -1331 966 -1331 
L 506 -1331 
L 506 -850 
L 844 -850 
Q 1081 -850 1212 -737 
Q 1344 -625 1503 -206 
L 1606 56 
L 191 3500 
L 800 3500 
L 1894 763 
L 2988 3500 
L 3597 3500 
L 2059 -325 
z
" transform="scale(0.015625)"/>
       <path id="DejaVuSans-20" transform="scale(0.015625)"/>
       <path id="DejaVuSans-28" d="M 1984 4856 
Q 1566 4138 1362 3434 
Q 1159 2731 1159 2009 
Q 1159 1288 1364 580 
Q 1569 -128 1984 -844 
L 1484 -844 
Q 1016 -109 783 600 
Q 550 1309 550 2009 
Q 550 2706 781 3412 
Q 1013 4119 1484 4856 
L 1984 4856 
z
" transform="scale(0.015625)"/>
       <path id="DejaVuSans-25" d="M 4653 2053 
Q 4381 2053 4226 1822 
Q 4072 1591 4072 1178 
Q 4072 772 4226 539 
Q 4381 306 4653 306 
Q 4919 306 5073 539 
Q 5228 772 5228 1178 
Q 5228 1588 5073 1820 
Q 4919 2053 4653 2053 
z
M 4653 2450 
Q 5147 2450 5437 2106 
Q 5728 1763 5728 1178 
Q 5728 594 5436 251 
Q 5144 -91 4653 -91 
Q 4153 -91 3862 251 
Q 3572 594 3572 1178 
Q 3572 1766 3864 2108 
Q 4156 2450 4653 2450 
z
M 1428 4353 
Q 1159 4353 1004 4120 
Q 850 3888 850 3481 
Q 850 3069 1003 2837 
Q 1156 2606 1428 2606 
Q 1700 2606 1854 2837 
Q 2009 3069 2009 3481 
Q 2009 3884 1853 4118 
Q 1697 4353 1428 4353 
z
M 4250 4750 
L 4750 4750 
L 1831 -91 
L 1331 -91 
L 4250 4750 
z
M 1428 4750 
Q 1922 4750 2215 4408 
Q 2509 4066 2509 3481 
Q 2509 2891 2217 2550 
Q 1925 2209 1428 2209 
Q 931 2209 642 2551 
Q 353 2894 353 3481 
Q 353 4063 643 4406 
Q 934 4750 1428 4750 
z
" transform="scale(0.015625)"/>
       <path id="DejaVuSans-29" d="M 513 4856 
L 1013 4856 
Q 1481 4119 1714 3412 
Q 1947 2706 1947 2009 
Q 1947 1309 1714 600 
Q 1481 -109 1013 -844 
L 513 -844 
Q 928 -128 1133 580 
Q 1338 1288 1338 2009 
Q 1338 2731 1133 3434 
Q 928 4138 513 4856 
z
" transform="scale(0.015625)"/>
      </defs>
      <use xlink:href="#DejaVuSans-41"/>
      <use xlink:href="#DejaVuSans-63" x="66.658203"/>
      <use xlink:href="#DejaVuSans-63" x="121.638672"/>
      <use xlink:href="#DejaVuSans-75" x="176.619141"/>
      <use xlink:href="#DejaVuSans-72" x="239.998047"/>
      <use xlink:href="#DejaVuSans-61" x="281.111328"/>
      <use xlink:href="#DejaVuSans-63" x="342.390625"/>
      <use xlink:href="#DejaVuSans-79" x="397.371094"/>
      <use xlink:href="#DejaVuSans-20" x="456.550781"/>
      <use xlink:href="#DejaVuSans-28" x="488.337891"/>
      <use xlink:href="#DejaVuSans-25" x="527.351562"/>
      <use xlink:href="#DejaVuSans-29" x="622.371094"/>
     </g>
    </g>
   </g>
   <g id="PolyCollection_1">
    <defs>
     <path id="mc5a9f58b74" d="M 69.542727 -137.37035 
L 69.542727 -78.853124 
L 72.822066 -120.627072 
L 76.101405 -118.36519 
L 79.380744 -167.594123 
L 82.660083 -189.964522 
L 85.939421 -200.407739 
L 89.21876 -238.351044 
L 92.498099 -242.586647 
L 95.777438 -253.063766 
L 99.056777 -277.24843 
L 102.336116 -274.564689 
L 105.615455 -278.438001 
L 108.894793 -276.707831 
L 112.174132 -275.411744 
L 115.453471 -266.690649 
L 118.73281 -270.851959 
L 122.012149 -273.786685 
L 125.291488 -282.260375 
L 128.570826 -273.739452 
L 131.850165 -272.070861 
L 135.129504 -278.220923 
L 138.408843 -282.595437 
L 141.688182 -282.981898 
L 144.967521 -285.771519 
L 148.24686 -286.199831 
L 151.526198 -287.936645 
L 154.805537 -279.434042 
L 158.084876 -276.059009 
L 161.364215 -282.298502 
L 164.643554 -274.650337 
L 167.922893 -281.598445 
L 171.202231 -281.757055 
L 174.48157 -287.753961 
L 177.760909 -287.41594 
L 181.040248 -289.345474 
L 184.319587 -288.583667 
L 187.598926 -278.703166 
L 190.878264 -284.897308 
L 194.157603 -286.406467 
L 197.436942 -289.413746 
L 200.716281 -291.195072 
L 203.99562 -289.180975 
L 207.274959 -291.916641 
L 210.554298 -291.316449 
L 213.833636 -284.358789 
L 217.112975 -287.691865 
L 220.392314 -288.021731 
L 223.671653 -288.582377 
L 226.950992 -288.520527 
L 230.230331 -292.784569 
L 233.509669 -291.476052 
L 236.789008 -293.909404 
L 240.068347 -283.405131 
L 243.347686 -288.146791 
L 246.627025 -289.256292 
L 249.906364 -289.28444 
L 253.185702 -288.798058 
L 256.465041 -290.81605 
L 259.74438 -291.579649 
L 263.023719 -290.527765 
L 266.303058 -291.131884 
L 269.582397 -292.786703 
L 272.861736 -292.069054 
L 276.141074 -293.123023 
L 279.420413 -285.518375 
L 282.699752 -288.942996 
L 285.979091 -285.231025 
L 289.25843 -288.746879 
L 292.537769 -287.882263 
L 295.817107 -285.556347 
L 299.096446 -284.444497 
L 302.375785 -283.698401 
L 305.655124 -283.913994 
L 308.934463 -283.839305 
L 312.213802 -285.797775 
L 315.49314 -285.014217 
L 318.772479 -284.171699 
L 322.051818 -285.638687 
L 325.331157 -283.859781 
L 328.610496 -284.374524 
L 331.889835 -286.272999 
L 335.169174 -284.339276 
L 338.448512 -284.450222 
L 341.727851 -280.488657 
L 345.00719 -281.576514 
L 348.286529 -280.031943 
L 351.565868 -281.185344 
L 354.845207 -283.132079 
L 358.124545 -285.920512 
L 361.403884 -281.885852 
L 364.683223 -283.350621 
L 367.962562 -283.717873 
L 371.241901 -283.493339 
L 374.52124 -283.185078 
L 377.800579 -283.78924 
L 381.079917 -283.497849 
L 384.359256 -285.908774 
L 387.638595 -284.839745 
L 390.917934 -284.063572 
L 394.197273 -284.767675 
L 394.197273 -295.662882 
L 394.197273 -295.662882 
L 390.917934 -295.437263 
L 387.638595 -295.201447 
L 384.359256 -295.887588 
L 381.079917 -295.159273 
L 377.800579 -295.29289 
L 374.52124 -295.339394 
L 371.241901 -295.533323 
L 367.962562 -295.546715 
L 364.683223 -295.086298 
L 361.403884 -294.677643 
L 358.124545 -295.654557 
L 354.845207 -294.921124 
L 351.565868 -295.230022 
L 348.286529 -295.467513 
L 345.00719 -295.343916 
L 341.727851 -295.5159 
L 338.448512 -295.184772 
L 335.169174 -295.247932 
L 331.889835 -296.042611 
L 328.610496 -295.481827 
L 325.331157 -295.432286 
L 322.051818 -295.621637 
L 318.772479 -295.083461 
L 315.49314 -295.809953 
L 312.213802 -295.898837 
L 308.934463 -295.017953 
L 305.655124 -295.112714 
L 302.375785 -295.118375 
L 299.096446 -295.338707 
L 295.817107 -295.380849 
L 292.537769 -296.638895 
L 289.25843 -296.348268 
L 285.979091 -296.560514 
L 282.699752 -296.478342 
L 279.420413 -296.783081 
L 276.141074 -296.572911 
L 272.861736 -296.234695 
L 269.582397 -296.279357 
L 266.303058 -295.496766 
L 263.023719 -296.07968 
L 259.74438 -296.298363 
L 256.465041 -295.990822 
L 253.185702 -296.344752 
L 249.906364 -296.975687 
L 246.627025 -296.341508 
L 243.347686 -296.557855 
L 240.068347 -295.548523 
L 236.789008 -296.409692 
L 233.509669 -295.369341 
L 230.230331 -295.983489 
L 226.950992 -295.638643 
L 223.671653 -295.242655 
L 220.392314 -295.461017 
L 217.112975 -294.896926 
L 213.833636 -296.349652 
L 210.554298 -295.763591 
L 207.274959 -296.042277 
L 203.99562 -295.585262 
L 200.716281 -295.760515 
L 197.436942 -295.305773 
L 194.157603 -294.712695 
L 190.878264 -295.279755 
L 187.598926 -294.836187 
L 184.319587 -294.31462 
L 181.040248 -294.77189 
L 177.760909 -294.534371 
L 174.48157 -293.689355 
L 171.202231 -294.172494 
L 167.922893 -294.143174 
L 164.643554 -289.33949 
L 161.364215 -292.489699 
L 158.084876 -291.8768 
L 154.805537 -290.881968 
L 151.526198 -292.628562 
L 148.24686 -293.996023 
L 144.967521 -292.80345 
L 141.688182 -293.243767 
L 138.408843 -293.390449 
L 135.129504 -292.250816 
L 131.850165 -291.791385 
L 128.570826 -289.808127 
L 125.291488 -290.221156 
L 122.012149 -290.066943 
L 118.73281 -287.250586 
L 115.453471 -287.286276 
L 112.174132 -290.361731 
L 108.894793 -290.903752 
L 105.615455 -289.692856 
L 102.336116 -289.362091 
L 99.056777 -289.026335 
L 95.777438 -282.624875 
L 92.498099 -277.198136 
L 89.21876 -274.505342 
L 85.939421 -249.286073 
L 82.660083 -248.924378 
L 79.380744 -225.86797 
L 76.101405 -184.651749 
L 72.822066 -185.396771 
L 69.542727 -137.37035 
z
" style="stroke: #4c72b0; stroke-opacity: 0.2"/>
    </defs>
    <g clip-path="url(#p8c066c5504)">
     <use xlink:href="#mc5a9f58b74" x="0" y="316.271687" style="fill: #4c72b0; fill-opacity: 0.2; stroke: #4c72b0; stroke-opacity: 0.2"/>
    </g>
   </g>
   <g id="PolyCollection_2">
    <defs>
     <path id="m5fe10fbb3b" d="M 69.542727 -97.718879 
L 69.542727 -55.055687 
L 72.822066 -81.411482 
L 76.101405 -62.12436 
L 79.380744 -122.052064 
L 82.660083 -121.907006 
L 85.939421 -114.732001 
L 89.21876 -179.304212 
L 92.498099 -173.935305 
L 95.777438 -196.215582 
L 99.056777 -209.369316 
L 102.336116 -205.278551 
L 105.615455 -226.415226 
L 108.894793 -245.822728 
L 112.174132 -228.893151 
L 115.453471 -206.549105 
L 118.73281 -205.898649 
L 122.012149 -229.386104 
L 125.291488 -223.478699 
L 128.570826 -214.389939 
L 131.850165 -216.270438 
L 135.129504 -226.659403 
L 138.408843 -251.020948 
L 141.688182 -236.668762 
L 144.967521 -233.251108 
L 148.24686 -261.648313 
L 151.526198 -219.827556 
L 154.805537 -213.308062 
L 158.084876 -214.093807 
L 161.364215 -223.156615 
L 164.643554 -218.487106 
L 167.922893 -239.648884 
L 171.202231 -235.541644 
L 174.48157 -235.635973 
L 177.760909 -260.642454 
L 181.040248 -260.650175 
L 184.319587 -242.037283 
L 187.598926 -239.772199 
L 190.878264 -264.339711 
L 194.157603 -226.020652 
L 197.436942 -262.213008 
L 200.716281 -250.730901 
L 203.99562 -262.199236 
L 207.274959 -273.526771 
L 210.554298 -252.241491 
L 213.833636 -259.204364 
L 217.112975 -223.357089 
L 220.392314 -236.933297 
L 223.671653 -233.138688 
L 226.950992 -246.356837 
L 230.230331 -269.675077 
L 233.509669 -243.136603 
L 236.789008 -278.598879 
L 240.068347 -263.05108 
L 243.347686 -271.240151 
L 246.627025 -255.537574 
L 249.906364 -280.586979 
L 253.185702 -274.471463 
L 256.465041 -229.718847 
L 259.74438 -274.342354 
L 263.023719 -247.425796 
L 266.303058 -222.638272 
L 269.582397 -275.796216 
L 272.861736 -271.776563 
L 276.141074 -272.050093 
L 279.420413 -275.860848 
L 282.699752 -261.803817 
L 285.979091 -231.280866 
L 289.25843 -237.781129 
L 292.537769 -243.531233 
L 295.817107 -267.997257 
L 299.096446 -238.253178 
L 302.375785 -251.49246 
L 305.655124 -260.341526 
L 308.934463 -246.111634 
L 312.213802 -273.301153 
L 315.49314 -269.354223 
L 318.772479 -270.425953 
L 322.051818 -280.846716 
L 325.331157 -272.688596 
L 328.610496 -277.184138 
L 331.889835 -278.720713 
L 335.169174 -255.026887 
L 338.448512 -263.553534 
L 341.727851 -263.942574 
L 345.00719 -258.575247 
L 348.286529 -261.954315 
L 351.565868 -267.396431 
L 354.845207 -267.418452 
L 358.124545 -277.44386 
L 361.403884 -262.205771 
L 364.683223 -274.400351 
L 367.962562 -277.279436 
L 371.241901 -281.5472 
L 374.52124 -278.443748 
L 377.800579 -242.915538 
L 381.079917 -260.30575 
L 384.359256 -278.17562 
L 387.638595 -285.830728 
L 390.917934 -266.912108 
L 394.197273 -275.004726 
L 394.197273 -287.75051 
L 394.197273 -287.75051 
L 390.917934 -283.245824 
L 387.638595 -289.561781 
L 384.359256 -284.329367 
L 381.079917 -277.050067 
L 377.800579 -266.537067 
L 374.52124 -284.957065 
L 371.241901 -287.388495 
L 367.962562 -284.732999 
L 364.683223 -282.675551 
L 361.403884 -274.846778 
L 358.124545 -285.120213 
L 354.845207 -280.019605 
L 351.565868 -280.943759 
L 348.286529 -278.464176 
L 345.00719 -276.752242 
L 341.727851 -277.977318 
L 338.448512 -279.357952 
L 335.169174 -272.495268 
L 331.889835 -283.741815 
L 328.610496 -285.475066 
L 325.331157 -281.502002 
L 322.051818 -285.920673 
L 318.772479 -279.278323 
L 315.49314 -279.874802 
L 312.213802 -282.205622 
L 308.934463 -269.978252 
L 305.655124 -276.036615 
L 302.375785 -272.025396 
L 299.096446 -262.298172 
L 295.817107 -277.603112 
L 292.537769 -272.314671 
L 289.25843 -268.083361 
L 285.979091 -265.583465 
L 282.699752 -279.957535 
L 279.420413 -284.80892 
L 276.141074 -283.594638 
L 272.861736 -281.180999 
L 269.582397 -284.203735 
L 266.303058 -256.014805 
L 263.023719 -269.243481 
L 259.74438 -283.567742 
L 256.465041 -262.816802 
L 253.185702 -283.382489 
L 249.906364 -286.061089 
L 246.627025 -279.714993 
L 243.347686 -283.137054 
L 240.068347 -279.012223 
L 236.789008 -284.551684 
L 233.509669 -266.975963 
L 230.230331 -278.183207 
L 226.950992 -275.064199 
L 223.671653 -268.252838 
L 220.392314 -261.057179 
L 217.112975 -260.285654 
L 213.833636 -276.440819 
L 210.554298 -277.233953 
L 207.274959 -282.452807 
L 203.99562 -272.213758 
L 200.716281 -269.983443 
L 197.436942 -277.789159 
L 194.157603 -253.088515 
L 190.878264 -274.129332 
L 187.598926 -267.854124 
L 184.319587 -264.620638 
L 181.040248 -274.516546 
L 177.760909 -271.216532 
L 174.48157 -262.34387 
L 171.202231 -268.676625 
L 167.922893 -271.529263 
L 164.643554 -253.147127 
L 161.364215 -258.831901 
L 158.084876 -250.508421 
L 154.805537 -250.137055 
L 151.526198 -253.328877 
L 148.24686 -273.587564 
L 144.967521 -259.82094 
L 141.688182 -257.949622 
L 138.408843 -266.919051 
L 135.129504 -256.76731 
L 131.850165 -252.840488 
L 128.570826 -250.901289 
L 125.291488 -254.304776 
L 122.012149 -259.397679 
L 118.73281 -238.196944 
L 115.453471 -245.184112 
L 112.174132 -255.216448 
L 108.894793 -261.511361 
L 105.615455 -257.558572 
L 102.336116 -241.628454 
L 99.056777 -249.653516 
L 95.777438 -229.740107 
L 92.498099 -217.868964 
L 89.21876 -223.378503 
L 85.939421 -167.051662 
L 82.660083 -173.906209 
L 79.380744 -172.800842 
L 76.101405 -100.559675 
L 72.822066 -124.211522 
L 69.542727 -97.718879 
z
" style="stroke: #dd8452; stroke-opacity: 0.2"/>
    </defs>
    <g clip-path="url(#p8c066c5504)">
     <use xlink:href="#m5fe10fbb3b" x="0" y="316.271687" style="fill: #dd8452; fill-opacity: 0.2; stroke: #dd8452; stroke-opacity: 0.2"/>
    </g>
   </g>
   <g id="PolyCollection_3">
    <defs>
     <path id="m54c1e9b57d" d="M 69.542727 -123.959449 
L 69.542727 -72.673921 
L 72.822066 -75.964112 
L 76.101405 -106.624092 
L 79.380744 -117.636862 
L 82.660083 -129.635589 
L 85.939421 -150.799569 
L 89.21876 -153.406763 
L 92.498099 -168.180853 
L 95.777438 -184.851356 
L 99.056777 -192.774655 
L 102.336116 -206.981997 
L 105.615455 -206.561844 
L 108.894793 -221.563942 
L 112.174132 -231.639486 
L 115.453471 -228.401587 
L 118.73281 -238.761537 
L 122.012149 -237.467352 
L 125.291488 -240.370236 
L 128.570826 -240.090892 
L 131.850165 -241.43289 
L 135.129504 -244.234149 
L 138.408843 -246.461455 
L 141.688182 -249.322818 
L 144.967521 -249.866865 
L 148.24686 -249.520445 
L 151.526198 -249.004436 
L 154.805537 -250.513859 
L 158.084876 -251.69172 
L 161.364215 -250.995562 
L 164.643554 -253.489256 
L 167.922893 -252.930131 
L 171.202231 -253.767883 
L 174.48157 -251.996636 
L 177.760909 -254.786887 
L 181.040248 -252.332152 
L 184.319587 -255.385075 
L 187.598926 -255.077168 
L 190.878264 -254.517312 
L 194.157603 -253.915162 
L 197.436942 -257.173695 
L 200.716281 -255.713974 
L 203.99562 -262.579482 
L 207.274959 -261.274417 
L 210.554298 -262.781293 
L 213.833636 -263.19011 
L 217.112975 -262.547154 
L 220.392314 -262.131133 
L 223.671653 -262.601352 
L 226.950992 -262.467927 
L 230.230331 -263.428546 
L 233.509669 -261.590714 
L 236.789008 -263.068652 
L 240.068347 -260.689394 
L 243.347686 -261.067557 
L 246.627025 -265.045064 
L 249.906364 -264.544927 
L 253.185702 -264.609061 
L 256.465041 -265.511143 
L 259.74438 -264.107822 
L 263.023719 -266.31023 
L 266.303058 -266.59666 
L 269.582397 -264.657799 
L 272.861736 -270.240775 
L 276.141074 -270.124414 
L 279.420413 -268.301833 
L 282.699752 -266.321783 
L 285.979091 -269.026404 
L 289.25843 -270.123287 
L 292.537769 -267.72325 
L 295.817107 -243.377091 
L 299.096446 -245.511868 
L 302.375785 -246.400422 
L 305.655124 -246.282561 
L 308.934463 -245.59306 
L 312.213802 -247.758709 
L 315.49314 -248.602038 
L 318.772479 -245.520529 
L 322.051818 -243.421665 
L 325.331157 -244.505009 
L 328.610496 -244.900564 
L 331.889835 -246.847961 
L 335.169174 -245.09005 
L 338.448512 -246.553203 
L 341.727851 -248.769339 
L 345.00719 -245.919227 
L 348.286529 -249.829446 
L 351.565868 -250.015799 
L 354.845207 -246.898353 
L 358.124545 -248.642511 
L 361.403884 -247.878824 
L 364.683223 -248.813275 
L 367.962562 -246.694393 
L 371.241901 -244.835221 
L 374.52124 -246.219242 
L 377.800579 -246.229868 
L 381.079917 -248.241511 
L 384.359256 -246.142827 
L 387.638595 -245.516865 
L 390.917934 -247.143038 
L 394.197273 -247.05165 
L 394.197273 -280.778922 
L 394.197273 -280.778922 
L 390.917934 -281.154684 
L 387.638595 -280.665519 
L 384.359256 -280.709757 
L 381.079917 -278.269683 
L 377.800579 -280.567724 
L 374.52124 -279.420465 
L 371.241901 -280.102585 
L 367.962562 -280.47287 
L 364.683223 -280.332504 
L 361.403884 -279.839083 
L 358.124545 -279.940794 
L 354.845207 -279.911184 
L 351.565868 -280.391475 
L 348.286529 -280.067765 
L 345.00719 -280.031639 
L 341.727851 -279.59569 
L 338.448512 -279.348411 
L 335.169174 -278.768759 
L 331.889835 -278.994397 
L 328.610496 -278.186226 
L 325.331157 -278.158485 
L 322.051818 -278.223713 
L 318.772479 -277.744864 
L 315.49314 -279.052225 
L 312.213802 -279.603661 
L 308.934463 -278.281917 
L 305.655124 -278.521921 
L 302.375785 -278.770504 
L 299.096446 -278.298803 
L 295.817107 -277.276724 
L 292.537769 -293.633294 
L 289.25843 -293.349067 
L 285.979091 -293.76741 
L 282.699752 -292.729389 
L 279.420413 -293.057228 
L 276.141074 -292.307266 
L 272.861736 -291.832345 
L 269.582397 -292.105191 
L 266.303058 -292.704632 
L 263.023719 -292.55381 
L 259.74438 -292.041056 
L 256.465041 -291.376379 
L 253.185702 -291.464739 
L 249.906364 -291.588401 
L 246.627025 -292.083453 
L 243.347686 -290.910877 
L 240.068347 -290.50461 
L 236.789008 -290.419611 
L 233.509669 -290.074641 
L 230.230331 -290.92513 
L 226.950992 -290.356285 
L 223.671653 -290.641189 
L 220.392314 -290.131772 
L 217.112975 -290.859919 
L 213.833636 -291.33701 
L 210.554298 -290.437147 
L 207.274959 -291.099256 
L 203.99562 -289.701711 
L 200.716281 -287.847888 
L 197.436942 -287.685794 
L 194.157603 -286.676461 
L 190.878264 -286.188346 
L 187.598926 -286.980655 
L 184.319587 -286.907369 
L 181.040248 -286.635238 
L 177.760909 -285.988924 
L 174.48157 -284.942573 
L 171.202231 -287.298933 
L 167.922893 -285.53642 
L 164.643554 -285.368629 
L 161.364215 -285.460706 
L 158.084876 -284.916157 
L 154.805537 -284.65523 
L 151.526198 -282.428809 
L 148.24686 -283.226349 
L 144.967521 -283.080168 
L 141.688182 -282.494836 
L 138.408843 -279.551596 
L 135.129504 -280.483326 
L 131.850165 -276.627408 
L 128.570826 -278.019114 
L 125.291488 -276.832992 
L 122.012149 -274.231317 
L 118.73281 -274.311979 
L 115.453471 -271.046324 
L 112.174132 -266.706341 
L 108.894793 -266.298295 
L 105.615455 -258.434571 
L 102.336116 -258.800526 
L 99.056777 -250.693753 
L 95.777438 -248.284385 
L 92.498099 -236.573439 
L 89.21876 -222.233293 
L 85.939421 -214.57526 
L 82.660083 -196.070734 
L 79.380744 -185.8938 
L 76.101405 -170.20706 
L 72.822066 -140.597513 
L 69.542727 -123.959449 
z
" style="stroke: #55a868; stroke-opacity: 0.2"/>
    </defs>
    <g clip-path="url(#p8c066c5504)">
     <use xlink:href="#m54c1e9b57d" x="0" y="316.271687" style="fill: #55a868; fill-opacity: 0.2; stroke: #55a868; stroke-opacity: 0.2"/>
    </g>
   </g>
   <g id="PolyCollection_4">
    <defs>
     <path id="m73477f3707" d="M 69.542727 -122.833675 
L 69.542727 -69.90716 
L 72.822066 -78.439885 
L 76.101405 -82.52216 
L 79.380744 -98.11795 
L 82.660083 -111.316716 
L 85.939421 -120.647671 
L 89.21876 -121.444114 
L 92.498099 -130.219736 
L 95.777438 -137.983279 
L 99.056777 -129.451096 
L 102.336116 -132.755273 
L 105.615455 -147.287955 
L 108.894793 -159.601611 
L 112.174132 -160.889556 
L 115.453471 -174.323633 
L 118.73281 -188.68024 
L 122.012149 -194.935147 
L 125.291488 -202.570563 
L 128.570826 -208.426154 
L 131.850165 -220.240642 
L 135.129504 -221.685295 
L 138.408843 -231.629845 
L 141.688182 -235.897235 
L 144.967521 -234.952218 
L 148.24686 -238.033982 
L 151.526198 -241.478383 
L 154.805537 -245.203259 
L 158.084876 -248.374395 
L 161.364215 -247.537484 
L 164.643554 -248.296933 
L 167.922893 -249.185136 
L 171.202231 -252.780352 
L 174.48157 -257.098357 
L 177.760909 -255.19658 
L 181.040248 -259.597988 
L 184.319587 -257.075178 
L 187.598926 -259.456653 
L 190.878264 -259.811752 
L 194.157603 -261.149772 
L 197.436942 -262.973157 
L 200.716281 -262.589595 
L 203.99562 -262.083892 
L 207.274959 -264.242545 
L 210.554298 -263.745259 
L 213.833636 -269.153099 
L 217.112975 -270.331889 
L 220.392314 -269.546275 
L 223.671653 -269.709467 
L 226.950992 -270.953043 
L 230.230331 -272.745124 
L 233.509669 -272.58436 
L 236.789008 -272.512352 
L 240.068347 -277.251386 
L 243.347686 -276.964978 
L 246.627025 -276.871129 
L 249.906364 -276.769673 
L 253.185702 -275.604048 
L 256.465041 -275.450916 
L 259.74438 -276.933036 
L 263.023719 -278.439775 
L 266.303058 -278.39706 
L 269.582397 -277.896657 
L 272.861736 -277.81734 
L 276.141074 -276.851122 
L 279.420413 -277.671477 
L 282.699752 -276.135143 
L 285.979091 -278.347583 
L 289.25843 -279.214549 
L 292.537769 -279.691627 
L 295.817107 -234.203588 
L 299.096446 -235.778721 
L 302.375785 -236.221533 
L 305.655124 -236.433271 
L 308.934463 -237.216282 
L 312.213802 -236.235765 
L 315.49314 -236.771908 
L 318.772479 -236.89981 
L 322.051818 -234.890073 
L 325.331157 -234.739535 
L 328.610496 -236.790431 
L 331.889835 -234.989256 
L 335.169174 -235.187985 
L 338.448512 -235.099467 
L 341.727851 -236.279516 
L 345.00719 -235.250239 
L 348.286529 -235.014361 
L 351.565868 -235.936523 
L 354.845207 -233.370638 
L 358.124545 -237.401598 
L 361.403884 -235.330196 
L 364.683223 -234.345436 
L 367.962562 -236.284162 
L 371.241901 -235.384863 
L 374.52124 -235.929776 
L 377.800579 -236.855591 
L 381.079917 -237.730051 
L 384.359256 -237.733548 
L 387.638595 -237.318135 
L 390.917934 -237.028723 
L 394.197273 -238.152514 
L 394.197273 -275.635591 
L 394.197273 -275.635591 
L 390.917934 -275.261507 
L 387.638595 -275.24565 
L 384.359256 -274.791829 
L 381.079917 -275.042526 
L 377.800579 -275.174745 
L 374.52124 -274.50856 
L 371.241901 -274.468407 
L 367.962562 -274.351324 
L 364.683223 -272.889982 
L 361.403884 -271.847908 
L 358.124545 -274.21286 
L 354.845207 -272.685108 
L 351.565868 -273.602365 
L 348.286529 -273.3487 
L 345.00719 -274.21391 
L 341.727851 -273.486898 
L 338.448512 -272.496825 
L 335.169174 -272.578226 
L 331.889835 -273.881948 
L 328.610496 -271.351378 
L 325.331157 -273.379657 
L 322.051818 -272.136949 
L 318.772479 -272.850988 
L 315.49314 -273.596084 
L 312.213802 -274.148837 
L 308.934463 -273.009134 
L 305.655124 -272.963222 
L 302.375785 -272.232651 
L 299.096446 -273.518679 
L 295.817107 -272.14302 
L 292.537769 -294.19484 
L 289.25843 -294.238946 
L 285.979091 -294.388537 
L 282.699752 -294.240695 
L 279.420413 -294.581368 
L 276.141074 -294.29864 
L 272.861736 -294.004165 
L 269.582397 -294.263739 
L 266.303058 -294.278952 
L 263.023719 -293.828092 
L 259.74438 -293.133011 
L 256.465041 -292.621813 
L 253.185702 -293.044467 
L 249.906364 -292.801147 
L 246.627025 -292.59889 
L 243.347686 -292.477012 
L 240.068347 -291.742408 
L 236.789008 -291.657389 
L 233.509669 -291.057602 
L 230.230331 -291.365109 
L 226.950992 -290.956059 
L 223.671653 -291.10757 
L 220.392314 -289.791827 
L 217.112975 -289.916842 
L 213.833636 -289.610017 
L 210.554298 -289.226125 
L 207.274959 -288.808923 
L 203.99562 -288.153336 
L 200.716281 -288.076186 
L 197.436942 -288.431451 
L 194.157603 -286.947743 
L 190.878264 -286.897176 
L 187.598926 -285.995598 
L 184.319587 -285.426065 
L 181.040248 -285.003819 
L 177.760909 -283.653319 
L 174.48157 -283.913923 
L 171.202231 -282.755586 
L 167.922893 -278.993006 
L 164.643554 -278.485667 
L 161.364215 -276.94539 
L 158.084876 -277.499629 
L 154.805537 -274.966392 
L 151.526198 -272.039254 
L 148.24686 -270.536863 
L 144.967521 -268.748341 
L 141.688182 -269.083966 
L 138.408843 -266.188727 
L 135.129504 -260.436566 
L 131.850165 -258.976448 
L 128.570826 -253.274415 
L 125.291488 -247.796357 
L 122.012149 -239.436349 
L 118.73281 -233.921188 
L 115.453471 -220.808604 
L 112.174132 -211.003053 
L 108.894793 -206.176733 
L 105.615455 -191.020709 
L 102.336116 -182.177801 
L 99.056777 -177.098756 
L 95.777438 -186.481303 
L 92.498099 -185.388463 
L 89.21876 -176.520029 
L 85.939421 -172.789809 
L 82.660083 -161.155677 
L 79.380744 -151.945212 
L 76.101405 -136.314955 
L 72.822066 -126.762575 
L 69.542727 -122.833675 
z
" style="stroke: #c44e52; stroke-opacity: 0.2"/>
    </defs>
    <g clip-path="url(#p8c066c5504)">
     <use xlink:href="#m73477f3707" x="0" y="316.271687" style="fill: #c44e52; fill-opacity: 0.2; stroke: #c44e52; stroke-opacity: 0.2"/>
    </g>
   </g>
   <g id="PolyCollection_5">
    <defs>
     <path id="m693fbe17b3" d="M 69.542727 -132.103824 
L 69.542727 -81.726549 
L 72.822066 -86.005663 
L 76.101405 -86.644324 
L 79.380744 -92.869998 
L 82.660083 -103.569101 
L 85.939421 -105.303686 
L 89.21876 -114.066872 
L 92.498099 -115.546554 
L 95.777438 -125.327808 
L 99.056777 -131.543249 
L 102.336116 -139.41432 
L 105.615455 -143.695795 
L 108.894793 -145.33381 
L 112.174132 -152.56952 
L 115.453471 -147.00317 
L 118.73281 -150.664294 
L 122.012149 -153.421795 
L 125.291488 -154.62979 
L 128.570826 -161.007676 
L 131.850165 -163.529243 
L 135.129504 -165.527445 
L 138.408843 -165.501403 
L 141.688182 -166.82277 
L 144.967521 -170.995458 
L 148.24686 -173.037251 
L 151.526198 -172.475458 
L 154.805537 -177.952243 
L 158.084876 -177.74242 
L 161.364215 -177.87309 
L 164.643554 -182.595499 
L 167.922893 -188.737566 
L 171.202231 -188.967671 
L 174.48157 -194.834129 
L 177.760909 -193.436682 
L 181.040248 -196.403615 
L 184.319587 -198.308215 
L 187.598926 -198.965843 
L 190.878264 -200.697011 
L 194.157603 -202.658371 
L 197.436942 -202.9082 
L 200.716281 -201.647846 
L 203.99562 -202.146146 
L 207.274959 -202.818246 
L 210.554298 -202.611748 
L 213.833636 -202.375575 
L 217.112975 -215.506501 
L 220.392314 -215.004784 
L 223.671653 -215.796614 
L 226.950992 -219.711753 
L 230.230331 -222.451561 
L 233.509669 -222.948995 
L 236.789008 -224.613902 
L 240.068347 -221.207825 
L 243.347686 -220.526156 
L 246.627025 -222.216864 
L 249.906364 -223.898422 
L 253.185702 -223.805434 
L 256.465041 -223.532867 
L 259.74438 -227.862812 
L 263.023719 -227.932607 
L 266.303058 -228.126376 
L 269.582397 -229.033273 
L 272.861736 -227.009442 
L 276.141074 -228.257042 
L 279.420413 -227.734021 
L 282.699752 -228.447751 
L 285.979091 -230.329987 
L 289.25843 -229.532909 
L 292.537769 -233.391684 
L 295.817107 -202.212058 
L 299.096446 -200.883184 
L 302.375785 -201.981563 
L 305.655124 -200.875783 
L 308.934463 -201.494005 
L 312.213802 -202.866701 
L 315.49314 -201.294026 
L 318.772479 -204.419274 
L 322.051818 -203.066947 
L 325.331157 -201.765474 
L 328.610496 -201.694481 
L 331.889835 -202.242768 
L 335.169174 -203.798133 
L 338.448512 -202.014901 
L 341.727851 -202.855672 
L 345.00719 -204.515887 
L 348.286529 -203.295314 
L 351.565868 -202.819785 
L 354.845207 -204.114717 
L 358.124545 -204.312898 
L 361.403884 -204.043999 
L 364.683223 -204.166929 
L 367.962562 -204.827626 
L 371.241901 -202.974983 
L 374.52124 -206.199004 
L 377.800579 -207.327691 
L 381.079917 -207.010394 
L 384.359256 -207.073041 
L 387.638595 -207.618507 
L 390.917934 -207.618195 
L 394.197273 -208.651254 
L 394.197273 -251.858308 
L 394.197273 -251.858308 
L 390.917934 -251.27382 
L 387.638595 -250.58196 
L 384.359256 -251.643155 
L 381.079917 -250.3029 
L 377.800579 -248.487877 
L 374.52124 -249.138469 
L 371.241901 -248.664883 
L 367.962562 -249.005861 
L 364.683223 -247.703158 
L 361.403884 -247.455284 
L 358.124545 -246.842193 
L 354.845207 -247.733646 
L 351.565868 -248.052057 
L 348.286529 -246.87963 
L 345.00719 -248.193112 
L 341.727851 -246.162618 
L 338.448512 -246.085265 
L 335.169174 -246.892301 
L 331.889835 -245.680856 
L 328.610496 -245.430591 
L 325.331157 -246.819569 
L 322.051818 -246.130198 
L 318.772479 -246.995582 
L 315.49314 -246.568521 
L 312.213802 -245.696833 
L 308.934463 -245.153542 
L 305.655124 -244.691801 
L 302.375785 -245.063365 
L 299.096446 -245.683988 
L 295.817107 -244.723981 
L 292.537769 -273.28799 
L 289.25843 -270.882573 
L 285.979091 -271.576253 
L 282.699752 -269.798645 
L 279.420413 -267.914463 
L 276.141074 -266.66554 
L 272.861736 -268.906252 
L 269.582397 -270.060148 
L 266.303058 -268.590907 
L 263.023719 -268.329811 
L 259.74438 -265.385498 
L 256.465041 -266.914895 
L 253.185702 -266.008545 
L 249.906364 -264.729682 
L 246.627025 -263.79155 
L 243.347686 -264.466245 
L 240.068347 -263.75052 
L 236.789008 -263.17073 
L 233.509669 -263.744542 
L 230.230331 -262.490806 
L 226.950992 -262.899052 
L 223.671653 -258.659964 
L 220.392314 -257.990711 
L 217.112975 -258.656082 
L 213.833636 -251.180398 
L 210.554298 -250.308971 
L 207.274959 -251.072824 
L 203.99562 -248.649891 
L 200.716281 -250.12452 
L 197.436942 -248.423828 
L 194.157603 -246.943146 
L 190.878264 -248.822257 
L 187.598926 -247.654428 
L 184.319587 -244.123502 
L 181.040248 -243.965967 
L 177.760909 -241.296619 
L 174.48157 -239.667736 
L 171.202231 -233.673266 
L 167.922893 -233.130353 
L 164.643554 -230.168478 
L 161.364215 -225.270569 
L 158.084876 -225.336153 
L 154.805537 -224.897186 
L 151.526198 -222.322696 
L 148.24686 -221.258233 
L 144.967521 -216.701951 
L 141.688182 -214.067506 
L 138.408843 -213.094511 
L 135.129504 -211.471698 
L 131.850165 -210.319763 
L 128.570826 -206.667328 
L 125.291488 -201.636384 
L 122.012149 -197.792264 
L 118.73281 -195.964977 
L 115.453471 -197.354257 
L 112.174132 -197.348063 
L 108.894793 -194.116865 
L 105.615455 -188.04509 
L 102.336116 -183.957306 
L 99.056777 -181.428886 
L 95.777438 -175.392966 
L 92.498099 -171.359379 
L 89.21876 -166.99849 
L 85.939421 -161.197836 
L 82.660083 -158.090275 
L 79.380744 -144.965341 
L 76.101405 -137.416776 
L 72.822066 -135.208301 
L 69.542727 -132.103824 
z
" style="stroke: #8172b3; stroke-opacity: 0.2"/>
    </defs>
    <g clip-path="url(#p8c066c5504)">
     <use xlink:href="#m693fbe17b3" x="0" y="316.271687" style="fill: #8172b3; fill-opacity: 0.2; stroke: #8172b3; stroke-opacity: 0.2"/>
    </g>
   </g>
   <g id="line2d_12">
    <path d="M 69.542727 210.241536 
L 72.822066 162.875748 
L 76.101405 166.115513 
L 79.380744 119.742773 
L 82.660083 95.02429 
L 85.939421 90.942909 
L 89.21876 57.631857 
L 92.498099 54.809543 
L 95.777438 46.703128 
L 99.056777 32.810364 
L 102.336116 32.83205 
L 105.615455 31.379487 
L 108.894793 30.864761 
L 112.174132 31.74051 
L 115.453471 37.739741 
L 118.73281 36.044679 
L 122.012149 33.033732 
L 125.291488 29.78188 
L 128.570826 32.969975 
L 131.850165 32.282619 
L 135.129504 29.518402 
L 138.408843 27.020828 
L 141.688182 27.247173 
L 144.967521 26.475764 
L 148.24686 25.345633 
L 151.526198 25.896236 
L 154.805537 30.085106 
L 158.084876 30.550026 
L 161.364215 28.081842 
L 164.643554 33.454837 
L 167.922893 26.978704 
L 171.202231 26.778352 
L 174.48157 25.330599 
L 177.760909 24.822195 
L 181.040248 23.942184 
L 184.319587 24.561446 
L 187.598926 27.182927 
L 190.878264 24.915035 
L 194.157603 24.817956 
L 197.436942 23.480489 
L 200.716281 22.562737 
L 203.99562 23.456556 
L 207.274959 22.104267 
L 210.554298 22.333656 
L 213.833636 23.986654 
L 217.112975 24.223364 
L 220.392314 23.597172 
L 223.671653 23.724747 
L 226.950992 23.390484 
L 230.230331 21.666497 
L 233.509669 22.743169 
L 236.789008 21.113834 
L 240.068347 25.125016 
L 243.347686 22.779017 
L 246.627025 22.632312 
L 249.906364 22.155148 
L 253.185702 22.811189 
L 256.465041 22.538909 
L 259.74438 22.003745 
L 263.023719 22.582596 
L 266.303058 22.757714 
L 269.582397 21.512697 
L 272.861736 21.806167 
L 276.141074 21.267079 
L 279.420413 23.346202 
L 282.699752 22.628516 
L 285.979091 23.750304 
L 289.25843 22.857838 
L 292.537769 22.921106 
L 295.817107 24.842868 
L 299.096446 24.773244 
L 302.375785 25.53868 
L 305.655124 25.556623 
L 308.934463 25.932427 
L 312.213802 24.14081 
L 315.49314 24.494335 
L 318.772479 25.743572 
L 322.051818 24.562133 
L 325.331157 25.282744 
L 328.610496 25.038115 
L 331.889835 24.028835 
L 335.169174 25.484037 
L 338.448512 24.992317 
L 341.727851 27.083527 
L 345.00719 26.872957 
L 348.286529 27.591605 
L 351.565868 27.373185 
L 354.845207 26.322153 
L 358.124545 24.289633 
L 361.403884 26.915993 
L 364.683223 26.00406 
L 367.962562 25.120651 
L 371.241901 25.278071 
L 374.52124 25.926428 
L 377.800579 26.039129 
L 381.079917 26.128858 
L 384.359256 24.531925 
L 387.638595 25.047265 
L 390.917934 25.401691 
L 394.197273 25.267106 
" clip-path="url(#p8c066c5504)" style="fill: none; stroke: #4c72b0; stroke-width: 1.5; stroke-linecap: round"/>
   </g>
   <g id="line2d_13">
    <path d="M 69.542727 240.152994 
L 72.822066 214.711525 
L 76.101405 236.328559 
L 79.380744 167.707031 
L 82.660083 168.569031 
L 85.939421 176.494758 
L 89.21876 112.794429 
L 92.498099 120.055027 
L 95.777438 102.919017 
L 99.056777 84.149666 
L 102.336116 92.826086 
L 105.615455 73.247201 
L 108.894793 62.19065 
L 112.174132 73.446163 
L 115.453471 89.388689 
L 118.73281 94.49081 
L 122.012149 70.292134 
L 125.291488 76.877823 
L 128.570826 82.462738 
L 131.850165 80.110936 
L 135.129504 74.403664 
L 138.408843 57.200093 
L 141.688182 67.985605 
L 144.967521 68.182146 
L 148.24686 48.28407 
L 151.526198 79.067909 
L 154.805537 83.79813 
L 158.084876 83.378649 
L 161.364215 74.300398 
L 164.643554 80.125135 
L 167.922893 59.849198 
L 171.202231 62.111009 
L 174.48157 66.209325 
L 177.760909 50.224524 
L 181.040248 48.084988 
L 184.319587 62.55256 
L 187.598926 62.017989 
L 190.878264 47.06833 
L 194.157603 76.359948 
L 197.436942 46.122563 
L 200.716281 55.671468 
L 203.99562 48.868596 
L 207.274959 38.023198 
L 210.554298 51.311494 
L 213.833636 47.820112 
L 217.112975 73.583802 
L 220.392314 66.609743 
L 223.671653 64.138651 
L 226.950992 54.57426 
L 230.230331 42.309351 
L 233.509669 60.424119 
L 236.789008 34.563816 
L 240.068347 44.853161 
L 243.347686 38.539916 
L 246.627025 47.404345 
L 249.906364 33.012888 
L 253.185702 37.585895 
L 256.465041 68.083075 
L 259.74438 37.088135 
L 263.023719 57.719998 
L 266.303058 75.77491 
L 269.582397 36.1482 
L 272.861736 39.874609 
L 276.141074 38.074012 
L 279.420413 35.637488 
L 282.699752 44.681884 
L 285.979091 67.306698 
L 289.25843 62.788421 
L 292.537769 57.077886 
L 295.817107 43.62859 
L 299.096446 65.168243 
L 302.375785 53.867555 
L 305.655124 47.304151 
L 308.934463 58.164285 
L 312.213802 38.369156 
L 315.49314 41.289789 
L 318.772479 41.34709 
L 322.051818 32.893701 
L 325.331157 39.161453 
L 328.610496 35.013182 
L 331.889835 35.09878 
L 335.169174 52.031755 
L 338.448512 44.732214 
L 341.727851 45.37835 
L 345.00719 48.093854 
L 348.286529 45.260429 
L 351.565868 41.60492 
L 354.845207 42.047532 
L 358.124545 34.8717 
L 361.403884 47.448586 
L 364.683223 37.691239 
L 367.962562 35.107573 
L 371.241901 31.796408 
L 374.52124 34.314129 
L 377.800579 60.69586 
L 381.079917 46.610781 
L 384.359256 34.963285 
L 387.638595 28.50036 
L 390.917934 40.638744 
L 394.197273 34.362074 
" clip-path="url(#p8c066c5504)" style="fill: none; stroke: #dd8452; stroke-width: 1.5; stroke-linecap: round"/>
   </g>
   <g id="line2d_14">
    <path d="M 69.542727 219.271799 
L 72.822066 208.298796 
L 76.101405 178.47439 
L 79.380744 165.501475 
L 82.660083 151.887929 
L 85.939421 132.641136 
L 89.21876 127.303936 
L 92.498099 112.200183 
L 95.777438 97.922748 
L 99.056777 91.930861 
L 102.336116 81.459144 
L 105.615455 82.388307 
L 108.894793 70.288916 
L 112.174132 66.519234 
L 115.453471 64.127804 
L 118.73281 58.760312 
L 122.012149 58.359247 
L 125.291488 55.761301 
L 128.570826 55.800494 
L 131.850165 56.19995 
L 135.129504 51.932041 
L 138.408843 51.131911 
L 141.688182 48.940787 
L 144.967521 49.16517 
L 148.24686 47.938975 
L 151.526198 48.277681 
L 154.805537 45.92657 
L 158.084876 46.606116 
L 161.364215 46.499333 
L 164.643554 45.20932 
L 167.922893 45.330633 
L 171.202231 45.057549 
L 174.48157 46.283564 
L 177.760909 44.847328 
L 181.040248 44.998918 
L 184.319587 43.29649 
L 187.598926 43.148966 
L 190.878264 43.576054 
L 194.157603 43.686333 
L 197.436942 42.362133 
L 200.716281 42.205852 
L 203.99562 39.017171 
L 207.274959 38.248311 
L 210.554298 37.946024 
L 213.833636 37.348636 
L 217.112975 37.353657 
L 220.392314 38.134011 
L 223.671653 37.689942 
L 226.950992 37.464184 
L 230.230331 36.416692 
L 233.509669 38.295148 
L 236.789008 37.618112 
L 240.068347 37.750603 
L 243.347686 36.993641 
L 246.627025 35.42544 
L 249.906364 35.743588 
L 253.185702 35.915165 
L 256.465041 35.531472 
L 259.74438 35.344928 
L 263.023719 34.726727 
L 266.303058 34.520361 
L 269.582397 34.704702 
L 272.861736 33.598617 
L 276.141074 32.557718 
L 279.420413 33.402204 
L 282.699752 32.792872 
L 285.979091 32.89737 
L 289.25843 32.155834 
L 292.537769 32.079614 
L 295.817107 54.613738 
L 299.096446 53.034732 
L 302.375785 53.163397 
L 305.655124 53.137436 
L 308.934463 53.111469 
L 312.213802 51.410712 
L 315.49314 51.119296 
L 318.772479 53.698432 
L 322.051818 53.560175 
L 325.331157 53.709829 
L 328.610496 52.979115 
L 331.889835 52.741827 
L 335.169174 52.987866 
L 338.448512 52.644948 
L 341.727851 50.862386 
L 345.00719 50.765491 
L 348.286529 50.089079 
L 351.565868 49.698663 
L 354.845207 50.72917 
L 358.124545 50.939055 
L 361.403884 51.101254 
L 364.683223 50.502547 
L 367.962562 51.953271 
L 371.241901 52.070729 
L 374.52124 51.680245 
L 377.800579 51.347098 
L 381.079917 51.437994 
L 384.359256 51.070378 
L 387.638595 51.216412 
L 390.917934 50.900739 
L 394.197273 51.084558 
" clip-path="url(#p8c066c5504)" style="fill: none; stroke: #55a868; stroke-width: 1.5; stroke-linecap: round"/>
   </g>
   <g id="line2d_15">
    <path d="M 69.542727 221.327222 
L 72.822066 214.710368 
L 76.101405 206.454527 
L 79.380744 193.104586 
L 82.660083 179.298897 
L 85.939421 170.680297 
L 89.21876 166.461044 
L 92.498099 158.314339 
L 95.777438 155.049047 
L 99.056777 162.774842 
L 102.336116 158.686464 
L 105.615455 148.026332 
L 108.894793 132.390113 
L 112.174132 128.71857 
L 115.453471 118.975243 
L 118.73281 105.057531 
L 122.012149 97.544963 
L 125.291488 89.783936 
L 128.570826 84.903561 
L 131.850165 76.304301 
L 135.129504 74.714941 
L 138.408843 66.917811 
L 141.688182 63.156945 
L 144.967521 63.057701 
L 148.24686 60.149433 
L 151.526198 58.187594 
L 154.805537 54.36897 
L 158.084876 51.599093 
L 161.364215 52.25678 
L 164.643554 50.877243 
L 167.922893 49.427303 
L 171.202231 46.735833 
L 174.48157 43.919382 
L 177.760909 44.008388 
L 181.040248 42.078135 
L 184.319587 42.785756 
L 187.598926 41.268007 
L 190.878264 40.775779 
L 194.157603 40.0008 
L 197.436942 38.308137 
L 200.716281 38.596036 
L 203.99562 38.257744 
L 207.274959 37.338774 
L 210.554298 37.179065 
L 213.833636 35.321611 
L 217.112975 34.503975 
L 220.392314 34.424763 
L 223.671653 33.445651 
L 226.950992 33.601293 
L 230.230331 32.686743 
L 233.509669 32.490683 
L 236.789008 31.800599 
L 240.068347 30.713711 
L 243.347686 30.218942 
L 246.627025 30.118789 
L 249.906364 30.042058 
L 253.185702 29.964808 
L 256.465041 30.098441 
L 259.74438 29.288366 
L 263.023719 28.536028 
L 266.303058 28.617472 
L 269.582397 28.26353 
L 272.861736 28.748422 
L 276.141074 28.790102 
L 279.420413 27.941346 
L 282.699752 28.548814 
L 285.979091 28.248233 
L 289.25843 27.998248 
L 292.537769 27.829339 
L 295.817107 61.593439 
L 299.096446 60.885288 
L 302.375785 60.861542 
L 305.655124 60.368033 
L 308.934463 60.565027 
L 312.213802 60.195811 
L 315.49314 60.015039 
L 318.772479 61.241434 
L 322.051818 60.817133 
L 325.331157 61.083924 
L 328.610496 61.459723 
L 331.889835 60.948419 
L 335.169174 60.848945 
L 338.448512 60.755476 
L 341.727851 60.558608 
L 345.00719 60.176069 
L 348.286529 60.464244 
L 351.565868 60.624695 
L 354.845207 61.606604 
L 358.124545 60.261514 
L 361.403884 61.020446 
L 364.683223 60.718559 
L 367.962562 59.477663 
L 371.241901 60.482539 
L 374.52124 59.315822 
L 377.800579 58.853026 
L 381.079917 58.94005 
L 384.359256 58.640125 
L 387.638595 59.164289 
L 390.917934 59.477647 
L 394.197273 59.38725 
" clip-path="url(#p8c066c5504)" style="fill: none; stroke: #c44e52; stroke-width: 1.5; stroke-linecap: round"/>
   </g>
   <g id="line2d_16">
    <path d="M 69.542727 210.325062 
L 72.822066 205.55135 
L 76.101405 204.809196 
L 79.380744 197.504821 
L 82.660083 184.218044 
L 85.939421 182.255979 
L 89.21876 176.46542 
L 92.498099 173.398714 
L 95.777438 166.41341 
L 99.056777 161.36635 
L 102.336116 154.687212 
L 105.615455 150.909855 
L 108.894793 145.820761 
L 112.174132 141.681434 
L 115.453471 143.894679 
L 118.73281 142.839009 
L 122.012149 141.090518 
L 125.291488 137.926477 
L 128.570826 131.260177 
L 131.850165 129.702462 
L 135.129504 127.776305 
L 138.408843 126.714712 
L 141.688182 125.658478 
L 144.967521 121.871747 
L 148.24686 119.519141 
L 151.526198 117.330491 
L 154.805537 113.936835 
L 158.084876 113.757673 
L 161.364215 112.810116 
L 164.643554 109.054693 
L 167.922893 104.821046 
L 171.202231 105.372461 
L 174.48157 98.839599 
L 177.760909 98.271752 
L 181.040248 97.084817 
L 184.319587 94.762218 
L 187.598926 91.444917 
L 190.878264 90.575016 
L 194.157603 90.772437 
L 197.436942 89.214977 
L 200.716281 89.503869 
L 203.99562 89.389253 
L 207.274959 88.438119 
L 210.554298 88.366958 
L 213.833636 87.98576 
L 217.112975 79.435284 
L 220.392314 78.562249 
L 223.671653 77.611558 
L 226.950992 73.546579 
L 230.230331 72.503417 
L 233.509669 72.171236 
L 236.789008 72.873618 
L 240.068347 72.654293 
L 243.347686 72.538783 
L 246.627025 72.450281 
L 249.906364 71.453151 
L 253.185702 70.073644 
L 256.465041 69.477977 
L 259.74438 68.51907 
L 263.023719 68.230464 
L 266.303058 68.084767 
L 269.582397 67.077835 
L 272.861736 67.026766 
L 276.141074 66.798174 
L 279.420413 66.665345 
L 282.699752 66.215218 
L 285.979091 64.497012 
L 289.25843 64.178963 
L 292.537769 62.339587 
L 295.817107 92.442371 
L 299.096446 92.525364 
L 302.375785 92.193838 
L 305.655124 92.148892 
L 308.934463 92.084578 
L 312.213802 92.000422 
L 315.49314 91.777756 
L 318.772479 91.745675 
L 322.051818 91.763912 
L 325.331157 91.772946 
L 328.610496 91.755598 
L 331.889835 91.518578 
L 335.169174 90.913894 
L 338.448512 90.437054 
L 341.727851 90.390672 
L 345.00719 90.386847 
L 348.286529 90.429093 
L 351.565868 90.07099 
L 354.845207 90.157082 
L 358.124545 89.890144 
L 361.403884 89.81438 
L 364.683223 89.393751 
L 367.962562 88.818943 
L 371.241901 88.618124 
L 374.52124 88.169508 
L 377.800579 87.471691 
L 381.079917 87.277427 
L 384.359256 86.33998 
L 387.638595 86.460679 
L 390.917934 86.300501 
L 394.197273 86.00215 
" clip-path="url(#p8c066c5504)" style="fill: none; stroke: #8172b3; stroke-width: 1.5; stroke-linecap: round"/>
   </g>
   <g id="line2d_17"/>
   <g id="line2d_18"/>
   <g id="line2d_19"/>
   <g id="line2d_20"/>
   <g id="line2d_21"/>
   <g id="patch_3">
    <path d="M 53.31 273.312 
L 53.31 7.2 
" style="fill: none; stroke: #cccccc; stroke-width: 1.25; stroke-linejoin: miter; stroke-linecap: square"/>
   </g>
   <g id="patch_4">
    <path d="M 410.43 273.312 
L 410.43 7.2 
" style="fill: none; stroke: #cccccc; stroke-width: 1.25; stroke-linejoin: miter; stroke-linecap: square"/>
   </g>
   <g id="patch_5">
    <path d="M 53.31 273.312 
L 410.43 273.312 
" style="fill: none; stroke: #cccccc; stroke-width: 1.25; stroke-linejoin: miter; stroke-linecap: square"/>
   </g>
   <g id="patch_6">
    <path d="M 53.31 7.2 
L 410.43 7.2 
" style="fill: none; stroke: #cccccc; stroke-width: 1.25; stroke-linejoin: miter; stroke-linecap: square"/>
   </g>
   <g id="legend_1">
    <g id="patch_7">
     <path d="M 298.745625 267.812 
L 402.73 267.812 
Q 404.93 267.812 404.93 265.612 
L 404.93 168.868562 
Q 404.93 166.668562 402.73 166.668562 
L 298.745625 166.668562 
Q 296.545625 166.668562 296.545625 168.868562 
L 296.545625 265.612 
Q 296.545625 267.812 298.745625 267.812 
z
" style="fill: #ffffff; opacity: 0.8; stroke: #cccccc; stroke-linejoin: miter"/>
    </g>
    <g id="text_14">
     <!-- Strategy -->
     <g style="fill: #262626" transform="translate(325.02875 180.186687) scale(0.12 -0.12)">
      <defs>
       <path id="DejaVuSans-53" d="M 3425 4513 
L 3425 3897 
Q 3066 4069 2747 4153 
Q 2428 4238 2131 4238 
Q 1616 4238 1336 4038 
Q 1056 3838 1056 3469 
Q 1056 3159 1242 3001 
Q 1428 2844 1947 2747 
L 2328 2669 
Q 3034 2534 3370 2195 
Q 3706 1856 3706 1288 
Q 3706 609 3251 259 
Q 2797 -91 1919 -91 
Q 1588 -91 1214 -16 
Q 841 59 441 206 
L 441 856 
Q 825 641 1194 531 
Q 1563 422 1919 422 
Q 2459 422 2753 634 
Q 3047 847 3047 1241 
Q 3047 1584 2836 1778 
Q 2625 1972 2144 2069 
L 1759 2144 
Q 1053 2284 737 2584 
Q 422 2884 422 3419 
Q 422 4038 858 4394 
Q 1294 4750 2059 4750 
Q 2388 4750 2728 4690 
Q 3069 4631 3425 4513 
z
" transform="scale(0.015625)"/>
       <path id="DejaVuSans-74" d="M 1172 4494 
L 1172 3500 
L 2356 3500 
L 2356 3053 
L 1172 3053 
L 1172 1153 
Q 1172 725 1289 603 
Q 1406 481 1766 481 
L 2356 481 
L 2356 0 
L 1766 0 
Q 1100 0 847 248 
Q 594 497 594 1153 
L 594 3053 
L 172 3053 
L 172 3500 
L 594 3500 
L 594 4494 
L 1172 4494 
z
" transform="scale(0.015625)"/>
       <path id="DejaVuSans-65" d="M 3597 1894 
L 3597 1613 
L 953 1613 
Q 991 1019 1311 708 
Q 1631 397 2203 397 
Q 2534 397 2845 478 
Q 3156 559 3463 722 
L 3463 178 
Q 3153 47 2828 -22 
Q 2503 -91 2169 -91 
Q 1331 -91 842 396 
Q 353 884 353 1716 
Q 353 2575 817 3079 
Q 1281 3584 2069 3584 
Q 2775 3584 3186 3129 
Q 3597 2675 3597 1894 
z
M 3022 2063 
Q 3016 2534 2758 2815 
Q 2500 3097 2075 3097 
Q 1594 3097 1305 2825 
Q 1016 2553 972 2059 
L 3022 2063 
z
" transform="scale(0.015625)"/>
       <path id="DejaVuSans-67" d="M 2906 1791 
Q 2906 2416 2648 2759 
Q 2391 3103 1925 3103 
Q 1463 3103 1205 2759 
Q 947 2416 947 1791 
Q 947 1169 1205 825 
Q 1463 481 1925 481 
Q 2391 481 2648 825 
Q 2906 1169 2906 1791 
z
M 3481 434 
Q 3481 -459 3084 -895 
Q 2688 -1331 1869 -1331 
Q 1566 -1331 1297 -1286 
Q 1028 -1241 775 -1147 
L 775 -588 
Q 1028 -725 1275 -790 
Q 1522 -856 1778 -856 
Q 2344 -856 2625 -561 
Q 2906 -266 2906 331 
L 2906 616 
Q 2728 306 2450 153 
Q 2172 0 1784 0 
Q 1141 0 747 490 
Q 353 981 353 1791 
Q 353 2603 747 3093 
Q 1141 3584 1784 3584 
Q 2172 3584 2450 3431 
Q 2728 3278 2906 2969 
L 2906 3500 
L 3481 3500 
L 3481 434 
z
" transform="scale(0.015625)"/>
      </defs>
      <use xlink:href="#DejaVuSans-53"/>
      <use xlink:href="#DejaVuSans-74" x="63.476562"/>
      <use xlink:href="#DejaVuSans-72" x="102.685547"/>
      <use xlink:href="#DejaVuSans-61" x="143.798828"/>
      <use xlink:href="#DejaVuSans-74" x="205.078125"/>
      <use xlink:href="#DejaVuSans-65" x="244.287109"/>
      <use xlink:href="#DejaVuSans-67" x="305.810547"/>
      <use xlink:href="#DejaVuSans-79" x="369.287109"/>
     </g>
    </g>
    <g id="line2d_22">
     <path d="M 300.945625 192.690594 
L 311.945625 192.690594 
L 322.945625 192.690594 
" style="fill: none; stroke: #4c72b0; stroke-width: 1.5; stroke-linecap: round"/>
    </g>
    <g id="text_15">
     <!-- FedPredict -->
     <g style="fill: #262626" transform="translate(331.745625 196.540594) scale(0.11 -0.11)">
      <defs>
       <path id="DejaVuSans-46" d="M 628 4666 
L 3309 4666 
L 3309 4134 
L 1259 4134 
L 1259 2759 
L 3109 2759 
L 3109 2228 
L 1259 2228 
L 1259 0 
L 628 0 
L 628 4666 
z
" transform="scale(0.015625)"/>
       <path id="DejaVuSans-50" d="M 1259 4147 
L 1259 2394 
L 2053 2394 
Q 2494 2394 2734 2622 
Q 2975 2850 2975 3272 
Q 2975 3691 2734 3919 
Q 2494 4147 2053 4147 
L 1259 4147 
z
M 628 4666 
L 2053 4666 
Q 2838 4666 3239 4311 
Q 3641 3956 3641 3272 
Q 3641 2581 3239 2228 
Q 2838 1875 2053 1875 
L 1259 1875 
L 1259 0 
L 628 0 
L 628 4666 
z
" transform="scale(0.015625)"/>
       <path id="DejaVuSans-69" d="M 603 3500 
L 1178 3500 
L 1178 0 
L 603 0 
L 603 3500 
z
M 603 4863 
L 1178 4863 
L 1178 4134 
L 603 4134 
L 603 4863 
z
" transform="scale(0.015625)"/>
      </defs>
      <use xlink:href="#DejaVuSans-46"/>
      <use xlink:href="#DejaVuSans-65" x="52.019531"/>
      <use xlink:href="#DejaVuSans-64" x="113.542969"/>
      <use xlink:href="#DejaVuSans-50" x="177.019531"/>
      <use xlink:href="#DejaVuSans-72" x="235.572266"/>
      <use xlink:href="#DejaVuSans-65" x="274.435547"/>
      <use xlink:href="#DejaVuSans-64" x="335.958984"/>
      <use xlink:href="#DejaVuSans-69" x="399.435547"/>
      <use xlink:href="#DejaVuSans-63" x="427.21875"/>
      <use xlink:href="#DejaVuSans-74" x="482.199219"/>
     </g>
    </g>
    <g id="line2d_23">
     <path d="M 300.945625 208.836531 
L 311.945625 208.836531 
L 322.945625 208.836531 
" style="fill: none; stroke: #dd8452; stroke-width: 1.5; stroke-linecap: round"/>
    </g>
    <g id="text_16">
     <!-- FedAVG -->
     <g style="fill: #262626" transform="translate(331.745625 212.686531) scale(0.11 -0.11)">
      <defs>
       <path id="DejaVuSans-56" d="M 1831 0 
L 50 4666 
L 709 4666 
L 2188 738 
L 3669 4666 
L 4325 4666 
L 2547 0 
L 1831 0 
z
" transform="scale(0.015625)"/>
       <path id="DejaVuSans-47" d="M 3809 666 
L 3809 1919 
L 2778 1919 
L 2778 2438 
L 4434 2438 
L 4434 434 
Q 4069 175 3628 42 
Q 3188 -91 2688 -91 
Q 1594 -91 976 548 
Q 359 1188 359 2328 
Q 359 3472 976 4111 
Q 1594 4750 2688 4750 
Q 3144 4750 3555 4637 
Q 3966 4525 4313 4306 
L 4313 3634 
Q 3963 3931 3569 4081 
Q 3175 4231 2741 4231 
Q 1884 4231 1454 3753 
Q 1025 3275 1025 2328 
Q 1025 1384 1454 906 
Q 1884 428 2741 428 
Q 3075 428 3337 486 
Q 3600 544 3809 666 
z
" transform="scale(0.015625)"/>
      </defs>
      <use xlink:href="#DejaVuSans-46"/>
      <use xlink:href="#DejaVuSans-65" x="52.019531"/>
      <use xlink:href="#DejaVuSans-64" x="113.542969"/>
      <use xlink:href="#DejaVuSans-41" x="177.019531"/>
      <use xlink:href="#DejaVuSans-56" x="239.052734"/>
      <use xlink:href="#DejaVuSans-47" x="307.460938"/>
     </g>
    </g>
    <g id="line2d_24">
     <path d="M 300.945625 224.982469 
L 311.945625 224.982469 
L 322.945625 224.982469 
" style="fill: none; stroke: #55a868; stroke-width: 1.5; stroke-linecap: round"/>
    </g>
    <g id="text_17">
     <!-- FedClassAvg -->
     <g style="fill: #262626" transform="translate(331.745625 228.832469) scale(0.11 -0.11)">
      <defs>
       <path id="DejaVuSans-43" d="M 4122 4306 
L 4122 3641 
Q 3803 3938 3442 4084 
Q 3081 4231 2675 4231 
Q 1875 4231 1450 3742 
Q 1025 3253 1025 2328 
Q 1025 1406 1450 917 
Q 1875 428 2675 428 
Q 3081 428 3442 575 
Q 3803 722 4122 1019 
L 4122 359 
Q 3791 134 3420 21 
Q 3050 -91 2638 -91 
Q 1578 -91 968 557 
Q 359 1206 359 2328 
Q 359 3453 968 4101 
Q 1578 4750 2638 4750 
Q 3056 4750 3426 4639 
Q 3797 4528 4122 4306 
z
" transform="scale(0.015625)"/>
       <path id="DejaVuSans-6c" d="M 603 4863 
L 1178 4863 
L 1178 0 
L 603 0 
L 603 4863 
z
" transform="scale(0.015625)"/>
       <path id="DejaVuSans-73" d="M 2834 3397 
L 2834 2853 
Q 2591 2978 2328 3040 
Q 2066 3103 1784 3103 
Q 1356 3103 1142 2972 
Q 928 2841 928 2578 
Q 928 2378 1081 2264 
Q 1234 2150 1697 2047 
L 1894 2003 
Q 2506 1872 2764 1633 
Q 3022 1394 3022 966 
Q 3022 478 2636 193 
Q 2250 -91 1575 -91 
Q 1294 -91 989 -36 
Q 684 19 347 128 
L 347 722 
Q 666 556 975 473 
Q 1284 391 1588 391 
Q 1994 391 2212 530 
Q 2431 669 2431 922 
Q 2431 1156 2273 1281 
Q 2116 1406 1581 1522 
L 1381 1569 
Q 847 1681 609 1914 
Q 372 2147 372 2553 
Q 372 3047 722 3315 
Q 1072 3584 1716 3584 
Q 2034 3584 2315 3537 
Q 2597 3491 2834 3397 
z
" transform="scale(0.015625)"/>
       <path id="DejaVuSans-76" d="M 191 3500 
L 800 3500 
L 1894 563 
L 2988 3500 
L 3597 3500 
L 2284 0 
L 1503 0 
L 191 3500 
z
" transform="scale(0.015625)"/>
      </defs>
      <use xlink:href="#DejaVuSans-46"/>
      <use xlink:href="#DejaVuSans-65" x="52.019531"/>
      <use xlink:href="#DejaVuSans-64" x="113.542969"/>
      <use xlink:href="#DejaVuSans-43" x="177.019531"/>
      <use xlink:href="#DejaVuSans-6c" x="246.84375"/>
      <use xlink:href="#DejaVuSans-61" x="274.626953"/>
      <use xlink:href="#DejaVuSans-73" x="335.90625"/>
      <use xlink:href="#DejaVuSans-73" x="388.005859"/>
      <use xlink:href="#DejaVuSans-41" x="440.105469"/>
      <use xlink:href="#DejaVuSans-76" x="502.638672"/>
      <use xlink:href="#DejaVuSans-67" x="561.818359"/>
     </g>
    </g>
    <g id="line2d_25">
     <path d="M 300.945625 241.128406 
L 311.945625 241.128406 
L 322.945625 241.128406 
" style="fill: none; stroke: #c44e52; stroke-width: 1.5; stroke-linecap: round"/>
    </g>
    <g id="text_18">
     <!-- FedPer -->
     <g style="fill: #262626" transform="translate(331.745625 244.978406) scale(0.11 -0.11)">
      <use xlink:href="#DejaVuSans-46"/>
      <use xlink:href="#DejaVuSans-65" x="52.019531"/>
      <use xlink:href="#DejaVuSans-64" x="113.542969"/>
      <use xlink:href="#DejaVuSans-50" x="177.019531"/>
      <use xlink:href="#DejaVuSans-65" x="233.697266"/>
      <use xlink:href="#DejaVuSans-72" x="295.220703"/>
     </g>
    </g>
    <g id="line2d_26">
     <path d="M 300.945625 257.274344 
L 311.945625 257.274344 
L 322.945625 257.274344 
" style="fill: none; stroke: #8172b3; stroke-width: 1.5; stroke-linecap: round"/>
    </g>
    <g id="text_19">
     <!-- FedProto -->
     <g style="fill: #262626" transform="translate(331.745625 261.124344) scale(0.11 -0.11)">
      <use xlink:href="#DejaVuSans-46"/>
      <use xlink:href="#DejaVuSans-65" x="52.019531"/>
      <use xlink:href="#DejaVuSans-64" x="113.542969"/>
      <use xlink:href="#DejaVuSans-50" x="177.019531"/>
      <use xlink:href="#DejaVuSans-72" x="235.572266"/>
      <use xlink:href="#DejaVuSans-6f" x="274.435547"/>
      <use xlink:href="#DejaVuSans-74" x="335.617188"/>
      <use xlink:href="#DejaVuSans-6f" x="374.826172"/>
     </g>
    </g>
   </g>
  </g>
 </g>
 <defs>
  <clipPath id="p8c066c5504">
   <rect x="53.31" y="7.2" width="357.12" height="266.112"/>
  </clipPath>
 </defs>
</svg>
