<?xml version="1.0" encoding="utf-8" standalone="no"?>
<!DOCTYPE svg PUBLIC "-//W3C//DTD SVG 1.1//EN"
  "http://www.w3.org/Graphics/SVG/1.1/DTD/svg11.dtd">
<svg xmlns:xlink="http://www.w3.org/1999/xlink" width="417.63pt" height="316.271687pt" viewBox="0 0 417.63 316.271687" xmlns="http://www.w3.org/2000/svg" version="1.1">
 <metadata>
  <rdf:RDF xmlns:dc="http://purl.org/dc/elements/1.1/" xmlns:cc="http://creativecommons.org/ns#" xmlns:rdf="http://www.w3.org/1999/02/22-rdf-syntax-ns#">
   <cc:Work>
    <dc:type rdf:resource="http://purl.org/dc/dcmitype/StillImage"/>
    <dc:date>2023-02-10T23:39:01.645581</dc:date>
    <dc:format>image/svg+xml</dc:format>
    <dc:creator>
     <cc:Agent>
      <dc:title>Matplotlib v3.6.3, https://matplotlib.org/</dc:title>
     </cc:Agent>
    </dc:creator>
   </cc:Work>
  </rdf:RDF>
 </metadata>
 <defs>
  <style type="text/css">*{stroke-linejoin: round; stroke-linecap: butt}</style>
 </defs>
 <g id="figure_1">
  <g id="patch_1">
   <path d="M 0 316.271687 
L 417.63 316.271687 
L 417.63 0 
L 0 0 
z
" style="fill: #ffffff"/>
  </g>
  <g id="axes_1">
   <g id="patch_2">
    <path d="M 53.31 273.312 
L 410.43 273.312 
L 410.43 7.2 
L 53.31 7.2 
z
" style="fill: #ffffff"/>
   </g>
   <g id="matplotlib.axis_1">
    <g id="xtick_1">
     <g id="line2d_1">
      <path d="M 66.263388 273.312 
L 66.263388 7.2 
" clip-path="url(#p0e741c804e)" style="fill: none; stroke: #cccccc; stroke-linecap: round"/>
     </g>
     <g id="text_1">
      <!-- 0 -->
      <g style="fill: #262626" transform="translate(62.764013 291.170281) scale(0.11 -0.11)">
       <defs>
        <path id="DejaVuSans-30" d="M 2034 4250 
Q 1547 4250 1301 3770 
Q 1056 3291 1056 2328 
Q 1056 1369 1301 889 
Q 1547 409 2034 409 
Q 2525 409 2770 889 
Q 3016 1369 3016 2328 
Q 3016 3291 2770 3770 
Q 2525 4250 2034 4250 
z
M 2034 4750 
Q 2819 4750 3233 4129 
Q 3647 3509 3647 2328 
Q 3647 1150 3233 529 
Q 2819 -91 2034 -91 
Q 1250 -91 836 529 
Q 422 1150 422 2328 
Q 422 3509 836 4129 
Q 1250 4750 2034 4750 
z
" transform="scale(0.015625)"/>
       </defs>
       <use xlink:href="#DejaVuSans-30"/>
      </g>
     </g>
    </g>
    <g id="xtick_2">
     <g id="line2d_2">
      <path d="M 131.850165 273.312 
L 131.850165 7.2 
" clip-path="url(#p0e741c804e)" style="fill: none; stroke: #cccccc; stroke-linecap: round"/>
     </g>
     <g id="text_2">
      <!-- 20 -->
      <g style="fill: #262626" transform="translate(124.851415 291.170281) scale(0.11 -0.11)">
       <defs>
        <path id="DejaVuSans-32" d="M 1228 531 
L 3431 531 
L 3431 0 
L 469 0 
L 469 531 
Q 828 903 1448 1529 
Q 2069 2156 2228 2338 
Q 2531 2678 2651 2914 
Q 2772 3150 2772 3378 
Q 2772 3750 2511 3984 
Q 2250 4219 1831 4219 
Q 1534 4219 1204 4116 
Q 875 4013 500 3803 
L 500 4441 
Q 881 4594 1212 4672 
Q 1544 4750 1819 4750 
Q 2544 4750 2975 4387 
Q 3406 4025 3406 3419 
Q 3406 3131 3298 2873 
Q 3191 2616 2906 2266 
Q 2828 2175 2409 1742 
Q 1991 1309 1228 531 
z
" transform="scale(0.015625)"/>
       </defs>
       <use xlink:href="#DejaVuSans-32"/>
       <use xlink:href="#DejaVuSans-30" x="63.623047"/>
      </g>
     </g>
    </g>
    <g id="xtick_3">
     <g id="line2d_3">
      <path d="M 197.436942 273.312 
L 197.436942 7.2 
" clip-path="url(#p0e741c804e)" style="fill: none; stroke: #cccccc; stroke-linecap: round"/>
     </g>
     <g id="text_3">
      <!-- 40 -->
      <g style="fill: #262626" transform="translate(190.438192 291.170281) scale(0.11 -0.11)">
       <defs>
        <path id="DejaVuSans-34" d="M 2419 4116 
L 825 1625 
L 2419 1625 
L 2419 4116 
z
M 2253 4666 
L 3047 4666 
L 3047 1625 
L 3713 1625 
L 3713 1100 
L 3047 1100 
L 3047 0 
L 2419 0 
L 2419 1100 
L 313 1100 
L 313 1709 
L 2253 4666 
z
" transform="scale(0.015625)"/>
       </defs>
       <use xlink:href="#DejaVuSans-34"/>
       <use xlink:href="#DejaVuSans-30" x="63.623047"/>
      </g>
     </g>
    </g>
    <g id="xtick_4">
     <g id="line2d_4">
      <path d="M 263.023719 273.312 
L 263.023719 7.2 
" clip-path="url(#p0e741c804e)" style="fill: none; stroke: #cccccc; stroke-linecap: round"/>
     </g>
     <g id="text_4">
      <!-- 60 -->
      <g style="fill: #262626" transform="translate(256.024969 291.170281) scale(0.11 -0.11)">
       <defs>
        <path id="DejaVuSans-36" d="M 2113 2584 
Q 1688 2584 1439 2293 
Q 1191 2003 1191 1497 
Q 1191 994 1439 701 
Q 1688 409 2113 409 
Q 2538 409 2786 701 
Q 3034 994 3034 1497 
Q 3034 2003 2786 2293 
Q 2538 2584 2113 2584 
z
M 3366 4563 
L 3366 3988 
Q 3128 4100 2886 4159 
Q 2644 4219 2406 4219 
Q 1781 4219 1451 3797 
Q 1122 3375 1075 2522 
Q 1259 2794 1537 2939 
Q 1816 3084 2150 3084 
Q 2853 3084 3261 2657 
Q 3669 2231 3669 1497 
Q 3669 778 3244 343 
Q 2819 -91 2113 -91 
Q 1303 -91 875 529 
Q 447 1150 447 2328 
Q 447 3434 972 4092 
Q 1497 4750 2381 4750 
Q 2619 4750 2861 4703 
Q 3103 4656 3366 4563 
z
" transform="scale(0.015625)"/>
       </defs>
       <use xlink:href="#DejaVuSans-36"/>
       <use xlink:href="#DejaVuSans-30" x="63.623047"/>
      </g>
     </g>
    </g>
    <g id="xtick_5">
     <g id="line2d_5">
      <path d="M 328.610496 273.312 
L 328.610496 7.2 
" clip-path="url(#p0e741c804e)" style="fill: none; stroke: #cccccc; stroke-linecap: round"/>
     </g>
     <g id="text_5">
      <!-- 80 -->
      <g style="fill: #262626" transform="translate(321.611746 291.170281) scale(0.11 -0.11)">
       <defs>
        <path id="DejaVuSans-38" d="M 2034 2216 
Q 1584 2216 1326 1975 
Q 1069 1734 1069 1313 
Q 1069 891 1326 650 
Q 1584 409 2034 409 
Q 2484 409 2743 651 
Q 3003 894 3003 1313 
Q 3003 1734 2745 1975 
Q 2488 2216 2034 2216 
z
M 1403 2484 
Q 997 2584 770 2862 
Q 544 3141 544 3541 
Q 544 4100 942 4425 
Q 1341 4750 2034 4750 
Q 2731 4750 3128 4425 
Q 3525 4100 3525 3541 
Q 3525 3141 3298 2862 
Q 3072 2584 2669 2484 
Q 3125 2378 3379 2068 
Q 3634 1759 3634 1313 
Q 3634 634 3220 271 
Q 2806 -91 2034 -91 
Q 1263 -91 848 271 
Q 434 634 434 1313 
Q 434 1759 690 2068 
Q 947 2378 1403 2484 
z
M 1172 3481 
Q 1172 3119 1398 2916 
Q 1625 2713 2034 2713 
Q 2441 2713 2670 2916 
Q 2900 3119 2900 3481 
Q 2900 3844 2670 4047 
Q 2441 4250 2034 4250 
Q 1625 4250 1398 4047 
Q 1172 3844 1172 3481 
z
" transform="scale(0.015625)"/>
       </defs>
       <use xlink:href="#DejaVuSans-38"/>
       <use xlink:href="#DejaVuSans-30" x="63.623047"/>
      </g>
     </g>
    </g>
    <g id="xtick_6">
     <g id="line2d_6">
      <path d="M 394.197273 273.312 
L 394.197273 7.2 
" clip-path="url(#p0e741c804e)" style="fill: none; stroke: #cccccc; stroke-linecap: round"/>
     </g>
     <g id="text_6">
      <!-- 100 -->
      <g style="fill: #262626" transform="translate(383.699148 291.170281) scale(0.11 -0.11)">
       <defs>
        <path id="DejaVuSans-31" d="M 794 531 
L 1825 531 
L 1825 4091 
L 703 3866 
L 703 4441 
L 1819 4666 
L 2450 4666 
L 2450 531 
L 3481 531 
L 3481 0 
L 794 0 
L 794 531 
z
" transform="scale(0.015625)"/>
       </defs>
       <use xlink:href="#DejaVuSans-31"/>
       <use xlink:href="#DejaVuSans-30" x="63.623047"/>
       <use xlink:href="#DejaVuSans-30" x="127.246094"/>
      </g>
     </g>
    </g>
    <g id="text_7">
     <!-- Round -->
     <g style="fill: #262626" transform="translate(212.885625 306.576062) scale(0.12 -0.12)">
      <defs>
       <path id="DejaVuSans-52" d="M 2841 2188 
Q 3044 2119 3236 1894 
Q 3428 1669 3622 1275 
L 4263 0 
L 3584 0 
L 2988 1197 
Q 2756 1666 2539 1819 
Q 2322 1972 1947 1972 
L 1259 1972 
L 1259 0 
L 628 0 
L 628 4666 
L 2053 4666 
Q 2853 4666 3247 4331 
Q 3641 3997 3641 3322 
Q 3641 2881 3436 2590 
Q 3231 2300 2841 2188 
z
M 1259 4147 
L 1259 2491 
L 2053 2491 
Q 2509 2491 2742 2702 
Q 2975 2913 2975 3322 
Q 2975 3731 2742 3939 
Q 2509 4147 2053 4147 
L 1259 4147 
z
" transform="scale(0.015625)"/>
       <path id="DejaVuSans-6f" d="M 1959 3097 
Q 1497 3097 1228 2736 
Q 959 2375 959 1747 
Q 959 1119 1226 758 
Q 1494 397 1959 397 
Q 2419 397 2687 759 
Q 2956 1122 2956 1747 
Q 2956 2369 2687 2733 
Q 2419 3097 1959 3097 
z
M 1959 3584 
Q 2709 3584 3137 3096 
Q 3566 2609 3566 1747 
Q 3566 888 3137 398 
Q 2709 -91 1959 -91 
Q 1206 -91 779 398 
Q 353 888 353 1747 
Q 353 2609 779 3096 
Q 1206 3584 1959 3584 
z
" transform="scale(0.015625)"/>
       <path id="DejaVuSans-75" d="M 544 1381 
L 544 3500 
L 1119 3500 
L 1119 1403 
Q 1119 906 1312 657 
Q 1506 409 1894 409 
Q 2359 409 2629 706 
Q 2900 1003 2900 1516 
L 2900 3500 
L 3475 3500 
L 3475 0 
L 2900 0 
L 2900 538 
Q 2691 219 2414 64 
Q 2138 -91 1772 -91 
Q 1169 -91 856 284 
Q 544 659 544 1381 
z
M 1991 3584 
L 1991 3584 
z
" transform="scale(0.015625)"/>
       <path id="DejaVuSans-6e" d="M 3513 2113 
L 3513 0 
L 2938 0 
L 2938 2094 
Q 2938 2591 2744 2837 
Q 2550 3084 2163 3084 
Q 1697 3084 1428 2787 
Q 1159 2491 1159 1978 
L 1159 0 
L 581 0 
L 581 3500 
L 1159 3500 
L 1159 2956 
Q 1366 3272 1645 3428 
Q 1925 3584 2291 3584 
Q 2894 3584 3203 3211 
Q 3513 2838 3513 2113 
z
" transform="scale(0.015625)"/>
       <path id="DejaVuSans-64" d="M 2906 2969 
L 2906 4863 
L 3481 4863 
L 3481 0 
L 2906 0 
L 2906 525 
Q 2725 213 2448 61 
Q 2172 -91 1784 -91 
Q 1150 -91 751 415 
Q 353 922 353 1747 
Q 353 2572 751 3078 
Q 1150 3584 1784 3584 
Q 2172 3584 2448 3432 
Q 2725 3281 2906 2969 
z
M 947 1747 
Q 947 1113 1208 752 
Q 1469 391 1925 391 
Q 2381 391 2643 752 
Q 2906 1113 2906 1747 
Q 2906 2381 2643 2742 
Q 2381 3103 1925 3103 
Q 1469 3103 1208 2742 
Q 947 2381 947 1747 
z
" transform="scale(0.015625)"/>
      </defs>
      <use xlink:href="#DejaVuSans-52"/>
      <use xlink:href="#DejaVuSans-6f" x="64.982422"/>
      <use xlink:href="#DejaVuSans-75" x="126.164062"/>
      <use xlink:href="#DejaVuSans-6e" x="189.542969"/>
      <use xlink:href="#DejaVuSans-64" x="252.921875"/>
     </g>
    </g>
   </g>
   <g id="matplotlib.axis_2">
    <g id="ytick_1">
     <g id="line2d_7">
      <path d="M 53.31 228.484327 
L 410.43 228.484327 
" clip-path="url(#p0e741c804e)" style="fill: none; stroke: #cccccc; stroke-linecap: round"/>
     </g>
     <g id="text_8">
      <!-- 20 -->
      <g style="fill: #262626" transform="translate(29.8125 232.663468) scale(0.11 -0.11)">
       <use xlink:href="#DejaVuSans-32"/>
       <use xlink:href="#DejaVuSans-30" x="63.623047"/>
      </g>
     </g>
    </g>
    <g id="ytick_2">
     <g id="line2d_8">
      <path d="M 53.31 175.450479 
L 410.43 175.450479 
" clip-path="url(#p0e741c804e)" style="fill: none; stroke: #cccccc; stroke-linecap: round"/>
     </g>
     <g id="text_9">
      <!-- 40 -->
      <g style="fill: #262626" transform="translate(29.8125 179.62962) scale(0.11 -0.11)">
       <use xlink:href="#DejaVuSans-34"/>
       <use xlink:href="#DejaVuSans-30" x="63.623047"/>
      </g>
     </g>
    </g>
    <g id="ytick_3">
     <g id="line2d_9">
      <path d="M 53.31 122.416631 
L 410.43 122.416631 
" clip-path="url(#p0e741c804e)" style="fill: none; stroke: #cccccc; stroke-linecap: round"/>
     </g>
     <g id="text_10">
      <!-- 60 -->
      <g style="fill: #262626" transform="translate(29.8125 126.595772) scale(0.11 -0.11)">
       <use xlink:href="#DejaVuSans-36"/>
       <use xlink:href="#DejaVuSans-30" x="63.623047"/>
      </g>
     </g>
    </g>
    <g id="ytick_4">
     <g id="line2d_10">
      <path d="M 53.31 69.382783 
L 410.43 69.382783 
" clip-path="url(#p0e741c804e)" style="fill: none; stroke: #cccccc; stroke-linecap: round"/>
     </g>
     <g id="text_11">
      <!-- 80 -->
      <g style="fill: #262626" transform="translate(29.8125 73.561923) scale(0.11 -0.11)">
       <use xlink:href="#DejaVuSans-38"/>
       <use xlink:href="#DejaVuSans-30" x="63.623047"/>
      </g>
     </g>
    </g>
    <g id="ytick_5">
     <g id="line2d_11">
      <path d="M 53.31 16.348935 
L 410.43 16.348935 
" clip-path="url(#p0e741c804e)" style="fill: none; stroke: #cccccc; stroke-linecap: round"/>
     </g>
     <g id="text_12">
      <!-- 100 -->
      <g style="fill: #262626" transform="translate(22.81375 20.528075) scale(0.11 -0.11)">
       <use xlink:href="#DejaVuSans-31"/>
       <use xlink:href="#DejaVuSans-30" x="63.623047"/>
       <use xlink:href="#DejaVuSans-30" x="127.246094"/>
      </g>
     </g>
    </g>
    <g id="text_13">
     <!-- Accuracy (%) -->
     <g style="fill: #262626" transform="translate(16.318125 179.939437) rotate(-90) scale(0.12 -0.12)">
      <defs>
       <path id="DejaVuSans-41" d="M 2188 4044 
L 1331 1722 
L 3047 1722 
L 2188 4044 
z
M 1831 4666 
L 2547 4666 
L 4325 0 
L 3669 0 
L 3244 1197 
L 1141 1197 
L 716 0 
L 50 0 
L 1831 4666 
z
" transform="scale(0.015625)"/>
       <path id="DejaVuSans-63" d="M 3122 3366 
L 3122 2828 
Q 2878 2963 2633 3030 
Q 2388 3097 2138 3097 
Q 1578 3097 1268 2742 
Q 959 2388 959 1747 
Q 959 1106 1268 751 
Q 1578 397 2138 397 
Q 2388 397 2633 464 
Q 2878 531 3122 666 
L 3122 134 
Q 2881 22 2623 -34 
Q 2366 -91 2075 -91 
Q 1284 -91 818 406 
Q 353 903 353 1747 
Q 353 2603 823 3093 
Q 1294 3584 2113 3584 
Q 2378 3584 2631 3529 
Q 2884 3475 3122 3366 
z
" transform="scale(0.015625)"/>
       <path id="DejaVuSans-72" d="M 2631 2963 
Q 2534 3019 2420 3045 
Q 2306 3072 2169 3072 
Q 1681 3072 1420 2755 
Q 1159 2438 1159 1844 
L 1159 0 
L 581 0 
L 581 3500 
L 1159 3500 
L 1159 2956 
Q 1341 3275 1631 3429 
Q 1922 3584 2338 3584 
Q 2397 3584 2469 3576 
Q 2541 3569 2628 3553 
L 2631 2963 
z
" transform="scale(0.015625)"/>
       <path id="DejaVuSans-61" d="M 2194 1759 
Q 1497 1759 1228 1600 
Q 959 1441 959 1056 
Q 959 750 1161 570 
Q 1363 391 1709 391 
Q 2188 391 2477 730 
Q 2766 1069 2766 1631 
L 2766 1759 
L 2194 1759 
z
M 3341 1997 
L 3341 0 
L 2766 0 
L 2766 531 
Q 2569 213 2275 61 
Q 1981 -91 1556 -91 
Q 1019 -91 701 211 
Q 384 513 384 1019 
Q 384 1609 779 1909 
Q 1175 2209 1959 2209 
L 2766 2209 
L 2766 2266 
Q 2766 2663 2505 2880 
Q 2244 3097 1772 3097 
Q 1472 3097 1187 3025 
Q 903 2953 641 2809 
L 641 3341 
Q 956 3463 1253 3523 
Q 1550 3584 1831 3584 
Q 2591 3584 2966 3190 
Q 3341 2797 3341 1997 
z
" transform="scale(0.015625)"/>
       <path id="DejaVuSans-79" d="M 2059 -325 
Q 1816 -950 1584 -1140 
Q 1353 -1331 966 -1331 
L 506 -1331 
L 506 -850 
L 844 -850 
Q 1081 -850 1212 -737 
Q 1344 -625 1503 -206 
L 1606 56 
L 191 3500 
L 800 3500 
L 1894 763 
L 2988 3500 
L 3597 3500 
L 2059 -325 
z
" transform="scale(0.015625)"/>
       <path id="DejaVuSans-20" transform="scale(0.015625)"/>
       <path id="DejaVuSans-28" d="M 1984 4856 
Q 1566 4138 1362 3434 
Q 1159 2731 1159 2009 
Q 1159 1288 1364 580 
Q 1569 -128 1984 -844 
L 1484 -844 
Q 1016 -109 783 600 
Q 550 1309 550 2009 
Q 550 2706 781 3412 
Q 1013 4119 1484 4856 
L 1984 4856 
z
" transform="scale(0.015625)"/>
       <path id="DejaVuSans-25" d="M 4653 2053 
Q 4381 2053 4226 1822 
Q 4072 1591 4072 1178 
Q 4072 772 4226 539 
Q 4381 306 4653 306 
Q 4919 306 5073 539 
Q 5228 772 5228 1178 
Q 5228 1588 5073 1820 
Q 4919 2053 4653 2053 
z
M 4653 2450 
Q 5147 2450 5437 2106 
Q 5728 1763 5728 1178 
Q 5728 594 5436 251 
Q 5144 -91 4653 -91 
Q 4153 -91 3862 251 
Q 3572 594 3572 1178 
Q 3572 1766 3864 2108 
Q 4156 2450 4653 2450 
z
M 1428 4353 
Q 1159 4353 1004 4120 
Q 850 3888 850 3481 
Q 850 3069 1003 2837 
Q 1156 2606 1428 2606 
Q 1700 2606 1854 2837 
Q 2009 3069 2009 3481 
Q 2009 3884 1853 4118 
Q 1697 4353 1428 4353 
z
M 4250 4750 
L 4750 4750 
L 1831 -91 
L 1331 -91 
L 4250 4750 
z
M 1428 4750 
Q 1922 4750 2215 4408 
Q 2509 4066 2509 3481 
Q 2509 2891 2217 2550 
Q 1925 2209 1428 2209 
Q 931 2209 642 2551 
Q 353 2894 353 3481 
Q 353 4063 643 4406 
Q 934 4750 1428 4750 
z
" transform="scale(0.015625)"/>
       <path id="DejaVuSans-29" d="M 513 4856 
L 1013 4856 
Q 1481 4119 1714 3412 
Q 1947 2706 1947 2009 
Q 1947 1309 1714 600 
Q 1481 -109 1013 -844 
L 513 -844 
Q 928 -128 1133 580 
Q 1338 1288 1338 2009 
Q 1338 2731 1133 3434 
Q 928 4138 513 4856 
z
" transform="scale(0.015625)"/>
      </defs>
      <use xlink:href="#DejaVuSans-41"/>
      <use xlink:href="#DejaVuSans-63" x="66.658203"/>
      <use xlink:href="#DejaVuSans-63" x="121.638672"/>
      <use xlink:href="#DejaVuSans-75" x="176.619141"/>
      <use xlink:href="#DejaVuSans-72" x="239.998047"/>
      <use xlink:href="#DejaVuSans-61" x="281.111328"/>
      <use xlink:href="#DejaVuSans-63" x="342.390625"/>
      <use xlink:href="#DejaVuSans-79" x="397.371094"/>
      <use xlink:href="#DejaVuSans-20" x="456.550781"/>
      <use xlink:href="#DejaVuSans-28" x="488.337891"/>
      <use xlink:href="#DejaVuSans-25" x="527.351562"/>
      <use xlink:href="#DejaVuSans-29" x="622.371094"/>
     </g>
    </g>
   </g>
   <g id="PolyCollection_1">
    <defs>
     <path id="m292feda426" d="M 69.542727 -134.209525 
L 69.542727 -77.332504 
L 72.822066 -120.844042 
L 76.101405 -122.1876 
L 79.380744 -167.602255 
L 82.660083 -188.071692 
L 85.939421 -194.376594 
L 89.21876 -238.667506 
L 92.498099 -237.404327 
L 95.777438 -250.846418 
L 99.056777 -269.944287 
L 102.336116 -273.25998 
L 105.615455 -273.117812 
L 108.894793 -272.111663 
L 112.174132 -274.228965 
L 115.453471 -270.427313 
L 118.73281 -274.147448 
L 122.012149 -277.054635 
L 125.291488 -280.957884 
L 128.570826 -274.775655 
L 131.850165 -281.86985 
L 135.129504 -284.245501 
L 138.408843 -286.999097 
L 141.688182 -281.468858 
L 144.967521 -284.906577 
L 148.24686 -285.151258 
L 151.526198 -287.238067 
L 154.805537 -279.71011 
L 158.084876 -276.033043 
L 161.364215 -274.432075 
L 164.643554 -269.092252 
L 167.922893 -277.261512 
L 171.202231 -278.429531 
L 174.48157 -285.585008 
L 177.760909 -284.013693 
L 181.040248 -287.951117 
L 184.319587 -288.559742 
L 187.598926 -290.350503 
L 190.878264 -290.693315 
L 194.157603 -284.183068 
L 197.436942 -289.462142 
L 200.716281 -291.538483 
L 203.99562 -288.311503 
L 207.274959 -292.179878 
L 210.554298 -290.015077 
L 213.833636 -288.092606 
L 217.112975 -290.304574 
L 220.392314 -290.578764 
L 223.671653 -290.048149 
L 226.950992 -289.072445 
L 230.230331 -292.153197 
L 233.509669 -291.673221 
L 236.789008 -293.878239 
L 240.068347 -291.402498 
L 243.347686 -292.605937 
L 246.627025 -293.093793 
L 249.906364 -292.940046 
L 253.185702 -284.363441 
L 256.465041 -287.51734 
L 259.74438 -289.194147 
L 263.023719 -288.424696 
L 266.303058 -288.23524 
L 269.582397 -292.091693 
L 272.861736 -291.905093 
L 276.141074 -293.1288 
L 279.420413 -293.963904 
L 282.699752 -294.604568 
L 285.979091 -293.07744 
L 289.25843 -293.635379 
L 292.537769 -293.778569 
L 295.817107 -286.540231 
L 299.096446 -284.305075 
L 302.375785 -283.062857 
L 305.655124 -283.528007 
L 308.934463 -283.21386 
L 312.213802 -284.725813 
L 315.49314 -284.752281 
L 318.772479 -285.118191 
L 322.051818 -284.717874 
L 325.331157 -283.131512 
L 328.610496 -283.595162 
L 331.889835 -285.433509 
L 335.169174 -283.407377 
L 338.448512 -284.879582 
L 341.727851 -285.939572 
L 345.00719 -285.886338 
L 348.286529 -284.476785 
L 351.565868 -284.758831 
L 354.845207 -284.562857 
L 358.124545 -285.078267 
L 361.403884 -282.200045 
L 364.683223 -282.896314 
L 367.962562 -284.871585 
L 371.241901 -284.763921 
L 374.52124 -283.379673 
L 377.800579 -282.865356 
L 381.079917 -284.105359 
L 384.359256 -286.104242 
L 387.638595 -284.738075 
L 390.917934 -285.230577 
L 394.197273 -284.733676 
L 394.197273 -295.669042 
L 394.197273 -295.669042 
L 390.917934 -295.45517 
L 387.638595 -295.570789 
L 384.359256 -295.823313 
L 381.079917 -294.95531 
L 377.800579 -294.742688 
L 374.52124 -294.885832 
L 371.241901 -295.399035 
L 367.962562 -295.753359 
L 364.683223 -294.792641 
L 361.403884 -294.770645 
L 358.124545 -295.695989 
L 354.845207 -295.284634 
L 351.565868 -295.588214 
L 348.286529 -295.278824 
L 345.00719 -295.691967 
L 341.727851 -295.691852 
L 338.448512 -295.368008 
L 335.169174 -294.754331 
L 331.889835 -295.488356 
L 328.610496 -294.98591 
L 325.331157 -295.158554 
L 322.051818 -295.452767 
L 318.772479 -295.563805 
L 315.49314 -295.833975 
L 312.213802 -295.554421 
L 308.934463 -294.608497 
L 305.655124 -294.934712 
L 302.375785 -294.565121 
L 299.096446 -294.997359 
L 295.817107 -295.54538 
L 292.537769 -296.798672 
L 289.25843 -296.737274 
L 285.979091 -296.495391 
L 282.699752 -296.911536 
L 279.420413 -296.975687 
L 276.141074 -296.969053 
L 272.861736 -296.614342 
L 269.582397 -296.527115 
L 266.303058 -295.756464 
L 263.023719 -296.096787 
L 259.74438 -296.244665 
L 256.465041 -295.857417 
L 253.185702 -296.294087 
L 249.906364 -296.666601 
L 246.627025 -296.350949 
L 243.347686 -296.157942 
L 240.068347 -295.805688 
L 236.789008 -296.208545 
L 233.509669 -295.316766 
L 230.230331 -295.810082 
L 226.950992 -295.361571 
L 223.671653 -295.178838 
L 220.392314 -295.030902 
L 217.112975 -294.949743 
L 213.833636 -296.328579 
L 210.554298 -295.529518 
L 207.274959 -296.082431 
L 203.99562 -295.435495 
L 200.716281 -295.570053 
L 197.436942 -295.494342 
L 194.157603 -294.729363 
L 190.878264 -295.162822 
L 187.598926 -294.973736 
L 184.319587 -294.156197 
L 181.040248 -294.544894 
L 177.760909 -294.066099 
L 174.48157 -294.127889 
L 171.202231 -294.132321 
L 167.922893 -294.022904 
L 164.643554 -288.837995 
L 161.364215 -292.436139 
L 158.084876 -292.152631 
L 154.805537 -290.928833 
L 151.526198 -292.481865 
L 148.24686 -293.710973 
L 144.967521 -292.832467 
L 141.688182 -293.103801 
L 138.408843 -293.530114 
L 135.129504 -291.941133 
L 131.850165 -291.786669 
L 128.570826 -289.331148 
L 125.291488 -289.997128 
L 122.012149 -290.942547 
L 118.73281 -287.906982 
L 115.453471 -287.72278 
L 112.174132 -290.237655 
L 108.894793 -289.959667 
L 105.615455 -289.400839 
L 102.336116 -289.974229 
L 99.056777 -288.098806 
L 95.777438 -282.906575 
L 92.498099 -276.036515 
L 89.21876 -275.733401 
L 85.939421 -249.654574 
L 82.660083 -242.239581 
L 79.380744 -225.112167 
L 76.101405 -194.295213 
L 72.822066 -182.412512 
L 69.542727 -134.209525 
z
" style="stroke: #4c72b0; stroke-opacity: 0.2"/>
    </defs>
    <g clip-path="url(#p0e741c804e)">
     <use xlink:href="#m292feda426" x="0" y="316.271687" style="fill: #4c72b0; fill-opacity: 0.2; stroke: #4c72b0; stroke-opacity: 0.2"/>
    </g>
   </g>
   <g id="PolyCollection_2">
    <defs>
     <path id="mf1d8ae307f" d="M 69.542727 -96.530616 
L 69.542727 -55.055688 
L 72.822066 -76.820769 
L 76.101405 -58.507345 
L 79.380744 -114.844226 
L 82.660083 -117.761687 
L 85.939421 -114.124642 
L 89.21876 -180.959635 
L 92.498099 -180.413598 
L 95.777438 -199.327088 
L 99.056777 -207.437854 
L 102.336116 -203.776191 
L 105.615455 -226.768671 
L 108.894793 -232.144551 
L 112.174132 -225.497001 
L 115.453471 -206.841683 
L 118.73281 -200.311517 
L 122.012149 -229.138805 
L 125.291488 -223.701581 
L 128.570826 -217.645367 
L 131.850165 -220.252606 
L 135.129504 -221.001851 
L 138.408843 -244.517218 
L 141.688182 -232.219952 
L 144.967521 -232.140531 
L 148.24686 -261.172306 
L 151.526198 -224.119716 
L 154.805537 -209.76923 
L 158.084876 -214.511314 
L 161.364215 -228.564395 
L 164.643554 -215.555007 
L 167.922893 -239.113331 
L 171.202231 -237.001492 
L 174.48157 -240.034014 
L 177.760909 -254.644203 
L 181.040248 -259.877485 
L 184.319587 -244.620708 
L 187.598926 -239.639916 
L 190.878264 -260.939736 
L 194.157603 -223.821174 
L 197.436942 -261.144985 
L 200.716281 -248.661476 
L 203.99562 -265.001981 
L 207.274959 -272.257258 
L 210.554298 -246.891043 
L 213.833636 -258.250959 
L 217.112975 -222.805062 
L 220.392314 -236.195557 
L 223.671653 -234.300321 
L 226.950992 -241.661217 
L 230.230331 -270.081748 
L 233.509669 -247.162548 
L 236.789008 -277.011036 
L 240.068347 -263.045127 
L 243.347686 -273.450921 
L 246.627025 -257.886602 
L 249.906364 -280.198495 
L 253.185702 -275.259719 
L 256.465041 -231.842739 
L 259.74438 -275.959773 
L 263.023719 -239.233427 
L 266.303058 -219.277336 
L 269.582397 -276.114181 
L 272.861736 -268.162032 
L 276.141074 -270.730997 
L 279.420413 -275.081377 
L 282.699752 -262.125525 
L 285.979091 -231.160096 
L 289.25843 -239.237903 
L 292.537769 -240.232834 
L 295.817107 -273.877179 
L 299.096446 -238.075571 
L 302.375785 -251.036035 
L 305.655124 -262.563802 
L 308.934463 -245.471979 
L 312.213802 -274.512243 
L 315.49314 -270.977995 
L 318.772479 -268.500728 
L 322.051818 -282.151656 
L 325.331157 -272.446706 
L 328.610496 -277.1048 
L 331.889835 -279.027189 
L 335.169174 -253.50599 
L 338.448512 -259.34269 
L 341.727851 -266.135624 
L 345.00719 -260.029082 
L 348.286529 -259.455193 
L 351.565868 -269.252483 
L 354.845207 -267.440184 
L 358.124545 -280.651331 
L 361.403884 -264.605945 
L 364.683223 -275.535404 
L 367.962562 -276.121757 
L 371.241901 -281.309904 
L 374.52124 -275.657741 
L 377.800579 -244.719955 
L 381.079917 -259.223958 
L 384.359256 -277.698246 
L 387.638595 -285.798101 
L 390.917934 -263.744135 
L 394.197273 -275.672609 
L 394.197273 -287.65021 
L 394.197273 -287.65021 
L 390.917934 -282.257294 
L 387.638595 -289.35126 
L 384.359256 -284.368676 
L 381.079917 -276.319144 
L 377.800579 -267.513016 
L 374.52124 -282.68744 
L 371.241901 -287.612352 
L 367.962562 -285.365877 
L 364.683223 -283.236713 
L 361.403884 -276.136885 
L 358.124545 -286.448153 
L 354.845207 -280.251231 
L 351.565868 -281.089718 
L 348.286529 -277.677713 
L 345.00719 -277.277763 
L 341.727851 -279.466922 
L 338.448512 -277.022 
L 335.169174 -272.101881 
L 331.889835 -284.027453 
L 328.610496 -285.77601 
L 325.331157 -281.264806 
L 322.051818 -286.525233 
L 318.772479 -278.76272 
L 315.49314 -280.957576 
L 312.213802 -283.153382 
L 308.934463 -268.404771 
L 305.655124 -276.197859 
L 302.375785 -272.562316 
L 299.096446 -262.257284 
L 295.817107 -280.961193 
L 292.537769 -271.436754 
L 289.25843 -269.335345 
L 285.979091 -266.967672 
L 282.699752 -279.696897 
L 279.420413 -284.157507 
L 276.141074 -282.786945 
L 272.861736 -279.046895 
L 269.582397 -283.806689 
L 266.303058 -251.594428 
L 263.023719 -263.070672 
L 259.74438 -285.217895 
L 256.465041 -264.502803 
L 253.185702 -284.31965 
L 249.906364 -285.91757 
L 246.627025 -279.683251 
L 243.347686 -284.314849 
L 240.068347 -278.218644 
L 236.789008 -283.783838 
L 233.509669 -267.479647 
L 230.230331 -278.209558 
L 226.950992 -272.35713 
L 223.671653 -268.337394 
L 220.392314 -262.798784 
L 217.112975 -259.192971 
L 213.833636 -277.294241 
L 210.554298 -276.627466 
L 207.274959 -282.37294 
L 203.99562 -274.231344 
L 200.716281 -269.093478 
L 197.436942 -277.163432 
L 194.157603 -253.033674 
L 190.878264 -271.161306 
L 187.598926 -267.735976 
L 184.319587 -266.533368 
L 181.040248 -273.684035 
L 177.760909 -268.146768 
L 174.48157 -264.031044 
L 171.202231 -269.420024 
L 167.922893 -270.782473 
L 164.643554 -251.262487 
L 161.364215 -262.351353 
L 158.084876 -251.478857 
L 154.805537 -248.538709 
L 151.526198 -254.685208 
L 148.24686 -274.647703 
L 144.967521 -258.744284 
L 141.688182 -254.572991 
L 138.408843 -263.9251 
L 135.129504 -251.552451 
L 131.850165 -255.585937 
L 128.570826 -251.764158 
L 125.291488 -253.341423 
L 122.012149 -261.913228 
L 118.73281 -232.82115 
L 115.453471 -246.806949 
L 112.174132 -253.197734 
L 108.894793 -251.864614 
L 105.615455 -257.130837 
L 102.336116 -240.965396 
L 99.056777 -249.00313 
L 95.777438 -231.957288 
L 92.498099 -222.263747 
L 89.21876 -224.140888 
L 85.939421 -165.794918 
L 82.660083 -170.809924 
L 79.380744 -167.970585 
L 76.101405 -94.698971 
L 72.822066 -121.870459 
L 69.542727 -96.530616 
z
" style="stroke: #dd8452; stroke-opacity: 0.2"/>
    </defs>
    <g clip-path="url(#p0e741c804e)">
     <use xlink:href="#mf1d8ae307f" x="0" y="316.271687" style="fill: #dd8452; fill-opacity: 0.2; stroke: #dd8452; stroke-opacity: 0.2"/>
    </g>
   </g>
   <g id="PolyCollection_3">
    <defs>
     <path id="ma11abed5ba" d="M 69.542727 -125.387166 
L 69.542727 -70.199376 
L 72.822066 -76.904545 
L 76.101405 -100.085927 
L 79.380744 -108.024641 
L 82.660083 -136.266985 
L 85.939421 -135.55094 
L 89.21876 -154.288674 
L 92.498099 -173.852695 
L 95.777438 -187.103949 
L 99.056777 -198.179524 
L 102.336116 -210.161029 
L 105.615455 -211.227491 
L 108.894793 -226.63552 
L 112.174132 -229.081718 
L 115.453471 -227.211719 
L 118.73281 -235.551556 
L 122.012149 -236.98197 
L 125.291488 -235.157542 
L 128.570826 -236.463368 
L 131.850165 -236.506367 
L 135.129504 -239.165657 
L 138.408843 -241.804812 
L 141.688182 -245.522689 
L 144.967521 -245.787485 
L 148.24686 -246.824678 
L 151.526198 -248.520048 
L 154.805537 -248.066584 
L 158.084876 -249.089974 
L 161.364215 -248.856506 
L 164.643554 -248.950445 
L 167.922893 -249.30298 
L 171.202231 -250.97956 
L 174.48157 -250.816363 
L 177.760909 -251.105814 
L 181.040248 -251.912398 
L 184.319587 -252.135739 
L 187.598926 -252.243373 
L 190.878264 -255.958903 
L 194.157603 -256.789429 
L 197.436942 -257.899629 
L 200.716281 -257.691261 
L 203.99562 -262.094033 
L 207.274959 -262.188477 
L 210.554298 -260.900473 
L 213.833636 -260.290254 
L 217.112975 -261.091779 
L 220.392314 -262.083974 
L 223.671653 -259.652478 
L 226.950992 -262.963618 
L 230.230331 -264.203946 
L 233.509669 -263.974948 
L 236.789008 -265.162867 
L 240.068347 -265.909218 
L 243.347686 -267.237787 
L 246.627025 -269.307137 
L 249.906364 -266.854803 
L 253.185702 -268.403564 
L 256.465041 -267.823473 
L 259.74438 -269.792869 
L 263.023719 -268.073612 
L 266.303058 -267.496331 
L 269.582397 -268.879196 
L 272.861736 -268.508757 
L 276.141074 -270.131388 
L 279.420413 -270.689508 
L 282.699752 -270.839574 
L 285.979091 -270.981548 
L 289.25843 -271.19223 
L 292.537769 -268.824381 
L 295.817107 -245.516461 
L 299.096446 -248.301085 
L 302.375785 -248.708881 
L 305.655124 -248.861797 
L 308.934463 -249.23082 
L 312.213802 -249.772767 
L 315.49314 -250.681761 
L 318.772479 -251.196031 
L 322.051818 -248.716545 
L 325.331157 -247.705518 
L 328.610496 -248.726179 
L 331.889835 -249.334272 
L 335.169174 -248.409962 
L 338.448512 -247.129348 
L 341.727851 -251.511917 
L 345.00719 -250.88003 
L 348.286529 -249.254232 
L 351.565868 -250.8295 
L 354.845207 -251.661552 
L 358.124545 -249.884011 
L 361.403884 -250.031299 
L 364.683223 -250.672543 
L 367.962562 -253.611817 
L 371.241901 -253.606303 
L 374.52124 -254.636026 
L 377.800579 -253.394804 
L 381.079917 -253.116023 
L 384.359256 -252.759694 
L 387.638595 -253.841774 
L 390.917934 -252.579821 
L 394.197273 -252.991989 
L 394.197273 -283.243576 
L 394.197273 -283.243576 
L 390.917934 -283.015311 
L 387.638595 -283.872605 
L 384.359256 -283.220079 
L 381.079917 -282.823815 
L 377.800579 -282.326542 
L 374.52124 -282.68554 
L 371.241901 -282.522641 
L 367.962562 -283.415301 
L 364.683223 -281.205774 
L 361.403884 -281.504688 
L 358.124545 -280.091383 
L 354.845207 -281.79773 
L 351.565868 -280.057214 
L 348.286529 -281.807609 
L 345.00719 -281.559574 
L 341.727851 -281.119127 
L 338.448512 -279.920772 
L 335.169174 -281.080336 
L 331.889835 -279.476714 
L 328.610496 -280.315847 
L 325.331157 -280.111403 
L 322.051818 -280.324964 
L 318.772479 -281.975892 
L 315.49314 -280.523603 
L 312.213802 -280.668578 
L 308.934463 -281.324473 
L 305.655124 -281.180194 
L 302.375785 -280.945713 
L 299.096446 -280.966194 
L 295.817107 -279.568771 
L 292.537769 -293.794099 
L 289.25843 -293.649356 
L 285.979091 -293.857742 
L 282.699752 -293.85046 
L 279.420413 -293.185644 
L 276.141074 -293.916077 
L 272.861736 -293.181713 
L 269.582397 -293.327791 
L 266.303058 -293.310755 
L 263.023719 -293.455215 
L 259.74438 -293.649728 
L 256.465041 -292.817782 
L 253.185702 -292.883708 
L 249.906364 -293.302279 
L 246.627025 -293.29394 
L 243.347686 -292.788281 
L 240.068347 -291.949124 
L 236.789008 -292.18865 
L 233.509669 -291.515734 
L 230.230331 -290.89843 
L 226.950992 -290.421282 
L 223.671653 -290.290401 
L 220.392314 -289.762137 
L 217.112975 -290.251912 
L 213.833636 -289.761751 
L 210.554298 -290.224952 
L 207.274959 -289.933063 
L 203.99562 -290.41209 
L 200.716281 -289.345991 
L 197.436942 -289.508496 
L 194.157603 -289.461099 
L 190.878264 -288.968035 
L 187.598926 -287.042971 
L 184.319587 -286.834515 
L 181.040248 -286.454635 
L 177.760909 -285.461442 
L 174.48157 -283.8134 
L 171.202231 -285.532483 
L 167.922893 -284.188247 
L 164.643554 -284.152105 
L 161.364215 -284.493239 
L 158.084876 -283.98141 
L 154.805537 -283.519551 
L 151.526198 -283.347479 
L 148.24686 -281.889008 
L 144.967521 -279.91363 
L 141.688182 -280.90043 
L 138.408843 -279.537962 
L 135.129504 -278.478702 
L 131.850165 -277.502264 
L 128.570826 -273.452999 
L 125.291488 -274.712681 
L 122.012149 -274.769785 
L 118.73281 -275.206204 
L 115.453471 -269.402308 
L 112.174132 -268.142494 
L 108.894793 -267.533525 
L 105.615455 -259.97727 
L 102.336116 -260.442155 
L 99.056777 -253.255599 
L 95.777438 -250.965524 
L 92.498099 -238.167996 
L 89.21876 -222.225905 
L 85.939421 -204.980953 
L 82.660083 -199.88175 
L 79.380744 -175.693966 
L 76.101405 -165.628091 
L 72.822066 -135.820517 
L 69.542727 -125.387166 
z
" style="stroke: #55a868; stroke-opacity: 0.2"/>
    </defs>
    <g clip-path="url(#p0e741c804e)">
     <use xlink:href="#ma11abed5ba" x="0" y="316.271687" style="fill: #55a868; fill-opacity: 0.2; stroke: #55a868; stroke-opacity: 0.2"/>
    </g>
   </g>
   <g id="PolyCollection_4">
    <defs>
     <path id="mcf007bfa83" d="M 69.542727 -117.513828 
L 69.542727 -68.058925 
L 72.822066 -78.112053 
L 76.101405 -83.44256 
L 79.380744 -91.514689 
L 82.660083 -102.941844 
L 85.939421 -112.059724 
L 89.21876 -112.091536 
L 92.498099 -132.263243 
L 95.777438 -137.714768 
L 99.056777 -141.163517 
L 102.336116 -143.950856 
L 105.615455 -151.596161 
L 108.894793 -160.500572 
L 112.174132 -169.539916 
L 115.453471 -174.477062 
L 118.73281 -190.08387 
L 122.012149 -196.234177 
L 125.291488 -200.366012 
L 128.570826 -205.859232 
L 131.850165 -213.086397 
L 135.129504 -216.949237 
L 138.408843 -224.672934 
L 141.688182 -224.941299 
L 144.967521 -228.194843 
L 148.24686 -231.565901 
L 151.526198 -234.757828 
L 154.805537 -242.354721 
L 158.084876 -247.674747 
L 161.364215 -246.618541 
L 164.643554 -249.343764 
L 167.922893 -250.660956 
L 171.202231 -250.637326 
L 174.48157 -254.03053 
L 177.760909 -255.633334 
L 181.040248 -256.361385 
L 184.319587 -256.79997 
L 187.598926 -256.671269 
L 190.878264 -258.297685 
L 194.157603 -260.542562 
L 197.436942 -263.76269 
L 200.716281 -264.093211 
L 203.99562 -263.736345 
L 207.274959 -266.577095 
L 210.554298 -265.366826 
L 213.833636 -268.992778 
L 217.112975 -272.566195 
L 220.392314 -271.936213 
L 223.671653 -273.076569 
L 226.950992 -273.28506 
L 230.230331 -274.266103 
L 233.509669 -274.86093 
L 236.789008 -275.3884 
L 240.068347 -277.465487 
L 243.347686 -278.422767 
L 246.627025 -278.942178 
L 249.906364 -278.563179 
L 253.185702 -281.452205 
L 256.465041 -281.15315 
L 259.74438 -279.380554 
L 263.023719 -279.325004 
L 266.303058 -279.395184 
L 269.582397 -280.036537 
L 272.861736 -280.839725 
L 276.141074 -280.505128 
L 279.420413 -282.786129 
L 282.699752 -283.803304 
L 285.979091 -283.889361 
L 289.25843 -283.602942 
L 292.537769 -283.852942 
L 295.817107 -243.692918 
L 299.096446 -243.583689 
L 302.375785 -244.383824 
L 305.655124 -245.144025 
L 308.934463 -245.433425 
L 312.213802 -246.205074 
L 315.49314 -245.721357 
L 318.772479 -244.006373 
L 322.051818 -243.836865 
L 325.331157 -245.059373 
L 328.610496 -244.649125 
L 331.889835 -245.293849 
L 335.169174 -243.523273 
L 338.448512 -246.589783 
L 341.727851 -245.057032 
L 345.00719 -245.903546 
L 348.286529 -245.268743 
L 351.565868 -246.576721 
L 354.845207 -245.042286 
L 358.124545 -245.721391 
L 361.403884 -248.183812 
L 364.683223 -245.950137 
L 367.962562 -246.914421 
L 371.241901 -246.985909 
L 374.52124 -246.754408 
L 377.800579 -244.97869 
L 381.079917 -247.541527 
L 384.359256 -247.774 
L 387.638595 -247.710006 
L 390.917934 -245.484002 
L 394.197273 -246.77155 
L 394.197273 -281.094827 
L 394.197273 -281.094827 
L 390.917934 -279.760052 
L 387.638595 -280.400287 
L 384.359256 -279.385876 
L 381.079917 -279.231398 
L 377.800579 -279.244184 
L 374.52124 -279.876745 
L 371.241901 -278.981577 
L 367.962562 -279.597874 
L 364.683223 -279.077911 
L 361.403884 -279.608915 
L 358.124545 -278.853046 
L 354.845207 -277.644617 
L 351.565868 -278.026746 
L 348.286529 -278.704818 
L 345.00719 -279.360279 
L 341.727851 -278.436763 
L 338.448512 -278.748076 
L 335.169174 -277.119514 
L 331.889835 -278.088461 
L 328.610496 -277.469794 
L 325.331157 -277.312267 
L 322.051818 -277.716154 
L 318.772479 -276.892724 
L 315.49314 -279.567247 
L 312.213802 -278.693461 
L 308.934463 -277.438427 
L 305.655124 -278.516407 
L 302.375785 -277.230601 
L 299.096446 -276.921796 
L 295.817107 -277.109843 
L 292.537769 -294.919996 
L 289.25843 -294.813895 
L 285.979091 -294.679234 
L 282.699752 -294.551327 
L 279.420413 -294.683013 
L 276.141074 -294.832533 
L 272.861736 -294.504294 
L 269.582397 -294.560661 
L 266.303058 -294.249061 
L 263.023719 -294.199966 
L 259.74438 -293.929331 
L 256.465041 -293.90322 
L 253.185702 -293.709015 
L 249.906364 -293.763071 
L 246.627025 -293.671578 
L 243.347686 -293.262441 
L 240.068347 -292.650519 
L 236.789008 -292.567322 
L 233.509669 -292.00386 
L 230.230331 -292.047529 
L 226.950992 -291.510461 
L 223.671653 -291.347655 
L 220.392314 -291.002181 
L 217.112975 -290.222958 
L 213.833636 -290.268844 
L 210.554298 -290.249426 
L 207.274959 -289.863139 
L 203.99562 -288.056648 
L 200.716281 -288.652913 
L 197.436942 -288.597629 
L 194.157603 -286.69223 
L 190.878264 -285.612722 
L 187.598926 -285.349351 
L 184.319587 -285.063126 
L 181.040248 -284.577119 
L 177.760909 -284.338256 
L 174.48157 -283.102602 
L 171.202231 -282.101445 
L 167.922893 -281.990581 
L 164.643554 -280.03626 
L 161.364215 -277.966172 
L 158.084876 -279.082766 
L 154.805537 -273.859322 
L 151.526198 -269.159594 
L 148.24686 -267.038782 
L 144.967521 -264.486352 
L 141.688182 -264.743487 
L 138.408843 -262.327384 
L 135.129504 -259.064633 
L 131.850165 -254.353223 
L 128.570826 -250.66966 
L 125.291488 -247.293125 
L 122.012149 -240.745801 
L 118.73281 -233.99782 
L 115.453471 -225.453945 
L 112.174132 -215.865014 
L 108.894793 -206.4879 
L 105.615455 -200.54201 
L 102.336116 -190.033115 
L 99.056777 -182.133117 
L 95.777438 -189.324097 
L 92.498099 -185.766461 
L 89.21876 -173.747755 
L 85.939421 -157.691359 
L 82.660083 -157.970619 
L 79.380744 -148.852375 
L 76.101405 -140.676874 
L 72.822066 -126.424748 
L 69.542727 -117.513828 
z
" style="stroke: #c44e52; stroke-opacity: 0.2"/>
    </defs>
    <g clip-path="url(#p0e741c804e)">
     <use xlink:href="#mcf007bfa83" x="0" y="316.271687" style="fill: #c44e52; fill-opacity: 0.2; stroke: #c44e52; stroke-opacity: 0.2"/>
    </g>
   </g>
   <g id="PolyCollection_5">
    <defs>
     <path id="mb94b983444" d="M 69.542727 -135.338419 
L 69.542727 -78.961342 
L 72.822066 -75.065717 
L 76.101405 -82.44876 
L 79.380744 -95.98019 
L 82.660083 -99.777466 
L 85.939421 -104.275527 
L 89.21876 -105.871015 
L 92.498099 -118.041502 
L 95.777438 -122.880626 
L 99.056777 -127.564532 
L 102.336116 -139.29052 
L 105.615455 -139.944596 
L 108.894793 -141.817117 
L 112.174132 -139.162411 
L 115.453471 -144.871718 
L 118.73281 -144.33115 
L 122.012149 -146.701473 
L 125.291488 -147.423218 
L 128.570826 -149.489223 
L 131.850165 -154.389921 
L 135.129504 -157.100959 
L 138.408843 -157.462399 
L 141.688182 -161.527746 
L 144.967521 -162.847999 
L 148.24686 -162.435405 
L 151.526198 -166.448873 
L 154.805537 -166.432762 
L 158.084876 -168.539974 
L 161.364215 -170.753024 
L 164.643554 -171.32273 
L 167.922893 -177.77486 
L 171.202231 -181.521987 
L 174.48157 -186.202344 
L 177.760909 -186.191964 
L 181.040248 -186.04167 
L 184.319587 -189.780655 
L 187.598926 -190.805741 
L 190.878264 -191.094464 
L 194.157603 -190.897204 
L 197.436942 -194.385386 
L 200.716281 -196.905673 
L 203.99562 -199.194387 
L 207.274959 -200.523823 
L 210.554298 -199.842546 
L 213.833636 -201.067671 
L 217.112975 -204.09826 
L 220.392314 -204.109068 
L 223.671653 -204.245238 
L 226.950992 -208.897701 
L 230.230331 -211.567612 
L 233.509669 -212.797018 
L 236.789008 -216.63084 
L 240.068347 -213.668166 
L 243.347686 -214.192444 
L 246.627025 -216.324442 
L 249.906364 -214.759399 
L 253.185702 -220.857513 
L 256.465041 -225.207403 
L 259.74438 -225.175431 
L 263.023719 -225.323723 
L 266.303058 -223.871458 
L 269.582397 -225.029121 
L 272.861736 -225.914069 
L 276.141074 -225.130119 
L 279.420413 -224.61607 
L 282.699752 -228.105525 
L 285.979091 -230.076904 
L 289.25843 -231.246957 
L 292.537769 -229.992344 
L 295.817107 -197.239723 
L 299.096446 -197.684089 
L 302.375785 -195.857608 
L 305.655124 -197.993927 
L 308.934463 -198.02545 
L 312.213802 -197.429943 
L 315.49314 -197.105619 
L 318.772479 -195.625457 
L 322.051818 -196.003865 
L 325.331157 -196.90741 
L 328.610496 -197.274001 
L 331.889835 -196.859221 
L 335.169174 -197.334521 
L 338.448512 -197.983746 
L 341.727851 -198.039907 
L 345.00719 -198.196083 
L 348.286529 -199.092275 
L 351.565868 -196.817082 
L 354.845207 -199.026603 
L 358.124545 -199.042348 
L 361.403884 -199.002075 
L 364.683223 -198.995176 
L 367.962562 -200.06735 
L 371.241901 -198.76006 
L 374.52124 -199.021977 
L 377.800579 -199.96551 
L 381.079917 -200.184937 
L 384.359256 -199.053345 
L 387.638595 -201.502243 
L 390.917934 -200.328971 
L 394.197273 -202.71708 
L 394.197273 -246.131284 
L 394.197273 -246.131284 
L 390.917934 -247.65039 
L 387.638595 -246.040372 
L 384.359256 -245.095508 
L 381.079917 -246.27659 
L 377.800579 -245.389163 
L 374.52124 -245.901688 
L 371.241901 -244.295663 
L 367.962562 -244.708811 
L 364.683223 -244.655656 
L 361.403884 -243.347728 
L 358.124545 -245.890492 
L 354.845207 -243.090723 
L 351.565868 -243.649666 
L 348.286529 -244.204001 
L 345.00719 -244.828783 
L 341.727851 -243.455239 
L 338.448512 -243.372459 
L 335.169174 -245.900586 
L 331.889835 -240.789281 
L 328.610496 -242.70018 
L 325.331157 -242.783102 
L 322.051818 -240.552278 
L 318.772479 -241.585682 
L 315.49314 -240.98439 
L 312.213802 -240.984984 
L 308.934463 -240.32442 
L 305.655124 -240.182974 
L 302.375785 -241.383709 
L 299.096446 -241.584813 
L 295.817107 -241.030272 
L 292.537769 -271.731403 
L 289.25843 -271.383304 
L 285.979091 -270.120945 
L 282.699752 -269.44995 
L 279.420413 -267.21043 
L 276.141074 -266.577246 
L 272.861736 -267.628727 
L 269.582397 -267.896926 
L 266.303058 -265.420052 
L 263.023719 -266.837544 
L 259.74438 -264.97412 
L 256.465041 -266.559604 
L 253.185702 -263.362225 
L 249.906364 -262.23435 
L 246.627025 -260.885908 
L 243.347686 -259.984441 
L 240.068347 -259.254878 
L 236.789008 -259.074374 
L 233.509669 -258.266998 
L 230.230331 -257.846964 
L 226.950992 -254.399812 
L 223.671653 -252.382001 
L 220.392314 -253.494575 
L 217.112975 -251.736587 
L 213.833636 -247.810252 
L 210.554298 -248.807371 
L 207.274959 -249.410481 
L 203.99562 -248.081216 
L 200.716281 -242.594532 
L 197.436942 -241.921467 
L 194.157603 -239.596066 
L 190.878264 -237.26009 
L 187.598926 -237.341858 
L 184.319587 -234.536243 
L 181.040248 -231.867987 
L 177.760909 -232.760214 
L 174.48157 -228.795138 
L 171.202231 -223.602958 
L 167.922893 -222.318723 
L 164.643554 -217.865372 
L 161.364215 -217.534281 
L 158.084876 -215.247293 
L 154.805537 -212.357898 
L 151.526198 -214.169823 
L 148.24686 -208.852399 
L 144.967521 -210.513622 
L 141.688182 -208.635732 
L 138.408843 -203.724891 
L 135.129504 -200.733874 
L 131.850165 -196.392247 
L 128.570826 -193.913559 
L 125.291488 -190.593116 
L 122.012149 -189.303567 
L 118.73281 -189.078875 
L 115.453471 -188.810722 
L 112.174132 -187.005303 
L 108.894793 -186.595875 
L 105.615455 -186.934405 
L 102.336116 -185.167314 
L 99.056777 -176.352689 
L 95.777438 -174.915526 
L 92.498099 -170.866851 
L 89.21876 -162.890556 
L 85.939421 -160.552682 
L 82.660083 -151.067884 
L 79.380744 -149.219222 
L 76.101405 -134.758996 
L 72.822066 -126.39471 
L 69.542727 -135.338419 
z
" style="stroke: #8172b3; stroke-opacity: 0.2"/>
    </defs>
    <g clip-path="url(#p0e741c804e)">
     <use xlink:href="#mb94b983444" x="0" y="316.271687" style="fill: #8172b3; fill-opacity: 0.2; stroke: #8172b3; stroke-opacity: 0.2"/>
    </g>
   </g>
   <g id="line2d_12">
    <path d="M 69.542727 211.645732 
L 72.822066 164.14542 
L 76.101405 160.139168 
L 79.380744 118.221419 
L 82.660083 100.191456 
L 85.939421 91.952466 
L 89.21876 58.224787 
L 92.498099 57.143283 
L 95.777438 48.117831 
L 99.056777 35.455575 
L 102.336116 33.633135 
L 105.615455 33.105835 
L 108.894793 33.168385 
L 112.174132 32.644145 
L 115.453471 36.363977 
L 118.73281 34.623679 
L 122.012149 30.88655 
L 125.291488 30.684696 
L 128.570826 33.076197 
L 131.850165 28.953618 
L 135.129504 27.984228 
L 138.408843 25.882125 
L 141.688182 27.556797 
L 144.967521 26.80749 
L 148.24686 25.944296 
L 151.526198 26.183933 
L 154.805537 29.888491 
L 158.084876 30.404435 
L 161.364215 30.623525 
L 164.643554 35.798295 
L 167.922893 28.821988 
L 171.202231 28.03467 
L 174.48157 25.665906 
L 177.760909 26.151802 
L 181.040248 24.431846 
L 184.319587 24.758027 
L 187.598926 23.463024 
L 190.878264 23.075218 
L 194.157603 25.458877 
L 197.436942 23.335561 
L 200.716281 22.524347 
L 203.99562 23.729064 
L 207.274959 21.977159 
L 210.554298 22.971991 
L 213.833636 23.116819 
L 217.112975 23.332477 
L 220.392314 23.185339 
L 223.671653 23.261253 
L 226.950992 23.481571 
L 230.230331 22.194954 
L 233.509669 22.546303 
L 236.789008 21.171651 
L 240.068347 22.421954 
L 243.347686 21.639008 
L 246.627025 21.315645 
L 249.906364 21.165779 
L 253.185702 24.256319 
L 256.465041 23.430438 
L 259.74438 22.741726 
L 263.023719 23.180285 
L 266.303058 23.457478 
L 269.582397 21.682746 
L 272.861736 21.655812 
L 276.141074 21.045817 
L 279.420413 20.814915 
L 282.699752 20.446042 
L 285.979091 21.297675 
L 289.25843 20.947697 
L 292.537769 20.90064 
L 295.817107 24.08791 
L 299.096446 25.580934 
L 302.375785 26.320221 
L 305.655124 26.163209 
L 308.934463 26.379152 
L 312.213802 24.896867 
L 315.49314 24.745985 
L 318.772479 24.710044 
L 322.051818 25.2149 
L 325.331157 25.950236 
L 328.610496 25.852908 
L 331.889835 24.835172 
L 335.169174 26.116444 
L 338.448512 24.889113 
L 341.727851 24.335938 
L 345.00719 24.491842 
L 348.286529 25.036171 
L 351.565868 24.979122 
L 354.845207 25.518598 
L 358.124545 24.87674 
L 361.403884 27.112785 
L 364.683223 26.644592 
L 367.962562 24.900934 
L 371.241901 25.302252 
L 374.52124 26.098412 
L 377.800579 26.314451 
L 381.079917 26.029404 
L 384.359256 24.311993 
L 387.638595 24.846161 
L 390.917934 24.979536 
L 394.197273 25.07505 
" clip-path="url(#p0e741c804e)" style="fill: none; stroke: #4c72b0; stroke-width: 1.5; stroke-linecap: round"/>
   </g>
   <g id="line2d_13">
    <path d="M 69.542727 241.875571 
L 72.822066 216.281474 
L 76.101405 241.009195 
L 79.380744 174.502491 
L 82.660083 172.315656 
L 85.939421 176.456493 
L 89.21876 113.057755 
L 92.498099 114.803319 
L 95.777438 100.649032 
L 99.056777 86.581584 
L 102.336116 93.482257 
L 105.615455 72.891298 
L 108.894793 74.686675 
L 112.174132 76.450922 
L 115.453471 88.592946 
L 118.73281 99.064229 
L 122.012149 69.290171 
L 125.291488 77.595203 
L 128.570826 80.739474 
L 131.850165 76.905748 
L 135.129504 79.824306 
L 138.408843 61.271059 
L 141.688182 72.623931 
L 144.967521 70.505918 
L 148.24686 48.016673 
L 151.526198 75.517291 
L 154.805537 85.65809 
L 158.084876 82.907346 
L 161.364215 70.17104 
L 164.643554 82.078828 
L 167.922893 60.262393 
L 171.202231 61.590163 
L 174.48157 64.24303 
L 177.760909 55.125428 
L 181.040248 48.885988 
L 184.319587 59.964926 
L 187.598926 61.192584 
L 190.878264 50.247655 
L 194.157603 77.014732 
L 197.436942 46.735079 
L 200.716281 57.181058 
L 203.99562 46.351584 
L 207.274959 38.801057 
L 210.554298 53.470113 
L 213.833636 47.884671 
L 217.112975 74.680091 
L 220.392314 66.584005 
L 223.671653 63.124433 
L 226.950992 57.733883 
L 230.230331 42.182805 
L 233.509669 58.930705 
L 236.789008 35.739943 
L 240.068347 44.991614 
L 243.347686 36.908612 
L 246.627025 47.359083 
L 249.906364 33.18328 
L 253.185702 36.273486 
L 256.465041 66.898836 
L 259.74438 35.369532 
L 263.023719 63.737224 
L 266.303058 79.19906 
L 269.582397 36.08489 
L 272.861736 42.894361 
L 276.141074 39.111433 
L 279.420413 36.441558 
L 282.699752 44.559146 
L 285.979091 67.044429 
L 289.25843 61.24383 
L 292.537769 58.530262 
L 295.817107 38.77303 
L 299.096446 65.351192 
L 302.375785 53.965711 
L 305.655124 46.465696 
L 308.934463 58.549946 
L 312.213802 37.442002 
L 315.49314 40.291102 
L 318.772479 42.243533 
L 322.051818 31.934501 
L 325.331157 39.282128 
L 328.610496 34.617934 
L 331.889835 34.801415 
L 335.169174 53.358897 
L 338.448512 47.877457 
L 341.727851 43.467931 
L 345.00719 46.946044 
L 348.286529 47.258732 
L 351.565868 40.517615 
L 354.845207 42.2086 
L 358.124545 32.647016 
L 361.403884 45.774405 
L 364.683223 36.77629 
L 367.962562 35.365632 
L 371.241901 31.714299 
L 374.52124 37.12547 
L 377.800579 59.863361 
L 381.079917 48.251472 
L 384.359256 35.152478 
L 387.638595 28.635705 
L 390.917934 42.036446 
L 394.197273 34.031072 
" clip-path="url(#p0e741c804e)" style="fill: none; stroke: #dd8452; stroke-width: 1.5; stroke-linecap: round"/>
   </g>
   <g id="line2d_14">
    <path d="M 69.542727 219.59193 
L 72.822066 211.220279 
L 76.101405 184.420329 
L 79.380744 172.853699 
L 82.660083 148.711449 
L 85.939421 145.373173 
L 89.21876 128.876525 
L 92.498099 109.210831 
L 95.777438 95.727953 
L 99.056777 89.477217 
L 102.336116 79.849414 
L 105.615455 79.019192 
L 108.894793 68.043792 
L 112.174132 66.770017 
L 115.453471 65.973722 
L 118.73281 59.425754 
L 122.012149 59.071374 
L 125.291488 59.930143 
L 128.570826 59.852888 
L 131.850165 57.071649 
L 135.129504 56.243427 
L 138.408843 53.320898 
L 141.688182 51.373086 
L 144.967521 51.098 
L 148.24686 49.778101 
L 151.526198 48.874821 
L 154.805537 47.812045 
L 158.084876 47.699689 
L 161.364215 48.227437 
L 164.643554 48.191298 
L 167.922893 47.873815 
L 171.202231 47.140394 
L 174.48157 46.670219 
L 177.760909 45.967074 
L 181.040248 44.969818 
L 184.319587 45.849505 
L 187.598926 45.346403 
L 190.878264 41.869315 
L 194.157603 41.464947 
L 197.436942 41.047957 
L 200.716281 41.312323 
L 203.99562 38.039582 
L 207.274959 37.831969 
L 210.554298 38.101805 
L 213.833636 39.349434 
L 217.112975 39.171294 
L 220.392314 39.049081 
L 223.671653 38.858151 
L 226.950992 38.264763 
L 230.230331 36.605387 
L 233.509669 35.602563 
L 236.789008 35.431953 
L 240.068347 34.161284 
L 243.347686 33.422046 
L 246.627025 32.714589 
L 249.906364 32.488582 
L 253.185702 32.903079 
L 256.465041 32.957211 
L 259.74438 32.182864 
L 263.023719 31.743653 
L 266.303058 33.139057 
L 269.582397 32.950196 
L 272.861736 32.780351 
L 276.141074 31.582468 
L 279.420413 31.95497 
L 282.699752 31.690884 
L 285.979091 30.64636 
L 289.25843 31.202284 
L 292.537769 31.273099 
L 295.817107 52.076947 
L 299.096446 50.787662 
L 302.375785 50.762296 
L 305.655124 50.028356 
L 308.934463 49.83405 
L 312.213802 49.803556 
L 315.49314 49.803932 
L 318.772479 48.614685 
L 322.051818 50.624228 
L 325.331157 50.889371 
L 328.610496 50.66124 
L 331.889835 51.288222 
L 335.169174 51.057541 
L 338.448512 51.207112 
L 341.727851 48.605436 
L 345.00719 48.825882 
L 348.286529 49.973253 
L 351.565868 49.179215 
L 354.845207 48.26795 
L 358.124545 50.087435 
L 361.403884 50.021795 
L 364.683223 49.627579 
L 367.962562 47.003931 
L 371.241901 47.958673 
L 374.52124 47.104891 
L 377.800579 47.497835 
L 381.079917 46.961891 
L 384.359256 46.910241 
L 387.638595 46.556585 
L 390.917934 46.651166 
L 394.197273 47.160248 
" clip-path="url(#p0e741c804e)" style="fill: none; stroke: #55a868; stroke-width: 1.5; stroke-linecap: round"/>
   </g>
   <g id="line2d_15">
    <path d="M 69.542727 224.351952 
L 72.822066 214.700156 
L 76.101405 205.149093 
L 79.380744 197.43929 
L 82.660083 188.447249 
L 85.939421 182.276178 
L 89.21876 173.198078 
L 92.498099 158.412855 
L 95.777438 152.563987 
L 99.056777 154.520671 
L 102.336116 148.826434 
L 105.615455 139.344005 
L 108.894793 132.904483 
L 112.174132 123.85575 
L 115.453471 116.11199 
L 118.73281 104.577287 
L 122.012149 98.112218 
L 125.291488 92.531595 
L 128.570826 88.225527 
L 131.850165 82.019893 
L 135.129504 77.701316 
L 138.408843 71.954667 
L 141.688182 69.345795 
L 144.967521 68.511406 
L 148.24686 65.3745 
L 151.526198 61.988417 
L 154.805537 56.624672 
L 158.084876 52.12622 
L 161.364215 52.295519 
L 164.643554 50.018897 
L 167.922893 48.667042 
L 171.202231 47.336461 
L 174.48157 45.565554 
L 177.760909 44.95165 
L 181.040248 43.312048 
L 184.319587 43.843545 
L 187.598926 43.057455 
L 190.878264 41.685636 
L 194.157603 40.368949 
L 197.436942 37.249855 
L 200.716281 36.90937 
L 203.99562 37.104618 
L 207.274959 36.012423 
L 210.554298 35.82288 
L 213.833636 34.355532 
L 217.112975 33.146777 
L 220.392314 32.944726 
L 223.671653 32.138596 
L 226.950992 32.187766 
L 230.230331 31.649745 
L 233.509669 31.045758 
L 236.789008 30.465356 
L 240.068347 29.575372 
L 243.347686 29.142737 
L 246.627025 28.667697 
L 249.906364 28.113213 
L 253.185702 27.47158 
L 256.465041 27.807095 
L 259.74438 27.830096 
L 263.023719 27.57414 
L 266.303058 27.761122 
L 269.582397 27.324926 
L 272.861736 27.00839 
L 276.141074 26.846773 
L 279.420413 26.182736 
L 282.699752 26.038158 
L 285.979091 26.04384 
L 289.25843 25.873321 
L 292.537769 25.744244 
L 295.817107 54.671936 
L 299.096446 54.379025 
L 302.375785 54.316874 
L 305.655124 53.905353 
L 308.934463 54.16822 
L 312.213802 53.193495 
L 315.49314 53.179834 
L 318.772479 54.067366 
L 322.051818 53.729164 
L 325.331157 53.779986 
L 328.610496 53.914337 
L 331.889835 53.387976 
L 335.169174 53.591594 
L 338.448512 52.940465 
L 341.727851 53.154982 
L 345.00719 53.040631 
L 348.286529 53.315107 
L 351.565868 53.110688 
L 354.845207 53.242302 
L 358.124545 52.438357 
L 361.403884 52.532158 
L 364.683223 52.362322 
L 367.962562 51.751537 
L 371.241901 51.976782 
L 374.52124 51.832164 
L 377.800579 51.885887 
L 381.079917 51.627936 
L 384.359256 51.703265 
L 387.638595 51.61664 
L 390.917934 51.734561 
L 394.197273 51.518628 
" clip-path="url(#p0e741c804e)" style="fill: none; stroke: #c44e52; stroke-width: 1.5; stroke-linecap: round"/>
   </g>
   <g id="line2d_16">
    <path d="M 69.542727 211.757777 
L 72.822066 215.710405 
L 76.101405 210.204514 
L 79.380744 194.101529 
L 82.660083 190.246044 
L 85.939421 183.462765 
L 89.21876 182.611723 
L 92.498099 172.910135 
L 95.777438 167.984601 
L 99.056777 163.35486 
L 102.336116 153.556955 
L 105.615455 153.533082 
L 108.894793 153.534984 
L 112.174132 153.533938 
L 115.453471 149.922795 
L 118.73281 149.680158 
L 122.012149 149.534254 
L 125.291488 147.476723 
L 128.570826 144.09286 
L 131.850165 141.01351 
L 135.129504 137.273473 
L 138.408843 135.230306 
L 141.688182 131.652445 
L 144.967521 129.03871 
L 148.24686 129.49174 
L 151.526198 127.143114 
L 154.805537 125.842913 
L 158.084876 125.551727 
L 161.364215 122.239899 
L 164.643554 121.904574 
L 167.922893 115.616457 
L 171.202231 112.420296 
L 174.48157 107.962422 
L 177.760909 106.994691 
L 181.040248 106.572754 
L 184.319587 104.01362 
L 187.598926 101.384816 
L 190.878264 100.48943 
L 194.157603 100.737394 
L 197.436942 96.151193 
L 200.716281 95.816853 
L 203.99562 92.411731 
L 207.274959 91.484343 
L 210.554298 91.618133 
L 213.833636 91.233183 
L 217.112975 87.197731 
L 220.392314 86.453212 
L 223.671653 85.765666 
L 226.950992 83.743447 
L 230.230331 81.234977 
L 233.509669 80.193377 
L 236.789008 78.245451 
L 240.068347 78.244565 
L 243.347686 77.772669 
L 246.627025 77.365248 
L 249.906364 77.402933 
L 253.185702 72.499446 
L 256.465041 70.941228 
L 259.74438 70.292601 
L 263.023719 70.005453 
L 266.303058 70.160206 
L 269.582397 69.599464 
L 272.861736 69.335727 
L 276.141074 69.365479 
L 279.420413 68.963005 
L 282.699752 67.606838 
L 285.979091 64.857912 
L 289.25843 64.568173 
L 292.537769 63.251464 
L 295.817107 97.320802 
L 299.096446 97.118435 
L 302.375785 97.003898 
L 305.655124 96.654691 
L 308.934463 96.669159 
L 312.213802 96.601801 
L 315.49314 96.428216 
L 318.772479 96.235082 
L 322.051818 96.10945 
L 325.331157 96.364071 
L 328.610496 96.022289 
L 331.889835 95.972904 
L 335.169174 95.623257 
L 338.448512 95.002592 
L 341.727851 94.916756 
L 345.00719 94.93352 
L 348.286529 94.897919 
L 351.565868 94.894429 
L 354.845207 94.755968 
L 358.124545 94.10109 
L 361.403884 93.949191 
L 364.683223 93.745143 
L 367.962562 93.684197 
L 371.241901 93.638969 
L 374.52124 93.150915 
L 377.800579 92.995149 
L 381.079917 92.834319 
L 384.359256 91.883353 
L 387.638595 91.804481 
L 390.917934 91.877408 
L 394.197273 91.695984 
" clip-path="url(#p0e741c804e)" style="fill: none; stroke: #8172b3; stroke-width: 1.5; stroke-linecap: round"/>
   </g>
   <g id="line2d_17"/>
   <g id="line2d_18"/>
   <g id="line2d_19"/>
   <g id="line2d_20"/>
   <g id="line2d_21"/>
   <g id="patch_3">
    <path d="M 53.31 273.312 
L 53.31 7.2 
" style="fill: none; stroke: #cccccc; stroke-width: 1.25; stroke-linejoin: miter; stroke-linecap: square"/>
   </g>
   <g id="patch_4">
    <path d="M 410.43 273.312 
L 410.43 7.2 
" style="fill: none; stroke: #cccccc; stroke-width: 1.25; stroke-linejoin: miter; stroke-linecap: square"/>
   </g>
   <g id="patch_5">
    <path d="M 53.31 273.312 
L 410.43 273.312 
" style="fill: none; stroke: #cccccc; stroke-width: 1.25; stroke-linejoin: miter; stroke-linecap: square"/>
   </g>
   <g id="patch_6">
    <path d="M 53.31 7.2 
L 410.43 7.2 
" style="fill: none; stroke: #cccccc; stroke-width: 1.25; stroke-linejoin: miter; stroke-linecap: square"/>
   </g>
   <g id="legend_1">
    <g id="patch_7">
     <path d="M 298.745625 267.812 
L 402.73 267.812 
Q 404.93 267.812 404.93 265.612 
L 404.93 168.868562 
Q 404.93 166.668562 402.73 166.668562 
L 298.745625 166.668562 
Q 296.545625 166.668562 296.545625 168.868562 
L 296.545625 265.612 
Q 296.545625 267.812 298.745625 267.812 
z
" style="fill: #ffffff; opacity: 0.8; stroke: #cccccc; stroke-linejoin: miter"/>
    </g>
    <g id="text_14">
     <!-- Strategy -->
     <g style="fill: #262626" transform="translate(325.02875 180.186687) scale(0.12 -0.12)">
      <defs>
       <path id="DejaVuSans-53" d="M 3425 4513 
L 3425 3897 
Q 3066 4069 2747 4153 
Q 2428 4238 2131 4238 
Q 1616 4238 1336 4038 
Q 1056 3838 1056 3469 
Q 1056 3159 1242 3001 
Q 1428 2844 1947 2747 
L 2328 2669 
Q 3034 2534 3370 2195 
Q 3706 1856 3706 1288 
Q 3706 609 3251 259 
Q 2797 -91 1919 -91 
Q 1588 -91 1214 -16 
Q 841 59 441 206 
L 441 856 
Q 825 641 1194 531 
Q 1563 422 1919 422 
Q 2459 422 2753 634 
Q 3047 847 3047 1241 
Q 3047 1584 2836 1778 
Q 2625 1972 2144 2069 
L 1759 2144 
Q 1053 2284 737 2584 
Q 422 2884 422 3419 
Q 422 4038 858 4394 
Q 1294 4750 2059 4750 
Q 2388 4750 2728 4690 
Q 3069 4631 3425 4513 
z
" transform="scale(0.015625)"/>
       <path id="DejaVuSans-74" d="M 1172 4494 
L 1172 3500 
L 2356 3500 
L 2356 3053 
L 1172 3053 
L 1172 1153 
Q 1172 725 1289 603 
Q 1406 481 1766 481 
L 2356 481 
L 2356 0 
L 1766 0 
Q 1100 0 847 248 
Q 594 497 594 1153 
L 594 3053 
L 172 3053 
L 172 3500 
L 594 3500 
L 594 4494 
L 1172 4494 
z
" transform="scale(0.015625)"/>
       <path id="DejaVuSans-65" d="M 3597 1894 
L 3597 1613 
L 953 1613 
Q 991 1019 1311 708 
Q 1631 397 2203 397 
Q 2534 397 2845 478 
Q 3156 559 3463 722 
L 3463 178 
Q 3153 47 2828 -22 
Q 2503 -91 2169 -91 
Q 1331 -91 842 396 
Q 353 884 353 1716 
Q 353 2575 817 3079 
Q 1281 3584 2069 3584 
Q 2775 3584 3186 3129 
Q 3597 2675 3597 1894 
z
M 3022 2063 
Q 3016 2534 2758 2815 
Q 2500 3097 2075 3097 
Q 1594 3097 1305 2825 
Q 1016 2553 972 2059 
L 3022 2063 
z
" transform="scale(0.015625)"/>
       <path id="DejaVuSans-67" d="M 2906 1791 
Q 2906 2416 2648 2759 
Q 2391 3103 1925 3103 
Q 1463 3103 1205 2759 
Q 947 2416 947 1791 
Q 947 1169 1205 825 
Q 1463 481 1925 481 
Q 2391 481 2648 825 
Q 2906 1169 2906 1791 
z
M 3481 434 
Q 3481 -459 3084 -895 
Q 2688 -1331 1869 -1331 
Q 1566 -1331 1297 -1286 
Q 1028 -1241 775 -1147 
L 775 -588 
Q 1028 -725 1275 -790 
Q 1522 -856 1778 -856 
Q 2344 -856 2625 -561 
Q 2906 -266 2906 331 
L 2906 616 
Q 2728 306 2450 153 
Q 2172 0 1784 0 
Q 1141 0 747 490 
Q 353 981 353 1791 
Q 353 2603 747 3093 
Q 1141 3584 1784 3584 
Q 2172 3584 2450 3431 
Q 2728 3278 2906 2969 
L 2906 3500 
L 3481 3500 
L 3481 434 
z
" transform="scale(0.015625)"/>
      </defs>
      <use xlink:href="#DejaVuSans-53"/>
      <use xlink:href="#DejaVuSans-74" x="63.476562"/>
      <use xlink:href="#DejaVuSans-72" x="102.685547"/>
      <use xlink:href="#DejaVuSans-61" x="143.798828"/>
      <use xlink:href="#DejaVuSans-74" x="205.078125"/>
      <use xlink:href="#DejaVuSans-65" x="244.287109"/>
      <use xlink:href="#DejaVuSans-67" x="305.810547"/>
      <use xlink:href="#DejaVuSans-79" x="369.287109"/>
     </g>
    </g>
    <g id="line2d_22">
     <path d="M 300.945625 192.690594 
L 311.945625 192.690594 
L 322.945625 192.690594 
" style="fill: none; stroke: #4c72b0; stroke-width: 1.5; stroke-linecap: round"/>
    </g>
    <g id="text_15">
     <!-- FedPredict -->
     <g style="fill: #262626" transform="translate(331.745625 196.540594) scale(0.11 -0.11)">
      <defs>
       <path id="DejaVuSans-46" d="M 628 4666 
L 3309 4666 
L 3309 4134 
L 1259 4134 
L 1259 2759 
L 3109 2759 
L 3109 2228 
L 1259 2228 
L 1259 0 
L 628 0 
L 628 4666 
z
" transform="scale(0.015625)"/>
       <path id="DejaVuSans-50" d="M 1259 4147 
L 1259 2394 
L 2053 2394 
Q 2494 2394 2734 2622 
Q 2975 2850 2975 3272 
Q 2975 3691 2734 3919 
Q 2494 4147 2053 4147 
L 1259 4147 
z
M 628 4666 
L 2053 4666 
Q 2838 4666 3239 4311 
Q 3641 3956 3641 3272 
Q 3641 2581 3239 2228 
Q 2838 1875 2053 1875 
L 1259 1875 
L 1259 0 
L 628 0 
L 628 4666 
z
" transform="scale(0.015625)"/>
       <path id="DejaVuSans-69" d="M 603 3500 
L 1178 3500 
L 1178 0 
L 603 0 
L 603 3500 
z
M 603 4863 
L 1178 4863 
L 1178 4134 
L 603 4134 
L 603 4863 
z
" transform="scale(0.015625)"/>
      </defs>
      <use xlink:href="#DejaVuSans-46"/>
      <use xlink:href="#DejaVuSans-65" x="52.019531"/>
      <use xlink:href="#DejaVuSans-64" x="113.542969"/>
      <use xlink:href="#DejaVuSans-50" x="177.019531"/>
      <use xlink:href="#DejaVuSans-72" x="235.572266"/>
      <use xlink:href="#DejaVuSans-65" x="274.435547"/>
      <use xlink:href="#DejaVuSans-64" x="335.958984"/>
      <use xlink:href="#DejaVuSans-69" x="399.435547"/>
      <use xlink:href="#DejaVuSans-63" x="427.21875"/>
      <use xlink:href="#DejaVuSans-74" x="482.199219"/>
     </g>
    </g>
    <g id="line2d_23">
     <path d="M 300.945625 208.836531 
L 311.945625 208.836531 
L 322.945625 208.836531 
" style="fill: none; stroke: #dd8452; stroke-width: 1.5; stroke-linecap: round"/>
    </g>
    <g id="text_16">
     <!-- FedAVG -->
     <g style="fill: #262626" transform="translate(331.745625 212.686531) scale(0.11 -0.11)">
      <defs>
       <path id="DejaVuSans-56" d="M 1831 0 
L 50 4666 
L 709 4666 
L 2188 738 
L 3669 4666 
L 4325 4666 
L 2547 0 
L 1831 0 
z
" transform="scale(0.015625)"/>
       <path id="DejaVuSans-47" d="M 3809 666 
L 3809 1919 
L 2778 1919 
L 2778 2438 
L 4434 2438 
L 4434 434 
Q 4069 175 3628 42 
Q 3188 -91 2688 -91 
Q 1594 -91 976 548 
Q 359 1188 359 2328 
Q 359 3472 976 4111 
Q 1594 4750 2688 4750 
Q 3144 4750 3555 4637 
Q 3966 4525 4313 4306 
L 4313 3634 
Q 3963 3931 3569 4081 
Q 3175 4231 2741 4231 
Q 1884 4231 1454 3753 
Q 1025 3275 1025 2328 
Q 1025 1384 1454 906 
Q 1884 428 2741 428 
Q 3075 428 3337 486 
Q 3600 544 3809 666 
z
" transform="scale(0.015625)"/>
      </defs>
      <use xlink:href="#DejaVuSans-46"/>
      <use xlink:href="#DejaVuSans-65" x="52.019531"/>
      <use xlink:href="#DejaVuSans-64" x="113.542969"/>
      <use xlink:href="#DejaVuSans-41" x="177.019531"/>
      <use xlink:href="#DejaVuSans-56" x="239.052734"/>
      <use xlink:href="#DejaVuSans-47" x="307.460938"/>
     </g>
    </g>
    <g id="line2d_24">
     <path d="M 300.945625 224.982469 
L 311.945625 224.982469 
L 322.945625 224.982469 
" style="fill: none; stroke: #55a868; stroke-width: 1.5; stroke-linecap: round"/>
    </g>
    <g id="text_17">
     <!-- FedClassAvg -->
     <g style="fill: #262626" transform="translate(331.745625 228.832469) scale(0.11 -0.11)">
      <defs>
       <path id="DejaVuSans-43" d="M 4122 4306 
L 4122 3641 
Q 3803 3938 3442 4084 
Q 3081 4231 2675 4231 
Q 1875 4231 1450 3742 
Q 1025 3253 1025 2328 
Q 1025 1406 1450 917 
Q 1875 428 2675 428 
Q 3081 428 3442 575 
Q 3803 722 4122 1019 
L 4122 359 
Q 3791 134 3420 21 
Q 3050 -91 2638 -91 
Q 1578 -91 968 557 
Q 359 1206 359 2328 
Q 359 3453 968 4101 
Q 1578 4750 2638 4750 
Q 3056 4750 3426 4639 
Q 3797 4528 4122 4306 
z
" transform="scale(0.015625)"/>
       <path id="DejaVuSans-6c" d="M 603 4863 
L 1178 4863 
L 1178 0 
L 603 0 
L 603 4863 
z
" transform="scale(0.015625)"/>
       <path id="DejaVuSans-73" d="M 2834 3397 
L 2834 2853 
Q 2591 2978 2328 3040 
Q 2066 3103 1784 3103 
Q 1356 3103 1142 2972 
Q 928 2841 928 2578 
Q 928 2378 1081 2264 
Q 1234 2150 1697 2047 
L 1894 2003 
Q 2506 1872 2764 1633 
Q 3022 1394 3022 966 
Q 3022 478 2636 193 
Q 2250 -91 1575 -91 
Q 1294 -91 989 -36 
Q 684 19 347 128 
L 347 722 
Q 666 556 975 473 
Q 1284 391 1588 391 
Q 1994 391 2212 530 
Q 2431 669 2431 922 
Q 2431 1156 2273 1281 
Q 2116 1406 1581 1522 
L 1381 1569 
Q 847 1681 609 1914 
Q 372 2147 372 2553 
Q 372 3047 722 3315 
Q 1072 3584 1716 3584 
Q 2034 3584 2315 3537 
Q 2597 3491 2834 3397 
z
" transform="scale(0.015625)"/>
       <path id="DejaVuSans-76" d="M 191 3500 
L 800 3500 
L 1894 563 
L 2988 3500 
L 3597 3500 
L 2284 0 
L 1503 0 
L 191 3500 
z
" transform="scale(0.015625)"/>
      </defs>
      <use xlink:href="#DejaVuSans-46"/>
      <use xlink:href="#DejaVuSans-65" x="52.019531"/>
      <use xlink:href="#DejaVuSans-64" x="113.542969"/>
      <use xlink:href="#DejaVuSans-43" x="177.019531"/>
      <use xlink:href="#DejaVuSans-6c" x="246.84375"/>
      <use xlink:href="#DejaVuSans-61" x="274.626953"/>
      <use xlink:href="#DejaVuSans-73" x="335.90625"/>
      <use xlink:href="#DejaVuSans-73" x="388.005859"/>
      <use xlink:href="#DejaVuSans-41" x="440.105469"/>
      <use xlink:href="#DejaVuSans-76" x="502.638672"/>
      <use xlink:href="#DejaVuSans-67" x="561.818359"/>
     </g>
    </g>
    <g id="line2d_25">
     <path d="M 300.945625 241.128406 
L 311.945625 241.128406 
L 322.945625 241.128406 
" style="fill: none; stroke: #c44e52; stroke-width: 1.5; stroke-linecap: round"/>
    </g>
    <g id="text_18">
     <!-- FedPer -->
     <g style="fill: #262626" transform="translate(331.745625 244.978406) scale(0.11 -0.11)">
      <use xlink:href="#DejaVuSans-46"/>
      <use xlink:href="#DejaVuSans-65" x="52.019531"/>
      <use xlink:href="#DejaVuSans-64" x="113.542969"/>
      <use xlink:href="#DejaVuSans-50" x="177.019531"/>
      <use xlink:href="#DejaVuSans-65" x="233.697266"/>
      <use xlink:href="#DejaVuSans-72" x="295.220703"/>
     </g>
    </g>
    <g id="line2d_26">
     <path d="M 300.945625 257.274344 
L 311.945625 257.274344 
L 322.945625 257.274344 
" style="fill: none; stroke: #8172b3; stroke-width: 1.5; stroke-linecap: round"/>
    </g>
    <g id="text_19">
     <!-- FedProto -->
     <g style="fill: #262626" transform="translate(331.745625 261.124344) scale(0.11 -0.11)">
      <use xlink:href="#DejaVuSans-46"/>
      <use xlink:href="#DejaVuSans-65" x="52.019531"/>
      <use xlink:href="#DejaVuSans-64" x="113.542969"/>
      <use xlink:href="#DejaVuSans-50" x="177.019531"/>
      <use xlink:href="#DejaVuSans-72" x="235.572266"/>
      <use xlink:href="#DejaVuSans-6f" x="274.435547"/>
      <use xlink:href="#DejaVuSans-74" x="335.617188"/>
      <use xlink:href="#DejaVuSans-6f" x="374.826172"/>
     </g>
    </g>
   </g>
  </g>
 </g>
 <defs>
  <clipPath id="p0e741c804e">
   <rect x="53.31" y="7.2" width="357.12" height="266.112"/>
  </clipPath>
 </defs>
</svg>
