<?xml version="1.0" encoding="utf-8" standalone="no"?>
<!DOCTYPE svg PUBLIC "-//W3C//DTD SVG 1.1//EN"
  "http://www.w3.org/Graphics/SVG/1.1/DTD/svg11.dtd">
<svg xmlns:xlink="http://www.w3.org/1999/xlink" width="410.63125pt" height="316.271687pt" viewBox="0 0 410.63125 316.271687" xmlns="http://www.w3.org/2000/svg" version="1.1">
 <metadata>
  <rdf:RDF xmlns:dc="http://purl.org/dc/elements/1.1/" xmlns:cc="http://creativecommons.org/ns#" xmlns:rdf="http://www.w3.org/1999/02/22-rdf-syntax-ns#">
   <cc:Work>
    <dc:type rdf:resource="http://purl.org/dc/dcmitype/StillImage"/>
    <dc:date>2023-03-01T17:11:35.167658</dc:date>
    <dc:format>image/svg+xml</dc:format>
    <dc:creator>
     <cc:Agent>
      <dc:title>Matplotlib v3.6.3, https://matplotlib.org/</dc:title>
     </cc:Agent>
    </dc:creator>
   </cc:Work>
  </rdf:RDF>
 </metadata>
 <defs>
  <style type="text/css">*{stroke-linejoin: round; stroke-linecap: butt}</style>
 </defs>
 <g id="figure_1">
  <g id="patch_1">
   <path d="M 0 316.271687 
L 410.63125 316.271687 
L 410.63125 0 
L 0 0 
z
" style="fill: #ffffff"/>
  </g>
  <g id="axes_1">
   <g id="patch_2">
    <path d="M 46.31125 273.312 
L 403.43125 273.312 
L 403.43125 7.2 
L 46.31125 7.2 
z
" style="fill: #ffffff"/>
   </g>
   <g id="matplotlib.axis_1">
    <g id="xtick_1">
     <g id="line2d_1">
      <path d="M 59.264638 273.312 
L 59.264638 7.2 
" clip-path="url(#pe644615caf)" style="fill: none; stroke: #cccccc; stroke-linecap: round"/>
     </g>
     <g id="text_1">
      <!-- 0 -->
      <g style="fill: #262626" transform="translate(55.765263 291.170281) scale(0.11 -0.11)">
       <defs>
        <path id="DejaVuSans-30" d="M 2034 4250 
Q 1547 4250 1301 3770 
Q 1056 3291 1056 2328 
Q 1056 1369 1301 889 
Q 1547 409 2034 409 
Q 2525 409 2770 889 
Q 3016 1369 3016 2328 
Q 3016 3291 2770 3770 
Q 2525 4250 2034 4250 
z
M 2034 4750 
Q 2819 4750 3233 4129 
Q 3647 3509 3647 2328 
Q 3647 1150 3233 529 
Q 2819 -91 2034 -91 
Q 1250 -91 836 529 
Q 422 1150 422 2328 
Q 422 3509 836 4129 
Q 1250 4750 2034 4750 
z
" transform="scale(0.015625)"/>
       </defs>
       <use xlink:href="#DejaVuSans-30"/>
      </g>
     </g>
    </g>
    <g id="xtick_2">
     <g id="line2d_2">
      <path d="M 124.851415 273.312 
L 124.851415 7.2 
" clip-path="url(#pe644615caf)" style="fill: none; stroke: #cccccc; stroke-linecap: round"/>
     </g>
     <g id="text_2">
      <!-- 20 -->
      <g style="fill: #262626" transform="translate(117.852665 291.170281) scale(0.11 -0.11)">
       <defs>
        <path id="DejaVuSans-32" d="M 1228 531 
L 3431 531 
L 3431 0 
L 469 0 
L 469 531 
Q 828 903 1448 1529 
Q 2069 2156 2228 2338 
Q 2531 2678 2651 2914 
Q 2772 3150 2772 3378 
Q 2772 3750 2511 3984 
Q 2250 4219 1831 4219 
Q 1534 4219 1204 4116 
Q 875 4013 500 3803 
L 500 4441 
Q 881 4594 1212 4672 
Q 1544 4750 1819 4750 
Q 2544 4750 2975 4387 
Q 3406 4025 3406 3419 
Q 3406 3131 3298 2873 
Q 3191 2616 2906 2266 
Q 2828 2175 2409 1742 
Q 1991 1309 1228 531 
z
" transform="scale(0.015625)"/>
       </defs>
       <use xlink:href="#DejaVuSans-32"/>
       <use xlink:href="#DejaVuSans-30" x="63.623047"/>
      </g>
     </g>
    </g>
    <g id="xtick_3">
     <g id="line2d_3">
      <path d="M 190.438192 273.312 
L 190.438192 7.2 
" clip-path="url(#pe644615caf)" style="fill: none; stroke: #cccccc; stroke-linecap: round"/>
     </g>
     <g id="text_3">
      <!-- 40 -->
      <g style="fill: #262626" transform="translate(183.439442 291.170281) scale(0.11 -0.11)">
       <defs>
        <path id="DejaVuSans-34" d="M 2419 4116 
L 825 1625 
L 2419 1625 
L 2419 4116 
z
M 2253 4666 
L 3047 4666 
L 3047 1625 
L 3713 1625 
L 3713 1100 
L 3047 1100 
L 3047 0 
L 2419 0 
L 2419 1100 
L 313 1100 
L 313 1709 
L 2253 4666 
z
" transform="scale(0.015625)"/>
       </defs>
       <use xlink:href="#DejaVuSans-34"/>
       <use xlink:href="#DejaVuSans-30" x="63.623047"/>
      </g>
     </g>
    </g>
    <g id="xtick_4">
     <g id="line2d_4">
      <path d="M 256.024969 273.312 
L 256.024969 7.2 
" clip-path="url(#pe644615caf)" style="fill: none; stroke: #cccccc; stroke-linecap: round"/>
     </g>
     <g id="text_4">
      <!-- 60 -->
      <g style="fill: #262626" transform="translate(249.026219 291.170281) scale(0.11 -0.11)">
       <defs>
        <path id="DejaVuSans-36" d="M 2113 2584 
Q 1688 2584 1439 2293 
Q 1191 2003 1191 1497 
Q 1191 994 1439 701 
Q 1688 409 2113 409 
Q 2538 409 2786 701 
Q 3034 994 3034 1497 
Q 3034 2003 2786 2293 
Q 2538 2584 2113 2584 
z
M 3366 4563 
L 3366 3988 
Q 3128 4100 2886 4159 
Q 2644 4219 2406 4219 
Q 1781 4219 1451 3797 
Q 1122 3375 1075 2522 
Q 1259 2794 1537 2939 
Q 1816 3084 2150 3084 
Q 2853 3084 3261 2657 
Q 3669 2231 3669 1497 
Q 3669 778 3244 343 
Q 2819 -91 2113 -91 
Q 1303 -91 875 529 
Q 447 1150 447 2328 
Q 447 3434 972 4092 
Q 1497 4750 2381 4750 
Q 2619 4750 2861 4703 
Q 3103 4656 3366 4563 
z
" transform="scale(0.015625)"/>
       </defs>
       <use xlink:href="#DejaVuSans-36"/>
       <use xlink:href="#DejaVuSans-30" x="63.623047"/>
      </g>
     </g>
    </g>
    <g id="xtick_5">
     <g id="line2d_5">
      <path d="M 321.611746 273.312 
L 321.611746 7.2 
" clip-path="url(#pe644615caf)" style="fill: none; stroke: #cccccc; stroke-linecap: round"/>
     </g>
     <g id="text_5">
      <!-- 80 -->
      <g style="fill: #262626" transform="translate(314.612996 291.170281) scale(0.11 -0.11)">
       <defs>
        <path id="DejaVuSans-38" d="M 2034 2216 
Q 1584 2216 1326 1975 
Q 1069 1734 1069 1313 
Q 1069 891 1326 650 
Q 1584 409 2034 409 
Q 2484 409 2743 651 
Q 3003 894 3003 1313 
Q 3003 1734 2745 1975 
Q 2488 2216 2034 2216 
z
M 1403 2484 
Q 997 2584 770 2862 
Q 544 3141 544 3541 
Q 544 4100 942 4425 
Q 1341 4750 2034 4750 
Q 2731 4750 3128 4425 
Q 3525 4100 3525 3541 
Q 3525 3141 3298 2862 
Q 3072 2584 2669 2484 
Q 3125 2378 3379 2068 
Q 3634 1759 3634 1313 
Q 3634 634 3220 271 
Q 2806 -91 2034 -91 
Q 1263 -91 848 271 
Q 434 634 434 1313 
Q 434 1759 690 2068 
Q 947 2378 1403 2484 
z
M 1172 3481 
Q 1172 3119 1398 2916 
Q 1625 2713 2034 2713 
Q 2441 2713 2670 2916 
Q 2900 3119 2900 3481 
Q 2900 3844 2670 4047 
Q 2441 4250 2034 4250 
Q 1625 4250 1398 4047 
Q 1172 3844 1172 3481 
z
" transform="scale(0.015625)"/>
       </defs>
       <use xlink:href="#DejaVuSans-38"/>
       <use xlink:href="#DejaVuSans-30" x="63.623047"/>
      </g>
     </g>
    </g>
    <g id="xtick_6">
     <g id="line2d_6">
      <path d="M 387.198523 273.312 
L 387.198523 7.2 
" clip-path="url(#pe644615caf)" style="fill: none; stroke: #cccccc; stroke-linecap: round"/>
     </g>
     <g id="text_6">
      <!-- 100 -->
      <g style="fill: #262626" transform="translate(376.700398 291.170281) scale(0.11 -0.11)">
       <defs>
        <path id="DejaVuSans-31" d="M 794 531 
L 1825 531 
L 1825 4091 
L 703 3866 
L 703 4441 
L 1819 4666 
L 2450 4666 
L 2450 531 
L 3481 531 
L 3481 0 
L 794 0 
L 794 531 
z
" transform="scale(0.015625)"/>
       </defs>
       <use xlink:href="#DejaVuSans-31"/>
       <use xlink:href="#DejaVuSans-30" x="63.623047"/>
       <use xlink:href="#DejaVuSans-30" x="127.246094"/>
      </g>
     </g>
    </g>
    <g id="text_7">
     <!-- Server round -->
     <g style="fill: #262626" transform="translate(185.870313 306.576062) scale(0.12 -0.12)">
      <defs>
       <path id="DejaVuSans-53" d="M 3425 4513 
L 3425 3897 
Q 3066 4069 2747 4153 
Q 2428 4238 2131 4238 
Q 1616 4238 1336 4038 
Q 1056 3838 1056 3469 
Q 1056 3159 1242 3001 
Q 1428 2844 1947 2747 
L 2328 2669 
Q 3034 2534 3370 2195 
Q 3706 1856 3706 1288 
Q 3706 609 3251 259 
Q 2797 -91 1919 -91 
Q 1588 -91 1214 -16 
Q 841 59 441 206 
L 441 856 
Q 825 641 1194 531 
Q 1563 422 1919 422 
Q 2459 422 2753 634 
Q 3047 847 3047 1241 
Q 3047 1584 2836 1778 
Q 2625 1972 2144 2069 
L 1759 2144 
Q 1053 2284 737 2584 
Q 422 2884 422 3419 
Q 422 4038 858 4394 
Q 1294 4750 2059 4750 
Q 2388 4750 2728 4690 
Q 3069 4631 3425 4513 
z
" transform="scale(0.015625)"/>
       <path id="DejaVuSans-65" d="M 3597 1894 
L 3597 1613 
L 953 1613 
Q 991 1019 1311 708 
Q 1631 397 2203 397 
Q 2534 397 2845 478 
Q 3156 559 3463 722 
L 3463 178 
Q 3153 47 2828 -22 
Q 2503 -91 2169 -91 
Q 1331 -91 842 396 
Q 353 884 353 1716 
Q 353 2575 817 3079 
Q 1281 3584 2069 3584 
Q 2775 3584 3186 3129 
Q 3597 2675 3597 1894 
z
M 3022 2063 
Q 3016 2534 2758 2815 
Q 2500 3097 2075 3097 
Q 1594 3097 1305 2825 
Q 1016 2553 972 2059 
L 3022 2063 
z
" transform="scale(0.015625)"/>
       <path id="DejaVuSans-72" d="M 2631 2963 
Q 2534 3019 2420 3045 
Q 2306 3072 2169 3072 
Q 1681 3072 1420 2755 
Q 1159 2438 1159 1844 
L 1159 0 
L 581 0 
L 581 3500 
L 1159 3500 
L 1159 2956 
Q 1341 3275 1631 3429 
Q 1922 3584 2338 3584 
Q 2397 3584 2469 3576 
Q 2541 3569 2628 3553 
L 2631 2963 
z
" transform="scale(0.015625)"/>
       <path id="DejaVuSans-76" d="M 191 3500 
L 800 3500 
L 1894 563 
L 2988 3500 
L 3597 3500 
L 2284 0 
L 1503 0 
L 191 3500 
z
" transform="scale(0.015625)"/>
       <path id="DejaVuSans-20" transform="scale(0.015625)"/>
       <path id="DejaVuSans-6f" d="M 1959 3097 
Q 1497 3097 1228 2736 
Q 959 2375 959 1747 
Q 959 1119 1226 758 
Q 1494 397 1959 397 
Q 2419 397 2687 759 
Q 2956 1122 2956 1747 
Q 2956 2369 2687 2733 
Q 2419 3097 1959 3097 
z
M 1959 3584 
Q 2709 3584 3137 3096 
Q 3566 2609 3566 1747 
Q 3566 888 3137 398 
Q 2709 -91 1959 -91 
Q 1206 -91 779 398 
Q 353 888 353 1747 
Q 353 2609 779 3096 
Q 1206 3584 1959 3584 
z
" transform="scale(0.015625)"/>
       <path id="DejaVuSans-75" d="M 544 1381 
L 544 3500 
L 1119 3500 
L 1119 1403 
Q 1119 906 1312 657 
Q 1506 409 1894 409 
Q 2359 409 2629 706 
Q 2900 1003 2900 1516 
L 2900 3500 
L 3475 3500 
L 3475 0 
L 2900 0 
L 2900 538 
Q 2691 219 2414 64 
Q 2138 -91 1772 -91 
Q 1169 -91 856 284 
Q 544 659 544 1381 
z
M 1991 3584 
L 1991 3584 
z
" transform="scale(0.015625)"/>
       <path id="DejaVuSans-6e" d="M 3513 2113 
L 3513 0 
L 2938 0 
L 2938 2094 
Q 2938 2591 2744 2837 
Q 2550 3084 2163 3084 
Q 1697 3084 1428 2787 
Q 1159 2491 1159 1978 
L 1159 0 
L 581 0 
L 581 3500 
L 1159 3500 
L 1159 2956 
Q 1366 3272 1645 3428 
Q 1925 3584 2291 3584 
Q 2894 3584 3203 3211 
Q 3513 2838 3513 2113 
z
" transform="scale(0.015625)"/>
       <path id="DejaVuSans-64" d="M 2906 2969 
L 2906 4863 
L 3481 4863 
L 3481 0 
L 2906 0 
L 2906 525 
Q 2725 213 2448 61 
Q 2172 -91 1784 -91 
Q 1150 -91 751 415 
Q 353 922 353 1747 
Q 353 2572 751 3078 
Q 1150 3584 1784 3584 
Q 2172 3584 2448 3432 
Q 2725 3281 2906 2969 
z
M 947 1747 
Q 947 1113 1208 752 
Q 1469 391 1925 391 
Q 2381 391 2643 752 
Q 2906 1113 2906 1747 
Q 2906 2381 2643 2742 
Q 2381 3103 1925 3103 
Q 1469 3103 1208 2742 
Q 947 2381 947 1747 
z
" transform="scale(0.015625)"/>
      </defs>
      <use xlink:href="#DejaVuSans-53"/>
      <use xlink:href="#DejaVuSans-65" x="63.476562"/>
      <use xlink:href="#DejaVuSans-72" x="125"/>
      <use xlink:href="#DejaVuSans-76" x="166.113281"/>
      <use xlink:href="#DejaVuSans-65" x="225.292969"/>
      <use xlink:href="#DejaVuSans-72" x="286.816406"/>
      <use xlink:href="#DejaVuSans-20" x="327.929688"/>
      <use xlink:href="#DejaVuSans-72" x="359.716797"/>
      <use xlink:href="#DejaVuSans-6f" x="398.580078"/>
      <use xlink:href="#DejaVuSans-75" x="459.761719"/>
      <use xlink:href="#DejaVuSans-6e" x="523.140625"/>
      <use xlink:href="#DejaVuSans-64" x="586.519531"/>
     </g>
    </g>
   </g>
   <g id="matplotlib.axis_2">
    <g id="ytick_1">
     <g id="line2d_7">
      <path d="M 46.31125 255.241394 
L 403.43125 255.241394 
" clip-path="url(#pe644615caf)" style="fill: none; stroke: #cccccc; stroke-linecap: round"/>
     </g>
     <g id="text_8">
      <!-- 4 -->
      <g style="fill: #262626" transform="translate(29.8125 259.420535) scale(0.11 -0.11)">
       <use xlink:href="#DejaVuSans-34"/>
      </g>
     </g>
    </g>
    <g id="ytick_2">
     <g id="line2d_8">
      <path d="M 46.31125 221.914338 
L 403.43125 221.914338 
" clip-path="url(#pe644615caf)" style="fill: none; stroke: #cccccc; stroke-linecap: round"/>
     </g>
     <g id="text_9">
      <!-- 5 -->
      <g style="fill: #262626" transform="translate(29.8125 226.093478) scale(0.11 -0.11)">
       <defs>
        <path id="DejaVuSans-35" d="M 691 4666 
L 3169 4666 
L 3169 4134 
L 1269 4134 
L 1269 2991 
Q 1406 3038 1543 3061 
Q 1681 3084 1819 3084 
Q 2600 3084 3056 2656 
Q 3513 2228 3513 1497 
Q 3513 744 3044 326 
Q 2575 -91 1722 -91 
Q 1428 -91 1123 -41 
Q 819 9 494 109 
L 494 744 
Q 775 591 1075 516 
Q 1375 441 1709 441 
Q 2250 441 2565 725 
Q 2881 1009 2881 1497 
Q 2881 1984 2565 2268 
Q 2250 2553 1709 2553 
Q 1456 2553 1204 2497 
Q 953 2441 691 2322 
L 691 4666 
z
" transform="scale(0.015625)"/>
       </defs>
       <use xlink:href="#DejaVuSans-35"/>
      </g>
     </g>
    </g>
    <g id="ytick_3">
     <g id="line2d_9">
      <path d="M 46.31125 188.587281 
L 403.43125 188.587281 
" clip-path="url(#pe644615caf)" style="fill: none; stroke: #cccccc; stroke-linecap: round"/>
     </g>
     <g id="text_10">
      <!-- 6 -->
      <g style="fill: #262626" transform="translate(29.8125 192.766422) scale(0.11 -0.11)">
       <use xlink:href="#DejaVuSans-36"/>
      </g>
     </g>
    </g>
    <g id="ytick_4">
     <g id="line2d_10">
      <path d="M 46.31125 155.260225 
L 403.43125 155.260225 
" clip-path="url(#pe644615caf)" style="fill: none; stroke: #cccccc; stroke-linecap: round"/>
     </g>
     <g id="text_11">
      <!-- 7 -->
      <g style="fill: #262626" transform="translate(29.8125 159.439366) scale(0.11 -0.11)">
       <defs>
        <path id="DejaVuSans-37" d="M 525 4666 
L 3525 4666 
L 3525 4397 
L 1831 0 
L 1172 0 
L 2766 4134 
L 525 4134 
L 525 4666 
z
" transform="scale(0.015625)"/>
       </defs>
       <use xlink:href="#DejaVuSans-37"/>
      </g>
     </g>
    </g>
    <g id="ytick_5">
     <g id="line2d_11">
      <path d="M 46.31125 121.933168 
L 403.43125 121.933168 
" clip-path="url(#pe644615caf)" style="fill: none; stroke: #cccccc; stroke-linecap: round"/>
     </g>
     <g id="text_12">
      <!-- 8 -->
      <g style="fill: #262626" transform="translate(29.8125 126.112309) scale(0.11 -0.11)">
       <use xlink:href="#DejaVuSans-38"/>
      </g>
     </g>
    </g>
    <g id="ytick_6">
     <g id="line2d_12">
      <path d="M 46.31125 88.606112 
L 403.43125 88.606112 
" clip-path="url(#pe644615caf)" style="fill: none; stroke: #cccccc; stroke-linecap: round"/>
     </g>
     <g id="text_13">
      <!-- 9 -->
      <g style="fill: #262626" transform="translate(29.8125 92.785253) scale(0.11 -0.11)">
       <defs>
        <path id="DejaVuSans-39" d="M 703 97 
L 703 672 
Q 941 559 1184 500 
Q 1428 441 1663 441 
Q 2288 441 2617 861 
Q 2947 1281 2994 2138 
Q 2813 1869 2534 1725 
Q 2256 1581 1919 1581 
Q 1219 1581 811 2004 
Q 403 2428 403 3163 
Q 403 3881 828 4315 
Q 1253 4750 1959 4750 
Q 2769 4750 3195 4129 
Q 3622 3509 3622 2328 
Q 3622 1225 3098 567 
Q 2575 -91 1691 -91 
Q 1453 -91 1209 -44 
Q 966 3 703 97 
z
M 1959 2075 
Q 2384 2075 2632 2365 
Q 2881 2656 2881 3163 
Q 2881 3666 2632 3958 
Q 2384 4250 1959 4250 
Q 1534 4250 1286 3958 
Q 1038 3666 1038 3163 
Q 1038 2656 1286 2365 
Q 1534 2075 1959 2075 
z
" transform="scale(0.015625)"/>
       </defs>
       <use xlink:href="#DejaVuSans-39"/>
      </g>
     </g>
    </g>
    <g id="ytick_7">
     <g id="line2d_13">
      <path d="M 46.31125 55.279056 
L 403.43125 55.279056 
" clip-path="url(#pe644615caf)" style="fill: none; stroke: #cccccc; stroke-linecap: round"/>
     </g>
     <g id="text_14">
      <!-- 10 -->
      <g style="fill: #262626" transform="translate(22.81375 59.458196) scale(0.11 -0.11)">
       <use xlink:href="#DejaVuSans-31"/>
       <use xlink:href="#DejaVuSans-30" x="63.623047"/>
      </g>
     </g>
    </g>
    <g id="ytick_8">
     <g id="line2d_14">
      <path d="M 46.31125 21.951999 
L 403.43125 21.951999 
" clip-path="url(#pe644615caf)" style="fill: none; stroke: #cccccc; stroke-linecap: round"/>
     </g>
     <g id="text_15">
      <!-- 11 -->
      <g style="fill: #262626" transform="translate(22.81375 26.13114) scale(0.11 -0.11)">
       <use xlink:href="#DejaVuSans-31"/>
       <use xlink:href="#DejaVuSans-31" x="63.623047"/>
      </g>
     </g>
    </g>
    <g id="text_16">
     <!-- Time (seconds) -->
     <g style="fill: #262626" transform="translate(16.318125 186.050062) rotate(-90) scale(0.12 -0.12)">
      <defs>
       <path id="DejaVuSans-54" d="M -19 4666 
L 3928 4666 
L 3928 4134 
L 2272 4134 
L 2272 0 
L 1638 0 
L 1638 4134 
L -19 4134 
L -19 4666 
z
" transform="scale(0.015625)"/>
       <path id="DejaVuSans-69" d="M 603 3500 
L 1178 3500 
L 1178 0 
L 603 0 
L 603 3500 
z
M 603 4863 
L 1178 4863 
L 1178 4134 
L 603 4134 
L 603 4863 
z
" transform="scale(0.015625)"/>
       <path id="DejaVuSans-6d" d="M 3328 2828 
Q 3544 3216 3844 3400 
Q 4144 3584 4550 3584 
Q 5097 3584 5394 3201 
Q 5691 2819 5691 2113 
L 5691 0 
L 5113 0 
L 5113 2094 
Q 5113 2597 4934 2840 
Q 4756 3084 4391 3084 
Q 3944 3084 3684 2787 
Q 3425 2491 3425 1978 
L 3425 0 
L 2847 0 
L 2847 2094 
Q 2847 2600 2669 2842 
Q 2491 3084 2119 3084 
Q 1678 3084 1418 2786 
Q 1159 2488 1159 1978 
L 1159 0 
L 581 0 
L 581 3500 
L 1159 3500 
L 1159 2956 
Q 1356 3278 1631 3431 
Q 1906 3584 2284 3584 
Q 2666 3584 2933 3390 
Q 3200 3197 3328 2828 
z
" transform="scale(0.015625)"/>
       <path id="DejaVuSans-28" d="M 1984 4856 
Q 1566 4138 1362 3434 
Q 1159 2731 1159 2009 
Q 1159 1288 1364 580 
Q 1569 -128 1984 -844 
L 1484 -844 
Q 1016 -109 783 600 
Q 550 1309 550 2009 
Q 550 2706 781 3412 
Q 1013 4119 1484 4856 
L 1984 4856 
z
" transform="scale(0.015625)"/>
       <path id="DejaVuSans-73" d="M 2834 3397 
L 2834 2853 
Q 2591 2978 2328 3040 
Q 2066 3103 1784 3103 
Q 1356 3103 1142 2972 
Q 928 2841 928 2578 
Q 928 2378 1081 2264 
Q 1234 2150 1697 2047 
L 1894 2003 
Q 2506 1872 2764 1633 
Q 3022 1394 3022 966 
Q 3022 478 2636 193 
Q 2250 -91 1575 -91 
Q 1294 -91 989 -36 
Q 684 19 347 128 
L 347 722 
Q 666 556 975 473 
Q 1284 391 1588 391 
Q 1994 391 2212 530 
Q 2431 669 2431 922 
Q 2431 1156 2273 1281 
Q 2116 1406 1581 1522 
L 1381 1569 
Q 847 1681 609 1914 
Q 372 2147 372 2553 
Q 372 3047 722 3315 
Q 1072 3584 1716 3584 
Q 2034 3584 2315 3537 
Q 2597 3491 2834 3397 
z
" transform="scale(0.015625)"/>
       <path id="DejaVuSans-63" d="M 3122 3366 
L 3122 2828 
Q 2878 2963 2633 3030 
Q 2388 3097 2138 3097 
Q 1578 3097 1268 2742 
Q 959 2388 959 1747 
Q 959 1106 1268 751 
Q 1578 397 2138 397 
Q 2388 397 2633 464 
Q 2878 531 3122 666 
L 3122 134 
Q 2881 22 2623 -34 
Q 2366 -91 2075 -91 
Q 1284 -91 818 406 
Q 353 903 353 1747 
Q 353 2603 823 3093 
Q 1294 3584 2113 3584 
Q 2378 3584 2631 3529 
Q 2884 3475 3122 3366 
z
" transform="scale(0.015625)"/>
       <path id="DejaVuSans-29" d="M 513 4856 
L 1013 4856 
Q 1481 4119 1714 3412 
Q 1947 2706 1947 2009 
Q 1947 1309 1714 600 
Q 1481 -109 1013 -844 
L 513 -844 
Q 928 -128 1133 580 
Q 1338 1288 1338 2009 
Q 1338 2731 1133 3434 
Q 928 4138 513 4856 
z
" transform="scale(0.015625)"/>
      </defs>
      <use xlink:href="#DejaVuSans-54"/>
      <use xlink:href="#DejaVuSans-69" x="57.958984"/>
      <use xlink:href="#DejaVuSans-6d" x="85.742188"/>
      <use xlink:href="#DejaVuSans-65" x="183.154297"/>
      <use xlink:href="#DejaVuSans-20" x="244.677734"/>
      <use xlink:href="#DejaVuSans-28" x="276.464844"/>
      <use xlink:href="#DejaVuSans-73" x="315.478516"/>
      <use xlink:href="#DejaVuSans-65" x="367.578125"/>
      <use xlink:href="#DejaVuSans-63" x="429.101562"/>
      <use xlink:href="#DejaVuSans-6f" x="484.082031"/>
      <use xlink:href="#DejaVuSans-6e" x="545.263672"/>
      <use xlink:href="#DejaVuSans-64" x="608.642578"/>
      <use xlink:href="#DejaVuSans-73" x="672.119141"/>
      <use xlink:href="#DejaVuSans-29" x="724.21875"/>
     </g>
    </g>
   </g>
   <g id="PolyCollection_1"/>
   <g id="PolyCollection_2"/>
   <g id="PolyCollection_3"/>
   <g id="PolyCollection_4"/>
   <g id="PolyCollection_5"/>
   <g id="line2d_15">
    <path d="M 62.543977 79.97855 
L 65.823316 238.983157 
L 69.102655 234.98509 
L 72.381994 237.353181 
L 75.661333 234.565266 
L 78.940671 243.551334 
L 82.22001 231.503658 
L 85.499349 225.047696 
L 88.778688 240.46163 
L 92.058027 230.041371 
L 95.337366 229.301379 
L 98.616705 225.717606 
L 101.896043 239.478744 
L 105.175382 234.933355 
L 108.454721 237.01953 
L 111.73406 247.11398 
L 115.013399 232.417249 
L 118.292738 243.300676 
L 121.572076 228.873014 
L 124.851415 233.281139 
L 128.130754 236.124826 
L 131.410093 237.444963 
L 134.689432 230.167319 
L 137.968771 227.821309 
L 141.24811 250.390076 
L 144.527448 231.327071 
L 147.806787 225.428721 
L 151.086126 233.845354 
L 154.365465 238.322782 
L 157.644804 228.687225 
L 160.924143 235.800511 
L 164.203481 239.115391 
L 167.48282 244.17488 
L 170.762159 237.328057 
L 174.041498 233.40004 
L 177.320837 243.921195 
L 180.600176 228.925416 
L 183.879514 242.102213 
L 187.158853 229.959155 
L 190.438192 231.146495 
L 193.717531 231.849896 
L 196.99687 243.36317 
L 200.276209 237.810891 
L 203.555548 226.117795 
L 206.834886 246.094019 
L 210.114225 236.056222 
L 213.393564 241.382658 
L 216.672903 227.893497 
L 219.952242 243.545073 
L 223.231581 244.168452 
L 226.510919 236.27582 
L 229.790258 229.23318 
L 233.069597 233.62694 
L 236.348936 226.29215 
L 239.628275 227.049439 
L 242.907614 246.089354 
L 246.186952 241.674674 
L 249.466291 227.91739 
L 252.74563 242.764335 
L 256.024969 231.649932 
L 259.304308 234.044245 
L 262.583647 241.655437 
L 265.862986 247.979928 
L 269.142324 237.456445 
L 272.421663 236.334642 
L 275.701002 229.399295 
L 278.980341 239.976349 
L 282.25968 236.741181 
L 285.539019 227.727851 
L 288.818357 217.394407 
L 292.097696 199.921855 
L 295.377035 207.045334 
L 298.656374 207.79637 
L 301.935713 206.827548 
L 305.215052 215.627844 
L 308.49439 201.976644 
L 311.773729 203.885627 
L 315.053068 206.011762 
L 318.332407 215.185104 
L 321.611746 201.715497 
L 324.891085 203.699458 
L 328.170424 205.23027 
L 331.449762 193.546177 
L 334.729101 219.694912 
L 338.00844 196.150576 
L 341.287779 209.250815 
L 344.567118 197.222495 
L 347.846457 204.409771 
L 351.125795 217.147317 
L 354.405134 213.97241 
L 357.684473 207.59411 
L 360.963812 212.330651 
L 364.243151 217.695354 
L 367.52249 211.112132 
L 370.801829 205.499664 
L 374.081167 206.735258 
L 377.360506 202.800018 
L 380.639845 222.154698 
L 383.919184 200.58393 
L 387.198523 202.435227 
" clip-path="url(#pe644615caf)" style="fill: none; stroke: #4c72b0; stroke-width: 1.5; stroke-linecap: round"/>
   </g>
   <g id="line2d_16">
    <path d="M 62.543977 37.514543 
L 65.823316 240.698645 
L 69.102655 241.028443 
L 72.381994 242.373085 
L 75.661333 245.417411 
L 78.940671 250.594982 
L 82.22001 236.327674 
L 85.499349 236.999482 
L 88.778688 246.441242 
L 92.058027 242.373871 
L 95.337366 238.327049 
L 98.616705 237.448006 
L 101.896043 249.825322 
L 105.175382 247.363144 
L 108.454721 250.081184 
L 111.73406 255.799769 
L 115.013399 244.877391 
L 118.292738 253.449619 
L 121.572076 234.678923 
L 124.851415 244.77578 
L 128.130754 247.682692 
L 131.410093 252.559881 
L 134.689432 236.981517 
L 137.968771 237.829889 
L 141.24811 257.712995 
L 144.527448 240.434733 
L 147.806787 240.51439 
L 151.086126 240.13799 
L 154.365465 251.463267 
L 157.644804 238.712015 
L 160.924143 241.172301 
L 164.203481 249.657014 
L 167.48282 253.333721 
L 170.762159 248.159089 
L 174.041498 247.663828 
L 177.320837 254.17406 
L 180.600176 240.09049 
L 183.879514 247.661898 
L 187.158853 242.866717 
L 190.438192 244.247965 
L 193.717531 236.499724 
L 196.99687 247.293006 
L 200.276209 249.034906 
L 203.555548 237.779711 
L 206.834886 250.845354 
L 210.114225 240.924742 
L 213.393564 246.22429 
L 216.672903 239.977882 
L 219.952242 253.149172 
L 223.231581 250.391578 
L 226.510919 245.902962 
L 229.790258 241.858364 
L 233.069597 245.909406 
L 236.348936 236.829212 
L 239.628275 235.773185 
L 242.907614 258.369119 
L 246.186952 250.569715 
L 249.466291 240.25929 
L 252.74563 250.012969 
L 256.024969 244.368519 
L 259.304308 240.712709 
L 262.583647 249.072863 
L 265.862986 254.276291 
L 269.142324 245.492848 
L 272.421663 247.211244 
L 275.701002 244.38147 
L 278.980341 251.696817 
L 282.25968 246.244901 
L 285.539019 240.195136 
L 288.818357 230.041498 
L 292.097696 220.31048 
L 295.377035 219.220644 
L 298.656374 221.222911 
L 301.935713 210.757432 
L 305.215052 222.378817 
L 308.49439 216.095016 
L 311.773729 215.580614 
L 315.053068 213.993276 
L 318.332407 225.935074 
L 321.611746 212.843973 
L 324.891085 221.117415 
L 328.170424 218.812572 
L 331.449762 212.381409 
L 334.729101 231.220208 
L 338.00844 214.605912 
L 341.287779 221.407825 
L 344.567118 210.265405 
L 347.846457 214.110706 
L 351.125795 224.410682 
L 354.405134 226.600311 
L 357.684473 214.87827 
L 360.963812 224.344438 
L 364.243151 225.102506 
L 367.52249 227.357235 
L 370.801829 214.2306 
L 374.081167 217.100794 
L 377.360506 212.77579 
L 380.639845 230.169361 
L 383.919184 215.202672 
L 387.198523 213.841559 
" clip-path="url(#pe644615caf)" style="fill: none; stroke-dasharray: 6,2.25; stroke-dashoffset: 0; stroke: #dd8452; stroke-width: 1.5"/>
   </g>
   <g id="line2d_17">
    <path d="M 62.543977 31.788044 
L 65.823316 239.611732 
L 69.102655 231.018631 
L 72.381994 231.149165 
L 75.661333 236.876355 
L 78.940671 245.699431 
L 82.22001 233.108731 
L 85.499349 223.323579 
L 88.778688 240.103012 
L 92.058027 230.233341 
L 95.337366 227.584501 
L 98.616705 233.491869 
L 101.896043 243.992508 
L 105.175382 237.148458 
L 108.454721 237.07349 
L 111.73406 241.575574 
L 115.013399 234.47257 
L 118.292738 246.822075 
L 121.572076 230.057596 
L 124.851415 239.943699 
L 128.130754 239.278438 
L 131.410093 242.811923 
L 134.689432 231.101617 
L 137.968771 229.587801 
L 141.24811 247.426972 
L 144.527448 231.900344 
L 147.806787 228.488477 
L 151.086126 231.912358 
L 154.365465 236.042666 
L 157.644804 231.543737 
L 160.924143 230.548495 
L 164.203481 239.386962 
L 167.48282 243.051512 
L 170.762159 239.214316 
L 174.041498 239.406262 
L 177.320837 242.172613 
L 180.600176 229.928747 
L 183.879514 237.935004 
L 187.158853 233.367128 
L 190.438192 237.912096 
L 193.717531 229.465801 
L 196.99687 242.258157 
L 200.276209 240.278289 
L 203.555548 231.000133 
L 206.834886 248.32758 
L 210.114225 236.403763 
L 213.393564 237.940359 
L 216.672903 229.650692 
L 219.952242 241.539397 
L 223.231581 241.039479 
L 226.510919 239.968911 
L 229.790258 233.839116 
L 233.069597 232.415398 
L 236.348936 229.106985 
L 239.628275 228.693669 
L 242.907614 252.856648 
L 246.186952 240.02949 
L 249.466291 227.639883 
L 252.74563 241.653911 
L 256.024969 233.63893 
L 259.304308 231.884277 
L 262.583647 239.3954 
L 265.862986 243.848737 
L 269.142324 234.001306 
L 272.421663 240.938202 
L 275.701002 234.249469 
L 278.980341 243.235624 
L 282.25968 236.129752 
L 285.539019 231.187932 
L 288.818357 219.742976 
L 292.097696 204.900154 
L 295.377035 207.984288 
L 298.656374 205.542325 
L 301.935713 203.30595 
L 305.215052 214.570505 
L 308.49439 206.988371 
L 311.773729 206.903629 
L 315.053068 209.309217 
L 318.332407 218.004517 
L 321.611746 205.069669 
L 324.891085 207.742538 
L 328.170424 208.357693 
L 331.449762 200.227418 
L 334.729101 219.046774 
L 338.00844 199.621035 
L 341.287779 211.169994 
L 344.567118 200.012444 
L 347.846457 204.702812 
L 351.125795 214.495195 
L 354.405134 216.015693 
L 357.684473 207.137474 
L 360.963812 213.040623 
L 364.243151 216.910795 
L 367.52249 213.413098 
L 370.801829 202.118412 
L 374.081167 206.592313 
L 377.360506 203.470174 
L 380.639845 218.504545 
L 383.919184 203.304218 
L 387.198523 204.137978 
" clip-path="url(#pe644615caf)" style="fill: none; stroke-dasharray: 1.5,1.5; stroke-dashoffset: 0; stroke: #55a868; stroke-width: 1.5"/>
   </g>
   <g id="line2d_18">
    <path d="M 62.543977 41.688363 
L 65.823316 250.081788 
L 69.102655 243.863294 
L 72.381994 245.179847 
L 75.661333 249.405148 
L 78.940671 251.633839 
L 82.22001 235.714585 
L 85.499349 234.364222 
L 88.778688 251.793676 
L 92.058027 243.853338 
L 95.337366 232.89673 
L 98.616705 240.524759 
L 101.896043 251.254396 
L 105.175382 243.484264 
L 108.454721 245.769767 
L 111.73406 252.603074 
L 115.013399 245.847604 
L 118.292738 254.927702 
L 121.572076 235.941119 
L 124.851415 249.569022 
L 128.130754 248.060975 
L 131.410093 249.280129 
L 134.689432 240.050332 
L 137.968771 239.268752 
L 141.24811 261.216 
L 144.527448 237.408619 
L 147.806787 242.033871 
L 151.086126 238.358634 
L 154.365465 251.65917 
L 157.644804 239.439579 
L 160.924143 246.847994 
L 164.203481 248.591325 
L 167.48282 251.078659 
L 170.762159 247.453996 
L 174.041498 245.324787 
L 177.320837 250.923144 
L 180.600176 238.166933 
L 183.879514 245.111259 
L 187.158853 243.233248 
L 190.438192 240.431428 
L 193.717531 244.06909 
L 196.99687 249.393253 
L 200.276209 249.304046 
L 203.555548 239.645327 
L 206.834886 250.928809 
L 210.114225 241.663685 
L 213.393564 248.879169 
L 216.672903 240.847922 
L 219.952242 249.11999 
L 223.231581 249.931175 
L 226.510919 245.09033 
L 229.790258 240.755982 
L 233.069597 242.521679 
L 236.348936 239.885401 
L 239.628275 240.389927 
L 242.907614 257.208692 
L 246.186952 249.593018 
L 249.466291 237.287931 
L 252.74563 250.548102 
L 256.024969 244.233234 
L 259.304308 239.489796 
L 262.583647 248.283354 
L 265.862986 253.895179 
L 269.142324 242.815927 
L 272.421663 248.637307 
L 275.701002 242.598284 
L 278.980341 249.286033 
L 282.25968 245.830735 
L 285.539019 238.991095 
L 288.818357 231.795062 
L 292.097696 214.831254 
L 295.377035 215.315924 
L 298.656374 218.601317 
L 301.935713 212.355609 
L 305.215052 227.173981 
L 308.49439 216.011172 
L 311.773729 216.056408 
L 315.053068 215.568091 
L 318.332407 231.032854 
L 321.611746 217.532497 
L 324.891085 219.88507 
L 328.170424 219.857785 
L 331.449762 211.962816 
L 334.729101 231.398535 
L 338.00844 216.503144 
L 341.287779 227.049288 
L 344.567118 213.731994 
L 347.846457 216.480776 
L 351.125795 227.232304 
L 354.405134 226.019029 
L 357.684473 218.966672 
L 360.963812 223.066731 
L 364.243151 224.814662 
L 367.52249 224.08686 
L 370.801829 218.493183 
L 374.081167 218.75568 
L 377.360506 215.521473 
L 380.639845 232.616498 
L 383.919184 214.756421 
L 387.198523 215.657473 
" clip-path="url(#pe644615caf)" style="fill: none; stroke-dasharray: 4.5,1.875,2.25,1.875; stroke-dashoffset: 0; stroke: #c44e52; stroke-width: 1.5"/>
   </g>
   <g id="line2d_19">
    <path d="M 62.543977 19.296 
L 65.823316 234.947617 
L 69.102655 242.00881 
L 72.381994 236.755857 
L 75.661333 243.568704 
L 78.940671 251.047241 
L 82.22001 236.389683 
L 85.499349 229.042672 
L 88.778688 244.844488 
L 92.058027 234.195302 
L 95.337366 236.836649 
L 98.616705 236.19664 
L 101.896043 248.899573 
L 105.175382 242.274756 
L 108.454721 244.468532 
L 111.73406 249.120538 
L 115.013399 242.507949 
L 118.292738 252.012909 
L 121.572076 234.749918 
L 124.851415 245.042584 
L 128.130754 244.077067 
L 131.410093 250.052889 
L 134.689432 236.388459 
L 137.968771 232.090582 
L 141.24811 256.592154 
L 144.527448 235.641364 
L 147.806787 235.863107 
L 151.086126 239.496582 
L 154.365465 246.201573 
L 157.644804 235.30571 
L 160.924143 237.695573 
L 164.203481 249.371402 
L 167.48282 248.540138 
L 170.762159 244.402821 
L 174.041498 246.319711 
L 177.320837 252.574692 
L 180.600176 236.114155 
L 183.879514 247.523951 
L 187.158853 236.669073 
L 190.438192 240.719153 
L 193.717531 237.604459 
L 196.99687 246.437674 
L 200.276209 249.178741 
L 203.555548 235.160652 
L 206.834886 253.06308 
L 210.114225 239.063123 
L 213.393564 244.075637 
L 216.672903 232.689074 
L 219.952242 245.393947 
L 223.231581 247.323661 
L 226.510919 243.358601 
L 229.790258 237.745854 
L 233.069597 237.535029 
L 236.348936 235.434647 
L 239.628275 234.833858 
L 242.907614 259.229124 
L 246.186952 248.210991 
L 249.466291 233.697618 
L 252.74563 240.774726 
L 256.024969 239.062948 
L 259.304308 238.451075 
L 262.583647 247.095196 
L 265.862986 251.560714 
L 269.142324 238.226185 
L 272.421663 244.076821 
L 275.701002 238.068453 
L 278.980341 249.706786 
L 282.25968 240.126739 
L 285.539019 238.641114 
L 288.818357 228.301425 
L 292.097696 210.332229 
L 295.377035 215.812512 
L 298.656374 213.644972 
L 301.935713 209.723518 
L 305.215052 226.992531 
L 308.49439 213.754513 
L 311.773729 213.730063 
L 315.053068 216.666636 
L 318.332407 228.06097 
L 321.611746 214.351472 
L 324.891085 219.8115 
L 328.170424 218.913062 
L 331.449762 212.578083 
L 334.729101 230.234 
L 338.00844 210.096795 
L 341.287779 219.402181 
L 344.567118 212.013264 
L 347.846457 211.273742 
L 351.125795 225.134337 
L 354.405134 225.694134 
L 357.684473 211.406714 
L 360.963812 223.310214 
L 364.243151 224.352217 
L 367.52249 222.9881 
L 370.801829 213.78508 
L 374.081167 210.494403 
L 377.360506 211.753564 
L 380.639845 227.318142 
L 383.919184 211.35927 
L 387.198523 209.982718 
" clip-path="url(#pe644615caf)" style="fill: none; stroke-dasharray: 7.5,1.5,1.5,1.5; stroke-dashoffset: 0; stroke: #8172b3; stroke-width: 1.5"/>
   </g>
   <g id="line2d_20"/>
   <g id="line2d_21"/>
   <g id="line2d_22"/>
   <g id="line2d_23"/>
   <g id="line2d_24"/>
   <g id="patch_3">
    <path d="M 46.31125 273.312 
L 46.31125 7.2 
" style="fill: none; stroke: #cccccc; stroke-width: 1.25; stroke-linejoin: miter; stroke-linecap: square"/>
   </g>
   <g id="patch_4">
    <path d="M 403.43125 273.312 
L 403.43125 7.2 
" style="fill: none; stroke: #cccccc; stroke-width: 1.25; stroke-linejoin: miter; stroke-linecap: square"/>
   </g>
   <g id="patch_5">
    <path d="M 46.31125 273.312 
L 403.43125 273.312 
" style="fill: none; stroke: #cccccc; stroke-width: 1.25; stroke-linejoin: miter; stroke-linecap: square"/>
   </g>
   <g id="patch_6">
    <path d="M 46.31125 7.2 
L 403.43125 7.2 
" style="fill: none; stroke: #cccccc; stroke-width: 1.25; stroke-linejoin: miter; stroke-linecap: square"/>
   </g>
   <g id="legend_1">
    <g id="patch_7">
     <path d="M 291.746875 113.843437 
L 395.73125 113.843437 
Q 397.93125 113.843437 397.93125 111.643437 
L 397.93125 14.9 
Q 397.93125 12.7 395.73125 12.7 
L 291.746875 12.7 
Q 289.546875 12.7 289.546875 14.9 
L 289.546875 111.643437 
Q 289.546875 113.843437 291.746875 113.843437 
z
" style="fill: #ffffff; opacity: 0.8; stroke: #cccccc; stroke-linejoin: miter"/>
    </g>
    <g id="text_17">
     <!-- Strategy -->
     <g style="fill: #262626" transform="translate(318.03 26.218125) scale(0.12 -0.12)">
      <defs>
       <path id="DejaVuSans-74" d="M 1172 4494 
L 1172 3500 
L 2356 3500 
L 2356 3053 
L 1172 3053 
L 1172 1153 
Q 1172 725 1289 603 
Q 1406 481 1766 481 
L 2356 481 
L 2356 0 
L 1766 0 
Q 1100 0 847 248 
Q 594 497 594 1153 
L 594 3053 
L 172 3053 
L 172 3500 
L 594 3500 
L 594 4494 
L 1172 4494 
z
" transform="scale(0.015625)"/>
       <path id="DejaVuSans-61" d="M 2194 1759 
Q 1497 1759 1228 1600 
Q 959 1441 959 1056 
Q 959 750 1161 570 
Q 1363 391 1709 391 
Q 2188 391 2477 730 
Q 2766 1069 2766 1631 
L 2766 1759 
L 2194 1759 
z
M 3341 1997 
L 3341 0 
L 2766 0 
L 2766 531 
Q 2569 213 2275 61 
Q 1981 -91 1556 -91 
Q 1019 -91 701 211 
Q 384 513 384 1019 
Q 384 1609 779 1909 
Q 1175 2209 1959 2209 
L 2766 2209 
L 2766 2266 
Q 2766 2663 2505 2880 
Q 2244 3097 1772 3097 
Q 1472 3097 1187 3025 
Q 903 2953 641 2809 
L 641 3341 
Q 956 3463 1253 3523 
Q 1550 3584 1831 3584 
Q 2591 3584 2966 3190 
Q 3341 2797 3341 1997 
z
" transform="scale(0.015625)"/>
       <path id="DejaVuSans-67" d="M 2906 1791 
Q 2906 2416 2648 2759 
Q 2391 3103 1925 3103 
Q 1463 3103 1205 2759 
Q 947 2416 947 1791 
Q 947 1169 1205 825 
Q 1463 481 1925 481 
Q 2391 481 2648 825 
Q 2906 1169 2906 1791 
z
M 3481 434 
Q 3481 -459 3084 -895 
Q 2688 -1331 1869 -1331 
Q 1566 -1331 1297 -1286 
Q 1028 -1241 775 -1147 
L 775 -588 
Q 1028 -725 1275 -790 
Q 1522 -856 1778 -856 
Q 2344 -856 2625 -561 
Q 2906 -266 2906 331 
L 2906 616 
Q 2728 306 2450 153 
Q 2172 0 1784 0 
Q 1141 0 747 490 
Q 353 981 353 1791 
Q 353 2603 747 3093 
Q 1141 3584 1784 3584 
Q 2172 3584 2450 3431 
Q 2728 3278 2906 2969 
L 2906 3500 
L 3481 3500 
L 3481 434 
z
" transform="scale(0.015625)"/>
       <path id="DejaVuSans-79" d="M 2059 -325 
Q 1816 -950 1584 -1140 
Q 1353 -1331 966 -1331 
L 506 -1331 
L 506 -850 
L 844 -850 
Q 1081 -850 1212 -737 
Q 1344 -625 1503 -206 
L 1606 56 
L 191 3500 
L 800 3500 
L 1894 763 
L 2988 3500 
L 3597 3500 
L 2059 -325 
z
" transform="scale(0.015625)"/>
      </defs>
      <use xlink:href="#DejaVuSans-53"/>
      <use xlink:href="#DejaVuSans-74" x="63.476562"/>
      <use xlink:href="#DejaVuSans-72" x="102.685547"/>
      <use xlink:href="#DejaVuSans-61" x="143.798828"/>
      <use xlink:href="#DejaVuSans-74" x="205.078125"/>
      <use xlink:href="#DejaVuSans-65" x="244.287109"/>
      <use xlink:href="#DejaVuSans-67" x="305.810547"/>
      <use xlink:href="#DejaVuSans-79" x="369.287109"/>
     </g>
    </g>
    <g id="line2d_25">
     <path d="M 293.946875 38.722031 
L 304.946875 38.722031 
L 315.946875 38.722031 
" style="fill: none; stroke: #4c72b0; stroke-width: 1.5; stroke-linecap: round"/>
    </g>
    <g id="text_18">
     <!-- FedPredict -->
     <g style="fill: #262626" transform="translate(324.746875 42.572031) scale(0.11 -0.11)">
      <defs>
       <path id="DejaVuSans-46" d="M 628 4666 
L 3309 4666 
L 3309 4134 
L 1259 4134 
L 1259 2759 
L 3109 2759 
L 3109 2228 
L 1259 2228 
L 1259 0 
L 628 0 
L 628 4666 
z
" transform="scale(0.015625)"/>
       <path id="DejaVuSans-50" d="M 1259 4147 
L 1259 2394 
L 2053 2394 
Q 2494 2394 2734 2622 
Q 2975 2850 2975 3272 
Q 2975 3691 2734 3919 
Q 2494 4147 2053 4147 
L 1259 4147 
z
M 628 4666 
L 2053 4666 
Q 2838 4666 3239 4311 
Q 3641 3956 3641 3272 
Q 3641 2581 3239 2228 
Q 2838 1875 2053 1875 
L 1259 1875 
L 1259 0 
L 628 0 
L 628 4666 
z
" transform="scale(0.015625)"/>
      </defs>
      <use xlink:href="#DejaVuSans-46"/>
      <use xlink:href="#DejaVuSans-65" x="52.019531"/>
      <use xlink:href="#DejaVuSans-64" x="113.542969"/>
      <use xlink:href="#DejaVuSans-50" x="177.019531"/>
      <use xlink:href="#DejaVuSans-72" x="235.572266"/>
      <use xlink:href="#DejaVuSans-65" x="274.435547"/>
      <use xlink:href="#DejaVuSans-64" x="335.958984"/>
      <use xlink:href="#DejaVuSans-69" x="399.435547"/>
      <use xlink:href="#DejaVuSans-63" x="427.21875"/>
      <use xlink:href="#DejaVuSans-74" x="482.199219"/>
     </g>
    </g>
    <g id="line2d_26">
     <path d="M 293.946875 54.867969 
L 304.946875 54.867969 
L 315.946875 54.867969 
" style="fill: none; stroke-dasharray: 6,2.25; stroke-dashoffset: 0; stroke: #dd8452; stroke-width: 1.5"/>
    </g>
    <g id="text_19">
     <!-- FedAVG -->
     <g style="fill: #262626" transform="translate(324.746875 58.717969) scale(0.11 -0.11)">
      <defs>
       <path id="DejaVuSans-41" d="M 2188 4044 
L 1331 1722 
L 3047 1722 
L 2188 4044 
z
M 1831 4666 
L 2547 4666 
L 4325 0 
L 3669 0 
L 3244 1197 
L 1141 1197 
L 716 0 
L 50 0 
L 1831 4666 
z
" transform="scale(0.015625)"/>
       <path id="DejaVuSans-56" d="M 1831 0 
L 50 4666 
L 709 4666 
L 2188 738 
L 3669 4666 
L 4325 4666 
L 2547 0 
L 1831 0 
z
" transform="scale(0.015625)"/>
       <path id="DejaVuSans-47" d="M 3809 666 
L 3809 1919 
L 2778 1919 
L 2778 2438 
L 4434 2438 
L 4434 434 
Q 4069 175 3628 42 
Q 3188 -91 2688 -91 
Q 1594 -91 976 548 
Q 359 1188 359 2328 
Q 359 3472 976 4111 
Q 1594 4750 2688 4750 
Q 3144 4750 3555 4637 
Q 3966 4525 4313 4306 
L 4313 3634 
Q 3963 3931 3569 4081 
Q 3175 4231 2741 4231 
Q 1884 4231 1454 3753 
Q 1025 3275 1025 2328 
Q 1025 1384 1454 906 
Q 1884 428 2741 428 
Q 3075 428 3337 486 
Q 3600 544 3809 666 
z
" transform="scale(0.015625)"/>
      </defs>
      <use xlink:href="#DejaVuSans-46"/>
      <use xlink:href="#DejaVuSans-65" x="52.019531"/>
      <use xlink:href="#DejaVuSans-64" x="113.542969"/>
      <use xlink:href="#DejaVuSans-41" x="177.019531"/>
      <use xlink:href="#DejaVuSans-56" x="239.052734"/>
      <use xlink:href="#DejaVuSans-47" x="307.460938"/>
     </g>
    </g>
    <g id="line2d_27">
     <path d="M 293.946875 71.013906 
L 304.946875 71.013906 
L 315.946875 71.013906 
" style="fill: none; stroke-dasharray: 1.5,1.5; stroke-dashoffset: 0; stroke: #55a868; stroke-width: 1.5"/>
    </g>
    <g id="text_20">
     <!-- FedClassAvg -->
     <g style="fill: #262626" transform="translate(324.746875 74.863906) scale(0.11 -0.11)">
      <defs>
       <path id="DejaVuSans-43" d="M 4122 4306 
L 4122 3641 
Q 3803 3938 3442 4084 
Q 3081 4231 2675 4231 
Q 1875 4231 1450 3742 
Q 1025 3253 1025 2328 
Q 1025 1406 1450 917 
Q 1875 428 2675 428 
Q 3081 428 3442 575 
Q 3803 722 4122 1019 
L 4122 359 
Q 3791 134 3420 21 
Q 3050 -91 2638 -91 
Q 1578 -91 968 557 
Q 359 1206 359 2328 
Q 359 3453 968 4101 
Q 1578 4750 2638 4750 
Q 3056 4750 3426 4639 
Q 3797 4528 4122 4306 
z
" transform="scale(0.015625)"/>
       <path id="DejaVuSans-6c" d="M 603 4863 
L 1178 4863 
L 1178 0 
L 603 0 
L 603 4863 
z
" transform="scale(0.015625)"/>
      </defs>
      <use xlink:href="#DejaVuSans-46"/>
      <use xlink:href="#DejaVuSans-65" x="52.019531"/>
      <use xlink:href="#DejaVuSans-64" x="113.542969"/>
      <use xlink:href="#DejaVuSans-43" x="177.019531"/>
      <use xlink:href="#DejaVuSans-6c" x="246.84375"/>
      <use xlink:href="#DejaVuSans-61" x="274.626953"/>
      <use xlink:href="#DejaVuSans-73" x="335.90625"/>
      <use xlink:href="#DejaVuSans-73" x="388.005859"/>
      <use xlink:href="#DejaVuSans-41" x="440.105469"/>
      <use xlink:href="#DejaVuSans-76" x="502.638672"/>
      <use xlink:href="#DejaVuSans-67" x="561.818359"/>
     </g>
    </g>
    <g id="line2d_28">
     <path d="M 293.946875 87.159844 
L 304.946875 87.159844 
L 315.946875 87.159844 
" style="fill: none; stroke-dasharray: 4.5,1.875,2.25,1.875; stroke-dashoffset: 0; stroke: #c44e52; stroke-width: 1.5"/>
    </g>
    <g id="text_21">
     <!-- FedPer -->
     <g style="fill: #262626" transform="translate(324.746875 91.009844) scale(0.11 -0.11)">
      <use xlink:href="#DejaVuSans-46"/>
      <use xlink:href="#DejaVuSans-65" x="52.019531"/>
      <use xlink:href="#DejaVuSans-64" x="113.542969"/>
      <use xlink:href="#DejaVuSans-50" x="177.019531"/>
      <use xlink:href="#DejaVuSans-65" x="233.697266"/>
      <use xlink:href="#DejaVuSans-72" x="295.220703"/>
     </g>
    </g>
    <g id="line2d_29">
     <path d="M 293.946875 103.305781 
L 304.946875 103.305781 
L 315.946875 103.305781 
" style="fill: none; stroke-dasharray: 7.5,1.5,1.5,1.5; stroke-dashoffset: 0; stroke: #8172b3; stroke-width: 1.5"/>
    </g>
    <g id="text_22">
     <!-- FedProto -->
     <g style="fill: #262626" transform="translate(324.746875 107.155781) scale(0.11 -0.11)">
      <use xlink:href="#DejaVuSans-46"/>
      <use xlink:href="#DejaVuSans-65" x="52.019531"/>
      <use xlink:href="#DejaVuSans-64" x="113.542969"/>
      <use xlink:href="#DejaVuSans-50" x="177.019531"/>
      <use xlink:href="#DejaVuSans-72" x="235.572266"/>
      <use xlink:href="#DejaVuSans-6f" x="274.435547"/>
      <use xlink:href="#DejaVuSans-74" x="335.617188"/>
      <use xlink:href="#DejaVuSans-6f" x="374.826172"/>
     </g>
    </g>
   </g>
  </g>
 </g>
 <defs>
  <clipPath id="pe644615caf">
   <rect x="46.31125" y="7.2" width="357.12" height="266.112"/>
  </clipPath>
 </defs>
</svg>
