<?xml version="1.0" encoding="utf-8" standalone="no"?>
<!DOCTYPE svg PUBLIC "-//W3C//DTD SVG 1.1//EN"
  "http://www.w3.org/Graphics/SVG/1.1/DTD/svg11.dtd">
<svg xmlns:xlink="http://www.w3.org/1999/xlink" width="417.63pt" height="331.389812pt" viewBox="0 0 417.63 331.389812" xmlns="http://www.w3.org/2000/svg" version="1.1">
 <metadata>
  <rdf:RDF xmlns:dc="http://purl.org/dc/elements/1.1/" xmlns:cc="http://creativecommons.org/ns#" xmlns:rdf="http://www.w3.org/1999/02/22-rdf-syntax-ns#">
   <cc:Work>
    <dc:type rdf:resource="http://purl.org/dc/dcmitype/StillImage"/>
    <dc:date>2023-02-10T23:38:54.101866</dc:date>
    <dc:format>image/svg+xml</dc:format>
    <dc:creator>
     <cc:Agent>
      <dc:title>Matplotlib v3.6.3, https://matplotlib.org/</dc:title>
     </cc:Agent>
    </dc:creator>
   </cc:Work>
  </rdf:RDF>
 </metadata>
 <defs>
  <style type="text/css">*{stroke-linejoin: round; stroke-linecap: butt}</style>
 </defs>
 <g id="figure_1">
  <g id="patch_1">
   <path d="M 0 331.389812 
L 417.63 331.389812 
L 417.63 0 
L 0 0 
z
" style="fill: #ffffff"/>
  </g>
  <g id="axes_1">
   <g id="patch_2">
    <path d="M 53.31 288.430125 
L 410.43 288.430125 
L 410.43 22.318125 
L 53.31 22.318125 
z
" style="fill: #ffffff"/>
   </g>
   <g id="matplotlib.axis_1">
    <g id="xtick_1">
     <g id="line2d_1">
      <path d="M 66.263388 288.430125 
L 66.263388 22.318125 
" clip-path="url(#p2d367b5ea6)" style="fill: none; stroke: #cccccc; stroke-linecap: round"/>
     </g>
     <g id="text_1">
      <!-- 0 -->
      <g style="fill: #262626" transform="translate(62.764013 306.288406) scale(0.11 -0.11)">
       <defs>
        <path id="DejaVuSans-30" d="M 2034 4250 
Q 1547 4250 1301 3770 
Q 1056 3291 1056 2328 
Q 1056 1369 1301 889 
Q 1547 409 2034 409 
Q 2525 409 2770 889 
Q 3016 1369 3016 2328 
Q 3016 3291 2770 3770 
Q 2525 4250 2034 4250 
z
M 2034 4750 
Q 2819 4750 3233 4129 
Q 3647 3509 3647 2328 
Q 3647 1150 3233 529 
Q 2819 -91 2034 -91 
Q 1250 -91 836 529 
Q 422 1150 422 2328 
Q 422 3509 836 4129 
Q 1250 4750 2034 4750 
z
" transform="scale(0.015625)"/>
       </defs>
       <use xlink:href="#DejaVuSans-30"/>
      </g>
     </g>
    </g>
    <g id="xtick_2">
     <g id="line2d_2">
      <path d="M 131.850165 288.430125 
L 131.850165 22.318125 
" clip-path="url(#p2d367b5ea6)" style="fill: none; stroke: #cccccc; stroke-linecap: round"/>
     </g>
     <g id="text_2">
      <!-- 20 -->
      <g style="fill: #262626" transform="translate(124.851415 306.288406) scale(0.11 -0.11)">
       <defs>
        <path id="DejaVuSans-32" d="M 1228 531 
L 3431 531 
L 3431 0 
L 469 0 
L 469 531 
Q 828 903 1448 1529 
Q 2069 2156 2228 2338 
Q 2531 2678 2651 2914 
Q 2772 3150 2772 3378 
Q 2772 3750 2511 3984 
Q 2250 4219 1831 4219 
Q 1534 4219 1204 4116 
Q 875 4013 500 3803 
L 500 4441 
Q 881 4594 1212 4672 
Q 1544 4750 1819 4750 
Q 2544 4750 2975 4387 
Q 3406 4025 3406 3419 
Q 3406 3131 3298 2873 
Q 3191 2616 2906 2266 
Q 2828 2175 2409 1742 
Q 1991 1309 1228 531 
z
" transform="scale(0.015625)"/>
       </defs>
       <use xlink:href="#DejaVuSans-32"/>
       <use xlink:href="#DejaVuSans-30" x="63.623047"/>
      </g>
     </g>
    </g>
    <g id="xtick_3">
     <g id="line2d_3">
      <path d="M 197.436942 288.430125 
L 197.436942 22.318125 
" clip-path="url(#p2d367b5ea6)" style="fill: none; stroke: #cccccc; stroke-linecap: round"/>
     </g>
     <g id="text_3">
      <!-- 40 -->
      <g style="fill: #262626" transform="translate(190.438192 306.288406) scale(0.11 -0.11)">
       <defs>
        <path id="DejaVuSans-34" d="M 2419 4116 
L 825 1625 
L 2419 1625 
L 2419 4116 
z
M 2253 4666 
L 3047 4666 
L 3047 1625 
L 3713 1625 
L 3713 1100 
L 3047 1100 
L 3047 0 
L 2419 0 
L 2419 1100 
L 313 1100 
L 313 1709 
L 2253 4666 
z
" transform="scale(0.015625)"/>
       </defs>
       <use xlink:href="#DejaVuSans-34"/>
       <use xlink:href="#DejaVuSans-30" x="63.623047"/>
      </g>
     </g>
    </g>
    <g id="xtick_4">
     <g id="line2d_4">
      <path d="M 263.023719 288.430125 
L 263.023719 22.318125 
" clip-path="url(#p2d367b5ea6)" style="fill: none; stroke: #cccccc; stroke-linecap: round"/>
     </g>
     <g id="text_4">
      <!-- 60 -->
      <g style="fill: #262626" transform="translate(256.024969 306.288406) scale(0.11 -0.11)">
       <defs>
        <path id="DejaVuSans-36" d="M 2113 2584 
Q 1688 2584 1439 2293 
Q 1191 2003 1191 1497 
Q 1191 994 1439 701 
Q 1688 409 2113 409 
Q 2538 409 2786 701 
Q 3034 994 3034 1497 
Q 3034 2003 2786 2293 
Q 2538 2584 2113 2584 
z
M 3366 4563 
L 3366 3988 
Q 3128 4100 2886 4159 
Q 2644 4219 2406 4219 
Q 1781 4219 1451 3797 
Q 1122 3375 1075 2522 
Q 1259 2794 1537 2939 
Q 1816 3084 2150 3084 
Q 2853 3084 3261 2657 
Q 3669 2231 3669 1497 
Q 3669 778 3244 343 
Q 2819 -91 2113 -91 
Q 1303 -91 875 529 
Q 447 1150 447 2328 
Q 447 3434 972 4092 
Q 1497 4750 2381 4750 
Q 2619 4750 2861 4703 
Q 3103 4656 3366 4563 
z
" transform="scale(0.015625)"/>
       </defs>
       <use xlink:href="#DejaVuSans-36"/>
       <use xlink:href="#DejaVuSans-30" x="63.623047"/>
      </g>
     </g>
    </g>
    <g id="xtick_5">
     <g id="line2d_5">
      <path d="M 328.610496 288.430125 
L 328.610496 22.318125 
" clip-path="url(#p2d367b5ea6)" style="fill: none; stroke: #cccccc; stroke-linecap: round"/>
     </g>
     <g id="text_5">
      <!-- 80 -->
      <g style="fill: #262626" transform="translate(321.611746 306.288406) scale(0.11 -0.11)">
       <defs>
        <path id="DejaVuSans-38" d="M 2034 2216 
Q 1584 2216 1326 1975 
Q 1069 1734 1069 1313 
Q 1069 891 1326 650 
Q 1584 409 2034 409 
Q 2484 409 2743 651 
Q 3003 894 3003 1313 
Q 3003 1734 2745 1975 
Q 2488 2216 2034 2216 
z
M 1403 2484 
Q 997 2584 770 2862 
Q 544 3141 544 3541 
Q 544 4100 942 4425 
Q 1341 4750 2034 4750 
Q 2731 4750 3128 4425 
Q 3525 4100 3525 3541 
Q 3525 3141 3298 2862 
Q 3072 2584 2669 2484 
Q 3125 2378 3379 2068 
Q 3634 1759 3634 1313 
Q 3634 634 3220 271 
Q 2806 -91 2034 -91 
Q 1263 -91 848 271 
Q 434 634 434 1313 
Q 434 1759 690 2068 
Q 947 2378 1403 2484 
z
M 1172 3481 
Q 1172 3119 1398 2916 
Q 1625 2713 2034 2713 
Q 2441 2713 2670 2916 
Q 2900 3119 2900 3481 
Q 2900 3844 2670 4047 
Q 2441 4250 2034 4250 
Q 1625 4250 1398 4047 
Q 1172 3844 1172 3481 
z
" transform="scale(0.015625)"/>
       </defs>
       <use xlink:href="#DejaVuSans-38"/>
       <use xlink:href="#DejaVuSans-30" x="63.623047"/>
      </g>
     </g>
    </g>
    <g id="xtick_6">
     <g id="line2d_6">
      <path d="M 394.197273 288.430125 
L 394.197273 22.318125 
" clip-path="url(#p2d367b5ea6)" style="fill: none; stroke: #cccccc; stroke-linecap: round"/>
     </g>
     <g id="text_6">
      <!-- 100 -->
      <g style="fill: #262626" transform="translate(383.699148 306.288406) scale(0.11 -0.11)">
       <defs>
        <path id="DejaVuSans-31" d="M 794 531 
L 1825 531 
L 1825 4091 
L 703 3866 
L 703 4441 
L 1819 4666 
L 2450 4666 
L 2450 531 
L 3481 531 
L 3481 0 
L 794 0 
L 794 531 
z
" transform="scale(0.015625)"/>
       </defs>
       <use xlink:href="#DejaVuSans-31"/>
       <use xlink:href="#DejaVuSans-30" x="63.623047"/>
       <use xlink:href="#DejaVuSans-30" x="127.246094"/>
      </g>
     </g>
    </g>
    <g id="text_7">
     <!-- Server round -->
     <g style="fill: #262626" transform="translate(192.869063 321.694187) scale(0.12 -0.12)">
      <defs>
       <path id="DejaVuSans-53" d="M 3425 4513 
L 3425 3897 
Q 3066 4069 2747 4153 
Q 2428 4238 2131 4238 
Q 1616 4238 1336 4038 
Q 1056 3838 1056 3469 
Q 1056 3159 1242 3001 
Q 1428 2844 1947 2747 
L 2328 2669 
Q 3034 2534 3370 2195 
Q 3706 1856 3706 1288 
Q 3706 609 3251 259 
Q 2797 -91 1919 -91 
Q 1588 -91 1214 -16 
Q 841 59 441 206 
L 441 856 
Q 825 641 1194 531 
Q 1563 422 1919 422 
Q 2459 422 2753 634 
Q 3047 847 3047 1241 
Q 3047 1584 2836 1778 
Q 2625 1972 2144 2069 
L 1759 2144 
Q 1053 2284 737 2584 
Q 422 2884 422 3419 
Q 422 4038 858 4394 
Q 1294 4750 2059 4750 
Q 2388 4750 2728 4690 
Q 3069 4631 3425 4513 
z
" transform="scale(0.015625)"/>
       <path id="DejaVuSans-65" d="M 3597 1894 
L 3597 1613 
L 953 1613 
Q 991 1019 1311 708 
Q 1631 397 2203 397 
Q 2534 397 2845 478 
Q 3156 559 3463 722 
L 3463 178 
Q 3153 47 2828 -22 
Q 2503 -91 2169 -91 
Q 1331 -91 842 396 
Q 353 884 353 1716 
Q 353 2575 817 3079 
Q 1281 3584 2069 3584 
Q 2775 3584 3186 3129 
Q 3597 2675 3597 1894 
z
M 3022 2063 
Q 3016 2534 2758 2815 
Q 2500 3097 2075 3097 
Q 1594 3097 1305 2825 
Q 1016 2553 972 2059 
L 3022 2063 
z
" transform="scale(0.015625)"/>
       <path id="DejaVuSans-72" d="M 2631 2963 
Q 2534 3019 2420 3045 
Q 2306 3072 2169 3072 
Q 1681 3072 1420 2755 
Q 1159 2438 1159 1844 
L 1159 0 
L 581 0 
L 581 3500 
L 1159 3500 
L 1159 2956 
Q 1341 3275 1631 3429 
Q 1922 3584 2338 3584 
Q 2397 3584 2469 3576 
Q 2541 3569 2628 3553 
L 2631 2963 
z
" transform="scale(0.015625)"/>
       <path id="DejaVuSans-76" d="M 191 3500 
L 800 3500 
L 1894 563 
L 2988 3500 
L 3597 3500 
L 2284 0 
L 1503 0 
L 191 3500 
z
" transform="scale(0.015625)"/>
       <path id="DejaVuSans-20" transform="scale(0.015625)"/>
       <path id="DejaVuSans-6f" d="M 1959 3097 
Q 1497 3097 1228 2736 
Q 959 2375 959 1747 
Q 959 1119 1226 758 
Q 1494 397 1959 397 
Q 2419 397 2687 759 
Q 2956 1122 2956 1747 
Q 2956 2369 2687 2733 
Q 2419 3097 1959 3097 
z
M 1959 3584 
Q 2709 3584 3137 3096 
Q 3566 2609 3566 1747 
Q 3566 888 3137 398 
Q 2709 -91 1959 -91 
Q 1206 -91 779 398 
Q 353 888 353 1747 
Q 353 2609 779 3096 
Q 1206 3584 1959 3584 
z
" transform="scale(0.015625)"/>
       <path id="DejaVuSans-75" d="M 544 1381 
L 544 3500 
L 1119 3500 
L 1119 1403 
Q 1119 906 1312 657 
Q 1506 409 1894 409 
Q 2359 409 2629 706 
Q 2900 1003 2900 1516 
L 2900 3500 
L 3475 3500 
L 3475 0 
L 2900 0 
L 2900 538 
Q 2691 219 2414 64 
Q 2138 -91 1772 -91 
Q 1169 -91 856 284 
Q 544 659 544 1381 
z
M 1991 3584 
L 1991 3584 
z
" transform="scale(0.015625)"/>
       <path id="DejaVuSans-6e" d="M 3513 2113 
L 3513 0 
L 2938 0 
L 2938 2094 
Q 2938 2591 2744 2837 
Q 2550 3084 2163 3084 
Q 1697 3084 1428 2787 
Q 1159 2491 1159 1978 
L 1159 0 
L 581 0 
L 581 3500 
L 1159 3500 
L 1159 2956 
Q 1366 3272 1645 3428 
Q 1925 3584 2291 3584 
Q 2894 3584 3203 3211 
Q 3513 2838 3513 2113 
z
" transform="scale(0.015625)"/>
       <path id="DejaVuSans-64" d="M 2906 2969 
L 2906 4863 
L 3481 4863 
L 3481 0 
L 2906 0 
L 2906 525 
Q 2725 213 2448 61 
Q 2172 -91 1784 -91 
Q 1150 -91 751 415 
Q 353 922 353 1747 
Q 353 2572 751 3078 
Q 1150 3584 1784 3584 
Q 2172 3584 2448 3432 
Q 2725 3281 2906 2969 
z
M 947 1747 
Q 947 1113 1208 752 
Q 1469 391 1925 391 
Q 2381 391 2643 752 
Q 2906 1113 2906 1747 
Q 2906 2381 2643 2742 
Q 2381 3103 1925 3103 
Q 1469 3103 1208 2742 
Q 947 2381 947 1747 
z
" transform="scale(0.015625)"/>
      </defs>
      <use xlink:href="#DejaVuSans-53"/>
      <use xlink:href="#DejaVuSans-65" x="63.476562"/>
      <use xlink:href="#DejaVuSans-72" x="125"/>
      <use xlink:href="#DejaVuSans-76" x="166.113281"/>
      <use xlink:href="#DejaVuSans-65" x="225.292969"/>
      <use xlink:href="#DejaVuSans-72" x="286.816406"/>
      <use xlink:href="#DejaVuSans-20" x="327.929688"/>
      <use xlink:href="#DejaVuSans-72" x="359.716797"/>
      <use xlink:href="#DejaVuSans-6f" x="398.580078"/>
      <use xlink:href="#DejaVuSans-75" x="459.761719"/>
      <use xlink:href="#DejaVuSans-6e" x="523.140625"/>
      <use xlink:href="#DejaVuSans-64" x="586.519531"/>
     </g>
    </g>
   </g>
   <g id="matplotlib.axis_2">
    <g id="ytick_1">
     <g id="line2d_7">
      <path d="M 53.31 255.48983 
L 410.43 255.48983 
" clip-path="url(#p2d367b5ea6)" style="fill: none; stroke: #cccccc; stroke-linecap: round"/>
     </g>
     <g id="text_8">
      <!-- 20 -->
      <g style="fill: #262626" transform="translate(29.8125 259.668971) scale(0.11 -0.11)">
       <use xlink:href="#DejaVuSans-32"/>
       <use xlink:href="#DejaVuSans-30" x="63.623047"/>
      </g>
     </g>
    </g>
    <g id="ytick_2">
     <g id="line2d_8">
      <path d="M 53.31 199.073832 
L 410.43 199.073832 
" clip-path="url(#p2d367b5ea6)" style="fill: none; stroke: #cccccc; stroke-linecap: round"/>
     </g>
     <g id="text_9">
      <!-- 40 -->
      <g style="fill: #262626" transform="translate(29.8125 203.252972) scale(0.11 -0.11)">
       <use xlink:href="#DejaVuSans-34"/>
       <use xlink:href="#DejaVuSans-30" x="63.623047"/>
      </g>
     </g>
    </g>
    <g id="ytick_3">
     <g id="line2d_9">
      <path d="M 53.31 142.657833 
L 410.43 142.657833 
" clip-path="url(#p2d367b5ea6)" style="fill: none; stroke: #cccccc; stroke-linecap: round"/>
     </g>
     <g id="text_10">
      <!-- 60 -->
      <g style="fill: #262626" transform="translate(29.8125 146.836974) scale(0.11 -0.11)">
       <use xlink:href="#DejaVuSans-36"/>
       <use xlink:href="#DejaVuSans-30" x="63.623047"/>
      </g>
     </g>
    </g>
    <g id="ytick_4">
     <g id="line2d_10">
      <path d="M 53.31 86.241835 
L 410.43 86.241835 
" clip-path="url(#p2d367b5ea6)" style="fill: none; stroke: #cccccc; stroke-linecap: round"/>
     </g>
     <g id="text_11">
      <!-- 80 -->
      <g style="fill: #262626" transform="translate(29.8125 90.420976) scale(0.11 -0.11)">
       <use xlink:href="#DejaVuSans-38"/>
       <use xlink:href="#DejaVuSans-30" x="63.623047"/>
      </g>
     </g>
    </g>
    <g id="ytick_5">
     <g id="line2d_11">
      <path d="M 53.31 29.825837 
L 410.43 29.825837 
" clip-path="url(#p2d367b5ea6)" style="fill: none; stroke: #cccccc; stroke-linecap: round"/>
     </g>
     <g id="text_12">
      <!-- 100 -->
      <g style="fill: #262626" transform="translate(22.81375 34.004977) scale(0.11 -0.11)">
       <use xlink:href="#DejaVuSans-31"/>
       <use xlink:href="#DejaVuSans-30" x="63.623047"/>
       <use xlink:href="#DejaVuSans-30" x="127.246094"/>
      </g>
     </g>
    </g>
    <g id="text_13">
     <!-- Accuracy aggregated (%) -->
     <g style="fill: #262626" transform="translate(16.318125 231.621937) rotate(-90) scale(0.12 -0.12)">
      <defs>
       <path id="DejaVuSans-41" d="M 2188 4044 
L 1331 1722 
L 3047 1722 
L 2188 4044 
z
M 1831 4666 
L 2547 4666 
L 4325 0 
L 3669 0 
L 3244 1197 
L 1141 1197 
L 716 0 
L 50 0 
L 1831 4666 
z
" transform="scale(0.015625)"/>
       <path id="DejaVuSans-63" d="M 3122 3366 
L 3122 2828 
Q 2878 2963 2633 3030 
Q 2388 3097 2138 3097 
Q 1578 3097 1268 2742 
Q 959 2388 959 1747 
Q 959 1106 1268 751 
Q 1578 397 2138 397 
Q 2388 397 2633 464 
Q 2878 531 3122 666 
L 3122 134 
Q 2881 22 2623 -34 
Q 2366 -91 2075 -91 
Q 1284 -91 818 406 
Q 353 903 353 1747 
Q 353 2603 823 3093 
Q 1294 3584 2113 3584 
Q 2378 3584 2631 3529 
Q 2884 3475 3122 3366 
z
" transform="scale(0.015625)"/>
       <path id="DejaVuSans-61" d="M 2194 1759 
Q 1497 1759 1228 1600 
Q 959 1441 959 1056 
Q 959 750 1161 570 
Q 1363 391 1709 391 
Q 2188 391 2477 730 
Q 2766 1069 2766 1631 
L 2766 1759 
L 2194 1759 
z
M 3341 1997 
L 3341 0 
L 2766 0 
L 2766 531 
Q 2569 213 2275 61 
Q 1981 -91 1556 -91 
Q 1019 -91 701 211 
Q 384 513 384 1019 
Q 384 1609 779 1909 
Q 1175 2209 1959 2209 
L 2766 2209 
L 2766 2266 
Q 2766 2663 2505 2880 
Q 2244 3097 1772 3097 
Q 1472 3097 1187 3025 
Q 903 2953 641 2809 
L 641 3341 
Q 956 3463 1253 3523 
Q 1550 3584 1831 3584 
Q 2591 3584 2966 3190 
Q 3341 2797 3341 1997 
z
" transform="scale(0.015625)"/>
       <path id="DejaVuSans-79" d="M 2059 -325 
Q 1816 -950 1584 -1140 
Q 1353 -1331 966 -1331 
L 506 -1331 
L 506 -850 
L 844 -850 
Q 1081 -850 1212 -737 
Q 1344 -625 1503 -206 
L 1606 56 
L 191 3500 
L 800 3500 
L 1894 763 
L 2988 3500 
L 3597 3500 
L 2059 -325 
z
" transform="scale(0.015625)"/>
       <path id="DejaVuSans-67" d="M 2906 1791 
Q 2906 2416 2648 2759 
Q 2391 3103 1925 3103 
Q 1463 3103 1205 2759 
Q 947 2416 947 1791 
Q 947 1169 1205 825 
Q 1463 481 1925 481 
Q 2391 481 2648 825 
Q 2906 1169 2906 1791 
z
M 3481 434 
Q 3481 -459 3084 -895 
Q 2688 -1331 1869 -1331 
Q 1566 -1331 1297 -1286 
Q 1028 -1241 775 -1147 
L 775 -588 
Q 1028 -725 1275 -790 
Q 1522 -856 1778 -856 
Q 2344 -856 2625 -561 
Q 2906 -266 2906 331 
L 2906 616 
Q 2728 306 2450 153 
Q 2172 0 1784 0 
Q 1141 0 747 490 
Q 353 981 353 1791 
Q 353 2603 747 3093 
Q 1141 3584 1784 3584 
Q 2172 3584 2450 3431 
Q 2728 3278 2906 2969 
L 2906 3500 
L 3481 3500 
L 3481 434 
z
" transform="scale(0.015625)"/>
       <path id="DejaVuSans-74" d="M 1172 4494 
L 1172 3500 
L 2356 3500 
L 2356 3053 
L 1172 3053 
L 1172 1153 
Q 1172 725 1289 603 
Q 1406 481 1766 481 
L 2356 481 
L 2356 0 
L 1766 0 
Q 1100 0 847 248 
Q 594 497 594 1153 
L 594 3053 
L 172 3053 
L 172 3500 
L 594 3500 
L 594 4494 
L 1172 4494 
z
" transform="scale(0.015625)"/>
       <path id="DejaVuSans-28" d="M 1984 4856 
Q 1566 4138 1362 3434 
Q 1159 2731 1159 2009 
Q 1159 1288 1364 580 
Q 1569 -128 1984 -844 
L 1484 -844 
Q 1016 -109 783 600 
Q 550 1309 550 2009 
Q 550 2706 781 3412 
Q 1013 4119 1484 4856 
L 1984 4856 
z
" transform="scale(0.015625)"/>
       <path id="DejaVuSans-25" d="M 4653 2053 
Q 4381 2053 4226 1822 
Q 4072 1591 4072 1178 
Q 4072 772 4226 539 
Q 4381 306 4653 306 
Q 4919 306 5073 539 
Q 5228 772 5228 1178 
Q 5228 1588 5073 1820 
Q 4919 2053 4653 2053 
z
M 4653 2450 
Q 5147 2450 5437 2106 
Q 5728 1763 5728 1178 
Q 5728 594 5436 251 
Q 5144 -91 4653 -91 
Q 4153 -91 3862 251 
Q 3572 594 3572 1178 
Q 3572 1766 3864 2108 
Q 4156 2450 4653 2450 
z
M 1428 4353 
Q 1159 4353 1004 4120 
Q 850 3888 850 3481 
Q 850 3069 1003 2837 
Q 1156 2606 1428 2606 
Q 1700 2606 1854 2837 
Q 2009 3069 2009 3481 
Q 2009 3884 1853 4118 
Q 1697 4353 1428 4353 
z
M 4250 4750 
L 4750 4750 
L 1831 -91 
L 1331 -91 
L 4250 4750 
z
M 1428 4750 
Q 1922 4750 2215 4408 
Q 2509 4066 2509 3481 
Q 2509 2891 2217 2550 
Q 1925 2209 1428 2209 
Q 931 2209 642 2551 
Q 353 2894 353 3481 
Q 353 4063 643 4406 
Q 934 4750 1428 4750 
z
" transform="scale(0.015625)"/>
       <path id="DejaVuSans-29" d="M 513 4856 
L 1013 4856 
Q 1481 4119 1714 3412 
Q 1947 2706 1947 2009 
Q 1947 1309 1714 600 
Q 1481 -109 1013 -844 
L 513 -844 
Q 928 -128 1133 580 
Q 1338 1288 1338 2009 
Q 1338 2731 1133 3434 
Q 928 4138 513 4856 
z
" transform="scale(0.015625)"/>
      </defs>
      <use xlink:href="#DejaVuSans-41"/>
      <use xlink:href="#DejaVuSans-63" x="66.658203"/>
      <use xlink:href="#DejaVuSans-63" x="121.638672"/>
      <use xlink:href="#DejaVuSans-75" x="176.619141"/>
      <use xlink:href="#DejaVuSans-72" x="239.998047"/>
      <use xlink:href="#DejaVuSans-61" x="281.111328"/>
      <use xlink:href="#DejaVuSans-63" x="342.390625"/>
      <use xlink:href="#DejaVuSans-79" x="397.371094"/>
      <use xlink:href="#DejaVuSans-20" x="456.550781"/>
      <use xlink:href="#DejaVuSans-61" x="488.337891"/>
      <use xlink:href="#DejaVuSans-67" x="549.617188"/>
      <use xlink:href="#DejaVuSans-67" x="613.09375"/>
      <use xlink:href="#DejaVuSans-72" x="676.570312"/>
      <use xlink:href="#DejaVuSans-65" x="715.433594"/>
      <use xlink:href="#DejaVuSans-67" x="776.957031"/>
      <use xlink:href="#DejaVuSans-61" x="840.433594"/>
      <use xlink:href="#DejaVuSans-74" x="901.712891"/>
      <use xlink:href="#DejaVuSans-65" x="940.921875"/>
      <use xlink:href="#DejaVuSans-64" x="1002.445312"/>
      <use xlink:href="#DejaVuSans-20" x="1065.921875"/>
      <use xlink:href="#DejaVuSans-28" x="1097.708984"/>
      <use xlink:href="#DejaVuSans-25" x="1136.722656"/>
      <use xlink:href="#DejaVuSans-29" x="1231.742188"/>
     </g>
    </g>
   </g>
   <g id="PolyCollection_1"/>
   <g id="PolyCollection_2"/>
   <g id="PolyCollection_3"/>
   <g id="PolyCollection_4"/>
   <g id="PolyCollection_5"/>
   <g id="line2d_12">
    <path d="M 69.542727 249.415335 
L 72.822066 205.627104 
L 76.101405 206.824049 
L 79.380744 149.732276 
L 82.660083 117.888557 
L 85.939421 109.547348 
L 89.21876 78.302101 
L 92.498099 75.92068 
L 95.777438 66.644357 
L 99.056777 48.403417 
L 102.336116 45.598078 
L 105.615455 45.261437 
L 108.894793 44.962201 
L 112.174132 44.825051 
L 115.453471 48.877208 
L 118.73281 50.148962 
L 122.012149 44.787647 
L 125.291488 45.435992 
L 128.570826 46.869832 
L 131.850165 43.403679 
L 135.129504 42.30648 
L 138.408843 39.875186 
L 141.688182 40.548467 
L 144.967521 39.875186 
L 148.24686 39.264245 
L 151.526198 39.376459 
L 154.805537 42.30648 
L 158.084876 43.914874 
L 161.364215 42.643121 
L 164.643554 49.288658 
L 167.922893 41.159408 
L 171.202231 40.710553 
L 174.48157 39.77544 
L 177.760909 39.351522 
L 181.040248 37.905214 
L 184.319587 38.029896 
L 187.598926 37.231933 
L 190.878264 36.982569 
L 194.157603 38.20445 
L 197.436942 36.832951 
L 200.716281 36.471374 
L 203.99562 37.206996 
L 207.274959 35.598602 
L 210.554298 36.49631 
L 213.833636 36.134733 
L 217.112975 37.31921 
L 220.392314 36.982569 
L 223.671653 36.957633 
L 226.950992 36.970101 
L 230.230331 36.197074 
L 233.509669 37.231933 
L 236.789008 35.261961 
L 240.068347 36.371628 
L 243.347686 35.349238 
L 246.627025 35.012597 
L 249.906364 34.663489 
L 253.185702 36.808015 
L 256.465041 36.620992 
L 259.74438 35.960179 
L 263.023719 36.35916 
L 266.303058 36.758142 
L 269.582397 35.274429 
L 272.861736 35.025066 
L 276.141074 34.763234 
L 279.420413 34.688425 
L 282.699752 34.414125 
L 285.979091 35.19962 
L 289.25843 35.074938 
L 292.537769 34.838043 
L 295.817107 39.560355 
L 299.096446 40.886584 
L 302.375785 42.301227 
L 305.655124 42.283544 
L 308.934463 42.522266 
L 312.213802 40.541764 
L 315.49314 40.612496 
L 318.772479 40.311884 
L 322.051818 40.798168 
L 325.331157 42.646047 
L 328.610496 41.921042 
L 331.889835 40.674387 
L 335.169174 42.310069 
L 338.448512 40.364934 
L 341.727851 40.020114 
L 345.00719 40.241152 
L 348.286529 41.134146 
L 351.565868 40.762802 
L 354.845207 41.364026 
L 358.124545 40.179262 
L 361.403884 43.344527 
L 364.683223 42.911293 
L 367.962562 40.382617 
L 371.241901 41.151829 
L 374.52124 42.416167 
L 377.800579 42.186288 
L 381.079917 42.310069 
L 384.359256 40.241152 
L 387.638595 40.895425 
L 390.917934 40.904267 
L 394.197273 41.151829 
" clip-path="url(#p2d367b5ea6)" style="fill: none; stroke: #4c72b0; stroke-width: 1.5; stroke-linecap: round"/>
   </g>
   <g id="line2d_13">
    <path d="M 69.542727 276.334125 
L 72.822066 254.876396 
L 76.101405 272.8181 
L 79.380744 200.577494 
L 82.660083 183.259198 
L 85.939421 188.009573 
L 89.21876 133.286753 
L 92.498099 130.743245 
L 95.777438 121.043005 
L 99.056777 100.757284 
L 102.336116 106.804349 
L 105.615455 85.695729 
L 108.894793 91.992157 
L 112.174132 95.495714 
L 115.453471 100.096471 
L 118.73281 120.955728 
L 122.012149 83.189626 
L 125.291488 97.104109 
L 128.570826 93.101825 
L 131.850165 93.413529 
L 135.129504 92.977143 
L 138.408843 79.823218 
L 141.688182 82.990135 
L 144.967521 81.693445 
L 148.24686 61.083551 
L 151.526198 86.942546 
L 154.805537 98.425736 
L 158.084876 102.90181 
L 161.364215 83.825503 
L 164.643554 96.630318 
L 167.922893 74.574117 
L 171.202231 77.778438 
L 174.48157 82.528812 
L 177.760909 70.497024 
L 181.040248 63.564718 
L 184.319587 71.656564 
L 187.598926 76.182511 
L 190.878264 67.51713 
L 194.157603 88.787836 
L 197.436942 60.597293 
L 200.716281 70.235192 
L 203.99562 62.80416 
L 207.274959 52.717406 
L 210.554298 67.068275 
L 213.833636 61.43266 
L 217.112975 90.757808 
L 220.392314 81.556295 
L 223.671653 77.155029 
L 226.950992 72.741295 
L 230.230331 59.200857 
L 233.509669 77.092688 
L 236.789008 51.682547 
L 240.068347 60.011288 
L 243.347686 50.523007 
L 246.627025 60.597293 
L 249.906364 47.343623 
L 253.185702 50.971861 
L 256.465041 81.631104 
L 259.74438 49.550489 
L 263.023719 78.663678 
L 266.303058 95.371033 
L 269.582397 51.832166 
L 272.861736 56.99399 
L 276.141074 54.063969 
L 279.420413 50.884584 
L 282.699752 59.749457 
L 285.979091 82.803112 
L 289.25843 78.252228 
L 292.537769 74.050453 
L 295.817107 52.937581 
L 299.096446 80.691126 
L 302.375785 71.195329 
L 305.655124 62.486427 
L 308.934463 75.050233 
L 312.213802 52.159527 
L 315.49314 54.829667 
L 318.772479 56.315043 
L 322.051818 46.580525 
L 325.331157 56.474191 
L 328.610496 49.79884 
L 331.889835 49.62201 
L 335.169174 69.267877 
L 338.448512 61.973619 
L 341.727851 56.774803 
L 345.00719 60.691598 
L 348.286529 62.875454 
L 351.565868 54.458323 
L 354.845207 56.341568 
L 358.124545 46.615891 
L 361.403884 61.115991 
L 364.683223 52.106478 
L 367.962562 49.922621 
L 371.241901 46.500951 
L 374.52124 52.566237 
L 377.800579 76.606342 
L 381.079917 64.254732 
L 384.359256 49.321398 
L 387.638595 42.867085 
L 390.917934 56.748278 
L 394.197273 48.720174 
" clip-path="url(#p2d367b5ea6)" style="fill: none; stroke: #dd8452; stroke-width: 1.5; stroke-linecap: round"/>
   </g>
   <g id="line2d_14">
    <path d="M 69.542727 257.606926 
L 72.822066 247.981495 
L 76.101405 227.670838 
L 79.380744 222.097564 
L 82.660083 182.63579 
L 85.939421 178.222056 
L 89.21876 164.856172 
L 92.498099 143.298697 
L 95.777438 120.793642 
L 99.056777 107.664653 
L 102.336116 96.168996 
L 105.615455 93.301316 
L 108.894793 83.002603 
L 112.174132 80.795736 
L 115.453471 79.735941 
L 118.73281 73.052999 
L 122.012149 71.107964 
L 125.291488 71.54435 
L 128.570826 71.519414 
L 131.850165 69.649188 
L 135.129504 68.739011 
L 138.408843 66.41993 
L 141.688182 62.941309 
L 144.967521 62.629605 
L 148.24686 60.68457 
L 151.526198 60.073629 
L 154.805537 59.026302 
L 158.084876 59.051239 
L 161.364215 58.963962 
L 164.643554 59.051239 
L 167.922893 58.752003 
L 171.202231 58.215871 
L 174.48157 58.128594 
L 177.760909 56.570072 
L 181.040248 55.946663 
L 184.319587 56.395518 
L 187.598926 56.17109 
L 190.878264 54.425546 
L 194.157603 53.789669 
L 197.436942 53.540305 
L 200.716281 53.664987 
L 203.99562 51.308502 
L 207.274959 51.158884 
L 210.554298 50.872116 
L 213.833636 51.607738 
L 217.112975 51.433184 
L 220.392314 51.18382 
L 223.671653 51.071607 
L 226.950992 50.635221 
L 230.230331 48.927081 
L 233.509669 48.390949 
L 236.789008 48.31614 
L 240.068347 45.785101 
L 243.347686 45.261437 
L 246.627025 44.837519 
L 249.906364 44.538283 
L 253.185702 44.862456 
L 256.465041 45.049478 
L 259.74438 44.076961 
L 263.023719 43.765256 
L 266.303058 46.009528 
L 269.582397 45.797569 
L 272.861736 45.72276 
L 276.141074 44.463474 
L 279.420413 45.012074 
L 282.699752 44.924797 
L 285.979091 42.91742 
L 289.25843 43.553297 
L 292.537769 43.590702 
L 295.817107 68.056588 
L 299.096446 67.3139 
L 302.375785 67.411156 
L 305.655124 66.650785 
L 308.934463 66.129135 
L 312.213802 66.44743 
L 315.49314 66.33249 
L 318.772479 65.271508 
L 322.051818 66.809933 
L 325.331157 67.234326 
L 328.610496 66.862982 
L 331.889835 67.260851 
L 335.169174 66.951397 
L 338.448512 67.225484 
L 341.727851 65.63401 
L 345.00719 65.961146 
L 348.286529 66.650785 
L 351.565868 65.598644 
L 354.845207 64.99742 
L 358.124545 66.208709 
L 361.403884 66.067245 
L 364.683223 65.625169 
L 367.962562 63.909913 
L 371.241901 65.11236 
L 374.52124 63.989487 
L 377.800579 64.29894 
L 381.079917 63.77729 
L 384.359256 63.794973 
L 387.638595 63.308689 
L 390.917934 63.317531 
L 394.197273 64.016011 
" clip-path="url(#p2d367b5ea6)" style="fill: none; stroke: #55a868; stroke-width: 1.5; stroke-linecap: round"/>
   </g>
   <g id="line2d_15">
    <path d="M 69.542727 260.611756 
L 72.822066 243.941806 
L 76.101405 248.579967 
L 79.380744 234.952252 
L 82.660083 219.142606 
L 85.939421 212.123024 
L 89.21876 208.769085 
L 92.498099 190.278781 
L 95.777438 178.334269 
L 99.056777 184.605761 
L 102.336116 172.037841 
L 105.615455 159.719284 
L 108.894793 147.400727 
L 112.174132 137.413719 
L 115.453471 128.361824 
L 118.73281 119.559292 
L 122.012149 110.345311 
L 125.291488 101.767206 
L 128.570826 96.256273 
L 131.850165 91.269003 
L 135.129504 88.35145 
L 138.408843 82.840517 
L 141.688182 79.760878 
L 144.967521 78.302101 
L 148.24686 75.135185 
L 151.526198 71.6815 
L 154.805537 66.83138 
L 158.084876 63.290418 
L 161.364215 63.477441 
L 164.643554 61.133424 
L 167.922893 59.824266 
L 171.202231 58.215871 
L 174.48157 56.844372 
L 177.760909 56.333177 
L 181.040248 55.061423 
L 184.319587 55.136232 
L 187.598926 54.712314 
L 190.878264 54.039032 
L 194.157603 52.492979 
L 197.436942 49.662703 
L 200.716281 49.388403 
L 203.99562 49.41334 
L 207.274959 48.054308 
L 210.554298 47.343623 
L 213.833636 46.632937 
L 217.112975 46.046932 
L 220.392314 45.58561 
L 223.671653 44.613092 
L 226.950992 44.712838 
L 230.230331 44.451006 
L 233.509669 44.239047 
L 236.789008 43.391211 
L 240.068347 42.867548 
L 243.347686 42.007244 
L 246.627025 41.570857 
L 249.906364 41.134471 
L 253.185702 40.847703 
L 256.465041 41.07213 
L 259.74438 40.997321 
L 263.023719 40.723022 
L 266.303058 40.635744 
L 269.582397 40.161954 
L 272.861736 39.962463 
L 276.141074 39.825313 
L 279.420413 39.50114 
L 282.699752 39.463736 
L 285.979091 39.4388 
L 289.25843 39.4388 
L 292.537769 39.189436 
L 295.817107 70.850509 
L 299.096446 70.602947 
L 302.375785 70.514531 
L 305.655124 70.240444 
L 308.934463 70.496848 
L 312.213802 69.771843 
L 315.49314 69.674587 
L 318.772479 70.240444 
L 322.051818 69.992882 
L 325.331157 70.054772 
L 328.610496 70.134346 
L 331.889835 69.771843 
L 335.169174 69.930991 
L 338.448512 69.435866 
L 341.727851 69.488915 
L 345.00719 69.453549 
L 348.286529 69.57733 
L 351.565868 69.338609 
L 354.845207 69.648062 
L 358.124545 69.179461 
L 361.403884 68.993789 
L 364.683223 68.808117 
L 367.962562 68.321833 
L 371.241901 68.410249 
L 374.52124 68.330675 
L 377.800579 68.339517 
L 381.079917 68.136161 
L 384.359256 68.24226 
L 387.638595 68.136161 
L 390.917934 68.224577 
L 394.197273 67.89744 
" clip-path="url(#p2d367b5ea6)" style="fill: none; stroke: #c44e52; stroke-width: 1.5; stroke-linecap: round"/>
   </g>
   <g id="line2d_16">
    <path d="M 69.542727 241.697535 
L 72.822066 250.437725 
L 76.101405 250.250703 
L 79.380744 228.768037 
L 82.660083 226.498829 
L 85.939421 214.554318 
L 89.21876 215.551772 
L 92.498099 201.263243 
L 95.777438 195.75231 
L 99.056777 188.084382 
L 102.336116 179.094828 
L 105.615455 176.264552 
L 108.894793 173.484149 
L 112.174132 173.284658 
L 115.453471 171.127664 
L 118.73281 170.628937 
L 122.012149 170.367105 
L 125.291488 166.551844 
L 128.570826 161.065847 
L 131.850165 158.198167 
L 135.129504 153.759496 
L 138.408843 150.131257 
L 141.688182 144.969433 
L 144.967521 141.839921 
L 148.24686 142.388521 
L 151.526198 139.134327 
L 154.805537 138.261555 
L 158.084876 137.47606 
L 161.364215 133.598457 
L 164.643554 133.37403 
L 167.922893 127.002793 
L 171.202231 122.98804 
L 174.48157 119.384738 
L 177.760909 119.09797 
L 181.040248 117.901025 
L 184.319587 114.509681 
L 187.598926 111.093401 
L 190.878264 109.908925 
L 194.157603 109.958797 
L 197.436942 105.507659 
L 200.716281 105.133614 
L 203.99562 104.111223 
L 207.274959 103.001556 
L 210.554298 102.789597 
L 213.833636 102.502829 
L 217.112975 99.099017 
L 220.392314 98.388331 
L 223.671653 98.026754 
L 226.950992 96.405891 
L 230.230331 93.937193 
L 233.509669 93.288847 
L 236.789008 90.994703 
L 240.068347 90.919894 
L 243.347686 90.308954 
L 246.627025 89.997249 
L 249.906364 90.009717 
L 253.185702 87.19191 
L 256.465041 86.206924 
L 259.74438 85.795474 
L 263.023719 85.471302 
L 266.303058 85.521174 
L 269.582397 84.748148 
L 272.861736 84.498784 
L 276.141074 84.598529 
L 279.420413 84.274357 
L 282.699752 82.416599 
L 285.979091 78.327037 
L 289.25843 77.603883 
L 292.537769 76.406938 
L 295.817107 112.105062 
L 299.096446 111.972439 
L 302.375785 111.857499 
L 305.655124 111.494997 
L 308.934463 111.530363 
L 312.213802 111.327008 
L 315.49314 111.176702 
L 318.772479 110.946822 
L 322.051818 110.743467 
L 325.331157 110.920298 
L 328.610496 110.566637 
L 331.889835 110.619686 
L 335.169174 110.283708 
L 338.448512 110.133402 
L 341.727851 110.106877 
L 345.00719 110.071511 
L 348.286529 110.027304 
L 351.565868 109.983096 
L 354.845207 109.83279 
L 358.124545 109.090102 
L 361.403884 108.824856 
L 364.683223 108.49772 
L 367.962562 108.444671 
L 371.241901 108.276682 
L 374.52124 107.693141 
L 377.800579 107.551677 
L 381.079917 107.348322 
L 384.359256 106.110508 
L 387.638595 106.110508 
L 390.917934 106.198924 
L 394.197273 105.809897 
" clip-path="url(#p2d367b5ea6)" style="fill: none; stroke: #8172b3; stroke-width: 1.5; stroke-linecap: round"/>
   </g>
   <g id="line2d_17"/>
   <g id="line2d_18"/>
   <g id="line2d_19"/>
   <g id="line2d_20"/>
   <g id="line2d_21"/>
   <g id="patch_3">
    <path d="M 53.31 288.430125 
L 53.31 22.318125 
" style="fill: none; stroke: #cccccc; stroke-width: 1.25; stroke-linejoin: miter; stroke-linecap: square"/>
   </g>
   <g id="patch_4">
    <path d="M 410.43 288.430125 
L 410.43 22.318125 
" style="fill: none; stroke: #cccccc; stroke-width: 1.25; stroke-linejoin: miter; stroke-linecap: square"/>
   </g>
   <g id="patch_5">
    <path d="M 53.31 288.430125 
L 410.43 288.430125 
" style="fill: none; stroke: #cccccc; stroke-width: 1.25; stroke-linejoin: miter; stroke-linecap: square"/>
   </g>
   <g id="patch_6">
    <path d="M 53.31 22.318125 
L 410.43 22.318125 
" style="fill: none; stroke: #cccccc; stroke-width: 1.25; stroke-linejoin: miter; stroke-linecap: square"/>
   </g>
   <g id="text_14">
    <!-- Exp. 3 (MNIST) -->
    <g style="fill: #262626" transform="translate(187.589063 16.318125) scale(0.12 -0.12)">
     <defs>
      <path id="DejaVuSans-45" d="M 628 4666 
L 3578 4666 
L 3578 4134 
L 1259 4134 
L 1259 2753 
L 3481 2753 
L 3481 2222 
L 1259 2222 
L 1259 531 
L 3634 531 
L 3634 0 
L 628 0 
L 628 4666 
z
" transform="scale(0.015625)"/>
      <path id="DejaVuSans-78" d="M 3513 3500 
L 2247 1797 
L 3578 0 
L 2900 0 
L 1881 1375 
L 863 0 
L 184 0 
L 1544 1831 
L 300 3500 
L 978 3500 
L 1906 2253 
L 2834 3500 
L 3513 3500 
z
" transform="scale(0.015625)"/>
      <path id="DejaVuSans-70" d="M 1159 525 
L 1159 -1331 
L 581 -1331 
L 581 3500 
L 1159 3500 
L 1159 2969 
Q 1341 3281 1617 3432 
Q 1894 3584 2278 3584 
Q 2916 3584 3314 3078 
Q 3713 2572 3713 1747 
Q 3713 922 3314 415 
Q 2916 -91 2278 -91 
Q 1894 -91 1617 61 
Q 1341 213 1159 525 
z
M 3116 1747 
Q 3116 2381 2855 2742 
Q 2594 3103 2138 3103 
Q 1681 3103 1420 2742 
Q 1159 2381 1159 1747 
Q 1159 1113 1420 752 
Q 1681 391 2138 391 
Q 2594 391 2855 752 
Q 3116 1113 3116 1747 
z
" transform="scale(0.015625)"/>
      <path id="DejaVuSans-2e" d="M 684 794 
L 1344 794 
L 1344 0 
L 684 0 
L 684 794 
z
" transform="scale(0.015625)"/>
      <path id="DejaVuSans-33" d="M 2597 2516 
Q 3050 2419 3304 2112 
Q 3559 1806 3559 1356 
Q 3559 666 3084 287 
Q 2609 -91 1734 -91 
Q 1441 -91 1130 -33 
Q 819 25 488 141 
L 488 750 
Q 750 597 1062 519 
Q 1375 441 1716 441 
Q 2309 441 2620 675 
Q 2931 909 2931 1356 
Q 2931 1769 2642 2001 
Q 2353 2234 1838 2234 
L 1294 2234 
L 1294 2753 
L 1863 2753 
Q 2328 2753 2575 2939 
Q 2822 3125 2822 3475 
Q 2822 3834 2567 4026 
Q 2313 4219 1838 4219 
Q 1578 4219 1281 4162 
Q 984 4106 628 3988 
L 628 4550 
Q 988 4650 1302 4700 
Q 1616 4750 1894 4750 
Q 2613 4750 3031 4423 
Q 3450 4097 3450 3541 
Q 3450 3153 3228 2886 
Q 3006 2619 2597 2516 
z
" transform="scale(0.015625)"/>
      <path id="DejaVuSans-4d" d="M 628 4666 
L 1569 4666 
L 2759 1491 
L 3956 4666 
L 4897 4666 
L 4897 0 
L 4281 0 
L 4281 4097 
L 3078 897 
L 2444 897 
L 1241 4097 
L 1241 0 
L 628 0 
L 628 4666 
z
" transform="scale(0.015625)"/>
      <path id="DejaVuSans-4e" d="M 628 4666 
L 1478 4666 
L 3547 763 
L 3547 4666 
L 4159 4666 
L 4159 0 
L 3309 0 
L 1241 3903 
L 1241 0 
L 628 0 
L 628 4666 
z
" transform="scale(0.015625)"/>
      <path id="DejaVuSans-49" d="M 628 4666 
L 1259 4666 
L 1259 0 
L 628 0 
L 628 4666 
z
" transform="scale(0.015625)"/>
      <path id="DejaVuSans-54" d="M -19 4666 
L 3928 4666 
L 3928 4134 
L 2272 4134 
L 2272 0 
L 1638 0 
L 1638 4134 
L -19 4134 
L -19 4666 
z
" transform="scale(0.015625)"/>
     </defs>
     <use xlink:href="#DejaVuSans-45"/>
     <use xlink:href="#DejaVuSans-78" x="63.183594"/>
     <use xlink:href="#DejaVuSans-70" x="122.363281"/>
     <use xlink:href="#DejaVuSans-2e" x="185.839844"/>
     <use xlink:href="#DejaVuSans-20" x="217.626953"/>
     <use xlink:href="#DejaVuSans-33" x="249.414062"/>
     <use xlink:href="#DejaVuSans-20" x="313.037109"/>
     <use xlink:href="#DejaVuSans-28" x="344.824219"/>
     <use xlink:href="#DejaVuSans-4d" x="383.837891"/>
     <use xlink:href="#DejaVuSans-4e" x="470.117188"/>
     <use xlink:href="#DejaVuSans-49" x="544.921875"/>
     <use xlink:href="#DejaVuSans-53" x="574.414062"/>
     <use xlink:href="#DejaVuSans-54" x="637.890625"/>
     <use xlink:href="#DejaVuSans-29" x="698.974609"/>
    </g>
   </g>
   <g id="legend_1">
    <g id="patch_7">
     <path d="M 298.745625 282.930125 
L 402.73 282.930125 
Q 404.93 282.930125 404.93 280.730125 
L 404.93 183.986687 
Q 404.93 181.786687 402.73 181.786687 
L 298.745625 181.786687 
Q 296.545625 181.786687 296.545625 183.986687 
L 296.545625 280.730125 
Q 296.545625 282.930125 298.745625 282.930125 
z
" style="fill: #ffffff; opacity: 0.8; stroke: #cccccc; stroke-linejoin: miter"/>
    </g>
    <g id="text_15">
     <!-- Strategy -->
     <g style="fill: #262626" transform="translate(325.02875 195.304812) scale(0.12 -0.12)">
      <use xlink:href="#DejaVuSans-53"/>
      <use xlink:href="#DejaVuSans-74" x="63.476562"/>
      <use xlink:href="#DejaVuSans-72" x="102.685547"/>
      <use xlink:href="#DejaVuSans-61" x="143.798828"/>
      <use xlink:href="#DejaVuSans-74" x="205.078125"/>
      <use xlink:href="#DejaVuSans-65" x="244.287109"/>
      <use xlink:href="#DejaVuSans-67" x="305.810547"/>
      <use xlink:href="#DejaVuSans-79" x="369.287109"/>
     </g>
    </g>
    <g id="line2d_22">
     <path d="M 300.945625 207.808719 
L 311.945625 207.808719 
L 322.945625 207.808719 
" style="fill: none; stroke: #4c72b0; stroke-width: 1.5; stroke-linecap: round"/>
    </g>
    <g id="text_16">
     <!-- FedPredict -->
     <g style="fill: #262626" transform="translate(331.745625 211.658719) scale(0.11 -0.11)">
      <defs>
       <path id="DejaVuSans-46" d="M 628 4666 
L 3309 4666 
L 3309 4134 
L 1259 4134 
L 1259 2759 
L 3109 2759 
L 3109 2228 
L 1259 2228 
L 1259 0 
L 628 0 
L 628 4666 
z
" transform="scale(0.015625)"/>
       <path id="DejaVuSans-50" d="M 1259 4147 
L 1259 2394 
L 2053 2394 
Q 2494 2394 2734 2622 
Q 2975 2850 2975 3272 
Q 2975 3691 2734 3919 
Q 2494 4147 2053 4147 
L 1259 4147 
z
M 628 4666 
L 2053 4666 
Q 2838 4666 3239 4311 
Q 3641 3956 3641 3272 
Q 3641 2581 3239 2228 
Q 2838 1875 2053 1875 
L 1259 1875 
L 1259 0 
L 628 0 
L 628 4666 
z
" transform="scale(0.015625)"/>
       <path id="DejaVuSans-69" d="M 603 3500 
L 1178 3500 
L 1178 0 
L 603 0 
L 603 3500 
z
M 603 4863 
L 1178 4863 
L 1178 4134 
L 603 4134 
L 603 4863 
z
" transform="scale(0.015625)"/>
      </defs>
      <use xlink:href="#DejaVuSans-46"/>
      <use xlink:href="#DejaVuSans-65" x="52.019531"/>
      <use xlink:href="#DejaVuSans-64" x="113.542969"/>
      <use xlink:href="#DejaVuSans-50" x="177.019531"/>
      <use xlink:href="#DejaVuSans-72" x="235.572266"/>
      <use xlink:href="#DejaVuSans-65" x="274.435547"/>
      <use xlink:href="#DejaVuSans-64" x="335.958984"/>
      <use xlink:href="#DejaVuSans-69" x="399.435547"/>
      <use xlink:href="#DejaVuSans-63" x="427.21875"/>
      <use xlink:href="#DejaVuSans-74" x="482.199219"/>
     </g>
    </g>
    <g id="line2d_23">
     <path d="M 300.945625 223.954656 
L 311.945625 223.954656 
L 322.945625 223.954656 
" style="fill: none; stroke: #dd8452; stroke-width: 1.5; stroke-linecap: round"/>
    </g>
    <g id="text_17">
     <!-- FedAVG -->
     <g style="fill: #262626" transform="translate(331.745625 227.804656) scale(0.11 -0.11)">
      <defs>
       <path id="DejaVuSans-56" d="M 1831 0 
L 50 4666 
L 709 4666 
L 2188 738 
L 3669 4666 
L 4325 4666 
L 2547 0 
L 1831 0 
z
" transform="scale(0.015625)"/>
       <path id="DejaVuSans-47" d="M 3809 666 
L 3809 1919 
L 2778 1919 
L 2778 2438 
L 4434 2438 
L 4434 434 
Q 4069 175 3628 42 
Q 3188 -91 2688 -91 
Q 1594 -91 976 548 
Q 359 1188 359 2328 
Q 359 3472 976 4111 
Q 1594 4750 2688 4750 
Q 3144 4750 3555 4637 
Q 3966 4525 4313 4306 
L 4313 3634 
Q 3963 3931 3569 4081 
Q 3175 4231 2741 4231 
Q 1884 4231 1454 3753 
Q 1025 3275 1025 2328 
Q 1025 1384 1454 906 
Q 1884 428 2741 428 
Q 3075 428 3337 486 
Q 3600 544 3809 666 
z
" transform="scale(0.015625)"/>
      </defs>
      <use xlink:href="#DejaVuSans-46"/>
      <use xlink:href="#DejaVuSans-65" x="52.019531"/>
      <use xlink:href="#DejaVuSans-64" x="113.542969"/>
      <use xlink:href="#DejaVuSans-41" x="177.019531"/>
      <use xlink:href="#DejaVuSans-56" x="239.052734"/>
      <use xlink:href="#DejaVuSans-47" x="307.460938"/>
     </g>
    </g>
    <g id="line2d_24">
     <path d="M 300.945625 240.100594 
L 311.945625 240.100594 
L 322.945625 240.100594 
" style="fill: none; stroke: #55a868; stroke-width: 1.5; stroke-linecap: round"/>
    </g>
    <g id="text_18">
     <!-- FedClassAvg -->
     <g style="fill: #262626" transform="translate(331.745625 243.950594) scale(0.11 -0.11)">
      <defs>
       <path id="DejaVuSans-43" d="M 4122 4306 
L 4122 3641 
Q 3803 3938 3442 4084 
Q 3081 4231 2675 4231 
Q 1875 4231 1450 3742 
Q 1025 3253 1025 2328 
Q 1025 1406 1450 917 
Q 1875 428 2675 428 
Q 3081 428 3442 575 
Q 3803 722 4122 1019 
L 4122 359 
Q 3791 134 3420 21 
Q 3050 -91 2638 -91 
Q 1578 -91 968 557 
Q 359 1206 359 2328 
Q 359 3453 968 4101 
Q 1578 4750 2638 4750 
Q 3056 4750 3426 4639 
Q 3797 4528 4122 4306 
z
" transform="scale(0.015625)"/>
       <path id="DejaVuSans-6c" d="M 603 4863 
L 1178 4863 
L 1178 0 
L 603 0 
L 603 4863 
z
" transform="scale(0.015625)"/>
       <path id="DejaVuSans-73" d="M 2834 3397 
L 2834 2853 
Q 2591 2978 2328 3040 
Q 2066 3103 1784 3103 
Q 1356 3103 1142 2972 
Q 928 2841 928 2578 
Q 928 2378 1081 2264 
Q 1234 2150 1697 2047 
L 1894 2003 
Q 2506 1872 2764 1633 
Q 3022 1394 3022 966 
Q 3022 478 2636 193 
Q 2250 -91 1575 -91 
Q 1294 -91 989 -36 
Q 684 19 347 128 
L 347 722 
Q 666 556 975 473 
Q 1284 391 1588 391 
Q 1994 391 2212 530 
Q 2431 669 2431 922 
Q 2431 1156 2273 1281 
Q 2116 1406 1581 1522 
L 1381 1569 
Q 847 1681 609 1914 
Q 372 2147 372 2553 
Q 372 3047 722 3315 
Q 1072 3584 1716 3584 
Q 2034 3584 2315 3537 
Q 2597 3491 2834 3397 
z
" transform="scale(0.015625)"/>
      </defs>
      <use xlink:href="#DejaVuSans-46"/>
      <use xlink:href="#DejaVuSans-65" x="52.019531"/>
      <use xlink:href="#DejaVuSans-64" x="113.542969"/>
      <use xlink:href="#DejaVuSans-43" x="177.019531"/>
      <use xlink:href="#DejaVuSans-6c" x="246.84375"/>
      <use xlink:href="#DejaVuSans-61" x="274.626953"/>
      <use xlink:href="#DejaVuSans-73" x="335.90625"/>
      <use xlink:href="#DejaVuSans-73" x="388.005859"/>
      <use xlink:href="#DejaVuSans-41" x="440.105469"/>
      <use xlink:href="#DejaVuSans-76" x="502.638672"/>
      <use xlink:href="#DejaVuSans-67" x="561.818359"/>
     </g>
    </g>
    <g id="line2d_25">
     <path d="M 300.945625 256.246531 
L 311.945625 256.246531 
L 322.945625 256.246531 
" style="fill: none; stroke: #c44e52; stroke-width: 1.5; stroke-linecap: round"/>
    </g>
    <g id="text_19">
     <!-- FedPer -->
     <g style="fill: #262626" transform="translate(331.745625 260.096531) scale(0.11 -0.11)">
      <use xlink:href="#DejaVuSans-46"/>
      <use xlink:href="#DejaVuSans-65" x="52.019531"/>
      <use xlink:href="#DejaVuSans-64" x="113.542969"/>
      <use xlink:href="#DejaVuSans-50" x="177.019531"/>
      <use xlink:href="#DejaVuSans-65" x="233.697266"/>
      <use xlink:href="#DejaVuSans-72" x="295.220703"/>
     </g>
    </g>
    <g id="line2d_26">
     <path d="M 300.945625 272.392469 
L 311.945625 272.392469 
L 322.945625 272.392469 
" style="fill: none; stroke: #8172b3; stroke-width: 1.5; stroke-linecap: round"/>
    </g>
    <g id="text_20">
     <!-- FedProto -->
     <g style="fill: #262626" transform="translate(331.745625 276.242469) scale(0.11 -0.11)">
      <use xlink:href="#DejaVuSans-46"/>
      <use xlink:href="#DejaVuSans-65" x="52.019531"/>
      <use xlink:href="#DejaVuSans-64" x="113.542969"/>
      <use xlink:href="#DejaVuSans-50" x="177.019531"/>
      <use xlink:href="#DejaVuSans-72" x="235.572266"/>
      <use xlink:href="#DejaVuSans-6f" x="274.435547"/>
      <use xlink:href="#DejaVuSans-74" x="335.617188"/>
      <use xlink:href="#DejaVuSans-6f" x="374.826172"/>
     </g>
    </g>
   </g>
  </g>
 </g>
 <defs>
  <clipPath id="p2d367b5ea6">
   <rect x="53.31" y="22.318125" width="357.12" height="266.112"/>
  </clipPath>
 </defs>
</svg>
