<?xml version="1.0" encoding="utf-8" standalone="no"?>
<!DOCTYPE svg PUBLIC "-//W3C//DTD SVG 1.1//EN"
  "http://www.w3.org/Graphics/SVG/1.1/DTD/svg11.dtd">
<svg xmlns:xlink="http://www.w3.org/1999/xlink" width="410.63125pt" height="316.271687pt" viewBox="0 0 410.63125 316.271687" xmlns="http://www.w3.org/2000/svg" version="1.1">
 <metadata>
  <rdf:RDF xmlns:dc="http://purl.org/dc/elements/1.1/" xmlns:cc="http://creativecommons.org/ns#" xmlns:rdf="http://www.w3.org/1999/02/22-rdf-syntax-ns#">
   <cc:Work>
    <dc:type rdf:resource="http://purl.org/dc/dcmitype/StillImage"/>
    <dc:date>2023-02-10T09:02:29.620920</dc:date>
    <dc:format>image/svg+xml</dc:format>
    <dc:creator>
     <cc:Agent>
      <dc:title>Matplotlib v3.6.3, https://matplotlib.org/</dc:title>
     </cc:Agent>
    </dc:creator>
   </cc:Work>
  </rdf:RDF>
 </metadata>
 <defs>
  <style type="text/css">*{stroke-linejoin: round; stroke-linecap: butt}</style>
 </defs>
 <g id="figure_1">
  <g id="patch_1">
   <path d="M 0 316.271687 
L 410.63125 316.271687 
L 410.63125 0 
L 0 0 
z
" style="fill: #ffffff"/>
  </g>
  <g id="axes_1">
   <g id="patch_2">
    <path d="M 46.31125 273.312 
L 403.43125 273.312 
L 403.43125 7.2 
L 46.31125 7.2 
z
" style="fill: #ffffff"/>
   </g>
   <g id="matplotlib.axis_1">
    <g id="xtick_1">
     <g id="line2d_1">
      <path d="M 59.264638 273.312 
L 59.264638 7.2 
" clip-path="url(#p3a2eaf2180)" style="fill: none; stroke: #cccccc; stroke-linecap: round"/>
     </g>
     <g id="text_1">
      <!-- 0 -->
      <g style="fill: #262626" transform="translate(55.765263 291.170281) scale(0.11 -0.11)">
       <defs>
        <path id="DejaVuSans-30" d="M 2034 4250 
Q 1547 4250 1301 3770 
Q 1056 3291 1056 2328 
Q 1056 1369 1301 889 
Q 1547 409 2034 409 
Q 2525 409 2770 889 
Q 3016 1369 3016 2328 
Q 3016 3291 2770 3770 
Q 2525 4250 2034 4250 
z
M 2034 4750 
Q 2819 4750 3233 4129 
Q 3647 3509 3647 2328 
Q 3647 1150 3233 529 
Q 2819 -91 2034 -91 
Q 1250 -91 836 529 
Q 422 1150 422 2328 
Q 422 3509 836 4129 
Q 1250 4750 2034 4750 
z
" transform="scale(0.015625)"/>
       </defs>
       <use xlink:href="#DejaVuSans-30"/>
      </g>
     </g>
    </g>
    <g id="xtick_2">
     <g id="line2d_2">
      <path d="M 124.851415 273.312 
L 124.851415 7.2 
" clip-path="url(#p3a2eaf2180)" style="fill: none; stroke: #cccccc; stroke-linecap: round"/>
     </g>
     <g id="text_2">
      <!-- 20 -->
      <g style="fill: #262626" transform="translate(117.852665 291.170281) scale(0.11 -0.11)">
       <defs>
        <path id="DejaVuSans-32" d="M 1228 531 
L 3431 531 
L 3431 0 
L 469 0 
L 469 531 
Q 828 903 1448 1529 
Q 2069 2156 2228 2338 
Q 2531 2678 2651 2914 
Q 2772 3150 2772 3378 
Q 2772 3750 2511 3984 
Q 2250 4219 1831 4219 
Q 1534 4219 1204 4116 
Q 875 4013 500 3803 
L 500 4441 
Q 881 4594 1212 4672 
Q 1544 4750 1819 4750 
Q 2544 4750 2975 4387 
Q 3406 4025 3406 3419 
Q 3406 3131 3298 2873 
Q 3191 2616 2906 2266 
Q 2828 2175 2409 1742 
Q 1991 1309 1228 531 
z
" transform="scale(0.015625)"/>
       </defs>
       <use xlink:href="#DejaVuSans-32"/>
       <use xlink:href="#DejaVuSans-30" x="63.623047"/>
      </g>
     </g>
    </g>
    <g id="xtick_3">
     <g id="line2d_3">
      <path d="M 190.438192 273.312 
L 190.438192 7.2 
" clip-path="url(#p3a2eaf2180)" style="fill: none; stroke: #cccccc; stroke-linecap: round"/>
     </g>
     <g id="text_3">
      <!-- 40 -->
      <g style="fill: #262626" transform="translate(183.439442 291.170281) scale(0.11 -0.11)">
       <defs>
        <path id="DejaVuSans-34" d="M 2419 4116 
L 825 1625 
L 2419 1625 
L 2419 4116 
z
M 2253 4666 
L 3047 4666 
L 3047 1625 
L 3713 1625 
L 3713 1100 
L 3047 1100 
L 3047 0 
L 2419 0 
L 2419 1100 
L 313 1100 
L 313 1709 
L 2253 4666 
z
" transform="scale(0.015625)"/>
       </defs>
       <use xlink:href="#DejaVuSans-34"/>
       <use xlink:href="#DejaVuSans-30" x="63.623047"/>
      </g>
     </g>
    </g>
    <g id="xtick_4">
     <g id="line2d_4">
      <path d="M 256.024969 273.312 
L 256.024969 7.2 
" clip-path="url(#p3a2eaf2180)" style="fill: none; stroke: #cccccc; stroke-linecap: round"/>
     </g>
     <g id="text_4">
      <!-- 60 -->
      <g style="fill: #262626" transform="translate(249.026219 291.170281) scale(0.11 -0.11)">
       <defs>
        <path id="DejaVuSans-36" d="M 2113 2584 
Q 1688 2584 1439 2293 
Q 1191 2003 1191 1497 
Q 1191 994 1439 701 
Q 1688 409 2113 409 
Q 2538 409 2786 701 
Q 3034 994 3034 1497 
Q 3034 2003 2786 2293 
Q 2538 2584 2113 2584 
z
M 3366 4563 
L 3366 3988 
Q 3128 4100 2886 4159 
Q 2644 4219 2406 4219 
Q 1781 4219 1451 3797 
Q 1122 3375 1075 2522 
Q 1259 2794 1537 2939 
Q 1816 3084 2150 3084 
Q 2853 3084 3261 2657 
Q 3669 2231 3669 1497 
Q 3669 778 3244 343 
Q 2819 -91 2113 -91 
Q 1303 -91 875 529 
Q 447 1150 447 2328 
Q 447 3434 972 4092 
Q 1497 4750 2381 4750 
Q 2619 4750 2861 4703 
Q 3103 4656 3366 4563 
z
" transform="scale(0.015625)"/>
       </defs>
       <use xlink:href="#DejaVuSans-36"/>
       <use xlink:href="#DejaVuSans-30" x="63.623047"/>
      </g>
     </g>
    </g>
    <g id="xtick_5">
     <g id="line2d_5">
      <path d="M 321.611746 273.312 
L 321.611746 7.2 
" clip-path="url(#p3a2eaf2180)" style="fill: none; stroke: #cccccc; stroke-linecap: round"/>
     </g>
     <g id="text_5">
      <!-- 80 -->
      <g style="fill: #262626" transform="translate(314.612996 291.170281) scale(0.11 -0.11)">
       <defs>
        <path id="DejaVuSans-38" d="M 2034 2216 
Q 1584 2216 1326 1975 
Q 1069 1734 1069 1313 
Q 1069 891 1326 650 
Q 1584 409 2034 409 
Q 2484 409 2743 651 
Q 3003 894 3003 1313 
Q 3003 1734 2745 1975 
Q 2488 2216 2034 2216 
z
M 1403 2484 
Q 997 2584 770 2862 
Q 544 3141 544 3541 
Q 544 4100 942 4425 
Q 1341 4750 2034 4750 
Q 2731 4750 3128 4425 
Q 3525 4100 3525 3541 
Q 3525 3141 3298 2862 
Q 3072 2584 2669 2484 
Q 3125 2378 3379 2068 
Q 3634 1759 3634 1313 
Q 3634 634 3220 271 
Q 2806 -91 2034 -91 
Q 1263 -91 848 271 
Q 434 634 434 1313 
Q 434 1759 690 2068 
Q 947 2378 1403 2484 
z
M 1172 3481 
Q 1172 3119 1398 2916 
Q 1625 2713 2034 2713 
Q 2441 2713 2670 2916 
Q 2900 3119 2900 3481 
Q 2900 3844 2670 4047 
Q 2441 4250 2034 4250 
Q 1625 4250 1398 4047 
Q 1172 3844 1172 3481 
z
" transform="scale(0.015625)"/>
       </defs>
       <use xlink:href="#DejaVuSans-38"/>
       <use xlink:href="#DejaVuSans-30" x="63.623047"/>
      </g>
     </g>
    </g>
    <g id="xtick_6">
     <g id="line2d_6">
      <path d="M 387.198523 273.312 
L 387.198523 7.2 
" clip-path="url(#p3a2eaf2180)" style="fill: none; stroke: #cccccc; stroke-linecap: round"/>
     </g>
     <g id="text_6">
      <!-- 100 -->
      <g style="fill: #262626" transform="translate(376.700398 291.170281) scale(0.11 -0.11)">
       <defs>
        <path id="DejaVuSans-31" d="M 794 531 
L 1825 531 
L 1825 4091 
L 703 3866 
L 703 4441 
L 1819 4666 
L 2450 4666 
L 2450 531 
L 3481 531 
L 3481 0 
L 794 0 
L 794 531 
z
" transform="scale(0.015625)"/>
       </defs>
       <use xlink:href="#DejaVuSans-31"/>
       <use xlink:href="#DejaVuSans-30" x="63.623047"/>
       <use xlink:href="#DejaVuSans-30" x="127.246094"/>
      </g>
     </g>
    </g>
    <g id="text_7">
     <!-- Round -->
     <g style="fill: #262626" transform="translate(205.886875 306.576062) scale(0.12 -0.12)">
      <defs>
       <path id="DejaVuSans-52" d="M 2841 2188 
Q 3044 2119 3236 1894 
Q 3428 1669 3622 1275 
L 4263 0 
L 3584 0 
L 2988 1197 
Q 2756 1666 2539 1819 
Q 2322 1972 1947 1972 
L 1259 1972 
L 1259 0 
L 628 0 
L 628 4666 
L 2053 4666 
Q 2853 4666 3247 4331 
Q 3641 3997 3641 3322 
Q 3641 2881 3436 2590 
Q 3231 2300 2841 2188 
z
M 1259 4147 
L 1259 2491 
L 2053 2491 
Q 2509 2491 2742 2702 
Q 2975 2913 2975 3322 
Q 2975 3731 2742 3939 
Q 2509 4147 2053 4147 
L 1259 4147 
z
" transform="scale(0.015625)"/>
       <path id="DejaVuSans-6f" d="M 1959 3097 
Q 1497 3097 1228 2736 
Q 959 2375 959 1747 
Q 959 1119 1226 758 
Q 1494 397 1959 397 
Q 2419 397 2687 759 
Q 2956 1122 2956 1747 
Q 2956 2369 2687 2733 
Q 2419 3097 1959 3097 
z
M 1959 3584 
Q 2709 3584 3137 3096 
Q 3566 2609 3566 1747 
Q 3566 888 3137 398 
Q 2709 -91 1959 -91 
Q 1206 -91 779 398 
Q 353 888 353 1747 
Q 353 2609 779 3096 
Q 1206 3584 1959 3584 
z
" transform="scale(0.015625)"/>
       <path id="DejaVuSans-75" d="M 544 1381 
L 544 3500 
L 1119 3500 
L 1119 1403 
Q 1119 906 1312 657 
Q 1506 409 1894 409 
Q 2359 409 2629 706 
Q 2900 1003 2900 1516 
L 2900 3500 
L 3475 3500 
L 3475 0 
L 2900 0 
L 2900 538 
Q 2691 219 2414 64 
Q 2138 -91 1772 -91 
Q 1169 -91 856 284 
Q 544 659 544 1381 
z
M 1991 3584 
L 1991 3584 
z
" transform="scale(0.015625)"/>
       <path id="DejaVuSans-6e" d="M 3513 2113 
L 3513 0 
L 2938 0 
L 2938 2094 
Q 2938 2591 2744 2837 
Q 2550 3084 2163 3084 
Q 1697 3084 1428 2787 
Q 1159 2491 1159 1978 
L 1159 0 
L 581 0 
L 581 3500 
L 1159 3500 
L 1159 2956 
Q 1366 3272 1645 3428 
Q 1925 3584 2291 3584 
Q 2894 3584 3203 3211 
Q 3513 2838 3513 2113 
z
" transform="scale(0.015625)"/>
       <path id="DejaVuSans-64" d="M 2906 2969 
L 2906 4863 
L 3481 4863 
L 3481 0 
L 2906 0 
L 2906 525 
Q 2725 213 2448 61 
Q 2172 -91 1784 -91 
Q 1150 -91 751 415 
Q 353 922 353 1747 
Q 353 2572 751 3078 
Q 1150 3584 1784 3584 
Q 2172 3584 2448 3432 
Q 2725 3281 2906 2969 
z
M 947 1747 
Q 947 1113 1208 752 
Q 1469 391 1925 391 
Q 2381 391 2643 752 
Q 2906 1113 2906 1747 
Q 2906 2381 2643 2742 
Q 2381 3103 1925 3103 
Q 1469 3103 1208 2742 
Q 947 2381 947 1747 
z
" transform="scale(0.015625)"/>
      </defs>
      <use xlink:href="#DejaVuSans-52"/>
      <use xlink:href="#DejaVuSans-6f" x="64.982422"/>
      <use xlink:href="#DejaVuSans-75" x="126.164062"/>
      <use xlink:href="#DejaVuSans-6e" x="189.542969"/>
      <use xlink:href="#DejaVuSans-64" x="252.921875"/>
     </g>
    </g>
   </g>
   <g id="matplotlib.axis_2">
    <g id="ytick_1">
     <g id="line2d_7">
      <path d="M 46.31125 257.714775 
L 403.43125 257.714775 
" clip-path="url(#p3a2eaf2180)" style="fill: none; stroke: #cccccc; stroke-linecap: round"/>
     </g>
     <g id="text_8">
      <!-- 10 -->
      <g style="fill: #262626" transform="translate(22.81375 261.893915) scale(0.11 -0.11)">
       <use xlink:href="#DejaVuSans-31"/>
       <use xlink:href="#DejaVuSans-30" x="63.623047"/>
      </g>
     </g>
    </g>
    <g id="ytick_2">
     <g id="line2d_8">
      <path d="M 46.31125 225.935194 
L 403.43125 225.935194 
" clip-path="url(#p3a2eaf2180)" style="fill: none; stroke: #cccccc; stroke-linecap: round"/>
     </g>
     <g id="text_9">
      <!-- 20 -->
      <g style="fill: #262626" transform="translate(22.81375 230.114335) scale(0.11 -0.11)">
       <use xlink:href="#DejaVuSans-32"/>
       <use xlink:href="#DejaVuSans-30" x="63.623047"/>
      </g>
     </g>
    </g>
    <g id="ytick_3">
     <g id="line2d_9">
      <path d="M 46.31125 194.155614 
L 403.43125 194.155614 
" clip-path="url(#p3a2eaf2180)" style="fill: none; stroke: #cccccc; stroke-linecap: round"/>
     </g>
     <g id="text_10">
      <!-- 30 -->
      <g style="fill: #262626" transform="translate(22.81375 198.334755) scale(0.11 -0.11)">
       <defs>
        <path id="DejaVuSans-33" d="M 2597 2516 
Q 3050 2419 3304 2112 
Q 3559 1806 3559 1356 
Q 3559 666 3084 287 
Q 2609 -91 1734 -91 
Q 1441 -91 1130 -33 
Q 819 25 488 141 
L 488 750 
Q 750 597 1062 519 
Q 1375 441 1716 441 
Q 2309 441 2620 675 
Q 2931 909 2931 1356 
Q 2931 1769 2642 2001 
Q 2353 2234 1838 2234 
L 1294 2234 
L 1294 2753 
L 1863 2753 
Q 2328 2753 2575 2939 
Q 2822 3125 2822 3475 
Q 2822 3834 2567 4026 
Q 2313 4219 1838 4219 
Q 1578 4219 1281 4162 
Q 984 4106 628 3988 
L 628 4550 
Q 988 4650 1302 4700 
Q 1616 4750 1894 4750 
Q 2613 4750 3031 4423 
Q 3450 4097 3450 3541 
Q 3450 3153 3228 2886 
Q 3006 2619 2597 2516 
z
" transform="scale(0.015625)"/>
       </defs>
       <use xlink:href="#DejaVuSans-33"/>
       <use xlink:href="#DejaVuSans-30" x="63.623047"/>
      </g>
     </g>
    </g>
    <g id="ytick_4">
     <g id="line2d_10">
      <path d="M 46.31125 162.376034 
L 403.43125 162.376034 
" clip-path="url(#p3a2eaf2180)" style="fill: none; stroke: #cccccc; stroke-linecap: round"/>
     </g>
     <g id="text_11">
      <!-- 40 -->
      <g style="fill: #262626" transform="translate(22.81375 166.555175) scale(0.11 -0.11)">
       <use xlink:href="#DejaVuSans-34"/>
       <use xlink:href="#DejaVuSans-30" x="63.623047"/>
      </g>
     </g>
    </g>
    <g id="ytick_5">
     <g id="line2d_11">
      <path d="M 46.31125 130.596454 
L 403.43125 130.596454 
" clip-path="url(#p3a2eaf2180)" style="fill: none; stroke: #cccccc; stroke-linecap: round"/>
     </g>
     <g id="text_12">
      <!-- 50 -->
      <g style="fill: #262626" transform="translate(22.81375 134.775594) scale(0.11 -0.11)">
       <defs>
        <path id="DejaVuSans-35" d="M 691 4666 
L 3169 4666 
L 3169 4134 
L 1269 4134 
L 1269 2991 
Q 1406 3038 1543 3061 
Q 1681 3084 1819 3084 
Q 2600 3084 3056 2656 
Q 3513 2228 3513 1497 
Q 3513 744 3044 326 
Q 2575 -91 1722 -91 
Q 1428 -91 1123 -41 
Q 819 9 494 109 
L 494 744 
Q 775 591 1075 516 
Q 1375 441 1709 441 
Q 2250 441 2565 725 
Q 2881 1009 2881 1497 
Q 2881 1984 2565 2268 
Q 2250 2553 1709 2553 
Q 1456 2553 1204 2497 
Q 953 2441 691 2322 
L 691 4666 
z
" transform="scale(0.015625)"/>
       </defs>
       <use xlink:href="#DejaVuSans-35"/>
       <use xlink:href="#DejaVuSans-30" x="63.623047"/>
      </g>
     </g>
    </g>
    <g id="ytick_6">
     <g id="line2d_12">
      <path d="M 46.31125 98.816874 
L 403.43125 98.816874 
" clip-path="url(#p3a2eaf2180)" style="fill: none; stroke: #cccccc; stroke-linecap: round"/>
     </g>
     <g id="text_13">
      <!-- 60 -->
      <g style="fill: #262626" transform="translate(22.81375 102.996014) scale(0.11 -0.11)">
       <use xlink:href="#DejaVuSans-36"/>
       <use xlink:href="#DejaVuSans-30" x="63.623047"/>
      </g>
     </g>
    </g>
    <g id="ytick_7">
     <g id="line2d_13">
      <path d="M 46.31125 67.037293 
L 403.43125 67.037293 
" clip-path="url(#p3a2eaf2180)" style="fill: none; stroke: #cccccc; stroke-linecap: round"/>
     </g>
     <g id="text_14">
      <!-- 70 -->
      <g style="fill: #262626" transform="translate(22.81375 71.216434) scale(0.11 -0.11)">
       <defs>
        <path id="DejaVuSans-37" d="M 525 4666 
L 3525 4666 
L 3525 4397 
L 1831 0 
L 1172 0 
L 2766 4134 
L 525 4134 
L 525 4666 
z
" transform="scale(0.015625)"/>
       </defs>
       <use xlink:href="#DejaVuSans-37"/>
       <use xlink:href="#DejaVuSans-30" x="63.623047"/>
      </g>
     </g>
    </g>
    <g id="ytick_8">
     <g id="line2d_14">
      <path d="M 46.31125 35.257713 
L 403.43125 35.257713 
" clip-path="url(#p3a2eaf2180)" style="fill: none; stroke: #cccccc; stroke-linecap: round"/>
     </g>
     <g id="text_15">
      <!-- 80 -->
      <g style="fill: #262626" transform="translate(22.81375 39.436854) scale(0.11 -0.11)">
       <use xlink:href="#DejaVuSans-38"/>
       <use xlink:href="#DejaVuSans-30" x="63.623047"/>
      </g>
     </g>
    </g>
    <g id="text_16">
     <!-- Accuracy (%) -->
     <g style="fill: #262626" transform="translate(16.318125 179.939437) rotate(-90) scale(0.12 -0.12)">
      <defs>
       <path id="DejaVuSans-41" d="M 2188 4044 
L 1331 1722 
L 3047 1722 
L 2188 4044 
z
M 1831 4666 
L 2547 4666 
L 4325 0 
L 3669 0 
L 3244 1197 
L 1141 1197 
L 716 0 
L 50 0 
L 1831 4666 
z
" transform="scale(0.015625)"/>
       <path id="DejaVuSans-63" d="M 3122 3366 
L 3122 2828 
Q 2878 2963 2633 3030 
Q 2388 3097 2138 3097 
Q 1578 3097 1268 2742 
Q 959 2388 959 1747 
Q 959 1106 1268 751 
Q 1578 397 2138 397 
Q 2388 397 2633 464 
Q 2878 531 3122 666 
L 3122 134 
Q 2881 22 2623 -34 
Q 2366 -91 2075 -91 
Q 1284 -91 818 406 
Q 353 903 353 1747 
Q 353 2603 823 3093 
Q 1294 3584 2113 3584 
Q 2378 3584 2631 3529 
Q 2884 3475 3122 3366 
z
" transform="scale(0.015625)"/>
       <path id="DejaVuSans-72" d="M 2631 2963 
Q 2534 3019 2420 3045 
Q 2306 3072 2169 3072 
Q 1681 3072 1420 2755 
Q 1159 2438 1159 1844 
L 1159 0 
L 581 0 
L 581 3500 
L 1159 3500 
L 1159 2956 
Q 1341 3275 1631 3429 
Q 1922 3584 2338 3584 
Q 2397 3584 2469 3576 
Q 2541 3569 2628 3553 
L 2631 2963 
z
" transform="scale(0.015625)"/>
       <path id="DejaVuSans-61" d="M 2194 1759 
Q 1497 1759 1228 1600 
Q 959 1441 959 1056 
Q 959 750 1161 570 
Q 1363 391 1709 391 
Q 2188 391 2477 730 
Q 2766 1069 2766 1631 
L 2766 1759 
L 2194 1759 
z
M 3341 1997 
L 3341 0 
L 2766 0 
L 2766 531 
Q 2569 213 2275 61 
Q 1981 -91 1556 -91 
Q 1019 -91 701 211 
Q 384 513 384 1019 
Q 384 1609 779 1909 
Q 1175 2209 1959 2209 
L 2766 2209 
L 2766 2266 
Q 2766 2663 2505 2880 
Q 2244 3097 1772 3097 
Q 1472 3097 1187 3025 
Q 903 2953 641 2809 
L 641 3341 
Q 956 3463 1253 3523 
Q 1550 3584 1831 3584 
Q 2591 3584 2966 3190 
Q 3341 2797 3341 1997 
z
" transform="scale(0.015625)"/>
       <path id="DejaVuSans-79" d="M 2059 -325 
Q 1816 -950 1584 -1140 
Q 1353 -1331 966 -1331 
L 506 -1331 
L 506 -850 
L 844 -850 
Q 1081 -850 1212 -737 
Q 1344 -625 1503 -206 
L 1606 56 
L 191 3500 
L 800 3500 
L 1894 763 
L 2988 3500 
L 3597 3500 
L 2059 -325 
z
" transform="scale(0.015625)"/>
       <path id="DejaVuSans-20" transform="scale(0.015625)"/>
       <path id="DejaVuSans-28" d="M 1984 4856 
Q 1566 4138 1362 3434 
Q 1159 2731 1159 2009 
Q 1159 1288 1364 580 
Q 1569 -128 1984 -844 
L 1484 -844 
Q 1016 -109 783 600 
Q 550 1309 550 2009 
Q 550 2706 781 3412 
Q 1013 4119 1484 4856 
L 1984 4856 
z
" transform="scale(0.015625)"/>
       <path id="DejaVuSans-25" d="M 4653 2053 
Q 4381 2053 4226 1822 
Q 4072 1591 4072 1178 
Q 4072 772 4226 539 
Q 4381 306 4653 306 
Q 4919 306 5073 539 
Q 5228 772 5228 1178 
Q 5228 1588 5073 1820 
Q 4919 2053 4653 2053 
z
M 4653 2450 
Q 5147 2450 5437 2106 
Q 5728 1763 5728 1178 
Q 5728 594 5436 251 
Q 5144 -91 4653 -91 
Q 4153 -91 3862 251 
Q 3572 594 3572 1178 
Q 3572 1766 3864 2108 
Q 4156 2450 4653 2450 
z
M 1428 4353 
Q 1159 4353 1004 4120 
Q 850 3888 850 3481 
Q 850 3069 1003 2837 
Q 1156 2606 1428 2606 
Q 1700 2606 1854 2837 
Q 2009 3069 2009 3481 
Q 2009 3884 1853 4118 
Q 1697 4353 1428 4353 
z
M 4250 4750 
L 4750 4750 
L 1831 -91 
L 1331 -91 
L 4250 4750 
z
M 1428 4750 
Q 1922 4750 2215 4408 
Q 2509 4066 2509 3481 
Q 2509 2891 2217 2550 
Q 1925 2209 1428 2209 
Q 931 2209 642 2551 
Q 353 2894 353 3481 
Q 353 4063 643 4406 
Q 934 4750 1428 4750 
z
" transform="scale(0.015625)"/>
       <path id="DejaVuSans-29" d="M 513 4856 
L 1013 4856 
Q 1481 4119 1714 3412 
Q 1947 2706 1947 2009 
Q 1947 1309 1714 600 
Q 1481 -109 1013 -844 
L 513 -844 
Q 928 -128 1133 580 
Q 1338 1288 1338 2009 
Q 1338 2731 1133 3434 
Q 928 4138 513 4856 
z
" transform="scale(0.015625)"/>
      </defs>
      <use xlink:href="#DejaVuSans-41"/>
      <use xlink:href="#DejaVuSans-63" x="66.658203"/>
      <use xlink:href="#DejaVuSans-63" x="121.638672"/>
      <use xlink:href="#DejaVuSans-75" x="176.619141"/>
      <use xlink:href="#DejaVuSans-72" x="239.998047"/>
      <use xlink:href="#DejaVuSans-61" x="281.111328"/>
      <use xlink:href="#DejaVuSans-63" x="342.390625"/>
      <use xlink:href="#DejaVuSans-79" x="397.371094"/>
      <use xlink:href="#DejaVuSans-20" x="456.550781"/>
      <use xlink:href="#DejaVuSans-28" x="488.337891"/>
      <use xlink:href="#DejaVuSans-25" x="527.351562"/>
      <use xlink:href="#DejaVuSans-29" x="622.371094"/>
     </g>
    </g>
   </g>
   <g id="PolyCollection_1">
    <defs>
     <path id="m24cfb00712" d="M 62.543977 -113.16497 
L 62.543977 -76.216148 
L 65.823316 -104.591497 
L 69.102655 -133.690404 
L 72.381994 -127.659774 
L 75.661333 -179.205688 
L 78.940671 -178.137563 
L 82.22001 -185.412691 
L 85.499349 -197.559532 
L 88.778688 -189.463266 
L 92.058027 -223.276071 
L 95.337366 -213.99317 
L 98.616705 -198.31672 
L 101.896043 -206.128453 
L 105.175382 -226.86366 
L 108.454721 -227.333638 
L 111.73406 -224.442361 
L 115.013399 -231.63588 
L 118.292738 -236.07912 
L 121.572076 -231.063714 
L 124.851415 -233.96573 
L 128.130754 -237.930355 
L 131.410093 -236.213276 
L 134.689432 -231.721178 
L 137.968771 -237.468599 
L 141.24811 -248.48844 
L 144.527448 -245.863147 
L 147.806787 -248.763267 
L 151.086126 -247.590087 
L 154.365465 -240.654446 
L 157.644804 -251.417375 
L 160.924143 -249.651594 
L 164.203481 -247.016532 
L 167.48282 -255.887972 
L 170.762159 -252.437716 
L 174.041498 -251.203837 
L 177.320837 -253.158747 
L 180.600176 -257.056853 
L 183.879514 -256.537825 
L 187.158853 -263.748238 
L 190.438192 -262.524503 
L 193.717531 -262.206367 
L 196.99687 -265.693558 
L 200.276209 -261.977071 
L 203.555548 -264.133381 
L 206.834886 -261.045654 
L 210.114225 -263.257921 
L 213.393564 -265.696513 
L 216.672903 -268.501616 
L 219.952242 -267.896372 
L 223.231581 -261.575445 
L 226.510919 -266.179459 
L 229.790258 -267.644219 
L 233.069597 -269.573391 
L 236.348936 -267.214082 
L 239.628275 -266.892009 
L 242.907614 -269.752954 
L 246.186952 -273.640932 
L 249.466291 -272.700029 
L 252.74563 -270.674097 
L 256.024969 -267.803523 
L 259.304308 -271.324608 
L 262.583647 -271.771703 
L 265.862986 -277.439188 
L 269.142324 -273.116308 
L 272.421663 -271.592988 
L 275.701002 -274.310165 
L 278.980341 -274.483354 
L 282.25968 -274.180383 
L 285.539019 -274.20764 
L 288.818357 -261.196632 
L 292.097696 -262.992626 
L 295.377035 -253.6102 
L 298.656374 -257.707648 
L 301.935713 -259.200935 
L 305.215052 -260.065132 
L 308.49439 -259.404507 
L 311.773729 -254.819335 
L 315.053068 -257.360774 
L 318.332407 -260.62637 
L 321.611746 -258.390215 
L 324.891085 -259.485493 
L 328.170424 -261.823964 
L 331.449762 -258.943058 
L 334.729101 -258.239678 
L 338.00844 -256.825827 
L 341.287779 -258.760661 
L 344.567118 -255.7315 
L 347.846457 -256.091135 
L 351.125795 -257.326804 
L 354.405134 -257.872443 
L 357.684473 -254.612164 
L 360.963812 -257.952256 
L 364.243151 -258.214875 
L 367.52249 -258.59336 
L 370.801829 -254.722277 
L 374.081167 -255.484572 
L 377.360506 -256.614063 
L 380.639845 -253.57114 
L 383.919184 -257.714484 
L 387.198523 -258.043912 
L 387.198523 -285.056003 
L 387.198523 -285.056003 
L 383.919184 -286.020781 
L 380.639845 -283.284405 
L 377.360506 -284.930177 
L 374.081167 -282.260712 
L 370.801829 -283.060935 
L 367.52249 -285.484167 
L 364.243151 -285.541046 
L 360.963812 -285.184798 
L 357.684473 -283.228135 
L 354.405134 -285.424123 
L 351.125795 -285.090587 
L 347.846457 -282.929342 
L 344.567118 -283.119702 
L 341.287779 -285.186793 
L 338.00844 -285.905071 
L 334.729101 -286.185073 
L 331.449762 -286.305553 
L 328.170424 -287.15586 
L 324.891085 -284.695873 
L 321.611746 -285.920198 
L 318.332407 -286.430042 
L 315.053068 -283.984394 
L 311.773729 -281.756703 
L 308.49439 -284.283531 
L 305.215052 -284.743769 
L 301.935713 -283.793541 
L 298.656374 -286.028759 
L 295.377035 -282.443938 
L 292.097696 -286.604449 
L 288.818357 -286.179288 
L 285.539019 -295.120264 
L 282.25968 -295.581302 
L 278.980341 -294.513937 
L 275.701002 -296.130202 
L 272.421663 -295.302444 
L 269.142324 -293.399748 
L 265.862986 -296.975687 
L 262.583647 -291.405251 
L 259.304308 -293.516971 
L 256.024969 -292.333753 
L 252.74563 -291.40893 
L 249.466291 -293.2006 
L 246.186952 -294.44065 
L 242.907614 -291.162391 
L 239.628275 -290.882389 
L 236.348936 -290.210767 
L 233.069597 -291.495354 
L 229.790258 -289.619637 
L 226.510919 -288.767218 
L 223.231581 -287.58189 
L 219.952242 -289.168291 
L 216.672903 -291.094022 
L 213.393564 -288.651586 
L 210.114225 -286.044661 
L 206.834886 -286.238525 
L 203.555548 -285.806791 
L 200.276209 -285.488712 
L 196.99687 -286.48009 
L 193.717531 -286.838419 
L 190.438192 -286.733802 
L 187.158853 -285.327216 
L 183.879514 -280.705704 
L 180.600176 -282.390844 
L 177.320837 -278.985895 
L 174.041498 -279.451646 
L 170.762159 -279.630304 
L 167.48282 -281.628584 
L 164.203481 -279.290369 
L 160.924143 -278.184654 
L 157.644804 -278.310659 
L 154.365465 -274.376032 
L 151.086126 -275.162384 
L 147.806787 -276.594831 
L 144.527448 -274.923978 
L 141.24811 -273.718485 
L 137.968771 -267.961352 
L 134.689432 -263.831162 
L 131.410093 -265.482918 
L 128.130754 -264.592558 
L 124.851415 -265.877384 
L 121.572076 -263.079885 
L 118.292738 -264.439461 
L 115.013399 -262.927902 
L 111.73406 -259.860543 
L 108.454721 -259.0795 
L 105.175382 -260.557805 
L 101.896043 -245.272703 
L 98.616705 -241.004591 
L 95.337366 -248.415317 
L 92.058027 -255.476232 
L 88.778688 -237.355524 
L 85.499349 -236.323344 
L 82.22001 -228.655675 
L 78.940671 -219.527734 
L 75.661333 -218.484766 
L 72.381994 -184.025312 
L 69.102655 -181.487835 
L 65.823316 -156.449297 
L 62.543977 -113.16497 
z
" style="stroke: #4c72b0; stroke-opacity: 0.2"/>
    </defs>
    <g clip-path="url(#p3a2eaf2180)">
     <use xlink:href="#m24cfb00712" x="0" y="316.271687" style="fill: #4c72b0; fill-opacity: 0.2; stroke: #4c72b0; stroke-opacity: 0.2"/>
    </g>
   </g>
   <g id="PolyCollection_2">
    <defs>
     <path id="m4fd22f0bce" d="M 62.543977 -103.042433 
L 62.543977 -69.00225 
L 65.823316 -55.055687 
L 69.102655 -85.428388 
L 72.381994 -68.404027 
L 75.661333 -87.845697 
L 78.940671 -81.50263 
L 82.22001 -92.513153 
L 85.499349 -101.6613 
L 88.778688 -101.975231 
L 92.058027 -136.469334 
L 95.337366 -119.978909 
L 98.616705 -95.114805 
L 101.896043 -116.906936 
L 105.175382 -139.9819 
L 108.454721 -136.433345 
L 111.73406 -128.829994 
L 115.013399 -136.212717 
L 118.292738 -141.893145 
L 121.572076 -143.832511 
L 124.851415 -139.048905 
L 128.130754 -126.038648 
L 131.410093 -142.751403 
L 134.689432 -136.124045 
L 137.968771 -140.303073 
L 141.24811 -160.619812 
L 144.527448 -160.51455 
L 147.806787 -140.811395 
L 151.086126 -144.573982 
L 154.365465 -144.880736 
L 157.644804 -124.807745 
L 160.924143 -149.863059 
L 164.203481 -145.890442 
L 167.48282 -160.021779 
L 170.762159 -135.976737 
L 174.041498 -144.198411 
L 177.320837 -149.293758 
L 180.600176 -149.908206 
L 183.879514 -113.238446 
L 187.158853 -154.540794 
L 190.438192 -170.767653 
L 193.717531 -145.774912 
L 196.99687 -175.360703 
L 200.276209 -174.296045 
L 203.555548 -165.244487 
L 206.834886 -156.078105 
L 210.114225 -166.814729 
L 213.393564 -158.637604 
L 216.672903 -193.77816 
L 219.952242 -172.393743 
L 223.231581 -132.106868 
L 226.510919 -159.722563 
L 229.790258 -185.819825 
L 233.069597 -177.289494 
L 236.348936 -192.038741 
L 239.628275 -169.91126 
L 242.907614 -179.815145 
L 246.186952 -192.686005 
L 249.466291 -169.942464 
L 252.74563 -149.276057 
L 256.024969 -183.483991 
L 259.304308 -159.557926 
L 262.583647 -175.003011 
L 265.862986 -196.537526 
L 269.142324 -182.190958 
L 272.421663 -175.996257 
L 275.701002 -181.989639 
L 278.980341 -179.895176 
L 282.25968 -180.79707 
L 285.539019 -179.160343 
L 288.818357 -201.152779 
L 292.097696 -179.654793 
L 295.377035 -173.82617 
L 298.656374 -193.272537 
L 301.935713 -193.974793 
L 305.215052 -214.754359 
L 308.49439 -195.666629 
L 311.773729 -161.575532 
L 315.053068 -199.10784 
L 318.332407 -208.550084 
L 321.611746 -184.127842 
L 324.891085 -184.887713 
L 328.170424 -197.746561 
L 331.449762 -183.249193 
L 334.729101 -190.041601 
L 338.00844 -172.908779 
L 341.287779 -201.586988 
L 344.567118 -178.531824 
L 347.846457 -140.322865 
L 351.125795 -204.009835 
L 354.405134 -200.066467 
L 357.684473 -188.874707 
L 360.963812 -191.938085 
L 364.243151 -190.4672 
L 367.52249 -198.194594 
L 370.801829 -197.475144 
L 374.081167 -191.884214 
L 377.360506 -200.792602 
L 380.639845 -192.579189 
L 383.919184 -195.799103 
L 387.198523 -209.894743 
L 387.198523 -231.255489 
L 387.198523 -231.255489 
L 383.919184 -216.680042 
L 380.639845 -218.500302 
L 377.360506 -221.415012 
L 374.081167 -214.969199 
L 370.801829 -226.911488 
L 367.52249 -221.402321 
L 364.243151 -212.645766 
L 360.963812 -220.20673 
L 357.684473 -216.238692 
L 354.405134 -223.970559 
L 351.125795 -232.140554 
L 347.846457 -173.118306 
L 344.567118 -206.169841 
L 341.287779 -224.44115 
L 338.00844 -201.146076 
L 334.729101 -219.44124 
L 331.449762 -213.570872 
L 328.170424 -222.986783 
L 324.891085 -212.549969 
L 321.611746 -207.715036 
L 318.332407 -228.575361 
L 315.053068 -226.247272 
L 311.773729 -190.387902 
L 308.49439 -218.622564 
L 305.215052 -225.859993 
L 301.935713 -213.895297 
L 298.656374 -223.051298 
L 295.377035 -203.500066 
L 292.097696 -208.520613 
L 288.818357 -222.361888 
L 285.539019 -215.393883 
L 282.25968 -218.640371 
L 278.980341 -223.734959 
L 275.701002 -217.104537 
L 272.421663 -214.553869 
L 269.142324 -217.024939 
L 265.862986 -222.691886 
L 262.583647 -209.939252 
L 259.304308 -203.680294 
L 256.024969 -215.896352 
L 252.74563 -189.847902 
L 249.466291 -203.866296 
L 246.186952 -223.388252 
L 242.907614 -215.082909 
L 239.628275 -209.16975 
L 236.348936 -223.881817 
L 233.069597 -210.949182 
L 229.790258 -216.08211 
L 226.510919 -199.440723 
L 223.231581 -175.876622 
L 219.952242 -204.028988 
L 216.672903 -220.14674 
L 213.393564 -199.502817 
L 210.114225 -201.846293 
L 206.834886 -189.499931 
L 203.555548 -201.846516 
L 200.276209 -203.418847 
L 196.99687 -197.245253 
L 193.717531 -180.679728 
L 190.438192 -201.541655 
L 187.158853 -194.035187 
L 183.879514 -157.42107 
L 180.600176 -183.324192 
L 177.320837 -187.925362 
L 174.041498 -186.416426 
L 170.762159 -171.297765 
L 167.48282 -194.585162 
L 164.203481 -184.453261 
L 160.924143 -180.952917 
L 157.644804 -168.306346 
L 154.365465 -184.330013 
L 151.086126 -176.234639 
L 147.806787 -181.234379 
L 144.527448 -187.494634 
L 141.24811 -188.335698 
L 137.968771 -174.495728 
L 134.689432 -175.123761 
L 131.410093 -174.363271 
L 128.130754 -164.712095 
L 124.851415 -169.493869 
L 121.572076 -177.020418 
L 118.292738 -171.525694 
L 115.013399 -167.666605 
L 111.73406 -167.817978 
L 108.454721 -173.415489 
L 105.175382 -165.140625 
L 101.896043 -155.546599 
L 98.616705 -138.95374 
L 95.337366 -154.694936 
L 92.058027 -169.119408 
L 88.778688 -149.968246 
L 85.499349 -134.539468 
L 82.22001 -133.317608 
L 78.940671 -113.80109 
L 75.661333 -122.705405 
L 72.381994 -113.029516 
L 69.102655 -114.391543 
L 65.823316 -98.147121 
L 62.543977 -103.042433 
z
" style="stroke: #dd8452; stroke-opacity: 0.2"/>
    </defs>
    <g clip-path="url(#p3a2eaf2180)">
     <use xlink:href="#m4fd22f0bce" x="0" y="316.271687" style="fill: #dd8452; fill-opacity: 0.2; stroke: #dd8452; stroke-opacity: 0.2"/>
    </g>
   </g>
   <g id="PolyCollection_3">
    <defs>
     <path id="md66b3938a3" d="M 62.543977 -115.568315 
L 62.543977 -70.821324 
L 65.823316 -100.252784 
L 69.102655 -105.014947 
L 72.381994 -123.001234 
L 75.661333 -139.262519 
L 78.940671 -158.149256 
L 82.22001 -164.676661 
L 85.499349 -169.424674 
L 88.778688 -167.556662 
L 92.058027 -172.483963 
L 95.337366 -173.457012 
L 98.616705 -169.884623 
L 101.896043 -178.235925 
L 105.175382 -179.87751 
L 108.454721 -188.920745 
L 111.73406 -188.096862 
L 115.013399 -184.801527 
L 118.292738 -188.650673 
L 121.572076 -188.597033 
L 124.851415 -194.318166 
L 128.130754 -204.152508 
L 131.410093 -203.935194 
L 134.689432 -206.612717 
L 137.968771 -209.638925 
L 141.24811 -210.822022 
L 144.527448 -210.392788 
L 147.806787 -214.77016 
L 151.086126 -211.628514 
L 154.365465 -213.844097 
L 157.644804 -219.097911 
L 160.924143 -216.145661 
L 164.203481 -218.610886 
L 167.48282 -218.770432 
L 170.762159 -218.496684 
L 174.041498 -222.336568 
L 177.320837 -222.606583 
L 180.600176 -223.411721 
L 183.879514 -226.481148 
L 187.158853 -224.898281 
L 190.438192 -227.745019 
L 193.717531 -224.623261 
L 196.99687 -224.904526 
L 200.276209 -228.872251 
L 203.555548 -231.828119 
L 206.834886 -228.969907 
L 210.114225 -230.348718 
L 213.393564 -230.992778 
L 216.672903 -233.155211 
L 219.952242 -233.283678 
L 223.231581 -235.820726 
L 226.510919 -235.44138 
L 229.790258 -233.256023 
L 233.069597 -230.862826 
L 236.348936 -232.203886 
L 239.628275 -233.139292 
L 242.907614 -233.103704 
L 246.186952 -234.434971 
L 249.466291 -233.902317 
L 252.74563 -242.960458 
L 256.024969 -241.716075 
L 259.304308 -242.238616 
L 262.583647 -243.248426 
L 265.862986 -243.912718 
L 269.142324 -240.711271 
L 272.421663 -241.531079 
L 275.701002 -243.201548 
L 278.980341 -246.925646 
L 282.25968 -244.291803 
L 285.539019 -241.315806 
L 288.818357 -214.950915 
L 292.097696 -215.871948 
L 295.377035 -214.091214 
L 298.656374 -214.934981 
L 301.935713 -215.419241 
L 305.215052 -213.231462 
L 308.49439 -214.924521 
L 311.773729 -215.023159 
L 315.053068 -214.618939 
L 318.332407 -214.722431 
L 321.611746 -213.845935 
L 324.891085 -216.205337 
L 328.170424 -214.91578 
L 331.449762 -213.73785 
L 334.729101 -213.427885 
L 338.00844 -213.331025 
L 341.287779 -212.219327 
L 344.567118 -215.795984 
L 347.846457 -214.646726 
L 351.125795 -217.115478 
L 354.405134 -214.698527 
L 357.684473 -217.37396 
L 360.963812 -215.982821 
L 364.243151 -216.61416 
L 367.52249 -216.350999 
L 370.801829 -219.099349 
L 374.081167 -217.368336 
L 377.360506 -218.649268 
L 380.639845 -215.312341 
L 383.919184 -216.753341 
L 387.198523 -215.73706 
L 387.198523 -254.580047 
L 387.198523 -254.580047 
L 383.919184 -254.887641 
L 380.639845 -254.607419 
L 377.360506 -257.683878 
L 374.081167 -255.652124 
L 370.801829 -257.63074 
L 367.52249 -253.8505 
L 364.243151 -255.170389 
L 360.963812 -256.082741 
L 357.684473 -257.335486 
L 354.405134 -253.417415 
L 351.125795 -254.681102 
L 347.846457 -251.573367 
L 344.567118 -255.893682 
L 341.287779 -252.406912 
L 338.00844 -251.317037 
L 334.729101 -252.833957 
L 331.449762 -253.620751 
L 328.170424 -254.020688 
L 324.891085 -254.566329 
L 321.611746 -251.778022 
L 318.332407 -253.683369 
L 315.053068 -251.623215 
L 311.773729 -253.731304 
L 308.49439 -252.463196 
L 305.215052 -251.497945 
L 301.935713 -254.610373 
L 298.656374 -255.812005 
L 295.377035 -255.85417 
L 292.097696 -254.675261 
L 288.818357 -254.828616 
L 285.539019 -272.317477 
L 282.25968 -273.315983 
L 278.980341 -275.603559 
L 275.701002 -273.436108 
L 272.421663 -269.649355 
L 269.142324 -270.317551 
L 265.862986 -271.360111 
L 262.583647 -271.967831 
L 259.304308 -270.440103 
L 256.024969 -270.642145 
L 252.74563 -271.018559 
L 249.466291 -267.904444 
L 246.186952 -266.891868 
L 242.907614 -264.519234 
L 239.628275 -264.841977 
L 236.348936 -265.434309 
L 233.069597 -262.183464 
L 229.790258 -263.891406 
L 226.510919 -267.249201 
L 223.231581 -267.931837 
L 219.952242 -266.454462 
L 216.672903 -265.976152 
L 213.393564 -265.19434 
L 210.114225 -265.736686 
L 206.834886 -261.770776 
L 203.555548 -262.740158 
L 200.276209 -259.643694 
L 196.99687 -258.385507 
L 193.717531 -258.137616 
L 190.438192 -263.165603 
L 187.158853 -262.637251 
L 183.879514 -260.443899 
L 180.600176 -261.449818 
L 177.320837 -258.884686 
L 174.041498 -258.151679 
L 170.762159 -257.361684 
L 167.48282 -258.380089 
L 164.203481 -255.955829 
L 160.924143 -252.981486 
L 157.644804 -254.637468 
L 154.365465 -251.73634 
L 151.086126 -248.866348 
L 147.806787 -249.065908 
L 144.527448 -247.379383 
L 141.24811 -249.106181 
L 137.968771 -245.7723 
L 134.689432 -244.947128 
L 131.410093 -242.72314 
L 128.130754 -245.298656 
L 124.851415 -234.47856 
L 121.572076 -231.190808 
L 118.292738 -227.905241 
L 115.013399 -222.706032 
L 111.73406 -225.293659 
L 108.454721 -226.557035 
L 105.175382 -218.357592 
L 101.896043 -214.953768 
L 98.616705 -210.448355 
L 95.337366 -213.040889 
L 92.058027 -215.183123 
L 88.778688 -213.527401 
L 85.499349 -213.243968 
L 82.22001 -208.214618 
L 78.940671 -207.996573 
L 75.661333 -188.869966 
L 72.381994 -179.739447 
L 69.102655 -154.718104 
L 65.823316 -150.221712 
L 62.543977 -115.568315 
z
" style="stroke: #55a868; stroke-opacity: 0.2"/>
    </defs>
    <g clip-path="url(#p3a2eaf2180)">
     <use xlink:href="#md66b3938a3" x="0" y="316.271687" style="fill: #55a868; fill-opacity: 0.2; stroke: #55a868; stroke-opacity: 0.2"/>
    </g>
   </g>
   <g id="PolyCollection_4">
    <defs>
     <path id="m06a0ec1107" d="M 62.543977 -114.350788 
L 62.543977 -67.717244 
L 65.823316 -98.50377 
L 69.102655 -81.078799 
L 72.381994 -108.512341 
L 75.661333 -113.965874 
L 78.940671 -117.33833 
L 82.22001 -149.060824 
L 85.499349 -148.723579 
L 88.778688 -153.116686 
L 92.058027 -146.815078 
L 95.337366 -148.11395 
L 98.616705 -160.203512 
L 101.896043 -165.381679 
L 105.175382 -169.770552 
L 108.454721 -172.215445 
L 111.73406 -171.437609 
L 115.013399 -178.878097 
L 118.292738 -186.03033 
L 121.572076 -190.236424 
L 124.851415 -192.716314 
L 128.130754 -196.25499 
L 131.410093 -199.051928 
L 134.689432 -198.95082 
L 137.968771 -204.230561 
L 141.24811 -207.17526 
L 144.527448 -209.446654 
L 147.806787 -212.596978 
L 151.086126 -220.259859 
L 154.365465 -220.984824 
L 157.644804 -224.303925 
L 160.924143 -222.648762 
L 164.203481 -225.584639 
L 167.48282 -228.815447 
L 170.762159 -230.28965 
L 174.041498 -231.810989 
L 177.320837 -231.600657 
L 180.600176 -235.397075 
L 183.879514 -236.065675 
L 187.158853 -238.593847 
L 190.438192 -240.975438 
L 193.717531 -241.638995 
L 196.99687 -242.975572 
L 200.276209 -243.267736 
L 203.555548 -244.719991 
L 206.834886 -244.887319 
L 210.114225 -243.406008 
L 213.393564 -245.27069 
L 216.672903 -243.543376 
L 219.952242 -244.464041 
L 223.231581 -247.142207 
L 226.510919 -246.629549 
L 229.790258 -248.628562 
L 233.069597 -249.098278 
L 236.348936 -249.112818 
L 239.628275 -251.450392 
L 242.907614 -251.71006 
L 246.186952 -250.176072 
L 249.466291 -252.817685 
L 252.74563 -252.362697 
L 256.024969 -252.913167 
L 259.304308 -253.224075 
L 262.583647 -252.744226 
L 265.862986 -254.029706 
L 269.142324 -256.51716 
L 272.421663 -255.056877 
L 275.701002 -257.229354 
L 278.980341 -257.5148 
L 282.25968 -259.201379 
L 285.539019 -257.387331 
L 288.818357 -232.594145 
L 292.097696 -231.496916 
L 295.377035 -231.423751 
L 298.656374 -231.834721 
L 301.935713 -234.265364 
L 305.215052 -232.602587 
L 308.49439 -234.360792 
L 311.773729 -233.993924 
L 315.053068 -235.234968 
L 318.332407 -234.98177 
L 321.611746 -233.868916 
L 324.891085 -237.169911 
L 328.170424 -235.981706 
L 331.449762 -236.200825 
L 334.729101 -236.859553 
L 338.00844 -236.643456 
L 341.287779 -236.903963 
L 344.567118 -236.263723 
L 347.846457 -237.411646 
L 351.125795 -237.914721 
L 354.405134 -238.052019 
L 357.684473 -239.441895 
L 360.963812 -236.677925 
L 364.243151 -236.055536 
L 367.52249 -238.290577 
L 370.801829 -238.417507 
L 374.081167 -238.202227 
L 377.360506 -236.691501 
L 380.639845 -237.695312 
L 383.919184 -237.590364 
L 387.198523 -239.209495 
L 387.198523 -271.009357 
L 387.198523 -271.009357 
L 383.919184 -270.391186 
L 380.639845 -271.351812 
L 377.360506 -270.646831 
L 374.081167 -270.988776 
L 370.801829 -270.371814 
L 367.52249 -270.113465 
L 364.243151 -270.994636 
L 360.963812 -269.382949 
L 357.684473 -271.821169 
L 354.405134 -271.003077 
L 351.125795 -270.960649 
L 347.846457 -269.402936 
L 344.567118 -269.890405 
L 341.287779 -269.037003 
L 338.00844 -269.639093 
L 334.729101 -269.028459 
L 331.449762 -267.65695 
L 328.170424 -268.010999 
L 324.891085 -268.178034 
L 321.611746 -269.31075 
L 318.332407 -269.305239 
L 315.053068 -267.620103 
L 311.773729 -265.365863 
L 308.49439 -266.674742 
L 305.215052 -264.895096 
L 301.935713 -266.292715 
L 298.656374 -264.783809 
L 295.377035 -265.272497 
L 292.097696 -264.536181 
L 288.818357 -264.642862 
L 285.539019 -281.760719 
L 282.25968 -282.492452 
L 278.980341 -283.238061 
L 275.701002 -280.358427 
L 272.421663 -279.448255 
L 269.142324 -281.02973 
L 265.862986 -279.79985 
L 262.583647 -280.329123 
L 259.304308 -278.877029 
L 256.024969 -279.588861 
L 252.74563 -279.638857 
L 249.466291 -279.969838 
L 246.186952 -278.723139 
L 242.907614 -277.705678 
L 239.628275 -278.611339 
L 236.348936 -276.879544 
L 233.069597 -276.239465 
L 229.790258 -275.026915 
L 226.510919 -274.781234 
L 223.231581 -274.057643 
L 219.952242 -272.518682 
L 216.672903 -271.999172 
L 213.393564 -273.641798 
L 210.114225 -272.681813 
L 206.834886 -273.891414 
L 203.555548 -272.332262 
L 200.276209 -271.131277 
L 196.99687 -272.193313 
L 193.717531 -269.956319 
L 190.438192 -269.476712 
L 187.158853 -268.475438 
L 183.879514 -265.735651 
L 180.600176 -264.481126 
L 177.320837 -263.779394 
L 174.041498 -260.989415 
L 170.762159 -261.376617 
L 167.48282 -261.085037 
L 164.203481 -258.486959 
L 160.924143 -255.019053 
L 157.644804 -256.609929 
L 154.365465 -253.651775 
L 151.086126 -250.770126 
L 147.806787 -247.548498 
L 144.527448 -244.959306 
L 141.24811 -242.60463 
L 137.968771 -239.870995 
L 134.689432 -240.550937 
L 131.410093 -236.775861 
L 128.130754 -234.432752 
L 124.851415 -229.786142 
L 121.572076 -226.526527 
L 118.292738 -225.148225 
L 115.013399 -221.564141 
L 111.73406 -214.807587 
L 108.454721 -217.971793 
L 105.175382 -211.598008 
L 101.896043 -207.903444 
L 98.616705 -205.209256 
L 95.337366 -192.730067 
L 92.058027 -189.737203 
L 88.778688 -197.296153 
L 85.499349 -196.71508 
L 82.22001 -193.630557 
L 78.940671 -163.687948 
L 75.661333 -165.124363 
L 72.381994 -165.795915 
L 69.102655 -129.292184 
L 65.823316 -152.52448 
L 62.543977 -114.350788 
z
" style="stroke: #c44e52; stroke-opacity: 0.2"/>
    </defs>
    <g clip-path="url(#p3a2eaf2180)">
     <use xlink:href="#m06a0ec1107" x="0" y="316.271687" style="fill: #c44e52; fill-opacity: 0.2; stroke: #c44e52; stroke-opacity: 0.2"/>
    </g>
   </g>
   <g id="PolyCollection_5">
    <defs>
     <path id="mcc2946feee" d="M 62.543977 -104.280992 
L 62.543977 -57.886626 
L 65.823316 -82.949097 
L 69.102655 -101.067281 
L 72.381994 -97.875425 
L 75.661333 -130.9337 
L 78.940671 -137.501235 
L 82.22001 -143.367964 
L 85.499349 -145.240293 
L 88.778688 -149.379698 
L 92.058027 -146.963986 
L 95.337366 -146.236246 
L 98.616705 -147.876409 
L 101.896043 -152.386359 
L 105.175382 -159.288174 
L 108.454721 -160.918165 
L 111.73406 -162.779591 
L 115.013399 -163.170378 
L 118.292738 -165.454992 
L 121.572076 -164.298324 
L 124.851415 -170.147534 
L 128.130754 -172.213276 
L 131.410093 -173.61256 
L 134.689432 -172.380405 
L 137.968771 -177.100256 
L 141.24811 -176.715609 
L 144.527448 -179.41395 
L 147.806787 -179.624922 
L 151.086126 -179.367609 
L 154.365465 -182.146532 
L 157.644804 -184.23215 
L 160.924143 -186.700361 
L 164.203481 -189.436272 
L 167.48282 -187.519925 
L 170.762159 -187.870349 
L 174.041498 -189.672241 
L 177.320837 -190.898194 
L 180.600176 -182.253702 
L 183.879514 -184.201187 
L 187.158853 -180.542032 
L 190.438192 -183.176152 
L 193.717531 -185.887046 
L 196.99687 -186.952456 
L 200.276209 -196.005927 
L 203.555548 -195.888842 
L 206.834886 -195.286711 
L 210.114225 -197.050236 
L 213.393564 -197.399136 
L 216.672903 -196.329913 
L 219.952242 -194.434961 
L 223.231581 -195.402583 
L 226.510919 -199.708214 
L 229.790258 -200.516003 
L 233.069597 -199.247547 
L 236.348936 -201.709129 
L 239.628275 -202.212028 
L 242.907614 -201.903777 
L 246.186952 -205.464215 
L 249.466291 -207.391132 
L 252.74563 -207.819003 
L 256.024969 -208.888969 
L 259.304308 -205.376016 
L 262.583647 -206.113153 
L 265.862986 -205.768459 
L 269.142324 -205.032033 
L 272.421663 -208.249389 
L 275.701002 -211.433411 
L 278.980341 -210.760701 
L 282.25968 -211.777797 
L 285.539019 -212.877483 
L 288.818357 -182.49581 
L 292.097696 -183.71331 
L 295.377035 -183.041621 
L 298.656374 -186.269246 
L 301.935713 -186.96996 
L 305.215052 -186.508537 
L 308.49439 -185.862865 
L 311.773729 -189.028706 
L 315.053068 -186.927526 
L 318.332407 -187.435396 
L 321.611746 -190.403806 
L 324.891085 -191.344417 
L 328.170424 -187.836889 
L 331.449762 -192.228434 
L 334.729101 -190.081606 
L 338.00844 -194.066726 
L 341.287779 -188.334108 
L 344.567118 -191.180487 
L 347.846457 -191.664793 
L 351.125795 -188.812503 
L 354.405134 -189.474322 
L 357.684473 -191.400236 
L 360.963812 -192.215665 
L 364.243151 -191.775788 
L 367.52249 -194.807633 
L 370.801829 -193.237252 
L 374.081167 -189.923049 
L 377.360506 -192.918524 
L 380.639845 -194.276436 
L 383.919184 -194.977035 
L 387.198523 -194.546696 
L 387.198523 -240.513101 
L 387.198523 -240.513101 
L 383.919184 -237.830558 
L 380.639845 -236.551309 
L 377.360506 -235.828747 
L 374.081167 -234.313456 
L 370.801829 -238.723583 
L 367.52249 -238.881566 
L 364.243151 -236.976252 
L 360.963812 -236.058849 
L 357.684473 -234.03547 
L 354.405134 -233.470752 
L 351.125795 -232.707758 
L 347.846457 -234.386592 
L 344.567118 -236.459581 
L 341.287779 -236.830076 
L 338.00844 -237.042074 
L 334.729101 -236.447143 
L 331.449762 -237.995729 
L 328.170424 -235.80454 
L 324.891085 -235.124617 
L 321.611746 -235.787843 
L 318.332407 -233.099831 
L 315.053068 -232.204794 
L 311.773729 -231.25544 
L 308.49439 -228.694385 
L 305.215052 -228.808443 
L 301.935713 -229.162937 
L 298.656374 -228.490269 
L 295.377035 -226.536282 
L 292.097696 -229.126197 
L 288.818357 -229.209501 
L 285.539019 -250.7118 
L 282.25968 -250.135514 
L 278.980341 -249.325979 
L 275.701002 -252.502219 
L 272.421663 -247.996004 
L 269.142324 -244.489452 
L 265.862986 -245.195721 
L 262.583647 -245.568113 
L 259.304308 -245.416601 
L 256.024969 -246.854152 
L 252.74563 -246.608798 
L 249.466291 -246.756832 
L 246.186952 -246.993633 
L 242.907614 -243.89205 
L 239.628275 -240.709881 
L 236.348936 -240.703515 
L 233.069597 -238.866153 
L 229.790258 -242.423244 
L 226.510919 -241.373447 
L 223.231581 -237.675447 
L 219.952242 -238.30049 
L 216.672903 -240.328288 
L 213.393564 -240.924539 
L 210.114225 -241.547476 
L 206.834886 -237.976063 
L 203.555548 -239.616983 
L 200.276209 -240.391821 
L 196.99687 -232.378995 
L 193.717531 -229.754118 
L 190.438192 -227.813181 
L 187.158853 -229.295646 
L 183.879514 -228.06797 
L 180.600176 -227.091928 
L 177.320837 -235.383943 
L 174.041498 -235.702873 
L 170.762159 -234.230218 
L 167.48282 -233.186462 
L 164.203481 -233.846832 
L 160.924143 -232.722976 
L 157.644804 -230.747343 
L 154.365465 -227.88633 
L 151.086126 -225.012116 
L 147.806787 -224.127085 
L 144.527448 -221.579973 
L 141.24811 -219.371677 
L 137.968771 -222.02391 
L 134.689432 -220.367789 
L 131.410093 -219.723034 
L 128.130754 -222.696394 
L 124.851415 -218.726158 
L 121.572076 -215.458606 
L 118.292738 -215.016626 
L 115.013399 -214.609062 
L 111.73406 -210.925955 
L 108.454721 -214.02036 
L 105.175382 -211.176123 
L 101.896043 -204.280886 
L 98.616705 -198.049188 
L 95.337366 -196.026634 
L 92.058027 -198.011729 
L 88.778688 -202.207373 
L 85.499349 -196.410085 
L 82.22001 -196.732644 
L 78.940671 -187.913889 
L 75.661333 -186.361222 
L 72.381994 -155.105281 
L 69.102655 -158.175145 
L 65.823316 -140.06408 
L 62.543977 -104.280992 
z
" style="stroke: #8172b3; stroke-opacity: 0.2"/>
    </defs>
    <g clip-path="url(#p3a2eaf2180)">
     <use xlink:href="#mcc2946feee" x="0" y="316.271687" style="fill: #8172b3; fill-opacity: 0.2; stroke: #8172b3; stroke-opacity: 0.2"/>
    </g>
   </g>
   <g id="line2d_15">
    <path d="M 62.543977 221.899515 
L 65.823316 187.297363 
L 69.102655 159.446447 
L 72.381994 160.172393 
L 75.661333 118.014945 
L 78.940671 117.450286 
L 82.22001 109.612824 
L 85.499349 99.230698 
L 88.778688 103.46007 
L 92.058027 77.050667 
L 95.337366 84.533496 
L 98.616705 95.301653 
L 101.896043 90.276402 
L 105.175382 72.361844 
L 108.454721 72.090156 
L 111.73406 73.802022 
L 115.013399 69.286779 
L 118.292738 66.205558 
L 121.572076 68.858354 
L 124.851415 66.98532 
L 128.130754 64.995301 
L 131.410093 65.021714 
L 134.689432 68.269143 
L 137.968771 64.193902 
L 141.24811 54.993659 
L 144.527448 55.619326 
L 147.806787 53.355694 
L 151.086126 55.305634 
L 154.365465 57.991209 
L 157.644804 51.039852 
L 160.924143 52.894863 
L 164.203481 53.673689 
L 167.48282 47.163161 
L 170.762159 50.112824 
L 174.041498 51.056441 
L 177.320837 49.975409 
L 180.600176 46.189063 
L 183.879514 47.542146 
L 187.158853 41.499005 
L 190.438192 41.525191 
L 193.717531 41.241935 
L 196.99687 39.891594 
L 200.276209 42.881053 
L 203.555548 41.340761 
L 206.834886 43.1117 
L 210.114225 41.259986 
L 213.393564 38.923115 
L 216.672903 35.94526 
L 219.952242 37.376703 
L 223.231581 40.961403 
L 226.510919 38.690879 
L 229.790258 36.929138 
L 233.069597 36.423842 
L 236.348936 37.716063 
L 239.628275 36.897866 
L 242.907614 35.648911 
L 246.186952 32.083532 
L 249.466291 34.168482 
L 252.74563 34.708735 
L 256.024969 35.969993 
L 259.304308 33.838809 
L 262.583647 34.339728 
L 265.862986 29.251182 
L 269.142324 32.312155 
L 272.421663 32.257321 
L 275.701002 30.763699 
L 278.980341 32.108983 
L 282.25968 31.080623 
L 285.539019 31.174182 
L 288.818357 42.423201 
L 292.097696 41.494545 
L 295.377035 48.011583 
L 298.656374 44.669287 
L 301.935713 44.417853 
L 305.215052 42.947749 
L 308.49439 44.378116 
L 311.773729 47.432261 
L 315.053068 45.309906 
L 318.332407 42.43885 
L 321.611746 43.796016 
L 324.891085 43.817257 
L 328.170424 41.733864 
L 331.449762 42.692152 
L 334.729101 44.086004 
L 338.00844 43.733206 
L 341.287779 43.304061 
L 344.567118 46.318939 
L 347.846457 46.514746 
L 351.125795 45.087481 
L 354.405134 44.506741 
L 357.684473 45.881188 
L 360.963812 44.199775 
L 364.243151 44.553673 
L 367.52249 43.753196 
L 370.801829 46.17944 
L 374.081167 47.232551 
L 377.360506 45.651352 
L 380.639845 47.098334 
L 383.919184 43.812846 
L 387.198523 44.171072 
" clip-path="url(#p3a2eaf2180)" style="fill: none; stroke: #4c72b0; stroke-width: 1.5; stroke-linecap: round"/>
   </g>
   <g id="line2d_16">
    <path d="M 62.543977 231.065345 
L 65.823316 241.10475 
L 69.102655 216.524335 
L 72.381994 227.759724 
L 75.661333 211.343682 
L 78.940671 219.37548 
L 82.22001 203.794025 
L 85.499349 198.667434 
L 88.778688 192.811383 
L 92.058027 163.290115 
L 95.337366 178.760723 
L 98.616705 200.036743 
L 101.896043 181.202657 
L 105.175382 164.458577 
L 108.454721 160.888986 
L 111.73406 167.772016 
L 115.013399 164.652923 
L 118.292738 159.233133 
L 121.572076 155.48445 
L 124.851415 161.119406 
L 128.130754 170.774297 
L 131.410093 157.937262 
L 134.689432 159.516244 
L 137.968771 158.748749 
L 141.24811 141.381254 
L 144.527448 142.735128 
L 147.806787 155.24762 
L 151.086126 155.584511 
L 154.365465 151.787659 
L 157.644804 170.171629 
L 160.924143 151.377049 
L 164.203481 151.888137 
L 167.48282 137.783279 
L 170.762159 162.528313 
L 174.041498 151.82564 
L 177.320837 149.44712 
L 180.600176 149.633013 
L 183.879514 182.850183 
L 187.158853 141.431965 
L 190.438192 129.668871 
L 193.717531 152.683979 
L 196.99687 129.637046 
L 200.276209 128.011966 
L 203.555548 131.670903 
L 206.834886 143.576496 
L 210.114225 131.687674 
L 213.393564 136.499756 
L 216.672903 108.897629 
L 219.952242 127.804881 
L 223.231581 162.802607 
L 226.510919 136.211506 
L 229.790258 115.739146 
L 233.069597 120.585214 
L 236.348936 107.73101 
L 239.628275 125.482021 
L 242.907614 119.062945 
L 246.186952 108.407769 
L 249.466291 129.509583 
L 252.74563 146.709473 
L 256.024969 115.987581 
L 259.304308 135.812146 
L 262.583647 124.444808 
L 265.862986 106.826644 
L 269.142324 116.709631 
L 272.421663 120.445956 
L 275.701002 117.684492 
L 278.980341 113.92386 
L 282.25968 116.653944 
L 285.539019 119.083139 
L 288.818357 104.280565 
L 292.097696 121.496377 
L 295.377035 127.987547 
L 298.656374 107.841493 
L 301.935713 112.676571 
L 305.215052 96.013101 
L 308.49439 109.080286 
L 311.773729 140.945601 
L 315.053068 103.475925 
L 318.332407 97.919781 
L 321.611746 120.275463 
L 324.891085 116.922381 
L 328.170424 105.731417 
L 331.449762 117.205371 
L 334.729101 111.222904 
L 338.00844 129.410542 
L 341.287779 103.126286 
L 344.567118 123.614385 
L 347.846457 159.22969 
L 351.125795 97.032285 
L 354.405134 104.220108 
L 357.684473 113.492569 
L 360.963812 109.987619 
L 364.243151 114.87547 
L 367.52249 106.479725 
L 370.801829 104.251017 
L 374.081167 112.564981 
L 377.360506 105.527653 
L 380.639845 110.477132 
L 383.919184 110.400124 
L 387.198523 95.226525 
" clip-path="url(#p3a2eaf2180)" style="fill: none; stroke: #dd8452; stroke-width: 1.5; stroke-linecap: round"/>
   </g>
   <g id="line2d_17">
    <path d="M 62.543977 223.807933 
L 65.823316 192.303646 
L 69.102655 187.799962 
L 72.381994 163.633561 
L 75.661333 151.799654 
L 78.940671 132.750719 
L 82.22001 130.381905 
L 85.499349 125.708881 
L 88.778688 126.669342 
L 92.058027 122.660548 
L 95.337366 122.903707 
L 98.616705 126.429524 
L 101.896043 120.46684 
L 105.175382 119.465774 
L 108.454721 109.87091 
L 111.73406 109.413756 
L 115.013399 112.22792 
L 118.292738 108.637754 
L 121.572076 106.479675 
L 124.851415 102.856903 
L 128.130754 92.801943 
L 131.410093 92.963801 
L 134.689432 90.903331 
L 137.968771 89.181232 
L 141.24811 86.533503 
L 144.527448 86.793832 
L 147.806787 84.61191 
L 151.086126 84.423575 
L 154.365465 83.247367 
L 157.644804 80.021658 
L 160.924143 81.273065 
L 164.203481 78.606595 
L 167.48282 77.661325 
L 170.762159 78.705675 
L 174.041498 76.215036 
L 177.320837 75.788064 
L 180.600176 74.559266 
L 183.879514 73.096642 
L 187.158853 71.666579 
L 190.438192 69.91517 
L 193.717531 74.287378 
L 196.99687 74.389327 
L 200.276209 71.073 
L 203.555548 69.135508 
L 206.834886 70.200324 
L 210.114225 67.911186 
L 213.393564 67.457174 
L 216.672903 66.083888 
L 219.952242 66.41376 
L 223.231581 64.202637 
L 226.510919 64.946161 
L 229.790258 67.769831 
L 233.069597 69.168087 
L 236.348936 67.514486 
L 239.628275 66.906434 
L 242.907614 66.776165 
L 246.186952 65.331647 
L 249.466291 64.696936 
L 252.74563 59.454386 
L 256.024969 60.085229 
L 259.304308 59.408805 
L 262.583647 58.216889 
L 265.862986 59.02656 
L 269.142324 60.591723 
L 272.421663 60.594755 
L 275.701002 58.141726 
L 278.980341 55.248204 
L 282.25968 57.368402 
L 285.539019 59.842959 
L 288.818357 82.014355 
L 292.097696 80.17379 
L 295.377035 81.124527 
L 298.656374 80.502225 
L 301.935713 81.115921 
L 305.215052 83.35694 
L 308.49439 82.085586 
L 311.773729 81.095397 
L 315.053068 81.392276 
L 318.332407 81.335505 
L 321.611746 83.367676 
L 324.891085 80.465494 
L 328.170424 80.376588 
L 331.449762 82.343757 
L 334.729101 82.833531 
L 338.00844 83.204996 
L 341.287779 83.882943 
L 344.567118 80.688574 
L 347.846457 81.755695 
L 351.125795 80.294565 
L 354.405134 81.643449 
L 357.684473 77.578002 
L 360.963812 78.390599 
L 364.243151 79.965277 
L 367.52249 80.539064 
L 370.801829 78.305716 
L 374.081167 78.792706 
L 377.360506 77.847779 
L 380.639845 79.346936 
L 383.919184 80.870678 
L 387.198523 80.230065 
" clip-path="url(#p3a2eaf2180)" style="fill: none; stroke: #55a868; stroke-width: 1.5; stroke-linecap: round"/>
   </g>
   <g id="line2d_18">
    <path d="M 62.543977 226.499627 
L 65.823316 190.196251 
L 69.102655 212.135338 
L 72.381994 177.471988 
L 75.661333 177.301377 
L 78.940671 176.504436 
L 82.22001 144.51048 
L 85.499349 144.33897 
L 88.778688 141.152332 
L 92.058027 147.664676 
L 95.337366 146.287168 
L 98.616705 133.757196 
L 101.896043 130.11374 
L 105.175382 126.887731 
L 108.454721 122.797255 
L 111.73406 122.415173 
L 115.013399 116.510881 
L 118.292738 111.26854 
L 121.572076 108.510127 
L 124.851415 104.91039 
L 128.130754 100.245693 
L 131.410093 98.75385 
L 134.689432 97.264532 
L 137.968771 93.890666 
L 141.24811 90.695438 
L 144.527448 89.231816 
L 147.806787 85.515912 
L 151.086126 81.316113 
L 154.365465 78.604225 
L 157.644804 75.520861 
L 160.924143 77.561029 
L 164.203481 74.880358 
L 167.48282 71.89157 
L 170.762159 70.280627 
L 174.041498 69.681963 
L 177.320837 69.26447 
L 180.600176 66.585651 
L 183.879514 64.356323 
L 187.158853 62.373286 
L 190.438192 61.07124 
L 193.717531 60.230216 
L 196.99687 58.979926 
L 200.276209 59.155086 
L 203.555548 57.580262 
L 206.834886 57.011054 
L 210.114225 57.90998 
L 213.393564 57.48141 
L 216.672903 58.040521 
L 219.952242 57.097413 
L 223.231581 55.730682 
L 226.510919 55.437492 
L 229.790258 54.810409 
L 233.069597 53.423212 
L 236.348936 53.528275 
L 239.628275 51.814066 
L 242.907614 52.09596 
L 246.186952 51.573023 
L 249.466291 50.03589 
L 252.74563 49.840845 
L 256.024969 49.821242 
L 259.304308 50.045242 
L 262.583647 49.794601 
L 265.862986 49.361337 
L 269.142324 47.804101 
L 272.421663 48.486063 
L 275.701002 47.393336 
L 278.980341 46.730414 
L 282.25968 45.702481 
L 285.539019 47.092865 
L 288.818357 67.691158 
L 292.097696 67.14746 
L 295.377035 67.235979 
L 298.656374 66.96912 
L 301.935713 66.219173 
L 305.215052 66.87155 
L 308.49439 65.378615 
L 311.773729 66.154825 
L 315.053068 64.20157 
L 318.332407 63.906223 
L 321.611746 64.40304 
L 324.891085 63.833028 
L 328.170424 64.350133 
L 331.449762 64.7082 
L 334.729101 63.875359 
L 338.00844 63.529985 
L 341.287779 62.857573 
L 344.567118 62.3105 
L 347.846457 61.96015 
L 351.125795 61.759284 
L 354.405134 61.588087 
L 357.684473 60.341679 
L 360.963812 62.29857 
L 364.243151 62.021497 
L 367.52249 61.073042 
L 370.801829 61.104808 
L 374.081167 61.164491 
L 377.360506 61.352104 
L 380.639845 61.002338 
L 383.919184 61.540195 
L 387.198523 60.998449 
" clip-path="url(#p3a2eaf2180)" style="fill: none; stroke: #c44e52; stroke-width: 1.5; stroke-linecap: round"/>
   </g>
   <g id="line2d_19">
    <path d="M 62.543977 235.65803 
L 65.823316 205.056501 
L 69.102655 188.085832 
L 72.381994 189.019925 
L 75.661333 158.824348 
L 78.940671 154.332677 
L 82.22001 147.608998 
L 85.499349 143.744819 
L 88.778688 142.158601 
L 92.058027 144.979683 
L 95.337366 145.497064 
L 98.616705 144.386068 
L 101.896043 137.169951 
L 105.175382 132.449303 
L 108.454721 131.551821 
L 111.73406 129.884591 
L 115.013399 127.199589 
L 118.292738 127.389549 
L 121.572076 125.993318 
L 124.851415 122.253125 
L 128.130754 120.3796 
L 131.410093 119.859623 
L 134.689432 120.06728 
L 137.968771 116.51701 
L 141.24811 118.348667 
L 144.527448 115.968812 
L 147.806787 114.137283 
L 151.086126 114.269794 
L 154.365465 112.184246 
L 157.644804 109.92055 
L 160.924143 106.88017 
L 164.203481 104.898895 
L 167.48282 104.984128 
L 170.762159 105.131612 
L 174.041498 103.823429 
L 177.320837 103.228497 
L 180.600176 110.532116 
L 183.879514 109.417933 
L 187.158853 109.959639 
L 190.438192 110.042856 
L 193.717531 108.294416 
L 196.99687 107.435269 
L 200.276209 98.957585 
L 203.555548 97.673935 
L 206.834886 98.285574 
L 210.114225 97.388009 
L 213.393564 97.863977 
L 216.672903 98.091882 
L 219.952242 101.323538 
L 223.231581 99.417453 
L 226.510919 96.642923 
L 229.790258 95.790913 
L 233.069597 97.065664 
L 236.348936 94.67416 
L 239.628275 93.866105 
L 242.907614 92.453766 
L 246.186952 89.643434 
L 249.466291 89.534213 
L 252.74563 88.715925 
L 256.024969 88.558716 
L 259.304308 91.343115 
L 262.583647 90.796779 
L 265.862986 90.36741 
L 269.142324 91.344977 
L 272.421663 87.673772 
L 275.701002 84.988098 
L 278.980341 85.052602 
L 282.25968 84.33737 
L 285.539019 83.754297 
L 288.818357 110.320891 
L 292.097696 110.223931 
L 295.377035 111.123383 
L 298.656374 110.778828 
L 301.935713 108.009378 
L 305.215052 107.917961 
L 308.49439 107.886308 
L 311.773729 106.766313 
L 315.053068 105.965608 
L 318.332407 105.492397 
L 321.611746 103.920255 
L 324.891085 103.033395 
L 328.170424 102.697434 
L 331.449762 101.244484 
L 334.729101 101.889368 
L 338.00844 101.051201 
L 341.287779 102.473133 
L 344.567118 101.406719 
L 347.846457 103.107206 
L 351.125795 104.389525 
L 354.405134 103.90214 
L 357.684473 103.360368 
L 360.963812 102.338744 
L 364.243151 101.994577 
L 367.52249 100.595246 
L 370.801829 100.031883 
L 374.081167 103.372521 
L 377.360506 101.057181 
L 380.639845 100.125506 
L 383.919184 98.790153 
L 387.198523 97.871291 
" clip-path="url(#p3a2eaf2180)" style="fill: none; stroke: #8172b3; stroke-width: 1.5; stroke-linecap: round"/>
   </g>
   <g id="line2d_20"/>
   <g id="line2d_21"/>
   <g id="line2d_22"/>
   <g id="line2d_23"/>
   <g id="line2d_24"/>
   <g id="patch_3">
    <path d="M 46.31125 273.312 
L 46.31125 7.2 
" style="fill: none; stroke: #cccccc; stroke-width: 1.25; stroke-linejoin: miter; stroke-linecap: square"/>
   </g>
   <g id="patch_4">
    <path d="M 403.43125 273.312 
L 403.43125 7.2 
" style="fill: none; stroke: #cccccc; stroke-width: 1.25; stroke-linejoin: miter; stroke-linecap: square"/>
   </g>
   <g id="patch_5">
    <path d="M 46.31125 273.312 
L 403.43125 273.312 
" style="fill: none; stroke: #cccccc; stroke-width: 1.25; stroke-linejoin: miter; stroke-linecap: square"/>
   </g>
   <g id="patch_6">
    <path d="M 46.31125 7.2 
L 403.43125 7.2 
" style="fill: none; stroke: #cccccc; stroke-width: 1.25; stroke-linejoin: miter; stroke-linecap: square"/>
   </g>
   <g id="legend_1">
    <g id="patch_7">
     <path d="M 291.746875 267.812 
L 395.73125 267.812 
Q 397.93125 267.812 397.93125 265.612 
L 397.93125 168.868562 
Q 397.93125 166.668562 395.73125 166.668562 
L 291.746875 166.668562 
Q 289.546875 166.668562 289.546875 168.868562 
L 289.546875 265.612 
Q 289.546875 267.812 291.746875 267.812 
z
" style="fill: #ffffff; opacity: 0.8; stroke: #cccccc; stroke-linejoin: miter"/>
    </g>
    <g id="text_17">
     <!-- Strategy -->
     <g style="fill: #262626" transform="translate(318.03 180.186687) scale(0.12 -0.12)">
      <defs>
       <path id="DejaVuSans-53" d="M 3425 4513 
L 3425 3897 
Q 3066 4069 2747 4153 
Q 2428 4238 2131 4238 
Q 1616 4238 1336 4038 
Q 1056 3838 1056 3469 
Q 1056 3159 1242 3001 
Q 1428 2844 1947 2747 
L 2328 2669 
Q 3034 2534 3370 2195 
Q 3706 1856 3706 1288 
Q 3706 609 3251 259 
Q 2797 -91 1919 -91 
Q 1588 -91 1214 -16 
Q 841 59 441 206 
L 441 856 
Q 825 641 1194 531 
Q 1563 422 1919 422 
Q 2459 422 2753 634 
Q 3047 847 3047 1241 
Q 3047 1584 2836 1778 
Q 2625 1972 2144 2069 
L 1759 2144 
Q 1053 2284 737 2584 
Q 422 2884 422 3419 
Q 422 4038 858 4394 
Q 1294 4750 2059 4750 
Q 2388 4750 2728 4690 
Q 3069 4631 3425 4513 
z
" transform="scale(0.015625)"/>
       <path id="DejaVuSans-74" d="M 1172 4494 
L 1172 3500 
L 2356 3500 
L 2356 3053 
L 1172 3053 
L 1172 1153 
Q 1172 725 1289 603 
Q 1406 481 1766 481 
L 2356 481 
L 2356 0 
L 1766 0 
Q 1100 0 847 248 
Q 594 497 594 1153 
L 594 3053 
L 172 3053 
L 172 3500 
L 594 3500 
L 594 4494 
L 1172 4494 
z
" transform="scale(0.015625)"/>
       <path id="DejaVuSans-65" d="M 3597 1894 
L 3597 1613 
L 953 1613 
Q 991 1019 1311 708 
Q 1631 397 2203 397 
Q 2534 397 2845 478 
Q 3156 559 3463 722 
L 3463 178 
Q 3153 47 2828 -22 
Q 2503 -91 2169 -91 
Q 1331 -91 842 396 
Q 353 884 353 1716 
Q 353 2575 817 3079 
Q 1281 3584 2069 3584 
Q 2775 3584 3186 3129 
Q 3597 2675 3597 1894 
z
M 3022 2063 
Q 3016 2534 2758 2815 
Q 2500 3097 2075 3097 
Q 1594 3097 1305 2825 
Q 1016 2553 972 2059 
L 3022 2063 
z
" transform="scale(0.015625)"/>
       <path id="DejaVuSans-67" d="M 2906 1791 
Q 2906 2416 2648 2759 
Q 2391 3103 1925 3103 
Q 1463 3103 1205 2759 
Q 947 2416 947 1791 
Q 947 1169 1205 825 
Q 1463 481 1925 481 
Q 2391 481 2648 825 
Q 2906 1169 2906 1791 
z
M 3481 434 
Q 3481 -459 3084 -895 
Q 2688 -1331 1869 -1331 
Q 1566 -1331 1297 -1286 
Q 1028 -1241 775 -1147 
L 775 -588 
Q 1028 -725 1275 -790 
Q 1522 -856 1778 -856 
Q 2344 -856 2625 -561 
Q 2906 -266 2906 331 
L 2906 616 
Q 2728 306 2450 153 
Q 2172 0 1784 0 
Q 1141 0 747 490 
Q 353 981 353 1791 
Q 353 2603 747 3093 
Q 1141 3584 1784 3584 
Q 2172 3584 2450 3431 
Q 2728 3278 2906 2969 
L 2906 3500 
L 3481 3500 
L 3481 434 
z
" transform="scale(0.015625)"/>
      </defs>
      <use xlink:href="#DejaVuSans-53"/>
      <use xlink:href="#DejaVuSans-74" x="63.476562"/>
      <use xlink:href="#DejaVuSans-72" x="102.685547"/>
      <use xlink:href="#DejaVuSans-61" x="143.798828"/>
      <use xlink:href="#DejaVuSans-74" x="205.078125"/>
      <use xlink:href="#DejaVuSans-65" x="244.287109"/>
      <use xlink:href="#DejaVuSans-67" x="305.810547"/>
      <use xlink:href="#DejaVuSans-79" x="369.287109"/>
     </g>
    </g>
    <g id="line2d_25">
     <path d="M 293.946875 192.690594 
L 304.946875 192.690594 
L 315.946875 192.690594 
" style="fill: none; stroke: #4c72b0; stroke-width: 1.5; stroke-linecap: round"/>
    </g>
    <g id="text_18">
     <!-- FedPredict -->
     <g style="fill: #262626" transform="translate(324.746875 196.540594) scale(0.11 -0.11)">
      <defs>
       <path id="DejaVuSans-46" d="M 628 4666 
L 3309 4666 
L 3309 4134 
L 1259 4134 
L 1259 2759 
L 3109 2759 
L 3109 2228 
L 1259 2228 
L 1259 0 
L 628 0 
L 628 4666 
z
" transform="scale(0.015625)"/>
       <path id="DejaVuSans-50" d="M 1259 4147 
L 1259 2394 
L 2053 2394 
Q 2494 2394 2734 2622 
Q 2975 2850 2975 3272 
Q 2975 3691 2734 3919 
Q 2494 4147 2053 4147 
L 1259 4147 
z
M 628 4666 
L 2053 4666 
Q 2838 4666 3239 4311 
Q 3641 3956 3641 3272 
Q 3641 2581 3239 2228 
Q 2838 1875 2053 1875 
L 1259 1875 
L 1259 0 
L 628 0 
L 628 4666 
z
" transform="scale(0.015625)"/>
       <path id="DejaVuSans-69" d="M 603 3500 
L 1178 3500 
L 1178 0 
L 603 0 
L 603 3500 
z
M 603 4863 
L 1178 4863 
L 1178 4134 
L 603 4134 
L 603 4863 
z
" transform="scale(0.015625)"/>
      </defs>
      <use xlink:href="#DejaVuSans-46"/>
      <use xlink:href="#DejaVuSans-65" x="52.019531"/>
      <use xlink:href="#DejaVuSans-64" x="113.542969"/>
      <use xlink:href="#DejaVuSans-50" x="177.019531"/>
      <use xlink:href="#DejaVuSans-72" x="235.572266"/>
      <use xlink:href="#DejaVuSans-65" x="274.435547"/>
      <use xlink:href="#DejaVuSans-64" x="335.958984"/>
      <use xlink:href="#DejaVuSans-69" x="399.435547"/>
      <use xlink:href="#DejaVuSans-63" x="427.21875"/>
      <use xlink:href="#DejaVuSans-74" x="482.199219"/>
     </g>
    </g>
    <g id="line2d_26">
     <path d="M 293.946875 208.836531 
L 304.946875 208.836531 
L 315.946875 208.836531 
" style="fill: none; stroke: #dd8452; stroke-width: 1.5; stroke-linecap: round"/>
    </g>
    <g id="text_19">
     <!-- FedAVG -->
     <g style="fill: #262626" transform="translate(324.746875 212.686531) scale(0.11 -0.11)">
      <defs>
       <path id="DejaVuSans-56" d="M 1831 0 
L 50 4666 
L 709 4666 
L 2188 738 
L 3669 4666 
L 4325 4666 
L 2547 0 
L 1831 0 
z
" transform="scale(0.015625)"/>
       <path id="DejaVuSans-47" d="M 3809 666 
L 3809 1919 
L 2778 1919 
L 2778 2438 
L 4434 2438 
L 4434 434 
Q 4069 175 3628 42 
Q 3188 -91 2688 -91 
Q 1594 -91 976 548 
Q 359 1188 359 2328 
Q 359 3472 976 4111 
Q 1594 4750 2688 4750 
Q 3144 4750 3555 4637 
Q 3966 4525 4313 4306 
L 4313 3634 
Q 3963 3931 3569 4081 
Q 3175 4231 2741 4231 
Q 1884 4231 1454 3753 
Q 1025 3275 1025 2328 
Q 1025 1384 1454 906 
Q 1884 428 2741 428 
Q 3075 428 3337 486 
Q 3600 544 3809 666 
z
" transform="scale(0.015625)"/>
      </defs>
      <use xlink:href="#DejaVuSans-46"/>
      <use xlink:href="#DejaVuSans-65" x="52.019531"/>
      <use xlink:href="#DejaVuSans-64" x="113.542969"/>
      <use xlink:href="#DejaVuSans-41" x="177.019531"/>
      <use xlink:href="#DejaVuSans-56" x="239.052734"/>
      <use xlink:href="#DejaVuSans-47" x="307.460938"/>
     </g>
    </g>
    <g id="line2d_27">
     <path d="M 293.946875 224.982469 
L 304.946875 224.982469 
L 315.946875 224.982469 
" style="fill: none; stroke: #55a868; stroke-width: 1.5; stroke-linecap: round"/>
    </g>
    <g id="text_20">
     <!-- FedClassAvg -->
     <g style="fill: #262626" transform="translate(324.746875 228.832469) scale(0.11 -0.11)">
      <defs>
       <path id="DejaVuSans-43" d="M 4122 4306 
L 4122 3641 
Q 3803 3938 3442 4084 
Q 3081 4231 2675 4231 
Q 1875 4231 1450 3742 
Q 1025 3253 1025 2328 
Q 1025 1406 1450 917 
Q 1875 428 2675 428 
Q 3081 428 3442 575 
Q 3803 722 4122 1019 
L 4122 359 
Q 3791 134 3420 21 
Q 3050 -91 2638 -91 
Q 1578 -91 968 557 
Q 359 1206 359 2328 
Q 359 3453 968 4101 
Q 1578 4750 2638 4750 
Q 3056 4750 3426 4639 
Q 3797 4528 4122 4306 
z
" transform="scale(0.015625)"/>
       <path id="DejaVuSans-6c" d="M 603 4863 
L 1178 4863 
L 1178 0 
L 603 0 
L 603 4863 
z
" transform="scale(0.015625)"/>
       <path id="DejaVuSans-73" d="M 2834 3397 
L 2834 2853 
Q 2591 2978 2328 3040 
Q 2066 3103 1784 3103 
Q 1356 3103 1142 2972 
Q 928 2841 928 2578 
Q 928 2378 1081 2264 
Q 1234 2150 1697 2047 
L 1894 2003 
Q 2506 1872 2764 1633 
Q 3022 1394 3022 966 
Q 3022 478 2636 193 
Q 2250 -91 1575 -91 
Q 1294 -91 989 -36 
Q 684 19 347 128 
L 347 722 
Q 666 556 975 473 
Q 1284 391 1588 391 
Q 1994 391 2212 530 
Q 2431 669 2431 922 
Q 2431 1156 2273 1281 
Q 2116 1406 1581 1522 
L 1381 1569 
Q 847 1681 609 1914 
Q 372 2147 372 2553 
Q 372 3047 722 3315 
Q 1072 3584 1716 3584 
Q 2034 3584 2315 3537 
Q 2597 3491 2834 3397 
z
" transform="scale(0.015625)"/>
       <path id="DejaVuSans-76" d="M 191 3500 
L 800 3500 
L 1894 563 
L 2988 3500 
L 3597 3500 
L 2284 0 
L 1503 0 
L 191 3500 
z
" transform="scale(0.015625)"/>
      </defs>
      <use xlink:href="#DejaVuSans-46"/>
      <use xlink:href="#DejaVuSans-65" x="52.019531"/>
      <use xlink:href="#DejaVuSans-64" x="113.542969"/>
      <use xlink:href="#DejaVuSans-43" x="177.019531"/>
      <use xlink:href="#DejaVuSans-6c" x="246.84375"/>
      <use xlink:href="#DejaVuSans-61" x="274.626953"/>
      <use xlink:href="#DejaVuSans-73" x="335.90625"/>
      <use xlink:href="#DejaVuSans-73" x="388.005859"/>
      <use xlink:href="#DejaVuSans-41" x="440.105469"/>
      <use xlink:href="#DejaVuSans-76" x="502.638672"/>
      <use xlink:href="#DejaVuSans-67" x="561.818359"/>
     </g>
    </g>
    <g id="line2d_28">
     <path d="M 293.946875 241.128406 
L 304.946875 241.128406 
L 315.946875 241.128406 
" style="fill: none; stroke: #c44e52; stroke-width: 1.5; stroke-linecap: round"/>
    </g>
    <g id="text_21">
     <!-- FedPer -->
     <g style="fill: #262626" transform="translate(324.746875 244.978406) scale(0.11 -0.11)">
      <use xlink:href="#DejaVuSans-46"/>
      <use xlink:href="#DejaVuSans-65" x="52.019531"/>
      <use xlink:href="#DejaVuSans-64" x="113.542969"/>
      <use xlink:href="#DejaVuSans-50" x="177.019531"/>
      <use xlink:href="#DejaVuSans-65" x="233.697266"/>
      <use xlink:href="#DejaVuSans-72" x="295.220703"/>
     </g>
    </g>
    <g id="line2d_29">
     <path d="M 293.946875 257.274344 
L 304.946875 257.274344 
L 315.946875 257.274344 
" style="fill: none; stroke: #8172b3; stroke-width: 1.5; stroke-linecap: round"/>
    </g>
    <g id="text_22">
     <!-- FedProto -->
     <g style="fill: #262626" transform="translate(324.746875 261.124344) scale(0.11 -0.11)">
      <use xlink:href="#DejaVuSans-46"/>
      <use xlink:href="#DejaVuSans-65" x="52.019531"/>
      <use xlink:href="#DejaVuSans-64" x="113.542969"/>
      <use xlink:href="#DejaVuSans-50" x="177.019531"/>
      <use xlink:href="#DejaVuSans-72" x="235.572266"/>
      <use xlink:href="#DejaVuSans-6f" x="274.435547"/>
      <use xlink:href="#DejaVuSans-74" x="335.617188"/>
      <use xlink:href="#DejaVuSans-6f" x="374.826172"/>
     </g>
    </g>
   </g>
  </g>
 </g>
 <defs>
  <clipPath id="p3a2eaf2180">
   <rect x="46.31125" y="7.2" width="357.12" height="266.112"/>
  </clipPath>
 </defs>
</svg>
