<?xml version="1.0" encoding="utf-8" standalone="no"?>
<!DOCTYPE svg PUBLIC "-//W3C//DTD SVG 1.1//EN"
  "http://www.w3.org/Graphics/SVG/1.1/DTD/svg11.dtd">
<svg xmlns:xlink="http://www.w3.org/1999/xlink" width="410.63125pt" height="331.389812pt" viewBox="0 0 410.63125 331.389812" xmlns="http://www.w3.org/2000/svg" version="1.1">
 <metadata>
  <rdf:RDF xmlns:dc="http://purl.org/dc/elements/1.1/" xmlns:cc="http://creativecommons.org/ns#" xmlns:rdf="http://www.w3.org/1999/02/22-rdf-syntax-ns#">
   <cc:Work>
    <dc:type rdf:resource="http://purl.org/dc/dcmitype/StillImage"/>
    <dc:date>2023-02-09T18:14:27.093439</dc:date>
    <dc:format>image/svg+xml</dc:format>
    <dc:creator>
     <cc:Agent>
      <dc:title>Matplotlib v3.6.3, https://matplotlib.org/</dc:title>
     </cc:Agent>
    </dc:creator>
   </cc:Work>
  </rdf:RDF>
 </metadata>
 <defs>
  <style type="text/css">*{stroke-linejoin: round; stroke-linecap: butt}</style>
 </defs>
 <g id="figure_1">
  <g id="patch_1">
   <path d="M 0 331.389812 
L 410.63125 331.389812 
L 410.63125 0 
L 0 0 
z
" style="fill: #ffffff"/>
  </g>
  <g id="axes_1">
   <g id="patch_2">
    <path d="M 46.31125 288.430125 
L 403.43125 288.430125 
L 403.43125 22.318125 
L 46.31125 22.318125 
z
" style="fill: #ffffff"/>
   </g>
   <g id="matplotlib.axis_1">
    <g id="xtick_1">
     <g id="line2d_1">
      <path d="M 59.264638 288.430125 
L 59.264638 22.318125 
" clip-path="url(#p31c816e3fc)" style="fill: none; stroke: #cccccc; stroke-linecap: round"/>
     </g>
     <g id="text_1">
      <!-- 0 -->
      <g style="fill: #262626" transform="translate(55.765263 306.288406) scale(0.11 -0.11)">
       <defs>
        <path id="DejaVuSans-30" d="M 2034 4250 
Q 1547 4250 1301 3770 
Q 1056 3291 1056 2328 
Q 1056 1369 1301 889 
Q 1547 409 2034 409 
Q 2525 409 2770 889 
Q 3016 1369 3016 2328 
Q 3016 3291 2770 3770 
Q 2525 4250 2034 4250 
z
M 2034 4750 
Q 2819 4750 3233 4129 
Q 3647 3509 3647 2328 
Q 3647 1150 3233 529 
Q 2819 -91 2034 -91 
Q 1250 -91 836 529 
Q 422 1150 422 2328 
Q 422 3509 836 4129 
Q 1250 4750 2034 4750 
z
" transform="scale(0.015625)"/>
       </defs>
       <use xlink:href="#DejaVuSans-30"/>
      </g>
     </g>
    </g>
    <g id="xtick_2">
     <g id="line2d_2">
      <path d="M 124.851415 288.430125 
L 124.851415 22.318125 
" clip-path="url(#p31c816e3fc)" style="fill: none; stroke: #cccccc; stroke-linecap: round"/>
     </g>
     <g id="text_2">
      <!-- 20 -->
      <g style="fill: #262626" transform="translate(117.852665 306.288406) scale(0.11 -0.11)">
       <defs>
        <path id="DejaVuSans-32" d="M 1228 531 
L 3431 531 
L 3431 0 
L 469 0 
L 469 531 
Q 828 903 1448 1529 
Q 2069 2156 2228 2338 
Q 2531 2678 2651 2914 
Q 2772 3150 2772 3378 
Q 2772 3750 2511 3984 
Q 2250 4219 1831 4219 
Q 1534 4219 1204 4116 
Q 875 4013 500 3803 
L 500 4441 
Q 881 4594 1212 4672 
Q 1544 4750 1819 4750 
Q 2544 4750 2975 4387 
Q 3406 4025 3406 3419 
Q 3406 3131 3298 2873 
Q 3191 2616 2906 2266 
Q 2828 2175 2409 1742 
Q 1991 1309 1228 531 
z
" transform="scale(0.015625)"/>
       </defs>
       <use xlink:href="#DejaVuSans-32"/>
       <use xlink:href="#DejaVuSans-30" x="63.623047"/>
      </g>
     </g>
    </g>
    <g id="xtick_3">
     <g id="line2d_3">
      <path d="M 190.438192 288.430125 
L 190.438192 22.318125 
" clip-path="url(#p31c816e3fc)" style="fill: none; stroke: #cccccc; stroke-linecap: round"/>
     </g>
     <g id="text_3">
      <!-- 40 -->
      <g style="fill: #262626" transform="translate(183.439442 306.288406) scale(0.11 -0.11)">
       <defs>
        <path id="DejaVuSans-34" d="M 2419 4116 
L 825 1625 
L 2419 1625 
L 2419 4116 
z
M 2253 4666 
L 3047 4666 
L 3047 1625 
L 3713 1625 
L 3713 1100 
L 3047 1100 
L 3047 0 
L 2419 0 
L 2419 1100 
L 313 1100 
L 313 1709 
L 2253 4666 
z
" transform="scale(0.015625)"/>
       </defs>
       <use xlink:href="#DejaVuSans-34"/>
       <use xlink:href="#DejaVuSans-30" x="63.623047"/>
      </g>
     </g>
    </g>
    <g id="xtick_4">
     <g id="line2d_4">
      <path d="M 256.024969 288.430125 
L 256.024969 22.318125 
" clip-path="url(#p31c816e3fc)" style="fill: none; stroke: #cccccc; stroke-linecap: round"/>
     </g>
     <g id="text_4">
      <!-- 60 -->
      <g style="fill: #262626" transform="translate(249.026219 306.288406) scale(0.11 -0.11)">
       <defs>
        <path id="DejaVuSans-36" d="M 2113 2584 
Q 1688 2584 1439 2293 
Q 1191 2003 1191 1497 
Q 1191 994 1439 701 
Q 1688 409 2113 409 
Q 2538 409 2786 701 
Q 3034 994 3034 1497 
Q 3034 2003 2786 2293 
Q 2538 2584 2113 2584 
z
M 3366 4563 
L 3366 3988 
Q 3128 4100 2886 4159 
Q 2644 4219 2406 4219 
Q 1781 4219 1451 3797 
Q 1122 3375 1075 2522 
Q 1259 2794 1537 2939 
Q 1816 3084 2150 3084 
Q 2853 3084 3261 2657 
Q 3669 2231 3669 1497 
Q 3669 778 3244 343 
Q 2819 -91 2113 -91 
Q 1303 -91 875 529 
Q 447 1150 447 2328 
Q 447 3434 972 4092 
Q 1497 4750 2381 4750 
Q 2619 4750 2861 4703 
Q 3103 4656 3366 4563 
z
" transform="scale(0.015625)"/>
       </defs>
       <use xlink:href="#DejaVuSans-36"/>
       <use xlink:href="#DejaVuSans-30" x="63.623047"/>
      </g>
     </g>
    </g>
    <g id="xtick_5">
     <g id="line2d_5">
      <path d="M 321.611746 288.430125 
L 321.611746 22.318125 
" clip-path="url(#p31c816e3fc)" style="fill: none; stroke: #cccccc; stroke-linecap: round"/>
     </g>
     <g id="text_5">
      <!-- 80 -->
      <g style="fill: #262626" transform="translate(314.612996 306.288406) scale(0.11 -0.11)">
       <defs>
        <path id="DejaVuSans-38" d="M 2034 2216 
Q 1584 2216 1326 1975 
Q 1069 1734 1069 1313 
Q 1069 891 1326 650 
Q 1584 409 2034 409 
Q 2484 409 2743 651 
Q 3003 894 3003 1313 
Q 3003 1734 2745 1975 
Q 2488 2216 2034 2216 
z
M 1403 2484 
Q 997 2584 770 2862 
Q 544 3141 544 3541 
Q 544 4100 942 4425 
Q 1341 4750 2034 4750 
Q 2731 4750 3128 4425 
Q 3525 4100 3525 3541 
Q 3525 3141 3298 2862 
Q 3072 2584 2669 2484 
Q 3125 2378 3379 2068 
Q 3634 1759 3634 1313 
Q 3634 634 3220 271 
Q 2806 -91 2034 -91 
Q 1263 -91 848 271 
Q 434 634 434 1313 
Q 434 1759 690 2068 
Q 947 2378 1403 2484 
z
M 1172 3481 
Q 1172 3119 1398 2916 
Q 1625 2713 2034 2713 
Q 2441 2713 2670 2916 
Q 2900 3119 2900 3481 
Q 2900 3844 2670 4047 
Q 2441 4250 2034 4250 
Q 1625 4250 1398 4047 
Q 1172 3844 1172 3481 
z
" transform="scale(0.015625)"/>
       </defs>
       <use xlink:href="#DejaVuSans-38"/>
       <use xlink:href="#DejaVuSans-30" x="63.623047"/>
      </g>
     </g>
    </g>
    <g id="xtick_6">
     <g id="line2d_6">
      <path d="M 387.198523 288.430125 
L 387.198523 22.318125 
" clip-path="url(#p31c816e3fc)" style="fill: none; stroke: #cccccc; stroke-linecap: round"/>
     </g>
     <g id="text_6">
      <!-- 100 -->
      <g style="fill: #262626" transform="translate(376.700398 306.288406) scale(0.11 -0.11)">
       <defs>
        <path id="DejaVuSans-31" d="M 794 531 
L 1825 531 
L 1825 4091 
L 703 3866 
L 703 4441 
L 1819 4666 
L 2450 4666 
L 2450 531 
L 3481 531 
L 3481 0 
L 794 0 
L 794 531 
z
" transform="scale(0.015625)"/>
       </defs>
       <use xlink:href="#DejaVuSans-31"/>
       <use xlink:href="#DejaVuSans-30" x="63.623047"/>
       <use xlink:href="#DejaVuSans-30" x="127.246094"/>
      </g>
     </g>
    </g>
    <g id="text_7">
     <!-- Server round -->
     <g style="fill: #262626" transform="translate(185.870313 321.694187) scale(0.12 -0.12)">
      <defs>
       <path id="DejaVuSans-53" d="M 3425 4513 
L 3425 3897 
Q 3066 4069 2747 4153 
Q 2428 4238 2131 4238 
Q 1616 4238 1336 4038 
Q 1056 3838 1056 3469 
Q 1056 3159 1242 3001 
Q 1428 2844 1947 2747 
L 2328 2669 
Q 3034 2534 3370 2195 
Q 3706 1856 3706 1288 
Q 3706 609 3251 259 
Q 2797 -91 1919 -91 
Q 1588 -91 1214 -16 
Q 841 59 441 206 
L 441 856 
Q 825 641 1194 531 
Q 1563 422 1919 422 
Q 2459 422 2753 634 
Q 3047 847 3047 1241 
Q 3047 1584 2836 1778 
Q 2625 1972 2144 2069 
L 1759 2144 
Q 1053 2284 737 2584 
Q 422 2884 422 3419 
Q 422 4038 858 4394 
Q 1294 4750 2059 4750 
Q 2388 4750 2728 4690 
Q 3069 4631 3425 4513 
z
" transform="scale(0.015625)"/>
       <path id="DejaVuSans-65" d="M 3597 1894 
L 3597 1613 
L 953 1613 
Q 991 1019 1311 708 
Q 1631 397 2203 397 
Q 2534 397 2845 478 
Q 3156 559 3463 722 
L 3463 178 
Q 3153 47 2828 -22 
Q 2503 -91 2169 -91 
Q 1331 -91 842 396 
Q 353 884 353 1716 
Q 353 2575 817 3079 
Q 1281 3584 2069 3584 
Q 2775 3584 3186 3129 
Q 3597 2675 3597 1894 
z
M 3022 2063 
Q 3016 2534 2758 2815 
Q 2500 3097 2075 3097 
Q 1594 3097 1305 2825 
Q 1016 2553 972 2059 
L 3022 2063 
z
" transform="scale(0.015625)"/>
       <path id="DejaVuSans-72" d="M 2631 2963 
Q 2534 3019 2420 3045 
Q 2306 3072 2169 3072 
Q 1681 3072 1420 2755 
Q 1159 2438 1159 1844 
L 1159 0 
L 581 0 
L 581 3500 
L 1159 3500 
L 1159 2956 
Q 1341 3275 1631 3429 
Q 1922 3584 2338 3584 
Q 2397 3584 2469 3576 
Q 2541 3569 2628 3553 
L 2631 2963 
z
" transform="scale(0.015625)"/>
       <path id="DejaVuSans-76" d="M 191 3500 
L 800 3500 
L 1894 563 
L 2988 3500 
L 3597 3500 
L 2284 0 
L 1503 0 
L 191 3500 
z
" transform="scale(0.015625)"/>
       <path id="DejaVuSans-20" transform="scale(0.015625)"/>
       <path id="DejaVuSans-6f" d="M 1959 3097 
Q 1497 3097 1228 2736 
Q 959 2375 959 1747 
Q 959 1119 1226 758 
Q 1494 397 1959 397 
Q 2419 397 2687 759 
Q 2956 1122 2956 1747 
Q 2956 2369 2687 2733 
Q 2419 3097 1959 3097 
z
M 1959 3584 
Q 2709 3584 3137 3096 
Q 3566 2609 3566 1747 
Q 3566 888 3137 398 
Q 2709 -91 1959 -91 
Q 1206 -91 779 398 
Q 353 888 353 1747 
Q 353 2609 779 3096 
Q 1206 3584 1959 3584 
z
" transform="scale(0.015625)"/>
       <path id="DejaVuSans-75" d="M 544 1381 
L 544 3500 
L 1119 3500 
L 1119 1403 
Q 1119 906 1312 657 
Q 1506 409 1894 409 
Q 2359 409 2629 706 
Q 2900 1003 2900 1516 
L 2900 3500 
L 3475 3500 
L 3475 0 
L 2900 0 
L 2900 538 
Q 2691 219 2414 64 
Q 2138 -91 1772 -91 
Q 1169 -91 856 284 
Q 544 659 544 1381 
z
M 1991 3584 
L 1991 3584 
z
" transform="scale(0.015625)"/>
       <path id="DejaVuSans-6e" d="M 3513 2113 
L 3513 0 
L 2938 0 
L 2938 2094 
Q 2938 2591 2744 2837 
Q 2550 3084 2163 3084 
Q 1697 3084 1428 2787 
Q 1159 2491 1159 1978 
L 1159 0 
L 581 0 
L 581 3500 
L 1159 3500 
L 1159 2956 
Q 1366 3272 1645 3428 
Q 1925 3584 2291 3584 
Q 2894 3584 3203 3211 
Q 3513 2838 3513 2113 
z
" transform="scale(0.015625)"/>
       <path id="DejaVuSans-64" d="M 2906 2969 
L 2906 4863 
L 3481 4863 
L 3481 0 
L 2906 0 
L 2906 525 
Q 2725 213 2448 61 
Q 2172 -91 1784 -91 
Q 1150 -91 751 415 
Q 353 922 353 1747 
Q 353 2572 751 3078 
Q 1150 3584 1784 3584 
Q 2172 3584 2448 3432 
Q 2725 3281 2906 2969 
z
M 947 1747 
Q 947 1113 1208 752 
Q 1469 391 1925 391 
Q 2381 391 2643 752 
Q 2906 1113 2906 1747 
Q 2906 2381 2643 2742 
Q 2381 3103 1925 3103 
Q 1469 3103 1208 2742 
Q 947 2381 947 1747 
z
" transform="scale(0.015625)"/>
      </defs>
      <use xlink:href="#DejaVuSans-53"/>
      <use xlink:href="#DejaVuSans-65" x="63.476562"/>
      <use xlink:href="#DejaVuSans-72" x="125"/>
      <use xlink:href="#DejaVuSans-76" x="166.113281"/>
      <use xlink:href="#DejaVuSans-65" x="225.292969"/>
      <use xlink:href="#DejaVuSans-72" x="286.816406"/>
      <use xlink:href="#DejaVuSans-20" x="327.929688"/>
      <use xlink:href="#DejaVuSans-72" x="359.716797"/>
      <use xlink:href="#DejaVuSans-6f" x="398.580078"/>
      <use xlink:href="#DejaVuSans-75" x="459.761719"/>
      <use xlink:href="#DejaVuSans-6e" x="523.140625"/>
      <use xlink:href="#DejaVuSans-64" x="586.519531"/>
     </g>
    </g>
   </g>
   <g id="matplotlib.axis_2">
    <g id="ytick_1">
     <g id="line2d_7">
      <path d="M 46.31125 257.828609 
L 403.43125 257.828609 
" clip-path="url(#p31c816e3fc)" style="fill: none; stroke: #cccccc; stroke-linecap: round"/>
     </g>
     <g id="text_8">
      <!-- 20 -->
      <g style="fill: #262626" transform="translate(22.81375 262.007749) scale(0.11 -0.11)">
       <use xlink:href="#DejaVuSans-32"/>
       <use xlink:href="#DejaVuSans-30" x="63.623047"/>
      </g>
     </g>
    </g>
    <g id="ytick_2">
     <g id="line2d_8">
      <path d="M 46.31125 219.56878 
L 403.43125 219.56878 
" clip-path="url(#p31c816e3fc)" style="fill: none; stroke: #cccccc; stroke-linecap: round"/>
     </g>
     <g id="text_9">
      <!-- 30 -->
      <g style="fill: #262626" transform="translate(22.81375 223.74792) scale(0.11 -0.11)">
       <defs>
        <path id="DejaVuSans-33" d="M 2597 2516 
Q 3050 2419 3304 2112 
Q 3559 1806 3559 1356 
Q 3559 666 3084 287 
Q 2609 -91 1734 -91 
Q 1441 -91 1130 -33 
Q 819 25 488 141 
L 488 750 
Q 750 597 1062 519 
Q 1375 441 1716 441 
Q 2309 441 2620 675 
Q 2931 909 2931 1356 
Q 2931 1769 2642 2001 
Q 2353 2234 1838 2234 
L 1294 2234 
L 1294 2753 
L 1863 2753 
Q 2328 2753 2575 2939 
Q 2822 3125 2822 3475 
Q 2822 3834 2567 4026 
Q 2313 4219 1838 4219 
Q 1578 4219 1281 4162 
Q 984 4106 628 3988 
L 628 4550 
Q 988 4650 1302 4700 
Q 1616 4750 1894 4750 
Q 2613 4750 3031 4423 
Q 3450 4097 3450 3541 
Q 3450 3153 3228 2886 
Q 3006 2619 2597 2516 
z
" transform="scale(0.015625)"/>
       </defs>
       <use xlink:href="#DejaVuSans-33"/>
       <use xlink:href="#DejaVuSans-30" x="63.623047"/>
      </g>
     </g>
    </g>
    <g id="ytick_3">
     <g id="line2d_9">
      <path d="M 46.31125 181.308951 
L 403.43125 181.308951 
" clip-path="url(#p31c816e3fc)" style="fill: none; stroke: #cccccc; stroke-linecap: round"/>
     </g>
     <g id="text_10">
      <!-- 40 -->
      <g style="fill: #262626" transform="translate(22.81375 185.488091) scale(0.11 -0.11)">
       <use xlink:href="#DejaVuSans-34"/>
       <use xlink:href="#DejaVuSans-30" x="63.623047"/>
      </g>
     </g>
    </g>
    <g id="ytick_4">
     <g id="line2d_10">
      <path d="M 46.31125 143.049122 
L 403.43125 143.049122 
" clip-path="url(#p31c816e3fc)" style="fill: none; stroke: #cccccc; stroke-linecap: round"/>
     </g>
     <g id="text_11">
      <!-- 50 -->
      <g style="fill: #262626" transform="translate(22.81375 147.228262) scale(0.11 -0.11)">
       <defs>
        <path id="DejaVuSans-35" d="M 691 4666 
L 3169 4666 
L 3169 4134 
L 1269 4134 
L 1269 2991 
Q 1406 3038 1543 3061 
Q 1681 3084 1819 3084 
Q 2600 3084 3056 2656 
Q 3513 2228 3513 1497 
Q 3513 744 3044 326 
Q 2575 -91 1722 -91 
Q 1428 -91 1123 -41 
Q 819 9 494 109 
L 494 744 
Q 775 591 1075 516 
Q 1375 441 1709 441 
Q 2250 441 2565 725 
Q 2881 1009 2881 1497 
Q 2881 1984 2565 2268 
Q 2250 2553 1709 2553 
Q 1456 2553 1204 2497 
Q 953 2441 691 2322 
L 691 4666 
z
" transform="scale(0.015625)"/>
       </defs>
       <use xlink:href="#DejaVuSans-35"/>
       <use xlink:href="#DejaVuSans-30" x="63.623047"/>
      </g>
     </g>
    </g>
    <g id="ytick_5">
     <g id="line2d_11">
      <path d="M 46.31125 104.789293 
L 403.43125 104.789293 
" clip-path="url(#p31c816e3fc)" style="fill: none; stroke: #cccccc; stroke-linecap: round"/>
     </g>
     <g id="text_12">
      <!-- 60 -->
      <g style="fill: #262626" transform="translate(22.81375 108.968433) scale(0.11 -0.11)">
       <use xlink:href="#DejaVuSans-36"/>
       <use xlink:href="#DejaVuSans-30" x="63.623047"/>
      </g>
     </g>
    </g>
    <g id="ytick_6">
     <g id="line2d_12">
      <path d="M 46.31125 66.529464 
L 403.43125 66.529464 
" clip-path="url(#p31c816e3fc)" style="fill: none; stroke: #cccccc; stroke-linecap: round"/>
     </g>
     <g id="text_13">
      <!-- 70 -->
      <g style="fill: #262626" transform="translate(22.81375 70.708604) scale(0.11 -0.11)">
       <defs>
        <path id="DejaVuSans-37" d="M 525 4666 
L 3525 4666 
L 3525 4397 
L 1831 0 
L 1172 0 
L 2766 4134 
L 525 4134 
L 525 4666 
z
" transform="scale(0.015625)"/>
       </defs>
       <use xlink:href="#DejaVuSans-37"/>
       <use xlink:href="#DejaVuSans-30" x="63.623047"/>
      </g>
     </g>
    </g>
    <g id="ytick_7">
     <g id="line2d_13">
      <path d="M 46.31125 28.269635 
L 403.43125 28.269635 
" clip-path="url(#p31c816e3fc)" style="fill: none; stroke: #cccccc; stroke-linecap: round"/>
     </g>
     <g id="text_14">
      <!-- 80 -->
      <g style="fill: #262626" transform="translate(22.81375 32.448776) scale(0.11 -0.11)">
       <use xlink:href="#DejaVuSans-38"/>
       <use xlink:href="#DejaVuSans-30" x="63.623047"/>
      </g>
     </g>
    </g>
    <g id="text_15">
     <!-- Accuracy aggregated (%) -->
     <g style="fill: #262626" transform="translate(16.318125 231.621937) rotate(-90) scale(0.12 -0.12)">
      <defs>
       <path id="DejaVuSans-41" d="M 2188 4044 
L 1331 1722 
L 3047 1722 
L 2188 4044 
z
M 1831 4666 
L 2547 4666 
L 4325 0 
L 3669 0 
L 3244 1197 
L 1141 1197 
L 716 0 
L 50 0 
L 1831 4666 
z
" transform="scale(0.015625)"/>
       <path id="DejaVuSans-63" d="M 3122 3366 
L 3122 2828 
Q 2878 2963 2633 3030 
Q 2388 3097 2138 3097 
Q 1578 3097 1268 2742 
Q 959 2388 959 1747 
Q 959 1106 1268 751 
Q 1578 397 2138 397 
Q 2388 397 2633 464 
Q 2878 531 3122 666 
L 3122 134 
Q 2881 22 2623 -34 
Q 2366 -91 2075 -91 
Q 1284 -91 818 406 
Q 353 903 353 1747 
Q 353 2603 823 3093 
Q 1294 3584 2113 3584 
Q 2378 3584 2631 3529 
Q 2884 3475 3122 3366 
z
" transform="scale(0.015625)"/>
       <path id="DejaVuSans-61" d="M 2194 1759 
Q 1497 1759 1228 1600 
Q 959 1441 959 1056 
Q 959 750 1161 570 
Q 1363 391 1709 391 
Q 2188 391 2477 730 
Q 2766 1069 2766 1631 
L 2766 1759 
L 2194 1759 
z
M 3341 1997 
L 3341 0 
L 2766 0 
L 2766 531 
Q 2569 213 2275 61 
Q 1981 -91 1556 -91 
Q 1019 -91 701 211 
Q 384 513 384 1019 
Q 384 1609 779 1909 
Q 1175 2209 1959 2209 
L 2766 2209 
L 2766 2266 
Q 2766 2663 2505 2880 
Q 2244 3097 1772 3097 
Q 1472 3097 1187 3025 
Q 903 2953 641 2809 
L 641 3341 
Q 956 3463 1253 3523 
Q 1550 3584 1831 3584 
Q 2591 3584 2966 3190 
Q 3341 2797 3341 1997 
z
" transform="scale(0.015625)"/>
       <path id="DejaVuSans-79" d="M 2059 -325 
Q 1816 -950 1584 -1140 
Q 1353 -1331 966 -1331 
L 506 -1331 
L 506 -850 
L 844 -850 
Q 1081 -850 1212 -737 
Q 1344 -625 1503 -206 
L 1606 56 
L 191 3500 
L 800 3500 
L 1894 763 
L 2988 3500 
L 3597 3500 
L 2059 -325 
z
" transform="scale(0.015625)"/>
       <path id="DejaVuSans-67" d="M 2906 1791 
Q 2906 2416 2648 2759 
Q 2391 3103 1925 3103 
Q 1463 3103 1205 2759 
Q 947 2416 947 1791 
Q 947 1169 1205 825 
Q 1463 481 1925 481 
Q 2391 481 2648 825 
Q 2906 1169 2906 1791 
z
M 3481 434 
Q 3481 -459 3084 -895 
Q 2688 -1331 1869 -1331 
Q 1566 -1331 1297 -1286 
Q 1028 -1241 775 -1147 
L 775 -588 
Q 1028 -725 1275 -790 
Q 1522 -856 1778 -856 
Q 2344 -856 2625 -561 
Q 2906 -266 2906 331 
L 2906 616 
Q 2728 306 2450 153 
Q 2172 0 1784 0 
Q 1141 0 747 490 
Q 353 981 353 1791 
Q 353 2603 747 3093 
Q 1141 3584 1784 3584 
Q 2172 3584 2450 3431 
Q 2728 3278 2906 2969 
L 2906 3500 
L 3481 3500 
L 3481 434 
z
" transform="scale(0.015625)"/>
       <path id="DejaVuSans-74" d="M 1172 4494 
L 1172 3500 
L 2356 3500 
L 2356 3053 
L 1172 3053 
L 1172 1153 
Q 1172 725 1289 603 
Q 1406 481 1766 481 
L 2356 481 
L 2356 0 
L 1766 0 
Q 1100 0 847 248 
Q 594 497 594 1153 
L 594 3053 
L 172 3053 
L 172 3500 
L 594 3500 
L 594 4494 
L 1172 4494 
z
" transform="scale(0.015625)"/>
       <path id="DejaVuSans-28" d="M 1984 4856 
Q 1566 4138 1362 3434 
Q 1159 2731 1159 2009 
Q 1159 1288 1364 580 
Q 1569 -128 1984 -844 
L 1484 -844 
Q 1016 -109 783 600 
Q 550 1309 550 2009 
Q 550 2706 781 3412 
Q 1013 4119 1484 4856 
L 1984 4856 
z
" transform="scale(0.015625)"/>
       <path id="DejaVuSans-25" d="M 4653 2053 
Q 4381 2053 4226 1822 
Q 4072 1591 4072 1178 
Q 4072 772 4226 539 
Q 4381 306 4653 306 
Q 4919 306 5073 539 
Q 5228 772 5228 1178 
Q 5228 1588 5073 1820 
Q 4919 2053 4653 2053 
z
M 4653 2450 
Q 5147 2450 5437 2106 
Q 5728 1763 5728 1178 
Q 5728 594 5436 251 
Q 5144 -91 4653 -91 
Q 4153 -91 3862 251 
Q 3572 594 3572 1178 
Q 3572 1766 3864 2108 
Q 4156 2450 4653 2450 
z
M 1428 4353 
Q 1159 4353 1004 4120 
Q 850 3888 850 3481 
Q 850 3069 1003 2837 
Q 1156 2606 1428 2606 
Q 1700 2606 1854 2837 
Q 2009 3069 2009 3481 
Q 2009 3884 1853 4118 
Q 1697 4353 1428 4353 
z
M 4250 4750 
L 4750 4750 
L 1831 -91 
L 1331 -91 
L 4250 4750 
z
M 1428 4750 
Q 1922 4750 2215 4408 
Q 2509 4066 2509 3481 
Q 2509 2891 2217 2550 
Q 1925 2209 1428 2209 
Q 931 2209 642 2551 
Q 353 2894 353 3481 
Q 353 4063 643 4406 
Q 934 4750 1428 4750 
z
" transform="scale(0.015625)"/>
       <path id="DejaVuSans-29" d="M 513 4856 
L 1013 4856 
Q 1481 4119 1714 3412 
Q 1947 2706 1947 2009 
Q 1947 1309 1714 600 
Q 1481 -109 1013 -844 
L 513 -844 
Q 928 -128 1133 580 
Q 1338 1288 1338 2009 
Q 1338 2731 1133 3434 
Q 928 4138 513 4856 
z
" transform="scale(0.015625)"/>
      </defs>
      <use xlink:href="#DejaVuSans-41"/>
      <use xlink:href="#DejaVuSans-63" x="66.658203"/>
      <use xlink:href="#DejaVuSans-63" x="121.638672"/>
      <use xlink:href="#DejaVuSans-75" x="176.619141"/>
      <use xlink:href="#DejaVuSans-72" x="239.998047"/>
      <use xlink:href="#DejaVuSans-61" x="281.111328"/>
      <use xlink:href="#DejaVuSans-63" x="342.390625"/>
      <use xlink:href="#DejaVuSans-79" x="397.371094"/>
      <use xlink:href="#DejaVuSans-20" x="456.550781"/>
      <use xlink:href="#DejaVuSans-61" x="488.337891"/>
      <use xlink:href="#DejaVuSans-67" x="549.617188"/>
      <use xlink:href="#DejaVuSans-67" x="613.09375"/>
      <use xlink:href="#DejaVuSans-72" x="676.570312"/>
      <use xlink:href="#DejaVuSans-65" x="715.433594"/>
      <use xlink:href="#DejaVuSans-67" x="776.957031"/>
      <use xlink:href="#DejaVuSans-61" x="840.433594"/>
      <use xlink:href="#DejaVuSans-74" x="901.712891"/>
      <use xlink:href="#DejaVuSans-65" x="940.921875"/>
      <use xlink:href="#DejaVuSans-64" x="1002.445312"/>
      <use xlink:href="#DejaVuSans-20" x="1065.921875"/>
      <use xlink:href="#DejaVuSans-28" x="1097.708984"/>
      <use xlink:href="#DejaVuSans-25" x="1136.722656"/>
      <use xlink:href="#DejaVuSans-29" x="1231.742188"/>
     </g>
    </g>
   </g>
   <g id="PolyCollection_1"/>
   <g id="PolyCollection_2"/>
   <g id="PolyCollection_3"/>
   <g id="PolyCollection_4"/>
   <g id="PolyCollection_5"/>
   <g id="line2d_14">
    <path d="M 62.543977 247.086901 
L 65.823316 216.535988 
L 69.102655 188.918375 
L 72.381994 188.558145 
L 75.661333 137.233985 
L 78.940671 134.969683 
L 82.22001 134.129147 
L 85.499349 122.739026 
L 88.778688 129.120239 
L 92.058027 92.016576 
L 95.337366 99.855861 
L 98.616705 114.693895 
L 101.896043 106.374304 
L 105.175382 85.961285 
L 108.454721 86.921898 
L 111.73406 91.467654 
L 115.013399 76.080698 
L 118.292738 77.590232 
L 121.572076 78.053385 
L 124.851415 73.69632 
L 128.130754 71.603557 
L 131.410093 73.953627 
L 134.689432 76.732542 
L 137.968771 68.27572 
L 141.24811 61.431355 
L 144.527448 62.700736 
L 147.806787 64.416116 
L 151.086126 67.864029 
L 154.365465 67.846875 
L 157.644804 61.276971 
L 160.924143 58.052057 
L 164.203481 60.882434 
L 167.48282 52.013921 
L 170.762159 55.30745 
L 174.041498 59.698822 
L 177.320837 54.243914 
L 180.600176 54.80999 
L 183.879514 55.873525 
L 187.158853 50.161311 
L 190.438192 50.898924 
L 193.717531 49.955465 
L 196.99687 46.576167 
L 200.276209 46.987858 
L 203.555548 45.907169 
L 206.834886 46.936397 
L 210.114225 47.107935 
L 213.393564 45.049479 
L 216.672903 39.577418 
L 219.952242 41.515797 
L 223.231581 48.943391 
L 226.510919 44.517711 
L 229.790258 41.207029 
L 233.069597 42.081872 
L 236.348936 39.783263 
L 239.628275 44.414789 
L 242.907614 40.332185 
L 246.186952 38.822651 
L 249.466291 40.023417 
L 252.74563 38.136499 
L 256.024969 39.097112 
L 259.304308 43.076793 
L 262.583647 41.773104 
L 265.862986 36.249581 
L 269.142324 34.414125 
L 272.421663 35.134584 
L 275.701002 39.04565 
L 278.980341 36.472581 
L 282.25968 36.043736 
L 285.539019 36.06089 
L 288.818357 47.412082 
L 292.097696 49.191726 
L 295.377035 57.012131 
L 298.656374 51.861191 
L 301.935713 48.803212 
L 305.215052 46.259074 
L 308.49439 47.988586 
L 311.773729 51.410014 
L 315.053068 50.632986 
L 318.332407 48.251773 
L 321.611746 49.705566 
L 324.891085 48.402165 
L 328.170424 47.31182 
L 331.449762 50.958836 
L 334.729101 49.793295 
L 338.00844 48.790679 
L 341.287779 48.953604 
L 344.567118 52.763545 
L 347.846457 48.502427 
L 351.125795 48.264306 
L 354.405134 46.735316 
L 357.684473 47.324353 
L 360.963812 47.712867 
L 364.243151 49.342118 
L 367.52249 48.70295 
L 370.801829 51.334817 
L 374.081167 50.520192 
L 377.360506 47.512344 
L 380.639845 52.111845 
L 383.919184 49.354651 
L 387.198523 49.63037 
" clip-path="url(#p31c816e3fc)" style="fill: none; stroke: #4c72b0; stroke-width: 1.5; stroke-linecap: round"/>
   </g>
   <g id="line2d_15">
    <path d="M 62.543977 268.957992 
L 65.823316 276.334125 
L 69.102655 243.381681 
L 72.381994 263.966237 
L 75.661333 237.858158 
L 78.940671 240.568458 
L 82.22001 232.917865 
L 85.499349 226.245038 
L 88.778688 219.760902 
L 92.058027 188.094993 
L 95.337366 206.398094 
L 98.616705 239.281923 
L 101.896043 211.647156 
L 105.175382 180.959013 
L 108.454721 174.646416 
L 111.73406 188.009224 
L 115.013399 173.411343 
L 118.292738 175.366875 
L 121.572076 177.15087 
L 124.851415 170.512351 
L 128.130754 182.9317 
L 131.410093 173.222651 
L 134.689432 182.948854 
L 137.968771 167.287437 
L 141.24811 148.178107 
L 144.527448 154.507858 
L 147.806787 167.081591 
L 151.086126 167.681974 
L 154.365465 169.637507 
L 157.644804 189.673142 
L 160.924143 167.613359 
L 164.203481 171.936116 
L 167.48282 156.840775 
L 170.762159 181.182013 
L 174.041498 164.988828 
L 177.320837 159.413844 
L 180.600176 159.362383 
L 183.879514 210.961004 
L 187.158853 148.606952 
L 190.438192 134.300685 
L 193.717531 158.024387 
L 196.99687 134.111994 
L 200.276209 144.850271 
L 203.555548 147.543417 
L 206.834886 148.847105 
L 210.114225 142.088509 
L 213.393564 144.026888 
L 216.672903 117.592887 
L 219.952242 137.199677 
L 223.231581 167.441821 
L 226.510919 139.875669 
L 229.790258 124.660251 
L 233.069597 136.547833 
L 236.348936 117.644348 
L 239.628275 130.492542 
L 242.907614 127.096091 
L 246.186952 108.981681 
L 249.466291 132.087845 
L 252.74563 156.566314 
L 256.024969 121.847029 
L 259.304308 145.244808 
L 262.583647 134.317839 
L 265.862986 111.383212 
L 269.142324 123.493793 
L 272.421663 122.104336 
L 275.701002 132.636767 
L 278.980341 121.280953 
L 282.25968 122.979179 
L 285.539019 120.165957 
L 288.818357 106.528832 
L 292.097696 123.623436 
L 295.377035 137.271547 
L 298.656374 112.544528 
L 301.935713 121.705932 
L 305.215052 102.743956 
L 308.49439 115.33932 
L 311.773729 144.264794 
L 315.053068 110.401436 
L 318.332407 100.713659 
L 321.611746 133.812521 
L 324.891085 127.508573 
L 328.170424 108.521531 
L 331.449762 125.202556 
L 334.729101 116.07875 
L 338.00844 139.640227 
L 341.287779 115.589974 
L 344.567118 134.238633 
L 347.846457 179.820066 
L 351.125795 98.796155 
L 354.405134 109.248428 
L 357.684473 115.715301 
L 360.963812 111.266193 
L 364.243151 121.593138 
L 367.52249 108.521531 
L 370.801829 113.121032 
L 374.081167 115.903292 
L 377.360506 114.850545 
L 380.639845 115.527311 
L 383.919184 116.492329 
L 387.198523 102.869283 
" clip-path="url(#p31c816e3fc)" style="fill: none; stroke: #dd8452; stroke-width: 1.5; stroke-linecap: round"/>
   </g>
   <g id="line2d_16">
    <path d="M 62.543977 252.23304 
L 65.823316 223.294584 
L 69.102655 222.059511 
L 72.381994 206.74117 
L 75.661333 175.864336 
L 78.940671 159.705459 
L 82.22001 157.303927 
L 85.499349 157.303927 
L 88.778688 151.677482 
L 92.058027 142.791815 
L 95.337366 137.336907 
L 98.616705 143.992581 
L 101.896043 136.993831 
L 105.175382 134.798145 
L 108.454721 129.737775 
L 111.73406 128.108165 
L 115.013399 125.10625 
L 118.292738 119.754265 
L 121.572076 115.139894 
L 124.851415 114.162128 
L 128.130754 108.861604 
L 131.410093 111.606212 
L 134.689432 107.575069 
L 137.968771 103.14939 
L 141.24811 100.696397 
L 144.527448 98.483557 
L 147.806787 92.685574 
L 151.086126 95.533104 
L 154.365465 95.584565 
L 157.644804 92.977188 
L 160.924143 91.639192 
L 164.203481 90.421272 
L 167.48282 88.654431 
L 170.762159 85.995593 
L 174.041498 84.160136 
L 177.320837 84.108675 
L 180.600176 84.108675 
L 183.879514 85.137903 
L 187.158853 84.846288 
L 190.438192 82.787833 
L 193.717531 81.055299 
L 196.99687 80.008918 
L 200.276209 79.082613 
L 203.555548 77.641694 
L 206.834886 79.751611 
L 210.114225 78.688075 
L 213.393564 79.751611 
L 216.672903 80.866607 
L 219.952242 77.641694 
L 223.231581 76.62962 
L 226.510919 75.994929 
L 229.790258 73.216014 
L 233.069597 74.468241 
L 236.348936 75.017163 
L 239.628275 74.296703 
L 242.907614 71.48348 
L 246.186952 69.922485 
L 249.466291 71.106097 
L 252.74563 71.174712 
L 256.024969 68.63595 
L 259.304308 64.398962 
L 262.583647 66.234419 
L 265.862986 64.827807 
L 269.142324 62.889428 
L 272.421663 65.136576 
L 275.701002 63.781426 
L 278.980341 62.0832 
L 282.25968 62.031738 
L 285.539019 62.477737 
L 288.818357 89.622218 
L 292.097696 88.243621 
L 295.377035 87.654584 
L 298.656374 87.278603 
L 301.935713 87.40393 
L 305.215052 87.504192 
L 308.49439 88.018033 
L 311.773729 87.027949 
L 315.053068 87.366332 
L 318.332407 87.504192 
L 321.611746 87.053015 
L 324.891085 88.256154 
L 328.170424 89.434228 
L 331.449762 89.747545 
L 334.729101 88.582004 
L 338.00844 88.644668 
L 341.287779 88.882789 
L 344.567118 88.19349 
L 347.846457 88.719864 
L 351.125795 88.093229 
L 354.405134 86.225856 
L 357.684473 85.661885 
L 360.963812 85.398698 
L 364.243151 86.338651 
L 367.52249 86.814893 
L 370.801829 85.373633 
L 374.081167 85.749614 
L 377.360506 86.702099 
L 380.639845 87.942836 
L 383.919184 86.589305 
L 387.198523 86.025333 
" clip-path="url(#p31c816e3fc)" style="fill: none; stroke: #55a868; stroke-width: 1.5; stroke-linecap: round"/>
   </g>
   <g id="line2d_17">
    <path d="M 62.543977 260.707016 
L 65.823316 237.669466 
L 69.102655 254.686033 
L 72.381994 215.180838 
L 75.661333 209.159856 
L 78.940671 193.000979 
L 82.22001 186.310998 
L 85.499349 174.543493 
L 88.778688 163.839524 
L 92.058027 169.088586 
L 95.337366 172.605114 
L 98.616705 166.326824 
L 101.896043 160.580302 
L 105.175382 151.866174 
L 108.454721 147.389032 
L 111.73406 145.399192 
L 115.013399 134.009071 
L 118.292738 130.080851 
L 121.572076 128.691394 
L 124.851415 124.162791 
L 128.130754 122.001413 
L 131.410093 122.430258 
L 134.689432 118.776499 
L 137.968771 113.012823 
L 141.24811 107.592223 
L 144.527448 107.763761 
L 147.806787 103.955618 
L 151.086126 97.317099 
L 154.365465 94.572491 
L 157.644804 93.234495 
L 160.924143 90.112504 
L 164.203481 88.345663 
L 167.48282 86.304361 
L 170.762159 83.491138 
L 174.041498 81.998758 
L 177.320837 80.489224 
L 180.600176 79.391381 
L 183.879514 77.590232 
L 187.158853 75.703315 
L 190.438192 73.782089 
L 193.717531 72.907246 
L 196.99687 72.821477 
L 200.276209 71.277635 
L 203.555548 70.437099 
L 206.834886 70.076869 
L 210.114225 69.013334 
L 213.393564 68.533027 
L 216.672903 66.182957 
L 219.952242 66.800494 
L 223.231581 64.416116 
L 226.510919 64.021579 
L 229.790258 62.906582 
L 233.069597 61.963123 
L 236.348936 61.568586 
L 239.628275 62.048892 
L 242.907614 60.848126 
L 246.186952 60.059052 
L 249.466291 59.046978 
L 252.74563 58.480902 
L 256.024969 58.206442 
L 259.304308 55.924987 
L 262.583647 54.741375 
L 265.862986 54.363991 
L 269.142324 53.9523 
L 272.421663 54.123838 
L 275.701002 54.038069 
L 278.980341 52.305535 
L 282.25968 51.293461 
L 285.539019 49.681004 
L 288.818357 78.656105 
L 292.097696 78.530778 
L 295.377035 77.415368 
L 298.656374 77.803881 
L 301.935713 78.480647 
L 305.215052 76.58821 
L 308.49439 75.648257 
L 311.773729 76.099434 
L 315.053068 75.422668 
L 318.332407 74.357389 
L 321.611746 74.557912 
L 324.891085 75.159482 
L 328.170424 74.181931 
L 331.449762 73.492632 
L 334.729101 73.868613 
L 338.00844 73.179315 
L 341.287779 72.364689 
L 344.567118 71.850849 
L 347.846457 72.327091 
L 351.125795 71.95111 
L 354.405134 71.976176 
L 357.684473 71.462335 
L 360.963812 72.114035 
L 364.243151 71.211681 
L 367.52249 71.399671 
L 370.801829 71.562597 
L 374.081167 70.121336 
L 377.360506 70.8357 
L 380.639845 70.735438 
L 383.919184 70.434653 
L 387.198523 70.935961 
" clip-path="url(#p31c816e3fc)" style="fill: none; stroke: #c44e52; stroke-width: 1.5; stroke-linecap: round"/>
   </g>
   <g id="line2d_18">
    <path d="M 62.543977 270.330296 
L 65.823316 238.853078 
L 69.102655 214.957839 
L 72.381994 223.123047 
L 75.661333 194.853589 
L 78.940671 188.438069 
L 82.22001 175.384029 
L 85.499349 172.999651 
L 88.778688 166.601285 
L 92.058027 166.03521 
L 95.337366 165.04029 
L 98.616705 165.194674 
L 101.896043 162.60445 
L 105.175382 162.60445 
L 108.454721 159.345229 
L 111.73406 157.90431 
L 115.013399 160.494533 
L 118.292738 159.602536 
L 121.572076 159.602536 
L 124.851415 153.735937 
L 128.130754 148.795644 
L 131.410093 147.697801 
L 134.689432 149.241643 
L 137.968771 141.934125 
L 141.24811 143.237814 
L 144.527448 140.716205 
L 147.806787 139.069441 
L 151.086126 135.141221 
L 154.365465 134.111994 
L 157.644804 133.511611 
L 160.924143 132.173614 
L 164.203481 130.063697 
L 167.48282 128.125318 
L 170.762159 127.559243 
L 174.041498 126.358477 
L 177.320837 126.855937 
L 180.600176 125.329249 
L 183.879514 123.064948 
L 187.158853 122.39595 
L 190.438192 119.479805 
L 193.717531 118.038886 
L 196.99687 117.266965 
L 200.276209 118.141808 
L 203.555548 117.575733 
L 206.834886 114.590972 
L 210.114225 116.014738 
L 213.393564 117.404195 
L 216.672903 115.585893 
L 219.952242 111.743442 
L 223.231581 108.964527 
L 226.510919 108.70722 
L 229.790258 107.986761 
L 233.069597 107.249147 
L 236.348936 105.242153 
L 239.628275 104.916231 
L 242.907614 101.502625 
L 246.186952 102.446084 
L 249.466291 99.615708 
L 252.74563 99.358401 
L 256.024969 102.754853 
L 259.304308 98.637941 
L 262.583647 98.36348 
L 265.862986 97.814559 
L 269.142324 96.082025 
L 272.421663 95.790411 
L 275.701002 96.613793 
L 278.980341 99.22117 
L 282.25968 97.745944 
L 285.539019 94.02357 
L 288.818357 119.738298 
L 292.097696 118.25944 
L 295.377035 118.021318 
L 298.656374 115.915825 
L 301.935713 116.843244 
L 305.215052 116.016086 
L 308.49439 115.264124 
L 311.773729 116.692852 
L 315.053068 114.336704 
L 318.332407 113.935658 
L 321.611746 114.863078 
L 324.891085 115.101199 
L 328.170424 112.895444 
L 331.449762 112.293874 
L 334.729101 113.672471 
L 338.00844 112.707453 
L 341.287779 113.020771 
L 344.567118 112.757584 
L 347.846457 112.419201 
L 351.125795 112.494397 
L 354.405134 112.920509 
L 357.684473 111.466716 
L 360.963812 110.439034 
L 364.243151 110.00039 
L 367.52249 110.501698 
L 370.801829 111.328856 
L 374.081167 110.764885 
L 377.360506 110.037988 
L 380.639845 108.208214 
L 383.919184 109.135633 
L 387.198523 109.185764 
" clip-path="url(#p31c816e3fc)" style="fill: none; stroke: #8172b3; stroke-width: 1.5; stroke-linecap: round"/>
   </g>
   <g id="line2d_19"/>
   <g id="line2d_20"/>
   <g id="line2d_21"/>
   <g id="line2d_22"/>
   <g id="line2d_23"/>
   <g id="patch_3">
    <path d="M 46.31125 288.430125 
L 46.31125 22.318125 
" style="fill: none; stroke: #cccccc; stroke-width: 1.25; stroke-linejoin: miter; stroke-linecap: square"/>
   </g>
   <g id="patch_4">
    <path d="M 403.43125 288.430125 
L 403.43125 22.318125 
" style="fill: none; stroke: #cccccc; stroke-width: 1.25; stroke-linejoin: miter; stroke-linecap: square"/>
   </g>
   <g id="patch_5">
    <path d="M 46.31125 288.430125 
L 403.43125 288.430125 
" style="fill: none; stroke: #cccccc; stroke-width: 1.25; stroke-linejoin: miter; stroke-linecap: square"/>
   </g>
   <g id="patch_6">
    <path d="M 46.31125 22.318125 
L 403.43125 22.318125 
" style="fill: none; stroke: #cccccc; stroke-width: 1.25; stroke-linejoin: miter; stroke-linecap: square"/>
   </g>
   <g id="text_16">
    <!-- Exp. 4 (CIFAR-10) -->
    <g style="fill: #262626" transform="translate(172.803438 16.318125) scale(0.12 -0.12)">
     <defs>
      <path id="DejaVuSans-45" d="M 628 4666 
L 3578 4666 
L 3578 4134 
L 1259 4134 
L 1259 2753 
L 3481 2753 
L 3481 2222 
L 1259 2222 
L 1259 531 
L 3634 531 
L 3634 0 
L 628 0 
L 628 4666 
z
" transform="scale(0.015625)"/>
      <path id="DejaVuSans-78" d="M 3513 3500 
L 2247 1797 
L 3578 0 
L 2900 0 
L 1881 1375 
L 863 0 
L 184 0 
L 1544 1831 
L 300 3500 
L 978 3500 
L 1906 2253 
L 2834 3500 
L 3513 3500 
z
" transform="scale(0.015625)"/>
      <path id="DejaVuSans-70" d="M 1159 525 
L 1159 -1331 
L 581 -1331 
L 581 3500 
L 1159 3500 
L 1159 2969 
Q 1341 3281 1617 3432 
Q 1894 3584 2278 3584 
Q 2916 3584 3314 3078 
Q 3713 2572 3713 1747 
Q 3713 922 3314 415 
Q 2916 -91 2278 -91 
Q 1894 -91 1617 61 
Q 1341 213 1159 525 
z
M 3116 1747 
Q 3116 2381 2855 2742 
Q 2594 3103 2138 3103 
Q 1681 3103 1420 2742 
Q 1159 2381 1159 1747 
Q 1159 1113 1420 752 
Q 1681 391 2138 391 
Q 2594 391 2855 752 
Q 3116 1113 3116 1747 
z
" transform="scale(0.015625)"/>
      <path id="DejaVuSans-2e" d="M 684 794 
L 1344 794 
L 1344 0 
L 684 0 
L 684 794 
z
" transform="scale(0.015625)"/>
      <path id="DejaVuSans-43" d="M 4122 4306 
L 4122 3641 
Q 3803 3938 3442 4084 
Q 3081 4231 2675 4231 
Q 1875 4231 1450 3742 
Q 1025 3253 1025 2328 
Q 1025 1406 1450 917 
Q 1875 428 2675 428 
Q 3081 428 3442 575 
Q 3803 722 4122 1019 
L 4122 359 
Q 3791 134 3420 21 
Q 3050 -91 2638 -91 
Q 1578 -91 968 557 
Q 359 1206 359 2328 
Q 359 3453 968 4101 
Q 1578 4750 2638 4750 
Q 3056 4750 3426 4639 
Q 3797 4528 4122 4306 
z
" transform="scale(0.015625)"/>
      <path id="DejaVuSans-49" d="M 628 4666 
L 1259 4666 
L 1259 0 
L 628 0 
L 628 4666 
z
" transform="scale(0.015625)"/>
      <path id="DejaVuSans-46" d="M 628 4666 
L 3309 4666 
L 3309 4134 
L 1259 4134 
L 1259 2759 
L 3109 2759 
L 3109 2228 
L 1259 2228 
L 1259 0 
L 628 0 
L 628 4666 
z
" transform="scale(0.015625)"/>
      <path id="DejaVuSans-52" d="M 2841 2188 
Q 3044 2119 3236 1894 
Q 3428 1669 3622 1275 
L 4263 0 
L 3584 0 
L 2988 1197 
Q 2756 1666 2539 1819 
Q 2322 1972 1947 1972 
L 1259 1972 
L 1259 0 
L 628 0 
L 628 4666 
L 2053 4666 
Q 2853 4666 3247 4331 
Q 3641 3997 3641 3322 
Q 3641 2881 3436 2590 
Q 3231 2300 2841 2188 
z
M 1259 4147 
L 1259 2491 
L 2053 2491 
Q 2509 2491 2742 2702 
Q 2975 2913 2975 3322 
Q 2975 3731 2742 3939 
Q 2509 4147 2053 4147 
L 1259 4147 
z
" transform="scale(0.015625)"/>
      <path id="DejaVuSans-2d" d="M 313 2009 
L 1997 2009 
L 1997 1497 
L 313 1497 
L 313 2009 
z
" transform="scale(0.015625)"/>
     </defs>
     <use xlink:href="#DejaVuSans-45"/>
     <use xlink:href="#DejaVuSans-78" x="63.183594"/>
     <use xlink:href="#DejaVuSans-70" x="122.363281"/>
     <use xlink:href="#DejaVuSans-2e" x="185.839844"/>
     <use xlink:href="#DejaVuSans-20" x="217.626953"/>
     <use xlink:href="#DejaVuSans-34" x="249.414062"/>
     <use xlink:href="#DejaVuSans-20" x="313.037109"/>
     <use xlink:href="#DejaVuSans-28" x="344.824219"/>
     <use xlink:href="#DejaVuSans-43" x="383.837891"/>
     <use xlink:href="#DejaVuSans-49" x="453.662109"/>
     <use xlink:href="#DejaVuSans-46" x="483.154297"/>
     <use xlink:href="#DejaVuSans-41" x="531.548828"/>
     <use xlink:href="#DejaVuSans-52" x="599.957031"/>
     <use xlink:href="#DejaVuSans-2d" x="665.439453"/>
     <use xlink:href="#DejaVuSans-31" x="701.523438"/>
     <use xlink:href="#DejaVuSans-30" x="765.146484"/>
     <use xlink:href="#DejaVuSans-29" x="828.769531"/>
    </g>
   </g>
   <g id="legend_1">
    <g id="patch_7">
     <path d="M 291.746875 282.930125 
L 395.73125 282.930125 
Q 397.93125 282.930125 397.93125 280.730125 
L 397.93125 183.986687 
Q 397.93125 181.786687 395.73125 181.786687 
L 291.746875 181.786687 
Q 289.546875 181.786687 289.546875 183.986687 
L 289.546875 280.730125 
Q 289.546875 282.930125 291.746875 282.930125 
z
" style="fill: #ffffff; opacity: 0.8; stroke: #cccccc; stroke-linejoin: miter"/>
    </g>
    <g id="text_17">
     <!-- Strategy -->
     <g style="fill: #262626" transform="translate(318.03 195.304812) scale(0.12 -0.12)">
      <use xlink:href="#DejaVuSans-53"/>
      <use xlink:href="#DejaVuSans-74" x="63.476562"/>
      <use xlink:href="#DejaVuSans-72" x="102.685547"/>
      <use xlink:href="#DejaVuSans-61" x="143.798828"/>
      <use xlink:href="#DejaVuSans-74" x="205.078125"/>
      <use xlink:href="#DejaVuSans-65" x="244.287109"/>
      <use xlink:href="#DejaVuSans-67" x="305.810547"/>
      <use xlink:href="#DejaVuSans-79" x="369.287109"/>
     </g>
    </g>
    <g id="line2d_24">
     <path d="M 293.946875 207.808719 
L 304.946875 207.808719 
L 315.946875 207.808719 
" style="fill: none; stroke: #4c72b0; stroke-width: 1.5; stroke-linecap: round"/>
    </g>
    <g id="text_18">
     <!-- FedPredict -->
     <g style="fill: #262626" transform="translate(324.746875 211.658719) scale(0.11 -0.11)">
      <defs>
       <path id="DejaVuSans-50" d="M 1259 4147 
L 1259 2394 
L 2053 2394 
Q 2494 2394 2734 2622 
Q 2975 2850 2975 3272 
Q 2975 3691 2734 3919 
Q 2494 4147 2053 4147 
L 1259 4147 
z
M 628 4666 
L 2053 4666 
Q 2838 4666 3239 4311 
Q 3641 3956 3641 3272 
Q 3641 2581 3239 2228 
Q 2838 1875 2053 1875 
L 1259 1875 
L 1259 0 
L 628 0 
L 628 4666 
z
" transform="scale(0.015625)"/>
       <path id="DejaVuSans-69" d="M 603 3500 
L 1178 3500 
L 1178 0 
L 603 0 
L 603 3500 
z
M 603 4863 
L 1178 4863 
L 1178 4134 
L 603 4134 
L 603 4863 
z
" transform="scale(0.015625)"/>
      </defs>
      <use xlink:href="#DejaVuSans-46"/>
      <use xlink:href="#DejaVuSans-65" x="52.019531"/>
      <use xlink:href="#DejaVuSans-64" x="113.542969"/>
      <use xlink:href="#DejaVuSans-50" x="177.019531"/>
      <use xlink:href="#DejaVuSans-72" x="235.572266"/>
      <use xlink:href="#DejaVuSans-65" x="274.435547"/>
      <use xlink:href="#DejaVuSans-64" x="335.958984"/>
      <use xlink:href="#DejaVuSans-69" x="399.435547"/>
      <use xlink:href="#DejaVuSans-63" x="427.21875"/>
      <use xlink:href="#DejaVuSans-74" x="482.199219"/>
     </g>
    </g>
    <g id="line2d_25">
     <path d="M 293.946875 223.954656 
L 304.946875 223.954656 
L 315.946875 223.954656 
" style="fill: none; stroke: #dd8452; stroke-width: 1.5; stroke-linecap: round"/>
    </g>
    <g id="text_19">
     <!-- FedAVG -->
     <g style="fill: #262626" transform="translate(324.746875 227.804656) scale(0.11 -0.11)">
      <defs>
       <path id="DejaVuSans-56" d="M 1831 0 
L 50 4666 
L 709 4666 
L 2188 738 
L 3669 4666 
L 4325 4666 
L 2547 0 
L 1831 0 
z
" transform="scale(0.015625)"/>
       <path id="DejaVuSans-47" d="M 3809 666 
L 3809 1919 
L 2778 1919 
L 2778 2438 
L 4434 2438 
L 4434 434 
Q 4069 175 3628 42 
Q 3188 -91 2688 -91 
Q 1594 -91 976 548 
Q 359 1188 359 2328 
Q 359 3472 976 4111 
Q 1594 4750 2688 4750 
Q 3144 4750 3555 4637 
Q 3966 4525 4313 4306 
L 4313 3634 
Q 3963 3931 3569 4081 
Q 3175 4231 2741 4231 
Q 1884 4231 1454 3753 
Q 1025 3275 1025 2328 
Q 1025 1384 1454 906 
Q 1884 428 2741 428 
Q 3075 428 3337 486 
Q 3600 544 3809 666 
z
" transform="scale(0.015625)"/>
      </defs>
      <use xlink:href="#DejaVuSans-46"/>
      <use xlink:href="#DejaVuSans-65" x="52.019531"/>
      <use xlink:href="#DejaVuSans-64" x="113.542969"/>
      <use xlink:href="#DejaVuSans-41" x="177.019531"/>
      <use xlink:href="#DejaVuSans-56" x="239.052734"/>
      <use xlink:href="#DejaVuSans-47" x="307.460938"/>
     </g>
    </g>
    <g id="line2d_26">
     <path d="M 293.946875 240.100594 
L 304.946875 240.100594 
L 315.946875 240.100594 
" style="fill: none; stroke: #55a868; stroke-width: 1.5; stroke-linecap: round"/>
    </g>
    <g id="text_20">
     <!-- FedClassAvg -->
     <g style="fill: #262626" transform="translate(324.746875 243.950594) scale(0.11 -0.11)">
      <defs>
       <path id="DejaVuSans-6c" d="M 603 4863 
L 1178 4863 
L 1178 0 
L 603 0 
L 603 4863 
z
" transform="scale(0.015625)"/>
       <path id="DejaVuSans-73" d="M 2834 3397 
L 2834 2853 
Q 2591 2978 2328 3040 
Q 2066 3103 1784 3103 
Q 1356 3103 1142 2972 
Q 928 2841 928 2578 
Q 928 2378 1081 2264 
Q 1234 2150 1697 2047 
L 1894 2003 
Q 2506 1872 2764 1633 
Q 3022 1394 3022 966 
Q 3022 478 2636 193 
Q 2250 -91 1575 -91 
Q 1294 -91 989 -36 
Q 684 19 347 128 
L 347 722 
Q 666 556 975 473 
Q 1284 391 1588 391 
Q 1994 391 2212 530 
Q 2431 669 2431 922 
Q 2431 1156 2273 1281 
Q 2116 1406 1581 1522 
L 1381 1569 
Q 847 1681 609 1914 
Q 372 2147 372 2553 
Q 372 3047 722 3315 
Q 1072 3584 1716 3584 
Q 2034 3584 2315 3537 
Q 2597 3491 2834 3397 
z
" transform="scale(0.015625)"/>
      </defs>
      <use xlink:href="#DejaVuSans-46"/>
      <use xlink:href="#DejaVuSans-65" x="52.019531"/>
      <use xlink:href="#DejaVuSans-64" x="113.542969"/>
      <use xlink:href="#DejaVuSans-43" x="177.019531"/>
      <use xlink:href="#DejaVuSans-6c" x="246.84375"/>
      <use xlink:href="#DejaVuSans-61" x="274.626953"/>
      <use xlink:href="#DejaVuSans-73" x="335.90625"/>
      <use xlink:href="#DejaVuSans-73" x="388.005859"/>
      <use xlink:href="#DejaVuSans-41" x="440.105469"/>
      <use xlink:href="#DejaVuSans-76" x="502.638672"/>
      <use xlink:href="#DejaVuSans-67" x="561.818359"/>
     </g>
    </g>
    <g id="line2d_27">
     <path d="M 293.946875 256.246531 
L 304.946875 256.246531 
L 315.946875 256.246531 
" style="fill: none; stroke: #c44e52; stroke-width: 1.5; stroke-linecap: round"/>
    </g>
    <g id="text_21">
     <!-- FedPer -->
     <g style="fill: #262626" transform="translate(324.746875 260.096531) scale(0.11 -0.11)">
      <use xlink:href="#DejaVuSans-46"/>
      <use xlink:href="#DejaVuSans-65" x="52.019531"/>
      <use xlink:href="#DejaVuSans-64" x="113.542969"/>
      <use xlink:href="#DejaVuSans-50" x="177.019531"/>
      <use xlink:href="#DejaVuSans-65" x="233.697266"/>
      <use xlink:href="#DejaVuSans-72" x="295.220703"/>
     </g>
    </g>
    <g id="line2d_28">
     <path d="M 293.946875 272.392469 
L 304.946875 272.392469 
L 315.946875 272.392469 
" style="fill: none; stroke: #8172b3; stroke-width: 1.5; stroke-linecap: round"/>
    </g>
    <g id="text_22">
     <!-- FedProto -->
     <g style="fill: #262626" transform="translate(324.746875 276.242469) scale(0.11 -0.11)">
      <use xlink:href="#DejaVuSans-46"/>
      <use xlink:href="#DejaVuSans-65" x="52.019531"/>
      <use xlink:href="#DejaVuSans-64" x="113.542969"/>
      <use xlink:href="#DejaVuSans-50" x="177.019531"/>
      <use xlink:href="#DejaVuSans-72" x="235.572266"/>
      <use xlink:href="#DejaVuSans-6f" x="274.435547"/>
      <use xlink:href="#DejaVuSans-74" x="335.617188"/>
      <use xlink:href="#DejaVuSans-6f" x="374.826172"/>
     </g>
    </g>
   </g>
  </g>
 </g>
 <defs>
  <clipPath id="p31c816e3fc">
   <rect x="46.31125" y="22.318125" width="357.12" height="266.112"/>
  </clipPath>
 </defs>
</svg>
