<?xml version="1.0" encoding="utf-8" standalone="no"?>
<!DOCTYPE svg PUBLIC "-//W3C//DTD SVG 1.1//EN"
  "http://www.w3.org/Graphics/SVG/1.1/DTD/svg11.dtd">
<svg xmlns:xlink="http://www.w3.org/1999/xlink" width="410.63125pt" height="316.271687pt" viewBox="0 0 410.63125 316.271687" xmlns="http://www.w3.org/2000/svg" version="1.1">
 <metadata>
  <rdf:RDF xmlns:dc="http://purl.org/dc/elements/1.1/" xmlns:cc="http://creativecommons.org/ns#" xmlns:rdf="http://www.w3.org/1999/02/22-rdf-syntax-ns#">
   <cc:Work>
    <dc:type rdf:resource="http://purl.org/dc/dcmitype/StillImage"/>
    <dc:date>2023-02-09T18:14:28.191856</dc:date>
    <dc:format>image/svg+xml</dc:format>
    <dc:creator>
     <cc:Agent>
      <dc:title>Matplotlib v3.6.3, https://matplotlib.org/</dc:title>
     </cc:Agent>
    </dc:creator>
   </cc:Work>
  </rdf:RDF>
 </metadata>
 <defs>
  <style type="text/css">*{stroke-linejoin: round; stroke-linecap: butt}</style>
 </defs>
 <g id="figure_1">
  <g id="patch_1">
   <path d="M 0 316.271687 
L 410.63125 316.271687 
L 410.63125 0 
L 0 0 
z
" style="fill: #ffffff"/>
  </g>
  <g id="axes_1">
   <g id="patch_2">
    <path d="M 46.31125 273.312 
L 403.43125 273.312 
L 403.43125 7.2 
L 46.31125 7.2 
z
" style="fill: #ffffff"/>
   </g>
   <g id="matplotlib.axis_1">
    <g id="xtick_1">
     <g id="line2d_1">
      <path d="M 59.264638 273.312 
L 59.264638 7.2 
" clip-path="url(#p14653c895f)" style="fill: none; stroke: #cccccc; stroke-linecap: round"/>
     </g>
     <g id="text_1">
      <!-- 0 -->
      <g style="fill: #262626" transform="translate(55.765263 291.170281) scale(0.11 -0.11)">
       <defs>
        <path id="DejaVuSans-30" d="M 2034 4250 
Q 1547 4250 1301 3770 
Q 1056 3291 1056 2328 
Q 1056 1369 1301 889 
Q 1547 409 2034 409 
Q 2525 409 2770 889 
Q 3016 1369 3016 2328 
Q 3016 3291 2770 3770 
Q 2525 4250 2034 4250 
z
M 2034 4750 
Q 2819 4750 3233 4129 
Q 3647 3509 3647 2328 
Q 3647 1150 3233 529 
Q 2819 -91 2034 -91 
Q 1250 -91 836 529 
Q 422 1150 422 2328 
Q 422 3509 836 4129 
Q 1250 4750 2034 4750 
z
" transform="scale(0.015625)"/>
       </defs>
       <use xlink:href="#DejaVuSans-30"/>
      </g>
     </g>
    </g>
    <g id="xtick_2">
     <g id="line2d_2">
      <path d="M 124.851415 273.312 
L 124.851415 7.2 
" clip-path="url(#p14653c895f)" style="fill: none; stroke: #cccccc; stroke-linecap: round"/>
     </g>
     <g id="text_2">
      <!-- 20 -->
      <g style="fill: #262626" transform="translate(117.852665 291.170281) scale(0.11 -0.11)">
       <defs>
        <path id="DejaVuSans-32" d="M 1228 531 
L 3431 531 
L 3431 0 
L 469 0 
L 469 531 
Q 828 903 1448 1529 
Q 2069 2156 2228 2338 
Q 2531 2678 2651 2914 
Q 2772 3150 2772 3378 
Q 2772 3750 2511 3984 
Q 2250 4219 1831 4219 
Q 1534 4219 1204 4116 
Q 875 4013 500 3803 
L 500 4441 
Q 881 4594 1212 4672 
Q 1544 4750 1819 4750 
Q 2544 4750 2975 4387 
Q 3406 4025 3406 3419 
Q 3406 3131 3298 2873 
Q 3191 2616 2906 2266 
Q 2828 2175 2409 1742 
Q 1991 1309 1228 531 
z
" transform="scale(0.015625)"/>
       </defs>
       <use xlink:href="#DejaVuSans-32"/>
       <use xlink:href="#DejaVuSans-30" x="63.623047"/>
      </g>
     </g>
    </g>
    <g id="xtick_3">
     <g id="line2d_3">
      <path d="M 190.438192 273.312 
L 190.438192 7.2 
" clip-path="url(#p14653c895f)" style="fill: none; stroke: #cccccc; stroke-linecap: round"/>
     </g>
     <g id="text_3">
      <!-- 40 -->
      <g style="fill: #262626" transform="translate(183.439442 291.170281) scale(0.11 -0.11)">
       <defs>
        <path id="DejaVuSans-34" d="M 2419 4116 
L 825 1625 
L 2419 1625 
L 2419 4116 
z
M 2253 4666 
L 3047 4666 
L 3047 1625 
L 3713 1625 
L 3713 1100 
L 3047 1100 
L 3047 0 
L 2419 0 
L 2419 1100 
L 313 1100 
L 313 1709 
L 2253 4666 
z
" transform="scale(0.015625)"/>
       </defs>
       <use xlink:href="#DejaVuSans-34"/>
       <use xlink:href="#DejaVuSans-30" x="63.623047"/>
      </g>
     </g>
    </g>
    <g id="xtick_4">
     <g id="line2d_4">
      <path d="M 256.024969 273.312 
L 256.024969 7.2 
" clip-path="url(#p14653c895f)" style="fill: none; stroke: #cccccc; stroke-linecap: round"/>
     </g>
     <g id="text_4">
      <!-- 60 -->
      <g style="fill: #262626" transform="translate(249.026219 291.170281) scale(0.11 -0.11)">
       <defs>
        <path id="DejaVuSans-36" d="M 2113 2584 
Q 1688 2584 1439 2293 
Q 1191 2003 1191 1497 
Q 1191 994 1439 701 
Q 1688 409 2113 409 
Q 2538 409 2786 701 
Q 3034 994 3034 1497 
Q 3034 2003 2786 2293 
Q 2538 2584 2113 2584 
z
M 3366 4563 
L 3366 3988 
Q 3128 4100 2886 4159 
Q 2644 4219 2406 4219 
Q 1781 4219 1451 3797 
Q 1122 3375 1075 2522 
Q 1259 2794 1537 2939 
Q 1816 3084 2150 3084 
Q 2853 3084 3261 2657 
Q 3669 2231 3669 1497 
Q 3669 778 3244 343 
Q 2819 -91 2113 -91 
Q 1303 -91 875 529 
Q 447 1150 447 2328 
Q 447 3434 972 4092 
Q 1497 4750 2381 4750 
Q 2619 4750 2861 4703 
Q 3103 4656 3366 4563 
z
" transform="scale(0.015625)"/>
       </defs>
       <use xlink:href="#DejaVuSans-36"/>
       <use xlink:href="#DejaVuSans-30" x="63.623047"/>
      </g>
     </g>
    </g>
    <g id="xtick_5">
     <g id="line2d_5">
      <path d="M 321.611746 273.312 
L 321.611746 7.2 
" clip-path="url(#p14653c895f)" style="fill: none; stroke: #cccccc; stroke-linecap: round"/>
     </g>
     <g id="text_5">
      <!-- 80 -->
      <g style="fill: #262626" transform="translate(314.612996 291.170281) scale(0.11 -0.11)">
       <defs>
        <path id="DejaVuSans-38" d="M 2034 2216 
Q 1584 2216 1326 1975 
Q 1069 1734 1069 1313 
Q 1069 891 1326 650 
Q 1584 409 2034 409 
Q 2484 409 2743 651 
Q 3003 894 3003 1313 
Q 3003 1734 2745 1975 
Q 2488 2216 2034 2216 
z
M 1403 2484 
Q 997 2584 770 2862 
Q 544 3141 544 3541 
Q 544 4100 942 4425 
Q 1341 4750 2034 4750 
Q 2731 4750 3128 4425 
Q 3525 4100 3525 3541 
Q 3525 3141 3298 2862 
Q 3072 2584 2669 2484 
Q 3125 2378 3379 2068 
Q 3634 1759 3634 1313 
Q 3634 634 3220 271 
Q 2806 -91 2034 -91 
Q 1263 -91 848 271 
Q 434 634 434 1313 
Q 434 1759 690 2068 
Q 947 2378 1403 2484 
z
M 1172 3481 
Q 1172 3119 1398 2916 
Q 1625 2713 2034 2713 
Q 2441 2713 2670 2916 
Q 2900 3119 2900 3481 
Q 2900 3844 2670 4047 
Q 2441 4250 2034 4250 
Q 1625 4250 1398 4047 
Q 1172 3844 1172 3481 
z
" transform="scale(0.015625)"/>
       </defs>
       <use xlink:href="#DejaVuSans-38"/>
       <use xlink:href="#DejaVuSans-30" x="63.623047"/>
      </g>
     </g>
    </g>
    <g id="xtick_6">
     <g id="line2d_6">
      <path d="M 387.198523 273.312 
L 387.198523 7.2 
" clip-path="url(#p14653c895f)" style="fill: none; stroke: #cccccc; stroke-linecap: round"/>
     </g>
     <g id="text_6">
      <!-- 100 -->
      <g style="fill: #262626" transform="translate(376.700398 291.170281) scale(0.11 -0.11)">
       <defs>
        <path id="DejaVuSans-31" d="M 794 531 
L 1825 531 
L 1825 4091 
L 703 3866 
L 703 4441 
L 1819 4666 
L 2450 4666 
L 2450 531 
L 3481 531 
L 3481 0 
L 794 0 
L 794 531 
z
" transform="scale(0.015625)"/>
       </defs>
       <use xlink:href="#DejaVuSans-31"/>
       <use xlink:href="#DejaVuSans-30" x="63.623047"/>
       <use xlink:href="#DejaVuSans-30" x="127.246094"/>
      </g>
     </g>
    </g>
    <g id="text_7">
     <!-- Server round -->
     <g style="fill: #262626" transform="translate(185.870313 306.576062) scale(0.12 -0.12)">
      <defs>
       <path id="DejaVuSans-53" d="M 3425 4513 
L 3425 3897 
Q 3066 4069 2747 4153 
Q 2428 4238 2131 4238 
Q 1616 4238 1336 4038 
Q 1056 3838 1056 3469 
Q 1056 3159 1242 3001 
Q 1428 2844 1947 2747 
L 2328 2669 
Q 3034 2534 3370 2195 
Q 3706 1856 3706 1288 
Q 3706 609 3251 259 
Q 2797 -91 1919 -91 
Q 1588 -91 1214 -16 
Q 841 59 441 206 
L 441 856 
Q 825 641 1194 531 
Q 1563 422 1919 422 
Q 2459 422 2753 634 
Q 3047 847 3047 1241 
Q 3047 1584 2836 1778 
Q 2625 1972 2144 2069 
L 1759 2144 
Q 1053 2284 737 2584 
Q 422 2884 422 3419 
Q 422 4038 858 4394 
Q 1294 4750 2059 4750 
Q 2388 4750 2728 4690 
Q 3069 4631 3425 4513 
z
" transform="scale(0.015625)"/>
       <path id="DejaVuSans-65" d="M 3597 1894 
L 3597 1613 
L 953 1613 
Q 991 1019 1311 708 
Q 1631 397 2203 397 
Q 2534 397 2845 478 
Q 3156 559 3463 722 
L 3463 178 
Q 3153 47 2828 -22 
Q 2503 -91 2169 -91 
Q 1331 -91 842 396 
Q 353 884 353 1716 
Q 353 2575 817 3079 
Q 1281 3584 2069 3584 
Q 2775 3584 3186 3129 
Q 3597 2675 3597 1894 
z
M 3022 2063 
Q 3016 2534 2758 2815 
Q 2500 3097 2075 3097 
Q 1594 3097 1305 2825 
Q 1016 2553 972 2059 
L 3022 2063 
z
" transform="scale(0.015625)"/>
       <path id="DejaVuSans-72" d="M 2631 2963 
Q 2534 3019 2420 3045 
Q 2306 3072 2169 3072 
Q 1681 3072 1420 2755 
Q 1159 2438 1159 1844 
L 1159 0 
L 581 0 
L 581 3500 
L 1159 3500 
L 1159 2956 
Q 1341 3275 1631 3429 
Q 1922 3584 2338 3584 
Q 2397 3584 2469 3576 
Q 2541 3569 2628 3553 
L 2631 2963 
z
" transform="scale(0.015625)"/>
       <path id="DejaVuSans-76" d="M 191 3500 
L 800 3500 
L 1894 563 
L 2988 3500 
L 3597 3500 
L 2284 0 
L 1503 0 
L 191 3500 
z
" transform="scale(0.015625)"/>
       <path id="DejaVuSans-20" transform="scale(0.015625)"/>
       <path id="DejaVuSans-6f" d="M 1959 3097 
Q 1497 3097 1228 2736 
Q 959 2375 959 1747 
Q 959 1119 1226 758 
Q 1494 397 1959 397 
Q 2419 397 2687 759 
Q 2956 1122 2956 1747 
Q 2956 2369 2687 2733 
Q 2419 3097 1959 3097 
z
M 1959 3584 
Q 2709 3584 3137 3096 
Q 3566 2609 3566 1747 
Q 3566 888 3137 398 
Q 2709 -91 1959 -91 
Q 1206 -91 779 398 
Q 353 888 353 1747 
Q 353 2609 779 3096 
Q 1206 3584 1959 3584 
z
" transform="scale(0.015625)"/>
       <path id="DejaVuSans-75" d="M 544 1381 
L 544 3500 
L 1119 3500 
L 1119 1403 
Q 1119 906 1312 657 
Q 1506 409 1894 409 
Q 2359 409 2629 706 
Q 2900 1003 2900 1516 
L 2900 3500 
L 3475 3500 
L 3475 0 
L 2900 0 
L 2900 538 
Q 2691 219 2414 64 
Q 2138 -91 1772 -91 
Q 1169 -91 856 284 
Q 544 659 544 1381 
z
M 1991 3584 
L 1991 3584 
z
" transform="scale(0.015625)"/>
       <path id="DejaVuSans-6e" d="M 3513 2113 
L 3513 0 
L 2938 0 
L 2938 2094 
Q 2938 2591 2744 2837 
Q 2550 3084 2163 3084 
Q 1697 3084 1428 2787 
Q 1159 2491 1159 1978 
L 1159 0 
L 581 0 
L 581 3500 
L 1159 3500 
L 1159 2956 
Q 1366 3272 1645 3428 
Q 1925 3584 2291 3584 
Q 2894 3584 3203 3211 
Q 3513 2838 3513 2113 
z
" transform="scale(0.015625)"/>
       <path id="DejaVuSans-64" d="M 2906 2969 
L 2906 4863 
L 3481 4863 
L 3481 0 
L 2906 0 
L 2906 525 
Q 2725 213 2448 61 
Q 2172 -91 1784 -91 
Q 1150 -91 751 415 
Q 353 922 353 1747 
Q 353 2572 751 3078 
Q 1150 3584 1784 3584 
Q 2172 3584 2448 3432 
Q 2725 3281 2906 2969 
z
M 947 1747 
Q 947 1113 1208 752 
Q 1469 391 1925 391 
Q 2381 391 2643 752 
Q 2906 1113 2906 1747 
Q 2906 2381 2643 2742 
Q 2381 3103 1925 3103 
Q 1469 3103 1208 2742 
Q 947 2381 947 1747 
z
" transform="scale(0.015625)"/>
      </defs>
      <use xlink:href="#DejaVuSans-53"/>
      <use xlink:href="#DejaVuSans-65" x="63.476562"/>
      <use xlink:href="#DejaVuSans-72" x="125"/>
      <use xlink:href="#DejaVuSans-76" x="166.113281"/>
      <use xlink:href="#DejaVuSans-65" x="225.292969"/>
      <use xlink:href="#DejaVuSans-72" x="286.816406"/>
      <use xlink:href="#DejaVuSans-20" x="327.929688"/>
      <use xlink:href="#DejaVuSans-72" x="359.716797"/>
      <use xlink:href="#DejaVuSans-6f" x="398.580078"/>
      <use xlink:href="#DejaVuSans-75" x="459.761719"/>
      <use xlink:href="#DejaVuSans-6e" x="523.140625"/>
      <use xlink:href="#DejaVuSans-64" x="586.519531"/>
     </g>
    </g>
   </g>
   <g id="matplotlib.axis_2">
    <g id="ytick_1">
     <g id="line2d_7">
      <path d="M 46.31125 262.821799 
L 403.43125 262.821799 
" clip-path="url(#p14653c895f)" style="fill: none; stroke: #cccccc; stroke-linecap: round"/>
     </g>
     <g id="text_8">
      <!-- 10 -->
      <g style="fill: #262626" transform="translate(22.81375 267.00094) scale(0.11 -0.11)">
       <use xlink:href="#DejaVuSans-31"/>
       <use xlink:href="#DejaVuSans-30" x="63.623047"/>
      </g>
     </g>
    </g>
    <g id="ytick_2">
     <g id="line2d_8">
      <path d="M 46.31125 227.656829 
L 403.43125 227.656829 
" clip-path="url(#p14653c895f)" style="fill: none; stroke: #cccccc; stroke-linecap: round"/>
     </g>
     <g id="text_9">
      <!-- 15 -->
      <g style="fill: #262626" transform="translate(22.81375 231.83597) scale(0.11 -0.11)">
       <defs>
        <path id="DejaVuSans-35" d="M 691 4666 
L 3169 4666 
L 3169 4134 
L 1269 4134 
L 1269 2991 
Q 1406 3038 1543 3061 
Q 1681 3084 1819 3084 
Q 2600 3084 3056 2656 
Q 3513 2228 3513 1497 
Q 3513 744 3044 326 
Q 2575 -91 1722 -91 
Q 1428 -91 1123 -41 
Q 819 9 494 109 
L 494 744 
Q 775 591 1075 516 
Q 1375 441 1709 441 
Q 2250 441 2565 725 
Q 2881 1009 2881 1497 
Q 2881 1984 2565 2268 
Q 2250 2553 1709 2553 
Q 1456 2553 1204 2497 
Q 953 2441 691 2322 
L 691 4666 
z
" transform="scale(0.015625)"/>
       </defs>
       <use xlink:href="#DejaVuSans-31"/>
       <use xlink:href="#DejaVuSans-35" x="63.623047"/>
      </g>
     </g>
    </g>
    <g id="ytick_3">
     <g id="line2d_9">
      <path d="M 46.31125 192.491859 
L 403.43125 192.491859 
" clip-path="url(#p14653c895f)" style="fill: none; stroke: #cccccc; stroke-linecap: round"/>
     </g>
     <g id="text_10">
      <!-- 20 -->
      <g style="fill: #262626" transform="translate(22.81375 196.671) scale(0.11 -0.11)">
       <use xlink:href="#DejaVuSans-32"/>
       <use xlink:href="#DejaVuSans-30" x="63.623047"/>
      </g>
     </g>
    </g>
    <g id="ytick_4">
     <g id="line2d_10">
      <path d="M 46.31125 157.326889 
L 403.43125 157.326889 
" clip-path="url(#p14653c895f)" style="fill: none; stroke: #cccccc; stroke-linecap: round"/>
     </g>
     <g id="text_11">
      <!-- 25 -->
      <g style="fill: #262626" transform="translate(22.81375 161.50603) scale(0.11 -0.11)">
       <use xlink:href="#DejaVuSans-32"/>
       <use xlink:href="#DejaVuSans-35" x="63.623047"/>
      </g>
     </g>
    </g>
    <g id="ytick_5">
     <g id="line2d_11">
      <path d="M 46.31125 122.161919 
L 403.43125 122.161919 
" clip-path="url(#p14653c895f)" style="fill: none; stroke: #cccccc; stroke-linecap: round"/>
     </g>
     <g id="text_12">
      <!-- 30 -->
      <g style="fill: #262626" transform="translate(22.81375 126.34106) scale(0.11 -0.11)">
       <defs>
        <path id="DejaVuSans-33" d="M 2597 2516 
Q 3050 2419 3304 2112 
Q 3559 1806 3559 1356 
Q 3559 666 3084 287 
Q 2609 -91 1734 -91 
Q 1441 -91 1130 -33 
Q 819 25 488 141 
L 488 750 
Q 750 597 1062 519 
Q 1375 441 1716 441 
Q 2309 441 2620 675 
Q 2931 909 2931 1356 
Q 2931 1769 2642 2001 
Q 2353 2234 1838 2234 
L 1294 2234 
L 1294 2753 
L 1863 2753 
Q 2328 2753 2575 2939 
Q 2822 3125 2822 3475 
Q 2822 3834 2567 4026 
Q 2313 4219 1838 4219 
Q 1578 4219 1281 4162 
Q 984 4106 628 3988 
L 628 4550 
Q 988 4650 1302 4700 
Q 1616 4750 1894 4750 
Q 2613 4750 3031 4423 
Q 3450 4097 3450 3541 
Q 3450 3153 3228 2886 
Q 3006 2619 2597 2516 
z
" transform="scale(0.015625)"/>
       </defs>
       <use xlink:href="#DejaVuSans-33"/>
       <use xlink:href="#DejaVuSans-30" x="63.623047"/>
      </g>
     </g>
    </g>
    <g id="ytick_6">
     <g id="line2d_12">
      <path d="M 46.31125 86.996949 
L 403.43125 86.996949 
" clip-path="url(#p14653c895f)" style="fill: none; stroke: #cccccc; stroke-linecap: round"/>
     </g>
     <g id="text_13">
      <!-- 35 -->
      <g style="fill: #262626" transform="translate(22.81375 91.17609) scale(0.11 -0.11)">
       <use xlink:href="#DejaVuSans-33"/>
       <use xlink:href="#DejaVuSans-35" x="63.623047"/>
      </g>
     </g>
    </g>
    <g id="ytick_7">
     <g id="line2d_13">
      <path d="M 46.31125 51.83198 
L 403.43125 51.83198 
" clip-path="url(#p14653c895f)" style="fill: none; stroke: #cccccc; stroke-linecap: round"/>
     </g>
     <g id="text_14">
      <!-- 40 -->
      <g style="fill: #262626" transform="translate(22.81375 56.01112) scale(0.11 -0.11)">
       <use xlink:href="#DejaVuSans-34"/>
       <use xlink:href="#DejaVuSans-30" x="63.623047"/>
      </g>
     </g>
    </g>
    <g id="ytick_8">
     <g id="line2d_14">
      <path d="M 46.31125 16.66701 
L 403.43125 16.66701 
" clip-path="url(#p14653c895f)" style="fill: none; stroke: #cccccc; stroke-linecap: round"/>
     </g>
     <g id="text_15">
      <!-- 45 -->
      <g style="fill: #262626" transform="translate(22.81375 20.84615) scale(0.11 -0.11)">
       <use xlink:href="#DejaVuSans-34"/>
       <use xlink:href="#DejaVuSans-35" x="63.623047"/>
      </g>
     </g>
    </g>
    <g id="text_16">
     <!-- Time (seconds) -->
     <g style="fill: #262626" transform="translate(16.318125 186.050062) rotate(-90) scale(0.12 -0.12)">
      <defs>
       <path id="DejaVuSans-54" d="M -19 4666 
L 3928 4666 
L 3928 4134 
L 2272 4134 
L 2272 0 
L 1638 0 
L 1638 4134 
L -19 4134 
L -19 4666 
z
" transform="scale(0.015625)"/>
       <path id="DejaVuSans-69" d="M 603 3500 
L 1178 3500 
L 1178 0 
L 603 0 
L 603 3500 
z
M 603 4863 
L 1178 4863 
L 1178 4134 
L 603 4134 
L 603 4863 
z
" transform="scale(0.015625)"/>
       <path id="DejaVuSans-6d" d="M 3328 2828 
Q 3544 3216 3844 3400 
Q 4144 3584 4550 3584 
Q 5097 3584 5394 3201 
Q 5691 2819 5691 2113 
L 5691 0 
L 5113 0 
L 5113 2094 
Q 5113 2597 4934 2840 
Q 4756 3084 4391 3084 
Q 3944 3084 3684 2787 
Q 3425 2491 3425 1978 
L 3425 0 
L 2847 0 
L 2847 2094 
Q 2847 2600 2669 2842 
Q 2491 3084 2119 3084 
Q 1678 3084 1418 2786 
Q 1159 2488 1159 1978 
L 1159 0 
L 581 0 
L 581 3500 
L 1159 3500 
L 1159 2956 
Q 1356 3278 1631 3431 
Q 1906 3584 2284 3584 
Q 2666 3584 2933 3390 
Q 3200 3197 3328 2828 
z
" transform="scale(0.015625)"/>
       <path id="DejaVuSans-28" d="M 1984 4856 
Q 1566 4138 1362 3434 
Q 1159 2731 1159 2009 
Q 1159 1288 1364 580 
Q 1569 -128 1984 -844 
L 1484 -844 
Q 1016 -109 783 600 
Q 550 1309 550 2009 
Q 550 2706 781 3412 
Q 1013 4119 1484 4856 
L 1984 4856 
z
" transform="scale(0.015625)"/>
       <path id="DejaVuSans-73" d="M 2834 3397 
L 2834 2853 
Q 2591 2978 2328 3040 
Q 2066 3103 1784 3103 
Q 1356 3103 1142 2972 
Q 928 2841 928 2578 
Q 928 2378 1081 2264 
Q 1234 2150 1697 2047 
L 1894 2003 
Q 2506 1872 2764 1633 
Q 3022 1394 3022 966 
Q 3022 478 2636 193 
Q 2250 -91 1575 -91 
Q 1294 -91 989 -36 
Q 684 19 347 128 
L 347 722 
Q 666 556 975 473 
Q 1284 391 1588 391 
Q 1994 391 2212 530 
Q 2431 669 2431 922 
Q 2431 1156 2273 1281 
Q 2116 1406 1581 1522 
L 1381 1569 
Q 847 1681 609 1914 
Q 372 2147 372 2553 
Q 372 3047 722 3315 
Q 1072 3584 1716 3584 
Q 2034 3584 2315 3537 
Q 2597 3491 2834 3397 
z
" transform="scale(0.015625)"/>
       <path id="DejaVuSans-63" d="M 3122 3366 
L 3122 2828 
Q 2878 2963 2633 3030 
Q 2388 3097 2138 3097 
Q 1578 3097 1268 2742 
Q 959 2388 959 1747 
Q 959 1106 1268 751 
Q 1578 397 2138 397 
Q 2388 397 2633 464 
Q 2878 531 3122 666 
L 3122 134 
Q 2881 22 2623 -34 
Q 2366 -91 2075 -91 
Q 1284 -91 818 406 
Q 353 903 353 1747 
Q 353 2603 823 3093 
Q 1294 3584 2113 3584 
Q 2378 3584 2631 3529 
Q 2884 3475 3122 3366 
z
" transform="scale(0.015625)"/>
       <path id="DejaVuSans-29" d="M 513 4856 
L 1013 4856 
Q 1481 4119 1714 3412 
Q 1947 2706 1947 2009 
Q 1947 1309 1714 600 
Q 1481 -109 1013 -844 
L 513 -844 
Q 928 -128 1133 580 
Q 1338 1288 1338 2009 
Q 1338 2731 1133 3434 
Q 928 4138 513 4856 
z
" transform="scale(0.015625)"/>
      </defs>
      <use xlink:href="#DejaVuSans-54"/>
      <use xlink:href="#DejaVuSans-69" x="57.958984"/>
      <use xlink:href="#DejaVuSans-6d" x="85.742188"/>
      <use xlink:href="#DejaVuSans-65" x="183.154297"/>
      <use xlink:href="#DejaVuSans-20" x="244.677734"/>
      <use xlink:href="#DejaVuSans-28" x="276.464844"/>
      <use xlink:href="#DejaVuSans-73" x="315.478516"/>
      <use xlink:href="#DejaVuSans-65" x="367.578125"/>
      <use xlink:href="#DejaVuSans-63" x="429.101562"/>
      <use xlink:href="#DejaVuSans-6f" x="484.082031"/>
      <use xlink:href="#DejaVuSans-6e" x="545.263672"/>
      <use xlink:href="#DejaVuSans-64" x="608.642578"/>
      <use xlink:href="#DejaVuSans-73" x="672.119141"/>
      <use xlink:href="#DejaVuSans-29" x="724.21875"/>
     </g>
    </g>
   </g>
   <g id="PolyCollection_1"/>
   <g id="PolyCollection_2"/>
   <g id="PolyCollection_3"/>
   <g id="PolyCollection_4"/>
   <g id="PolyCollection_5"/>
   <g id="line2d_15">
    <path d="M 62.543977 52.671488 
L 65.823316 139.08986 
L 69.102655 129.428459 
L 72.381994 131.21358 
L 75.661333 97.293536 
L 78.940671 132.678921 
L 82.22001 145.490207 
L 85.499349 104.881803 
L 88.778688 146.518528 
L 92.058027 108.252263 
L 95.337366 140.918759 
L 98.616705 146.349804 
L 101.896043 141.433297 
L 105.175382 138.93365 
L 108.454721 136.767935 
L 111.73406 123.976423 
L 115.013399 136.321644 
L 118.292738 108.274519 
L 121.572076 126.339985 
L 124.851415 122.79013 
L 128.130754 127.2279 
L 131.410093 132.757675 
L 134.689432 150.845793 
L 137.968771 143.713566 
L 141.24811 109.255434 
L 144.527448 186.155648 
L 147.806787 158.867322 
L 151.086126 120.347443 
L 154.365465 171.242127 
L 157.644804 127.713211 
L 160.924143 153.457437 
L 164.203481 130.149267 
L 167.48282 144.192083 
L 170.762159 129.341467 
L 174.041498 120.093695 
L 177.320837 150.837794 
L 180.600176 116.05587 
L 183.879514 143.116454 
L 187.158853 133.048505 
L 190.438192 140.206524 
L 193.717531 122.47731 
L 196.99687 146.337529 
L 200.276209 159.698082 
L 203.555548 118.331213 
L 206.834886 148.188245 
L 210.114225 149.057987 
L 213.393564 168.475773 
L 216.672903 129.729161 
L 219.952242 150.038053 
L 223.231581 135.580005 
L 226.510919 147.951754 
L 229.790258 133.430359 
L 233.069597 141.567756 
L 236.348936 115.094093 
L 239.628275 135.484892 
L 242.907614 130.476294 
L 246.186952 127.165815 
L 249.466291 137.756636 
L 252.74563 131.201443 
L 256.024969 143.920463 
L 259.304308 140.661184 
L 262.583647 150.064104 
L 265.862986 122.544331 
L 269.142324 125.21241 
L 272.421663 134.543272 
L 275.701002 125.3501 
L 278.980341 145.201864 
L 282.25968 135.560093 
L 285.539019 128.481202 
L 288.818357 115.707739 
L 292.097696 122.032558 
L 295.377035 100.065403 
L 298.656374 88.768753 
L 301.935713 105.554485 
L 305.215052 117.306997 
L 308.49439 98.072933 
L 311.773729 103.070858 
L 315.053068 132.877965 
L 318.332407 106.433562 
L 321.611746 119.590897 
L 324.891085 108.65325 
L 328.170424 96.114399 
L 331.449762 112.255763 
L 334.729101 123.044463 
L 338.00844 101.311113 
L 341.287779 105.708006 
L 344.567118 111.684534 
L 347.846457 113.923538 
L 351.125795 124.013794 
L 354.405134 112.778647 
L 357.684473 120.720738 
L 360.963812 101.676952 
L 364.243151 183.242521 
L 367.52249 139.599393 
L 370.801829 100.048165 
L 374.081167 131.031579 
L 377.360506 124.396923 
L 380.639845 118.872333 
L 383.919184 110.693381 
L 387.198523 129.123239 
" clip-path="url(#p14653c895f)" style="fill: none; stroke: #4c72b0; stroke-width: 1.5; stroke-linecap: round"/>
   </g>
   <g id="line2d_16">
    <path d="M 62.543977 38.969562 
L 65.823316 139.611376 
L 69.102655 137.090462 
L 72.381994 153.625393 
L 75.661333 114.039177 
L 78.940671 129.374098 
L 82.22001 138.711134 
L 85.499349 132.496292 
L 88.778688 152.144059 
L 92.058027 150.394441 
L 95.337366 139.982265 
L 98.616705 151.42723 
L 101.896043 157.825953 
L 105.175382 130.969849 
L 108.454721 148.426643 
L 111.73406 117.214671 
L 115.013399 148.037809 
L 118.292738 124.794004 
L 121.572076 132.637071 
L 124.851415 154.117513 
L 128.130754 114.738549 
L 131.410093 151.992866 
L 134.689432 139.359977 
L 137.968771 154.491422 
L 141.24811 128.118284 
L 144.527448 126.076622 
L 147.806787 144.886059 
L 151.086126 129.836959 
L 154.365465 160.879069 
L 157.644804 147.650976 
L 160.924143 145.000261 
L 164.203481 162.281687 
L 167.48282 134.837798 
L 170.762159 130.192411 
L 174.041498 140.671881 
L 177.320837 149.097847 
L 180.600176 137.250748 
L 183.879514 137.065927 
L 187.158853 134.881416 
L 190.438192 137.179419 
L 193.717531 110.36068 
L 196.99687 157.023493 
L 200.276209 136.443284 
L 203.555548 120.393136 
L 206.834886 152.159061 
L 210.114225 134.942366 
L 213.393564 152.789819 
L 216.672903 141.602637 
L 219.952242 148.607085 
L 223.231581 129.131098 
L 226.510919 113.952946 
L 229.790258 135.347038 
L 233.069597 114.930507 
L 236.348936 140.672652 
L 239.628275 105.910212 
L 242.907614 144.751744 
L 246.186952 146.003694 
L 249.466291 109.764027 
L 252.74563 203.085759 
L 256.024969 159.385855 
L 259.304308 127.336981 
L 262.583647 139.295677 
L 265.862986 112.40966 
L 269.142324 119.56944 
L 272.421663 113.660503 
L 275.701002 150.612891 
L 278.980341 149.167824 
L 282.25968 118.612039 
L 285.539019 129.4648 
L 288.818357 109.504499 
L 292.097696 94.159273 
L 295.377035 97.236838 
L 298.656374 83.276846 
L 301.935713 81.175699 
L 305.215052 103.08649 
L 308.49439 98.674316 
L 311.773729 109.43271 
L 315.053068 136.618772 
L 318.332407 86.098014 
L 321.611746 111.201947 
L 324.891085 100.779715 
L 328.170424 101.029913 
L 331.449762 106.723323 
L 334.729101 110.370821 
L 338.00844 91.542941 
L 341.287779 105.893406 
L 344.567118 98.43604 
L 347.846457 95.084692 
L 351.125795 121.723362 
L 354.405134 87.777433 
L 357.684473 98.318302 
L 360.963812 92.645139 
L 364.243151 100.369307 
L 367.52249 94.429028 
L 370.801829 68.779074 
L 374.081167 85.16406 
L 377.360506 92.464756 
L 380.639845 153.865245 
L 383.919184 191.429854 
L 387.198523 164.214069 
" clip-path="url(#p14653c895f)" style="fill: none; stroke: #dd8452; stroke-width: 1.5; stroke-linecap: round"/>
   </g>
   <g id="line2d_17">
    <path d="M 62.543977 25.246414 
L 65.823316 111.106088 
L 69.102655 130.578956 
L 72.381994 132.98368 
L 75.661333 93.152114 
L 78.940671 108.40905 
L 82.22001 127.016103 
L 85.499349 126.089763 
L 88.778688 128.302383 
L 92.058027 153.11012 
L 95.337366 96.910621 
L 98.616705 145.226836 
L 101.896043 131.148824 
L 105.175382 119.861202 
L 108.454721 134.769789 
L 111.73406 105.691197 
L 115.013399 120.632924 
L 118.292738 114.746195 
L 121.572076 111.778743 
L 124.851415 127.963328 
L 128.130754 111.605424 
L 131.410093 134.614053 
L 134.689432 143.118219 
L 137.968771 116.78866 
L 141.24811 117.438163 
L 144.527448 118.506859 
L 147.806787 128.118529 
L 151.086126 109.316306 
L 154.365465 141.647 
L 157.644804 110.965705 
L 160.924143 129.280153 
L 164.203481 129.471908 
L 167.48282 120.44857 
L 170.762159 123.915174 
L 174.041498 119.32957 
L 177.320837 146.737112 
L 180.600176 107.866544 
L 183.879514 128.704501 
L 187.158853 124.780688 
L 190.438192 110.663799 
L 193.717531 125.104213 
L 196.99687 132.27159 
L 200.276209 140.345958 
L 203.555548 94.698408 
L 206.834886 150.077146 
L 210.114225 108.013431 
L 213.393564 140.06182 
L 216.672903 144.593524 
L 219.952242 104.925755 
L 223.231581 121.271748 
L 226.510919 118.487441 
L 229.790258 98.886538 
L 233.069597 111.650914 
L 236.348936 104.518922 
L 239.628275 108.644676 
L 242.907614 120.137434 
L 246.186952 97.189687 
L 249.466291 115.437533 
L 252.74563 139.429811 
L 256.024969 120.81148 
L 259.304308 118.980659 
L 262.583647 110.519675 
L 265.862986 125.123298 
L 269.142324 99.744672 
L 272.421663 131.174449 
L 275.701002 129.009409 
L 278.980341 114.99667 
L 282.25968 109.098838 
L 285.539019 104.742947 
L 288.818357 172.945767 
L 292.097696 122.88118 
L 295.377035 99.716745 
L 298.656374 80.645112 
L 301.935713 106.258069 
L 305.215052 105.644341 
L 308.49439 106.986607 
L 311.773729 106.985959 
L 315.053068 118.32607 
L 318.332407 86.996936 
L 321.611746 131.393712 
L 324.891085 83.537252 
L 328.170424 89.04413 
L 331.449762 100.826227 
L 334.729101 97.960779 
L 338.00844 108.884284 
L 341.287779 90.720511 
L 344.567118 96.018985 
L 347.846457 102.329132 
L 351.125795 105.529586 
L 354.405134 109.868491 
L 357.684473 114.610187 
L 360.963812 95.531761 
L 364.243151 119.402496 
L 367.52249 97.647595 
L 370.801829 113.57197 
L 374.081167 91.336036 
L 377.360506 103.577359 
L 380.639845 112.333325 
L 383.919184 96.354854 
L 387.198523 118.701687 
" clip-path="url(#p14653c895f)" style="fill: none; stroke: #55a868; stroke-width: 1.5; stroke-linecap: round"/>
   </g>
   <g id="line2d_18">
    <path d="M 62.543977 19.296 
L 65.823316 118.877627 
L 69.102655 129.365284 
L 72.381994 138.071854 
L 75.661333 92.706181 
L 78.940671 111.667451 
L 82.22001 131.402213 
L 85.499349 109.386225 
L 88.778688 143.585922 
L 92.058027 128.617257 
L 95.337366 105.437854 
L 98.616705 135.528791 
L 101.896043 156.392211 
L 105.175382 100.113933 
L 108.454721 115.219866 
L 111.73406 111.254333 
L 115.013399 103.004859 
L 118.292738 110.181034 
L 121.572076 112.78933 
L 124.851415 133.122588 
L 128.130754 104.194819 
L 131.410093 136.887562 
L 134.689432 135.384207 
L 137.968771 119.246235 
L 141.24811 106.900272 
L 144.527448 145.306301 
L 147.806787 112.707216 
L 151.086126 98.692655 
L 154.365465 156.925659 
L 157.644804 92.765013 
L 160.924143 132.750832 
L 164.203481 144.911491 
L 167.48282 111.20958 
L 170.762159 129.131732 
L 174.041498 140.715607 
L 177.320837 163.170429 
L 180.600176 180.364759 
L 183.879514 129.250612 
L 187.158853 131.023457 
L 190.438192 143.590979 
L 193.717531 118.814871 
L 196.99687 146.005299 
L 200.276209 135.565772 
L 203.555548 121.697562 
L 206.834886 129.195334 
L 210.114225 131.443377 
L 213.393564 138.056196 
L 216.672903 141.063837 
L 219.952242 125.924196 
L 223.231581 116.7627 
L 226.510919 114.627325 
L 229.790258 129.046571 
L 233.069597 115.964579 
L 236.348936 130.836016 
L 239.628275 111.400961 
L 242.907614 117.845837 
L 246.186952 109.099026 
L 249.466291 131.879817 
L 252.74563 126.884655 
L 256.024969 119.261025 
L 259.304308 130.595545 
L 262.583647 124.287583 
L 265.862986 132.327144 
L 269.142324 107.199994 
L 272.421663 123.265417 
L 275.701002 135.201389 
L 278.980341 156.258762 
L 282.25968 101.393489 
L 285.539019 119.925376 
L 288.818357 114.895281 
L 292.097696 106.770244 
L 295.377035 101.035728 
L 298.656374 95.529234 
L 301.935713 101.542758 
L 305.215052 93.165354 
L 308.49439 96.839347 
L 311.773729 120.544046 
L 315.053068 141.940448 
L 318.332407 74.813632 
L 321.611746 110.149011 
L 324.891085 99.775465 
L 328.170424 91.86177 
L 331.449762 92.578961 
L 334.729101 109.284891 
L 338.00844 109.922565 
L 341.287779 91.235849 
L 344.567118 105.90206 
L 347.846457 110.265275 
L 351.125795 119.89703 
L 354.405134 107.522023 
L 357.684473 118.083471 
L 360.963812 98.367066 
L 364.243151 106.848853 
L 367.52249 105.971182 
L 370.801829 90.905652 
L 374.081167 115.54655 
L 377.360506 108.996582 
L 380.639845 96.627563 
L 383.919184 85.594148 
L 387.198523 113.397675 
" clip-path="url(#p14653c895f)" style="fill: none; stroke: #c44e52; stroke-width: 1.5; stroke-linecap: round"/>
   </g>
   <g id="line2d_19">
    <path d="M 62.543977 131.565328 
L 65.823316 231.746162 
L 69.102655 213.349597 
L 72.381994 212.747897 
L 75.661333 227.197909 
L 78.940671 201.117724 
L 82.22001 214.386013 
L 85.499349 258.155568 
L 88.778688 261.216 
L 92.058027 239.849098 
L 95.337366 231.410459 
L 98.616705 235.517708 
L 101.896043 226.676982 
L 105.175382 222.990637 
L 108.454721 236.526958 
L 111.73406 212.316268 
L 115.013399 229.472599 
L 118.292738 220.366284 
L 121.572076 237.682291 
L 124.851415 218.212957 
L 128.130754 229.10046 
L 131.410093 238.809756 
L 134.689432 216.064066 
L 137.968771 219.22666 
L 141.24811 224.607717 
L 144.527448 243.185638 
L 147.806787 217.623473 
L 151.086126 220.179477 
L 154.365465 239.616042 
L 157.644804 225.133111 
L 160.924143 230.903365 
L 164.203481 235.275248 
L 167.48282 239.968913 
L 170.762159 222.269524 
L 174.041498 228.26502 
L 177.320837 235.543328 
L 180.600176 216.494618 
L 183.879514 230.183783 
L 187.158853 233.313519 
L 190.438192 217.087017 
L 193.717531 228.332407 
L 196.99687 228.344341 
L 200.276209 223.865629 
L 203.555548 215.444919 
L 206.834886 233.914863 
L 210.114225 232.582811 
L 213.393564 222.288845 
L 216.672903 229.31694 
L 219.952242 226.460544 
L 223.231581 223.41075 
L 226.510919 223.172921 
L 229.790258 224.557481 
L 233.069597 243.592786 
L 236.348936 217.830527 
L 239.628275 218.348845 
L 242.907614 231.029098 
L 246.186952 236.192592 
L 249.466291 216.503324 
L 252.74563 230.801074 
L 256.024969 218.015424 
L 259.304308 227.558715 
L 262.583647 220.821327 
L 265.862986 233.170897 
L 269.142324 238.375182 
L 272.421663 213.469497 
L 275.701002 230.231976 
L 278.980341 238.232507 
L 282.25968 220.612955 
L 285.539019 224.503062 
L 288.818357 215.209206 
L 292.097696 218.561726 
L 295.377035 207.944858 
L 298.656374 203.528547 
L 301.935713 205.046863 
L 305.215052 198.229136 
L 308.49439 222.628095 
L 311.773729 201.04727 
L 315.053068 216.049234 
L 318.332407 210.682453 
L 321.611746 223.997952 
L 324.891085 203.918199 
L 328.170424 203.062843 
L 331.449762 203.588975 
L 334.729101 211.203831 
L 338.00844 223.074 
L 341.287779 201.058733 
L 344.567118 206.910246 
L 347.846457 209.552671 
L 351.125795 215.868737 
L 354.405134 218.640006 
L 357.684473 208.240274 
L 360.963812 206.200834 
L 364.243151 209.943298 
L 367.52249 215.826658 
L 370.801829 207.787459 
L 374.081167 201.353744 
L 377.360506 208.091306 
L 380.639845 210.828346 
L 383.919184 201.922333 
L 387.198523 217.68253 
" clip-path="url(#p14653c895f)" style="fill: none; stroke: #8172b3; stroke-width: 1.5; stroke-linecap: round"/>
   </g>
   <g id="line2d_20"/>
   <g id="line2d_21"/>
   <g id="line2d_22"/>
   <g id="line2d_23"/>
   <g id="line2d_24"/>
   <g id="patch_3">
    <path d="M 46.31125 273.312 
L 46.31125 7.2 
" style="fill: none; stroke: #cccccc; stroke-width: 1.25; stroke-linejoin: miter; stroke-linecap: square"/>
   </g>
   <g id="patch_4">
    <path d="M 403.43125 273.312 
L 403.43125 7.2 
" style="fill: none; stroke: #cccccc; stroke-width: 1.25; stroke-linejoin: miter; stroke-linecap: square"/>
   </g>
   <g id="patch_5">
    <path d="M 46.31125 273.312 
L 403.43125 273.312 
" style="fill: none; stroke: #cccccc; stroke-width: 1.25; stroke-linejoin: miter; stroke-linecap: square"/>
   </g>
   <g id="patch_6">
    <path d="M 46.31125 7.2 
L 403.43125 7.2 
" style="fill: none; stroke: #cccccc; stroke-width: 1.25; stroke-linejoin: miter; stroke-linecap: square"/>
   </g>
   <g id="legend_1">
    <g id="patch_7">
     <path d="M 172.879063 113.843437 
L 276.863438 113.843437 
Q 279.063438 113.843437 279.063438 111.643437 
L 279.063438 14.9 
Q 279.063438 12.7 276.863438 12.7 
L 172.879063 12.7 
Q 170.679063 12.7 170.679063 14.9 
L 170.679063 111.643437 
Q 170.679063 113.843437 172.879063 113.843437 
z
" style="fill: #ffffff; opacity: 0.8; stroke: #cccccc; stroke-linejoin: miter"/>
    </g>
    <g id="text_17">
     <!-- Strategy -->
     <g style="fill: #262626" transform="translate(199.162188 26.218125) scale(0.12 -0.12)">
      <defs>
       <path id="DejaVuSans-74" d="M 1172 4494 
L 1172 3500 
L 2356 3500 
L 2356 3053 
L 1172 3053 
L 1172 1153 
Q 1172 725 1289 603 
Q 1406 481 1766 481 
L 2356 481 
L 2356 0 
L 1766 0 
Q 1100 0 847 248 
Q 594 497 594 1153 
L 594 3053 
L 172 3053 
L 172 3500 
L 594 3500 
L 594 4494 
L 1172 4494 
z
" transform="scale(0.015625)"/>
       <path id="DejaVuSans-61" d="M 2194 1759 
Q 1497 1759 1228 1600 
Q 959 1441 959 1056 
Q 959 750 1161 570 
Q 1363 391 1709 391 
Q 2188 391 2477 730 
Q 2766 1069 2766 1631 
L 2766 1759 
L 2194 1759 
z
M 3341 1997 
L 3341 0 
L 2766 0 
L 2766 531 
Q 2569 213 2275 61 
Q 1981 -91 1556 -91 
Q 1019 -91 701 211 
Q 384 513 384 1019 
Q 384 1609 779 1909 
Q 1175 2209 1959 2209 
L 2766 2209 
L 2766 2266 
Q 2766 2663 2505 2880 
Q 2244 3097 1772 3097 
Q 1472 3097 1187 3025 
Q 903 2953 641 2809 
L 641 3341 
Q 956 3463 1253 3523 
Q 1550 3584 1831 3584 
Q 2591 3584 2966 3190 
Q 3341 2797 3341 1997 
z
" transform="scale(0.015625)"/>
       <path id="DejaVuSans-67" d="M 2906 1791 
Q 2906 2416 2648 2759 
Q 2391 3103 1925 3103 
Q 1463 3103 1205 2759 
Q 947 2416 947 1791 
Q 947 1169 1205 825 
Q 1463 481 1925 481 
Q 2391 481 2648 825 
Q 2906 1169 2906 1791 
z
M 3481 434 
Q 3481 -459 3084 -895 
Q 2688 -1331 1869 -1331 
Q 1566 -1331 1297 -1286 
Q 1028 -1241 775 -1147 
L 775 -588 
Q 1028 -725 1275 -790 
Q 1522 -856 1778 -856 
Q 2344 -856 2625 -561 
Q 2906 -266 2906 331 
L 2906 616 
Q 2728 306 2450 153 
Q 2172 0 1784 0 
Q 1141 0 747 490 
Q 353 981 353 1791 
Q 353 2603 747 3093 
Q 1141 3584 1784 3584 
Q 2172 3584 2450 3431 
Q 2728 3278 2906 2969 
L 2906 3500 
L 3481 3500 
L 3481 434 
z
" transform="scale(0.015625)"/>
       <path id="DejaVuSans-79" d="M 2059 -325 
Q 1816 -950 1584 -1140 
Q 1353 -1331 966 -1331 
L 506 -1331 
L 506 -850 
L 844 -850 
Q 1081 -850 1212 -737 
Q 1344 -625 1503 -206 
L 1606 56 
L 191 3500 
L 800 3500 
L 1894 763 
L 2988 3500 
L 3597 3500 
L 2059 -325 
z
" transform="scale(0.015625)"/>
      </defs>
      <use xlink:href="#DejaVuSans-53"/>
      <use xlink:href="#DejaVuSans-74" x="63.476562"/>
      <use xlink:href="#DejaVuSans-72" x="102.685547"/>
      <use xlink:href="#DejaVuSans-61" x="143.798828"/>
      <use xlink:href="#DejaVuSans-74" x="205.078125"/>
      <use xlink:href="#DejaVuSans-65" x="244.287109"/>
      <use xlink:href="#DejaVuSans-67" x="305.810547"/>
      <use xlink:href="#DejaVuSans-79" x="369.287109"/>
     </g>
    </g>
    <g id="line2d_25">
     <path d="M 175.079063 38.722031 
L 186.079063 38.722031 
L 197.079063 38.722031 
" style="fill: none; stroke: #4c72b0; stroke-width: 1.5; stroke-linecap: round"/>
    </g>
    <g id="text_18">
     <!-- FedPredict -->
     <g style="fill: #262626" transform="translate(205.879063 42.572031) scale(0.11 -0.11)">
      <defs>
       <path id="DejaVuSans-46" d="M 628 4666 
L 3309 4666 
L 3309 4134 
L 1259 4134 
L 1259 2759 
L 3109 2759 
L 3109 2228 
L 1259 2228 
L 1259 0 
L 628 0 
L 628 4666 
z
" transform="scale(0.015625)"/>
       <path id="DejaVuSans-50" d="M 1259 4147 
L 1259 2394 
L 2053 2394 
Q 2494 2394 2734 2622 
Q 2975 2850 2975 3272 
Q 2975 3691 2734 3919 
Q 2494 4147 2053 4147 
L 1259 4147 
z
M 628 4666 
L 2053 4666 
Q 2838 4666 3239 4311 
Q 3641 3956 3641 3272 
Q 3641 2581 3239 2228 
Q 2838 1875 2053 1875 
L 1259 1875 
L 1259 0 
L 628 0 
L 628 4666 
z
" transform="scale(0.015625)"/>
      </defs>
      <use xlink:href="#DejaVuSans-46"/>
      <use xlink:href="#DejaVuSans-65" x="52.019531"/>
      <use xlink:href="#DejaVuSans-64" x="113.542969"/>
      <use xlink:href="#DejaVuSans-50" x="177.019531"/>
      <use xlink:href="#DejaVuSans-72" x="235.572266"/>
      <use xlink:href="#DejaVuSans-65" x="274.435547"/>
      <use xlink:href="#DejaVuSans-64" x="335.958984"/>
      <use xlink:href="#DejaVuSans-69" x="399.435547"/>
      <use xlink:href="#DejaVuSans-63" x="427.21875"/>
      <use xlink:href="#DejaVuSans-74" x="482.199219"/>
     </g>
    </g>
    <g id="line2d_26">
     <path d="M 175.079063 54.867969 
L 186.079063 54.867969 
L 197.079063 54.867969 
" style="fill: none; stroke: #dd8452; stroke-width: 1.5; stroke-linecap: round"/>
    </g>
    <g id="text_19">
     <!-- FedAVG -->
     <g style="fill: #262626" transform="translate(205.879063 58.717969) scale(0.11 -0.11)">
      <defs>
       <path id="DejaVuSans-41" d="M 2188 4044 
L 1331 1722 
L 3047 1722 
L 2188 4044 
z
M 1831 4666 
L 2547 4666 
L 4325 0 
L 3669 0 
L 3244 1197 
L 1141 1197 
L 716 0 
L 50 0 
L 1831 4666 
z
" transform="scale(0.015625)"/>
       <path id="DejaVuSans-56" d="M 1831 0 
L 50 4666 
L 709 4666 
L 2188 738 
L 3669 4666 
L 4325 4666 
L 2547 0 
L 1831 0 
z
" transform="scale(0.015625)"/>
       <path id="DejaVuSans-47" d="M 3809 666 
L 3809 1919 
L 2778 1919 
L 2778 2438 
L 4434 2438 
L 4434 434 
Q 4069 175 3628 42 
Q 3188 -91 2688 -91 
Q 1594 -91 976 548 
Q 359 1188 359 2328 
Q 359 3472 976 4111 
Q 1594 4750 2688 4750 
Q 3144 4750 3555 4637 
Q 3966 4525 4313 4306 
L 4313 3634 
Q 3963 3931 3569 4081 
Q 3175 4231 2741 4231 
Q 1884 4231 1454 3753 
Q 1025 3275 1025 2328 
Q 1025 1384 1454 906 
Q 1884 428 2741 428 
Q 3075 428 3337 486 
Q 3600 544 3809 666 
z
" transform="scale(0.015625)"/>
      </defs>
      <use xlink:href="#DejaVuSans-46"/>
      <use xlink:href="#DejaVuSans-65" x="52.019531"/>
      <use xlink:href="#DejaVuSans-64" x="113.542969"/>
      <use xlink:href="#DejaVuSans-41" x="177.019531"/>
      <use xlink:href="#DejaVuSans-56" x="239.052734"/>
      <use xlink:href="#DejaVuSans-47" x="307.460938"/>
     </g>
    </g>
    <g id="line2d_27">
     <path d="M 175.079063 71.013906 
L 186.079063 71.013906 
L 197.079063 71.013906 
" style="fill: none; stroke: #55a868; stroke-width: 1.5; stroke-linecap: round"/>
    </g>
    <g id="text_20">
     <!-- FedClassAvg -->
     <g style="fill: #262626" transform="translate(205.879063 74.863906) scale(0.11 -0.11)">
      <defs>
       <path id="DejaVuSans-43" d="M 4122 4306 
L 4122 3641 
Q 3803 3938 3442 4084 
Q 3081 4231 2675 4231 
Q 1875 4231 1450 3742 
Q 1025 3253 1025 2328 
Q 1025 1406 1450 917 
Q 1875 428 2675 428 
Q 3081 428 3442 575 
Q 3803 722 4122 1019 
L 4122 359 
Q 3791 134 3420 21 
Q 3050 -91 2638 -91 
Q 1578 -91 968 557 
Q 359 1206 359 2328 
Q 359 3453 968 4101 
Q 1578 4750 2638 4750 
Q 3056 4750 3426 4639 
Q 3797 4528 4122 4306 
z
" transform="scale(0.015625)"/>
       <path id="DejaVuSans-6c" d="M 603 4863 
L 1178 4863 
L 1178 0 
L 603 0 
L 603 4863 
z
" transform="scale(0.015625)"/>
      </defs>
      <use xlink:href="#DejaVuSans-46"/>
      <use xlink:href="#DejaVuSans-65" x="52.019531"/>
      <use xlink:href="#DejaVuSans-64" x="113.542969"/>
      <use xlink:href="#DejaVuSans-43" x="177.019531"/>
      <use xlink:href="#DejaVuSans-6c" x="246.84375"/>
      <use xlink:href="#DejaVuSans-61" x="274.626953"/>
      <use xlink:href="#DejaVuSans-73" x="335.90625"/>
      <use xlink:href="#DejaVuSans-73" x="388.005859"/>
      <use xlink:href="#DejaVuSans-41" x="440.105469"/>
      <use xlink:href="#DejaVuSans-76" x="502.638672"/>
      <use xlink:href="#DejaVuSans-67" x="561.818359"/>
     </g>
    </g>
    <g id="line2d_28">
     <path d="M 175.079063 87.159844 
L 186.079063 87.159844 
L 197.079063 87.159844 
" style="fill: none; stroke: #c44e52; stroke-width: 1.5; stroke-linecap: round"/>
    </g>
    <g id="text_21">
     <!-- FedPer -->
     <g style="fill: #262626" transform="translate(205.879063 91.009844) scale(0.11 -0.11)">
      <use xlink:href="#DejaVuSans-46"/>
      <use xlink:href="#DejaVuSans-65" x="52.019531"/>
      <use xlink:href="#DejaVuSans-64" x="113.542969"/>
      <use xlink:href="#DejaVuSans-50" x="177.019531"/>
      <use xlink:href="#DejaVuSans-65" x="233.697266"/>
      <use xlink:href="#DejaVuSans-72" x="295.220703"/>
     </g>
    </g>
    <g id="line2d_29">
     <path d="M 175.079063 103.305781 
L 186.079063 103.305781 
L 197.079063 103.305781 
" style="fill: none; stroke: #8172b3; stroke-width: 1.5; stroke-linecap: round"/>
    </g>
    <g id="text_22">
     <!-- FedProto -->
     <g style="fill: #262626" transform="translate(205.879063 107.155781) scale(0.11 -0.11)">
      <use xlink:href="#DejaVuSans-46"/>
      <use xlink:href="#DejaVuSans-65" x="52.019531"/>
      <use xlink:href="#DejaVuSans-64" x="113.542969"/>
      <use xlink:href="#DejaVuSans-50" x="177.019531"/>
      <use xlink:href="#DejaVuSans-72" x="235.572266"/>
      <use xlink:href="#DejaVuSans-6f" x="274.435547"/>
      <use xlink:href="#DejaVuSans-74" x="335.617188"/>
      <use xlink:href="#DejaVuSans-6f" x="374.826172"/>
     </g>
    </g>
   </g>
  </g>
 </g>
 <defs>
  <clipPath id="p14653c895f">
   <rect x="46.31125" y="7.2" width="357.12" height="266.112"/>
  </clipPath>
 </defs>
</svg>
