<?xml version="1.0" encoding="utf-8" standalone="no"?>
<!DOCTYPE svg PUBLIC "-//W3C//DTD SVG 1.1//EN"
  "http://www.w3.org/Graphics/SVG/1.1/DTD/svg11.dtd">
<svg xmlns:xlink="http://www.w3.org/1999/xlink" width="410.63125pt" height="316.271687pt" viewBox="0 0 410.63125 316.271687" xmlns="http://www.w3.org/2000/svg" version="1.1">
 <metadata>
  <rdf:RDF xmlns:dc="http://purl.org/dc/elements/1.1/" xmlns:cc="http://creativecommons.org/ns#" xmlns:rdf="http://www.w3.org/1999/02/22-rdf-syntax-ns#">
   <cc:Work>
    <dc:type rdf:resource="http://purl.org/dc/dcmitype/StillImage"/>
    <dc:date>2023-02-09T14:25:57.130392</dc:date>
    <dc:format>image/svg+xml</dc:format>
    <dc:creator>
     <cc:Agent>
      <dc:title>Matplotlib v3.6.3, https://matplotlib.org/</dc:title>
     </cc:Agent>
    </dc:creator>
   </cc:Work>
  </rdf:RDF>
 </metadata>
 <defs>
  <style type="text/css">*{stroke-linejoin: round; stroke-linecap: butt}</style>
 </defs>
 <g id="figure_1">
  <g id="patch_1">
   <path d="M 0 316.271687 
L 410.63125 316.271687 
L 410.63125 0 
L 0 0 
z
" style="fill: #ffffff"/>
  </g>
  <g id="axes_1">
   <g id="patch_2">
    <path d="M 46.31125 273.312 
L 403.43125 273.312 
L 403.43125 7.2 
L 46.31125 7.2 
z
" style="fill: #ffffff"/>
   </g>
   <g id="matplotlib.axis_1">
    <g id="xtick_1">
     <g id="line2d_1">
      <path d="M 59.264638 273.312 
L 59.264638 7.2 
" clip-path="url(#p614a118784)" style="fill: none; stroke: #cccccc; stroke-linecap: round"/>
     </g>
     <g id="text_1">
      <!-- 0 -->
      <g style="fill: #262626" transform="translate(55.765263 291.170281) scale(0.11 -0.11)">
       <defs>
        <path id="DejaVuSans-30" d="M 2034 4250 
Q 1547 4250 1301 3770 
Q 1056 3291 1056 2328 
Q 1056 1369 1301 889 
Q 1547 409 2034 409 
Q 2525 409 2770 889 
Q 3016 1369 3016 2328 
Q 3016 3291 2770 3770 
Q 2525 4250 2034 4250 
z
M 2034 4750 
Q 2819 4750 3233 4129 
Q 3647 3509 3647 2328 
Q 3647 1150 3233 529 
Q 2819 -91 2034 -91 
Q 1250 -91 836 529 
Q 422 1150 422 2328 
Q 422 3509 836 4129 
Q 1250 4750 2034 4750 
z
" transform="scale(0.015625)"/>
       </defs>
       <use xlink:href="#DejaVuSans-30"/>
      </g>
     </g>
    </g>
    <g id="xtick_2">
     <g id="line2d_2">
      <path d="M 124.851415 273.312 
L 124.851415 7.2 
" clip-path="url(#p614a118784)" style="fill: none; stroke: #cccccc; stroke-linecap: round"/>
     </g>
     <g id="text_2">
      <!-- 20 -->
      <g style="fill: #262626" transform="translate(117.852665 291.170281) scale(0.11 -0.11)">
       <defs>
        <path id="DejaVuSans-32" d="M 1228 531 
L 3431 531 
L 3431 0 
L 469 0 
L 469 531 
Q 828 903 1448 1529 
Q 2069 2156 2228 2338 
Q 2531 2678 2651 2914 
Q 2772 3150 2772 3378 
Q 2772 3750 2511 3984 
Q 2250 4219 1831 4219 
Q 1534 4219 1204 4116 
Q 875 4013 500 3803 
L 500 4441 
Q 881 4594 1212 4672 
Q 1544 4750 1819 4750 
Q 2544 4750 2975 4387 
Q 3406 4025 3406 3419 
Q 3406 3131 3298 2873 
Q 3191 2616 2906 2266 
Q 2828 2175 2409 1742 
Q 1991 1309 1228 531 
z
" transform="scale(0.015625)"/>
       </defs>
       <use xlink:href="#DejaVuSans-32"/>
       <use xlink:href="#DejaVuSans-30" x="63.623047"/>
      </g>
     </g>
    </g>
    <g id="xtick_3">
     <g id="line2d_3">
      <path d="M 190.438192 273.312 
L 190.438192 7.2 
" clip-path="url(#p614a118784)" style="fill: none; stroke: #cccccc; stroke-linecap: round"/>
     </g>
     <g id="text_3">
      <!-- 40 -->
      <g style="fill: #262626" transform="translate(183.439442 291.170281) scale(0.11 -0.11)">
       <defs>
        <path id="DejaVuSans-34" d="M 2419 4116 
L 825 1625 
L 2419 1625 
L 2419 4116 
z
M 2253 4666 
L 3047 4666 
L 3047 1625 
L 3713 1625 
L 3713 1100 
L 3047 1100 
L 3047 0 
L 2419 0 
L 2419 1100 
L 313 1100 
L 313 1709 
L 2253 4666 
z
" transform="scale(0.015625)"/>
       </defs>
       <use xlink:href="#DejaVuSans-34"/>
       <use xlink:href="#DejaVuSans-30" x="63.623047"/>
      </g>
     </g>
    </g>
    <g id="xtick_4">
     <g id="line2d_4">
      <path d="M 256.024969 273.312 
L 256.024969 7.2 
" clip-path="url(#p614a118784)" style="fill: none; stroke: #cccccc; stroke-linecap: round"/>
     </g>
     <g id="text_4">
      <!-- 60 -->
      <g style="fill: #262626" transform="translate(249.026219 291.170281) scale(0.11 -0.11)">
       <defs>
        <path id="DejaVuSans-36" d="M 2113 2584 
Q 1688 2584 1439 2293 
Q 1191 2003 1191 1497 
Q 1191 994 1439 701 
Q 1688 409 2113 409 
Q 2538 409 2786 701 
Q 3034 994 3034 1497 
Q 3034 2003 2786 2293 
Q 2538 2584 2113 2584 
z
M 3366 4563 
L 3366 3988 
Q 3128 4100 2886 4159 
Q 2644 4219 2406 4219 
Q 1781 4219 1451 3797 
Q 1122 3375 1075 2522 
Q 1259 2794 1537 2939 
Q 1816 3084 2150 3084 
Q 2853 3084 3261 2657 
Q 3669 2231 3669 1497 
Q 3669 778 3244 343 
Q 2819 -91 2113 -91 
Q 1303 -91 875 529 
Q 447 1150 447 2328 
Q 447 3434 972 4092 
Q 1497 4750 2381 4750 
Q 2619 4750 2861 4703 
Q 3103 4656 3366 4563 
z
" transform="scale(0.015625)"/>
       </defs>
       <use xlink:href="#DejaVuSans-36"/>
       <use xlink:href="#DejaVuSans-30" x="63.623047"/>
      </g>
     </g>
    </g>
    <g id="xtick_5">
     <g id="line2d_5">
      <path d="M 321.611746 273.312 
L 321.611746 7.2 
" clip-path="url(#p614a118784)" style="fill: none; stroke: #cccccc; stroke-linecap: round"/>
     </g>
     <g id="text_5">
      <!-- 80 -->
      <g style="fill: #262626" transform="translate(314.612996 291.170281) scale(0.11 -0.11)">
       <defs>
        <path id="DejaVuSans-38" d="M 2034 2216 
Q 1584 2216 1326 1975 
Q 1069 1734 1069 1313 
Q 1069 891 1326 650 
Q 1584 409 2034 409 
Q 2484 409 2743 651 
Q 3003 894 3003 1313 
Q 3003 1734 2745 1975 
Q 2488 2216 2034 2216 
z
M 1403 2484 
Q 997 2584 770 2862 
Q 544 3141 544 3541 
Q 544 4100 942 4425 
Q 1341 4750 2034 4750 
Q 2731 4750 3128 4425 
Q 3525 4100 3525 3541 
Q 3525 3141 3298 2862 
Q 3072 2584 2669 2484 
Q 3125 2378 3379 2068 
Q 3634 1759 3634 1313 
Q 3634 634 3220 271 
Q 2806 -91 2034 -91 
Q 1263 -91 848 271 
Q 434 634 434 1313 
Q 434 1759 690 2068 
Q 947 2378 1403 2484 
z
M 1172 3481 
Q 1172 3119 1398 2916 
Q 1625 2713 2034 2713 
Q 2441 2713 2670 2916 
Q 2900 3119 2900 3481 
Q 2900 3844 2670 4047 
Q 2441 4250 2034 4250 
Q 1625 4250 1398 4047 
Q 1172 3844 1172 3481 
z
" transform="scale(0.015625)"/>
       </defs>
       <use xlink:href="#DejaVuSans-38"/>
       <use xlink:href="#DejaVuSans-30" x="63.623047"/>
      </g>
     </g>
    </g>
    <g id="xtick_6">
     <g id="line2d_6">
      <path d="M 387.198523 273.312 
L 387.198523 7.2 
" clip-path="url(#p614a118784)" style="fill: none; stroke: #cccccc; stroke-linecap: round"/>
     </g>
     <g id="text_6">
      <!-- 100 -->
      <g style="fill: #262626" transform="translate(376.700398 291.170281) scale(0.11 -0.11)">
       <defs>
        <path id="DejaVuSans-31" d="M 794 531 
L 1825 531 
L 1825 4091 
L 703 3866 
L 703 4441 
L 1819 4666 
L 2450 4666 
L 2450 531 
L 3481 531 
L 3481 0 
L 794 0 
L 794 531 
z
" transform="scale(0.015625)"/>
       </defs>
       <use xlink:href="#DejaVuSans-31"/>
       <use xlink:href="#DejaVuSans-30" x="63.623047"/>
       <use xlink:href="#DejaVuSans-30" x="127.246094"/>
      </g>
     </g>
    </g>
    <g id="text_7">
     <!-- Round -->
     <g style="fill: #262626" transform="translate(205.886875 306.576062) scale(0.12 -0.12)">
      <defs>
       <path id="DejaVuSans-52" d="M 2841 2188 
Q 3044 2119 3236 1894 
Q 3428 1669 3622 1275 
L 4263 0 
L 3584 0 
L 2988 1197 
Q 2756 1666 2539 1819 
Q 2322 1972 1947 1972 
L 1259 1972 
L 1259 0 
L 628 0 
L 628 4666 
L 2053 4666 
Q 2853 4666 3247 4331 
Q 3641 3997 3641 3322 
Q 3641 2881 3436 2590 
Q 3231 2300 2841 2188 
z
M 1259 4147 
L 1259 2491 
L 2053 2491 
Q 2509 2491 2742 2702 
Q 2975 2913 2975 3322 
Q 2975 3731 2742 3939 
Q 2509 4147 2053 4147 
L 1259 4147 
z
" transform="scale(0.015625)"/>
       <path id="DejaVuSans-6f" d="M 1959 3097 
Q 1497 3097 1228 2736 
Q 959 2375 959 1747 
Q 959 1119 1226 758 
Q 1494 397 1959 397 
Q 2419 397 2687 759 
Q 2956 1122 2956 1747 
Q 2956 2369 2687 2733 
Q 2419 3097 1959 3097 
z
M 1959 3584 
Q 2709 3584 3137 3096 
Q 3566 2609 3566 1747 
Q 3566 888 3137 398 
Q 2709 -91 1959 -91 
Q 1206 -91 779 398 
Q 353 888 353 1747 
Q 353 2609 779 3096 
Q 1206 3584 1959 3584 
z
" transform="scale(0.015625)"/>
       <path id="DejaVuSans-75" d="M 544 1381 
L 544 3500 
L 1119 3500 
L 1119 1403 
Q 1119 906 1312 657 
Q 1506 409 1894 409 
Q 2359 409 2629 706 
Q 2900 1003 2900 1516 
L 2900 3500 
L 3475 3500 
L 3475 0 
L 2900 0 
L 2900 538 
Q 2691 219 2414 64 
Q 2138 -91 1772 -91 
Q 1169 -91 856 284 
Q 544 659 544 1381 
z
M 1991 3584 
L 1991 3584 
z
" transform="scale(0.015625)"/>
       <path id="DejaVuSans-6e" d="M 3513 2113 
L 3513 0 
L 2938 0 
L 2938 2094 
Q 2938 2591 2744 2837 
Q 2550 3084 2163 3084 
Q 1697 3084 1428 2787 
Q 1159 2491 1159 1978 
L 1159 0 
L 581 0 
L 581 3500 
L 1159 3500 
L 1159 2956 
Q 1366 3272 1645 3428 
Q 1925 3584 2291 3584 
Q 2894 3584 3203 3211 
Q 3513 2838 3513 2113 
z
" transform="scale(0.015625)"/>
       <path id="DejaVuSans-64" d="M 2906 2969 
L 2906 4863 
L 3481 4863 
L 3481 0 
L 2906 0 
L 2906 525 
Q 2725 213 2448 61 
Q 2172 -91 1784 -91 
Q 1150 -91 751 415 
Q 353 922 353 1747 
Q 353 2572 751 3078 
Q 1150 3584 1784 3584 
Q 2172 3584 2448 3432 
Q 2725 3281 2906 2969 
z
M 947 1747 
Q 947 1113 1208 752 
Q 1469 391 1925 391 
Q 2381 391 2643 752 
Q 2906 1113 2906 1747 
Q 2906 2381 2643 2742 
Q 2381 3103 1925 3103 
Q 1469 3103 1208 2742 
Q 947 2381 947 1747 
z
" transform="scale(0.015625)"/>
      </defs>
      <use xlink:href="#DejaVuSans-52"/>
      <use xlink:href="#DejaVuSans-6f" x="64.982422"/>
      <use xlink:href="#DejaVuSans-75" x="126.164062"/>
      <use xlink:href="#DejaVuSans-6e" x="189.542969"/>
      <use xlink:href="#DejaVuSans-64" x="252.921875"/>
     </g>
    </g>
   </g>
   <g id="matplotlib.axis_2">
    <g id="ytick_1">
     <g id="line2d_7">
      <path d="M 46.31125 251.863569 
L 403.43125 251.863569 
" clip-path="url(#p614a118784)" style="fill: none; stroke: #cccccc; stroke-linecap: round"/>
     </g>
     <g id="text_8">
      <!-- 10 -->
      <g style="fill: #262626" transform="translate(22.81375 256.04271) scale(0.11 -0.11)">
       <use xlink:href="#DejaVuSans-31"/>
       <use xlink:href="#DejaVuSans-30" x="63.623047"/>
      </g>
     </g>
    </g>
    <g id="ytick_2">
     <g id="line2d_8">
      <path d="M 46.31125 220.100799 
L 403.43125 220.100799 
" clip-path="url(#p614a118784)" style="fill: none; stroke: #cccccc; stroke-linecap: round"/>
     </g>
     <g id="text_9">
      <!-- 20 -->
      <g style="fill: #262626" transform="translate(22.81375 224.279939) scale(0.11 -0.11)">
       <use xlink:href="#DejaVuSans-32"/>
       <use xlink:href="#DejaVuSans-30" x="63.623047"/>
      </g>
     </g>
    </g>
    <g id="ytick_3">
     <g id="line2d_9">
      <path d="M 46.31125 188.338028 
L 403.43125 188.338028 
" clip-path="url(#p614a118784)" style="fill: none; stroke: #cccccc; stroke-linecap: round"/>
     </g>
     <g id="text_10">
      <!-- 30 -->
      <g style="fill: #262626" transform="translate(22.81375 192.517169) scale(0.11 -0.11)">
       <defs>
        <path id="DejaVuSans-33" d="M 2597 2516 
Q 3050 2419 3304 2112 
Q 3559 1806 3559 1356 
Q 3559 666 3084 287 
Q 2609 -91 1734 -91 
Q 1441 -91 1130 -33 
Q 819 25 488 141 
L 488 750 
Q 750 597 1062 519 
Q 1375 441 1716 441 
Q 2309 441 2620 675 
Q 2931 909 2931 1356 
Q 2931 1769 2642 2001 
Q 2353 2234 1838 2234 
L 1294 2234 
L 1294 2753 
L 1863 2753 
Q 2328 2753 2575 2939 
Q 2822 3125 2822 3475 
Q 2822 3834 2567 4026 
Q 2313 4219 1838 4219 
Q 1578 4219 1281 4162 
Q 984 4106 628 3988 
L 628 4550 
Q 988 4650 1302 4700 
Q 1616 4750 1894 4750 
Q 2613 4750 3031 4423 
Q 3450 4097 3450 3541 
Q 3450 3153 3228 2886 
Q 3006 2619 2597 2516 
z
" transform="scale(0.015625)"/>
       </defs>
       <use xlink:href="#DejaVuSans-33"/>
       <use xlink:href="#DejaVuSans-30" x="63.623047"/>
      </g>
     </g>
    </g>
    <g id="ytick_4">
     <g id="line2d_10">
      <path d="M 46.31125 156.575257 
L 403.43125 156.575257 
" clip-path="url(#p614a118784)" style="fill: none; stroke: #cccccc; stroke-linecap: round"/>
     </g>
     <g id="text_11">
      <!-- 40 -->
      <g style="fill: #262626" transform="translate(22.81375 160.754398) scale(0.11 -0.11)">
       <use xlink:href="#DejaVuSans-34"/>
       <use xlink:href="#DejaVuSans-30" x="63.623047"/>
      </g>
     </g>
    </g>
    <g id="ytick_5">
     <g id="line2d_11">
      <path d="M 46.31125 124.812486 
L 403.43125 124.812486 
" clip-path="url(#p614a118784)" style="fill: none; stroke: #cccccc; stroke-linecap: round"/>
     </g>
     <g id="text_12">
      <!-- 50 -->
      <g style="fill: #262626" transform="translate(22.81375 128.991627) scale(0.11 -0.11)">
       <defs>
        <path id="DejaVuSans-35" d="M 691 4666 
L 3169 4666 
L 3169 4134 
L 1269 4134 
L 1269 2991 
Q 1406 3038 1543 3061 
Q 1681 3084 1819 3084 
Q 2600 3084 3056 2656 
Q 3513 2228 3513 1497 
Q 3513 744 3044 326 
Q 2575 -91 1722 -91 
Q 1428 -91 1123 -41 
Q 819 9 494 109 
L 494 744 
Q 775 591 1075 516 
Q 1375 441 1709 441 
Q 2250 441 2565 725 
Q 2881 1009 2881 1497 
Q 2881 1984 2565 2268 
Q 2250 2553 1709 2553 
Q 1456 2553 1204 2497 
Q 953 2441 691 2322 
L 691 4666 
z
" transform="scale(0.015625)"/>
       </defs>
       <use xlink:href="#DejaVuSans-35"/>
       <use xlink:href="#DejaVuSans-30" x="63.623047"/>
      </g>
     </g>
    </g>
    <g id="ytick_6">
     <g id="line2d_12">
      <path d="M 46.31125 93.049716 
L 403.43125 93.049716 
" clip-path="url(#p614a118784)" style="fill: none; stroke: #cccccc; stroke-linecap: round"/>
     </g>
     <g id="text_13">
      <!-- 60 -->
      <g style="fill: #262626" transform="translate(22.81375 97.228856) scale(0.11 -0.11)">
       <use xlink:href="#DejaVuSans-36"/>
       <use xlink:href="#DejaVuSans-30" x="63.623047"/>
      </g>
     </g>
    </g>
    <g id="ytick_7">
     <g id="line2d_13">
      <path d="M 46.31125 61.286945 
L 403.43125 61.286945 
" clip-path="url(#p614a118784)" style="fill: none; stroke: #cccccc; stroke-linecap: round"/>
     </g>
     <g id="text_14">
      <!-- 70 -->
      <g style="fill: #262626" transform="translate(22.81375 65.466086) scale(0.11 -0.11)">
       <defs>
        <path id="DejaVuSans-37" d="M 525 4666 
L 3525 4666 
L 3525 4397 
L 1831 0 
L 1172 0 
L 2766 4134 
L 525 4134 
L 525 4666 
z
" transform="scale(0.015625)"/>
       </defs>
       <use xlink:href="#DejaVuSans-37"/>
       <use xlink:href="#DejaVuSans-30" x="63.623047"/>
      </g>
     </g>
    </g>
    <g id="ytick_8">
     <g id="line2d_14">
      <path d="M 46.31125 29.524174 
L 403.43125 29.524174 
" clip-path="url(#p614a118784)" style="fill: none; stroke: #cccccc; stroke-linecap: round"/>
     </g>
     <g id="text_15">
      <!-- 80 -->
      <g style="fill: #262626" transform="translate(22.81375 33.703315) scale(0.11 -0.11)">
       <use xlink:href="#DejaVuSans-38"/>
       <use xlink:href="#DejaVuSans-30" x="63.623047"/>
      </g>
     </g>
    </g>
    <g id="text_16">
     <!-- Accuracy (%) -->
     <g style="fill: #262626" transform="translate(16.318125 179.939437) rotate(-90) scale(0.12 -0.12)">
      <defs>
       <path id="DejaVuSans-41" d="M 2188 4044 
L 1331 1722 
L 3047 1722 
L 2188 4044 
z
M 1831 4666 
L 2547 4666 
L 4325 0 
L 3669 0 
L 3244 1197 
L 1141 1197 
L 716 0 
L 50 0 
L 1831 4666 
z
" transform="scale(0.015625)"/>
       <path id="DejaVuSans-63" d="M 3122 3366 
L 3122 2828 
Q 2878 2963 2633 3030 
Q 2388 3097 2138 3097 
Q 1578 3097 1268 2742 
Q 959 2388 959 1747 
Q 959 1106 1268 751 
Q 1578 397 2138 397 
Q 2388 397 2633 464 
Q 2878 531 3122 666 
L 3122 134 
Q 2881 22 2623 -34 
Q 2366 -91 2075 -91 
Q 1284 -91 818 406 
Q 353 903 353 1747 
Q 353 2603 823 3093 
Q 1294 3584 2113 3584 
Q 2378 3584 2631 3529 
Q 2884 3475 3122 3366 
z
" transform="scale(0.015625)"/>
       <path id="DejaVuSans-72" d="M 2631 2963 
Q 2534 3019 2420 3045 
Q 2306 3072 2169 3072 
Q 1681 3072 1420 2755 
Q 1159 2438 1159 1844 
L 1159 0 
L 581 0 
L 581 3500 
L 1159 3500 
L 1159 2956 
Q 1341 3275 1631 3429 
Q 1922 3584 2338 3584 
Q 2397 3584 2469 3576 
Q 2541 3569 2628 3553 
L 2631 2963 
z
" transform="scale(0.015625)"/>
       <path id="DejaVuSans-61" d="M 2194 1759 
Q 1497 1759 1228 1600 
Q 959 1441 959 1056 
Q 959 750 1161 570 
Q 1363 391 1709 391 
Q 2188 391 2477 730 
Q 2766 1069 2766 1631 
L 2766 1759 
L 2194 1759 
z
M 3341 1997 
L 3341 0 
L 2766 0 
L 2766 531 
Q 2569 213 2275 61 
Q 1981 -91 1556 -91 
Q 1019 -91 701 211 
Q 384 513 384 1019 
Q 384 1609 779 1909 
Q 1175 2209 1959 2209 
L 2766 2209 
L 2766 2266 
Q 2766 2663 2505 2880 
Q 2244 3097 1772 3097 
Q 1472 3097 1187 3025 
Q 903 2953 641 2809 
L 641 3341 
Q 956 3463 1253 3523 
Q 1550 3584 1831 3584 
Q 2591 3584 2966 3190 
Q 3341 2797 3341 1997 
z
" transform="scale(0.015625)"/>
       <path id="DejaVuSans-79" d="M 2059 -325 
Q 1816 -950 1584 -1140 
Q 1353 -1331 966 -1331 
L 506 -1331 
L 506 -850 
L 844 -850 
Q 1081 -850 1212 -737 
Q 1344 -625 1503 -206 
L 1606 56 
L 191 3500 
L 800 3500 
L 1894 763 
L 2988 3500 
L 3597 3500 
L 2059 -325 
z
" transform="scale(0.015625)"/>
       <path id="DejaVuSans-20" transform="scale(0.015625)"/>
       <path id="DejaVuSans-28" d="M 1984 4856 
Q 1566 4138 1362 3434 
Q 1159 2731 1159 2009 
Q 1159 1288 1364 580 
Q 1569 -128 1984 -844 
L 1484 -844 
Q 1016 -109 783 600 
Q 550 1309 550 2009 
Q 550 2706 781 3412 
Q 1013 4119 1484 4856 
L 1984 4856 
z
" transform="scale(0.015625)"/>
       <path id="DejaVuSans-25" d="M 4653 2053 
Q 4381 2053 4226 1822 
Q 4072 1591 4072 1178 
Q 4072 772 4226 539 
Q 4381 306 4653 306 
Q 4919 306 5073 539 
Q 5228 772 5228 1178 
Q 5228 1588 5073 1820 
Q 4919 2053 4653 2053 
z
M 4653 2450 
Q 5147 2450 5437 2106 
Q 5728 1763 5728 1178 
Q 5728 594 5436 251 
Q 5144 -91 4653 -91 
Q 4153 -91 3862 251 
Q 3572 594 3572 1178 
Q 3572 1766 3864 2108 
Q 4156 2450 4653 2450 
z
M 1428 4353 
Q 1159 4353 1004 4120 
Q 850 3888 850 3481 
Q 850 3069 1003 2837 
Q 1156 2606 1428 2606 
Q 1700 2606 1854 2837 
Q 2009 3069 2009 3481 
Q 2009 3884 1853 4118 
Q 1697 4353 1428 4353 
z
M 4250 4750 
L 4750 4750 
L 1831 -91 
L 1331 -91 
L 4250 4750 
z
M 1428 4750 
Q 1922 4750 2215 4408 
Q 2509 4066 2509 3481 
Q 2509 2891 2217 2550 
Q 1925 2209 1428 2209 
Q 931 2209 642 2551 
Q 353 2894 353 3481 
Q 353 4063 643 4406 
Q 934 4750 1428 4750 
z
" transform="scale(0.015625)"/>
       <path id="DejaVuSans-29" d="M 513 4856 
L 1013 4856 
Q 1481 4119 1714 3412 
Q 1947 2706 1947 2009 
Q 1947 1309 1714 600 
Q 1481 -109 1013 -844 
L 513 -844 
Q 928 -128 1133 580 
Q 1338 1288 1338 2009 
Q 1338 2731 1133 3434 
Q 928 4138 513 4856 
z
" transform="scale(0.015625)"/>
      </defs>
      <use xlink:href="#DejaVuSans-41"/>
      <use xlink:href="#DejaVuSans-63" x="66.658203"/>
      <use xlink:href="#DejaVuSans-63" x="121.638672"/>
      <use xlink:href="#DejaVuSans-75" x="176.619141"/>
      <use xlink:href="#DejaVuSans-72" x="239.998047"/>
      <use xlink:href="#DejaVuSans-61" x="281.111328"/>
      <use xlink:href="#DejaVuSans-63" x="342.390625"/>
      <use xlink:href="#DejaVuSans-79" x="397.371094"/>
      <use xlink:href="#DejaVuSans-20" x="456.550781"/>
      <use xlink:href="#DejaVuSans-28" x="488.337891"/>
      <use xlink:href="#DejaVuSans-25" x="527.351562"/>
      <use xlink:href="#DejaVuSans-29" x="622.371094"/>
     </g>
    </g>
   </g>
   <g id="PolyCollection_1">
    <defs>
     <path id="m5a36e83bf1" d="M 62.543977 -97.452982 
L 62.543977 -59.615783 
L 65.823316 -84.642352 
L 69.102655 -97.113065 
L 72.381994 -120.604589 
L 75.661333 -130.549594 
L 78.940671 -137.818602 
L 82.22001 -151.343598 
L 85.499349 -181.287632 
L 88.778688 -181.103365 
L 92.058027 -183.080039 
L 95.337366 -192.491975 
L 98.616705 -187.883129 
L 101.896043 -198.267668 
L 105.175382 -210.010544 
L 108.454721 -236.642195 
L 111.73406 -227.05243 
L 115.013399 -233.773578 
L 118.292738 -223.51716 
L 121.572076 -235.197558 
L 124.851415 -239.677743 
L 128.130754 -224.970957 
L 131.410093 -228.999917 
L 134.689432 -223.951156 
L 137.968771 -240.933432 
L 141.24811 -249.091148 
L 144.527448 -250.511179 
L 147.806787 -242.748877 
L 151.086126 -142.213734 
L 154.365465 -128.069501 
L 157.644804 -158.454237 
L 160.924143 -187.627572 
L 164.203481 -180.799967 
L 167.48282 -205.609282 
L 170.762159 -218.233032 
L 174.041498 -241.062337 
L 177.320837 -239.43342 
L 180.600176 -234.841803 
L 183.879514 -225.486714 
L 187.158853 -245.253532 
L 190.438192 -245.828753 
L 193.717531 -232.894155 
L 196.99687 -252.651878 
L 200.276209 -252.168539 
L 203.555548 -257.130402 
L 206.834886 -249.018981 
L 210.114225 -245.992608 
L 213.393564 -251.196054 
L 216.672903 -264.999269 
L 219.952242 -250.712389 
L 223.231581 -244.33546 
L 226.510919 -253.581582 
L 229.790258 -263.658924 
L 233.069597 -257.487108 
L 236.348936 -266.085413 
L 239.628275 -259.718339 
L 242.907614 -262.755845 
L 246.186952 -270.141277 
L 249.466291 -263.747093 
L 252.74563 -267.467782 
L 256.024969 -270.482907 
L 259.304308 -270.8244 
L 262.583647 -262.720731 
L 265.862986 -275.257532 
L 269.142324 -272.208338 
L 272.421663 -270.178649 
L 275.701002 -273.374916 
L 278.980341 -274.979549 
L 282.25968 -273.629279 
L 285.539019 -273.70186 
L 288.818357 -246.813226 
L 292.097696 -228.866949 
L 295.377035 -242.245065 
L 298.656374 -246.887339 
L 301.935713 -246.493648 
L 305.215052 -257.51493 
L 308.49439 -231.92152 
L 311.773729 -225.056762 
L 315.053068 -249.33314 
L 318.332407 -240.709977 
L 321.611746 -234.43339 
L 324.891085 -233.31186 
L 328.170424 -243.339928 
L 331.449762 -229.336169 
L 334.729101 -227.314336 
L 338.00844 -200.187836 
L 341.287779 -237.17497 
L 344.567118 -215.454504 
L 347.846457 -180.178903 
L 351.125795 -234.745288 
L 354.405134 -229.770809 
L 357.684473 -217.292772 
L 360.963812 -233.430263 
L 364.243151 -244.753361 
L 367.52249 -245.898411 
L 370.801829 -242.002885 
L 374.081167 -241.610097 
L 377.360506 -248.451958 
L 380.639845 -244.361263 
L 383.919184 -222.769013 
L 387.198523 -238.60676 
L 387.198523 -276.976103 
L 387.198523 -276.976103 
L 383.919184 -265.4579 
L 380.639845 -276.241987 
L 377.360506 -277.691654 
L 374.081167 -272.08639 
L 370.801829 -276.091762 
L 367.52249 -278.350353 
L 364.243151 -276.243917 
L 360.963812 -272.801101 
L 357.684473 -256.369912 
L 354.405134 -268.265517 
L 351.125795 -269.529192 
L 347.846457 -233.890337 
L 344.567118 -252.989553 
L 341.287779 -269.360536 
L 338.00844 -246.785972 
L 334.729101 -264.965146 
L 331.449762 -267.686736 
L 328.170424 -275.685689 
L 324.891085 -269.884575 
L 321.611746 -267.699345 
L 318.332407 -274.597117 
L 315.053068 -279.698248 
L 311.773729 -266.320451 
L 308.49439 -268.925406 
L 305.215052 -282.287193 
L 301.935713 -276.871495 
L 298.656374 -278.195959 
L 295.377035 -271.305738 
L 292.097696 -266.139971 
L 288.818357 -273.798591 
L 285.539019 -294.380471 
L 282.25968 -293.861859 
L 278.980341 -296.975687 
L 275.701002 -295.608566 
L 272.421663 -291.912089 
L 269.142324 -294.911301 
L 265.862986 -296.147035 
L 262.583647 -289.051227 
L 259.304308 -293.771627 
L 256.024969 -294.667503 
L 252.74563 -290.594769 
L 249.466291 -289.580722 
L 246.186952 -294.834955 
L 242.907614 -286.367079 
L 239.628275 -287.107704 
L 236.348936 -291.041108 
L 233.069597 -283.347612 
L 229.790258 -284.806316 
L 226.510919 -280.731793 
L 223.231581 -273.518033 
L 219.952242 -277.672472 
L 216.672903 -289.372663 
L 213.393564 -280.921796 
L 210.114225 -276.100299 
L 206.834886 -277.250866 
L 203.555548 -284.694919 
L 200.276209 -281.49711 
L 196.99687 -277.108633 
L 193.717531 -259.284486 
L 190.438192 -276.235137 
L 187.158853 -274.15755 
L 183.879514 -255.881189 
L 180.600176 -269.278952 
L 177.320837 -268.616951 
L 174.041498 -271.567641 
L 170.762159 -258.014023 
L 167.48282 -250.286129 
L 164.203481 -226.945705 
L 160.924143 -230.312955 
L 157.644804 -213.509461 
L 154.365465 -184.548162 
L 151.086126 -182.508685 
L 147.806787 -269.576697 
L 144.527448 -274.515745 
L 141.24811 -274.295498 
L 137.968771 -269.545559 
L 134.689432 -261.330714 
L 131.410093 -263.766679 
L 128.130754 -259.411066 
L 124.851415 -268.433493 
L 121.572076 -267.36402 
L 118.292738 -254.41261 
L 115.013399 -263.066332 
L 111.73406 -261.542835 
L 108.454721 -270.334795 
L 105.175382 -252.265826 
L 101.896043 -244.060511 
L 98.616705 -229.300234 
L 95.337366 -232.866625 
L 92.058027 -231.9529 
L 88.778688 -226.455737 
L 85.499349 -223.631913 
L 82.22001 -207.640813 
L 78.940671 -194.259842 
L 75.661333 -188.949969 
L 72.381994 -185.157198 
L 69.102655 -150.409175 
L 65.823316 -132.379721 
L 62.543977 -97.452982 
z
" style="stroke: #4c72b0; stroke-opacity: 0.2"/>
    </defs>
    <g clip-path="url(#p614a118784)">
     <use xlink:href="#m5a36e83bf1" x="0" y="316.271687" style="fill: #4c72b0; fill-opacity: 0.2; stroke: #4c72b0; stroke-opacity: 0.2"/>
    </g>
   </g>
   <g id="PolyCollection_2">
    <defs>
     <path id="m448a063f41" d="M 62.543977 -83.942465 
L 62.543977 -55.055687 
L 65.823316 -57.414225 
L 69.102655 -65.428562 
L 72.381994 -76.714488 
L 75.661333 -57.180661 
L 78.940671 -87.601373 
L 82.22001 -82.541198 
L 85.499349 -109.953782 
L 88.778688 -108.151183 
L 92.058027 -106.018466 
L 95.337366 -121.442354 
L 98.616705 -97.259244 
L 101.896043 -113.611492 
L 105.175382 -110.372769 
L 108.454721 -140.766061 
L 111.73406 -145.125727 
L 115.013399 -126.122627 
L 118.292738 -119.562901 
L 121.572076 -132.890261 
L 124.851415 -151.98416 
L 128.130754 -133.678844 
L 131.410093 -138.394886 
L 134.689432 -110.139631 
L 137.968771 -148.779464 
L 141.24811 -148.693296 
L 144.527448 -162.933142 
L 147.806787 -122.826107 
L 151.086126 -134.960415 
L 154.365465 -103.769839 
L 157.644804 -107.499551 
L 160.924143 -138.353146 
L 164.203481 -129.889511 
L 167.48282 -145.155638 
L 170.762159 -141.435977 
L 174.041498 -165.805505 
L 177.320837 -153.198247 
L 180.600176 -157.172183 
L 183.879514 -116.758756 
L 187.158853 -162.760809 
L 190.438192 -152.17557 
L 193.717531 -129.443265 
L 196.99687 -185.013876 
L 200.276209 -166.644339 
L 203.555548 -173.676464 
L 206.834886 -140.447531 
L 210.114225 -145.79457 
L 213.393564 -154.713041 
L 216.672903 -200.664505 
L 219.952242 -158.844977 
L 223.231581 -135.528858 
L 226.510919 -153.804566 
L 229.790258 -185.409907 
L 233.069597 -148.975433 
L 236.348936 -201.734083 
L 239.628275 -153.989876 
L 242.907614 -180.505261 
L 246.186952 -188.674963 
L 249.466291 -160.946574 
L 252.74563 -141.857981 
L 256.024969 -186.923936 
L 259.304308 -171.613179 
L 262.583647 -162.266573 
L 265.862986 -186.074024 
L 269.142324 -155.515389 
L 272.421663 -167.743622 
L 275.701002 -174.862988 
L 278.980341 -178.488497 
L 282.25968 -170.118123 
L 285.539019 -171.810675 
L 288.818357 -188.158746 
L 292.097696 -157.932527 
L 295.377035 -204.764042 
L 298.656374 -182.922581 
L 301.935713 -195.365586 
L 305.215052 -201.917164 
L 308.49439 -183.770692 
L 311.773729 -148.488726 
L 315.053068 -188.710571 
L 318.332407 -183.138281 
L 321.611746 -180.897461 
L 324.891085 -168.343447 
L 328.170424 -178.131313 
L 331.449762 -168.605279 
L 334.729101 -177.709131 
L 338.00844 -159.940142 
L 341.287779 -199.396146 
L 344.567118 -168.82414 
L 347.846457 -112.964007 
L 351.125795 -180.031134 
L 354.405134 -182.204449 
L 357.684473 -176.651098 
L 360.963812 -170.53921 
L 364.243151 -193.733544 
L 367.52249 -205.680365 
L 370.801829 -179.578343 
L 374.081167 -177.915047 
L 377.360506 -204.939472 
L 380.639845 -198.801273 
L 383.919184 -167.096112 
L 387.198523 -186.319319 
L 387.198523 -216.121771 
L 387.198523 -216.121771 
L 383.919184 -196.311972 
L 380.639845 -225.297244 
L 377.360506 -228.16217 
L 374.081167 -208.385441 
L 370.801829 -212.483841 
L 367.52249 -228.661549 
L 364.243151 -217.259094 
L 360.963812 -204.404741 
L 357.684473 -204.675299 
L 354.405134 -213.541165 
L 351.125795 -215.720712 
L 347.846457 -150.418816 
L 344.567118 -197.776545 
L 341.287779 -228.323308 
L 338.00844 -191.510792 
L 334.729101 -214.39611 
L 331.449762 -204.147672 
L 328.170424 -214.569803 
L 324.891085 -200.974983 
L 321.611746 -204.366114 
L 318.332407 -215.979814 
L 315.053068 -220.353582 
L 311.773729 -179.072398 
L 308.49439 -209.601276 
L 305.215052 -227.934318 
L 301.935713 -217.556069 
L 298.656374 -217.164022 
L 295.377035 -225.747795 
L 292.097696 -189.416993 
L 288.818357 -211.567841 
L 285.539019 -214.020941 
L 282.25968 -210.799593 
L 278.980341 -226.853225 
L 275.701002 -214.229654 
L 272.421663 -208.371614 
L 269.142324 -196.851378 
L 265.862986 -217.383679 
L 262.583647 -203.104766 
L 259.304308 -208.724635 
L 256.024969 -218.0556 
L 252.74563 -187.497883 
L 249.466291 -197.24942 
L 246.186952 -230.008139 
L 242.907614 -215.307564 
L 239.628275 -196.015481 
L 236.348936 -225.653989 
L 233.069597 -187.873022 
L 229.790258 -207.051716 
L 226.510919 -192.842438 
L 223.231581 -177.292216 
L 219.952242 -195.433645 
L 216.672903 -226.184412 
L 213.393564 -196.745163 
L 210.114225 -189.990232 
L 206.834886 -177.816102 
L 203.555548 -208.949177 
L 200.276209 -203.534408 
L 196.99687 -213.640387 
L 193.717531 -167.143043 
L 190.438192 -189.002163 
L 187.158853 -197.449459 
L 183.879514 -159.871452 
L 180.600176 -188.978356 
L 177.320837 -190.403729 
L 174.041498 -200.238579 
L 170.762159 -179.586131 
L 167.48282 -185.644256 
L 164.203481 -183.436542 
L 160.924143 -174.685039 
L 157.644804 -152.852686 
L 154.365465 -153.294784 
L 151.086126 -168.278815 
L 147.806787 -169.226258 
L 144.527448 -185.357509 
L 141.24811 -188.759682 
L 137.968771 -180.438507 
L 134.689432 -156.540737 
L 131.410093 -173.459078 
L 128.130754 -172.88729 
L 124.851415 -182.819016 
L 121.572076 -167.232823 
L 118.292738 -156.245236 
L 115.013399 -170.162766 
L 111.73406 -176.375834 
L 108.454721 -176.878338 
L 105.175382 -142.425693 
L 101.896043 -152.834734 
L 98.616705 -126.1782 
L 95.337366 -157.794873 
L 92.058027 -151.437582 
L 88.778688 -146.078033 
L 85.499349 -145.958705 
L 82.22001 -134.719995 
L 78.940671 -139.815492 
L 75.661333 -98.475882 
L 72.381994 -120.414506 
L 69.102655 -104.405531 
L 65.823316 -104.044334 
L 62.543977 -83.942465 
z
" style="stroke: #dd8452; stroke-opacity: 0.2"/>
    </defs>
    <g clip-path="url(#p614a118784)">
     <use xlink:href="#m448a063f41" x="0" y="316.271687" style="fill: #dd8452; fill-opacity: 0.2; stroke: #dd8452; stroke-opacity: 0.2"/>
    </g>
   </g>
   <g id="PolyCollection_3">
    <defs>
     <path id="m7eeb193a4f" d="M 62.543977 -140.058253 
L 62.543977 -91.180618 
L 65.823316 -124.679219 
L 69.102655 -131.686695 
L 72.381994 -148.605257 
L 75.661333 -163.457532 
L 78.940671 -172.068275 
L 82.22001 -171.757426 
L 85.499349 -170.182426 
L 88.778688 -185.865999 
L 92.058027 -191.024039 
L 95.337366 -195.003875 
L 98.616705 -179.777403 
L 101.896043 -182.504163 
L 105.175382 -188.4334 
L 108.454721 -194.903829 
L 111.73406 -204.634289 
L 115.013399 -200.430805 
L 118.292738 -207.26193 
L 121.572076 -209.203053 
L 124.851415 -208.571264 
L 128.130754 -216.870553 
L 131.410093 -215.065856 
L 134.689432 -221.598548 
L 137.968771 -218.7951 
L 141.24811 -218.404831 
L 144.527448 -220.22668 
L 147.806787 -223.258785 
L 151.086126 -223.034483 
L 154.365465 -228.091079 
L 157.644804 -230.527692 
L 160.924143 -226.606108 
L 164.203481 -229.569537 
L 167.48282 -228.32799 
L 170.762159 -228.530026 
L 174.041498 -226.500495 
L 177.320837 -228.42605 
L 180.600176 -231.095401 
L 183.879514 -226.575071 
L 187.158853 -226.542107 
L 190.438192 -225.081329 
L 193.717531 -231.359142 
L 196.99687 -231.82046 
L 200.276209 -228.498624 
L 203.555548 -228.725383 
L 206.834886 -232.612842 
L 210.114225 -233.006701 
L 213.393564 -232.306202 
L 216.672903 -232.616675 
L 219.952242 -234.307081 
L 223.231581 -231.861729 
L 226.510919 -232.808107 
L 229.790258 -231.950179 
L 233.069597 -237.22805 
L 236.348936 -237.828609 
L 239.628275 -240.009537 
L 242.907614 -243.065995 
L 246.186952 -244.510603 
L 249.466291 -244.40337 
L 252.74563 -242.904061 
L 256.024969 -243.020396 
L 259.304308 -242.485447 
L 262.583647 -241.609865 
L 265.862986 -242.701965 
L 269.142324 -244.205333 
L 272.421663 -246.592937 
L 275.701002 -242.983844 
L 278.980341 -244.520942 
L 282.25968 -243.618751 
L 285.539019 -244.845715 
L 288.818357 -214.831017 
L 292.097696 -210.444378 
L 295.377035 -212.377964 
L 298.656374 -212.918735 
L 301.935713 -213.30988 
L 305.215052 -214.023533 
L 308.49439 -213.995748 
L 311.773729 -212.411485 
L 315.053068 -212.348855 
L 318.332407 -212.883875 
L 321.611746 -213.517191 
L 324.891085 -216.830116 
L 328.170424 -216.501923 
L 331.449762 -216.31776 
L 334.729101 -215.198867 
L 338.00844 -214.971874 
L 341.287779 -216.749434 
L 344.567118 -216.8731 
L 347.846457 -216.966527 
L 351.125795 -217.752492 
L 354.405134 -216.236541 
L 357.684473 -217.838 
L 360.963812 -216.00678 
L 364.243151 -215.409863 
L 367.52249 -215.119699 
L 370.801829 -219.030721 
L 374.081167 -218.843459 
L 377.360506 -221.971367 
L 380.639845 -219.211169 
L 383.919184 -219.115245 
L 387.198523 -219.822309 
L 387.198523 -261.318008 
L 387.198523 -261.318008 
L 383.919184 -259.329387 
L 380.639845 -259.054372 
L 377.360506 -259.810235 
L 374.081167 -259.045331 
L 370.801829 -259.246145 
L 367.52249 -257.068569 
L 364.243151 -256.648012 
L 360.963812 -256.577224 
L 357.684473 -254.586988 
L 354.405134 -257.231652 
L 351.125795 -256.440253 
L 347.846457 -256.145171 
L 344.567118 -255.87665 
L 341.287779 -256.608871 
L 338.00844 -255.082723 
L 334.729101 -255.024695 
L 331.449762 -258.228527 
L 328.170424 -256.903653 
L 324.891085 -255.877635 
L 321.611746 -254.352402 
L 318.332407 -253.910208 
L 315.053068 -253.053773 
L 311.773729 -252.274609 
L 308.49439 -251.824775 
L 305.215052 -252.975936 
L 301.935713 -252.717111 
L 298.656374 -254.082975 
L 295.377035 -251.998276 
L 292.097696 -250.941695 
L 288.818357 -253.341531 
L 285.539019 -274.526734 
L 282.25968 -274.369854 
L 278.980341 -272.393892 
L 275.701002 -273.411491 
L 272.421663 -274.950735 
L 269.142324 -273.012593 
L 265.862986 -270.065617 
L 262.583647 -270.880214 
L 259.304308 -270.633357 
L 256.024969 -270.243036 
L 252.74563 -273.578556 
L 249.466291 -272.651148 
L 246.186952 -274.622182 
L 242.907614 -273.617418 
L 239.628275 -270.63694 
L 236.348936 -268.788471 
L 233.069597 -268.720328 
L 229.790258 -264.493572 
L 226.510919 -264.38499 
L 223.231581 -263.490725 
L 219.952242 -266.919662 
L 216.672903 -265.834039 
L 213.393564 -267.406177 
L 210.114225 -265.738726 
L 206.834886 -266.415408 
L 203.555548 -262.83097 
L 200.276209 -262.363388 
L 196.99687 -266.225346 
L 193.717531 -266.624193 
L 190.438192 -260.251784 
L 187.158853 -262.120224 
L 183.879514 -261.94213 
L 180.600176 -263.653052 
L 177.320837 -263.812137 
L 174.041498 -261.045641 
L 170.762159 -262.206792 
L 167.48282 -263.476835 
L 164.203481 -263.781694 
L 160.924143 -260.430781 
L 157.644804 -265.654112 
L 154.365465 -260.759789 
L 151.086126 -256.80041 
L 147.806787 -257.066608 
L 144.527448 -254.984614 
L 141.24811 -250.742211 
L 137.968771 -254.57433 
L 134.689432 -253.047508 
L 131.410093 -249.294788 
L 128.130754 -251.930831 
L 124.851415 -245.097735 
L 121.572076 -246.461393 
L 118.292738 -241.668814 
L 115.013399 -239.824764 
L 111.73406 -243.585213 
L 108.454721 -234.556482 
L 105.175382 -230.080239 
L 101.896043 -224.807562 
L 98.616705 -224.879237 
L 95.337366 -236.315217 
L 92.058027 -234.113711 
L 88.778688 -227.283892 
L 85.499349 -216.285002 
L 82.22001 -212.697765 
L 78.940671 -215.461875 
L 75.661333 -209.194978 
L 72.381994 -203.748386 
L 69.102655 -181.523929 
L 65.823316 -173.525654 
L 62.543977 -140.058253 
z
" style="stroke: #55a868; stroke-opacity: 0.2"/>
    </defs>
    <g clip-path="url(#p614a118784)">
     <use xlink:href="#m7eeb193a4f" x="0" y="316.271687" style="fill: #55a868; fill-opacity: 0.2; stroke: #55a868; stroke-opacity: 0.2"/>
    </g>
   </g>
   <g id="PolyCollection_4">
    <defs>
     <path id="m7c41b2341b" d="M 62.543977 -98.506335 
L 62.543977 -60.923485 
L 65.823316 -91.63444 
L 69.102655 -72.879951 
L 72.381994 -71.699905 
L 75.661333 -94.305756 
L 78.940671 -100.748135 
L 82.22001 -103.503797 
L 85.499349 -125.732057 
L 88.778688 -121.555175 
L 92.058027 -131.810745 
L 95.337366 -133.154012 
L 98.616705 -128.996075 
L 101.896043 -136.823618 
L 105.175382 -143.920814 
L 108.454721 -160.407339 
L 111.73406 -158.098335 
L 115.013399 -169.125065 
L 118.292738 -174.603095 
L 121.572076 -176.182064 
L 124.851415 -175.801015 
L 128.130754 -179.385015 
L 131.410093 -190.576439 
L 134.689432 -191.063009 
L 137.968771 -198.515722 
L 141.24811 -202.955141 
L 144.527448 -204.569515 
L 147.806787 -209.695671 
L 151.086126 -214.252513 
L 154.365465 -204.304467 
L 157.644804 -212.114009 
L 160.924143 -211.87395 
L 164.203481 -215.825921 
L 167.48282 -219.670295 
L 170.762159 -216.003776 
L 174.041498 -220.510537 
L 177.320837 -225.692842 
L 180.600176 -230.294755 
L 183.879514 -230.302685 
L 187.158853 -231.211224 
L 190.438192 -233.504716 
L 193.717531 -233.709834 
L 196.99687 -237.134381 
L 200.276209 -237.979026 
L 203.555548 -239.42589 
L 206.834886 -244.227709 
L 210.114225 -243.263931 
L 213.393564 -244.186789 
L 216.672903 -245.741315 
L 219.952242 -247.164492 
L 223.231581 -247.612001 
L 226.510919 -247.048402 
L 229.790258 -248.562729 
L 233.069597 -246.935007 
L 236.348936 -249.027119 
L 239.628275 -251.644212 
L 242.907614 -252.675322 
L 246.186952 -252.31269 
L 249.466291 -254.895555 
L 252.74563 -255.874159 
L 256.024969 -257.69147 
L 259.304308 -258.906231 
L 262.583647 -259.406214 
L 265.862986 -258.451392 
L 269.142324 -259.879167 
L 272.421663 -260.017959 
L 275.701002 -261.939418 
L 278.980341 -259.459651 
L 282.25968 -262.092575 
L 285.539019 -262.066246 
L 288.818357 -237.506064 
L 292.097696 -236.029086 
L 295.377035 -236.820432 
L 298.656374 -237.989144 
L 301.935713 -236.607241 
L 305.215052 -237.096349 
L 308.49439 -236.703634 
L 311.773729 -236.192806 
L 315.053068 -238.112129 
L 318.332407 -237.188764 
L 321.611746 -239.818812 
L 324.891085 -238.914971 
L 328.170424 -240.109316 
L 331.449762 -239.215358 
L 334.729101 -238.472821 
L 338.00844 -241.74058 
L 341.287779 -242.029918 
L 344.567118 -242.004276 
L 347.846457 -241.389812 
L 351.125795 -240.790128 
L 354.405134 -242.95346 
L 357.684473 -242.850558 
L 360.963812 -241.870014 
L 364.243151 -243.448245 
L 367.52249 -241.989256 
L 370.801829 -242.127894 
L 374.081167 -242.884008 
L 377.360506 -241.683356 
L 380.639845 -242.362735 
L 383.919184 -242.718228 
L 387.198523 -242.895486 
L 387.198523 -277.413126 
L 387.198523 -277.413126 
L 383.919184 -278.471463 
L 380.639845 -278.404375 
L 377.360506 -278.897976 
L 374.081167 -278.371742 
L 370.801829 -275.818789 
L 367.52249 -276.683416 
L 364.243151 -276.795459 
L 360.963812 -276.788074 
L 357.684473 -277.42148 
L 354.405134 -275.816827 
L 351.125795 -276.38627 
L 347.846457 -275.053666 
L 344.567118 -275.463761 
L 341.287779 -276.795544 
L 338.00844 -276.716965 
L 334.729101 -274.16115 
L 331.449762 -273.34397 
L 328.170424 -275.580445 
L 324.891085 -274.648997 
L 321.611746 -273.708457 
L 318.332407 -272.171047 
L 315.053068 -271.264135 
L 311.773729 -272.009037 
L 308.49439 -271.701097 
L 305.215052 -270.946842 
L 301.935713 -272.114232 
L 298.656374 -271.64093 
L 295.377035 -271.254104 
L 292.097696 -270.440748 
L 288.818357 -270.155524 
L 285.539019 -286.368819 
L 282.25968 -287.360079 
L 278.980341 -284.454864 
L 275.701002 -285.553118 
L 272.421663 -285.66202 
L 269.142324 -286.14135 
L 265.862986 -286.100013 
L 262.583647 -285.160455 
L 259.304308 -284.663781 
L 256.024969 -285.222781 
L 252.74563 -283.478926 
L 249.466291 -282.724499 
L 246.186952 -282.137787 
L 242.907614 -281.053945 
L 239.628275 -280.40654 
L 236.348936 -277.794089 
L 233.069597 -277.027516 
L 229.790258 -277.047207 
L 226.510919 -277.070701 
L 223.231581 -277.992658 
L 219.952242 -277.040948 
L 216.672903 -276.824351 
L 213.393564 -275.075937 
L 210.114225 -271.540556 
L 206.834886 -271.991051 
L 203.555548 -269.821917 
L 200.276209 -267.819761 
L 196.99687 -266.61307 
L 193.717531 -263.920483 
L 190.438192 -265.323622 
L 187.158853 -262.435801 
L 183.879514 -260.252941 
L 180.600176 -259.943521 
L 177.320837 -256.465296 
L 174.041498 -254.432848 
L 170.762159 -251.80514 
L 167.48282 -252.81027 
L 164.203481 -251.263176 
L 160.924143 -248.020933 
L 157.644804 -250.526148 
L 154.365465 -244.390674 
L 151.086126 -249.015279 
L 147.806787 -245.365698 
L 144.527448 -240.853691 
L 141.24811 -240.113072 
L 137.968771 -235.602809 
L 134.689432 -230.043889 
L 131.410093 -228.823409 
L 128.130754 -219.616792 
L 124.851415 -215.181594 
L 121.572076 -215.204373 
L 118.292738 -214.590866 
L 115.013399 -208.987687 
L 111.73406 -205.424631 
L 108.454721 -205.004153 
L 105.175382 -190.49652 
L 101.896043 -188.252975 
L 98.616705 -179.659378 
L 95.337366 -183.752501 
L 92.058027 -181.519849 
L 88.778688 -171.214137 
L 85.499349 -175.684522 
L 82.22001 -155.84908 
L 78.940671 -153.490059 
L 75.661333 -145.365221 
L 72.381994 -121.843345 
L 69.102655 -124.219499 
L 65.823316 -147.85336 
L 62.543977 -98.506335 
z
" style="stroke: #c44e52; stroke-opacity: 0.2"/>
    </defs>
    <g clip-path="url(#p614a118784)">
     <use xlink:href="#m7c41b2341b" x="0" y="316.271687" style="fill: #c44e52; fill-opacity: 0.2; stroke: #c44e52; stroke-opacity: 0.2"/>
    </g>
   </g>
   <g id="PolyCollection_5">
    <defs>
     <path id="m02734f2147" d="M 62.543977 -113.311386 
L 62.543977 -65.47672 
L 65.823316 -72.833899 
L 69.102655 -86.927041 
L 72.381994 -88.625772 
L 75.661333 -112.951964 
L 78.940671 -111.725372 
L 82.22001 -113.982108 
L 85.499349 -122.998293 
L 88.778688 -129.2746 
L 92.058027 -139.722861 
L 95.337366 -143.215214 
L 98.616705 -144.55892 
L 101.896043 -149.153666 
L 105.175382 -150.960973 
L 108.454721 -151.450659 
L 111.73406 -151.473536 
L 115.013399 -153.918751 
L 118.292738 -158.332442 
L 121.572076 -158.388762 
L 124.851415 -162.354304 
L 128.130754 -161.825475 
L 131.410093 -166.692448 
L 134.689432 -162.790997 
L 137.968771 -165.824918 
L 141.24811 -171.983991 
L 144.527448 -172.144298 
L 147.806787 -172.748798 
L 151.086126 -175.466266 
L 154.365465 -172.382304 
L 157.644804 -172.198916 
L 160.924143 -173.473604 
L 164.203481 -173.755298 
L 167.48282 -173.21138 
L 170.762159 -175.902239 
L 174.041498 -176.979011 
L 177.320837 -178.365644 
L 180.600176 -182.27538 
L 183.879514 -187.435581 
L 187.158853 -184.676662 
L 190.438192 -184.807441 
L 193.717531 -186.742136 
L 196.99687 -184.560161 
L 200.276209 -185.18094 
L 203.555548 -188.023867 
L 206.834886 -187.984947 
L 210.114225 -186.126201 
L 213.393564 -189.226592 
L 216.672903 -188.914185 
L 219.952242 -187.701445 
L 223.231581 -187.36599 
L 226.510919 -188.421624 
L 229.790258 -189.178083 
L 233.069597 -190.592069 
L 236.348936 -191.998613 
L 239.628275 -191.496723 
L 242.907614 -193.57601 
L 246.186952 -194.598629 
L 249.466291 -194.983195 
L 252.74563 -197.20703 
L 256.024969 -195.290905 
L 259.304308 -197.393362 
L 262.583647 -197.028279 
L 265.862986 -196.038386 
L 269.142324 -196.51225 
L 272.421663 -197.619443 
L 275.701002 -199.607774 
L 278.980341 -201.685763 
L 282.25968 -204.478865 
L 285.539019 -203.932185 
L 288.818357 -185.998204 
L 292.097696 -186.7082 
L 295.377035 -188.760882 
L 298.656374 -189.981545 
L 301.935713 -188.79483 
L 305.215052 -189.455719 
L 308.49439 -192.221182 
L 311.773729 -190.91814 
L 315.053068 -191.76409 
L 318.332407 -191.880246 
L 321.611746 -192.00359 
L 324.891085 -191.968238 
L 328.170424 -194.197327 
L 331.449762 -194.688339 
L 334.729101 -193.675744 
L 338.00844 -194.994542 
L 341.287779 -194.998574 
L 344.567118 -194.803987 
L 347.846457 -196.097265 
L 351.125795 -196.00147 
L 354.405134 -195.696387 
L 357.684473 -195.241554 
L 360.963812 -193.462396 
L 364.243151 -195.80032 
L 367.52249 -196.161508 
L 370.801829 -195.763224 
L 374.081167 -197.362963 
L 377.360506 -197.689144 
L 380.639845 -198.618886 
L 383.919184 -199.088444 
L 387.198523 -197.288599 
L 387.198523 -242.219166 
L 387.198523 -242.219166 
L 383.919184 -240.243132 
L 380.639845 -238.716669 
L 377.360506 -239.064618 
L 374.081167 -237.461197 
L 370.801829 -240.481113 
L 367.52249 -237.357439 
L 364.243151 -236.064879 
L 360.963812 -236.439204 
L 357.684473 -237.533731 
L 354.405134 -238.573384 
L 351.125795 -238.415229 
L 347.846457 -236.809373 
L 344.567118 -237.43033 
L 341.287779 -237.35183 
L 338.00844 -235.41086 
L 334.729101 -236.841325 
L 331.449762 -235.935618 
L 328.170424 -236.008639 
L 324.891085 -234.962461 
L 321.611746 -235.391731 
L 318.332407 -235.04087 
L 315.053068 -235.102999 
L 311.773729 -233.281022 
L 308.49439 -233.06472 
L 305.215052 -230.78686 
L 301.935713 -233.211935 
L 298.656374 -231.727384 
L 295.377035 -229.952284 
L 292.097696 -228.770095 
L 288.818357 -227.595496 
L 285.539019 -244.298459 
L 282.25968 -245.174621 
L 278.980341 -243.921257 
L 275.701002 -240.97158 
L 272.421663 -240.140465 
L 269.142324 -240.562263 
L 265.862986 -239.084426 
L 262.583647 -239.719506 
L 259.304308 -240.557252 
L 256.024969 -242.820341 
L 252.74563 -241.897029 
L 249.466291 -241.413081 
L 246.186952 -239.401598 
L 242.907614 -235.514917 
L 239.628275 -235.55109 
L 236.348936 -236.757922 
L 233.069597 -237.580467 
L 229.790258 -233.392362 
L 226.510919 -234.25785 
L 223.231581 -232.007026 
L 219.952242 -231.101833 
L 216.672903 -233.822392 
L 213.393564 -231.606991 
L 210.114225 -229.661433 
L 206.834886 -234.043668 
L 203.555548 -234.556059 
L 200.276209 -232.57361 
L 196.99687 -230.244097 
L 193.717531 -231.486425 
L 190.438192 -229.496926 
L 187.158853 -232.951325 
L 183.879514 -231.213486 
L 180.600176 -229.95038 
L 177.320837 -225.566487 
L 174.041498 -223.930603 
L 170.762159 -222.028633 
L 167.48282 -220.833764 
L 164.203481 -221.366256 
L 160.924143 -220.618169 
L 157.644804 -219.901065 
L 154.365465 -220.688356 
L 151.086126 -220.703362 
L 147.806787 -222.075319 
L 144.527448 -218.002842 
L 141.24811 -219.033191 
L 137.968771 -215.33451 
L 134.689432 -215.544487 
L 131.410093 -219.768935 
L 128.130754 -214.200233 
L 124.851415 -211.352174 
L 121.572076 -212.137422 
L 118.292738 -212.896297 
L 115.013399 -209.483083 
L 111.73406 -204.607665 
L 108.454721 -202.139074 
L 105.175382 -202.28079 
L 101.896043 -200.772462 
L 98.616705 -199.151968 
L 95.337366 -196.572616 
L 92.058027 -193.498066 
L 88.778688 -188.12992 
L 85.499349 -182.052922 
L 82.22001 -173.034297 
L 78.940671 -171.002114 
L 75.661333 -175.137527 
L 72.381994 -148.925994 
L 69.102655 -145.931784 
L 65.823316 -127.235385 
L 62.543977 -113.311386 
z
" style="stroke: #8172b3; stroke-opacity: 0.2"/>
    </defs>
    <g clip-path="url(#p614a118784)">
     <use xlink:href="#m02734f2147" x="0" y="316.271687" style="fill: #8172b3; fill-opacity: 0.2; stroke: #8172b3; stroke-opacity: 0.2"/>
    </g>
   </g>
   <g id="line2d_15">
    <path d="M 62.543977 237.939097 
L 65.823316 209.191013 
L 69.102655 193.885695 
L 72.381994 164.729904 
L 75.661333 157.257213 
L 78.940671 150.732722 
L 82.22001 137.218571 
L 85.499349 113.451969 
L 88.778688 114.523227 
L 92.058027 107.90108 
L 95.337366 102.683509 
L 98.616705 107.076192 
L 101.896043 94.506229 
L 105.175382 84.133779 
L 108.454721 63.391392 
L 111.73406 71.414722 
L 115.013399 67.98663 
L 118.292738 77.395743 
L 121.572076 64.434018 
L 124.851415 61.994538 
L 128.130754 74.224947 
L 131.410093 68.836375 
L 134.689432 72.690097 
L 137.968771 60.898758 
L 141.24811 55.023962 
L 144.527448 53.133678 
L 147.806787 61.468791 
L 151.086126 154.219167 
L 154.365465 160.387071 
L 157.644804 129.697619 
L 160.924143 106.440528 
L 164.203481 112.043453 
L 167.48282 87.7749 
L 170.762159 77.781134 
L 174.041498 59.568742 
L 177.320837 62.480136 
L 180.600176 63.478894 
L 183.879514 75.914572 
L 187.158853 56.248117 
L 190.438192 55.259696 
L 193.717531 69.568997 
L 196.99687 52.02375 
L 200.276209 49.622975 
L 203.555548 45.733052 
L 206.834886 54.306731 
L 210.114225 55.136139 
L 213.393564 50.482176 
L 216.672903 39.502031 
L 219.952242 52.085071 
L 223.231581 57.212544 
L 226.510919 48.703397 
L 229.790258 41.580723 
L 233.069597 44.522364 
L 236.348936 37.50742 
L 239.628275 42.995219 
L 242.907614 41.426311 
L 246.186952 33.802792 
L 249.466291 39.349579 
L 252.74563 36.82266 
L 256.024969 33.134467 
L 259.304308 33.814181 
L 262.583647 39.409892 
L 265.862986 30.961449 
L 269.142324 32.612024 
L 272.421663 35.449537 
L 275.701002 32.010355 
L 278.980341 30.057544 
L 282.25968 32.795966 
L 285.539019 32.261181 
L 288.818357 55.913904 
L 292.097696 68.132756 
L 295.377035 59.462841 
L 298.656374 53.062287 
L 301.935713 54.890387 
L 305.215052 46.148122 
L 308.49439 65.721333 
L 311.773729 69.534815 
L 315.053068 51.136618 
L 318.332407 58.063411 
L 321.611746 64.139991 
L 324.891085 63.789794 
L 328.170424 56.398172 
L 331.449762 67.743649 
L 334.729101 69.880687 
L 338.00844 92.504127 
L 341.287779 62.415051 
L 344.567118 80.757784 
L 347.846457 108.4738 
L 351.125795 62.736255 
L 354.405134 66.398451 
L 357.684473 78.064009 
L 360.963812 62.418424 
L 364.243151 55.777445 
L 367.52249 53.633159 
L 370.801829 57.292052 
L 374.081167 58.14177 
L 377.360506 52.608562 
L 380.639845 55.490779 
L 383.919184 71.451686 
L 387.198523 58.026636 
" clip-path="url(#p614a118784)" style="fill: none; stroke: #4c72b0; stroke-width: 1.5; stroke-linecap: round"/>
   </g>
   <g id="line2d_16">
    <path d="M 62.543977 246.817935 
L 65.823316 237.732104 
L 69.102655 232.5908 
L 72.381994 218.666528 
L 75.661333 239.599446 
L 78.940671 203.907548 
L 82.22001 209.823464 
L 85.499349 188.713419 
L 88.778688 189.288234 
L 92.058027 187.964198 
L 95.337366 176.844007 
L 98.616705 204.21385 
L 101.896043 183.404389 
L 105.175382 188.661418 
L 108.454721 156.393601 
L 111.73406 155.095412 
L 115.013399 168.536218 
L 118.292738 178.076266 
L 121.572076 166.9833 
L 124.851415 148.437154 
L 128.130754 162.561941 
L 131.410093 159.755663 
L 134.689432 182.671922 
L 137.968771 150.839663 
L 141.24811 147.826193 
L 144.527448 141.70263 
L 147.806787 169.950515 
L 151.086126 164.144471 
L 154.365465 189.296211 
L 157.644804 187.044875 
L 160.924143 160.412726 
L 164.203481 160.884648 
L 167.48282 152.391737 
L 170.762159 155.861239 
L 174.041498 132.991609 
L 177.320837 144.521358 
L 180.600176 143.306069 
L 183.879514 178.114382 
L 187.158853 135.227063 
L 190.438192 145.547523 
L 193.717531 168.476305 
L 196.99687 116.792087 
L 200.276209 131.575243 
L 203.555548 124.990666 
L 206.834886 157.38008 
L 210.114225 149.04719 
L 213.393564 140.521346 
L 216.672903 103.179063 
L 219.952242 138.77276 
L 223.231581 159.299459 
L 226.510919 141.970073 
L 229.790258 119.938081 
L 233.069597 149.013376 
L 236.348936 102.63405 
L 239.628275 141.50679 
L 242.907614 119.202265 
L 246.186952 106.937642 
L 249.466291 136.171389 
L 252.74563 150.9855 
L 256.024969 113.185361 
L 259.304308 125.653047 
L 262.583647 133.134024 
L 265.862986 114.330981 
L 269.142324 139.647878 
L 272.421663 127.443079 
L 275.701002 122.649805 
L 278.980341 113.157464 
L 282.25968 125.744814 
L 285.539019 123.172257 
L 288.818357 116.242243 
L 292.097696 142.695301 
L 295.377035 100.501592 
L 298.656374 115.850227 
L 301.935713 109.78456 
L 305.215052 100.47345 
L 308.49439 119.621872 
L 311.773729 153.373665 
L 315.053068 111.279653 
L 318.332407 116.394685 
L 321.611746 123.487159 
L 324.891085 131.862399 
L 328.170424 120.305743 
L 331.449762 130.340168 
L 334.729101 120.036357 
L 338.00844 139.531075 
L 341.287779 101.446935 
L 344.567118 132.753459 
L 347.846457 185.942594 
L 351.125795 117.522962 
L 354.405134 118.581075 
L 357.684473 126.218955 
L 360.963812 128.081847 
L 364.243151 110.64847 
L 367.52249 98.656105 
L 370.801829 119.697943 
L 374.081167 122.989214 
L 377.360506 100.127859 
L 380.639845 103.888081 
L 383.919184 135.34356 
L 387.198523 115.277315 
" clip-path="url(#p614a118784)" style="fill: none; stroke: #dd8452; stroke-width: 1.5; stroke-linecap: round"/>
   </g>
   <g id="line2d_17">
    <path d="M 62.543977 201.008814 
L 65.823316 168.329887 
L 69.102655 159.715742 
L 72.381994 139.400955 
L 75.661333 130.199534 
L 78.940671 122.861563 
L 82.22001 124.597117 
L 85.499349 124.057068 
L 88.778688 110.032561 
L 92.058027 103.538563 
L 95.337366 100.468927 
L 98.616705 113.750248 
L 101.896043 112.160603 
L 105.175382 107.636451 
L 108.454721 100.807473 
L 111.73406 92.618377 
L 115.013399 95.912957 
L 118.292738 91.673644 
L 121.572076 88.46495 
L 124.851415 88.95888 
L 128.130754 82.694472 
L 131.410093 83.109157 
L 134.689432 78.612084 
L 137.968771 79.555475 
L 141.24811 81.464744 
L 144.527448 77.989797 
L 147.806787 75.268662 
L 151.086126 75.574084 
L 154.365465 72.373722 
L 157.644804 67.483145 
L 160.924143 72.404332 
L 164.203481 70.667635 
L 167.48282 70.227493 
L 170.762159 71.357785 
L 174.041498 71.756217 
L 177.320837 69.97586 
L 180.600176 69.173886 
L 183.879514 71.382814 
L 187.158853 72.049324 
L 190.438192 73.257889 
L 193.717531 67.066608 
L 196.99687 68.012448 
L 200.276209 69.743774 
L 203.555548 69.05267 
L 206.834886 67.562551 
L 210.114225 67.170699 
L 213.393564 66.137873 
L 216.672903 67.209703 
L 219.952242 65.662158 
L 223.231581 68.377884 
L 226.510919 67.089577 
L 229.790258 67.752856 
L 233.069597 63.16309 
L 236.348936 63.409642 
L 239.628275 61.172163 
L 242.907614 57.518083 
L 246.186952 56.68775 
L 249.466291 56.802858 
L 252.74563 58.165164 
L 256.024969 59.751333 
L 259.304308 58.952163 
L 262.583647 60.192772 
L 265.862986 58.959768 
L 269.142324 57.605349 
L 272.421663 55.72738 
L 275.701002 57.819421 
L 278.980341 57.391568 
L 282.25968 57.619561 
L 285.539019 56.640061 
L 288.818357 82.283788 
L 292.097696 84.750396 
L 295.377035 83.411995 
L 298.656374 82.920759 
L 301.935713 83.642453 
L 305.215052 82.732755 
L 308.49439 82.695275 
L 311.773729 82.526208 
L 315.053068 83.147443 
L 318.332407 82.847044 
L 321.611746 81.218471 
L 324.891085 79.885032 
L 328.170424 79.269571 
L 331.449762 78.818584 
L 334.729101 80.074662 
L 338.00844 80.467148 
L 341.287779 79.036921 
L 344.567118 77.998984 
L 347.846457 80.764594 
L 351.125795 78.896257 
L 354.405134 79.414511 
L 357.684473 79.601333 
L 360.963812 79.493454 
L 364.243151 79.237707 
L 367.52249 79.999848 
L 370.801829 76.116131 
L 374.081167 76.790277 
L 377.360506 74.791192 
L 380.639845 75.37724 
L 383.919184 75.938203 
L 387.198523 75.641246 
" clip-path="url(#p614a118784)" style="fill: none; stroke: #55a868; stroke-width: 1.5; stroke-linecap: round"/>
   </g>
   <g id="line2d_18">
    <path d="M 62.543977 237.611859 
L 65.823316 197.815059 
L 69.102655 217.756788 
L 72.381994 220.806431 
L 75.661333 197.422925 
L 78.940671 189.768487 
L 82.22001 188.892869 
L 85.499349 166.392449 
L 88.778688 169.82448 
L 92.058027 160.555468 
L 95.337366 158.226722 
L 98.616705 162.767609 
L 101.896043 153.908528 
L 105.175382 150.433581 
L 108.454721 134.839285 
L 111.73406 134.98288 
L 115.013399 127.171535 
L 118.292738 122.184435 
L 121.572076 121.442937 
L 124.851415 120.811412 
L 128.130754 116.832535 
L 131.410093 107.030163 
L 134.689432 105.635732 
L 137.968771 98.845232 
L 141.24811 95.050398 
L 144.527448 92.108058 
L 147.806787 89.109181 
L 151.086126 84.368506 
L 154.365465 91.830524 
L 157.644804 85.152738 
L 160.924143 86.483534 
L 164.203481 82.726443 
L 167.48282 80.43367 
L 170.762159 81.95939 
L 174.041498 78.660455 
L 177.320837 76.021549 
L 180.600176 71.468065 
L 183.879514 71.124238 
L 187.158853 69.552988 
L 190.438192 67.26233 
L 193.717531 67.440791 
L 196.99687 63.894623 
L 200.276209 62.446377 
L 203.555548 60.930639 
L 206.834886 58.058831 
L 210.114225 58.088888 
L 213.393564 55.827959 
L 216.672903 55.139596 
L 219.952242 54.39485 
L 223.231581 53.866953 
L 226.510919 54.183918 
L 229.790258 53.548899 
L 233.069597 54.477706 
L 236.348936 52.815923 
L 239.628275 49.655972 
L 242.907614 49.39794 
L 246.186952 49.141769 
L 249.466291 48.268547 
L 252.74563 46.617591 
L 256.024969 45.280505 
L 259.304308 44.075135 
L 262.583647 43.546348 
L 265.862986 44.080163 
L 269.142324 43.150176 
L 272.421663 43.6835 
L 275.701002 43.129058 
L 278.980341 43.108975 
L 282.25968 41.900111 
L 285.539019 41.723456 
L 288.818357 62.280777 
L 292.097696 62.048642 
L 295.377035 61.686698 
L 298.656374 60.933552 
L 301.935713 61.314521 
L 305.215052 61.250424 
L 308.49439 60.920104 
L 311.773729 61.608918 
L 315.053068 60.487012 
L 318.332407 60.701182 
L 321.611746 60.16678 
L 324.891085 59.099125 
L 328.170424 58.168482 
L 331.449762 58.992599 
L 334.729101 58.172338 
L 338.00844 57.213395 
L 341.287779 56.898296 
L 344.567118 56.973618 
L 347.846457 57.267805 
L 351.125795 57.165668 
L 354.405134 56.404531 
L 357.684473 56.550569 
L 360.963812 55.783403 
L 364.243151 56.294219 
L 367.52249 56.212944 
L 370.801829 56.350172 
L 374.081167 55.32513 
L 377.360506 55.260194 
L 380.639845 54.564628 
L 383.919184 55.247578 
L 387.198523 55.312997 
" clip-path="url(#p614a118784)" style="fill: none; stroke: #c44e52; stroke-width: 1.5; stroke-linecap: round"/>
   </g>
   <g id="line2d_19">
    <path d="M 62.543977 229.429869 
L 65.823316 216.643203 
L 69.102655 199.705733 
L 72.381994 198.894203 
L 75.661333 174.630732 
L 78.940671 176.056354 
L 82.22001 174.158301 
L 85.499349 163.876937 
L 88.778688 157.69062 
L 92.058027 150.19232 
L 95.337366 146.82082 
L 98.616705 142.218775 
L 101.896043 142.421204 
L 105.175382 140.485435 
L 108.454721 138.893494 
L 111.73406 139.06603 
L 115.013399 134.734985 
L 118.292738 129.977367 
L 121.572076 129.550548 
L 124.851415 129.201067 
L 128.130754 128.25833 
L 131.410093 125.115149 
L 134.689432 127.833843 
L 137.968771 125.742745 
L 141.24811 122.042183 
L 144.527448 121.267262 
L 147.806787 120.513604 
L 151.086126 119.721078 
L 154.365465 119.830351 
L 157.644804 120.311575 
L 160.924143 119.05042 
L 164.203481 119.917072 
L 167.48282 119.91994 
L 170.762159 118.904275 
L 174.041498 115.754361 
L 177.320837 114.570372 
L 180.600176 111.226397 
L 183.879514 107.78353 
L 187.158853 108.631061 
L 190.438192 108.611631 
L 193.717531 108.010453 
L 196.99687 108.345976 
L 200.276209 107.882857 
L 203.555548 105.959549 
L 206.834886 105.298021 
L 210.114225 108.238854 
L 213.393564 107.001631 
L 216.672903 105.836627 
L 219.952242 106.424102 
L 223.231581 106.295717 
L 226.510919 106.097054 
L 229.790258 105.103279 
L 233.069597 102.187502 
L 236.348936 102.471561 
L 239.628275 102.354383 
L 242.907614 101.503949 
L 246.186952 99.412361 
L 249.466291 97.443678 
L 252.74563 96.462961 
L 256.024969 97.636278 
L 259.304308 97.834741 
L 262.583647 98.243092 
L 265.862986 99.006079 
L 269.142324 97.766678 
L 272.421663 97.527994 
L 275.701002 96.627919 
L 278.980341 94.782157 
L 282.25968 91.591069 
L 285.539019 91.57743 
L 288.818357 108.827377 
L 292.097696 107.072248 
L 295.377035 106.813572 
L 298.656374 106.126455 
L 301.935713 106.103077 
L 305.215052 106.944632 
L 308.49439 103.475667 
L 311.773729 103.277163 
L 315.053068 102.98882 
L 318.332407 103.387494 
L 321.611746 102.569755 
L 324.891085 101.370081 
L 328.170424 101.198937 
L 331.449762 101.190095 
L 334.729101 101.349105 
L 338.00844 100.610856 
L 341.287779 100.076543 
L 344.567118 100.345287 
L 347.846457 99.949326 
L 351.125795 98.963061 
L 354.405134 99.050351 
L 357.684473 100.729814 
L 360.963812 100.164379 
L 364.243151 101.088879 
L 367.52249 99.806394 
L 370.801829 97.582327 
L 374.081167 99.272697 
L 377.360506 98.135577 
L 380.639845 97.276527 
L 383.919184 96.200646 
L 387.198523 96.018086 
" clip-path="url(#p614a118784)" style="fill: none; stroke: #8172b3; stroke-width: 1.5; stroke-linecap: round"/>
   </g>
   <g id="line2d_20"/>
   <g id="line2d_21"/>
   <g id="line2d_22"/>
   <g id="line2d_23"/>
   <g id="line2d_24"/>
   <g id="patch_3">
    <path d="M 46.31125 273.312 
L 46.31125 7.2 
" style="fill: none; stroke: #cccccc; stroke-width: 1.25; stroke-linejoin: miter; stroke-linecap: square"/>
   </g>
   <g id="patch_4">
    <path d="M 403.43125 273.312 
L 403.43125 7.2 
" style="fill: none; stroke: #cccccc; stroke-width: 1.25; stroke-linejoin: miter; stroke-linecap: square"/>
   </g>
   <g id="patch_5">
    <path d="M 46.31125 273.312 
L 403.43125 273.312 
" style="fill: none; stroke: #cccccc; stroke-width: 1.25; stroke-linejoin: miter; stroke-linecap: square"/>
   </g>
   <g id="patch_6">
    <path d="M 46.31125 7.2 
L 403.43125 7.2 
" style="fill: none; stroke: #cccccc; stroke-width: 1.25; stroke-linejoin: miter; stroke-linecap: square"/>
   </g>
   <g id="legend_1">
    <g id="patch_7">
     <path d="M 291.746875 267.812 
L 395.73125 267.812 
Q 397.93125 267.812 397.93125 265.612 
L 397.93125 168.868562 
Q 397.93125 166.668562 395.73125 166.668562 
L 291.746875 166.668562 
Q 289.546875 166.668562 289.546875 168.868562 
L 289.546875 265.612 
Q 289.546875 267.812 291.746875 267.812 
z
" style="fill: #ffffff; opacity: 0.8; stroke: #cccccc; stroke-linejoin: miter"/>
    </g>
    <g id="text_17">
     <!-- Strategy -->
     <g style="fill: #262626" transform="translate(318.03 180.186687) scale(0.12 -0.12)">
      <defs>
       <path id="DejaVuSans-53" d="M 3425 4513 
L 3425 3897 
Q 3066 4069 2747 4153 
Q 2428 4238 2131 4238 
Q 1616 4238 1336 4038 
Q 1056 3838 1056 3469 
Q 1056 3159 1242 3001 
Q 1428 2844 1947 2747 
L 2328 2669 
Q 3034 2534 3370 2195 
Q 3706 1856 3706 1288 
Q 3706 609 3251 259 
Q 2797 -91 1919 -91 
Q 1588 -91 1214 -16 
Q 841 59 441 206 
L 441 856 
Q 825 641 1194 531 
Q 1563 422 1919 422 
Q 2459 422 2753 634 
Q 3047 847 3047 1241 
Q 3047 1584 2836 1778 
Q 2625 1972 2144 2069 
L 1759 2144 
Q 1053 2284 737 2584 
Q 422 2884 422 3419 
Q 422 4038 858 4394 
Q 1294 4750 2059 4750 
Q 2388 4750 2728 4690 
Q 3069 4631 3425 4513 
z
" transform="scale(0.015625)"/>
       <path id="DejaVuSans-74" d="M 1172 4494 
L 1172 3500 
L 2356 3500 
L 2356 3053 
L 1172 3053 
L 1172 1153 
Q 1172 725 1289 603 
Q 1406 481 1766 481 
L 2356 481 
L 2356 0 
L 1766 0 
Q 1100 0 847 248 
Q 594 497 594 1153 
L 594 3053 
L 172 3053 
L 172 3500 
L 594 3500 
L 594 4494 
L 1172 4494 
z
" transform="scale(0.015625)"/>
       <path id="DejaVuSans-65" d="M 3597 1894 
L 3597 1613 
L 953 1613 
Q 991 1019 1311 708 
Q 1631 397 2203 397 
Q 2534 397 2845 478 
Q 3156 559 3463 722 
L 3463 178 
Q 3153 47 2828 -22 
Q 2503 -91 2169 -91 
Q 1331 -91 842 396 
Q 353 884 353 1716 
Q 353 2575 817 3079 
Q 1281 3584 2069 3584 
Q 2775 3584 3186 3129 
Q 3597 2675 3597 1894 
z
M 3022 2063 
Q 3016 2534 2758 2815 
Q 2500 3097 2075 3097 
Q 1594 3097 1305 2825 
Q 1016 2553 972 2059 
L 3022 2063 
z
" transform="scale(0.015625)"/>
       <path id="DejaVuSans-67" d="M 2906 1791 
Q 2906 2416 2648 2759 
Q 2391 3103 1925 3103 
Q 1463 3103 1205 2759 
Q 947 2416 947 1791 
Q 947 1169 1205 825 
Q 1463 481 1925 481 
Q 2391 481 2648 825 
Q 2906 1169 2906 1791 
z
M 3481 434 
Q 3481 -459 3084 -895 
Q 2688 -1331 1869 -1331 
Q 1566 -1331 1297 -1286 
Q 1028 -1241 775 -1147 
L 775 -588 
Q 1028 -725 1275 -790 
Q 1522 -856 1778 -856 
Q 2344 -856 2625 -561 
Q 2906 -266 2906 331 
L 2906 616 
Q 2728 306 2450 153 
Q 2172 0 1784 0 
Q 1141 0 747 490 
Q 353 981 353 1791 
Q 353 2603 747 3093 
Q 1141 3584 1784 3584 
Q 2172 3584 2450 3431 
Q 2728 3278 2906 2969 
L 2906 3500 
L 3481 3500 
L 3481 434 
z
" transform="scale(0.015625)"/>
      </defs>
      <use xlink:href="#DejaVuSans-53"/>
      <use xlink:href="#DejaVuSans-74" x="63.476562"/>
      <use xlink:href="#DejaVuSans-72" x="102.685547"/>
      <use xlink:href="#DejaVuSans-61" x="143.798828"/>
      <use xlink:href="#DejaVuSans-74" x="205.078125"/>
      <use xlink:href="#DejaVuSans-65" x="244.287109"/>
      <use xlink:href="#DejaVuSans-67" x="305.810547"/>
      <use xlink:href="#DejaVuSans-79" x="369.287109"/>
     </g>
    </g>
    <g id="line2d_25">
     <path d="M 293.946875 192.690594 
L 304.946875 192.690594 
L 315.946875 192.690594 
" style="fill: none; stroke: #4c72b0; stroke-width: 1.5; stroke-linecap: round"/>
    </g>
    <g id="text_18">
     <!-- FedPredict -->
     <g style="fill: #262626" transform="translate(324.746875 196.540594) scale(0.11 -0.11)">
      <defs>
       <path id="DejaVuSans-46" d="M 628 4666 
L 3309 4666 
L 3309 4134 
L 1259 4134 
L 1259 2759 
L 3109 2759 
L 3109 2228 
L 1259 2228 
L 1259 0 
L 628 0 
L 628 4666 
z
" transform="scale(0.015625)"/>
       <path id="DejaVuSans-50" d="M 1259 4147 
L 1259 2394 
L 2053 2394 
Q 2494 2394 2734 2622 
Q 2975 2850 2975 3272 
Q 2975 3691 2734 3919 
Q 2494 4147 2053 4147 
L 1259 4147 
z
M 628 4666 
L 2053 4666 
Q 2838 4666 3239 4311 
Q 3641 3956 3641 3272 
Q 3641 2581 3239 2228 
Q 2838 1875 2053 1875 
L 1259 1875 
L 1259 0 
L 628 0 
L 628 4666 
z
" transform="scale(0.015625)"/>
       <path id="DejaVuSans-69" d="M 603 3500 
L 1178 3500 
L 1178 0 
L 603 0 
L 603 3500 
z
M 603 4863 
L 1178 4863 
L 1178 4134 
L 603 4134 
L 603 4863 
z
" transform="scale(0.015625)"/>
      </defs>
      <use xlink:href="#DejaVuSans-46"/>
      <use xlink:href="#DejaVuSans-65" x="52.019531"/>
      <use xlink:href="#DejaVuSans-64" x="113.542969"/>
      <use xlink:href="#DejaVuSans-50" x="177.019531"/>
      <use xlink:href="#DejaVuSans-72" x="235.572266"/>
      <use xlink:href="#DejaVuSans-65" x="274.435547"/>
      <use xlink:href="#DejaVuSans-64" x="335.958984"/>
      <use xlink:href="#DejaVuSans-69" x="399.435547"/>
      <use xlink:href="#DejaVuSans-63" x="427.21875"/>
      <use xlink:href="#DejaVuSans-74" x="482.199219"/>
     </g>
    </g>
    <g id="line2d_26">
     <path d="M 293.946875 208.836531 
L 304.946875 208.836531 
L 315.946875 208.836531 
" style="fill: none; stroke: #dd8452; stroke-width: 1.5; stroke-linecap: round"/>
    </g>
    <g id="text_19">
     <!-- FedAVG -->
     <g style="fill: #262626" transform="translate(324.746875 212.686531) scale(0.11 -0.11)">
      <defs>
       <path id="DejaVuSans-56" d="M 1831 0 
L 50 4666 
L 709 4666 
L 2188 738 
L 3669 4666 
L 4325 4666 
L 2547 0 
L 1831 0 
z
" transform="scale(0.015625)"/>
       <path id="DejaVuSans-47" d="M 3809 666 
L 3809 1919 
L 2778 1919 
L 2778 2438 
L 4434 2438 
L 4434 434 
Q 4069 175 3628 42 
Q 3188 -91 2688 -91 
Q 1594 -91 976 548 
Q 359 1188 359 2328 
Q 359 3472 976 4111 
Q 1594 4750 2688 4750 
Q 3144 4750 3555 4637 
Q 3966 4525 4313 4306 
L 4313 3634 
Q 3963 3931 3569 4081 
Q 3175 4231 2741 4231 
Q 1884 4231 1454 3753 
Q 1025 3275 1025 2328 
Q 1025 1384 1454 906 
Q 1884 428 2741 428 
Q 3075 428 3337 486 
Q 3600 544 3809 666 
z
" transform="scale(0.015625)"/>
      </defs>
      <use xlink:href="#DejaVuSans-46"/>
      <use xlink:href="#DejaVuSans-65" x="52.019531"/>
      <use xlink:href="#DejaVuSans-64" x="113.542969"/>
      <use xlink:href="#DejaVuSans-41" x="177.019531"/>
      <use xlink:href="#DejaVuSans-56" x="239.052734"/>
      <use xlink:href="#DejaVuSans-47" x="307.460938"/>
     </g>
    </g>
    <g id="line2d_27">
     <path d="M 293.946875 224.982469 
L 304.946875 224.982469 
L 315.946875 224.982469 
" style="fill: none; stroke: #55a868; stroke-width: 1.5; stroke-linecap: round"/>
    </g>
    <g id="text_20">
     <!-- FedClassAvg -->
     <g style="fill: #262626" transform="translate(324.746875 228.832469) scale(0.11 -0.11)">
      <defs>
       <path id="DejaVuSans-43" d="M 4122 4306 
L 4122 3641 
Q 3803 3938 3442 4084 
Q 3081 4231 2675 4231 
Q 1875 4231 1450 3742 
Q 1025 3253 1025 2328 
Q 1025 1406 1450 917 
Q 1875 428 2675 428 
Q 3081 428 3442 575 
Q 3803 722 4122 1019 
L 4122 359 
Q 3791 134 3420 21 
Q 3050 -91 2638 -91 
Q 1578 -91 968 557 
Q 359 1206 359 2328 
Q 359 3453 968 4101 
Q 1578 4750 2638 4750 
Q 3056 4750 3426 4639 
Q 3797 4528 4122 4306 
z
" transform="scale(0.015625)"/>
       <path id="DejaVuSans-6c" d="M 603 4863 
L 1178 4863 
L 1178 0 
L 603 0 
L 603 4863 
z
" transform="scale(0.015625)"/>
       <path id="DejaVuSans-73" d="M 2834 3397 
L 2834 2853 
Q 2591 2978 2328 3040 
Q 2066 3103 1784 3103 
Q 1356 3103 1142 2972 
Q 928 2841 928 2578 
Q 928 2378 1081 2264 
Q 1234 2150 1697 2047 
L 1894 2003 
Q 2506 1872 2764 1633 
Q 3022 1394 3022 966 
Q 3022 478 2636 193 
Q 2250 -91 1575 -91 
Q 1294 -91 989 -36 
Q 684 19 347 128 
L 347 722 
Q 666 556 975 473 
Q 1284 391 1588 391 
Q 1994 391 2212 530 
Q 2431 669 2431 922 
Q 2431 1156 2273 1281 
Q 2116 1406 1581 1522 
L 1381 1569 
Q 847 1681 609 1914 
Q 372 2147 372 2553 
Q 372 3047 722 3315 
Q 1072 3584 1716 3584 
Q 2034 3584 2315 3537 
Q 2597 3491 2834 3397 
z
" transform="scale(0.015625)"/>
       <path id="DejaVuSans-76" d="M 191 3500 
L 800 3500 
L 1894 563 
L 2988 3500 
L 3597 3500 
L 2284 0 
L 1503 0 
L 191 3500 
z
" transform="scale(0.015625)"/>
      </defs>
      <use xlink:href="#DejaVuSans-46"/>
      <use xlink:href="#DejaVuSans-65" x="52.019531"/>
      <use xlink:href="#DejaVuSans-64" x="113.542969"/>
      <use xlink:href="#DejaVuSans-43" x="177.019531"/>
      <use xlink:href="#DejaVuSans-6c" x="246.84375"/>
      <use xlink:href="#DejaVuSans-61" x="274.626953"/>
      <use xlink:href="#DejaVuSans-73" x="335.90625"/>
      <use xlink:href="#DejaVuSans-73" x="388.005859"/>
      <use xlink:href="#DejaVuSans-41" x="440.105469"/>
      <use xlink:href="#DejaVuSans-76" x="502.638672"/>
      <use xlink:href="#DejaVuSans-67" x="561.818359"/>
     </g>
    </g>
    <g id="line2d_28">
     <path d="M 293.946875 241.128406 
L 304.946875 241.128406 
L 315.946875 241.128406 
" style="fill: none; stroke: #c44e52; stroke-width: 1.5; stroke-linecap: round"/>
    </g>
    <g id="text_21">
     <!-- FedPer -->
     <g style="fill: #262626" transform="translate(324.746875 244.978406) scale(0.11 -0.11)">
      <use xlink:href="#DejaVuSans-46"/>
      <use xlink:href="#DejaVuSans-65" x="52.019531"/>
      <use xlink:href="#DejaVuSans-64" x="113.542969"/>
      <use xlink:href="#DejaVuSans-50" x="177.019531"/>
      <use xlink:href="#DejaVuSans-65" x="233.697266"/>
      <use xlink:href="#DejaVuSans-72" x="295.220703"/>
     </g>
    </g>
    <g id="line2d_29">
     <path d="M 293.946875 257.274344 
L 304.946875 257.274344 
L 315.946875 257.274344 
" style="fill: none; stroke: #8172b3; stroke-width: 1.5; stroke-linecap: round"/>
    </g>
    <g id="text_22">
     <!-- FedProto -->
     <g style="fill: #262626" transform="translate(324.746875 261.124344) scale(0.11 -0.11)">
      <use xlink:href="#DejaVuSans-46"/>
      <use xlink:href="#DejaVuSans-65" x="52.019531"/>
      <use xlink:href="#DejaVuSans-64" x="113.542969"/>
      <use xlink:href="#DejaVuSans-50" x="177.019531"/>
      <use xlink:href="#DejaVuSans-72" x="235.572266"/>
      <use xlink:href="#DejaVuSans-6f" x="274.435547"/>
      <use xlink:href="#DejaVuSans-74" x="335.617188"/>
      <use xlink:href="#DejaVuSans-6f" x="374.826172"/>
     </g>
    </g>
   </g>
  </g>
 </g>
 <defs>
  <clipPath id="p614a118784">
   <rect x="46.31125" y="7.2" width="357.12" height="266.112"/>
  </clipPath>
 </defs>
</svg>
