<?xml version="1.0" encoding="utf-8" standalone="no"?>
<!DOCTYPE svg PUBLIC "-//W3C//DTD SVG 1.1//EN"
  "http://www.w3.org/Graphics/SVG/1.1/DTD/svg11.dtd">
<svg xmlns:xlink="http://www.w3.org/1999/xlink" width="410.63125pt" height="317.413362pt" viewBox="0 0 410.63125 317.413362" xmlns="http://www.w3.org/2000/svg" version="1.1">
 <metadata>
  <rdf:RDF xmlns:dc="http://purl.org/dc/elements/1.1/" xmlns:cc="http://creativecommons.org/ns#" xmlns:rdf="http://www.w3.org/1999/02/22-rdf-syntax-ns#">
   <cc:Work>
    <dc:type rdf:resource="http://purl.org/dc/dcmitype/StillImage"/>
    <dc:date>2023-02-09T14:25:46.577782</dc:date>
    <dc:format>image/svg+xml</dc:format>
    <dc:creator>
     <cc:Agent>
      <dc:title>Matplotlib v3.6.3, https://matplotlib.org/</dc:title>
     </cc:Agent>
    </dc:creator>
   </cc:Work>
  </rdf:RDF>
 </metadata>
 <defs>
  <style type="text/css">*{stroke-linejoin: round; stroke-linecap: butt}</style>
 </defs>
 <g id="figure_1">
  <g id="patch_1">
   <path d="M 0 317.413362 
L 410.63125 317.413362 
L 410.63125 0 
L 0 0 
z
" style="fill: #ffffff"/>
  </g>
  <g id="axes_1">
   <g id="patch_2">
    <path d="M 46.31125 274.453675 
L 403.43125 274.453675 
L 403.43125 8.341675 
L 46.31125 8.341675 
z
" style="fill: #ffffff"/>
   </g>
   <g id="matplotlib.axis_1">
    <g id="xtick_1">
     <g id="line2d_1">
      <path d="M 59.264638 274.453675 
L 59.264638 8.341675 
" clip-path="url(#pb0a16ea49a)" style="fill: none; stroke: #cccccc; stroke-linecap: round"/>
     </g>
     <g id="text_1">
      <!-- 0 -->
      <g style="fill: #262626" transform="translate(55.765263 292.311956) scale(0.11 -0.11)">
       <defs>
        <path id="DejaVuSans-30" d="M 2034 4250 
Q 1547 4250 1301 3770 
Q 1056 3291 1056 2328 
Q 1056 1369 1301 889 
Q 1547 409 2034 409 
Q 2525 409 2770 889 
Q 3016 1369 3016 2328 
Q 3016 3291 2770 3770 
Q 2525 4250 2034 4250 
z
M 2034 4750 
Q 2819 4750 3233 4129 
Q 3647 3509 3647 2328 
Q 3647 1150 3233 529 
Q 2819 -91 2034 -91 
Q 1250 -91 836 529 
Q 422 1150 422 2328 
Q 422 3509 836 4129 
Q 1250 4750 2034 4750 
z
" transform="scale(0.015625)"/>
       </defs>
       <use xlink:href="#DejaVuSans-30"/>
      </g>
     </g>
    </g>
    <g id="xtick_2">
     <g id="line2d_2">
      <path d="M 124.851415 274.453675 
L 124.851415 8.341675 
" clip-path="url(#pb0a16ea49a)" style="fill: none; stroke: #cccccc; stroke-linecap: round"/>
     </g>
     <g id="text_2">
      <!-- 20 -->
      <g style="fill: #262626" transform="translate(117.852665 292.311956) scale(0.11 -0.11)">
       <defs>
        <path id="DejaVuSans-32" d="M 1228 531 
L 3431 531 
L 3431 0 
L 469 0 
L 469 531 
Q 828 903 1448 1529 
Q 2069 2156 2228 2338 
Q 2531 2678 2651 2914 
Q 2772 3150 2772 3378 
Q 2772 3750 2511 3984 
Q 2250 4219 1831 4219 
Q 1534 4219 1204 4116 
Q 875 4013 500 3803 
L 500 4441 
Q 881 4594 1212 4672 
Q 1544 4750 1819 4750 
Q 2544 4750 2975 4387 
Q 3406 4025 3406 3419 
Q 3406 3131 3298 2873 
Q 3191 2616 2906 2266 
Q 2828 2175 2409 1742 
Q 1991 1309 1228 531 
z
" transform="scale(0.015625)"/>
       </defs>
       <use xlink:href="#DejaVuSans-32"/>
       <use xlink:href="#DejaVuSans-30" x="63.623047"/>
      </g>
     </g>
    </g>
    <g id="xtick_3">
     <g id="line2d_3">
      <path d="M 190.438192 274.453675 
L 190.438192 8.341675 
" clip-path="url(#pb0a16ea49a)" style="fill: none; stroke: #cccccc; stroke-linecap: round"/>
     </g>
     <g id="text_3">
      <!-- 40 -->
      <g style="fill: #262626" transform="translate(183.439442 292.311956) scale(0.11 -0.11)">
       <defs>
        <path id="DejaVuSans-34" d="M 2419 4116 
L 825 1625 
L 2419 1625 
L 2419 4116 
z
M 2253 4666 
L 3047 4666 
L 3047 1625 
L 3713 1625 
L 3713 1100 
L 3047 1100 
L 3047 0 
L 2419 0 
L 2419 1100 
L 313 1100 
L 313 1709 
L 2253 4666 
z
" transform="scale(0.015625)"/>
       </defs>
       <use xlink:href="#DejaVuSans-34"/>
       <use xlink:href="#DejaVuSans-30" x="63.623047"/>
      </g>
     </g>
    </g>
    <g id="xtick_4">
     <g id="line2d_4">
      <path d="M 256.024969 274.453675 
L 256.024969 8.341675 
" clip-path="url(#pb0a16ea49a)" style="fill: none; stroke: #cccccc; stroke-linecap: round"/>
     </g>
     <g id="text_4">
      <!-- 60 -->
      <g style="fill: #262626" transform="translate(249.026219 292.311956) scale(0.11 -0.11)">
       <defs>
        <path id="DejaVuSans-36" d="M 2113 2584 
Q 1688 2584 1439 2293 
Q 1191 2003 1191 1497 
Q 1191 994 1439 701 
Q 1688 409 2113 409 
Q 2538 409 2786 701 
Q 3034 994 3034 1497 
Q 3034 2003 2786 2293 
Q 2538 2584 2113 2584 
z
M 3366 4563 
L 3366 3988 
Q 3128 4100 2886 4159 
Q 2644 4219 2406 4219 
Q 1781 4219 1451 3797 
Q 1122 3375 1075 2522 
Q 1259 2794 1537 2939 
Q 1816 3084 2150 3084 
Q 2853 3084 3261 2657 
Q 3669 2231 3669 1497 
Q 3669 778 3244 343 
Q 2819 -91 2113 -91 
Q 1303 -91 875 529 
Q 447 1150 447 2328 
Q 447 3434 972 4092 
Q 1497 4750 2381 4750 
Q 2619 4750 2861 4703 
Q 3103 4656 3366 4563 
z
" transform="scale(0.015625)"/>
       </defs>
       <use xlink:href="#DejaVuSans-36"/>
       <use xlink:href="#DejaVuSans-30" x="63.623047"/>
      </g>
     </g>
    </g>
    <g id="xtick_5">
     <g id="line2d_5">
      <path d="M 321.611746 274.453675 
L 321.611746 8.341675 
" clip-path="url(#pb0a16ea49a)" style="fill: none; stroke: #cccccc; stroke-linecap: round"/>
     </g>
     <g id="text_5">
      <!-- 80 -->
      <g style="fill: #262626" transform="translate(314.612996 292.311956) scale(0.11 -0.11)">
       <defs>
        <path id="DejaVuSans-38" d="M 2034 2216 
Q 1584 2216 1326 1975 
Q 1069 1734 1069 1313 
Q 1069 891 1326 650 
Q 1584 409 2034 409 
Q 2484 409 2743 651 
Q 3003 894 3003 1313 
Q 3003 1734 2745 1975 
Q 2488 2216 2034 2216 
z
M 1403 2484 
Q 997 2584 770 2862 
Q 544 3141 544 3541 
Q 544 4100 942 4425 
Q 1341 4750 2034 4750 
Q 2731 4750 3128 4425 
Q 3525 4100 3525 3541 
Q 3525 3141 3298 2862 
Q 3072 2584 2669 2484 
Q 3125 2378 3379 2068 
Q 3634 1759 3634 1313 
Q 3634 634 3220 271 
Q 2806 -91 2034 -91 
Q 1263 -91 848 271 
Q 434 634 434 1313 
Q 434 1759 690 2068 
Q 947 2378 1403 2484 
z
M 1172 3481 
Q 1172 3119 1398 2916 
Q 1625 2713 2034 2713 
Q 2441 2713 2670 2916 
Q 2900 3119 2900 3481 
Q 2900 3844 2670 4047 
Q 2441 4250 2034 4250 
Q 1625 4250 1398 4047 
Q 1172 3844 1172 3481 
z
" transform="scale(0.015625)"/>
       </defs>
       <use xlink:href="#DejaVuSans-38"/>
       <use xlink:href="#DejaVuSans-30" x="63.623047"/>
      </g>
     </g>
    </g>
    <g id="xtick_6">
     <g id="line2d_6">
      <path d="M 387.198523 274.453675 
L 387.198523 8.341675 
" clip-path="url(#pb0a16ea49a)" style="fill: none; stroke: #cccccc; stroke-linecap: round"/>
     </g>
     <g id="text_6">
      <!-- 100 -->
      <g style="fill: #262626" transform="translate(376.700398 292.311956) scale(0.11 -0.11)">
       <defs>
        <path id="DejaVuSans-31" d="M 794 531 
L 1825 531 
L 1825 4091 
L 703 3866 
L 703 4441 
L 1819 4666 
L 2450 4666 
L 2450 531 
L 3481 531 
L 3481 0 
L 794 0 
L 794 531 
z
" transform="scale(0.015625)"/>
       </defs>
       <use xlink:href="#DejaVuSans-31"/>
       <use xlink:href="#DejaVuSans-30" x="63.623047"/>
       <use xlink:href="#DejaVuSans-30" x="127.246094"/>
      </g>
     </g>
    </g>
    <g id="text_7">
     <!-- Server round -->
     <g style="fill: #262626" transform="translate(185.870313 307.717737) scale(0.12 -0.12)">
      <defs>
       <path id="DejaVuSans-53" d="M 3425 4513 
L 3425 3897 
Q 3066 4069 2747 4153 
Q 2428 4238 2131 4238 
Q 1616 4238 1336 4038 
Q 1056 3838 1056 3469 
Q 1056 3159 1242 3001 
Q 1428 2844 1947 2747 
L 2328 2669 
Q 3034 2534 3370 2195 
Q 3706 1856 3706 1288 
Q 3706 609 3251 259 
Q 2797 -91 1919 -91 
Q 1588 -91 1214 -16 
Q 841 59 441 206 
L 441 856 
Q 825 641 1194 531 
Q 1563 422 1919 422 
Q 2459 422 2753 634 
Q 3047 847 3047 1241 
Q 3047 1584 2836 1778 
Q 2625 1972 2144 2069 
L 1759 2144 
Q 1053 2284 737 2584 
Q 422 2884 422 3419 
Q 422 4038 858 4394 
Q 1294 4750 2059 4750 
Q 2388 4750 2728 4690 
Q 3069 4631 3425 4513 
z
" transform="scale(0.015625)"/>
       <path id="DejaVuSans-65" d="M 3597 1894 
L 3597 1613 
L 953 1613 
Q 991 1019 1311 708 
Q 1631 397 2203 397 
Q 2534 397 2845 478 
Q 3156 559 3463 722 
L 3463 178 
Q 3153 47 2828 -22 
Q 2503 -91 2169 -91 
Q 1331 -91 842 396 
Q 353 884 353 1716 
Q 353 2575 817 3079 
Q 1281 3584 2069 3584 
Q 2775 3584 3186 3129 
Q 3597 2675 3597 1894 
z
M 3022 2063 
Q 3016 2534 2758 2815 
Q 2500 3097 2075 3097 
Q 1594 3097 1305 2825 
Q 1016 2553 972 2059 
L 3022 2063 
z
" transform="scale(0.015625)"/>
       <path id="DejaVuSans-72" d="M 2631 2963 
Q 2534 3019 2420 3045 
Q 2306 3072 2169 3072 
Q 1681 3072 1420 2755 
Q 1159 2438 1159 1844 
L 1159 0 
L 581 0 
L 581 3500 
L 1159 3500 
L 1159 2956 
Q 1341 3275 1631 3429 
Q 1922 3584 2338 3584 
Q 2397 3584 2469 3576 
Q 2541 3569 2628 3553 
L 2631 2963 
z
" transform="scale(0.015625)"/>
       <path id="DejaVuSans-76" d="M 191 3500 
L 800 3500 
L 1894 563 
L 2988 3500 
L 3597 3500 
L 2284 0 
L 1503 0 
L 191 3500 
z
" transform="scale(0.015625)"/>
       <path id="DejaVuSans-20" transform="scale(0.015625)"/>
       <path id="DejaVuSans-6f" d="M 1959 3097 
Q 1497 3097 1228 2736 
Q 959 2375 959 1747 
Q 959 1119 1226 758 
Q 1494 397 1959 397 
Q 2419 397 2687 759 
Q 2956 1122 2956 1747 
Q 2956 2369 2687 2733 
Q 2419 3097 1959 3097 
z
M 1959 3584 
Q 2709 3584 3137 3096 
Q 3566 2609 3566 1747 
Q 3566 888 3137 398 
Q 2709 -91 1959 -91 
Q 1206 -91 779 398 
Q 353 888 353 1747 
Q 353 2609 779 3096 
Q 1206 3584 1959 3584 
z
" transform="scale(0.015625)"/>
       <path id="DejaVuSans-75" d="M 544 1381 
L 544 3500 
L 1119 3500 
L 1119 1403 
Q 1119 906 1312 657 
Q 1506 409 1894 409 
Q 2359 409 2629 706 
Q 2900 1003 2900 1516 
L 2900 3500 
L 3475 3500 
L 3475 0 
L 2900 0 
L 2900 538 
Q 2691 219 2414 64 
Q 2138 -91 1772 -91 
Q 1169 -91 856 284 
Q 544 659 544 1381 
z
M 1991 3584 
L 1991 3584 
z
" transform="scale(0.015625)"/>
       <path id="DejaVuSans-6e" d="M 3513 2113 
L 3513 0 
L 2938 0 
L 2938 2094 
Q 2938 2591 2744 2837 
Q 2550 3084 2163 3084 
Q 1697 3084 1428 2787 
Q 1159 2491 1159 1978 
L 1159 0 
L 581 0 
L 581 3500 
L 1159 3500 
L 1159 2956 
Q 1366 3272 1645 3428 
Q 1925 3584 2291 3584 
Q 2894 3584 3203 3211 
Q 3513 2838 3513 2113 
z
" transform="scale(0.015625)"/>
       <path id="DejaVuSans-64" d="M 2906 2969 
L 2906 4863 
L 3481 4863 
L 3481 0 
L 2906 0 
L 2906 525 
Q 2725 213 2448 61 
Q 2172 -91 1784 -91 
Q 1150 -91 751 415 
Q 353 922 353 1747 
Q 353 2572 751 3078 
Q 1150 3584 1784 3584 
Q 2172 3584 2448 3432 
Q 2725 3281 2906 2969 
z
M 947 1747 
Q 947 1113 1208 752 
Q 1469 391 1925 391 
Q 2381 391 2643 752 
Q 2906 1113 2906 1747 
Q 2906 2381 2643 2742 
Q 2381 3103 1925 3103 
Q 1469 3103 1208 2742 
Q 947 2381 947 1747 
z
" transform="scale(0.015625)"/>
      </defs>
      <use xlink:href="#DejaVuSans-53"/>
      <use xlink:href="#DejaVuSans-65" x="63.476562"/>
      <use xlink:href="#DejaVuSans-72" x="125"/>
      <use xlink:href="#DejaVuSans-76" x="166.113281"/>
      <use xlink:href="#DejaVuSans-65" x="225.292969"/>
      <use xlink:href="#DejaVuSans-72" x="286.816406"/>
      <use xlink:href="#DejaVuSans-20" x="327.929688"/>
      <use xlink:href="#DejaVuSans-72" x="359.716797"/>
      <use xlink:href="#DejaVuSans-6f" x="398.580078"/>
      <use xlink:href="#DejaVuSans-75" x="459.761719"/>
      <use xlink:href="#DejaVuSans-6e" x="523.140625"/>
      <use xlink:href="#DejaVuSans-64" x="586.519531"/>
     </g>
    </g>
   </g>
   <g id="matplotlib.axis_2">
    <g id="ytick_1">
     <g id="line2d_7">
      <path d="M 46.31125 255.651618 
L 403.43125 255.651618 
" clip-path="url(#pb0a16ea49a)" style="fill: none; stroke: #cccccc; stroke-linecap: round"/>
     </g>
     <g id="text_8">
      <!-- 10 -->
      <g style="fill: #262626" transform="translate(22.81375 259.830758) scale(0.11 -0.11)">
       <use xlink:href="#DejaVuSans-31"/>
       <use xlink:href="#DejaVuSans-30" x="63.623047"/>
      </g>
     </g>
    </g>
    <g id="ytick_2">
     <g id="line2d_8">
      <path d="M 46.31125 214.939538 
L 403.43125 214.939538 
" clip-path="url(#pb0a16ea49a)" style="fill: none; stroke: #cccccc; stroke-linecap: round"/>
     </g>
     <g id="text_9">
      <!-- 15 -->
      <g style="fill: #262626" transform="translate(22.81375 219.118679) scale(0.11 -0.11)">
       <defs>
        <path id="DejaVuSans-35" d="M 691 4666 
L 3169 4666 
L 3169 4134 
L 1269 4134 
L 1269 2991 
Q 1406 3038 1543 3061 
Q 1681 3084 1819 3084 
Q 2600 3084 3056 2656 
Q 3513 2228 3513 1497 
Q 3513 744 3044 326 
Q 2575 -91 1722 -91 
Q 1428 -91 1123 -41 
Q 819 9 494 109 
L 494 744 
Q 775 591 1075 516 
Q 1375 441 1709 441 
Q 2250 441 2565 725 
Q 2881 1009 2881 1497 
Q 2881 1984 2565 2268 
Q 2250 2553 1709 2553 
Q 1456 2553 1204 2497 
Q 953 2441 691 2322 
L 691 4666 
z
" transform="scale(0.015625)"/>
       </defs>
       <use xlink:href="#DejaVuSans-31"/>
       <use xlink:href="#DejaVuSans-35" x="63.623047"/>
      </g>
     </g>
    </g>
    <g id="ytick_3">
     <g id="line2d_9">
      <path d="M 46.31125 174.227459 
L 403.43125 174.227459 
" clip-path="url(#pb0a16ea49a)" style="fill: none; stroke: #cccccc; stroke-linecap: round"/>
     </g>
     <g id="text_10">
      <!-- 20 -->
      <g style="fill: #262626" transform="translate(22.81375 178.406599) scale(0.11 -0.11)">
       <use xlink:href="#DejaVuSans-32"/>
       <use xlink:href="#DejaVuSans-30" x="63.623047"/>
      </g>
     </g>
    </g>
    <g id="ytick_4">
     <g id="line2d_10">
      <path d="M 46.31125 133.515379 
L 403.43125 133.515379 
" clip-path="url(#pb0a16ea49a)" style="fill: none; stroke: #cccccc; stroke-linecap: round"/>
     </g>
     <g id="text_11">
      <!-- 25 -->
      <g style="fill: #262626" transform="translate(22.81375 137.69452) scale(0.11 -0.11)">
       <use xlink:href="#DejaVuSans-32"/>
       <use xlink:href="#DejaVuSans-35" x="63.623047"/>
      </g>
     </g>
    </g>
    <g id="ytick_5">
     <g id="line2d_11">
      <path d="M 46.31125 92.8033 
L 403.43125 92.8033 
" clip-path="url(#pb0a16ea49a)" style="fill: none; stroke: #cccccc; stroke-linecap: round"/>
     </g>
     <g id="text_12">
      <!-- 30 -->
      <g style="fill: #262626" transform="translate(22.81375 96.98244) scale(0.11 -0.11)">
       <defs>
        <path id="DejaVuSans-33" d="M 2597 2516 
Q 3050 2419 3304 2112 
Q 3559 1806 3559 1356 
Q 3559 666 3084 287 
Q 2609 -91 1734 -91 
Q 1441 -91 1130 -33 
Q 819 25 488 141 
L 488 750 
Q 750 597 1062 519 
Q 1375 441 1716 441 
Q 2309 441 2620 675 
Q 2931 909 2931 1356 
Q 2931 1769 2642 2001 
Q 2353 2234 1838 2234 
L 1294 2234 
L 1294 2753 
L 1863 2753 
Q 2328 2753 2575 2939 
Q 2822 3125 2822 3475 
Q 2822 3834 2567 4026 
Q 2313 4219 1838 4219 
Q 1578 4219 1281 4162 
Q 984 4106 628 3988 
L 628 4550 
Q 988 4650 1302 4700 
Q 1616 4750 1894 4750 
Q 2613 4750 3031 4423 
Q 3450 4097 3450 3541 
Q 3450 3153 3228 2886 
Q 3006 2619 2597 2516 
z
" transform="scale(0.015625)"/>
       </defs>
       <use xlink:href="#DejaVuSans-33"/>
       <use xlink:href="#DejaVuSans-30" x="63.623047"/>
      </g>
     </g>
    </g>
    <g id="ytick_6">
     <g id="line2d_12">
      <path d="M 46.31125 52.09122 
L 403.43125 52.09122 
" clip-path="url(#pb0a16ea49a)" style="fill: none; stroke: #cccccc; stroke-linecap: round"/>
     </g>
     <g id="text_13">
      <!-- 35 -->
      <g style="fill: #262626" transform="translate(22.81375 56.270361) scale(0.11 -0.11)">
       <use xlink:href="#DejaVuSans-33"/>
       <use xlink:href="#DejaVuSans-35" x="63.623047"/>
      </g>
     </g>
    </g>
    <g id="ytick_7">
     <g id="line2d_13">
      <path d="M 46.31125 11.379141 
L 403.43125 11.379141 
" clip-path="url(#pb0a16ea49a)" style="fill: none; stroke: #cccccc; stroke-linecap: round"/>
     </g>
     <g id="text_14">
      <!-- 40 -->
      <g style="fill: #262626" transform="translate(22.81375 15.558281) scale(0.11 -0.11)">
       <use xlink:href="#DejaVuSans-34"/>
       <use xlink:href="#DejaVuSans-30" x="63.623047"/>
      </g>
     </g>
    </g>
    <g id="text_15">
     <!-- Time (seconds) -->
     <g style="fill: #262626" transform="translate(16.318125 187.191737) rotate(-90) scale(0.12 -0.12)">
      <defs>
       <path id="DejaVuSans-54" d="M -19 4666 
L 3928 4666 
L 3928 4134 
L 2272 4134 
L 2272 0 
L 1638 0 
L 1638 4134 
L -19 4134 
L -19 4666 
z
" transform="scale(0.015625)"/>
       <path id="DejaVuSans-69" d="M 603 3500 
L 1178 3500 
L 1178 0 
L 603 0 
L 603 3500 
z
M 603 4863 
L 1178 4863 
L 1178 4134 
L 603 4134 
L 603 4863 
z
" transform="scale(0.015625)"/>
       <path id="DejaVuSans-6d" d="M 3328 2828 
Q 3544 3216 3844 3400 
Q 4144 3584 4550 3584 
Q 5097 3584 5394 3201 
Q 5691 2819 5691 2113 
L 5691 0 
L 5113 0 
L 5113 2094 
Q 5113 2597 4934 2840 
Q 4756 3084 4391 3084 
Q 3944 3084 3684 2787 
Q 3425 2491 3425 1978 
L 3425 0 
L 2847 0 
L 2847 2094 
Q 2847 2600 2669 2842 
Q 2491 3084 2119 3084 
Q 1678 3084 1418 2786 
Q 1159 2488 1159 1978 
L 1159 0 
L 581 0 
L 581 3500 
L 1159 3500 
L 1159 2956 
Q 1356 3278 1631 3431 
Q 1906 3584 2284 3584 
Q 2666 3584 2933 3390 
Q 3200 3197 3328 2828 
z
" transform="scale(0.015625)"/>
       <path id="DejaVuSans-28" d="M 1984 4856 
Q 1566 4138 1362 3434 
Q 1159 2731 1159 2009 
Q 1159 1288 1364 580 
Q 1569 -128 1984 -844 
L 1484 -844 
Q 1016 -109 783 600 
Q 550 1309 550 2009 
Q 550 2706 781 3412 
Q 1013 4119 1484 4856 
L 1984 4856 
z
" transform="scale(0.015625)"/>
       <path id="DejaVuSans-73" d="M 2834 3397 
L 2834 2853 
Q 2591 2978 2328 3040 
Q 2066 3103 1784 3103 
Q 1356 3103 1142 2972 
Q 928 2841 928 2578 
Q 928 2378 1081 2264 
Q 1234 2150 1697 2047 
L 1894 2003 
Q 2506 1872 2764 1633 
Q 3022 1394 3022 966 
Q 3022 478 2636 193 
Q 2250 -91 1575 -91 
Q 1294 -91 989 -36 
Q 684 19 347 128 
L 347 722 
Q 666 556 975 473 
Q 1284 391 1588 391 
Q 1994 391 2212 530 
Q 2431 669 2431 922 
Q 2431 1156 2273 1281 
Q 2116 1406 1581 1522 
L 1381 1569 
Q 847 1681 609 1914 
Q 372 2147 372 2553 
Q 372 3047 722 3315 
Q 1072 3584 1716 3584 
Q 2034 3584 2315 3537 
Q 2597 3491 2834 3397 
z
" transform="scale(0.015625)"/>
       <path id="DejaVuSans-63" d="M 3122 3366 
L 3122 2828 
Q 2878 2963 2633 3030 
Q 2388 3097 2138 3097 
Q 1578 3097 1268 2742 
Q 959 2388 959 1747 
Q 959 1106 1268 751 
Q 1578 397 2138 397 
Q 2388 397 2633 464 
Q 2878 531 3122 666 
L 3122 134 
Q 2881 22 2623 -34 
Q 2366 -91 2075 -91 
Q 1284 -91 818 406 
Q 353 903 353 1747 
Q 353 2603 823 3093 
Q 1294 3584 2113 3584 
Q 2378 3584 2631 3529 
Q 2884 3475 3122 3366 
z
" transform="scale(0.015625)"/>
       <path id="DejaVuSans-29" d="M 513 4856 
L 1013 4856 
Q 1481 4119 1714 3412 
Q 1947 2706 1947 2009 
Q 1947 1309 1714 600 
Q 1481 -109 1013 -844 
L 513 -844 
Q 928 -128 1133 580 
Q 1338 1288 1338 2009 
Q 1338 2731 1133 3434 
Q 928 4138 513 4856 
z
" transform="scale(0.015625)"/>
      </defs>
      <use xlink:href="#DejaVuSans-54"/>
      <use xlink:href="#DejaVuSans-69" x="57.958984"/>
      <use xlink:href="#DejaVuSans-6d" x="85.742188"/>
      <use xlink:href="#DejaVuSans-65" x="183.154297"/>
      <use xlink:href="#DejaVuSans-20" x="244.677734"/>
      <use xlink:href="#DejaVuSans-28" x="276.464844"/>
      <use xlink:href="#DejaVuSans-73" x="315.478516"/>
      <use xlink:href="#DejaVuSans-65" x="367.578125"/>
      <use xlink:href="#DejaVuSans-63" x="429.101562"/>
      <use xlink:href="#DejaVuSans-6f" x="484.082031"/>
      <use xlink:href="#DejaVuSans-6e" x="545.263672"/>
      <use xlink:href="#DejaVuSans-64" x="608.642578"/>
      <use xlink:href="#DejaVuSans-73" x="672.119141"/>
      <use xlink:href="#DejaVuSans-29" x="724.21875"/>
     </g>
    </g>
   </g>
   <g id="PolyCollection_1"/>
   <g id="PolyCollection_2"/>
   <g id="PolyCollection_3"/>
   <g id="PolyCollection_4"/>
   <g id="PolyCollection_5"/>
   <g id="line2d_14">
    <path d="M 62.543977 47.89209 
L 65.823316 90.97691 
L 69.102655 105.576176 
L 72.381994 110.935326 
L 75.661333 124.19664 
L 78.940671 107.641059 
L 82.22001 104.581336 
L 85.499349 118.288536 
L 88.778688 147.195691 
L 92.058027 139.248147 
L 95.337366 112.257299 
L 98.616705 120.26826 
L 101.896043 112.346127 
L 105.175382 123.216127 
L 108.454721 75.378746 
L 111.73406 112.69167 
L 115.013399 89.73095 
L 118.292738 127.704884 
L 121.572076 80.473495 
L 124.851415 99.374069 
L 128.130754 104.341864 
L 131.410093 92.725913 
L 134.689432 125.353513 
L 137.968771 79.406343 
L 141.24811 122.925448 
L 144.527448 159.19475 
L 147.806787 213.903131 
L 151.086126 177.807975 
L 154.365465 178.517232 
L 157.644804 118.808046 
L 160.924143 153.02383 
L 164.203481 122.035789 
L 167.48282 162.84903 
L 170.762159 117.456395 
L 174.041498 146.989944 
L 177.320837 142.754853 
L 180.600176 150.109965 
L 183.879514 124.705124 
L 187.158853 143.345962 
L 190.438192 123.36769 
L 193.717531 143.2666 
L 196.99687 127.968864 
L 200.276209 146.139682 
L 203.555548 107.747221 
L 206.834886 161.252199 
L 210.114225 121.804629 
L 213.393564 164.381675 
L 216.672903 115.816595 
L 219.952242 133.761604 
L 223.231581 150.494838 
L 226.510919 106.435816 
L 229.790258 144.118354 
L 233.069597 131.237466 
L 236.348936 147.906204 
L 239.628275 134.992779 
L 242.907614 158.839792 
L 246.186952 125.183137 
L 249.466291 117.516647 
L 252.74563 140.593775 
L 256.024969 120.924317 
L 259.304308 160.622049 
L 262.583647 152.630691 
L 265.862986 128.107025 
L 269.142324 164.637599 
L 272.421663 136.517387 
L 275.701002 134.114572 
L 278.980341 163.195588 
L 282.25968 117.198844 
L 285.539019 151.134294 
L 288.818357 105.514049 
L 292.097696 101.189679 
L 295.377035 107.013189 
L 298.656374 117.652913 
L 301.935713 99.229425 
L 305.215052 128.627634 
L 308.49439 79.314379 
L 311.773729 133.143955 
L 315.053068 129.507256 
L 318.332407 94.370696 
L 321.611746 133.389447 
L 324.891085 80.205919 
L 328.170424 109.136771 
L 331.449762 88.780075 
L 334.729101 130.086486 
L 338.00844 75.621366 
L 341.287779 137.440292 
L 344.567118 89.415091 
L 347.846457 131.6324 
L 351.125795 154.87211 
L 354.405134 96.876728 
L 357.684473 123.001617 
L 360.963812 127.933309 
L 364.243151 100.66973 
L 367.52249 120.302105 
L 370.801829 78.231218 
L 374.081167 181.034998 
L 377.360506 149.494636 
L 380.639845 98.847287 
L 383.919184 100.800065 
L 387.198523 127.604179 
" clip-path="url(#pb0a16ea49a)" style="fill: none; stroke: #4c72b0; stroke-width: 1.5; stroke-linecap: round"/>
   </g>
   <g id="line2d_15">
    <path d="M 62.543977 62.143931 
L 65.823316 111.744857 
L 69.102655 148.781842 
L 72.381994 127.348598 
L 75.661333 148.203008 
L 78.940671 144.041052 
L 82.22001 147.018071 
L 85.499349 132.849749 
L 88.778688 172.155512 
L 92.058027 179.804386 
L 95.337366 121.369992 
L 98.616705 149.228868 
L 101.896043 143.424956 
L 105.175382 128.1419 
L 108.454721 159.186882 
L 111.73406 128.998431 
L 115.013399 144.251446 
L 118.292738 128.615231 
L 121.572076 149.178975 
L 124.851415 130.12109 
L 128.130754 151.634331 
L 131.410093 130.599285 
L 134.689432 168.380787 
L 137.968771 133.04492 
L 141.24811 153.281414 
L 144.527448 119.048861 
L 147.806787 180.530897 
L 151.086126 110.19476 
L 154.365465 183.419357 
L 157.644804 125.87711 
L 160.924143 164.275768 
L 164.203481 153.373329 
L 167.48282 152.468274 
L 170.762159 169.483067 
L 174.041498 130.497431 
L 177.320837 169.691285 
L 180.600176 128.10896 
L 183.879514 159.639297 
L 187.158853 128.350567 
L 190.438192 152.851887 
L 193.717531 129.67501 
L 196.99687 168.570159 
L 200.276209 153.884373 
L 203.555548 112.145471 
L 206.834886 155.488899 
L 210.114225 136.758602 
L 213.393564 136.556042 
L 216.672903 149.054566 
L 219.952242 108.81811 
L 223.231581 148.734102 
L 226.510919 129.512476 
L 229.790258 124.687202 
L 233.069597 146.311798 
L 236.348936 108.646774 
L 239.628275 138.787536 
L 242.907614 115.585557 
L 246.186952 155.852876 
L 249.466291 135.95936 
L 252.74563 111.077266 
L 256.024969 147.332593 
L 259.304308 143.296583 
L 262.583647 119.538656 
L 265.862986 155.963631 
L 269.142324 203.036358 
L 272.421663 157.344028 
L 275.701002 160.936909 
L 278.980341 140.088721 
L 282.25968 147.722554 
L 285.539019 131.103444 
L 288.818357 142.909206 
L 292.097696 98.093161 
L 295.377035 120.12994 
L 298.656374 108.127462 
L 301.935713 127.982486 
L 305.215052 104.111131 
L 308.49439 129.016984 
L 311.773729 122.678881 
L 315.053068 146.744359 
L 318.332407 121.032999 
L 321.611746 147.039495 
L 324.891085 106.748743 
L 328.170424 100.440837 
L 331.449762 141.873823 
L 334.729101 124.622195 
L 338.00844 137.371031 
L 341.287779 129.141437 
L 344.567118 112.947316 
L 347.846457 135.467257 
L 351.125795 160.555221 
L 354.405134 149.467889 
L 357.684473 111.194867 
L 360.963812 139.743074 
L 364.243151 114.342405 
L 367.52249 130.105729 
L 370.801829 110.18974 
L 374.081167 119.507972 
L 377.360506 147.515478 
L 380.639845 111.705571 
L 383.919184 137.733685 
L 387.198523 108.890404 
" clip-path="url(#pb0a16ea49a)" style="fill: none; stroke: #dd8452; stroke-width: 1.5; stroke-linecap: round"/>
   </g>
   <g id="line2d_16">
    <path d="M 62.543977 52.543699 
L 65.823316 110.279478 
L 69.102655 125.415476 
L 72.381994 144.388632 
L 75.661333 132.713423 
L 78.940671 138.94375 
L 82.22001 123.094333 
L 85.499349 148.725438 
L 88.778688 121.322426 
L 92.058027 159.68369 
L 95.337366 138.185735 
L 98.616705 144.434229 
L 101.896043 107.904878 
L 105.175382 142.270443 
L 108.454721 124.792461 
L 111.73406 128.332158 
L 115.013399 127.311438 
L 118.292738 105.203407 
L 121.572076 131.378548 
L 124.851415 122.136737 
L 128.130754 124.51739 
L 131.410093 112.657039 
L 134.689432 141.400528 
L 137.968771 141.694084 
L 141.24811 100.770787 
L 144.527448 139.195906 
L 147.806787 159.221963 
L 151.086126 93.869809 
L 154.365465 159.002204 
L 157.644804 107.474658 
L 160.924143 181.885481 
L 164.203481 193.067581 
L 167.48282 153.908189 
L 170.762159 139.152407 
L 174.041498 130.266764 
L 177.320837 155.833684 
L 180.600176 121.545185 
L 183.879514 140.159528 
L 187.158853 151.849854 
L 190.438192 131.520015 
L 193.717531 147.29361 
L 196.99687 127.490915 
L 200.276209 152.629616 
L 203.555548 105.801039 
L 206.834886 132.231533 
L 210.114225 144.607963 
L 213.393564 156.256199 
L 216.672903 134.310718 
L 219.952242 124.486708 
L 223.231581 159.119796 
L 226.510919 98.736893 
L 229.790258 125.068144 
L 233.069597 136.678618 
L 236.348936 131.057152 
L 239.628275 131.84442 
L 242.907614 165.981729 
L 246.186952 149.291716 
L 249.466291 122.796322 
L 252.74563 118.419275 
L 256.024969 161.109667 
L 259.304308 134.894487 
L 262.583647 160.386662 
L 265.862986 136.118762 
L 269.142324 158.4828 
L 272.421663 128.864721 
L 275.701002 154.0329 
L 278.980341 133.563056 
L 282.25968 145.395906 
L 285.539019 120.950482 
L 288.818357 145.463011 
L 292.097696 89.841389 
L 295.377035 93.203884 
L 298.656374 110.566216 
L 301.935713 90.281632 
L 305.215052 127.520163 
L 308.49439 86.590661 
L 311.773729 143.209153 
L 315.053068 94.59269 
L 318.332407 121.256962 
L 321.611746 142.721715 
L 324.891085 80.612102 
L 328.170424 75.285719 
L 331.449762 122.675152 
L 334.729101 117.617162 
L 338.00844 95.366804 
L 341.287779 113.499774 
L 344.567118 109.499596 
L 347.846457 110.119437 
L 351.125795 129.774608 
L 354.405134 102.398839 
L 357.684473 112.744508 
L 360.963812 118.309995 
L 364.243151 101.315677 
L 367.52249 93.711791 
L 370.801829 99.578584 
L 374.081167 122.85527 
L 377.360506 160.554848 
L 380.639845 145.883799 
L 383.919184 82.210068 
L 387.198523 97.162646 
" clip-path="url(#pb0a16ea49a)" style="fill: none; stroke: #55a868; stroke-width: 1.5; stroke-linecap: round"/>
   </g>
   <g id="line2d_17">
    <path d="M 62.543977 20.437675 
L 65.823316 111.757307 
L 69.102655 104.228294 
L 72.381994 133.239916 
L 75.661333 106.562803 
L 78.940671 122.42886 
L 82.22001 113.340011 
L 85.499349 102.950018 
L 88.778688 133.887385 
L 92.058027 159.481343 
L 95.337366 132.371039 
L 98.616705 110.759015 
L 101.896043 128.903604 
L 105.175382 128.679076 
L 108.454721 113.563754 
L 111.73406 129.906126 
L 115.013399 105.834237 
L 118.292738 118.997677 
L 121.572076 124.669726 
L 124.851415 115.411678 
L 128.130754 103.173413 
L 131.410093 134.503112 
L 134.689432 98.626866 
L 137.968771 108.973002 
L 141.24811 117.355882 
L 144.527448 69.964601 
L 147.806787 127.136699 
L 151.086126 81.893956 
L 154.365465 126.639336 
L 157.644804 105.113602 
L 160.924143 116.969599 
L 164.203481 93.954209 
L 167.48282 122.251905 
L 170.762159 91.834989 
L 174.041498 89.743711 
L 177.320837 167.665361 
L 180.600176 201.679635 
L 183.879514 206.570933 
L 187.158853 178.41082 
L 190.438192 143.417713 
L 193.717531 127.986474 
L 196.99687 129.437029 
L 200.276209 155.261976 
L 203.555548 104.373199 
L 206.834886 151.751062 
L 210.114225 155.101739 
L 213.393564 138.871047 
L 216.672903 147.358341 
L 219.952242 110.756775 
L 223.231581 149.426883 
L 226.510919 117.342157 
L 229.790258 133.442738 
L 233.069597 131.030767 
L 236.348936 141.376465 
L 239.628275 144.751572 
L 242.907614 150.841903 
L 246.186952 149.842473 
L 249.466291 133.189331 
L 252.74563 123.838264 
L 256.024969 150.271688 
L 259.304308 116.710612 
L 262.583647 156.09353 
L 265.862986 141.677004 
L 269.142324 132.992982 
L 272.421663 141.120617 
L 275.701002 119.966055 
L 278.980341 153.861707 
L 282.25968 113.494812 
L 285.539019 126.513093 
L 288.818357 115.269728 
L 292.097696 120.26112 
L 295.377035 92.9441 
L 298.656374 101.689538 
L 301.935713 107.167 
L 305.215052 105.321143 
L 308.49439 115.866555 
L 311.773729 99.253687 
L 315.053068 122.80182 
L 318.332407 101.905308 
L 321.611746 116.671444 
L 324.891085 105.16607 
L 328.170424 119.570099 
L 331.449762 101.910473 
L 334.729101 141.20809 
L 338.00844 87.905386 
L 341.287779 145.150015 
L 344.567118 83.702577 
L 347.846457 122.229217 
L 351.125795 130.87789 
L 354.405134 132.778121 
L 357.684473 86.434963 
L 360.963812 116.290359 
L 364.243151 136.832004 
L 367.52249 86.019235 
L 370.801829 98.153254 
L 374.081167 139.56944 
L 377.360506 102.841119 
L 380.639845 103.078394 
L 383.919184 126.272173 
L 387.198523 80.490017 
" clip-path="url(#pb0a16ea49a)" style="fill: none; stroke: #c44e52; stroke-width: 1.5; stroke-linecap: round"/>
   </g>
   <g id="line2d_18">
    <path d="M 62.543977 153.276361 
L 65.823316 217.729049 
L 69.102655 230.667296 
L 72.381994 215.938946 
L 75.661333 209.187798 
L 78.940671 231.539723 
L 82.22001 211.64728 
L 85.499349 219.355545 
L 88.778688 243.457933 
L 92.058027 207.532517 
L 95.337366 213.035357 
L 98.616705 249.812335 
L 101.896043 211.904004 
L 105.175382 213.007466 
L 108.454721 242.937967 
L 111.73406 219.946445 
L 115.013399 250.055522 
L 118.292738 262.357675 
L 121.572076 241.948102 
L 124.851415 234.992077 
L 128.130754 232.321763 
L 131.410093 222.199226 
L 134.689432 235.455279 
L 137.968771 225.946978 
L 141.24811 235.751598 
L 144.527448 220.130903 
L 147.806787 231.395201 
L 151.086126 242.081077 
L 154.365465 219.726268 
L 157.644804 221.378237 
L 160.924143 250.102488 
L 164.203481 221.587859 
L 167.48282 225.811279 
L 170.762159 225.0872 
L 174.041498 248.105578 
L 177.320837 219.171379 
L 180.600176 219.499131 
L 183.879514 228.837961 
L 187.158853 234.703308 
L 190.438192 216.07509 
L 193.717531 229.985877 
L 196.99687 233.13952 
L 200.276209 230.454591 
L 203.555548 222.988628 
L 206.834886 232.441458 
L 210.114225 241.553033 
L 213.393564 230.70247 
L 216.672903 230.626887 
L 219.952242 232.788365 
L 223.231581 228.295279 
L 226.510919 231.732712 
L 229.790258 243.132398 
L 233.069597 220.41458 
L 236.348936 231.028454 
L 239.628275 240.580553 
L 242.907614 219.610553 
L 246.186952 221.16972 
L 249.466291 204.004253 
L 252.74563 225.902809 
L 256.024969 234.723082 
L 259.304308 223.849891 
L 262.583647 227.087496 
L 265.862986 248.883749 
L 269.142324 221.573888 
L 272.421663 230.928562 
L 275.701002 239.485394 
L 278.980341 229.752654 
L 282.25968 232.056512 
L 285.539019 225.046491 
L 288.818357 213.907041 
L 292.097696 202.403656 
L 295.377035 201.424911 
L 298.656374 203.495567 
L 301.935713 203.698853 
L 305.215052 216.331425 
L 308.49439 218.06854 
L 311.773729 201.292741 
L 315.053068 216.617523 
L 318.332407 210.255255 
L 321.611746 224.530935 
L 324.891085 207.165968 
L 328.170424 202.382541 
L 331.449762 218.419744 
L 334.729101 213.406971 
L 338.00844 225.315526 
L 341.287779 208.576855 
L 344.567118 201.851909 
L 347.846457 208.377419 
L 351.125795 230.67628 
L 354.405134 205.794944 
L 357.684473 210.944101 
L 360.963812 200.402619 
L 364.243151 232.218257 
L 367.52249 195.017409 
L 370.801829 201.882333 
L 374.081167 214.368846 
L 377.360506 216.082898 
L 380.639845 213.366252 
L 383.919184 201.917705 
L 387.198523 197.09398 
" clip-path="url(#pb0a16ea49a)" style="fill: none; stroke: #8172b3; stroke-width: 1.5; stroke-linecap: round"/>
   </g>
   <g id="line2d_19"/>
   <g id="line2d_20"/>
   <g id="line2d_21"/>
   <g id="line2d_22"/>
   <g id="line2d_23"/>
   <g id="patch_3">
    <path d="M 46.31125 274.453675 
L 46.31125 8.341675 
" style="fill: none; stroke: #cccccc; stroke-width: 1.25; stroke-linejoin: miter; stroke-linecap: square"/>
   </g>
   <g id="patch_4">
    <path d="M 403.43125 274.453675 
L 403.43125 8.341675 
" style="fill: none; stroke: #cccccc; stroke-width: 1.25; stroke-linejoin: miter; stroke-linecap: square"/>
   </g>
   <g id="patch_5">
    <path d="M 46.31125 274.453675 
L 403.43125 274.453675 
" style="fill: none; stroke: #cccccc; stroke-width: 1.25; stroke-linejoin: miter; stroke-linecap: square"/>
   </g>
   <g id="patch_6">
    <path d="M 46.31125 8.341675 
L 403.43125 8.341675 
" style="fill: none; stroke: #cccccc; stroke-width: 1.25; stroke-linejoin: miter; stroke-linecap: square"/>
   </g>
   <g id="legend_1">
    <g id="patch_7">
     <path d="M 172.879063 114.985112 
L 276.863438 114.985112 
Q 279.063438 114.985112 279.063438 112.785112 
L 279.063438 16.041675 
Q 279.063438 13.841675 276.863438 13.841675 
L 172.879063 13.841675 
Q 170.679063 13.841675 170.679063 16.041675 
L 170.679063 112.785112 
Q 170.679063 114.985112 172.879063 114.985112 
z
" style="fill: #ffffff; opacity: 0.8; stroke: #cccccc; stroke-linejoin: miter"/>
    </g>
    <g id="text_16">
     <!-- Strategy -->
     <g style="fill: #262626" transform="translate(199.162188 27.3598) scale(0.12 -0.12)">
      <defs>
       <path id="DejaVuSans-74" d="M 1172 4494 
L 1172 3500 
L 2356 3500 
L 2356 3053 
L 1172 3053 
L 1172 1153 
Q 1172 725 1289 603 
Q 1406 481 1766 481 
L 2356 481 
L 2356 0 
L 1766 0 
Q 1100 0 847 248 
Q 594 497 594 1153 
L 594 3053 
L 172 3053 
L 172 3500 
L 594 3500 
L 594 4494 
L 1172 4494 
z
" transform="scale(0.015625)"/>
       <path id="DejaVuSans-61" d="M 2194 1759 
Q 1497 1759 1228 1600 
Q 959 1441 959 1056 
Q 959 750 1161 570 
Q 1363 391 1709 391 
Q 2188 391 2477 730 
Q 2766 1069 2766 1631 
L 2766 1759 
L 2194 1759 
z
M 3341 1997 
L 3341 0 
L 2766 0 
L 2766 531 
Q 2569 213 2275 61 
Q 1981 -91 1556 -91 
Q 1019 -91 701 211 
Q 384 513 384 1019 
Q 384 1609 779 1909 
Q 1175 2209 1959 2209 
L 2766 2209 
L 2766 2266 
Q 2766 2663 2505 2880 
Q 2244 3097 1772 3097 
Q 1472 3097 1187 3025 
Q 903 2953 641 2809 
L 641 3341 
Q 956 3463 1253 3523 
Q 1550 3584 1831 3584 
Q 2591 3584 2966 3190 
Q 3341 2797 3341 1997 
z
" transform="scale(0.015625)"/>
       <path id="DejaVuSans-67" d="M 2906 1791 
Q 2906 2416 2648 2759 
Q 2391 3103 1925 3103 
Q 1463 3103 1205 2759 
Q 947 2416 947 1791 
Q 947 1169 1205 825 
Q 1463 481 1925 481 
Q 2391 481 2648 825 
Q 2906 1169 2906 1791 
z
M 3481 434 
Q 3481 -459 3084 -895 
Q 2688 -1331 1869 -1331 
Q 1566 -1331 1297 -1286 
Q 1028 -1241 775 -1147 
L 775 -588 
Q 1028 -725 1275 -790 
Q 1522 -856 1778 -856 
Q 2344 -856 2625 -561 
Q 2906 -266 2906 331 
L 2906 616 
Q 2728 306 2450 153 
Q 2172 0 1784 0 
Q 1141 0 747 490 
Q 353 981 353 1791 
Q 353 2603 747 3093 
Q 1141 3584 1784 3584 
Q 2172 3584 2450 3431 
Q 2728 3278 2906 2969 
L 2906 3500 
L 3481 3500 
L 3481 434 
z
" transform="scale(0.015625)"/>
       <path id="DejaVuSans-79" d="M 2059 -325 
Q 1816 -950 1584 -1140 
Q 1353 -1331 966 -1331 
L 506 -1331 
L 506 -850 
L 844 -850 
Q 1081 -850 1212 -737 
Q 1344 -625 1503 -206 
L 1606 56 
L 191 3500 
L 800 3500 
L 1894 763 
L 2988 3500 
L 3597 3500 
L 2059 -325 
z
" transform="scale(0.015625)"/>
      </defs>
      <use xlink:href="#DejaVuSans-53"/>
      <use xlink:href="#DejaVuSans-74" x="63.476562"/>
      <use xlink:href="#DejaVuSans-72" x="102.685547"/>
      <use xlink:href="#DejaVuSans-61" x="143.798828"/>
      <use xlink:href="#DejaVuSans-74" x="205.078125"/>
      <use xlink:href="#DejaVuSans-65" x="244.287109"/>
      <use xlink:href="#DejaVuSans-67" x="305.810547"/>
      <use xlink:href="#DejaVuSans-79" x="369.287109"/>
     </g>
    </g>
    <g id="line2d_24">
     <path d="M 175.079063 39.863706 
L 186.079063 39.863706 
L 197.079063 39.863706 
" style="fill: none; stroke: #4c72b0; stroke-width: 1.5; stroke-linecap: round"/>
    </g>
    <g id="text_17">
     <!-- FedPredict -->
     <g style="fill: #262626" transform="translate(205.879063 43.713706) scale(0.11 -0.11)">
      <defs>
       <path id="DejaVuSans-46" d="M 628 4666 
L 3309 4666 
L 3309 4134 
L 1259 4134 
L 1259 2759 
L 3109 2759 
L 3109 2228 
L 1259 2228 
L 1259 0 
L 628 0 
L 628 4666 
z
" transform="scale(0.015625)"/>
       <path id="DejaVuSans-50" d="M 1259 4147 
L 1259 2394 
L 2053 2394 
Q 2494 2394 2734 2622 
Q 2975 2850 2975 3272 
Q 2975 3691 2734 3919 
Q 2494 4147 2053 4147 
L 1259 4147 
z
M 628 4666 
L 2053 4666 
Q 2838 4666 3239 4311 
Q 3641 3956 3641 3272 
Q 3641 2581 3239 2228 
Q 2838 1875 2053 1875 
L 1259 1875 
L 1259 0 
L 628 0 
L 628 4666 
z
" transform="scale(0.015625)"/>
      </defs>
      <use xlink:href="#DejaVuSans-46"/>
      <use xlink:href="#DejaVuSans-65" x="52.019531"/>
      <use xlink:href="#DejaVuSans-64" x="113.542969"/>
      <use xlink:href="#DejaVuSans-50" x="177.019531"/>
      <use xlink:href="#DejaVuSans-72" x="235.572266"/>
      <use xlink:href="#DejaVuSans-65" x="274.435547"/>
      <use xlink:href="#DejaVuSans-64" x="335.958984"/>
      <use xlink:href="#DejaVuSans-69" x="399.435547"/>
      <use xlink:href="#DejaVuSans-63" x="427.21875"/>
      <use xlink:href="#DejaVuSans-74" x="482.199219"/>
     </g>
    </g>
    <g id="line2d_25">
     <path d="M 175.079063 56.009644 
L 186.079063 56.009644 
L 197.079063 56.009644 
" style="fill: none; stroke: #dd8452; stroke-width: 1.5; stroke-linecap: round"/>
    </g>
    <g id="text_18">
     <!-- FedAVG -->
     <g style="fill: #262626" transform="translate(205.879063 59.859644) scale(0.11 -0.11)">
      <defs>
       <path id="DejaVuSans-41" d="M 2188 4044 
L 1331 1722 
L 3047 1722 
L 2188 4044 
z
M 1831 4666 
L 2547 4666 
L 4325 0 
L 3669 0 
L 3244 1197 
L 1141 1197 
L 716 0 
L 50 0 
L 1831 4666 
z
" transform="scale(0.015625)"/>
       <path id="DejaVuSans-56" d="M 1831 0 
L 50 4666 
L 709 4666 
L 2188 738 
L 3669 4666 
L 4325 4666 
L 2547 0 
L 1831 0 
z
" transform="scale(0.015625)"/>
       <path id="DejaVuSans-47" d="M 3809 666 
L 3809 1919 
L 2778 1919 
L 2778 2438 
L 4434 2438 
L 4434 434 
Q 4069 175 3628 42 
Q 3188 -91 2688 -91 
Q 1594 -91 976 548 
Q 359 1188 359 2328 
Q 359 3472 976 4111 
Q 1594 4750 2688 4750 
Q 3144 4750 3555 4637 
Q 3966 4525 4313 4306 
L 4313 3634 
Q 3963 3931 3569 4081 
Q 3175 4231 2741 4231 
Q 1884 4231 1454 3753 
Q 1025 3275 1025 2328 
Q 1025 1384 1454 906 
Q 1884 428 2741 428 
Q 3075 428 3337 486 
Q 3600 544 3809 666 
z
" transform="scale(0.015625)"/>
      </defs>
      <use xlink:href="#DejaVuSans-46"/>
      <use xlink:href="#DejaVuSans-65" x="52.019531"/>
      <use xlink:href="#DejaVuSans-64" x="113.542969"/>
      <use xlink:href="#DejaVuSans-41" x="177.019531"/>
      <use xlink:href="#DejaVuSans-56" x="239.052734"/>
      <use xlink:href="#DejaVuSans-47" x="307.460938"/>
     </g>
    </g>
    <g id="line2d_26">
     <path d="M 175.079063 72.155581 
L 186.079063 72.155581 
L 197.079063 72.155581 
" style="fill: none; stroke: #55a868; stroke-width: 1.5; stroke-linecap: round"/>
    </g>
    <g id="text_19">
     <!-- FedClassAvg -->
     <g style="fill: #262626" transform="translate(205.879063 76.005581) scale(0.11 -0.11)">
      <defs>
       <path id="DejaVuSans-43" d="M 4122 4306 
L 4122 3641 
Q 3803 3938 3442 4084 
Q 3081 4231 2675 4231 
Q 1875 4231 1450 3742 
Q 1025 3253 1025 2328 
Q 1025 1406 1450 917 
Q 1875 428 2675 428 
Q 3081 428 3442 575 
Q 3803 722 4122 1019 
L 4122 359 
Q 3791 134 3420 21 
Q 3050 -91 2638 -91 
Q 1578 -91 968 557 
Q 359 1206 359 2328 
Q 359 3453 968 4101 
Q 1578 4750 2638 4750 
Q 3056 4750 3426 4639 
Q 3797 4528 4122 4306 
z
" transform="scale(0.015625)"/>
       <path id="DejaVuSans-6c" d="M 603 4863 
L 1178 4863 
L 1178 0 
L 603 0 
L 603 4863 
z
" transform="scale(0.015625)"/>
      </defs>
      <use xlink:href="#DejaVuSans-46"/>
      <use xlink:href="#DejaVuSans-65" x="52.019531"/>
      <use xlink:href="#DejaVuSans-64" x="113.542969"/>
      <use xlink:href="#DejaVuSans-43" x="177.019531"/>
      <use xlink:href="#DejaVuSans-6c" x="246.84375"/>
      <use xlink:href="#DejaVuSans-61" x="274.626953"/>
      <use xlink:href="#DejaVuSans-73" x="335.90625"/>
      <use xlink:href="#DejaVuSans-73" x="388.005859"/>
      <use xlink:href="#DejaVuSans-41" x="440.105469"/>
      <use xlink:href="#DejaVuSans-76" x="502.638672"/>
      <use xlink:href="#DejaVuSans-67" x="561.818359"/>
     </g>
    </g>
    <g id="line2d_27">
     <path d="M 175.079063 88.301519 
L 186.079063 88.301519 
L 197.079063 88.301519 
" style="fill: none; stroke: #c44e52; stroke-width: 1.5; stroke-linecap: round"/>
    </g>
    <g id="text_20">
     <!-- FedPer -->
     <g style="fill: #262626" transform="translate(205.879063 92.151519) scale(0.11 -0.11)">
      <use xlink:href="#DejaVuSans-46"/>
      <use xlink:href="#DejaVuSans-65" x="52.019531"/>
      <use xlink:href="#DejaVuSans-64" x="113.542969"/>
      <use xlink:href="#DejaVuSans-50" x="177.019531"/>
      <use xlink:href="#DejaVuSans-65" x="233.697266"/>
      <use xlink:href="#DejaVuSans-72" x="295.220703"/>
     </g>
    </g>
    <g id="line2d_28">
     <path d="M 175.079063 104.447456 
L 186.079063 104.447456 
L 197.079063 104.447456 
" style="fill: none; stroke: #8172b3; stroke-width: 1.5; stroke-linecap: round"/>
    </g>
    <g id="text_21">
     <!-- FedProto -->
     <g style="fill: #262626" transform="translate(205.879063 108.297456) scale(0.11 -0.11)">
      <use xlink:href="#DejaVuSans-46"/>
      <use xlink:href="#DejaVuSans-65" x="52.019531"/>
      <use xlink:href="#DejaVuSans-64" x="113.542969"/>
      <use xlink:href="#DejaVuSans-50" x="177.019531"/>
      <use xlink:href="#DejaVuSans-72" x="235.572266"/>
      <use xlink:href="#DejaVuSans-6f" x="274.435547"/>
      <use xlink:href="#DejaVuSans-74" x="335.617188"/>
      <use xlink:href="#DejaVuSans-6f" x="374.826172"/>
     </g>
    </g>
   </g>
  </g>
 </g>
 <defs>
  <clipPath id="pb0a16ea49a">
   <rect x="46.31125" y="8.341675" width="357.12" height="266.112"/>
  </clipPath>
 </defs>
</svg>
