<?xml version="1.0" encoding="utf-8" standalone="no"?>
<!DOCTYPE svg PUBLIC "-//W3C//DTD SVG 1.1//EN"
  "http://www.w3.org/Graphics/SVG/1.1/DTD/svg11.dtd">
<svg xmlns:xlink="http://www.w3.org/1999/xlink" width="417.63pt" height="316.271687pt" viewBox="0 0 417.63 316.271687" xmlns="http://www.w3.org/2000/svg" version="1.1">
 <metadata>
  <rdf:RDF xmlns:dc="http://purl.org/dc/elements/1.1/" xmlns:cc="http://creativecommons.org/ns#" xmlns:rdf="http://www.w3.org/1999/02/22-rdf-syntax-ns#">
   <cc:Work>
    <dc:type rdf:resource="http://purl.org/dc/dcmitype/StillImage"/>
    <dc:date>2023-02-08T20:43:49.913542</dc:date>
    <dc:format>image/svg+xml</dc:format>
    <dc:creator>
     <cc:Agent>
      <dc:title>Matplotlib v3.6.3, https://matplotlib.org/</dc:title>
     </cc:Agent>
    </dc:creator>
   </cc:Work>
  </rdf:RDF>
 </metadata>
 <defs>
  <style type="text/css">*{stroke-linejoin: round; stroke-linecap: butt}</style>
 </defs>
 <g id="figure_1">
  <g id="patch_1">
   <path d="M 0 316.271687 
L 417.63 316.271687 
L 417.63 0 
L 0 0 
z
" style="fill: #ffffff"/>
  </g>
  <g id="axes_1">
   <g id="patch_2">
    <path d="M 53.31 273.312 
L 410.43 273.312 
L 410.43 7.2 
L 53.31 7.2 
z
" style="fill: #ffffff"/>
   </g>
   <g id="matplotlib.axis_1">
    <g id="xtick_1">
     <g id="line2d_1">
      <path d="M 66.263388 273.312 
L 66.263388 7.2 
" clip-path="url(#pa9594423e9)" style="fill: none; stroke: #cccccc; stroke-linecap: round"/>
     </g>
     <g id="text_1">
      <!-- 0 -->
      <g style="fill: #262626" transform="translate(62.764013 291.170281) scale(0.11 -0.11)">
       <defs>
        <path id="DejaVuSans-30" d="M 2034 4250 
Q 1547 4250 1301 3770 
Q 1056 3291 1056 2328 
Q 1056 1369 1301 889 
Q 1547 409 2034 409 
Q 2525 409 2770 889 
Q 3016 1369 3016 2328 
Q 3016 3291 2770 3770 
Q 2525 4250 2034 4250 
z
M 2034 4750 
Q 2819 4750 3233 4129 
Q 3647 3509 3647 2328 
Q 3647 1150 3233 529 
Q 2819 -91 2034 -91 
Q 1250 -91 836 529 
Q 422 1150 422 2328 
Q 422 3509 836 4129 
Q 1250 4750 2034 4750 
z
" transform="scale(0.015625)"/>
       </defs>
       <use xlink:href="#DejaVuSans-30"/>
      </g>
     </g>
    </g>
    <g id="xtick_2">
     <g id="line2d_2">
      <path d="M 131.850165 273.312 
L 131.850165 7.2 
" clip-path="url(#pa9594423e9)" style="fill: none; stroke: #cccccc; stroke-linecap: round"/>
     </g>
     <g id="text_2">
      <!-- 20 -->
      <g style="fill: #262626" transform="translate(124.851415 291.170281) scale(0.11 -0.11)">
       <defs>
        <path id="DejaVuSans-32" d="M 1228 531 
L 3431 531 
L 3431 0 
L 469 0 
L 469 531 
Q 828 903 1448 1529 
Q 2069 2156 2228 2338 
Q 2531 2678 2651 2914 
Q 2772 3150 2772 3378 
Q 2772 3750 2511 3984 
Q 2250 4219 1831 4219 
Q 1534 4219 1204 4116 
Q 875 4013 500 3803 
L 500 4441 
Q 881 4594 1212 4672 
Q 1544 4750 1819 4750 
Q 2544 4750 2975 4387 
Q 3406 4025 3406 3419 
Q 3406 3131 3298 2873 
Q 3191 2616 2906 2266 
Q 2828 2175 2409 1742 
Q 1991 1309 1228 531 
z
" transform="scale(0.015625)"/>
       </defs>
       <use xlink:href="#DejaVuSans-32"/>
       <use xlink:href="#DejaVuSans-30" x="63.623047"/>
      </g>
     </g>
    </g>
    <g id="xtick_3">
     <g id="line2d_3">
      <path d="M 197.436942 273.312 
L 197.436942 7.2 
" clip-path="url(#pa9594423e9)" style="fill: none; stroke: #cccccc; stroke-linecap: round"/>
     </g>
     <g id="text_3">
      <!-- 40 -->
      <g style="fill: #262626" transform="translate(190.438192 291.170281) scale(0.11 -0.11)">
       <defs>
        <path id="DejaVuSans-34" d="M 2419 4116 
L 825 1625 
L 2419 1625 
L 2419 4116 
z
M 2253 4666 
L 3047 4666 
L 3047 1625 
L 3713 1625 
L 3713 1100 
L 3047 1100 
L 3047 0 
L 2419 0 
L 2419 1100 
L 313 1100 
L 313 1709 
L 2253 4666 
z
" transform="scale(0.015625)"/>
       </defs>
       <use xlink:href="#DejaVuSans-34"/>
       <use xlink:href="#DejaVuSans-30" x="63.623047"/>
      </g>
     </g>
    </g>
    <g id="xtick_4">
     <g id="line2d_4">
      <path d="M 263.023719 273.312 
L 263.023719 7.2 
" clip-path="url(#pa9594423e9)" style="fill: none; stroke: #cccccc; stroke-linecap: round"/>
     </g>
     <g id="text_4">
      <!-- 60 -->
      <g style="fill: #262626" transform="translate(256.024969 291.170281) scale(0.11 -0.11)">
       <defs>
        <path id="DejaVuSans-36" d="M 2113 2584 
Q 1688 2584 1439 2293 
Q 1191 2003 1191 1497 
Q 1191 994 1439 701 
Q 1688 409 2113 409 
Q 2538 409 2786 701 
Q 3034 994 3034 1497 
Q 3034 2003 2786 2293 
Q 2538 2584 2113 2584 
z
M 3366 4563 
L 3366 3988 
Q 3128 4100 2886 4159 
Q 2644 4219 2406 4219 
Q 1781 4219 1451 3797 
Q 1122 3375 1075 2522 
Q 1259 2794 1537 2939 
Q 1816 3084 2150 3084 
Q 2853 3084 3261 2657 
Q 3669 2231 3669 1497 
Q 3669 778 3244 343 
Q 2819 -91 2113 -91 
Q 1303 -91 875 529 
Q 447 1150 447 2328 
Q 447 3434 972 4092 
Q 1497 4750 2381 4750 
Q 2619 4750 2861 4703 
Q 3103 4656 3366 4563 
z
" transform="scale(0.015625)"/>
       </defs>
       <use xlink:href="#DejaVuSans-36"/>
       <use xlink:href="#DejaVuSans-30" x="63.623047"/>
      </g>
     </g>
    </g>
    <g id="xtick_5">
     <g id="line2d_5">
      <path d="M 328.610496 273.312 
L 328.610496 7.2 
" clip-path="url(#pa9594423e9)" style="fill: none; stroke: #cccccc; stroke-linecap: round"/>
     </g>
     <g id="text_5">
      <!-- 80 -->
      <g style="fill: #262626" transform="translate(321.611746 291.170281) scale(0.11 -0.11)">
       <defs>
        <path id="DejaVuSans-38" d="M 2034 2216 
Q 1584 2216 1326 1975 
Q 1069 1734 1069 1313 
Q 1069 891 1326 650 
Q 1584 409 2034 409 
Q 2484 409 2743 651 
Q 3003 894 3003 1313 
Q 3003 1734 2745 1975 
Q 2488 2216 2034 2216 
z
M 1403 2484 
Q 997 2584 770 2862 
Q 544 3141 544 3541 
Q 544 4100 942 4425 
Q 1341 4750 2034 4750 
Q 2731 4750 3128 4425 
Q 3525 4100 3525 3541 
Q 3525 3141 3298 2862 
Q 3072 2584 2669 2484 
Q 3125 2378 3379 2068 
Q 3634 1759 3634 1313 
Q 3634 634 3220 271 
Q 2806 -91 2034 -91 
Q 1263 -91 848 271 
Q 434 634 434 1313 
Q 434 1759 690 2068 
Q 947 2378 1403 2484 
z
M 1172 3481 
Q 1172 3119 1398 2916 
Q 1625 2713 2034 2713 
Q 2441 2713 2670 2916 
Q 2900 3119 2900 3481 
Q 2900 3844 2670 4047 
Q 2441 4250 2034 4250 
Q 1625 4250 1398 4047 
Q 1172 3844 1172 3481 
z
" transform="scale(0.015625)"/>
       </defs>
       <use xlink:href="#DejaVuSans-38"/>
       <use xlink:href="#DejaVuSans-30" x="63.623047"/>
      </g>
     </g>
    </g>
    <g id="xtick_6">
     <g id="line2d_6">
      <path d="M 394.197273 273.312 
L 394.197273 7.2 
" clip-path="url(#pa9594423e9)" style="fill: none; stroke: #cccccc; stroke-linecap: round"/>
     </g>
     <g id="text_6">
      <!-- 100 -->
      <g style="fill: #262626" transform="translate(383.699148 291.170281) scale(0.11 -0.11)">
       <defs>
        <path id="DejaVuSans-31" d="M 794 531 
L 1825 531 
L 1825 4091 
L 703 3866 
L 703 4441 
L 1819 4666 
L 2450 4666 
L 2450 531 
L 3481 531 
L 3481 0 
L 794 0 
L 794 531 
z
" transform="scale(0.015625)"/>
       </defs>
       <use xlink:href="#DejaVuSans-31"/>
       <use xlink:href="#DejaVuSans-30" x="63.623047"/>
       <use xlink:href="#DejaVuSans-30" x="127.246094"/>
      </g>
     </g>
    </g>
    <g id="text_7">
     <!-- Round -->
     <g style="fill: #262626" transform="translate(212.885625 306.576062) scale(0.12 -0.12)">
      <defs>
       <path id="DejaVuSans-52" d="M 2841 2188 
Q 3044 2119 3236 1894 
Q 3428 1669 3622 1275 
L 4263 0 
L 3584 0 
L 2988 1197 
Q 2756 1666 2539 1819 
Q 2322 1972 1947 1972 
L 1259 1972 
L 1259 0 
L 628 0 
L 628 4666 
L 2053 4666 
Q 2853 4666 3247 4331 
Q 3641 3997 3641 3322 
Q 3641 2881 3436 2590 
Q 3231 2300 2841 2188 
z
M 1259 4147 
L 1259 2491 
L 2053 2491 
Q 2509 2491 2742 2702 
Q 2975 2913 2975 3322 
Q 2975 3731 2742 3939 
Q 2509 4147 2053 4147 
L 1259 4147 
z
" transform="scale(0.015625)"/>
       <path id="DejaVuSans-6f" d="M 1959 3097 
Q 1497 3097 1228 2736 
Q 959 2375 959 1747 
Q 959 1119 1226 758 
Q 1494 397 1959 397 
Q 2419 397 2687 759 
Q 2956 1122 2956 1747 
Q 2956 2369 2687 2733 
Q 2419 3097 1959 3097 
z
M 1959 3584 
Q 2709 3584 3137 3096 
Q 3566 2609 3566 1747 
Q 3566 888 3137 398 
Q 2709 -91 1959 -91 
Q 1206 -91 779 398 
Q 353 888 353 1747 
Q 353 2609 779 3096 
Q 1206 3584 1959 3584 
z
" transform="scale(0.015625)"/>
       <path id="DejaVuSans-75" d="M 544 1381 
L 544 3500 
L 1119 3500 
L 1119 1403 
Q 1119 906 1312 657 
Q 1506 409 1894 409 
Q 2359 409 2629 706 
Q 2900 1003 2900 1516 
L 2900 3500 
L 3475 3500 
L 3475 0 
L 2900 0 
L 2900 538 
Q 2691 219 2414 64 
Q 2138 -91 1772 -91 
Q 1169 -91 856 284 
Q 544 659 544 1381 
z
M 1991 3584 
L 1991 3584 
z
" transform="scale(0.015625)"/>
       <path id="DejaVuSans-6e" d="M 3513 2113 
L 3513 0 
L 2938 0 
L 2938 2094 
Q 2938 2591 2744 2837 
Q 2550 3084 2163 3084 
Q 1697 3084 1428 2787 
Q 1159 2491 1159 1978 
L 1159 0 
L 581 0 
L 581 3500 
L 1159 3500 
L 1159 2956 
Q 1366 3272 1645 3428 
Q 1925 3584 2291 3584 
Q 2894 3584 3203 3211 
Q 3513 2838 3513 2113 
z
" transform="scale(0.015625)"/>
       <path id="DejaVuSans-64" d="M 2906 2969 
L 2906 4863 
L 3481 4863 
L 3481 0 
L 2906 0 
L 2906 525 
Q 2725 213 2448 61 
Q 2172 -91 1784 -91 
Q 1150 -91 751 415 
Q 353 922 353 1747 
Q 353 2572 751 3078 
Q 1150 3584 1784 3584 
Q 2172 3584 2448 3432 
Q 2725 3281 2906 2969 
z
M 947 1747 
Q 947 1113 1208 752 
Q 1469 391 1925 391 
Q 2381 391 2643 752 
Q 2906 1113 2906 1747 
Q 2906 2381 2643 2742 
Q 2381 3103 1925 3103 
Q 1469 3103 1208 2742 
Q 947 2381 947 1747 
z
" transform="scale(0.015625)"/>
      </defs>
      <use xlink:href="#DejaVuSans-52"/>
      <use xlink:href="#DejaVuSans-6f" x="64.982422"/>
      <use xlink:href="#DejaVuSans-75" x="126.164062"/>
      <use xlink:href="#DejaVuSans-6e" x="189.542969"/>
      <use xlink:href="#DejaVuSans-64" x="252.921875"/>
     </g>
    </g>
   </g>
   <g id="matplotlib.axis_2">
    <g id="ytick_1">
     <g id="line2d_7">
      <path d="M 53.31 270.149728 
L 410.43 270.149728 
" clip-path="url(#pa9594423e9)" style="fill: none; stroke: #cccccc; stroke-linecap: round"/>
     </g>
     <g id="text_8">
      <!-- 0 -->
      <g style="fill: #262626" transform="translate(36.81125 274.328868) scale(0.11 -0.11)">
       <use xlink:href="#DejaVuSans-30"/>
      </g>
     </g>
    </g>
    <g id="ytick_2">
     <g id="line2d_8">
      <path d="M 53.31 219.471774 
L 410.43 219.471774 
" clip-path="url(#pa9594423e9)" style="fill: none; stroke: #cccccc; stroke-linecap: round"/>
     </g>
     <g id="text_9">
      <!-- 20 -->
      <g style="fill: #262626" transform="translate(29.8125 223.650914) scale(0.11 -0.11)">
       <use xlink:href="#DejaVuSans-32"/>
       <use xlink:href="#DejaVuSans-30" x="63.623047"/>
      </g>
     </g>
    </g>
    <g id="ytick_3">
     <g id="line2d_9">
      <path d="M 53.31 168.793819 
L 410.43 168.793819 
" clip-path="url(#pa9594423e9)" style="fill: none; stroke: #cccccc; stroke-linecap: round"/>
     </g>
     <g id="text_10">
      <!-- 40 -->
      <g style="fill: #262626" transform="translate(29.8125 172.97296) scale(0.11 -0.11)">
       <use xlink:href="#DejaVuSans-34"/>
       <use xlink:href="#DejaVuSans-30" x="63.623047"/>
      </g>
     </g>
    </g>
    <g id="ytick_4">
     <g id="line2d_10">
      <path d="M 53.31 118.115865 
L 410.43 118.115865 
" clip-path="url(#pa9594423e9)" style="fill: none; stroke: #cccccc; stroke-linecap: round"/>
     </g>
     <g id="text_11">
      <!-- 60 -->
      <g style="fill: #262626" transform="translate(29.8125 122.295006) scale(0.11 -0.11)">
       <use xlink:href="#DejaVuSans-36"/>
       <use xlink:href="#DejaVuSans-30" x="63.623047"/>
      </g>
     </g>
    </g>
    <g id="ytick_5">
     <g id="line2d_11">
      <path d="M 53.31 67.437911 
L 410.43 67.437911 
" clip-path="url(#pa9594423e9)" style="fill: none; stroke: #cccccc; stroke-linecap: round"/>
     </g>
     <g id="text_12">
      <!-- 80 -->
      <g style="fill: #262626" transform="translate(29.8125 71.617052) scale(0.11 -0.11)">
       <use xlink:href="#DejaVuSans-38"/>
       <use xlink:href="#DejaVuSans-30" x="63.623047"/>
      </g>
     </g>
    </g>
    <g id="ytick_6">
     <g id="line2d_12">
      <path d="M 53.31 16.759957 
L 410.43 16.759957 
" clip-path="url(#pa9594423e9)" style="fill: none; stroke: #cccccc; stroke-linecap: round"/>
     </g>
     <g id="text_13">
      <!-- 100 -->
      <g style="fill: #262626" transform="translate(22.81375 20.939097) scale(0.11 -0.11)">
       <use xlink:href="#DejaVuSans-31"/>
       <use xlink:href="#DejaVuSans-30" x="63.623047"/>
       <use xlink:href="#DejaVuSans-30" x="127.246094"/>
      </g>
     </g>
    </g>
    <g id="text_14">
     <!-- Accuracy (%) -->
     <g style="fill: #262626" transform="translate(16.318125 179.939437) rotate(-90) scale(0.12 -0.12)">
      <defs>
       <path id="DejaVuSans-41" d="M 2188 4044 
L 1331 1722 
L 3047 1722 
L 2188 4044 
z
M 1831 4666 
L 2547 4666 
L 4325 0 
L 3669 0 
L 3244 1197 
L 1141 1197 
L 716 0 
L 50 0 
L 1831 4666 
z
" transform="scale(0.015625)"/>
       <path id="DejaVuSans-63" d="M 3122 3366 
L 3122 2828 
Q 2878 2963 2633 3030 
Q 2388 3097 2138 3097 
Q 1578 3097 1268 2742 
Q 959 2388 959 1747 
Q 959 1106 1268 751 
Q 1578 397 2138 397 
Q 2388 397 2633 464 
Q 2878 531 3122 666 
L 3122 134 
Q 2881 22 2623 -34 
Q 2366 -91 2075 -91 
Q 1284 -91 818 406 
Q 353 903 353 1747 
Q 353 2603 823 3093 
Q 1294 3584 2113 3584 
Q 2378 3584 2631 3529 
Q 2884 3475 3122 3366 
z
" transform="scale(0.015625)"/>
       <path id="DejaVuSans-72" d="M 2631 2963 
Q 2534 3019 2420 3045 
Q 2306 3072 2169 3072 
Q 1681 3072 1420 2755 
Q 1159 2438 1159 1844 
L 1159 0 
L 581 0 
L 581 3500 
L 1159 3500 
L 1159 2956 
Q 1341 3275 1631 3429 
Q 1922 3584 2338 3584 
Q 2397 3584 2469 3576 
Q 2541 3569 2628 3553 
L 2631 2963 
z
" transform="scale(0.015625)"/>
       <path id="DejaVuSans-61" d="M 2194 1759 
Q 1497 1759 1228 1600 
Q 959 1441 959 1056 
Q 959 750 1161 570 
Q 1363 391 1709 391 
Q 2188 391 2477 730 
Q 2766 1069 2766 1631 
L 2766 1759 
L 2194 1759 
z
M 3341 1997 
L 3341 0 
L 2766 0 
L 2766 531 
Q 2569 213 2275 61 
Q 1981 -91 1556 -91 
Q 1019 -91 701 211 
Q 384 513 384 1019 
Q 384 1609 779 1909 
Q 1175 2209 1959 2209 
L 2766 2209 
L 2766 2266 
Q 2766 2663 2505 2880 
Q 2244 3097 1772 3097 
Q 1472 3097 1187 3025 
Q 903 2953 641 2809 
L 641 3341 
Q 956 3463 1253 3523 
Q 1550 3584 1831 3584 
Q 2591 3584 2966 3190 
Q 3341 2797 3341 1997 
z
" transform="scale(0.015625)"/>
       <path id="DejaVuSans-79" d="M 2059 -325 
Q 1816 -950 1584 -1140 
Q 1353 -1331 966 -1331 
L 506 -1331 
L 506 -850 
L 844 -850 
Q 1081 -850 1212 -737 
Q 1344 -625 1503 -206 
L 1606 56 
L 191 3500 
L 800 3500 
L 1894 763 
L 2988 3500 
L 3597 3500 
L 2059 -325 
z
" transform="scale(0.015625)"/>
       <path id="DejaVuSans-20" transform="scale(0.015625)"/>
       <path id="DejaVuSans-28" d="M 1984 4856 
Q 1566 4138 1362 3434 
Q 1159 2731 1159 2009 
Q 1159 1288 1364 580 
Q 1569 -128 1984 -844 
L 1484 -844 
Q 1016 -109 783 600 
Q 550 1309 550 2009 
Q 550 2706 781 3412 
Q 1013 4119 1484 4856 
L 1984 4856 
z
" transform="scale(0.015625)"/>
       <path id="DejaVuSans-25" d="M 4653 2053 
Q 4381 2053 4226 1822 
Q 4072 1591 4072 1178 
Q 4072 772 4226 539 
Q 4381 306 4653 306 
Q 4919 306 5073 539 
Q 5228 772 5228 1178 
Q 5228 1588 5073 1820 
Q 4919 2053 4653 2053 
z
M 4653 2450 
Q 5147 2450 5437 2106 
Q 5728 1763 5728 1178 
Q 5728 594 5436 251 
Q 5144 -91 4653 -91 
Q 4153 -91 3862 251 
Q 3572 594 3572 1178 
Q 3572 1766 3864 2108 
Q 4156 2450 4653 2450 
z
M 1428 4353 
Q 1159 4353 1004 4120 
Q 850 3888 850 3481 
Q 850 3069 1003 2837 
Q 1156 2606 1428 2606 
Q 1700 2606 1854 2837 
Q 2009 3069 2009 3481 
Q 2009 3884 1853 4118 
Q 1697 4353 1428 4353 
z
M 4250 4750 
L 4750 4750 
L 1831 -91 
L 1331 -91 
L 4250 4750 
z
M 1428 4750 
Q 1922 4750 2215 4408 
Q 2509 4066 2509 3481 
Q 2509 2891 2217 2550 
Q 1925 2209 1428 2209 
Q 931 2209 642 2551 
Q 353 2894 353 3481 
Q 353 4063 643 4406 
Q 934 4750 1428 4750 
z
" transform="scale(0.015625)"/>
       <path id="DejaVuSans-29" d="M 513 4856 
L 1013 4856 
Q 1481 4119 1714 3412 
Q 1947 2706 1947 2009 
Q 1947 1309 1714 600 
Q 1481 -109 1013 -844 
L 513 -844 
Q 928 -128 1133 580 
Q 1338 1288 1338 2009 
Q 1338 2731 1133 3434 
Q 928 4138 513 4856 
z
" transform="scale(0.015625)"/>
      </defs>
      <use xlink:href="#DejaVuSans-41"/>
      <use xlink:href="#DejaVuSans-63" x="66.658203"/>
      <use xlink:href="#DejaVuSans-63" x="121.638672"/>
      <use xlink:href="#DejaVuSans-75" x="176.619141"/>
      <use xlink:href="#DejaVuSans-72" x="239.998047"/>
      <use xlink:href="#DejaVuSans-61" x="281.111328"/>
      <use xlink:href="#DejaVuSans-63" x="342.390625"/>
      <use xlink:href="#DejaVuSans-79" x="397.371094"/>
      <use xlink:href="#DejaVuSans-20" x="456.550781"/>
      <use xlink:href="#DejaVuSans-28" x="488.337891"/>
      <use xlink:href="#DejaVuSans-25" x="527.351562"/>
      <use xlink:href="#DejaVuSans-29" x="622.371094"/>
     </g>
    </g>
   </g>
   <g id="PolyCollection_1">
    <defs>
     <path id="m223632b40e" d="M 69.542727 -134.582085 
L 69.542727 -80.427514 
L 72.822066 -149.529404 
L 76.101405 -183.184504 
L 79.380744 -219.946176 
L 82.660083 -228.043813 
L 85.939421 -233.574813 
L 89.21876 -234.242361 
L 92.498099 -248.856312 
L 95.777438 -261.414627 
L 99.056777 -280.071921 
L 102.336116 -282.452804 
L 105.615455 -281.713273 
L 108.894793 -269.088757 
L 112.174132 -277.388029 
L 115.453471 -279.225892 
L 118.73281 -280.632865 
L 122.012149 -284.675779 
L 125.291488 -288.261499 
L 128.570826 -285.307241 
L 131.850165 -284.796497 
L 135.129504 -286.627902 
L 138.408843 -287.538432 
L 141.688182 -289.553994 
L 144.967521 -289.841286 
L 148.24686 -288.658682 
L 151.526198 -289.340911 
L 154.805537 -289.026044 
L 158.084876 -288.187332 
L 161.364215 -283.324906 
L 164.643554 -281.080424 
L 167.922893 -287.502353 
L 171.202231 -285.83506 
L 174.48157 -285.579384 
L 177.760909 -286.148359 
L 181.040248 -288.906875 
L 184.319587 -289.768258 
L 187.598926 -279.599888 
L 190.878264 -281.305576 
L 194.157603 -279.250868 
L 197.436942 -284.851366 
L 200.716281 -289.424594 
L 203.99562 -285.422961 
L 207.274959 -289.839676 
L 210.554298 -289.130958 
L 213.833636 -277.644676 
L 217.112975 -288.637093 
L 220.392314 -285.609059 
L 223.671653 -286.610864 
L 226.950992 -287.484816 
L 230.230331 -288.901666 
L 233.509669 -289.875807 
L 236.789008 -291.367315 
L 240.068347 -285.436611 
L 243.347686 -288.956751 
L 246.627025 -289.332506 
L 249.906364 -289.080216 
L 253.185702 -288.240425 
L 256.465041 -289.310554 
L 259.74438 -290.634046 
L 263.023719 -293.088739 
L 266.303058 -292.78903 
L 269.582397 -293.76615 
L 272.861736 -292.318398 
L 276.141074 -293.584776 
L 279.420413 -293.168115 
L 282.699752 -293.315307 
L 285.979091 -292.078689 
L 289.25843 -293.816678 
L 292.537769 -293.740136 
L 295.817107 -287.936351 
L 299.096446 -279.245419 
L 302.375785 -282.853538 
L 305.655124 -285.157652 
L 308.934463 -286.610051 
L 312.213802 -284.472644 
L 315.49314 -288.21171 
L 318.772479 -287.949504 
L 322.051818 -287.762143 
L 325.331157 -282.325806 
L 328.610496 -287.926342 
L 331.889835 -284.811471 
L 335.169174 -284.538628 
L 338.448512 -288.270898 
L 341.727851 -286.356623 
L 345.00719 -286.425631 
L 348.286529 -287.59421 
L 351.565868 -288.98958 
L 354.845207 -289.069479 
L 358.124545 -288.888483 
L 361.403884 -279.42899 
L 364.683223 -287.712246 
L 367.962562 -290.121765 
L 371.241901 -289.111813 
L 374.52124 -286.580329 
L 377.800579 -281.239443 
L 381.079917 -286.108203 
L 384.359256 -288.486767 
L 387.638595 -292.929421 
L 390.917934 -288.706037 
L 394.197273 -291.397511 
L 394.197273 -295.743473 
L 394.197273 -295.743473 
L 390.917934 -294.988391 
L 387.638595 -295.737359 
L 384.359256 -294.186912 
L 381.079917 -294.14464 
L 377.800579 -291.753663 
L 374.52124 -294.458883 
L 371.241901 -294.673891 
L 367.962562 -295.325864 
L 364.683223 -294.139349 
L 361.403884 -291.309859 
L 358.124545 -294.467478 
L 354.845207 -294.532047 
L 351.565868 -294.326252 
L 348.286529 -293.520467 
L 345.00719 -293.512603 
L 341.727851 -293.882702 
L 338.448512 -294.170461 
L 335.169174 -292.39472 
L 331.889835 -292.564041 
L 328.610496 -293.420156 
L 325.331157 -291.649437 
L 322.051818 -293.587753 
L 318.772479 -294.047437 
L 315.49314 -293.897693 
L 312.213802 -292.652263 
L 308.934463 -293.397569 
L 305.655124 -292.66067 
L 302.375785 -291.983951 
L 299.096446 -290.872548 
L 295.817107 -293.536749 
L 292.537769 -296.696211 
L 289.25843 -296.747646 
L 285.979091 -296.541787 
L 282.699752 -296.626739 
L 279.420413 -296.975687 
L 276.141074 -296.747552 
L 272.861736 -296.589856 
L 269.582397 -296.41562 
L 266.303058 -296.216726 
L 263.023719 -296.686917 
L 259.74438 -296.48148 
L 256.465041 -296.157904 
L 253.185702 -295.982939 
L 249.906364 -296.185204 
L 246.627025 -295.677663 
L 243.347686 -296.426917 
L 240.068347 -295.897644 
L 236.789008 -295.897273 
L 233.509669 -295.549032 
L 230.230331 -295.402593 
L 226.950992 -295.328944 
L 223.671653 -295.22854 
L 220.392314 -295.217402 
L 217.112975 -295.589695 
L 213.833636 -296.112992 
L 210.554298 -295.68514 
L 207.274959 -295.70615 
L 203.99562 -295.137949 
L 200.716281 -295.326845 
L 197.436942 -295.648806 
L 194.157603 -295.006162 
L 190.878264 -295.410016 
L 187.598926 -295.404383 
L 184.319587 -295.025331 
L 181.040248 -295.338127 
L 177.760909 -294.781781 
L 174.48157 -295.108637 
L 171.202231 -294.83547 
L 167.922893 -295.105687 
L 164.643554 -292.318235 
L 161.364215 -294.122843 
L 158.084876 -294.283356 
L 154.805537 -293.364826 
L 151.526198 -293.517194 
L 148.24686 -293.65024 
L 144.967521 -293.364963 
L 141.688182 -293.319313 
L 138.408843 -293.084224 
L 135.129504 -292.466412 
L 131.850165 -292.348668 
L 128.570826 -293.603165 
L 125.291488 -293.661279 
L 122.012149 -292.951689 
L 118.73281 -291.983396 
L 115.453471 -292.526092 
L 112.174132 -292.269937 
L 108.894793 -291.436251 
L 105.615455 -289.723244 
L 102.336116 -289.584053 
L 99.056777 -291.310381 
L 95.777438 -287.046039 
L 92.498099 -282.125033 
L 89.21876 -276.285449 
L 85.939421 -271.474362 
L 82.660083 -270.01717 
L 79.380744 -262.486126 
L 76.101405 -245.262994 
L 72.822066 -205.882601 
L 69.542727 -134.582085 
z
" style="stroke: #4c72b0; stroke-opacity: 0.2"/>
    </defs>
    <g clip-path="url(#pa9594423e9)">
     <use xlink:href="#m223632b40e" x="0" y="316.271687" style="fill: #4c72b0; fill-opacity: 0.2; stroke: #4c72b0; stroke-opacity: 0.2"/>
    </g>
   </g>
   <g id="PolyCollection_2">
    <defs>
     <path id="m1b6458081f" d="M 69.542727 -83.687764 
L 69.542727 -55.055687 
L 72.822066 -102.598553 
L 76.101405 -125.966341 
L 79.380744 -153.969546 
L 82.660083 -134.774381 
L 85.939421 -164.040769 
L 89.21876 -147.710822 
L 92.498099 -176.98589 
L 95.777438 -200.503181 
L 99.056777 -223.513213 
L 102.336116 -196.36249 
L 105.615455 -197.324275 
L 108.894793 -234.58984 
L 112.174132 -251.512261 
L 115.453471 -222.864714 
L 118.73281 -204.890278 
L 122.012149 -256.557022 
L 125.291488 -255.734605 
L 128.570826 -225.94869 
L 131.850165 -235.895459 
L 135.129504 -226.824529 
L 138.408843 -266.400425 
L 141.688182 -237.705901 
L 144.967521 -260.996191 
L 148.24686 -259.218862 
L 151.526198 -243.016508 
L 154.805537 -229.293345 
L 158.084876 -226.882183 
L 161.364215 -236.645131 
L 164.643554 -222.818882 
L 167.922893 -266.080672 
L 171.202231 -256.049857 
L 174.48157 -246.400998 
L 177.760909 -254.983671 
L 181.040248 -265.101315 
L 184.319587 -264.553806 
L 187.598926 -263.508942 
L 190.878264 -270.853023 
L 194.157603 -242.080515 
L 197.436942 -260.954971 
L 200.716281 -265.225186 
L 203.99562 -261.118028 
L 207.274959 -271.922163 
L 210.554298 -263.439948 
L 213.833636 -267.472015 
L 217.112975 -235.770619 
L 220.392314 -241.74893 
L 223.671653 -235.531303 
L 226.950992 -251.713751 
L 230.230331 -272.276182 
L 233.509669 -252.370694 
L 236.789008 -279.216394 
L 240.068347 -269.96015 
L 243.347686 -269.376435 
L 246.627025 -251.288189 
L 249.906364 -262.174022 
L 253.185702 -258.245901 
L 256.465041 -245.946694 
L 259.74438 -279.941064 
L 263.023719 -257.258014 
L 266.303058 -246.544599 
L 269.582397 -275.103557 
L 272.861736 -270.66133 
L 276.141074 -268.809332 
L 279.420413 -276.308819 
L 282.699752 -259.182045 
L 285.979091 -258.202802 
L 289.25843 -265.443747 
L 292.537769 -259.793077 
L 295.817107 -278.219163 
L 299.096446 -253.92855 
L 302.375785 -269.693985 
L 305.655124 -264.425585 
L 308.934463 -271.850727 
L 312.213802 -272.890216 
L 315.49314 -277.721195 
L 318.772479 -276.558759 
L 322.051818 -270.538576 
L 325.331157 -271.480672 
L 328.610496 -273.948506 
L 331.889835 -274.911543 
L 335.169174 -272.343758 
L 338.448512 -272.582537 
L 341.727851 -277.943452 
L 345.00719 -275.679163 
L 348.286529 -281.637306 
L 351.565868 -278.643032 
L 354.845207 -275.386735 
L 358.124545 -273.667071 
L 361.403884 -254.966285 
L 364.683223 -279.269814 
L 367.962562 -284.2033 
L 371.241901 -278.082345 
L 374.52124 -278.149043 
L 377.800579 -254.852612 
L 381.079917 -267.47482 
L 384.359256 -270.261508 
L 387.638595 -286.706698 
L 390.917934 -269.3961 
L 394.197273 -278.026269 
L 394.197273 -288.183798 
L 394.197273 -288.183798 
L 390.917934 -284.378753 
L 387.638595 -289.991264 
L 384.359256 -280.278388 
L 381.079917 -282.359991 
L 377.800579 -274.331861 
L 374.52124 -284.935424 
L 371.241901 -286.088314 
L 367.962562 -288.724964 
L 364.683223 -286.258286 
L 361.403884 -271.888894 
L 358.124545 -284.077238 
L 354.845207 -284.81191 
L 351.565868 -286.048949 
L 348.286529 -286.742684 
L 345.00719 -284.086115 
L 341.727851 -285.780494 
L 338.448512 -283.511086 
L 335.169174 -280.954214 
L 331.889835 -282.616102 
L 328.610496 -284.27494 
L 325.331157 -280.525085 
L 322.051818 -282.783769 
L 318.772479 -284.53686 
L 315.49314 -284.669559 
L 312.213802 -281.739422 
L 308.934463 -281.522354 
L 305.655124 -278.564217 
L 302.375785 -280.375035 
L 299.096446 -271.199419 
L 295.817107 -284.059015 
L 292.537769 -278.880267 
L 289.25843 -278.652357 
L 285.979091 -277.025815 
L 282.699752 -278.380105 
L 279.420413 -285.540941 
L 276.141074 -282.024382 
L 272.861736 -281.98176 
L 269.582397 -283.08871 
L 266.303058 -271.850931 
L 263.023719 -273.987273 
L 259.74438 -285.585134 
L 256.465041 -275.154869 
L 253.185702 -278.694823 
L 249.906364 -280.801105 
L 246.627025 -279.247068 
L 243.347686 -282.235642 
L 240.068347 -281.495146 
L 236.789008 -285.449882 
L 233.509669 -275.199835 
L 230.230331 -281.713035 
L 226.950992 -276.954315 
L 223.671653 -269.522884 
L 220.392314 -267.736317 
L 217.112975 -269.031521 
L 213.833636 -282.023241 
L 210.554298 -278.380894 
L 207.274959 -280.92718 
L 203.99562 -275.269966 
L 200.716281 -277.981656 
L 197.436942 -277.78065 
L 194.157603 -267.935466 
L 190.878264 -278.1676 
L 187.598926 -276.60223 
L 184.319587 -275.688005 
L 181.040248 -279.240968 
L 177.760909 -275.917821 
L 174.48157 -268.278829 
L 171.202231 -271.936481 
L 167.922893 -278.264691 
L 164.643554 -255.923105 
L 161.364215 -268.190848 
L 158.084876 -260.436014 
L 154.805537 -261.630406 
L 151.526198 -262.420233 
L 148.24686 -274.140146 
L 144.967521 -273.564923 
L 141.688182 -268.564718 
L 138.408843 -273.926539 
L 135.129504 -257.131939 
L 131.850165 -263.908594 
L 128.570826 -258.370222 
L 125.291488 -269.707991 
L 122.012149 -268.164913 
L 118.73281 -237.195675 
L 115.453471 -257.487944 
L 112.174132 -266.678652 
L 108.894793 -257.247848 
L 105.615455 -237.513031 
L 102.336116 -237.762802 
L 99.056777 -251.528795 
L 95.777438 -231.5594 
L 92.498099 -221.0334 
L 89.21876 -195.20931 
L 85.939421 -217.134345 
L 82.660083 -181.435156 
L 79.380744 -199.657672 
L 76.101405 -183.889231 
L 72.822066 -147.249105 
L 69.542727 -83.687764 
z
" style="stroke: #dd8452; stroke-opacity: 0.2"/>
    </defs>
    <g clip-path="url(#pa9594423e9)">
     <use xlink:href="#m1b6458081f" x="0" y="316.271687" style="fill: #dd8452; fill-opacity: 0.2; stroke: #dd8452; stroke-opacity: 0.2"/>
    </g>
   </g>
   <g id="PolyCollection_3">
    <defs>
     <path id="ma952b626bd" d="M 69.542727 -135.668864 
L 69.542727 -80.925697 
L 72.822066 -119.044992 
L 76.101405 -157.750725 
L 79.380744 -169.86643 
L 82.660083 -185.108691 
L 85.939421 -185.998308 
L 89.21876 -202.933763 
L 92.498099 -203.629042 
L 95.777438 -215.510236 
L 99.056777 -223.466215 
L 102.336116 -230.853277 
L 105.615455 -237.146498 
L 108.894793 -233.918423 
L 112.174132 -240.369345 
L 115.453471 -247.132296 
L 118.73281 -247.846231 
L 122.012149 -248.17277 
L 125.291488 -248.683588 
L 128.570826 -250.190104 
L 131.850165 -249.975102 
L 135.129504 -256.391243 
L 138.408843 -257.434223 
L 141.688182 -257.793534 
L 144.967521 -255.880729 
L 148.24686 -260.190599 
L 151.526198 -260.38424 
L 154.805537 -262.944871 
L 158.084876 -264.39673 
L 161.364215 -264.484487 
L 164.643554 -264.328894 
L 167.922893 -263.022195 
L 171.202231 -263.652924 
L 174.48157 -263.489703 
L 177.760909 -262.823611 
L 181.040248 -265.40196 
L 184.319587 -264.9953 
L 187.598926 -265.614077 
L 190.878264 -266.243826 
L 194.157603 -266.273783 
L 197.436942 -268.194664 
L 200.716281 -269.362986 
L 203.99562 -268.697162 
L 207.274959 -267.142229 
L 210.554298 -271.492561 
L 213.833636 -268.496418 
L 217.112975 -267.676843 
L 220.392314 -272.282305 
L 223.671653 -269.45925 
L 226.950992 -271.277272 
L 230.230331 -274.368842 
L 233.509669 -274.093489 
L 236.789008 -274.148853 
L 240.068347 -276.610443 
L 243.347686 -277.559322 
L 246.627025 -278.391075 
L 249.906364 -277.647145 
L 253.185702 -277.908112 
L 256.465041 -277.403801 
L 259.74438 -278.623219 
L 263.023719 -279.507458 
L 266.303058 -278.73835 
L 269.582397 -274.285414 
L 272.861736 -281.424582 
L 276.141074 -280.244263 
L 279.420413 -280.681005 
L 282.699752 -280.451236 
L 285.979091 -281.475549 
L 289.25843 -281.792678 
L 292.537769 -282.590373 
L 295.817107 -192.915224 
L 299.096446 -194.076614 
L 302.375785 -195.253617 
L 305.655124 -190.251839 
L 308.934463 -202.955578 
L 312.213802 -188.268691 
L 315.49314 -196.149331 
L 318.772479 -193.116099 
L 322.051818 -198.680695 
L 325.331157 -194.126067 
L 328.610496 -197.623675 
L 331.889835 -190.872605 
L 335.169174 -194.480697 
L 338.448512 -196.939799 
L 341.727851 -202.060129 
L 345.00719 -192.691699 
L 348.286529 -206.486643 
L 351.565868 -193.922951 
L 354.845207 -190.851711 
L 358.124545 -195.550897 
L 361.403884 -190.817235 
L 364.683223 -203.869589 
L 367.962562 -193.757564 
L 371.241901 -194.609992 
L 374.52124 -196.053243 
L 377.800579 -195.784704 
L 381.079917 -197.767644 
L 384.359256 -199.851561 
L 387.638595 -190.036838 
L 390.917934 -203.552244 
L 394.197273 -192.992321 
L 394.197273 -250.207305 
L 394.197273 -250.207305 
L 390.917934 -257.148389 
L 387.638595 -250.009876 
L 384.359256 -256.12177 
L 381.079917 -254.235646 
L 377.800579 -254.713275 
L 374.52124 -253.558021 
L 371.241901 -254.463916 
L 367.962562 -253.645536 
L 364.683223 -257.564642 
L 361.403884 -251.324267 
L 358.124545 -254.193638 
L 354.845207 -252.384272 
L 351.565868 -252.729119 
L 348.286529 -258.985487 
L 345.00719 -250.892324 
L 341.727851 -257.911176 
L 338.448512 -253.401026 
L 335.169174 -253.472361 
L 331.889835 -251.837653 
L 328.610496 -255.392058 
L 325.331157 -252.785619 
L 322.051818 -255.662424 
L 318.772479 -251.386851 
L 315.49314 -254.226975 
L 312.213802 -250.542235 
L 308.934463 -255.09799 
L 305.655124 -248.597247 
L 302.375785 -253.578155 
L 299.096446 -251.140438 
L 295.817107 -251.715685 
L 292.537769 -295.129431 
L 289.25843 -294.958341 
L 285.979091 -294.826826 
L 282.699752 -294.703116 
L 279.420413 -294.43526 
L 276.141074 -294.85769 
L 272.861736 -294.309926 
L 269.582397 -294.238118 
L 266.303058 -294.054373 
L 263.023719 -294.334904 
L 259.74438 -294.35322 
L 256.465041 -294.168827 
L 253.185702 -293.922806 
L 249.906364 -294.273264 
L 246.627025 -294.40531 
L 243.347686 -294.01855 
L 240.068347 -293.835651 
L 236.789008 -293.54549 
L 233.509669 -293.335853 
L 230.230331 -294.033268 
L 226.950992 -293.575381 
L 223.671653 -293.231432 
L 220.392314 -293.449269 
L 217.112975 -292.343676 
L 213.833636 -293.552318 
L 210.554298 -293.510121 
L 207.274959 -293.173439 
L 203.99562 -293.34425 
L 200.716281 -292.576488 
L 197.436942 -292.384835 
L 194.157603 -293.179372 
L 190.878264 -292.781204 
L 187.598926 -291.942016 
L 184.319587 -291.670318 
L 181.040248 -290.985563 
L 177.760909 -290.962968 
L 174.48157 -290.37314 
L 171.202231 -289.893983 
L 167.922893 -290.71251 
L 164.643554 -291.120196 
L 161.364215 -290.092586 
L 158.084876 -289.997351 
L 154.805537 -289.769304 
L 151.526198 -288.047788 
L 148.24686 -289.153295 
L 144.967521 -286.843172 
L 141.688182 -286.57576 
L 138.408843 -286.788164 
L 135.129504 -285.846588 
L 131.850165 -282.085633 
L 128.570826 -282.545947 
L 125.291488 -283.168929 
L 122.012149 -281.222395 
L 118.73281 -280.937961 
L 115.453471 -281.106996 
L 112.174132 -279.116245 
L 108.894793 -276.587823 
L 105.615455 -276.446731 
L 102.336116 -273.017416 
L 99.056777 -268.151935 
L 95.777438 -262.090624 
L 92.498099 -254.684963 
L 89.21876 -255.136925 
L 85.939421 -246.980509 
L 82.660083 -241.61936 
L 79.380744 -229.997327 
L 76.101405 -216.333915 
L 72.822066 -181.408272 
L 69.542727 -135.668864 
z
" style="stroke: #55a868; stroke-opacity: 0.2"/>
    </defs>
    <g clip-path="url(#pa9594423e9)">
     <use xlink:href="#ma952b626bd" x="0" y="316.271687" style="fill: #55a868; fill-opacity: 0.2; stroke: #55a868; stroke-opacity: 0.2"/>
    </g>
   </g>
   <g id="PolyCollection_4">
    <defs>
     <path id="m6f48ffc7d2" d="M 69.542727 -133.47037 
L 69.542727 -82.421283 
L 72.822066 -96.784777 
L 76.101405 -139.24993 
L 79.380744 -141.29603 
L 82.660083 -164.159535 
L 85.939421 -164.547655 
L 89.21876 -180.966665 
L 92.498099 -195.697492 
L 95.777438 -199.96584 
L 99.056777 -212.397557 
L 102.336116 -222.577812 
L 105.615455 -229.531216 
L 108.894793 -231.457811 
L 112.174132 -239.534861 
L 115.453471 -244.430407 
L 118.73281 -246.979668 
L 122.012149 -248.893144 
L 125.291488 -249.371947 
L 128.570826 -248.404957 
L 131.850165 -252.143513 
L 135.129504 -252.184033 
L 138.408843 -257.984787 
L 141.688182 -260.91443 
L 144.967521 -262.251732 
L 148.24686 -266.482624 
L 151.526198 -265.758885 
L 154.805537 -268.402958 
L 158.084876 -266.69552 
L 161.364215 -269.642452 
L 164.643554 -269.765183 
L 167.922893 -269.009245 
L 171.202231 -269.603433 
L 174.48157 -270.105715 
L 177.760909 -271.029488 
L 181.040248 -271.667524 
L 184.319587 -272.864897 
L 187.598926 -272.69704 
L 190.878264 -274.206196 
L 194.157603 -273.995798 
L 197.436942 -274.592865 
L 200.716281 -274.723001 
L 203.99562 -274.267875 
L 207.274959 -275.411402 
L 210.554298 -274.310174 
L 213.833636 -278.16003 
L 217.112975 -279.122855 
L 220.392314 -280.286417 
L 223.671653 -279.098014 
L 226.950992 -282.726117 
L 230.230331 -283.329809 
L 233.509669 -284.394947 
L 236.789008 -284.013276 
L 240.068347 -284.24025 
L 243.347686 -283.960291 
L 246.627025 -283.445739 
L 249.906364 -284.148244 
L 253.185702 -285.107977 
L 256.465041 -284.968247 
L 259.74438 -284.048581 
L 263.023719 -281.590999 
L 266.303058 -280.718327 
L 269.582397 -283.575866 
L 272.861736 -284.146337 
L 276.141074 -284.652757 
L 279.420413 -286.638733 
L 282.699752 -285.691239 
L 285.979091 -285.95086 
L 289.25843 -286.107951 
L 292.537769 -286.392971 
L 295.817107 -200.313338 
L 299.096446 -194.73796 
L 302.375785 -193.375704 
L 305.655124 -207.285264 
L 308.934463 -197.857729 
L 312.213802 -205.499591 
L 315.49314 -201.543113 
L 318.772479 -201.432545 
L 322.051818 -193.153517 
L 325.331157 -190.356337 
L 328.610496 -199.294629 
L 331.889835 -192.181541 
L 335.169174 -196.478439 
L 338.448512 -195.783176 
L 341.727851 -201.750368 
L 345.00719 -205.053262 
L 348.286529 -199.098098 
L 351.565868 -193.711808 
L 354.845207 -209.807767 
L 358.124545 -198.289653 
L 361.403884 -196.174365 
L 364.683223 -198.957603 
L 367.962562 -207.871806 
L 371.241901 -199.604055 
L 374.52124 -198.041421 
L 377.800579 -195.322458 
L 381.079917 -201.834201 
L 384.359256 -191.42637 
L 387.638595 -199.842041 
L 390.917934 -195.370887 
L 394.197273 -204.857134 
L 394.197273 -259.159351 
L 394.197273 -259.159351 
L 390.917934 -254.574774 
L 387.638595 -255.149408 
L 384.359256 -253.037833 
L 381.079917 -256.776406 
L 377.800579 -255.301047 
L 374.52124 -253.217973 
L 371.241901 -256.893543 
L 367.962562 -263.134238 
L 364.683223 -253.747972 
L 361.403884 -253.191578 
L 358.124545 -256.180509 
L 354.845207 -260.739835 
L 351.565868 -254.815043 
L 348.286529 -256.057491 
L 345.00719 -258.991113 
L 341.727851 -257.854179 
L 338.448512 -254.662925 
L 335.169174 -253.871726 
L 331.889835 -250.2296 
L 328.610496 -254.772946 
L 325.331157 -251.023351 
L 322.051818 -252.850091 
L 318.772479 -255.218218 
L 315.49314 -255.921426 
L 312.213802 -258.727562 
L 308.934463 -254.310737 
L 305.655124 -260.476392 
L 302.375785 -251.718237 
L 299.096446 -253.948437 
L 295.817107 -257.30908 
L 292.537769 -295.518403 
L 289.25843 -295.556621 
L 285.979091 -295.710757 
L 282.699752 -295.73867 
L 279.420413 -295.299784 
L 276.141074 -295.391462 
L 272.861736 -295.308976 
L 269.582397 -295.2125 
L 266.303058 -295.090267 
L 263.023719 -295.175218 
L 259.74438 -295.026493 
L 256.465041 -295.130592 
L 253.185702 -295.061937 
L 249.906364 -295.204751 
L 246.627025 -294.823537 
L 243.347686 -294.821455 
L 240.068347 -294.496017 
L 236.789008 -294.457598 
L 233.509669 -294.313551 
L 230.230331 -294.348189 
L 226.950992 -293.916495 
L 223.671653 -294.041292 
L 220.392314 -293.911029 
L 217.112975 -293.988581 
L 213.833636 -293.616719 
L 210.554298 -293.747511 
L 207.274959 -293.560403 
L 203.99562 -293.372228 
L 200.716281 -293.249677 
L 197.436942 -293.508243 
L 194.157603 -292.993768 
L 190.878264 -293.130211 
L 187.598926 -292.922208 
L 184.319587 -292.226272 
L 181.040248 -292.4703 
L 177.760909 -292.194253 
L 174.48157 -291.728707 
L 171.202231 -291.972141 
L 167.922893 -291.801282 
L 164.643554 -291.360447 
L 161.364215 -291.196866 
L 158.084876 -290.888466 
L 154.805537 -289.943074 
L 151.526198 -289.193703 
L 148.24686 -288.596782 
L 144.967521 -286.781734 
L 141.688182 -286.112341 
L 138.408843 -285.208864 
L 135.129504 -282.875137 
L 131.850165 -281.677658 
L 128.570826 -280.381873 
L 125.291488 -278.672408 
L 122.012149 -278.571781 
L 118.73281 -276.990846 
L 115.453471 -275.912862 
L 112.174132 -271.096676 
L 108.894793 -268.737022 
L 105.615455 -269.347265 
L 102.336116 -263.327614 
L 99.056777 -254.688163 
L 95.777438 -247.244086 
L 92.498099 -243.002826 
L 89.21876 -233.607001 
L 85.939421 -217.590427 
L 82.660083 -212.039066 
L 79.380744 -193.20338 
L 76.101405 -187.905267 
L 72.822066 -145.806901 
L 69.542727 -133.47037 
z
" style="stroke: #c44e52; stroke-opacity: 0.2"/>
    </defs>
    <g clip-path="url(#pa9594423e9)">
     <use xlink:href="#m6f48ffc7d2" x="0" y="316.271687" style="fill: #c44e52; fill-opacity: 0.2; stroke: #c44e52; stroke-opacity: 0.2"/>
    </g>
   </g>
   <g id="PolyCollection_5">
    <defs>
     <path id="me6c717d499" d="M 69.542727 -132.504126 
L 69.542727 -87.627297 
L 72.822066 -98.336137 
L 76.101405 -112.39776 
L 79.380744 -125.677324 
L 82.660083 -139.420275 
L 85.939421 -140.967277 
L 89.21876 -141.789466 
L 92.498099 -148.129298 
L 95.777438 -152.265839 
L 99.056777 -154.701234 
L 102.336116 -160.08245 
L 105.615455 -157.429677 
L 108.894793 -158.920972 
L 112.174132 -164.735039 
L 115.453471 -170.898074 
L 118.73281 -172.585765 
L 122.012149 -177.785381 
L 125.291488 -179.596697 
L 128.570826 -188.216292 
L 131.850165 -191.158649 
L 135.129504 -188.335544 
L 138.408843 -194.001773 
L 141.688182 -192.641369 
L 144.967521 -193.86252 
L 148.24686 -199.564158 
L 151.526198 -200.133895 
L 154.805537 -198.3597 
L 158.084876 -199.989246 
L 161.364215 -201.359238 
L 164.643554 -197.953665 
L 167.922893 -200.224633 
L 171.202231 -199.766038 
L 174.48157 -201.903523 
L 177.760909 -201.288986 
L 181.040248 -201.795892 
L 184.319587 -202.76193 
L 187.598926 -204.610621 
L 190.878264 -206.176409 
L 194.157603 -206.574686 
L 197.436942 -207.918197 
L 200.716281 -205.777707 
L 203.99562 -209.830027 
L 207.274959 -210.577806 
L 210.554298 -210.588025 
L 213.833636 -216.114792 
L 217.112975 -224.165355 
L 220.392314 -222.311767 
L 223.671653 -222.956332 
L 226.950992 -227.202444 
L 230.230331 -227.073677 
L 233.509669 -228.774055 
L 236.789008 -230.806242 
L 240.068347 -234.261735 
L 243.347686 -234.560087 
L 246.627025 -237.335982 
L 249.906364 -236.20462 
L 253.185702 -236.491487 
L 256.465041 -236.754236 
L 259.74438 -238.659447 
L 263.023719 -238.297808 
L 266.303058 -236.404775 
L 269.582397 -235.941355 
L 272.861736 -237.939229 
L 276.141074 -239.579984 
L 279.420413 -238.010989 
L 282.699752 -240.330794 
L 285.979091 -241.695733 
L 289.25843 -242.540676 
L 292.537769 -241.772999 
L 295.817107 -172.879487 
L 299.096446 -176.585952 
L 302.375785 -177.697388 
L 305.655124 -175.73223 
L 308.934463 -174.973242 
L 312.213802 -174.650496 
L 315.49314 -168.445823 
L 318.772479 -175.232125 
L 322.051818 -181.413824 
L 325.331157 -178.183618 
L 328.610496 -175.935985 
L 331.889835 -182.221198 
L 335.169174 -185.106998 
L 338.448512 -184.918703 
L 341.727851 -184.184097 
L 345.00719 -177.16402 
L 348.286529 -182.899593 
L 351.565868 -188.43259 
L 354.845207 -178.254904 
L 358.124545 -188.859765 
L 361.403884 -194.884747 
L 364.683223 -191.205901 
L 367.962562 -186.231923 
L 371.241901 -188.160979 
L 374.52124 -184.769738 
L 377.800579 -178.649837 
L 381.079917 -180.499221 
L 384.359256 -177.94678 
L 387.638595 -183.871795 
L 390.917934 -191.379895 
L 394.197273 -183.022635 
L 394.197273 -242.305206 
L 394.197273 -242.305206 
L 390.917934 -248.967971 
L 387.638595 -239.939003 
L 384.359256 -238.400742 
L 381.079917 -240.998661 
L 377.800579 -238.622952 
L 374.52124 -243.423892 
L 371.241901 -244.542544 
L 367.962562 -240.67553 
L 364.683223 -247.418609 
L 361.403884 -248.146362 
L 358.124545 -244.621361 
L 354.845207 -236.903252 
L 351.565868 -244.384974 
L 348.286529 -240.677249 
L 345.00719 -236.477154 
L 341.727851 -241.717527 
L 338.448512 -240.591269 
L 335.169174 -240.053877 
L 331.889835 -239.947043 
L 328.610496 -236.851876 
L 325.331157 -235.9331 
L 322.051818 -239.771158 
L 318.772479 -233.203823 
L 315.49314 -230.278309 
L 312.213802 -234.787107 
L 308.934463 -233.179179 
L 305.655124 -231.400848 
L 302.375785 -233.278609 
L 299.096446 -234.927273 
L 295.817107 -230.927901 
L 292.537769 -280.135367 
L 289.25843 -278.874205 
L 285.979091 -279.931495 
L 282.699752 -280.344976 
L 279.420413 -278.424108 
L 276.141074 -278.61146 
L 272.861736 -277.337482 
L 269.582397 -276.483756 
L 266.303058 -276.418969 
L 263.023719 -277.296208 
L 259.74438 -276.392557 
L 256.465041 -275.347348 
L 253.185702 -277.612721 
L 249.906364 -275.231746 
L 246.627025 -275.08886 
L 243.347686 -274.399032 
L 240.068347 -273.845348 
L 236.789008 -268.897963 
L 233.509669 -268.222471 
L 230.230331 -265.940603 
L 226.950992 -267.057618 
L 223.671653 -265.35756 
L 220.392314 -263.379673 
L 217.112975 -261.382661 
L 213.833636 -260.037332 
L 210.554298 -256.959989 
L 207.274959 -255.236572 
L 203.99562 -255.84701 
L 200.716281 -252.363639 
L 197.436942 -255.404668 
L 194.157603 -252.405097 
L 190.878264 -251.718407 
L 187.598926 -250.000211 
L 184.319587 -249.928418 
L 181.040248 -249.382219 
L 177.760909 -247.275792 
L 174.48157 -247.649542 
L 171.202231 -248.106112 
L 167.922893 -246.536515 
L 164.643554 -247.162631 
L 161.364215 -248.053362 
L 158.084876 -249.149969 
L 154.805537 -247.065874 
L 151.526198 -249.12511 
L 148.24686 -249.326476 
L 144.967521 -243.997408 
L 141.688182 -241.912499 
L 138.408843 -241.53767 
L 135.129504 -237.251296 
L 131.850165 -235.887773 
L 128.570826 -233.343352 
L 125.291488 -227.594641 
L 122.012149 -223.199754 
L 118.73281 -219.7077 
L 115.453471 -217.124352 
L 112.174132 -210.467972 
L 108.894793 -205.616578 
L 105.615455 -207.594104 
L 102.336116 -206.549626 
L 99.056777 -198.845411 
L 95.777438 -197.499009 
L 92.498099 -191.513167 
L 89.21876 -190.706209 
L 85.939421 -185.131923 
L 82.660083 -186.383051 
L 79.380744 -176.408678 
L 76.101405 -162.681067 
L 72.822066 -145.045439 
L 69.542727 -132.504126 
z
" style="stroke: #8172b3; stroke-opacity: 0.2"/>
    </defs>
    <g clip-path="url(#pa9594423e9)">
     <use xlink:href="#me6c717d499" x="0" y="316.271687" style="fill: #8172b3; fill-opacity: 0.2; stroke: #8172b3; stroke-opacity: 0.2"/>
    </g>
   </g>
   <g id="line2d_13">
    <path d="M 69.542727 209.198722 
L 72.822066 138.248638 
L 76.101405 101.182124 
L 79.380744 73.522741 
L 82.660083 65.492247 
L 85.939421 61.981372 
L 89.21876 58.930183 
L 92.498099 48.884755 
L 95.777438 40.538936 
L 99.056777 29.973198 
L 102.336116 30.169372 
L 105.615455 30.26637 
L 108.894793 33.390956 
L 112.174132 29.958748 
L 115.453471 29.116096 
L 118.73281 28.773455 
L 122.012149 26.76482 
L 125.291488 25.294993 
L 128.570826 26.053888 
L 131.850165 27.027375 
L 135.129504 26.460043 
L 138.408843 25.716793 
L 141.688182 24.733351 
L 144.967521 24.586436 
L 148.24686 24.940385 
L 151.526198 24.792977 
L 154.805537 25.004036 
L 158.084876 24.614989 
L 161.364215 26.073406 
L 164.643554 28.824256 
L 167.922893 24.119424 
L 171.202231 25.172816 
L 174.48157 24.835663 
L 177.760909 24.917587 
L 181.040248 23.711828 
L 184.319587 23.460495 
L 187.598926 26.511735 
L 190.878264 25.534475 
L 194.157603 27.04921 
L 197.436942 24.675122 
L 200.716281 23.382603 
L 203.99562 25.069063 
L 207.274959 23.119207 
L 210.554298 23.579783 
L 213.833636 26.948014 
L 217.112975 23.495585 
L 220.392314 24.694076 
L 223.671653 24.131485 
L 226.950992 23.989732 
L 230.230331 23.587276 
L 233.509669 23.131689 
L 236.789008 22.461219 
L 240.068347 24.094809 
L 243.347686 22.778355 
L 246.627025 23.046427 
L 249.906364 22.737805 
L 253.185702 23.322737 
L 256.465041 22.610929 
L 259.74438 22.172645 
L 263.023719 21.140878 
L 266.303058 21.651321 
L 269.582397 21.078906 
L 272.861736 21.447993 
L 276.141074 20.950741 
L 279.420413 21.006371 
L 282.699752 20.961478 
L 285.979091 21.533335 
L 289.25843 21.018389 
L 292.537769 20.898434 
L 295.817107 25.359656 
L 299.096446 30.791831 
L 302.375785 28.374437 
L 305.655124 27.135168 
L 308.934463 26.023745 
L 312.213802 27.308309 
L 315.49314 25.207333 
L 318.772479 25.131595 
L 322.051818 25.482089 
L 325.331157 28.984133 
L 328.610496 25.500333 
L 331.889835 27.411779 
L 335.169174 27.518775 
L 338.448512 24.888934 
L 341.727851 25.593074 
L 345.00719 25.827429 
L 348.286529 25.349176 
L 351.565868 24.448715 
L 354.845207 24.336139 
L 358.124545 24.35752 
L 361.403884 30.459434 
L 364.683223 25.223499 
L 367.962562 23.318186 
L 371.241901 24.10077 
L 374.52124 25.368205 
L 377.800579 29.266835 
L 381.079917 25.51285 
L 384.359256 24.898243 
L 387.638595 21.852818 
L 390.917934 24.121477 
L 394.197273 22.500173 
" clip-path="url(#pa9594423e9)" style="fill: none; stroke: #4c72b0; stroke-width: 1.5; stroke-linecap: round"/>
   </g>
   <g id="line2d_14">
    <path d="M 69.542727 247.742087 
L 72.822066 192.540756 
L 76.101405 162.53806 
L 79.380744 138.956805 
L 82.660083 157.99169 
L 85.939421 124.85806 
L 89.21876 144.129417 
L 92.498099 118.787956 
L 95.777438 100.817235 
L 99.056777 77.450275 
L 102.336116 97.771982 
L 105.615455 98.662358 
L 108.894793 69.910141 
L 112.174132 56.65294 
L 115.453471 74.112328 
L 118.73281 95.852461 
L 122.012149 53.821896 
L 125.291488 53.665004 
L 128.570826 72.953301 
L 131.850165 66.000004 
L 135.129504 73.101853 
L 138.408843 45.992796 
L 141.688182 61.516836 
L 144.967521 48.87142 
L 148.24686 49.391759 
L 151.526198 63.355816 
L 154.805537 70.754653 
L 158.084876 72.024628 
L 161.364215 62.349758 
L 164.643554 75.757718 
L 167.922893 43.872438 
L 171.202231 52.187575 
L 174.48157 59.11481 
L 177.760909 50.51411 
L 181.040248 43.550126 
L 184.319587 45.779833 
L 187.598926 45.878242 
L 190.878264 41.583344 
L 194.157603 61.116365 
L 197.436942 46.092654 
L 200.716281 44.511907 
L 203.99562 47.62792 
L 207.274959 39.688104 
L 210.554298 44.912777 
L 213.833636 40.938626 
L 217.112975 61.915752 
L 220.392314 61.271294 
L 223.671653 62.987127 
L 226.950992 51.778553 
L 230.230331 39.298847 
L 233.509669 51.463293 
L 236.789008 33.852762 
L 240.068347 40.31179 
L 243.347686 40.134794 
L 246.627025 49.900067 
L 249.906364 43.91096 
L 253.185702 46.594467 
L 256.465041 54.523684 
L 259.74438 33.6671 
L 263.023719 50.637771 
L 266.303058 56.566317 
L 269.582397 37.008833 
L 272.861736 39.759401 
L 276.141074 40.207618 
L 279.420413 35.315234 
L 282.699752 46.819651 
L 285.979091 48.554835 
L 289.25843 43.957555 
L 292.537769 46.793913 
L 295.817107 34.97444 
L 299.096446 53.667155 
L 302.375785 40.82785 
L 305.655124 44.317382 
L 308.934463 39.387871 
L 312.213802 38.965364 
L 315.49314 34.778878 
L 318.772479 35.826934 
L 322.051818 39.143664 
L 325.331157 40.055761 
L 328.610496 37.082029 
L 331.889835 37.480434 
L 335.169174 39.560789 
L 338.448512 37.646805 
L 341.727851 34.165782 
L 345.00719 36.452209 
L 348.286529 31.997703 
L 351.565868 33.547283 
L 354.845207 35.761722 
L 358.124545 37.016239 
L 361.403884 52.513608 
L 364.683223 33.433328 
L 367.962562 29.683828 
L 371.241901 34.263808 
L 374.52124 34.458259 
L 377.800579 50.819069 
L 381.079917 40.885815 
L 384.359256 40.979782 
L 387.638595 27.835041 
L 390.917934 38.562525 
L 394.197273 32.799889 
" clip-path="url(#pa9594423e9)" style="fill: none; stroke: #dd8452; stroke-width: 1.5; stroke-linecap: round"/>
   </g>
   <g id="line2d_15">
    <path d="M 69.542727 209.815256 
L 72.822066 165.918707 
L 76.101405 129.870414 
L 79.380744 114.406652 
L 82.660083 101.416118 
L 85.939421 99.725712 
L 89.21876 86.92824 
L 92.498099 87.230005 
L 95.777438 77.579084 
L 99.056777 69.959986 
L 102.336116 63.22923 
L 105.615455 57.622511 
L 108.894793 58.844639 
L 112.174132 54.743887 
L 115.453471 50.284662 
L 118.73281 49.456243 
L 122.012149 48.596789 
L 125.291488 48.376101 
L 128.570826 48.517094 
L 131.850165 48.889975 
L 135.129504 42.825772 
L 138.408843 43.003745 
L 141.688182 43.053439 
L 144.967521 42.769686 
L 148.24686 39.659608 
L 151.526198 39.864999 
L 154.805537 37.682662 
L 158.084876 37.518972 
L 161.364215 37.537773 
L 164.643554 36.731386 
L 167.922893 37.166905 
L 171.202231 37.530476 
L 174.48157 37.281712 
L 177.760909 36.637277 
L 181.040248 35.586216 
L 184.319587 35.592247 
L 187.598926 35.288613 
L 190.878264 34.208782 
L 194.157603 33.161522 
L 197.436942 33.406296 
L 200.716281 32.918623 
L 203.99562 32.587384 
L 207.274959 32.774784 
L 210.554298 31.537178 
L 213.833636 32.605773 
L 217.112975 33.666441 
L 220.392314 31.006934 
L 223.671653 31.697523 
L 226.950992 30.852736 
L 230.230331 30.589681 
L 233.509669 30.998341 
L 236.789008 30.49012 
L 240.068347 28.849711 
L 243.347686 28.971512 
L 246.627025 28.201909 
L 249.906364 28.289322 
L 253.185702 28.538397 
L 256.465041 27.977515 
L 259.74438 27.939296 
L 263.023719 27.563722 
L 266.303058 28.167267 
L 269.582397 29.590565 
L 272.861736 27.142139 
L 276.141074 27.039589 
L 279.420413 27.103718 
L 282.699752 26.812921 
L 285.979091 26.539354 
L 289.25843 26.054851 
L 292.537769 25.972999 
L 295.817107 92.905696 
L 299.096446 92.676221 
L 302.375785 91.30072 
L 305.655124 95.285736 
L 308.934463 85.933074 
L 312.213802 97.030157 
L 315.49314 88.581858 
L 318.772479 91.593837 
L 322.051818 87.914171 
L 325.331157 91.452141 
L 328.610496 88.226211 
L 331.889835 93.191196 
L 335.169174 92.956977 
L 338.448512 89.504547 
L 341.727851 84.804861 
L 345.00719 94.349592 
L 348.286529 82.948081 
L 351.565868 92.854451 
L 354.845207 93.68901 
L 358.124545 89.832205 
L 361.403884 94.824764 
L 364.683223 84.770096 
L 367.962562 93.021029 
L 371.241901 90.844928 
L 374.52124 90.43206 
L 377.800579 89.770697 
L 381.079917 89.836538 
L 384.359256 87.922295 
L 387.638595 94.702828 
L 390.917934 84.681653 
L 394.197273 93.478889 
" clip-path="url(#pa9594423e9)" style="fill: none; stroke: #55a868; stroke-width: 1.5; stroke-linecap: round"/>
   </g>
   <g id="line2d_16">
    <path d="M 69.542727 209.562344 
L 72.822066 195.580528 
L 76.101405 153.397785 
L 79.380744 147.728471 
L 82.660083 128.721385 
L 85.939421 124.861941 
L 89.21876 106.510259 
L 92.498099 96.130393 
L 95.777438 92.24658 
L 99.056777 81.500457 
L 102.336116 72.278097 
L 105.615455 65.89505 
L 108.894793 65.100731 
L 112.174132 59.995267 
L 115.453471 53.981683 
L 118.73281 53.497977 
L 122.012149 51.120182 
L 125.291488 50.861963 
L 128.570826 49.519786 
L 131.850165 47.720038 
L 135.129504 46.651356 
L 138.408843 42.260481 
L 141.688182 40.840275 
L 144.967521 39.653723 
L 148.24686 36.517532 
L 151.526198 36.290335 
L 154.805537 35.098419 
L 158.084876 34.356262 
L 161.364215 33.460051 
L 164.643554 33.358565 
L 167.922893 32.967324 
L 171.202231 32.685511 
L 174.48157 32.601545 
L 177.760909 32.410656 
L 181.040248 31.93248 
L 184.319587 31.081815 
L 187.598926 30.924235 
L 190.878264 30.37771 
L 194.157603 30.156428 
L 197.436942 30.076031 
L 200.716281 30.001151 
L 203.99562 30.038536 
L 207.274959 29.602083 
L 210.554298 29.755659 
L 213.833636 28.434116 
L 217.112975 27.937132 
L 220.392314 27.572685 
L 223.671653 27.916006 
L 226.950992 26.774333 
L 230.230331 26.358694 
L 233.509669 26.116215 
L 236.789008 25.965303 
L 240.068347 25.967642 
L 243.347686 25.853739 
L 246.627025 25.794207 
L 249.906364 25.562037 
L 253.185702 25.22159 
L 256.465041 25.336484 
L 259.74438 25.513111 
L 263.023719 26.312063 
L 266.303058 26.426219 
L 269.582397 25.430651 
L 272.861736 25.24362 
L 276.141074 25.009314 
L 279.420413 24.527606 
L 282.699752 24.255103 
L 285.979091 24.255704 
L 289.25843 24.46331 
L 292.537769 24.241753 
L 295.817107 86.617185 
L 299.096446 91.276167 
L 302.375785 92.046974 
L 305.655124 81.835411 
L 308.934463 90.679632 
L 312.213802 82.810182 
L 315.49314 85.968178 
L 318.772479 86.044261 
L 322.051818 92.416274 
L 325.331157 92.590449 
L 328.610496 88.550549 
L 331.889835 92.966175 
L 335.169174 89.134993 
L 338.448512 90.335447 
L 341.727851 86.984058 
L 345.00719 83.406316 
L 348.286529 87.295561 
L 351.565868 92.258544 
L 354.845207 79.517528 
L 358.124545 88.688698 
L 361.403884 90.574662 
L 364.683223 88.537713 
L 367.962562 80.921784 
L 371.241901 87.70331 
L 374.52124 90.164176 
L 377.800579 90.333435 
L 381.079917 86.315743 
L 384.359256 91.324422 
L 387.638595 86.964745 
L 390.917934 90.65186 
L 394.197273 83.699833 
" clip-path="url(#pa9594423e9)" style="fill: none; stroke: #c44e52; stroke-width: 1.5; stroke-linecap: round"/>
   </g>
   <g id="line2d_17">
    <path d="M 69.542727 206.424112 
L 72.822066 194.563407 
L 76.101405 180.086012 
L 79.380744 165.53396 
L 82.660083 154.300504 
L 85.939421 153.043995 
L 89.21876 149.40531 
L 92.498099 146.088199 
L 95.777438 141.956759 
L 99.056777 139.439295 
L 102.336116 133.354248 
L 105.615455 134.326295 
L 108.894793 133.690743 
L 112.174132 128.567513 
L 115.453471 120.945838 
L 118.73281 119.311242 
L 122.012149 115.285755 
L 125.291488 112.014167 
L 128.570826 105.910898 
L 131.850165 102.696193 
L 135.129504 101.642757 
L 138.408843 98.268967 
L 141.688182 96.783798 
L 144.967521 95.170936 
L 148.24686 91.689129 
L 151.526198 90.041828 
L 154.805537 91.933477 
L 158.084876 91.718675 
L 161.364215 91.101294 
L 164.643554 92.964208 
L 167.922893 92.356833 
L 171.202231 90.913177 
L 174.48157 90.835604 
L 177.760909 90.677134 
L 181.040248 90.18597 
L 184.319587 89.878384 
L 187.598926 88.668658 
L 190.878264 86.063898 
L 194.157603 86.176056 
L 197.436942 84.368916 
L 200.716281 84.434081 
L 203.99562 83.058 
L 207.274959 82.386192 
L 210.554298 81.885255 
L 213.833636 78.377529 
L 217.112975 73.377635 
L 220.392314 71.689929 
L 223.671653 70.171914 
L 226.950992 68.914334 
L 230.230331 68.714409 
L 233.509669 67.110061 
L 236.789008 65.267193 
L 240.068347 61.747081 
L 243.347686 60.334006 
L 246.627025 59.167327 
L 249.906364 59.078423 
L 253.185702 58.761338 
L 256.465041 58.609934 
L 259.74438 58.243938 
L 263.023719 58.22248 
L 266.303058 58.100824 
L 269.582397 57.389703 
L 272.861736 57.39113 
L 276.141074 56.68423 
L 279.420413 55.873166 
L 282.699752 54.80389 
L 285.979091 54.574572 
L 289.25843 54.141181 
L 292.537769 53.31049 
L 295.817107 113.01672 
L 299.096446 111.610473 
L 302.375785 108.811687 
L 305.655124 113.110758 
L 308.934463 112.019013 
L 312.213802 111.424536 
L 315.49314 114.603128 
L 318.772479 111.022229 
L 322.051818 105.056572 
L 325.331157 109.107834 
L 328.610496 109.762395 
L 331.889835 104.642173 
L 335.169174 102.373347 
L 338.448512 103.985635 
L 341.727851 102.966071 
L 345.00719 108.857829 
L 348.286529 103.783045 
L 351.565868 99.649432 
L 354.845207 109.187438 
L 358.124545 98.068031 
L 361.403884 95.051026 
L 364.683223 97.290809 
L 367.962562 102.775846 
L 371.241901 98.983113 
L 374.52124 100.25289 
L 377.800579 106.851007 
L 381.079917 104.53388 
L 384.359256 106.719584 
L 387.638595 103.136673 
L 390.917934 95.153269 
L 394.197273 103.238323 
" clip-path="url(#pa9594423e9)" style="fill: none; stroke: #8172b3; stroke-width: 1.5; stroke-linecap: round"/>
   </g>
   <g id="line2d_18"/>
   <g id="line2d_19"/>
   <g id="line2d_20"/>
   <g id="line2d_21"/>
   <g id="line2d_22"/>
   <g id="patch_3">
    <path d="M 53.31 273.312 
L 53.31 7.2 
" style="fill: none; stroke: #cccccc; stroke-width: 1.25; stroke-linejoin: miter; stroke-linecap: square"/>
   </g>
   <g id="patch_4">
    <path d="M 410.43 273.312 
L 410.43 7.2 
" style="fill: none; stroke: #cccccc; stroke-width: 1.25; stroke-linejoin: miter; stroke-linecap: square"/>
   </g>
   <g id="patch_5">
    <path d="M 53.31 273.312 
L 410.43 273.312 
" style="fill: none; stroke: #cccccc; stroke-width: 1.25; stroke-linejoin: miter; stroke-linecap: square"/>
   </g>
   <g id="patch_6">
    <path d="M 53.31 7.2 
L 410.43 7.2 
" style="fill: none; stroke: #cccccc; stroke-width: 1.25; stroke-linejoin: miter; stroke-linecap: square"/>
   </g>
   <g id="legend_1">
    <g id="patch_7">
     <path d="M 298.745625 267.812 
L 402.73 267.812 
Q 404.93 267.812 404.93 265.612 
L 404.93 168.868562 
Q 404.93 166.668562 402.73 166.668562 
L 298.745625 166.668562 
Q 296.545625 166.668562 296.545625 168.868562 
L 296.545625 265.612 
Q 296.545625 267.812 298.745625 267.812 
z
" style="fill: #ffffff; opacity: 0.8; stroke: #cccccc; stroke-linejoin: miter"/>
    </g>
    <g id="text_15">
     <!-- Strategy -->
     <g style="fill: #262626" transform="translate(325.02875 180.186687) scale(0.12 -0.12)">
      <defs>
       <path id="DejaVuSans-53" d="M 3425 4513 
L 3425 3897 
Q 3066 4069 2747 4153 
Q 2428 4238 2131 4238 
Q 1616 4238 1336 4038 
Q 1056 3838 1056 3469 
Q 1056 3159 1242 3001 
Q 1428 2844 1947 2747 
L 2328 2669 
Q 3034 2534 3370 2195 
Q 3706 1856 3706 1288 
Q 3706 609 3251 259 
Q 2797 -91 1919 -91 
Q 1588 -91 1214 -16 
Q 841 59 441 206 
L 441 856 
Q 825 641 1194 531 
Q 1563 422 1919 422 
Q 2459 422 2753 634 
Q 3047 847 3047 1241 
Q 3047 1584 2836 1778 
Q 2625 1972 2144 2069 
L 1759 2144 
Q 1053 2284 737 2584 
Q 422 2884 422 3419 
Q 422 4038 858 4394 
Q 1294 4750 2059 4750 
Q 2388 4750 2728 4690 
Q 3069 4631 3425 4513 
z
" transform="scale(0.015625)"/>
       <path id="DejaVuSans-74" d="M 1172 4494 
L 1172 3500 
L 2356 3500 
L 2356 3053 
L 1172 3053 
L 1172 1153 
Q 1172 725 1289 603 
Q 1406 481 1766 481 
L 2356 481 
L 2356 0 
L 1766 0 
Q 1100 0 847 248 
Q 594 497 594 1153 
L 594 3053 
L 172 3053 
L 172 3500 
L 594 3500 
L 594 4494 
L 1172 4494 
z
" transform="scale(0.015625)"/>
       <path id="DejaVuSans-65" d="M 3597 1894 
L 3597 1613 
L 953 1613 
Q 991 1019 1311 708 
Q 1631 397 2203 397 
Q 2534 397 2845 478 
Q 3156 559 3463 722 
L 3463 178 
Q 3153 47 2828 -22 
Q 2503 -91 2169 -91 
Q 1331 -91 842 396 
Q 353 884 353 1716 
Q 353 2575 817 3079 
Q 1281 3584 2069 3584 
Q 2775 3584 3186 3129 
Q 3597 2675 3597 1894 
z
M 3022 2063 
Q 3016 2534 2758 2815 
Q 2500 3097 2075 3097 
Q 1594 3097 1305 2825 
Q 1016 2553 972 2059 
L 3022 2063 
z
" transform="scale(0.015625)"/>
       <path id="DejaVuSans-67" d="M 2906 1791 
Q 2906 2416 2648 2759 
Q 2391 3103 1925 3103 
Q 1463 3103 1205 2759 
Q 947 2416 947 1791 
Q 947 1169 1205 825 
Q 1463 481 1925 481 
Q 2391 481 2648 825 
Q 2906 1169 2906 1791 
z
M 3481 434 
Q 3481 -459 3084 -895 
Q 2688 -1331 1869 -1331 
Q 1566 -1331 1297 -1286 
Q 1028 -1241 775 -1147 
L 775 -588 
Q 1028 -725 1275 -790 
Q 1522 -856 1778 -856 
Q 2344 -856 2625 -561 
Q 2906 -266 2906 331 
L 2906 616 
Q 2728 306 2450 153 
Q 2172 0 1784 0 
Q 1141 0 747 490 
Q 353 981 353 1791 
Q 353 2603 747 3093 
Q 1141 3584 1784 3584 
Q 2172 3584 2450 3431 
Q 2728 3278 2906 2969 
L 2906 3500 
L 3481 3500 
L 3481 434 
z
" transform="scale(0.015625)"/>
      </defs>
      <use xlink:href="#DejaVuSans-53"/>
      <use xlink:href="#DejaVuSans-74" x="63.476562"/>
      <use xlink:href="#DejaVuSans-72" x="102.685547"/>
      <use xlink:href="#DejaVuSans-61" x="143.798828"/>
      <use xlink:href="#DejaVuSans-74" x="205.078125"/>
      <use xlink:href="#DejaVuSans-65" x="244.287109"/>
      <use xlink:href="#DejaVuSans-67" x="305.810547"/>
      <use xlink:href="#DejaVuSans-79" x="369.287109"/>
     </g>
    </g>
    <g id="line2d_23">
     <path d="M 300.945625 192.690594 
L 311.945625 192.690594 
L 322.945625 192.690594 
" style="fill: none; stroke: #4c72b0; stroke-width: 1.5; stroke-linecap: round"/>
    </g>
    <g id="text_16">
     <!-- FedPredict -->
     <g style="fill: #262626" transform="translate(331.745625 196.540594) scale(0.11 -0.11)">
      <defs>
       <path id="DejaVuSans-46" d="M 628 4666 
L 3309 4666 
L 3309 4134 
L 1259 4134 
L 1259 2759 
L 3109 2759 
L 3109 2228 
L 1259 2228 
L 1259 0 
L 628 0 
L 628 4666 
z
" transform="scale(0.015625)"/>
       <path id="DejaVuSans-50" d="M 1259 4147 
L 1259 2394 
L 2053 2394 
Q 2494 2394 2734 2622 
Q 2975 2850 2975 3272 
Q 2975 3691 2734 3919 
Q 2494 4147 2053 4147 
L 1259 4147 
z
M 628 4666 
L 2053 4666 
Q 2838 4666 3239 4311 
Q 3641 3956 3641 3272 
Q 3641 2581 3239 2228 
Q 2838 1875 2053 1875 
L 1259 1875 
L 1259 0 
L 628 0 
L 628 4666 
z
" transform="scale(0.015625)"/>
       <path id="DejaVuSans-69" d="M 603 3500 
L 1178 3500 
L 1178 0 
L 603 0 
L 603 3500 
z
M 603 4863 
L 1178 4863 
L 1178 4134 
L 603 4134 
L 603 4863 
z
" transform="scale(0.015625)"/>
      </defs>
      <use xlink:href="#DejaVuSans-46"/>
      <use xlink:href="#DejaVuSans-65" x="52.019531"/>
      <use xlink:href="#DejaVuSans-64" x="113.542969"/>
      <use xlink:href="#DejaVuSans-50" x="177.019531"/>
      <use xlink:href="#DejaVuSans-72" x="235.572266"/>
      <use xlink:href="#DejaVuSans-65" x="274.435547"/>
      <use xlink:href="#DejaVuSans-64" x="335.958984"/>
      <use xlink:href="#DejaVuSans-69" x="399.435547"/>
      <use xlink:href="#DejaVuSans-63" x="427.21875"/>
      <use xlink:href="#DejaVuSans-74" x="482.199219"/>
     </g>
    </g>
    <g id="line2d_24">
     <path d="M 300.945625 208.836531 
L 311.945625 208.836531 
L 322.945625 208.836531 
" style="fill: none; stroke: #dd8452; stroke-width: 1.5; stroke-linecap: round"/>
    </g>
    <g id="text_17">
     <!-- FedAVG -->
     <g style="fill: #262626" transform="translate(331.745625 212.686531) scale(0.11 -0.11)">
      <defs>
       <path id="DejaVuSans-56" d="M 1831 0 
L 50 4666 
L 709 4666 
L 2188 738 
L 3669 4666 
L 4325 4666 
L 2547 0 
L 1831 0 
z
" transform="scale(0.015625)"/>
       <path id="DejaVuSans-47" d="M 3809 666 
L 3809 1919 
L 2778 1919 
L 2778 2438 
L 4434 2438 
L 4434 434 
Q 4069 175 3628 42 
Q 3188 -91 2688 -91 
Q 1594 -91 976 548 
Q 359 1188 359 2328 
Q 359 3472 976 4111 
Q 1594 4750 2688 4750 
Q 3144 4750 3555 4637 
Q 3966 4525 4313 4306 
L 4313 3634 
Q 3963 3931 3569 4081 
Q 3175 4231 2741 4231 
Q 1884 4231 1454 3753 
Q 1025 3275 1025 2328 
Q 1025 1384 1454 906 
Q 1884 428 2741 428 
Q 3075 428 3337 486 
Q 3600 544 3809 666 
z
" transform="scale(0.015625)"/>
      </defs>
      <use xlink:href="#DejaVuSans-46"/>
      <use xlink:href="#DejaVuSans-65" x="52.019531"/>
      <use xlink:href="#DejaVuSans-64" x="113.542969"/>
      <use xlink:href="#DejaVuSans-41" x="177.019531"/>
      <use xlink:href="#DejaVuSans-56" x="239.052734"/>
      <use xlink:href="#DejaVuSans-47" x="307.460938"/>
     </g>
    </g>
    <g id="line2d_25">
     <path d="M 300.945625 224.982469 
L 311.945625 224.982469 
L 322.945625 224.982469 
" style="fill: none; stroke: #55a868; stroke-width: 1.5; stroke-linecap: round"/>
    </g>
    <g id="text_18">
     <!-- FedClassAvg -->
     <g style="fill: #262626" transform="translate(331.745625 228.832469) scale(0.11 -0.11)">
      <defs>
       <path id="DejaVuSans-43" d="M 4122 4306 
L 4122 3641 
Q 3803 3938 3442 4084 
Q 3081 4231 2675 4231 
Q 1875 4231 1450 3742 
Q 1025 3253 1025 2328 
Q 1025 1406 1450 917 
Q 1875 428 2675 428 
Q 3081 428 3442 575 
Q 3803 722 4122 1019 
L 4122 359 
Q 3791 134 3420 21 
Q 3050 -91 2638 -91 
Q 1578 -91 968 557 
Q 359 1206 359 2328 
Q 359 3453 968 4101 
Q 1578 4750 2638 4750 
Q 3056 4750 3426 4639 
Q 3797 4528 4122 4306 
z
" transform="scale(0.015625)"/>
       <path id="DejaVuSans-6c" d="M 603 4863 
L 1178 4863 
L 1178 0 
L 603 0 
L 603 4863 
z
" transform="scale(0.015625)"/>
       <path id="DejaVuSans-73" d="M 2834 3397 
L 2834 2853 
Q 2591 2978 2328 3040 
Q 2066 3103 1784 3103 
Q 1356 3103 1142 2972 
Q 928 2841 928 2578 
Q 928 2378 1081 2264 
Q 1234 2150 1697 2047 
L 1894 2003 
Q 2506 1872 2764 1633 
Q 3022 1394 3022 966 
Q 3022 478 2636 193 
Q 2250 -91 1575 -91 
Q 1294 -91 989 -36 
Q 684 19 347 128 
L 347 722 
Q 666 556 975 473 
Q 1284 391 1588 391 
Q 1994 391 2212 530 
Q 2431 669 2431 922 
Q 2431 1156 2273 1281 
Q 2116 1406 1581 1522 
L 1381 1569 
Q 847 1681 609 1914 
Q 372 2147 372 2553 
Q 372 3047 722 3315 
Q 1072 3584 1716 3584 
Q 2034 3584 2315 3537 
Q 2597 3491 2834 3397 
z
" transform="scale(0.015625)"/>
       <path id="DejaVuSans-76" d="M 191 3500 
L 800 3500 
L 1894 563 
L 2988 3500 
L 3597 3500 
L 2284 0 
L 1503 0 
L 191 3500 
z
" transform="scale(0.015625)"/>
      </defs>
      <use xlink:href="#DejaVuSans-46"/>
      <use xlink:href="#DejaVuSans-65" x="52.019531"/>
      <use xlink:href="#DejaVuSans-64" x="113.542969"/>
      <use xlink:href="#DejaVuSans-43" x="177.019531"/>
      <use xlink:href="#DejaVuSans-6c" x="246.84375"/>
      <use xlink:href="#DejaVuSans-61" x="274.626953"/>
      <use xlink:href="#DejaVuSans-73" x="335.90625"/>
      <use xlink:href="#DejaVuSans-73" x="388.005859"/>
      <use xlink:href="#DejaVuSans-41" x="440.105469"/>
      <use xlink:href="#DejaVuSans-76" x="502.638672"/>
      <use xlink:href="#DejaVuSans-67" x="561.818359"/>
     </g>
    </g>
    <g id="line2d_26">
     <path d="M 300.945625 241.128406 
L 311.945625 241.128406 
L 322.945625 241.128406 
" style="fill: none; stroke: #c44e52; stroke-width: 1.5; stroke-linecap: round"/>
    </g>
    <g id="text_19">
     <!-- FedPer -->
     <g style="fill: #262626" transform="translate(331.745625 244.978406) scale(0.11 -0.11)">
      <use xlink:href="#DejaVuSans-46"/>
      <use xlink:href="#DejaVuSans-65" x="52.019531"/>
      <use xlink:href="#DejaVuSans-64" x="113.542969"/>
      <use xlink:href="#DejaVuSans-50" x="177.019531"/>
      <use xlink:href="#DejaVuSans-65" x="233.697266"/>
      <use xlink:href="#DejaVuSans-72" x="295.220703"/>
     </g>
    </g>
    <g id="line2d_27">
     <path d="M 300.945625 257.274344 
L 311.945625 257.274344 
L 322.945625 257.274344 
" style="fill: none; stroke: #8172b3; stroke-width: 1.5; stroke-linecap: round"/>
    </g>
    <g id="text_20">
     <!-- FedProto -->
     <g style="fill: #262626" transform="translate(331.745625 261.124344) scale(0.11 -0.11)">
      <use xlink:href="#DejaVuSans-46"/>
      <use xlink:href="#DejaVuSans-65" x="52.019531"/>
      <use xlink:href="#DejaVuSans-64" x="113.542969"/>
      <use xlink:href="#DejaVuSans-50" x="177.019531"/>
      <use xlink:href="#DejaVuSans-72" x="235.572266"/>
      <use xlink:href="#DejaVuSans-6f" x="274.435547"/>
      <use xlink:href="#DejaVuSans-74" x="335.617188"/>
      <use xlink:href="#DejaVuSans-6f" x="374.826172"/>
     </g>
    </g>
   </g>
  </g>
 </g>
 <defs>
  <clipPath id="pa9594423e9">
   <rect x="53.31" y="7.2" width="357.12" height="266.112"/>
  </clipPath>
 </defs>
</svg>
