<?xml version="1.0" encoding="utf-8" standalone="no"?>
<!DOCTYPE svg PUBLIC "-//W3C//DTD SVG 1.1//EN"
  "http://www.w3.org/Graphics/SVG/1.1/DTD/svg11.dtd">
<svg xmlns:xlink="http://www.w3.org/1999/xlink" width="410.63125pt" height="316.271687pt" viewBox="0 0 410.63125 316.271687" xmlns="http://www.w3.org/2000/svg" version="1.1">
 <metadata>
  <rdf:RDF xmlns:dc="http://purl.org/dc/elements/1.1/" xmlns:cc="http://creativecommons.org/ns#" xmlns:rdf="http://www.w3.org/1999/02/22-rdf-syntax-ns#">
   <cc:Work>
    <dc:type rdf:resource="http://purl.org/dc/dcmitype/StillImage"/>
    <dc:date>2023-02-05T18:47:55.121320</dc:date>
    <dc:format>image/svg+xml</dc:format>
    <dc:creator>
     <cc:Agent>
      <dc:title>Matplotlib v3.6.3, https://matplotlib.org/</dc:title>
     </cc:Agent>
    </dc:creator>
   </cc:Work>
  </rdf:RDF>
 </metadata>
 <defs>
  <style type="text/css">*{stroke-linejoin: round; stroke-linecap: butt}</style>
 </defs>
 <g id="figure_1">
  <g id="patch_1">
   <path d="M 0 316.271687 
L 410.63125 316.271687 
L 410.63125 0 
L 0 0 
z
" style="fill: #ffffff"/>
  </g>
  <g id="axes_1">
   <g id="patch_2">
    <path d="M 46.31125 273.312 
L 403.43125 273.312 
L 403.43125 7.2 
L 46.31125 7.2 
z
" style="fill: #ffffff"/>
   </g>
   <g id="matplotlib.axis_1">
    <g id="xtick_1">
     <g id="line2d_1">
      <path d="M 55.918374 273.312 
L 55.918374 7.2 
" clip-path="url(#p1d0b6d1789)" style="fill: none; stroke: #cccccc; stroke-linecap: round"/>
     </g>
     <g id="text_1">
      <!-- 0 -->
      <g style="fill: #262626" transform="translate(52.418999 291.170281) scale(0.11 -0.11)">
       <defs>
        <path id="DejaVuSans-30" d="M 2034 4250 
Q 1547 4250 1301 3770 
Q 1056 3291 1056 2328 
Q 1056 1369 1301 889 
Q 1547 409 2034 409 
Q 2525 409 2770 889 
Q 3016 1369 3016 2328 
Q 3016 3291 2770 3770 
Q 2525 4250 2034 4250 
z
M 2034 4750 
Q 2819 4750 3233 4129 
Q 3647 3509 3647 2328 
Q 3647 1150 3233 529 
Q 2819 -91 2034 -91 
Q 1250 -91 836 529 
Q 422 1150 422 2328 
Q 422 3509 836 4129 
Q 1250 4750 2034 4750 
z
" transform="scale(0.015625)"/>
       </defs>
       <use xlink:href="#DejaVuSans-30"/>
      </g>
     </g>
    </g>
    <g id="xtick_2">
     <g id="line2d_2">
      <path d="M 122.174404 273.312 
L 122.174404 7.2 
" clip-path="url(#p1d0b6d1789)" style="fill: none; stroke: #cccccc; stroke-linecap: round"/>
     </g>
     <g id="text_2">
      <!-- 10 -->
      <g style="fill: #262626" transform="translate(115.175654 291.170281) scale(0.11 -0.11)">
       <defs>
        <path id="DejaVuSans-31" d="M 794 531 
L 1825 531 
L 1825 4091 
L 703 3866 
L 703 4441 
L 1819 4666 
L 2450 4666 
L 2450 531 
L 3481 531 
L 3481 0 
L 794 0 
L 794 531 
z
" transform="scale(0.015625)"/>
       </defs>
       <use xlink:href="#DejaVuSans-31"/>
       <use xlink:href="#DejaVuSans-30" x="63.623047"/>
      </g>
     </g>
    </g>
    <g id="xtick_3">
     <g id="line2d_3">
      <path d="M 188.430434 273.312 
L 188.430434 7.2 
" clip-path="url(#p1d0b6d1789)" style="fill: none; stroke: #cccccc; stroke-linecap: round"/>
     </g>
     <g id="text_3">
      <!-- 20 -->
      <g style="fill: #262626" transform="translate(181.431684 291.170281) scale(0.11 -0.11)">
       <defs>
        <path id="DejaVuSans-32" d="M 1228 531 
L 3431 531 
L 3431 0 
L 469 0 
L 469 531 
Q 828 903 1448 1529 
Q 2069 2156 2228 2338 
Q 2531 2678 2651 2914 
Q 2772 3150 2772 3378 
Q 2772 3750 2511 3984 
Q 2250 4219 1831 4219 
Q 1534 4219 1204 4116 
Q 875 4013 500 3803 
L 500 4441 
Q 881 4594 1212 4672 
Q 1544 4750 1819 4750 
Q 2544 4750 2975 4387 
Q 3406 4025 3406 3419 
Q 3406 3131 3298 2873 
Q 3191 2616 2906 2266 
Q 2828 2175 2409 1742 
Q 1991 1309 1228 531 
z
" transform="scale(0.015625)"/>
       </defs>
       <use xlink:href="#DejaVuSans-32"/>
       <use xlink:href="#DejaVuSans-30" x="63.623047"/>
      </g>
     </g>
    </g>
    <g id="xtick_4">
     <g id="line2d_4">
      <path d="M 254.686463 273.312 
L 254.686463 7.2 
" clip-path="url(#p1d0b6d1789)" style="fill: none; stroke: #cccccc; stroke-linecap: round"/>
     </g>
     <g id="text_4">
      <!-- 30 -->
      <g style="fill: #262626" transform="translate(247.687713 291.170281) scale(0.11 -0.11)">
       <defs>
        <path id="DejaVuSans-33" d="M 2597 2516 
Q 3050 2419 3304 2112 
Q 3559 1806 3559 1356 
Q 3559 666 3084 287 
Q 2609 -91 1734 -91 
Q 1441 -91 1130 -33 
Q 819 25 488 141 
L 488 750 
Q 750 597 1062 519 
Q 1375 441 1716 441 
Q 2309 441 2620 675 
Q 2931 909 2931 1356 
Q 2931 1769 2642 2001 
Q 2353 2234 1838 2234 
L 1294 2234 
L 1294 2753 
L 1863 2753 
Q 2328 2753 2575 2939 
Q 2822 3125 2822 3475 
Q 2822 3834 2567 4026 
Q 2313 4219 1838 4219 
Q 1578 4219 1281 4162 
Q 984 4106 628 3988 
L 628 4550 
Q 988 4650 1302 4700 
Q 1616 4750 1894 4750 
Q 2613 4750 3031 4423 
Q 3450 4097 3450 3541 
Q 3450 3153 3228 2886 
Q 3006 2619 2597 2516 
z
" transform="scale(0.015625)"/>
       </defs>
       <use xlink:href="#DejaVuSans-33"/>
       <use xlink:href="#DejaVuSans-30" x="63.623047"/>
      </g>
     </g>
    </g>
    <g id="xtick_5">
     <g id="line2d_5">
      <path d="M 320.942493 273.312 
L 320.942493 7.2 
" clip-path="url(#p1d0b6d1789)" style="fill: none; stroke: #cccccc; stroke-linecap: round"/>
     </g>
     <g id="text_5">
      <!-- 40 -->
      <g style="fill: #262626" transform="translate(313.943743 291.170281) scale(0.11 -0.11)">
       <defs>
        <path id="DejaVuSans-34" d="M 2419 4116 
L 825 1625 
L 2419 1625 
L 2419 4116 
z
M 2253 4666 
L 3047 4666 
L 3047 1625 
L 3713 1625 
L 3713 1100 
L 3047 1100 
L 3047 0 
L 2419 0 
L 2419 1100 
L 313 1100 
L 313 1709 
L 2253 4666 
z
" transform="scale(0.015625)"/>
       </defs>
       <use xlink:href="#DejaVuSans-34"/>
       <use xlink:href="#DejaVuSans-30" x="63.623047"/>
      </g>
     </g>
    </g>
    <g id="xtick_6">
     <g id="line2d_6">
      <path d="M 387.198523 273.312 
L 387.198523 7.2 
" clip-path="url(#p1d0b6d1789)" style="fill: none; stroke: #cccccc; stroke-linecap: round"/>
     </g>
     <g id="text_6">
      <!-- 50 -->
      <g style="fill: #262626" transform="translate(380.199773 291.170281) scale(0.11 -0.11)">
       <defs>
        <path id="DejaVuSans-35" d="M 691 4666 
L 3169 4666 
L 3169 4134 
L 1269 4134 
L 1269 2991 
Q 1406 3038 1543 3061 
Q 1681 3084 1819 3084 
Q 2600 3084 3056 2656 
Q 3513 2228 3513 1497 
Q 3513 744 3044 326 
Q 2575 -91 1722 -91 
Q 1428 -91 1123 -41 
Q 819 9 494 109 
L 494 744 
Q 775 591 1075 516 
Q 1375 441 1709 441 
Q 2250 441 2565 725 
Q 2881 1009 2881 1497 
Q 2881 1984 2565 2268 
Q 2250 2553 1709 2553 
Q 1456 2553 1204 2497 
Q 953 2441 691 2322 
L 691 4666 
z
" transform="scale(0.015625)"/>
       </defs>
       <use xlink:href="#DejaVuSans-35"/>
       <use xlink:href="#DejaVuSans-30" x="63.623047"/>
      </g>
     </g>
    </g>
    <g id="text_7">
     <!-- Round -->
     <g style="fill: #262626" transform="translate(205.886875 306.576062) scale(0.12 -0.12)">
      <defs>
       <path id="DejaVuSans-52" d="M 2841 2188 
Q 3044 2119 3236 1894 
Q 3428 1669 3622 1275 
L 4263 0 
L 3584 0 
L 2988 1197 
Q 2756 1666 2539 1819 
Q 2322 1972 1947 1972 
L 1259 1972 
L 1259 0 
L 628 0 
L 628 4666 
L 2053 4666 
Q 2853 4666 3247 4331 
Q 3641 3997 3641 3322 
Q 3641 2881 3436 2590 
Q 3231 2300 2841 2188 
z
M 1259 4147 
L 1259 2491 
L 2053 2491 
Q 2509 2491 2742 2702 
Q 2975 2913 2975 3322 
Q 2975 3731 2742 3939 
Q 2509 4147 2053 4147 
L 1259 4147 
z
" transform="scale(0.015625)"/>
       <path id="DejaVuSans-6f" d="M 1959 3097 
Q 1497 3097 1228 2736 
Q 959 2375 959 1747 
Q 959 1119 1226 758 
Q 1494 397 1959 397 
Q 2419 397 2687 759 
Q 2956 1122 2956 1747 
Q 2956 2369 2687 2733 
Q 2419 3097 1959 3097 
z
M 1959 3584 
Q 2709 3584 3137 3096 
Q 3566 2609 3566 1747 
Q 3566 888 3137 398 
Q 2709 -91 1959 -91 
Q 1206 -91 779 398 
Q 353 888 353 1747 
Q 353 2609 779 3096 
Q 1206 3584 1959 3584 
z
" transform="scale(0.015625)"/>
       <path id="DejaVuSans-75" d="M 544 1381 
L 544 3500 
L 1119 3500 
L 1119 1403 
Q 1119 906 1312 657 
Q 1506 409 1894 409 
Q 2359 409 2629 706 
Q 2900 1003 2900 1516 
L 2900 3500 
L 3475 3500 
L 3475 0 
L 2900 0 
L 2900 538 
Q 2691 219 2414 64 
Q 2138 -91 1772 -91 
Q 1169 -91 856 284 
Q 544 659 544 1381 
z
M 1991 3584 
L 1991 3584 
z
" transform="scale(0.015625)"/>
       <path id="DejaVuSans-6e" d="M 3513 2113 
L 3513 0 
L 2938 0 
L 2938 2094 
Q 2938 2591 2744 2837 
Q 2550 3084 2163 3084 
Q 1697 3084 1428 2787 
Q 1159 2491 1159 1978 
L 1159 0 
L 581 0 
L 581 3500 
L 1159 3500 
L 1159 2956 
Q 1366 3272 1645 3428 
Q 1925 3584 2291 3584 
Q 2894 3584 3203 3211 
Q 3513 2838 3513 2113 
z
" transform="scale(0.015625)"/>
       <path id="DejaVuSans-64" d="M 2906 2969 
L 2906 4863 
L 3481 4863 
L 3481 0 
L 2906 0 
L 2906 525 
Q 2725 213 2448 61 
Q 2172 -91 1784 -91 
Q 1150 -91 751 415 
Q 353 922 353 1747 
Q 353 2572 751 3078 
Q 1150 3584 1784 3584 
Q 2172 3584 2448 3432 
Q 2725 3281 2906 2969 
z
M 947 1747 
Q 947 1113 1208 752 
Q 1469 391 1925 391 
Q 2381 391 2643 752 
Q 2906 1113 2906 1747 
Q 2906 2381 2643 2742 
Q 2381 3103 1925 3103 
Q 1469 3103 1208 2742 
Q 947 2381 947 1747 
z
" transform="scale(0.015625)"/>
      </defs>
      <use xlink:href="#DejaVuSans-52"/>
      <use xlink:href="#DejaVuSans-6f" x="64.982422"/>
      <use xlink:href="#DejaVuSans-75" x="126.164062"/>
      <use xlink:href="#DejaVuSans-6e" x="189.542969"/>
      <use xlink:href="#DejaVuSans-64" x="252.921875"/>
     </g>
    </g>
   </g>
   <g id="matplotlib.axis_2">
    <g id="ytick_1">
     <g id="line2d_7">
      <path d="M 46.31125 271.674366 
L 403.43125 271.674366 
" clip-path="url(#p1d0b6d1789)" style="fill: none; stroke: #cccccc; stroke-linecap: round"/>
     </g>
     <g id="text_8">
      <!-- 0 -->
      <g style="fill: #262626" transform="translate(29.8125 275.853507) scale(0.11 -0.11)">
       <use xlink:href="#DejaVuSans-30"/>
      </g>
     </g>
    </g>
    <g id="ytick_2">
     <g id="line2d_8">
      <path d="M 46.31125 236.777462 
L 403.43125 236.777462 
" clip-path="url(#p1d0b6d1789)" style="fill: none; stroke: #cccccc; stroke-linecap: round"/>
     </g>
     <g id="text_9">
      <!-- 10 -->
      <g style="fill: #262626" transform="translate(22.81375 240.956603) scale(0.11 -0.11)">
       <use xlink:href="#DejaVuSans-31"/>
       <use xlink:href="#DejaVuSans-30" x="63.623047"/>
      </g>
     </g>
    </g>
    <g id="ytick_3">
     <g id="line2d_9">
      <path d="M 46.31125 201.880558 
L 403.43125 201.880558 
" clip-path="url(#p1d0b6d1789)" style="fill: none; stroke: #cccccc; stroke-linecap: round"/>
     </g>
     <g id="text_10">
      <!-- 20 -->
      <g style="fill: #262626" transform="translate(22.81375 206.059699) scale(0.11 -0.11)">
       <use xlink:href="#DejaVuSans-32"/>
       <use xlink:href="#DejaVuSans-30" x="63.623047"/>
      </g>
     </g>
    </g>
    <g id="ytick_4">
     <g id="line2d_10">
      <path d="M 46.31125 166.983654 
L 403.43125 166.983654 
" clip-path="url(#p1d0b6d1789)" style="fill: none; stroke: #cccccc; stroke-linecap: round"/>
     </g>
     <g id="text_11">
      <!-- 30 -->
      <g style="fill: #262626" transform="translate(22.81375 171.162795) scale(0.11 -0.11)">
       <use xlink:href="#DejaVuSans-33"/>
       <use xlink:href="#DejaVuSans-30" x="63.623047"/>
      </g>
     </g>
    </g>
    <g id="ytick_5">
     <g id="line2d_11">
      <path d="M 46.31125 132.08675 
L 403.43125 132.08675 
" clip-path="url(#p1d0b6d1789)" style="fill: none; stroke: #cccccc; stroke-linecap: round"/>
     </g>
     <g id="text_12">
      <!-- 40 -->
      <g style="fill: #262626" transform="translate(22.81375 136.26589) scale(0.11 -0.11)">
       <use xlink:href="#DejaVuSans-34"/>
       <use xlink:href="#DejaVuSans-30" x="63.623047"/>
      </g>
     </g>
    </g>
    <g id="ytick_6">
     <g id="line2d_12">
      <path d="M 46.31125 97.189846 
L 403.43125 97.189846 
" clip-path="url(#p1d0b6d1789)" style="fill: none; stroke: #cccccc; stroke-linecap: round"/>
     </g>
     <g id="text_13">
      <!-- 50 -->
      <g style="fill: #262626" transform="translate(22.81375 101.368986) scale(0.11 -0.11)">
       <use xlink:href="#DejaVuSans-35"/>
       <use xlink:href="#DejaVuSans-30" x="63.623047"/>
      </g>
     </g>
    </g>
    <g id="ytick_7">
     <g id="line2d_13">
      <path d="M 46.31125 62.292941 
L 403.43125 62.292941 
" clip-path="url(#p1d0b6d1789)" style="fill: none; stroke: #cccccc; stroke-linecap: round"/>
     </g>
     <g id="text_14">
      <!-- 60 -->
      <g style="fill: #262626" transform="translate(22.81375 66.472082) scale(0.11 -0.11)">
       <defs>
        <path id="DejaVuSans-36" d="M 2113 2584 
Q 1688 2584 1439 2293 
Q 1191 2003 1191 1497 
Q 1191 994 1439 701 
Q 1688 409 2113 409 
Q 2538 409 2786 701 
Q 3034 994 3034 1497 
Q 3034 2003 2786 2293 
Q 2538 2584 2113 2584 
z
M 3366 4563 
L 3366 3988 
Q 3128 4100 2886 4159 
Q 2644 4219 2406 4219 
Q 1781 4219 1451 3797 
Q 1122 3375 1075 2522 
Q 1259 2794 1537 2939 
Q 1816 3084 2150 3084 
Q 2853 3084 3261 2657 
Q 3669 2231 3669 1497 
Q 3669 778 3244 343 
Q 2819 -91 2113 -91 
Q 1303 -91 875 529 
Q 447 1150 447 2328 
Q 447 3434 972 4092 
Q 1497 4750 2381 4750 
Q 2619 4750 2861 4703 
Q 3103 4656 3366 4563 
z
" transform="scale(0.015625)"/>
       </defs>
       <use xlink:href="#DejaVuSans-36"/>
       <use xlink:href="#DejaVuSans-30" x="63.623047"/>
      </g>
     </g>
    </g>
    <g id="ytick_8">
     <g id="line2d_14">
      <path d="M 46.31125 27.396037 
L 403.43125 27.396037 
" clip-path="url(#p1d0b6d1789)" style="fill: none; stroke: #cccccc; stroke-linecap: round"/>
     </g>
     <g id="text_15">
      <!-- 70 -->
      <g style="fill: #262626" transform="translate(22.81375 31.575178) scale(0.11 -0.11)">
       <defs>
        <path id="DejaVuSans-37" d="M 525 4666 
L 3525 4666 
L 3525 4397 
L 1831 0 
L 1172 0 
L 2766 4134 
L 525 4134 
L 525 4666 
z
" transform="scale(0.015625)"/>
       </defs>
       <use xlink:href="#DejaVuSans-37"/>
       <use xlink:href="#DejaVuSans-30" x="63.623047"/>
      </g>
     </g>
    </g>
    <g id="text_16">
     <!-- Accuracy (%) -->
     <g style="fill: #262626" transform="translate(16.318125 179.939437) rotate(-90) scale(0.12 -0.12)">
      <defs>
       <path id="DejaVuSans-41" d="M 2188 4044 
L 1331 1722 
L 3047 1722 
L 2188 4044 
z
M 1831 4666 
L 2547 4666 
L 4325 0 
L 3669 0 
L 3244 1197 
L 1141 1197 
L 716 0 
L 50 0 
L 1831 4666 
z
" transform="scale(0.015625)"/>
       <path id="DejaVuSans-63" d="M 3122 3366 
L 3122 2828 
Q 2878 2963 2633 3030 
Q 2388 3097 2138 3097 
Q 1578 3097 1268 2742 
Q 959 2388 959 1747 
Q 959 1106 1268 751 
Q 1578 397 2138 397 
Q 2388 397 2633 464 
Q 2878 531 3122 666 
L 3122 134 
Q 2881 22 2623 -34 
Q 2366 -91 2075 -91 
Q 1284 -91 818 406 
Q 353 903 353 1747 
Q 353 2603 823 3093 
Q 1294 3584 2113 3584 
Q 2378 3584 2631 3529 
Q 2884 3475 3122 3366 
z
" transform="scale(0.015625)"/>
       <path id="DejaVuSans-72" d="M 2631 2963 
Q 2534 3019 2420 3045 
Q 2306 3072 2169 3072 
Q 1681 3072 1420 2755 
Q 1159 2438 1159 1844 
L 1159 0 
L 581 0 
L 581 3500 
L 1159 3500 
L 1159 2956 
Q 1341 3275 1631 3429 
Q 1922 3584 2338 3584 
Q 2397 3584 2469 3576 
Q 2541 3569 2628 3553 
L 2631 2963 
z
" transform="scale(0.015625)"/>
       <path id="DejaVuSans-61" d="M 2194 1759 
Q 1497 1759 1228 1600 
Q 959 1441 959 1056 
Q 959 750 1161 570 
Q 1363 391 1709 391 
Q 2188 391 2477 730 
Q 2766 1069 2766 1631 
L 2766 1759 
L 2194 1759 
z
M 3341 1997 
L 3341 0 
L 2766 0 
L 2766 531 
Q 2569 213 2275 61 
Q 1981 -91 1556 -91 
Q 1019 -91 701 211 
Q 384 513 384 1019 
Q 384 1609 779 1909 
Q 1175 2209 1959 2209 
L 2766 2209 
L 2766 2266 
Q 2766 2663 2505 2880 
Q 2244 3097 1772 3097 
Q 1472 3097 1187 3025 
Q 903 2953 641 2809 
L 641 3341 
Q 956 3463 1253 3523 
Q 1550 3584 1831 3584 
Q 2591 3584 2966 3190 
Q 3341 2797 3341 1997 
z
" transform="scale(0.015625)"/>
       <path id="DejaVuSans-79" d="M 2059 -325 
Q 1816 -950 1584 -1140 
Q 1353 -1331 966 -1331 
L 506 -1331 
L 506 -850 
L 844 -850 
Q 1081 -850 1212 -737 
Q 1344 -625 1503 -206 
L 1606 56 
L 191 3500 
L 800 3500 
L 1894 763 
L 2988 3500 
L 3597 3500 
L 2059 -325 
z
" transform="scale(0.015625)"/>
       <path id="DejaVuSans-20" transform="scale(0.015625)"/>
       <path id="DejaVuSans-28" d="M 1984 4856 
Q 1566 4138 1362 3434 
Q 1159 2731 1159 2009 
Q 1159 1288 1364 580 
Q 1569 -128 1984 -844 
L 1484 -844 
Q 1016 -109 783 600 
Q 550 1309 550 2009 
Q 550 2706 781 3412 
Q 1013 4119 1484 4856 
L 1984 4856 
z
" transform="scale(0.015625)"/>
       <path id="DejaVuSans-25" d="M 4653 2053 
Q 4381 2053 4226 1822 
Q 4072 1591 4072 1178 
Q 4072 772 4226 539 
Q 4381 306 4653 306 
Q 4919 306 5073 539 
Q 5228 772 5228 1178 
Q 5228 1588 5073 1820 
Q 4919 2053 4653 2053 
z
M 4653 2450 
Q 5147 2450 5437 2106 
Q 5728 1763 5728 1178 
Q 5728 594 5436 251 
Q 5144 -91 4653 -91 
Q 4153 -91 3862 251 
Q 3572 594 3572 1178 
Q 3572 1766 3864 2108 
Q 4156 2450 4653 2450 
z
M 1428 4353 
Q 1159 4353 1004 4120 
Q 850 3888 850 3481 
Q 850 3069 1003 2837 
Q 1156 2606 1428 2606 
Q 1700 2606 1854 2837 
Q 2009 3069 2009 3481 
Q 2009 3884 1853 4118 
Q 1697 4353 1428 4353 
z
M 4250 4750 
L 4750 4750 
L 1831 -91 
L 1331 -91 
L 4250 4750 
z
M 1428 4750 
Q 1922 4750 2215 4408 
Q 2509 4066 2509 3481 
Q 2509 2891 2217 2550 
Q 1925 2209 1428 2209 
Q 931 2209 642 2551 
Q 353 2894 353 3481 
Q 353 4063 643 4406 
Q 934 4750 1428 4750 
z
" transform="scale(0.015625)"/>
       <path id="DejaVuSans-29" d="M 513 4856 
L 1013 4856 
Q 1481 4119 1714 3412 
Q 1947 2706 1947 2009 
Q 1947 1309 1714 600 
Q 1481 -109 1013 -844 
L 513 -844 
Q 928 -128 1133 580 
Q 1338 1288 1338 2009 
Q 1338 2731 1133 3434 
Q 928 4138 513 4856 
z
" transform="scale(0.015625)"/>
      </defs>
      <use xlink:href="#DejaVuSans-41"/>
      <use xlink:href="#DejaVuSans-63" x="66.658203"/>
      <use xlink:href="#DejaVuSans-63" x="121.638672"/>
      <use xlink:href="#DejaVuSans-75" x="176.619141"/>
      <use xlink:href="#DejaVuSans-72" x="239.998047"/>
      <use xlink:href="#DejaVuSans-61" x="281.111328"/>
      <use xlink:href="#DejaVuSans-63" x="342.390625"/>
      <use xlink:href="#DejaVuSans-79" x="397.371094"/>
      <use xlink:href="#DejaVuSans-20" x="456.550781"/>
      <use xlink:href="#DejaVuSans-28" x="488.337891"/>
      <use xlink:href="#DejaVuSans-25" x="527.351562"/>
      <use xlink:href="#DejaVuSans-29" x="622.371094"/>
     </g>
    </g>
   </g>
   <g id="PolyCollection_1">
    <defs>
     <path id="md7a27f35f7" d="M 62.543977 -114.422814 
L 62.543977 -76.65994 
L 69.16958 -93.192649 
L 75.795183 -91.163118 
L 82.420786 -130.267807 
L 89.046389 -125.776952 
L 95.671992 -147.56564 
L 102.297595 -135.222594 
L 108.923198 -152.209647 
L 115.548801 -162.30055 
L 122.174404 -171.282889 
L 128.800007 -170.285129 
L 135.42561 -166.964504 
L 142.051213 -175.595615 
L 148.676816 -184.478976 
L 155.302419 -182.23139 
L 161.928022 -198.784484 
L 168.553625 -196.896316 
L 175.179228 -192.263339 
L 181.804831 -202.950141 
L 188.430434 -210.553426 
L 195.056037 -211.672291 
L 201.68164 -209.896627 
L 208.307243 -222.706288 
L 214.932846 -220.21146 
L 221.558449 -229.882784 
L 228.184051 -226.700686 
L 234.809654 -236.323757 
L 241.435257 -229.488906 
L 248.06086 -242.024205 
L 254.686463 -244.941625 
L 261.312066 -234.631952 
L 267.937669 -231.902881 
L 274.563272 -241.413394 
L 281.188875 -245.247905 
L 287.814478 -252.316242 
L 294.440081 -251.424332 
L 301.065684 -250.097069 
L 307.691287 -248.728134 
L 314.31689 -254.57213 
L 320.942493 -258.313149 
L 327.568096 -256.887892 
L 334.193699 -257.475088 
L 340.819302 -258.597834 
L 347.444905 -261.089981 
L 354.070508 -257.455481 
L 360.696111 -255.841169 
L 367.321714 -258.360521 
L 373.947317 -261.935686 
L 380.57292 -266.930571 
L 387.198523 -266.627729 
L 387.198523 -296.975687 
L 387.198523 -296.975687 
L 380.57292 -295.691962 
L 373.947317 -292.417907 
L 367.321714 -288.887771 
L 360.696111 -290.580039 
L 354.070508 -291.64366 
L 347.444905 -292.780737 
L 340.819302 -291.068804 
L 334.193699 -288.616309 
L 327.568096 -288.08957 
L 320.942493 -290.653209 
L 314.31689 -285.943984 
L 307.691287 -282.751363 
L 301.065684 -285.072564 
L 294.440081 -281.684957 
L 287.814478 -283.685684 
L 281.188875 -276.535544 
L 274.563272 -272.025617 
L 267.937669 -269.16694 
L 261.312066 -270.005018 
L 254.686463 -276.887645 
L 248.06086 -273.848233 
L 241.435257 -264.45163 
L 234.809654 -271.595995 
L 228.184051 -265.32007 
L 221.558449 -267.179523 
L 214.932846 -257.059466 
L 208.307243 -264.619615 
L 201.68164 -247.449246 
L 195.056037 -250.746556 
L 188.430434 -252.049388 
L 181.804831 -247.155251 
L 175.179228 -231.973728 
L 168.553625 -238.824189 
L 161.928022 -238.667397 
L 155.302419 -225.186336 
L 148.676816 -226.46361 
L 142.051213 -219.307653 
L 135.42561 -205.622774 
L 128.800007 -216.583731 
L 122.174404 -217.449265 
L 115.548801 -210.133254 
L 108.923198 -199.159333 
L 102.297595 -190.223976 
L 95.671992 -194.3726 
L 89.046389 -169.450835 
L 82.420786 -183.836571 
L 75.795183 -137.276166 
L 69.16958 -141.972812 
L 62.543977 -114.422814 
z
" style="stroke: #dbe9f6; stroke-opacity: 0.2"/>
    </defs>
    <g clip-path="url(#p1d0b6d1789)">
     <use xlink:href="#md7a27f35f7" x="0" y="316.271687" style="fill: #dbe9f6; fill-opacity: 0.2; stroke: #dbe9f6; stroke-opacity: 0.2"/>
    </g>
   </g>
   <g id="PolyCollection_2">
    <defs>
     <path id="m94b61b3043" d="M 62.543977 -93.557805 
L 62.543977 -64.791413 
L 69.16958 -71.172195 
L 75.795183 -68.147934 
L 82.420786 -74.741771 
L 89.046389 -58.199284 
L 95.671992 -85.133705 
L 102.297595 -67.809445 
L 108.923198 -71.667299 
L 115.548801 -80.610307 
L 122.174404 -70.019578 
L 128.800007 -91.022957 
L 135.42561 -55.055687 
L 142.051213 -92.828642 
L 148.676816 -77.101478 
L 155.302419 -84.463008 
L 161.928022 -121.154886 
L 168.553625 -117.74962 
L 175.179228 -99.393878 
L 181.804831 -91.164752 
L 188.430434 -94.516124 
L 195.056037 -104.272327 
L 201.68164 -99.929274 
L 208.307243 -94.507146 
L 214.932846 -128.694376 
L 221.558449 -125.920396 
L 228.184051 -126.696768 
L 234.809654 -125.105758 
L 241.435257 -129.668082 
L 248.06086 -103.389757 
L 254.686463 -119.907605 
L 261.312066 -132.547553 
L 267.937669 -113.903514 
L 274.563272 -129.626251 
L 281.188875 -124.80318 
L 287.814478 -135.824991 
L 294.440081 -123.720694 
L 301.065684 -135.559727 
L 307.691287 -112.553608 
L 314.31689 -126.65416 
L 320.942493 -138.727959 
L 327.568096 -117.512512 
L 334.193699 -133.110038 
L 340.819302 -141.143114 
L 347.444905 -131.119949 
L 354.070508 -136.141399 
L 360.696111 -164.169996 
L 367.321714 -133.706536 
L 373.947317 -180.823389 
L 380.57292 -163.954433 
L 387.198523 -147.739076 
L 387.198523 -172.390341 
L 387.198523 -172.390341 
L 380.57292 -197.069322 
L 373.947317 -209.027349 
L 367.321714 -174.560405 
L 360.696111 -189.787929 
L 354.070508 -172.323061 
L 347.444905 -171.520068 
L 340.819302 -180.470932 
L 334.193699 -167.498502 
L 327.568096 -158.884751 
L 320.942493 -178.099886 
L 314.31689 -164.740282 
L 307.691287 -141.46736 
L 301.065684 -170.335759 
L 294.440081 -160.518495 
L 287.814478 -171.819763 
L 281.188875 -157.104114 
L 274.563272 -164.336606 
L 267.937669 -154.25785 
L 261.312066 -162.756002 
L 254.686463 -158.623967 
L 248.06086 -143.797973 
L 241.435257 -163.046281 
L 234.809654 -163.539729 
L 228.184051 -154.643011 
L 221.558449 -159.464646 
L 214.932846 -155.406204 
L 208.307243 -139.73738 
L 201.68164 -139.385348 
L 195.056037 -144.014302 
L 188.430434 -135.028566 
L 181.804831 -128.468999 
L 175.179228 -122.243704 
L 168.553625 -147.952759 
L 161.928022 -155.084594 
L 155.302419 -109.784985 
L 148.676816 -115.141957 
L 142.051213 -124.074177 
L 135.42561 -81.164372 
L 128.800007 -129.07834 
L 122.174404 -116.856359 
L 115.548801 -109.114087 
L 108.923198 -108.817429 
L 102.297595 -102.204378 
L 95.671992 -117.981196 
L 89.046389 -84.31055 
L 82.420786 -114.221654 
L 75.795183 -107.681182 
L 69.16958 -109.041283 
L 62.543977 -93.557805 
z
" style="stroke: #bad6eb; stroke-opacity: 0.2"/>
    </defs>
    <g clip-path="url(#p1d0b6d1789)">
     <use xlink:href="#m94b61b3043" x="0" y="316.271687" style="fill: #bad6eb; fill-opacity: 0.2; stroke: #bad6eb; stroke-opacity: 0.2"/>
    </g>
   </g>
   <g id="PolyCollection_3">
    <defs>
     <path id="mf70899cc60" d="M 62.543977 -113.132144 
L 62.543977 -73.622223 
L 69.16958 -95.898542 
L 75.795183 -101.832044 
L 82.420786 -122.038622 
L 89.046389 -118.640187 
L 95.671992 -123.807824 
L 102.297595 -121.524663 
L 108.923198 -146.515052 
L 115.548801 -158.823855 
L 122.174404 -170.31918 
L 128.800007 -166.011995 
L 135.42561 -171.818627 
L 142.051213 -176.69177 
L 148.676816 -181.717021 
L 155.302419 -172.96197 
L 161.928022 -180.808683 
L 168.553625 -181.566184 
L 175.179228 -179.714662 
L 181.804831 -181.556087 
L 188.430434 -188.4675 
L 195.056037 -186.830827 
L 201.68164 -182.762678 
L 208.307243 -190.9083 
L 214.932846 -188.078202 
L 221.558449 -188.708086 
L 228.184051 -192.284689 
L 234.809654 -189.085973 
L 241.435257 -189.94912 
L 248.06086 -187.148509 
L 254.686463 -192.080446 
L 261.312066 -192.389727 
L 267.937669 -196.88331 
L 274.563272 -196.380246 
L 281.188875 -197.475695 
L 287.814478 -198.051352 
L 294.440081 -201.223689 
L 301.065684 -201.899355 
L 307.691287 -202.331649 
L 314.31689 -200.966678 
L 320.942493 -202.633343 
L 327.568096 -203.977216 
L 334.193699 -203.196302 
L 340.819302 -201.459907 
L 347.444905 -200.835392 
L 354.070508 -201.29155 
L 360.696111 -203.671657 
L 367.321714 -206.103936 
L 373.947317 -207.995821 
L 380.57292 -206.759824 
L 387.198523 -204.899314 
L 387.198523 -248.077705 
L 387.198523 -248.077705 
L 380.57292 -248.896132 
L 373.947317 -251.546443 
L 367.321714 -250.506337 
L 360.696111 -247.164597 
L 354.070508 -243.132124 
L 347.444905 -245.877584 
L 340.819302 -245.136101 
L 334.193699 -246.052441 
L 327.568096 -246.08746 
L 320.942493 -246.106337 
L 314.31689 -244.578313 
L 307.691287 -247.198852 
L 301.065684 -243.986625 
L 294.440081 -245.113603 
L 287.814478 -242.504536 
L 281.188875 -240.187426 
L 274.563272 -238.717383 
L 267.937669 -241.079587 
L 261.312066 -237.255934 
L 254.686463 -236.602193 
L 248.06086 -231.382618 
L 241.435257 -235.608609 
L 234.809654 -235.854574 
L 228.184051 -235.510231 
L 221.558449 -234.156692 
L 214.932846 -233.539184 
L 208.307243 -238.893423 
L 201.68164 -229.107542 
L 195.056037 -235.407973 
L 188.430434 -232.440184 
L 181.804831 -226.763864 
L 175.179228 -221.669506 
L 168.553625 -226.982526 
L 161.928022 -228.043782 
L 155.302419 -215.354859 
L 148.676816 -225.34299 
L 142.051213 -221.353637 
L 135.42561 -218.989024 
L 128.800007 -216.625025 
L 122.174404 -218.390041 
L 115.548801 -211.550235 
L 108.923198 -195.289222 
L 102.297595 -169.173195 
L 95.671992 -170.37061 
L 89.046389 -169.542729 
L 82.420786 -173.789082 
L 75.795183 -151.694551 
L 69.16958 -144.23284 
L 62.543977 -113.132144 
z
" style="stroke: #89bedc; stroke-opacity: 0.2"/>
    </defs>
    <g clip-path="url(#p1d0b6d1789)">
     <use xlink:href="#mf70899cc60" x="0" y="316.271687" style="fill: #89bedc; fill-opacity: 0.2; stroke: #89bedc; stroke-opacity: 0.2"/>
    </g>
   </g>
   <g id="PolyCollection_4">
    <defs>
     <path id="m9eb075184e" d="M 62.543977 -113.479883 
L 62.543977 -72.232951 
L 69.16958 -89.053173 
L 75.795183 -97.197124 
L 82.420786 -119.696194 
L 89.046389 -116.763879 
L 95.671992 -102.944255 
L 102.297595 -128.244252 
L 108.923198 -143.129693 
L 115.548801 -137.357444 
L 122.174404 -137.34581 
L 128.800007 -137.487597 
L 135.42561 -130.981263 
L 142.051213 -132.204087 
L 148.676816 -134.726558 
L 155.302419 -137.330254 
L 161.928022 -146.134392 
L 168.553625 -144.654582 
L 175.179228 -144.136845 
L 181.804831 -152.015221 
L 188.430434 -163.494239 
L 195.056037 -166.877499 
L 201.68164 -170.344191 
L 208.307243 -174.213544 
L 214.932846 -174.168235 
L 221.558449 -176.945835 
L 228.184051 -176.96898 
L 234.809654 -180.376719 
L 241.435257 -176.625117 
L 248.06086 -177.467748 
L 254.686463 -185.645843 
L 261.312066 -186.311946 
L 267.937669 -185.994136 
L 274.563272 -186.262553 
L 281.188875 -187.32707 
L 287.814478 -185.612739 
L 294.440081 -189.123793 
L 301.065684 -190.069251 
L 307.691287 -191.504253 
L 314.31689 -190.284741 
L 320.942493 -190.738291 
L 327.568096 -191.714272 
L 334.193699 -192.044412 
L 340.819302 -193.853029 
L 347.444905 -195.514312 
L 354.070508 -196.244671 
L 360.696111 -198.145522 
L 367.321714 -196.4832 
L 373.947317 -197.708758 
L 380.57292 -196.114266 
L 387.198523 -198.017104 
L 387.198523 -239.609118 
L 387.198523 -239.609118 
L 380.57292 -237.736405 
L 373.947317 -238.752346 
L 367.321714 -237.010023 
L 360.696111 -238.815367 
L 354.070508 -237.205632 
L 347.444905 -237.324631 
L 340.819302 -234.785976 
L 334.193699 -234.744969 
L 327.568096 -234.559009 
L 320.942493 -235.578865 
L 314.31689 -233.371221 
L 307.691287 -234.315563 
L 301.065684 -233.63943 
L 294.440081 -231.27021 
L 287.814478 -229.158897 
L 281.188875 -231.827372 
L 274.563272 -228.835454 
L 267.937669 -228.73134 
L 261.312066 -229.014582 
L 254.686463 -229.528358 
L 248.06086 -222.739899 
L 241.435257 -224.689285 
L 234.809654 -226.207173 
L 228.184051 -223.356563 
L 221.558449 -225.364566 
L 214.932846 -218.767726 
L 208.307243 -218.769558 
L 201.68164 -220.95729 
L 195.056037 -215.5398 
L 188.430434 -212.167081 
L 181.804831 -199.411912 
L 175.179228 -189.137642 
L 168.553625 -189.681575 
L 161.928022 -192.015345 
L 155.302419 -178.316259 
L 148.676816 -180.154086 
L 142.051213 -178.33256 
L 135.42561 -175.439987 
L 128.800007 -186.195831 
L 122.174404 -187.648588 
L 115.548801 -181.62993 
L 108.923198 -192.672397 
L 102.297595 -178.72445 
L 95.671992 -149.419587 
L 89.046389 -165.354669 
L 82.420786 -171.799799 
L 75.795183 -147.377932 
L 69.16958 -132.411649 
L 62.543977 -113.479883 
z
" style="stroke: #539ecd; stroke-opacity: 0.2"/>
    </defs>
    <g clip-path="url(#p1d0b6d1789)">
     <use xlink:href="#m9eb075184e" x="0" y="316.271687" style="fill: #539ecd; fill-opacity: 0.2; stroke: #539ecd; stroke-opacity: 0.2"/>
    </g>
   </g>
   <g id="line2d_15">
    <path d="M 62.543977 222.207118 
L 69.16958 197.965558 
L 75.795183 202.672013 
L 82.420786 160.420796 
L 89.046389 168.79682 
L 95.671992 145.074128 
L 102.297595 154.636299 
L 108.923198 141.992048 
L 115.548801 130.686267 
L 122.174404 121.202105 
L 128.800007 123.296911 
L 135.42561 130.655342 
L 142.051213 119.142134 
L 148.676816 110.799743 
L 155.302419 111.320537 
L 161.928022 97.652132 
L 168.553625 97.714849 
L 175.179228 104.534262 
L 181.804831 91.68823 
L 188.430434 86.955372 
L 195.056037 84.357123 
L 201.68164 88.354731 
L 208.307243 73.639209 
L 214.932846 77.056823 
L 221.558449 68.821203 
L 228.184051 69.643535 
L 234.809654 62.087985 
L 241.435257 69.024107 
L 248.06086 58.427879 
L 254.686463 55.372732 
L 261.312066 64.618583 
L 267.937669 66.203132 
L 274.563272 59.665916 
L 281.188875 55.233025 
L 287.814478 47.785447 
L 294.440081 49.213093 
L 301.065684 49.166143 
L 307.691287 51.065065 
L 314.31689 45.838765 
L 320.942493 41.707251 
L 327.568096 43.675708 
L 334.193699 43.274129 
L 340.819302 41.506894 
L 347.444905 38.965303 
L 354.070508 41.088584 
L 360.696111 43.397692 
L 367.321714 41.648519 
L 373.947317 39.568377 
L 380.57292 35.459518 
L 387.198523 34.299838 
" clip-path="url(#p1d0b6d1789)" style="fill: none; stroke: #dbe9f6; stroke-width: 1.5; stroke-linecap: round"/>
   </g>
   <g id="line2d_16">
    <path d="M 62.543977 237.98597 
L 69.16958 228.69462 
L 75.795183 228.376821 
L 82.420786 222.294061 
L 89.046389 245.792205 
L 95.671992 215.702301 
L 102.297595 233.18232 
L 108.923198 227.121538 
L 115.548801 221.865813 
L 122.174404 223.101596 
L 128.800007 206.167817 
L 135.42561 249.728869 
L 142.051213 207.688729 
L 148.676816 220.469636 
L 155.302419 220.105334 
L 161.928022 178.151913 
L 168.553625 183.53804 
L 175.179228 204.726142 
L 181.804831 206.577975 
L 188.430434 203.135493 
L 195.056037 192.076824 
L 201.68164 197.992855 
L 208.307243 198.94263 
L 214.932846 173.812448 
L 221.558449 174.176157 
L 228.184051 176.310738 
L 234.809654 172.303673 
L 241.435257 170.297408 
L 248.06086 193.015977 
L 254.686463 177.086943 
L 261.312066 167.935914 
L 267.937669 182.908116 
L 274.563272 171.571187 
L 281.188875 176.287259 
L 287.814478 162.479922 
L 294.440081 174.777033 
L 301.065684 163.483229 
L 307.691287 189.855678 
L 314.31689 170.743035 
L 320.942493 158.259177 
L 327.568096 178.45019 
L 334.193699 166.934107 
L 340.819302 157.699975 
L 347.444905 164.471517 
L 354.070508 162.609592 
L 360.696111 138.940558 
L 367.321714 162.580279 
L 373.947317 121.147778 
L 380.57292 136.479712 
L 387.198523 155.854626 
" clip-path="url(#p1d0b6d1789)" style="fill: none; stroke: #bad6eb; stroke-width: 1.5; stroke-linecap: round"/>
   </g>
   <g id="line2d_17">
    <path d="M 62.543977 224.700167 
L 69.16958 197.387072 
L 75.795183 190.10577 
L 82.420786 169.439244 
L 89.046389 172.551455 
L 95.671992 170.599622 
L 102.297595 170.554159 
L 108.923198 144.942057 
L 115.548801 130.971877 
L 122.174404 123.936578 
L 128.800007 126.097206 
L 135.42561 121.951823 
L 142.051213 116.975553 
L 148.676816 113.872003 
L 155.302419 122.555854 
L 161.928022 112.634217 
L 168.553625 112.658401 
L 175.179228 116.082855 
L 181.804831 113.10982 
L 188.430434 105.423986 
L 195.056037 105.741465 
L 201.68164 111.575836 
L 208.307243 102.324395 
L 214.932846 107.031617 
L 221.558449 104.769069 
L 228.184051 103.37156 
L 234.809654 104.219743 
L 241.435257 103.209094 
L 248.06086 107.075238 
L 254.686463 101.98163 
L 261.312066 101.841575 
L 267.937669 98.084881 
L 274.563272 99.094581 
L 281.188875 97.062604 
L 287.814478 96.171351 
L 294.440081 93.431519 
L 301.065684 92.42965 
L 307.691287 90.729507 
L 314.31689 93.616954 
L 320.942493 90.640723 
L 327.568096 91.598936 
L 334.193699 93.114145 
L 340.819302 92.873775 
L 347.444905 92.532658 
L 354.070508 93.85523 
L 360.696111 91.735808 
L 367.321714 88.04932 
L 373.947317 86.999028 
L 380.57292 88.85553 
L 387.198523 88.994831 
" clip-path="url(#p1d0b6d1789)" style="fill: none; stroke: #89bedc; stroke-width: 1.5; stroke-linecap: round"/>
   </g>
   <g id="line2d_18">
    <path d="M 62.543977 224.447779 
L 69.16958 206.817053 
L 75.795183 196.819649 
L 82.420786 172.576553 
L 89.046389 177.387747 
L 95.671992 190.996346 
L 102.297595 163.916753 
L 108.923198 148.949129 
L 115.548801 157.544418 
L 122.174404 153.828903 
L 128.800007 154.757049 
L 135.42561 162.95512 
L 142.051213 162.716893 
L 148.676816 159.21002 
L 155.302419 159.395092 
L 161.928022 146.797728 
L 168.553625 149.965383 
L 175.179228 150.507604 
L 181.804831 140.287648 
L 188.430434 128.095326 
L 195.056037 125.495115 
L 201.68164 122.384203 
L 208.307243 120.366303 
L 214.932846 119.897798 
L 221.558449 115.502778 
L 228.184051 116.390813 
L 234.809654 113.880853 
L 241.435257 115.450474 
L 248.06086 116.028744 
L 254.686463 108.538947 
L 261.312066 108.291549 
L 267.937669 109.30864 
L 274.563272 109.233039 
L 281.188875 107.419594 
L 287.814478 108.056853 
L 294.440081 107.146428 
L 301.065684 104.767757 
L 307.691287 105.234322 
L 314.31689 104.763877 
L 320.942493 104.365507 
L 327.568096 103.247264 
L 334.193699 103.281051 
L 340.819302 102.050217 
L 347.444905 100.053506 
L 354.070508 99.884382 
L 360.696111 99.581428 
L 367.321714 99.447787 
L 373.947317 99.291121 
L 380.57292 98.895962 
L 387.198523 98.006629 
" clip-path="url(#p1d0b6d1789)" style="fill: none; stroke: #539ecd; stroke-width: 1.5; stroke-linecap: round"/>
   </g>
   <g id="line2d_19"/>
   <g id="line2d_20"/>
   <g id="line2d_21"/>
   <g id="line2d_22"/>
   <g id="patch_3">
    <path d="M 46.31125 273.312 
L 46.31125 7.2 
" style="fill: none; stroke: #cccccc; stroke-width: 1.25; stroke-linejoin: miter; stroke-linecap: square"/>
   </g>
   <g id="patch_4">
    <path d="M 403.43125 273.312 
L 403.43125 7.2 
" style="fill: none; stroke: #cccccc; stroke-width: 1.25; stroke-linejoin: miter; stroke-linecap: square"/>
   </g>
   <g id="patch_5">
    <path d="M 46.31125 273.312 
L 403.43125 273.312 
" style="fill: none; stroke: #cccccc; stroke-width: 1.25; stroke-linejoin: miter; stroke-linecap: square"/>
   </g>
   <g id="patch_6">
    <path d="M 46.31125 7.2 
L 403.43125 7.2 
" style="fill: none; stroke: #cccccc; stroke-width: 1.25; stroke-linejoin: miter; stroke-linecap: square"/>
   </g>
   <g id="legend_1">
    <g id="patch_7">
     <path d="M 54.01125 97.6975 
L 157.995625 97.6975 
Q 160.195625 97.6975 160.195625 95.4975 
L 160.195625 14.9 
Q 160.195625 12.7 157.995625 12.7 
L 54.01125 12.7 
Q 51.81125 12.7 51.81125 14.9 
L 51.81125 95.4975 
Q 51.81125 97.6975 54.01125 97.6975 
z
" style="fill: #ffffff; opacity: 0.8; stroke: #cccccc; stroke-linejoin: miter"/>
    </g>
    <g id="text_17">
     <!-- Strategy -->
     <g style="fill: #262626" transform="translate(80.294375 26.218125) scale(0.12 -0.12)">
      <defs>
       <path id="DejaVuSans-53" d="M 3425 4513 
L 3425 3897 
Q 3066 4069 2747 4153 
Q 2428 4238 2131 4238 
Q 1616 4238 1336 4038 
Q 1056 3838 1056 3469 
Q 1056 3159 1242 3001 
Q 1428 2844 1947 2747 
L 2328 2669 
Q 3034 2534 3370 2195 
Q 3706 1856 3706 1288 
Q 3706 609 3251 259 
Q 2797 -91 1919 -91 
Q 1588 -91 1214 -16 
Q 841 59 441 206 
L 441 856 
Q 825 641 1194 531 
Q 1563 422 1919 422 
Q 2459 422 2753 634 
Q 3047 847 3047 1241 
Q 3047 1584 2836 1778 
Q 2625 1972 2144 2069 
L 1759 2144 
Q 1053 2284 737 2584 
Q 422 2884 422 3419 
Q 422 4038 858 4394 
Q 1294 4750 2059 4750 
Q 2388 4750 2728 4690 
Q 3069 4631 3425 4513 
z
" transform="scale(0.015625)"/>
       <path id="DejaVuSans-74" d="M 1172 4494 
L 1172 3500 
L 2356 3500 
L 2356 3053 
L 1172 3053 
L 1172 1153 
Q 1172 725 1289 603 
Q 1406 481 1766 481 
L 2356 481 
L 2356 0 
L 1766 0 
Q 1100 0 847 248 
Q 594 497 594 1153 
L 594 3053 
L 172 3053 
L 172 3500 
L 594 3500 
L 594 4494 
L 1172 4494 
z
" transform="scale(0.015625)"/>
       <path id="DejaVuSans-65" d="M 3597 1894 
L 3597 1613 
L 953 1613 
Q 991 1019 1311 708 
Q 1631 397 2203 397 
Q 2534 397 2845 478 
Q 3156 559 3463 722 
L 3463 178 
Q 3153 47 2828 -22 
Q 2503 -91 2169 -91 
Q 1331 -91 842 396 
Q 353 884 353 1716 
Q 353 2575 817 3079 
Q 1281 3584 2069 3584 
Q 2775 3584 3186 3129 
Q 3597 2675 3597 1894 
z
M 3022 2063 
Q 3016 2534 2758 2815 
Q 2500 3097 2075 3097 
Q 1594 3097 1305 2825 
Q 1016 2553 972 2059 
L 3022 2063 
z
" transform="scale(0.015625)"/>
       <path id="DejaVuSans-67" d="M 2906 1791 
Q 2906 2416 2648 2759 
Q 2391 3103 1925 3103 
Q 1463 3103 1205 2759 
Q 947 2416 947 1791 
Q 947 1169 1205 825 
Q 1463 481 1925 481 
Q 2391 481 2648 825 
Q 2906 1169 2906 1791 
z
M 3481 434 
Q 3481 -459 3084 -895 
Q 2688 -1331 1869 -1331 
Q 1566 -1331 1297 -1286 
Q 1028 -1241 775 -1147 
L 775 -588 
Q 1028 -725 1275 -790 
Q 1522 -856 1778 -856 
Q 2344 -856 2625 -561 
Q 2906 -266 2906 331 
L 2906 616 
Q 2728 306 2450 153 
Q 2172 0 1784 0 
Q 1141 0 747 490 
Q 353 981 353 1791 
Q 353 2603 747 3093 
Q 1141 3584 1784 3584 
Q 2172 3584 2450 3431 
Q 2728 3278 2906 2969 
L 2906 3500 
L 3481 3500 
L 3481 434 
z
" transform="scale(0.015625)"/>
      </defs>
      <use xlink:href="#DejaVuSans-53"/>
      <use xlink:href="#DejaVuSans-74" x="63.476562"/>
      <use xlink:href="#DejaVuSans-72" x="102.685547"/>
      <use xlink:href="#DejaVuSans-61" x="143.798828"/>
      <use xlink:href="#DejaVuSans-74" x="205.078125"/>
      <use xlink:href="#DejaVuSans-65" x="244.287109"/>
      <use xlink:href="#DejaVuSans-67" x="305.810547"/>
      <use xlink:href="#DejaVuSans-79" x="369.287109"/>
     </g>
    </g>
    <g id="line2d_23">
     <path d="M 56.21125 38.722031 
L 67.21125 38.722031 
L 78.21125 38.722031 
" style="fill: none; stroke: #dbe9f6; stroke-width: 1.5; stroke-linecap: round"/>
    </g>
    <g id="text_18">
     <!-- FedPredict -->
     <g style="fill: #262626" transform="translate(87.01125 42.572031) scale(0.11 -0.11)">
      <defs>
       <path id="DejaVuSans-46" d="M 628 4666 
L 3309 4666 
L 3309 4134 
L 1259 4134 
L 1259 2759 
L 3109 2759 
L 3109 2228 
L 1259 2228 
L 1259 0 
L 628 0 
L 628 4666 
z
" transform="scale(0.015625)"/>
       <path id="DejaVuSans-50" d="M 1259 4147 
L 1259 2394 
L 2053 2394 
Q 2494 2394 2734 2622 
Q 2975 2850 2975 3272 
Q 2975 3691 2734 3919 
Q 2494 4147 2053 4147 
L 1259 4147 
z
M 628 4666 
L 2053 4666 
Q 2838 4666 3239 4311 
Q 3641 3956 3641 3272 
Q 3641 2581 3239 2228 
Q 2838 1875 2053 1875 
L 1259 1875 
L 1259 0 
L 628 0 
L 628 4666 
z
" transform="scale(0.015625)"/>
       <path id="DejaVuSans-69" d="M 603 3500 
L 1178 3500 
L 1178 0 
L 603 0 
L 603 3500 
z
M 603 4863 
L 1178 4863 
L 1178 4134 
L 603 4134 
L 603 4863 
z
" transform="scale(0.015625)"/>
      </defs>
      <use xlink:href="#DejaVuSans-46"/>
      <use xlink:href="#DejaVuSans-65" x="52.019531"/>
      <use xlink:href="#DejaVuSans-64" x="113.542969"/>
      <use xlink:href="#DejaVuSans-50" x="177.019531"/>
      <use xlink:href="#DejaVuSans-72" x="235.572266"/>
      <use xlink:href="#DejaVuSans-65" x="274.435547"/>
      <use xlink:href="#DejaVuSans-64" x="335.958984"/>
      <use xlink:href="#DejaVuSans-69" x="399.435547"/>
      <use xlink:href="#DejaVuSans-63" x="427.21875"/>
      <use xlink:href="#DejaVuSans-74" x="482.199219"/>
     </g>
    </g>
    <g id="line2d_24">
     <path d="M 56.21125 54.867969 
L 67.21125 54.867969 
L 78.21125 54.867969 
" style="fill: none; stroke: #bad6eb; stroke-width: 1.5; stroke-linecap: round"/>
    </g>
    <g id="text_19">
     <!-- FedAVG -->
     <g style="fill: #262626" transform="translate(87.01125 58.717969) scale(0.11 -0.11)">
      <defs>
       <path id="DejaVuSans-56" d="M 1831 0 
L 50 4666 
L 709 4666 
L 2188 738 
L 3669 4666 
L 4325 4666 
L 2547 0 
L 1831 0 
z
" transform="scale(0.015625)"/>
       <path id="DejaVuSans-47" d="M 3809 666 
L 3809 1919 
L 2778 1919 
L 2778 2438 
L 4434 2438 
L 4434 434 
Q 4069 175 3628 42 
Q 3188 -91 2688 -91 
Q 1594 -91 976 548 
Q 359 1188 359 2328 
Q 359 3472 976 4111 
Q 1594 4750 2688 4750 
Q 3144 4750 3555 4637 
Q 3966 4525 4313 4306 
L 4313 3634 
Q 3963 3931 3569 4081 
Q 3175 4231 2741 4231 
Q 1884 4231 1454 3753 
Q 1025 3275 1025 2328 
Q 1025 1384 1454 906 
Q 1884 428 2741 428 
Q 3075 428 3337 486 
Q 3600 544 3809 666 
z
" transform="scale(0.015625)"/>
      </defs>
      <use xlink:href="#DejaVuSans-46"/>
      <use xlink:href="#DejaVuSans-65" x="52.019531"/>
      <use xlink:href="#DejaVuSans-64" x="113.542969"/>
      <use xlink:href="#DejaVuSans-41" x="177.019531"/>
      <use xlink:href="#DejaVuSans-56" x="239.052734"/>
      <use xlink:href="#DejaVuSans-47" x="307.460938"/>
     </g>
    </g>
    <g id="line2d_25">
     <path d="M 56.21125 71.013906 
L 67.21125 71.013906 
L 78.21125 71.013906 
" style="fill: none; stroke: #89bedc; stroke-width: 1.5; stroke-linecap: round"/>
    </g>
    <g id="text_20">
     <!-- FedClassAvg -->
     <g style="fill: #262626" transform="translate(87.01125 74.863906) scale(0.11 -0.11)">
      <defs>
       <path id="DejaVuSans-43" d="M 4122 4306 
L 4122 3641 
Q 3803 3938 3442 4084 
Q 3081 4231 2675 4231 
Q 1875 4231 1450 3742 
Q 1025 3253 1025 2328 
Q 1025 1406 1450 917 
Q 1875 428 2675 428 
Q 3081 428 3442 575 
Q 3803 722 4122 1019 
L 4122 359 
Q 3791 134 3420 21 
Q 3050 -91 2638 -91 
Q 1578 -91 968 557 
Q 359 1206 359 2328 
Q 359 3453 968 4101 
Q 1578 4750 2638 4750 
Q 3056 4750 3426 4639 
Q 3797 4528 4122 4306 
z
" transform="scale(0.015625)"/>
       <path id="DejaVuSans-6c" d="M 603 4863 
L 1178 4863 
L 1178 0 
L 603 0 
L 603 4863 
z
" transform="scale(0.015625)"/>
       <path id="DejaVuSans-73" d="M 2834 3397 
L 2834 2853 
Q 2591 2978 2328 3040 
Q 2066 3103 1784 3103 
Q 1356 3103 1142 2972 
Q 928 2841 928 2578 
Q 928 2378 1081 2264 
Q 1234 2150 1697 2047 
L 1894 2003 
Q 2506 1872 2764 1633 
Q 3022 1394 3022 966 
Q 3022 478 2636 193 
Q 2250 -91 1575 -91 
Q 1294 -91 989 -36 
Q 684 19 347 128 
L 347 722 
Q 666 556 975 473 
Q 1284 391 1588 391 
Q 1994 391 2212 530 
Q 2431 669 2431 922 
Q 2431 1156 2273 1281 
Q 2116 1406 1581 1522 
L 1381 1569 
Q 847 1681 609 1914 
Q 372 2147 372 2553 
Q 372 3047 722 3315 
Q 1072 3584 1716 3584 
Q 2034 3584 2315 3537 
Q 2597 3491 2834 3397 
z
" transform="scale(0.015625)"/>
       <path id="DejaVuSans-76" d="M 191 3500 
L 800 3500 
L 1894 563 
L 2988 3500 
L 3597 3500 
L 2284 0 
L 1503 0 
L 191 3500 
z
" transform="scale(0.015625)"/>
      </defs>
      <use xlink:href="#DejaVuSans-46"/>
      <use xlink:href="#DejaVuSans-65" x="52.019531"/>
      <use xlink:href="#DejaVuSans-64" x="113.542969"/>
      <use xlink:href="#DejaVuSans-43" x="177.019531"/>
      <use xlink:href="#DejaVuSans-6c" x="246.84375"/>
      <use xlink:href="#DejaVuSans-61" x="274.626953"/>
      <use xlink:href="#DejaVuSans-73" x="335.90625"/>
      <use xlink:href="#DejaVuSans-73" x="388.005859"/>
      <use xlink:href="#DejaVuSans-41" x="440.105469"/>
      <use xlink:href="#DejaVuSans-76" x="502.638672"/>
      <use xlink:href="#DejaVuSans-67" x="561.818359"/>
     </g>
    </g>
    <g id="line2d_26">
     <path d="M 56.21125 87.159844 
L 67.21125 87.159844 
L 78.21125 87.159844 
" style="fill: none; stroke: #539ecd; stroke-width: 1.5; stroke-linecap: round"/>
    </g>
    <g id="text_21">
     <!-- FedPer -->
     <g style="fill: #262626" transform="translate(87.01125 91.009844) scale(0.11 -0.11)">
      <use xlink:href="#DejaVuSans-46"/>
      <use xlink:href="#DejaVuSans-65" x="52.019531"/>
      <use xlink:href="#DejaVuSans-64" x="113.542969"/>
      <use xlink:href="#DejaVuSans-50" x="177.019531"/>
      <use xlink:href="#DejaVuSans-65" x="233.697266"/>
      <use xlink:href="#DejaVuSans-72" x="295.220703"/>
     </g>
    </g>
   </g>
  </g>
 </g>
 <defs>
  <clipPath id="p1d0b6d1789">
   <rect x="46.31125" y="7.2" width="357.12" height="266.112"/>
  </clipPath>
 </defs>
</svg>
