<?xml version="1.0" encoding="utf-8" standalone="no"?>
<!DOCTYPE svg PUBLIC "-//W3C//DTD SVG 1.1//EN"
  "http://www.w3.org/Graphics/SVG/1.1/DTD/svg11.dtd">
<svg xmlns:xlink="http://www.w3.org/1999/xlink" width="414.127187pt" height="316.271687pt" viewBox="0 0 414.127187 316.271687" xmlns="http://www.w3.org/2000/svg" version="1.1">
 <metadata>
  <rdf:RDF xmlns:dc="http://purl.org/dc/elements/1.1/" xmlns:cc="http://creativecommons.org/ns#" xmlns:rdf="http://www.w3.org/1999/02/22-rdf-syntax-ns#">
   <cc:Work>
    <dc:type rdf:resource="http://purl.org/dc/dcmitype/StillImage"/>
    <dc:date>2023-02-08T13:49:26.824684</dc:date>
    <dc:format>image/svg+xml</dc:format>
    <dc:creator>
     <cc:Agent>
      <dc:title>Matplotlib v3.6.3, https://matplotlib.org/</dc:title>
     </cc:Agent>
    </dc:creator>
   </cc:Work>
  </rdf:RDF>
 </metadata>
 <defs>
  <style type="text/css">*{stroke-linejoin: round; stroke-linecap: butt}</style>
 </defs>
 <g id="figure_1">
  <g id="patch_1">
   <path d="M 0 316.271687 
L 414.127187 316.271687 
L 414.127187 0 
L 0 0 
z
" style="fill: #ffffff"/>
  </g>
  <g id="axes_1">
   <g id="patch_2">
    <path d="M 49.807187 273.312 
L 406.927188 273.312 
L 406.927188 7.2 
L 49.807187 7.2 
z
" style="fill: #ffffff"/>
   </g>
   <g id="matplotlib.axis_1">
    <g id="xtick_1">
     <g id="line2d_1">
      <path d="M 62.760576 273.312 
L 62.760576 7.2 
" clip-path="url(#p2554a06ff3)" style="fill: none; stroke: #cccccc; stroke-linecap: round"/>
     </g>
     <g id="text_1">
      <!-- 0 -->
      <g style="fill: #262626" transform="translate(59.261201 291.170281) scale(0.11 -0.11)">
       <defs>
        <path id="DejaVuSans-30" d="M 2034 4250 
Q 1547 4250 1301 3770 
Q 1056 3291 1056 2328 
Q 1056 1369 1301 889 
Q 1547 409 2034 409 
Q 2525 409 2770 889 
Q 3016 1369 3016 2328 
Q 3016 3291 2770 3770 
Q 2525 4250 2034 4250 
z
M 2034 4750 
Q 2819 4750 3233 4129 
Q 3647 3509 3647 2328 
Q 3647 1150 3233 529 
Q 2819 -91 2034 -91 
Q 1250 -91 836 529 
Q 422 1150 422 2328 
Q 422 3509 836 4129 
Q 1250 4750 2034 4750 
z
" transform="scale(0.015625)"/>
       </defs>
       <use xlink:href="#DejaVuSans-30"/>
      </g>
     </g>
    </g>
    <g id="xtick_2">
     <g id="line2d_2">
      <path d="M 128.347353 273.312 
L 128.347353 7.2 
" clip-path="url(#p2554a06ff3)" style="fill: none; stroke: #cccccc; stroke-linecap: round"/>
     </g>
     <g id="text_2">
      <!-- 20 -->
      <g style="fill: #262626" transform="translate(121.348603 291.170281) scale(0.11 -0.11)">
       <defs>
        <path id="DejaVuSans-32" d="M 1228 531 
L 3431 531 
L 3431 0 
L 469 0 
L 469 531 
Q 828 903 1448 1529 
Q 2069 2156 2228 2338 
Q 2531 2678 2651 2914 
Q 2772 3150 2772 3378 
Q 2772 3750 2511 3984 
Q 2250 4219 1831 4219 
Q 1534 4219 1204 4116 
Q 875 4013 500 3803 
L 500 4441 
Q 881 4594 1212 4672 
Q 1544 4750 1819 4750 
Q 2544 4750 2975 4387 
Q 3406 4025 3406 3419 
Q 3406 3131 3298 2873 
Q 3191 2616 2906 2266 
Q 2828 2175 2409 1742 
Q 1991 1309 1228 531 
z
" transform="scale(0.015625)"/>
       </defs>
       <use xlink:href="#DejaVuSans-32"/>
       <use xlink:href="#DejaVuSans-30" x="63.623047"/>
      </g>
     </g>
    </g>
    <g id="xtick_3">
     <g id="line2d_3">
      <path d="M 193.93413 273.312 
L 193.93413 7.2 
" clip-path="url(#p2554a06ff3)" style="fill: none; stroke: #cccccc; stroke-linecap: round"/>
     </g>
     <g id="text_3">
      <!-- 40 -->
      <g style="fill: #262626" transform="translate(186.93538 291.170281) scale(0.11 -0.11)">
       <defs>
        <path id="DejaVuSans-34" d="M 2419 4116 
L 825 1625 
L 2419 1625 
L 2419 4116 
z
M 2253 4666 
L 3047 4666 
L 3047 1625 
L 3713 1625 
L 3713 1100 
L 3047 1100 
L 3047 0 
L 2419 0 
L 2419 1100 
L 313 1100 
L 313 1709 
L 2253 4666 
z
" transform="scale(0.015625)"/>
       </defs>
       <use xlink:href="#DejaVuSans-34"/>
       <use xlink:href="#DejaVuSans-30" x="63.623047"/>
      </g>
     </g>
    </g>
    <g id="xtick_4">
     <g id="line2d_4">
      <path d="M 259.520907 273.312 
L 259.520907 7.2 
" clip-path="url(#p2554a06ff3)" style="fill: none; stroke: #cccccc; stroke-linecap: round"/>
     </g>
     <g id="text_4">
      <!-- 60 -->
      <g style="fill: #262626" transform="translate(252.522157 291.170281) scale(0.11 -0.11)">
       <defs>
        <path id="DejaVuSans-36" d="M 2113 2584 
Q 1688 2584 1439 2293 
Q 1191 2003 1191 1497 
Q 1191 994 1439 701 
Q 1688 409 2113 409 
Q 2538 409 2786 701 
Q 3034 994 3034 1497 
Q 3034 2003 2786 2293 
Q 2538 2584 2113 2584 
z
M 3366 4563 
L 3366 3988 
Q 3128 4100 2886 4159 
Q 2644 4219 2406 4219 
Q 1781 4219 1451 3797 
Q 1122 3375 1075 2522 
Q 1259 2794 1537 2939 
Q 1816 3084 2150 3084 
Q 2853 3084 3261 2657 
Q 3669 2231 3669 1497 
Q 3669 778 3244 343 
Q 2819 -91 2113 -91 
Q 1303 -91 875 529 
Q 447 1150 447 2328 
Q 447 3434 972 4092 
Q 1497 4750 2381 4750 
Q 2619 4750 2861 4703 
Q 3103 4656 3366 4563 
z
" transform="scale(0.015625)"/>
       </defs>
       <use xlink:href="#DejaVuSans-36"/>
       <use xlink:href="#DejaVuSans-30" x="63.623047"/>
      </g>
     </g>
    </g>
    <g id="xtick_5">
     <g id="line2d_5">
      <path d="M 325.107683 273.312 
L 325.107683 7.2 
" clip-path="url(#p2554a06ff3)" style="fill: none; stroke: #cccccc; stroke-linecap: round"/>
     </g>
     <g id="text_5">
      <!-- 80 -->
      <g style="fill: #262626" transform="translate(318.108933 291.170281) scale(0.11 -0.11)">
       <defs>
        <path id="DejaVuSans-38" d="M 2034 2216 
Q 1584 2216 1326 1975 
Q 1069 1734 1069 1313 
Q 1069 891 1326 650 
Q 1584 409 2034 409 
Q 2484 409 2743 651 
Q 3003 894 3003 1313 
Q 3003 1734 2745 1975 
Q 2488 2216 2034 2216 
z
M 1403 2484 
Q 997 2584 770 2862 
Q 544 3141 544 3541 
Q 544 4100 942 4425 
Q 1341 4750 2034 4750 
Q 2731 4750 3128 4425 
Q 3525 4100 3525 3541 
Q 3525 3141 3298 2862 
Q 3072 2584 2669 2484 
Q 3125 2378 3379 2068 
Q 3634 1759 3634 1313 
Q 3634 634 3220 271 
Q 2806 -91 2034 -91 
Q 1263 -91 848 271 
Q 434 634 434 1313 
Q 434 1759 690 2068 
Q 947 2378 1403 2484 
z
M 1172 3481 
Q 1172 3119 1398 2916 
Q 1625 2713 2034 2713 
Q 2441 2713 2670 2916 
Q 2900 3119 2900 3481 
Q 2900 3844 2670 4047 
Q 2441 4250 2034 4250 
Q 1625 4250 1398 4047 
Q 1172 3844 1172 3481 
z
" transform="scale(0.015625)"/>
       </defs>
       <use xlink:href="#DejaVuSans-38"/>
       <use xlink:href="#DejaVuSans-30" x="63.623047"/>
      </g>
     </g>
    </g>
    <g id="xtick_6">
     <g id="line2d_6">
      <path d="M 390.69446 273.312 
L 390.69446 7.2 
" clip-path="url(#p2554a06ff3)" style="fill: none; stroke: #cccccc; stroke-linecap: round"/>
     </g>
     <g id="text_6">
      <!-- 100 -->
      <g style="fill: #262626" transform="translate(380.196335 291.170281) scale(0.11 -0.11)">
       <defs>
        <path id="DejaVuSans-31" d="M 794 531 
L 1825 531 
L 1825 4091 
L 703 3866 
L 703 4441 
L 1819 4666 
L 2450 4666 
L 2450 531 
L 3481 531 
L 3481 0 
L 794 0 
L 794 531 
z
" transform="scale(0.015625)"/>
       </defs>
       <use xlink:href="#DejaVuSans-31"/>
       <use xlink:href="#DejaVuSans-30" x="63.623047"/>
       <use xlink:href="#DejaVuSans-30" x="127.246094"/>
      </g>
     </g>
    </g>
    <g id="text_7">
     <!-- Round -->
     <g style="fill: #262626" transform="translate(209.382812 306.576062) scale(0.12 -0.12)">
      <defs>
       <path id="DejaVuSans-52" d="M 2841 2188 
Q 3044 2119 3236 1894 
Q 3428 1669 3622 1275 
L 4263 0 
L 3584 0 
L 2988 1197 
Q 2756 1666 2539 1819 
Q 2322 1972 1947 1972 
L 1259 1972 
L 1259 0 
L 628 0 
L 628 4666 
L 2053 4666 
Q 2853 4666 3247 4331 
Q 3641 3997 3641 3322 
Q 3641 2881 3436 2590 
Q 3231 2300 2841 2188 
z
M 1259 4147 
L 1259 2491 
L 2053 2491 
Q 2509 2491 2742 2702 
Q 2975 2913 2975 3322 
Q 2975 3731 2742 3939 
Q 2509 4147 2053 4147 
L 1259 4147 
z
" transform="scale(0.015625)"/>
       <path id="DejaVuSans-6f" d="M 1959 3097 
Q 1497 3097 1228 2736 
Q 959 2375 959 1747 
Q 959 1119 1226 758 
Q 1494 397 1959 397 
Q 2419 397 2687 759 
Q 2956 1122 2956 1747 
Q 2956 2369 2687 2733 
Q 2419 3097 1959 3097 
z
M 1959 3584 
Q 2709 3584 3137 3096 
Q 3566 2609 3566 1747 
Q 3566 888 3137 398 
Q 2709 -91 1959 -91 
Q 1206 -91 779 398 
Q 353 888 353 1747 
Q 353 2609 779 3096 
Q 1206 3584 1959 3584 
z
" transform="scale(0.015625)"/>
       <path id="DejaVuSans-75" d="M 544 1381 
L 544 3500 
L 1119 3500 
L 1119 1403 
Q 1119 906 1312 657 
Q 1506 409 1894 409 
Q 2359 409 2629 706 
Q 2900 1003 2900 1516 
L 2900 3500 
L 3475 3500 
L 3475 0 
L 2900 0 
L 2900 538 
Q 2691 219 2414 64 
Q 2138 -91 1772 -91 
Q 1169 -91 856 284 
Q 544 659 544 1381 
z
M 1991 3584 
L 1991 3584 
z
" transform="scale(0.015625)"/>
       <path id="DejaVuSans-6e" d="M 3513 2113 
L 3513 0 
L 2938 0 
L 2938 2094 
Q 2938 2591 2744 2837 
Q 2550 3084 2163 3084 
Q 1697 3084 1428 2787 
Q 1159 2491 1159 1978 
L 1159 0 
L 581 0 
L 581 3500 
L 1159 3500 
L 1159 2956 
Q 1366 3272 1645 3428 
Q 1925 3584 2291 3584 
Q 2894 3584 3203 3211 
Q 3513 2838 3513 2113 
z
" transform="scale(0.015625)"/>
       <path id="DejaVuSans-64" d="M 2906 2969 
L 2906 4863 
L 3481 4863 
L 3481 0 
L 2906 0 
L 2906 525 
Q 2725 213 2448 61 
Q 2172 -91 1784 -91 
Q 1150 -91 751 415 
Q 353 922 353 1747 
Q 353 2572 751 3078 
Q 1150 3584 1784 3584 
Q 2172 3584 2448 3432 
Q 2725 3281 2906 2969 
z
M 947 1747 
Q 947 1113 1208 752 
Q 1469 391 1925 391 
Q 2381 391 2643 752 
Q 2906 1113 2906 1747 
Q 2906 2381 2643 2742 
Q 2381 3103 1925 3103 
Q 1469 3103 1208 2742 
Q 947 2381 947 1747 
z
" transform="scale(0.015625)"/>
      </defs>
      <use xlink:href="#DejaVuSans-52"/>
      <use xlink:href="#DejaVuSans-6f" x="64.982422"/>
      <use xlink:href="#DejaVuSans-75" x="126.164062"/>
      <use xlink:href="#DejaVuSans-6e" x="189.542969"/>
      <use xlink:href="#DejaVuSans-64" x="252.921875"/>
     </g>
    </g>
   </g>
   <g id="matplotlib.axis_2">
    <g id="ytick_1">
     <g id="line2d_7">
      <path d="M 49.807187 263.282164 
L 406.927188 263.282164 
" clip-path="url(#p2554a06ff3)" style="fill: none; stroke: #cccccc; stroke-linecap: round"/>
     </g>
     <g id="text_8">
      <!-- 0.0 -->
      <g style="fill: #262626" transform="translate(22.81375 267.461305) scale(0.11 -0.11)">
       <defs>
        <path id="DejaVuSans-2e" d="M 684 794 
L 1344 794 
L 1344 0 
L 684 0 
L 684 794 
z
" transform="scale(0.015625)"/>
       </defs>
       <use xlink:href="#DejaVuSans-30"/>
       <use xlink:href="#DejaVuSans-2e" x="63.623047"/>
       <use xlink:href="#DejaVuSans-30" x="95.410156"/>
      </g>
     </g>
    </g>
    <g id="ytick_2">
     <g id="line2d_8">
      <path d="M 49.807187 223.219685 
L 406.927188 223.219685 
" clip-path="url(#p2554a06ff3)" style="fill: none; stroke: #cccccc; stroke-linecap: round"/>
     </g>
     <g id="text_9">
      <!-- 0.5 -->
      <g style="fill: #262626" transform="translate(22.81375 227.398825) scale(0.11 -0.11)">
       <defs>
        <path id="DejaVuSans-35" d="M 691 4666 
L 3169 4666 
L 3169 4134 
L 1269 4134 
L 1269 2991 
Q 1406 3038 1543 3061 
Q 1681 3084 1819 3084 
Q 2600 3084 3056 2656 
Q 3513 2228 3513 1497 
Q 3513 744 3044 326 
Q 2575 -91 1722 -91 
Q 1428 -91 1123 -41 
Q 819 9 494 109 
L 494 744 
Q 775 591 1075 516 
Q 1375 441 1709 441 
Q 2250 441 2565 725 
Q 2881 1009 2881 1497 
Q 2881 1984 2565 2268 
Q 2250 2553 1709 2553 
Q 1456 2553 1204 2497 
Q 953 2441 691 2322 
L 691 4666 
z
" transform="scale(0.015625)"/>
       </defs>
       <use xlink:href="#DejaVuSans-30"/>
       <use xlink:href="#DejaVuSans-2e" x="63.623047"/>
       <use xlink:href="#DejaVuSans-35" x="95.410156"/>
      </g>
     </g>
    </g>
    <g id="ytick_3">
     <g id="line2d_9">
      <path d="M 49.807187 183.157206 
L 406.927188 183.157206 
" clip-path="url(#p2554a06ff3)" style="fill: none; stroke: #cccccc; stroke-linecap: round"/>
     </g>
     <g id="text_10">
      <!-- 1.0 -->
      <g style="fill: #262626" transform="translate(22.81375 187.336346) scale(0.11 -0.11)">
       <use xlink:href="#DejaVuSans-31"/>
       <use xlink:href="#DejaVuSans-2e" x="63.623047"/>
       <use xlink:href="#DejaVuSans-30" x="95.410156"/>
      </g>
     </g>
    </g>
    <g id="ytick_4">
     <g id="line2d_10">
      <path d="M 49.807187 143.094726 
L 406.927188 143.094726 
" clip-path="url(#p2554a06ff3)" style="fill: none; stroke: #cccccc; stroke-linecap: round"/>
     </g>
     <g id="text_11">
      <!-- 1.5 -->
      <g style="fill: #262626" transform="translate(22.81375 147.273867) scale(0.11 -0.11)">
       <use xlink:href="#DejaVuSans-31"/>
       <use xlink:href="#DejaVuSans-2e" x="63.623047"/>
       <use xlink:href="#DejaVuSans-35" x="95.410156"/>
      </g>
     </g>
    </g>
    <g id="ytick_5">
     <g id="line2d_11">
      <path d="M 49.807187 103.032247 
L 406.927188 103.032247 
" clip-path="url(#p2554a06ff3)" style="fill: none; stroke: #cccccc; stroke-linecap: round"/>
     </g>
     <g id="text_12">
      <!-- 2.0 -->
      <g style="fill: #262626" transform="translate(22.81375 107.211388) scale(0.11 -0.11)">
       <use xlink:href="#DejaVuSans-32"/>
       <use xlink:href="#DejaVuSans-2e" x="63.623047"/>
       <use xlink:href="#DejaVuSans-30" x="95.410156"/>
      </g>
     </g>
    </g>
    <g id="ytick_6">
     <g id="line2d_12">
      <path d="M 49.807187 62.969768 
L 406.927188 62.969768 
" clip-path="url(#p2554a06ff3)" style="fill: none; stroke: #cccccc; stroke-linecap: round"/>
     </g>
     <g id="text_13">
      <!-- 2.5 -->
      <g style="fill: #262626" transform="translate(22.81375 67.148909) scale(0.11 -0.11)">
       <use xlink:href="#DejaVuSans-32"/>
       <use xlink:href="#DejaVuSans-2e" x="63.623047"/>
       <use xlink:href="#DejaVuSans-35" x="95.410156"/>
      </g>
     </g>
    </g>
    <g id="ytick_7">
     <g id="line2d_13">
      <path d="M 49.807187 22.907289 
L 406.927188 22.907289 
" clip-path="url(#p2554a06ff3)" style="fill: none; stroke: #cccccc; stroke-linecap: round"/>
     </g>
     <g id="text_14">
      <!-- 3.0 -->
      <g style="fill: #262626" transform="translate(22.81375 27.086429) scale(0.11 -0.11)">
       <defs>
        <path id="DejaVuSans-33" d="M 2597 2516 
Q 3050 2419 3304 2112 
Q 3559 1806 3559 1356 
Q 3559 666 3084 287 
Q 2609 -91 1734 -91 
Q 1441 -91 1130 -33 
Q 819 25 488 141 
L 488 750 
Q 750 597 1062 519 
Q 1375 441 1716 441 
Q 2309 441 2620 675 
Q 2931 909 2931 1356 
Q 2931 1769 2642 2001 
Q 2353 2234 1838 2234 
L 1294 2234 
L 1294 2753 
L 1863 2753 
Q 2328 2753 2575 2939 
Q 2822 3125 2822 3475 
Q 2822 3834 2567 4026 
Q 2313 4219 1838 4219 
Q 1578 4219 1281 4162 
Q 984 4106 628 3988 
L 628 4550 
Q 988 4650 1302 4700 
Q 1616 4750 1894 4750 
Q 2613 4750 3031 4423 
Q 3450 4097 3450 3541 
Q 3450 3153 3228 2886 
Q 3006 2619 2597 2516 
z
" transform="scale(0.015625)"/>
       </defs>
       <use xlink:href="#DejaVuSans-33"/>
       <use xlink:href="#DejaVuSans-2e" x="63.623047"/>
       <use xlink:href="#DejaVuSans-30" x="95.410156"/>
      </g>
     </g>
    </g>
    <g id="text_15">
     <!-- Loss -->
     <g style="fill: #262626" transform="translate(16.318125 153.416625) rotate(-90) scale(0.12 -0.12)">
      <defs>
       <path id="DejaVuSans-4c" d="M 628 4666 
L 1259 4666 
L 1259 531 
L 3531 531 
L 3531 0 
L 628 0 
L 628 4666 
z
" transform="scale(0.015625)"/>
       <path id="DejaVuSans-73" d="M 2834 3397 
L 2834 2853 
Q 2591 2978 2328 3040 
Q 2066 3103 1784 3103 
Q 1356 3103 1142 2972 
Q 928 2841 928 2578 
Q 928 2378 1081 2264 
Q 1234 2150 1697 2047 
L 1894 2003 
Q 2506 1872 2764 1633 
Q 3022 1394 3022 966 
Q 3022 478 2636 193 
Q 2250 -91 1575 -91 
Q 1294 -91 989 -36 
Q 684 19 347 128 
L 347 722 
Q 666 556 975 473 
Q 1284 391 1588 391 
Q 1994 391 2212 530 
Q 2431 669 2431 922 
Q 2431 1156 2273 1281 
Q 2116 1406 1581 1522 
L 1381 1569 
Q 847 1681 609 1914 
Q 372 2147 372 2553 
Q 372 3047 722 3315 
Q 1072 3584 1716 3584 
Q 2034 3584 2315 3537 
Q 2597 3491 2834 3397 
z
" transform="scale(0.015625)"/>
      </defs>
      <use xlink:href="#DejaVuSans-4c"/>
      <use xlink:href="#DejaVuSans-6f" x="53.962891"/>
      <use xlink:href="#DejaVuSans-73" x="115.144531"/>
      <use xlink:href="#DejaVuSans-73" x="167.244141"/>
     </g>
    </g>
   </g>
   <g id="PolyCollection_1">
    <defs>
     <path id="me7e8eb72ef" d="M 66.039915 -250.097805 
L 66.039915 -211.158835 
L 69.319254 -163.972124 
L 72.598592 -144.394567 
L 75.877931 -124.944092 
L 79.15727 -102.580023 
L 82.436609 -93.055276 
L 85.715948 -81.0824 
L 88.995287 -79.947683 
L 92.274626 -74.537335 
L 95.553964 -67.712169 
L 98.833303 -66.557732 
L 102.112642 -67.077864 
L 105.391981 -65.688114 
L 108.67132 -63.679661 
L 111.950659 -63.647319 
L 115.229997 -64.324077 
L 118.509336 -63.428971 
L 121.788675 -61.674847 
L 125.068014 -63.294921 
L 128.347353 -62.721273 
L 131.626692 -62.02805 
L 134.90603 -61.586893 
L 138.185369 -60.394929 
L 141.464708 -60.1924 
L 144.744047 -61.056028 
L 148.023386 -60.223587 
L 151.302725 -59.404418 
L 154.582064 -59.150894 
L 157.861402 -60.22597 
L 161.140741 -60.105035 
L 164.42008 -60.579265 
L 167.699419 -59.050004 
L 170.978758 -59.075812 
L 174.258097 -59.28015 
L 177.537435 -58.531075 
L 180.816774 -58.354473 
L 184.096113 -58.18497 
L 187.375452 -58.139392 
L 190.654791 -58.423266 
L 193.93413 -58.176405 
L 197.213468 -57.825073 
L 200.492807 -57.315303 
L 203.772146 -57.384765 
L 207.051485 -57.348813 
L 210.330824 -57.142566 
L 213.610163 -57.480443 
L 216.889502 -57.51321 
L 220.16884 -57.520027 
L 223.448179 -57.629129 
L 226.727518 -57.07634 
L 230.006857 -56.981578 
L 233.286196 -57.015179 
L 236.565535 -56.843172 
L 239.844873 -56.395613 
L 243.124212 -56.502608 
L 246.403551 -56.286653 
L 249.68289 -56.441279 
L 252.962229 -56.665133 
L 256.241568 -56.340245 
L 259.520907 -56.171195 
L 262.800245 -56.297882 
L 266.079584 -56.205321 
L 269.358923 -56.098923 
L 272.638262 -56.182903 
L 275.917601 -55.902016 
L 279.19694 -55.677801 
L 282.476278 -55.941534 
L 285.755617 -55.817613 
L 289.034956 -55.835297 
L 292.314295 -55.700773 
L 295.593634 -55.776283 
L 298.872973 -56.007115 
L 302.152311 -55.806062 
L 305.43165 -55.967745 
L 308.710989 -55.62281 
L 311.990328 -55.599813 
L 315.269667 -55.738073 
L 318.549006 -55.708067 
L 321.828345 -55.578407 
L 325.107683 -55.418668 
L 328.387022 -55.319639 
L 331.666361 -55.397286 
L 334.9457 -55.543854 
L 338.225039 -55.476449 
L 341.504378 -55.296458 
L 344.783716 -55.290197 
L 348.063055 -55.36158 
L 351.342394 -55.141503 
L 354.621733 -55.155877 
L 357.901072 -55.340724 
L 361.180411 -55.299537 
L 364.459749 -55.183441 
L 367.739088 -55.26548 
L 371.018427 -55.055687 
L 374.297766 -55.080004 
L 377.577105 -55.230162 
L 380.856444 -55.229472 
L 384.135783 -55.174507 
L 387.415121 -55.216676 
L 390.69446 -55.280797 
L 390.69446 -57.709275 
L 390.69446 -57.709275 
L 387.415121 -57.083667 
L 384.135783 -56.887425 
L 380.856444 -57.006581 
L 377.577105 -57.128138 
L 374.297766 -57.115065 
L 371.018427 -57.117248 
L 367.739088 -57.763793 
L 364.459749 -57.461523 
L 361.180411 -57.443354 
L 357.901072 -57.469996 
L 354.621733 -57.290634 
L 351.342394 -58.467128 
L 348.063055 -58.545616 
L 344.783716 -58.766922 
L 341.504378 -57.971731 
L 338.225039 -58.855445 
L 334.9457 -59.482477 
L 331.666361 -59.75214 
L 328.387022 -57.415381 
L 325.107683 -57.692163 
L 321.828345 -57.820046 
L 318.549006 -58.807151 
L 315.269667 -58.338196 
L 311.990328 -57.285667 
L 308.710989 -57.258012 
L 305.43165 -58.466981 
L 302.152311 -57.962984 
L 298.872973 -58.216803 
L 295.593634 -57.543269 
L 292.314295 -57.680367 
L 289.034956 -57.77063 
L 285.755617 -57.791634 
L 282.476278 -58.187231 
L 279.19694 -57.772 
L 275.917601 -57.896039 
L 272.638262 -58.238368 
L 269.358923 -58.086554 
L 266.079584 -58.863327 
L 262.800245 -58.662626 
L 259.520907 -58.515215 
L 256.241568 -59.830957 
L 252.962229 -59.126976 
L 249.68289 -59.174018 
L 246.403551 -58.653167 
L 243.124212 -58.518065 
L 239.844873 -58.800295 
L 236.565535 -59.228158 
L 233.286196 -59.057784 
L 230.006857 -59.56577 
L 226.727518 -59.87833 
L 223.448179 -60.678148 
L 220.16884 -60.534534 
L 216.889502 -61.542545 
L 213.610163 -64.82423 
L 210.330824 -67.182572 
L 207.051485 -60.711189 
L 203.772146 -60.201939 
L 200.492807 -59.871068 
L 197.213468 -60.384244 
L 193.93413 -61.922422 
L 190.654791 -62.246591 
L 187.375452 -61.625942 
L 184.096113 -61.557871 
L 180.816774 -61.942335 
L 177.537435 -63.308227 
L 174.258097 -63.458375 
L 170.978758 -63.648397 
L 167.699419 -63.814905 
L 164.42008 -65.6007 
L 161.140741 -63.808593 
L 157.861402 -64.174745 
L 154.582064 -62.219015 
L 151.302725 -61.923543 
L 148.023386 -65.218528 
L 144.744047 -66.863381 
L 141.464708 -65.976963 
L 138.185369 -64.618307 
L 134.90603 -68.64414 
L 131.626692 -67.76921 
L 128.347353 -69.944533 
L 125.068014 -72.093167 
L 121.788675 -66.323312 
L 118.509336 -69.884018 
L 115.229997 -72.381961 
L 111.950659 -69.942378 
L 108.67132 -69.346793 
L 105.391981 -72.954088 
L 102.112642 -77.181524 
L 98.833303 -75.560209 
L 95.553964 -74.492066 
L 92.274626 -97.4913 
L 88.995287 -106.123562 
L 85.715948 -104.58651 
L 82.436609 -119.517812 
L 79.15727 -128.790644 
L 75.877931 -160.6491 
L 72.598592 -182.489252 
L 69.319254 -202.944102 
L 66.039915 -250.097805 
z
" style="stroke: #4c72b0; stroke-opacity: 0.2"/>
    </defs>
    <g clip-path="url(#p2554a06ff3)">
     <use xlink:href="#me7e8eb72ef" x="0" y="316.271687" style="fill: #4c72b0; fill-opacity: 0.2; stroke: #4c72b0; stroke-opacity: 0.2"/>
    </g>
   </g>
   <g id="PolyCollection_2">
    <defs>
     <path id="mf5b5d540c0" d="M 66.039915 -264.483063 
L 66.039915 -238.943066 
L 69.319254 -215.376649 
L 72.598592 -210.857939 
L 75.877931 -173.469616 
L 79.15727 -149.82822 
L 82.436609 -140.525715 
L 85.715948 -116.727767 
L 88.995287 -125.992657 
L 92.274626 -113.41197 
L 95.553964 -94.95004 
L 98.833303 -99.95251 
L 102.112642 -103.152036 
L 105.391981 -101.961323 
L 108.67132 -86.500538 
L 111.950659 -86.204349 
L 115.229997 -94.970769 
L 118.509336 -88.959173 
L 121.788675 -80.995868 
L 125.068014 -94.292112 
L 128.347353 -94.06393 
L 131.626692 -86.647002 
L 134.90603 -89.819106 
L 138.185369 -83.111271 
L 141.464708 -81.428386 
L 144.744047 -83.896528 
L 148.023386 -83.727511 
L 151.302725 -78.176104 
L 154.582064 -78.085861 
L 157.861402 -88.800506 
L 161.140741 -83.138949 
L 164.42008 -90.651121 
L 167.699419 -76.228796 
L 170.978758 -77.242933 
L 174.258097 -80.253743 
L 177.537435 -74.900032 
L 180.816774 -73.275778 
L 184.096113 -74.742121 
L 187.375452 -73.280602 
L 190.654791 -74.703836 
L 193.93413 -75.765784 
L 197.213468 -74.421981 
L 200.492807 -71.889658 
L 203.772146 -71.462562 
L 207.051485 -69.791621 
L 210.330824 -69.529453 
L 213.610163 -72.772887 
L 216.889502 -69.481841 
L 220.16884 -75.940223 
L 223.448179 -75.918977 
L 226.727518 -71.197485 
L 230.006857 -71.877957 
L 233.286196 -70.359992 
L 236.565535 -74.566088 
L 239.844873 -70.50587 
L 243.124212 -66.729215 
L 246.403551 -69.660439 
L 249.68289 -69.594534 
L 252.962229 -74.902997 
L 256.241568 -70.720685 
L 259.520907 -69.926762 
L 262.800245 -69.034875 
L 266.079584 -68.793018 
L 269.358923 -66.024643 
L 272.638262 -71.042462 
L 275.917601 -66.295211 
L 279.19694 -66.603353 
L 282.476278 -70.698959 
L 285.755617 -67.651903 
L 289.034956 -67.940831 
L 292.314295 -68.087849 
L 295.593634 -69.318057 
L 298.872973 -71.324129 
L 302.152311 -68.903141 
L 305.43165 -74.981301 
L 308.710989 -65.279541 
L 311.990328 -69.486319 
L 315.269667 -69.506749 
L 318.549006 -66.423973 
L 321.828345 -63.572003 
L 325.107683 -65.239986 
L 328.387022 -63.603558 
L 331.666361 -65.507888 
L 334.9457 -70.142099 
L 338.225039 -73.147293 
L 341.504378 -64.251143 
L 344.783716 -66.164442 
L 348.063055 -63.866172 
L 351.342394 -63.796466 
L 354.621733 -63.431005 
L 357.901072 -64.551194 
L 361.180411 -65.414367 
L 364.459749 -62.233229 
L 367.739088 -64.381088 
L 371.018427 -62.763934 
L 374.297766 -64.146627 
L 377.577105 -63.770518 
L 380.856444 -66.780673 
L 384.135783 -64.626022 
L 387.415121 -64.059625 
L 390.69446 -63.314071 
L 390.69446 -68.616649 
L 390.69446 -68.616649 
L 387.415121 -70.794813 
L 384.135783 -69.165037 
L 380.856444 -72.174206 
L 377.577105 -71.368597 
L 374.297766 -68.523218 
L 371.018427 -66.693245 
L 367.739088 -72.636638 
L 364.459749 -65.911961 
L 361.180411 -73.343429 
L 357.901072 -71.878775 
L 354.621733 -69.398329 
L 351.342394 -70.224445 
L 348.063055 -68.799431 
L 344.783716 -74.848206 
L 341.504378 -70.947427 
L 338.225039 -90.66565 
L 334.9457 -82.278356 
L 331.666361 -75.198434 
L 328.387022 -68.487355 
L 325.107683 -70.70171 
L 321.828345 -66.482111 
L 318.549006 -73.361397 
L 315.269667 -81.705458 
L 311.990328 -76.080773 
L 308.710989 -71.190957 
L 305.43165 -97.866188 
L 302.152311 -81.291802 
L 298.872973 -86.792913 
L 295.593634 -83.313668 
L 292.314295 -74.954197 
L 289.034956 -80.029528 
L 285.755617 -72.762929 
L 282.476278 -77.355572 
L 279.19694 -71.24873 
L 275.917601 -73.21555 
L 272.638262 -80.320914 
L 269.358923 -71.643604 
L 266.079584 -79.740897 
L 262.800245 -78.60586 
L 259.520907 -78.704749 
L 256.241568 -85.92034 
L 252.962229 -93.460618 
L 249.68289 -85.18658 
L 246.403551 -76.335178 
L 243.124212 -72.524876 
L 239.844873 -75.775296 
L 236.565535 -89.544233 
L 233.286196 -77.884678 
L 230.006857 -80.676366 
L 226.727518 -79.106379 
L 223.448179 -88.410582 
L 220.16884 -89.215982 
L 216.889502 -76.178934 
L 213.610163 -87.93797 
L 210.330824 -75.035813 
L 207.051485 -79.038904 
L 203.772146 -79.865808 
L 200.492807 -78.20709 
L 197.213468 -83.179767 
L 193.93413 -91.876531 
L 190.654791 -88.479475 
L 187.375452 -81.725992 
L 184.096113 -84.174216 
L 180.816774 -79.68534 
L 177.537435 -83.173511 
L 174.258097 -91.227447 
L 170.978758 -90.334393 
L 167.699419 -92.542827 
L 164.42008 -117.679956 
L 161.140741 -101.62575 
L 157.861402 -119.680525 
L 154.582064 -91.793247 
L 151.302725 -92.524704 
L 148.023386 -102.605855 
L 144.744047 -103.503379 
L 141.464708 -100.842378 
L 138.185369 -94.24129 
L 134.90603 -103.103452 
L 131.626692 -106.83185 
L 128.347353 -112.47536 
L 125.068014 -124.501882 
L 121.788675 -89.753669 
L 118.509336 -100.436284 
L 115.229997 -104.821278 
L 111.950659 -98.483138 
L 108.67132 -95.399631 
L 105.391981 -125.243435 
L 102.112642 -117.338545 
L 98.833303 -116.314883 
L 95.553964 -102.394981 
L 92.274626 -139.593434 
L 88.995287 -159.918299 
L 85.715948 -140.693283 
L 82.436609 -169.06699 
L 79.15727 -173.885797 
L 75.877931 -203.708222 
L 72.598592 -230.938446 
L 69.319254 -236.432411 
L 66.039915 -264.483063 
z
" style="stroke: #dd8452; stroke-opacity: 0.2"/>
    </defs>
    <g clip-path="url(#p2554a06ff3)">
     <use xlink:href="#mf5b5d540c0" x="0" y="316.271687" style="fill: #dd8452; fill-opacity: 0.2; stroke: #dd8452; stroke-opacity: 0.2"/>
    </g>
   </g>
   <g id="PolyCollection_3">
    <defs>
     <path id="m68788c45f5" d="M 66.039915 -296.975687 
L 66.039915 -213.871796 
L 69.319254 -182.465521 
L 72.598592 -166.882929 
L 75.877931 -154.641682 
L 79.15727 -141.048044 
L 82.436609 -131.16671 
L 85.715948 -123.306318 
L 88.995287 -113.059192 
L 92.274626 -101.747177 
L 95.553964 -96.838174 
L 98.833303 -88.932813 
L 102.112642 -87.206468 
L 105.391981 -84.987622 
L 108.67132 -82.886921 
L 111.950659 -81.864863 
L 115.229997 -77.559597 
L 118.509336 -76.812451 
L 121.788675 -75.026645 
L 125.068014 -74.528538 
L 128.347353 -74.038952 
L 131.626692 -73.734978 
L 134.90603 -73.571527 
L 138.185369 -71.502146 
L 141.464708 -71.475149 
L 144.744047 -70.262595 
L 148.023386 -69.800281 
L 151.302725 -69.253227 
L 154.582064 -67.97296 
L 157.861402 -67.759485 
L 161.140741 -67.123807 
L 164.42008 -66.993063 
L 167.699419 -66.716102 
L 170.978758 -65.50995 
L 174.258097 -65.370756 
L 177.537435 -64.5973 
L 180.816774 -64.679553 
L 184.096113 -64.617494 
L 187.375452 -64.050172 
L 190.654791 -63.848868 
L 193.93413 -63.996985 
L 197.213468 -63.830513 
L 200.492807 -63.652903 
L 203.772146 -63.905949 
L 207.051485 -63.362894 
L 210.330824 -62.839997 
L 213.610163 -62.673857 
L 216.889502 -62.10007 
L 220.16884 -62.206893 
L 223.448179 -61.855343 
L 226.727518 -61.967914 
L 230.006857 -61.687693 
L 233.286196 -61.544098 
L 236.565535 -61.1263 
L 239.844873 -60.302248 
L 243.124212 -60.410762 
L 246.403551 -60.703359 
L 249.68289 -60.62362 
L 252.962229 -60.434625 
L 256.241568 -60.362231 
L 259.520907 -60.400207 
L 262.800245 -60.123241 
L 266.079584 -59.902384 
L 269.358923 -59.945347 
L 272.638262 -59.593274 
L 275.917601 -59.262297 
L 279.19694 -59.427274 
L 282.476278 -59.440357 
L 285.755617 -59.337734 
L 289.034956 -59.075433 
L 292.314295 -58.997407 
L 295.593634 -58.865134 
L 298.872973 -58.321929 
L 302.152311 -58.689831 
L 305.43165 -58.409135 
L 308.710989 -58.718356 
L 311.990328 -58.876543 
L 315.269667 -58.984835 
L 318.549006 -58.495256 
L 321.828345 -58.525639 
L 325.107683 -57.987827 
L 328.387022 -58.264437 
L 331.666361 -58.031386 
L 334.9457 -58.109958 
L 338.225039 -58.070324 
L 341.504378 -57.982036 
L 344.783716 -58.171392 
L 348.063055 -57.938512 
L 351.342394 -57.977337 
L 354.621733 -57.846419 
L 357.901072 -58.031114 
L 361.180411 -58.023018 
L 364.459749 -58.096508 
L 367.739088 -58.102816 
L 371.018427 -57.907148 
L 374.297766 -57.801063 
L 377.577105 -57.701213 
L 380.856444 -58.211413 
L 384.135783 -58.105124 
L 387.415121 -58.108183 
L 390.69446 -57.958689 
L 390.69446 -64.970222 
L 390.69446 -64.970222 
L 387.415121 -66.205932 
L 384.135783 -66.311706 
L 380.856444 -65.992673 
L 377.577105 -65.652936 
L 374.297766 -65.911301 
L 371.018427 -65.784037 
L 367.739088 -65.504399 
L 364.459749 -65.3073 
L 361.180411 -66.909252 
L 357.901072 -67.042236 
L 354.621733 -67.472782 
L 351.342394 -68.776192 
L 348.063055 -68.915171 
L 344.783716 -68.224911 
L 341.504378 -68.507175 
L 338.225039 -68.512759 
L 334.9457 -69.782303 
L 331.666361 -69.012692 
L 328.387022 -70.579243 
L 325.107683 -70.14073 
L 321.828345 -70.462587 
L 318.549006 -70.220552 
L 315.269667 -68.829658 
L 311.990328 -69.476215 
L 308.710989 -68.405688 
L 305.43165 -68.275085 
L 302.152311 -68.752949 
L 298.872973 -69.26981 
L 295.593634 -68.845933 
L 292.314295 -68.747058 
L 289.034956 -68.553496 
L 285.755617 -68.803488 
L 282.476278 -69.174762 
L 279.19694 -69.013787 
L 275.917601 -69.872703 
L 272.638262 -70.256524 
L 269.358923 -70.101491 
L 266.079584 -72.013001 
L 262.800245 -72.048517 
L 259.520907 -72.114616 
L 256.241568 -71.159676 
L 252.962229 -71.081627 
L 249.68289 -73.005202 
L 246.403551 -72.815999 
L 243.124212 -72.990842 
L 239.844873 -72.993904 
L 236.565535 -73.372832 
L 233.286196 -75.862819 
L 230.006857 -75.602014 
L 226.727518 -80.380354 
L 223.448179 -80.729836 
L 220.16884 -79.477226 
L 216.889502 -80.703056 
L 213.610163 -79.099367 
L 210.330824 -80.106297 
L 207.051485 -80.981806 
L 203.772146 -81.022134 
L 200.492807 -81.331419 
L 197.213468 -81.155898 
L 193.93413 -83.093744 
L 190.654791 -82.12983 
L 187.375452 -82.844472 
L 184.096113 -82.439669 
L 180.816774 -82.912453 
L 177.537435 -83.722374 
L 174.258097 -84.294394 
L 170.978758 -84.553417 
L 167.699419 -85.06731 
L 164.42008 -86.716258 
L 161.140741 -86.073706 
L 157.861402 -85.580135 
L 154.582064 -88.022909 
L 151.302725 -88.537294 
L 148.023386 -89.512333 
L 144.744047 -90.300495 
L 141.464708 -96.554454 
L 138.185369 -95.767523 
L 134.90603 -99.926664 
L 131.626692 -99.104235 
L 128.347353 -100.14732 
L 125.068014 -97.679578 
L 121.788675 -97.735999 
L 118.509336 -99.792348 
L 115.229997 -100.348945 
L 111.950659 -106.937318 
L 108.67132 -110.09891 
L 105.391981 -111.19853 
L 102.112642 -115.83811 
L 98.833303 -119.066778 
L 95.553964 -130.433853 
L 92.274626 -136.746346 
L 88.995287 -153.151677 
L 85.715948 -167.493881 
L 82.436609 -173.077528 
L 79.15727 -182.4006 
L 75.877931 -198.505686 
L 72.598592 -209.084128 
L 69.319254 -223.854471 
L 66.039915 -296.975687 
z
" style="stroke: #55a868; stroke-opacity: 0.2"/>
    </defs>
    <g clip-path="url(#p2554a06ff3)">
     <use xlink:href="#m68788c45f5" x="0" y="316.271687" style="fill: #55a868; fill-opacity: 0.2; stroke: #55a868; stroke-opacity: 0.2"/>
    </g>
   </g>
   <g id="PolyCollection_4">
    <defs>
     <path id="m13918b8a02" d="M 66.039915 -232.396624 
L 66.039915 -213.670288 
L 69.319254 -198.622748 
L 72.598592 -203.359349 
L 75.877931 -204.363834 
L 79.15727 -214.110701 
L 82.436609 -181.35041 
L 85.715948 -158.035578 
L 88.995287 -169.860027 
L 92.274626 -176.358394 
L 95.553964 -161.925462 
L 98.833303 -139.620979 
L 102.112642 -125.821697 
L 105.391981 -119.689028 
L 108.67132 -108.950994 
L 111.950659 -102.168953 
L 115.229997 -100.265165 
L 118.509336 -93.25345 
L 121.788675 -89.255011 
L 125.068014 -85.319893 
L 128.347353 -81.805529 
L 131.626692 -80.591044 
L 134.90603 -77.771719 
L 138.185369 -75.538695 
L 141.464708 -74.442149 
L 144.744047 -73.269762 
L 148.023386 -70.967337 
L 151.302725 -70.454859 
L 154.582064 -69.716826 
L 157.861402 -68.679679 
L 161.140741 -68.180405 
L 164.42008 -67.083782 
L 167.699419 -66.685618 
L 170.978758 -66.514326 
L 174.258097 -65.970661 
L 177.537435 -65.91399 
L 180.816774 -65.011019 
L 184.096113 -64.532825 
L 187.375452 -64.130775 
L 190.654791 -63.718806 
L 193.93413 -63.277424 
L 197.213468 -62.947654 
L 200.492807 -62.62515 
L 203.772146 -62.355047 
L 207.051485 -61.982069 
L 210.330824 -61.970911 
L 213.610163 -61.746902 
L 216.889502 -61.670699 
L 220.16884 -60.95187 
L 223.448179 -60.567686 
L 226.727518 -60.616346 
L 230.006857 -60.277547 
L 233.286196 -59.972231 
L 236.565535 -59.9097 
L 239.844873 -59.55094 
L 243.124212 -59.353796 
L 246.403551 -59.204913 
L 249.68289 -58.995494 
L 252.962229 -58.710539 
L 256.241568 -58.590053 
L 259.520907 -58.565544 
L 262.800245 -58.416602 
L 266.079584 -58.388043 
L 269.358923 -58.121096 
L 272.638262 -58.250441 
L 275.917601 -58.004312 
L 279.19694 -58.004463 
L 282.476278 -57.938906 
L 285.755617 -57.84567 
L 289.034956 -57.919969 
L 292.314295 -57.851747 
L 295.593634 -57.697686 
L 298.872973 -57.47846 
L 302.152311 -57.453935 
L 305.43165 -57.471355 
L 308.710989 -57.441067 
L 311.990328 -57.266367 
L 315.269667 -57.354428 
L 318.549006 -57.226765 
L 321.828345 -57.150283 
L 325.107683 -57.242592 
L 328.387022 -57.413813 
L 331.666361 -57.147797 
L 334.9457 -57.142032 
L 338.225039 -57.199068 
L 341.504378 -57.06979 
L 344.783716 -56.979507 
L 348.063055 -56.929458 
L 351.342394 -56.884644 
L 354.621733 -56.778918 
L 357.901072 -56.8462 
L 361.180411 -56.771759 
L 364.459749 -56.638688 
L 367.739088 -56.675418 
L 371.018427 -56.683653 
L 374.297766 -56.579529 
L 377.577105 -56.591693 
L 380.856444 -56.648742 
L 384.135783 -56.48296 
L 387.415121 -56.45775 
L 390.69446 -56.357198 
L 390.69446 -60.237014 
L 390.69446 -60.237014 
L 387.415121 -60.059068 
L 384.135783 -60.52357 
L 380.856444 -60.470615 
L 377.577105 -60.449108 
L 374.297766 -60.422757 
L 371.018427 -60.479102 
L 367.739088 -60.647007 
L 364.459749 -60.407253 
L 361.180411 -61.315094 
L 357.901072 -61.283961 
L 354.621733 -61.171853 
L 351.342394 -61.15389 
L 348.063055 -60.973728 
L 344.783716 -61.030658 
L 341.504378 -61.505273 
L 338.225039 -61.605865 
L 334.9457 -61.440394 
L 331.666361 -61.624555 
L 328.387022 -61.652953 
L 325.107683 -61.652922 
L 321.828345 -61.701013 
L 318.549006 -61.740019 
L 315.269667 -62.248635 
L 311.990328 -62.686907 
L 308.710989 -62.404607 
L 305.43165 -62.328289 
L 302.152311 -62.28219 
L 298.872973 -63.029142 
L 295.593634 -63.555409 
L 292.314295 -65.253396 
L 289.034956 -65.285058 
L 285.755617 -65.265916 
L 282.476278 -64.544131 
L 279.19694 -64.673298 
L 275.917601 -63.714767 
L 272.638262 -64.33774 
L 269.358923 -64.06375 
L 266.079584 -65.006656 
L 262.800245 -65.293957 
L 259.520907 -65.288177 
L 256.241568 -65.911395 
L 252.962229 -66.265788 
L 249.68289 -66.381306 
L 246.403551 -66.191774 
L 243.124212 -67.638252 
L 239.844873 -66.98947 
L 236.565535 -68.680747 
L 233.286196 -68.856925 
L 230.006857 -69.083997 
L 226.727518 -70.151703 
L 223.448179 -70.779699 
L 220.16884 -70.540321 
L 216.889502 -70.978229 
L 213.610163 -70.399283 
L 210.330824 -71.118199 
L 207.051485 -71.891668 
L 203.772146 -71.755681 
L 200.492807 -72.468157 
L 197.213468 -72.66731 
L 193.93413 -74.091168 
L 190.654791 -75.443133 
L 187.375452 -76.982471 
L 184.096113 -77.067276 
L 180.816774 -78.151044 
L 177.537435 -78.620326 
L 174.258097 -78.674456 
L 170.978758 -79.398397 
L 167.699419 -81.051928 
L 164.42008 -81.17256 
L 161.140741 -80.793218 
L 157.861402 -84.188377 
L 154.582064 -83.287672 
L 151.302725 -84.425504 
L 148.023386 -88.099776 
L 144.744047 -88.891367 
L 141.464708 -94.661651 
L 138.185369 -93.78502 
L 134.90603 -97.33983 
L 131.626692 -102.395997 
L 128.347353 -103.294942 
L 125.068014 -109.458795 
L 121.788675 -112.566709 
L 118.509336 -115.369561 
L 115.229997 -120.684231 
L 111.950659 -127.973369 
L 108.67132 -132.73832 
L 105.391981 -141.804783 
L 102.112642 -149.616019 
L 98.833303 -158.878893 
L 95.553964 -180.224872 
L 92.274626 -191.981143 
L 88.995287 -190.978017 
L 85.715948 -187.03798 
L 82.436609 -200.9418 
L 79.15727 -222.546048 
L 75.877931 -218.976167 
L 72.598592 -219.995784 
L 69.319254 -220.739835 
L 66.039915 -232.396624 
z
" style="stroke: #c44e52; stroke-opacity: 0.2"/>
    </defs>
    <g clip-path="url(#p2554a06ff3)">
     <use xlink:href="#m13918b8a02" x="0" y="316.271687" style="fill: #c44e52; fill-opacity: 0.2; stroke: #c44e52; stroke-opacity: 0.2"/>
    </g>
   </g>
   <g id="PolyCollection_5">
    <defs>
     <path id="m0d5159f33c" d="M 66.039915 -239.783333 
L 66.039915 -229.677387 
L 69.319254 -217.218522 
L 72.598592 -213.512843 
L 75.877931 -206.812749 
L 79.15727 -203.334896 
L 82.436609 -196.217026 
L 85.715948 -191.206021 
L 88.995287 -184.770622 
L 92.274626 -177.614711 
L 95.553964 -174.885107 
L 98.833303 -169.365092 
L 102.112642 -167.717365 
L 105.391981 -162.268349 
L 108.67132 -158.066432 
L 111.950659 -156.130053 
L 115.229997 -152.927384 
L 118.509336 -149.567622 
L 121.788675 -144.863483 
L 125.068014 -142.174546 
L 128.347353 -138.829988 
L 131.626692 -137.115097 
L 134.90603 -135.935728 
L 138.185369 -133.399718 
L 141.464708 -132.361668 
L 144.744047 -130.438312 
L 148.023386 -129.425006 
L 151.302725 -126.864955 
L 154.582064 -126.639698 
L 157.861402 -122.322576 
L 161.140741 -119.89107 
L 164.42008 -119.145852 
L 167.699419 -117.031085 
L 170.978758 -116.724039 
L 174.258097 -115.763062 
L 177.537435 -113.763892 
L 180.816774 -113.3413 
L 184.096113 -111.37308 
L 187.375452 -111.089804 
L 190.654791 -109.727576 
L 193.93413 -109.003152 
L 197.213468 -108.938561 
L 200.492807 -106.871785 
L 203.772146 -106.840232 
L 207.051485 -105.610697 
L 210.330824 -103.299915 
L 213.610163 -102.059182 
L 216.889502 -101.498249 
L 220.16884 -101.171804 
L 223.448179 -100.544475 
L 226.727518 -99.639279 
L 230.006857 -99.119797 
L 233.286196 -97.148479 
L 236.565535 -96.561003 
L 239.844873 -96.012755 
L 243.124212 -96.324555 
L 246.403551 -96.659935 
L 249.68289 -93.801666 
L 252.962229 -92.905204 
L 256.241568 -92.560656 
L 259.520907 -91.651783 
L 262.800245 -91.943115 
L 266.079584 -90.505024 
L 269.358923 -89.907713 
L 272.638262 -89.441021 
L 275.917601 -87.111968 
L 279.19694 -87.820161 
L 282.476278 -86.463378 
L 285.755617 -85.789787 
L 289.034956 -84.700699 
L 292.314295 -84.767398 
L 295.593634 -85.11143 
L 298.872973 -85.053994 
L 302.152311 -83.749616 
L 305.43165 -83.208456 
L 308.710989 -82.575045 
L 311.990328 -82.035913 
L 315.269667 -81.3114 
L 318.549006 -82.269695 
L 321.828345 -81.734222 
L 325.107683 -81.391898 
L 328.387022 -80.78478 
L 331.666361 -80.460409 
L 334.9457 -80.072174 
L 338.225039 -79.659869 
L 341.504378 -77.572669 
L 344.783716 -78.803554 
L 348.063055 -77.955342 
L 351.342394 -77.614201 
L 354.621733 -77.569765 
L 357.901072 -77.198745 
L 361.180411 -77.649942 
L 364.459749 -77.132852 
L 367.739088 -76.675323 
L 371.018427 -76.495673 
L 374.297766 -76.555483 
L 377.577105 -75.233832 
L 380.856444 -75.082091 
L 384.135783 -74.981057 
L 387.415121 -75.000026 
L 390.69446 -73.794405 
L 390.69446 -99.453492 
L 390.69446 -99.453492 
L 387.415121 -100.871104 
L 384.135783 -99.72157 
L 380.856444 -99.269407 
L 377.577105 -100.610304 
L 374.297766 -101.018033 
L 371.018427 -100.465874 
L 367.739088 -101.354489 
L 364.459749 -102.034295 
L 361.180411 -102.596466 
L 357.901072 -102.491161 
L 354.621733 -103.82879 
L 351.342394 -104.484955 
L 348.063055 -104.083728 
L 344.783716 -106.075139 
L 341.504378 -105.066825 
L 338.225039 -108.731281 
L 334.9457 -106.964751 
L 331.666361 -106.950326 
L 328.387022 -107.46982 
L 325.107683 -107.35358 
L 321.828345 -108.313296 
L 318.549006 -109.709105 
L 315.269667 -109.962159 
L 311.990328 -110.608182 
L 308.710989 -110.039483 
L 305.43165 -110.562367 
L 302.152311 -111.865844 
L 298.872973 -111.877007 
L 295.593634 -111.091986 
L 292.314295 -112.440827 
L 289.034956 -112.762554 
L 285.755617 -113.218445 
L 282.476278 -113.959731 
L 279.19694 -113.626468 
L 275.917601 -114.336561 
L 272.638262 -115.328447 
L 269.358923 -117.423984 
L 266.079584 -117.653287 
L 262.800245 -118.173527 
L 259.520907 -119.326922 
L 256.241568 -118.098976 
L 252.962229 -120.632462 
L 249.68289 -121.665866 
L 246.403551 -124.620142 
L 243.124212 -124.297065 
L 239.844873 -125.473307 
L 236.565535 -125.975375 
L 233.286196 -126.939149 
L 230.006857 -126.491139 
L 226.727518 -128.303691 
L 223.448179 -131.508916 
L 220.16884 -130.493482 
L 216.889502 -129.640712 
L 213.610163 -132.067575 
L 210.330824 -132.629862 
L 207.051485 -135.962075 
L 203.772146 -137.230281 
L 200.492807 -138.04116 
L 197.213468 -138.703127 
L 193.93413 -140.788101 
L 190.654791 -139.417707 
L 187.375452 -140.27621 
L 184.096113 -142.257289 
L 180.816774 -143.863764 
L 177.537435 -143.208526 
L 174.258097 -145.624694 
L 170.978758 -148.144588 
L 167.699419 -147.648776 
L 164.42008 -149.301619 
L 161.140741 -150.533356 
L 157.861402 -150.775828 
L 154.582064 -154.806251 
L 151.302725 -157.340126 
L 148.023386 -159.520562 
L 144.744047 -161.288092 
L 141.464708 -165.437306 
L 138.185369 -164.498638 
L 134.90603 -165.68791 
L 131.626692 -169.083373 
L 128.347353 -169.4182 
L 125.068014 -172.324672 
L 121.788675 -172.922025 
L 118.509336 -178.991721 
L 115.229997 -181.167296 
L 111.950659 -184.271461 
L 108.67132 -187.901422 
L 105.391981 -193.071624 
L 102.112642 -195.553245 
L 98.833303 -197.656462 
L 95.553964 -204.439526 
L 92.274626 -205.70354 
L 88.995287 -212.245878 
L 85.715948 -219.060723 
L 82.436609 -221.616811 
L 79.15727 -224.982063 
L 75.877931 -227.618107 
L 72.598592 -232.903208 
L 69.319254 -235.599353 
L 66.039915 -239.783333 
z
" style="stroke: #8172b3; stroke-opacity: 0.2"/>
    </defs>
    <g clip-path="url(#p2554a06ff3)">
     <use xlink:href="#m0d5159f33c" x="0" y="316.271687" style="fill: #8172b3; fill-opacity: 0.2; stroke: #8172b3; stroke-opacity: 0.2"/>
    </g>
   </g>
   <g id="line2d_14">
    <path d="M 66.039915 85.083269 
L 69.319254 131.600773 
L 72.598592 152.640711 
L 75.877931 173.426793 
L 79.15727 200.934829 
L 82.436609 211.228526 
L 85.715948 224.177959 
L 88.995287 223.9596 
L 92.274626 231.688218 
L 95.553964 245.467101 
L 98.833303 245.617823 
L 102.112642 244.6493 
L 105.391981 246.90997 
L 108.67132 249.822159 
L 111.950659 249.962316 
L 115.229997 248.537746 
L 118.509336 249.805572 
L 121.788675 252.601069 
L 125.068014 249.317709 
L 128.347353 250.139177 
L 131.626692 251.671528 
L 134.90603 251.545968 
L 138.185369 253.98958 
L 141.464708 253.604963 
L 144.744047 252.698691 
L 148.023386 253.939179 
L 151.302725 255.674558 
L 154.582064 255.656879 
L 157.861402 254.193242 
L 161.140741 254.435732 
L 164.42008 253.275717 
L 167.699419 255.097448 
L 170.978758 255.22799 
L 174.258097 255.203838 
L 177.537435 255.842971 
L 180.816774 256.415201 
L 184.096113 256.61012 
L 187.375452 256.544891 
L 190.654791 256.203098 
L 193.93413 256.42688 
L 197.213468 257.244075 
L 200.492807 257.733181 
L 203.772146 257.558992 
L 207.051485 257.542936 
L 210.330824 255.922651 
L 213.610163 256.223294 
L 216.889502 256.952448 
L 220.16884 257.373449 
L 223.448179 257.243254 
L 226.727518 257.928842 
L 230.006857 258.052288 
L 233.286196 258.311384 
L 236.565535 258.385649 
L 239.844873 258.769937 
L 243.124212 258.739248 
L 246.403551 258.907236 
L 249.68289 258.593549 
L 252.962229 258.530878 
L 256.241568 258.425619 
L 259.520907 259.046639 
L 262.800245 258.920994 
L 266.079584 258.935758 
L 269.358923 259.324254 
L 272.638262 259.109232 
L 275.917601 259.486248 
L 279.19694 259.654728 
L 282.476278 259.343707 
L 285.755617 259.529469 
L 289.034956 259.56653 
L 292.314295 259.643921 
L 295.593634 259.716517 
L 298.872973 259.284239 
L 302.152311 259.589048 
L 305.43165 259.20162 
L 308.710989 259.91086 
L 311.990328 259.929472 
L 315.269667 259.472724 
L 318.549006 259.319516 
L 321.828345 259.76711 
L 325.107683 259.883227 
L 328.387022 260.050561 
L 331.666361 259.180089 
L 334.9457 259.326043 
L 338.225039 259.40978 
L 341.504378 259.867981 
L 344.783716 259.724233 
L 348.063055 259.700746 
L 351.342394 259.870402 
L 354.621733 260.211305 
L 357.901072 260.0082 
L 361.180411 260.023067 
L 364.459749 260.027868 
L 367.739088 259.935909 
L 371.018427 260.332643 
L 374.297766 260.311524 
L 377.577105 260.169937 
L 380.856444 260.207852 
L 384.135783 260.281034 
L 387.415121 260.222358 
L 390.69446 259.869222 
" clip-path="url(#p2554a06ff3)" style="fill: none; stroke: #4c72b0; stroke-width: 1.5; stroke-linecap: round"/>
   </g>
   <g id="line2d_15">
    <path d="M 66.039915 65.074191 
L 69.319254 91.012904 
L 72.598592 95.20302 
L 75.877931 127.450463 
L 79.15727 154.699605 
L 82.436609 161.667624 
L 85.715948 188.177461 
L 88.995287 174.764304 
L 92.274626 190.558394 
L 95.553964 217.777107 
L 98.833303 208.671659 
L 102.112642 206.455128 
L 105.391981 203.651836 
L 108.67132 225.477266 
L 111.950659 224.178917 
L 115.229997 216.822477 
L 118.509336 221.642593 
L 121.788675 231.096137 
L 125.068014 207.414455 
L 128.347353 213.865107 
L 131.626692 219.694053 
L 134.90603 220.40481 
L 138.185369 227.53866 
L 141.464708 225.605465 
L 144.744047 223.206867 
L 148.023386 223.228657 
L 151.302725 231.178751 
L 154.582064 231.62773 
L 157.861402 213.455006 
L 161.140741 224.381319 
L 164.42008 213.082949 
L 167.699419 232.568166 
L 170.978758 232.996501 
L 174.258097 231.192689 
L 177.537435 237.581233 
L 180.816774 239.833558 
L 184.096113 237.019319 
L 187.375452 239.071923 
L 190.654791 235.195754 
L 193.93413 233.145437 
L 197.213468 237.613058 
L 200.492807 241.360236 
L 203.772146 240.902803 
L 207.051485 242.092103 
L 210.330824 243.890163 
L 213.610163 236.461113 
L 216.889502 243.717928 
L 220.16884 233.820246 
L 223.448179 234.532216 
L 226.727518 241.200219 
L 230.006857 240.17832 
L 233.286196 242.200569 
L 236.565535 234.937996 
L 239.844873 243.138894 
L 243.124212 246.813655 
L 246.403551 243.58626 
L 249.68289 239.809701 
L 252.962229 233.001654 
L 256.241568 238.319431 
L 259.520907 242.178455 
L 262.800245 242.85111 
L 266.079584 242.482642 
L 269.358923 247.693197 
L 272.638262 240.661694 
L 275.917601 246.801435 
L 279.19694 247.42399 
L 282.476278 242.430058 
L 285.755617 246.170599 
L 289.034956 242.565303 
L 292.314295 244.85102 
L 295.593634 240.357534 
L 298.872973 237.644121 
L 302.152311 241.515862 
L 305.43165 230.789417 
L 308.710989 248.222631 
L 311.990328 243.500479 
L 315.269667 240.635029 
L 318.549006 246.721707 
L 321.828345 251.295907 
L 325.107683 248.605718 
L 328.387022 250.347634 
L 331.666361 246.29387 
L 334.9457 240.337613 
L 338.225039 235.266228 
L 341.504378 248.883483 
L 344.783716 246.151631 
L 348.063055 250.213469 
L 351.342394 249.384269 
L 354.621733 250.126883 
L 357.901072 248.462078 
L 361.180411 247.209387 
L 364.459749 252.320585 
L 367.739088 248.024389 
L 371.018427 251.591207 
L 374.297766 249.941808 
L 377.577105 248.79739 
L 380.856444 246.810241 
L 384.135783 249.405537 
L 387.415121 249.135711 
L 390.69446 250.504671 
" clip-path="url(#p2554a06ff3)" style="fill: none; stroke: #dd8452; stroke-width: 1.5; stroke-linecap: round"/>
   </g>
   <g id="line2d_16">
    <path d="M 66.039915 69.863198 
L 69.319254 112.539446 
L 72.598592 128.026497 
L 75.877931 139.265931 
L 79.15727 154.076109 
L 82.436609 164.594974 
L 85.715948 170.627972 
L 88.995287 184.814789 
L 92.274626 197.390708 
L 95.553964 203.086054 
L 98.833303 212.655552 
L 102.112642 214.856465 
L 105.391981 218.711754 
L 108.67132 220.905761 
L 111.950659 222.886643 
L 115.229997 227.56238 
L 118.509336 228.458253 
L 121.788675 230.59007 
L 125.068014 230.898624 
L 128.347353 230.54026 
L 131.626692 231.054378 
L 134.90603 231.363228 
L 138.185369 234.047342 
L 141.464708 234.133673 
L 144.744047 236.533326 
L 148.023386 237.614836 
L 151.302725 238.408238 
L 154.582064 239.106306 
L 157.861402 239.688865 
L 161.140741 240.23433 
L 164.42008 240.620662 
L 167.699419 240.977244 
L 170.978758 241.684213 
L 174.258097 242.41056 
L 177.537435 243.000399 
L 180.816774 243.237411 
L 184.096113 243.499523 
L 187.375452 243.994561 
L 190.654791 244.275245 
L 193.93413 244.084786 
L 197.213468 244.642807 
L 200.492807 244.767049 
L 203.772146 244.895307 
L 207.051485 244.622377 
L 210.330824 245.673676 
L 213.610163 245.925103 
L 216.889502 245.931072 
L 220.16884 246.354418 
L 223.448179 246.300993 
L 226.727518 246.520774 
L 230.006857 248.376858 
L 233.286196 248.520531 
L 236.565535 249.600123 
L 239.844873 250.088041 
L 243.124212 250.195079 
L 246.403551 250.124684 
L 249.68289 250.189132 
L 252.962229 250.891751 
L 256.241568 250.96161 
L 259.520907 250.549226 
L 262.800245 250.815115 
L 266.079584 251.037107 
L 269.358923 251.707105 
L 272.638262 252.193951 
L 275.917601 252.416794 
L 279.19694 252.612302 
L 282.476278 252.680211 
L 285.755617 252.783303 
L 289.034956 253.064446 
L 292.314295 253.187139 
L 295.593634 252.976409 
L 298.872973 253.276199 
L 302.152311 253.169075 
L 305.43165 253.203002 
L 308.710989 253.058616 
L 311.990328 252.948415 
L 315.269667 253.18212 
L 318.549006 252.813482 
L 321.828345 252.863805 
L 325.107683 252.874529 
L 328.387022 252.943088 
L 331.666361 253.321021 
L 334.9457 253.645802 
L 338.225039 253.776524 
L 341.504378 253.788343 
L 344.783716 253.579054 
L 348.063055 253.697963 
L 351.342394 253.779982 
L 354.621733 254.270917 
L 357.901072 254.239596 
L 361.180411 254.351107 
L 364.459749 254.978962 
L 367.739088 254.943621 
L 371.018427 254.952302 
L 374.297766 254.899426 
L 377.577105 254.876908 
L 380.856444 254.610872 
L 384.135783 254.703242 
L 387.415121 254.573776 
L 390.69446 255.123654 
" clip-path="url(#p2554a06ff3)" style="fill: none; stroke: #55a868; stroke-width: 1.5; stroke-linecap: round"/>
   </g>
   <g id="line2d_17">
    <path d="M 66.039915 92.628662 
L 69.319254 105.943586 
L 72.598592 104.375785 
L 75.877931 104.416924 
L 79.15727 98.002113 
L 82.436609 125.100867 
L 85.715948 143.77851 
L 88.995287 136.137572 
L 92.274626 132.244692 
L 95.553964 145.49458 
L 98.833303 166.931975 
L 102.112642 178.502087 
L 105.391981 186.004668 
L 108.67132 196.683468 
L 111.950659 202.077108 
L 115.229997 206.440555 
L 118.509336 212.327903 
L 121.788675 216.557923 
L 125.068014 220.082354 
L 128.347353 224.756039 
L 131.626692 226.466158 
L 134.90603 229.411555 
L 138.185369 232.587853 
L 141.464708 233.361575 
L 144.744047 236.144723 
L 148.023386 237.813775 
L 151.302725 239.527928 
L 154.582064 240.165321 
L 157.861402 241.190443 
L 161.140741 242.521496 
L 164.42008 243.117025 
L 167.699419 242.903535 
L 170.978758 243.838343 
L 174.258097 244.338684 
L 177.537435 244.777025 
L 180.816774 245.664157 
L 184.096113 246.409174 
L 187.375452 246.72041 
L 190.654791 247.295249 
L 193.93413 248.540721 
L 197.213468 249.02653 
L 200.492807 249.536571 
L 203.772146 249.793905 
L 207.051485 250.104209 
L 210.330824 250.423925 
L 213.610163 250.781449 
L 216.889502 250.75046 
L 220.16884 251.16392 
L 223.448179 251.420502 
L 226.727518 251.688452 
L 230.006857 252.2878 
L 233.286196 252.439686 
L 236.565535 252.68901 
L 239.844873 253.408651 
L 243.124212 253.515248 
L 246.403551 254.075788 
L 249.68289 254.257695 
L 252.962229 254.466933 
L 256.241568 254.65286 
L 259.520907 254.881615 
L 262.800245 254.998035 
L 266.079584 255.112186 
L 269.358923 255.587294 
L 272.638262 255.618064 
L 275.917601 255.818508 
L 279.19694 255.584767 
L 282.476278 255.530731 
L 285.755617 255.481795 
L 289.034956 255.372074 
L 292.314295 255.441937 
L 295.593634 256.004931 
L 298.872973 256.376947 
L 302.152311 256.772527 
L 305.43165 256.734131 
L 308.710989 256.715402 
L 311.990328 256.753736 
L 315.269667 256.894896 
L 318.549006 257.100706 
L 321.828345 257.087384 
L 325.107683 257.059897 
L 328.387022 257.091828 
L 331.666361 257.112606 
L 334.9457 257.217867 
L 338.225039 257.259673 
L 341.504378 257.400431 
L 344.783716 257.509333 
L 348.063055 257.57382 
L 351.342394 257.606915 
L 354.621733 257.618379 
L 357.901072 257.66286 
L 361.180411 257.676962 
L 364.459749 257.919419 
L 367.739088 257.915758 
L 371.018427 257.912859 
L 374.297766 257.990073 
L 377.577105 257.942484 
L 380.856444 257.971576 
L 384.135783 258.062955 
L 387.415121 258.221474 
L 390.69446 258.240893 
" clip-path="url(#p2554a06ff3)" style="fill: none; stroke: #c44e52; stroke-width: 1.5; stroke-linecap: round"/>
   </g>
   <g id="line2d_18">
    <path d="M 66.039915 80.978722 
L 69.319254 89.038452 
L 72.598592 92.413554 
L 75.877931 98.10626 
L 79.15727 101.745097 
L 82.436609 107.301485 
L 85.715948 111.397054 
L 88.995287 117.219847 
L 92.274626 124.44616 
L 95.553964 127.063544 
L 98.833303 133.029487 
L 102.112642 135.572917 
L 105.391981 138.520021 
L 108.67132 143.318653 
L 111.950659 146.090142 
L 115.229997 149.265413 
L 118.509336 151.916985 
L 121.788675 156.614222 
L 125.068014 159.392139 
L 128.347353 162.58885 
L 131.626692 163.819649 
L 134.90603 165.548221 
L 138.185369 167.35945 
L 141.464708 168.480456 
L 144.744047 170.586359 
L 148.023386 172.483671 
L 151.302725 174.488953 
L 154.582064 176.444474 
L 157.861402 179.914898 
L 161.140741 181.891852 
L 164.42008 182.804053 
L 167.699419 184.086958 
L 170.978758 185.181582 
L 174.258097 186.156056 
L 177.537435 188.098172 
L 180.816774 189.287269 
L 184.096113 189.931079 
L 187.375452 190.941178 
L 190.654791 191.719975 
L 193.93413 192.064464 
L 197.213468 193.371907 
L 200.492807 194.625392 
L 203.772146 195.509568 
L 207.051485 196.72893 
L 210.330824 198.795902 
L 213.610163 199.314657 
L 216.889502 200.714417 
L 220.16884 201.738657 
L 223.448179 202.691452 
L 226.727518 203.331149 
L 230.006857 203.710856 
L 233.286196 204.664205 
L 236.565535 205.185705 
L 239.844873 206.36196 
L 243.124212 206.845803 
L 246.403551 207.48978 
L 249.68289 208.658214 
L 252.962229 209.643068 
L 256.241568 210.750344 
L 259.520907 211.537435 
L 262.800245 211.717413 
L 266.079584 213.035709 
L 269.358923 213.894406 
L 272.638262 214.484707 
L 275.917601 215.606558 
L 279.19694 216.070608 
L 282.476278 216.585797 
L 285.755617 217.818841 
L 289.034956 218.364569 
L 292.314295 219.200898 
L 295.593634 219.07192 
L 298.872973 218.892436 
L 302.152311 220.261747 
L 305.43165 220.412927 
L 308.710989 221.052608 
L 311.990328 221.171784 
L 315.269667 221.432385 
L 318.549006 221.771965 
L 321.828345 222.563599 
L 325.107683 222.76031 
L 328.387022 223.10809 
L 331.666361 223.279242 
L 334.9457 223.350842 
L 338.225039 223.74899 
L 341.504378 224.72406 
L 344.783716 224.753407 
L 348.063055 225.782587 
L 351.342394 225.758455 
L 354.621733 226.883446 
L 357.901072 226.897426 
L 361.180411 227.132811 
L 364.459749 227.549854 
L 367.739088 228.11779 
L 371.018427 228.36668 
L 374.297766 228.921344 
L 377.577105 229.244488 
L 380.856444 229.732338 
L 384.135783 229.831655 
L 387.415121 229.944672 
L 390.69446 230.247913 
" clip-path="url(#p2554a06ff3)" style="fill: none; stroke: #8172b3; stroke-width: 1.5; stroke-linecap: round"/>
   </g>
   <g id="line2d_19"/>
   <g id="line2d_20"/>
   <g id="line2d_21"/>
   <g id="line2d_22"/>
   <g id="line2d_23"/>
   <g id="patch_3">
    <path d="M 49.807187 273.312 
L 49.807187 7.2 
" style="fill: none; stroke: #cccccc; stroke-width: 1.25; stroke-linejoin: miter; stroke-linecap: square"/>
   </g>
   <g id="patch_4">
    <path d="M 406.927188 273.312 
L 406.927188 7.2 
" style="fill: none; stroke: #cccccc; stroke-width: 1.25; stroke-linejoin: miter; stroke-linecap: square"/>
   </g>
   <g id="patch_5">
    <path d="M 49.807187 273.312 
L 406.927188 273.312 
" style="fill: none; stroke: #cccccc; stroke-width: 1.25; stroke-linejoin: miter; stroke-linecap: square"/>
   </g>
   <g id="patch_6">
    <path d="M 49.807187 7.2 
L 406.927188 7.2 
" style="fill: none; stroke: #cccccc; stroke-width: 1.25; stroke-linejoin: miter; stroke-linecap: square"/>
   </g>
   <g id="legend_1">
    <g id="patch_7">
     <path d="M 295.242813 113.843437 
L 399.227188 113.843437 
Q 401.427188 113.843437 401.427188 111.643437 
L 401.427188 14.9 
Q 401.427188 12.7 399.227188 12.7 
L 295.242813 12.7 
Q 293.042813 12.7 293.042813 14.9 
L 293.042813 111.643437 
Q 293.042813 113.843437 295.242813 113.843437 
z
" style="fill: #ffffff; opacity: 0.8; stroke: #cccccc; stroke-linejoin: miter"/>
    </g>
    <g id="text_16">
     <!-- Strategy -->
     <g style="fill: #262626" transform="translate(321.525937 26.218125) scale(0.12 -0.12)">
      <defs>
       <path id="DejaVuSans-53" d="M 3425 4513 
L 3425 3897 
Q 3066 4069 2747 4153 
Q 2428 4238 2131 4238 
Q 1616 4238 1336 4038 
Q 1056 3838 1056 3469 
Q 1056 3159 1242 3001 
Q 1428 2844 1947 2747 
L 2328 2669 
Q 3034 2534 3370 2195 
Q 3706 1856 3706 1288 
Q 3706 609 3251 259 
Q 2797 -91 1919 -91 
Q 1588 -91 1214 -16 
Q 841 59 441 206 
L 441 856 
Q 825 641 1194 531 
Q 1563 422 1919 422 
Q 2459 422 2753 634 
Q 3047 847 3047 1241 
Q 3047 1584 2836 1778 
Q 2625 1972 2144 2069 
L 1759 2144 
Q 1053 2284 737 2584 
Q 422 2884 422 3419 
Q 422 4038 858 4394 
Q 1294 4750 2059 4750 
Q 2388 4750 2728 4690 
Q 3069 4631 3425 4513 
z
" transform="scale(0.015625)"/>
       <path id="DejaVuSans-74" d="M 1172 4494 
L 1172 3500 
L 2356 3500 
L 2356 3053 
L 1172 3053 
L 1172 1153 
Q 1172 725 1289 603 
Q 1406 481 1766 481 
L 2356 481 
L 2356 0 
L 1766 0 
Q 1100 0 847 248 
Q 594 497 594 1153 
L 594 3053 
L 172 3053 
L 172 3500 
L 594 3500 
L 594 4494 
L 1172 4494 
z
" transform="scale(0.015625)"/>
       <path id="DejaVuSans-72" d="M 2631 2963 
Q 2534 3019 2420 3045 
Q 2306 3072 2169 3072 
Q 1681 3072 1420 2755 
Q 1159 2438 1159 1844 
L 1159 0 
L 581 0 
L 581 3500 
L 1159 3500 
L 1159 2956 
Q 1341 3275 1631 3429 
Q 1922 3584 2338 3584 
Q 2397 3584 2469 3576 
Q 2541 3569 2628 3553 
L 2631 2963 
z
" transform="scale(0.015625)"/>
       <path id="DejaVuSans-61" d="M 2194 1759 
Q 1497 1759 1228 1600 
Q 959 1441 959 1056 
Q 959 750 1161 570 
Q 1363 391 1709 391 
Q 2188 391 2477 730 
Q 2766 1069 2766 1631 
L 2766 1759 
L 2194 1759 
z
M 3341 1997 
L 3341 0 
L 2766 0 
L 2766 531 
Q 2569 213 2275 61 
Q 1981 -91 1556 -91 
Q 1019 -91 701 211 
Q 384 513 384 1019 
Q 384 1609 779 1909 
Q 1175 2209 1959 2209 
L 2766 2209 
L 2766 2266 
Q 2766 2663 2505 2880 
Q 2244 3097 1772 3097 
Q 1472 3097 1187 3025 
Q 903 2953 641 2809 
L 641 3341 
Q 956 3463 1253 3523 
Q 1550 3584 1831 3584 
Q 2591 3584 2966 3190 
Q 3341 2797 3341 1997 
z
" transform="scale(0.015625)"/>
       <path id="DejaVuSans-65" d="M 3597 1894 
L 3597 1613 
L 953 1613 
Q 991 1019 1311 708 
Q 1631 397 2203 397 
Q 2534 397 2845 478 
Q 3156 559 3463 722 
L 3463 178 
Q 3153 47 2828 -22 
Q 2503 -91 2169 -91 
Q 1331 -91 842 396 
Q 353 884 353 1716 
Q 353 2575 817 3079 
Q 1281 3584 2069 3584 
Q 2775 3584 3186 3129 
Q 3597 2675 3597 1894 
z
M 3022 2063 
Q 3016 2534 2758 2815 
Q 2500 3097 2075 3097 
Q 1594 3097 1305 2825 
Q 1016 2553 972 2059 
L 3022 2063 
z
" transform="scale(0.015625)"/>
       <path id="DejaVuSans-67" d="M 2906 1791 
Q 2906 2416 2648 2759 
Q 2391 3103 1925 3103 
Q 1463 3103 1205 2759 
Q 947 2416 947 1791 
Q 947 1169 1205 825 
Q 1463 481 1925 481 
Q 2391 481 2648 825 
Q 2906 1169 2906 1791 
z
M 3481 434 
Q 3481 -459 3084 -895 
Q 2688 -1331 1869 -1331 
Q 1566 -1331 1297 -1286 
Q 1028 -1241 775 -1147 
L 775 -588 
Q 1028 -725 1275 -790 
Q 1522 -856 1778 -856 
Q 2344 -856 2625 -561 
Q 2906 -266 2906 331 
L 2906 616 
Q 2728 306 2450 153 
Q 2172 0 1784 0 
Q 1141 0 747 490 
Q 353 981 353 1791 
Q 353 2603 747 3093 
Q 1141 3584 1784 3584 
Q 2172 3584 2450 3431 
Q 2728 3278 2906 2969 
L 2906 3500 
L 3481 3500 
L 3481 434 
z
" transform="scale(0.015625)"/>
       <path id="DejaVuSans-79" d="M 2059 -325 
Q 1816 -950 1584 -1140 
Q 1353 -1331 966 -1331 
L 506 -1331 
L 506 -850 
L 844 -850 
Q 1081 -850 1212 -737 
Q 1344 -625 1503 -206 
L 1606 56 
L 191 3500 
L 800 3500 
L 1894 763 
L 2988 3500 
L 3597 3500 
L 2059 -325 
z
" transform="scale(0.015625)"/>
      </defs>
      <use xlink:href="#DejaVuSans-53"/>
      <use xlink:href="#DejaVuSans-74" x="63.476562"/>
      <use xlink:href="#DejaVuSans-72" x="102.685547"/>
      <use xlink:href="#DejaVuSans-61" x="143.798828"/>
      <use xlink:href="#DejaVuSans-74" x="205.078125"/>
      <use xlink:href="#DejaVuSans-65" x="244.287109"/>
      <use xlink:href="#DejaVuSans-67" x="305.810547"/>
      <use xlink:href="#DejaVuSans-79" x="369.287109"/>
     </g>
    </g>
    <g id="line2d_24">
     <path d="M 297.442813 38.722031 
L 308.442813 38.722031 
L 319.442813 38.722031 
" style="fill: none; stroke: #4c72b0; stroke-width: 1.5; stroke-linecap: round"/>
    </g>
    <g id="text_17">
     <!-- FedPredict -->
     <g style="fill: #262626" transform="translate(328.242813 42.572031) scale(0.11 -0.11)">
      <defs>
       <path id="DejaVuSans-46" d="M 628 4666 
L 3309 4666 
L 3309 4134 
L 1259 4134 
L 1259 2759 
L 3109 2759 
L 3109 2228 
L 1259 2228 
L 1259 0 
L 628 0 
L 628 4666 
z
" transform="scale(0.015625)"/>
       <path id="DejaVuSans-50" d="M 1259 4147 
L 1259 2394 
L 2053 2394 
Q 2494 2394 2734 2622 
Q 2975 2850 2975 3272 
Q 2975 3691 2734 3919 
Q 2494 4147 2053 4147 
L 1259 4147 
z
M 628 4666 
L 2053 4666 
Q 2838 4666 3239 4311 
Q 3641 3956 3641 3272 
Q 3641 2581 3239 2228 
Q 2838 1875 2053 1875 
L 1259 1875 
L 1259 0 
L 628 0 
L 628 4666 
z
" transform="scale(0.015625)"/>
       <path id="DejaVuSans-69" d="M 603 3500 
L 1178 3500 
L 1178 0 
L 603 0 
L 603 3500 
z
M 603 4863 
L 1178 4863 
L 1178 4134 
L 603 4134 
L 603 4863 
z
" transform="scale(0.015625)"/>
       <path id="DejaVuSans-63" d="M 3122 3366 
L 3122 2828 
Q 2878 2963 2633 3030 
Q 2388 3097 2138 3097 
Q 1578 3097 1268 2742 
Q 959 2388 959 1747 
Q 959 1106 1268 751 
Q 1578 397 2138 397 
Q 2388 397 2633 464 
Q 2878 531 3122 666 
L 3122 134 
Q 2881 22 2623 -34 
Q 2366 -91 2075 -91 
Q 1284 -91 818 406 
Q 353 903 353 1747 
Q 353 2603 823 3093 
Q 1294 3584 2113 3584 
Q 2378 3584 2631 3529 
Q 2884 3475 3122 3366 
z
" transform="scale(0.015625)"/>
      </defs>
      <use xlink:href="#DejaVuSans-46"/>
      <use xlink:href="#DejaVuSans-65" x="52.019531"/>
      <use xlink:href="#DejaVuSans-64" x="113.542969"/>
      <use xlink:href="#DejaVuSans-50" x="177.019531"/>
      <use xlink:href="#DejaVuSans-72" x="235.572266"/>
      <use xlink:href="#DejaVuSans-65" x="274.435547"/>
      <use xlink:href="#DejaVuSans-64" x="335.958984"/>
      <use xlink:href="#DejaVuSans-69" x="399.435547"/>
      <use xlink:href="#DejaVuSans-63" x="427.21875"/>
      <use xlink:href="#DejaVuSans-74" x="482.199219"/>
     </g>
    </g>
    <g id="line2d_25">
     <path d="M 297.442813 54.867969 
L 308.442813 54.867969 
L 319.442813 54.867969 
" style="fill: none; stroke: #dd8452; stroke-width: 1.5; stroke-linecap: round"/>
    </g>
    <g id="text_18">
     <!-- FedAVG -->
     <g style="fill: #262626" transform="translate(328.242813 58.717969) scale(0.11 -0.11)">
      <defs>
       <path id="DejaVuSans-41" d="M 2188 4044 
L 1331 1722 
L 3047 1722 
L 2188 4044 
z
M 1831 4666 
L 2547 4666 
L 4325 0 
L 3669 0 
L 3244 1197 
L 1141 1197 
L 716 0 
L 50 0 
L 1831 4666 
z
" transform="scale(0.015625)"/>
       <path id="DejaVuSans-56" d="M 1831 0 
L 50 4666 
L 709 4666 
L 2188 738 
L 3669 4666 
L 4325 4666 
L 2547 0 
L 1831 0 
z
" transform="scale(0.015625)"/>
       <path id="DejaVuSans-47" d="M 3809 666 
L 3809 1919 
L 2778 1919 
L 2778 2438 
L 4434 2438 
L 4434 434 
Q 4069 175 3628 42 
Q 3188 -91 2688 -91 
Q 1594 -91 976 548 
Q 359 1188 359 2328 
Q 359 3472 976 4111 
Q 1594 4750 2688 4750 
Q 3144 4750 3555 4637 
Q 3966 4525 4313 4306 
L 4313 3634 
Q 3963 3931 3569 4081 
Q 3175 4231 2741 4231 
Q 1884 4231 1454 3753 
Q 1025 3275 1025 2328 
Q 1025 1384 1454 906 
Q 1884 428 2741 428 
Q 3075 428 3337 486 
Q 3600 544 3809 666 
z
" transform="scale(0.015625)"/>
      </defs>
      <use xlink:href="#DejaVuSans-46"/>
      <use xlink:href="#DejaVuSans-65" x="52.019531"/>
      <use xlink:href="#DejaVuSans-64" x="113.542969"/>
      <use xlink:href="#DejaVuSans-41" x="177.019531"/>
      <use xlink:href="#DejaVuSans-56" x="239.052734"/>
      <use xlink:href="#DejaVuSans-47" x="307.460938"/>
     </g>
    </g>
    <g id="line2d_26">
     <path d="M 297.442813 71.013906 
L 308.442813 71.013906 
L 319.442813 71.013906 
" style="fill: none; stroke: #55a868; stroke-width: 1.5; stroke-linecap: round"/>
    </g>
    <g id="text_19">
     <!-- FedClassAvg -->
     <g style="fill: #262626" transform="translate(328.242813 74.863906) scale(0.11 -0.11)">
      <defs>
       <path id="DejaVuSans-43" d="M 4122 4306 
L 4122 3641 
Q 3803 3938 3442 4084 
Q 3081 4231 2675 4231 
Q 1875 4231 1450 3742 
Q 1025 3253 1025 2328 
Q 1025 1406 1450 917 
Q 1875 428 2675 428 
Q 3081 428 3442 575 
Q 3803 722 4122 1019 
L 4122 359 
Q 3791 134 3420 21 
Q 3050 -91 2638 -91 
Q 1578 -91 968 557 
Q 359 1206 359 2328 
Q 359 3453 968 4101 
Q 1578 4750 2638 4750 
Q 3056 4750 3426 4639 
Q 3797 4528 4122 4306 
z
" transform="scale(0.015625)"/>
       <path id="DejaVuSans-6c" d="M 603 4863 
L 1178 4863 
L 1178 0 
L 603 0 
L 603 4863 
z
" transform="scale(0.015625)"/>
       <path id="DejaVuSans-76" d="M 191 3500 
L 800 3500 
L 1894 563 
L 2988 3500 
L 3597 3500 
L 2284 0 
L 1503 0 
L 191 3500 
z
" transform="scale(0.015625)"/>
      </defs>
      <use xlink:href="#DejaVuSans-46"/>
      <use xlink:href="#DejaVuSans-65" x="52.019531"/>
      <use xlink:href="#DejaVuSans-64" x="113.542969"/>
      <use xlink:href="#DejaVuSans-43" x="177.019531"/>
      <use xlink:href="#DejaVuSans-6c" x="246.84375"/>
      <use xlink:href="#DejaVuSans-61" x="274.626953"/>
      <use xlink:href="#DejaVuSans-73" x="335.90625"/>
      <use xlink:href="#DejaVuSans-73" x="388.005859"/>
      <use xlink:href="#DejaVuSans-41" x="440.105469"/>
      <use xlink:href="#DejaVuSans-76" x="502.638672"/>
      <use xlink:href="#DejaVuSans-67" x="561.818359"/>
     </g>
    </g>
    <g id="line2d_27">
     <path d="M 297.442813 87.159844 
L 308.442813 87.159844 
L 319.442813 87.159844 
" style="fill: none; stroke: #c44e52; stroke-width: 1.5; stroke-linecap: round"/>
    </g>
    <g id="text_20">
     <!-- FedPer -->
     <g style="fill: #262626" transform="translate(328.242813 91.009844) scale(0.11 -0.11)">
      <use xlink:href="#DejaVuSans-46"/>
      <use xlink:href="#DejaVuSans-65" x="52.019531"/>
      <use xlink:href="#DejaVuSans-64" x="113.542969"/>
      <use xlink:href="#DejaVuSans-50" x="177.019531"/>
      <use xlink:href="#DejaVuSans-65" x="233.697266"/>
      <use xlink:href="#DejaVuSans-72" x="295.220703"/>
     </g>
    </g>
    <g id="line2d_28">
     <path d="M 297.442813 103.305781 
L 308.442813 103.305781 
L 319.442813 103.305781 
" style="fill: none; stroke: #8172b3; stroke-width: 1.5; stroke-linecap: round"/>
    </g>
    <g id="text_21">
     <!-- FedProto -->
     <g style="fill: #262626" transform="translate(328.242813 107.155781) scale(0.11 -0.11)">
      <use xlink:href="#DejaVuSans-46"/>
      <use xlink:href="#DejaVuSans-65" x="52.019531"/>
      <use xlink:href="#DejaVuSans-64" x="113.542969"/>
      <use xlink:href="#DejaVuSans-50" x="177.019531"/>
      <use xlink:href="#DejaVuSans-72" x="235.572266"/>
      <use xlink:href="#DejaVuSans-6f" x="274.435547"/>
      <use xlink:href="#DejaVuSans-74" x="335.617188"/>
      <use xlink:href="#DejaVuSans-6f" x="374.826172"/>
     </g>
    </g>
   </g>
  </g>
 </g>
 <defs>
  <clipPath id="p2554a06ff3">
   <rect x="49.807187" y="7.2" width="357.12" height="266.112"/>
  </clipPath>
 </defs>
</svg>
