<?xml version="1.0" encoding="utf-8" standalone="no"?>
<!DOCTYPE svg PUBLIC "-//W3C//DTD SVG 1.1//EN"
  "http://www.w3.org/Graphics/SVG/1.1/DTD/svg11.dtd">
<svg xmlns:xlink="http://www.w3.org/1999/xlink" width="414.127187pt" height="316.271687pt" viewBox="0 0 414.127187 316.271687" xmlns="http://www.w3.org/2000/svg" version="1.1">
 <metadata>
  <rdf:RDF xmlns:dc="http://purl.org/dc/elements/1.1/" xmlns:cc="http://creativecommons.org/ns#" xmlns:rdf="http://www.w3.org/1999/02/22-rdf-syntax-ns#">
   <cc:Work>
    <dc:type rdf:resource="http://purl.org/dc/dcmitype/StillImage"/>
    <dc:date>2023-02-06T21:02:17.242614</dc:date>
    <dc:format>image/svg+xml</dc:format>
    <dc:creator>
     <cc:Agent>
      <dc:title>Matplotlib v3.6.3, https://matplotlib.org/</dc:title>
     </cc:Agent>
    </dc:creator>
   </cc:Work>
  </rdf:RDF>
 </metadata>
 <defs>
  <style type="text/css">*{stroke-linejoin: round; stroke-linecap: butt}</style>
 </defs>
 <g id="figure_1">
  <g id="patch_1">
   <path d="M 0 316.271687 
L 414.127187 316.271687 
L 414.127187 0 
L 0 0 
z
" style="fill: #ffffff"/>
  </g>
  <g id="axes_1">
   <g id="patch_2">
    <path d="M 49.807187 273.312 
L 406.927188 273.312 
L 406.927188 7.2 
L 49.807187 7.2 
z
" style="fill: #ffffff"/>
   </g>
   <g id="matplotlib.axis_1">
    <g id="xtick_1">
     <g id="line2d_1">
      <path d="M 62.760576 273.312 
L 62.760576 7.2 
" clip-path="url(#p0f66ccbee1)" style="fill: none; stroke: #cccccc; stroke-linecap: round"/>
     </g>
     <g id="text_1">
      <!-- 0 -->
      <g style="fill: #262626" transform="translate(59.261201 291.170281) scale(0.11 -0.11)">
       <defs>
        <path id="DejaVuSans-30" d="M 2034 4250 
Q 1547 4250 1301 3770 
Q 1056 3291 1056 2328 
Q 1056 1369 1301 889 
Q 1547 409 2034 409 
Q 2525 409 2770 889 
Q 3016 1369 3016 2328 
Q 3016 3291 2770 3770 
Q 2525 4250 2034 4250 
z
M 2034 4750 
Q 2819 4750 3233 4129 
Q 3647 3509 3647 2328 
Q 3647 1150 3233 529 
Q 2819 -91 2034 -91 
Q 1250 -91 836 529 
Q 422 1150 422 2328 
Q 422 3509 836 4129 
Q 1250 4750 2034 4750 
z
" transform="scale(0.015625)"/>
       </defs>
       <use xlink:href="#DejaVuSans-30"/>
      </g>
     </g>
    </g>
    <g id="xtick_2">
     <g id="line2d_2">
      <path d="M 128.347353 273.312 
L 128.347353 7.2 
" clip-path="url(#p0f66ccbee1)" style="fill: none; stroke: #cccccc; stroke-linecap: round"/>
     </g>
     <g id="text_2">
      <!-- 20 -->
      <g style="fill: #262626" transform="translate(121.348603 291.170281) scale(0.11 -0.11)">
       <defs>
        <path id="DejaVuSans-32" d="M 1228 531 
L 3431 531 
L 3431 0 
L 469 0 
L 469 531 
Q 828 903 1448 1529 
Q 2069 2156 2228 2338 
Q 2531 2678 2651 2914 
Q 2772 3150 2772 3378 
Q 2772 3750 2511 3984 
Q 2250 4219 1831 4219 
Q 1534 4219 1204 4116 
Q 875 4013 500 3803 
L 500 4441 
Q 881 4594 1212 4672 
Q 1544 4750 1819 4750 
Q 2544 4750 2975 4387 
Q 3406 4025 3406 3419 
Q 3406 3131 3298 2873 
Q 3191 2616 2906 2266 
Q 2828 2175 2409 1742 
Q 1991 1309 1228 531 
z
" transform="scale(0.015625)"/>
       </defs>
       <use xlink:href="#DejaVuSans-32"/>
       <use xlink:href="#DejaVuSans-30" x="63.623047"/>
      </g>
     </g>
    </g>
    <g id="xtick_3">
     <g id="line2d_3">
      <path d="M 193.93413 273.312 
L 193.93413 7.2 
" clip-path="url(#p0f66ccbee1)" style="fill: none; stroke: #cccccc; stroke-linecap: round"/>
     </g>
     <g id="text_3">
      <!-- 40 -->
      <g style="fill: #262626" transform="translate(186.93538 291.170281) scale(0.11 -0.11)">
       <defs>
        <path id="DejaVuSans-34" d="M 2419 4116 
L 825 1625 
L 2419 1625 
L 2419 4116 
z
M 2253 4666 
L 3047 4666 
L 3047 1625 
L 3713 1625 
L 3713 1100 
L 3047 1100 
L 3047 0 
L 2419 0 
L 2419 1100 
L 313 1100 
L 313 1709 
L 2253 4666 
z
" transform="scale(0.015625)"/>
       </defs>
       <use xlink:href="#DejaVuSans-34"/>
       <use xlink:href="#DejaVuSans-30" x="63.623047"/>
      </g>
     </g>
    </g>
    <g id="xtick_4">
     <g id="line2d_4">
      <path d="M 259.520907 273.312 
L 259.520907 7.2 
" clip-path="url(#p0f66ccbee1)" style="fill: none; stroke: #cccccc; stroke-linecap: round"/>
     </g>
     <g id="text_4">
      <!-- 60 -->
      <g style="fill: #262626" transform="translate(252.522157 291.170281) scale(0.11 -0.11)">
       <defs>
        <path id="DejaVuSans-36" d="M 2113 2584 
Q 1688 2584 1439 2293 
Q 1191 2003 1191 1497 
Q 1191 994 1439 701 
Q 1688 409 2113 409 
Q 2538 409 2786 701 
Q 3034 994 3034 1497 
Q 3034 2003 2786 2293 
Q 2538 2584 2113 2584 
z
M 3366 4563 
L 3366 3988 
Q 3128 4100 2886 4159 
Q 2644 4219 2406 4219 
Q 1781 4219 1451 3797 
Q 1122 3375 1075 2522 
Q 1259 2794 1537 2939 
Q 1816 3084 2150 3084 
Q 2853 3084 3261 2657 
Q 3669 2231 3669 1497 
Q 3669 778 3244 343 
Q 2819 -91 2113 -91 
Q 1303 -91 875 529 
Q 447 1150 447 2328 
Q 447 3434 972 4092 
Q 1497 4750 2381 4750 
Q 2619 4750 2861 4703 
Q 3103 4656 3366 4563 
z
" transform="scale(0.015625)"/>
       </defs>
       <use xlink:href="#DejaVuSans-36"/>
       <use xlink:href="#DejaVuSans-30" x="63.623047"/>
      </g>
     </g>
    </g>
    <g id="xtick_5">
     <g id="line2d_5">
      <path d="M 325.107683 273.312 
L 325.107683 7.2 
" clip-path="url(#p0f66ccbee1)" style="fill: none; stroke: #cccccc; stroke-linecap: round"/>
     </g>
     <g id="text_5">
      <!-- 80 -->
      <g style="fill: #262626" transform="translate(318.108933 291.170281) scale(0.11 -0.11)">
       <defs>
        <path id="DejaVuSans-38" d="M 2034 2216 
Q 1584 2216 1326 1975 
Q 1069 1734 1069 1313 
Q 1069 891 1326 650 
Q 1584 409 2034 409 
Q 2484 409 2743 651 
Q 3003 894 3003 1313 
Q 3003 1734 2745 1975 
Q 2488 2216 2034 2216 
z
M 1403 2484 
Q 997 2584 770 2862 
Q 544 3141 544 3541 
Q 544 4100 942 4425 
Q 1341 4750 2034 4750 
Q 2731 4750 3128 4425 
Q 3525 4100 3525 3541 
Q 3525 3141 3298 2862 
Q 3072 2584 2669 2484 
Q 3125 2378 3379 2068 
Q 3634 1759 3634 1313 
Q 3634 634 3220 271 
Q 2806 -91 2034 -91 
Q 1263 -91 848 271 
Q 434 634 434 1313 
Q 434 1759 690 2068 
Q 947 2378 1403 2484 
z
M 1172 3481 
Q 1172 3119 1398 2916 
Q 1625 2713 2034 2713 
Q 2441 2713 2670 2916 
Q 2900 3119 2900 3481 
Q 2900 3844 2670 4047 
Q 2441 4250 2034 4250 
Q 1625 4250 1398 4047 
Q 1172 3844 1172 3481 
z
" transform="scale(0.015625)"/>
       </defs>
       <use xlink:href="#DejaVuSans-38"/>
       <use xlink:href="#DejaVuSans-30" x="63.623047"/>
      </g>
     </g>
    </g>
    <g id="xtick_6">
     <g id="line2d_6">
      <path d="M 390.69446 273.312 
L 390.69446 7.2 
" clip-path="url(#p0f66ccbee1)" style="fill: none; stroke: #cccccc; stroke-linecap: round"/>
     </g>
     <g id="text_6">
      <!-- 100 -->
      <g style="fill: #262626" transform="translate(380.196335 291.170281) scale(0.11 -0.11)">
       <defs>
        <path id="DejaVuSans-31" d="M 794 531 
L 1825 531 
L 1825 4091 
L 703 3866 
L 703 4441 
L 1819 4666 
L 2450 4666 
L 2450 531 
L 3481 531 
L 3481 0 
L 794 0 
L 794 531 
z
" transform="scale(0.015625)"/>
       </defs>
       <use xlink:href="#DejaVuSans-31"/>
       <use xlink:href="#DejaVuSans-30" x="63.623047"/>
       <use xlink:href="#DejaVuSans-30" x="127.246094"/>
      </g>
     </g>
    </g>
    <g id="text_7">
     <!-- Round -->
     <g style="fill: #262626" transform="translate(209.382812 306.576062) scale(0.12 -0.12)">
      <defs>
       <path id="DejaVuSans-52" d="M 2841 2188 
Q 3044 2119 3236 1894 
Q 3428 1669 3622 1275 
L 4263 0 
L 3584 0 
L 2988 1197 
Q 2756 1666 2539 1819 
Q 2322 1972 1947 1972 
L 1259 1972 
L 1259 0 
L 628 0 
L 628 4666 
L 2053 4666 
Q 2853 4666 3247 4331 
Q 3641 3997 3641 3322 
Q 3641 2881 3436 2590 
Q 3231 2300 2841 2188 
z
M 1259 4147 
L 1259 2491 
L 2053 2491 
Q 2509 2491 2742 2702 
Q 2975 2913 2975 3322 
Q 2975 3731 2742 3939 
Q 2509 4147 2053 4147 
L 1259 4147 
z
" transform="scale(0.015625)"/>
       <path id="DejaVuSans-6f" d="M 1959 3097 
Q 1497 3097 1228 2736 
Q 959 2375 959 1747 
Q 959 1119 1226 758 
Q 1494 397 1959 397 
Q 2419 397 2687 759 
Q 2956 1122 2956 1747 
Q 2956 2369 2687 2733 
Q 2419 3097 1959 3097 
z
M 1959 3584 
Q 2709 3584 3137 3096 
Q 3566 2609 3566 1747 
Q 3566 888 3137 398 
Q 2709 -91 1959 -91 
Q 1206 -91 779 398 
Q 353 888 353 1747 
Q 353 2609 779 3096 
Q 1206 3584 1959 3584 
z
" transform="scale(0.015625)"/>
       <path id="DejaVuSans-75" d="M 544 1381 
L 544 3500 
L 1119 3500 
L 1119 1403 
Q 1119 906 1312 657 
Q 1506 409 1894 409 
Q 2359 409 2629 706 
Q 2900 1003 2900 1516 
L 2900 3500 
L 3475 3500 
L 3475 0 
L 2900 0 
L 2900 538 
Q 2691 219 2414 64 
Q 2138 -91 1772 -91 
Q 1169 -91 856 284 
Q 544 659 544 1381 
z
M 1991 3584 
L 1991 3584 
z
" transform="scale(0.015625)"/>
       <path id="DejaVuSans-6e" d="M 3513 2113 
L 3513 0 
L 2938 0 
L 2938 2094 
Q 2938 2591 2744 2837 
Q 2550 3084 2163 3084 
Q 1697 3084 1428 2787 
Q 1159 2491 1159 1978 
L 1159 0 
L 581 0 
L 581 3500 
L 1159 3500 
L 1159 2956 
Q 1366 3272 1645 3428 
Q 1925 3584 2291 3584 
Q 2894 3584 3203 3211 
Q 3513 2838 3513 2113 
z
" transform="scale(0.015625)"/>
       <path id="DejaVuSans-64" d="M 2906 2969 
L 2906 4863 
L 3481 4863 
L 3481 0 
L 2906 0 
L 2906 525 
Q 2725 213 2448 61 
Q 2172 -91 1784 -91 
Q 1150 -91 751 415 
Q 353 922 353 1747 
Q 353 2572 751 3078 
Q 1150 3584 1784 3584 
Q 2172 3584 2448 3432 
Q 2725 3281 2906 2969 
z
M 947 1747 
Q 947 1113 1208 752 
Q 1469 391 1925 391 
Q 2381 391 2643 752 
Q 2906 1113 2906 1747 
Q 2906 2381 2643 2742 
Q 2381 3103 1925 3103 
Q 1469 3103 1208 2742 
Q 947 2381 947 1747 
z
" transform="scale(0.015625)"/>
      </defs>
      <use xlink:href="#DejaVuSans-52"/>
      <use xlink:href="#DejaVuSans-6f" x="64.982422"/>
      <use xlink:href="#DejaVuSans-75" x="126.164062"/>
      <use xlink:href="#DejaVuSans-6e" x="189.542969"/>
      <use xlink:href="#DejaVuSans-64" x="252.921875"/>
     </g>
    </g>
   </g>
   <g id="matplotlib.axis_2">
    <g id="ytick_1">
     <g id="line2d_7">
      <path d="M 49.807187 264.693423 
L 406.927188 264.693423 
" clip-path="url(#p0f66ccbee1)" style="fill: none; stroke: #cccccc; stroke-linecap: round"/>
     </g>
     <g id="text_8">
      <!-- 0.0 -->
      <g style="fill: #262626" transform="translate(22.81375 268.872564) scale(0.11 -0.11)">
       <defs>
        <path id="DejaVuSans-2e" d="M 684 794 
L 1344 794 
L 1344 0 
L 684 0 
L 684 794 
z
" transform="scale(0.015625)"/>
       </defs>
       <use xlink:href="#DejaVuSans-30"/>
       <use xlink:href="#DejaVuSans-2e" x="63.623047"/>
       <use xlink:href="#DejaVuSans-30" x="95.410156"/>
      </g>
     </g>
    </g>
    <g id="ytick_2">
     <g id="line2d_8">
      <path d="M 49.807187 223.945463 
L 406.927188 223.945463 
" clip-path="url(#p0f66ccbee1)" style="fill: none; stroke: #cccccc; stroke-linecap: round"/>
     </g>
     <g id="text_9">
      <!-- 0.5 -->
      <g style="fill: #262626" transform="translate(22.81375 228.124603) scale(0.11 -0.11)">
       <defs>
        <path id="DejaVuSans-35" d="M 691 4666 
L 3169 4666 
L 3169 4134 
L 1269 4134 
L 1269 2991 
Q 1406 3038 1543 3061 
Q 1681 3084 1819 3084 
Q 2600 3084 3056 2656 
Q 3513 2228 3513 1497 
Q 3513 744 3044 326 
Q 2575 -91 1722 -91 
Q 1428 -91 1123 -41 
Q 819 9 494 109 
L 494 744 
Q 775 591 1075 516 
Q 1375 441 1709 441 
Q 2250 441 2565 725 
Q 2881 1009 2881 1497 
Q 2881 1984 2565 2268 
Q 2250 2553 1709 2553 
Q 1456 2553 1204 2497 
Q 953 2441 691 2322 
L 691 4666 
z
" transform="scale(0.015625)"/>
       </defs>
       <use xlink:href="#DejaVuSans-30"/>
       <use xlink:href="#DejaVuSans-2e" x="63.623047"/>
       <use xlink:href="#DejaVuSans-35" x="95.410156"/>
      </g>
     </g>
    </g>
    <g id="ytick_3">
     <g id="line2d_9">
      <path d="M 49.807187 183.197502 
L 406.927188 183.197502 
" clip-path="url(#p0f66ccbee1)" style="fill: none; stroke: #cccccc; stroke-linecap: round"/>
     </g>
     <g id="text_10">
      <!-- 1.0 -->
      <g style="fill: #262626" transform="translate(22.81375 187.376643) scale(0.11 -0.11)">
       <use xlink:href="#DejaVuSans-31"/>
       <use xlink:href="#DejaVuSans-2e" x="63.623047"/>
       <use xlink:href="#DejaVuSans-30" x="95.410156"/>
      </g>
     </g>
    </g>
    <g id="ytick_4">
     <g id="line2d_10">
      <path d="M 49.807187 142.449541 
L 406.927188 142.449541 
" clip-path="url(#p0f66ccbee1)" style="fill: none; stroke: #cccccc; stroke-linecap: round"/>
     </g>
     <g id="text_11">
      <!-- 1.5 -->
      <g style="fill: #262626" transform="translate(22.81375 146.628682) scale(0.11 -0.11)">
       <use xlink:href="#DejaVuSans-31"/>
       <use xlink:href="#DejaVuSans-2e" x="63.623047"/>
       <use xlink:href="#DejaVuSans-35" x="95.410156"/>
      </g>
     </g>
    </g>
    <g id="ytick_5">
     <g id="line2d_11">
      <path d="M 49.807187 101.70158 
L 406.927188 101.70158 
" clip-path="url(#p0f66ccbee1)" style="fill: none; stroke: #cccccc; stroke-linecap: round"/>
     </g>
     <g id="text_12">
      <!-- 2.0 -->
      <g style="fill: #262626" transform="translate(22.81375 105.880721) scale(0.11 -0.11)">
       <use xlink:href="#DejaVuSans-32"/>
       <use xlink:href="#DejaVuSans-2e" x="63.623047"/>
       <use xlink:href="#DejaVuSans-30" x="95.410156"/>
      </g>
     </g>
    </g>
    <g id="ytick_6">
     <g id="line2d_12">
      <path d="M 49.807187 60.95362 
L 406.927188 60.95362 
" clip-path="url(#p0f66ccbee1)" style="fill: none; stroke: #cccccc; stroke-linecap: round"/>
     </g>
     <g id="text_13">
      <!-- 2.5 -->
      <g style="fill: #262626" transform="translate(22.81375 65.13276) scale(0.11 -0.11)">
       <use xlink:href="#DejaVuSans-32"/>
       <use xlink:href="#DejaVuSans-2e" x="63.623047"/>
       <use xlink:href="#DejaVuSans-35" x="95.410156"/>
      </g>
     </g>
    </g>
    <g id="ytick_7">
     <g id="line2d_13">
      <path d="M 49.807187 20.205659 
L 406.927188 20.205659 
" clip-path="url(#p0f66ccbee1)" style="fill: none; stroke: #cccccc; stroke-linecap: round"/>
     </g>
     <g id="text_14">
      <!-- 3.0 -->
      <g style="fill: #262626" transform="translate(22.81375 24.3848) scale(0.11 -0.11)">
       <defs>
        <path id="DejaVuSans-33" d="M 2597 2516 
Q 3050 2419 3304 2112 
Q 3559 1806 3559 1356 
Q 3559 666 3084 287 
Q 2609 -91 1734 -91 
Q 1441 -91 1130 -33 
Q 819 25 488 141 
L 488 750 
Q 750 597 1062 519 
Q 1375 441 1716 441 
Q 2309 441 2620 675 
Q 2931 909 2931 1356 
Q 2931 1769 2642 2001 
Q 2353 2234 1838 2234 
L 1294 2234 
L 1294 2753 
L 1863 2753 
Q 2328 2753 2575 2939 
Q 2822 3125 2822 3475 
Q 2822 3834 2567 4026 
Q 2313 4219 1838 4219 
Q 1578 4219 1281 4162 
Q 984 4106 628 3988 
L 628 4550 
Q 988 4650 1302 4700 
Q 1616 4750 1894 4750 
Q 2613 4750 3031 4423 
Q 3450 4097 3450 3541 
Q 3450 3153 3228 2886 
Q 3006 2619 2597 2516 
z
" transform="scale(0.015625)"/>
       </defs>
       <use xlink:href="#DejaVuSans-33"/>
       <use xlink:href="#DejaVuSans-2e" x="63.623047"/>
       <use xlink:href="#DejaVuSans-30" x="95.410156"/>
      </g>
     </g>
    </g>
    <g id="text_15">
     <!-- Loss -->
     <g style="fill: #262626" transform="translate(16.318125 153.416625) rotate(-90) scale(0.12 -0.12)">
      <defs>
       <path id="DejaVuSans-4c" d="M 628 4666 
L 1259 4666 
L 1259 531 
L 3531 531 
L 3531 0 
L 628 0 
L 628 4666 
z
" transform="scale(0.015625)"/>
       <path id="DejaVuSans-73" d="M 2834 3397 
L 2834 2853 
Q 2591 2978 2328 3040 
Q 2066 3103 1784 3103 
Q 1356 3103 1142 2972 
Q 928 2841 928 2578 
Q 928 2378 1081 2264 
Q 1234 2150 1697 2047 
L 1894 2003 
Q 2506 1872 2764 1633 
Q 3022 1394 3022 966 
Q 3022 478 2636 193 
Q 2250 -91 1575 -91 
Q 1294 -91 989 -36 
Q 684 19 347 128 
L 347 722 
Q 666 556 975 473 
Q 1284 391 1588 391 
Q 1994 391 2212 530 
Q 2431 669 2431 922 
Q 2431 1156 2273 1281 
Q 2116 1406 1581 1522 
L 1381 1569 
Q 847 1681 609 1914 
Q 372 2147 372 2553 
Q 372 3047 722 3315 
Q 1072 3584 1716 3584 
Q 2034 3584 2315 3537 
Q 2597 3491 2834 3397 
z
" transform="scale(0.015625)"/>
      </defs>
      <use xlink:href="#DejaVuSans-4c"/>
      <use xlink:href="#DejaVuSans-6f" x="53.962891"/>
      <use xlink:href="#DejaVuSans-73" x="115.144531"/>
      <use xlink:href="#DejaVuSans-73" x="167.244141"/>
     </g>
    </g>
   </g>
   <g id="PolyCollection_1">
    <defs>
     <path id="m658e364397" d="M 66.039915 -251.875534 
L 66.039915 -212.785667 
L 69.319254 -166.075302 
L 72.598592 -143.951056 
L 75.877931 -121.987801 
L 79.15727 -100.491249 
L 82.436609 -90.636233 
L 85.715948 -81.456783 
L 88.995287 -78.056517 
L 92.274626 -72.153394 
L 95.553964 -65.410417 
L 98.833303 -64.103792 
L 98.833303 -72.348899 
L 98.833303 -72.348899 
L 95.553964 -72.611887 
L 92.274626 -95.857406 
L 88.995287 -105.006585 
L 85.715948 -104.350839 
L 82.436609 -116.881018 
L 79.15727 -127.395852 
L 75.877931 -159.989651 
L 72.598592 -182.973816 
L 69.319254 -205.713241 
L 66.039915 -251.875534 
z
" style="stroke: #4c72b0; stroke-opacity: 0.2"/>
    </defs>
    <g clip-path="url(#p0f66ccbee1)">
     <use xlink:href="#m658e364397" x="0" y="316.271687" style="fill: #4c72b0; fill-opacity: 0.2; stroke: #4c72b0; stroke-opacity: 0.2"/>
    </g>
   </g>
   <g id="PolyCollection_2">
    <defs>
     <path id="m625d418231" d="M 66.039915 -265.708803 
L 66.039915 -239.533204 
L 69.319254 -215.778458 
L 72.598592 -213.600412 
L 75.877931 -175.739611 
L 79.15727 -149.552546 
L 82.436609 -139.362873 
L 85.715948 -118.484676 
L 88.995287 -125.007078 
L 92.274626 -114.161468 
L 95.553964 -94.68539 
L 98.833303 -99.879317 
L 102.112642 -104.170687 
L 105.391981 -94.884609 
L 108.67132 -84.576355 
L 111.950659 -84.588457 
L 115.229997 -95.71822 
L 118.509336 -88.0989 
L 121.788675 -80.246832 
L 125.068014 -94.431105 
L 128.347353 -92.301838 
L 131.626692 -85.894412 
L 134.90603 -89.452477 
L 138.185369 -83.304819 
L 141.464708 -82.110394 
L 144.744047 -83.388186 
L 148.023386 -82.051895 
L 151.302725 -77.139261 
L 154.582064 -78.894722 
L 157.861402 -86.052502 
L 161.140741 -81.732088 
L 164.42008 -89.450501 
L 167.699419 -75.536756 
L 170.978758 -78.249214 
L 174.258097 -80.345268 
L 177.537435 -73.384807 
L 180.816774 -72.32235 
L 184.096113 -72.823399 
L 187.375452 -71.32148 
L 190.654791 -73.70584 
L 193.93413 -75.002386 
L 197.213468 -72.744157 
L 200.492807 -70.898744 
L 203.772146 -70.41185 
L 207.051485 -68.422419 
L 210.330824 -68.325855 
L 213.610163 -72.432073 
L 216.889502 -67.635996 
L 220.16884 -74.322926 
L 223.448179 -77.117944 
L 226.727518 -70.652426 
L 230.006857 -71.891212 
L 233.286196 -69.046921 
L 236.565535 -73.169672 
L 239.844873 -69.626657 
L 243.124212 -65.455118 
L 246.403551 -67.881771 
L 249.68289 -68.03318 
L 252.962229 -75.370692 
L 256.241568 -69.502451 
L 259.520907 -68.962024 
L 262.800245 -67.378715 
L 266.079584 -68.158839 
L 269.358923 -64.415619 
L 272.638262 -68.331605 
L 275.917601 -64.403111 
L 279.19694 -65.119317 
L 282.476278 -71.501283 
L 285.755617 -67.063417 
L 289.034956 -69.653 
L 292.314295 -66.544506 
L 295.593634 -69.114826 
L 298.872973 -69.842391 
L 302.152311 -66.261415 
L 305.43165 -73.946759 
L 308.710989 -63.649332 
L 311.990328 -67.873732 
L 315.269667 -68.508046 
L 318.549006 -65.589764 
L 321.828345 -62.503884 
L 325.107683 -64.200678 
L 328.387022 -62.215331 
L 331.666361 -64.9144 
L 334.9457 -68.042353 
L 338.225039 -72.618396 
L 341.504378 -62.629531 
L 344.783716 -65.103607 
L 348.063055 -62.128155 
L 351.342394 -62.655456 
L 354.621733 -62.15126 
L 357.901072 -63.303545 
L 361.180411 -63.999765 
L 364.459749 -61.379806 
L 367.739088 -63.459641 
L 371.018427 -60.939856 
L 374.297766 -63.163017 
L 377.577105 -62.560797 
L 380.856444 -63.669515 
L 384.135783 -63.610952 
L 387.415121 -63.133075 
L 390.69446 -62.000151 
L 390.69446 -67.763761 
L 390.69446 -67.763761 
L 387.415121 -69.74952 
L 384.135783 -68.136953 
L 380.856444 -68.67397 
L 377.577105 -70.144413 
L 374.297766 -67.41284 
L 371.018427 -64.616333 
L 367.739088 -71.714795 
L 364.459749 -65.25093 
L 361.180411 -72.155133 
L 357.901072 -71.027084 
L 354.621733 -68.573357 
L 351.342394 -69.01701 
L 348.063055 -66.823559 
L 344.783716 -73.856257 
L 341.504378 -68.305405 
L 338.225039 -89.899039 
L 334.9457 -80.541895 
L 331.666361 -74.979433 
L 328.387022 -66.95053 
L 325.107683 -70.556353 
L 321.828345 -65.548268 
L 318.549006 -72.784273 
L 315.269667 -81.087131 
L 311.990328 -75.000283 
L 308.710989 -70.042086 
L 305.43165 -98.340767 
L 302.152311 -80.206974 
L 298.872973 -85.764411 
L 295.593634 -83.849254 
L 292.314295 -74.346378 
L 289.034956 -83.391083 
L 285.755617 -72.200508 
L 282.476278 -78.523747 
L 279.19694 -69.856992 
L 275.917601 -71.20309 
L 272.638262 -76.725536 
L 269.358923 -69.966431 
L 266.079584 -79.239304 
L 262.800245 -76.784415 
L 259.520907 -79.572932 
L 256.241568 -85.790059 
L 252.962229 -96.101408 
L 249.68289 -82.026315 
L 246.403551 -75.051995 
L 243.124212 -70.932277 
L 239.844873 -75.189302 
L 236.565535 -87.754805 
L 233.286196 -76.352799 
L 230.006857 -81.638363 
L 226.727518 -81.962053 
L 223.448179 -91.692913 
L 220.16884 -87.422383 
L 216.889502 -74.399944 
L 213.610163 -88.097116 
L 210.330824 -74.332585 
L 207.051485 -77.69174 
L 203.772146 -79.264844 
L 200.492807 -76.82921 
L 197.213468 -81.481864 
L 193.93413 -91.410093 
L 190.654791 -86.805136 
L 187.375452 -79.78461 
L 184.096113 -82.106798 
L 180.816774 -79.141576 
L 177.537435 -81.743708 
L 174.258097 -92.309224 
L 170.978758 -91.468319 
L 167.699419 -92.972253 
L 164.42008 -117.180341 
L 161.140741 -101.298359 
L 157.861402 -117.468302 
L 154.582064 -94.378891 
L 151.302725 -91.585323 
L 148.023386 -101.126683 
L 144.744047 -102.31282 
L 141.464708 -101.975375 
L 138.185369 -94.716754 
L 134.90603 -103.234004 
L 131.626692 -107.442522 
L 128.347353 -111.518108 
L 125.068014 -126.744979 
L 121.788675 -89.761273 
L 118.509336 -100.37467 
L 115.229997 -105.415388 
L 111.950659 -96.62623 
L 108.67132 -93.85737 
L 105.391981 -115.148722 
L 102.112642 -120.275262 
L 98.833303 -117.695232 
L 95.553964 -101.558494 
L 92.274626 -141.620723 
L 88.995287 -161.019487 
L 85.715948 -144.974223 
L 82.436609 -166.891092 
L 79.15727 -172.422557 
L 75.877931 -206.97778 
L 72.598592 -234.95364 
L 69.319254 -237.163802 
L 66.039915 -265.708803 
z
" style="stroke: #dd8452; stroke-opacity: 0.2"/>
    </defs>
    <g clip-path="url(#p0f66ccbee1)">
     <use xlink:href="#m625d418231" x="0" y="316.271687" style="fill: #dd8452; fill-opacity: 0.2; stroke: #dd8452; stroke-opacity: 0.2"/>
    </g>
   </g>
   <g id="PolyCollection_3">
    <defs>
     <path id="m3d62236156" d="M 66.039915 -241.30965 
L 66.039915 -231.050034 
L 69.319254 -219.018397 
L 72.598592 -213.397333 
L 75.877931 -209.253154 
L 79.15727 -206.357474 
L 82.436609 -198.570587 
L 85.715948 -194.855779 
L 88.995287 -188.373934 
L 92.274626 -180.4356 
L 95.553964 -176.56332 
L 98.833303 -171.382118 
L 102.112642 -169.640418 
L 105.391981 -165.844276 
L 108.67132 -161.802626 
L 111.950659 -157.827961 
L 115.229997 -154.475806 
L 118.509336 -150.072668 
L 121.788675 -146.078137 
L 125.068014 -142.740508 
L 128.347353 -138.368952 
L 131.626692 -137.092431 
L 134.90603 -135.277191 
L 138.185369 -133.824297 
L 141.464708 -131.223148 
L 144.744047 -130.542501 
L 148.023386 -127.919979 
L 151.302725 -127.393283 
L 154.582064 -124.008389 
L 157.861402 -121.364284 
L 161.140741 -119.94355 
L 164.42008 -120.374494 
L 167.699419 -118.525066 
L 170.978758 -115.258689 
L 174.258097 -116.373643 
L 177.537435 -115.624264 
L 180.816774 -113.184433 
L 184.096113 -112.316098 
L 187.375452 -111.93813 
L 190.654791 -111.032004 
L 193.93413 -109.821412 
L 197.213468 -108.806954 
L 200.492807 -108.853935 
L 203.772146 -108.034686 
L 207.051485 -105.918093 
L 210.330824 -104.213163 
L 213.610163 -102.92139 
L 216.889502 -101.721 
L 220.16884 -102.304194 
L 223.448179 -100.149932 
L 226.727518 -99.309028 
L 230.006857 -97.614698 
L 233.286196 -97.648138 
L 236.565535 -96.340194 
L 239.844873 -94.883468 
L 243.124212 -93.651096 
L 246.403551 -92.815438 
L 249.68289 -91.048885 
L 252.962229 -90.705279 
L 256.241568 -89.49329 
L 259.520907 -89.750971 
L 262.800245 -88.771431 
L 266.079584 -88.192749 
L 269.358923 -87.026387 
L 272.638262 -86.944295 
L 275.917601 -85.716804 
L 279.19694 -85.783355 
L 282.476278 -84.483214 
L 285.755617 -84.894073 
L 289.034956 -83.582997 
L 292.314295 -82.180619 
L 295.593634 -83.011009 
L 298.872973 -82.61792 
L 302.152311 -81.314746 
L 305.43165 -81.212136 
L 308.710989 -80.516682 
L 311.990328 -80.087207 
L 315.269667 -79.229117 
L 318.549006 -79.445093 
L 321.828345 -78.895674 
L 325.107683 -79.501577 
L 328.387022 -78.418368 
L 331.666361 -78.884851 
L 334.9457 -78.37066 
L 338.225039 -77.656913 
L 341.504378 -77.099698 
L 344.783716 -77.960948 
L 348.063055 -76.541136 
L 351.342394 -76.238483 
L 354.621733 -75.311154 
L 357.901072 -75.386845 
L 361.180411 -75.353575 
L 364.459749 -75.317332 
L 367.739088 -74.660467 
L 371.018427 -74.335393 
L 374.297766 -74.711646 
L 377.577105 -74.331732 
L 380.856444 -74.348499 
L 384.135783 -74.218607 
L 387.415121 -73.972438 
L 390.69446 -72.809451 
L 390.69446 -97.817007 
L 390.69446 -97.817007 
L 387.415121 -99.026336 
L 384.135783 -99.138831 
L 380.856444 -99.394173 
L 377.577105 -98.770295 
L 374.297766 -101.009385 
L 371.018427 -99.048204 
L 367.739088 -99.88433 
L 364.459749 -100.384365 
L 361.180411 -99.785602 
L 357.901072 -99.807784 
L 354.621733 -100.41178 
L 351.342394 -101.376291 
L 348.063055 -102.087412 
L 344.783716 -102.744532 
L 341.504378 -101.715525 
L 338.225039 -103.80049 
L 334.9457 -104.239073 
L 331.666361 -103.447415 
L 328.387022 -105.111506 
L 325.107683 -105.835764 
L 321.828345 -106.1199 
L 318.549006 -105.993088 
L 315.269667 -105.841491 
L 311.990328 -107.75556 
L 308.710989 -105.608919 
L 305.43165 -106.733894 
L 302.152311 -106.802415 
L 298.872973 -108.15834 
L 295.593634 -109.543098 
L 292.314295 -109.018761 
L 289.034956 -109.914866 
L 285.755617 -108.924143 
L 282.476278 -110.432215 
L 279.19694 -111.998306 
L 275.917601 -111.561291 
L 272.638262 -112.600459 
L 269.358923 -112.404617 
L 266.079584 -114.592564 
L 262.800245 -114.875699 
L 259.520907 -116.407635 
L 256.241568 -116.434511 
L 252.962229 -117.02185 
L 249.68289 -118.644394 
L 246.403551 -119.119418 
L 243.124212 -121.152839 
L 239.844873 -120.936902 
L 236.565535 -122.258836 
L 233.286196 -123.383778 
L 230.006857 -124.914296 
L 226.727518 -125.150894 
L 223.448179 -126.261672 
L 220.16884 -128.046598 
L 216.889502 -128.708402 
L 213.610163 -132.028231 
L 210.330824 -132.695497 
L 207.051485 -134.585868 
L 203.772146 -136.594786 
L 200.492807 -137.381085 
L 197.213468 -138.615082 
L 193.93413 -138.809526 
L 190.654791 -139.490971 
L 187.375452 -141.076378 
L 184.096113 -142.470806 
L 180.816774 -141.908997 
L 177.537435 -144.371549 
L 174.258097 -145.654925 
L 170.978758 -147.097309 
L 167.699419 -147.159272 
L 164.42008 -149.819732 
L 161.140741 -149.344748 
L 157.861402 -151.13451 
L 154.582064 -153.991417 
L 151.302725 -155.364161 
L 148.023386 -159.415603 
L 144.744047 -162.384995 
L 141.464708 -163.878288 
L 138.185369 -164.26415 
L 134.90603 -166.937451 
L 131.626692 -169.319619 
L 128.347353 -168.431192 
L 125.068014 -172.364446 
L 121.788675 -174.991307 
L 118.509336 -180.079356 
L 115.229997 -183.030154 
L 111.950659 -186.543802 
L 108.67132 -190.095518 
L 105.391981 -193.916261 
L 102.112642 -201.182656 
L 98.833303 -201.303411 
L 95.553964 -207.998499 
L 92.274626 -210.581036 
L 88.995287 -217.240968 
L 85.715948 -220.66069 
L 82.436609 -225.304519 
L 79.15727 -229.83526 
L 75.877931 -231.821416 
L 72.598592 -234.478997 
L 69.319254 -238.088463 
L 66.039915 -241.30965 
z
" style="stroke: #55a868; stroke-opacity: 0.2"/>
    </defs>
    <g clip-path="url(#p0f66ccbee1)">
     <use xlink:href="#m3d62236156" x="0" y="316.271687" style="fill: #55a868; fill-opacity: 0.2; stroke: #55a868; stroke-opacity: 0.2"/>
    </g>
   </g>
   <g id="PolyCollection_4">
    <defs>
     <path id="m0bade6c326" d="M 66.039915 -296.975687 
L 66.039915 -214.107636 
L 69.319254 -184.545399 
L 72.598592 -167.00205 
L 75.877931 -155.22395 
L 79.15727 -143.649468 
L 82.436609 -130.008395 
L 85.715948 -122.358399 
L 88.995287 -112.601809 
L 92.274626 -102.516097 
L 95.553964 -96.667605 
L 98.833303 -91.006765 
L 102.112642 -87.473855 
L 105.391981 -81.761784 
L 108.67132 -81.269319 
L 111.950659 -79.992258 
L 115.229997 -78.758983 
L 118.509336 -75.931262 
L 121.788675 -74.847933 
L 125.068014 -74.895009 
L 128.347353 -73.39586 
L 131.626692 -72.347206 
L 134.90603 -71.469962 
L 138.185369 -69.818817 
L 141.464708 -69.704354 
L 144.744047 -69.148772 
L 148.023386 -67.447184 
L 151.302725 -67.893453 
L 154.582064 -66.798817 
L 157.861402 -66.448251 
L 161.140741 -65.757295 
L 164.42008 -65.208588 
L 167.699419 -64.814708 
L 170.978758 -64.665642 
L 174.258097 -64.427281 
L 177.537435 -63.439467 
L 180.816774 -63.13934 
L 184.096113 -63.587519 
L 187.375452 -62.794348 
L 190.654791 -62.255272 
L 193.93413 -61.499881 
L 197.213468 -62.055747 
L 200.492807 -62.254536 
L 203.772146 -61.998178 
L 207.051485 -62.344008 
L 210.330824 -61.950762 
L 213.610163 -61.792769 
L 216.889502 -61.821986 
L 220.16884 -61.621878 
L 223.448179 -61.080329 
L 226.727518 -60.538531 
L 230.006857 -60.516558 
L 233.286196 -60.198144 
L 236.565535 -59.531243 
L 239.844873 -59.689727 
L 243.124212 -59.678449 
L 246.403551 -59.552685 
L 249.68289 -59.23183 
L 252.962229 -59.094742 
L 256.241568 -58.676556 
L 259.520907 -59.00119 
L 262.800245 -58.996762 
L 266.079584 -58.320859 
L 269.358923 -58.330888 
L 272.638262 -58.107329 
L 275.917601 -58.120758 
L 279.19694 -57.713073 
L 282.476278 -57.749546 
L 285.755617 -58.085357 
L 289.034956 -57.873962 
L 292.314295 -57.587144 
L 295.593634 -57.455268 
L 298.872973 -57.464004 
L 302.152311 -57.256105 
L 305.43165 -57.610797 
L 308.710989 -57.354433 
L 311.990328 -57.369684 
L 315.269667 -57.287699 
L 318.549006 -57.137492 
L 321.828345 -57.584699 
L 325.107683 -57.263497 
L 328.387022 -57.161514 
L 331.666361 -57.192876 
L 334.9457 -57.101992 
L 338.225039 -56.76247 
L 341.504378 -56.729281 
L 344.783716 -56.695766 
L 348.063055 -56.676371 
L 351.342394 -56.720066 
L 354.621733 -56.519316 
L 357.901072 -56.552043 
L 361.180411 -56.6619 
L 364.459749 -56.482047 
L 367.739088 -56.468621 
L 371.018427 -56.726087 
L 374.297766 -56.367888 
L 377.577105 -56.953264 
L 380.856444 -56.464043 
L 384.135783 -56.613842 
L 387.415121 -56.655949 
L 390.69446 -56.562491 
L 390.69446 -65.881417 
L 390.69446 -65.881417 
L 387.415121 -65.67253 
L 384.135783 -64.654567 
L 380.856444 -64.992969 
L 377.577105 -64.703492 
L 374.297766 -64.587471 
L 371.018427 -65.54866 
L 367.739088 -65.548427 
L 364.459749 -65.473617 
L 361.180411 -65.967585 
L 357.901072 -66.789137 
L 354.621733 -65.765906 
L 351.342394 -67.912604 
L 348.063055 -67.728968 
L 344.783716 -67.826732 
L 341.504378 -67.988076 
L 338.225039 -67.919542 
L 334.9457 -68.702968 
L 331.666361 -68.779636 
L 328.387022 -69.356544 
L 325.107683 -68.540949 
L 321.828345 -69.088573 
L 318.549006 -68.497765 
L 315.269667 -66.681832 
L 311.990328 -70.543721 
L 308.710989 -71.099139 
L 305.43165 -71.704935 
L 302.152311 -71.267318 
L 298.872973 -72.149609 
L 295.593634 -71.0349 
L 292.314295 -71.853505 
L 289.034956 -72.056019 
L 285.755617 -71.657665 
L 282.476278 -71.832211 
L 279.19694 -72.261305 
L 275.917601 -71.975458 
L 272.638262 -71.87174 
L 269.358923 -72.489557 
L 266.079584 -74.160959 
L 262.800245 -74.816686 
L 259.520907 -74.357718 
L 256.241568 -71.111642 
L 252.962229 -71.100707 
L 249.68289 -71.571693 
L 246.403551 -72.48606 
L 243.124212 -72.521971 
L 239.844873 -72.179087 
L 236.565535 -72.6958 
L 233.286196 -72.637419 
L 230.006857 -73.576944 
L 226.727518 -77.053924 
L 223.448179 -78.040096 
L 220.16884 -78.465579 
L 216.889502 -78.038548 
L 213.610163 -76.039268 
L 210.330824 -76.035331 
L 207.051485 -78.400955 
L 203.772146 -78.718827 
L 200.492807 -79.050284 
L 197.213468 -77.76581 
L 193.93413 -78.228641 
L 190.654791 -78.073342 
L 187.375452 -81.684538 
L 184.096113 -82.064708 
L 180.816774 -81.907537 
L 177.537435 -83.599236 
L 174.258097 -83.091925 
L 170.978758 -84.958631 
L 167.699419 -85.567033 
L 164.42008 -85.700208 
L 161.140741 -86.852693 
L 157.861402 -85.965694 
L 154.582064 -87.648536 
L 151.302725 -88.215283 
L 148.023386 -89.631871 
L 144.744047 -90.947514 
L 141.464708 -90.873418 
L 138.185369 -90.210807 
L 134.90603 -93.647043 
L 131.626692 -94.370446 
L 128.347353 -96.095035 
L 125.068014 -99.49744 
L 121.788675 -99.042616 
L 118.509336 -100.827218 
L 115.229997 -102.702379 
L 111.950659 -108.949869 
L 108.67132 -111.288143 
L 105.391981 -110.751168 
L 102.112642 -118.895008 
L 98.833303 -120.315351 
L 95.553964 -130.337241 
L 92.274626 -138.587711 
L 88.995287 -152.43198 
L 85.715948 -165.947655 
L 82.436609 -171.161232 
L 79.15727 -185.195454 
L 75.877931 -197.861278 
L 72.598592 -210.477774 
L 69.319254 -224.103626 
L 66.039915 -296.975687 
z
" style="stroke: #c44e52; stroke-opacity: 0.2"/>
    </defs>
    <g clip-path="url(#p0f66ccbee1)">
     <use xlink:href="#m0bade6c326" x="0" y="316.271687" style="fill: #c44e52; fill-opacity: 0.2; stroke: #c44e52; stroke-opacity: 0.2"/>
    </g>
   </g>
   <g id="PolyCollection_5">
    <defs>
     <path id="m4de3c483f4" d="M 66.039915 -234.246002 
L 66.039915 -215.539747 
L 69.319254 -200.629744 
L 72.598592 -202.344374 
L 75.877931 -210.338766 
L 79.15727 -215.874924 
L 82.436609 -180.620992 
L 85.715948 -158.254452 
L 88.995287 -169.559449 
L 92.274626 -176.791792 
L 95.553964 -162.225914 
L 98.833303 -140.604045 
L 102.112642 -127.537034 
L 105.391981 -119.19625 
L 108.67132 -109.628887 
L 111.950659 -103.846178 
L 115.229997 -101.640758 
L 118.509336 -94.426019 
L 121.788675 -89.548171 
L 125.068014 -85.445848 
L 128.347353 -82.39285 
L 131.626692 -80.719863 
L 134.90603 -78.191369 
L 138.185369 -75.945216 
L 141.464708 -75.426451 
L 144.744047 -73.309397 
L 148.023386 -71.778804 
L 151.302725 -70.940453 
L 154.582064 -69.743968 
L 157.861402 -68.581282 
L 161.140741 -67.800146 
L 164.42008 -66.746014 
L 167.699419 -66.79051 
L 170.978758 -66.22785 
L 174.258097 -65.670822 
L 177.537435 -64.71842 
L 180.816774 -64.328452 
L 184.096113 -63.67564 
L 187.375452 -63.641378 
L 190.654791 -63.079604 
L 193.93413 -62.402799 
L 197.213468 -62.041851 
L 200.492807 -61.670859 
L 203.772146 -61.255238 
L 207.051485 -60.785059 
L 210.330824 -60.174082 
L 213.610163 -60.548098 
L 216.889502 -60.146581 
L 220.16884 -59.642294 
L 223.448179 -59.53979 
L 226.727518 -58.864564 
L 230.006857 -59.183061 
L 233.286196 -58.805445 
L 236.565535 -58.647033 
L 239.844873 -58.379968 
L 243.124212 -58.345748 
L 246.403551 -58.077337 
L 249.68289 -57.866961 
L 252.962229 -57.801095 
L 256.241568 -57.536329 
L 259.520907 -57.257183 
L 262.800245 -57.149676 
L 266.079584 -57.212867 
L 269.358923 -57.221443 
L 272.638262 -57.051379 
L 275.917601 -56.990534 
L 279.19694 -56.930313 
L 282.476278 -56.681724 
L 285.755617 -56.703814 
L 289.034956 -56.828871 
L 292.314295 -56.482418 
L 295.593634 -56.540277 
L 298.872973 -56.496743 
L 302.152311 -56.289318 
L 305.43165 -56.400158 
L 308.710989 -56.275614 
L 311.990328 -56.392911 
L 315.269667 -56.162185 
L 318.549006 -56.037403 
L 321.828345 -56.022058 
L 325.107683 -55.899794 
L 328.387022 -55.975505 
L 331.666361 -55.724584 
L 334.9457 -55.615869 
L 338.225039 -55.652659 
L 341.504378 -55.71334 
L 344.783716 -55.678431 
L 348.063055 -55.66222 
L 351.342394 -55.567808 
L 354.621733 -55.53308 
L 357.901072 -55.593918 
L 361.180411 -55.438355 
L 364.459749 -55.324445 
L 367.739088 -55.306428 
L 371.018427 -55.339217 
L 374.297766 -55.152828 
L 377.577105 -55.245459 
L 380.856444 -55.149948 
L 384.135783 -55.141878 
L 387.415121 -55.086532 
L 390.69446 -55.055687 
L 390.69446 -59.054 
L 390.69446 -59.054 
L 387.415121 -59.185456 
L 384.135783 -58.796753 
L 380.856444 -58.777143 
L 377.577105 -58.66556 
L 374.297766 -58.691938 
L 371.018427 -58.86134 
L 367.739088 -59.105464 
L 364.459749 -59.103103 
L 361.180411 -59.547206 
L 357.901072 -59.445595 
L 354.621733 -59.566072 
L 351.342394 -60.307873 
L 348.063055 -60.052383 
L 344.783716 -60.335711 
L 341.504378 -60.375336 
L 338.225039 -60.319063 
L 334.9457 -60.403886 
L 331.666361 -60.713368 
L 328.387022 -60.878421 
L 325.107683 -60.880346 
L 321.828345 -60.59982 
L 318.549006 -60.697001 
L 315.269667 -61.294694 
L 311.990328 -62.487446 
L 308.710989 -61.822048 
L 305.43165 -61.960567 
L 302.152311 -61.86741 
L 298.872973 -62.496451 
L 295.593634 -63.17021 
L 292.314295 -63.134402 
L 289.034956 -63.456235 
L 285.755617 -62.291429 
L 282.476278 -62.344916 
L 279.19694 -62.913953 
L 275.917601 -62.444002 
L 272.638262 -63.018494 
L 269.358923 -63.229682 
L 266.079584 -62.837293 
L 262.800245 -62.96513 
L 259.520907 -62.765965 
L 256.241568 -63.313744 
L 252.962229 -64.745572 
L 249.68289 -64.740261 
L 246.403551 -64.710132 
L 243.124212 -65.565337 
L 239.844873 -65.35216 
L 236.565535 -66.102781 
L 233.286196 -66.598595 
L 230.006857 -67.784534 
L 226.727518 -66.806029 
L 223.448179 -67.832024 
L 220.16884 -67.605307 
L 216.889502 -67.48028 
L 213.610163 -69.484735 
L 210.330824 -69.001056 
L 207.051485 -70.515805 
L 203.772146 -71.809816 
L 200.492807 -72.366774 
L 197.213468 -72.61161 
L 193.93413 -73.923853 
L 190.654791 -75.202192 
L 187.375452 -77.820149 
L 184.096113 -78.110606 
L 180.816774 -79.362743 
L 177.537435 -78.471405 
L 174.258097 -80.658958 
L 170.978758 -80.338235 
L 167.699419 -81.842158 
L 164.42008 -83.478982 
L 161.140741 -83.56061 
L 157.861402 -86.047051 
L 154.582064 -85.841708 
L 151.302725 -87.297621 
L 148.023386 -90.914679 
L 144.744047 -92.333934 
L 141.464708 -93.848858 
L 138.185369 -95.136368 
L 134.90603 -97.321986 
L 131.626692 -102.485983 
L 128.347353 -103.417099 
L 125.068014 -110.601267 
L 121.788675 -112.620418 
L 118.509336 -116.416073 
L 115.229997 -121.919089 
L 111.950659 -128.761409 
L 108.67132 -132.668976 
L 105.391981 -141.976217 
L 102.112642 -150.120276 
L 98.833303 -160.938916 
L 95.553964 -180.162501 
L 92.274626 -192.358305 
L 88.995287 -190.083667 
L 85.715948 -187.141239 
L 82.436609 -201.203871 
L 79.15727 -224.046449 
L 75.877931 -224.337642 
L 72.598592 -220.688706 
L 69.319254 -222.255275 
L 66.039915 -234.246002 
z
" style="stroke: #8172b3; stroke-opacity: 0.2"/>
    </defs>
    <g clip-path="url(#p0f66ccbee1)">
     <use xlink:href="#m4de3c483f4" x="0" y="316.271687" style="fill: #8172b3; fill-opacity: 0.2; stroke: #8172b3; stroke-opacity: 0.2"/>
    </g>
   </g>
   <g id="line2d_14">
    <path d="M 66.039915 83.513994 
L 69.319254 130.719321 
L 72.598592 152.624228 
L 75.877931 175.331295 
L 79.15727 202.808002 
L 82.436609 213.003457 
L 85.715948 224.463996 
L 88.995287 225.897421 
L 92.274626 233.569897 
L 95.553964 247.372544 
L 98.833303 248.410577 
" clip-path="url(#p0f66ccbee1)" style="fill: none; stroke: #4c72b0; stroke-width: 1.5; stroke-linecap: round"/>
   </g>
   <g id="line2d_15">
    <path d="M 66.039915 63.083427 
L 69.319254 89.52263 
L 72.598592 92.195871 
L 75.877931 125.738726 
L 79.15727 155.244845 
L 82.436609 163.316717 
L 85.715948 185.163148 
L 88.995287 173.728755 
L 92.274626 189.794747 
L 95.553964 218.26824 
L 98.833303 207.631536 
L 102.112642 204.273069 
L 105.391981 212.176323 
L 108.67132 226.949686 
L 111.950659 225.871016 
L 115.229997 215.696804 
L 118.509336 222.492342 
L 121.788675 231.395037 
L 125.068014 206.754429 
L 128.347353 215.213962 
L 131.626692 220.090747 
L 134.90603 220.411724 
L 138.185369 227.373158 
L 141.464708 224.549523 
L 144.744047 223.91574 
L 148.023386 225.207629 
L 151.302725 232.23111 
L 154.582064 230.208322 
L 157.861402 214.923091 
L 161.140741 225.400029 
L 164.42008 214.435958 
L 167.699419 232.776597 
L 170.978758 232.114496 
L 174.258097 229.716262 
L 177.537435 239.004472 
L 180.816774 240.559464 
L 184.096113 238.793249 
L 187.375452 240.840036 
L 190.654791 236.657255 
L 193.93413 234.0686 
L 197.213468 239.232881 
L 200.492807 242.525842 
L 203.772146 241.707347 
L 207.051485 243.519808 
L 210.330824 245.119924 
L 213.610163 236.734637 
L 216.889502 245.305593 
L 220.16884 235.527122 
L 223.448179 232.335982 
L 226.727518 240.007079 
L 230.006857 239.8082 
L 233.286196 243.613634 
L 236.565535 236.622706 
L 239.844873 243.760147 
L 243.124212 248.293051 
L 246.403551 245.045968 
L 249.68289 241.886234 
L 252.962229 232.280583 
L 256.241568 239.002406 
L 259.520907 242.491198 
L 262.800245 244.582054 
L 266.079584 242.993757 
L 269.358923 249.132411 
L 272.638262 243.850206 
L 275.917601 248.603641 
L 279.19694 248.865871 
L 282.476278 241.181813 
L 285.755617 246.800789 
L 289.034956 240.599942 
L 292.314295 246.164952 
L 295.593634 240.459574 
L 298.872973 239.191243 
L 302.152311 243.372689 
L 305.43165 230.762291 
L 308.710989 249.603656 
L 311.990328 244.873462 
L 315.269667 241.956653 
L 318.549006 247.257383 
L 321.828345 252.276718 
L 325.107683 248.972767 
L 328.387022 251.825293 
L 331.666361 246.83969 
L 334.9457 242.346119 
L 338.225039 235.915883 
L 341.504378 251.041134 
L 344.783716 247.133775 
L 348.063055 251.977374 
L 351.342394 250.673471 
L 354.621733 251.18871 
L 357.901072 249.272172 
L 361.180411 248.624731 
L 364.459749 253.058843 
L 367.739088 249.067586 
L 371.018427 253.616633 
L 374.297766 251.12183 
L 377.577105 250.282756 
L 380.856444 250.249405 
L 384.135783 250.338545 
L 387.415121 249.996296 
L 390.69446 251.700175 
" clip-path="url(#p0f66ccbee1)" style="fill: none; stroke: #dd8452; stroke-width: 1.5; stroke-linecap: round"/>
   </g>
   <g id="line2d_16">
    <path d="M 66.039915 79.401366 
L 69.319254 87.45037 
L 72.598592 90.928307 
L 75.877931 95.454286 
L 79.15727 98.370623 
L 82.436609 103.742745 
L 85.715948 108.948686 
L 88.995287 113.832723 
L 92.274626 121.175882 
L 95.553964 124.49809 
L 98.833303 129.797459 
L 102.112642 131.642648 
L 105.391981 135.880311 
L 108.67132 140.91384 
L 111.950659 143.704097 
L 115.229997 148.147065 
L 118.509336 150.830829 
L 121.788675 155.58485 
L 125.068014 159.446875 
L 128.347353 162.702636 
L 131.626692 163.890978 
L 134.90603 165.215663 
L 138.185369 167.095024 
L 141.464708 168.673244 
L 144.744047 170.214447 
L 148.023386 172.674261 
L 151.302725 174.797421 
L 154.582064 177.142941 
L 157.861402 179.956356 
L 161.140741 181.00563 
L 164.42008 181.918114 
L 167.699419 183.248494 
L 170.978758 184.868964 
L 174.258097 185.591915 
L 177.537435 187.598709 
L 180.816774 188.91697 
L 184.096113 189.138687 
L 187.375452 190.607844 
L 190.654791 191.297115 
L 193.93413 192.099816 
L 197.213468 193.413547 
L 200.492807 194.140484 
L 203.772146 195.007985 
L 207.051485 196.560918 
L 210.330824 198.663572 
L 213.610163 199.204172 
L 216.889502 200.977111 
L 220.16884 202.093044 
L 223.448179 204.006761 
L 226.727518 205.072797 
L 230.006857 205.380095 
L 233.286196 206.524717 
L 236.565535 207.642576 
L 239.844873 208.902073 
L 243.124212 209.73498 
L 246.403551 210.323859 
L 249.68289 211.572433 
L 252.962229 212.501215 
L 256.241568 213.423422 
L 259.520907 214.497467 
L 262.800245 214.92637 
L 266.079584 216.239942 
L 269.358923 216.944218 
L 272.638262 217.613094 
L 275.917601 218.374726 
L 279.19694 218.632121 
L 282.476278 219.411955 
L 285.755617 220.522506 
L 289.034956 220.581334 
L 292.314295 221.524212 
L 295.593634 221.288805 
L 298.872973 221.380177 
L 302.152311 222.862821 
L 305.43165 222.532162 
L 308.710989 223.577672 
L 311.990328 223.639596 
L 315.269667 223.934065 
L 318.549006 223.978452 
L 321.828345 224.691349 
L 325.107683 224.834123 
L 328.387022 225.216028 
L 331.666361 225.606635 
L 334.9457 226.139798 
L 338.225039 226.55176 
L 341.504378 227.406502 
L 344.783716 227.485632 
L 348.063055 228.02259 
L 351.342394 228.182261 
L 354.621733 228.665855 
L 357.901072 228.781943 
L 361.180411 229.028619 
L 364.459749 229.325526 
L 367.739088 229.703057 
L 371.018427 229.898089 
L 374.297766 229.842964 
L 377.577105 230.139722 
L 380.856444 230.511145 
L 384.135783 230.906129 
L 387.415121 231.470595 
L 390.69446 231.930098 
" clip-path="url(#p0f66ccbee1)" style="fill: none; stroke: #55a868; stroke-width: 1.5; stroke-linecap: round"/>
   </g>
   <g id="line2d_17">
    <path d="M 66.039915 67.507992 
L 69.319254 111.580674 
L 72.598592 127.780174 
L 75.877931 138.731245 
L 79.15727 153.222733 
L 82.436609 165.042182 
L 85.715948 171.697797 
L 88.995287 183.835517 
L 92.274626 196.024128 
L 95.553964 202.602378 
L 98.833303 211.687341 
L 102.112642 214.785427 
L 105.391981 221.064927 
L 108.67132 221.891665 
L 111.950659 222.960524 
L 115.229997 226.276511 
L 118.509336 228.551868 
L 121.788675 230.124211 
L 125.068014 229.999234 
L 128.347353 232.296505 
L 131.626692 233.280016 
L 134.90603 234.125315 
L 138.185369 237.080463 
L 141.464708 236.825239 
L 144.744047 237.569285 
L 148.023386 238.696328 
L 151.302725 239.091624 
L 154.582064 240.340272 
L 157.861402 240.952444 
L 161.140741 241.315129 
L 164.42008 241.576336 
L 167.699419 242.287015 
L 170.978758 243.026127 
L 174.258097 243.757002 
L 177.537435 244.186463 
L 180.816774 244.651565 
L 184.096113 244.901975 
L 187.375452 245.008086 
L 190.654791 247.019584 
L 193.93413 246.742414 
L 197.213468 247.035397 
L 200.492807 246.692721 
L 203.772146 246.712579 
L 207.051485 246.885194 
L 210.330824 247.694861 
L 213.610163 248.076315 
L 216.889502 247.537673 
L 220.16884 247.681594 
L 223.448179 248.125258 
L 226.727518 248.634898 
L 230.006857 249.991703 
L 233.286196 250.250503 
L 236.565535 250.888262 
L 239.844873 251.10319 
L 243.124212 251.007334 
L 246.403551 251.046392 
L 249.68289 251.132841 
L 252.962229 251.642901 
L 256.241568 251.903889 
L 259.520907 250.576596 
L 262.800245 251.028231 
L 266.079584 251.49721 
L 269.358923 251.772 
L 272.638262 252.225408 
L 275.917601 252.439826 
L 279.19694 252.657645 
L 282.476278 252.692042 
L 285.755617 252.583069 
L 289.034956 252.703149 
L 292.314295 252.693264 
L 295.593634 252.867907 
L 298.872973 252.765853 
L 302.152311 253.040383 
L 305.43165 252.906347 
L 308.710989 253.188765 
L 311.990328 253.11336 
L 315.269667 254.980733 
L 318.549006 254.006164 
L 321.828345 253.987355 
L 325.107683 254.00051 
L 328.387022 254.002593 
L 331.666361 254.183155 
L 334.9457 254.42334 
L 338.225039 254.562461 
L 341.504378 254.881321 
L 344.783716 254.85488 
L 348.063055 254.867113 
L 351.342394 255.000264 
L 354.621733 255.789106 
L 357.901072 255.659944 
L 361.180411 255.744488 
L 364.459749 256.112299 
L 367.739088 255.875165 
L 371.018427 255.830164 
L 374.297766 256.376102 
L 377.577105 255.959771 
L 380.856444 256.088061 
L 384.135783 256.038299 
L 387.415121 255.629993 
L 390.69446 255.895139 
" clip-path="url(#p0f66ccbee1)" style="fill: none; stroke: #c44e52; stroke-width: 1.5; stroke-linecap: round"/>
   </g>
   <g id="line2d_18">
    <path d="M 66.039915 91.022559 
L 69.319254 104.289582 
L 72.598592 104.324677 
L 75.877931 98.858835 
L 79.15727 96.289321 
L 82.436609 125.161307 
L 85.715948 144.034017 
L 88.995287 136.481994 
L 92.274626 131.886803 
L 95.553964 145.559065 
L 98.833303 166.683654 
L 102.112642 178.005979 
L 105.391981 185.994988 
L 108.67132 195.77578 
L 111.950659 201.251206 
L 115.229997 204.936665 
L 118.509336 210.880947 
L 121.788675 215.682304 
L 125.068014 219.363511 
L 128.347353 224.126241 
L 131.626692 225.953946 
L 134.90603 228.464612 
L 138.185369 232.044404 
L 141.464708 232.832373 
L 144.744047 234.406217 
L 148.023386 236.653428 
L 151.302725 237.880355 
L 154.582064 239.083508 
L 157.861402 240.176006 
L 161.140741 241.344254 
L 164.42008 242.033613 
L 167.699419 243.014986 
L 170.978758 243.840789 
L 174.258097 244.198197 
L 177.537435 245.538841 
L 180.816774 245.636947 
L 184.096113 246.438269 
L 187.375452 246.416073 
L 190.654791 248.184644 
L 193.93413 248.719178 
L 197.213468 249.471761 
L 200.492807 249.995663 
L 203.772146 250.531295 
L 207.051485 251.304848 
L 210.330824 252.00108 
L 213.610163 252.080729 
L 216.889502 252.539239 
L 220.16884 253.094529 
L 223.448179 253.114015 
L 226.727518 253.601354 
L 230.006857 253.689585 
L 233.286196 253.993226 
L 236.565535 254.283901 
L 239.844873 254.7195 
L 243.124212 254.795405 
L 246.403551 255.150347 
L 249.68289 255.405412 
L 252.962229 255.567032 
L 256.241568 256.153852 
L 259.520907 256.517211 
L 262.800245 256.558061 
L 266.079584 256.554693 
L 269.358923 256.484444 
L 272.638262 256.566077 
L 275.917601 256.986405 
L 279.19694 256.832056 
L 282.476278 257.100644 
L 285.755617 257.004608 
L 289.034956 256.84203 
L 292.314295 257.02136 
L 295.593634 257.033164 
L 298.872973 257.103716 
L 302.152311 257.459983 
L 305.43165 257.490017 
L 308.710989 257.522679 
L 311.990328 257.504021 
L 315.269667 257.910607 
L 318.549006 258.116483 
L 321.828345 258.261595 
L 325.107683 258.228303 
L 328.387022 258.198168 
L 331.666361 258.347361 
L 334.9457 258.556141 
L 338.225039 258.465404 
L 341.504378 258.547743 
L 344.783716 258.604457 
L 348.063055 258.71519 
L 351.342394 258.675401 
L 354.621733 258.934989 
L 357.901072 259.06193 
L 361.180411 258.999585 
L 364.459749 259.243464 
L 367.739088 259.28118 
L 371.018427 259.392624 
L 374.297766 259.547929 
L 377.577105 259.535636 
L 380.856444 259.459936 
L 384.135783 259.515969 
L 387.415121 259.526019 
L 390.69446 259.518913 
" clip-path="url(#p0f66ccbee1)" style="fill: none; stroke: #8172b3; stroke-width: 1.5; stroke-linecap: round"/>
   </g>
   <g id="line2d_19"/>
   <g id="line2d_20"/>
   <g id="line2d_21"/>
   <g id="line2d_22"/>
   <g id="line2d_23"/>
   <g id="patch_3">
    <path d="M 49.807187 273.312 
L 49.807187 7.2 
" style="fill: none; stroke: #cccccc; stroke-width: 1.25; stroke-linejoin: miter; stroke-linecap: square"/>
   </g>
   <g id="patch_4">
    <path d="M 406.927188 273.312 
L 406.927188 7.2 
" style="fill: none; stroke: #cccccc; stroke-width: 1.25; stroke-linejoin: miter; stroke-linecap: square"/>
   </g>
   <g id="patch_5">
    <path d="M 49.807187 273.312 
L 406.927188 273.312 
" style="fill: none; stroke: #cccccc; stroke-width: 1.25; stroke-linejoin: miter; stroke-linecap: square"/>
   </g>
   <g id="patch_6">
    <path d="M 49.807187 7.2 
L 406.927188 7.2 
" style="fill: none; stroke: #cccccc; stroke-width: 1.25; stroke-linejoin: miter; stroke-linecap: square"/>
   </g>
   <g id="legend_1">
    <g id="patch_7">
     <path d="M 295.242813 113.843437 
L 399.227188 113.843437 
Q 401.427188 113.843437 401.427188 111.643437 
L 401.427188 14.9 
Q 401.427188 12.7 399.227188 12.7 
L 295.242813 12.7 
Q 293.042813 12.7 293.042813 14.9 
L 293.042813 111.643437 
Q 293.042813 113.843437 295.242813 113.843437 
z
" style="fill: #ffffff; opacity: 0.8; stroke: #cccccc; stroke-linejoin: miter"/>
    </g>
    <g id="text_16">
     <!-- Strategy -->
     <g style="fill: #262626" transform="translate(321.525937 26.218125) scale(0.12 -0.12)">
      <defs>
       <path id="DejaVuSans-53" d="M 3425 4513 
L 3425 3897 
Q 3066 4069 2747 4153 
Q 2428 4238 2131 4238 
Q 1616 4238 1336 4038 
Q 1056 3838 1056 3469 
Q 1056 3159 1242 3001 
Q 1428 2844 1947 2747 
L 2328 2669 
Q 3034 2534 3370 2195 
Q 3706 1856 3706 1288 
Q 3706 609 3251 259 
Q 2797 -91 1919 -91 
Q 1588 -91 1214 -16 
Q 841 59 441 206 
L 441 856 
Q 825 641 1194 531 
Q 1563 422 1919 422 
Q 2459 422 2753 634 
Q 3047 847 3047 1241 
Q 3047 1584 2836 1778 
Q 2625 1972 2144 2069 
L 1759 2144 
Q 1053 2284 737 2584 
Q 422 2884 422 3419 
Q 422 4038 858 4394 
Q 1294 4750 2059 4750 
Q 2388 4750 2728 4690 
Q 3069 4631 3425 4513 
z
" transform="scale(0.015625)"/>
       <path id="DejaVuSans-74" d="M 1172 4494 
L 1172 3500 
L 2356 3500 
L 2356 3053 
L 1172 3053 
L 1172 1153 
Q 1172 725 1289 603 
Q 1406 481 1766 481 
L 2356 481 
L 2356 0 
L 1766 0 
Q 1100 0 847 248 
Q 594 497 594 1153 
L 594 3053 
L 172 3053 
L 172 3500 
L 594 3500 
L 594 4494 
L 1172 4494 
z
" transform="scale(0.015625)"/>
       <path id="DejaVuSans-72" d="M 2631 2963 
Q 2534 3019 2420 3045 
Q 2306 3072 2169 3072 
Q 1681 3072 1420 2755 
Q 1159 2438 1159 1844 
L 1159 0 
L 581 0 
L 581 3500 
L 1159 3500 
L 1159 2956 
Q 1341 3275 1631 3429 
Q 1922 3584 2338 3584 
Q 2397 3584 2469 3576 
Q 2541 3569 2628 3553 
L 2631 2963 
z
" transform="scale(0.015625)"/>
       <path id="DejaVuSans-61" d="M 2194 1759 
Q 1497 1759 1228 1600 
Q 959 1441 959 1056 
Q 959 750 1161 570 
Q 1363 391 1709 391 
Q 2188 391 2477 730 
Q 2766 1069 2766 1631 
L 2766 1759 
L 2194 1759 
z
M 3341 1997 
L 3341 0 
L 2766 0 
L 2766 531 
Q 2569 213 2275 61 
Q 1981 -91 1556 -91 
Q 1019 -91 701 211 
Q 384 513 384 1019 
Q 384 1609 779 1909 
Q 1175 2209 1959 2209 
L 2766 2209 
L 2766 2266 
Q 2766 2663 2505 2880 
Q 2244 3097 1772 3097 
Q 1472 3097 1187 3025 
Q 903 2953 641 2809 
L 641 3341 
Q 956 3463 1253 3523 
Q 1550 3584 1831 3584 
Q 2591 3584 2966 3190 
Q 3341 2797 3341 1997 
z
" transform="scale(0.015625)"/>
       <path id="DejaVuSans-65" d="M 3597 1894 
L 3597 1613 
L 953 1613 
Q 991 1019 1311 708 
Q 1631 397 2203 397 
Q 2534 397 2845 478 
Q 3156 559 3463 722 
L 3463 178 
Q 3153 47 2828 -22 
Q 2503 -91 2169 -91 
Q 1331 -91 842 396 
Q 353 884 353 1716 
Q 353 2575 817 3079 
Q 1281 3584 2069 3584 
Q 2775 3584 3186 3129 
Q 3597 2675 3597 1894 
z
M 3022 2063 
Q 3016 2534 2758 2815 
Q 2500 3097 2075 3097 
Q 1594 3097 1305 2825 
Q 1016 2553 972 2059 
L 3022 2063 
z
" transform="scale(0.015625)"/>
       <path id="DejaVuSans-67" d="M 2906 1791 
Q 2906 2416 2648 2759 
Q 2391 3103 1925 3103 
Q 1463 3103 1205 2759 
Q 947 2416 947 1791 
Q 947 1169 1205 825 
Q 1463 481 1925 481 
Q 2391 481 2648 825 
Q 2906 1169 2906 1791 
z
M 3481 434 
Q 3481 -459 3084 -895 
Q 2688 -1331 1869 -1331 
Q 1566 -1331 1297 -1286 
Q 1028 -1241 775 -1147 
L 775 -588 
Q 1028 -725 1275 -790 
Q 1522 -856 1778 -856 
Q 2344 -856 2625 -561 
Q 2906 -266 2906 331 
L 2906 616 
Q 2728 306 2450 153 
Q 2172 0 1784 0 
Q 1141 0 747 490 
Q 353 981 353 1791 
Q 353 2603 747 3093 
Q 1141 3584 1784 3584 
Q 2172 3584 2450 3431 
Q 2728 3278 2906 2969 
L 2906 3500 
L 3481 3500 
L 3481 434 
z
" transform="scale(0.015625)"/>
       <path id="DejaVuSans-79" d="M 2059 -325 
Q 1816 -950 1584 -1140 
Q 1353 -1331 966 -1331 
L 506 -1331 
L 506 -850 
L 844 -850 
Q 1081 -850 1212 -737 
Q 1344 -625 1503 -206 
L 1606 56 
L 191 3500 
L 800 3500 
L 1894 763 
L 2988 3500 
L 3597 3500 
L 2059 -325 
z
" transform="scale(0.015625)"/>
      </defs>
      <use xlink:href="#DejaVuSans-53"/>
      <use xlink:href="#DejaVuSans-74" x="63.476562"/>
      <use xlink:href="#DejaVuSans-72" x="102.685547"/>
      <use xlink:href="#DejaVuSans-61" x="143.798828"/>
      <use xlink:href="#DejaVuSans-74" x="205.078125"/>
      <use xlink:href="#DejaVuSans-65" x="244.287109"/>
      <use xlink:href="#DejaVuSans-67" x="305.810547"/>
      <use xlink:href="#DejaVuSans-79" x="369.287109"/>
     </g>
    </g>
    <g id="line2d_24">
     <path d="M 297.442813 38.722031 
L 308.442813 38.722031 
L 319.442813 38.722031 
" style="fill: none; stroke: #4c72b0; stroke-width: 1.5; stroke-linecap: round"/>
    </g>
    <g id="text_17">
     <!-- FedPredict -->
     <g style="fill: #262626" transform="translate(328.242813 42.572031) scale(0.11 -0.11)">
      <defs>
       <path id="DejaVuSans-46" d="M 628 4666 
L 3309 4666 
L 3309 4134 
L 1259 4134 
L 1259 2759 
L 3109 2759 
L 3109 2228 
L 1259 2228 
L 1259 0 
L 628 0 
L 628 4666 
z
" transform="scale(0.015625)"/>
       <path id="DejaVuSans-50" d="M 1259 4147 
L 1259 2394 
L 2053 2394 
Q 2494 2394 2734 2622 
Q 2975 2850 2975 3272 
Q 2975 3691 2734 3919 
Q 2494 4147 2053 4147 
L 1259 4147 
z
M 628 4666 
L 2053 4666 
Q 2838 4666 3239 4311 
Q 3641 3956 3641 3272 
Q 3641 2581 3239 2228 
Q 2838 1875 2053 1875 
L 1259 1875 
L 1259 0 
L 628 0 
L 628 4666 
z
" transform="scale(0.015625)"/>
       <path id="DejaVuSans-69" d="M 603 3500 
L 1178 3500 
L 1178 0 
L 603 0 
L 603 3500 
z
M 603 4863 
L 1178 4863 
L 1178 4134 
L 603 4134 
L 603 4863 
z
" transform="scale(0.015625)"/>
       <path id="DejaVuSans-63" d="M 3122 3366 
L 3122 2828 
Q 2878 2963 2633 3030 
Q 2388 3097 2138 3097 
Q 1578 3097 1268 2742 
Q 959 2388 959 1747 
Q 959 1106 1268 751 
Q 1578 397 2138 397 
Q 2388 397 2633 464 
Q 2878 531 3122 666 
L 3122 134 
Q 2881 22 2623 -34 
Q 2366 -91 2075 -91 
Q 1284 -91 818 406 
Q 353 903 353 1747 
Q 353 2603 823 3093 
Q 1294 3584 2113 3584 
Q 2378 3584 2631 3529 
Q 2884 3475 3122 3366 
z
" transform="scale(0.015625)"/>
      </defs>
      <use xlink:href="#DejaVuSans-46"/>
      <use xlink:href="#DejaVuSans-65" x="52.019531"/>
      <use xlink:href="#DejaVuSans-64" x="113.542969"/>
      <use xlink:href="#DejaVuSans-50" x="177.019531"/>
      <use xlink:href="#DejaVuSans-72" x="235.572266"/>
      <use xlink:href="#DejaVuSans-65" x="274.435547"/>
      <use xlink:href="#DejaVuSans-64" x="335.958984"/>
      <use xlink:href="#DejaVuSans-69" x="399.435547"/>
      <use xlink:href="#DejaVuSans-63" x="427.21875"/>
      <use xlink:href="#DejaVuSans-74" x="482.199219"/>
     </g>
    </g>
    <g id="line2d_25">
     <path d="M 297.442813 54.867969 
L 308.442813 54.867969 
L 319.442813 54.867969 
" style="fill: none; stroke: #dd8452; stroke-width: 1.5; stroke-linecap: round"/>
    </g>
    <g id="text_18">
     <!-- FedAVG -->
     <g style="fill: #262626" transform="translate(328.242813 58.717969) scale(0.11 -0.11)">
      <defs>
       <path id="DejaVuSans-41" d="M 2188 4044 
L 1331 1722 
L 3047 1722 
L 2188 4044 
z
M 1831 4666 
L 2547 4666 
L 4325 0 
L 3669 0 
L 3244 1197 
L 1141 1197 
L 716 0 
L 50 0 
L 1831 4666 
z
" transform="scale(0.015625)"/>
       <path id="DejaVuSans-56" d="M 1831 0 
L 50 4666 
L 709 4666 
L 2188 738 
L 3669 4666 
L 4325 4666 
L 2547 0 
L 1831 0 
z
" transform="scale(0.015625)"/>
       <path id="DejaVuSans-47" d="M 3809 666 
L 3809 1919 
L 2778 1919 
L 2778 2438 
L 4434 2438 
L 4434 434 
Q 4069 175 3628 42 
Q 3188 -91 2688 -91 
Q 1594 -91 976 548 
Q 359 1188 359 2328 
Q 359 3472 976 4111 
Q 1594 4750 2688 4750 
Q 3144 4750 3555 4637 
Q 3966 4525 4313 4306 
L 4313 3634 
Q 3963 3931 3569 4081 
Q 3175 4231 2741 4231 
Q 1884 4231 1454 3753 
Q 1025 3275 1025 2328 
Q 1025 1384 1454 906 
Q 1884 428 2741 428 
Q 3075 428 3337 486 
Q 3600 544 3809 666 
z
" transform="scale(0.015625)"/>
      </defs>
      <use xlink:href="#DejaVuSans-46"/>
      <use xlink:href="#DejaVuSans-65" x="52.019531"/>
      <use xlink:href="#DejaVuSans-64" x="113.542969"/>
      <use xlink:href="#DejaVuSans-41" x="177.019531"/>
      <use xlink:href="#DejaVuSans-56" x="239.052734"/>
      <use xlink:href="#DejaVuSans-47" x="307.460938"/>
     </g>
    </g>
    <g id="line2d_26">
     <path d="M 297.442813 71.013906 
L 308.442813 71.013906 
L 319.442813 71.013906 
" style="fill: none; stroke: #55a868; stroke-width: 1.5; stroke-linecap: round"/>
    </g>
    <g id="text_19">
     <!-- FedProto -->
     <g style="fill: #262626" transform="translate(328.242813 74.863906) scale(0.11 -0.11)">
      <use xlink:href="#DejaVuSans-46"/>
      <use xlink:href="#DejaVuSans-65" x="52.019531"/>
      <use xlink:href="#DejaVuSans-64" x="113.542969"/>
      <use xlink:href="#DejaVuSans-50" x="177.019531"/>
      <use xlink:href="#DejaVuSans-72" x="235.572266"/>
      <use xlink:href="#DejaVuSans-6f" x="274.435547"/>
      <use xlink:href="#DejaVuSans-74" x="335.617188"/>
      <use xlink:href="#DejaVuSans-6f" x="374.826172"/>
     </g>
    </g>
    <g id="line2d_27">
     <path d="M 297.442813 87.159844 
L 308.442813 87.159844 
L 319.442813 87.159844 
" style="fill: none; stroke: #c44e52; stroke-width: 1.5; stroke-linecap: round"/>
    </g>
    <g id="text_20">
     <!-- FedClassAvg -->
     <g style="fill: #262626" transform="translate(328.242813 91.009844) scale(0.11 -0.11)">
      <defs>
       <path id="DejaVuSans-43" d="M 4122 4306 
L 4122 3641 
Q 3803 3938 3442 4084 
Q 3081 4231 2675 4231 
Q 1875 4231 1450 3742 
Q 1025 3253 1025 2328 
Q 1025 1406 1450 917 
Q 1875 428 2675 428 
Q 3081 428 3442 575 
Q 3803 722 4122 1019 
L 4122 359 
Q 3791 134 3420 21 
Q 3050 -91 2638 -91 
Q 1578 -91 968 557 
Q 359 1206 359 2328 
Q 359 3453 968 4101 
Q 1578 4750 2638 4750 
Q 3056 4750 3426 4639 
Q 3797 4528 4122 4306 
z
" transform="scale(0.015625)"/>
       <path id="DejaVuSans-6c" d="M 603 4863 
L 1178 4863 
L 1178 0 
L 603 0 
L 603 4863 
z
" transform="scale(0.015625)"/>
       <path id="DejaVuSans-76" d="M 191 3500 
L 800 3500 
L 1894 563 
L 2988 3500 
L 3597 3500 
L 2284 0 
L 1503 0 
L 191 3500 
z
" transform="scale(0.015625)"/>
      </defs>
      <use xlink:href="#DejaVuSans-46"/>
      <use xlink:href="#DejaVuSans-65" x="52.019531"/>
      <use xlink:href="#DejaVuSans-64" x="113.542969"/>
      <use xlink:href="#DejaVuSans-43" x="177.019531"/>
      <use xlink:href="#DejaVuSans-6c" x="246.84375"/>
      <use xlink:href="#DejaVuSans-61" x="274.626953"/>
      <use xlink:href="#DejaVuSans-73" x="335.90625"/>
      <use xlink:href="#DejaVuSans-73" x="388.005859"/>
      <use xlink:href="#DejaVuSans-41" x="440.105469"/>
      <use xlink:href="#DejaVuSans-76" x="502.638672"/>
      <use xlink:href="#DejaVuSans-67" x="561.818359"/>
     </g>
    </g>
    <g id="line2d_28">
     <path d="M 297.442813 103.305781 
L 308.442813 103.305781 
L 319.442813 103.305781 
" style="fill: none; stroke: #8172b3; stroke-width: 1.5; stroke-linecap: round"/>
    </g>
    <g id="text_21">
     <!-- FedPer -->
     <g style="fill: #262626" transform="translate(328.242813 107.155781) scale(0.11 -0.11)">
      <use xlink:href="#DejaVuSans-46"/>
      <use xlink:href="#DejaVuSans-65" x="52.019531"/>
      <use xlink:href="#DejaVuSans-64" x="113.542969"/>
      <use xlink:href="#DejaVuSans-50" x="177.019531"/>
      <use xlink:href="#DejaVuSans-65" x="233.697266"/>
      <use xlink:href="#DejaVuSans-72" x="295.220703"/>
     </g>
    </g>
   </g>
  </g>
 </g>
 <defs>
  <clipPath id="p0f66ccbee1">
   <rect x="49.807187" y="7.2" width="357.12" height="266.112"/>
  </clipPath>
 </defs>
</svg>
