<?xml version="1.0" encoding="utf-8" standalone="no"?>
<!DOCTYPE svg PUBLIC "-//W3C//DTD SVG 1.1//EN"
  "http://www.w3.org/Graphics/SVG/1.1/DTD/svg11.dtd">
<svg xmlns:xlink="http://www.w3.org/1999/xlink" width="417.63pt" height="316.271687pt" viewBox="0 0 417.63 316.271687" xmlns="http://www.w3.org/2000/svg" version="1.1">
 <metadata>
  <rdf:RDF xmlns:dc="http://purl.org/dc/elements/1.1/" xmlns:cc="http://creativecommons.org/ns#" xmlns:rdf="http://www.w3.org/1999/02/22-rdf-syntax-ns#">
   <cc:Work>
    <dc:type rdf:resource="http://purl.org/dc/dcmitype/StillImage"/>
    <dc:date>2023-02-06T16:29:38.863486</dc:date>
    <dc:format>image/svg+xml</dc:format>
    <dc:creator>
     <cc:Agent>
      <dc:title>Matplotlib v3.6.3, https://matplotlib.org/</dc:title>
     </cc:Agent>
    </dc:creator>
   </cc:Work>
  </rdf:RDF>
 </metadata>
 <defs>
  <style type="text/css">*{stroke-linejoin: round; stroke-linecap: butt}</style>
 </defs>
 <g id="figure_1">
  <g id="patch_1">
   <path d="M 0 316.271687 
L 417.63 316.271687 
L 417.63 0 
L 0 0 
z
" style="fill: #ffffff"/>
  </g>
  <g id="axes_1">
   <g id="patch_2">
    <path d="M 53.31 273.312 
L 410.43 273.312 
L 410.43 7.2 
L 53.31 7.2 
z
" style="fill: #ffffff"/>
   </g>
   <g id="matplotlib.axis_1">
    <g id="xtick_1">
     <g id="line2d_1">
      <path d="M 66.263388 273.312 
L 66.263388 7.2 
" clip-path="url(#p643a5f2445)" style="fill: none; stroke: #cccccc; stroke-linecap: round"/>
     </g>
     <g id="text_1">
      <!-- 0 -->
      <g style="fill: #262626" transform="translate(62.764013 291.170281) scale(0.11 -0.11)">
       <defs>
        <path id="DejaVuSans-30" d="M 2034 4250 
Q 1547 4250 1301 3770 
Q 1056 3291 1056 2328 
Q 1056 1369 1301 889 
Q 1547 409 2034 409 
Q 2525 409 2770 889 
Q 3016 1369 3016 2328 
Q 3016 3291 2770 3770 
Q 2525 4250 2034 4250 
z
M 2034 4750 
Q 2819 4750 3233 4129 
Q 3647 3509 3647 2328 
Q 3647 1150 3233 529 
Q 2819 -91 2034 -91 
Q 1250 -91 836 529 
Q 422 1150 422 2328 
Q 422 3509 836 4129 
Q 1250 4750 2034 4750 
z
" transform="scale(0.015625)"/>
       </defs>
       <use xlink:href="#DejaVuSans-30"/>
      </g>
     </g>
    </g>
    <g id="xtick_2">
     <g id="line2d_2">
      <path d="M 131.850165 273.312 
L 131.850165 7.2 
" clip-path="url(#p643a5f2445)" style="fill: none; stroke: #cccccc; stroke-linecap: round"/>
     </g>
     <g id="text_2">
      <!-- 20 -->
      <g style="fill: #262626" transform="translate(124.851415 291.170281) scale(0.11 -0.11)">
       <defs>
        <path id="DejaVuSans-32" d="M 1228 531 
L 3431 531 
L 3431 0 
L 469 0 
L 469 531 
Q 828 903 1448 1529 
Q 2069 2156 2228 2338 
Q 2531 2678 2651 2914 
Q 2772 3150 2772 3378 
Q 2772 3750 2511 3984 
Q 2250 4219 1831 4219 
Q 1534 4219 1204 4116 
Q 875 4013 500 3803 
L 500 4441 
Q 881 4594 1212 4672 
Q 1544 4750 1819 4750 
Q 2544 4750 2975 4387 
Q 3406 4025 3406 3419 
Q 3406 3131 3298 2873 
Q 3191 2616 2906 2266 
Q 2828 2175 2409 1742 
Q 1991 1309 1228 531 
z
" transform="scale(0.015625)"/>
       </defs>
       <use xlink:href="#DejaVuSans-32"/>
       <use xlink:href="#DejaVuSans-30" x="63.623047"/>
      </g>
     </g>
    </g>
    <g id="xtick_3">
     <g id="line2d_3">
      <path d="M 197.436942 273.312 
L 197.436942 7.2 
" clip-path="url(#p643a5f2445)" style="fill: none; stroke: #cccccc; stroke-linecap: round"/>
     </g>
     <g id="text_3">
      <!-- 40 -->
      <g style="fill: #262626" transform="translate(190.438192 291.170281) scale(0.11 -0.11)">
       <defs>
        <path id="DejaVuSans-34" d="M 2419 4116 
L 825 1625 
L 2419 1625 
L 2419 4116 
z
M 2253 4666 
L 3047 4666 
L 3047 1625 
L 3713 1625 
L 3713 1100 
L 3047 1100 
L 3047 0 
L 2419 0 
L 2419 1100 
L 313 1100 
L 313 1709 
L 2253 4666 
z
" transform="scale(0.015625)"/>
       </defs>
       <use xlink:href="#DejaVuSans-34"/>
       <use xlink:href="#DejaVuSans-30" x="63.623047"/>
      </g>
     </g>
    </g>
    <g id="xtick_4">
     <g id="line2d_4">
      <path d="M 263.023719 273.312 
L 263.023719 7.2 
" clip-path="url(#p643a5f2445)" style="fill: none; stroke: #cccccc; stroke-linecap: round"/>
     </g>
     <g id="text_4">
      <!-- 60 -->
      <g style="fill: #262626" transform="translate(256.024969 291.170281) scale(0.11 -0.11)">
       <defs>
        <path id="DejaVuSans-36" d="M 2113 2584 
Q 1688 2584 1439 2293 
Q 1191 2003 1191 1497 
Q 1191 994 1439 701 
Q 1688 409 2113 409 
Q 2538 409 2786 701 
Q 3034 994 3034 1497 
Q 3034 2003 2786 2293 
Q 2538 2584 2113 2584 
z
M 3366 4563 
L 3366 3988 
Q 3128 4100 2886 4159 
Q 2644 4219 2406 4219 
Q 1781 4219 1451 3797 
Q 1122 3375 1075 2522 
Q 1259 2794 1537 2939 
Q 1816 3084 2150 3084 
Q 2853 3084 3261 2657 
Q 3669 2231 3669 1497 
Q 3669 778 3244 343 
Q 2819 -91 2113 -91 
Q 1303 -91 875 529 
Q 447 1150 447 2328 
Q 447 3434 972 4092 
Q 1497 4750 2381 4750 
Q 2619 4750 2861 4703 
Q 3103 4656 3366 4563 
z
" transform="scale(0.015625)"/>
       </defs>
       <use xlink:href="#DejaVuSans-36"/>
       <use xlink:href="#DejaVuSans-30" x="63.623047"/>
      </g>
     </g>
    </g>
    <g id="xtick_5">
     <g id="line2d_5">
      <path d="M 328.610496 273.312 
L 328.610496 7.2 
" clip-path="url(#p643a5f2445)" style="fill: none; stroke: #cccccc; stroke-linecap: round"/>
     </g>
     <g id="text_5">
      <!-- 80 -->
      <g style="fill: #262626" transform="translate(321.611746 291.170281) scale(0.11 -0.11)">
       <defs>
        <path id="DejaVuSans-38" d="M 2034 2216 
Q 1584 2216 1326 1975 
Q 1069 1734 1069 1313 
Q 1069 891 1326 650 
Q 1584 409 2034 409 
Q 2484 409 2743 651 
Q 3003 894 3003 1313 
Q 3003 1734 2745 1975 
Q 2488 2216 2034 2216 
z
M 1403 2484 
Q 997 2584 770 2862 
Q 544 3141 544 3541 
Q 544 4100 942 4425 
Q 1341 4750 2034 4750 
Q 2731 4750 3128 4425 
Q 3525 4100 3525 3541 
Q 3525 3141 3298 2862 
Q 3072 2584 2669 2484 
Q 3125 2378 3379 2068 
Q 3634 1759 3634 1313 
Q 3634 634 3220 271 
Q 2806 -91 2034 -91 
Q 1263 -91 848 271 
Q 434 634 434 1313 
Q 434 1759 690 2068 
Q 947 2378 1403 2484 
z
M 1172 3481 
Q 1172 3119 1398 2916 
Q 1625 2713 2034 2713 
Q 2441 2713 2670 2916 
Q 2900 3119 2900 3481 
Q 2900 3844 2670 4047 
Q 2441 4250 2034 4250 
Q 1625 4250 1398 4047 
Q 1172 3844 1172 3481 
z
" transform="scale(0.015625)"/>
       </defs>
       <use xlink:href="#DejaVuSans-38"/>
       <use xlink:href="#DejaVuSans-30" x="63.623047"/>
      </g>
     </g>
    </g>
    <g id="xtick_6">
     <g id="line2d_6">
      <path d="M 394.197273 273.312 
L 394.197273 7.2 
" clip-path="url(#p643a5f2445)" style="fill: none; stroke: #cccccc; stroke-linecap: round"/>
     </g>
     <g id="text_6">
      <!-- 100 -->
      <g style="fill: #262626" transform="translate(383.699148 291.170281) scale(0.11 -0.11)">
       <defs>
        <path id="DejaVuSans-31" d="M 794 531 
L 1825 531 
L 1825 4091 
L 703 3866 
L 703 4441 
L 1819 4666 
L 2450 4666 
L 2450 531 
L 3481 531 
L 3481 0 
L 794 0 
L 794 531 
z
" transform="scale(0.015625)"/>
       </defs>
       <use xlink:href="#DejaVuSans-31"/>
       <use xlink:href="#DejaVuSans-30" x="63.623047"/>
       <use xlink:href="#DejaVuSans-30" x="127.246094"/>
      </g>
     </g>
    </g>
    <g id="text_7">
     <!-- Round -->
     <g style="fill: #262626" transform="translate(212.885625 306.576062) scale(0.12 -0.12)">
      <defs>
       <path id="DejaVuSans-52" d="M 2841 2188 
Q 3044 2119 3236 1894 
Q 3428 1669 3622 1275 
L 4263 0 
L 3584 0 
L 2988 1197 
Q 2756 1666 2539 1819 
Q 2322 1972 1947 1972 
L 1259 1972 
L 1259 0 
L 628 0 
L 628 4666 
L 2053 4666 
Q 2853 4666 3247 4331 
Q 3641 3997 3641 3322 
Q 3641 2881 3436 2590 
Q 3231 2300 2841 2188 
z
M 1259 4147 
L 1259 2491 
L 2053 2491 
Q 2509 2491 2742 2702 
Q 2975 2913 2975 3322 
Q 2975 3731 2742 3939 
Q 2509 4147 2053 4147 
L 1259 4147 
z
" transform="scale(0.015625)"/>
       <path id="DejaVuSans-6f" d="M 1959 3097 
Q 1497 3097 1228 2736 
Q 959 2375 959 1747 
Q 959 1119 1226 758 
Q 1494 397 1959 397 
Q 2419 397 2687 759 
Q 2956 1122 2956 1747 
Q 2956 2369 2687 2733 
Q 2419 3097 1959 3097 
z
M 1959 3584 
Q 2709 3584 3137 3096 
Q 3566 2609 3566 1747 
Q 3566 888 3137 398 
Q 2709 -91 1959 -91 
Q 1206 -91 779 398 
Q 353 888 353 1747 
Q 353 2609 779 3096 
Q 1206 3584 1959 3584 
z
" transform="scale(0.015625)"/>
       <path id="DejaVuSans-75" d="M 544 1381 
L 544 3500 
L 1119 3500 
L 1119 1403 
Q 1119 906 1312 657 
Q 1506 409 1894 409 
Q 2359 409 2629 706 
Q 2900 1003 2900 1516 
L 2900 3500 
L 3475 3500 
L 3475 0 
L 2900 0 
L 2900 538 
Q 2691 219 2414 64 
Q 2138 -91 1772 -91 
Q 1169 -91 856 284 
Q 544 659 544 1381 
z
M 1991 3584 
L 1991 3584 
z
" transform="scale(0.015625)"/>
       <path id="DejaVuSans-6e" d="M 3513 2113 
L 3513 0 
L 2938 0 
L 2938 2094 
Q 2938 2591 2744 2837 
Q 2550 3084 2163 3084 
Q 1697 3084 1428 2787 
Q 1159 2491 1159 1978 
L 1159 0 
L 581 0 
L 581 3500 
L 1159 3500 
L 1159 2956 
Q 1366 3272 1645 3428 
Q 1925 3584 2291 3584 
Q 2894 3584 3203 3211 
Q 3513 2838 3513 2113 
z
" transform="scale(0.015625)"/>
       <path id="DejaVuSans-64" d="M 2906 2969 
L 2906 4863 
L 3481 4863 
L 3481 0 
L 2906 0 
L 2906 525 
Q 2725 213 2448 61 
Q 2172 -91 1784 -91 
Q 1150 -91 751 415 
Q 353 922 353 1747 
Q 353 2572 751 3078 
Q 1150 3584 1784 3584 
Q 2172 3584 2448 3432 
Q 2725 3281 2906 2969 
z
M 947 1747 
Q 947 1113 1208 752 
Q 1469 391 1925 391 
Q 2381 391 2643 752 
Q 2906 1113 2906 1747 
Q 2906 2381 2643 2742 
Q 2381 3103 1925 3103 
Q 1469 3103 1208 2742 
Q 947 2381 947 1747 
z
" transform="scale(0.015625)"/>
      </defs>
      <use xlink:href="#DejaVuSans-52"/>
      <use xlink:href="#DejaVuSans-6f" x="64.982422"/>
      <use xlink:href="#DejaVuSans-75" x="126.164062"/>
      <use xlink:href="#DejaVuSans-6e" x="189.542969"/>
      <use xlink:href="#DejaVuSans-64" x="252.921875"/>
     </g>
    </g>
   </g>
   <g id="matplotlib.axis_2">
    <g id="ytick_1">
     <g id="line2d_7">
      <path d="M 53.31 230.819492 
L 410.43 230.819492 
" clip-path="url(#p643a5f2445)" style="fill: none; stroke: #cccccc; stroke-linecap: round"/>
     </g>
     <g id="text_8">
      <!-- 20 -->
      <g style="fill: #262626" transform="translate(29.8125 234.998632) scale(0.11 -0.11)">
       <use xlink:href="#DejaVuSans-32"/>
       <use xlink:href="#DejaVuSans-30" x="63.623047"/>
      </g>
     </g>
    </g>
    <g id="ytick_2">
     <g id="line2d_8">
      <path d="M 53.31 177.440872 
L 410.43 177.440872 
" clip-path="url(#p643a5f2445)" style="fill: none; stroke: #cccccc; stroke-linecap: round"/>
     </g>
     <g id="text_9">
      <!-- 40 -->
      <g style="fill: #262626" transform="translate(29.8125 181.620013) scale(0.11 -0.11)">
       <use xlink:href="#DejaVuSans-34"/>
       <use xlink:href="#DejaVuSans-30" x="63.623047"/>
      </g>
     </g>
    </g>
    <g id="ytick_3">
     <g id="line2d_9">
      <path d="M 53.31 124.062253 
L 410.43 124.062253 
" clip-path="url(#p643a5f2445)" style="fill: none; stroke: #cccccc; stroke-linecap: round"/>
     </g>
     <g id="text_10">
      <!-- 60 -->
      <g style="fill: #262626" transform="translate(29.8125 128.241393) scale(0.11 -0.11)">
       <use xlink:href="#DejaVuSans-36"/>
       <use xlink:href="#DejaVuSans-30" x="63.623047"/>
      </g>
     </g>
    </g>
    <g id="ytick_4">
     <g id="line2d_10">
      <path d="M 53.31 70.683633 
L 410.43 70.683633 
" clip-path="url(#p643a5f2445)" style="fill: none; stroke: #cccccc; stroke-linecap: round"/>
     </g>
     <g id="text_11">
      <!-- 80 -->
      <g style="fill: #262626" transform="translate(29.8125 74.862774) scale(0.11 -0.11)">
       <use xlink:href="#DejaVuSans-38"/>
       <use xlink:href="#DejaVuSans-30" x="63.623047"/>
      </g>
     </g>
    </g>
    <g id="ytick_5">
     <g id="line2d_11">
      <path d="M 53.31 17.305014 
L 410.43 17.305014 
" clip-path="url(#p643a5f2445)" style="fill: none; stroke: #cccccc; stroke-linecap: round"/>
     </g>
     <g id="text_12">
      <!-- 100 -->
      <g style="fill: #262626" transform="translate(22.81375 21.484154) scale(0.11 -0.11)">
       <use xlink:href="#DejaVuSans-31"/>
       <use xlink:href="#DejaVuSans-30" x="63.623047"/>
       <use xlink:href="#DejaVuSans-30" x="127.246094"/>
      </g>
     </g>
    </g>
    <g id="text_13">
     <!-- Accuracy (%) -->
     <g style="fill: #262626" transform="translate(16.318125 179.939437) rotate(-90) scale(0.12 -0.12)">
      <defs>
       <path id="DejaVuSans-41" d="M 2188 4044 
L 1331 1722 
L 3047 1722 
L 2188 4044 
z
M 1831 4666 
L 2547 4666 
L 4325 0 
L 3669 0 
L 3244 1197 
L 1141 1197 
L 716 0 
L 50 0 
L 1831 4666 
z
" transform="scale(0.015625)"/>
       <path id="DejaVuSans-63" d="M 3122 3366 
L 3122 2828 
Q 2878 2963 2633 3030 
Q 2388 3097 2138 3097 
Q 1578 3097 1268 2742 
Q 959 2388 959 1747 
Q 959 1106 1268 751 
Q 1578 397 2138 397 
Q 2388 397 2633 464 
Q 2878 531 3122 666 
L 3122 134 
Q 2881 22 2623 -34 
Q 2366 -91 2075 -91 
Q 1284 -91 818 406 
Q 353 903 353 1747 
Q 353 2603 823 3093 
Q 1294 3584 2113 3584 
Q 2378 3584 2631 3529 
Q 2884 3475 3122 3366 
z
" transform="scale(0.015625)"/>
       <path id="DejaVuSans-72" d="M 2631 2963 
Q 2534 3019 2420 3045 
Q 2306 3072 2169 3072 
Q 1681 3072 1420 2755 
Q 1159 2438 1159 1844 
L 1159 0 
L 581 0 
L 581 3500 
L 1159 3500 
L 1159 2956 
Q 1341 3275 1631 3429 
Q 1922 3584 2338 3584 
Q 2397 3584 2469 3576 
Q 2541 3569 2628 3553 
L 2631 2963 
z
" transform="scale(0.015625)"/>
       <path id="DejaVuSans-61" d="M 2194 1759 
Q 1497 1759 1228 1600 
Q 959 1441 959 1056 
Q 959 750 1161 570 
Q 1363 391 1709 391 
Q 2188 391 2477 730 
Q 2766 1069 2766 1631 
L 2766 1759 
L 2194 1759 
z
M 3341 1997 
L 3341 0 
L 2766 0 
L 2766 531 
Q 2569 213 2275 61 
Q 1981 -91 1556 -91 
Q 1019 -91 701 211 
Q 384 513 384 1019 
Q 384 1609 779 1909 
Q 1175 2209 1959 2209 
L 2766 2209 
L 2766 2266 
Q 2766 2663 2505 2880 
Q 2244 3097 1772 3097 
Q 1472 3097 1187 3025 
Q 903 2953 641 2809 
L 641 3341 
Q 956 3463 1253 3523 
Q 1550 3584 1831 3584 
Q 2591 3584 2966 3190 
Q 3341 2797 3341 1997 
z
" transform="scale(0.015625)"/>
       <path id="DejaVuSans-79" d="M 2059 -325 
Q 1816 -950 1584 -1140 
Q 1353 -1331 966 -1331 
L 506 -1331 
L 506 -850 
L 844 -850 
Q 1081 -850 1212 -737 
Q 1344 -625 1503 -206 
L 1606 56 
L 191 3500 
L 800 3500 
L 1894 763 
L 2988 3500 
L 3597 3500 
L 2059 -325 
z
" transform="scale(0.015625)"/>
       <path id="DejaVuSans-20" transform="scale(0.015625)"/>
       <path id="DejaVuSans-28" d="M 1984 4856 
Q 1566 4138 1362 3434 
Q 1159 2731 1159 2009 
Q 1159 1288 1364 580 
Q 1569 -128 1984 -844 
L 1484 -844 
Q 1016 -109 783 600 
Q 550 1309 550 2009 
Q 550 2706 781 3412 
Q 1013 4119 1484 4856 
L 1984 4856 
z
" transform="scale(0.015625)"/>
       <path id="DejaVuSans-25" d="M 4653 2053 
Q 4381 2053 4226 1822 
Q 4072 1591 4072 1178 
Q 4072 772 4226 539 
Q 4381 306 4653 306 
Q 4919 306 5073 539 
Q 5228 772 5228 1178 
Q 5228 1588 5073 1820 
Q 4919 2053 4653 2053 
z
M 4653 2450 
Q 5147 2450 5437 2106 
Q 5728 1763 5728 1178 
Q 5728 594 5436 251 
Q 5144 -91 4653 -91 
Q 4153 -91 3862 251 
Q 3572 594 3572 1178 
Q 3572 1766 3864 2108 
Q 4156 2450 4653 2450 
z
M 1428 4353 
Q 1159 4353 1004 4120 
Q 850 3888 850 3481 
Q 850 3069 1003 2837 
Q 1156 2606 1428 2606 
Q 1700 2606 1854 2837 
Q 2009 3069 2009 3481 
Q 2009 3884 1853 4118 
Q 1697 4353 1428 4353 
z
M 4250 4750 
L 4750 4750 
L 1831 -91 
L 1331 -91 
L 4250 4750 
z
M 1428 4750 
Q 1922 4750 2215 4408 
Q 2509 4066 2509 3481 
Q 2509 2891 2217 2550 
Q 1925 2209 1428 2209 
Q 931 2209 642 2551 
Q 353 2894 353 3481 
Q 353 4063 643 4406 
Q 934 4750 1428 4750 
z
" transform="scale(0.015625)"/>
       <path id="DejaVuSans-29" d="M 513 4856 
L 1013 4856 
Q 1481 4119 1714 3412 
Q 1947 2706 1947 2009 
Q 1947 1309 1714 600 
Q 1481 -109 1013 -844 
L 513 -844 
Q 928 -128 1133 580 
Q 1338 1288 1338 2009 
Q 1338 2731 1133 3434 
Q 928 4138 513 4856 
z
" transform="scale(0.015625)"/>
      </defs>
      <use xlink:href="#DejaVuSans-41"/>
      <use xlink:href="#DejaVuSans-63" x="66.658203"/>
      <use xlink:href="#DejaVuSans-63" x="121.638672"/>
      <use xlink:href="#DejaVuSans-75" x="176.619141"/>
      <use xlink:href="#DejaVuSans-72" x="239.998047"/>
      <use xlink:href="#DejaVuSans-61" x="281.111328"/>
      <use xlink:href="#DejaVuSans-63" x="342.390625"/>
      <use xlink:href="#DejaVuSans-79" x="397.371094"/>
      <use xlink:href="#DejaVuSans-20" x="456.550781"/>
      <use xlink:href="#DejaVuSans-28" x="488.337891"/>
      <use xlink:href="#DejaVuSans-25" x="527.351562"/>
      <use xlink:href="#DejaVuSans-29" x="622.371094"/>
     </g>
    </g>
   </g>
   <g id="PolyCollection_1">
    <defs>
     <path id="md51b0a1813" d="M 69.542727 -120.062589 
L 69.542727 -75.018074 
L 72.822066 -111.846846 
L 76.101405 -127.865732 
L 79.380744 -174.375677 
L 82.660083 -213.661223 
L 85.939421 -233.758942 
L 89.21876 -249.250536 
L 92.498099 -246.210669 
L 95.777438 -253.287364 
L 99.056777 -281.673471 
L 102.336116 -278.836938 
L 105.615455 -274.834247 
L 108.894793 -275.28411 
L 112.174132 -283.715876 
L 115.453471 -283.137042 
L 118.73281 -279.712105 
L 122.012149 -281.271617 
L 125.291488 -284.884297 
L 128.570826 -282.137245 
L 131.850165 -279.187716 
L 135.129504 -283.17954 
L 138.408843 -281.155977 
L 141.688182 -286.814198 
L 144.967521 -285.866258 
L 148.24686 -286.750647 
L 151.526198 -287.82553 
L 154.805537 -281.823291 
L 158.084876 -283.081517 
L 161.364215 -282.203382 
L 164.643554 -285.293037 
L 167.922893 -283.874765 
L 171.202231 -285.549856 
L 174.48157 -285.665856 
L 177.760909 -286.833722 
L 181.040248 -285.264726 
L 184.319587 -288.938521 
L 187.598926 -289.750789 
L 190.878264 -289.586266 
L 194.157603 -284.289685 
L 197.436942 -286.092554 
L 200.716281 -289.728863 
L 203.99562 -289.88804 
L 207.274959 -290.168434 
L 210.554298 -289.512706 
L 213.833636 -283.444735 
L 217.112975 -283.662416 
L 220.392314 -286.239015 
L 223.671653 -288.463492 
L 226.950992 -288.809774 
L 230.230331 -291.056805 
L 233.509669 -292.213773 
L 236.789008 -292.672213 
L 240.068347 -292.757841 
L 243.347686 -293.168525 
L 246.627025 -292.882891 
L 249.906364 -292.433507 
L 253.185702 -292.488697 
L 256.465041 -292.391652 
L 259.74438 -291.167055 
L 263.023719 -293.538191 
L 266.303058 -293.61406 
L 269.582397 -293.313558 
L 272.861736 -291.000776 
L 276.141074 -291.540262 
L 279.420413 -292.167972 
L 282.699752 -290.606335 
L 285.979091 -290.591528 
L 289.25843 -291.139592 
L 292.537769 -290.860807 
L 295.817107 -291.796176 
L 299.096446 -290.342733 
L 302.375785 -290.109454 
L 305.655124 -289.987115 
L 308.934463 -289.981768 
L 312.213802 -291.049973 
L 315.49314 -291.456628 
L 318.772479 -292.282641 
L 322.051818 -292.591891 
L 325.331157 -292.85061 
L 328.610496 -293.072288 
L 331.889835 -293.308444 
L 335.169174 -293.000482 
L 338.448512 -293.064923 
L 341.727851 -293.510208 
L 345.00719 -293.997195 
L 348.286529 -293.637729 
L 351.565868 -292.416715 
L 354.845207 -292.45689 
L 358.124545 -291.857729 
L 361.403884 -291.711436 
L 364.683223 -291.999391 
L 367.962562 -291.648811 
L 371.241901 -291.781741 
L 374.52124 -292.745802 
L 377.800579 -292.704863 
L 381.079917 -292.962276 
L 384.359256 -293.203037 
L 387.638595 -293.236968 
L 390.917934 -295.326497 
L 394.197273 -295.07797 
L 394.197273 -296.953923 
L 394.197273 -296.953923 
L 390.917934 -296.975688 
L 387.638595 -296.913082 
L 384.359256 -296.833626 
L 381.079917 -296.722794 
L 377.800579 -296.747722 
L 374.52124 -296.639635 
L 371.241901 -296.535303 
L 367.962562 -296.367726 
L 364.683223 -296.492958 
L 361.403884 -296.455241 
L 358.124545 -296.521182 
L 354.845207 -296.504281 
L 351.565868 -296.616042 
L 348.286529 -296.748777 
L 345.00719 -296.573595 
L 341.727851 -296.648041 
L 338.448512 -296.414816 
L 335.169174 -296.470314 
L 331.889835 -296.365149 
L 328.610496 -296.24422 
L 325.331157 -296.261479 
L 322.051818 -296.292701 
L 318.772479 -296.187353 
L 315.49314 -296.15199 
L 312.213802 -296.23 
L 308.934463 -296.19357 
L 305.655124 -296.146578 
L 302.375785 -296.181302 
L 299.096446 -296.095226 
L 295.817107 -296.128779 
L 292.537769 -295.786211 
L 289.25843 -295.941736 
L 285.979091 -295.960837 
L 282.699752 -295.854241 
L 279.420413 -295.592937 
L 276.141074 -295.691026 
L 272.861736 -295.776487 
L 269.582397 -295.54564 
L 266.303058 -295.755302 
L 263.023719 -295.740078 
L 259.74438 -295.54728 
L 256.465041 -295.287808 
L 253.185702 -295.535694 
L 249.906364 -295.562857 
L 246.627025 -295.434458 
L 243.347686 -295.540584 
L 240.068347 -295.537243 
L 236.789008 -295.265937 
L 233.509669 -295.272408 
L 230.230331 -295.296409 
L 226.950992 -294.642742 
L 223.671653 -294.563078 
L 220.392314 -294.807429 
L 217.112975 -294.871715 
L 213.833636 -294.999434 
L 210.554298 -295.268035 
L 207.274959 -295.058896 
L 203.99562 -295.128542 
L 200.716281 -294.641104 
L 197.436942 -294.275001 
L 194.157603 -294.268336 
L 190.878264 -294.12968 
L 187.598926 -294.55987 
L 184.319587 -294.353476 
L 181.040248 -294.002751 
L 177.760909 -293.665701 
L 174.48157 -293.686137 
L 171.202231 -293.600831 
L 167.922893 -292.972706 
L 164.643554 -293.410229 
L 161.364215 -293.182144 
L 158.084876 -293.471565 
L 154.805537 -293.4222 
L 151.526198 -292.969163 
L 148.24686 -292.459704 
L 144.967521 -292.816029 
L 141.688182 -292.386819 
L 138.408843 -292.315626 
L 135.129504 -291.611791 
L 131.850165 -291.067808 
L 128.570826 -290.689916 
L 125.291488 -291.726676 
L 122.012149 -290.677861 
L 118.73281 -290.767367 
L 115.453471 -290.577558 
L 112.174132 -290.68549 
L 108.894793 -288.822785 
L 105.615455 -287.915632 
L 102.336116 -288.779507 
L 99.056777 -288.883782 
L 95.777438 -279.973423 
L 92.498099 -274.033037 
L 89.21876 -273.095925 
L 85.939421 -261.686064 
L 82.660083 -249.07155 
L 79.380744 -218.547875 
L 76.101405 -182.897778 
L 72.822066 -167.379678 
L 69.542727 -120.062589 
z
" style="stroke: #4c72b0; stroke-opacity: 0.2"/>
    </defs>
    <g clip-path="url(#p643a5f2445)">
     <use xlink:href="#md51b0a1813" x="0" y="316.271687" style="fill: #4c72b0; fill-opacity: 0.2; stroke: #4c72b0; stroke-opacity: 0.2"/>
    </g>
   </g>
   <g id="PolyCollection_2">
    <defs>
     <path id="m0d4cdfe7f7" d="M 69.542727 -86.48323 
L 69.542727 -55.055687 
L 72.822066 -61.325189 
L 76.101405 -58.583162 
L 79.380744 -126.086907 
L 82.660083 -169.973759 
L 85.939421 -176.713244 
L 89.21876 -206.795412 
L 92.498099 -192.552131 
L 95.777438 -206.272485 
L 99.056777 -253.102812 
L 102.336116 -217.429555 
L 105.615455 -207.892514 
L 108.894793 -230.089524 
L 112.174132 -249.973548 
L 115.453471 -244.901883 
L 118.73281 -235.661485 
L 122.012149 -243.515541 
L 125.291488 -256.298202 
L 128.570826 -230.018607 
L 131.850165 -226.463129 
L 135.129504 -237.01804 
L 138.408843 -241.076394 
L 141.688182 -251.571825 
L 144.967521 -239.0136 
L 148.24686 -238.061168 
L 151.526198 -235.761636 
L 154.805537 -246.547354 
L 158.084876 -245.360298 
L 161.364215 -239.455885 
L 164.643554 -241.18283 
L 167.922893 -235.049594 
L 171.202231 -247.157189 
L 174.48157 -250.781584 
L 177.760909 -252.506299 
L 181.040248 -261.022912 
L 184.319587 -270.916488 
L 187.598926 -263.285112 
L 190.878264 -266.654448 
L 194.157603 -254.125359 
L 197.436942 -249.440269 
L 200.716281 -267.769915 
L 203.99562 -272.651539 
L 207.274959 -265.931609 
L 210.554298 -272.503152 
L 213.833636 -276.280727 
L 217.112975 -251.502627 
L 220.392314 -275.343879 
L 223.671653 -251.747548 
L 226.950992 -248.08947 
L 230.230331 -260.241531 
L 233.509669 -262.895772 
L 236.789008 -270.061284 
L 240.068347 -251.899865 
L 243.347686 -274.219729 
L 246.627025 -280.332323 
L 249.906364 -274.538419 
L 253.185702 -259.620373 
L 256.465041 -250.048372 
L 259.74438 -254.576678 
L 263.023719 -266.749609 
L 266.303058 -267.123893 
L 269.582397 -261.822845 
L 272.861736 -280.350595 
L 276.141074 -271.331323 
L 279.420413 -278.085349 
L 282.699752 -279.186376 
L 285.979091 -269.691717 
L 289.25843 -277.347503 
L 292.537769 -257.422025 
L 295.817107 -270.722207 
L 299.096446 -258.55203 
L 302.375785 -253.580928 
L 305.655124 -260.449827 
L 308.934463 -251.157875 
L 312.213802 -280.530116 
L 315.49314 -271.988696 
L 318.772479 -260.610762 
L 322.051818 -276.141622 
L 325.331157 -285.045474 
L 328.610496 -278.736303 
L 331.889835 -283.706735 
L 335.169174 -269.108041 
L 338.448512 -262.563182 
L 341.727851 -253.007532 
L 345.00719 -281.164748 
L 348.286529 -272.867883 
L 351.565868 -283.076526 
L 354.845207 -279.219442 
L 358.124545 -280.389415 
L 361.403884 -277.228046 
L 364.683223 -276.205335 
L 367.962562 -286.430112 
L 371.241901 -277.844284 
L 374.52124 -287.564761 
L 377.800579 -282.279016 
L 381.079917 -275.113624 
L 384.359256 -282.643669 
L 387.638595 -281.836472 
L 390.917934 -275.695569 
L 394.197273 -282.352429 
L 394.197273 -288.407379 
L 394.197273 -288.407379 
L 390.917934 -285.884973 
L 387.638595 -286.084364 
L 384.359256 -287.333236 
L 381.079917 -286.558664 
L 377.800579 -287.271672 
L 374.52124 -290.637878 
L 371.241901 -286.416724 
L 367.962562 -290.04044 
L 364.683223 -286.168387 
L 361.403884 -287.001567 
L 358.124545 -288.100958 
L 354.845207 -287.551447 
L 351.565868 -288.75599 
L 348.286529 -283.771964 
L 345.00719 -288.152999 
L 341.727851 -274.683332 
L 338.448512 -279.506907 
L 335.169174 -284.034172 
L 331.889835 -288.88868 
L 328.610496 -285.695063 
L 325.331157 -288.106534 
L 322.051818 -284.381039 
L 318.772479 -279.550839 
L 315.49314 -281.01349 
L 312.213802 -286.656972 
L 308.934463 -273.780325 
L 305.655124 -280.174166 
L 302.375785 -277.241643 
L 299.096446 -278.553723 
L 295.817107 -282.421532 
L 292.537769 -278.075828 
L 289.25843 -283.043899 
L 285.979091 -277.493144 
L 282.699752 -284.979191 
L 279.420413 -285.88751 
L 276.141074 -281.448676 
L 272.861736 -286.244902 
L 269.582397 -279.905818 
L 266.303058 -281.811722 
L 263.023719 -281.15035 
L 259.74438 -278.30375 
L 256.465041 -274.98297 
L 253.185702 -280.258364 
L 249.906364 -282.151004 
L 246.627025 -286.371134 
L 243.347686 -280.490049 
L 240.068347 -273.795174 
L 236.789008 -280.308883 
L 233.509669 -276.347636 
L 230.230331 -277.297832 
L 226.950992 -269.810874 
L 223.671653 -272.881967 
L 220.392314 -283.16876 
L 217.112975 -276.874516 
L 213.833636 -282.32751 
L 210.554298 -282.898153 
L 207.274959 -279.483433 
L 203.99562 -279.971581 
L 200.716281 -278.136949 
L 197.436942 -271.77724 
L 194.157603 -275.09282 
L 190.878264 -277.768872 
L 187.598926 -276.781503 
L 184.319587 -278.27163 
L 181.040248 -274.606713 
L 177.760909 -265.845046 
L 174.48157 -270.33194 
L 171.202231 -271.83244 
L 167.922893 -261.298254 
L 164.643554 -266.011716 
L 161.364215 -263.47868 
L 158.084876 -268.854412 
L 154.805537 -271.120041 
L 151.526198 -261.807893 
L 148.24686 -264.575873 
L 144.967521 -264.808406 
L 141.688182 -266.515009 
L 138.408843 -258.986688 
L 135.129504 -262.221413 
L 131.850165 -251.499195 
L 128.570826 -255.720442 
L 125.291488 -269.265505 
L 122.012149 -259.890164 
L 118.73281 -249.353058 
L 115.453471 -263.409951 
L 112.174132 -266.811016 
L 108.894793 -253.306646 
L 105.615455 -234.2334 
L 102.336116 -244.135027 
L 99.056777 -262.177476 
L 95.777438 -235.08944 
L 92.498099 -223.133057 
L 89.21876 -233.843004 
L 85.939421 -207.354608 
L 82.660083 -203.254901 
L 79.380744 -161.042826 
L 76.101405 -86.269664 
L 72.822066 -97.581671 
L 69.542727 -86.48323 
z
" style="stroke: #dd8452; stroke-opacity: 0.2"/>
    </defs>
    <g clip-path="url(#p643a5f2445)">
     <use xlink:href="#m0d4cdfe7f7" x="0" y="316.271687" style="fill: #dd8452; fill-opacity: 0.2; stroke: #dd8452; stroke-opacity: 0.2"/>
    </g>
   </g>
   <g id="PolyCollection_3">
    <defs>
     <path id="m4223dc9734" d="M 69.542727 -105.212719 
L 69.542727 -61.970677 
L 72.822066 -81.217428 
L 76.101405 -102.469805 
L 79.380744 -117.055533 
L 82.660083 -139.079526 
L 85.939421 -161.473784 
L 89.21876 -160.515206 
L 92.498099 -180.829656 
L 95.777438 -192.642683 
L 99.056777 -205.774613 
L 102.336116 -212.230088 
L 105.615455 -221.565167 
L 108.894793 -230.702073 
L 112.174132 -231.149655 
L 115.453471 -235.455313 
L 118.73281 -237.386254 
L 122.012149 -238.7922 
L 125.291488 -240.711417 
L 128.570826 -239.91059 
L 131.850165 -244.132243 
L 135.129504 -244.274429 
L 138.408843 -246.955222 
L 141.688182 -248.434191 
L 144.967521 -250.174897 
L 148.24686 -250.988371 
L 151.526198 -250.508808 
L 154.805537 -252.07284 
L 158.084876 -253.444925 
L 161.364215 -254.771481 
L 164.643554 -254.680018 
L 167.922893 -255.553703 
L 171.202231 -258.643685 
L 174.48157 -257.440939 
L 177.760909 -258.518304 
L 181.040248 -260.716433 
L 184.319587 -261.410335 
L 187.598926 -261.238189 
L 190.878264 -261.716631 
L 194.157603 -262.95995 
L 197.436942 -262.453385 
L 200.716281 -262.471338 
L 203.99562 -263.387377 
L 207.274959 -261.663659 
L 210.554298 -260.905553 
L 213.833636 -263.301746 
L 217.112975 -263.290216 
L 220.392314 -264.833898 
L 223.671653 -264.369805 
L 226.950992 -264.74758 
L 230.230331 -265.115632 
L 233.509669 -266.435788 
L 236.789008 -267.144395 
L 240.068347 -267.991345 
L 243.347686 -268.921422 
L 246.627025 -268.873264 
L 249.906364 -269.79298 
L 253.185702 -268.911701 
L 256.465041 -269.579321 
L 259.74438 -269.62907 
L 263.023719 -269.094431 
L 266.303058 -269.983144 
L 269.582397 -270.687296 
L 272.861736 -269.277171 
L 276.141074 -271.795327 
L 279.420413 -271.87855 
L 282.699752 -273.503295 
L 285.979091 -271.840865 
L 289.25843 -272.895883 
L 292.537769 -272.138432 
L 295.817107 -272.746347 
L 299.096446 -273.88816 
L 302.375785 -272.194764 
L 305.655124 -271.643757 
L 308.934463 -273.186765 
L 312.213802 -273.414083 
L 315.49314 -272.680012 
L 318.772479 -280.771133 
L 322.051818 -274.809064 
L 325.331157 -275.882465 
L 328.610496 -275.379938 
L 331.889835 -274.23711 
L 335.169174 -276.244046 
L 338.448512 -276.227328 
L 341.727851 -276.294354 
L 345.00719 -276.794522 
L 348.286529 -276.80661 
L 351.565868 -276.923817 
L 354.845207 -277.335848 
L 358.124545 -280.986278 
L 361.403884 -280.844122 
L 364.683223 -280.677148 
L 367.962562 -282.281729 
L 371.241901 -281.826001 
L 374.52124 -281.65476 
L 377.800579 -281.731535 
L 381.079917 -281.720631 
L 384.359256 -281.459724 
L 387.638595 -281.176324 
L 390.917934 -280.00684 
L 394.197273 -280.452102 
L 394.197273 -293.590325 
L 394.197273 -293.590325 
L 390.917934 -293.323764 
L 387.638595 -292.968061 
L 384.359256 -293.426066 
L 381.079917 -293.099545 
L 377.800579 -294.023591 
L 374.52124 -293.331656 
L 371.241901 -293.651891 
L 367.962562 -293.660351 
L 364.683223 -293.49995 
L 361.403884 -293.402171 
L 358.124545 -293.041 
L 354.845207 -293.388205 
L 351.565868 -293.231427 
L 348.286529 -293.347027 
L 345.00719 -293.061584 
L 341.727851 -292.827064 
L 338.448512 -292.870759 
L 335.169174 -292.640872 
L 331.889835 -292.479939 
L 328.610496 -292.628948 
L 325.331157 -292.362618 
L 322.051818 -292.264912 
L 318.772479 -292.214893 
L 315.49314 -292.700186 
L 312.213802 -292.494978 
L 308.934463 -292.527524 
L 305.655124 -292.204956 
L 302.375785 -292.178466 
L 299.096446 -292.022645 
L 295.817107 -292.363588 
L 292.537769 -291.994836 
L 289.25843 -291.9494 
L 285.979091 -291.913489 
L 282.699752 -291.718101 
L 279.420413 -291.504075 
L 276.141074 -291.601019 
L 272.861736 -290.934444 
L 269.582397 -291.154001 
L 266.303058 -290.844373 
L 263.023719 -290.583111 
L 259.74438 -290.263651 
L 256.465041 -289.812914 
L 253.185702 -290.103222 
L 249.906364 -290.066724 
L 246.627025 -290.097623 
L 243.347686 -290.158076 
L 240.068347 -289.338434 
L 236.789008 -289.539525 
L 233.509669 -288.224719 
L 230.230331 -288.315038 
L 226.950992 -287.825418 
L 223.671653 -287.172735 
L 220.392314 -286.953921 
L 217.112975 -287.150316 
L 213.833636 -286.224916 
L 210.554298 -286.32549 
L 207.274959 -286.511926 
L 203.99562 -286.736863 
L 200.716281 -286.664702 
L 197.436942 -286.465299 
L 194.157603 -286.614377 
L 190.878264 -285.620334 
L 187.598926 -285.092082 
L 184.319587 -284.682753 
L 181.040248 -284.567271 
L 177.760909 -283.861695 
L 174.48157 -283.535831 
L 171.202231 -282.868397 
L 167.922893 -281.439077 
L 164.643554 -281.578612 
L 161.364215 -280.650103 
L 158.084876 -280.150035 
L 154.805537 -280.285322 
L 151.526198 -279.37192 
L 148.24686 -280.125415 
L 144.967521 -277.894129 
L 141.688182 -277.988936 
L 138.408843 -276.24565 
L 135.129504 -275.23428 
L 131.850165 -274.691226 
L 128.570826 -270.847217 
L 125.291488 -271.414491 
L 122.012149 -272.338623 
L 118.73281 -269.921063 
L 115.453471 -270.032551 
L 112.174132 -266.162171 
L 108.894793 -264.879913 
L 105.615455 -259.919924 
L 102.336116 -255.177209 
L 99.056777 -250.659294 
L 95.777438 -239.438115 
L 92.498099 -234.023545 
L 89.21876 -215.001694 
L 85.939421 -216.518941 
L 82.660083 -192.041671 
L 79.380744 -173.235638 
L 76.101405 -155.450103 
L 72.822066 -130.855362 
L 69.542727 -105.212719 
z
" style="stroke: #55a868; stroke-opacity: 0.2"/>
    </defs>
    <g clip-path="url(#p643a5f2445)">
     <use xlink:href="#m4223dc9734" x="0" y="316.271687" style="fill: #55a868; fill-opacity: 0.2; stroke: #55a868; stroke-opacity: 0.2"/>
    </g>
   </g>
   <g id="PolyCollection_4">
    <defs>
     <path id="m26ea72c0f3" d="M 69.542727 -104.766483 
L 69.542727 -64.518784 
L 72.822066 -80.936289 
L 76.101405 -92.90545 
L 79.380744 -98.503269 
L 82.660083 -118.933024 
L 85.939421 -105.408334 
L 89.21876 -128.856865 
L 92.498099 -135.206729 
L 95.777438 -131.990383 
L 99.056777 -141.437059 
L 102.336116 -150.33069 
L 105.615455 -164.504093 
L 108.894793 -174.78378 
L 112.174132 -188.488814 
L 115.453471 -200.75904 
L 118.73281 -213.007397 
L 122.012149 -213.088986 
L 125.291488 -216.40053 
L 128.570826 -221.325719 
L 131.850165 -227.95911 
L 135.129504 -231.253573 
L 138.408843 -233.666431 
L 141.688182 -243.890782 
L 144.967521 -243.981279 
L 148.24686 -245.830676 
L 151.526198 -251.160495 
L 154.805537 -251.335492 
L 158.084876 -252.924382 
L 161.364215 -254.596289 
L 164.643554 -256.791026 
L 167.922893 -256.25328 
L 171.202231 -258.668396 
L 174.48157 -259.177433 
L 177.760909 -259.905037 
L 181.040248 -263.954264 
L 184.319587 -262.953793 
L 187.598926 -264.782947 
L 190.878264 -264.402058 
L 194.157603 -267.755007 
L 197.436942 -268.056172 
L 200.716281 -270.037224 
L 203.99562 -270.96727 
L 207.274959 -269.870405 
L 210.554298 -272.940777 
L 213.833636 -274.986617 
L 217.112975 -274.908563 
L 220.392314 -277.002816 
L 223.671653 -277.611192 
L 226.950992 -277.581699 
L 230.230331 -278.489542 
L 233.509669 -278.998146 
L 236.789008 -279.363681 
L 240.068347 -280.218124 
L 243.347686 -281.119909 
L 246.627025 -280.513325 
L 249.906364 -280.860056 
L 253.185702 -281.944664 
L 256.465041 -282.349001 
L 259.74438 -283.666204 
L 263.023719 -284.656928 
L 266.303058 -284.913035 
L 269.582397 -284.971245 
L 272.861736 -284.064526 
L 276.141074 -284.390356 
L 279.420413 -285.007193 
L 282.699752 -284.679573 
L 285.979091 -285.723354 
L 289.25843 -284.421648 
L 292.537769 -284.132084 
L 295.817107 -283.867345 
L 299.096446 -284.495516 
L 302.375785 -285.330925 
L 305.655124 -286.219765 
L 308.934463 -286.098439 
L 312.213802 -285.533028 
L 315.49314 -285.114724 
L 318.772479 -286.822785 
L 322.051818 -287.45223 
L 325.331157 -288.272789 
L 328.610496 -287.366277 
L 331.889835 -287.739654 
L 335.169174 -288.060223 
L 338.448512 -288.565363 
L 341.727851 -288.503734 
L 345.00719 -288.428808 
L 348.286529 -288.766234 
L 351.565868 -288.831362 
L 354.845207 -288.265964 
L 358.124545 -289.279381 
L 361.403884 -289.376026 
L 364.683223 -289.50865 
L 367.962562 -290.024843 
L 371.241901 -289.83492 
L 374.52124 -290.382758 
L 377.800579 -290.517833 
L 381.079917 -290.513865 
L 384.359256 -290.422514 
L 387.638595 -290.149477 
L 390.917934 -289.824121 
L 394.197273 -289.890121 
L 394.197273 -294.96808 
L 394.197273 -294.96808 
L 390.917934 -295.07732 
L 387.638595 -295.02479 
L 384.359256 -295.056248 
L 381.079917 -295.020158 
L 377.800579 -294.927 
L 374.52124 -294.844499 
L 371.241901 -294.732881 
L 367.962562 -294.622509 
L 364.683223 -294.457179 
L 361.403884 -294.633953 
L 358.124545 -294.449059 
L 354.845207 -294.367005 
L 351.565868 -294.461491 
L 348.286529 -294.339186 
L 345.00719 -294.330586 
L 341.727851 -294.504116 
L 338.448512 -294.463377 
L 335.169174 -294.065913 
L 331.889835 -294.218656 
L 328.610496 -293.97425 
L 325.331157 -294.198543 
L 322.051818 -293.847041 
L 318.772479 -293.961683 
L 315.49314 -293.837468 
L 312.213802 -293.610361 
L 308.934463 -293.82952 
L 305.655124 -293.958739 
L 302.375785 -293.368224 
L 299.096446 -293.68245 
L 295.817107 -293.833182 
L 292.537769 -293.465094 
L 289.25843 -293.443679 
L 285.979091 -293.468372 
L 282.699752 -293.251153 
L 279.420413 -293.294398 
L 276.141074 -292.82893 
L 272.861736 -292.890432 
L 269.582397 -292.636205 
L 266.303058 -292.85472 
L 263.023719 -292.556949 
L 259.74438 -292.363844 
L 256.465041 -291.866274 
L 253.185702 -291.562787 
L 249.906364 -291.653178 
L 246.627025 -291.542967 
L 243.347686 -291.031443 
L 240.068347 -290.805913 
L 236.789008 -290.535085 
L 233.509669 -290.155594 
L 230.230331 -290.484757 
L 226.950992 -289.59917 
L 223.671653 -289.509598 
L 220.392314 -288.82274 
L 217.112975 -288.93711 
L 213.833636 -288.650426 
L 210.554298 -288.29299 
L 207.274959 -287.39256 
L 203.99562 -286.555656 
L 200.716281 -285.697313 
L 197.436942 -285.862791 
L 194.157603 -285.499829 
L 190.878264 -283.824787 
L 187.598926 -283.642215 
L 184.319587 -282.962738 
L 181.040248 -283.466121 
L 177.760909 -282.095898 
L 174.48157 -281.557327 
L 171.202231 -281.287621 
L 167.922893 -280.160416 
L 164.643554 -279.759092 
L 161.364215 -277.618598 
L 158.084876 -277.153011 
L 154.805537 -275.281222 
L 151.526198 -275.476476 
L 148.24686 -270.612758 
L 144.967521 -269.081855 
L 141.688182 -268.537566 
L 138.408843 -264.278007 
L 135.129504 -261.674329 
L 131.850165 -259.300194 
L 128.570826 -255.163198 
L 125.291488 -250.727835 
L 122.012149 -248.5556 
L 118.73281 -247.46486 
L 115.453471 -236.894035 
L 112.174132 -227.420476 
L 108.894793 -212.946064 
L 105.615455 -202.530263 
L 102.336116 -190.356858 
L 99.056777 -183.052011 
L 95.777438 -173.153268 
L 92.498099 -181.892938 
L 89.21876 -172.432026 
L 85.939421 -150.063667 
L 82.660083 -158.788995 
L 79.380744 -140.259345 
L 76.101405 -135.611545 
L 72.822066 -119.320686 
L 69.542727 -104.766483 
z
" style="stroke: #c44e52; stroke-opacity: 0.2"/>
    </defs>
    <g clip-path="url(#p643a5f2445)">
     <use xlink:href="#m26ea72c0f3" x="0" y="316.271687" style="fill: #c44e52; fill-opacity: 0.2; stroke: #c44e52; stroke-opacity: 0.2"/>
    </g>
   </g>
   <g id="line2d_12">
    <path d="M 69.542727 220.235349 
L 72.822066 175.262485 
L 76.101405 160.393615 
L 79.380744 119.492877 
L 82.660083 84.440691 
L 85.939421 67.360227 
L 89.21876 54.532181 
L 92.498099 55.249792 
L 95.777438 47.895131 
L 99.056777 30.764657 
L 102.336116 31.821612 
L 105.615455 34.352751 
L 108.894793 33.272128 
L 112.174132 28.789114 
L 115.453471 29.224545 
L 118.73281 30.159509 
L 122.012149 29.378136 
L 125.291488 27.576373 
L 128.570826 29.270098 
L 131.850165 29.96529 
L 135.129504 28.268806 
L 138.408843 27.949815 
L 141.688182 26.323134 
L 144.967521 26.26683 
L 148.24686 26.274677 
L 151.526198 25.663694 
L 154.805537 26.992854 
L 158.084876 26.779195 
L 161.364215 27.263601 
L 164.643554 26.184931 
L 167.922893 26.966069 
L 171.202231 25.863779 
L 174.48157 25.844947 
L 177.760909 25.380238 
L 181.040248 25.364358 
L 184.319587 24.207499 
L 187.598926 23.909716 
L 190.878264 24.031349 
L 194.157603 25.738371 
L 197.436942 25.223273 
L 200.716281 23.69855 
L 203.99562 23.257712 
L 207.274959 23.198189 
L 210.554298 23.353654 
L 213.833636 25.645828 
L 217.112975 25.43209 
L 220.392314 24.667938 
L 223.671653 24.229491 
L 226.950992 23.945415 
L 230.230331 22.740356 
L 233.509669 22.367725 
L 236.789008 22.20145 
L 240.068347 22.037519 
L 243.347686 21.835102 
L 246.627025 21.978568 
L 249.906364 22.030601 
L 253.185702 22.069157 
L 256.465041 22.303265 
L 259.74438 22.598518 
L 263.023719 21.589208 
L 266.303058 21.576824 
L 269.582397 21.762502 
L 272.861736 22.333717 
L 276.141074 22.294286 
L 279.420413 22.10681 
L 282.699752 22.460529 
L 285.979091 22.42003 
L 289.25843 22.292637 
L 292.537769 22.305677 
L 295.817107 21.937296 
L 299.096446 22.46252 
L 302.375785 22.382687 
L 305.655124 22.268174 
L 308.934463 22.332997 
L 312.213802 22.043439 
L 315.49314 22.053255 
L 318.772479 21.677512 
L 322.051818 21.379243 
L 325.331157 21.443933 
L 328.610496 21.376687 
L 331.889835 21.172396 
L 335.169174 21.301102 
L 338.448512 21.12901 
L 341.727851 20.87599 
L 345.00719 20.770508 
L 348.286529 20.828851 
L 351.565868 21.458516 
L 354.845207 21.472101 
L 358.124545 21.670733 
L 361.403884 21.66712 
L 364.683223 21.59975 
L 367.962562 21.823108 
L 371.241901 21.802648 
L 374.52124 21.203073 
L 377.800579 21.192328 
L 381.079917 21.087615 
L 384.359256 20.879112 
L 387.638595 20.754762 
L 390.917934 20.073955 
L 394.197273 20.141591 
" clip-path="url(#p643a5f2445)" style="fill: none; stroke: #4c72b0; stroke-width: 1.5; stroke-linecap: round"/>
   </g>
   <g id="line2d_13">
    <path d="M 69.542727 246.119048 
L 72.822066 238.905648 
L 76.101405 245.450069 
L 79.380744 172.561436 
L 82.660083 129.706908 
L 85.939421 123.967329 
L 89.21876 95.507707 
L 92.498099 108.598472 
L 95.777438 94.987922 
L 99.056777 58.484003 
L 102.336116 84.72916 
L 105.615455 94.545226 
L 108.894793 74.053132 
L 112.174132 56.731193 
L 115.453471 61.544172 
L 118.73281 73.788278 
L 122.012149 64.244971 
L 125.291488 53.175195 
L 128.570826 72.394178 
L 131.850165 76.592465 
L 135.129504 65.808217 
L 138.408843 65.484956 
L 141.688182 57.44723 
L 144.967521 62.977159 
L 148.24686 64.264342 
L 151.526198 66.385144 
L 154.805537 56.687764 
L 158.084876 58.289828 
L 161.364215 63.587928 
L 164.643554 62.003068 
L 167.922893 67.678059 
L 171.202231 55.441769 
L 174.48157 54.61392 
L 177.760909 56.827392 
L 181.040248 47.852722 
L 184.319587 41.529592 
L 187.598926 46.17579 
L 190.878264 43.748307 
L 194.157603 51.016964 
L 197.436942 55.315651 
L 200.716281 43.021348 
L 203.99562 39.866912 
L 207.274959 43.619168 
L 210.554298 38.339531 
L 213.833636 36.914333 
L 217.112975 51.299444 
L 220.392314 36.652425 
L 223.671653 54.028442 
L 226.950992 57.135579 
L 230.230331 47.024628 
L 233.509669 46.187944 
L 236.789008 40.719705 
L 240.068347 52.312356 
L 243.347686 38.746794 
L 246.627025 32.906036 
L 249.906364 37.591611 
L 253.185702 45.246815 
L 256.465041 52.700301 
L 259.74438 49.105657 
L 263.023719 42.104443 
L 266.303058 41.213249 
L 269.582397 44.745585 
L 272.861736 32.915351 
L 276.141074 39.36882 
L 279.420413 33.949204 
L 282.699752 34.041629 
L 285.979091 42.832458 
L 289.25843 36.088966 
L 292.537769 47.270457 
L 295.817107 39.248516 
L 299.096446 47.221173 
L 302.375785 49.585953 
L 305.655124 44.550811 
L 308.934463 53.366472 
L 312.213802 32.534878 
L 315.49314 39.4881 
L 318.772479 45.90894 
L 322.051818 35.999845 
L 325.331157 29.74094 
L 328.610496 33.9196 
L 331.889835 29.799699 
L 335.169174 39.065753 
L 338.448512 44.636404 
L 341.727851 52.153961 
L 345.00719 31.241178 
L 348.286529 37.742625 
L 351.565868 30.26609 
L 354.845207 32.715346 
L 358.124545 31.614007 
L 361.403884 33.710665 
L 364.683223 34.84669 
L 367.962562 27.977327 
L 371.241901 33.70474 
L 374.52124 27.111371 
L 377.800579 31.433144 
L 381.079917 34.883762 
L 384.359256 31.294957 
L 387.638595 32.2318 
L 390.917934 34.81604 
L 394.197273 30.739435 
" clip-path="url(#p643a5f2445)" style="fill: none; stroke: #dd8452; stroke-width: 1.5; stroke-linecap: round"/>
   </g>
   <g id="line2d_14">
    <path d="M 69.542727 233.236908 
L 72.822066 210.954462 
L 76.101405 187.940238 
L 79.380744 170.992265 
L 82.660083 151.111532 
L 85.939421 129.435072 
L 89.21876 128.039574 
L 92.498099 108.064397 
L 95.777438 99.616222 
L 99.056777 87.139621 
L 102.336116 81.80668 
L 105.615455 74.88128 
L 108.894793 68.3523 
L 112.174132 66.567939 
L 115.453471 63.07718 
L 118.73281 61.154941 
L 122.012149 59.366047 
L 125.291488 59.603032 
L 128.570826 60.086109 
L 131.850165 56.133716 
L 135.129504 54.441395 
L 138.408843 53.85257 
L 141.688182 51.589124 
L 144.967521 50.477568 
L 148.24686 49.525741 
L 151.526198 49.791727 
L 154.805537 49.305784 
L 158.084876 48.594423 
L 161.364215 47.8835 
L 164.643554 46.728301 
L 167.922893 46.696995 
L 171.202231 45.400716 
L 174.48157 44.597608 
L 177.760909 43.796977 
L 181.040248 42.450203 
L 184.319587 42.279017 
L 187.598926 42.136614 
L 190.878264 41.348415 
L 194.157603 40.490727 
L 197.436942 40.587865 
L 200.716281 39.855687 
L 203.99562 40.242132 
L 207.274959 40.696758 
L 210.554298 41.5418 
L 213.833636 39.495338 
L 217.112975 39.126145 
L 220.392314 39.40049 
L 223.671653 39.332203 
L 226.950992 38.500719 
L 230.230331 38.037616 
L 233.509669 37.312879 
L 236.789008 36.746089 
L 240.068347 36.407278 
L 243.347686 35.717509 
L 246.627025 35.530721 
L 249.906364 35.672127 
L 253.185702 35.393261 
L 256.465041 35.395465 
L 259.74438 35.222492 
L 263.023719 35.321413 
L 266.303058 34.808744 
L 269.582397 33.934589 
L 272.861736 33.909511 
L 276.141074 33.182719 
L 279.420413 32.773235 
L 282.699752 32.381623 
L 285.979091 32.408937 
L 289.25843 32.447535 
L 292.537769 32.230071 
L 295.817107 32.186428 
L 299.096446 32.041772 
L 302.375785 32.085153 
L 305.655124 31.764673 
L 308.934463 31.819285 
L 312.213802 31.539565 
L 315.49314 31.670529 
L 318.772479 29.299648 
L 322.051818 31.088313 
L 325.331157 31.098492 
L 328.610496 31.157801 
L 331.889835 31.134944 
L 335.169174 30.791405 
L 338.448512 30.19793 
L 341.727851 30.106103 
L 345.00719 29.650704 
L 348.286529 29.824579 
L 351.565868 29.818985 
L 354.845207 29.56533 
L 358.124545 28.19225 
L 361.403884 28.258589 
L 364.683223 28.068049 
L 367.962562 27.516263 
L 371.241901 27.848583 
L 374.52124 27.906893 
L 377.800579 27.480735 
L 381.079917 28.19881 
L 384.359256 28.069196 
L 387.638595 28.318795 
L 390.917934 28.78037 
L 394.197273 28.419664 
" clip-path="url(#p643a5f2445)" style="fill: none; stroke: #55a868; stroke-width: 1.5; stroke-linecap: round"/>
   </g>
   <g id="line2d_15">
    <path d="M 69.542727 233.018781 
L 72.822066 216.297155 
L 76.101405 201.972773 
L 79.380744 197.06629 
L 82.660083 178.129189 
L 85.939421 187.966191 
L 89.21876 165.487803 
L 92.498099 158.845074 
L 95.777438 163.711325 
L 99.056777 154.467312 
L 102.336116 145.855408 
L 105.615455 131.915347 
L 108.894793 121.982269 
L 112.174132 107.632863 
L 115.453471 97.993587 
L 118.73281 86.74447 
L 122.012149 85.171348 
L 125.291488 82.000365 
L 128.570826 77.839998 
L 131.850165 71.330267 
L 135.129504 69.06972 
L 138.408843 66.247603 
L 141.688182 59.915078 
L 144.967521 59.231522 
L 148.24686 56.258921 
L 151.526198 52.09913 
L 154.805537 51.697814 
L 158.084876 50.293764 
L 161.364215 49.148387 
L 164.643554 47.552334 
L 167.922893 46.467889 
L 171.202231 45.152522 
L 174.48157 44.579353 
L 177.760909 43.78241 
L 181.040248 42.042929 
L 184.319587 42.127454 
L 187.598926 41.072452 
L 190.878264 40.846015 
L 194.157603 39.170903 
L 197.436942 38.150267 
L 200.716281 37.445557 
L 203.99562 36.579318 
L 207.274959 36.125648 
L 210.554298 34.691588 
L 213.833636 33.62842 
L 217.112975 33.452126 
L 220.392314 32.612854 
L 223.671653 31.872402 
L 226.950992 31.774911 
L 230.230331 31.129393 
L 233.509669 31.008303 
L 236.789008 30.72 
L 240.068347 30.16261 
L 243.347686 29.518223 
L 246.627025 29.486073 
L 249.906364 29.055548 
L 253.185702 28.869011 
L 256.465041 28.490733 
L 259.74438 27.766209 
L 263.023719 27.112337 
L 266.303058 26.991349 
L 269.582397 27.07116 
L 272.861736 27.070306 
L 276.141074 27.110847 
L 279.420413 26.460829 
L 282.699752 26.484375 
L 285.979091 26.291 
L 289.25843 26.461908 
L 292.537769 26.613391 
L 295.817107 26.427713 
L 299.096446 26.303683 
L 302.375785 26.303005 
L 305.655124 25.978356 
L 308.934463 25.880486 
L 312.213802 25.951106 
L 315.49314 26.045859 
L 318.772479 25.404098 
L 322.051818 25.060062 
L 325.331157 24.637667 
L 328.610496 24.913709 
L 331.889835 24.981633 
L 335.169174 24.700205 
L 338.448512 24.305598 
L 341.727851 24.457434 
L 345.00719 24.429068 
L 348.286529 24.369903 
L 351.565868 24.253645 
L 354.845207 24.338458 
L 358.124545 24.062592 
L 361.403884 23.902595 
L 364.683223 23.902114 
L 367.962562 23.648481 
L 371.241901 23.676787 
L 374.52124 23.384128 
L 377.800579 23.339872 
L 381.079917 23.255395 
L 384.359256 23.301482 
L 387.638595 23.36773 
L 390.917934 23.420298 
L 394.197273 23.473436 
" clip-path="url(#p643a5f2445)" style="fill: none; stroke: #c44e52; stroke-width: 1.5; stroke-linecap: round"/>
   </g>
   <g id="line2d_16"/>
   <g id="line2d_17"/>
   <g id="line2d_18"/>
   <g id="line2d_19"/>
   <g id="patch_3">
    <path d="M 53.31 273.312 
L 53.31 7.2 
" style="fill: none; stroke: #cccccc; stroke-width: 1.25; stroke-linejoin: miter; stroke-linecap: square"/>
   </g>
   <g id="patch_4">
    <path d="M 410.43 273.312 
L 410.43 7.2 
" style="fill: none; stroke: #cccccc; stroke-width: 1.25; stroke-linejoin: miter; stroke-linecap: square"/>
   </g>
   <g id="patch_5">
    <path d="M 53.31 273.312 
L 410.43 273.312 
" style="fill: none; stroke: #cccccc; stroke-width: 1.25; stroke-linejoin: miter; stroke-linecap: square"/>
   </g>
   <g id="patch_6">
    <path d="M 53.31 7.2 
L 410.43 7.2 
" style="fill: none; stroke: #cccccc; stroke-width: 1.25; stroke-linejoin: miter; stroke-linecap: square"/>
   </g>
   <g id="legend_1">
    <g id="patch_7">
     <path d="M 298.745625 267.812 
L 402.73 267.812 
Q 404.93 267.812 404.93 265.612 
L 404.93 185.0145 
Q 404.93 182.8145 402.73 182.8145 
L 298.745625 182.8145 
Q 296.545625 182.8145 296.545625 185.0145 
L 296.545625 265.612 
Q 296.545625 267.812 298.745625 267.812 
z
" style="fill: #ffffff; opacity: 0.8; stroke: #cccccc; stroke-linejoin: miter"/>
    </g>
    <g id="text_14">
     <!-- Strategy -->
     <g style="fill: #262626" transform="translate(325.02875 196.332625) scale(0.12 -0.12)">
      <defs>
       <path id="DejaVuSans-53" d="M 3425 4513 
L 3425 3897 
Q 3066 4069 2747 4153 
Q 2428 4238 2131 4238 
Q 1616 4238 1336 4038 
Q 1056 3838 1056 3469 
Q 1056 3159 1242 3001 
Q 1428 2844 1947 2747 
L 2328 2669 
Q 3034 2534 3370 2195 
Q 3706 1856 3706 1288 
Q 3706 609 3251 259 
Q 2797 -91 1919 -91 
Q 1588 -91 1214 -16 
Q 841 59 441 206 
L 441 856 
Q 825 641 1194 531 
Q 1563 422 1919 422 
Q 2459 422 2753 634 
Q 3047 847 3047 1241 
Q 3047 1584 2836 1778 
Q 2625 1972 2144 2069 
L 1759 2144 
Q 1053 2284 737 2584 
Q 422 2884 422 3419 
Q 422 4038 858 4394 
Q 1294 4750 2059 4750 
Q 2388 4750 2728 4690 
Q 3069 4631 3425 4513 
z
" transform="scale(0.015625)"/>
       <path id="DejaVuSans-74" d="M 1172 4494 
L 1172 3500 
L 2356 3500 
L 2356 3053 
L 1172 3053 
L 1172 1153 
Q 1172 725 1289 603 
Q 1406 481 1766 481 
L 2356 481 
L 2356 0 
L 1766 0 
Q 1100 0 847 248 
Q 594 497 594 1153 
L 594 3053 
L 172 3053 
L 172 3500 
L 594 3500 
L 594 4494 
L 1172 4494 
z
" transform="scale(0.015625)"/>
       <path id="DejaVuSans-65" d="M 3597 1894 
L 3597 1613 
L 953 1613 
Q 991 1019 1311 708 
Q 1631 397 2203 397 
Q 2534 397 2845 478 
Q 3156 559 3463 722 
L 3463 178 
Q 3153 47 2828 -22 
Q 2503 -91 2169 -91 
Q 1331 -91 842 396 
Q 353 884 353 1716 
Q 353 2575 817 3079 
Q 1281 3584 2069 3584 
Q 2775 3584 3186 3129 
Q 3597 2675 3597 1894 
z
M 3022 2063 
Q 3016 2534 2758 2815 
Q 2500 3097 2075 3097 
Q 1594 3097 1305 2825 
Q 1016 2553 972 2059 
L 3022 2063 
z
" transform="scale(0.015625)"/>
       <path id="DejaVuSans-67" d="M 2906 1791 
Q 2906 2416 2648 2759 
Q 2391 3103 1925 3103 
Q 1463 3103 1205 2759 
Q 947 2416 947 1791 
Q 947 1169 1205 825 
Q 1463 481 1925 481 
Q 2391 481 2648 825 
Q 2906 1169 2906 1791 
z
M 3481 434 
Q 3481 -459 3084 -895 
Q 2688 -1331 1869 -1331 
Q 1566 -1331 1297 -1286 
Q 1028 -1241 775 -1147 
L 775 -588 
Q 1028 -725 1275 -790 
Q 1522 -856 1778 -856 
Q 2344 -856 2625 -561 
Q 2906 -266 2906 331 
L 2906 616 
Q 2728 306 2450 153 
Q 2172 0 1784 0 
Q 1141 0 747 490 
Q 353 981 353 1791 
Q 353 2603 747 3093 
Q 1141 3584 1784 3584 
Q 2172 3584 2450 3431 
Q 2728 3278 2906 2969 
L 2906 3500 
L 3481 3500 
L 3481 434 
z
" transform="scale(0.015625)"/>
      </defs>
      <use xlink:href="#DejaVuSans-53"/>
      <use xlink:href="#DejaVuSans-74" x="63.476562"/>
      <use xlink:href="#DejaVuSans-72" x="102.685547"/>
      <use xlink:href="#DejaVuSans-61" x="143.798828"/>
      <use xlink:href="#DejaVuSans-74" x="205.078125"/>
      <use xlink:href="#DejaVuSans-65" x="244.287109"/>
      <use xlink:href="#DejaVuSans-67" x="305.810547"/>
      <use xlink:href="#DejaVuSans-79" x="369.287109"/>
     </g>
    </g>
    <g id="line2d_20">
     <path d="M 300.945625 208.836531 
L 311.945625 208.836531 
L 322.945625 208.836531 
" style="fill: none; stroke: #4c72b0; stroke-width: 1.5; stroke-linecap: round"/>
    </g>
    <g id="text_15">
     <!-- FedPredict -->
     <g style="fill: #262626" transform="translate(331.745625 212.686531) scale(0.11 -0.11)">
      <defs>
       <path id="DejaVuSans-46" d="M 628 4666 
L 3309 4666 
L 3309 4134 
L 1259 4134 
L 1259 2759 
L 3109 2759 
L 3109 2228 
L 1259 2228 
L 1259 0 
L 628 0 
L 628 4666 
z
" transform="scale(0.015625)"/>
       <path id="DejaVuSans-50" d="M 1259 4147 
L 1259 2394 
L 2053 2394 
Q 2494 2394 2734 2622 
Q 2975 2850 2975 3272 
Q 2975 3691 2734 3919 
Q 2494 4147 2053 4147 
L 1259 4147 
z
M 628 4666 
L 2053 4666 
Q 2838 4666 3239 4311 
Q 3641 3956 3641 3272 
Q 3641 2581 3239 2228 
Q 2838 1875 2053 1875 
L 1259 1875 
L 1259 0 
L 628 0 
L 628 4666 
z
" transform="scale(0.015625)"/>
       <path id="DejaVuSans-69" d="M 603 3500 
L 1178 3500 
L 1178 0 
L 603 0 
L 603 3500 
z
M 603 4863 
L 1178 4863 
L 1178 4134 
L 603 4134 
L 603 4863 
z
" transform="scale(0.015625)"/>
      </defs>
      <use xlink:href="#DejaVuSans-46"/>
      <use xlink:href="#DejaVuSans-65" x="52.019531"/>
      <use xlink:href="#DejaVuSans-64" x="113.542969"/>
      <use xlink:href="#DejaVuSans-50" x="177.019531"/>
      <use xlink:href="#DejaVuSans-72" x="235.572266"/>
      <use xlink:href="#DejaVuSans-65" x="274.435547"/>
      <use xlink:href="#DejaVuSans-64" x="335.958984"/>
      <use xlink:href="#DejaVuSans-69" x="399.435547"/>
      <use xlink:href="#DejaVuSans-63" x="427.21875"/>
      <use xlink:href="#DejaVuSans-74" x="482.199219"/>
     </g>
    </g>
    <g id="line2d_21">
     <path d="M 300.945625 224.982469 
L 311.945625 224.982469 
L 322.945625 224.982469 
" style="fill: none; stroke: #dd8452; stroke-width: 1.5; stroke-linecap: round"/>
    </g>
    <g id="text_16">
     <!-- FedAVG -->
     <g style="fill: #262626" transform="translate(331.745625 228.832469) scale(0.11 -0.11)">
      <defs>
       <path id="DejaVuSans-56" d="M 1831 0 
L 50 4666 
L 709 4666 
L 2188 738 
L 3669 4666 
L 4325 4666 
L 2547 0 
L 1831 0 
z
" transform="scale(0.015625)"/>
       <path id="DejaVuSans-47" d="M 3809 666 
L 3809 1919 
L 2778 1919 
L 2778 2438 
L 4434 2438 
L 4434 434 
Q 4069 175 3628 42 
Q 3188 -91 2688 -91 
Q 1594 -91 976 548 
Q 359 1188 359 2328 
Q 359 3472 976 4111 
Q 1594 4750 2688 4750 
Q 3144 4750 3555 4637 
Q 3966 4525 4313 4306 
L 4313 3634 
Q 3963 3931 3569 4081 
Q 3175 4231 2741 4231 
Q 1884 4231 1454 3753 
Q 1025 3275 1025 2328 
Q 1025 1384 1454 906 
Q 1884 428 2741 428 
Q 3075 428 3337 486 
Q 3600 544 3809 666 
z
" transform="scale(0.015625)"/>
      </defs>
      <use xlink:href="#DejaVuSans-46"/>
      <use xlink:href="#DejaVuSans-65" x="52.019531"/>
      <use xlink:href="#DejaVuSans-64" x="113.542969"/>
      <use xlink:href="#DejaVuSans-41" x="177.019531"/>
      <use xlink:href="#DejaVuSans-56" x="239.052734"/>
      <use xlink:href="#DejaVuSans-47" x="307.460938"/>
     </g>
    </g>
    <g id="line2d_22">
     <path d="M 300.945625 241.128406 
L 311.945625 241.128406 
L 322.945625 241.128406 
" style="fill: none; stroke: #55a868; stroke-width: 1.5; stroke-linecap: round"/>
    </g>
    <g id="text_17">
     <!-- FedClassAvg -->
     <g style="fill: #262626" transform="translate(331.745625 244.978406) scale(0.11 -0.11)">
      <defs>
       <path id="DejaVuSans-43" d="M 4122 4306 
L 4122 3641 
Q 3803 3938 3442 4084 
Q 3081 4231 2675 4231 
Q 1875 4231 1450 3742 
Q 1025 3253 1025 2328 
Q 1025 1406 1450 917 
Q 1875 428 2675 428 
Q 3081 428 3442 575 
Q 3803 722 4122 1019 
L 4122 359 
Q 3791 134 3420 21 
Q 3050 -91 2638 -91 
Q 1578 -91 968 557 
Q 359 1206 359 2328 
Q 359 3453 968 4101 
Q 1578 4750 2638 4750 
Q 3056 4750 3426 4639 
Q 3797 4528 4122 4306 
z
" transform="scale(0.015625)"/>
       <path id="DejaVuSans-6c" d="M 603 4863 
L 1178 4863 
L 1178 0 
L 603 0 
L 603 4863 
z
" transform="scale(0.015625)"/>
       <path id="DejaVuSans-73" d="M 2834 3397 
L 2834 2853 
Q 2591 2978 2328 3040 
Q 2066 3103 1784 3103 
Q 1356 3103 1142 2972 
Q 928 2841 928 2578 
Q 928 2378 1081 2264 
Q 1234 2150 1697 2047 
L 1894 2003 
Q 2506 1872 2764 1633 
Q 3022 1394 3022 966 
Q 3022 478 2636 193 
Q 2250 -91 1575 -91 
Q 1294 -91 989 -36 
Q 684 19 347 128 
L 347 722 
Q 666 556 975 473 
Q 1284 391 1588 391 
Q 1994 391 2212 530 
Q 2431 669 2431 922 
Q 2431 1156 2273 1281 
Q 2116 1406 1581 1522 
L 1381 1569 
Q 847 1681 609 1914 
Q 372 2147 372 2553 
Q 372 3047 722 3315 
Q 1072 3584 1716 3584 
Q 2034 3584 2315 3537 
Q 2597 3491 2834 3397 
z
" transform="scale(0.015625)"/>
       <path id="DejaVuSans-76" d="M 191 3500 
L 800 3500 
L 1894 563 
L 2988 3500 
L 3597 3500 
L 2284 0 
L 1503 0 
L 191 3500 
z
" transform="scale(0.015625)"/>
      </defs>
      <use xlink:href="#DejaVuSans-46"/>
      <use xlink:href="#DejaVuSans-65" x="52.019531"/>
      <use xlink:href="#DejaVuSans-64" x="113.542969"/>
      <use xlink:href="#DejaVuSans-43" x="177.019531"/>
      <use xlink:href="#DejaVuSans-6c" x="246.84375"/>
      <use xlink:href="#DejaVuSans-61" x="274.626953"/>
      <use xlink:href="#DejaVuSans-73" x="335.90625"/>
      <use xlink:href="#DejaVuSans-73" x="388.005859"/>
      <use xlink:href="#DejaVuSans-41" x="440.105469"/>
      <use xlink:href="#DejaVuSans-76" x="502.638672"/>
      <use xlink:href="#DejaVuSans-67" x="561.818359"/>
     </g>
    </g>
    <g id="line2d_23">
     <path d="M 300.945625 257.274344 
L 311.945625 257.274344 
L 322.945625 257.274344 
" style="fill: none; stroke: #c44e52; stroke-width: 1.5; stroke-linecap: round"/>
    </g>
    <g id="text_18">
     <!-- FedPer -->
     <g style="fill: #262626" transform="translate(331.745625 261.124344) scale(0.11 -0.11)">
      <use xlink:href="#DejaVuSans-46"/>
      <use xlink:href="#DejaVuSans-65" x="52.019531"/>
      <use xlink:href="#DejaVuSans-64" x="113.542969"/>
      <use xlink:href="#DejaVuSans-50" x="177.019531"/>
      <use xlink:href="#DejaVuSans-65" x="233.697266"/>
      <use xlink:href="#DejaVuSans-72" x="295.220703"/>
     </g>
    </g>
   </g>
  </g>
 </g>
 <defs>
  <clipPath id="p643a5f2445">
   <rect x="53.31" y="7.2" width="357.12" height="266.112"/>
  </clipPath>
 </defs>
</svg>
