<?xml version="1.0" encoding="utf-8" standalone="no"?>
<!DOCTYPE svg PUBLIC "-//W3C//DTD SVG 1.1//EN"
  "http://www.w3.org/Graphics/SVG/1.1/DTD/svg11.dtd">
<svg xmlns:xlink="http://www.w3.org/1999/xlink" width="417.63pt" height="316.271687pt" viewBox="0 0 417.63 316.271687" xmlns="http://www.w3.org/2000/svg" version="1.1">
 <metadata>
  <rdf:RDF xmlns:dc="http://purl.org/dc/elements/1.1/" xmlns:cc="http://creativecommons.org/ns#" xmlns:rdf="http://www.w3.org/1999/02/22-rdf-syntax-ns#">
   <cc:Work>
    <dc:type rdf:resource="http://purl.org/dc/dcmitype/StillImage"/>
    <dc:date>2023-02-08T13:49:19.788744</dc:date>
    <dc:format>image/svg+xml</dc:format>
    <dc:creator>
     <cc:Agent>
      <dc:title>Matplotlib v3.6.3, https://matplotlib.org/</dc:title>
     </cc:Agent>
    </dc:creator>
   </cc:Work>
  </rdf:RDF>
 </metadata>
 <defs>
  <style type="text/css">*{stroke-linejoin: round; stroke-linecap: butt}</style>
 </defs>
 <g id="figure_1">
  <g id="patch_1">
   <path d="M 0 316.271687 
L 417.63 316.271687 
L 417.63 0 
L 0 0 
z
" style="fill: #ffffff"/>
  </g>
  <g id="axes_1">
   <g id="patch_2">
    <path d="M 53.31 273.312 
L 410.43 273.312 
L 410.43 7.2 
L 53.31 7.2 
z
" style="fill: #ffffff"/>
   </g>
   <g id="matplotlib.axis_1">
    <g id="xtick_1">
     <g id="line2d_1">
      <path d="M 66.263388 273.312 
L 66.263388 7.2 
" clip-path="url(#pbd7ed27458)" style="fill: none; stroke: #cccccc; stroke-linecap: round"/>
     </g>
     <g id="text_1">
      <!-- 0 -->
      <g style="fill: #262626" transform="translate(62.764013 291.170281) scale(0.11 -0.11)">
       <defs>
        <path id="DejaVuSans-30" d="M 2034 4250 
Q 1547 4250 1301 3770 
Q 1056 3291 1056 2328 
Q 1056 1369 1301 889 
Q 1547 409 2034 409 
Q 2525 409 2770 889 
Q 3016 1369 3016 2328 
Q 3016 3291 2770 3770 
Q 2525 4250 2034 4250 
z
M 2034 4750 
Q 2819 4750 3233 4129 
Q 3647 3509 3647 2328 
Q 3647 1150 3233 529 
Q 2819 -91 2034 -91 
Q 1250 -91 836 529 
Q 422 1150 422 2328 
Q 422 3509 836 4129 
Q 1250 4750 2034 4750 
z
" transform="scale(0.015625)"/>
       </defs>
       <use xlink:href="#DejaVuSans-30"/>
      </g>
     </g>
    </g>
    <g id="xtick_2">
     <g id="line2d_2">
      <path d="M 131.850165 273.312 
L 131.850165 7.2 
" clip-path="url(#pbd7ed27458)" style="fill: none; stroke: #cccccc; stroke-linecap: round"/>
     </g>
     <g id="text_2">
      <!-- 20 -->
      <g style="fill: #262626" transform="translate(124.851415 291.170281) scale(0.11 -0.11)">
       <defs>
        <path id="DejaVuSans-32" d="M 1228 531 
L 3431 531 
L 3431 0 
L 469 0 
L 469 531 
Q 828 903 1448 1529 
Q 2069 2156 2228 2338 
Q 2531 2678 2651 2914 
Q 2772 3150 2772 3378 
Q 2772 3750 2511 3984 
Q 2250 4219 1831 4219 
Q 1534 4219 1204 4116 
Q 875 4013 500 3803 
L 500 4441 
Q 881 4594 1212 4672 
Q 1544 4750 1819 4750 
Q 2544 4750 2975 4387 
Q 3406 4025 3406 3419 
Q 3406 3131 3298 2873 
Q 3191 2616 2906 2266 
Q 2828 2175 2409 1742 
Q 1991 1309 1228 531 
z
" transform="scale(0.015625)"/>
       </defs>
       <use xlink:href="#DejaVuSans-32"/>
       <use xlink:href="#DejaVuSans-30" x="63.623047"/>
      </g>
     </g>
    </g>
    <g id="xtick_3">
     <g id="line2d_3">
      <path d="M 197.436942 273.312 
L 197.436942 7.2 
" clip-path="url(#pbd7ed27458)" style="fill: none; stroke: #cccccc; stroke-linecap: round"/>
     </g>
     <g id="text_3">
      <!-- 40 -->
      <g style="fill: #262626" transform="translate(190.438192 291.170281) scale(0.11 -0.11)">
       <defs>
        <path id="DejaVuSans-34" d="M 2419 4116 
L 825 1625 
L 2419 1625 
L 2419 4116 
z
M 2253 4666 
L 3047 4666 
L 3047 1625 
L 3713 1625 
L 3713 1100 
L 3047 1100 
L 3047 0 
L 2419 0 
L 2419 1100 
L 313 1100 
L 313 1709 
L 2253 4666 
z
" transform="scale(0.015625)"/>
       </defs>
       <use xlink:href="#DejaVuSans-34"/>
       <use xlink:href="#DejaVuSans-30" x="63.623047"/>
      </g>
     </g>
    </g>
    <g id="xtick_4">
     <g id="line2d_4">
      <path d="M 263.023719 273.312 
L 263.023719 7.2 
" clip-path="url(#pbd7ed27458)" style="fill: none; stroke: #cccccc; stroke-linecap: round"/>
     </g>
     <g id="text_4">
      <!-- 60 -->
      <g style="fill: #262626" transform="translate(256.024969 291.170281) scale(0.11 -0.11)">
       <defs>
        <path id="DejaVuSans-36" d="M 2113 2584 
Q 1688 2584 1439 2293 
Q 1191 2003 1191 1497 
Q 1191 994 1439 701 
Q 1688 409 2113 409 
Q 2538 409 2786 701 
Q 3034 994 3034 1497 
Q 3034 2003 2786 2293 
Q 2538 2584 2113 2584 
z
M 3366 4563 
L 3366 3988 
Q 3128 4100 2886 4159 
Q 2644 4219 2406 4219 
Q 1781 4219 1451 3797 
Q 1122 3375 1075 2522 
Q 1259 2794 1537 2939 
Q 1816 3084 2150 3084 
Q 2853 3084 3261 2657 
Q 3669 2231 3669 1497 
Q 3669 778 3244 343 
Q 2819 -91 2113 -91 
Q 1303 -91 875 529 
Q 447 1150 447 2328 
Q 447 3434 972 4092 
Q 1497 4750 2381 4750 
Q 2619 4750 2861 4703 
Q 3103 4656 3366 4563 
z
" transform="scale(0.015625)"/>
       </defs>
       <use xlink:href="#DejaVuSans-36"/>
       <use xlink:href="#DejaVuSans-30" x="63.623047"/>
      </g>
     </g>
    </g>
    <g id="xtick_5">
     <g id="line2d_5">
      <path d="M 328.610496 273.312 
L 328.610496 7.2 
" clip-path="url(#pbd7ed27458)" style="fill: none; stroke: #cccccc; stroke-linecap: round"/>
     </g>
     <g id="text_5">
      <!-- 80 -->
      <g style="fill: #262626" transform="translate(321.611746 291.170281) scale(0.11 -0.11)">
       <defs>
        <path id="DejaVuSans-38" d="M 2034 2216 
Q 1584 2216 1326 1975 
Q 1069 1734 1069 1313 
Q 1069 891 1326 650 
Q 1584 409 2034 409 
Q 2484 409 2743 651 
Q 3003 894 3003 1313 
Q 3003 1734 2745 1975 
Q 2488 2216 2034 2216 
z
M 1403 2484 
Q 997 2584 770 2862 
Q 544 3141 544 3541 
Q 544 4100 942 4425 
Q 1341 4750 2034 4750 
Q 2731 4750 3128 4425 
Q 3525 4100 3525 3541 
Q 3525 3141 3298 2862 
Q 3072 2584 2669 2484 
Q 3125 2378 3379 2068 
Q 3634 1759 3634 1313 
Q 3634 634 3220 271 
Q 2806 -91 2034 -91 
Q 1263 -91 848 271 
Q 434 634 434 1313 
Q 434 1759 690 2068 
Q 947 2378 1403 2484 
z
M 1172 3481 
Q 1172 3119 1398 2916 
Q 1625 2713 2034 2713 
Q 2441 2713 2670 2916 
Q 2900 3119 2900 3481 
Q 2900 3844 2670 4047 
Q 2441 4250 2034 4250 
Q 1625 4250 1398 4047 
Q 1172 3844 1172 3481 
z
" transform="scale(0.015625)"/>
       </defs>
       <use xlink:href="#DejaVuSans-38"/>
       <use xlink:href="#DejaVuSans-30" x="63.623047"/>
      </g>
     </g>
    </g>
    <g id="xtick_6">
     <g id="line2d_6">
      <path d="M 394.197273 273.312 
L 394.197273 7.2 
" clip-path="url(#pbd7ed27458)" style="fill: none; stroke: #cccccc; stroke-linecap: round"/>
     </g>
     <g id="text_6">
      <!-- 100 -->
      <g style="fill: #262626" transform="translate(383.699148 291.170281) scale(0.11 -0.11)">
       <defs>
        <path id="DejaVuSans-31" d="M 794 531 
L 1825 531 
L 1825 4091 
L 703 3866 
L 703 4441 
L 1819 4666 
L 2450 4666 
L 2450 531 
L 3481 531 
L 3481 0 
L 794 0 
L 794 531 
z
" transform="scale(0.015625)"/>
       </defs>
       <use xlink:href="#DejaVuSans-31"/>
       <use xlink:href="#DejaVuSans-30" x="63.623047"/>
       <use xlink:href="#DejaVuSans-30" x="127.246094"/>
      </g>
     </g>
    </g>
    <g id="text_7">
     <!-- Round -->
     <g style="fill: #262626" transform="translate(212.885625 306.576062) scale(0.12 -0.12)">
      <defs>
       <path id="DejaVuSans-52" d="M 2841 2188 
Q 3044 2119 3236 1894 
Q 3428 1669 3622 1275 
L 4263 0 
L 3584 0 
L 2988 1197 
Q 2756 1666 2539 1819 
Q 2322 1972 1947 1972 
L 1259 1972 
L 1259 0 
L 628 0 
L 628 4666 
L 2053 4666 
Q 2853 4666 3247 4331 
Q 3641 3997 3641 3322 
Q 3641 2881 3436 2590 
Q 3231 2300 2841 2188 
z
M 1259 4147 
L 1259 2491 
L 2053 2491 
Q 2509 2491 2742 2702 
Q 2975 2913 2975 3322 
Q 2975 3731 2742 3939 
Q 2509 4147 2053 4147 
L 1259 4147 
z
" transform="scale(0.015625)"/>
       <path id="DejaVuSans-6f" d="M 1959 3097 
Q 1497 3097 1228 2736 
Q 959 2375 959 1747 
Q 959 1119 1226 758 
Q 1494 397 1959 397 
Q 2419 397 2687 759 
Q 2956 1122 2956 1747 
Q 2956 2369 2687 2733 
Q 2419 3097 1959 3097 
z
M 1959 3584 
Q 2709 3584 3137 3096 
Q 3566 2609 3566 1747 
Q 3566 888 3137 398 
Q 2709 -91 1959 -91 
Q 1206 -91 779 398 
Q 353 888 353 1747 
Q 353 2609 779 3096 
Q 1206 3584 1959 3584 
z
" transform="scale(0.015625)"/>
       <path id="DejaVuSans-75" d="M 544 1381 
L 544 3500 
L 1119 3500 
L 1119 1403 
Q 1119 906 1312 657 
Q 1506 409 1894 409 
Q 2359 409 2629 706 
Q 2900 1003 2900 1516 
L 2900 3500 
L 3475 3500 
L 3475 0 
L 2900 0 
L 2900 538 
Q 2691 219 2414 64 
Q 2138 -91 1772 -91 
Q 1169 -91 856 284 
Q 544 659 544 1381 
z
M 1991 3584 
L 1991 3584 
z
" transform="scale(0.015625)"/>
       <path id="DejaVuSans-6e" d="M 3513 2113 
L 3513 0 
L 2938 0 
L 2938 2094 
Q 2938 2591 2744 2837 
Q 2550 3084 2163 3084 
Q 1697 3084 1428 2787 
Q 1159 2491 1159 1978 
L 1159 0 
L 581 0 
L 581 3500 
L 1159 3500 
L 1159 2956 
Q 1366 3272 1645 3428 
Q 1925 3584 2291 3584 
Q 2894 3584 3203 3211 
Q 3513 2838 3513 2113 
z
" transform="scale(0.015625)"/>
       <path id="DejaVuSans-64" d="M 2906 2969 
L 2906 4863 
L 3481 4863 
L 3481 0 
L 2906 0 
L 2906 525 
Q 2725 213 2448 61 
Q 2172 -91 1784 -91 
Q 1150 -91 751 415 
Q 353 922 353 1747 
Q 353 2572 751 3078 
Q 1150 3584 1784 3584 
Q 2172 3584 2448 3432 
Q 2725 3281 2906 2969 
z
M 947 1747 
Q 947 1113 1208 752 
Q 1469 391 1925 391 
Q 2381 391 2643 752 
Q 2906 1113 2906 1747 
Q 2906 2381 2643 2742 
Q 2381 3103 1925 3103 
Q 1469 3103 1208 2742 
Q 947 2381 947 1747 
z
" transform="scale(0.015625)"/>
      </defs>
      <use xlink:href="#DejaVuSans-52"/>
      <use xlink:href="#DejaVuSans-6f" x="64.982422"/>
      <use xlink:href="#DejaVuSans-75" x="126.164062"/>
      <use xlink:href="#DejaVuSans-6e" x="189.542969"/>
      <use xlink:href="#DejaVuSans-64" x="252.921875"/>
     </g>
    </g>
   </g>
   <g id="matplotlib.axis_2">
    <g id="ytick_1">
     <g id="line2d_7">
      <path d="M 53.31 230.049681 
L 410.43 230.049681 
" clip-path="url(#pbd7ed27458)" style="fill: none; stroke: #cccccc; stroke-linecap: round"/>
     </g>
     <g id="text_8">
      <!-- 20 -->
      <g style="fill: #262626" transform="translate(29.8125 234.228821) scale(0.11 -0.11)">
       <use xlink:href="#DejaVuSans-32"/>
       <use xlink:href="#DejaVuSans-30" x="63.623047"/>
      </g>
     </g>
    </g>
    <g id="ytick_2">
     <g id="line2d_8">
      <path d="M 53.31 176.836189 
L 410.43 176.836189 
" clip-path="url(#pbd7ed27458)" style="fill: none; stroke: #cccccc; stroke-linecap: round"/>
     </g>
     <g id="text_9">
      <!-- 40 -->
      <g style="fill: #262626" transform="translate(29.8125 181.015329) scale(0.11 -0.11)">
       <use xlink:href="#DejaVuSans-34"/>
       <use xlink:href="#DejaVuSans-30" x="63.623047"/>
      </g>
     </g>
    </g>
    <g id="ytick_3">
     <g id="line2d_9">
      <path d="M 53.31 123.622697 
L 410.43 123.622697 
" clip-path="url(#pbd7ed27458)" style="fill: none; stroke: #cccccc; stroke-linecap: round"/>
     </g>
     <g id="text_10">
      <!-- 60 -->
      <g style="fill: #262626" transform="translate(29.8125 127.801838) scale(0.11 -0.11)">
       <use xlink:href="#DejaVuSans-36"/>
       <use xlink:href="#DejaVuSans-30" x="63.623047"/>
      </g>
     </g>
    </g>
    <g id="ytick_4">
     <g id="line2d_10">
      <path d="M 53.31 70.409205 
L 410.43 70.409205 
" clip-path="url(#pbd7ed27458)" style="fill: none; stroke: #cccccc; stroke-linecap: round"/>
     </g>
     <g id="text_11">
      <!-- 80 -->
      <g style="fill: #262626" transform="translate(29.8125 74.588346) scale(0.11 -0.11)">
       <use xlink:href="#DejaVuSans-38"/>
       <use xlink:href="#DejaVuSans-30" x="63.623047"/>
      </g>
     </g>
    </g>
    <g id="ytick_5">
     <g id="line2d_11">
      <path d="M 53.31 17.195713 
L 410.43 17.195713 
" clip-path="url(#pbd7ed27458)" style="fill: none; stroke: #cccccc; stroke-linecap: round"/>
     </g>
     <g id="text_12">
      <!-- 100 -->
      <g style="fill: #262626" transform="translate(22.81375 21.374854) scale(0.11 -0.11)">
       <use xlink:href="#DejaVuSans-31"/>
       <use xlink:href="#DejaVuSans-30" x="63.623047"/>
       <use xlink:href="#DejaVuSans-30" x="127.246094"/>
      </g>
     </g>
    </g>
    <g id="text_13">
     <!-- Accuracy (%) -->
     <g style="fill: #262626" transform="translate(16.318125 179.939437) rotate(-90) scale(0.12 -0.12)">
      <defs>
       <path id="DejaVuSans-41" d="M 2188 4044 
L 1331 1722 
L 3047 1722 
L 2188 4044 
z
M 1831 4666 
L 2547 4666 
L 4325 0 
L 3669 0 
L 3244 1197 
L 1141 1197 
L 716 0 
L 50 0 
L 1831 4666 
z
" transform="scale(0.015625)"/>
       <path id="DejaVuSans-63" d="M 3122 3366 
L 3122 2828 
Q 2878 2963 2633 3030 
Q 2388 3097 2138 3097 
Q 1578 3097 1268 2742 
Q 959 2388 959 1747 
Q 959 1106 1268 751 
Q 1578 397 2138 397 
Q 2388 397 2633 464 
Q 2878 531 3122 666 
L 3122 134 
Q 2881 22 2623 -34 
Q 2366 -91 2075 -91 
Q 1284 -91 818 406 
Q 353 903 353 1747 
Q 353 2603 823 3093 
Q 1294 3584 2113 3584 
Q 2378 3584 2631 3529 
Q 2884 3475 3122 3366 
z
" transform="scale(0.015625)"/>
       <path id="DejaVuSans-72" d="M 2631 2963 
Q 2534 3019 2420 3045 
Q 2306 3072 2169 3072 
Q 1681 3072 1420 2755 
Q 1159 2438 1159 1844 
L 1159 0 
L 581 0 
L 581 3500 
L 1159 3500 
L 1159 2956 
Q 1341 3275 1631 3429 
Q 1922 3584 2338 3584 
Q 2397 3584 2469 3576 
Q 2541 3569 2628 3553 
L 2631 2963 
z
" transform="scale(0.015625)"/>
       <path id="DejaVuSans-61" d="M 2194 1759 
Q 1497 1759 1228 1600 
Q 959 1441 959 1056 
Q 959 750 1161 570 
Q 1363 391 1709 391 
Q 2188 391 2477 730 
Q 2766 1069 2766 1631 
L 2766 1759 
L 2194 1759 
z
M 3341 1997 
L 3341 0 
L 2766 0 
L 2766 531 
Q 2569 213 2275 61 
Q 1981 -91 1556 -91 
Q 1019 -91 701 211 
Q 384 513 384 1019 
Q 384 1609 779 1909 
Q 1175 2209 1959 2209 
L 2766 2209 
L 2766 2266 
Q 2766 2663 2505 2880 
Q 2244 3097 1772 3097 
Q 1472 3097 1187 3025 
Q 903 2953 641 2809 
L 641 3341 
Q 956 3463 1253 3523 
Q 1550 3584 1831 3584 
Q 2591 3584 2966 3190 
Q 3341 2797 3341 1997 
z
" transform="scale(0.015625)"/>
       <path id="DejaVuSans-79" d="M 2059 -325 
Q 1816 -950 1584 -1140 
Q 1353 -1331 966 -1331 
L 506 -1331 
L 506 -850 
L 844 -850 
Q 1081 -850 1212 -737 
Q 1344 -625 1503 -206 
L 1606 56 
L 191 3500 
L 800 3500 
L 1894 763 
L 2988 3500 
L 3597 3500 
L 2059 -325 
z
" transform="scale(0.015625)"/>
       <path id="DejaVuSans-20" transform="scale(0.015625)"/>
       <path id="DejaVuSans-28" d="M 1984 4856 
Q 1566 4138 1362 3434 
Q 1159 2731 1159 2009 
Q 1159 1288 1364 580 
Q 1569 -128 1984 -844 
L 1484 -844 
Q 1016 -109 783 600 
Q 550 1309 550 2009 
Q 550 2706 781 3412 
Q 1013 4119 1484 4856 
L 1984 4856 
z
" transform="scale(0.015625)"/>
       <path id="DejaVuSans-25" d="M 4653 2053 
Q 4381 2053 4226 1822 
Q 4072 1591 4072 1178 
Q 4072 772 4226 539 
Q 4381 306 4653 306 
Q 4919 306 5073 539 
Q 5228 772 5228 1178 
Q 5228 1588 5073 1820 
Q 4919 2053 4653 2053 
z
M 4653 2450 
Q 5147 2450 5437 2106 
Q 5728 1763 5728 1178 
Q 5728 594 5436 251 
Q 5144 -91 4653 -91 
Q 4153 -91 3862 251 
Q 3572 594 3572 1178 
Q 3572 1766 3864 2108 
Q 4156 2450 4653 2450 
z
M 1428 4353 
Q 1159 4353 1004 4120 
Q 850 3888 850 3481 
Q 850 3069 1003 2837 
Q 1156 2606 1428 2606 
Q 1700 2606 1854 2837 
Q 2009 3069 2009 3481 
Q 2009 3884 1853 4118 
Q 1697 4353 1428 4353 
z
M 4250 4750 
L 4750 4750 
L 1831 -91 
L 1331 -91 
L 4250 4750 
z
M 1428 4750 
Q 1922 4750 2215 4408 
Q 2509 4066 2509 3481 
Q 2509 2891 2217 2550 
Q 1925 2209 1428 2209 
Q 931 2209 642 2551 
Q 353 2894 353 3481 
Q 353 4063 643 4406 
Q 934 4750 1428 4750 
z
" transform="scale(0.015625)"/>
       <path id="DejaVuSans-29" d="M 513 4856 
L 1013 4856 
Q 1481 4119 1714 3412 
Q 1947 2706 1947 2009 
Q 1947 1309 1714 600 
Q 1481 -109 1013 -844 
L 513 -844 
Q 928 -128 1133 580 
Q 1338 1288 1338 2009 
Q 1338 2731 1133 3434 
Q 928 4138 513 4856 
z
" transform="scale(0.015625)"/>
      </defs>
      <use xlink:href="#DejaVuSans-41"/>
      <use xlink:href="#DejaVuSans-63" x="66.658203"/>
      <use xlink:href="#DejaVuSans-63" x="121.638672"/>
      <use xlink:href="#DejaVuSans-75" x="176.619141"/>
      <use xlink:href="#DejaVuSans-72" x="239.998047"/>
      <use xlink:href="#DejaVuSans-61" x="281.111328"/>
      <use xlink:href="#DejaVuSans-63" x="342.390625"/>
      <use xlink:href="#DejaVuSans-79" x="397.371094"/>
      <use xlink:href="#DejaVuSans-20" x="456.550781"/>
      <use xlink:href="#DejaVuSans-28" x="488.337891"/>
      <use xlink:href="#DejaVuSans-25" x="527.351562"/>
      <use xlink:href="#DejaVuSans-29" x="622.371094"/>
     </g>
    </g>
   </g>
   <g id="PolyCollection_1">
    <defs>
     <path id="m6440d2075b" d="M 69.542727 -119.923662 
L 69.542727 -74.501764 
L 72.822066 -111.981467 
L 76.101405 -127.897425 
L 79.380744 -175.190391 
L 82.660083 -211.879133 
L 85.939421 -225.308325 
L 89.21876 -245.448102 
L 92.498099 -245.186307 
L 95.777438 -249.605791 
L 99.056777 -280.393602 
L 102.336116 -274.866052 
L 105.615455 -271.561076 
L 108.894793 -277.171416 
L 112.174132 -283.823886 
L 115.453471 -282.43212 
L 118.73281 -277.781107 
L 122.012149 -279.117143 
L 125.291488 -285.421435 
L 128.570826 -272.965846 
L 131.850165 -279.112246 
L 135.129504 -283.206237 
L 138.408843 -281.456691 
L 141.688182 -287.664137 
L 144.967521 -285.868592 
L 148.24686 -282.704898 
L 151.526198 -285.802987 
L 154.805537 -290.344351 
L 158.084876 -289.924879 
L 161.364215 -288.2693 
L 164.643554 -287.234419 
L 167.922893 -284.836188 
L 171.202231 -287.432295 
L 174.48157 -286.551109 
L 177.760909 -288.362946 
L 181.040248 -287.304065 
L 184.319587 -289.308354 
L 187.598926 -290.451355 
L 190.878264 -290.308484 
L 194.157603 -288.59925 
L 197.436942 -289.530213 
L 200.716281 -291.554375 
L 203.99562 -292.172064 
L 207.274959 -292.051245 
L 210.554298 -291.219634 
L 213.833636 -282.245787 
L 217.112975 -284.091272 
L 220.392314 -289.085733 
L 223.671653 -291.09169 
L 226.950992 -290.857055 
L 230.230331 -292.346234 
L 233.509669 -292.319179 
L 236.789008 -292.902785 
L 240.068347 -292.815332 
L 243.347686 -292.944794 
L 246.627025 -293.226344 
L 249.906364 -293.158027 
L 253.185702 -292.986314 
L 256.465041 -292.895405 
L 259.74438 -291.529798 
L 263.023719 -292.958764 
L 266.303058 -293.071643 
L 269.582397 -292.683229 
L 272.861736 -293.388031 
L 276.141074 -293.264823 
L 279.420413 -293.892781 
L 282.699752 -293.551018 
L 285.979091 -293.341647 
L 289.25843 -293.864956 
L 292.537769 -294.088671 
L 295.817107 -294.092807 
L 299.096446 -294.137743 
L 302.375785 -293.519777 
L 305.655124 -293.813621 
L 308.934463 -292.957116 
L 312.213802 -294.566304 
L 315.49314 -294.52861 
L 318.772479 -292.613317 
L 322.051818 -291.779243 
L 325.331157 -293.178943 
L 328.610496 -293.451219 
L 331.889835 -293.895689 
L 335.169174 -290.374175 
L 338.448512 -291.398756 
L 341.727851 -291.531063 
L 345.00719 -293.147654 
L 348.286529 -291.971365 
L 351.565868 -292.263429 
L 354.845207 -292.029968 
L 358.124545 -293.650996 
L 361.403884 -293.574263 
L 364.683223 -294.090701 
L 367.962562 -293.900553 
L 371.241901 -293.780964 
L 374.52124 -294.720564 
L 377.800579 -294.58996 
L 381.079917 -294.683438 
L 384.359256 -294.628019 
L 387.638595 -294.717469 
L 390.917934 -294.04961 
L 394.197273 -293.383983 
L 394.197273 -296.4949 
L 394.197273 -296.4949 
L 390.917934 -296.586135 
L 387.638595 -296.647845 
L 384.359256 -296.582414 
L 381.079917 -296.700181 
L 377.800579 -296.966579 
L 374.52124 -296.975687 
L 371.241901 -296.609393 
L 367.962562 -296.548454 
L 364.683223 -296.492781 
L 361.403884 -296.570085 
L 358.124545 -296.784178 
L 354.845207 -296.747616 
L 351.565868 -296.606034 
L 348.286529 -296.708568 
L 345.00719 -296.599437 
L 341.727851 -296.490472 
L 338.448512 -296.453311 
L 335.169174 -296.563957 
L 331.889835 -296.615711 
L 328.610496 -296.665237 
L 325.331157 -296.34925 
L 322.051818 -296.247814 
L 318.772479 -296.211542 
L 315.49314 -296.35659 
L 312.213802 -296.355183 
L 308.934463 -295.894466 
L 305.655124 -296.12261 
L 302.375785 -295.892136 
L 299.096446 -296.158224 
L 295.817107 -296.104847 
L 292.537769 -296.0901 
L 289.25843 -296.13035 
L 285.979091 -295.98605 
L 282.699752 -296.473205 
L 279.420413 -296.057341 
L 276.141074 -295.634196 
L 272.861736 -295.854843 
L 269.582397 -295.736245 
L 266.303058 -295.673551 
L 263.023719 -295.791006 
L 259.74438 -295.796049 
L 256.465041 -295.413494 
L 253.185702 -295.599621 
L 249.906364 -295.87198 
L 246.627025 -295.498854 
L 243.347686 -295.652199 
L 240.068347 -295.235619 
L 236.789008 -295.127144 
L 233.509669 -295.154508 
L 230.230331 -295.136498 
L 226.950992 -294.329385 
L 223.671653 -294.493997 
L 220.392314 -294.447545 
L 217.112975 -294.588598 
L 213.833636 -294.859629 
L 210.554298 -294.732855 
L 207.274959 -294.656695 
L 203.99562 -294.775191 
L 200.716281 -294.398123 
L 197.436942 -293.946783 
L 194.157603 -293.964882 
L 190.878264 -294.014853 
L 187.598926 -294.039598 
L 184.319587 -294.198278 
L 181.040248 -293.882132 
L 177.760909 -293.055745 
L 174.48157 -292.859665 
L 171.202231 -293.397875 
L 167.922893 -291.591828 
L 164.643554 -292.298633 
L 161.364215 -292.055523 
L 158.084876 -293.038497 
L 154.805537 -292.884593 
L 151.526198 -292.384005 
L 148.24686 -291.465884 
L 144.967521 -292.290725 
L 141.688182 -292.149286 
L 138.408843 -290.818932 
L 135.129504 -290.597291 
L 131.850165 -289.149826 
L 128.570826 -288.479408 
L 125.291488 -291.529039 
L 122.012149 -289.161509 
L 118.73281 -289.378919 
L 115.453471 -289.802109 
L 112.174132 -290.981418 
L 108.894793 -287.418099 
L 105.615455 -286.376529 
L 102.336116 -288.183009 
L 99.056777 -288.077106 
L 95.777438 -279.622585 
L 92.498099 -272.276595 
L 89.21876 -272.642962 
L 85.939421 -258.657106 
L 82.660083 -245.050217 
L 79.380744 -219.128347 
L 76.101405 -184.635355 
L 72.822066 -168.376775 
L 69.542727 -119.923662 
z
" style="stroke: #4c72b0; stroke-opacity: 0.2"/>
    </defs>
    <g clip-path="url(#pbd7ed27458)">
     <use xlink:href="#m6440d2075b" x="0" y="316.271687" style="fill: #4c72b0; fill-opacity: 0.2; stroke: #4c72b0; stroke-opacity: 0.2"/>
    </g>
   </g>
   <g id="PolyCollection_2">
    <defs>
     <path id="me276b86833" d="M 69.542727 -88.898111 
L 69.542727 -55.055688 
L 72.822066 -61.890514 
L 76.101405 -61.208187 
L 79.380744 -129.961091 
L 82.660083 -167.337937 
L 85.939421 -171.24202 
L 89.21876 -215.497398 
L 92.498099 -193.679388 
L 95.777438 -206.303666 
L 99.056777 -254.446131 
L 102.336116 -220.386564 
L 105.615455 -213.625188 
L 108.894793 -220.571884 
L 112.174132 -249.518447 
L 115.453471 -241.061775 
L 118.73281 -236.47549 
L 122.012149 -247.054047 
L 125.291488 -257.824796 
L 128.570826 -231.160541 
L 131.850165 -225.663929 
L 135.129504 -238.309724 
L 138.408843 -242.353616 
L 141.688182 -252.739462 
L 144.967521 -241.723318 
L 148.24686 -238.387312 
L 151.526198 -234.015009 
L 154.805537 -247.042034 
L 158.084876 -247.000287 
L 161.364215 -237.730663 
L 164.643554 -241.86967 
L 167.922893 -234.357553 
L 171.202231 -248.255098 
L 174.48157 -254.799794 
L 177.760909 -257.067095 
L 181.040248 -262.63077 
L 184.319587 -270.953506 
L 187.598926 -263.283487 
L 190.878264 -267.575869 
L 194.157603 -253.266291 
L 197.436942 -248.973265 
L 200.716281 -266.084828 
L 203.99562 -272.781373 
L 207.274959 -266.659264 
L 210.554298 -271.368353 
L 213.833636 -276.291297 
L 217.112975 -253.092825 
L 220.392314 -274.360654 
L 223.671653 -250.488767 
L 226.950992 -253.502275 
L 230.230331 -268.924845 
L 233.509669 -267.267919 
L 236.789008 -267.471484 
L 240.068347 -251.729985 
L 243.347686 -275.758102 
L 246.627025 -280.064255 
L 249.906364 -275.699565 
L 253.185702 -258.317554 
L 256.465041 -251.79396 
L 259.74438 -253.625984 
L 263.023719 -268.984528 
L 266.303058 -265.119913 
L 269.582397 -264.146881 
L 272.861736 -279.901137 
L 276.141074 -268.793894 
L 279.420413 -277.601268 
L 282.699752 -278.678508 
L 285.979091 -272.825998 
L 289.25843 -277.60946 
L 292.537769 -262.68675 
L 295.817107 -273.923775 
L 299.096446 -258.803234 
L 302.375785 -253.142367 
L 305.655124 -259.809064 
L 308.934463 -250.648733 
L 312.213802 -280.694993 
L 315.49314 -273.287288 
L 318.772479 -260.581165 
L 322.051818 -277.312749 
L 325.331157 -285.638835 
L 328.610496 -280.113215 
L 331.889835 -283.534172 
L 335.169174 -271.005226 
L 338.448512 -261.030328 
L 341.727851 -252.706434 
L 345.00719 -279.04433 
L 348.286529 -272.365013 
L 351.565868 -282.714212 
L 354.845207 -278.80566 
L 358.124545 -281.213163 
L 361.403884 -277.608592 
L 364.683223 -275.15564 
L 367.962562 -287.257515 
L 371.241901 -278.734907 
L 374.52124 -286.488905 
L 377.800579 -282.899819 
L 381.079917 -275.02844 
L 384.359256 -278.947186 
L 387.638595 -281.805803 
L 390.917934 -276.839259 
L 394.197273 -282.425261 
L 394.197273 -288.62626 
L 394.197273 -288.62626 
L 390.917934 -286.611956 
L 387.638595 -286.750252 
L 384.359256 -284.47166 
L 381.079917 -286.502956 
L 377.800579 -287.649694 
L 374.52124 -289.861491 
L 371.241901 -287.157386 
L 367.962562 -290.539429 
L 364.683223 -285.646892 
L 361.403884 -286.864877 
L 358.124545 -288.232701 
L 354.845207 -287.680759 
L 351.565868 -288.224424 
L 348.286529 -284.494741 
L 345.00719 -287.123732 
L 341.727851 -276.027126 
L 338.448512 -277.980265 
L 335.169174 -284.31538 
L 331.889835 -288.397106 
L 328.610496 -286.652674 
L 325.331157 -288.512248 
L 322.051818 -285.253891 
L 318.772479 -279.031483 
L 315.49314 -281.329275 
L 312.213802 -286.820816 
L 308.934463 -274.952093 
L 305.655124 -279.550468 
L 302.375785 -275.660323 
L 299.096446 -278.486314 
L 295.817107 -282.92812 
L 292.537769 -280.550527 
L 289.25843 -283.262287 
L 285.979091 -280.298682 
L 282.699752 -284.628053 
L 279.420413 -285.661397 
L 276.141074 -279.629744 
L 272.861736 -285.774472 
L 269.582397 -280.114465 
L 266.303058 -280.89109 
L 263.023719 -281.492735 
L 259.74438 -278.531565 
L 256.465041 -275.495656 
L 253.185702 -280.385988 
L 249.906364 -282.773584 
L 246.627025 -285.851769 
L 243.347686 -281.467056 
L 240.068347 -273.119183 
L 236.789008 -279.506394 
L 233.509669 -278.03378 
L 230.230331 -279.418512 
L 226.950992 -271.956367 
L 223.671653 -271.045447 
L 220.392314 -282.58024 
L 217.112975 -275.910557 
L 213.833636 -282.57715 
L 210.554298 -282.181953 
L 207.274959 -279.572322 
L 203.99562 -280.547053 
L 200.716281 -277.582081 
L 197.436942 -273.19741 
L 194.157603 -274.443542 
L 190.878264 -277.68035 
L 187.598926 -275.913818 
L 184.319587 -279.109929 
L 181.040248 -274.928224 
L 177.760909 -269.897131 
L 174.48157 -273.306278 
L 171.202231 -272.149319 
L 167.922893 -260.86609 
L 164.643554 -266.795024 
L 161.364215 -263.415354 
L 158.084876 -269.968743 
L 154.805537 -270.534054 
L 151.526198 -261.670619 
L 148.24686 -264.288734 
L 144.967521 -266.83414 
L 141.688182 -266.674269 
L 138.408843 -260.083781 
L 135.129504 -263.833708 
L 131.850165 -251.715047 
L 128.570826 -257.436859 
L 125.291488 -270.42406 
L 122.012149 -261.230375 
L 118.73281 -251.206388 
L 115.453471 -262.120485 
L 112.174132 -264.924674 
L 108.894793 -242.394737 
L 105.615455 -237.696339 
L 102.336116 -245.904306 
L 99.056777 -263.259482 
L 95.777438 -236.119676 
L 92.498099 -225.065687 
L 89.21876 -239.150493 
L 85.939421 -203.678806 
L 82.660083 -202.811241 
L 79.380744 -165.661764 
L 76.101405 -89.206218 
L 72.822066 -96.062193 
L 69.542727 -88.898111 
z
" style="stroke: #dd8452; stroke-opacity: 0.2"/>
    </defs>
    <g clip-path="url(#pbd7ed27458)">
     <use xlink:href="#me276b86833" x="0" y="316.271687" style="fill: #dd8452; fill-opacity: 0.2; stroke: #dd8452; stroke-opacity: 0.2"/>
    </g>
   </g>
   <g id="PolyCollection_3">
    <defs>
     <path id="m64f2180d54" d="M 69.542727 -104.455867 
L 69.542727 -62.067172 
L 72.822066 -79.708522 
L 76.101405 -102.824111 
L 79.380744 -118.541648 
L 82.660083 -135.928773 
L 85.939421 -155.369758 
L 89.21876 -152.066249 
L 92.498099 -173.069509 
L 95.777438 -191.286423 
L 99.056777 -203.999063 
L 102.336116 -212.378678 
L 105.615455 -222.216972 
L 108.894793 -221.162362 
L 112.174132 -232.3126 
L 115.453471 -237.716655 
L 118.73281 -241.626165 
L 122.012149 -243.849825 
L 125.291488 -244.7399 
L 128.570826 -246.001005 
L 131.850165 -245.940812 
L 135.129504 -250.603338 
L 138.408843 -249.057577 
L 141.688182 -249.818445 
L 144.967521 -251.976365 
L 148.24686 -250.53146 
L 151.526198 -252.805007 
L 154.805537 -252.723466 
L 158.084876 -252.691784 
L 161.364215 -254.39964 
L 164.643554 -255.794058 
L 167.922893 -258.981281 
L 171.202231 -259.109028 
L 174.48157 -259.943374 
L 177.760909 -259.830994 
L 181.040248 -261.44598 
L 184.319587 -262.612012 
L 187.598926 -262.599488 
L 190.878264 -260.374046 
L 194.157603 -260.850013 
L 197.436942 -260.840057 
L 200.716281 -261.172571 
L 203.99562 -261.726665 
L 207.274959 -261.929255 
L 210.554298 -261.092817 
L 213.833636 -266.156623 
L 217.112975 -266.475088 
L 220.392314 -265.101006 
L 223.671653 -267.246562 
L 226.950992 -265.991011 
L 230.230331 -265.218967 
L 233.509669 -266.819109 
L 236.789008 -268.615466 
L 240.068347 -269.680604 
L 243.347686 -268.31291 
L 246.627025 -269.384253 
L 249.906364 -269.12308 
L 253.185702 -269.697629 
L 256.465041 -271.039233 
L 259.74438 -269.289501 
L 263.023719 -269.032342 
L 266.303058 -269.184784 
L 269.582397 -269.300494 
L 272.861736 -272.433934 
L 276.141074 -271.969315 
L 279.420413 -274.663924 
L 282.699752 -276.260664 
L 285.979091 -275.766401 
L 289.25843 -275.943263 
L 292.537769 -276.288682 
L 295.817107 -277.135454 
L 299.096446 -274.947304 
L 302.375785 -275.349835 
L 305.655124 -275.962604 
L 308.934463 -275.567006 
L 312.213802 -275.780623 
L 315.49314 -275.035253 
L 318.772479 -276.608682 
L 322.051818 -274.733708 
L 325.331157 -274.546356 
L 328.610496 -274.65877 
L 331.889835 -274.116515 
L 335.169174 -276.460312 
L 338.448512 -277.635024 
L 341.727851 -278.557748 
L 345.00719 -278.245104 
L 348.286529 -277.423629 
L 351.565868 -277.990158 
L 354.845207 -277.079502 
L 358.124545 -280.728089 
L 361.403884 -281.09367 
L 364.683223 -280.976187 
L 367.962562 -282.214362 
L 371.241901 -281.536855 
L 374.52124 -281.522118 
L 377.800579 -281.984657 
L 381.079917 -282.664093 
L 384.359256 -281.824239 
L 387.638595 -281.338277 
L 390.917934 -281.03039 
L 394.197273 -280.197229 
L 394.197273 -293.405458 
L 394.197273 -293.405458 
L 390.917934 -293.430006 
L 387.638595 -293.461289 
L 384.359256 -293.223788 
L 381.079917 -293.44938 
L 377.800579 -293.316936 
L 374.52124 -293.350484 
L 371.241901 -293.171439 
L 367.962562 -293.113471 
L 364.683223 -293.33938 
L 361.403884 -293.443298 
L 358.124545 -293.376579 
L 354.845207 -293.281676 
L 351.565868 -293.144117 
L 348.286529 -293.4142 
L 345.00719 -293.303411 
L 341.727851 -293.564629 
L 338.448512 -293.490791 
L 335.169174 -293.076688 
L 331.889835 -293.056381 
L 328.610496 -293.210732 
L 325.331157 -292.623969 
L 322.051818 -292.562763 
L 318.772479 -292.45434 
L 315.49314 -291.869939 
L 312.213802 -292.420941 
L 308.934463 -292.362024 
L 305.655124 -292.567292 
L 302.375785 -292.607995 
L 299.096446 -292.034967 
L 295.817107 -291.786798 
L 292.537769 -291.660531 
L 289.25843 -291.832936 
L 285.979091 -291.776868 
L 282.699752 -291.340548 
L 279.420413 -291.318883 
L 276.141074 -291.12187 
L 272.861736 -290.224282 
L 269.582397 -290.575014 
L 266.303058 -290.874408 
L 263.023719 -290.128012 
L 259.74438 -290.343142 
L 256.465041 -290.030615 
L 253.185702 -290.231978 
L 249.906364 -289.64535 
L 246.627025 -290.261779 
L 243.347686 -290.016359 
L 240.068347 -290.126368 
L 236.789008 -289.65383 
L 233.509669 -288.355358 
L 230.230331 -288.480772 
L 226.950992 -288.63678 
L 223.671653 -288.85491 
L 220.392314 -288.457356 
L 217.112975 -288.104027 
L 213.833636 -287.773275 
L 210.554298 -286.688636 
L 207.274959 -287.29679 
L 203.99562 -286.172594 
L 200.716281 -285.242845 
L 197.436942 -285.581254 
L 194.157603 -285.602179 
L 190.878264 -285.171794 
L 187.598926 -286.40504 
L 184.319587 -286.080417 
L 181.040248 -285.425632 
L 177.760909 -284.220749 
L 174.48157 -283.989037 
L 171.202231 -282.998166 
L 167.922893 -282.528056 
L 164.643554 -282.742838 
L 161.364215 -280.979002 
L 158.084876 -280.243547 
L 154.805537 -280.832929 
L 151.526198 -279.419815 
L 148.24686 -279.077897 
L 144.967521 -279.224002 
L 141.688182 -279.511524 
L 138.408843 -278.234937 
L 135.129504 -278.7158 
L 131.850165 -277.450551 
L 128.570826 -275.340024 
L 125.291488 -274.288198 
L 122.012149 -273.918954 
L 118.73281 -272.223542 
L 115.453471 -269.099465 
L 112.174132 -265.65702 
L 108.894793 -261.549505 
L 105.615455 -260.484874 
L 102.336116 -256.143267 
L 99.056777 -248.311207 
L 95.777438 -239.907002 
L 92.498099 -228.394172 
L 89.21876 -211.430941 
L 85.939421 -208.802409 
L 82.660083 -191.307706 
L 79.380744 -171.360079 
L 76.101405 -153.228617 
L 72.822066 -127.372463 
L 69.542727 -104.455867 
z
" style="stroke: #55a868; stroke-opacity: 0.2"/>
    </defs>
    <g clip-path="url(#pbd7ed27458)">
     <use xlink:href="#m64f2180d54" x="0" y="316.271687" style="fill: #55a868; fill-opacity: 0.2; stroke: #55a868; stroke-opacity: 0.2"/>
    </g>
   </g>
   <g id="PolyCollection_4">
    <defs>
     <path id="md1d24e9f64" d="M 69.542727 -105.640531 
L 69.542727 -67.125153 
L 72.822066 -79.46311 
L 76.101405 -92.410783 
L 79.380744 -95.379015 
L 82.660083 -119.026794 
L 85.939421 -108.945077 
L 89.21876 -119.729907 
L 92.498099 -128.501882 
L 95.777438 -137.747785 
L 99.056777 -144.436962 
L 102.336116 -154.40354 
L 105.615455 -169.408718 
L 108.894793 -181.509132 
L 112.174132 -197.997532 
L 115.453471 -202.447514 
L 118.73281 -210.632484 
L 122.012149 -216.759291 
L 125.291488 -221.605826 
L 128.570826 -224.032222 
L 131.850165 -229.49293 
L 135.129504 -231.308262 
L 138.408843 -238.582176 
L 141.688182 -247.229828 
L 144.967521 -246.49744 
L 148.24686 -250.689524 
L 151.526198 -253.378626 
L 154.805537 -255.870998 
L 158.084876 -256.491395 
L 161.364215 -256.543175 
L 164.643554 -260.983552 
L 167.922893 -260.269496 
L 171.202231 -260.777086 
L 174.48157 -261.906358 
L 177.760909 -262.582733 
L 181.040248 -263.83209 
L 184.319587 -264.400679 
L 187.598926 -266.247716 
L 190.878264 -266.798119 
L 194.157603 -267.232526 
L 197.436942 -270.78216 
L 200.716281 -271.485043 
L 203.99562 -273.005896 
L 207.274959 -273.317326 
L 210.554298 -274.121793 
L 213.833636 -274.725018 
L 217.112975 -274.551342 
L 220.392314 -274.297679 
L 223.671653 -275.345259 
L 226.950992 -275.506496 
L 230.230331 -276.222275 
L 233.509669 -277.070348 
L 236.789008 -277.571164 
L 240.068347 -278.614518 
L 243.347686 -280.221248 
L 246.627025 -279.520477 
L 249.906364 -281.212628 
L 253.185702 -280.881887 
L 256.465041 -281.261907 
L 259.74438 -281.061103 
L 263.023719 -282.697452 
L 266.303058 -281.987456 
L 269.582397 -282.5183 
L 272.861736 -284.511808 
L 276.141074 -283.985569 
L 279.420413 -285.109415 
L 282.699752 -284.039165 
L 285.979091 -284.148762 
L 289.25843 -282.612922 
L 292.537769 -282.168428 
L 295.817107 -283.161645 
L 299.096446 -285.230415 
L 302.375785 -285.717721 
L 305.655124 -287.084819 
L 308.934463 -287.472136 
L 312.213802 -287.14941 
L 315.49314 -287.051254 
L 318.772479 -287.778551 
L 322.051818 -288.666166 
L 325.331157 -288.653125 
L 328.610496 -288.969664 
L 331.889835 -288.787122 
L 335.169174 -288.722203 
L 338.448512 -288.794077 
L 341.727851 -288.704249 
L 345.00719 -289.039073 
L 348.286529 -289.195643 
L 351.565868 -289.782883 
L 354.845207 -289.659794 
L 358.124545 -289.264358 
L 361.403884 -289.508307 
L 364.683223 -289.23339 
L 367.962562 -289.820553 
L 371.241901 -289.703892 
L 374.52124 -289.868772 
L 377.800579 -290.004522 
L 381.079917 -289.917986 
L 384.359256 -290.022499 
L 387.638595 -290.196598 
L 390.917934 -290.47993 
L 394.197273 -290.618039 
L 394.197273 -295.173708 
L 394.197273 -295.173708 
L 390.917934 -295.077619 
L 387.638595 -295.129385 
L 384.359256 -294.882314 
L 381.079917 -294.984316 
L 377.800579 -294.885945 
L 374.52124 -294.885841 
L 371.241901 -294.65146 
L 367.962562 -294.772942 
L 364.683223 -294.678787 
L 361.403884 -294.725192 
L 358.124545 -294.79789 
L 354.845207 -294.780314 
L 351.565868 -294.652428 
L 348.286529 -294.638331 
L 345.00719 -294.370862 
L 341.727851 -294.329541 
L 338.448512 -294.108517 
L 335.169174 -294.418483 
L 331.889835 -294.132334 
L 328.610496 -294.070347 
L 325.331157 -294.171783 
L 322.051818 -294.093735 
L 318.772479 -294.060724 
L 315.49314 -294.18052 
L 312.213802 -294.161682 
L 308.934463 -294.346603 
L 305.655124 -293.975504 
L 302.375785 -293.697319 
L 299.096446 -293.682765 
L 295.817107 -293.691514 
L 292.537769 -293.546404 
L 289.25843 -293.316011 
L 285.979091 -293.483584 
L 282.699752 -293.456497 
L 279.420413 -293.42847 
L 276.141074 -293.352085 
L 272.861736 -293.39099 
L 269.582397 -293.245398 
L 266.303058 -293.007321 
L 263.023719 -292.994998 
L 259.74438 -292.597961 
L 256.465041 -292.535239 
L 253.185702 -292.437663 
L 249.906364 -291.957685 
L 246.627025 -291.651895 
L 243.347686 -291.400717 
L 240.068347 -290.972027 
L 236.789008 -290.570477 
L 233.509669 -290.506316 
L 230.230331 -290.519141 
L 226.950992 -290.216513 
L 223.671653 -289.532977 
L 220.392314 -289.381634 
L 217.112975 -289.01878 
L 213.833636 -288.341834 
L 210.554298 -288.274523 
L 207.274959 -287.939429 
L 203.99562 -287.364007 
L 200.716281 -287.164292 
L 197.436942 -287.120583 
L 194.157603 -285.705052 
L 190.878264 -285.63329 
L 187.598926 -285.047933 
L 184.319587 -283.917133 
L 181.040248 -283.670575 
L 177.760909 -283.021255 
L 174.48157 -282.016421 
L 171.202231 -281.301821 
L 167.922893 -281.550781 
L 164.643554 -280.283186 
L 161.364215 -278.811083 
L 158.084876 -278.044864 
L 154.805537 -277.140979 
L 151.526198 -276.002446 
L 148.24686 -273.740917 
L 144.967521 -271.892951 
L 141.688182 -270.66929 
L 138.408843 -266.405965 
L 135.129504 -263.866473 
L 131.850165 -262.663113 
L 128.570826 -256.886811 
L 125.291488 -255.447144 
L 122.012149 -251.186396 
L 118.73281 -245.308637 
L 115.453471 -241.402944 
L 112.174132 -233.511513 
L 108.894793 -221.44313 
L 105.615455 -208.776722 
L 102.336116 -193.804416 
L 99.056777 -181.981031 
L 95.777438 -177.250573 
L 92.498099 -172.628723 
L 89.21876 -164.273507 
L 85.939421 -150.261556 
L 82.660083 -161.251828 
L 79.380744 -139.418095 
L 76.101405 -131.520827 
L 72.822066 -121.699648 
L 69.542727 -105.640531 
z
" style="stroke: #c44e52; stroke-opacity: 0.2"/>
    </defs>
    <g clip-path="url(#pbd7ed27458)">
     <use xlink:href="#md1d24e9f64" x="0" y="316.271687" style="fill: #c44e52; fill-opacity: 0.2; stroke: #c44e52; stroke-opacity: 0.2"/>
    </g>
   </g>
   <g id="PolyCollection_5">
    <defs>
     <path id="m7383b43186" d="M 69.542727 -110.958007 
L 69.542727 -70.319515 
L 72.822066 -83.599644 
L 76.101405 -79.408589 
L 79.380744 -97.217634 
L 82.660083 -106.035343 
L 85.939421 -109.269836 
L 89.21876 -119.046185 
L 92.498099 -117.670559 
L 95.777438 -128.23945 
L 99.056777 -128.985974 
L 102.336116 -139.138933 
L 105.615455 -134.750505 
L 108.894793 -139.950678 
L 112.174132 -143.558846 
L 115.453471 -145.351205 
L 118.73281 -145.915301 
L 122.012149 -148.037144 
L 125.291488 -152.70052 
L 128.570826 -153.677954 
L 131.850165 -155.186274 
L 135.129504 -156.30414 
L 138.408843 -157.373882 
L 141.688182 -161.098919 
L 144.967521 -162.065546 
L 148.24686 -160.798311 
L 151.526198 -164.188563 
L 154.805537 -166.783924 
L 158.084876 -168.791551 
L 161.364215 -172.929598 
L 164.643554 -176.731359 
L 167.922893 -179.601661 
L 171.202231 -177.716822 
L 174.48157 -179.785912 
L 177.760909 -178.049411 
L 181.040248 -180.120577 
L 184.319587 -182.746589 
L 187.598926 -188.778797 
L 190.878264 -188.448203 
L 194.157603 -188.30484 
L 197.436942 -189.401846 
L 200.716281 -189.19843 
L 203.99562 -194.418719 
L 207.274959 -194.264392 
L 210.554298 -196.83813 
L 213.833636 -196.40203 
L 217.112975 -196.105034 
L 220.392314 -200.054569 
L 223.671653 -204.372484 
L 226.950992 -204.564948 
L 230.230331 -206.722133 
L 233.509669 -205.74837 
L 236.789008 -207.296985 
L 240.068347 -208.835879 
L 243.347686 -206.250527 
L 246.627025 -207.949229 
L 249.906364 -207.124257 
L 253.185702 -210.048965 
L 256.465041 -211.113709 
L 259.74438 -210.145362 
L 263.023719 -213.131353 
L 266.303058 -215.41868 
L 269.582397 -217.293695 
L 272.861736 -220.262566 
L 276.141074 -216.289144 
L 279.420413 -217.707432 
L 282.699752 -219.56462 
L 285.979091 -222.247873 
L 289.25843 -224.342513 
L 292.537769 -228.352774 
L 295.817107 -228.309141 
L 299.096446 -227.15668 
L 302.375785 -229.829351 
L 305.655124 -234.595765 
L 308.934463 -233.920441 
L 312.213802 -234.926451 
L 315.49314 -233.626249 
L 318.772479 -233.251562 
L 322.051818 -235.5226 
L 325.331157 -235.984586 
L 328.610496 -236.361234 
L 331.889835 -236.894374 
L 335.169174 -238.151554 
L 338.448512 -237.989486 
L 341.727851 -237.39802 
L 345.00719 -237.769211 
L 348.286529 -238.602159 
L 351.565868 -237.36456 
L 354.845207 -237.604374 
L 358.124545 -239.364191 
L 361.403884 -239.108644 
L 364.683223 -238.802514 
L 367.962562 -240.375913 
L 371.241901 -240.290355 
L 374.52124 -239.755948 
L 377.800579 -240.540491 
L 381.079917 -241.066074 
L 384.359256 -240.205616 
L 387.638595 -241.72792 
L 390.917934 -240.563772 
L 394.197273 -243.174333 
L 394.197273 -276.45706 
L 394.197273 -276.45706 
L 390.917934 -274.651084 
L 387.638595 -274.861976 
L 384.359256 -275.165541 
L 381.079917 -275.681917 
L 377.800579 -273.952974 
L 374.52124 -274.336986 
L 371.241901 -273.769312 
L 367.962562 -273.312618 
L 364.683223 -273.403557 
L 361.403884 -273.490189 
L 358.124545 -273.309611 
L 354.845207 -272.979196 
L 351.565868 -271.637959 
L 348.286529 -272.750694 
L 345.00719 -272.114588 
L 341.727851 -273.003124 
L 338.448512 -271.582638 
L 335.169174 -270.597535 
L 331.889835 -270.572849 
L 328.610496 -270.885651 
L 325.331157 -270.228523 
L 322.051818 -271.002433 
L 318.772479 -269.732148 
L 315.49314 -269.818395 
L 312.213802 -268.007864 
L 308.934463 -267.60914 
L 305.655124 -268.171889 
L 302.375785 -266.425701 
L 299.096446 -262.658686 
L 295.817107 -263.807286 
L 292.537769 -264.467699 
L 289.25843 -261.857265 
L 285.979091 -258.997557 
L 282.699752 -258.577917 
L 279.420413 -257.604311 
L 276.141074 -257.111341 
L 272.861736 -258.380227 
L 269.582397 -256.325259 
L 266.303058 -253.974848 
L 263.023719 -251.006594 
L 259.74438 -249.664301 
L 256.465041 -248.952294 
L 253.185702 -247.309321 
L 249.906364 -247.29777 
L 246.627025 -247.269745 
L 243.347686 -245.415806 
L 240.068347 -248.567535 
L 236.789008 -246.377485 
L 233.509669 -248.486643 
L 230.230331 -245.728793 
L 226.950992 -245.294282 
L 223.671653 -244.36919 
L 220.392314 -241.908596 
L 217.112975 -238.817904 
L 213.833636 -240.140559 
L 210.554298 -237.690879 
L 207.274959 -235.292149 
L 203.99562 -234.202743 
L 200.716281 -232.331045 
L 197.436942 -233.791828 
L 194.157603 -232.461413 
L 190.878264 -232.254841 
L 187.598926 -230.340914 
L 184.319587 -226.846139 
L 181.040248 -225.643861 
L 177.760909 -225.082055 
L 174.48157 -225.922279 
L 171.202231 -223.197596 
L 167.922893 -222.468597 
L 164.643554 -219.425569 
L 161.364215 -214.609524 
L 158.084876 -212.588294 
L 154.805537 -210.859701 
L 151.526198 -207.043766 
L 148.24686 -202.85703 
L 144.967521 -202.834074 
L 141.688182 -203.111677 
L 138.408843 -199.06318 
L 135.129504 -196.631539 
L 131.850165 -193.716005 
L 128.570826 -192.153466 
L 125.291488 -191.826886 
L 122.012149 -184.995989 
L 118.73281 -183.539395 
L 115.453471 -183.863964 
L 112.174132 -181.179621 
L 108.894793 -178.347829 
L 105.615455 -175.144108 
L 102.336116 -177.428852 
L 99.056777 -167.539195 
L 95.777438 -166.194665 
L 92.498099 -161.046823 
L 89.21876 -159.256026 
L 85.939421 -150.697479 
L 82.660083 -147.754791 
L 79.380744 -139.653094 
L 76.101405 -120.500785 
L 72.822066 -126.107321 
L 69.542727 -110.958007 
z
" style="stroke: #8172b3; stroke-opacity: 0.2"/>
    </defs>
    <g clip-path="url(#pbd7ed27458)">
     <use xlink:href="#m7383b43186" x="0" y="316.271687" style="fill: #8172b3; fill-opacity: 0.2; stroke: #8172b3; stroke-opacity: 0.2"/>
    </g>
   </g>
   <g id="line2d_12">
    <path d="M 69.542727 219.671629 
L 72.822066 174.498132 
L 76.101405 161.329777 
L 79.380744 119.93157 
L 82.660083 87.738743 
L 85.939421 72.039118 
L 89.21876 56.380128 
L 92.498099 57.065411 
L 95.777438 49.676734 
L 99.056777 31.620864 
L 102.336116 33.773717 
L 105.615455 36.439441 
L 108.894793 33.622207 
L 112.174132 28.676646 
L 115.453471 29.556085 
L 118.73281 31.940555 
L 122.012149 31.42018 
L 125.291488 27.418041 
L 128.570826 34.567428 
L 131.850165 31.425224 
L 135.129504 28.972386 
L 138.408843 29.214406 
L 141.688182 26.253544 
L 144.967521 26.715719 
L 148.24686 28.297474 
L 151.526198 26.572675 
L 154.805537 24.651993 
L 158.084876 24.719244 
L 161.364215 26.075119 
L 164.643554 26.118105 
L 167.922893 27.726333 
L 171.202231 25.414649 
L 174.48157 26.035911 
L 177.760909 25.274096 
L 181.040248 25.23277 
L 184.319587 24.124025 
L 187.598926 23.834448 
L 190.878264 23.909558 
L 194.157603 24.5968 
L 197.436942 24.181799 
L 200.716281 23.256012 
L 203.99562 22.733359 
L 207.274959 22.746248 
L 210.554298 22.899912 
L 213.833636 25.881986 
L 217.112975 25.450488 
L 220.392314 24.12187 
L 223.671653 23.335007 
L 226.950992 23.547366 
L 230.230331 22.443958 
L 233.509669 22.438956 
L 236.789008 22.178029 
L 240.068347 22.239405 
L 243.347686 21.881124 
L 246.627025 21.909934 
L 249.906364 21.663561 
L 253.185702 21.880182 
L 256.465041 22.001881 
L 259.74438 22.244822 
L 263.023719 21.761048 
L 266.303058 21.768668 
L 269.582397 21.912786 
L 272.861736 21.470848 
L 276.141074 21.708627 
L 279.420413 21.297388 
L 282.699752 21.020534 
L 285.979091 21.487738 
L 289.25843 21.215088 
L 292.537769 21.111444 
L 295.817107 21.078223 
L 299.096446 21.05126 
L 302.375785 21.547348 
L 305.655124 21.162779 
L 308.934463 21.641594 
L 312.213802 20.777529 
L 315.49314 20.745154 
L 318.772479 21.523295 
L 322.051818 21.690231 
L 325.331157 21.206047 
L 328.610496 20.926963 
L 331.889835 20.781888 
L 335.169174 22.002754 
L 338.448512 21.746451 
L 341.727851 21.642403 
L 345.00719 21.031501 
L 348.286529 21.363484 
L 351.565868 21.366725 
L 354.845207 21.195665 
L 358.124545 20.700311 
L 361.403884 20.872867 
L 364.683223 20.817354 
L 367.962562 20.822335 
L 371.241901 20.956848 
L 374.52124 20.285363 
L 377.800579 20.344207 
L 381.079917 20.509929 
L 384.359256 20.588882 
L 387.638595 20.482812 
L 390.917934 20.787172 
L 394.197273 21.123029 
" clip-path="url(#pbd7ed27458)" style="fill: none; stroke: #4c72b0; stroke-width: 1.5; stroke-linecap: round"/>
   </g>
   <g id="line2d_13">
    <path d="M 69.542727 245.333947 
L 72.822066 238.112765 
L 76.101405 242.522258 
L 79.380744 168.050003 
L 82.660083 131.391473 
L 85.939421 128.222971 
L 89.21876 88.420088 
L 92.498099 106.550005 
L 95.777438 94.49162 
L 99.056777 57.247295 
L 102.336116 82.079781 
L 105.615455 89.276251 
L 108.894793 84.845844 
L 112.174132 58.984662 
L 115.453471 63.654029 
L 118.73281 72.339897 
L 122.012149 62.321159 
L 125.291488 52.017654 
L 128.570826 71.423805 
L 131.850165 77.446977 
L 135.129504 64.727797 
L 138.408843 65.009898 
L 141.688182 56.606897 
L 144.967521 61.086121 
L 148.24686 63.469229 
L 151.526198 67.747392 
L 154.805537 57.024165 
L 158.084876 56.776457 
L 161.364215 64.190203 
L 164.643554 61.128325 
L 167.922893 68.050357 
L 171.202231 55.050482 
L 174.48157 51.796754 
L 177.760909 52.63128 
L 181.040248 47.212518 
L 184.319587 40.952387 
L 187.598926 46.281266 
L 190.878264 43.663189 
L 194.157603 51.252508 
L 197.436942 55.242524 
L 200.716281 44.085842 
L 203.99562 39.568895 
L 207.274959 43.099376 
L 210.554298 39.290737 
L 213.833636 37.022938 
L 217.112975 50.868386 
L 220.392314 37.594797 
L 223.671653 54.814002 
L 226.950992 53.130343 
L 230.230331 42.001422 
L 233.509669 43.425697 
L 236.789008 42.225972 
L 240.068347 52.960618 
L 243.347686 37.796705 
L 246.627025 33.130387 
L 249.906364 37.018878 
L 253.185702 46.414066 
L 256.465041 51.626795 
L 259.74438 48.808236 
L 263.023719 40.739634 
L 266.303058 42.388066 
L 269.582397 43.300895 
L 272.861736 33.354863 
L 276.141074 41.818618 
L 279.420413 34.437427 
L 282.699752 34.509979 
L 285.979091 39.837905 
L 289.25843 35.822128 
L 292.537769 43.870328 
L 295.817107 37.552253 
L 299.096446 46.311768 
L 302.375785 50.641638 
L 305.655124 45.599564 
L 308.934463 52.928052 
L 312.213802 32.424686 
L 315.49314 38.77363 
L 318.772479 45.906813 
L 322.051818 34.909277 
L 325.331157 29.172453 
L 328.610496 32.617771 
L 331.889835 30.090114 
L 335.169174 38.098218 
L 338.448512 45.995222 
L 341.727851 50.839927 
L 345.00719 32.853645 
L 348.286529 37.460816 
L 351.565868 30.878392 
L 354.845207 32.688534 
L 358.124545 31.465268 
L 361.403884 33.550981 
L 364.683223 35.423787 
L 367.962562 27.258427 
L 371.241901 33.16414 
L 374.52124 28.027841 
L 377.800579 30.995265 
L 381.079917 35.150994 
L 384.359256 34.354324 
L 387.638595 31.949164 
L 390.917934 34.122728 
L 394.197273 30.592311 
" clip-path="url(#pbd7ed27458)" style="fill: none; stroke: #dd8452; stroke-width: 1.5; stroke-linecap: round"/>
   </g>
   <g id="line2d_14">
    <path d="M 69.542727 232.672627 
L 72.822066 211.805722 
L 76.101405 188.421085 
L 79.380744 170.780259 
L 82.660083 153.847316 
L 85.939421 135.801264 
L 89.21876 133.88278 
L 92.498099 115.714363 
L 95.777438 99.726715 
L 99.056777 90.479961 
L 102.336116 81.043341 
L 105.615455 73.368711 
L 108.894793 73.495098 
L 112.174132 65.806536 
L 115.453471 61.776072 
L 118.73281 58.503431 
L 122.012149 56.198957 
L 125.291488 54.989718 
L 128.570826 54.535344 
L 131.850165 53.227574 
L 135.129504 50.59423 
L 138.408843 51.756753 
L 141.688182 50.516608 
L 144.967521 50.04429 
L 148.24686 50.228254 
L 151.526198 49.247902 
L 154.805537 48.194222 
L 158.084876 48.542898 
L 161.364215 47.480826 
L 164.643554 44.979041 
L 167.922893 44.495219 
L 171.202231 43.768573 
L 174.48157 43.187971 
L 177.760909 42.912293 
L 181.040248 41.720774 
L 184.319587 41.301734 
L 187.598926 40.828831 
L 190.878264 42.046121 
L 194.157603 41.542025 
L 197.436942 41.95361 
L 200.716281 41.506648 
L 203.99562 40.681169 
L 207.274959 40.810387 
L 210.554298 40.805805 
L 213.833636 38.218326 
L 217.112975 38.008053 
L 220.392314 37.595238 
L 223.671653 37.032703 
L 226.950992 37.802526 
L 230.230331 37.700511 
L 233.509669 36.955963 
L 236.789008 36.075983 
L 240.068347 35.459047 
L 243.347686 35.087334 
L 246.627025 35.294063 
L 249.906364 35.554091 
L 253.185702 35.273555 
L 256.465041 34.95852 
L 259.74438 34.889833 
L 263.023719 35.088478 
L 266.303058 34.673482 
L 269.582397 34.480871 
L 272.861736 33.644307 
L 276.141074 32.972487 
L 279.420413 32.503484 
L 282.699752 31.847117 
L 285.979091 31.744846 
L 289.25843 31.425964 
L 292.537769 31.131364 
L 295.817107 30.780011 
L 299.096446 31.543875 
L 302.375785 30.888971 
L 305.655124 30.856005 
L 308.934463 30.825673 
L 312.213802 31.175158 
L 315.49314 31.350981 
L 318.772479 30.645785 
L 322.051818 31.332548 
L 325.331157 30.962528 
L 328.610496 30.819628 
L 331.889835 30.764228 
L 335.169174 30.083973 
L 338.448512 29.261942 
L 341.727851 29.172426 
L 345.00719 29.135687 
L 348.286529 29.436205 
L 351.565868 29.383125 
L 354.845207 29.307652 
L 358.124545 28.289529 
L 361.403884 28.396195 
L 364.683223 28.250513 
L 367.962562 27.932802 
L 371.241901 28.030853 
L 374.52124 28.028953 
L 377.800579 27.940656 
L 381.079917 27.732746 
L 384.359256 28.033732 
L 387.638595 28.052037 
L 390.917934 28.16602 
L 394.197273 28.250103 
" clip-path="url(#pbd7ed27458)" style="fill: none; stroke: #55a868; stroke-width: 1.5; stroke-linecap: round"/>
   </g>
   <g id="line2d_15">
    <path d="M 69.542727 230.551936 
L 72.822066 215.308075 
L 76.101405 205.034534 
L 79.380744 200.716153 
L 82.660083 175.981687 
L 85.939421 187.401579 
L 89.21876 174.635071 
L 92.498099 165.409235 
L 95.777438 158.739733 
L 99.056777 152.435073 
L 102.336116 141.558911 
L 105.615455 127.080451 
L 108.894793 113.734789 
L 112.174132 100.146565 
L 115.453471 93.984841 
L 118.73281 87.621503 
L 122.012149 81.322686 
L 125.291488 77.529399 
L 128.570826 74.683531 
L 131.850165 69.196411 
L 135.129504 67.520048 
L 138.408843 63.203838 
L 141.688182 56.804867 
L 144.967521 56.321566 
L 148.24686 53.204911 
L 151.526198 50.337236 
L 154.805537 49.12276 
L 158.084876 48.496208 
L 161.364215 47.165807 
L 164.643554 45.174122 
L 167.922893 44.032496 
L 171.202231 44.585315 
L 174.48157 43.377592 
L 177.760909 42.428226 
L 181.040248 41.709551 
L 184.319587 40.686836 
L 187.598926 39.57676 
L 190.878264 38.722572 
L 194.157603 38.398677 
L 197.436942 36.547906 
L 200.716281 35.778205 
L 203.99562 34.939161 
L 207.274959 34.65109 
L 210.554298 34.214724 
L 213.833636 34.035399 
L 217.112975 33.503004 
L 220.392314 33.296248 
L 223.671653 32.555931 
L 226.950992 32.239731 
L 230.230331 31.919477 
L 233.509669 30.942525 
L 236.789008 30.909394 
L 240.068347 30.572877 
L 243.347686 29.4559 
L 246.627025 29.340719 
L 249.906364 28.657357 
L 253.185702 28.486712 
L 256.465041 28.107943 
L 259.74438 27.985047 
L 263.023719 27.552703 
L 266.303058 27.524931 
L 269.582397 27.455674 
L 272.861736 26.571611 
L 276.141074 26.555583 
L 279.420413 26.3376 
L 282.699752 26.659791 
L 285.979091 26.644359 
L 289.25843 26.916408 
L 292.537769 26.888311 
L 295.817107 26.774759 
L 299.096446 25.959784 
L 302.375785 25.596735 
L 305.655124 25.06576 
L 308.934463 25.059683 
L 312.213802 25.042777 
L 315.49314 25.160687 
L 318.772479 24.982976 
L 322.051818 24.471684 
L 325.331157 24.463947 
L 328.610496 24.472025 
L 331.889835 24.510115 
L 335.169174 24.37929 
L 338.448512 24.374745 
L 341.727851 24.238061 
L 345.00719 24.151515 
L 348.286529 24.002176 
L 351.565868 23.861576 
L 354.845207 23.7281 
L 358.124545 23.931461 
L 361.403884 23.943125 
L 364.683223 23.875651 
L 367.962562 23.546169 
L 371.241901 23.568045 
L 374.52124 23.531397 
L 377.800579 23.450725 
L 381.079917 23.405738 
L 384.359256 23.464034 
L 387.638595 23.303297 
L 390.917934 23.163771 
L 394.197273 23.098127 
" clip-path="url(#pbd7ed27458)" style="fill: none; stroke: #c44e52; stroke-width: 1.5; stroke-linecap: round"/>
   </g>
   <g id="line2d_16">
    <path d="M 69.542727 226.281091 
L 72.822066 211.580933 
L 76.101405 216.699246 
L 79.380744 197.430326 
L 82.660083 190.20676 
L 85.939421 186.112929 
L 89.21876 178.194085 
L 92.498099 177.002827 
L 95.777438 168.327708 
L 99.056777 168.33594 
L 102.336116 158.603506 
L 105.615455 160.696021 
L 108.894793 157.519383 
L 112.174132 153.404154 
L 115.453471 152.931023 
L 118.73281 151.755164 
L 122.012149 148.45067 
L 125.291488 145.00018 
L 128.570826 142.961858 
L 131.850165 141.331652 
L 135.129504 139.943472 
L 138.408843 138.086342 
L 141.688182 135.394123 
L 144.967521 132.931972 
L 148.24686 133.127345 
L 151.526198 131.04227 
L 154.805537 127.315889 
L 158.084876 125.864879 
L 161.364215 121.97765 
L 164.643554 118.177073 
L 167.922893 114.853364 
L 171.202231 115.946113 
L 174.48157 113.895191 
L 177.760909 113.357522 
L 181.040248 112.656625 
L 184.319587 110.586536 
L 187.598926 106.66079 
L 190.878264 104.674852 
L 194.157603 104.527839 
L 197.436942 104.544234 
L 200.716281 104.182733 
L 203.99562 100.841719 
L 207.274959 100.053925 
L 210.554298 98.337327 
L 213.833636 97.576858 
L 217.112975 97.570489 
L 220.392314 93.92901 
L 223.671653 91.670762 
L 226.950992 90.599889 
L 230.230331 90.117929 
L 233.509669 88.615834 
L 236.789008 88.563845 
L 240.068347 88.255297 
L 243.347686 89.149124 
L 246.627025 88.486855 
L 249.906364 87.881222 
L 253.185702 87.482946 
L 256.465041 85.939648 
L 259.74438 85.738054 
L 263.023719 84.167415 
L 266.303058 81.08737 
L 269.582397 78.117195 
L 272.861736 77.953213 
L 276.141074 77.905124 
L 279.420413 77.161476 
L 282.699752 76.643666 
L 285.979091 74.934629 
L 289.25843 72.635099 
L 292.537769 69.140202 
L 295.817107 69.46325 
L 299.096446 69.386703 
L 302.375785 67.943452 
L 305.655124 65.193107 
L 308.934463 65.043279 
L 312.213802 64.125474 
L 315.49314 64.076757 
L 318.772479 63.972554 
L 322.051818 63.165109 
L 325.331157 62.493682 
L 328.610496 61.601845 
L 331.889835 61.438304 
L 335.169174 61.109924 
L 338.448512 60.596978 
L 341.727851 60.526422 
L 345.00719 60.255539 
L 348.286529 59.956468 
L 351.565868 59.777735 
L 354.845207 59.44315 
L 358.124545 59.191019 
L 361.403884 59.295434 
L 364.683223 59.171037 
L 367.962562 59.110086 
L 371.241901 58.780642 
L 374.52124 58.29757 
L 377.800579 57.591363 
L 381.079917 57.715467 
L 384.359256 57.48832 
L 387.638595 57.086409 
L 390.917934 56.468111 
L 394.197273 55.920832 
" clip-path="url(#pbd7ed27458)" style="fill: none; stroke: #8172b3; stroke-width: 1.5; stroke-linecap: round"/>
   </g>
   <g id="line2d_17"/>
   <g id="line2d_18"/>
   <g id="line2d_19"/>
   <g id="line2d_20"/>
   <g id="line2d_21"/>
   <g id="patch_3">
    <path d="M 53.31 273.312 
L 53.31 7.2 
" style="fill: none; stroke: #cccccc; stroke-width: 1.25; stroke-linejoin: miter; stroke-linecap: square"/>
   </g>
   <g id="patch_4">
    <path d="M 410.43 273.312 
L 410.43 7.2 
" style="fill: none; stroke: #cccccc; stroke-width: 1.25; stroke-linejoin: miter; stroke-linecap: square"/>
   </g>
   <g id="patch_5">
    <path d="M 53.31 273.312 
L 410.43 273.312 
" style="fill: none; stroke: #cccccc; stroke-width: 1.25; stroke-linejoin: miter; stroke-linecap: square"/>
   </g>
   <g id="patch_6">
    <path d="M 53.31 7.2 
L 410.43 7.2 
" style="fill: none; stroke: #cccccc; stroke-width: 1.25; stroke-linejoin: miter; stroke-linecap: square"/>
   </g>
   <g id="legend_1">
    <g id="patch_7">
     <path d="M 298.745625 267.812 
L 402.73 267.812 
Q 404.93 267.812 404.93 265.612 
L 404.93 168.868562 
Q 404.93 166.668562 402.73 166.668562 
L 298.745625 166.668562 
Q 296.545625 166.668562 296.545625 168.868562 
L 296.545625 265.612 
Q 296.545625 267.812 298.745625 267.812 
z
" style="fill: #ffffff; opacity: 0.8; stroke: #cccccc; stroke-linejoin: miter"/>
    </g>
    <g id="text_14">
     <!-- Strategy -->
     <g style="fill: #262626" transform="translate(325.02875 180.186687) scale(0.12 -0.12)">
      <defs>
       <path id="DejaVuSans-53" d="M 3425 4513 
L 3425 3897 
Q 3066 4069 2747 4153 
Q 2428 4238 2131 4238 
Q 1616 4238 1336 4038 
Q 1056 3838 1056 3469 
Q 1056 3159 1242 3001 
Q 1428 2844 1947 2747 
L 2328 2669 
Q 3034 2534 3370 2195 
Q 3706 1856 3706 1288 
Q 3706 609 3251 259 
Q 2797 -91 1919 -91 
Q 1588 -91 1214 -16 
Q 841 59 441 206 
L 441 856 
Q 825 641 1194 531 
Q 1563 422 1919 422 
Q 2459 422 2753 634 
Q 3047 847 3047 1241 
Q 3047 1584 2836 1778 
Q 2625 1972 2144 2069 
L 1759 2144 
Q 1053 2284 737 2584 
Q 422 2884 422 3419 
Q 422 4038 858 4394 
Q 1294 4750 2059 4750 
Q 2388 4750 2728 4690 
Q 3069 4631 3425 4513 
z
" transform="scale(0.015625)"/>
       <path id="DejaVuSans-74" d="M 1172 4494 
L 1172 3500 
L 2356 3500 
L 2356 3053 
L 1172 3053 
L 1172 1153 
Q 1172 725 1289 603 
Q 1406 481 1766 481 
L 2356 481 
L 2356 0 
L 1766 0 
Q 1100 0 847 248 
Q 594 497 594 1153 
L 594 3053 
L 172 3053 
L 172 3500 
L 594 3500 
L 594 4494 
L 1172 4494 
z
" transform="scale(0.015625)"/>
       <path id="DejaVuSans-65" d="M 3597 1894 
L 3597 1613 
L 953 1613 
Q 991 1019 1311 708 
Q 1631 397 2203 397 
Q 2534 397 2845 478 
Q 3156 559 3463 722 
L 3463 178 
Q 3153 47 2828 -22 
Q 2503 -91 2169 -91 
Q 1331 -91 842 396 
Q 353 884 353 1716 
Q 353 2575 817 3079 
Q 1281 3584 2069 3584 
Q 2775 3584 3186 3129 
Q 3597 2675 3597 1894 
z
M 3022 2063 
Q 3016 2534 2758 2815 
Q 2500 3097 2075 3097 
Q 1594 3097 1305 2825 
Q 1016 2553 972 2059 
L 3022 2063 
z
" transform="scale(0.015625)"/>
       <path id="DejaVuSans-67" d="M 2906 1791 
Q 2906 2416 2648 2759 
Q 2391 3103 1925 3103 
Q 1463 3103 1205 2759 
Q 947 2416 947 1791 
Q 947 1169 1205 825 
Q 1463 481 1925 481 
Q 2391 481 2648 825 
Q 2906 1169 2906 1791 
z
M 3481 434 
Q 3481 -459 3084 -895 
Q 2688 -1331 1869 -1331 
Q 1566 -1331 1297 -1286 
Q 1028 -1241 775 -1147 
L 775 -588 
Q 1028 -725 1275 -790 
Q 1522 -856 1778 -856 
Q 2344 -856 2625 -561 
Q 2906 -266 2906 331 
L 2906 616 
Q 2728 306 2450 153 
Q 2172 0 1784 0 
Q 1141 0 747 490 
Q 353 981 353 1791 
Q 353 2603 747 3093 
Q 1141 3584 1784 3584 
Q 2172 3584 2450 3431 
Q 2728 3278 2906 2969 
L 2906 3500 
L 3481 3500 
L 3481 434 
z
" transform="scale(0.015625)"/>
      </defs>
      <use xlink:href="#DejaVuSans-53"/>
      <use xlink:href="#DejaVuSans-74" x="63.476562"/>
      <use xlink:href="#DejaVuSans-72" x="102.685547"/>
      <use xlink:href="#DejaVuSans-61" x="143.798828"/>
      <use xlink:href="#DejaVuSans-74" x="205.078125"/>
      <use xlink:href="#DejaVuSans-65" x="244.287109"/>
      <use xlink:href="#DejaVuSans-67" x="305.810547"/>
      <use xlink:href="#DejaVuSans-79" x="369.287109"/>
     </g>
    </g>
    <g id="line2d_22">
     <path d="M 300.945625 192.690594 
L 311.945625 192.690594 
L 322.945625 192.690594 
" style="fill: none; stroke: #4c72b0; stroke-width: 1.5; stroke-linecap: round"/>
    </g>
    <g id="text_15">
     <!-- FedPredict -->
     <g style="fill: #262626" transform="translate(331.745625 196.540594) scale(0.11 -0.11)">
      <defs>
       <path id="DejaVuSans-46" d="M 628 4666 
L 3309 4666 
L 3309 4134 
L 1259 4134 
L 1259 2759 
L 3109 2759 
L 3109 2228 
L 1259 2228 
L 1259 0 
L 628 0 
L 628 4666 
z
" transform="scale(0.015625)"/>
       <path id="DejaVuSans-50" d="M 1259 4147 
L 1259 2394 
L 2053 2394 
Q 2494 2394 2734 2622 
Q 2975 2850 2975 3272 
Q 2975 3691 2734 3919 
Q 2494 4147 2053 4147 
L 1259 4147 
z
M 628 4666 
L 2053 4666 
Q 2838 4666 3239 4311 
Q 3641 3956 3641 3272 
Q 3641 2581 3239 2228 
Q 2838 1875 2053 1875 
L 1259 1875 
L 1259 0 
L 628 0 
L 628 4666 
z
" transform="scale(0.015625)"/>
       <path id="DejaVuSans-69" d="M 603 3500 
L 1178 3500 
L 1178 0 
L 603 0 
L 603 3500 
z
M 603 4863 
L 1178 4863 
L 1178 4134 
L 603 4134 
L 603 4863 
z
" transform="scale(0.015625)"/>
      </defs>
      <use xlink:href="#DejaVuSans-46"/>
      <use xlink:href="#DejaVuSans-65" x="52.019531"/>
      <use xlink:href="#DejaVuSans-64" x="113.542969"/>
      <use xlink:href="#DejaVuSans-50" x="177.019531"/>
      <use xlink:href="#DejaVuSans-72" x="235.572266"/>
      <use xlink:href="#DejaVuSans-65" x="274.435547"/>
      <use xlink:href="#DejaVuSans-64" x="335.958984"/>
      <use xlink:href="#DejaVuSans-69" x="399.435547"/>
      <use xlink:href="#DejaVuSans-63" x="427.21875"/>
      <use xlink:href="#DejaVuSans-74" x="482.199219"/>
     </g>
    </g>
    <g id="line2d_23">
     <path d="M 300.945625 208.836531 
L 311.945625 208.836531 
L 322.945625 208.836531 
" style="fill: none; stroke: #dd8452; stroke-width: 1.5; stroke-linecap: round"/>
    </g>
    <g id="text_16">
     <!-- FedAVG -->
     <g style="fill: #262626" transform="translate(331.745625 212.686531) scale(0.11 -0.11)">
      <defs>
       <path id="DejaVuSans-56" d="M 1831 0 
L 50 4666 
L 709 4666 
L 2188 738 
L 3669 4666 
L 4325 4666 
L 2547 0 
L 1831 0 
z
" transform="scale(0.015625)"/>
       <path id="DejaVuSans-47" d="M 3809 666 
L 3809 1919 
L 2778 1919 
L 2778 2438 
L 4434 2438 
L 4434 434 
Q 4069 175 3628 42 
Q 3188 -91 2688 -91 
Q 1594 -91 976 548 
Q 359 1188 359 2328 
Q 359 3472 976 4111 
Q 1594 4750 2688 4750 
Q 3144 4750 3555 4637 
Q 3966 4525 4313 4306 
L 4313 3634 
Q 3963 3931 3569 4081 
Q 3175 4231 2741 4231 
Q 1884 4231 1454 3753 
Q 1025 3275 1025 2328 
Q 1025 1384 1454 906 
Q 1884 428 2741 428 
Q 3075 428 3337 486 
Q 3600 544 3809 666 
z
" transform="scale(0.015625)"/>
      </defs>
      <use xlink:href="#DejaVuSans-46"/>
      <use xlink:href="#DejaVuSans-65" x="52.019531"/>
      <use xlink:href="#DejaVuSans-64" x="113.542969"/>
      <use xlink:href="#DejaVuSans-41" x="177.019531"/>
      <use xlink:href="#DejaVuSans-56" x="239.052734"/>
      <use xlink:href="#DejaVuSans-47" x="307.460938"/>
     </g>
    </g>
    <g id="line2d_24">
     <path d="M 300.945625 224.982469 
L 311.945625 224.982469 
L 322.945625 224.982469 
" style="fill: none; stroke: #55a868; stroke-width: 1.5; stroke-linecap: round"/>
    </g>
    <g id="text_17">
     <!-- FedClassAvg -->
     <g style="fill: #262626" transform="translate(331.745625 228.832469) scale(0.11 -0.11)">
      <defs>
       <path id="DejaVuSans-43" d="M 4122 4306 
L 4122 3641 
Q 3803 3938 3442 4084 
Q 3081 4231 2675 4231 
Q 1875 4231 1450 3742 
Q 1025 3253 1025 2328 
Q 1025 1406 1450 917 
Q 1875 428 2675 428 
Q 3081 428 3442 575 
Q 3803 722 4122 1019 
L 4122 359 
Q 3791 134 3420 21 
Q 3050 -91 2638 -91 
Q 1578 -91 968 557 
Q 359 1206 359 2328 
Q 359 3453 968 4101 
Q 1578 4750 2638 4750 
Q 3056 4750 3426 4639 
Q 3797 4528 4122 4306 
z
" transform="scale(0.015625)"/>
       <path id="DejaVuSans-6c" d="M 603 4863 
L 1178 4863 
L 1178 0 
L 603 0 
L 603 4863 
z
" transform="scale(0.015625)"/>
       <path id="DejaVuSans-73" d="M 2834 3397 
L 2834 2853 
Q 2591 2978 2328 3040 
Q 2066 3103 1784 3103 
Q 1356 3103 1142 2972 
Q 928 2841 928 2578 
Q 928 2378 1081 2264 
Q 1234 2150 1697 2047 
L 1894 2003 
Q 2506 1872 2764 1633 
Q 3022 1394 3022 966 
Q 3022 478 2636 193 
Q 2250 -91 1575 -91 
Q 1294 -91 989 -36 
Q 684 19 347 128 
L 347 722 
Q 666 556 975 473 
Q 1284 391 1588 391 
Q 1994 391 2212 530 
Q 2431 669 2431 922 
Q 2431 1156 2273 1281 
Q 2116 1406 1581 1522 
L 1381 1569 
Q 847 1681 609 1914 
Q 372 2147 372 2553 
Q 372 3047 722 3315 
Q 1072 3584 1716 3584 
Q 2034 3584 2315 3537 
Q 2597 3491 2834 3397 
z
" transform="scale(0.015625)"/>
       <path id="DejaVuSans-76" d="M 191 3500 
L 800 3500 
L 1894 563 
L 2988 3500 
L 3597 3500 
L 2284 0 
L 1503 0 
L 191 3500 
z
" transform="scale(0.015625)"/>
      </defs>
      <use xlink:href="#DejaVuSans-46"/>
      <use xlink:href="#DejaVuSans-65" x="52.019531"/>
      <use xlink:href="#DejaVuSans-64" x="113.542969"/>
      <use xlink:href="#DejaVuSans-43" x="177.019531"/>
      <use xlink:href="#DejaVuSans-6c" x="246.84375"/>
      <use xlink:href="#DejaVuSans-61" x="274.626953"/>
      <use xlink:href="#DejaVuSans-73" x="335.90625"/>
      <use xlink:href="#DejaVuSans-73" x="388.005859"/>
      <use xlink:href="#DejaVuSans-41" x="440.105469"/>
      <use xlink:href="#DejaVuSans-76" x="502.638672"/>
      <use xlink:href="#DejaVuSans-67" x="561.818359"/>
     </g>
    </g>
    <g id="line2d_25">
     <path d="M 300.945625 241.128406 
L 311.945625 241.128406 
L 322.945625 241.128406 
" style="fill: none; stroke: #c44e52; stroke-width: 1.5; stroke-linecap: round"/>
    </g>
    <g id="text_18">
     <!-- FedPer -->
     <g style="fill: #262626" transform="translate(331.745625 244.978406) scale(0.11 -0.11)">
      <use xlink:href="#DejaVuSans-46"/>
      <use xlink:href="#DejaVuSans-65" x="52.019531"/>
      <use xlink:href="#DejaVuSans-64" x="113.542969"/>
      <use xlink:href="#DejaVuSans-50" x="177.019531"/>
      <use xlink:href="#DejaVuSans-65" x="233.697266"/>
      <use xlink:href="#DejaVuSans-72" x="295.220703"/>
     </g>
    </g>
    <g id="line2d_26">
     <path d="M 300.945625 257.274344 
L 311.945625 257.274344 
L 322.945625 257.274344 
" style="fill: none; stroke: #8172b3; stroke-width: 1.5; stroke-linecap: round"/>
    </g>
    <g id="text_19">
     <!-- FedProto -->
     <g style="fill: #262626" transform="translate(331.745625 261.124344) scale(0.11 -0.11)">
      <use xlink:href="#DejaVuSans-46"/>
      <use xlink:href="#DejaVuSans-65" x="52.019531"/>
      <use xlink:href="#DejaVuSans-64" x="113.542969"/>
      <use xlink:href="#DejaVuSans-50" x="177.019531"/>
      <use xlink:href="#DejaVuSans-72" x="235.572266"/>
      <use xlink:href="#DejaVuSans-6f" x="274.435547"/>
      <use xlink:href="#DejaVuSans-74" x="335.617188"/>
      <use xlink:href="#DejaVuSans-6f" x="374.826172"/>
     </g>
    </g>
   </g>
  </g>
 </g>
 <defs>
  <clipPath id="pbd7ed27458">
   <rect x="53.31" y="7.2" width="357.12" height="266.112"/>
  </clipPath>
 </defs>
</svg>
