<?xml version="1.0" encoding="utf-8" standalone="no"?>
<!DOCTYPE svg PUBLIC "-//W3C//DTD SVG 1.1//EN"
  "http://www.w3.org/Graphics/SVG/1.1/DTD/svg11.dtd">
<svg xmlns:xlink="http://www.w3.org/1999/xlink" width="417.63pt" height="316.271687pt" viewBox="0 0 417.63 316.271687" xmlns="http://www.w3.org/2000/svg" version="1.1">
 <metadata>
  <rdf:RDF xmlns:dc="http://purl.org/dc/elements/1.1/" xmlns:cc="http://creativecommons.org/ns#" xmlns:rdf="http://www.w3.org/1999/02/22-rdf-syntax-ns#">
   <cc:Work>
    <dc:type rdf:resource="http://purl.org/dc/dcmitype/StillImage"/>
    <dc:date>2023-02-06T15:26:54.413244</dc:date>
    <dc:format>image/svg+xml</dc:format>
    <dc:creator>
     <cc:Agent>
      <dc:title>Matplotlib v3.6.3, https://matplotlib.org/</dc:title>
     </cc:Agent>
    </dc:creator>
   </cc:Work>
  </rdf:RDF>
 </metadata>
 <defs>
  <style type="text/css">*{stroke-linejoin: round; stroke-linecap: butt}</style>
 </defs>
 <g id="figure_1">
  <g id="patch_1">
   <path d="M 0 316.271687 
L 417.63 316.271687 
L 417.63 0 
L 0 0 
z
" style="fill: #ffffff"/>
  </g>
  <g id="axes_1">
   <g id="patch_2">
    <path d="M 53.31 273.312 
L 410.43 273.312 
L 410.43 7.2 
L 53.31 7.2 
z
" style="fill: #ffffff"/>
   </g>
   <g id="matplotlib.axis_1">
    <g id="xtick_1">
     <g id="line2d_1">
      <path d="M 66.263388 273.312 
L 66.263388 7.2 
" clip-path="url(#pe2918d9a46)" style="fill: none; stroke: #cccccc; stroke-linecap: round"/>
     </g>
     <g id="text_1">
      <!-- 0 -->
      <g style="fill: #262626" transform="translate(62.764013 291.170281) scale(0.11 -0.11)">
       <defs>
        <path id="DejaVuSans-30" d="M 2034 4250 
Q 1547 4250 1301 3770 
Q 1056 3291 1056 2328 
Q 1056 1369 1301 889 
Q 1547 409 2034 409 
Q 2525 409 2770 889 
Q 3016 1369 3016 2328 
Q 3016 3291 2770 3770 
Q 2525 4250 2034 4250 
z
M 2034 4750 
Q 2819 4750 3233 4129 
Q 3647 3509 3647 2328 
Q 3647 1150 3233 529 
Q 2819 -91 2034 -91 
Q 1250 -91 836 529 
Q 422 1150 422 2328 
Q 422 3509 836 4129 
Q 1250 4750 2034 4750 
z
" transform="scale(0.015625)"/>
       </defs>
       <use xlink:href="#DejaVuSans-30"/>
      </g>
     </g>
    </g>
    <g id="xtick_2">
     <g id="line2d_2">
      <path d="M 131.850165 273.312 
L 131.850165 7.2 
" clip-path="url(#pe2918d9a46)" style="fill: none; stroke: #cccccc; stroke-linecap: round"/>
     </g>
     <g id="text_2">
      <!-- 20 -->
      <g style="fill: #262626" transform="translate(124.851415 291.170281) scale(0.11 -0.11)">
       <defs>
        <path id="DejaVuSans-32" d="M 1228 531 
L 3431 531 
L 3431 0 
L 469 0 
L 469 531 
Q 828 903 1448 1529 
Q 2069 2156 2228 2338 
Q 2531 2678 2651 2914 
Q 2772 3150 2772 3378 
Q 2772 3750 2511 3984 
Q 2250 4219 1831 4219 
Q 1534 4219 1204 4116 
Q 875 4013 500 3803 
L 500 4441 
Q 881 4594 1212 4672 
Q 1544 4750 1819 4750 
Q 2544 4750 2975 4387 
Q 3406 4025 3406 3419 
Q 3406 3131 3298 2873 
Q 3191 2616 2906 2266 
Q 2828 2175 2409 1742 
Q 1991 1309 1228 531 
z
" transform="scale(0.015625)"/>
       </defs>
       <use xlink:href="#DejaVuSans-32"/>
       <use xlink:href="#DejaVuSans-30" x="63.623047"/>
      </g>
     </g>
    </g>
    <g id="xtick_3">
     <g id="line2d_3">
      <path d="M 197.436942 273.312 
L 197.436942 7.2 
" clip-path="url(#pe2918d9a46)" style="fill: none; stroke: #cccccc; stroke-linecap: round"/>
     </g>
     <g id="text_3">
      <!-- 40 -->
      <g style="fill: #262626" transform="translate(190.438192 291.170281) scale(0.11 -0.11)">
       <defs>
        <path id="DejaVuSans-34" d="M 2419 4116 
L 825 1625 
L 2419 1625 
L 2419 4116 
z
M 2253 4666 
L 3047 4666 
L 3047 1625 
L 3713 1625 
L 3713 1100 
L 3047 1100 
L 3047 0 
L 2419 0 
L 2419 1100 
L 313 1100 
L 313 1709 
L 2253 4666 
z
" transform="scale(0.015625)"/>
       </defs>
       <use xlink:href="#DejaVuSans-34"/>
       <use xlink:href="#DejaVuSans-30" x="63.623047"/>
      </g>
     </g>
    </g>
    <g id="xtick_4">
     <g id="line2d_4">
      <path d="M 263.023719 273.312 
L 263.023719 7.2 
" clip-path="url(#pe2918d9a46)" style="fill: none; stroke: #cccccc; stroke-linecap: round"/>
     </g>
     <g id="text_4">
      <!-- 60 -->
      <g style="fill: #262626" transform="translate(256.024969 291.170281) scale(0.11 -0.11)">
       <defs>
        <path id="DejaVuSans-36" d="M 2113 2584 
Q 1688 2584 1439 2293 
Q 1191 2003 1191 1497 
Q 1191 994 1439 701 
Q 1688 409 2113 409 
Q 2538 409 2786 701 
Q 3034 994 3034 1497 
Q 3034 2003 2786 2293 
Q 2538 2584 2113 2584 
z
M 3366 4563 
L 3366 3988 
Q 3128 4100 2886 4159 
Q 2644 4219 2406 4219 
Q 1781 4219 1451 3797 
Q 1122 3375 1075 2522 
Q 1259 2794 1537 2939 
Q 1816 3084 2150 3084 
Q 2853 3084 3261 2657 
Q 3669 2231 3669 1497 
Q 3669 778 3244 343 
Q 2819 -91 2113 -91 
Q 1303 -91 875 529 
Q 447 1150 447 2328 
Q 447 3434 972 4092 
Q 1497 4750 2381 4750 
Q 2619 4750 2861 4703 
Q 3103 4656 3366 4563 
z
" transform="scale(0.015625)"/>
       </defs>
       <use xlink:href="#DejaVuSans-36"/>
       <use xlink:href="#DejaVuSans-30" x="63.623047"/>
      </g>
     </g>
    </g>
    <g id="xtick_5">
     <g id="line2d_5">
      <path d="M 328.610496 273.312 
L 328.610496 7.2 
" clip-path="url(#pe2918d9a46)" style="fill: none; stroke: #cccccc; stroke-linecap: round"/>
     </g>
     <g id="text_5">
      <!-- 80 -->
      <g style="fill: #262626" transform="translate(321.611746 291.170281) scale(0.11 -0.11)">
       <defs>
        <path id="DejaVuSans-38" d="M 2034 2216 
Q 1584 2216 1326 1975 
Q 1069 1734 1069 1313 
Q 1069 891 1326 650 
Q 1584 409 2034 409 
Q 2484 409 2743 651 
Q 3003 894 3003 1313 
Q 3003 1734 2745 1975 
Q 2488 2216 2034 2216 
z
M 1403 2484 
Q 997 2584 770 2862 
Q 544 3141 544 3541 
Q 544 4100 942 4425 
Q 1341 4750 2034 4750 
Q 2731 4750 3128 4425 
Q 3525 4100 3525 3541 
Q 3525 3141 3298 2862 
Q 3072 2584 2669 2484 
Q 3125 2378 3379 2068 
Q 3634 1759 3634 1313 
Q 3634 634 3220 271 
Q 2806 -91 2034 -91 
Q 1263 -91 848 271 
Q 434 634 434 1313 
Q 434 1759 690 2068 
Q 947 2378 1403 2484 
z
M 1172 3481 
Q 1172 3119 1398 2916 
Q 1625 2713 2034 2713 
Q 2441 2713 2670 2916 
Q 2900 3119 2900 3481 
Q 2900 3844 2670 4047 
Q 2441 4250 2034 4250 
Q 1625 4250 1398 4047 
Q 1172 3844 1172 3481 
z
" transform="scale(0.015625)"/>
       </defs>
       <use xlink:href="#DejaVuSans-38"/>
       <use xlink:href="#DejaVuSans-30" x="63.623047"/>
      </g>
     </g>
    </g>
    <g id="xtick_6">
     <g id="line2d_6">
      <path d="M 394.197273 273.312 
L 394.197273 7.2 
" clip-path="url(#pe2918d9a46)" style="fill: none; stroke: #cccccc; stroke-linecap: round"/>
     </g>
     <g id="text_6">
      <!-- 100 -->
      <g style="fill: #262626" transform="translate(383.699148 291.170281) scale(0.11 -0.11)">
       <defs>
        <path id="DejaVuSans-31" d="M 794 531 
L 1825 531 
L 1825 4091 
L 703 3866 
L 703 4441 
L 1819 4666 
L 2450 4666 
L 2450 531 
L 3481 531 
L 3481 0 
L 794 0 
L 794 531 
z
" transform="scale(0.015625)"/>
       </defs>
       <use xlink:href="#DejaVuSans-31"/>
       <use xlink:href="#DejaVuSans-30" x="63.623047"/>
       <use xlink:href="#DejaVuSans-30" x="127.246094"/>
      </g>
     </g>
    </g>
    <g id="text_7">
     <!-- Round -->
     <g style="fill: #262626" transform="translate(212.885625 306.576062) scale(0.12 -0.12)">
      <defs>
       <path id="DejaVuSans-52" d="M 2841 2188 
Q 3044 2119 3236 1894 
Q 3428 1669 3622 1275 
L 4263 0 
L 3584 0 
L 2988 1197 
Q 2756 1666 2539 1819 
Q 2322 1972 1947 1972 
L 1259 1972 
L 1259 0 
L 628 0 
L 628 4666 
L 2053 4666 
Q 2853 4666 3247 4331 
Q 3641 3997 3641 3322 
Q 3641 2881 3436 2590 
Q 3231 2300 2841 2188 
z
M 1259 4147 
L 1259 2491 
L 2053 2491 
Q 2509 2491 2742 2702 
Q 2975 2913 2975 3322 
Q 2975 3731 2742 3939 
Q 2509 4147 2053 4147 
L 1259 4147 
z
" transform="scale(0.015625)"/>
       <path id="DejaVuSans-6f" d="M 1959 3097 
Q 1497 3097 1228 2736 
Q 959 2375 959 1747 
Q 959 1119 1226 758 
Q 1494 397 1959 397 
Q 2419 397 2687 759 
Q 2956 1122 2956 1747 
Q 2956 2369 2687 2733 
Q 2419 3097 1959 3097 
z
M 1959 3584 
Q 2709 3584 3137 3096 
Q 3566 2609 3566 1747 
Q 3566 888 3137 398 
Q 2709 -91 1959 -91 
Q 1206 -91 779 398 
Q 353 888 353 1747 
Q 353 2609 779 3096 
Q 1206 3584 1959 3584 
z
" transform="scale(0.015625)"/>
       <path id="DejaVuSans-75" d="M 544 1381 
L 544 3500 
L 1119 3500 
L 1119 1403 
Q 1119 906 1312 657 
Q 1506 409 1894 409 
Q 2359 409 2629 706 
Q 2900 1003 2900 1516 
L 2900 3500 
L 3475 3500 
L 3475 0 
L 2900 0 
L 2900 538 
Q 2691 219 2414 64 
Q 2138 -91 1772 -91 
Q 1169 -91 856 284 
Q 544 659 544 1381 
z
M 1991 3584 
L 1991 3584 
z
" transform="scale(0.015625)"/>
       <path id="DejaVuSans-6e" d="M 3513 2113 
L 3513 0 
L 2938 0 
L 2938 2094 
Q 2938 2591 2744 2837 
Q 2550 3084 2163 3084 
Q 1697 3084 1428 2787 
Q 1159 2491 1159 1978 
L 1159 0 
L 581 0 
L 581 3500 
L 1159 3500 
L 1159 2956 
Q 1366 3272 1645 3428 
Q 1925 3584 2291 3584 
Q 2894 3584 3203 3211 
Q 3513 2838 3513 2113 
z
" transform="scale(0.015625)"/>
       <path id="DejaVuSans-64" d="M 2906 2969 
L 2906 4863 
L 3481 4863 
L 3481 0 
L 2906 0 
L 2906 525 
Q 2725 213 2448 61 
Q 2172 -91 1784 -91 
Q 1150 -91 751 415 
Q 353 922 353 1747 
Q 353 2572 751 3078 
Q 1150 3584 1784 3584 
Q 2172 3584 2448 3432 
Q 2725 3281 2906 2969 
z
M 947 1747 
Q 947 1113 1208 752 
Q 1469 391 1925 391 
Q 2381 391 2643 752 
Q 2906 1113 2906 1747 
Q 2906 2381 2643 2742 
Q 2381 3103 1925 3103 
Q 1469 3103 1208 2742 
Q 947 2381 947 1747 
z
" transform="scale(0.015625)"/>
      </defs>
      <use xlink:href="#DejaVuSans-52"/>
      <use xlink:href="#DejaVuSans-6f" x="64.982422"/>
      <use xlink:href="#DejaVuSans-75" x="126.164062"/>
      <use xlink:href="#DejaVuSans-6e" x="189.542969"/>
      <use xlink:href="#DejaVuSans-64" x="252.921875"/>
     </g>
    </g>
   </g>
   <g id="matplotlib.axis_2">
    <g id="ytick_1">
     <g id="line2d_7">
      <path d="M 53.31 272.081468 
L 410.43 272.081468 
" clip-path="url(#pe2918d9a46)" style="fill: none; stroke: #cccccc; stroke-linecap: round"/>
     </g>
     <g id="text_8">
      <!-- 0 -->
      <g style="fill: #262626" transform="translate(36.81125 276.260608) scale(0.11 -0.11)">
       <use xlink:href="#DejaVuSans-30"/>
      </g>
     </g>
    </g>
    <g id="ytick_2">
     <g id="line2d_8">
      <path d="M 53.31 221.147941 
L 410.43 221.147941 
" clip-path="url(#pe2918d9a46)" style="fill: none; stroke: #cccccc; stroke-linecap: round"/>
     </g>
     <g id="text_9">
      <!-- 20 -->
      <g style="fill: #262626" transform="translate(29.8125 225.327082) scale(0.11 -0.11)">
       <use xlink:href="#DejaVuSans-32"/>
       <use xlink:href="#DejaVuSans-30" x="63.623047"/>
      </g>
     </g>
    </g>
    <g id="ytick_3">
     <g id="line2d_9">
      <path d="M 53.31 170.214414 
L 410.43 170.214414 
" clip-path="url(#pe2918d9a46)" style="fill: none; stroke: #cccccc; stroke-linecap: round"/>
     </g>
     <g id="text_10">
      <!-- 40 -->
      <g style="fill: #262626" transform="translate(29.8125 174.393555) scale(0.11 -0.11)">
       <use xlink:href="#DejaVuSans-34"/>
       <use xlink:href="#DejaVuSans-30" x="63.623047"/>
      </g>
     </g>
    </g>
    <g id="ytick_4">
     <g id="line2d_10">
      <path d="M 53.31 119.280887 
L 410.43 119.280887 
" clip-path="url(#pe2918d9a46)" style="fill: none; stroke: #cccccc; stroke-linecap: round"/>
     </g>
     <g id="text_11">
      <!-- 60 -->
      <g style="fill: #262626" transform="translate(29.8125 123.460028) scale(0.11 -0.11)">
       <use xlink:href="#DejaVuSans-36"/>
       <use xlink:href="#DejaVuSans-30" x="63.623047"/>
      </g>
     </g>
    </g>
    <g id="ytick_5">
     <g id="line2d_11">
      <path d="M 53.31 68.347361 
L 410.43 68.347361 
" clip-path="url(#pe2918d9a46)" style="fill: none; stroke: #cccccc; stroke-linecap: round"/>
     </g>
     <g id="text_12">
      <!-- 80 -->
      <g style="fill: #262626" transform="translate(29.8125 72.526501) scale(0.11 -0.11)">
       <use xlink:href="#DejaVuSans-38"/>
       <use xlink:href="#DejaVuSans-30" x="63.623047"/>
      </g>
     </g>
    </g>
    <g id="ytick_6">
     <g id="line2d_12">
      <path d="M 53.31 17.413834 
L 410.43 17.413834 
" clip-path="url(#pe2918d9a46)" style="fill: none; stroke: #cccccc; stroke-linecap: round"/>
     </g>
     <g id="text_13">
      <!-- 100 -->
      <g style="fill: #262626" transform="translate(22.81375 21.592974) scale(0.11 -0.11)">
       <use xlink:href="#DejaVuSans-31"/>
       <use xlink:href="#DejaVuSans-30" x="63.623047"/>
       <use xlink:href="#DejaVuSans-30" x="127.246094"/>
      </g>
     </g>
    </g>
    <g id="text_14">
     <!-- Accuracy (%) -->
     <g style="fill: #262626" transform="translate(16.318125 179.939437) rotate(-90) scale(0.12 -0.12)">
      <defs>
       <path id="DejaVuSans-41" d="M 2188 4044 
L 1331 1722 
L 3047 1722 
L 2188 4044 
z
M 1831 4666 
L 2547 4666 
L 4325 0 
L 3669 0 
L 3244 1197 
L 1141 1197 
L 716 0 
L 50 0 
L 1831 4666 
z
" transform="scale(0.015625)"/>
       <path id="DejaVuSans-63" d="M 3122 3366 
L 3122 2828 
Q 2878 2963 2633 3030 
Q 2388 3097 2138 3097 
Q 1578 3097 1268 2742 
Q 959 2388 959 1747 
Q 959 1106 1268 751 
Q 1578 397 2138 397 
Q 2388 397 2633 464 
Q 2878 531 3122 666 
L 3122 134 
Q 2881 22 2623 -34 
Q 2366 -91 2075 -91 
Q 1284 -91 818 406 
Q 353 903 353 1747 
Q 353 2603 823 3093 
Q 1294 3584 2113 3584 
Q 2378 3584 2631 3529 
Q 2884 3475 3122 3366 
z
" transform="scale(0.015625)"/>
       <path id="DejaVuSans-72" d="M 2631 2963 
Q 2534 3019 2420 3045 
Q 2306 3072 2169 3072 
Q 1681 3072 1420 2755 
Q 1159 2438 1159 1844 
L 1159 0 
L 581 0 
L 581 3500 
L 1159 3500 
L 1159 2956 
Q 1341 3275 1631 3429 
Q 1922 3584 2338 3584 
Q 2397 3584 2469 3576 
Q 2541 3569 2628 3553 
L 2631 2963 
z
" transform="scale(0.015625)"/>
       <path id="DejaVuSans-61" d="M 2194 1759 
Q 1497 1759 1228 1600 
Q 959 1441 959 1056 
Q 959 750 1161 570 
Q 1363 391 1709 391 
Q 2188 391 2477 730 
Q 2766 1069 2766 1631 
L 2766 1759 
L 2194 1759 
z
M 3341 1997 
L 3341 0 
L 2766 0 
L 2766 531 
Q 2569 213 2275 61 
Q 1981 -91 1556 -91 
Q 1019 -91 701 211 
Q 384 513 384 1019 
Q 384 1609 779 1909 
Q 1175 2209 1959 2209 
L 2766 2209 
L 2766 2266 
Q 2766 2663 2505 2880 
Q 2244 3097 1772 3097 
Q 1472 3097 1187 3025 
Q 903 2953 641 2809 
L 641 3341 
Q 956 3463 1253 3523 
Q 1550 3584 1831 3584 
Q 2591 3584 2966 3190 
Q 3341 2797 3341 1997 
z
" transform="scale(0.015625)"/>
       <path id="DejaVuSans-79" d="M 2059 -325 
Q 1816 -950 1584 -1140 
Q 1353 -1331 966 -1331 
L 506 -1331 
L 506 -850 
L 844 -850 
Q 1081 -850 1212 -737 
Q 1344 -625 1503 -206 
L 1606 56 
L 191 3500 
L 800 3500 
L 1894 763 
L 2988 3500 
L 3597 3500 
L 2059 -325 
z
" transform="scale(0.015625)"/>
       <path id="DejaVuSans-20" transform="scale(0.015625)"/>
       <path id="DejaVuSans-28" d="M 1984 4856 
Q 1566 4138 1362 3434 
Q 1159 2731 1159 2009 
Q 1159 1288 1364 580 
Q 1569 -128 1984 -844 
L 1484 -844 
Q 1016 -109 783 600 
Q 550 1309 550 2009 
Q 550 2706 781 3412 
Q 1013 4119 1484 4856 
L 1984 4856 
z
" transform="scale(0.015625)"/>
       <path id="DejaVuSans-25" d="M 4653 2053 
Q 4381 2053 4226 1822 
Q 4072 1591 4072 1178 
Q 4072 772 4226 539 
Q 4381 306 4653 306 
Q 4919 306 5073 539 
Q 5228 772 5228 1178 
Q 5228 1588 5073 1820 
Q 4919 2053 4653 2053 
z
M 4653 2450 
Q 5147 2450 5437 2106 
Q 5728 1763 5728 1178 
Q 5728 594 5436 251 
Q 5144 -91 4653 -91 
Q 4153 -91 3862 251 
Q 3572 594 3572 1178 
Q 3572 1766 3864 2108 
Q 4156 2450 4653 2450 
z
M 1428 4353 
Q 1159 4353 1004 4120 
Q 850 3888 850 3481 
Q 850 3069 1003 2837 
Q 1156 2606 1428 2606 
Q 1700 2606 1854 2837 
Q 2009 3069 2009 3481 
Q 2009 3884 1853 4118 
Q 1697 4353 1428 4353 
z
M 4250 4750 
L 4750 4750 
L 1831 -91 
L 1331 -91 
L 4250 4750 
z
M 1428 4750 
Q 1922 4750 2215 4408 
Q 2509 4066 2509 3481 
Q 2509 2891 2217 2550 
Q 1925 2209 1428 2209 
Q 931 2209 642 2551 
Q 353 2894 353 3481 
Q 353 4063 643 4406 
Q 934 4750 1428 4750 
z
" transform="scale(0.015625)"/>
       <path id="DejaVuSans-29" d="M 513 4856 
L 1013 4856 
Q 1481 4119 1714 3412 
Q 1947 2706 1947 2009 
Q 1947 1309 1714 600 
Q 1481 -109 1013 -844 
L 513 -844 
Q 928 -128 1133 580 
Q 1338 1288 1338 2009 
Q 1338 2731 1133 3434 
Q 928 4138 513 4856 
z
" transform="scale(0.015625)"/>
      </defs>
      <use xlink:href="#DejaVuSans-41"/>
      <use xlink:href="#DejaVuSans-63" x="66.658203"/>
      <use xlink:href="#DejaVuSans-63" x="121.638672"/>
      <use xlink:href="#DejaVuSans-75" x="176.619141"/>
      <use xlink:href="#DejaVuSans-72" x="239.998047"/>
      <use xlink:href="#DejaVuSans-61" x="281.111328"/>
      <use xlink:href="#DejaVuSans-63" x="342.390625"/>
      <use xlink:href="#DejaVuSans-79" x="397.371094"/>
      <use xlink:href="#DejaVuSans-20" x="456.550781"/>
      <use xlink:href="#DejaVuSans-28" x="488.337891"/>
      <use xlink:href="#DejaVuSans-25" x="527.351562"/>
      <use xlink:href="#DejaVuSans-29" x="622.371094"/>
     </g>
    </g>
   </g>
   <g id="PolyCollection_1">
    <defs>
     <path id="m8c1fbd5497" d="M 69.542727 -129.080183 
L 69.542727 -84.879359 
L 72.822066 -122.047528 
L 76.101405 -136.680525 
L 79.380744 -179.367231 
L 82.660083 -216.88675 
L 85.939421 -236.261039 
L 89.21876 -250.804945 
L 92.498099 -248.157121 
L 95.777438 -256.064717 
L 99.056777 -282.807938 
L 102.336116 -279.390779 
L 105.615455 -276.64618 
L 108.894793 -276.673168 
L 112.174132 -284.587202 
L 115.453471 -283.669777 
L 118.73281 -280.590319 
L 122.012149 -282.151915 
L 125.291488 -285.766602 
L 128.570826 -281.856648 
L 131.850165 -279.430405 
L 135.129504 -283.617263 
L 138.408843 -283.257176 
L 141.688182 -287.141937 
L 144.967521 -286.511996 
L 148.24686 -287.108826 
L 151.526198 -288.025514 
L 154.805537 -283.100848 
L 158.084876 -283.473202 
L 161.364215 -282.801535 
L 164.643554 -285.372066 
L 167.922893 -284.439007 
L 171.202231 -285.751259 
L 174.48157 -285.869326 
L 177.760909 -287.447713 
L 181.040248 -286.562083 
L 184.319587 -289.230825 
L 187.598926 -289.716874 
L 190.878264 -290.142363 
L 194.157603 -284.622507 
L 197.436942 -286.535607 
L 200.716281 -289.850237 
L 203.99562 -290.206317 
L 207.274959 -290.207426 
L 210.554298 -289.627488 
L 213.833636 -283.604268 
L 217.112975 -284.435794 
L 220.392314 -286.52715 
L 223.671653 -288.517623 
L 226.950992 -289.159043 
L 230.230331 -291.202386 
L 233.509669 -292.384085 
L 236.789008 -292.818661 
L 240.068347 -292.924437 
L 243.347686 -293.253747 
L 246.627025 -293.079601 
L 249.906364 -292.81062 
L 253.185702 -292.719709 
L 256.465041 -292.603684 
L 259.74438 -291.597338 
L 263.023719 -293.668151 
L 266.303058 -293.601258 
L 269.582397 -293.461422 
L 272.861736 -291.163892 
L 276.141074 -291.605949 
L 279.420413 -292.672241 
L 282.699752 -290.712614 
L 285.979091 -290.450842 
L 289.25843 -291.357185 
L 292.537769 -291.275072 
L 295.817107 -292.034187 
L 299.096446 -290.610664 
L 302.375785 -290.568083 
L 305.655124 -290.594825 
L 308.934463 -290.542822 
L 312.213802 -290.885332 
L 315.49314 -291.498296 
L 318.772479 -292.667233 
L 322.051818 -293.097341 
L 325.331157 -292.92184 
L 328.610496 -293.060176 
L 331.889835 -293.494174 
L 335.169174 -292.914922 
L 338.448512 -293.402066 
L 341.727851 -293.80149 
L 345.00719 -294.103266 
L 348.286529 -293.773952 
L 351.565868 -292.508201 
L 354.845207 -292.486717 
L 358.124545 -292.020568 
L 361.403884 -292.06135 
L 364.683223 -292.242816 
L 367.962562 -292.049687 
L 371.241901 -292.292605 
L 374.52124 -292.968114 
L 377.800579 -292.859874 
L 381.079917 -293.16829 
L 384.359256 -293.502626 
L 387.638595 -293.612836 
L 390.917934 -295.33489 
L 394.197273 -295.166777 
L 394.197273 -296.975687 
L 394.197273 -296.975687 
L 390.917934 -296.946773 
L 387.638595 -296.916332 
L 384.359256 -296.796216 
L 381.079917 -296.722081 
L 377.800579 -296.656708 
L 374.52124 -296.693146 
L 371.241901 -296.562914 
L 367.962562 -296.475632 
L 364.683223 -296.493323 
L 361.403884 -296.528301 
L 358.124545 -296.568072 
L 354.845207 -296.507291 
L 351.565868 -296.569296 
L 348.286529 -296.706357 
L 345.00719 -296.653365 
L 341.727851 -296.608021 
L 338.448512 -296.401755 
L 335.169174 -296.388817 
L 331.889835 -296.401357 
L 328.610496 -296.26718 
L 325.331157 -296.345792 
L 322.051818 -296.271283 
L 318.772479 -296.209503 
L 315.49314 -296.069433 
L 312.213802 -296.233675 
L 308.934463 -296.238561 
L 305.655124 -296.25765 
L 302.375785 -296.20006 
L 299.096446 -296.090999 
L 295.817107 -296.013086 
L 292.537769 -295.820028 
L 289.25843 -295.940426 
L 285.979091 -296.011306 
L 282.699752 -295.904485 
L 279.420413 -295.683504 
L 276.141074 -295.718312 
L 272.861736 -295.910749 
L 269.582397 -295.594985 
L 266.303058 -295.733605 
L 263.023719 -295.729718 
L 259.74438 -295.511151 
L 256.465041 -295.430443 
L 253.185702 -295.628736 
L 249.906364 -295.620265 
L 246.627025 -295.499932 
L 243.347686 -295.634529 
L 240.068347 -295.580479 
L 236.789008 -295.322862 
L 233.509669 -295.253614 
L 230.230331 -295.321057 
L 226.950992 -294.614535 
L 223.671653 -294.607044 
L 220.392314 -294.822601 
L 217.112975 -294.893088 
L 213.833636 -295.075442 
L 210.554298 -295.329456 
L 207.274959 -295.130751 
L 203.99562 -295.145109 
L 200.716281 -294.709727 
L 197.436942 -294.274306 
L 194.157603 -294.470835 
L 190.878264 -294.284576 
L 187.598926 -294.522488 
L 184.319587 -294.350991 
L 181.040248 -294.145445 
L 177.760909 -293.824986 
L 174.48157 -293.742431 
L 171.202231 -293.867705 
L 167.922893 -293.314591 
L 164.643554 -293.439657 
L 161.364215 -293.05975 
L 158.084876 -293.836182 
L 154.805537 -293.547803 
L 151.526198 -292.952978 
L 148.24686 -292.874517 
L 144.967521 -292.947993 
L 141.688182 -292.570496 
L 138.408843 -292.466722 
L 135.129504 -292.014182 
L 131.850165 -291.181136 
L 128.570826 -291.122369 
L 125.291488 -291.921409 
L 122.012149 -290.964125 
L 118.73281 -290.78788 
L 115.453471 -290.817266 
L 112.174132 -291.067063 
L 108.894793 -289.550859 
L 105.615455 -287.775391 
L 102.336116 -289.297684 
L 99.056777 -289.091382 
L 95.777438 -281.455717 
L 92.498099 -274.586487 
L 89.21876 -274.359531 
L 85.939421 -264.381613 
L 82.660083 -249.83935 
L 79.380744 -222.239804 
L 76.101405 -188.412759 
L 72.822066 -174.844425 
L 69.542727 -129.080183 
z
" style="stroke: #4c72b0; stroke-opacity: 0.2"/>
    </defs>
    <g clip-path="url(#pe2918d9a46)">
     <use xlink:href="#m8c1fbd5497" x="0" y="316.271687" style="fill: #4c72b0; fill-opacity: 0.2; stroke: #4c72b0; stroke-opacity: 0.2"/>
    </g>
   </g>
   <g id="PolyCollection_2">
    <defs>
     <path id="mf0c4c1278f" d="M 69.542727 -96.66822 
L 69.542727 -64.473347 
L 72.822066 -70.900382 
L 76.101405 -68.632864 
L 79.380744 -132.628187 
L 82.660083 -175.592455 
L 85.939421 -183.242957 
L 89.21876 -211.02841 
L 92.498099 -195.33325 
L 95.777438 -210.076372 
L 99.056777 -255.275083 
L 102.336116 -221.372305 
L 105.615455 -212.042837 
L 108.894793 -232.050917 
L 112.174132 -252.520326 
L 115.453471 -247.299522 
L 118.73281 -238.610311 
L 122.012149 -245.883019 
L 125.291488 -258.06199 
L 128.570826 -233.209938 
L 131.850165 -229.53529 
L 135.129504 -239.800752 
L 138.408843 -243.72387 
L 141.688182 -253.151802 
L 144.967521 -242.589291 
L 148.24686 -240.568817 
L 151.526198 -237.736306 
L 154.805537 -247.905454 
L 158.084876 -247.795026 
L 161.364215 -241.659868 
L 164.643554 -243.793683 
L 167.922893 -236.765638 
L 171.202231 -249.790444 
L 174.48157 -253.009287 
L 177.760909 -254.293064 
L 181.040248 -262.332575 
L 184.319587 -272.279377 
L 187.598926 -265.317159 
L 190.878264 -268.499818 
L 194.157603 -256.012726 
L 197.436942 -250.905227 
L 200.716281 -268.69238 
L 203.99562 -273.561241 
L 207.274959 -265.989141 
L 210.554298 -273.524231 
L 213.833636 -277.245719 
L 217.112975 -254.33135 
L 220.392314 -276.513889 
L 223.671653 -252.906251 
L 226.950992 -249.288195 
L 230.230331 -262.272872 
L 233.509669 -265.045308 
L 236.789008 -271.57133 
L 240.068347 -254.688822 
L 243.347686 -275.316952 
L 246.627025 -280.999346 
L 249.906364 -276.024913 
L 253.185702 -261.566412 
L 256.465041 -252.923963 
L 259.74438 -256.164406 
L 263.023719 -268.086067 
L 266.303058 -268.621822 
L 269.582397 -262.651811 
L 272.861736 -281.015538 
L 276.141074 -273.434619 
L 279.420413 -279.026161 
L 282.699752 -280.555794 
L 285.979091 -270.869808 
L 289.25843 -278.189669 
L 292.537769 -258.902914 
L 295.817107 -271.796713 
L 299.096446 -258.923675 
L 302.375785 -256.273812 
L 305.655124 -262.116126 
L 308.934463 -252.662336 
L 312.213802 -280.966853 
L 315.49314 -273.307444 
L 318.772479 -261.721082 
L 322.051818 -276.723752 
L 325.331157 -285.447228 
L 328.610496 -279.622804 
L 331.889835 -284.542623 
L 335.169174 -270.423728 
L 338.448512 -264.42857 
L 341.727851 -254.827863 
L 345.00719 -281.879511 
L 348.286529 -273.790622 
L 351.565868 -283.670588 
L 354.845207 -279.721699 
L 358.124545 -281.472829 
L 361.403884 -278.816492 
L 364.683223 -276.885263 
L 367.962562 -286.824136 
L 371.241901 -278.844751 
L 374.52124 -288.032401 
L 377.800579 -282.889989 
L 381.079917 -275.867486 
L 384.359256 -283.344066 
L 387.638595 -282.385837 
L 390.917934 -276.784768 
L 394.197273 -282.698673 
L 394.197273 -288.777974 
L 394.197273 -288.777974 
L 390.917934 -286.635168 
L 387.638595 -286.962496 
L 384.359256 -287.663848 
L 381.079917 -286.85084 
L 377.800579 -287.715429 
L 374.52124 -290.876943 
L 371.241901 -286.941864 
L 367.962562 -290.293877 
L 364.683223 -286.650932 
L 361.403884 -287.203517 
L 358.124545 -288.332942 
L 354.845207 -287.608027 
L 351.565868 -288.956626 
L 348.286529 -284.298465 
L 345.00719 -288.449974 
L 341.727851 -275.49675 
L 338.448512 -279.686459 
L 335.169174 -284.163083 
L 331.889835 -289.215242 
L 328.610496 -286.258929 
L 325.331157 -288.446267 
L 322.051818 -284.91809 
L 318.772479 -279.87517 
L 315.49314 -281.660819 
L 312.213802 -287.160367 
L 308.934463 -275.957383 
L 305.655124 -281.293152 
L 302.375785 -278.198894 
L 299.096446 -278.723175 
L 295.817107 -282.942122 
L 292.537769 -279.653668 
L 289.25843 -283.330394 
L 285.979091 -278.154379 
L 282.699752 -285.577269 
L 279.420413 -286.295615 
L 276.141074 -282.221622 
L 272.861736 -286.736921 
L 269.582397 -280.691831 
L 266.303058 -282.401311 
L 263.023719 -281.42679 
L 259.74438 -278.529845 
L 256.465041 -275.873735 
L 253.185702 -281.504018 
L 249.906364 -282.727119 
L 246.627025 -287.040556 
L 243.347686 -281.110119 
L 240.068347 -274.990587 
L 236.789008 -281.112581 
L 233.509669 -277.305006 
L 230.230331 -278.091031 
L 226.950992 -270.434272 
L 223.671653 -272.407766 
L 220.392314 -283.879275 
L 217.112975 -276.915097 
L 213.833636 -282.925797 
L 210.554298 -283.246474 
L 207.274959 -279.693695 
L 203.99562 -280.769318 
L 200.716281 -279.20855 
L 197.436942 -272.765008 
L 194.157603 -275.94396 
L 190.878264 -278.419922 
L 187.598926 -277.193944 
L 184.319587 -279.39048 
L 181.040248 -276.069162 
L 177.760909 -267.135271 
L 174.48157 -271.662809 
L 171.202231 -273.978256 
L 167.922893 -261.819778 
L 164.643554 -267.57898 
L 161.364215 -266.065988 
L 158.084876 -269.805624 
L 154.805537 -271.497626 
L 151.526198 -264.144687 
L 148.24686 -264.516488 
L 144.967521 -267.117505 
L 141.688182 -267.595916 
L 138.408843 -260.683306 
L 135.129504 -263.960398 
L 131.850165 -254.164957 
L 128.570826 -259.173324 
L 125.291488 -270.510841 
L 122.012149 -260.97894 
L 118.73281 -251.11601 
L 115.453471 -264.871579 
L 112.174132 -268.959733 
L 108.894793 -255.628725 
L 105.615455 -236.386321 
L 102.336116 -245.933118 
L 99.056777 -263.975557 
L 95.777438 -238.811176 
L 92.498099 -226.294039 
L 89.21876 -236.909028 
L 85.939421 -211.659411 
L 82.660083 -208.902299 
L 79.380744 -168.584864 
L 76.101405 -95.698339 
L 72.822066 -104.904156 
L 69.542727 -96.66822 
z
" style="stroke: #dd8452; stroke-opacity: 0.2"/>
    </defs>
    <g clip-path="url(#pe2918d9a46)">
     <use xlink:href="#mf0c4c1278f" x="0" y="316.271687" style="fill: #dd8452; fill-opacity: 0.2; stroke: #dd8452; stroke-opacity: 0.2"/>
    </g>
   </g>
   <g id="PolyCollection_3">
    <defs>
     <path id="m54cd47ac7d" d="M 69.542727 -96.42191 
L 69.542727 -65.091264 
L 72.822066 -71.153763 
L 76.101405 -102.814334 
L 79.380744 -71.943059 
L 82.660083 -75.828998 
L 85.939421 -70.011078 
L 89.21876 -57.078177 
L 92.498099 -56.745898 
L 95.777438 -56.704826 
L 99.056777 -55.880128 
L 102.336116 -56.049222 
L 105.615455 -56.406936 
L 108.894793 -57.022435 
L 112.174132 -55.828172 
L 115.453471 -56.492846 
L 118.73281 -55.718517 
L 122.012149 -56.677437 
L 125.291488 -55.613521 
L 128.570826 -56.444086 
L 131.850165 -56.575291 
L 135.129504 -56.107026 
L 138.408843 -56.108275 
L 141.688182 -55.723148 
L 144.967521 -55.465448 
L 148.24686 -56.280586 
L 151.526198 -56.322937 
L 154.805537 -56.955661 
L 158.084876 -55.90259 
L 161.364215 -55.928358 
L 164.643554 -56.046331 
L 167.922893 -56.192269 
L 171.202231 -55.558419 
L 174.48157 -55.708862 
L 177.760909 -56.254111 
L 181.040248 -56.757222 
L 184.319587 -55.460575 
L 187.598926 -55.902713 
L 190.878264 -57.526463 
L 194.157603 -55.922137 
L 197.436942 -56.402584 
L 200.716281 -56.014853 
L 203.99562 -55.992166 
L 207.274959 -56.50834 
L 210.554298 -56.271774 
L 213.833636 -56.257511 
L 217.112975 -56.810237 
L 220.392314 -56.726161 
L 223.671653 -56.620091 
L 226.950992 -56.325074 
L 230.230331 -55.630902 
L 233.509669 -55.64679 
L 236.789008 -56.409121 
L 240.068347 -55.055687 
L 243.347686 -56.161436 
L 246.627025 -55.476598 
L 249.906364 -55.559591 
L 253.185702 -56.841927 
L 256.465041 -56.190607 
L 259.74438 -55.925057 
L 263.023719 -56.198472 
L 266.303058 -56.305108 
L 269.582397 -55.304655 
L 272.861736 -56.522633 
L 276.141074 -56.336599 
L 279.420413 -56.696473 
L 282.699752 -56.338057 
L 285.979091 -55.642373 
L 289.25843 -55.962558 
L 292.537769 -56.630819 
L 295.817107 -55.691142 
L 299.096446 -55.734885 
L 302.375785 -55.538498 
L 305.655124 -55.943312 
L 308.934463 -55.999946 
L 312.213802 -56.35502 
L 315.49314 -56.213648 
L 318.772479 -55.93045 
L 322.051818 -55.893872 
L 325.331157 -56.815014 
L 328.610496 -56.988097 
L 331.889835 -56.018601 
L 335.169174 -55.622307 
L 338.448512 -56.107488 
L 341.727851 -55.566171 
L 345.00719 -55.780786 
L 348.286529 -55.193501 
L 351.565868 -56.505533 
L 354.845207 -56.179683 
L 358.124545 -56.557404 
L 361.403884 -56.075262 
L 364.683223 -56.994955 
L 367.962562 -56.731181 
L 371.241901 -56.462167 
L 374.52124 -56.436129 
L 377.800579 -56.077121 
L 381.079917 -55.801968 
L 384.359256 -56.807507 
L 387.638595 -55.892653 
L 390.917934 -55.843128 
L 394.197273 -56.464786 
L 394.197273 -85.07921 
L 394.197273 -85.07921 
L 390.917934 -84.528676 
L 387.638595 -87.390706 
L 384.359256 -85.922777 
L 381.079917 -86.698885 
L 377.800579 -86.584495 
L 374.52124 -87.308404 
L 371.241901 -85.806676 
L 367.962562 -86.49481 
L 364.683223 -86.668809 
L 361.403884 -86.284001 
L 358.124545 -86.321271 
L 354.845207 -85.023866 
L 351.565868 -85.419726 
L 348.286529 -84.103516 
L 345.00719 -86.813668 
L 341.727851 -86.108445 
L 338.448512 -85.48494 
L 335.169174 -85.475429 
L 331.889835 -84.761639 
L 328.610496 -85.596242 
L 325.331157 -86.837725 
L 322.051818 -85.275968 
L 318.772479 -85.805311 
L 315.49314 -86.544486 
L 312.213802 -86.251071 
L 308.934463 -85.560806 
L 305.655124 -85.250783 
L 302.375785 -86.184243 
L 299.096446 -85.83451 
L 295.817107 -85.516456 
L 292.537769 -85.641396 
L 289.25843 -85.273033 
L 285.979091 -86.008046 
L 282.699752 -85.576879 
L 279.420413 -86.196661 
L 276.141074 -85.916436 
L 272.861736 -85.46517 
L 269.582397 -84.863657 
L 266.303058 -85.604857 
L 263.023719 -86.027749 
L 259.74438 -86.845827 
L 256.465041 -85.110406 
L 253.185702 -86.372611 
L 249.906364 -84.420353 
L 246.627025 -87.115429 
L 243.347686 -86.173728 
L 240.068347 -85.291704 
L 236.789008 -85.299175 
L 233.509669 -85.173746 
L 230.230331 -86.396331 
L 226.950992 -85.963695 
L 223.671653 -86.239906 
L 220.392314 -86.783075 
L 217.112975 -85.332347 
L 213.833636 -85.049165 
L 210.554298 -84.571371 
L 207.274959 -85.356165 
L 203.99562 -84.418116 
L 200.716281 -86.508982 
L 197.436942 -85.89458 
L 194.157603 -85.46391 
L 190.878264 -86.651637 
L 187.598926 -87.047329 
L 184.319587 -86.425448 
L 181.040248 -86.532602 
L 177.760909 -85.691469 
L 174.48157 -85.504345 
L 171.202231 -85.347715 
L 167.922893 -85.416962 
L 164.643554 -85.516764 
L 161.364215 -85.328275 
L 158.084876 -83.917397 
L 154.805537 -86.280868 
L 151.526198 -86.055584 
L 148.24686 -85.618614 
L 144.967521 -84.600247 
L 141.688182 -85.613701 
L 138.408843 -85.892798 
L 135.129504 -83.706341 
L 131.850165 -85.369577 
L 128.570826 -85.67199 
L 125.291488 -85.310503 
L 122.012149 -84.709998 
L 118.73281 -85.688326 
L 115.453471 -85.943749 
L 112.174132 -86.505064 
L 108.894793 -85.839422 
L 105.615455 -85.536881 
L 102.336116 -85.227367 
L 99.056777 -85.889094 
L 95.777438 -85.724924 
L 92.498099 -86.446967 
L 89.21876 -86.632054 
L 85.939421 -85.354558 
L 82.660083 -88.880329 
L 79.380744 -88.951872 
L 76.101405 -137.242345 
L 72.822066 -102.069646 
L 69.542727 -96.42191 
z
" style="stroke: #55a868; stroke-opacity: 0.2"/>
    </defs>
    <g clip-path="url(#pe2918d9a46)">
     <use xlink:href="#m54cd47ac7d" x="0" y="316.271687" style="fill: #55a868; fill-opacity: 0.2; stroke: #55a868; stroke-opacity: 0.2"/>
    </g>
   </g>
   <g id="PolyCollection_4">
    <defs>
     <path id="m47aa9bc7bd" d="M 69.542727 -115.597274 
L 69.542727 -73.438306 
L 72.822066 -90.596067 
L 76.101405 -110.962012 
L 79.380744 -125.962078 
L 82.660083 -146.862957 
L 85.939421 -166.686588 
L 89.21876 -167.006134 
L 92.498099 -187.966017 
L 95.777438 -196.677048 
L 99.056777 -209.508813 
L 102.336116 -216.427288 
L 105.615455 -225.08405 
L 108.894793 -231.702402 
L 112.174132 -234.005567 
L 115.453471 -237.982055 
L 118.73281 -240.074523 
L 122.012149 -242.525925 
L 125.291488 -243.574734 
L 128.570826 -242.343348 
L 131.850165 -244.618001 
L 135.129504 -247.511643 
L 138.408843 -249.089039 
L 141.688182 -250.153505 
L 144.967521 -252.869099 
L 148.24686 -251.873321 
L 151.526198 -253.69786 
L 154.805537 -253.588174 
L 158.084876 -254.199206 
L 161.364215 -255.483613 
L 164.643554 -257.26865 
L 167.922893 -257.483871 
L 171.202231 -259.125631 
L 174.48157 -260.187416 
L 177.760909 -259.486246 
L 181.040248 -261.770255 
L 184.319587 -262.660395 
L 187.598926 -261.380381 
L 190.878264 -263.290634 
L 194.157603 -264.908644 
L 197.436942 -264.907638 
L 200.716281 -264.999951 
L 203.99562 -264.30323 
L 207.274959 -263.550573 
L 210.554298 -260.980293 
L 213.833636 -265.802943 
L 217.112975 -266.28179 
L 220.392314 -265.750769 
L 223.671653 -265.019715 
L 226.950992 -266.322602 
L 230.230331 -266.386463 
L 233.509669 -267.58767 
L 236.789008 -268.312303 
L 240.068347 -268.755829 
L 243.347686 -269.9919 
L 246.627025 -270.630369 
L 249.906364 -270.312261 
L 253.185702 -270.49567 
L 256.465041 -270.600395 
L 259.74438 -268.471672 
L 263.023719 -270.26636 
L 266.303058 -270.310571 
L 269.582397 -271.868179 
L 272.861736 -271.718062 
L 276.141074 -272.634392 
L 279.420413 -273.027118 
L 282.699752 -273.389611 
L 285.979091 -273.138618 
L 289.25843 -273.100793 
L 292.537769 -274.686936 
L 295.817107 -273.871753 
L 299.096446 -273.614428 
L 302.375785 -274.205021 
L 305.655124 -274.544403 
L 308.934463 -274.675474 
L 312.213802 -274.234874 
L 315.49314 -274.255782 
L 318.772479 -280.727613 
L 322.051818 -276.447805 
L 325.331157 -275.998935 
L 328.610496 -276.319573 
L 331.889835 -276.095254 
L 335.169174 -276.804766 
L 338.448512 -277.904423 
L 341.727851 -277.472074 
L 345.00719 -278.306441 
L 348.286529 -277.710628 
L 351.565868 -277.709841 
L 354.845207 -278.208867 
L 358.124545 -281.660936 
L 361.403884 -281.625139 
L 364.683223 -282.225341 
L 367.962562 -282.573101 
L 371.241901 -282.26791 
L 374.52124 -282.29526 
L 377.800579 -282.274891 
L 381.079917 -282.63577 
L 384.359256 -281.688697 
L 387.638595 -281.458812 
L 390.917934 -280.462201 
L 394.197273 -282.29367 
L 394.197273 -293.606968 
L 394.197273 -293.606968 
L 390.917934 -293.436557 
L 387.638595 -293.178254 
L 384.359256 -293.662689 
L 381.079917 -293.1817 
L 377.800579 -293.965292 
L 374.52124 -293.316527 
L 371.241901 -293.618936 
L 367.962562 -293.946041 
L 364.683223 -293.594466 
L 361.403884 -293.439555 
L 358.124545 -293.735451 
L 354.845207 -293.591659 
L 351.565868 -293.394861 
L 348.286529 -293.461467 
L 345.00719 -293.192683 
L 341.727851 -293.098509 
L 338.448512 -292.969405 
L 335.169174 -292.834803 
L 331.889835 -292.676916 
L 328.610496 -292.459615 
L 325.331157 -292.366953 
L 322.051818 -292.641121 
L 318.772479 -292.431668 
L 315.49314 -292.553199 
L 312.213802 -292.648885 
L 308.934463 -292.614948 
L 305.655124 -292.188516 
L 302.375785 -292.378438 
L 299.096446 -292.095901 
L 295.817107 -292.077026 
L 292.537769 -291.792358 
L 289.25843 -291.802383 
L 285.979091 -291.896776 
L 282.699752 -291.926268 
L 279.420413 -291.653115 
L 276.141074 -291.732472 
L 272.861736 -291.591119 
L 269.582397 -291.216923 
L 266.303058 -291.293731 
L 263.023719 -290.735014 
L 259.74438 -290.929826 
L 256.465041 -290.408044 
L 253.185702 -290.110088 
L 249.906364 -290.291687 
L 246.627025 -290.214806 
L 243.347686 -290.08316 
L 240.068347 -289.707681 
L 236.789008 -289.247946 
L 233.509669 -288.679602 
L 230.230331 -288.750048 
L 226.950992 -288.47167 
L 223.671653 -287.548406 
L 220.392314 -287.716611 
L 217.112975 -287.57396 
L 213.833636 -287.438322 
L 210.554298 -286.402737 
L 207.274959 -286.770763 
L 203.99562 -287.027434 
L 200.716281 -287.078695 
L 197.436942 -286.392274 
L 194.157603 -286.819866 
L 190.878264 -285.774019 
L 187.598926 -285.21821 
L 184.319587 -285.409468 
L 181.040248 -285.413767 
L 177.760909 -284.998289 
L 174.48157 -283.905906 
L 171.202231 -283.220261 
L 167.922893 -282.05764 
L 164.643554 -282.354981 
L 161.364215 -281.971479 
L 158.084876 -281.458132 
L 154.805537 -281.40977 
L 151.526198 -279.873112 
L 148.24686 -280.579493 
L 144.967521 -278.702564 
L 141.688182 -278.917428 
L 138.408843 -276.955019 
L 135.129504 -276.164618 
L 131.850165 -275.557124 
L 128.570826 -273.189358 
L 125.291488 -273.158408 
L 122.012149 -272.49716 
L 118.73281 -270.73241 
L 115.453471 -270.994894 
L 112.174132 -267.274858 
L 108.894793 -266.378354 
L 105.615455 -260.448928 
L 102.336116 -256.838575 
L 99.056777 -252.544579 
L 95.777438 -241.88009 
L 92.498099 -233.958792 
L 89.21876 -218.437844 
L 85.939421 -216.268901 
L 82.660083 -197.927798 
L 79.380744 -178.314707 
L 76.101405 -161.040332 
L 72.822066 -137.08145 
L 69.542727 -115.597274 
z
" style="stroke: #c44e52; stroke-opacity: 0.2"/>
    </defs>
    <g clip-path="url(#pe2918d9a46)">
     <use xlink:href="#m47aa9bc7bd" x="0" y="316.271687" style="fill: #c44e52; fill-opacity: 0.2; stroke: #c44e52; stroke-opacity: 0.2"/>
    </g>
   </g>
   <g id="PolyCollection_5">
    <defs>
     <path id="me672dd040a" d="M 69.542727 -112.10193 
L 69.542727 -76.088334 
L 72.822066 -89.667234 
L 76.101405 -102.218006 
L 79.380744 -107.539888 
L 82.660083 -128.191752 
L 85.939421 -117.046104 
L 89.21876 -137.169841 
L 92.498099 -141.416874 
L 95.777438 -137.727171 
L 99.056777 -147.84426 
L 102.336116 -157.273386 
L 105.615455 -169.938746 
L 108.894793 -180.910437 
L 112.174132 -193.606959 
L 115.453471 -203.568582 
L 118.73281 -214.489884 
L 122.012149 -216.273145 
L 125.291488 -219.906244 
L 128.570826 -223.231934 
L 131.850165 -229.714533 
L 135.129504 -232.989253 
L 138.408843 -235.620771 
L 141.688182 -246.258945 
L 144.967521 -247.006233 
L 148.24686 -249.104367 
L 151.526198 -254.124836 
L 154.805537 -254.946249 
L 158.084876 -254.41742 
L 161.364215 -256.24174 
L 164.643554 -258.25888 
L 167.922893 -258.288409 
L 171.202231 -260.041592 
L 174.48157 -260.635137 
L 177.760909 -262.001052 
L 181.040248 -264.8585 
L 184.319587 -263.228606 
L 187.598926 -265.534985 
L 190.878264 -265.569157 
L 194.157603 -267.772532 
L 197.436942 -270.315293 
L 200.716281 -270.699293 
L 203.99562 -271.503654 
L 207.274959 -271.540046 
L 210.554298 -273.88653 
L 213.833636 -276.133516 
L 217.112975 -275.824265 
L 220.392314 -278.160081 
L 223.671653 -278.577192 
L 226.950992 -277.942939 
L 230.230331 -278.264018 
L 233.509669 -279.763087 
L 236.789008 -280.082266 
L 240.068347 -280.823189 
L 243.347686 -281.823362 
L 246.627025 -280.456463 
L 249.906364 -281.935243 
L 253.185702 -282.369323 
L 256.465041 -282.563486 
L 259.74438 -283.895017 
L 263.023719 -285.458081 
L 266.303058 -285.390043 
L 269.582397 -285.391824 
L 272.861736 -284.8202 
L 276.141074 -284.630713 
L 279.420413 -285.61316 
L 282.699752 -285.602002 
L 285.979091 -285.83198 
L 289.25843 -284.979626 
L 292.537769 -284.52633 
L 295.817107 -284.749963 
L 299.096446 -285.205303 
L 302.375785 -285.735031 
L 305.655124 -286.080142 
L 308.934463 -286.022717 
L 312.213802 -285.854897 
L 315.49314 -285.727523 
L 318.772479 -287.288486 
L 322.051818 -288.189554 
L 325.331157 -288.790305 
L 328.610496 -288.053699 
L 331.889835 -287.943989 
L 335.169174 -288.88061 
L 338.448512 -288.915541 
L 341.727851 -288.781817 
L 345.00719 -288.93334 
L 348.286529 -289.103353 
L 351.565868 -289.254011 
L 354.845207 -288.942446 
L 358.124545 -289.710036 
L 361.403884 -289.946671 
L 364.683223 -289.804949 
L 367.962562 -290.185481 
L 371.241901 -290.256558 
L 374.52124 -290.607358 
L 377.800579 -290.942857 
L 381.079917 -290.898711 
L 384.359256 -290.388699 
L 387.638595 -290.38267 
L 390.917934 -290.220818 
L 394.197273 -290.087677 
L 394.197273 -295.119542 
L 394.197273 -295.119542 
L 390.917934 -295.084773 
L 387.638595 -295.050385 
L 384.359256 -295.086874 
L 381.079917 -294.957938 
L 377.800579 -294.993946 
L 374.52124 -294.941534 
L 371.241901 -294.77334 
L 367.962562 -294.638195 
L 364.683223 -294.854056 
L 361.403884 -294.718767 
L 358.124545 -294.498603 
L 354.845207 -294.51014 
L 351.565868 -294.503671 
L 348.286529 -294.508653 
L 345.00719 -294.511472 
L 341.727851 -294.475798 
L 338.448512 -294.516223 
L 335.169174 -294.305583 
L 331.889835 -294.129954 
L 328.610496 -294.112964 
L 325.331157 -294.191359 
L 322.051818 -294.041947 
L 318.772479 -294.05406 
L 315.49314 -293.765633 
L 312.213802 -293.877942 
L 308.934463 -293.817054 
L 305.655124 -293.883805 
L 302.375785 -293.525474 
L 299.096446 -293.651335 
L 295.817107 -293.700092 
L 292.537769 -293.561266 
L 289.25843 -293.541413 
L 285.979091 -293.55558 
L 282.699752 -293.572188 
L 279.420413 -293.341186 
L 276.141074 -293.117107 
L 272.861736 -292.998296 
L 269.582397 -292.776244 
L 266.303058 -292.974047 
L 263.023719 -292.568327 
L 259.74438 -292.431371 
L 256.465041 -292.16404 
L 253.185702 -291.750325 
L 249.906364 -291.749911 
L 246.627025 -291.542914 
L 243.347686 -291.384095 
L 240.068347 -291.051122 
L 236.789008 -290.675788 
L 233.509669 -290.606857 
L 230.230331 -290.406809 
L 226.950992 -290.04194 
L 223.671653 -289.736584 
L 220.392314 -289.378347 
L 217.112975 -289.173968 
L 213.833636 -289.313758 
L 210.554298 -288.49778 
L 207.274959 -287.492265 
L 203.99562 -286.980733 
L 200.716281 -286.486015 
L 197.436942 -286.544842 
L 194.157603 -285.466891 
L 190.878264 -284.337466 
L 187.598926 -284.376199 
L 184.319587 -283.937829 
L 181.040248 -283.662852 
L 177.760909 -282.869261 
L 174.48157 -282.445071 
L 171.202231 -281.503968 
L 167.922893 -280.800161 
L 164.643554 -279.832919 
L 161.364215 -278.58327 
L 158.084876 -277.130486 
L 154.805537 -276.052548 
L 151.526198 -277.020713 
L 148.24686 -272.49094 
L 144.967521 -269.680124 
L 141.688182 -269.220366 
L 138.408843 -266.367281 
L 135.129504 -263.55565 
L 131.850165 -261.501212 
L 128.570826 -256.939746 
L 125.291488 -253.564772 
L 122.012149 -250.077906 
L 118.73281 -248.826576 
L 115.453471 -238.795157 
L 112.174132 -231.041418 
L 108.894793 -217.954691 
L 105.615455 -208.727336 
L 102.336116 -194.069668 
L 99.056777 -188.177039 
L 95.777438 -179.861751 
L 92.498099 -185.064565 
L 89.21876 -177.819894 
L 85.939421 -156.037424 
L 82.660083 -164.166946 
L 79.380744 -148.005503 
L 76.101405 -143.703435 
L 72.822066 -129.571741 
L 69.542727 -112.10193 
z
" style="stroke: #8172b3; stroke-opacity: 0.2"/>
    </defs>
    <g clip-path="url(#pe2918d9a46)">
     <use xlink:href="#me672dd040a" x="0" y="316.271687" style="fill: #8172b3; fill-opacity: 0.2; stroke: #8172b3; stroke-opacity: 0.2"/>
    </g>
   </g>
   <g id="line2d_13">
    <path d="M 69.542727 211.048622 
L 72.822066 168.135812 
L 76.101405 153.948033 
L 79.380744 114.92082 
L 82.660083 81.474255 
L 85.939421 65.176188 
L 89.21876 52.935751 
L 92.498099 53.620492 
L 95.777438 46.602723 
L 99.056777 30.256936 
L 102.336116 31.265476 
L 105.615455 33.680673 
L 108.894793 32.649549 
L 112.174132 28.371887 
L 115.453471 28.787372 
L 118.73281 29.679508 
L 122.012149 28.933928 
L 125.291488 27.214697 
L 128.570826 28.830838 
L 131.850165 29.494187 
L 135.129504 27.875412 
L 138.408843 27.571033 
L 141.688182 26.018865 
L 144.967521 25.96514 
L 148.24686 25.972627 
L 151.526198 25.389632 
L 154.805537 26.657907 
L 158.084876 26.454036 
L 161.364215 26.916252 
L 164.643554 25.886993 
L 167.922893 26.632349 
L 171.202231 25.580551 
L 174.48157 25.562582 
L 177.760909 25.11916 
L 181.040248 25.104007 
L 184.319587 24.00014 
L 187.598926 23.715997 
L 190.878264 23.832059 
L 194.157603 25.460888 
L 197.436942 24.969384 
L 200.716281 23.514504 
L 203.99562 23.093859 
L 207.274959 23.037063 
L 210.554298 23.185407 
L 213.833636 25.372584 
L 217.112975 25.168636 
L 220.392314 24.439487 
L 223.671653 24.021124 
L 226.950992 23.750061 
L 230.230331 22.600201 
L 233.509669 22.244639 
L 236.789008 22.085981 
L 240.068347 21.92956 
L 243.347686 21.736414 
L 246.627025 21.873309 
L 249.906364 21.922959 
L 253.185702 21.959748 
L 256.465041 22.183132 
L 259.74438 22.464861 
L 263.023719 21.501784 
L 266.303058 21.489968 
L 269.582397 21.66714 
L 272.861736 22.21219 
L 276.141074 22.174565 
L 279.420413 21.995676 
L 282.699752 22.333192 
L 285.979091 22.294549 
L 289.25843 22.172991 
L 292.537769 22.185434 
L 295.817107 21.833927 
L 299.096446 22.335092 
L 302.375785 22.258916 
L 305.655124 22.149648 
L 308.934463 22.211502 
L 312.213802 21.935208 
L 315.49314 21.944575 
L 318.772479 21.586043 
L 322.051818 21.301437 
L 325.331157 21.363163 
L 328.610496 21.298997 
L 331.889835 21.104065 
L 335.169174 21.226875 
L 338.448512 21.062666 
L 341.727851 20.821236 
L 345.00719 20.720586 
L 348.286529 20.776256 
L 351.565868 21.377078 
L 354.845207 21.390041 
L 358.124545 21.579575 
L 361.403884 21.576127 
L 364.683223 21.511843 
L 367.962562 21.72497 
L 371.241901 21.705447 
L 374.52124 21.133336 
L 377.800579 21.123083 
L 381.079917 21.023167 
L 384.359256 20.824215 
L 387.638595 20.705561 
L 390.917934 20.055939 
L 394.197273 20.120477 
" clip-path="url(#pe2918d9a46)" style="fill: none; stroke: #4c72b0; stroke-width: 1.5; stroke-linecap: round"/>
   </g>
   <g id="line2d_14">
    <path d="M 69.542727 235.746676 
L 72.822066 228.863698 
L 76.101405 235.108342 
L 79.380744 165.558489 
L 82.660083 124.66698 
L 85.939421 119.190312 
L 89.21876 92.034328 
L 92.498099 104.52545 
L 95.777438 91.538353 
L 99.056777 56.706554 
L 102.336116 81.74951 
L 105.615455 91.115936 
L 108.894793 71.562514 
L 112.174132 55.034034 
L 115.453471 59.626548 
L 118.73281 71.309792 
L 122.012149 62.203631 
L 125.291488 51.640924 
L 128.570826 69.979551 
L 131.850165 73.985529 
L 135.129504 63.69527 
L 138.408843 63.386817 
L 141.688182 55.717272 
L 144.967521 60.993894 
L 148.24686 62.222115 
L 151.526198 64.24577 
L 154.805537 54.992595 
L 158.084876 56.521273 
L 161.364215 61.576685 
L 164.643554 60.064423 
L 167.922893 65.479462 
L 171.202231 53.803674 
L 174.48157 53.013746 
L 177.760909 55.125827 
L 181.040248 46.562256 
L 184.319587 40.528767 
L 187.598926 44.962138 
L 190.878264 42.64585 
L 194.157603 49.581555 
L 197.436942 53.683333 
L 200.716281 41.952191 
L 203.99562 38.942249 
L 207.274959 42.522626 
L 210.554298 37.484832 
L 213.833636 36.124917 
L 217.112975 49.851095 
L 220.392314 35.875006 
L 223.671653 52.455087 
L 226.950992 55.419897 
L 230.230331 45.772093 
L 233.509669 44.973736 
L 236.789008 39.755978 
L 240.068347 50.817609 
L 243.347686 37.873439 
L 246.627025 32.300227 
L 249.906364 36.771172 
L 253.185702 44.075717 
L 256.465041 51.187784 
L 259.74438 47.757798 
L 263.023719 41.077285 
L 266.303058 40.226915 
L 269.582397 43.597446 
L 272.861736 32.309114 
L 276.141074 38.466973 
L 279.420413 33.29561 
L 282.699752 33.383802 
L 285.979091 41.771953 
L 289.25843 35.337357 
L 292.537769 46.006663 
L 295.817107 38.352179 
L 299.096446 45.959636 
L 302.375785 48.216093 
L 305.655124 43.411594 
L 308.934463 51.82344 
L 312.213802 31.94607 
L 315.49314 38.580789 
L 318.772479 44.707511 
L 322.051818 35.252319 
L 325.331157 29.280113 
L 328.610496 33.267363 
L 331.889835 29.336181 
L 335.169174 38.177787 
L 338.448512 43.493266 
L 341.727851 50.666469 
L 345.00719 30.71163 
L 348.286529 36.915268 
L 351.565868 29.781207 
L 354.845207 32.118272 
L 358.124545 31.067381 
L 361.403884 33.067999 
L 364.683223 34.151986 
L 367.962562 27.597284 
L 371.241901 33.062345 
L 374.52124 26.770995 
L 377.800579 30.894802 
L 381.079917 34.18736 
L 384.359256 30.762946 
L 387.638595 31.656875 
L 390.917934 34.12274 
L 394.197273 30.23287 
" clip-path="url(#pe2918d9a46)" style="fill: none; stroke: #dd8452; stroke-width: 1.5; stroke-linecap: round"/>
   </g>
   <g id="line2d_15">
    <path d="M 69.542727 235.731519 
L 72.822066 230.734527 
L 76.101405 196.791233 
L 79.380744 236.435405 
L 82.660083 234.160449 
L 85.939421 239.044118 
L 89.21876 246.366424 
L 92.498099 246.440588 
L 95.777438 246.38284 
L 99.056777 246.466865 
L 102.336116 246.343677 
L 105.615455 246.424712 
L 108.894793 246.30595 
L 112.174132 246.395629 
L 115.453471 246.417388 
L 118.73281 246.322183 
L 122.012149 246.257752 
L 125.291488 246.456683 
L 128.570826 246.444057 
L 131.850165 246.377038 
L 135.129504 246.224951 
L 138.408843 246.457197 
L 141.688182 246.286422 
L 144.967521 246.317787 
L 148.24686 246.580217 
L 151.526198 246.411352 
L 154.805537 246.206192 
L 158.084876 246.345098 
L 161.364215 246.416018 
L 164.643554 246.213603 
L 167.922893 246.411098 
L 171.202231 246.45679 
L 174.48157 246.420362 
L 177.760909 246.429673 
L 181.040248 246.281467 
L 184.319587 246.470359 
L 187.598926 246.299589 
L 190.878264 246.462051 
L 194.157603 246.442681 
L 197.436942 246.347217 
L 200.716281 246.189852 
L 203.99562 246.550981 
L 207.274959 246.447933 
L 210.554298 246.410339 
L 213.833636 246.541711 
L 217.112975 246.367167 
L 220.392314 246.349162 
L 223.671653 246.309124 
L 226.950992 246.242452 
L 230.230331 246.381301 
L 233.509669 246.44588 
L 236.789008 246.714427 
L 240.068347 246.445162 
L 243.347686 246.450174 
L 246.627025 246.484208 
L 249.906364 246.260594 
L 253.185702 246.368105 
L 256.465041 246.491939 
L 259.74438 246.266849 
L 263.023719 246.446333 
L 266.303058 246.408485 
L 269.582397 246.394855 
L 272.861736 246.558565 
L 276.141074 246.391137 
L 279.420413 246.592253 
L 282.699752 246.391621 
L 285.979091 246.432663 
L 289.25843 246.440074 
L 292.537769 246.357577 
L 295.817107 246.37987 
L 299.096446 246.46145 
L 302.375785 246.509471 
L 305.655124 246.521521 
L 308.934463 246.335135 
L 312.213802 246.452293 
L 315.49314 246.421498 
L 318.772479 246.381958 
L 322.051818 246.358213 
L 325.331157 246.318215 
L 328.610496 246.460371 
L 331.889835 246.474673 
L 335.169174 246.537652 
L 338.448512 246.482282 
L 341.727851 246.417571 
L 345.00719 246.458756 
L 348.286529 246.42599 
L 351.565868 246.545175 
L 354.845207 246.448488 
L 358.124545 246.501072 
L 361.403884 246.49089 
L 364.683223 246.409116 
L 367.962562 246.272925 
L 371.241901 246.464527 
L 374.52124 246.338069 
L 377.800579 246.434338 
L 381.079917 246.36132 
L 384.359256 246.381485 
L 387.638595 246.319657 
L 390.917934 246.463462 
L 394.197273 246.536323 
" clip-path="url(#pe2918d9a46)" style="fill: none; stroke: #55a868; stroke-width: 1.5; stroke-linecap: round"/>
   </g>
   <g id="line2d_16">
    <path d="M 69.542727 223.454624 
L 72.822066 202.192861 
L 76.101405 180.23284 
L 79.380744 164.061196 
L 82.660083 145.091131 
L 85.939421 124.407596 
L 89.21876 123.076021 
L 92.498099 104.015839 
L 95.777438 95.954646 
L 99.056777 84.049556 
L 102.336116 78.960899 
L 105.615455 72.352727 
L 108.894793 66.122818 
L 112.174132 64.420192 
L 115.453471 61.089333 
L 118.73281 59.255145 
L 122.012149 57.548195 
L 125.291488 57.774324 
L 128.570826 58.235273 
L 131.850165 54.463925 
L 135.129504 52.849124 
L 138.408843 52.287271 
L 141.688182 50.127506 
L 144.967521 49.066866 
L 148.24686 48.15864 
L 151.526198 48.412442 
L 154.805537 47.948758 
L 158.084876 47.269982 
L 161.364215 46.591624 
L 164.643554 45.489341 
L 167.922893 45.459469 
L 171.202231 44.222568 
L 174.48157 43.456248 
L 177.760909 42.692291 
L 181.040248 41.407207 
L 184.319587 41.243864 
L 187.598926 41.107983 
L 190.878264 40.355888 
L 194.157603 39.537489 
L 197.436942 39.630177 
L 200.716281 38.931537 
L 203.99562 39.300281 
L 207.274959 39.734082 
L 210.554298 40.540416 
L 213.833636 38.587695 
L 217.112975 38.235414 
L 220.392314 38.497192 
L 223.671653 38.432032 
L 226.950992 37.638636 
L 230.230331 37.196747 
L 233.509669 36.505207 
L 236.789008 35.964379 
L 240.068347 35.641089 
L 243.347686 34.982916 
L 246.627025 34.804684 
L 249.906364 34.939612 
L 253.185702 34.67352 
L 256.465041 34.675624 
L 259.74438 34.510574 
L 263.023719 34.604964 
L 266.303058 34.115778 
L 269.582397 33.281665 
L 272.861736 33.257736 
L 276.141074 32.564235 
L 279.420413 32.173509 
L 282.699752 31.799835 
L 285.979091 31.825898 
L 289.25843 31.862728 
L 292.537769 31.655225 
L 295.817107 31.613582 
L 299.096446 31.475552 
L 302.375785 31.516945 
L 305.655124 31.211146 
L 308.934463 31.263256 
L 312.213802 30.996349 
L 315.49314 31.121314 
L 318.772479 28.859035 
L 322.051818 30.565767 
L 325.331157 30.57548 
L 328.610496 30.632072 
L 331.889835 30.610262 
L 335.169174 30.282459 
L 338.448512 29.71617 
L 341.727851 29.628549 
L 345.00719 29.19401 
L 348.286529 29.359921 
L 351.565868 29.354583 
L 354.845207 29.112547 
L 358.124545 27.802363 
L 361.403884 27.865663 
L 364.683223 27.683851 
L 367.962562 27.157341 
L 371.241901 27.474438 
L 374.52124 27.530078 
L 377.800579 27.12344 
L 381.079917 27.808623 
L 384.359256 27.684946 
L 387.638595 27.923111 
L 390.917934 28.363544 
L 394.197273 28.01936 
" clip-path="url(#pe2918d9a46)" style="fill: none; stroke: #c44e52; stroke-width: 1.5; stroke-linecap: round"/>
   </g>
   <g id="line2d_17">
    <path d="M 69.542727 223.246489 
L 72.822066 207.290823 
L 76.101405 193.622592 
L 79.380744 188.940859 
L 82.660083 170.871202 
L 85.939421 180.257604 
L 89.21876 158.808875 
L 92.498099 152.470426 
L 95.777438 157.113771 
L 99.056777 148.293195 
L 102.336116 140.075773 
L 105.615455 126.774258 
L 108.894793 117.296181 
L 112.174132 103.604072 
L 115.453471 94.406338 
L 118.73281 83.672505 
L 122.012149 82.171443 
L 125.291488 79.145711 
L 128.570826 75.175917 
L 131.850165 68.964374 
L 135.129504 66.807375 
L 138.408843 64.11453 
L 141.688182 58.072077 
L 144.967521 57.419832 
L 148.24686 54.583395 
L 151.526198 50.61415 
L 154.805537 50.231217 
L 158.084876 48.891482 
L 161.364215 47.79857 
L 164.643554 46.275627 
L 167.922893 45.240857 
L 171.202231 43.985743 
L 174.48157 43.438829 
L 177.760909 42.678391 
L 181.040248 41.01859 
L 184.319587 41.099243 
L 187.598926 40.092567 
L 190.878264 39.876502 
L 194.157603 38.278121 
L 197.436942 37.304237 
L 200.716281 36.631807 
L 203.99562 35.805248 
L 207.274959 35.372359 
L 210.554298 34.003989 
L 213.833636 32.98952 
L 217.112975 32.821302 
L 220.392314 32.020474 
L 223.671653 31.31394 
L 226.950992 31.220915 
L 230.230331 30.604965 
L 233.509669 30.489423 
L 236.789008 30.214325 
L 240.068347 29.682467 
L 243.347686 29.067598 
L 246.627025 29.036921 
L 249.906364 28.626116 
L 253.185702 28.448124 
L 256.465041 28.087173 
L 259.74438 27.395837 
L 263.023719 26.771917 
L 266.303058 26.656471 
L 269.582397 26.732627 
L 272.861736 26.731812 
L 276.141074 26.770496 
L 279.420413 26.150253 
L 282.699752 26.17272 
L 285.979091 25.988203 
L 289.25843 26.151282 
L 292.537769 26.295826 
L 295.817107 26.118654 
L 299.096446 26.000304 
L 302.375785 25.999658 
L 305.655124 25.68988 
L 308.934463 25.596493 
L 312.213802 25.663878 
L 315.49314 25.75429 
L 318.772479 25.141927 
L 322.051818 24.81365 
L 325.331157 24.410603 
L 328.610496 24.674001 
L 331.889835 24.738813 
L 335.169174 24.470277 
L 338.448512 24.093745 
L 341.727851 24.238626 
L 345.00719 24.21156 
L 348.286529 24.155105 
L 351.565868 24.044172 
L 354.845207 24.1251 
L 358.124545 23.861871 
L 361.403884 23.709202 
L 364.683223 23.708744 
L 367.962562 23.466728 
L 371.241901 23.493738 
L 374.52124 23.214485 
L 377.800579 23.172256 
L 381.079917 23.091649 
L 384.359256 23.135625 
L 387.638595 23.198838 
L 390.917934 23.248998 
L 394.197273 23.299702 
" clip-path="url(#pe2918d9a46)" style="fill: none; stroke: #8172b3; stroke-width: 1.5; stroke-linecap: round"/>
   </g>
   <g id="line2d_18"/>
   <g id="line2d_19"/>
   <g id="line2d_20"/>
   <g id="line2d_21"/>
   <g id="line2d_22"/>
   <g id="patch_3">
    <path d="M 53.31 273.312 
L 53.31 7.2 
" style="fill: none; stroke: #cccccc; stroke-width: 1.25; stroke-linejoin: miter; stroke-linecap: square"/>
   </g>
   <g id="patch_4">
    <path d="M 410.43 273.312 
L 410.43 7.2 
" style="fill: none; stroke: #cccccc; stroke-width: 1.25; stroke-linejoin: miter; stroke-linecap: square"/>
   </g>
   <g id="patch_5">
    <path d="M 53.31 273.312 
L 410.43 273.312 
" style="fill: none; stroke: #cccccc; stroke-width: 1.25; stroke-linejoin: miter; stroke-linecap: square"/>
   </g>
   <g id="patch_6">
    <path d="M 53.31 7.2 
L 410.43 7.2 
" style="fill: none; stroke: #cccccc; stroke-width: 1.25; stroke-linejoin: miter; stroke-linecap: square"/>
   </g>
   <g id="legend_1">
    <g id="patch_7">
     <path d="M 298.745625 190.827719 
L 402.73 190.827719 
Q 404.93 190.827719 404.93 188.627719 
L 404.93 91.884281 
Q 404.93 89.684281 402.73 89.684281 
L 298.745625 89.684281 
Q 296.545625 89.684281 296.545625 91.884281 
L 296.545625 188.627719 
Q 296.545625 190.827719 298.745625 190.827719 
z
" style="fill: #ffffff; opacity: 0.8; stroke: #cccccc; stroke-linejoin: miter"/>
    </g>
    <g id="text_15">
     <!-- Strategy -->
     <g style="fill: #262626" transform="translate(325.02875 103.202406) scale(0.12 -0.12)">
      <defs>
       <path id="DejaVuSans-53" d="M 3425 4513 
L 3425 3897 
Q 3066 4069 2747 4153 
Q 2428 4238 2131 4238 
Q 1616 4238 1336 4038 
Q 1056 3838 1056 3469 
Q 1056 3159 1242 3001 
Q 1428 2844 1947 2747 
L 2328 2669 
Q 3034 2534 3370 2195 
Q 3706 1856 3706 1288 
Q 3706 609 3251 259 
Q 2797 -91 1919 -91 
Q 1588 -91 1214 -16 
Q 841 59 441 206 
L 441 856 
Q 825 641 1194 531 
Q 1563 422 1919 422 
Q 2459 422 2753 634 
Q 3047 847 3047 1241 
Q 3047 1584 2836 1778 
Q 2625 1972 2144 2069 
L 1759 2144 
Q 1053 2284 737 2584 
Q 422 2884 422 3419 
Q 422 4038 858 4394 
Q 1294 4750 2059 4750 
Q 2388 4750 2728 4690 
Q 3069 4631 3425 4513 
z
" transform="scale(0.015625)"/>
       <path id="DejaVuSans-74" d="M 1172 4494 
L 1172 3500 
L 2356 3500 
L 2356 3053 
L 1172 3053 
L 1172 1153 
Q 1172 725 1289 603 
Q 1406 481 1766 481 
L 2356 481 
L 2356 0 
L 1766 0 
Q 1100 0 847 248 
Q 594 497 594 1153 
L 594 3053 
L 172 3053 
L 172 3500 
L 594 3500 
L 594 4494 
L 1172 4494 
z
" transform="scale(0.015625)"/>
       <path id="DejaVuSans-65" d="M 3597 1894 
L 3597 1613 
L 953 1613 
Q 991 1019 1311 708 
Q 1631 397 2203 397 
Q 2534 397 2845 478 
Q 3156 559 3463 722 
L 3463 178 
Q 3153 47 2828 -22 
Q 2503 -91 2169 -91 
Q 1331 -91 842 396 
Q 353 884 353 1716 
Q 353 2575 817 3079 
Q 1281 3584 2069 3584 
Q 2775 3584 3186 3129 
Q 3597 2675 3597 1894 
z
M 3022 2063 
Q 3016 2534 2758 2815 
Q 2500 3097 2075 3097 
Q 1594 3097 1305 2825 
Q 1016 2553 972 2059 
L 3022 2063 
z
" transform="scale(0.015625)"/>
       <path id="DejaVuSans-67" d="M 2906 1791 
Q 2906 2416 2648 2759 
Q 2391 3103 1925 3103 
Q 1463 3103 1205 2759 
Q 947 2416 947 1791 
Q 947 1169 1205 825 
Q 1463 481 1925 481 
Q 2391 481 2648 825 
Q 2906 1169 2906 1791 
z
M 3481 434 
Q 3481 -459 3084 -895 
Q 2688 -1331 1869 -1331 
Q 1566 -1331 1297 -1286 
Q 1028 -1241 775 -1147 
L 775 -588 
Q 1028 -725 1275 -790 
Q 1522 -856 1778 -856 
Q 2344 -856 2625 -561 
Q 2906 -266 2906 331 
L 2906 616 
Q 2728 306 2450 153 
Q 2172 0 1784 0 
Q 1141 0 747 490 
Q 353 981 353 1791 
Q 353 2603 747 3093 
Q 1141 3584 1784 3584 
Q 2172 3584 2450 3431 
Q 2728 3278 2906 2969 
L 2906 3500 
L 3481 3500 
L 3481 434 
z
" transform="scale(0.015625)"/>
      </defs>
      <use xlink:href="#DejaVuSans-53"/>
      <use xlink:href="#DejaVuSans-74" x="63.476562"/>
      <use xlink:href="#DejaVuSans-72" x="102.685547"/>
      <use xlink:href="#DejaVuSans-61" x="143.798828"/>
      <use xlink:href="#DejaVuSans-74" x="205.078125"/>
      <use xlink:href="#DejaVuSans-65" x="244.287109"/>
      <use xlink:href="#DejaVuSans-67" x="305.810547"/>
      <use xlink:href="#DejaVuSans-79" x="369.287109"/>
     </g>
    </g>
    <g id="line2d_23">
     <path d="M 300.945625 115.706312 
L 311.945625 115.706312 
L 322.945625 115.706312 
" style="fill: none; stroke: #4c72b0; stroke-width: 1.5; stroke-linecap: round"/>
    </g>
    <g id="text_16">
     <!-- FedPredict -->
     <g style="fill: #262626" transform="translate(331.745625 119.556312) scale(0.11 -0.11)">
      <defs>
       <path id="DejaVuSans-46" d="M 628 4666 
L 3309 4666 
L 3309 4134 
L 1259 4134 
L 1259 2759 
L 3109 2759 
L 3109 2228 
L 1259 2228 
L 1259 0 
L 628 0 
L 628 4666 
z
" transform="scale(0.015625)"/>
       <path id="DejaVuSans-50" d="M 1259 4147 
L 1259 2394 
L 2053 2394 
Q 2494 2394 2734 2622 
Q 2975 2850 2975 3272 
Q 2975 3691 2734 3919 
Q 2494 4147 2053 4147 
L 1259 4147 
z
M 628 4666 
L 2053 4666 
Q 2838 4666 3239 4311 
Q 3641 3956 3641 3272 
Q 3641 2581 3239 2228 
Q 2838 1875 2053 1875 
L 1259 1875 
L 1259 0 
L 628 0 
L 628 4666 
z
" transform="scale(0.015625)"/>
       <path id="DejaVuSans-69" d="M 603 3500 
L 1178 3500 
L 1178 0 
L 603 0 
L 603 3500 
z
M 603 4863 
L 1178 4863 
L 1178 4134 
L 603 4134 
L 603 4863 
z
" transform="scale(0.015625)"/>
      </defs>
      <use xlink:href="#DejaVuSans-46"/>
      <use xlink:href="#DejaVuSans-65" x="52.019531"/>
      <use xlink:href="#DejaVuSans-64" x="113.542969"/>
      <use xlink:href="#DejaVuSans-50" x="177.019531"/>
      <use xlink:href="#DejaVuSans-72" x="235.572266"/>
      <use xlink:href="#DejaVuSans-65" x="274.435547"/>
      <use xlink:href="#DejaVuSans-64" x="335.958984"/>
      <use xlink:href="#DejaVuSans-69" x="399.435547"/>
      <use xlink:href="#DejaVuSans-63" x="427.21875"/>
      <use xlink:href="#DejaVuSans-74" x="482.199219"/>
     </g>
    </g>
    <g id="line2d_24">
     <path d="M 300.945625 131.85225 
L 311.945625 131.85225 
L 322.945625 131.85225 
" style="fill: none; stroke: #dd8452; stroke-width: 1.5; stroke-linecap: round"/>
    </g>
    <g id="text_17">
     <!-- FedAVG -->
     <g style="fill: #262626" transform="translate(331.745625 135.70225) scale(0.11 -0.11)">
      <defs>
       <path id="DejaVuSans-56" d="M 1831 0 
L 50 4666 
L 709 4666 
L 2188 738 
L 3669 4666 
L 4325 4666 
L 2547 0 
L 1831 0 
z
" transform="scale(0.015625)"/>
       <path id="DejaVuSans-47" d="M 3809 666 
L 3809 1919 
L 2778 1919 
L 2778 2438 
L 4434 2438 
L 4434 434 
Q 4069 175 3628 42 
Q 3188 -91 2688 -91 
Q 1594 -91 976 548 
Q 359 1188 359 2328 
Q 359 3472 976 4111 
Q 1594 4750 2688 4750 
Q 3144 4750 3555 4637 
Q 3966 4525 4313 4306 
L 4313 3634 
Q 3963 3931 3569 4081 
Q 3175 4231 2741 4231 
Q 1884 4231 1454 3753 
Q 1025 3275 1025 2328 
Q 1025 1384 1454 906 
Q 1884 428 2741 428 
Q 3075 428 3337 486 
Q 3600 544 3809 666 
z
" transform="scale(0.015625)"/>
      </defs>
      <use xlink:href="#DejaVuSans-46"/>
      <use xlink:href="#DejaVuSans-65" x="52.019531"/>
      <use xlink:href="#DejaVuSans-64" x="113.542969"/>
      <use xlink:href="#DejaVuSans-41" x="177.019531"/>
      <use xlink:href="#DejaVuSans-56" x="239.052734"/>
      <use xlink:href="#DejaVuSans-47" x="307.460938"/>
     </g>
    </g>
    <g id="line2d_25">
     <path d="M 300.945625 147.998187 
L 311.945625 147.998187 
L 322.945625 147.998187 
" style="fill: none; stroke: #55a868; stroke-width: 1.5; stroke-linecap: round"/>
    </g>
    <g id="text_18">
     <!-- FedAvgM -->
     <g style="fill: #262626" transform="translate(331.745625 151.848187) scale(0.11 -0.11)">
      <defs>
       <path id="DejaVuSans-76" d="M 191 3500 
L 800 3500 
L 1894 563 
L 2988 3500 
L 3597 3500 
L 2284 0 
L 1503 0 
L 191 3500 
z
" transform="scale(0.015625)"/>
       <path id="DejaVuSans-4d" d="M 628 4666 
L 1569 4666 
L 2759 1491 
L 3956 4666 
L 4897 4666 
L 4897 0 
L 4281 0 
L 4281 4097 
L 3078 897 
L 2444 897 
L 1241 4097 
L 1241 0 
L 628 0 
L 628 4666 
z
" transform="scale(0.015625)"/>
      </defs>
      <use xlink:href="#DejaVuSans-46"/>
      <use xlink:href="#DejaVuSans-65" x="52.019531"/>
      <use xlink:href="#DejaVuSans-64" x="113.542969"/>
      <use xlink:href="#DejaVuSans-41" x="177.019531"/>
      <use xlink:href="#DejaVuSans-76" x="239.552734"/>
      <use xlink:href="#DejaVuSans-67" x="298.732422"/>
      <use xlink:href="#DejaVuSans-4d" x="362.208984"/>
     </g>
    </g>
    <g id="line2d_26">
     <path d="M 300.945625 164.144125 
L 311.945625 164.144125 
L 322.945625 164.144125 
" style="fill: none; stroke: #c44e52; stroke-width: 1.5; stroke-linecap: round"/>
    </g>
    <g id="text_19">
     <!-- FedClassAvg -->
     <g style="fill: #262626" transform="translate(331.745625 167.994125) scale(0.11 -0.11)">
      <defs>
       <path id="DejaVuSans-43" d="M 4122 4306 
L 4122 3641 
Q 3803 3938 3442 4084 
Q 3081 4231 2675 4231 
Q 1875 4231 1450 3742 
Q 1025 3253 1025 2328 
Q 1025 1406 1450 917 
Q 1875 428 2675 428 
Q 3081 428 3442 575 
Q 3803 722 4122 1019 
L 4122 359 
Q 3791 134 3420 21 
Q 3050 -91 2638 -91 
Q 1578 -91 968 557 
Q 359 1206 359 2328 
Q 359 3453 968 4101 
Q 1578 4750 2638 4750 
Q 3056 4750 3426 4639 
Q 3797 4528 4122 4306 
z
" transform="scale(0.015625)"/>
       <path id="DejaVuSans-6c" d="M 603 4863 
L 1178 4863 
L 1178 0 
L 603 0 
L 603 4863 
z
" transform="scale(0.015625)"/>
       <path id="DejaVuSans-73" d="M 2834 3397 
L 2834 2853 
Q 2591 2978 2328 3040 
Q 2066 3103 1784 3103 
Q 1356 3103 1142 2972 
Q 928 2841 928 2578 
Q 928 2378 1081 2264 
Q 1234 2150 1697 2047 
L 1894 2003 
Q 2506 1872 2764 1633 
Q 3022 1394 3022 966 
Q 3022 478 2636 193 
Q 2250 -91 1575 -91 
Q 1294 -91 989 -36 
Q 684 19 347 128 
L 347 722 
Q 666 556 975 473 
Q 1284 391 1588 391 
Q 1994 391 2212 530 
Q 2431 669 2431 922 
Q 2431 1156 2273 1281 
Q 2116 1406 1581 1522 
L 1381 1569 
Q 847 1681 609 1914 
Q 372 2147 372 2553 
Q 372 3047 722 3315 
Q 1072 3584 1716 3584 
Q 2034 3584 2315 3537 
Q 2597 3491 2834 3397 
z
" transform="scale(0.015625)"/>
      </defs>
      <use xlink:href="#DejaVuSans-46"/>
      <use xlink:href="#DejaVuSans-65" x="52.019531"/>
      <use xlink:href="#DejaVuSans-64" x="113.542969"/>
      <use xlink:href="#DejaVuSans-43" x="177.019531"/>
      <use xlink:href="#DejaVuSans-6c" x="246.84375"/>
      <use xlink:href="#DejaVuSans-61" x="274.626953"/>
      <use xlink:href="#DejaVuSans-73" x="335.90625"/>
      <use xlink:href="#DejaVuSans-73" x="388.005859"/>
      <use xlink:href="#DejaVuSans-41" x="440.105469"/>
      <use xlink:href="#DejaVuSans-76" x="502.638672"/>
      <use xlink:href="#DejaVuSans-67" x="561.818359"/>
     </g>
    </g>
    <g id="line2d_27">
     <path d="M 300.945625 180.290062 
L 311.945625 180.290062 
L 322.945625 180.290062 
" style="fill: none; stroke: #8172b3; stroke-width: 1.5; stroke-linecap: round"/>
    </g>
    <g id="text_20">
     <!-- FedPer -->
     <g style="fill: #262626" transform="translate(331.745625 184.140062) scale(0.11 -0.11)">
      <use xlink:href="#DejaVuSans-46"/>
      <use xlink:href="#DejaVuSans-65" x="52.019531"/>
      <use xlink:href="#DejaVuSans-64" x="113.542969"/>
      <use xlink:href="#DejaVuSans-50" x="177.019531"/>
      <use xlink:href="#DejaVuSans-65" x="233.697266"/>
      <use xlink:href="#DejaVuSans-72" x="295.220703"/>
     </g>
    </g>
   </g>
  </g>
 </g>
 <defs>
  <clipPath id="pe2918d9a46">
   <rect x="53.31" y="7.2" width="357.12" height="266.112"/>
  </clipPath>
 </defs>
</svg>
