<?xml version="1.0" encoding="utf-8" standalone="no"?>
<!DOCTYPE svg PUBLIC "-//W3C//DTD SVG 1.1//EN"
  "http://www.w3.org/Graphics/SVG/1.1/DTD/svg11.dtd">
<svg xmlns:xlink="http://www.w3.org/1999/xlink" width="414.127187pt" height="316.271687pt" viewBox="0 0 414.127187 316.271687" xmlns="http://www.w3.org/2000/svg" version="1.1">
 <metadata>
  <rdf:RDF xmlns:dc="http://purl.org/dc/elements/1.1/" xmlns:cc="http://creativecommons.org/ns#" xmlns:rdf="http://www.w3.org/1999/02/22-rdf-syntax-ns#">
   <cc:Work>
    <dc:type rdf:resource="http://purl.org/dc/dcmitype/StillImage"/>
    <dc:date>2023-02-06T10:24:31.385552</dc:date>
    <dc:format>image/svg+xml</dc:format>
    <dc:creator>
     <cc:Agent>
      <dc:title>Matplotlib v3.6.3, https://matplotlib.org/</dc:title>
     </cc:Agent>
    </dc:creator>
   </cc:Work>
  </rdf:RDF>
 </metadata>
 <defs>
  <style type="text/css">*{stroke-linejoin: round; stroke-linecap: butt}</style>
 </defs>
 <g id="figure_1">
  <g id="patch_1">
   <path d="M 0 316.271687 
L 414.127187 316.271687 
L 414.127187 0 
L 0 0 
z
" style="fill: #ffffff"/>
  </g>
  <g id="axes_1">
   <g id="patch_2">
    <path d="M 49.807187 273.312 
L 406.927188 273.312 
L 406.927188 7.2 
L 49.807187 7.2 
z
" style="fill: #ffffff"/>
   </g>
   <g id="matplotlib.axis_1">
    <g id="xtick_1">
     <g id="line2d_1">
      <path d="M 59.414312 273.312 
L 59.414312 7.2 
" clip-path="url(#p34e907a9da)" style="fill: none; stroke: #cccccc; stroke-linecap: round"/>
     </g>
     <g id="text_1">
      <!-- 0 -->
      <g style="fill: #262626" transform="translate(55.914937 291.170281) scale(0.11 -0.11)">
       <defs>
        <path id="DejaVuSans-30" d="M 2034 4250 
Q 1547 4250 1301 3770 
Q 1056 3291 1056 2328 
Q 1056 1369 1301 889 
Q 1547 409 2034 409 
Q 2525 409 2770 889 
Q 3016 1369 3016 2328 
Q 3016 3291 2770 3770 
Q 2525 4250 2034 4250 
z
M 2034 4750 
Q 2819 4750 3233 4129 
Q 3647 3509 3647 2328 
Q 3647 1150 3233 529 
Q 2819 -91 2034 -91 
Q 1250 -91 836 529 
Q 422 1150 422 2328 
Q 422 3509 836 4129 
Q 1250 4750 2034 4750 
z
" transform="scale(0.015625)"/>
       </defs>
       <use xlink:href="#DejaVuSans-30"/>
      </g>
     </g>
    </g>
    <g id="xtick_2">
     <g id="line2d_2">
      <path d="M 125.670341 273.312 
L 125.670341 7.2 
" clip-path="url(#p34e907a9da)" style="fill: none; stroke: #cccccc; stroke-linecap: round"/>
     </g>
     <g id="text_2">
      <!-- 10 -->
      <g style="fill: #262626" transform="translate(118.671591 291.170281) scale(0.11 -0.11)">
       <defs>
        <path id="DejaVuSans-31" d="M 794 531 
L 1825 531 
L 1825 4091 
L 703 3866 
L 703 4441 
L 1819 4666 
L 2450 4666 
L 2450 531 
L 3481 531 
L 3481 0 
L 794 0 
L 794 531 
z
" transform="scale(0.015625)"/>
       </defs>
       <use xlink:href="#DejaVuSans-31"/>
       <use xlink:href="#DejaVuSans-30" x="63.623047"/>
      </g>
     </g>
    </g>
    <g id="xtick_3">
     <g id="line2d_3">
      <path d="M 191.926371 273.312 
L 191.926371 7.2 
" clip-path="url(#p34e907a9da)" style="fill: none; stroke: #cccccc; stroke-linecap: round"/>
     </g>
     <g id="text_3">
      <!-- 20 -->
      <g style="fill: #262626" transform="translate(184.927621 291.170281) scale(0.11 -0.11)">
       <defs>
        <path id="DejaVuSans-32" d="M 1228 531 
L 3431 531 
L 3431 0 
L 469 0 
L 469 531 
Q 828 903 1448 1529 
Q 2069 2156 2228 2338 
Q 2531 2678 2651 2914 
Q 2772 3150 2772 3378 
Q 2772 3750 2511 3984 
Q 2250 4219 1831 4219 
Q 1534 4219 1204 4116 
Q 875 4013 500 3803 
L 500 4441 
Q 881 4594 1212 4672 
Q 1544 4750 1819 4750 
Q 2544 4750 2975 4387 
Q 3406 4025 3406 3419 
Q 3406 3131 3298 2873 
Q 3191 2616 2906 2266 
Q 2828 2175 2409 1742 
Q 1991 1309 1228 531 
z
" transform="scale(0.015625)"/>
       </defs>
       <use xlink:href="#DejaVuSans-32"/>
       <use xlink:href="#DejaVuSans-30" x="63.623047"/>
      </g>
     </g>
    </g>
    <g id="xtick_4">
     <g id="line2d_4">
      <path d="M 258.182401 273.312 
L 258.182401 7.2 
" clip-path="url(#p34e907a9da)" style="fill: none; stroke: #cccccc; stroke-linecap: round"/>
     </g>
     <g id="text_4">
      <!-- 30 -->
      <g style="fill: #262626" transform="translate(251.183651 291.170281) scale(0.11 -0.11)">
       <defs>
        <path id="DejaVuSans-33" d="M 2597 2516 
Q 3050 2419 3304 2112 
Q 3559 1806 3559 1356 
Q 3559 666 3084 287 
Q 2609 -91 1734 -91 
Q 1441 -91 1130 -33 
Q 819 25 488 141 
L 488 750 
Q 750 597 1062 519 
Q 1375 441 1716 441 
Q 2309 441 2620 675 
Q 2931 909 2931 1356 
Q 2931 1769 2642 2001 
Q 2353 2234 1838 2234 
L 1294 2234 
L 1294 2753 
L 1863 2753 
Q 2328 2753 2575 2939 
Q 2822 3125 2822 3475 
Q 2822 3834 2567 4026 
Q 2313 4219 1838 4219 
Q 1578 4219 1281 4162 
Q 984 4106 628 3988 
L 628 4550 
Q 988 4650 1302 4700 
Q 1616 4750 1894 4750 
Q 2613 4750 3031 4423 
Q 3450 4097 3450 3541 
Q 3450 3153 3228 2886 
Q 3006 2619 2597 2516 
z
" transform="scale(0.015625)"/>
       </defs>
       <use xlink:href="#DejaVuSans-33"/>
       <use xlink:href="#DejaVuSans-30" x="63.623047"/>
      </g>
     </g>
    </g>
    <g id="xtick_5">
     <g id="line2d_5">
      <path d="M 324.438431 273.312 
L 324.438431 7.2 
" clip-path="url(#p34e907a9da)" style="fill: none; stroke: #cccccc; stroke-linecap: round"/>
     </g>
     <g id="text_5">
      <!-- 40 -->
      <g style="fill: #262626" transform="translate(317.439681 291.170281) scale(0.11 -0.11)">
       <defs>
        <path id="DejaVuSans-34" d="M 2419 4116 
L 825 1625 
L 2419 1625 
L 2419 4116 
z
M 2253 4666 
L 3047 4666 
L 3047 1625 
L 3713 1625 
L 3713 1100 
L 3047 1100 
L 3047 0 
L 2419 0 
L 2419 1100 
L 313 1100 
L 313 1709 
L 2253 4666 
z
" transform="scale(0.015625)"/>
       </defs>
       <use xlink:href="#DejaVuSans-34"/>
       <use xlink:href="#DejaVuSans-30" x="63.623047"/>
      </g>
     </g>
    </g>
    <g id="xtick_6">
     <g id="line2d_6">
      <path d="M 390.69446 273.312 
L 390.69446 7.2 
" clip-path="url(#p34e907a9da)" style="fill: none; stroke: #cccccc; stroke-linecap: round"/>
     </g>
     <g id="text_6">
      <!-- 50 -->
      <g style="fill: #262626" transform="translate(383.69571 291.170281) scale(0.11 -0.11)">
       <defs>
        <path id="DejaVuSans-35" d="M 691 4666 
L 3169 4666 
L 3169 4134 
L 1269 4134 
L 1269 2991 
Q 1406 3038 1543 3061 
Q 1681 3084 1819 3084 
Q 2600 3084 3056 2656 
Q 3513 2228 3513 1497 
Q 3513 744 3044 326 
Q 2575 -91 1722 -91 
Q 1428 -91 1123 -41 
Q 819 9 494 109 
L 494 744 
Q 775 591 1075 516 
Q 1375 441 1709 441 
Q 2250 441 2565 725 
Q 2881 1009 2881 1497 
Q 2881 1984 2565 2268 
Q 2250 2553 1709 2553 
Q 1456 2553 1204 2497 
Q 953 2441 691 2322 
L 691 4666 
z
" transform="scale(0.015625)"/>
       </defs>
       <use xlink:href="#DejaVuSans-35"/>
       <use xlink:href="#DejaVuSans-30" x="63.623047"/>
      </g>
     </g>
    </g>
    <g id="text_7">
     <!-- Round -->
     <g style="fill: #262626" transform="translate(209.382812 306.576062) scale(0.12 -0.12)">
      <defs>
       <path id="DejaVuSans-52" d="M 2841 2188 
Q 3044 2119 3236 1894 
Q 3428 1669 3622 1275 
L 4263 0 
L 3584 0 
L 2988 1197 
Q 2756 1666 2539 1819 
Q 2322 1972 1947 1972 
L 1259 1972 
L 1259 0 
L 628 0 
L 628 4666 
L 2053 4666 
Q 2853 4666 3247 4331 
Q 3641 3997 3641 3322 
Q 3641 2881 3436 2590 
Q 3231 2300 2841 2188 
z
M 1259 4147 
L 1259 2491 
L 2053 2491 
Q 2509 2491 2742 2702 
Q 2975 2913 2975 3322 
Q 2975 3731 2742 3939 
Q 2509 4147 2053 4147 
L 1259 4147 
z
" transform="scale(0.015625)"/>
       <path id="DejaVuSans-6f" d="M 1959 3097 
Q 1497 3097 1228 2736 
Q 959 2375 959 1747 
Q 959 1119 1226 758 
Q 1494 397 1959 397 
Q 2419 397 2687 759 
Q 2956 1122 2956 1747 
Q 2956 2369 2687 2733 
Q 2419 3097 1959 3097 
z
M 1959 3584 
Q 2709 3584 3137 3096 
Q 3566 2609 3566 1747 
Q 3566 888 3137 398 
Q 2709 -91 1959 -91 
Q 1206 -91 779 398 
Q 353 888 353 1747 
Q 353 2609 779 3096 
Q 1206 3584 1959 3584 
z
" transform="scale(0.015625)"/>
       <path id="DejaVuSans-75" d="M 544 1381 
L 544 3500 
L 1119 3500 
L 1119 1403 
Q 1119 906 1312 657 
Q 1506 409 1894 409 
Q 2359 409 2629 706 
Q 2900 1003 2900 1516 
L 2900 3500 
L 3475 3500 
L 3475 0 
L 2900 0 
L 2900 538 
Q 2691 219 2414 64 
Q 2138 -91 1772 -91 
Q 1169 -91 856 284 
Q 544 659 544 1381 
z
M 1991 3584 
L 1991 3584 
z
" transform="scale(0.015625)"/>
       <path id="DejaVuSans-6e" d="M 3513 2113 
L 3513 0 
L 2938 0 
L 2938 2094 
Q 2938 2591 2744 2837 
Q 2550 3084 2163 3084 
Q 1697 3084 1428 2787 
Q 1159 2491 1159 1978 
L 1159 0 
L 581 0 
L 581 3500 
L 1159 3500 
L 1159 2956 
Q 1366 3272 1645 3428 
Q 1925 3584 2291 3584 
Q 2894 3584 3203 3211 
Q 3513 2838 3513 2113 
z
" transform="scale(0.015625)"/>
       <path id="DejaVuSans-64" d="M 2906 2969 
L 2906 4863 
L 3481 4863 
L 3481 0 
L 2906 0 
L 2906 525 
Q 2725 213 2448 61 
Q 2172 -91 1784 -91 
Q 1150 -91 751 415 
Q 353 922 353 1747 
Q 353 2572 751 3078 
Q 1150 3584 1784 3584 
Q 2172 3584 2448 3432 
Q 2725 3281 2906 2969 
z
M 947 1747 
Q 947 1113 1208 752 
Q 1469 391 1925 391 
Q 2381 391 2643 752 
Q 2906 1113 2906 1747 
Q 2906 2381 2643 2742 
Q 2381 3103 1925 3103 
Q 1469 3103 1208 2742 
Q 947 2381 947 1747 
z
" transform="scale(0.015625)"/>
      </defs>
      <use xlink:href="#DejaVuSans-52"/>
      <use xlink:href="#DejaVuSans-6f" x="64.982422"/>
      <use xlink:href="#DejaVuSans-75" x="126.164062"/>
      <use xlink:href="#DejaVuSans-6e" x="189.542969"/>
      <use xlink:href="#DejaVuSans-64" x="252.921875"/>
     </g>
    </g>
   </g>
   <g id="matplotlib.axis_2">
    <g id="ytick_1">
     <g id="line2d_7">
      <path d="M 49.807187 267.185686 
L 406.927188 267.185686 
" clip-path="url(#p34e907a9da)" style="fill: none; stroke: #cccccc; stroke-linecap: round"/>
     </g>
     <g id="text_8">
      <!-- 0.0 -->
      <g style="fill: #262626" transform="translate(22.81375 271.364827) scale(0.11 -0.11)">
       <defs>
        <path id="DejaVuSans-2e" d="M 684 794 
L 1344 794 
L 1344 0 
L 684 0 
L 684 794 
z
" transform="scale(0.015625)"/>
       </defs>
       <use xlink:href="#DejaVuSans-30"/>
       <use xlink:href="#DejaVuSans-2e" x="63.623047"/>
       <use xlink:href="#DejaVuSans-30" x="95.410156"/>
      </g>
     </g>
    </g>
    <g id="ytick_2">
     <g id="line2d_8">
      <path d="M 49.807187 219.918626 
L 406.927188 219.918626 
" clip-path="url(#p34e907a9da)" style="fill: none; stroke: #cccccc; stroke-linecap: round"/>
     </g>
     <g id="text_9">
      <!-- 0.5 -->
      <g style="fill: #262626" transform="translate(22.81375 224.097766) scale(0.11 -0.11)">
       <use xlink:href="#DejaVuSans-30"/>
       <use xlink:href="#DejaVuSans-2e" x="63.623047"/>
       <use xlink:href="#DejaVuSans-35" x="95.410156"/>
      </g>
     </g>
    </g>
    <g id="ytick_3">
     <g id="line2d_9">
      <path d="M 49.807187 172.651565 
L 406.927188 172.651565 
" clip-path="url(#p34e907a9da)" style="fill: none; stroke: #cccccc; stroke-linecap: round"/>
     </g>
     <g id="text_10">
      <!-- 1.0 -->
      <g style="fill: #262626" transform="translate(22.81375 176.830706) scale(0.11 -0.11)">
       <use xlink:href="#DejaVuSans-31"/>
       <use xlink:href="#DejaVuSans-2e" x="63.623047"/>
       <use xlink:href="#DejaVuSans-30" x="95.410156"/>
      </g>
     </g>
    </g>
    <g id="ytick_4">
     <g id="line2d_10">
      <path d="M 49.807187 125.384504 
L 406.927188 125.384504 
" clip-path="url(#p34e907a9da)" style="fill: none; stroke: #cccccc; stroke-linecap: round"/>
     </g>
     <g id="text_11">
      <!-- 1.5 -->
      <g style="fill: #262626" transform="translate(22.81375 129.563645) scale(0.11 -0.11)">
       <use xlink:href="#DejaVuSans-31"/>
       <use xlink:href="#DejaVuSans-2e" x="63.623047"/>
       <use xlink:href="#DejaVuSans-35" x="95.410156"/>
      </g>
     </g>
    </g>
    <g id="ytick_5">
     <g id="line2d_11">
      <path d="M 49.807187 78.117444 
L 406.927188 78.117444 
" clip-path="url(#p34e907a9da)" style="fill: none; stroke: #cccccc; stroke-linecap: round"/>
     </g>
     <g id="text_12">
      <!-- 2.0 -->
      <g style="fill: #262626" transform="translate(22.81375 82.296584) scale(0.11 -0.11)">
       <use xlink:href="#DejaVuSans-32"/>
       <use xlink:href="#DejaVuSans-2e" x="63.623047"/>
       <use xlink:href="#DejaVuSans-30" x="95.410156"/>
      </g>
     </g>
    </g>
    <g id="ytick_6">
     <g id="line2d_12">
      <path d="M 49.807187 30.850383 
L 406.927188 30.850383 
" clip-path="url(#p34e907a9da)" style="fill: none; stroke: #cccccc; stroke-linecap: round"/>
     </g>
     <g id="text_13">
      <!-- 2.5 -->
      <g style="fill: #262626" transform="translate(22.81375 35.029524) scale(0.11 -0.11)">
       <use xlink:href="#DejaVuSans-32"/>
       <use xlink:href="#DejaVuSans-2e" x="63.623047"/>
       <use xlink:href="#DejaVuSans-35" x="95.410156"/>
      </g>
     </g>
    </g>
    <g id="text_14">
     <!-- Loss -->
     <g style="fill: #262626" transform="translate(16.318125 153.416625) rotate(-90) scale(0.12 -0.12)">
      <defs>
       <path id="DejaVuSans-4c" d="M 628 4666 
L 1259 4666 
L 1259 531 
L 3531 531 
L 3531 0 
L 628 0 
L 628 4666 
z
" transform="scale(0.015625)"/>
       <path id="DejaVuSans-73" d="M 2834 3397 
L 2834 2853 
Q 2591 2978 2328 3040 
Q 2066 3103 1784 3103 
Q 1356 3103 1142 2972 
Q 928 2841 928 2578 
Q 928 2378 1081 2264 
Q 1234 2150 1697 2047 
L 1894 2003 
Q 2506 1872 2764 1633 
Q 3022 1394 3022 966 
Q 3022 478 2636 193 
Q 2250 -91 1575 -91 
Q 1294 -91 989 -36 
Q 684 19 347 128 
L 347 722 
Q 666 556 975 473 
Q 1284 391 1588 391 
Q 1994 391 2212 530 
Q 2431 669 2431 922 
Q 2431 1156 2273 1281 
Q 2116 1406 1581 1522 
L 1381 1569 
Q 847 1681 609 1914 
Q 372 2147 372 2553 
Q 372 3047 722 3315 
Q 1072 3584 1716 3584 
Q 2034 3584 2315 3537 
Q 2597 3491 2834 3397 
z
" transform="scale(0.015625)"/>
      </defs>
      <use xlink:href="#DejaVuSans-4c"/>
      <use xlink:href="#DejaVuSans-6f" x="53.962891"/>
      <use xlink:href="#DejaVuSans-73" x="115.144531"/>
      <use xlink:href="#DejaVuSans-73" x="167.244141"/>
     </g>
    </g>
   </g>
   <g id="PolyCollection_1">
    <defs>
     <path id="m39fda40ad2" d="M 66.039915 -265.608952 
L 66.039915 -252.249394 
L 72.665518 -233.280874 
L 79.291121 -215.982128 
L 85.916724 -193.407206 
L 92.542327 -168.264766 
L 99.16793 -141.619652 
L 105.793533 -123.223753 
L 112.419136 -117.514363 
L 119.044739 -100.485794 
L 125.670341 -88.082139 
L 132.295944 -81.304386 
L 138.921547 -82.269352 
L 145.54715 -76.682791 
L 152.172753 -75.371692 
L 158.798356 -71.069041 
L 165.423959 -72.255412 
L 172.049562 -69.614727 
L 178.675165 -65.664108 
L 185.300768 -66.413678 
L 191.926371 -66.033615 
L 198.551974 -66.168882 
L 205.177577 -65.186701 
L 211.80318 -64.682678 
L 218.428783 -62.362855 
L 225.054386 -62.381033 
L 231.679989 -61.883462 
L 238.305592 -59.894394 
L 244.931195 -60.065277 
L 251.556798 -60.699399 
L 258.182401 -60.134832 
L 264.808004 -60.081212 
L 271.433607 -59.385116 
L 278.05921 -58.839786 
L 284.684813 -59.153301 
L 291.310416 -58.009311 
L 297.936019 -57.66983 
L 304.561622 -57.203987 
L 311.187225 -57.03546 
L 317.812828 -57.011615 
L 324.438431 -57.176081 
L 331.064034 -56.275113 
L 337.689636 -56.863365 
L 344.315239 -56.454592 
L 350.940842 -56.030852 
L 357.566445 -55.700309 
L 364.192048 -55.960319 
L 370.817651 -55.717263 
L 377.443254 -55.489681 
L 384.068857 -55.61982 
L 390.69446 -55.055687 
L 390.69446 -59.304539 
L 390.69446 -59.304539 
L 384.068857 -60.684149 
L 377.443254 -60.995142 
L 370.817651 -62.424542 
L 364.192048 -60.873073 
L 357.566445 -60.682642 
L 350.940842 -61.905848 
L 344.315239 -61.661674 
L 337.689636 -62.469664 
L 331.064034 -60.778792 
L 324.438431 -63.041564 
L 317.812828 -63.569231 
L 311.187225 -61.797875 
L 304.561622 -62.454251 
L 297.936019 -63.137573 
L 291.310416 -64.822058 
L 284.684813 -67.609428 
L 278.05921 -67.954989 
L 271.433607 -68.855243 
L 264.808004 -69.125097 
L 258.182401 -68.396607 
L 251.556798 -67.737138 
L 244.931195 -66.956174 
L 238.305592 -65.927415 
L 231.679989 -73.094006 
L 225.054386 -76.799308 
L 218.428783 -71.279961 
L 211.80318 -72.906207 
L 205.177577 -76.318739 
L 198.551974 -77.050967 
L 191.926371 -78.089527 
L 185.300768 -76.057343 
L 178.675165 -74.361668 
L 172.049562 -81.042885 
L 165.423959 -85.806782 
L 158.798356 -85.195936 
L 152.172753 -92.868599 
L 145.54715 -93.684414 
L 138.921547 -103.114244 
L 132.295944 -102.967396 
L 125.670341 -106.475079 
L 119.044739 -138.337261 
L 112.419136 -158.851759 
L 105.793533 -161.467932 
L 99.16793 -186.003534 
L 92.542327 -206.588902 
L 85.916724 -241.561964 
L 79.291121 -257.042054 
L 72.665518 -269.202674 
L 66.039915 -265.608952 
z
" style="stroke: #4c72b0; stroke-opacity: 0.2"/>
    </defs>
    <g clip-path="url(#p34e907a9da)">
     <use xlink:href="#m39fda40ad2" x="0" y="316.271687" style="fill: #4c72b0; fill-opacity: 0.2; stroke: #4c72b0; stroke-opacity: 0.2"/>
    </g>
   </g>
   <g id="PolyCollection_2">
    <defs>
     <path id="madd55c232e" d="M 66.039915 -269.426855 
L 66.039915 -264.469063 
L 72.665518 -264.001221 
L 79.291121 -270.321831 
L 85.916724 -250.586704 
L 92.542327 -241.931058 
L 99.16793 -224.283558 
L 105.793533 -186.674267 
L 112.419136 -194.435761 
L 119.044739 -166.996673 
L 125.670341 -141.472316 
L 132.295944 -145.045611 
L 138.921547 -159.955768 
L 145.54715 -137.539511 
L 152.172753 -117.920895 
L 158.798356 -114.113763 
L 165.423959 -128.605184 
L 172.049562 -122.733073 
L 178.675165 -107.204763 
L 185.300768 -122.724415 
L 191.926371 -116.386237 
L 198.551974 -108.205545 
L 205.177577 -119.080906 
L 211.80318 -109.117071 
L 218.428783 -98.713018 
L 225.054386 -99.544469 
L 231.679989 -109.587046 
L 238.305592 -93.498229 
L 244.931195 -93.647157 
L 251.556798 -114.750073 
L 258.182401 -99.276718 
L 264.808004 -111.375195 
L 271.433607 -91.980329 
L 278.05921 -92.958419 
L 284.684813 -106.319061 
L 291.310416 -82.830959 
L 297.936019 -84.302486 
L 304.561622 -86.850067 
L 311.187225 -83.53412 
L 317.812828 -86.57425 
L 324.438431 -89.624801 
L 331.064034 -84.042561 
L 337.689636 -79.662765 
L 344.315239 -80.279718 
L 350.940842 -78.919803 
L 357.566445 -76.970324 
L 364.192048 -80.653855 
L 370.817651 -78.113493 
L 377.443254 -87.410157 
L 384.068857 -92.988575 
L 390.69446 -80.910723 
L 390.69446 -94.373188 
L 390.69446 -94.373188 
L 384.068857 -115.74617 
L 377.443254 -105.039147 
L 370.817651 -89.451782 
L 364.192048 -103.785166 
L 357.566445 -85.468136 
L 350.940842 -92.987691 
L 344.315239 -91.515556 
L 337.689636 -86.766171 
L 331.064034 -94.515882 
L 324.438431 -112.791968 
L 317.812828 -104.075212 
L 311.187225 -96.811665 
L 304.561622 -101.346036 
L 297.936019 -95.916058 
L 291.310416 -92.939678 
L 284.684813 -132.089433 
L 278.05921 -114.94158 
L 271.433607 -115.552916 
L 264.808004 -145.815531 
L 258.182401 -124.428519 
L 251.556798 -148.267394 
L 244.931195 -113.181316 
L 238.305592 -111.253853 
L 231.679989 -135.303804 
L 225.054386 -121.801992 
L 218.428783 -120.895775 
L 211.80318 -134.465425 
L 205.177577 -141.399423 
L 198.551974 -134.474641 
L 191.926371 -139.832488 
L 185.300768 -157.936016 
L 178.675165 -126.289148 
L 172.049562 -141.416902 
L 165.423959 -146.088557 
L 158.798356 -133.940611 
L 152.172753 -131.344226 
L 145.54715 -167.513151 
L 138.921547 -191.594522 
L 132.295944 -172.89187 
L 125.670341 -154.969741 
L 119.044739 -206.476921 
L 112.419136 -237.077639 
L 105.793533 -224.898151 
L 99.16793 -267.132628 
L 92.542327 -274.918326 
L 85.916724 -286.640399 
L 79.291121 -296.975687 
L 72.665518 -284.634796 
L 66.039915 -269.426855 
z
" style="stroke: #dd8452; stroke-opacity: 0.2"/>
    </defs>
    <g clip-path="url(#p34e907a9da)">
     <use xlink:href="#madd55c232e" x="0" y="316.271687" style="fill: #dd8452; fill-opacity: 0.2; stroke: #dd8452; stroke-opacity: 0.2"/>
    </g>
   </g>
   <g id="PolyCollection_3">
    <defs>
     <path id="me221794649" d="M 66.039915 -273.739837 
L 66.039915 -254.068401 
L 72.665518 -235.735476 
L 79.291121 -226.66556 
L 85.916724 -215.978004 
L 92.542327 -211.466371 
L 99.16793 -197.728706 
L 105.793533 -184.994399 
L 112.419136 -176.389879 
L 119.044739 -166.451907 
L 125.670341 -158.955148 
L 132.295944 -151.866397 
L 138.921547 -149.12296 
L 145.54715 -143.804809 
L 152.172753 -134.928922 
L 158.798356 -131.832013 
L 165.423959 -129.234144 
L 172.049562 -125.262059 
L 178.675165 -119.427823 
L 185.300768 -113.303743 
L 191.926371 -110.044403 
L 198.551974 -106.109561 
L 205.177577 -104.491964 
L 211.80318 -102.613085 
L 218.428783 -100.56872 
L 225.054386 -100.60344 
L 231.679989 -97.627527 
L 238.305592 -96.563792 
L 244.931195 -93.573974 
L 251.556798 -92.326757 
L 258.182401 -91.559714 
L 264.808004 -90.972391 
L 271.433607 -87.91136 
L 278.05921 -88.513268 
L 284.684813 -84.423001 
L 291.310416 -83.680977 
L 297.936019 -82.936016 
L 304.561622 -82.110213 
L 311.187225 -80.112263 
L 317.812828 -80.798176 
L 324.438431 -78.4657 
L 331.064034 -75.099776 
L 337.689636 -75.060147 
L 344.315239 -74.446214 
L 350.940842 -73.981547 
L 357.566445 -73.005102 
L 364.192048 -73.146894 
L 370.817651 -73.115677 
L 377.443254 -71.796017 
L 384.068857 -70.047531 
L 390.69446 -70.027638 
L 390.69446 -95.203254 
L 390.69446 -95.203254 
L 384.068857 -97.798286 
L 377.443254 -98.379309 
L 370.817651 -100.486231 
L 364.192048 -101.253098 
L 357.566445 -101.949822 
L 350.940842 -100.594948 
L 344.315239 -102.204732 
L 337.689636 -101.312446 
L 331.064034 -102.23461 
L 324.438431 -106.391867 
L 317.812828 -110.067634 
L 311.187225 -107.113838 
L 304.561622 -111.023883 
L 297.936019 -111.026112 
L 291.310416 -112.074796 
L 284.684813 -119.23806 
L 278.05921 -121.980132 
L 271.433607 -121.381399 
L 264.808004 -123.68623 
L 258.182401 -125.265427 
L 251.556798 -127.22267 
L 244.931195 -128.441698 
L 238.305592 -132.526544 
L 231.679989 -130.764235 
L 225.054386 -134.194331 
L 218.428783 -137.902539 
L 211.80318 -138.959817 
L 205.177577 -143.841599 
L 198.551974 -142.749024 
L 191.926371 -149.779018 
L 185.300768 -152.150014 
L 178.675165 -157.659586 
L 172.049562 -163.699466 
L 165.423959 -171.109533 
L 158.798356 -171.011496 
L 152.172753 -174.382775 
L 145.54715 -185.347948 
L 138.921547 -190.340542 
L 132.295944 -194.069543 
L 125.670341 -202.092164 
L 119.044739 -207.736526 
L 112.419136 -218.942385 
L 105.793533 -226.01347 
L 99.16793 -234.718307 
L 92.542327 -246.869971 
L 85.916724 -251.394087 
L 79.291121 -262.438379 
L 72.665518 -273.294924 
L 66.039915 -273.739837 
z
" style="stroke: #55a868; stroke-opacity: 0.2"/>
    </defs>
    <g clip-path="url(#p34e907a9da)">
     <use xlink:href="#me221794649" x="0" y="316.271687" style="fill: #55a868; fill-opacity: 0.2; stroke: #55a868; stroke-opacity: 0.2"/>
    </g>
   </g>
   <g id="PolyCollection_4">
    <defs>
     <path id="mf7d2528a4b" d="M 66.039915 -264.710541 
L 66.039915 -259.724063 
L 72.665518 -248.599531 
L 79.291121 -242.45657 
L 85.916724 -246.008819 
L 92.542327 -246.598474 
L 99.16793 -227.974587 
L 105.793533 -202.978911 
L 112.419136 -209.892541 
L 119.044739 -225.444056 
L 125.670341 -205.542919 
L 132.295944 -177.932501 
L 138.921547 -164.063271 
L 145.54715 -163.98696 
L 152.172753 -160.194985 
L 158.798356 -156.223275 
L 165.423959 -155.515977 
L 172.049562 -149.984138 
L 178.675165 -147.436312 
L 185.300768 -143.648436 
L 191.926371 -138.738769 
L 198.551974 -133.474409 
L 205.177577 -128.532518 
L 211.80318 -122.756285 
L 218.428783 -117.924299 
L 225.054386 -115.440253 
L 231.679989 -113.528616 
L 238.305592 -111.169839 
L 244.931195 -107.389292 
L 251.556798 -103.818639 
L 258.182401 -100.824281 
L 264.808004 -98.405664 
L 271.433607 -94.820777 
L 278.05921 -92.239827 
L 284.684813 -90.560159 
L 291.310416 -88.794778 
L 297.936019 -86.178593 
L 304.561622 -85.805493 
L 311.187225 -84.630824 
L 317.812828 -82.660618 
L 324.438431 -81.612639 
L 331.064034 -79.64302 
L 337.689636 -79.531017 
L 344.315239 -77.418965 
L 350.940842 -77.262135 
L 357.566445 -78.145822 
L 364.192048 -76.993328 
L 370.817651 -76.304495 
L 377.443254 -75.188891 
L 384.068857 -75.220253 
L 390.69446 -74.495829 
L 390.69446 -92.282461 
L 390.69446 -92.282461 
L 384.068857 -93.877182 
L 377.443254 -93.834322 
L 370.817651 -96.03056 
L 364.192048 -94.504895 
L 357.566445 -98.345378 
L 350.940842 -96.151833 
L 344.315239 -96.823753 
L 337.689636 -97.87046 
L 331.064034 -98.696246 
L 324.438431 -101.125127 
L 317.812828 -102.385705 
L 311.187225 -106.571864 
L 304.561622 -108.384962 
L 297.936019 -108.119479 
L 291.310416 -111.520261 
L 284.684813 -115.860369 
L 278.05921 -115.905642 
L 271.433607 -120.6426 
L 264.808004 -123.449225 
L 258.182401 -126.782886 
L 251.556798 -131.744812 
L 244.931195 -136.823049 
L 238.305592 -137.883795 
L 231.679989 -145.829673 
L 225.054386 -147.892486 
L 218.428783 -153.501141 
L 211.80318 -157.707153 
L 205.177577 -160.825836 
L 198.551974 -167.341513 
L 191.926371 -171.812477 
L 185.300768 -179.215562 
L 178.675165 -184.638939 
L 172.049562 -182.186259 
L 165.423959 -183.77506 
L 158.798356 -196.588614 
L 152.172753 -198.345155 
L 145.54715 -202.479369 
L 138.921547 -212.08184 
L 132.295944 -207.792147 
L 125.670341 -224.769531 
L 119.044739 -238.638196 
L 112.419136 -232.921849 
L 105.793533 -241.783497 
L 99.16793 -245.691224 
L 92.542327 -254.810377 
L 85.916724 -256.268266 
L 79.291121 -256.848536 
L 72.665518 -260.31947 
L 66.039915 -264.710541 
z
" style="stroke: #c44e52; stroke-opacity: 0.2"/>
    </defs>
    <g clip-path="url(#p34e907a9da)">
     <use xlink:href="#mf7d2528a4b" x="0" y="316.271687" style="fill: #c44e52; fill-opacity: 0.2; stroke: #c44e52; stroke-opacity: 0.2"/>
    </g>
   </g>
   <g id="line2d_13">
    <path d="M 66.039915 56.54866 
L 72.665518 64.492439 
L 79.291121 79.665835 
L 85.916724 98.773355 
L 92.542327 128.683023 
L 99.16793 152.753723 
L 105.793533 174.738093 
L 112.419136 179.072981 
L 119.044739 197.707747 
L 125.670341 219.776944 
L 132.295944 225.002738 
L 138.921547 224.198641 
L 145.54715 231.428916 
L 152.172753 233.05478 
L 158.798356 238.071029 
L 165.423959 237.487966 
L 172.049562 241.467292 
L 178.675165 246.391205 
L 185.300768 245.015703 
L 191.926371 244.942295 
L 198.551974 244.996891 
L 205.177577 245.99824 
L 211.80318 247.755186 
L 218.428783 249.750241 
L 225.054386 247.786942 
L 231.679989 249.524956 
L 238.305592 253.531778 
L 244.931195 252.95071 
L 251.556798 252.358414 
L 258.182401 252.631267 
L 264.808004 252.008148 
L 271.433607 252.579226 
L 278.05921 253.516226 
L 284.684813 253.475888 
L 291.310416 255.257617 
L 297.936019 255.959811 
L 304.561622 256.554535 
L 311.187225 257.09899 
L 317.812828 256.365825 
L 324.438431 256.670321 
L 331.064034 257.847438 
L 337.689636 256.785713 
L 344.315239 257.340078 
L 350.940842 257.667218 
L 357.566445 258.290013 
L 364.192048 258.249594 
L 370.817651 257.89068 
L 377.443254 258.490872 
L 384.068857 258.461637 
L 390.69446 259.333028 
" clip-path="url(#p34e907a9da)" style="fill: none; stroke: #4c72b0; stroke-width: 1.5; stroke-linecap: round"/>
   </g>
   <g id="line2d_14">
    <path d="M 66.039915 49.453306 
L 72.665518 42.671086 
L 79.291121 33.082421 
L 85.916724 48.259975 
L 92.542327 59.36923 
L 99.16793 70.544147 
L 105.793533 111.353464 
L 112.419136 100.316461 
L 119.044739 130.722277 
L 125.670341 168.426606 
L 132.295944 157.019899 
L 138.921547 140.264962 
L 145.54715 164.537719 
L 152.172753 191.709802 
L 158.798356 192.257503 
L 165.423959 179.059896 
L 172.049562 184.280986 
L 178.675165 200.001969 
L 185.300768 176.470465 
L 191.926371 188.161282 
L 198.551974 195.851532 
L 205.177577 186.662707 
L 211.80318 194.195605 
L 218.428783 206.891868 
L 225.054386 206.005672 
L 231.679989 194.671549 
L 238.305592 214.474611 
L 244.931195 213.985427 
L 251.556798 185.973776 
L 258.182401 204.274598 
L 264.808004 188.509453 
L 271.433607 214.092129 
L 278.05921 213.398917 
L 284.684813 197.705249 
L 291.310416 228.514628 
L 297.936019 226.162956 
L 304.561622 222.41899 
L 311.187225 226.090396 
L 317.812828 221.153233 
L 324.438431 215.97359 
L 331.064034 227.126275 
L 337.689636 232.847606 
L 344.315239 230.731407 
L 350.940842 231.011999 
L 357.566445 235.196789 
L 364.192048 224.962098 
L 370.817651 232.71796 
L 377.443254 220.385557 
L 384.068857 212.775776 
L 390.69446 228.994413 
" clip-path="url(#p34e907a9da)" style="fill: none; stroke: #dd8452; stroke-width: 1.5; stroke-linecap: round"/>
   </g>
   <g id="line2d_15">
    <path d="M 66.039915 52.705577 
L 72.665518 62.176491 
L 79.291121 70.462179 
L 85.916724 82.369341 
L 92.542327 87.977534 
L 99.16793 100.209669 
L 105.793533 110.728091 
L 112.419136 118.833288 
L 119.044739 129.83901 
L 125.670341 136.706616 
L 132.295944 143.611453 
L 138.921547 146.819779 
L 145.54715 153.400257 
L 152.172753 161.084901 
L 158.798356 164.32743 
L 165.423959 167.447033 
L 172.049562 171.906698 
L 178.675165 179.105793 
L 185.300768 183.725644 
L 191.926371 187.090668 
L 198.551974 192.171916 
L 205.177577 192.813673 
L 211.80318 196.398848 
L 218.428783 196.99107 
L 225.054386 199.787906 
L 231.679989 202.503299 
L 238.305592 203.229614 
L 244.931195 206.188593 
L 251.556798 207.085491 
L 258.182401 209.223351 
L 264.808004 209.952942 
L 271.433607 212.961861 
L 278.05921 212.396849 
L 284.684813 215.393048 
L 291.310416 219.019605 
L 297.936019 220.064128 
L 304.561622 220.52087 
L 311.187225 223.236894 
L 317.812828 222.179329 
L 324.438431 224.402221 
L 331.064034 228.783227 
L 337.689636 228.779749 
L 344.315239 228.890147 
L 350.940842 229.672407 
L 357.566445 229.424039 
L 364.192048 230.046504 
L 370.817651 230.33172 
L 377.443254 232.385329 
L 384.068857 233.708552 
L 390.69446 233.947052 
" clip-path="url(#p34e907a9da)" style="fill: none; stroke: #55a868; stroke-width: 1.5; stroke-linecap: round"/>
   </g>
   <g id="line2d_16">
    <path d="M 66.039915 53.981174 
L 72.665518 61.49454 
L 79.291121 66.433346 
L 85.916724 64.771067 
L 92.542327 65.613773 
L 99.16793 79.111116 
L 105.793533 96.211887 
L 112.419136 95.447927 
L 119.044739 84.277437 
L 125.670341 101.231998 
L 132.295944 125.153678 
L 138.921547 131.511215 
L 145.54715 135.89415 
L 152.172753 139.356113 
L 158.798356 141.834664 
L 165.423959 148.884474 
L 172.049562 151.680507 
L 178.675165 151.298504 
L 185.300768 155.875719 
L 191.926371 162.185828 
L 198.551974 167.865517 
L 205.177577 171.829754 
L 211.80318 177.473353 
L 218.428783 181.710632 
L 225.054386 185.623336 
L 231.679989 187.346899 
L 238.305592 192.357129 
L 244.931195 194.388654 
L 251.556798 199.657247 
L 258.182401 203.676688 
L 264.808004 206.615185 
L 271.433607 209.619822 
L 278.05921 212.511217 
L 284.684813 214.418408 
L 291.310416 217.182263 
L 297.936019 219.55785 
L 304.561622 220.253012 
L 311.187225 221.439362 
L 317.812828 224.783212 
L 324.438431 225.792555 
L 331.064034 227.363519 
L 337.689636 228.270672 
L 344.315239 229.498119 
L 350.940842 230.091898 
L 357.566445 228.728435 
L 364.192048 230.866539 
L 370.817651 231.117756 
L 377.443254 232.107107 
L 384.068857 232.580346 
L 390.69446 233.404246 
" clip-path="url(#p34e907a9da)" style="fill: none; stroke: #c44e52; stroke-width: 1.5; stroke-linecap: round"/>
   </g>
   <g id="line2d_17"/>
   <g id="line2d_18"/>
   <g id="line2d_19"/>
   <g id="line2d_20"/>
   <g id="patch_3">
    <path d="M 49.807187 273.312 
L 49.807187 7.2 
" style="fill: none; stroke: #cccccc; stroke-width: 1.25; stroke-linejoin: miter; stroke-linecap: square"/>
   </g>
   <g id="patch_4">
    <path d="M 406.927188 273.312 
L 406.927188 7.2 
" style="fill: none; stroke: #cccccc; stroke-width: 1.25; stroke-linejoin: miter; stroke-linecap: square"/>
   </g>
   <g id="patch_5">
    <path d="M 49.807187 273.312 
L 406.927187 273.312 
" style="fill: none; stroke: #cccccc; stroke-width: 1.25; stroke-linejoin: miter; stroke-linecap: square"/>
   </g>
   <g id="patch_6">
    <path d="M 49.807187 7.2 
L 406.927187 7.2 
" style="fill: none; stroke: #cccccc; stroke-width: 1.25; stroke-linejoin: miter; stroke-linecap: square"/>
   </g>
   <g id="legend_1">
    <g id="patch_7">
     <path d="M 295.242813 97.6975 
L 399.227188 97.6975 
Q 401.427188 97.6975 401.427188 95.4975 
L 401.427188 14.9 
Q 401.427188 12.7 399.227188 12.7 
L 295.242813 12.7 
Q 293.042813 12.7 293.042813 14.9 
L 293.042813 95.4975 
Q 293.042813 97.6975 295.242813 97.6975 
z
" style="fill: #ffffff; opacity: 0.8; stroke: #cccccc; stroke-linejoin: miter"/>
    </g>
    <g id="text_15">
     <!-- Strategy -->
     <g style="fill: #262626" transform="translate(321.525937 26.218125) scale(0.12 -0.12)">
      <defs>
       <path id="DejaVuSans-53" d="M 3425 4513 
L 3425 3897 
Q 3066 4069 2747 4153 
Q 2428 4238 2131 4238 
Q 1616 4238 1336 4038 
Q 1056 3838 1056 3469 
Q 1056 3159 1242 3001 
Q 1428 2844 1947 2747 
L 2328 2669 
Q 3034 2534 3370 2195 
Q 3706 1856 3706 1288 
Q 3706 609 3251 259 
Q 2797 -91 1919 -91 
Q 1588 -91 1214 -16 
Q 841 59 441 206 
L 441 856 
Q 825 641 1194 531 
Q 1563 422 1919 422 
Q 2459 422 2753 634 
Q 3047 847 3047 1241 
Q 3047 1584 2836 1778 
Q 2625 1972 2144 2069 
L 1759 2144 
Q 1053 2284 737 2584 
Q 422 2884 422 3419 
Q 422 4038 858 4394 
Q 1294 4750 2059 4750 
Q 2388 4750 2728 4690 
Q 3069 4631 3425 4513 
z
" transform="scale(0.015625)"/>
       <path id="DejaVuSans-74" d="M 1172 4494 
L 1172 3500 
L 2356 3500 
L 2356 3053 
L 1172 3053 
L 1172 1153 
Q 1172 725 1289 603 
Q 1406 481 1766 481 
L 2356 481 
L 2356 0 
L 1766 0 
Q 1100 0 847 248 
Q 594 497 594 1153 
L 594 3053 
L 172 3053 
L 172 3500 
L 594 3500 
L 594 4494 
L 1172 4494 
z
" transform="scale(0.015625)"/>
       <path id="DejaVuSans-72" d="M 2631 2963 
Q 2534 3019 2420 3045 
Q 2306 3072 2169 3072 
Q 1681 3072 1420 2755 
Q 1159 2438 1159 1844 
L 1159 0 
L 581 0 
L 581 3500 
L 1159 3500 
L 1159 2956 
Q 1341 3275 1631 3429 
Q 1922 3584 2338 3584 
Q 2397 3584 2469 3576 
Q 2541 3569 2628 3553 
L 2631 2963 
z
" transform="scale(0.015625)"/>
       <path id="DejaVuSans-61" d="M 2194 1759 
Q 1497 1759 1228 1600 
Q 959 1441 959 1056 
Q 959 750 1161 570 
Q 1363 391 1709 391 
Q 2188 391 2477 730 
Q 2766 1069 2766 1631 
L 2766 1759 
L 2194 1759 
z
M 3341 1997 
L 3341 0 
L 2766 0 
L 2766 531 
Q 2569 213 2275 61 
Q 1981 -91 1556 -91 
Q 1019 -91 701 211 
Q 384 513 384 1019 
Q 384 1609 779 1909 
Q 1175 2209 1959 2209 
L 2766 2209 
L 2766 2266 
Q 2766 2663 2505 2880 
Q 2244 3097 1772 3097 
Q 1472 3097 1187 3025 
Q 903 2953 641 2809 
L 641 3341 
Q 956 3463 1253 3523 
Q 1550 3584 1831 3584 
Q 2591 3584 2966 3190 
Q 3341 2797 3341 1997 
z
" transform="scale(0.015625)"/>
       <path id="DejaVuSans-65" d="M 3597 1894 
L 3597 1613 
L 953 1613 
Q 991 1019 1311 708 
Q 1631 397 2203 397 
Q 2534 397 2845 478 
Q 3156 559 3463 722 
L 3463 178 
Q 3153 47 2828 -22 
Q 2503 -91 2169 -91 
Q 1331 -91 842 396 
Q 353 884 353 1716 
Q 353 2575 817 3079 
Q 1281 3584 2069 3584 
Q 2775 3584 3186 3129 
Q 3597 2675 3597 1894 
z
M 3022 2063 
Q 3016 2534 2758 2815 
Q 2500 3097 2075 3097 
Q 1594 3097 1305 2825 
Q 1016 2553 972 2059 
L 3022 2063 
z
" transform="scale(0.015625)"/>
       <path id="DejaVuSans-67" d="M 2906 1791 
Q 2906 2416 2648 2759 
Q 2391 3103 1925 3103 
Q 1463 3103 1205 2759 
Q 947 2416 947 1791 
Q 947 1169 1205 825 
Q 1463 481 1925 481 
Q 2391 481 2648 825 
Q 2906 1169 2906 1791 
z
M 3481 434 
Q 3481 -459 3084 -895 
Q 2688 -1331 1869 -1331 
Q 1566 -1331 1297 -1286 
Q 1028 -1241 775 -1147 
L 775 -588 
Q 1028 -725 1275 -790 
Q 1522 -856 1778 -856 
Q 2344 -856 2625 -561 
Q 2906 -266 2906 331 
L 2906 616 
Q 2728 306 2450 153 
Q 2172 0 1784 0 
Q 1141 0 747 490 
Q 353 981 353 1791 
Q 353 2603 747 3093 
Q 1141 3584 1784 3584 
Q 2172 3584 2450 3431 
Q 2728 3278 2906 2969 
L 2906 3500 
L 3481 3500 
L 3481 434 
z
" transform="scale(0.015625)"/>
       <path id="DejaVuSans-79" d="M 2059 -325 
Q 1816 -950 1584 -1140 
Q 1353 -1331 966 -1331 
L 506 -1331 
L 506 -850 
L 844 -850 
Q 1081 -850 1212 -737 
Q 1344 -625 1503 -206 
L 1606 56 
L 191 3500 
L 800 3500 
L 1894 763 
L 2988 3500 
L 3597 3500 
L 2059 -325 
z
" transform="scale(0.015625)"/>
      </defs>
      <use xlink:href="#DejaVuSans-53"/>
      <use xlink:href="#DejaVuSans-74" x="63.476562"/>
      <use xlink:href="#DejaVuSans-72" x="102.685547"/>
      <use xlink:href="#DejaVuSans-61" x="143.798828"/>
      <use xlink:href="#DejaVuSans-74" x="205.078125"/>
      <use xlink:href="#DejaVuSans-65" x="244.287109"/>
      <use xlink:href="#DejaVuSans-67" x="305.810547"/>
      <use xlink:href="#DejaVuSans-79" x="369.287109"/>
     </g>
    </g>
    <g id="line2d_21">
     <path d="M 297.442813 38.722031 
L 308.442813 38.722031 
L 319.442813 38.722031 
" style="fill: none; stroke: #4c72b0; stroke-width: 1.5; stroke-linecap: round"/>
    </g>
    <g id="text_16">
     <!-- FedPredict -->
     <g style="fill: #262626" transform="translate(328.242813 42.572031) scale(0.11 -0.11)">
      <defs>
       <path id="DejaVuSans-46" d="M 628 4666 
L 3309 4666 
L 3309 4134 
L 1259 4134 
L 1259 2759 
L 3109 2759 
L 3109 2228 
L 1259 2228 
L 1259 0 
L 628 0 
L 628 4666 
z
" transform="scale(0.015625)"/>
       <path id="DejaVuSans-50" d="M 1259 4147 
L 1259 2394 
L 2053 2394 
Q 2494 2394 2734 2622 
Q 2975 2850 2975 3272 
Q 2975 3691 2734 3919 
Q 2494 4147 2053 4147 
L 1259 4147 
z
M 628 4666 
L 2053 4666 
Q 2838 4666 3239 4311 
Q 3641 3956 3641 3272 
Q 3641 2581 3239 2228 
Q 2838 1875 2053 1875 
L 1259 1875 
L 1259 0 
L 628 0 
L 628 4666 
z
" transform="scale(0.015625)"/>
       <path id="DejaVuSans-69" d="M 603 3500 
L 1178 3500 
L 1178 0 
L 603 0 
L 603 3500 
z
M 603 4863 
L 1178 4863 
L 1178 4134 
L 603 4134 
L 603 4863 
z
" transform="scale(0.015625)"/>
       <path id="DejaVuSans-63" d="M 3122 3366 
L 3122 2828 
Q 2878 2963 2633 3030 
Q 2388 3097 2138 3097 
Q 1578 3097 1268 2742 
Q 959 2388 959 1747 
Q 959 1106 1268 751 
Q 1578 397 2138 397 
Q 2388 397 2633 464 
Q 2878 531 3122 666 
L 3122 134 
Q 2881 22 2623 -34 
Q 2366 -91 2075 -91 
Q 1284 -91 818 406 
Q 353 903 353 1747 
Q 353 2603 823 3093 
Q 1294 3584 2113 3584 
Q 2378 3584 2631 3529 
Q 2884 3475 3122 3366 
z
" transform="scale(0.015625)"/>
      </defs>
      <use xlink:href="#DejaVuSans-46"/>
      <use xlink:href="#DejaVuSans-65" x="52.019531"/>
      <use xlink:href="#DejaVuSans-64" x="113.542969"/>
      <use xlink:href="#DejaVuSans-50" x="177.019531"/>
      <use xlink:href="#DejaVuSans-72" x="235.572266"/>
      <use xlink:href="#DejaVuSans-65" x="274.435547"/>
      <use xlink:href="#DejaVuSans-64" x="335.958984"/>
      <use xlink:href="#DejaVuSans-69" x="399.435547"/>
      <use xlink:href="#DejaVuSans-63" x="427.21875"/>
      <use xlink:href="#DejaVuSans-74" x="482.199219"/>
     </g>
    </g>
    <g id="line2d_22">
     <path d="M 297.442813 54.867969 
L 308.442813 54.867969 
L 319.442813 54.867969 
" style="fill: none; stroke: #dd8452; stroke-width: 1.5; stroke-linecap: round"/>
    </g>
    <g id="text_17">
     <!-- FedAVG -->
     <g style="fill: #262626" transform="translate(328.242813 58.717969) scale(0.11 -0.11)">
      <defs>
       <path id="DejaVuSans-41" d="M 2188 4044 
L 1331 1722 
L 3047 1722 
L 2188 4044 
z
M 1831 4666 
L 2547 4666 
L 4325 0 
L 3669 0 
L 3244 1197 
L 1141 1197 
L 716 0 
L 50 0 
L 1831 4666 
z
" transform="scale(0.015625)"/>
       <path id="DejaVuSans-56" d="M 1831 0 
L 50 4666 
L 709 4666 
L 2188 738 
L 3669 4666 
L 4325 4666 
L 2547 0 
L 1831 0 
z
" transform="scale(0.015625)"/>
       <path id="DejaVuSans-47" d="M 3809 666 
L 3809 1919 
L 2778 1919 
L 2778 2438 
L 4434 2438 
L 4434 434 
Q 4069 175 3628 42 
Q 3188 -91 2688 -91 
Q 1594 -91 976 548 
Q 359 1188 359 2328 
Q 359 3472 976 4111 
Q 1594 4750 2688 4750 
Q 3144 4750 3555 4637 
Q 3966 4525 4313 4306 
L 4313 3634 
Q 3963 3931 3569 4081 
Q 3175 4231 2741 4231 
Q 1884 4231 1454 3753 
Q 1025 3275 1025 2328 
Q 1025 1384 1454 906 
Q 1884 428 2741 428 
Q 3075 428 3337 486 
Q 3600 544 3809 666 
z
" transform="scale(0.015625)"/>
      </defs>
      <use xlink:href="#DejaVuSans-46"/>
      <use xlink:href="#DejaVuSans-65" x="52.019531"/>
      <use xlink:href="#DejaVuSans-64" x="113.542969"/>
      <use xlink:href="#DejaVuSans-41" x="177.019531"/>
      <use xlink:href="#DejaVuSans-56" x="239.052734"/>
      <use xlink:href="#DejaVuSans-47" x="307.460938"/>
     </g>
    </g>
    <g id="line2d_23">
     <path d="M 297.442813 71.013906 
L 308.442813 71.013906 
L 319.442813 71.013906 
" style="fill: none; stroke: #55a868; stroke-width: 1.5; stroke-linecap: round"/>
    </g>
    <g id="text_18">
     <!-- FedClassAvg -->
     <g style="fill: #262626" transform="translate(328.242813 74.863906) scale(0.11 -0.11)">
      <defs>
       <path id="DejaVuSans-43" d="M 4122 4306 
L 4122 3641 
Q 3803 3938 3442 4084 
Q 3081 4231 2675 4231 
Q 1875 4231 1450 3742 
Q 1025 3253 1025 2328 
Q 1025 1406 1450 917 
Q 1875 428 2675 428 
Q 3081 428 3442 575 
Q 3803 722 4122 1019 
L 4122 359 
Q 3791 134 3420 21 
Q 3050 -91 2638 -91 
Q 1578 -91 968 557 
Q 359 1206 359 2328 
Q 359 3453 968 4101 
Q 1578 4750 2638 4750 
Q 3056 4750 3426 4639 
Q 3797 4528 4122 4306 
z
" transform="scale(0.015625)"/>
       <path id="DejaVuSans-6c" d="M 603 4863 
L 1178 4863 
L 1178 0 
L 603 0 
L 603 4863 
z
" transform="scale(0.015625)"/>
       <path id="DejaVuSans-76" d="M 191 3500 
L 800 3500 
L 1894 563 
L 2988 3500 
L 3597 3500 
L 2284 0 
L 1503 0 
L 191 3500 
z
" transform="scale(0.015625)"/>
      </defs>
      <use xlink:href="#DejaVuSans-46"/>
      <use xlink:href="#DejaVuSans-65" x="52.019531"/>
      <use xlink:href="#DejaVuSans-64" x="113.542969"/>
      <use xlink:href="#DejaVuSans-43" x="177.019531"/>
      <use xlink:href="#DejaVuSans-6c" x="246.84375"/>
      <use xlink:href="#DejaVuSans-61" x="274.626953"/>
      <use xlink:href="#DejaVuSans-73" x="335.90625"/>
      <use xlink:href="#DejaVuSans-73" x="388.005859"/>
      <use xlink:href="#DejaVuSans-41" x="440.105469"/>
      <use xlink:href="#DejaVuSans-76" x="502.638672"/>
      <use xlink:href="#DejaVuSans-67" x="561.818359"/>
     </g>
    </g>
    <g id="line2d_24">
     <path d="M 297.442813 87.159844 
L 308.442813 87.159844 
L 319.442813 87.159844 
" style="fill: none; stroke: #c44e52; stroke-width: 1.5; stroke-linecap: round"/>
    </g>
    <g id="text_19">
     <!-- FedPer -->
     <g style="fill: #262626" transform="translate(328.242813 91.009844) scale(0.11 -0.11)">
      <use xlink:href="#DejaVuSans-46"/>
      <use xlink:href="#DejaVuSans-65" x="52.019531"/>
      <use xlink:href="#DejaVuSans-64" x="113.542969"/>
      <use xlink:href="#DejaVuSans-50" x="177.019531"/>
      <use xlink:href="#DejaVuSans-65" x="233.697266"/>
      <use xlink:href="#DejaVuSans-72" x="295.220703"/>
     </g>
    </g>
   </g>
  </g>
 </g>
 <defs>
  <clipPath id="p34e907a9da">
   <rect x="49.807187" y="7.2" width="357.12" height="266.112"/>
  </clipPath>
 </defs>
</svg>
