<?xml version="1.0" encoding="utf-8" standalone="no"?>
<!DOCTYPE svg PUBLIC "-//W3C//DTD SVG 1.1//EN"
  "http://www.w3.org/Graphics/SVG/1.1/DTD/svg11.dtd">
<svg xmlns:xlink="http://www.w3.org/1999/xlink" width="410.63125pt" height="316.271687pt" viewBox="0 0 410.63125 316.271687" xmlns="http://www.w3.org/2000/svg" version="1.1">
 <metadata>
  <rdf:RDF xmlns:dc="http://purl.org/dc/elements/1.1/" xmlns:cc="http://creativecommons.org/ns#" xmlns:rdf="http://www.w3.org/1999/02/22-rdf-syntax-ns#">
   <cc:Work>
    <dc:type rdf:resource="http://purl.org/dc/dcmitype/StillImage"/>
    <dc:date>2023-02-10T18:08:04.557652</dc:date>
    <dc:format>image/svg+xml</dc:format>
    <dc:creator>
     <cc:Agent>
      <dc:title>Matplotlib v3.6.3, https://matplotlib.org/</dc:title>
     </cc:Agent>
    </dc:creator>
   </cc:Work>
  </rdf:RDF>
 </metadata>
 <defs>
  <style type="text/css">*{stroke-linejoin: round; stroke-linecap: butt}</style>
 </defs>
 <g id="figure_1">
  <g id="patch_1">
   <path d="M 0 316.271687 
L 410.63125 316.271687 
L 410.63125 0 
L 0 0 
z
" style="fill: #ffffff"/>
  </g>
  <g id="axes_1">
   <g id="patch_2">
    <path d="M 46.31125 273.312 
L 403.43125 273.312 
L 403.43125 7.2 
L 46.31125 7.2 
z
" style="fill: #ffffff"/>
   </g>
   <g id="matplotlib.axis_1">
    <g id="xtick_1">
     <g id="line2d_1">
      <path d="M 59.264638 273.312 
L 59.264638 7.2 
" clip-path="url(#pe3d1dbf370)" style="fill: none; stroke: #cccccc; stroke-linecap: round"/>
     </g>
     <g id="text_1">
      <!-- 0 -->
      <g style="fill: #262626" transform="translate(55.765263 291.170281) scale(0.11 -0.11)">
       <defs>
        <path id="DejaVuSans-30" d="M 2034 4250 
Q 1547 4250 1301 3770 
Q 1056 3291 1056 2328 
Q 1056 1369 1301 889 
Q 1547 409 2034 409 
Q 2525 409 2770 889 
Q 3016 1369 3016 2328 
Q 3016 3291 2770 3770 
Q 2525 4250 2034 4250 
z
M 2034 4750 
Q 2819 4750 3233 4129 
Q 3647 3509 3647 2328 
Q 3647 1150 3233 529 
Q 2819 -91 2034 -91 
Q 1250 -91 836 529 
Q 422 1150 422 2328 
Q 422 3509 836 4129 
Q 1250 4750 2034 4750 
z
" transform="scale(0.015625)"/>
       </defs>
       <use xlink:href="#DejaVuSans-30"/>
      </g>
     </g>
    </g>
    <g id="xtick_2">
     <g id="line2d_2">
      <path d="M 124.851415 273.312 
L 124.851415 7.2 
" clip-path="url(#pe3d1dbf370)" style="fill: none; stroke: #cccccc; stroke-linecap: round"/>
     </g>
     <g id="text_2">
      <!-- 20 -->
      <g style="fill: #262626" transform="translate(117.852665 291.170281) scale(0.11 -0.11)">
       <defs>
        <path id="DejaVuSans-32" d="M 1228 531 
L 3431 531 
L 3431 0 
L 469 0 
L 469 531 
Q 828 903 1448 1529 
Q 2069 2156 2228 2338 
Q 2531 2678 2651 2914 
Q 2772 3150 2772 3378 
Q 2772 3750 2511 3984 
Q 2250 4219 1831 4219 
Q 1534 4219 1204 4116 
Q 875 4013 500 3803 
L 500 4441 
Q 881 4594 1212 4672 
Q 1544 4750 1819 4750 
Q 2544 4750 2975 4387 
Q 3406 4025 3406 3419 
Q 3406 3131 3298 2873 
Q 3191 2616 2906 2266 
Q 2828 2175 2409 1742 
Q 1991 1309 1228 531 
z
" transform="scale(0.015625)"/>
       </defs>
       <use xlink:href="#DejaVuSans-32"/>
       <use xlink:href="#DejaVuSans-30" x="63.623047"/>
      </g>
     </g>
    </g>
    <g id="xtick_3">
     <g id="line2d_3">
      <path d="M 190.438192 273.312 
L 190.438192 7.2 
" clip-path="url(#pe3d1dbf370)" style="fill: none; stroke: #cccccc; stroke-linecap: round"/>
     </g>
     <g id="text_3">
      <!-- 40 -->
      <g style="fill: #262626" transform="translate(183.439442 291.170281) scale(0.11 -0.11)">
       <defs>
        <path id="DejaVuSans-34" d="M 2419 4116 
L 825 1625 
L 2419 1625 
L 2419 4116 
z
M 2253 4666 
L 3047 4666 
L 3047 1625 
L 3713 1625 
L 3713 1100 
L 3047 1100 
L 3047 0 
L 2419 0 
L 2419 1100 
L 313 1100 
L 313 1709 
L 2253 4666 
z
" transform="scale(0.015625)"/>
       </defs>
       <use xlink:href="#DejaVuSans-34"/>
       <use xlink:href="#DejaVuSans-30" x="63.623047"/>
      </g>
     </g>
    </g>
    <g id="xtick_4">
     <g id="line2d_4">
      <path d="M 256.024969 273.312 
L 256.024969 7.2 
" clip-path="url(#pe3d1dbf370)" style="fill: none; stroke: #cccccc; stroke-linecap: round"/>
     </g>
     <g id="text_4">
      <!-- 60 -->
      <g style="fill: #262626" transform="translate(249.026219 291.170281) scale(0.11 -0.11)">
       <defs>
        <path id="DejaVuSans-36" d="M 2113 2584 
Q 1688 2584 1439 2293 
Q 1191 2003 1191 1497 
Q 1191 994 1439 701 
Q 1688 409 2113 409 
Q 2538 409 2786 701 
Q 3034 994 3034 1497 
Q 3034 2003 2786 2293 
Q 2538 2584 2113 2584 
z
M 3366 4563 
L 3366 3988 
Q 3128 4100 2886 4159 
Q 2644 4219 2406 4219 
Q 1781 4219 1451 3797 
Q 1122 3375 1075 2522 
Q 1259 2794 1537 2939 
Q 1816 3084 2150 3084 
Q 2853 3084 3261 2657 
Q 3669 2231 3669 1497 
Q 3669 778 3244 343 
Q 2819 -91 2113 -91 
Q 1303 -91 875 529 
Q 447 1150 447 2328 
Q 447 3434 972 4092 
Q 1497 4750 2381 4750 
Q 2619 4750 2861 4703 
Q 3103 4656 3366 4563 
z
" transform="scale(0.015625)"/>
       </defs>
       <use xlink:href="#DejaVuSans-36"/>
       <use xlink:href="#DejaVuSans-30" x="63.623047"/>
      </g>
     </g>
    </g>
    <g id="xtick_5">
     <g id="line2d_5">
      <path d="M 321.611746 273.312 
L 321.611746 7.2 
" clip-path="url(#pe3d1dbf370)" style="fill: none; stroke: #cccccc; stroke-linecap: round"/>
     </g>
     <g id="text_5">
      <!-- 80 -->
      <g style="fill: #262626" transform="translate(314.612996 291.170281) scale(0.11 -0.11)">
       <defs>
        <path id="DejaVuSans-38" d="M 2034 2216 
Q 1584 2216 1326 1975 
Q 1069 1734 1069 1313 
Q 1069 891 1326 650 
Q 1584 409 2034 409 
Q 2484 409 2743 651 
Q 3003 894 3003 1313 
Q 3003 1734 2745 1975 
Q 2488 2216 2034 2216 
z
M 1403 2484 
Q 997 2584 770 2862 
Q 544 3141 544 3541 
Q 544 4100 942 4425 
Q 1341 4750 2034 4750 
Q 2731 4750 3128 4425 
Q 3525 4100 3525 3541 
Q 3525 3141 3298 2862 
Q 3072 2584 2669 2484 
Q 3125 2378 3379 2068 
Q 3634 1759 3634 1313 
Q 3634 634 3220 271 
Q 2806 -91 2034 -91 
Q 1263 -91 848 271 
Q 434 634 434 1313 
Q 434 1759 690 2068 
Q 947 2378 1403 2484 
z
M 1172 3481 
Q 1172 3119 1398 2916 
Q 1625 2713 2034 2713 
Q 2441 2713 2670 2916 
Q 2900 3119 2900 3481 
Q 2900 3844 2670 4047 
Q 2441 4250 2034 4250 
Q 1625 4250 1398 4047 
Q 1172 3844 1172 3481 
z
" transform="scale(0.015625)"/>
       </defs>
       <use xlink:href="#DejaVuSans-38"/>
       <use xlink:href="#DejaVuSans-30" x="63.623047"/>
      </g>
     </g>
    </g>
    <g id="xtick_6">
     <g id="line2d_6">
      <path d="M 387.198523 273.312 
L 387.198523 7.2 
" clip-path="url(#pe3d1dbf370)" style="fill: none; stroke: #cccccc; stroke-linecap: round"/>
     </g>
     <g id="text_6">
      <!-- 100 -->
      <g style="fill: #262626" transform="translate(376.700398 291.170281) scale(0.11 -0.11)">
       <defs>
        <path id="DejaVuSans-31" d="M 794 531 
L 1825 531 
L 1825 4091 
L 703 3866 
L 703 4441 
L 1819 4666 
L 2450 4666 
L 2450 531 
L 3481 531 
L 3481 0 
L 794 0 
L 794 531 
z
" transform="scale(0.015625)"/>
       </defs>
       <use xlink:href="#DejaVuSans-31"/>
       <use xlink:href="#DejaVuSans-30" x="63.623047"/>
       <use xlink:href="#DejaVuSans-30" x="127.246094"/>
      </g>
     </g>
    </g>
    <g id="text_7">
     <!-- Server round -->
     <g style="fill: #262626" transform="translate(185.870313 306.576062) scale(0.12 -0.12)">
      <defs>
       <path id="DejaVuSans-53" d="M 3425 4513 
L 3425 3897 
Q 3066 4069 2747 4153 
Q 2428 4238 2131 4238 
Q 1616 4238 1336 4038 
Q 1056 3838 1056 3469 
Q 1056 3159 1242 3001 
Q 1428 2844 1947 2747 
L 2328 2669 
Q 3034 2534 3370 2195 
Q 3706 1856 3706 1288 
Q 3706 609 3251 259 
Q 2797 -91 1919 -91 
Q 1588 -91 1214 -16 
Q 841 59 441 206 
L 441 856 
Q 825 641 1194 531 
Q 1563 422 1919 422 
Q 2459 422 2753 634 
Q 3047 847 3047 1241 
Q 3047 1584 2836 1778 
Q 2625 1972 2144 2069 
L 1759 2144 
Q 1053 2284 737 2584 
Q 422 2884 422 3419 
Q 422 4038 858 4394 
Q 1294 4750 2059 4750 
Q 2388 4750 2728 4690 
Q 3069 4631 3425 4513 
z
" transform="scale(0.015625)"/>
       <path id="DejaVuSans-65" d="M 3597 1894 
L 3597 1613 
L 953 1613 
Q 991 1019 1311 708 
Q 1631 397 2203 397 
Q 2534 397 2845 478 
Q 3156 559 3463 722 
L 3463 178 
Q 3153 47 2828 -22 
Q 2503 -91 2169 -91 
Q 1331 -91 842 396 
Q 353 884 353 1716 
Q 353 2575 817 3079 
Q 1281 3584 2069 3584 
Q 2775 3584 3186 3129 
Q 3597 2675 3597 1894 
z
M 3022 2063 
Q 3016 2534 2758 2815 
Q 2500 3097 2075 3097 
Q 1594 3097 1305 2825 
Q 1016 2553 972 2059 
L 3022 2063 
z
" transform="scale(0.015625)"/>
       <path id="DejaVuSans-72" d="M 2631 2963 
Q 2534 3019 2420 3045 
Q 2306 3072 2169 3072 
Q 1681 3072 1420 2755 
Q 1159 2438 1159 1844 
L 1159 0 
L 581 0 
L 581 3500 
L 1159 3500 
L 1159 2956 
Q 1341 3275 1631 3429 
Q 1922 3584 2338 3584 
Q 2397 3584 2469 3576 
Q 2541 3569 2628 3553 
L 2631 2963 
z
" transform="scale(0.015625)"/>
       <path id="DejaVuSans-76" d="M 191 3500 
L 800 3500 
L 1894 563 
L 2988 3500 
L 3597 3500 
L 2284 0 
L 1503 0 
L 191 3500 
z
" transform="scale(0.015625)"/>
       <path id="DejaVuSans-20" transform="scale(0.015625)"/>
       <path id="DejaVuSans-6f" d="M 1959 3097 
Q 1497 3097 1228 2736 
Q 959 2375 959 1747 
Q 959 1119 1226 758 
Q 1494 397 1959 397 
Q 2419 397 2687 759 
Q 2956 1122 2956 1747 
Q 2956 2369 2687 2733 
Q 2419 3097 1959 3097 
z
M 1959 3584 
Q 2709 3584 3137 3096 
Q 3566 2609 3566 1747 
Q 3566 888 3137 398 
Q 2709 -91 1959 -91 
Q 1206 -91 779 398 
Q 353 888 353 1747 
Q 353 2609 779 3096 
Q 1206 3584 1959 3584 
z
" transform="scale(0.015625)"/>
       <path id="DejaVuSans-75" d="M 544 1381 
L 544 3500 
L 1119 3500 
L 1119 1403 
Q 1119 906 1312 657 
Q 1506 409 1894 409 
Q 2359 409 2629 706 
Q 2900 1003 2900 1516 
L 2900 3500 
L 3475 3500 
L 3475 0 
L 2900 0 
L 2900 538 
Q 2691 219 2414 64 
Q 2138 -91 1772 -91 
Q 1169 -91 856 284 
Q 544 659 544 1381 
z
M 1991 3584 
L 1991 3584 
z
" transform="scale(0.015625)"/>
       <path id="DejaVuSans-6e" d="M 3513 2113 
L 3513 0 
L 2938 0 
L 2938 2094 
Q 2938 2591 2744 2837 
Q 2550 3084 2163 3084 
Q 1697 3084 1428 2787 
Q 1159 2491 1159 1978 
L 1159 0 
L 581 0 
L 581 3500 
L 1159 3500 
L 1159 2956 
Q 1366 3272 1645 3428 
Q 1925 3584 2291 3584 
Q 2894 3584 3203 3211 
Q 3513 2838 3513 2113 
z
" transform="scale(0.015625)"/>
       <path id="DejaVuSans-64" d="M 2906 2969 
L 2906 4863 
L 3481 4863 
L 3481 0 
L 2906 0 
L 2906 525 
Q 2725 213 2448 61 
Q 2172 -91 1784 -91 
Q 1150 -91 751 415 
Q 353 922 353 1747 
Q 353 2572 751 3078 
Q 1150 3584 1784 3584 
Q 2172 3584 2448 3432 
Q 2725 3281 2906 2969 
z
M 947 1747 
Q 947 1113 1208 752 
Q 1469 391 1925 391 
Q 2381 391 2643 752 
Q 2906 1113 2906 1747 
Q 2906 2381 2643 2742 
Q 2381 3103 1925 3103 
Q 1469 3103 1208 2742 
Q 947 2381 947 1747 
z
" transform="scale(0.015625)"/>
      </defs>
      <use xlink:href="#DejaVuSans-53"/>
      <use xlink:href="#DejaVuSans-65" x="63.476562"/>
      <use xlink:href="#DejaVuSans-72" x="125"/>
      <use xlink:href="#DejaVuSans-76" x="166.113281"/>
      <use xlink:href="#DejaVuSans-65" x="225.292969"/>
      <use xlink:href="#DejaVuSans-72" x="286.816406"/>
      <use xlink:href="#DejaVuSans-20" x="327.929688"/>
      <use xlink:href="#DejaVuSans-72" x="359.716797"/>
      <use xlink:href="#DejaVuSans-6f" x="398.580078"/>
      <use xlink:href="#DejaVuSans-75" x="459.761719"/>
      <use xlink:href="#DejaVuSans-6e" x="523.140625"/>
      <use xlink:href="#DejaVuSans-64" x="586.519531"/>
     </g>
    </g>
   </g>
   <g id="matplotlib.axis_2">
    <g id="ytick_1">
     <g id="line2d_7">
      <path d="M 46.31125 233.518419 
L 403.43125 233.518419 
" clip-path="url(#pe3d1dbf370)" style="fill: none; stroke: #cccccc; stroke-linecap: round"/>
     </g>
     <g id="text_8">
      <!-- 4 -->
      <g style="fill: #262626" transform="translate(29.8125 237.697559) scale(0.11 -0.11)">
       <use xlink:href="#DejaVuSans-34"/>
      </g>
     </g>
    </g>
    <g id="ytick_2">
     <g id="line2d_8">
      <path d="M 46.31125 174.976264 
L 403.43125 174.976264 
" clip-path="url(#pe3d1dbf370)" style="fill: none; stroke: #cccccc; stroke-linecap: round"/>
     </g>
     <g id="text_9">
      <!-- 6 -->
      <g style="fill: #262626" transform="translate(29.8125 179.155405) scale(0.11 -0.11)">
       <use xlink:href="#DejaVuSans-36"/>
      </g>
     </g>
    </g>
    <g id="ytick_3">
     <g id="line2d_9">
      <path d="M 46.31125 116.434109 
L 403.43125 116.434109 
" clip-path="url(#pe3d1dbf370)" style="fill: none; stroke: #cccccc; stroke-linecap: round"/>
     </g>
     <g id="text_10">
      <!-- 8 -->
      <g style="fill: #262626" transform="translate(29.8125 120.61325) scale(0.11 -0.11)">
       <use xlink:href="#DejaVuSans-38"/>
      </g>
     </g>
    </g>
    <g id="ytick_4">
     <g id="line2d_10">
      <path d="M 46.31125 57.891955 
L 403.43125 57.891955 
" clip-path="url(#pe3d1dbf370)" style="fill: none; stroke: #cccccc; stroke-linecap: round"/>
     </g>
     <g id="text_11">
      <!-- 10 -->
      <g style="fill: #262626" transform="translate(22.81375 62.071095) scale(0.11 -0.11)">
       <use xlink:href="#DejaVuSans-31"/>
       <use xlink:href="#DejaVuSans-30" x="63.623047"/>
      </g>
     </g>
    </g>
    <g id="text_12">
     <!-- Time (seconds) -->
     <g style="fill: #262626" transform="translate(16.318125 186.050062) rotate(-90) scale(0.12 -0.12)">
      <defs>
       <path id="DejaVuSans-54" d="M -19 4666 
L 3928 4666 
L 3928 4134 
L 2272 4134 
L 2272 0 
L 1638 0 
L 1638 4134 
L -19 4134 
L -19 4666 
z
" transform="scale(0.015625)"/>
       <path id="DejaVuSans-69" d="M 603 3500 
L 1178 3500 
L 1178 0 
L 603 0 
L 603 3500 
z
M 603 4863 
L 1178 4863 
L 1178 4134 
L 603 4134 
L 603 4863 
z
" transform="scale(0.015625)"/>
       <path id="DejaVuSans-6d" d="M 3328 2828 
Q 3544 3216 3844 3400 
Q 4144 3584 4550 3584 
Q 5097 3584 5394 3201 
Q 5691 2819 5691 2113 
L 5691 0 
L 5113 0 
L 5113 2094 
Q 5113 2597 4934 2840 
Q 4756 3084 4391 3084 
Q 3944 3084 3684 2787 
Q 3425 2491 3425 1978 
L 3425 0 
L 2847 0 
L 2847 2094 
Q 2847 2600 2669 2842 
Q 2491 3084 2119 3084 
Q 1678 3084 1418 2786 
Q 1159 2488 1159 1978 
L 1159 0 
L 581 0 
L 581 3500 
L 1159 3500 
L 1159 2956 
Q 1356 3278 1631 3431 
Q 1906 3584 2284 3584 
Q 2666 3584 2933 3390 
Q 3200 3197 3328 2828 
z
" transform="scale(0.015625)"/>
       <path id="DejaVuSans-28" d="M 1984 4856 
Q 1566 4138 1362 3434 
Q 1159 2731 1159 2009 
Q 1159 1288 1364 580 
Q 1569 -128 1984 -844 
L 1484 -844 
Q 1016 -109 783 600 
Q 550 1309 550 2009 
Q 550 2706 781 3412 
Q 1013 4119 1484 4856 
L 1984 4856 
z
" transform="scale(0.015625)"/>
       <path id="DejaVuSans-73" d="M 2834 3397 
L 2834 2853 
Q 2591 2978 2328 3040 
Q 2066 3103 1784 3103 
Q 1356 3103 1142 2972 
Q 928 2841 928 2578 
Q 928 2378 1081 2264 
Q 1234 2150 1697 2047 
L 1894 2003 
Q 2506 1872 2764 1633 
Q 3022 1394 3022 966 
Q 3022 478 2636 193 
Q 2250 -91 1575 -91 
Q 1294 -91 989 -36 
Q 684 19 347 128 
L 347 722 
Q 666 556 975 473 
Q 1284 391 1588 391 
Q 1994 391 2212 530 
Q 2431 669 2431 922 
Q 2431 1156 2273 1281 
Q 2116 1406 1581 1522 
L 1381 1569 
Q 847 1681 609 1914 
Q 372 2147 372 2553 
Q 372 3047 722 3315 
Q 1072 3584 1716 3584 
Q 2034 3584 2315 3537 
Q 2597 3491 2834 3397 
z
" transform="scale(0.015625)"/>
       <path id="DejaVuSans-63" d="M 3122 3366 
L 3122 2828 
Q 2878 2963 2633 3030 
Q 2388 3097 2138 3097 
Q 1578 3097 1268 2742 
Q 959 2388 959 1747 
Q 959 1106 1268 751 
Q 1578 397 2138 397 
Q 2388 397 2633 464 
Q 2878 531 3122 666 
L 3122 134 
Q 2881 22 2623 -34 
Q 2366 -91 2075 -91 
Q 1284 -91 818 406 
Q 353 903 353 1747 
Q 353 2603 823 3093 
Q 1294 3584 2113 3584 
Q 2378 3584 2631 3529 
Q 2884 3475 3122 3366 
z
" transform="scale(0.015625)"/>
       <path id="DejaVuSans-29" d="M 513 4856 
L 1013 4856 
Q 1481 4119 1714 3412 
Q 1947 2706 1947 2009 
Q 1947 1309 1714 600 
Q 1481 -109 1013 -844 
L 513 -844 
Q 928 -128 1133 580 
Q 1338 1288 1338 2009 
Q 1338 2731 1133 3434 
Q 928 4138 513 4856 
z
" transform="scale(0.015625)"/>
      </defs>
      <use xlink:href="#DejaVuSans-54"/>
      <use xlink:href="#DejaVuSans-69" x="57.958984"/>
      <use xlink:href="#DejaVuSans-6d" x="85.742188"/>
      <use xlink:href="#DejaVuSans-65" x="183.154297"/>
      <use xlink:href="#DejaVuSans-20" x="244.677734"/>
      <use xlink:href="#DejaVuSans-28" x="276.464844"/>
      <use xlink:href="#DejaVuSans-73" x="315.478516"/>
      <use xlink:href="#DejaVuSans-65" x="367.578125"/>
      <use xlink:href="#DejaVuSans-63" x="429.101562"/>
      <use xlink:href="#DejaVuSans-6f" x="484.082031"/>
      <use xlink:href="#DejaVuSans-6e" x="545.263672"/>
      <use xlink:href="#DejaVuSans-64" x="608.642578"/>
      <use xlink:href="#DejaVuSans-73" x="672.119141"/>
      <use xlink:href="#DejaVuSans-29" x="724.21875"/>
     </g>
    </g>
   </g>
   <g id="PolyCollection_1"/>
   <g id="PolyCollection_2"/>
   <g id="PolyCollection_3"/>
   <g id="PolyCollection_4"/>
   <g id="PolyCollection_5"/>
   <g id="line2d_11">
    <path d="M 62.543977 66.923989 
L 65.823316 196.650226 
L 69.102655 192.884308 
L 72.381994 189.2972 
L 75.661333 190.769015 
L 78.940671 196.547038 
L 82.22001 185.364377 
L 85.499349 177.634351 
L 88.778688 181.083049 
L 92.058027 190.254163 
L 95.337366 178.303685 
L 98.616705 185.437187 
L 101.896043 179.88409 
L 105.175382 190.427237 
L 108.454721 184.698205 
L 111.73406 195.640405 
L 115.013399 186.931481 
L 118.292738 184.000628 
L 121.572076 180.251787 
L 124.851415 181.448158 
L 128.130754 180.895823 
L 131.410093 189.892126 
L 134.689432 187.415263 
L 137.968771 181.066873 
L 141.24811 185.860638 
L 144.527448 183.260258 
L 147.806787 183.893602 
L 151.086126 193.173075 
L 154.365465 184.7677 
L 157.644804 189.393311 
L 160.924143 182.843653 
L 164.203481 192.281635 
L 167.48282 186.247708 
L 170.762159 185.145698 
L 174.041498 191.38679 
L 177.320837 180.015765 
L 180.600176 182.435207 
L 183.879514 183.864075 
L 187.158853 183.404293 
L 190.438192 186.621568 
L 193.717531 197.986688 
L 196.99687 190.135175 
L 200.276209 195.73593 
L 203.555548 184.816816 
L 206.834886 194.321892 
L 210.114225 183.989658 
L 213.393564 179.667434 
L 216.672903 181.412817 
L 219.952242 182.161297 
L 223.231581 189.064723 
L 226.510919 183.510621 
L 229.790258 184.084436 
L 233.069597 188.017573 
L 236.348936 198.910656 
L 239.628275 179.934679 
L 242.907614 185.760199 
L 246.186952 183.268228 
L 249.466291 181.084592 
L 252.74563 189.158085 
L 256.024969 195.622379 
L 259.304308 189.286494 
L 262.583647 184.297938 
L 265.862986 185.354635 
L 269.142324 185.130889 
L 272.421663 185.214166 
L 275.701002 196.350432 
L 278.980341 197.192685 
L 282.25968 185.424172 
L 285.539019 188.284364 
L 288.818357 194.16048 
L 292.097696 182.212263 
L 295.377035 193.590273 
L 298.656374 186.546071 
L 301.935713 180.369114 
L 305.215052 182.719975 
L 308.49439 180.776284 
L 311.773729 184.799642 
L 315.053068 181.331947 
L 318.332407 192.803612 
L 321.611746 181.015076 
L 324.891085 190.28413 
L 328.170424 182.303343 
L 331.449762 181.467838 
L 334.729101 177.940028 
L 338.00844 180.832595 
L 341.287779 180.627008 
L 344.567118 181.667591 
L 347.846457 177.975885 
L 351.125795 190.390556 
L 354.405134 188.238465 
L 357.684473 179.60316 
L 360.963812 187.27582 
L 364.243151 185.436573 
L 367.52249 190.085668 
L 370.801829 185.161749 
L 374.081167 180.874342 
L 377.360506 180.614069 
L 380.639845 193.189566 
L 383.919184 183.47535 
L 387.198523 186.535038 
" clip-path="url(#pe3d1dbf370)" style="fill: none; stroke: #4c72b0; stroke-width: 1.5; stroke-linecap: round"/>
   </g>
   <g id="line2d_12">
    <path d="M 62.543977 27.930998 
L 65.823316 198.830254 
L 69.102655 196.232309 
L 72.381994 197.026416 
L 75.661333 198.711091 
L 78.940671 202.93206 
L 82.22001 196.355247 
L 85.499349 186.165079 
L 88.778688 189.256513 
L 92.058027 204.942908 
L 95.337366 190.513557 
L 98.616705 193.883905 
L 101.896043 194.667313 
L 105.175382 196.182907 
L 108.454721 196.147789 
L 111.73406 207.107031 
L 115.013399 199.413225 
L 118.292738 194.26863 
L 121.572076 188.264335 
L 124.851415 190.597386 
L 128.130754 189.824236 
L 131.410093 202.769287 
L 134.689432 198.234476 
L 137.968771 193.657283 
L 141.24811 191.06428 
L 144.527448 194.390633 
L 147.806787 190.739397 
L 151.086126 201.887757 
L 154.365465 197.167653 
L 157.644804 197.820202 
L 160.924143 184.752256 
L 164.203481 201.970029 
L 167.48282 198.165121 
L 170.762159 197.903969 
L 174.041498 204.46764 
L 177.320837 193.751015 
L 180.600176 193.258788 
L 183.879514 187.864898 
L 187.158853 187.068244 
L 190.438192 198.722418 
L 193.717531 205.505243 
L 196.99687 203.126153 
L 200.276209 201.82455 
L 203.555548 201.203914 
L 206.834886 202.701593 
L 210.114225 185.23832 
L 213.393564 196.684115 
L 216.672903 193.304569 
L 219.952242 194.882259 
L 223.231581 198.495322 
L 226.510919 192.337026 
L 229.790258 193.156584 
L 233.069597 195.840619 
L 236.348936 213.518021 
L 239.628275 191.502805 
L 242.907614 197.196684 
L 246.186952 192.297679 
L 249.466291 192.192265 
L 252.74563 200.872576 
L 256.024969 201.902412 
L 259.304308 202.157123 
L 262.583647 193.855285 
L 265.862986 191.816172 
L 269.142324 188.823969 
L 272.421663 198.777396 
L 275.701002 205.233483 
L 278.980341 203.913812 
L 282.25968 193.470182 
L 285.539019 197.460161 
L 288.818357 207.149637 
L 292.097696 187.69186 
L 295.377035 200.397518 
L 298.656374 196.666172 
L 301.935713 197.979925 
L 305.215052 191.74316 
L 308.49439 189.043808 
L 311.773729 197.548693 
L 315.053068 190.620032 
L 318.332407 201.149354 
L 321.611746 190.68661 
L 324.891085 198.084258 
L 328.170424 193.228326 
L 331.449762 193.181024 
L 334.729101 189.648769 
L 338.00844 194.559533 
L 341.287779 198.026139 
L 344.567118 188.173206 
L 347.846457 185.002996 
L 351.125795 204.073054 
L 354.405134 199.642861 
L 357.684473 179.632687 
L 360.963812 197.640778 
L 364.243151 196.524775 
L 367.52249 202.030333 
L 370.801829 195.379685 
L 374.081167 190.808557 
L 377.360506 193.466979 
L 380.639845 200.210766 
L 383.919184 193.023632 
L 387.198523 194.322109 
" clip-path="url(#pe3d1dbf370)" style="fill: none; stroke: #dd8452; stroke-width: 1.5; stroke-linecap: round"/>
   </g>
   <g id="line2d_13">
    <path d="M 62.543977 19.296 
L 65.823316 195.013474 
L 69.102655 186.716353 
L 72.381994 187.680505 
L 75.661333 188.907212 
L 78.940671 195.665068 
L 82.22001 186.57384 
L 85.499349 182.532749 
L 88.778688 183.27515 
L 92.058027 190.39861 
L 95.337366 179.719782 
L 98.616705 187.984598 
L 101.896043 182.405721 
L 105.175382 191.205537 
L 108.454721 187.934867 
L 111.73406 194.217336 
L 115.013399 188.706217 
L 118.292738 183.710179 
L 121.572076 182.452395 
L 124.851415 179.365547 
L 128.130754 182.057299 
L 131.410093 195.617159 
L 134.689432 191.621241 
L 137.968771 182.042281 
L 141.24811 181.810879 
L 144.527448 183.183903 
L 147.806787 182.935054 
L 151.086126 192.069599 
L 154.365465 179.342042 
L 157.644804 192.221227 
L 160.924143 182.464015 
L 164.203481 192.134697 
L 167.48282 191.507599 
L 170.762159 186.02452 
L 174.041498 194.862956 
L 177.320837 185.687411 
L 180.600176 182.601937 
L 183.879514 182.749426 
L 187.158853 186.852991 
L 190.438192 191.906492 
L 193.717531 193.001802 
L 196.99687 189.35349 
L 200.276209 193.769202 
L 203.555548 190.628902 
L 206.834886 195.13293 
L 210.114225 183.166044 
L 213.393564 184.696949 
L 216.672903 182.631896 
L 219.952242 183.499385 
L 223.231581 191.379923 
L 226.510919 186.39817 
L 229.790258 181.787786 
L 233.069597 185.72615 
L 236.348936 203.104031 
L 239.628275 181.858453 
L 242.907614 187.421621 
L 246.186952 182.205703 
L 249.466291 183.415152 
L 252.74563 191.250906 
L 256.024969 196.279632 
L 259.304308 188.581457 
L 262.583647 183.876762 
L 265.862986 185.033026 
L 269.142324 183.102949 
L 272.421663 188.996038 
L 275.701002 193.610204 
L 278.980341 196.565231 
L 282.25968 188.09644 
L 285.539019 184.111172 
L 288.818357 195.828329 
L 292.097696 179.099523 
L 295.377035 191.439535 
L 298.656374 187.652723 
L 301.935713 186.423852 
L 305.215052 180.225205 
L 308.49439 185.297961 
L 311.773729 185.570893 
L 315.053068 181.910375 
L 318.332407 193.512397 
L 321.611746 184.749366 
L 324.891085 188.722721 
L 328.170424 179.191461 
L 331.449762 184.049682 
L 334.729101 181.803698 
L 338.00844 181.559734 
L 341.287779 186.037138 
L 344.567118 182.121372 
L 347.846457 178.423099 
L 351.125795 193.32464 
L 354.405134 191.531557 
L 357.684473 180.368186 
L 360.963812 189.574061 
L 364.243151 186.214098 
L 367.52249 194.271408 
L 370.801829 189.177493 
L 374.081167 181.4409 
L 377.360506 181.410151 
L 380.639845 195.017187 
L 383.919184 182.876481 
L 387.198523 187.703382 
" clip-path="url(#pe3d1dbf370)" style="fill: none; stroke: #55a868; stroke-width: 1.5; stroke-linecap: round"/>
   </g>
   <g id="line2d_14">
    <path d="M 62.543977 36.726417 
L 65.823316 202.817413 
L 69.102655 199.572487 
L 72.381994 199.602454 
L 75.661333 198.491811 
L 78.940671 206.335829 
L 82.22001 194.249934 
L 85.499349 191.973634 
L 88.778688 190.001323 
L 92.058027 204.578735 
L 95.337366 194.319261 
L 98.616705 194.286238 
L 101.896043 189.015544 
L 105.175382 200.822378 
L 108.454721 197.824397 
L 111.73406 205.01458 
L 115.013399 203.041431 
L 118.292738 196.087235 
L 121.572076 189.508468 
L 124.851415 191.237235 
L 128.130754 194.812542 
L 131.410093 199.48519 
L 134.689432 201.924046 
L 137.968771 194.492104 
L 141.24811 192.163596 
L 144.527448 191.272868 
L 147.806787 190.253452 
L 151.086126 205.356742 
L 154.365465 195.940918 
L 157.644804 197.630519 
L 160.924143 189.970553 
L 164.203481 201.062671 
L 167.48282 201.426055 
L 170.762159 194.987464 
L 174.041498 205.005243 
L 177.320837 197.493114 
L 180.600176 193.358822 
L 183.879514 191.176973 
L 187.158853 192.134272 
L 190.438192 196.80163 
L 193.717531 207.314364 
L 196.99687 201.341263 
L 200.276209 198.592173 
L 203.555548 198.207154 
L 206.834886 200.338121 
L 210.114225 193.089707 
L 213.393564 193.515447 
L 216.672903 193.827977 
L 219.952242 191.183463 
L 223.231581 203.725343 
L 226.510919 191.265875 
L 229.790258 195.493341 
L 233.069597 196.417616 
L 236.348936 212.450081 
L 239.628275 189.975327 
L 242.907614 199.877683 
L 246.186952 194.628874 
L 249.466291 191.373935 
L 252.74563 204.311002 
L 256.024969 206.941872 
L 259.304308 203.259741 
L 262.583647 192.904511 
L 265.862986 190.630598 
L 269.142324 197.551757 
L 272.421663 200.765292 
L 275.701002 202.584712 
L 278.980341 204.501962 
L 282.25968 198.667669 
L 285.539019 193.58552 
L 288.818357 207.104421 
L 292.097696 180.013762 
L 295.377035 199.186017 
L 298.656374 198.249906 
L 301.935713 195.359684 
L 305.215052 190.87958 
L 308.49439 195.001073 
L 311.773729 192.831423 
L 315.053068 192.082077 
L 318.332407 204.689251 
L 321.611746 195.283518 
L 324.891085 193.958529 
L 328.170424 192.396897 
L 331.449762 193.507275 
L 334.729101 195.123174 
L 338.00844 196.024928 
L 341.287779 192.775662 
L 344.567118 193.975641 
L 347.846457 191.040189 
L 351.125795 202.825166 
L 354.405134 198.74722 
L 357.684473 190.851385 
L 360.963812 202.118621 
L 364.243151 196.994363 
L 367.52249 201.860679 
L 370.801829 199.46403 
L 374.081167 190.759384 
L 377.360506 193.004022 
L 380.639845 193.007399 
L 383.919184 193.900479 
L 387.198523 194.380123 
" clip-path="url(#pe3d1dbf370)" style="fill: none; stroke: #c44e52; stroke-width: 1.5; stroke-linecap: round"/>
   </g>
   <g id="line2d_15">
    <path d="M 62.543977 90.351408 
L 65.823316 256.399966 
L 69.102655 254.580608 
L 72.381994 256.646672 
L 75.661333 256.887188 
L 78.940671 258.656676 
L 82.22001 255.493535 
L 85.499349 249.867587 
L 88.778688 254.232158 
L 92.058027 257.540548 
L 95.337366 253.587843 
L 98.616705 254.548959 
L 101.896043 251.459011 
L 105.175382 253.828945 
L 108.454721 256.992652 
L 111.73406 258.573517 
L 115.013399 253.663584 
L 118.292738 253.313724 
L 121.572076 253.538538 
L 124.851415 254.000316 
L 128.130754 255.768115 
L 131.410093 259.366766 
L 134.689432 255.663029 
L 137.968771 254.156878 
L 141.24811 250.854455 
L 144.527448 255.698223 
L 147.806787 253.163324 
L 151.086126 255.745001 
L 154.365465 257.304379 
L 157.644804 251.080127 
L 160.924143 252.666443 
L 164.203481 257.315371 
L 167.48282 257.263567 
L 170.762159 257.161663 
L 174.041498 258.85682 
L 177.320837 256.742874 
L 180.600176 256.091427 
L 183.879514 255.410362 
L 187.158853 252.266622 
L 190.438192 256.371032 
L 193.717531 258.476135 
L 196.99687 255.687029 
L 200.276209 257.2394 
L 203.555548 257.487649 
L 206.834886 260.038696 
L 210.114225 251.280704 
L 213.393564 255.785534 
L 216.672903 252.945712 
L 219.952242 252.278354 
L 223.231581 255.957672 
L 226.510919 254.113205 
L 229.790258 254.982117 
L 233.069597 255.821461 
L 236.348936 261.216 
L 239.628275 254.096588 
L 242.907614 253.515962 
L 246.186952 253.313487 
L 249.466291 254.12532 
L 252.74563 257.0061 
L 256.024969 258.441639 
L 259.304308 255.399608 
L 262.583647 255.477261 
L 265.862986 253.660094 
L 269.142324 252.939076 
L 272.421663 254.922456 
L 275.701002 257.122157 
L 278.980341 256.741165 
L 282.25968 257.703328 
L 285.539019 254.83802 
L 288.818357 257.92826 
L 292.097696 250.75089 
L 295.377035 258.284345 
L 298.656374 257.972387 
L 301.935713 255.803818 
L 305.215052 254.704362 
L 308.49439 254.505663 
L 311.773729 254.804131 
L 315.053068 255.567427 
L 318.332407 258.532259 
L 321.611746 249.924178 
L 324.891085 255.199959 
L 328.170424 251.191683 
L 331.449762 252.328043 
L 334.729101 256.25092 
L 338.00844 253.303032 
L 341.287779 255.882295 
L 344.567118 253.086788 
L 347.846457 250.715821 
L 351.125795 257.357823 
L 354.405134 255.954309 
L 357.684473 253.567898 
L 360.963812 256.549891 
L 364.243151 255.284703 
L 367.52249 257.794582 
L 370.801829 255.295897 
L 374.081167 255.181766 
L 377.360506 254.012327 
L 380.639845 255.821433 
L 383.919184 254.658191 
L 387.198523 255.595376 
" clip-path="url(#pe3d1dbf370)" style="fill: none; stroke: #8172b3; stroke-width: 1.5; stroke-linecap: round"/>
   </g>
   <g id="line2d_16"/>
   <g id="line2d_17"/>
   <g id="line2d_18"/>
   <g id="line2d_19"/>
   <g id="line2d_20"/>
   <g id="patch_3">
    <path d="M 46.31125 273.312 
L 46.31125 7.2 
" style="fill: none; stroke: #cccccc; stroke-width: 1.25; stroke-linejoin: miter; stroke-linecap: square"/>
   </g>
   <g id="patch_4">
    <path d="M 403.43125 273.312 
L 403.43125 7.2 
" style="fill: none; stroke: #cccccc; stroke-width: 1.25; stroke-linejoin: miter; stroke-linecap: square"/>
   </g>
   <g id="patch_5">
    <path d="M 46.31125 273.312 
L 403.43125 273.312 
" style="fill: none; stroke: #cccccc; stroke-width: 1.25; stroke-linejoin: miter; stroke-linecap: square"/>
   </g>
   <g id="patch_6">
    <path d="M 46.31125 7.2 
L 403.43125 7.2 
" style="fill: none; stroke: #cccccc; stroke-width: 1.25; stroke-linejoin: miter; stroke-linecap: square"/>
   </g>
   <g id="legend_1">
    <g id="patch_7">
     <path d="M 291.746875 113.843437 
L 395.73125 113.843437 
Q 397.93125 113.843437 397.93125 111.643437 
L 397.93125 14.9 
Q 397.93125 12.7 395.73125 12.7 
L 291.746875 12.7 
Q 289.546875 12.7 289.546875 14.9 
L 289.546875 111.643437 
Q 289.546875 113.843437 291.746875 113.843437 
z
" style="fill: #ffffff; opacity: 0.8; stroke: #cccccc; stroke-linejoin: miter"/>
    </g>
    <g id="text_13">
     <!-- Strategy -->
     <g style="fill: #262626" transform="translate(318.03 26.218125) scale(0.12 -0.12)">
      <defs>
       <path id="DejaVuSans-74" d="M 1172 4494 
L 1172 3500 
L 2356 3500 
L 2356 3053 
L 1172 3053 
L 1172 1153 
Q 1172 725 1289 603 
Q 1406 481 1766 481 
L 2356 481 
L 2356 0 
L 1766 0 
Q 1100 0 847 248 
Q 594 497 594 1153 
L 594 3053 
L 172 3053 
L 172 3500 
L 594 3500 
L 594 4494 
L 1172 4494 
z
" transform="scale(0.015625)"/>
       <path id="DejaVuSans-61" d="M 2194 1759 
Q 1497 1759 1228 1600 
Q 959 1441 959 1056 
Q 959 750 1161 570 
Q 1363 391 1709 391 
Q 2188 391 2477 730 
Q 2766 1069 2766 1631 
L 2766 1759 
L 2194 1759 
z
M 3341 1997 
L 3341 0 
L 2766 0 
L 2766 531 
Q 2569 213 2275 61 
Q 1981 -91 1556 -91 
Q 1019 -91 701 211 
Q 384 513 384 1019 
Q 384 1609 779 1909 
Q 1175 2209 1959 2209 
L 2766 2209 
L 2766 2266 
Q 2766 2663 2505 2880 
Q 2244 3097 1772 3097 
Q 1472 3097 1187 3025 
Q 903 2953 641 2809 
L 641 3341 
Q 956 3463 1253 3523 
Q 1550 3584 1831 3584 
Q 2591 3584 2966 3190 
Q 3341 2797 3341 1997 
z
" transform="scale(0.015625)"/>
       <path id="DejaVuSans-67" d="M 2906 1791 
Q 2906 2416 2648 2759 
Q 2391 3103 1925 3103 
Q 1463 3103 1205 2759 
Q 947 2416 947 1791 
Q 947 1169 1205 825 
Q 1463 481 1925 481 
Q 2391 481 2648 825 
Q 2906 1169 2906 1791 
z
M 3481 434 
Q 3481 -459 3084 -895 
Q 2688 -1331 1869 -1331 
Q 1566 -1331 1297 -1286 
Q 1028 -1241 775 -1147 
L 775 -588 
Q 1028 -725 1275 -790 
Q 1522 -856 1778 -856 
Q 2344 -856 2625 -561 
Q 2906 -266 2906 331 
L 2906 616 
Q 2728 306 2450 153 
Q 2172 0 1784 0 
Q 1141 0 747 490 
Q 353 981 353 1791 
Q 353 2603 747 3093 
Q 1141 3584 1784 3584 
Q 2172 3584 2450 3431 
Q 2728 3278 2906 2969 
L 2906 3500 
L 3481 3500 
L 3481 434 
z
" transform="scale(0.015625)"/>
       <path id="DejaVuSans-79" d="M 2059 -325 
Q 1816 -950 1584 -1140 
Q 1353 -1331 966 -1331 
L 506 -1331 
L 506 -850 
L 844 -850 
Q 1081 -850 1212 -737 
Q 1344 -625 1503 -206 
L 1606 56 
L 191 3500 
L 800 3500 
L 1894 763 
L 2988 3500 
L 3597 3500 
L 2059 -325 
z
" transform="scale(0.015625)"/>
      </defs>
      <use xlink:href="#DejaVuSans-53"/>
      <use xlink:href="#DejaVuSans-74" x="63.476562"/>
      <use xlink:href="#DejaVuSans-72" x="102.685547"/>
      <use xlink:href="#DejaVuSans-61" x="143.798828"/>
      <use xlink:href="#DejaVuSans-74" x="205.078125"/>
      <use xlink:href="#DejaVuSans-65" x="244.287109"/>
      <use xlink:href="#DejaVuSans-67" x="305.810547"/>
      <use xlink:href="#DejaVuSans-79" x="369.287109"/>
     </g>
    </g>
    <g id="line2d_21">
     <path d="M 293.946875 38.722031 
L 304.946875 38.722031 
L 315.946875 38.722031 
" style="fill: none; stroke: #4c72b0; stroke-width: 1.5; stroke-linecap: round"/>
    </g>
    <g id="text_14">
     <!-- FedPredict -->
     <g style="fill: #262626" transform="translate(324.746875 42.572031) scale(0.11 -0.11)">
      <defs>
       <path id="DejaVuSans-46" d="M 628 4666 
L 3309 4666 
L 3309 4134 
L 1259 4134 
L 1259 2759 
L 3109 2759 
L 3109 2228 
L 1259 2228 
L 1259 0 
L 628 0 
L 628 4666 
z
" transform="scale(0.015625)"/>
       <path id="DejaVuSans-50" d="M 1259 4147 
L 1259 2394 
L 2053 2394 
Q 2494 2394 2734 2622 
Q 2975 2850 2975 3272 
Q 2975 3691 2734 3919 
Q 2494 4147 2053 4147 
L 1259 4147 
z
M 628 4666 
L 2053 4666 
Q 2838 4666 3239 4311 
Q 3641 3956 3641 3272 
Q 3641 2581 3239 2228 
Q 2838 1875 2053 1875 
L 1259 1875 
L 1259 0 
L 628 0 
L 628 4666 
z
" transform="scale(0.015625)"/>
      </defs>
      <use xlink:href="#DejaVuSans-46"/>
      <use xlink:href="#DejaVuSans-65" x="52.019531"/>
      <use xlink:href="#DejaVuSans-64" x="113.542969"/>
      <use xlink:href="#DejaVuSans-50" x="177.019531"/>
      <use xlink:href="#DejaVuSans-72" x="235.572266"/>
      <use xlink:href="#DejaVuSans-65" x="274.435547"/>
      <use xlink:href="#DejaVuSans-64" x="335.958984"/>
      <use xlink:href="#DejaVuSans-69" x="399.435547"/>
      <use xlink:href="#DejaVuSans-63" x="427.21875"/>
      <use xlink:href="#DejaVuSans-74" x="482.199219"/>
     </g>
    </g>
    <g id="line2d_22">
     <path d="M 293.946875 54.867969 
L 304.946875 54.867969 
L 315.946875 54.867969 
" style="fill: none; stroke: #dd8452; stroke-width: 1.5; stroke-linecap: round"/>
    </g>
    <g id="text_15">
     <!-- FedAVG -->
     <g style="fill: #262626" transform="translate(324.746875 58.717969) scale(0.11 -0.11)">
      <defs>
       <path id="DejaVuSans-41" d="M 2188 4044 
L 1331 1722 
L 3047 1722 
L 2188 4044 
z
M 1831 4666 
L 2547 4666 
L 4325 0 
L 3669 0 
L 3244 1197 
L 1141 1197 
L 716 0 
L 50 0 
L 1831 4666 
z
" transform="scale(0.015625)"/>
       <path id="DejaVuSans-56" d="M 1831 0 
L 50 4666 
L 709 4666 
L 2188 738 
L 3669 4666 
L 4325 4666 
L 2547 0 
L 1831 0 
z
" transform="scale(0.015625)"/>
       <path id="DejaVuSans-47" d="M 3809 666 
L 3809 1919 
L 2778 1919 
L 2778 2438 
L 4434 2438 
L 4434 434 
Q 4069 175 3628 42 
Q 3188 -91 2688 -91 
Q 1594 -91 976 548 
Q 359 1188 359 2328 
Q 359 3472 976 4111 
Q 1594 4750 2688 4750 
Q 3144 4750 3555 4637 
Q 3966 4525 4313 4306 
L 4313 3634 
Q 3963 3931 3569 4081 
Q 3175 4231 2741 4231 
Q 1884 4231 1454 3753 
Q 1025 3275 1025 2328 
Q 1025 1384 1454 906 
Q 1884 428 2741 428 
Q 3075 428 3337 486 
Q 3600 544 3809 666 
z
" transform="scale(0.015625)"/>
      </defs>
      <use xlink:href="#DejaVuSans-46"/>
      <use xlink:href="#DejaVuSans-65" x="52.019531"/>
      <use xlink:href="#DejaVuSans-64" x="113.542969"/>
      <use xlink:href="#DejaVuSans-41" x="177.019531"/>
      <use xlink:href="#DejaVuSans-56" x="239.052734"/>
      <use xlink:href="#DejaVuSans-47" x="307.460938"/>
     </g>
    </g>
    <g id="line2d_23">
     <path d="M 293.946875 71.013906 
L 304.946875 71.013906 
L 315.946875 71.013906 
" style="fill: none; stroke: #55a868; stroke-width: 1.5; stroke-linecap: round"/>
    </g>
    <g id="text_16">
     <!-- FedClassAvg -->
     <g style="fill: #262626" transform="translate(324.746875 74.863906) scale(0.11 -0.11)">
      <defs>
       <path id="DejaVuSans-43" d="M 4122 4306 
L 4122 3641 
Q 3803 3938 3442 4084 
Q 3081 4231 2675 4231 
Q 1875 4231 1450 3742 
Q 1025 3253 1025 2328 
Q 1025 1406 1450 917 
Q 1875 428 2675 428 
Q 3081 428 3442 575 
Q 3803 722 4122 1019 
L 4122 359 
Q 3791 134 3420 21 
Q 3050 -91 2638 -91 
Q 1578 -91 968 557 
Q 359 1206 359 2328 
Q 359 3453 968 4101 
Q 1578 4750 2638 4750 
Q 3056 4750 3426 4639 
Q 3797 4528 4122 4306 
z
" transform="scale(0.015625)"/>
       <path id="DejaVuSans-6c" d="M 603 4863 
L 1178 4863 
L 1178 0 
L 603 0 
L 603 4863 
z
" transform="scale(0.015625)"/>
      </defs>
      <use xlink:href="#DejaVuSans-46"/>
      <use xlink:href="#DejaVuSans-65" x="52.019531"/>
      <use xlink:href="#DejaVuSans-64" x="113.542969"/>
      <use xlink:href="#DejaVuSans-43" x="177.019531"/>
      <use xlink:href="#DejaVuSans-6c" x="246.84375"/>
      <use xlink:href="#DejaVuSans-61" x="274.626953"/>
      <use xlink:href="#DejaVuSans-73" x="335.90625"/>
      <use xlink:href="#DejaVuSans-73" x="388.005859"/>
      <use xlink:href="#DejaVuSans-41" x="440.105469"/>
      <use xlink:href="#DejaVuSans-76" x="502.638672"/>
      <use xlink:href="#DejaVuSans-67" x="561.818359"/>
     </g>
    </g>
    <g id="line2d_24">
     <path d="M 293.946875 87.159844 
L 304.946875 87.159844 
L 315.946875 87.159844 
" style="fill: none; stroke: #c44e52; stroke-width: 1.5; stroke-linecap: round"/>
    </g>
    <g id="text_17">
     <!-- FedPer -->
     <g style="fill: #262626" transform="translate(324.746875 91.009844) scale(0.11 -0.11)">
      <use xlink:href="#DejaVuSans-46"/>
      <use xlink:href="#DejaVuSans-65" x="52.019531"/>
      <use xlink:href="#DejaVuSans-64" x="113.542969"/>
      <use xlink:href="#DejaVuSans-50" x="177.019531"/>
      <use xlink:href="#DejaVuSans-65" x="233.697266"/>
      <use xlink:href="#DejaVuSans-72" x="295.220703"/>
     </g>
    </g>
    <g id="line2d_25">
     <path d="M 293.946875 103.305781 
L 304.946875 103.305781 
L 315.946875 103.305781 
" style="fill: none; stroke: #8172b3; stroke-width: 1.5; stroke-linecap: round"/>
    </g>
    <g id="text_18">
     <!-- FedProto -->
     <g style="fill: #262626" transform="translate(324.746875 107.155781) scale(0.11 -0.11)">
      <use xlink:href="#DejaVuSans-46"/>
      <use xlink:href="#DejaVuSans-65" x="52.019531"/>
      <use xlink:href="#DejaVuSans-64" x="113.542969"/>
      <use xlink:href="#DejaVuSans-50" x="177.019531"/>
      <use xlink:href="#DejaVuSans-72" x="235.572266"/>
      <use xlink:href="#DejaVuSans-6f" x="274.435547"/>
      <use xlink:href="#DejaVuSans-74" x="335.617188"/>
      <use xlink:href="#DejaVuSans-6f" x="374.826172"/>
     </g>
    </g>
   </g>
  </g>
 </g>
 <defs>
  <clipPath id="pe3d1dbf370">
   <rect x="46.31125" y="7.2" width="357.12" height="266.112"/>
  </clipPath>
 </defs>
</svg>
