<?xml version="1.0" encoding="utf-8" standalone="no"?>
<!DOCTYPE svg PUBLIC "-//W3C//DTD SVG 1.1//EN"
  "http://www.w3.org/Graphics/SVG/1.1/DTD/svg11.dtd">
<svg xmlns:xlink="http://www.w3.org/1999/xlink" width="403.6325pt" height="316.271687pt" viewBox="0 0 403.6325 316.271687" xmlns="http://www.w3.org/2000/svg" version="1.1">
 <metadata>
  <rdf:RDF xmlns:dc="http://purl.org/dc/elements/1.1/" xmlns:cc="http://creativecommons.org/ns#" xmlns:rdf="http://www.w3.org/1999/02/22-rdf-syntax-ns#">
   <cc:Work>
    <dc:type rdf:resource="http://purl.org/dc/dcmitype/StillImage"/>
    <dc:date>2023-02-10T04:39:12.625969</dc:date>
    <dc:format>image/svg+xml</dc:format>
    <dc:creator>
     <cc:Agent>
      <dc:title>Matplotlib v3.6.3, https://matplotlib.org/</dc:title>
     </cc:Agent>
    </dc:creator>
   </cc:Work>
  </rdf:RDF>
 </metadata>
 <defs>
  <style type="text/css">*{stroke-linejoin: round; stroke-linecap: butt}</style>
 </defs>
 <g id="figure_1">
  <g id="patch_1">
   <path d="M 0 316.271687 
L 403.6325 316.271687 
L 403.6325 0 
L 0 0 
z
" style="fill: #ffffff"/>
  </g>
  <g id="axes_1">
   <g id="patch_2">
    <path d="M 39.3125 273.312 
L 396.4325 273.312 
L 396.4325 7.2 
L 39.3125 7.2 
z
" style="fill: #ffffff"/>
   </g>
   <g id="matplotlib.axis_1">
    <g id="xtick_1">
     <g id="line2d_1">
      <path d="M 52.265888 273.312 
L 52.265888 7.2 
" clip-path="url(#p2834a96586)" style="fill: none; stroke: #cccccc; stroke-linecap: round"/>
     </g>
     <g id="text_1">
      <!-- 0 -->
      <g style="fill: #262626" transform="translate(48.766513 291.170281) scale(0.11 -0.11)">
       <defs>
        <path id="DejaVuSans-30" d="M 2034 4250 
Q 1547 4250 1301 3770 
Q 1056 3291 1056 2328 
Q 1056 1369 1301 889 
Q 1547 409 2034 409 
Q 2525 409 2770 889 
Q 3016 1369 3016 2328 
Q 3016 3291 2770 3770 
Q 2525 4250 2034 4250 
z
M 2034 4750 
Q 2819 4750 3233 4129 
Q 3647 3509 3647 2328 
Q 3647 1150 3233 529 
Q 2819 -91 2034 -91 
Q 1250 -91 836 529 
Q 422 1150 422 2328 
Q 422 3509 836 4129 
Q 1250 4750 2034 4750 
z
" transform="scale(0.015625)"/>
       </defs>
       <use xlink:href="#DejaVuSans-30"/>
      </g>
     </g>
    </g>
    <g id="xtick_2">
     <g id="line2d_2">
      <path d="M 117.852665 273.312 
L 117.852665 7.2 
" clip-path="url(#p2834a96586)" style="fill: none; stroke: #cccccc; stroke-linecap: round"/>
     </g>
     <g id="text_2">
      <!-- 20 -->
      <g style="fill: #262626" transform="translate(110.853915 291.170281) scale(0.11 -0.11)">
       <defs>
        <path id="DejaVuSans-32" d="M 1228 531 
L 3431 531 
L 3431 0 
L 469 0 
L 469 531 
Q 828 903 1448 1529 
Q 2069 2156 2228 2338 
Q 2531 2678 2651 2914 
Q 2772 3150 2772 3378 
Q 2772 3750 2511 3984 
Q 2250 4219 1831 4219 
Q 1534 4219 1204 4116 
Q 875 4013 500 3803 
L 500 4441 
Q 881 4594 1212 4672 
Q 1544 4750 1819 4750 
Q 2544 4750 2975 4387 
Q 3406 4025 3406 3419 
Q 3406 3131 3298 2873 
Q 3191 2616 2906 2266 
Q 2828 2175 2409 1742 
Q 1991 1309 1228 531 
z
" transform="scale(0.015625)"/>
       </defs>
       <use xlink:href="#DejaVuSans-32"/>
       <use xlink:href="#DejaVuSans-30" x="63.623047"/>
      </g>
     </g>
    </g>
    <g id="xtick_3">
     <g id="line2d_3">
      <path d="M 183.439442 273.312 
L 183.439442 7.2 
" clip-path="url(#p2834a96586)" style="fill: none; stroke: #cccccc; stroke-linecap: round"/>
     </g>
     <g id="text_3">
      <!-- 40 -->
      <g style="fill: #262626" transform="translate(176.440692 291.170281) scale(0.11 -0.11)">
       <defs>
        <path id="DejaVuSans-34" d="M 2419 4116 
L 825 1625 
L 2419 1625 
L 2419 4116 
z
M 2253 4666 
L 3047 4666 
L 3047 1625 
L 3713 1625 
L 3713 1100 
L 3047 1100 
L 3047 0 
L 2419 0 
L 2419 1100 
L 313 1100 
L 313 1709 
L 2253 4666 
z
" transform="scale(0.015625)"/>
       </defs>
       <use xlink:href="#DejaVuSans-34"/>
       <use xlink:href="#DejaVuSans-30" x="63.623047"/>
      </g>
     </g>
    </g>
    <g id="xtick_4">
     <g id="line2d_4">
      <path d="M 249.026219 273.312 
L 249.026219 7.2 
" clip-path="url(#p2834a96586)" style="fill: none; stroke: #cccccc; stroke-linecap: round"/>
     </g>
     <g id="text_4">
      <!-- 60 -->
      <g style="fill: #262626" transform="translate(242.027469 291.170281) scale(0.11 -0.11)">
       <defs>
        <path id="DejaVuSans-36" d="M 2113 2584 
Q 1688 2584 1439 2293 
Q 1191 2003 1191 1497 
Q 1191 994 1439 701 
Q 1688 409 2113 409 
Q 2538 409 2786 701 
Q 3034 994 3034 1497 
Q 3034 2003 2786 2293 
Q 2538 2584 2113 2584 
z
M 3366 4563 
L 3366 3988 
Q 3128 4100 2886 4159 
Q 2644 4219 2406 4219 
Q 1781 4219 1451 3797 
Q 1122 3375 1075 2522 
Q 1259 2794 1537 2939 
Q 1816 3084 2150 3084 
Q 2853 3084 3261 2657 
Q 3669 2231 3669 1497 
Q 3669 778 3244 343 
Q 2819 -91 2113 -91 
Q 1303 -91 875 529 
Q 447 1150 447 2328 
Q 447 3434 972 4092 
Q 1497 4750 2381 4750 
Q 2619 4750 2861 4703 
Q 3103 4656 3366 4563 
z
" transform="scale(0.015625)"/>
       </defs>
       <use xlink:href="#DejaVuSans-36"/>
       <use xlink:href="#DejaVuSans-30" x="63.623047"/>
      </g>
     </g>
    </g>
    <g id="xtick_5">
     <g id="line2d_5">
      <path d="M 314.612996 273.312 
L 314.612996 7.2 
" clip-path="url(#p2834a96586)" style="fill: none; stroke: #cccccc; stroke-linecap: round"/>
     </g>
     <g id="text_5">
      <!-- 80 -->
      <g style="fill: #262626" transform="translate(307.614246 291.170281) scale(0.11 -0.11)">
       <defs>
        <path id="DejaVuSans-38" d="M 2034 2216 
Q 1584 2216 1326 1975 
Q 1069 1734 1069 1313 
Q 1069 891 1326 650 
Q 1584 409 2034 409 
Q 2484 409 2743 651 
Q 3003 894 3003 1313 
Q 3003 1734 2745 1975 
Q 2488 2216 2034 2216 
z
M 1403 2484 
Q 997 2584 770 2862 
Q 544 3141 544 3541 
Q 544 4100 942 4425 
Q 1341 4750 2034 4750 
Q 2731 4750 3128 4425 
Q 3525 4100 3525 3541 
Q 3525 3141 3298 2862 
Q 3072 2584 2669 2484 
Q 3125 2378 3379 2068 
Q 3634 1759 3634 1313 
Q 3634 634 3220 271 
Q 2806 -91 2034 -91 
Q 1263 -91 848 271 
Q 434 634 434 1313 
Q 434 1759 690 2068 
Q 947 2378 1403 2484 
z
M 1172 3481 
Q 1172 3119 1398 2916 
Q 1625 2713 2034 2713 
Q 2441 2713 2670 2916 
Q 2900 3119 2900 3481 
Q 2900 3844 2670 4047 
Q 2441 4250 2034 4250 
Q 1625 4250 1398 4047 
Q 1172 3844 1172 3481 
z
" transform="scale(0.015625)"/>
       </defs>
       <use xlink:href="#DejaVuSans-38"/>
       <use xlink:href="#DejaVuSans-30" x="63.623047"/>
      </g>
     </g>
    </g>
    <g id="xtick_6">
     <g id="line2d_6">
      <path d="M 380.199773 273.312 
L 380.199773 7.2 
" clip-path="url(#p2834a96586)" style="fill: none; stroke: #cccccc; stroke-linecap: round"/>
     </g>
     <g id="text_6">
      <!-- 100 -->
      <g style="fill: #262626" transform="translate(369.701648 291.170281) scale(0.11 -0.11)">
       <defs>
        <path id="DejaVuSans-31" d="M 794 531 
L 1825 531 
L 1825 4091 
L 703 3866 
L 703 4441 
L 1819 4666 
L 2450 4666 
L 2450 531 
L 3481 531 
L 3481 0 
L 794 0 
L 794 531 
z
" transform="scale(0.015625)"/>
       </defs>
       <use xlink:href="#DejaVuSans-31"/>
       <use xlink:href="#DejaVuSans-30" x="63.623047"/>
       <use xlink:href="#DejaVuSans-30" x="127.246094"/>
      </g>
     </g>
    </g>
    <g id="text_7">
     <!-- Round -->
     <g style="fill: #262626" transform="translate(198.888125 306.576062) scale(0.12 -0.12)">
      <defs>
       <path id="DejaVuSans-52" d="M 2841 2188 
Q 3044 2119 3236 1894 
Q 3428 1669 3622 1275 
L 4263 0 
L 3584 0 
L 2988 1197 
Q 2756 1666 2539 1819 
Q 2322 1972 1947 1972 
L 1259 1972 
L 1259 0 
L 628 0 
L 628 4666 
L 2053 4666 
Q 2853 4666 3247 4331 
Q 3641 3997 3641 3322 
Q 3641 2881 3436 2590 
Q 3231 2300 2841 2188 
z
M 1259 4147 
L 1259 2491 
L 2053 2491 
Q 2509 2491 2742 2702 
Q 2975 2913 2975 3322 
Q 2975 3731 2742 3939 
Q 2509 4147 2053 4147 
L 1259 4147 
z
" transform="scale(0.015625)"/>
       <path id="DejaVuSans-6f" d="M 1959 3097 
Q 1497 3097 1228 2736 
Q 959 2375 959 1747 
Q 959 1119 1226 758 
Q 1494 397 1959 397 
Q 2419 397 2687 759 
Q 2956 1122 2956 1747 
Q 2956 2369 2687 2733 
Q 2419 3097 1959 3097 
z
M 1959 3584 
Q 2709 3584 3137 3096 
Q 3566 2609 3566 1747 
Q 3566 888 3137 398 
Q 2709 -91 1959 -91 
Q 1206 -91 779 398 
Q 353 888 353 1747 
Q 353 2609 779 3096 
Q 1206 3584 1959 3584 
z
" transform="scale(0.015625)"/>
       <path id="DejaVuSans-75" d="M 544 1381 
L 544 3500 
L 1119 3500 
L 1119 1403 
Q 1119 906 1312 657 
Q 1506 409 1894 409 
Q 2359 409 2629 706 
Q 2900 1003 2900 1516 
L 2900 3500 
L 3475 3500 
L 3475 0 
L 2900 0 
L 2900 538 
Q 2691 219 2414 64 
Q 2138 -91 1772 -91 
Q 1169 -91 856 284 
Q 544 659 544 1381 
z
M 1991 3584 
L 1991 3584 
z
" transform="scale(0.015625)"/>
       <path id="DejaVuSans-6e" d="M 3513 2113 
L 3513 0 
L 2938 0 
L 2938 2094 
Q 2938 2591 2744 2837 
Q 2550 3084 2163 3084 
Q 1697 3084 1428 2787 
Q 1159 2491 1159 1978 
L 1159 0 
L 581 0 
L 581 3500 
L 1159 3500 
L 1159 2956 
Q 1366 3272 1645 3428 
Q 1925 3584 2291 3584 
Q 2894 3584 3203 3211 
Q 3513 2838 3513 2113 
z
" transform="scale(0.015625)"/>
       <path id="DejaVuSans-64" d="M 2906 2969 
L 2906 4863 
L 3481 4863 
L 3481 0 
L 2906 0 
L 2906 525 
Q 2725 213 2448 61 
Q 2172 -91 1784 -91 
Q 1150 -91 751 415 
Q 353 922 353 1747 
Q 353 2572 751 3078 
Q 1150 3584 1784 3584 
Q 2172 3584 2448 3432 
Q 2725 3281 2906 2969 
z
M 947 1747 
Q 947 1113 1208 752 
Q 1469 391 1925 391 
Q 2381 391 2643 752 
Q 2906 1113 2906 1747 
Q 2906 2381 2643 2742 
Q 2381 3103 1925 3103 
Q 1469 3103 1208 2742 
Q 947 2381 947 1747 
z
" transform="scale(0.015625)"/>
      </defs>
      <use xlink:href="#DejaVuSans-52"/>
      <use xlink:href="#DejaVuSans-6f" x="64.982422"/>
      <use xlink:href="#DejaVuSans-75" x="126.164062"/>
      <use xlink:href="#DejaVuSans-6e" x="189.542969"/>
      <use xlink:href="#DejaVuSans-64" x="252.921875"/>
     </g>
    </g>
   </g>
   <g id="matplotlib.axis_2">
    <g id="ytick_1">
     <g id="line2d_7">
      <path d="M 39.3125 229.274556 
L 396.4325 229.274556 
" clip-path="url(#p2834a96586)" style="fill: none; stroke: #cccccc; stroke-linecap: round"/>
     </g>
     <g id="text_8">
      <!-- 1 -->
      <g style="fill: #262626" transform="translate(22.81375 233.453696) scale(0.11 -0.11)">
       <use xlink:href="#DejaVuSans-31"/>
      </g>
     </g>
    </g>
    <g id="ytick_2">
     <g id="line2d_8">
      <path d="M 39.3125 171.522614 
L 396.4325 171.522614 
" clip-path="url(#p2834a96586)" style="fill: none; stroke: #cccccc; stroke-linecap: round"/>
     </g>
     <g id="text_9">
      <!-- 2 -->
      <g style="fill: #262626" transform="translate(22.81375 175.701755) scale(0.11 -0.11)">
       <use xlink:href="#DejaVuSans-32"/>
      </g>
     </g>
    </g>
    <g id="ytick_3">
     <g id="line2d_9">
      <path d="M 39.3125 113.770672 
L 396.4325 113.770672 
" clip-path="url(#p2834a96586)" style="fill: none; stroke: #cccccc; stroke-linecap: round"/>
     </g>
     <g id="text_10">
      <!-- 3 -->
      <g style="fill: #262626" transform="translate(22.81375 117.949813) scale(0.11 -0.11)">
       <defs>
        <path id="DejaVuSans-33" d="M 2597 2516 
Q 3050 2419 3304 2112 
Q 3559 1806 3559 1356 
Q 3559 666 3084 287 
Q 2609 -91 1734 -91 
Q 1441 -91 1130 -33 
Q 819 25 488 141 
L 488 750 
Q 750 597 1062 519 
Q 1375 441 1716 441 
Q 2309 441 2620 675 
Q 2931 909 2931 1356 
Q 2931 1769 2642 2001 
Q 2353 2234 1838 2234 
L 1294 2234 
L 1294 2753 
L 1863 2753 
Q 2328 2753 2575 2939 
Q 2822 3125 2822 3475 
Q 2822 3834 2567 4026 
Q 2313 4219 1838 4219 
Q 1578 4219 1281 4162 
Q 984 4106 628 3988 
L 628 4550 
Q 988 4650 1302 4700 
Q 1616 4750 1894 4750 
Q 2613 4750 3031 4423 
Q 3450 4097 3450 3541 
Q 3450 3153 3228 2886 
Q 3006 2619 2597 2516 
z
" transform="scale(0.015625)"/>
       </defs>
       <use xlink:href="#DejaVuSans-33"/>
      </g>
     </g>
    </g>
    <g id="ytick_4">
     <g id="line2d_10">
      <path d="M 39.3125 56.01873 
L 396.4325 56.01873 
" clip-path="url(#p2834a96586)" style="fill: none; stroke: #cccccc; stroke-linecap: round"/>
     </g>
     <g id="text_11">
      <!-- 4 -->
      <g style="fill: #262626" transform="translate(22.81375 60.197871) scale(0.11 -0.11)">
       <use xlink:href="#DejaVuSans-34"/>
      </g>
     </g>
    </g>
    <g id="text_12">
     <!-- Loss -->
     <g style="fill: #262626" transform="translate(16.318125 153.416625) rotate(-90) scale(0.12 -0.12)">
      <defs>
       <path id="DejaVuSans-4c" d="M 628 4666 
L 1259 4666 
L 1259 531 
L 3531 531 
L 3531 0 
L 628 0 
L 628 4666 
z
" transform="scale(0.015625)"/>
       <path id="DejaVuSans-73" d="M 2834 3397 
L 2834 2853 
Q 2591 2978 2328 3040 
Q 2066 3103 1784 3103 
Q 1356 3103 1142 2972 
Q 928 2841 928 2578 
Q 928 2378 1081 2264 
Q 1234 2150 1697 2047 
L 1894 2003 
Q 2506 1872 2764 1633 
Q 3022 1394 3022 966 
Q 3022 478 2636 193 
Q 2250 -91 1575 -91 
Q 1294 -91 989 -36 
Q 684 19 347 128 
L 347 722 
Q 666 556 975 473 
Q 1284 391 1588 391 
Q 1994 391 2212 530 
Q 2431 669 2431 922 
Q 2431 1156 2273 1281 
Q 2116 1406 1581 1522 
L 1381 1569 
Q 847 1681 609 1914 
Q 372 2147 372 2553 
Q 372 3047 722 3315 
Q 1072 3584 1716 3584 
Q 2034 3584 2315 3537 
Q 2597 3491 2834 3397 
z
" transform="scale(0.015625)"/>
      </defs>
      <use xlink:href="#DejaVuSans-4c"/>
      <use xlink:href="#DejaVuSans-6f" x="53.962891"/>
      <use xlink:href="#DejaVuSans-73" x="115.144531"/>
      <use xlink:href="#DejaVuSans-73" x="167.244141"/>
     </g>
    </g>
   </g>
   <g id="PolyCollection_1">
    <defs>
     <path id="m990b864099" d="M 55.545227 -206.929199 
L 55.545227 -176.866889 
L 58.824566 -150.749507 
L 62.103905 -142.305783 
L 65.383244 -134.925283 
L 68.662583 -127.447338 
L 71.941921 -129.2097 
L 75.22126 -150.438843 
L 78.500599 -120.848705 
L 81.779938 -123.554199 
L 85.059277 -116.22321 
L 88.338616 -112.657298 
L 91.617955 -125.267969 
L 94.897293 -104.34409 
L 98.176632 -109.205586 
L 101.455971 -105.620101 
L 104.73531 -97.257988 
L 108.014649 -93.910314 
L 111.293988 -99.925182 
L 114.573326 -80.431768 
L 117.852665 -86.607341 
L 121.132004 -93.310018 
L 124.411343 -91.031075 
L 127.690682 -123.76703 
L 130.970021 -83.987365 
L 134.24936 -83.542515 
L 137.528698 -85.674896 
L 140.808037 -89.401572 
L 144.087376 -76.556861 
L 147.366715 -84.64582 
L 150.646054 -83.72077 
L 153.925393 -84.002005 
L 157.204731 -74.097966 
L 160.48407 -81.91856 
L 163.763409 -83.24084 
L 167.042748 -72.953253 
L 170.322087 -69.738815 
L 173.601426 -73.461105 
L 176.880764 -77.705252 
L 180.160103 -68.831113 
L 183.439442 -66.087429 
L 186.718781 -77.164409 
L 189.99812 -78.208221 
L 193.277459 -65.44839 
L 196.556798 -68.704474 
L 199.836136 -78.33518 
L 203.115475 -67.362585 
L 206.394814 -65.018178 
L 209.674153 -62.412541 
L 212.953492 -64.979994 
L 216.232831 -65.287814 
L 219.512169 -63.189842 
L 222.791508 -67.476691 
L 226.070847 -66.071454 
L 229.350186 -61.490849 
L 232.629525 -58.22628 
L 235.908864 -62.043262 
L 239.188202 -56.777487 
L 242.467541 -60.207627 
L 245.74688 -59.345086 
L 249.026219 -58.04228 
L 252.305558 -56.835794 
L 255.584897 -60.866951 
L 258.864236 -60.237324 
L 262.143574 -57.402891 
L 265.422913 -58.226147 
L 268.702252 -60.335083 
L 271.981591 -55.055688 
L 275.26093 -56.407343 
L 278.540269 -58.267123 
L 281.819607 -62.279611 
L 285.098946 -61.265105 
L 288.378285 -67.019573 
L 291.657624 -59.211596 
L 294.936963 -58.849299 
L 298.216302 -64.634188 
L 301.49564 -60.389045 
L 304.774979 -60.635201 
L 308.054318 -60.806382 
L 311.333657 -59.42733 
L 314.612996 -62.760379 
L 317.892335 -60.416733 
L 321.171674 -57.712743 
L 324.451012 -57.743675 
L 327.730351 -57.570474 
L 331.00969 -60.834562 
L 334.289029 -58.989123 
L 337.568368 -60.130925 
L 340.847707 -60.805752 
L 344.127045 -58.215532 
L 347.406384 -57.175811 
L 350.685723 -57.841064 
L 353.965062 -58.544813 
L 357.244401 -56.55695 
L 360.52374 -57.671458 
L 363.803079 -56.814528 
L 367.082417 -57.59832 
L 370.361756 -57.217332 
L 373.641095 -58.751526 
L 376.920434 -59.438452 
L 380.199773 -59.586362 
L 380.199773 -70.046801 
L 380.199773 -70.046801 
L 376.920434 -70.8378 
L 373.641095 -68.466896 
L 370.361756 -66.164649 
L 367.082417 -66.940035 
L 363.803079 -66.735135 
L 360.52374 -67.552584 
L 357.244401 -65.245633 
L 353.965062 -68.402008 
L 350.685723 -67.803157 
L 347.406384 -66.431919 
L 344.127045 -68.313544 
L 340.847707 -72.173612 
L 337.568368 -70.908781 
L 334.289029 -69.593313 
L 331.00969 -70.717465 
L 327.730351 -67.46458 
L 324.451012 -67.546144 
L 321.171674 -67.097365 
L 317.892335 -70.894752 
L 314.612996 -74.031354 
L 311.333657 -69.302303 
L 308.054318 -70.907183 
L 304.774979 -71.581819 
L 301.49564 -69.28604 
L 298.216302 -75.977691 
L 294.936963 -69.374728 
L 291.657624 -69.145938 
L 288.378285 -80.487539 
L 285.098946 -71.204664 
L 281.819607 -74.480107 
L 278.540269 -69.707837 
L 275.26093 -65.879516 
L 271.981591 -64.865843 
L 268.702252 -73.824019 
L 265.422913 -68.399802 
L 262.143574 -66.529779 
L 258.864236 -71.340805 
L 255.584897 -77.525976 
L 252.305558 -65.712517 
L 249.026219 -68.48911 
L 245.74688 -69.144317 
L 242.467541 -71.049413 
L 239.188202 -67.807478 
L 235.908864 -74.510255 
L 232.629525 -69.759861 
L 229.350186 -73.789123 
L 226.070847 -79.722372 
L 222.791508 -81.740114 
L 219.512169 -76.32579 
L 216.232831 -79.092032 
L 212.953492 -78.742075 
L 209.674153 -73.199457 
L 206.394814 -75.528868 
L 203.115475 -79.507295 
L 199.836136 -95.657403 
L 196.556798 -81.756268 
L 193.277459 -77.395381 
L 189.99812 -97.11058 
L 186.718781 -91.257947 
L 183.439442 -75.859809 
L 180.160103 -78.618607 
L 176.880764 -97.859339 
L 173.601426 -87.2007 
L 170.322087 -78.489808 
L 167.042748 -87.860223 
L 163.763409 -101.884575 
L 160.48407 -102.201973 
L 157.204731 -94.037948 
L 153.925393 -108.729578 
L 150.646054 -103.841517 
L 147.366715 -105.480694 
L 144.087376 -93.156712 
L 140.808037 -115.78659 
L 137.528698 -108.874805 
L 134.24936 -96.002721 
L 130.970021 -104.531428 
L 127.690682 -164.178142 
L 124.411343 -115.006381 
L 121.132004 -112.043511 
L 117.852665 -105.183309 
L 114.573326 -95.838898 
L 111.293988 -131.863035 
L 108.014649 -118.349286 
L 104.73531 -118.430375 
L 101.455971 -130.892825 
L 98.176632 -140.578138 
L 94.897293 -131.848656 
L 91.617955 -159.086606 
L 88.338616 -152.558074 
L 85.059277 -151.540567 
L 81.779938 -164.280651 
L 78.500599 -147.003372 
L 75.22126 -202.346214 
L 71.941921 -165.406591 
L 68.662583 -166.891371 
L 65.383244 -170.698514 
L 62.103905 -172.111346 
L 58.824566 -182.672693 
L 55.545227 -206.929199 
z
" style="stroke: #4c72b0; stroke-opacity: 0.2"/>
    </defs>
    <g clip-path="url(#p2834a96586)">
     <use xlink:href="#m990b864099" x="0" y="316.271687" style="fill: #4c72b0; fill-opacity: 0.2; stroke: #4c72b0; stroke-opacity: 0.2"/>
    </g>
   </g>
   <g id="PolyCollection_2">
    <defs>
     <path id="mc70d431d53" d="M 55.545227 -209.680888 
L 55.545227 -183.210433 
L 58.824566 -168.384394 
L 62.103905 -173.543508 
L 65.383244 -164.477324 
L 68.662583 -156.270659 
L 71.941921 -151.007899 
L 75.22126 -199.924165 
L 78.500599 -153.121929 
L 81.779938 -160.366715 
L 85.059277 -152.203533 
L 88.338616 -149.57731 
L 91.617955 -182.073001 
L 94.897293 -149.907315 
L 98.176632 -184.753332 
L 101.455971 -164.432634 
L 104.73531 -149.113357 
L 108.014649 -143.476167 
L 111.293988 -175.415884 
L 114.573326 -122.50544 
L 117.852665 -133.809689 
L 121.132004 -144.372518 
L 124.411343 -153.941665 
L 127.690682 -230.048373 
L 130.970021 -126.562791 
L 134.24936 -132.446314 
L 137.528698 -157.462025 
L 140.808037 -174.567448 
L 144.087376 -141.423632 
L 147.366715 -173.066402 
L 150.646054 -167.588356 
L 153.925393 -167.720489 
L 157.204731 -140.708528 
L 160.48407 -166.015949 
L 163.763409 -164.545958 
L 167.042748 -127.951186 
L 170.322087 -114.971801 
L 173.601426 -128.107748 
L 176.880764 -167.403035 
L 180.160103 -113.767004 
L 183.439442 -123.511204 
L 186.718781 -174.212468 
L 189.99812 -171.57381 
L 193.277459 -120.181735 
L 196.556798 -124.172521 
L 199.836136 -181.955108 
L 203.115475 -131.514905 
L 206.394814 -154.802908 
L 209.674153 -119.619171 
L 212.953492 -134.108662 
L 216.232831 -179.492678 
L 219.512169 -138.414059 
L 222.791508 -179.99081 
L 226.070847 -153.371494 
L 229.350186 -135.715653 
L 232.629525 -109.43374 
L 235.908864 -153.445455 
L 239.188202 -106.818145 
L 242.467541 -136.156487 
L 245.74688 -131.734535 
L 249.026219 -120.979794 
L 252.305558 -99.076391 
L 255.584897 -167.52349 
L 258.864236 -168.244581 
L 262.143574 -125.265005 
L 265.422913 -150.474929 
L 268.702252 -173.314018 
L 271.981591 -92.078087 
L 275.26093 -119.959245 
L 278.540269 -123.149873 
L 281.819607 -165.131004 
L 285.098946 -176.384359 
L 288.378285 -199.813002 
L 291.657624 -130.681722 
L 294.936963 -127.528296 
L 298.216302 -199.913503 
L 301.49564 -125.062049 
L 304.774979 -176.148479 
L 308.054318 -155.271709 
L 311.333657 -123.178591 
L 314.612996 -158.872477 
L 317.892335 -145.647946 
L 321.171674 -98.385101 
L 324.451012 -117.742408 
L 327.730351 -121.035678 
L 331.00969 -157.054099 
L 334.289029 -133.56756 
L 337.568368 -130.750844 
L 340.847707 -166.675542 
L 344.127045 -150.252292 
L 347.406384 -119.666047 
L 350.685723 -112.245737 
L 353.965062 -147.237153 
L 357.244401 -108.07973 
L 360.52374 -125.880767 
L 363.803079 -127.768395 
L 367.082417 -121.11464 
L 370.361756 -112.895373 
L 373.641095 -135.422453 
L 376.920434 -179.821859 
L 380.199773 -162.633544 
L 380.199773 -204.568954 
L 380.199773 -204.568954 
L 376.920434 -220.569573 
L 373.641095 -164.651451 
L 370.361756 -129.727175 
L 367.082417 -146.220852 
L 363.803079 -161.806403 
L 360.52374 -148.149656 
L 357.244401 -129.951523 
L 353.965062 -183.377102 
L 350.685723 -133.164432 
L 347.406384 -154.636848 
L 344.127045 -189.073558 
L 340.847707 -206.109342 
L 337.568368 -162.959602 
L 334.289029 -165.713993 
L 331.00969 -193.405254 
L 327.730351 -154.922831 
L 324.451012 -146.792467 
L 321.171674 -115.171118 
L 317.892335 -184.338046 
L 314.612996 -196.706012 
L 311.333657 -151.006769 
L 308.054318 -183.653159 
L 304.774979 -209.192136 
L 301.49564 -143.470457 
L 298.216302 -250.555333 
L 294.936963 -151.211626 
L 291.657624 -158.699475 
L 288.378285 -244.047926 
L 285.098946 -207.768974 
L 281.819607 -214.593858 
L 278.540269 -162.128725 
L 275.26093 -154.704895 
L 271.981591 -115.690927 
L 268.702252 -219.976833 
L 265.422913 -188.252106 
L 262.143574 -151.092943 
L 258.864236 -222.190506 
L 255.584897 -218.493583 
L 252.305558 -111.763556 
L 249.026219 -152.840727 
L 245.74688 -166.72294 
L 242.467541 -171.41712 
L 239.188202 -137.993512 
L 235.908864 -184.287591 
L 232.629525 -134.981116 
L 229.350186 -187.921087 
L 226.070847 -196.358802 
L 222.791508 -217.076056 
L 219.512169 -170.800604 
L 216.232831 -215.643047 
L 212.953492 -166.832142 
L 209.674153 -137.578146 
L 206.394814 -193.835112 
L 203.115475 -161.057667 
L 199.836136 -224.160333 
L 196.556798 -160.700417 
L 193.277459 -149.598528 
L 189.99812 -230.28206 
L 186.718781 -211.517864 
L 183.439442 -145.051071 
L 180.160103 -134.154931 
L 176.880764 -200.978824 
L 173.601426 -162.943693 
L 170.322087 -130.37343 
L 167.042748 -163.19252 
L 163.763409 -199.958517 
L 160.48407 -205.266977 
L 157.204731 -169.78927 
L 153.925393 -210.432319 
L 150.646054 -206.444221 
L 147.366715 -210.210947 
L 144.087376 -172.990933 
L 140.808037 -221.926023 
L 137.528698 -193.304928 
L 134.24936 -153.86126 
L 130.970021 -154.362856 
L 127.690682 -296.975687 
L 124.411343 -189.791267 
L 121.132004 -180.98931 
L 117.852665 -158.426923 
L 114.573326 -138.958503 
L 111.293988 -217.719333 
L 108.014649 -171.182108 
L 104.73531 -184.274732 
L 101.455971 -198.03272 
L 98.176632 -218.868313 
L 94.897293 -185.593655 
L 91.617955 -213.981736 
L 88.338616 -191.104272 
L 85.059277 -189.680786 
L 81.779938 -200.039006 
L 78.500599 -173.324446 
L 75.22126 -242.335044 
L 71.941921 -179.009677 
L 68.662583 -191.292271 
L 65.383244 -192.812861 
L 62.103905 -193.6238 
L 58.824566 -193.349021 
L 55.545227 -209.680888 
z
" style="stroke: #dd8452; stroke-opacity: 0.2"/>
    </defs>
    <g clip-path="url(#p2834a96586)">
     <use xlink:href="#mc70d431d53" x="0" y="316.271687" style="fill: #dd8452; fill-opacity: 0.2; stroke: #dd8452; stroke-opacity: 0.2"/>
    </g>
   </g>
   <g id="PolyCollection_3">
    <defs>
     <path id="mf85f3a134e" d="M 55.545227 -173.86923 
L 55.545227 -155.330086 
L 58.824566 -145.011924 
L 62.103905 -136.414299 
L 65.383244 -131.270004 
L 68.662583 -126.532674 
L 71.941921 -126.222156 
L 75.22126 -119.85348 
L 78.500599 -118.450478 
L 81.779938 -111.876064 
L 85.059277 -108.545411 
L 88.338616 -106.334295 
L 91.617955 -103.122593 
L 94.897293 -99.001697 
L 98.176632 -98.340937 
L 101.455971 -95.006593 
L 104.73531 -94.853543 
L 108.014649 -94.621278 
L 111.293988 -93.745222 
L 114.573326 -91.766223 
L 117.852665 -91.939101 
L 121.132004 -89.848964 
L 124.411343 -88.684312 
L 127.690682 -89.115946 
L 130.970021 -88.447125 
L 134.24936 -87.199902 
L 137.528698 -86.265476 
L 140.808037 -85.04645 
L 144.087376 -84.98895 
L 147.366715 -84.078751 
L 150.646054 -84.196612 
L 153.925393 -85.104243 
L 157.204731 -84.216109 
L 160.48407 -83.343694 
L 163.763409 -83.566764 
L 167.042748 -82.745639 
L 170.322087 -83.316008 
L 173.601426 -82.764847 
L 176.880764 -82.538725 
L 180.160103 -83.095059 
L 183.439442 -81.872697 
L 186.718781 -81.822781 
L 189.99812 -81.217567 
L 193.277459 -79.756066 
L 196.556798 -79.82694 
L 199.836136 -79.802026 
L 203.115475 -80.462254 
L 206.394814 -80.694375 
L 209.674153 -79.871187 
L 212.953492 -79.596416 
L 216.232831 -79.426393 
L 219.512169 -78.709572 
L 222.791508 -78.093786 
L 226.070847 -78.206313 
L 229.350186 -78.102666 
L 232.629525 -77.691065 
L 235.908864 -77.219992 
L 239.188202 -77.053485 
L 242.467541 -77.039498 
L 245.74688 -76.38083 
L 249.026219 -76.058845 
L 252.305558 -77.021437 
L 255.584897 -75.880625 
L 258.864236 -75.167447 
L 262.143574 -75.415154 
L 265.422913 -75.447066 
L 268.702252 -75.680042 
L 271.981591 -76.534558 
L 275.26093 -76.067027 
L 278.540269 -76.26622 
L 281.819607 -81.434791 
L 285.098946 -81.874763 
L 288.378285 -81.547453 
L 291.657624 -81.115909 
L 294.936963 -81.190413 
L 298.216302 -80.348164 
L 301.49564 -81.616597 
L 304.774979 -80.692516 
L 308.054318 -80.887777 
L 311.333657 -80.577563 
L 314.612996 -80.432546 
L 317.892335 -79.786634 
L 321.171674 -79.269493 
L 324.451012 -78.53311 
L 327.730351 -78.872407 
L 331.00969 -79.109711 
L 334.289029 -78.455602 
L 337.568368 -77.448262 
L 340.847707 -77.46279 
L 344.127045 -76.414925 
L 347.406384 -76.769535 
L 350.685723 -77.078192 
L 353.965062 -77.026714 
L 357.244401 -76.7354 
L 360.52374 -76.300134 
L 363.803079 -77.259153 
L 367.082417 -76.751135 
L 370.361756 -75.858294 
L 373.641095 -75.57677 
L 376.920434 -75.984012 
L 380.199773 -77.298442 
L 380.199773 -94.75147 
L 380.199773 -94.75147 
L 376.920434 -95.03916 
L 373.641095 -94.36803 
L 370.361756 -94.160751 
L 367.082417 -94.165733 
L 363.803079 -94.662742 
L 360.52374 -95.487205 
L 357.244401 -95.375371 
L 353.965062 -94.905833 
L 350.685723 -95.232796 
L 347.406384 -95.300517 
L 344.127045 -94.867782 
L 340.847707 -95.219659 
L 337.568368 -96.101671 
L 334.289029 -96.56268 
L 331.00969 -97.694152 
L 327.730351 -97.655115 
L 324.451012 -97.248164 
L 321.171674 -96.968289 
L 317.892335 -98.615483 
L 314.612996 -99.84185 
L 311.333657 -99.873108 
L 308.054318 -99.503271 
L 304.774979 -99.15714 
L 301.49564 -100.288417 
L 298.216302 -100.200715 
L 294.936963 -100.500239 
L 291.657624 -100.404949 
L 288.378285 -102.040572 
L 285.098946 -101.001979 
L 281.819607 -99.821191 
L 278.540269 -94.33001 
L 275.26093 -91.975646 
L 271.981591 -92.363774 
L 268.702252 -91.96854 
L 265.422913 -91.74421 
L 262.143574 -91.571478 
L 258.864236 -93.185083 
L 255.584897 -92.460675 
L 252.305558 -92.340063 
L 249.026219 -90.806937 
L 245.74688 -91.475548 
L 242.467541 -91.683625 
L 239.188202 -91.933506 
L 235.908864 -91.396532 
L 232.629525 -92.543626 
L 229.350186 -93.915341 
L 226.070847 -94.718998 
L 222.791508 -95.902275 
L 219.512169 -95.507378 
L 216.232831 -95.975369 
L 212.953492 -97.081814 
L 209.674153 -96.965507 
L 206.394814 -97.731928 
L 203.115475 -98.056091 
L 199.836136 -97.915167 
L 196.556798 -99.286739 
L 193.277459 -99.335603 
L 189.99812 -99.029804 
L 186.718781 -99.917531 
L 183.439442 -100.760631 
L 180.160103 -101.347542 
L 176.880764 -102.187285 
L 173.601426 -101.833241 
L 170.322087 -102.614628 
L 167.042748 -101.535533 
L 163.763409 -104.543264 
L 160.48407 -104.190972 
L 157.204731 -104.662841 
L 153.925393 -105.535055 
L 150.646054 -104.269653 
L 147.366715 -105.389916 
L 144.087376 -106.083694 
L 140.808037 -105.809378 
L 137.528698 -107.088304 
L 134.24936 -109.592438 
L 130.970021 -110.592543 
L 127.690682 -110.870484 
L 124.411343 -111.098019 
L 121.132004 -112.925618 
L 117.852665 -114.450072 
L 114.573326 -115.968027 
L 111.293988 -117.465681 
L 108.014649 -117.881036 
L 104.73531 -119.049469 
L 101.455971 -119.038633 
L 98.176632 -123.595292 
L 94.897293 -122.65921 
L 91.617955 -128.868345 
L 88.338616 -130.741689 
L 85.059277 -135.497251 
L 81.779938 -137.161183 
L 78.500599 -143.884467 
L 75.22126 -145.617704 
L 71.941921 -151.3123 
L 68.662583 -149.979104 
L 65.383244 -152.791246 
L 62.103905 -156.032217 
L 58.824566 -160.577053 
L 55.545227 -173.86923 
z
" style="stroke: #55a868; stroke-opacity: 0.2"/>
    </defs>
    <g clip-path="url(#p2834a96586)">
     <use xlink:href="#mf85f3a134e" x="0" y="316.271687" style="fill: #55a868; fill-opacity: 0.2; stroke: #55a868; stroke-opacity: 0.2"/>
    </g>
   </g>
   <g id="PolyCollection_4">
    <defs>
     <path id="ma0f9363649" d="M 55.545227 -162.014583 
L 55.545227 -155.333196 
L 58.824566 -146.14456 
L 62.103905 -150.858717 
L 65.383244 -152.54206 
L 68.662583 -154.220151 
L 71.941921 -149.010988 
L 75.22126 -150.666986 
L 78.500599 -142.491839 
L 81.779938 -147.070058 
L 85.059277 -149.283477 
L 88.338616 -149.209126 
L 91.617955 -134.477926 
L 94.897293 -127.12512 
L 98.176632 -117.310863 
L 101.455971 -139.027262 
L 104.73531 -116.121065 
L 108.014649 -124.976524 
L 111.293988 -122.16114 
L 114.573326 -106.352154 
L 117.852665 -103.5479 
L 121.132004 -101.241835 
L 124.411343 -117.962729 
L 127.690682 -103.914711 
L 130.970021 -115.169788 
L 134.24936 -100.555692 
L 137.528698 -109.087574 
L 140.808037 -97.155166 
L 144.087376 -92.860702 
L 147.366715 -118.653133 
L 150.646054 -101.432465 
L 153.925393 -94.507982 
L 157.204731 -91.553418 
L 160.48407 -101.153952 
L 163.763409 -88.790307 
L 167.042748 -113.551605 
L 170.322087 -94.894343 
L 173.601426 -89.046161 
L 176.880764 -84.974629 
L 180.160103 -82.438947 
L 183.439442 -83.079721 
L 186.718781 -79.314001 
L 189.99812 -79.716637 
L 193.277459 -79.648944 
L 196.556798 -78.44482 
L 199.836136 -76.223174 
L 203.115475 -75.683259 
L 206.394814 -74.660857 
L 209.674153 -73.03689 
L 212.953492 -73.085398 
L 216.232831 -72.077309 
L 219.512169 -71.999409 
L 222.791508 -71.071145 
L 226.070847 -71.323128 
L 229.350186 -69.105522 
L 232.629525 -67.958608 
L 235.908864 -68.884834 
L 239.188202 -66.849482 
L 242.467541 -66.85139 
L 245.74688 -66.126837 
L 249.026219 -65.910997 
L 252.305558 -65.055171 
L 255.584897 -64.59573 
L 258.864236 -64.087816 
L 262.143574 -64.576357 
L 265.422913 -63.602973 
L 268.702252 -64.490556 
L 271.981591 -63.085654 
L 275.26093 -63.673335 
L 278.540269 -62.564172 
L 281.819607 -74.258717 
L 285.098946 -74.183867 
L 288.378285 -74.100998 
L 291.657624 -74.078975 
L 294.936963 -73.77393 
L 298.216302 -73.052641 
L 301.49564 -72.903139 
L 304.774979 -73.44555 
L 308.054318 -72.790341 
L 311.333657 -72.527623 
L 314.612996 -72.25182 
L 317.892335 -72.213277 
L 321.171674 -72.173009 
L 324.451012 -71.834065 
L 327.730351 -71.50302 
L 331.00969 -70.64219 
L 334.289029 -72.149194 
L 337.568368 -71.072853 
L 340.847707 -70.799174 
L 344.127045 -71.655074 
L 347.406384 -71.817137 
L 350.685723 -70.888505 
L 353.965062 -72.598638 
L 357.244401 -70.162252 
L 360.52374 -70.465504 
L 363.803079 -71.003448 
L 367.082417 -69.721636 
L 370.361756 -70.075435 
L 373.641095 -70.269987 
L 376.920434 -70.130377 
L 380.199773 -69.81629 
L 380.199773 -87.421586 
L 380.199773 -87.421586 
L 376.920434 -87.161566 
L 373.641095 -87.418958 
L 370.361756 -87.259513 
L 367.082417 -87.070725 
L 363.803079 -87.454319 
L 360.52374 -87.067136 
L 357.244401 -87.651828 
L 353.965062 -88.489124 
L 350.685723 -87.608736 
L 347.406384 -88.079399 
L 344.127045 -88.642078 
L 340.847707 -87.368801 
L 337.568368 -88.301425 
L 334.289029 -87.719567 
L 331.00969 -87.497113 
L 327.730351 -87.816932 
L 324.451012 -88.07384 
L 321.171674 -88.891995 
L 317.892335 -88.662522 
L 314.612996 -88.769614 
L 311.333657 -89.354432 
L 308.054318 -88.489621 
L 304.774979 -89.610253 
L 301.49564 -89.266368 
L 298.216302 -89.780643 
L 294.936963 -90.725604 
L 291.657624 -90.760462 
L 288.378285 -89.25855 
L 285.098946 -90.099381 
L 281.819607 -90.692457 
L 278.540269 -74.901081 
L 275.26093 -77.088708 
L 271.981591 -76.253599 
L 268.702252 -77.488999 
L 265.422913 -76.332436 
L 262.143574 -79.027276 
L 258.864236 -76.989336 
L 255.584897 -78.28052 
L 252.305558 -78.076619 
L 249.026219 -78.927568 
L 245.74688 -78.920003 
L 242.467541 -79.165254 
L 239.188202 -79.66649 
L 235.908864 -82.731591 
L 232.629525 -81.496675 
L 229.350186 -84.208665 
L 226.070847 -85.737242 
L 222.791508 -85.235311 
L 219.512169 -86.56556 
L 216.232831 -87.658344 
L 212.953492 -88.081737 
L 209.674153 -87.904796 
L 206.394814 -89.486377 
L 203.115475 -90.21276 
L 199.836136 -90.82563 
L 196.556798 -93.158907 
L 193.277459 -93.957369 
L 189.99812 -94.959541 
L 186.718781 -93.602844 
L 183.439442 -97.523955 
L 180.160103 -95.690794 
L 176.880764 -98.679994 
L 173.601426 -101.889074 
L 170.322087 -108.452768 
L 167.042748 -125.27219 
L 163.763409 -105.726574 
L 160.48407 -115.051592 
L 157.204731 -107.989097 
L 153.925393 -109.951749 
L 150.646054 -117.451629 
L 147.366715 -130.131199 
L 144.087376 -108.891846 
L 140.808037 -112.896685 
L 137.528698 -123.417845 
L 134.24936 -117.278777 
L 130.970021 -129.405306 
L 127.690682 -120.896812 
L 124.411343 -132.383738 
L 121.132004 -120.298708 
L 117.852665 -122.229971 
L 114.573326 -125.050414 
L 111.293988 -136.45156 
L 108.014649 -140.631283 
L 104.73531 -134.093238 
L 101.455971 -147.898201 
L 98.176632 -135.143621 
L 94.897293 -142.591079 
L 91.617955 -146.851969 
L 88.338616 -154.474922 
L 85.059277 -155.869413 
L 81.779938 -155.465352 
L 78.500599 -153.919564 
L 75.22126 -157.589512 
L 71.941921 -158.157735 
L 68.662583 -160.081074 
L 65.383244 -159.644972 
L 62.103905 -159.434085 
L 58.824566 -158.944542 
L 55.545227 -162.014583 
z
" style="stroke: #c44e52; stroke-opacity: 0.2"/>
    </defs>
    <g clip-path="url(#p2834a96586)">
     <use xlink:href="#ma0f9363649" x="0" y="316.271687" style="fill: #c44e52; fill-opacity: 0.2; stroke: #c44e52; stroke-opacity: 0.2"/>
    </g>
   </g>
   <g id="PolyCollection_5">
    <defs>
     <path id="m819fbfbb93" d="M 55.545227 -181.808849 
L 55.545227 -166.428422 
L 58.824566 -147.2859 
L 62.103905 -145.314221 
L 65.383244 -139.024251 
L 68.662583 -136.576952 
L 71.941921 -134.657193 
L 75.22126 -127.594132 
L 78.500599 -126.628187 
L 81.779938 -125.540353 
L 85.059277 -120.758046 
L 88.338616 -117.395556 
L 91.617955 -115.906856 
L 94.897293 -110.45009 
L 98.176632 -110.156955 
L 101.455971 -111.11488 
L 104.73531 -109.182317 
L 108.014649 -107.211401 
L 111.293988 -106.941896 
L 114.573326 -106.3702 
L 117.852665 -105.703563 
L 121.132004 -105.457407 
L 124.411343 -103.311046 
L 127.690682 -104.051424 
L 130.970021 -104.095197 
L 134.24936 -102.873579 
L 137.528698 -103.009165 
L 140.808037 -102.048053 
L 144.087376 -101.601211 
L 147.366715 -99.705197 
L 150.646054 -98.445878 
L 153.925393 -99.520849 
L 157.204731 -97.760388 
L 160.48407 -97.850529 
L 163.763409 -98.199217 
L 167.042748 -97.535069 
L 170.322087 -97.283197 
L 173.601426 -96.683594 
L 176.880764 -97.504459 
L 180.160103 -97.262404 
L 183.439442 -97.01895 
L 186.718781 -96.13637 
L 189.99812 -96.729006 
L 193.277459 -95.405144 
L 196.556798 -95.322629 
L 199.836136 -95.353929 
L 203.115475 -94.600229 
L 206.394814 -93.980253 
L 209.674153 -94.108407 
L 212.953492 -94.117522 
L 216.232831 -93.938398 
L 219.512169 -94.243425 
L 222.791508 -94.492366 
L 226.070847 -93.478483 
L 229.350186 -92.548825 
L 232.629525 -92.699738 
L 235.908864 -93.011622 
L 239.188202 -92.253866 
L 242.467541 -92.332056 
L 245.74688 -91.718954 
L 249.026219 -91.502893 
L 252.305558 -91.406837 
L 255.584897 -91.172677 
L 258.864236 -90.580837 
L 262.143574 -90.621088 
L 265.422913 -89.606444 
L 268.702252 -89.946543 
L 271.981591 -89.476986 
L 275.26093 -89.056616 
L 278.540269 -89.658407 
L 281.819607 -99.776656 
L 285.098946 -99.675942 
L 288.378285 -98.746786 
L 291.657624 -98.860861 
L 294.936963 -99.512561 
L 298.216302 -99.02753 
L 301.49564 -98.997599 
L 304.774979 -98.443533 
L 308.054318 -98.697624 
L 311.333657 -98.184868 
L 314.612996 -97.384754 
L 317.892335 -97.906811 
L 321.171674 -98.422802 
L 324.451012 -97.099582 
L 327.730351 -98.052003 
L 331.00969 -98.577744 
L 334.289029 -97.174322 
L 337.568368 -97.559072 
L 340.847707 -97.133452 
L 344.127045 -98.013801 
L 347.406384 -97.11783 
L 350.685723 -97.546503 
L 353.965062 -96.537194 
L 357.244401 -97.741016 
L 360.52374 -95.90931 
L 363.803079 -96.50549 
L 367.082417 -96.349138 
L 370.361756 -96.877868 
L 373.641095 -96.487057 
L 376.920434 -96.272195 
L 380.199773 -95.528048 
L 380.199773 -119.828382 
L 380.199773 -119.828382 
L 376.920434 -121.236839 
L 373.641095 -120.215809 
L 370.361756 -119.714521 
L 367.082417 -120.049494 
L 363.803079 -119.868344 
L 360.52374 -120.252549 
L 357.244401 -121.699138 
L 353.965062 -120.692587 
L 350.685723 -121.358332 
L 347.406384 -120.847913 
L 344.127045 -120.568831 
L 340.847707 -120.074787 
L 337.568368 -120.598831 
L 334.289029 -120.148007 
L 331.00969 -120.735855 
L 327.730351 -121.396442 
L 324.451012 -121.80065 
L 321.171674 -120.347428 
L 317.892335 -121.131336 
L 314.612996 -122.537013 
L 311.333657 -122.190466 
L 308.054318 -122.260296 
L 304.774979 -121.061738 
L 301.49564 -120.796834 
L 298.216302 -122.694647 
L 294.936963 -121.662026 
L 291.657624 -122.227654 
L 288.378285 -122.086652 
L 285.098946 -124.628984 
L 281.819607 -123.069914 
L 278.540269 -107.166707 
L 275.26093 -107.829514 
L 271.981591 -107.147807 
L 268.702252 -108.633804 
L 265.422913 -108.834228 
L 262.143574 -108.554079 
L 258.864236 -109.071346 
L 255.584897 -109.211388 
L 252.305558 -109.408413 
L 249.026219 -110.331161 
L 245.74688 -109.782029 
L 242.467541 -110.038824 
L 239.188202 -110.690168 
L 235.908864 -111.300906 
L 232.629525 -110.959422 
L 229.350186 -111.953921 
L 226.070847 -113.120501 
L 222.791508 -112.323949 
L 219.512169 -113.796929 
L 216.232831 -114.088142 
L 212.953492 -113.713085 
L 209.674153 -112.681636 
L 206.394814 -112.764077 
L 203.115475 -112.992589 
L 199.836136 -114.334295 
L 196.556798 -114.097115 
L 193.277459 -115.19916 
L 189.99812 -115.347693 
L 186.718781 -116.059141 
L 183.439442 -116.23183 
L 180.160103 -117.072337 
L 176.880764 -116.10375 
L 173.601426 -115.949428 
L 170.322087 -116.73294 
L 167.042748 -117.622422 
L 163.763409 -117.622443 
L 160.48407 -118.329146 
L 157.204731 -119.256439 
L 153.925393 -118.951989 
L 150.646054 -119.681974 
L 147.366715 -120.612646 
L 144.087376 -125.131158 
L 140.808037 -124.526584 
L 137.528698 -125.103166 
L 134.24936 -125.855382 
L 130.970021 -127.295901 
L 127.690682 -127.309221 
L 124.411343 -126.606543 
L 121.132004 -129.664604 
L 117.852665 -130.4081 
L 114.573326 -131.380054 
L 111.293988 -131.628774 
L 108.014649 -132.907559 
L 104.73531 -134.993394 
L 101.455971 -135.233192 
L 98.176632 -134.756746 
L 94.897293 -135.972466 
L 91.617955 -140.055507 
L 88.338616 -141.930738 
L 85.059277 -144.409599 
L 81.779938 -150.288232 
L 78.500599 -150.304943 
L 75.22126 -152.471795 
L 71.941921 -157.211457 
L 68.662583 -158.077595 
L 65.383244 -160.106968 
L 62.103905 -163.158598 
L 58.824566 -171.615079 
L 55.545227 -181.808849 
z
" style="stroke: #8172b3; stroke-opacity: 0.2"/>
    </defs>
    <g clip-path="url(#p2834a96586)">
     <use xlink:href="#m819fbfbb93" x="0" y="316.271687" style="fill: #8172b3; fill-opacity: 0.2; stroke: #8172b3; stroke-opacity: 0.2"/>
    </g>
   </g>
   <g id="line2d_11">
    <path d="M 55.545227 123.990636 
L 58.824566 149.317536 
L 62.103905 158.149149 
L 65.383244 164.117785 
L 68.662583 169.521899 
L 71.941921 169.23972 
L 75.22126 139.643078 
L 78.500599 181.806563 
L 81.779938 171.201697 
L 85.059277 183.791039 
L 88.338616 184.969332 
L 91.617955 174.480782 
L 94.897293 198.305322 
L 98.176632 191.464197 
L 101.455971 198.23222 
L 104.73531 208.087279 
L 108.014649 210.835851 
L 111.293988 201.127943 
L 114.573326 228.233786 
L 117.852665 220.810389 
L 121.132004 213.379497 
L 124.411343 212.595299 
L 127.690682 172.79411 
L 130.970021 222.596299 
L 134.24936 226.470746 
L 137.528698 219.047797 
L 140.808037 214.549493 
L 144.087376 231.909577 
L 147.366715 220.746988 
L 150.646054 222.467417 
L 153.925393 220.241425 
L 157.204731 232.910264 
L 160.48407 224.787551 
L 163.763409 223.625559 
L 167.042748 235.951774 
L 170.322087 242.274979 
L 173.601426 236.16802 
L 176.880764 229.094735 
L 180.160103 242.660348 
L 183.439442 245.287072 
L 186.718781 232.070705 
L 189.99812 228.336128 
L 193.277459 244.833055 
L 196.556798 241.146764 
L 199.836136 229.347 
L 203.115475 243.036538 
L 206.394814 245.877013 
L 209.674153 248.61105 
L 212.953492 244.174457 
L 216.232831 244.618816 
L 219.512169 246.834378 
L 222.791508 242.037205 
L 226.070847 243.483823 
L 229.350186 248.874103 
L 232.629525 252.584497 
L 235.908864 248.119846 
L 239.188202 254.261066 
L 242.467541 250.877072 
L 245.74688 251.919282 
L 249.026219 253.195497 
L 252.305558 254.926565 
L 255.584897 247.339233 
L 258.864236 250.575501 
L 262.143574 254.079194 
L 265.422913 252.950121 
L 268.702252 249.118059 
L 271.981591 256.360143 
L 275.26093 255.158554 
L 278.540269 252.468585 
L 281.819607 248.130572 
L 285.098946 249.879807 
L 288.378285 242.601637 
L 291.657624 252.025304 
L 294.936963 252.21549 
L 298.216302 246.353491 
L 301.49564 251.559922 
L 304.774979 250.11446 
L 308.054318 250.782978 
L 311.333657 251.776709 
L 314.612996 248.103441 
L 317.892335 250.721033 
L 321.171674 253.62825 
L 324.451012 253.638797 
L 327.730351 253.495148 
L 331.00969 250.740179 
L 334.289029 251.894785 
L 337.568368 250.83342 
L 340.847707 249.857365 
L 344.127045 253.205464 
L 347.406384 254.69574 
L 350.685723 253.656681 
L 353.965062 252.969031 
L 357.244401 255.316112 
L 360.52374 253.505443 
L 363.803079 254.505203 
L 367.082417 254.288246 
L 370.361756 254.961486 
L 373.641095 252.598107 
L 376.920434 251.258923 
L 380.199773 251.438748 
" clip-path="url(#p2834a96586)" style="fill: none; stroke: #4c72b0; stroke-width: 1.5; stroke-linecap: round"/>
   </g>
   <g id="line2d_12">
    <path d="M 55.545227 120.07612 
L 58.824566 135.87707 
L 62.103905 132.18295 
L 65.383244 137.311921 
L 68.662583 142.602082 
L 71.941921 152.065994 
L 75.22126 94.840157 
L 78.500599 152.703068 
L 81.779938 136.358338 
L 85.059277 146.270011 
L 88.338616 147.963254 
L 91.617955 117.865089 
L 94.897293 148.013254 
L 98.176632 113.912039 
L 101.455971 135.637488 
L 104.73531 149.181323 
L 108.014649 158.409885 
L 111.293988 118.575289 
L 114.573326 185.482068 
L 117.852665 170.168083 
L 121.132004 153.480168 
L 124.411343 143.967344 
L 127.690682 51.650975 
L 130.970021 176.588357 
L 134.24936 173.658209 
L 137.528698 140.618342 
L 140.808037 117.743362 
L 144.087376 159.937342 
L 147.366715 124.302812 
L 150.646054 129.427147 
L 153.925393 126.509231 
L 157.204731 160.729616 
L 160.48407 131.251121 
L 163.763409 133.467589 
L 167.042748 170.868408 
L 170.322087 193.976007 
L 173.601426 171.642038 
L 176.880764 132.160683 
L 180.160103 192.379212 
L 183.439442 181.459407 
L 186.718781 122.677456 
L 189.99812 115.535461 
L 193.277459 181.219419 
L 196.556798 174.539262 
L 199.836136 113.281269 
L 203.115475 171.00494 
L 206.394814 141.241502 
L 209.674153 187.469697 
L 212.953492 165.964315 
L 216.232831 120.047676 
L 219.512169 161.577962 
L 222.791508 117.607431 
L 226.070847 141.32389 
L 229.350186 154.560193 
L 232.629525 194.729768 
L 235.908864 148.165726 
L 239.188202 194.532825 
L 242.467541 163.04878 
L 245.74688 167.392325 
L 249.026219 179.817284 
L 252.305558 210.566749 
L 255.584897 122.966376 
L 258.864236 121.483742 
L 262.143574 178.430257 
L 265.422913 146.768038 
L 268.702252 119.654885 
L 271.981591 213.127998 
L 275.26093 179.940514 
L 278.540269 174.015722 
L 281.819607 127.651847 
L 285.098946 123.416106 
L 288.378285 95.381835 
L 291.657624 171.538134 
L 294.936963 176.987929 
L 298.216302 89.19816 
L 301.49564 182.036031 
L 304.774979 123.482832 
L 308.054318 146.367647 
L 311.333657 179.010924 
L 314.612996 138.322651 
L 317.892335 151.072277 
L 321.171674 209.272094 
L 324.451012 184.384846 
L 327.730351 178.956176 
L 331.00969 142.291068 
L 334.289029 166.939547 
L 337.568368 170.460913 
L 340.847707 129.749172 
L 344.127045 146.30357 
L 347.406384 179.920215 
L 350.685723 193.634213 
L 353.965062 151.110522 
L 357.244401 197.324191 
L 360.52374 179.315115 
L 363.803079 172.155614 
L 367.082417 182.678444 
L 370.361756 194.899732 
L 373.641095 166.545931 
L 376.920434 116.335409 
L 380.199773 133.349745 
" clip-path="url(#p2834a96586)" style="fill: none; stroke: #dd8452; stroke-width: 1.5; stroke-linecap: round"/>
   </g>
   <g id="line2d_13">
    <path d="M 55.545227 151.743453 
L 58.824566 162.618239 
L 62.103905 169.413597 
L 65.383244 173.891102 
L 68.662583 176.784667 
L 71.941921 176.632889 
L 75.22126 183.411213 
L 78.500599 185.137899 
L 81.779938 191.453579 
L 85.059277 194.703416 
L 88.338616 197.585143 
L 91.617955 199.695265 
L 94.897293 205.196757 
L 98.176632 205.369555 
L 101.455971 209.055479 
L 104.73531 209.927199 
L 108.014649 210.564807 
L 111.293988 211.12436 
L 114.573326 213.095473 
L 117.852665 213.25434 
L 121.132004 214.805743 
L 124.411343 216.556273 
L 127.690682 216.961059 
L 130.970021 216.816169 
L 134.24936 217.786362 
L 137.528698 220.178248 
L 140.808037 220.72792 
L 144.087376 221.190866 
L 147.366715 221.409255 
L 150.646054 221.932556 
L 153.925393 220.775873 
L 157.204731 222.515087 
L 160.48407 222.268478 
L 163.763409 222.761229 
L 167.042748 224.026927 
L 170.322087 223.299475 
L 173.601426 223.750816 
L 176.880764 223.604528 
L 180.160103 224.645458 
L 183.439442 224.800935 
L 186.718781 225.376686 
L 189.99812 226.503245 
L 193.277459 227.108167 
L 196.556798 226.732678 
L 199.836136 227.72917 
L 203.115475 226.878734 
L 206.394814 227.196321 
L 209.674153 227.6736 
L 212.953492 228.145059 
L 216.232831 228.78053 
L 219.512169 228.91213 
L 222.791508 229.679526 
L 226.070847 230.016092 
L 229.350186 230.520453 
L 232.629525 230.932429 
L 235.908864 231.906483 
L 239.188202 231.895152 
L 242.467541 232.028632 
L 245.74688 232.461102 
L 249.026219 232.964802 
L 252.305558 231.896613 
L 255.584897 231.730822 
L 258.864236 232.62908 
L 262.143574 233.009959 
L 265.422913 232.811482 
L 268.702252 232.640335 
L 271.981591 232.092267 
L 275.26093 232.043675 
L 278.540269 231.437347 
L 281.819607 226.120502 
L 285.098946 225.11093 
L 288.378285 225.532174 
L 291.657624 225.846314 
L 294.936963 225.905477 
L 298.216302 226.629849 
L 301.49564 226.188925 
L 304.774979 226.787175 
L 308.054318 226.068002 
L 311.333657 226.537026 
L 314.612996 226.595643 
L 317.892335 227.206737 
L 321.171674 227.894299 
L 324.451012 228.322654 
L 327.730351 228.664929 
L 331.00969 228.782203 
L 334.289029 229.294115 
L 337.568368 229.783007 
L 340.847707 230.249037 
L 344.127045 230.579591 
L 347.406384 230.59874 
L 350.685723 230.504699 
L 353.965062 230.693548 
L 357.244401 230.848251 
L 360.52374 230.983191 
L 363.803079 230.888547 
L 367.082417 231.195059 
L 370.361756 231.622807 
L 373.641095 231.482393 
L 376.920434 231.103691 
L 380.199773 230.33494 
" clip-path="url(#p2834a96586)" style="fill: none; stroke: #55a868; stroke-width: 1.5; stroke-linecap: round"/>
   </g>
   <g id="line2d_14">
    <path d="M 55.545227 157.046542 
L 58.824566 163.199725 
L 62.103905 160.656449 
L 65.383244 159.965164 
L 68.662583 158.814369 
L 71.941921 162.495511 
L 75.22126 162.060566 
L 78.500599 167.837955 
L 81.779938 164.667655 
L 85.059277 163.654055 
L 88.338616 164.452918 
L 91.617955 175.697325 
L 94.897293 181.11714 
L 98.176632 189.736364 
L 101.455971 172.997211 
L 104.73531 191.198312 
L 108.014649 183.293128 
L 111.293988 186.780126 
L 114.573326 200.433744 
L 117.852665 203.238777 
L 121.132004 205.516862 
L 124.411343 190.583704 
L 127.690682 203.566398 
L 130.970021 194.086311 
L 134.24936 207.079237 
L 137.528698 199.839148 
L 140.808037 211.166513 
L 144.087376 215.690813 
L 147.366715 191.809113 
L 150.646054 207.132511 
L 153.925393 214.352177 
L 157.204731 216.365538 
L 160.48407 208.022144 
L 163.763409 218.579432 
L 167.042748 196.777739 
L 170.322087 214.623195 
L 173.601426 220.935724 
L 176.880764 224.618466 
L 180.160103 226.986408 
L 183.439442 225.930991 
L 186.718781 230.215279 
L 189.99812 228.972286 
L 193.277459 229.9783 
L 196.556798 230.859396 
L 199.836136 232.585389 
L 203.115475 233.173743 
L 206.394814 233.849812 
L 209.674153 235.398568 
L 212.953492 236.035618 
L 216.232831 236.373398 
L 219.512169 236.803398 
L 222.791508 237.676372 
L 226.070847 237.901614 
L 229.350186 239.672294 
L 232.629525 241.470162 
L 235.908864 240.554755 
L 239.188202 242.739564 
L 242.467541 243.347338 
L 245.74688 243.81653 
L 249.026219 244.342573 
L 252.305558 244.881523 
L 255.584897 244.777159 
L 258.864236 245.477809 
L 262.143574 244.393571 
L 265.422913 246.200175 
L 268.702252 245.895111 
L 271.981591 246.514363 
L 275.26093 245.872826 
L 278.540269 247.585977 
L 281.819607 233.891775 
L 285.098946 234.181846 
L 288.378285 234.323369 
L 291.657624 234.196828 
L 294.936963 234.164829 
L 298.216302 235.027727 
L 301.49564 235.140235 
L 304.774979 235.013739 
L 308.054318 235.623519 
L 311.333657 235.57318 
L 314.612996 235.670323 
L 317.892335 235.823175 
L 321.171674 236.055782 
L 324.451012 236.629672 
L 327.730351 236.247383 
L 331.00969 236.812274 
L 334.289029 236.737204 
L 337.568368 236.634869 
L 340.847707 237.023387 
L 344.127045 236.554169 
L 347.406384 236.584947 
L 350.685723 237.290949 
L 353.965062 236.250055 
L 357.244401 237.437274 
L 360.52374 237.464249 
L 363.803079 237.238433 
L 367.082417 237.572273 
L 370.361756 237.685706 
L 373.641095 237.697614 
L 376.920434 237.9865 
L 380.199773 238.139371 
" clip-path="url(#p2834a96586)" style="fill: none; stroke: #c44e52; stroke-width: 1.5; stroke-linecap: round"/>
   </g>
   <g id="line2d_15">
    <path d="M 55.545227 142.529022 
L 58.824566 157.251143 
L 62.103905 161.273289 
L 65.383244 165.552663 
L 68.662583 167.787029 
L 71.941921 169.614036 
L 75.22126 175.62826 
L 78.500599 177.782147 
L 81.779938 178.09514 
L 85.059277 183.318409 
L 88.338616 186.102837 
L 91.617955 188.252124 
L 94.897293 193.126975 
L 98.176632 193.76943 
L 101.455971 193.455454 
L 104.73531 194.063293 
L 108.014649 195.687386 
L 111.293988 197.060959 
L 114.573326 197.717048 
L 117.852665 198.549698 
L 121.132004 198.689125 
L 124.411343 200.520091 
L 127.690682 200.560357 
L 130.970021 200.658412 
L 134.24936 202.236464 
L 137.528698 202.369775 
L 140.808037 203.327938 
L 144.087376 203.462066 
L 147.366715 206.399495 
L 150.646054 206.565115 
L 153.925393 207.151497 
L 157.204731 207.593848 
L 160.48407 207.843491 
L 163.763409 208.301032 
L 167.042748 208.886308 
L 170.322087 209.215512 
L 173.601426 209.653764 
L 176.880764 209.912342 
L 180.160103 209.746336 
L 183.439442 209.66719 
L 186.718781 209.864243 
L 189.99812 209.886285 
L 193.277459 211.166816 
L 196.556798 211.509354 
L 199.836136 211.322475 
L 203.115475 212.487639 
L 206.394814 212.713041 
L 209.674153 212.791932 
L 212.953492 212.744362 
L 216.232831 212.64391 
L 219.512169 212.823582 
L 222.791508 212.575279 
L 226.070847 213.144004 
L 229.350186 213.796114 
L 232.629525 214.345741 
L 235.908864 214.40621 
L 239.188202 214.692311 
L 242.467541 214.824961 
L 245.74688 215.198655 
L 249.026219 215.488083 
L 252.305558 215.662219 
L 255.584897 215.82183 
L 258.864236 216.213346 
L 262.143574 216.272544 
L 265.422913 216.967034 
L 268.702252 217.332592 
L 271.981591 217.731432 
L 275.26093 218.018506 
L 278.540269 217.919922 
L 281.819607 205.213593 
L 285.098946 205.479317 
L 288.378285 206.065547 
L 291.657624 205.911409 
L 294.936963 205.977545 
L 298.216302 206.293674 
L 301.49564 206.967007 
L 304.774979 206.787209 
L 308.054318 206.693194 
L 311.333657 206.944152 
L 314.612996 206.65503 
L 317.892335 207.182244 
L 321.171674 207.222035 
L 324.451012 207.039694 
L 327.730351 207.163503 
L 331.00969 207.087684 
L 334.289029 207.778894 
L 337.568368 207.571864 
L 340.847707 207.97019 
L 344.127045 207.832908 
L 347.406384 207.662044 
L 350.685723 207.881669 
L 353.965062 207.903181 
L 357.244401 207.41814 
L 360.52374 208.394616 
L 363.803079 208.32489 
L 367.082417 208.704087 
L 370.361756 208.709647 
L 373.641095 208.285461 
L 376.920434 208.103272 
L 380.199773 208.442647 
" clip-path="url(#p2834a96586)" style="fill: none; stroke: #8172b3; stroke-width: 1.5; stroke-linecap: round"/>
   </g>
   <g id="line2d_16"/>
   <g id="line2d_17"/>
   <g id="line2d_18"/>
   <g id="line2d_19"/>
   <g id="line2d_20"/>
   <g id="patch_3">
    <path d="M 39.3125 273.312 
L 39.3125 7.2 
" style="fill: none; stroke: #cccccc; stroke-width: 1.25; stroke-linejoin: miter; stroke-linecap: square"/>
   </g>
   <g id="patch_4">
    <path d="M 396.4325 273.312 
L 396.4325 7.2 
" style="fill: none; stroke: #cccccc; stroke-width: 1.25; stroke-linejoin: miter; stroke-linecap: square"/>
   </g>
   <g id="patch_5">
    <path d="M 39.3125 273.312 
L 396.4325 273.312 
" style="fill: none; stroke: #cccccc; stroke-width: 1.25; stroke-linejoin: miter; stroke-linecap: square"/>
   </g>
   <g id="patch_6">
    <path d="M 39.3125 7.2 
L 396.4325 7.2 
" style="fill: none; stroke: #cccccc; stroke-width: 1.25; stroke-linejoin: miter; stroke-linecap: square"/>
   </g>
   <g id="legend_1">
    <g id="patch_7">
     <path d="M 165.880313 113.843437 
L 269.864688 113.843437 
Q 272.064687 113.843437 272.064687 111.643437 
L 272.064687 14.9 
Q 272.064687 12.7 269.864688 12.7 
L 165.880313 12.7 
Q 163.680313 12.7 163.680313 14.9 
L 163.680313 111.643437 
Q 163.680313 113.843437 165.880313 113.843437 
z
" style="fill: #ffffff; opacity: 0.8; stroke: #cccccc; stroke-linejoin: miter"/>
    </g>
    <g id="text_13">
     <!-- Strategy -->
     <g style="fill: #262626" transform="translate(192.163438 26.218125) scale(0.12 -0.12)">
      <defs>
       <path id="DejaVuSans-53" d="M 3425 4513 
L 3425 3897 
Q 3066 4069 2747 4153 
Q 2428 4238 2131 4238 
Q 1616 4238 1336 4038 
Q 1056 3838 1056 3469 
Q 1056 3159 1242 3001 
Q 1428 2844 1947 2747 
L 2328 2669 
Q 3034 2534 3370 2195 
Q 3706 1856 3706 1288 
Q 3706 609 3251 259 
Q 2797 -91 1919 -91 
Q 1588 -91 1214 -16 
Q 841 59 441 206 
L 441 856 
Q 825 641 1194 531 
Q 1563 422 1919 422 
Q 2459 422 2753 634 
Q 3047 847 3047 1241 
Q 3047 1584 2836 1778 
Q 2625 1972 2144 2069 
L 1759 2144 
Q 1053 2284 737 2584 
Q 422 2884 422 3419 
Q 422 4038 858 4394 
Q 1294 4750 2059 4750 
Q 2388 4750 2728 4690 
Q 3069 4631 3425 4513 
z
" transform="scale(0.015625)"/>
       <path id="DejaVuSans-74" d="M 1172 4494 
L 1172 3500 
L 2356 3500 
L 2356 3053 
L 1172 3053 
L 1172 1153 
Q 1172 725 1289 603 
Q 1406 481 1766 481 
L 2356 481 
L 2356 0 
L 1766 0 
Q 1100 0 847 248 
Q 594 497 594 1153 
L 594 3053 
L 172 3053 
L 172 3500 
L 594 3500 
L 594 4494 
L 1172 4494 
z
" transform="scale(0.015625)"/>
       <path id="DejaVuSans-72" d="M 2631 2963 
Q 2534 3019 2420 3045 
Q 2306 3072 2169 3072 
Q 1681 3072 1420 2755 
Q 1159 2438 1159 1844 
L 1159 0 
L 581 0 
L 581 3500 
L 1159 3500 
L 1159 2956 
Q 1341 3275 1631 3429 
Q 1922 3584 2338 3584 
Q 2397 3584 2469 3576 
Q 2541 3569 2628 3553 
L 2631 2963 
z
" transform="scale(0.015625)"/>
       <path id="DejaVuSans-61" d="M 2194 1759 
Q 1497 1759 1228 1600 
Q 959 1441 959 1056 
Q 959 750 1161 570 
Q 1363 391 1709 391 
Q 2188 391 2477 730 
Q 2766 1069 2766 1631 
L 2766 1759 
L 2194 1759 
z
M 3341 1997 
L 3341 0 
L 2766 0 
L 2766 531 
Q 2569 213 2275 61 
Q 1981 -91 1556 -91 
Q 1019 -91 701 211 
Q 384 513 384 1019 
Q 384 1609 779 1909 
Q 1175 2209 1959 2209 
L 2766 2209 
L 2766 2266 
Q 2766 2663 2505 2880 
Q 2244 3097 1772 3097 
Q 1472 3097 1187 3025 
Q 903 2953 641 2809 
L 641 3341 
Q 956 3463 1253 3523 
Q 1550 3584 1831 3584 
Q 2591 3584 2966 3190 
Q 3341 2797 3341 1997 
z
" transform="scale(0.015625)"/>
       <path id="DejaVuSans-65" d="M 3597 1894 
L 3597 1613 
L 953 1613 
Q 991 1019 1311 708 
Q 1631 397 2203 397 
Q 2534 397 2845 478 
Q 3156 559 3463 722 
L 3463 178 
Q 3153 47 2828 -22 
Q 2503 -91 2169 -91 
Q 1331 -91 842 396 
Q 353 884 353 1716 
Q 353 2575 817 3079 
Q 1281 3584 2069 3584 
Q 2775 3584 3186 3129 
Q 3597 2675 3597 1894 
z
M 3022 2063 
Q 3016 2534 2758 2815 
Q 2500 3097 2075 3097 
Q 1594 3097 1305 2825 
Q 1016 2553 972 2059 
L 3022 2063 
z
" transform="scale(0.015625)"/>
       <path id="DejaVuSans-67" d="M 2906 1791 
Q 2906 2416 2648 2759 
Q 2391 3103 1925 3103 
Q 1463 3103 1205 2759 
Q 947 2416 947 1791 
Q 947 1169 1205 825 
Q 1463 481 1925 481 
Q 2391 481 2648 825 
Q 2906 1169 2906 1791 
z
M 3481 434 
Q 3481 -459 3084 -895 
Q 2688 -1331 1869 -1331 
Q 1566 -1331 1297 -1286 
Q 1028 -1241 775 -1147 
L 775 -588 
Q 1028 -725 1275 -790 
Q 1522 -856 1778 -856 
Q 2344 -856 2625 -561 
Q 2906 -266 2906 331 
L 2906 616 
Q 2728 306 2450 153 
Q 2172 0 1784 0 
Q 1141 0 747 490 
Q 353 981 353 1791 
Q 353 2603 747 3093 
Q 1141 3584 1784 3584 
Q 2172 3584 2450 3431 
Q 2728 3278 2906 2969 
L 2906 3500 
L 3481 3500 
L 3481 434 
z
" transform="scale(0.015625)"/>
       <path id="DejaVuSans-79" d="M 2059 -325 
Q 1816 -950 1584 -1140 
Q 1353 -1331 966 -1331 
L 506 -1331 
L 506 -850 
L 844 -850 
Q 1081 -850 1212 -737 
Q 1344 -625 1503 -206 
L 1606 56 
L 191 3500 
L 800 3500 
L 1894 763 
L 2988 3500 
L 3597 3500 
L 2059 -325 
z
" transform="scale(0.015625)"/>
      </defs>
      <use xlink:href="#DejaVuSans-53"/>
      <use xlink:href="#DejaVuSans-74" x="63.476562"/>
      <use xlink:href="#DejaVuSans-72" x="102.685547"/>
      <use xlink:href="#DejaVuSans-61" x="143.798828"/>
      <use xlink:href="#DejaVuSans-74" x="205.078125"/>
      <use xlink:href="#DejaVuSans-65" x="244.287109"/>
      <use xlink:href="#DejaVuSans-67" x="305.810547"/>
      <use xlink:href="#DejaVuSans-79" x="369.287109"/>
     </g>
    </g>
    <g id="line2d_21">
     <path d="M 168.080313 38.722031 
L 179.080313 38.722031 
L 190.080313 38.722031 
" style="fill: none; stroke: #4c72b0; stroke-width: 1.5; stroke-linecap: round"/>
    </g>
    <g id="text_14">
     <!-- FedPredict -->
     <g style="fill: #262626" transform="translate(198.880313 42.572031) scale(0.11 -0.11)">
      <defs>
       <path id="DejaVuSans-46" d="M 628 4666 
L 3309 4666 
L 3309 4134 
L 1259 4134 
L 1259 2759 
L 3109 2759 
L 3109 2228 
L 1259 2228 
L 1259 0 
L 628 0 
L 628 4666 
z
" transform="scale(0.015625)"/>
       <path id="DejaVuSans-50" d="M 1259 4147 
L 1259 2394 
L 2053 2394 
Q 2494 2394 2734 2622 
Q 2975 2850 2975 3272 
Q 2975 3691 2734 3919 
Q 2494 4147 2053 4147 
L 1259 4147 
z
M 628 4666 
L 2053 4666 
Q 2838 4666 3239 4311 
Q 3641 3956 3641 3272 
Q 3641 2581 3239 2228 
Q 2838 1875 2053 1875 
L 1259 1875 
L 1259 0 
L 628 0 
L 628 4666 
z
" transform="scale(0.015625)"/>
       <path id="DejaVuSans-69" d="M 603 3500 
L 1178 3500 
L 1178 0 
L 603 0 
L 603 3500 
z
M 603 4863 
L 1178 4863 
L 1178 4134 
L 603 4134 
L 603 4863 
z
" transform="scale(0.015625)"/>
       <path id="DejaVuSans-63" d="M 3122 3366 
L 3122 2828 
Q 2878 2963 2633 3030 
Q 2388 3097 2138 3097 
Q 1578 3097 1268 2742 
Q 959 2388 959 1747 
Q 959 1106 1268 751 
Q 1578 397 2138 397 
Q 2388 397 2633 464 
Q 2878 531 3122 666 
L 3122 134 
Q 2881 22 2623 -34 
Q 2366 -91 2075 -91 
Q 1284 -91 818 406 
Q 353 903 353 1747 
Q 353 2603 823 3093 
Q 1294 3584 2113 3584 
Q 2378 3584 2631 3529 
Q 2884 3475 3122 3366 
z
" transform="scale(0.015625)"/>
      </defs>
      <use xlink:href="#DejaVuSans-46"/>
      <use xlink:href="#DejaVuSans-65" x="52.019531"/>
      <use xlink:href="#DejaVuSans-64" x="113.542969"/>
      <use xlink:href="#DejaVuSans-50" x="177.019531"/>
      <use xlink:href="#DejaVuSans-72" x="235.572266"/>
      <use xlink:href="#DejaVuSans-65" x="274.435547"/>
      <use xlink:href="#DejaVuSans-64" x="335.958984"/>
      <use xlink:href="#DejaVuSans-69" x="399.435547"/>
      <use xlink:href="#DejaVuSans-63" x="427.21875"/>
      <use xlink:href="#DejaVuSans-74" x="482.199219"/>
     </g>
    </g>
    <g id="line2d_22">
     <path d="M 168.080313 54.867969 
L 179.080313 54.867969 
L 190.080313 54.867969 
" style="fill: none; stroke: #dd8452; stroke-width: 1.5; stroke-linecap: round"/>
    </g>
    <g id="text_15">
     <!-- FedAVG -->
     <g style="fill: #262626" transform="translate(198.880313 58.717969) scale(0.11 -0.11)">
      <defs>
       <path id="DejaVuSans-41" d="M 2188 4044 
L 1331 1722 
L 3047 1722 
L 2188 4044 
z
M 1831 4666 
L 2547 4666 
L 4325 0 
L 3669 0 
L 3244 1197 
L 1141 1197 
L 716 0 
L 50 0 
L 1831 4666 
z
" transform="scale(0.015625)"/>
       <path id="DejaVuSans-56" d="M 1831 0 
L 50 4666 
L 709 4666 
L 2188 738 
L 3669 4666 
L 4325 4666 
L 2547 0 
L 1831 0 
z
" transform="scale(0.015625)"/>
       <path id="DejaVuSans-47" d="M 3809 666 
L 3809 1919 
L 2778 1919 
L 2778 2438 
L 4434 2438 
L 4434 434 
Q 4069 175 3628 42 
Q 3188 -91 2688 -91 
Q 1594 -91 976 548 
Q 359 1188 359 2328 
Q 359 3472 976 4111 
Q 1594 4750 2688 4750 
Q 3144 4750 3555 4637 
Q 3966 4525 4313 4306 
L 4313 3634 
Q 3963 3931 3569 4081 
Q 3175 4231 2741 4231 
Q 1884 4231 1454 3753 
Q 1025 3275 1025 2328 
Q 1025 1384 1454 906 
Q 1884 428 2741 428 
Q 3075 428 3337 486 
Q 3600 544 3809 666 
z
" transform="scale(0.015625)"/>
      </defs>
      <use xlink:href="#DejaVuSans-46"/>
      <use xlink:href="#DejaVuSans-65" x="52.019531"/>
      <use xlink:href="#DejaVuSans-64" x="113.542969"/>
      <use xlink:href="#DejaVuSans-41" x="177.019531"/>
      <use xlink:href="#DejaVuSans-56" x="239.052734"/>
      <use xlink:href="#DejaVuSans-47" x="307.460938"/>
     </g>
    </g>
    <g id="line2d_23">
     <path d="M 168.080313 71.013906 
L 179.080313 71.013906 
L 190.080313 71.013906 
" style="fill: none; stroke: #55a868; stroke-width: 1.5; stroke-linecap: round"/>
    </g>
    <g id="text_16">
     <!-- FedClassAvg -->
     <g style="fill: #262626" transform="translate(198.880313 74.863906) scale(0.11 -0.11)">
      <defs>
       <path id="DejaVuSans-43" d="M 4122 4306 
L 4122 3641 
Q 3803 3938 3442 4084 
Q 3081 4231 2675 4231 
Q 1875 4231 1450 3742 
Q 1025 3253 1025 2328 
Q 1025 1406 1450 917 
Q 1875 428 2675 428 
Q 3081 428 3442 575 
Q 3803 722 4122 1019 
L 4122 359 
Q 3791 134 3420 21 
Q 3050 -91 2638 -91 
Q 1578 -91 968 557 
Q 359 1206 359 2328 
Q 359 3453 968 4101 
Q 1578 4750 2638 4750 
Q 3056 4750 3426 4639 
Q 3797 4528 4122 4306 
z
" transform="scale(0.015625)"/>
       <path id="DejaVuSans-6c" d="M 603 4863 
L 1178 4863 
L 1178 0 
L 603 0 
L 603 4863 
z
" transform="scale(0.015625)"/>
       <path id="DejaVuSans-76" d="M 191 3500 
L 800 3500 
L 1894 563 
L 2988 3500 
L 3597 3500 
L 2284 0 
L 1503 0 
L 191 3500 
z
" transform="scale(0.015625)"/>
      </defs>
      <use xlink:href="#DejaVuSans-46"/>
      <use xlink:href="#DejaVuSans-65" x="52.019531"/>
      <use xlink:href="#DejaVuSans-64" x="113.542969"/>
      <use xlink:href="#DejaVuSans-43" x="177.019531"/>
      <use xlink:href="#DejaVuSans-6c" x="246.84375"/>
      <use xlink:href="#DejaVuSans-61" x="274.626953"/>
      <use xlink:href="#DejaVuSans-73" x="335.90625"/>
      <use xlink:href="#DejaVuSans-73" x="388.005859"/>
      <use xlink:href="#DejaVuSans-41" x="440.105469"/>
      <use xlink:href="#DejaVuSans-76" x="502.638672"/>
      <use xlink:href="#DejaVuSans-67" x="561.818359"/>
     </g>
    </g>
    <g id="line2d_24">
     <path d="M 168.080313 87.159844 
L 179.080313 87.159844 
L 190.080313 87.159844 
" style="fill: none; stroke: #c44e52; stroke-width: 1.5; stroke-linecap: round"/>
    </g>
    <g id="text_17">
     <!-- FedPer -->
     <g style="fill: #262626" transform="translate(198.880313 91.009844) scale(0.11 -0.11)">
      <use xlink:href="#DejaVuSans-46"/>
      <use xlink:href="#DejaVuSans-65" x="52.019531"/>
      <use xlink:href="#DejaVuSans-64" x="113.542969"/>
      <use xlink:href="#DejaVuSans-50" x="177.019531"/>
      <use xlink:href="#DejaVuSans-65" x="233.697266"/>
      <use xlink:href="#DejaVuSans-72" x="295.220703"/>
     </g>
    </g>
    <g id="line2d_25">
     <path d="M 168.080313 103.305781 
L 179.080313 103.305781 
L 190.080313 103.305781 
" style="fill: none; stroke: #8172b3; stroke-width: 1.5; stroke-linecap: round"/>
    </g>
    <g id="text_18">
     <!-- FedProto -->
     <g style="fill: #262626" transform="translate(198.880313 107.155781) scale(0.11 -0.11)">
      <use xlink:href="#DejaVuSans-46"/>
      <use xlink:href="#DejaVuSans-65" x="52.019531"/>
      <use xlink:href="#DejaVuSans-64" x="113.542969"/>
      <use xlink:href="#DejaVuSans-50" x="177.019531"/>
      <use xlink:href="#DejaVuSans-72" x="235.572266"/>
      <use xlink:href="#DejaVuSans-6f" x="274.435547"/>
      <use xlink:href="#DejaVuSans-74" x="335.617188"/>
      <use xlink:href="#DejaVuSans-6f" x="374.826172"/>
     </g>
    </g>
   </g>
  </g>
 </g>
 <defs>
  <clipPath id="p2834a96586">
   <rect x="39.3125" y="7.2" width="357.12" height="266.112"/>
  </clipPath>
 </defs>
</svg>
