<?xml version="1.0" encoding="utf-8" standalone="no"?>
<!DOCTYPE svg PUBLIC "-//W3C//DTD SVG 1.1//EN"
  "http://www.w3.org/Graphics/SVG/1.1/DTD/svg11.dtd">
<svg xmlns:xlink="http://www.w3.org/1999/xlink" width="417.63pt" height="319.397948pt" viewBox="0 0 417.63 319.397948" xmlns="http://www.w3.org/2000/svg" version="1.1">
 <metadata>
  <rdf:RDF xmlns:dc="http://purl.org/dc/elements/1.1/" xmlns:cc="http://creativecommons.org/ns#" xmlns:rdf="http://www.w3.org/1999/02/22-rdf-syntax-ns#">
   <cc:Work>
    <dc:type rdf:resource="http://purl.org/dc/dcmitype/StillImage"/>
    <dc:date>2023-02-01T19:56:54.130050</dc:date>
    <dc:format>image/svg+xml</dc:format>
    <dc:creator>
     <cc:Agent>
      <dc:title>Matplotlib v3.6.2, https://matplotlib.org/</dc:title>
     </cc:Agent>
    </dc:creator>
   </cc:Work>
  </rdf:RDF>
 </metadata>
 <defs>
  <style type="text/css">*{stroke-linejoin: round; stroke-linecap: butt}</style>
 </defs>
 <g id="figure_1">
  <g id="patch_1">
   <path d="M 0 319.397948 
L 417.63 319.397948 
L 417.63 0 
L 0 0 
z
" style="fill: #ffffff"/>
  </g>
  <g id="axes_1">
   <g id="patch_2">
    <path d="M 53.31 276.43826 
L 410.43 276.43826 
L 410.43 10.32626 
L 53.31 10.32626 
z
" style="fill: #ffffff"/>
   </g>
   <g id="matplotlib.axis_1">
    <g id="xtick_1">
     <g id="line2d_1">
      <path d="M 62.917124 276.43826 
L 62.917124 10.32626 
" clip-path="url(#p1576c5362a)" style="fill: none; stroke: #cccccc; stroke-linecap: round"/>
     </g>
     <g id="text_1">
      <!-- 0 -->
      <g style="fill: #262626" transform="translate(59.417749 294.296542) scale(0.11 -0.11)">
       <defs>
        <path id="DejaVuSans-30" d="M 2034 4250 
Q 1547 4250 1301 3770 
Q 1056 3291 1056 2328 
Q 1056 1369 1301 889 
Q 1547 409 2034 409 
Q 2525 409 2770 889 
Q 3016 1369 3016 2328 
Q 3016 3291 2770 3770 
Q 2525 4250 2034 4250 
z
M 2034 4750 
Q 2819 4750 3233 4129 
Q 3647 3509 3647 2328 
Q 3647 1150 3233 529 
Q 2819 -91 2034 -91 
Q 1250 -91 836 529 
Q 422 1150 422 2328 
Q 422 3509 836 4129 
Q 1250 4750 2034 4750 
z
" transform="scale(0.015625)"/>
       </defs>
       <use xlink:href="#DejaVuSans-30"/>
      </g>
     </g>
    </g>
    <g id="xtick_2">
     <g id="line2d_2">
      <path d="M 129.173154 276.43826 
L 129.173154 10.32626 
" clip-path="url(#p1576c5362a)" style="fill: none; stroke: #cccccc; stroke-linecap: round"/>
     </g>
     <g id="text_2">
      <!-- 10 -->
      <g style="fill: #262626" transform="translate(122.174404 294.296542) scale(0.11 -0.11)">
       <defs>
        <path id="DejaVuSans-31" d="M 794 531 
L 1825 531 
L 1825 4091 
L 703 3866 
L 703 4441 
L 1819 4666 
L 2450 4666 
L 2450 531 
L 3481 531 
L 3481 0 
L 794 0 
L 794 531 
z
" transform="scale(0.015625)"/>
       </defs>
       <use xlink:href="#DejaVuSans-31"/>
       <use xlink:href="#DejaVuSans-30" x="63.623047"/>
      </g>
     </g>
    </g>
    <g id="xtick_3">
     <g id="line2d_3">
      <path d="M 195.429184 276.43826 
L 195.429184 10.32626 
" clip-path="url(#p1576c5362a)" style="fill: none; stroke: #cccccc; stroke-linecap: round"/>
     </g>
     <g id="text_3">
      <!-- 20 -->
      <g style="fill: #262626" transform="translate(188.430434 294.296542) scale(0.11 -0.11)">
       <defs>
        <path id="DejaVuSans-32" d="M 1228 531 
L 3431 531 
L 3431 0 
L 469 0 
L 469 531 
Q 828 903 1448 1529 
Q 2069 2156 2228 2338 
Q 2531 2678 2651 2914 
Q 2772 3150 2772 3378 
Q 2772 3750 2511 3984 
Q 2250 4219 1831 4219 
Q 1534 4219 1204 4116 
Q 875 4013 500 3803 
L 500 4441 
Q 881 4594 1212 4672 
Q 1544 4750 1819 4750 
Q 2544 4750 2975 4387 
Q 3406 4025 3406 3419 
Q 3406 3131 3298 2873 
Q 3191 2616 2906 2266 
Q 2828 2175 2409 1742 
Q 1991 1309 1228 531 
z
" transform="scale(0.015625)"/>
       </defs>
       <use xlink:href="#DejaVuSans-32"/>
       <use xlink:href="#DejaVuSans-30" x="63.623047"/>
      </g>
     </g>
    </g>
    <g id="xtick_4">
     <g id="line2d_4">
      <path d="M 261.685213 276.43826 
L 261.685213 10.32626 
" clip-path="url(#p1576c5362a)" style="fill: none; stroke: #cccccc; stroke-linecap: round"/>
     </g>
     <g id="text_4">
      <!-- 30 -->
      <g style="fill: #262626" transform="translate(254.686463 294.296542) scale(0.11 -0.11)">
       <defs>
        <path id="DejaVuSans-33" d="M 2597 2516 
Q 3050 2419 3304 2112 
Q 3559 1806 3559 1356 
Q 3559 666 3084 287 
Q 2609 -91 1734 -91 
Q 1441 -91 1130 -33 
Q 819 25 488 141 
L 488 750 
Q 750 597 1062 519 
Q 1375 441 1716 441 
Q 2309 441 2620 675 
Q 2931 909 2931 1356 
Q 2931 1769 2642 2001 
Q 2353 2234 1838 2234 
L 1294 2234 
L 1294 2753 
L 1863 2753 
Q 2328 2753 2575 2939 
Q 2822 3125 2822 3475 
Q 2822 3834 2567 4026 
Q 2313 4219 1838 4219 
Q 1578 4219 1281 4162 
Q 984 4106 628 3988 
L 628 4550 
Q 988 4650 1302 4700 
Q 1616 4750 1894 4750 
Q 2613 4750 3031 4423 
Q 3450 4097 3450 3541 
Q 3450 3153 3228 2886 
Q 3006 2619 2597 2516 
z
" transform="scale(0.015625)"/>
       </defs>
       <use xlink:href="#DejaVuSans-33"/>
       <use xlink:href="#DejaVuSans-30" x="63.623047"/>
      </g>
     </g>
    </g>
    <g id="xtick_5">
     <g id="line2d_5">
      <path d="M 327.941243 276.43826 
L 327.941243 10.32626 
" clip-path="url(#p1576c5362a)" style="fill: none; stroke: #cccccc; stroke-linecap: round"/>
     </g>
     <g id="text_5">
      <!-- 40 -->
      <g style="fill: #262626" transform="translate(320.942493 294.296542) scale(0.11 -0.11)">
       <defs>
        <path id="DejaVuSans-34" d="M 2419 4116 
L 825 1625 
L 2419 1625 
L 2419 4116 
z
M 2253 4666 
L 3047 4666 
L 3047 1625 
L 3713 1625 
L 3713 1100 
L 3047 1100 
L 3047 0 
L 2419 0 
L 2419 1100 
L 313 1100 
L 313 1709 
L 2253 4666 
z
" transform="scale(0.015625)"/>
       </defs>
       <use xlink:href="#DejaVuSans-34"/>
       <use xlink:href="#DejaVuSans-30" x="63.623047"/>
      </g>
     </g>
    </g>
    <g id="xtick_6">
     <g id="line2d_6">
      <path d="M 394.197273 276.43826 
L 394.197273 10.32626 
" clip-path="url(#p1576c5362a)" style="fill: none; stroke: #cccccc; stroke-linecap: round"/>
     </g>
     <g id="text_6">
      <!-- 50 -->
      <g style="fill: #262626" transform="translate(387.198523 294.296542) scale(0.11 -0.11)">
       <defs>
        <path id="DejaVuSans-35" d="M 691 4666 
L 3169 4666 
L 3169 4134 
L 1269 4134 
L 1269 2991 
Q 1406 3038 1543 3061 
Q 1681 3084 1819 3084 
Q 2600 3084 3056 2656 
Q 3513 2228 3513 1497 
Q 3513 744 3044 326 
Q 2575 -91 1722 -91 
Q 1428 -91 1123 -41 
Q 819 9 494 109 
L 494 744 
Q 775 591 1075 516 
Q 1375 441 1709 441 
Q 2250 441 2565 725 
Q 2881 1009 2881 1497 
Q 2881 1984 2565 2268 
Q 2250 2553 1709 2553 
Q 1456 2553 1204 2497 
Q 953 2441 691 2322 
L 691 4666 
z
" transform="scale(0.015625)"/>
       </defs>
       <use xlink:href="#DejaVuSans-35"/>
       <use xlink:href="#DejaVuSans-30" x="63.623047"/>
      </g>
     </g>
    </g>
    <g id="text_7">
     <!-- Round -->
     <g style="fill: #262626" transform="translate(212.885625 309.702323) scale(0.12 -0.12)">
      <defs>
       <path id="DejaVuSans-52" d="M 2841 2188 
Q 3044 2119 3236 1894 
Q 3428 1669 3622 1275 
L 4263 0 
L 3584 0 
L 2988 1197 
Q 2756 1666 2539 1819 
Q 2322 1972 1947 1972 
L 1259 1972 
L 1259 0 
L 628 0 
L 628 4666 
L 2053 4666 
Q 2853 4666 3247 4331 
Q 3641 3997 3641 3322 
Q 3641 2881 3436 2590 
Q 3231 2300 2841 2188 
z
M 1259 4147 
L 1259 2491 
L 2053 2491 
Q 2509 2491 2742 2702 
Q 2975 2913 2975 3322 
Q 2975 3731 2742 3939 
Q 2509 4147 2053 4147 
L 1259 4147 
z
" transform="scale(0.015625)"/>
       <path id="DejaVuSans-6f" d="M 1959 3097 
Q 1497 3097 1228 2736 
Q 959 2375 959 1747 
Q 959 1119 1226 758 
Q 1494 397 1959 397 
Q 2419 397 2687 759 
Q 2956 1122 2956 1747 
Q 2956 2369 2687 2733 
Q 2419 3097 1959 3097 
z
M 1959 3584 
Q 2709 3584 3137 3096 
Q 3566 2609 3566 1747 
Q 3566 888 3137 398 
Q 2709 -91 1959 -91 
Q 1206 -91 779 398 
Q 353 888 353 1747 
Q 353 2609 779 3096 
Q 1206 3584 1959 3584 
z
" transform="scale(0.015625)"/>
       <path id="DejaVuSans-75" d="M 544 1381 
L 544 3500 
L 1119 3500 
L 1119 1403 
Q 1119 906 1312 657 
Q 1506 409 1894 409 
Q 2359 409 2629 706 
Q 2900 1003 2900 1516 
L 2900 3500 
L 3475 3500 
L 3475 0 
L 2900 0 
L 2900 538 
Q 2691 219 2414 64 
Q 2138 -91 1772 -91 
Q 1169 -91 856 284 
Q 544 659 544 1381 
z
M 1991 3584 
L 1991 3584 
z
" transform="scale(0.015625)"/>
       <path id="DejaVuSans-6e" d="M 3513 2113 
L 3513 0 
L 2938 0 
L 2938 2094 
Q 2938 2591 2744 2837 
Q 2550 3084 2163 3084 
Q 1697 3084 1428 2787 
Q 1159 2491 1159 1978 
L 1159 0 
L 581 0 
L 581 3500 
L 1159 3500 
L 1159 2956 
Q 1366 3272 1645 3428 
Q 1925 3584 2291 3584 
Q 2894 3584 3203 3211 
Q 3513 2838 3513 2113 
z
" transform="scale(0.015625)"/>
       <path id="DejaVuSans-64" d="M 2906 2969 
L 2906 4863 
L 3481 4863 
L 3481 0 
L 2906 0 
L 2906 525 
Q 2725 213 2448 61 
Q 2172 -91 1784 -91 
Q 1150 -91 751 415 
Q 353 922 353 1747 
Q 353 2572 751 3078 
Q 1150 3584 1784 3584 
Q 2172 3584 2448 3432 
Q 2725 3281 2906 2969 
z
M 947 1747 
Q 947 1113 1208 752 
Q 1469 391 1925 391 
Q 2381 391 2643 752 
Q 2906 1113 2906 1747 
Q 2906 2381 2643 2742 
Q 2381 3103 1925 3103 
Q 1469 3103 1208 2742 
Q 947 2381 947 1747 
z
" transform="scale(0.015625)"/>
      </defs>
      <use xlink:href="#DejaVuSans-52"/>
      <use xlink:href="#DejaVuSans-6f" x="64.982422"/>
      <use xlink:href="#DejaVuSans-75" x="126.164062"/>
      <use xlink:href="#DejaVuSans-6e" x="189.542969"/>
      <use xlink:href="#DejaVuSans-64" x="252.921875"/>
     </g>
    </g>
   </g>
   <g id="matplotlib.axis_2">
    <g id="ytick_1">
     <g id="line2d_7">
      <path d="M 53.31 234.668864 
L 410.43 234.668864 
" clip-path="url(#p1576c5362a)" style="fill: none; stroke: #cccccc; stroke-linecap: round"/>
     </g>
     <g id="text_8">
      <!-- 20 -->
      <g style="fill: #262626" transform="translate(29.8125 238.848005) scale(0.11 -0.11)">
       <use xlink:href="#DejaVuSans-32"/>
       <use xlink:href="#DejaVuSans-30" x="63.623047"/>
      </g>
     </g>
    </g>
    <g id="ytick_2">
     <g id="line2d_8">
      <path d="M 53.31 178.846433 
L 410.43 178.846433 
" clip-path="url(#p1576c5362a)" style="fill: none; stroke: #cccccc; stroke-linecap: round"/>
     </g>
     <g id="text_9">
      <!-- 40 -->
      <g style="fill: #262626" transform="translate(29.8125 183.025574) scale(0.11 -0.11)">
       <use xlink:href="#DejaVuSans-34"/>
       <use xlink:href="#DejaVuSans-30" x="63.623047"/>
      </g>
     </g>
    </g>
    <g id="ytick_3">
     <g id="line2d_9">
      <path d="M 53.31 123.024002 
L 410.43 123.024002 
" clip-path="url(#p1576c5362a)" style="fill: none; stroke: #cccccc; stroke-linecap: round"/>
     </g>
     <g id="text_10">
      <!-- 60 -->
      <g style="fill: #262626" transform="translate(29.8125 127.203143) scale(0.11 -0.11)">
       <defs>
        <path id="DejaVuSans-36" d="M 2113 2584 
Q 1688 2584 1439 2293 
Q 1191 2003 1191 1497 
Q 1191 994 1439 701 
Q 1688 409 2113 409 
Q 2538 409 2786 701 
Q 3034 994 3034 1497 
Q 3034 2003 2786 2293 
Q 2538 2584 2113 2584 
z
M 3366 4563 
L 3366 3988 
Q 3128 4100 2886 4159 
Q 2644 4219 2406 4219 
Q 1781 4219 1451 3797 
Q 1122 3375 1075 2522 
Q 1259 2794 1537 2939 
Q 1816 3084 2150 3084 
Q 2853 3084 3261 2657 
Q 3669 2231 3669 1497 
Q 3669 778 3244 343 
Q 2819 -91 2113 -91 
Q 1303 -91 875 529 
Q 447 1150 447 2328 
Q 447 3434 972 4092 
Q 1497 4750 2381 4750 
Q 2619 4750 2861 4703 
Q 3103 4656 3366 4563 
z
" transform="scale(0.015625)"/>
       </defs>
       <use xlink:href="#DejaVuSans-36"/>
       <use xlink:href="#DejaVuSans-30" x="63.623047"/>
      </g>
     </g>
    </g>
    <g id="ytick_4">
     <g id="line2d_10">
      <path d="M 53.31 67.201572 
L 410.43 67.201572 
" clip-path="url(#p1576c5362a)" style="fill: none; stroke: #cccccc; stroke-linecap: round"/>
     </g>
     <g id="text_11">
      <!-- 80 -->
      <g style="fill: #262626" transform="translate(29.8125 71.380712) scale(0.11 -0.11)">
       <defs>
        <path id="DejaVuSans-38" d="M 2034 2216 
Q 1584 2216 1326 1975 
Q 1069 1734 1069 1313 
Q 1069 891 1326 650 
Q 1584 409 2034 409 
Q 2484 409 2743 651 
Q 3003 894 3003 1313 
Q 3003 1734 2745 1975 
Q 2488 2216 2034 2216 
z
M 1403 2484 
Q 997 2584 770 2862 
Q 544 3141 544 3541 
Q 544 4100 942 4425 
Q 1341 4750 2034 4750 
Q 2731 4750 3128 4425 
Q 3525 4100 3525 3541 
Q 3525 3141 3298 2862 
Q 3072 2584 2669 2484 
Q 3125 2378 3379 2068 
Q 3634 1759 3634 1313 
Q 3634 634 3220 271 
Q 2806 -91 2034 -91 
Q 1263 -91 848 271 
Q 434 634 434 1313 
Q 434 1759 690 2068 
Q 947 2378 1403 2484 
z
M 1172 3481 
Q 1172 3119 1398 2916 
Q 1625 2713 2034 2713 
Q 2441 2713 2670 2916 
Q 2900 3119 2900 3481 
Q 2900 3844 2670 4047 
Q 2441 4250 2034 4250 
Q 1625 4250 1398 4047 
Q 1172 3844 1172 3481 
z
" transform="scale(0.015625)"/>
       </defs>
       <use xlink:href="#DejaVuSans-38"/>
       <use xlink:href="#DejaVuSans-30" x="63.623047"/>
      </g>
     </g>
    </g>
    <g id="ytick_5">
     <g id="line2d_11">
      <path d="M 53.31 11.379141 
L 410.43 11.379141 
" clip-path="url(#p1576c5362a)" style="fill: none; stroke: #cccccc; stroke-linecap: round"/>
     </g>
     <g id="text_12">
      <!-- 100 -->
      <g style="fill: #262626" transform="translate(22.81375 15.558281) scale(0.11 -0.11)">
       <use xlink:href="#DejaVuSans-31"/>
       <use xlink:href="#DejaVuSans-30" x="63.623047"/>
       <use xlink:href="#DejaVuSans-30" x="127.246094"/>
      </g>
     </g>
    </g>
    <g id="text_13">
     <!-- Accuracy (%) -->
     <g style="fill: #262626" transform="translate(16.318125 183.065698) rotate(-90) scale(0.12 -0.12)">
      <defs>
       <path id="DejaVuSans-41" d="M 2188 4044 
L 1331 1722 
L 3047 1722 
L 2188 4044 
z
M 1831 4666 
L 2547 4666 
L 4325 0 
L 3669 0 
L 3244 1197 
L 1141 1197 
L 716 0 
L 50 0 
L 1831 4666 
z
" transform="scale(0.015625)"/>
       <path id="DejaVuSans-63" d="M 3122 3366 
L 3122 2828 
Q 2878 2963 2633 3030 
Q 2388 3097 2138 3097 
Q 1578 3097 1268 2742 
Q 959 2388 959 1747 
Q 959 1106 1268 751 
Q 1578 397 2138 397 
Q 2388 397 2633 464 
Q 2878 531 3122 666 
L 3122 134 
Q 2881 22 2623 -34 
Q 2366 -91 2075 -91 
Q 1284 -91 818 406 
Q 353 903 353 1747 
Q 353 2603 823 3093 
Q 1294 3584 2113 3584 
Q 2378 3584 2631 3529 
Q 2884 3475 3122 3366 
z
" transform="scale(0.015625)"/>
       <path id="DejaVuSans-72" d="M 2631 2963 
Q 2534 3019 2420 3045 
Q 2306 3072 2169 3072 
Q 1681 3072 1420 2755 
Q 1159 2438 1159 1844 
L 1159 0 
L 581 0 
L 581 3500 
L 1159 3500 
L 1159 2956 
Q 1341 3275 1631 3429 
Q 1922 3584 2338 3584 
Q 2397 3584 2469 3576 
Q 2541 3569 2628 3553 
L 2631 2963 
z
" transform="scale(0.015625)"/>
       <path id="DejaVuSans-61" d="M 2194 1759 
Q 1497 1759 1228 1600 
Q 959 1441 959 1056 
Q 959 750 1161 570 
Q 1363 391 1709 391 
Q 2188 391 2477 730 
Q 2766 1069 2766 1631 
L 2766 1759 
L 2194 1759 
z
M 3341 1997 
L 3341 0 
L 2766 0 
L 2766 531 
Q 2569 213 2275 61 
Q 1981 -91 1556 -91 
Q 1019 -91 701 211 
Q 384 513 384 1019 
Q 384 1609 779 1909 
Q 1175 2209 1959 2209 
L 2766 2209 
L 2766 2266 
Q 2766 2663 2505 2880 
Q 2244 3097 1772 3097 
Q 1472 3097 1187 3025 
Q 903 2953 641 2809 
L 641 3341 
Q 956 3463 1253 3523 
Q 1550 3584 1831 3584 
Q 2591 3584 2966 3190 
Q 3341 2797 3341 1997 
z
" transform="scale(0.015625)"/>
       <path id="DejaVuSans-79" d="M 2059 -325 
Q 1816 -950 1584 -1140 
Q 1353 -1331 966 -1331 
L 506 -1331 
L 506 -850 
L 844 -850 
Q 1081 -850 1212 -737 
Q 1344 -625 1503 -206 
L 1606 56 
L 191 3500 
L 800 3500 
L 1894 763 
L 2988 3500 
L 3597 3500 
L 2059 -325 
z
" transform="scale(0.015625)"/>
       <path id="DejaVuSans-20" transform="scale(0.015625)"/>
       <path id="DejaVuSans-28" d="M 1984 4856 
Q 1566 4138 1362 3434 
Q 1159 2731 1159 2009 
Q 1159 1288 1364 580 
Q 1569 -128 1984 -844 
L 1484 -844 
Q 1016 -109 783 600 
Q 550 1309 550 2009 
Q 550 2706 781 3412 
Q 1013 4119 1484 4856 
L 1984 4856 
z
" transform="scale(0.015625)"/>
       <path id="DejaVuSans-25" d="M 4653 2053 
Q 4381 2053 4226 1822 
Q 4072 1591 4072 1178 
Q 4072 772 4226 539 
Q 4381 306 4653 306 
Q 4919 306 5073 539 
Q 5228 772 5228 1178 
Q 5228 1588 5073 1820 
Q 4919 2053 4653 2053 
z
M 4653 2450 
Q 5147 2450 5437 2106 
Q 5728 1763 5728 1178 
Q 5728 594 5436 251 
Q 5144 -91 4653 -91 
Q 4153 -91 3862 251 
Q 3572 594 3572 1178 
Q 3572 1766 3864 2108 
Q 4156 2450 4653 2450 
z
M 1428 4353 
Q 1159 4353 1004 4120 
Q 850 3888 850 3481 
Q 850 3069 1003 2837 
Q 1156 2606 1428 2606 
Q 1700 2606 1854 2837 
Q 2009 3069 2009 3481 
Q 2009 3884 1853 4118 
Q 1697 4353 1428 4353 
z
M 4250 4750 
L 4750 4750 
L 1831 -91 
L 1331 -91 
L 4250 4750 
z
M 1428 4750 
Q 1922 4750 2215 4408 
Q 2509 4066 2509 3481 
Q 2509 2891 2217 2550 
Q 1925 2209 1428 2209 
Q 931 2209 642 2551 
Q 353 2894 353 3481 
Q 353 4063 643 4406 
Q 934 4750 1428 4750 
z
" transform="scale(0.015625)"/>
       <path id="DejaVuSans-29" d="M 513 4856 
L 1013 4856 
Q 1481 4119 1714 3412 
Q 1947 2706 1947 2009 
Q 1947 1309 1714 600 
Q 1481 -109 1013 -844 
L 513 -844 
Q 928 -128 1133 580 
Q 1338 1288 1338 2009 
Q 1338 2731 1133 3434 
Q 928 4138 513 4856 
z
" transform="scale(0.015625)"/>
      </defs>
      <use xlink:href="#DejaVuSans-41"/>
      <use xlink:href="#DejaVuSans-63" x="66.658203"/>
      <use xlink:href="#DejaVuSans-63" x="121.638672"/>
      <use xlink:href="#DejaVuSans-75" x="176.619141"/>
      <use xlink:href="#DejaVuSans-72" x="239.998047"/>
      <use xlink:href="#DejaVuSans-61" x="281.111328"/>
      <use xlink:href="#DejaVuSans-63" x="342.390625"/>
      <use xlink:href="#DejaVuSans-79" x="397.371094"/>
      <use xlink:href="#DejaVuSans-20" x="456.550781"/>
      <use xlink:href="#DejaVuSans-28" x="488.337891"/>
      <use xlink:href="#DejaVuSans-25" x="527.351562"/>
      <use xlink:href="#DejaVuSans-29" x="622.371094"/>
     </g>
    </g>
   </g>
   <g id="PolyCollection_1">
    <defs>
     <path id="m6a79f19491" d="M 69.542727 -115.818669 
L 69.542727 -67.374015 
L 76.16833 -94.706743 
L 82.793933 -140.358151 
L 89.419536 -149.782952 
L 96.045139 -182.51223 
L 102.670742 -206.123811 
L 109.296345 -191.250482 
L 115.921948 -233.782501 
L 122.547551 -243.168118 
L 129.173154 -244.283429 
L 135.798757 -253.786706 
L 142.42436 -260.776895 
L 149.049963 -265.714458 
L 155.675566 -265.814864 
L 162.301169 -264.934155 
L 168.926772 -262.211978 
L 175.552375 -267.552844 
L 182.177978 -282.194722 
L 188.803581 -267.211941 
L 195.429184 -264.084562 
L 202.054787 -263.478546 
L 208.68039 -277.831684 
L 215.305993 -269.481435 
L 221.931596 -271.036671 
L 228.557199 -269.617241 
L 235.182801 -273.166332 
L 241.808404 -269.846935 
L 248.434007 -268.824287 
L 255.05961 -270.140929 
L 261.685213 -261.455134 
L 268.310816 -269.205233 
L 274.936419 -268.464291 
L 281.562022 -274.105328 
L 288.187625 -276.398595 
L 294.813228 -263.347529 
L 301.438831 -267.697073 
L 308.064434 -261.582846 
L 314.690037 -258.907502 
L 321.31564 -257.797357 
L 327.941243 -271.360614 
L 334.566846 -270.801336 
L 341.192449 -258.981883 
L 347.818052 -281.265996 
L 354.443655 -274.473369 
L 361.069258 -267.566117 
L 367.694861 -252.606009 
L 374.320464 -248.830775 
L 380.946067 -262.070206 
L 387.57167 -259.382096 
L 394.197273 -262.27437 
L 394.197273 -284.814187 
L 394.197273 -284.814187 
L 387.57167 -284.278561 
L 380.946067 -285.016594 
L 374.320464 -278.578276 
L 367.694861 -279.504398 
L 361.069258 -289.234498 
L 354.443655 -290.321915 
L 347.818052 -292.404422 
L 341.192449 -282.285695 
L 334.566846 -289.135789 
L 327.941243 -288.859741 
L 321.31564 -284.812503 
L 314.690037 -283.093614 
L 308.064434 -284.410291 
L 301.438831 -287.367661 
L 294.813228 -286.557628 
L 288.187625 -296.975687 
L 281.562022 -296.410625 
L 274.936419 -295.734723 
L 268.310816 -295.237667 
L 261.685213 -288.701514 
L 255.05961 -294.971735 
L 248.434007 -294.605842 
L 241.808404 -293.771807 
L 235.182801 -293.254196 
L 228.557199 -294.449006 
L 221.931596 -293.981243 
L 215.305993 -293.577018 
L 208.68039 -294.638252 
L 202.054787 -290.544259 
L 195.429184 -291.632014 
L 188.803581 -293.462572 
L 182.177978 -294.673271 
L 175.552375 -293.517281 
L 168.926772 -289.654685 
L 162.301169 -291.864549 
L 155.675566 -291.975125 
L 149.049963 -292.546272 
L 142.42436 -291.102618 
L 135.798757 -284.523515 
L 129.173154 -280.469731 
L 122.547551 -277.043459 
L 115.921948 -275.693905 
L 109.296345 -246.603706 
L 102.670742 -256.469402 
L 96.045139 -238.321428 
L 89.419536 -216.758554 
L 82.793933 -208.039981 
L 76.16833 -162.261266 
L 69.542727 -115.818669 
z
" style="stroke: #4c72b0; stroke-opacity: 0.2"/>
    </defs>
    <g clip-path="url(#p1576c5362a)">
     <use xlink:href="#m6a79f19491" x="0" y="319.397948" style="fill: #4c72b0; fill-opacity: 0.2; stroke: #4c72b0; stroke-opacity: 0.2"/>
    </g>
   </g>
   <g id="PolyCollection_2">
    <defs>
     <path id="m0ae3426af1" d="M 69.542727 -100.168969 
L 69.542727 -56.231331 
L 76.16833 -55.055687 
L 82.793933 -100.223367 
L 89.419536 -110.833073 
L 96.045139 -118.182144 
L 102.670742 -139.468138 
L 109.296345 -106.379566 
L 115.921948 -179.133784 
L 122.547551 -199.457525 
L 129.173154 -174.424881 
L 135.798757 -163.930869 
L 142.42436 -197.918681 
L 149.049963 -212.113933 
L 155.675566 -213.935055 
L 162.301169 -168.106838 
L 168.926772 -166.92187 
L 175.552375 -207.584215 
L 182.177978 -217.687449 
L 188.803581 -185.189784 
L 195.429184 -192.890436 
L 202.054787 -172.814037 
L 208.68039 -244.24885 
L 215.305993 -188.369859 
L 221.931596 -225.765007 
L 228.557199 -212.780507 
L 235.182801 -173.091458 
L 241.808404 -181.979187 
L 248.434007 -198.387699 
L 255.05961 -225.328448 
L 261.685213 -206.092909 
L 268.310816 -225.27104 
L 274.936419 -226.134775 
L 281.562022 -208.309448 
L 288.187625 -226.104393 
L 294.813228 -229.997508 
L 301.438831 -226.229795 
L 308.064434 -225.285121 
L 314.690037 -231.1359 
L 321.31564 -202.832558 
L 327.941243 -235.046833 
L 334.566846 -229.940166 
L 341.192449 -219.5675 
L 347.818052 -260.493191 
L 354.443655 -240.065794 
L 361.069258 -234.812143 
L 367.694861 -209.315413 
L 374.320464 -202.058992 
L 380.946067 -224.95718 
L 387.57167 -223.217747 
L 394.197273 -237.656284 
L 394.197273 -257.018649 
L 394.197273 -257.018649 
L 387.57167 -250.899239 
L 380.946067 -255.136735 
L 374.320464 -230.932785 
L 367.694861 -241.673858 
L 361.069258 -262.456865 
L 354.443655 -265.901275 
L 347.818052 -272.917163 
L 341.192449 -242.987712 
L 334.566846 -254.815913 
L 327.941243 -260.707823 
L 321.31564 -236.32024 
L 314.690037 -250.289922 
L 308.064434 -251.676518 
L 301.438831 -254.476148 
L 294.813228 -257.580493 
L 288.187625 -252.05186 
L 281.562022 -246.444709 
L 274.936419 -261.867484 
L 268.310816 -259.025507 
L 261.685213 -245.115264 
L 255.05961 -260.928196 
L 248.434007 -240.50206 
L 241.808404 -229.606325 
L 235.182801 -223.03105 
L 228.557199 -251.475256 
L 221.931596 -254.722675 
L 215.305993 -229.243867 
L 208.68039 -263.130854 
L 202.054787 -220.247433 
L 195.429184 -236.015668 
L 188.803581 -230.557853 
L 182.177978 -243.685676 
L 175.552375 -244.142745 
L 168.926772 -207.788133 
L 162.301169 -215.297385 
L 155.675566 -242.315648 
L 149.049963 -241.805341 
L 142.42436 -241.485875 
L 135.798757 -214.902514 
L 129.173154 -210.964945 
L 122.547551 -227.466476 
L 115.921948 -218.921811 
L 109.296345 -166.561134 
L 102.670742 -193.788937 
L 96.045139 -172.455226 
L 89.419536 -160.262091 
L 82.793933 -161.774341 
L 76.16833 -94.352173 
L 69.542727 -100.168969 
z
" style="stroke: #dd8452; stroke-opacity: 0.2"/>
    </defs>
    <g clip-path="url(#p1576c5362a)">
     <use xlink:href="#m0ae3426af1" x="0" y="319.397948" style="fill: #dd8452; fill-opacity: 0.2; stroke: #dd8452; stroke-opacity: 0.2"/>
    </g>
   </g>
   <g id="PolyCollection_3">
    <defs>
     <path id="mc3baccd84f" d="M 69.542727 -103.340404 
L 69.542727 -55.795747 
L 76.16833 -86.316192 
L 82.793933 -100.742103 
L 89.419536 -125.747926 
L 96.045139 -133.076702 
L 102.670742 -152.916334 
L 109.296345 -159.254559 
L 115.921948 -187.869861 
L 122.547551 -174.711932 
L 129.173154 -191.892535 
L 135.798757 -205.179995 
L 142.42436 -216.599488 
L 149.049963 -219.605413 
L 155.675566 -222.91238 
L 162.301169 -237.068662 
L 168.926772 -235.916769 
L 175.552375 -241.744114 
L 182.177978 -244.263483 
L 188.803581 -246.447265 
L 195.429184 -244.880248 
L 202.054787 -247.29086 
L 208.68039 -250.617653 
L 215.305993 -252.223858 
L 221.931596 -252.886232 
L 228.557199 -252.83464 
L 235.182801 -255.614581 
L 241.808404 -258.500814 
L 248.434007 -259.732106 
L 255.05961 -258.968663 
L 261.685213 -256.526598 
L 268.310816 -257.027989 
L 274.936419 -258.808758 
L 281.562022 -260.964043 
L 288.187625 -259.352325 
L 294.813228 -179.32824 
L 301.438831 -184.968557 
L 308.064434 -186.698584 
L 314.690037 -182.132702 
L 321.31564 -180.579275 
L 327.941243 -184.074742 
L 334.566846 -183.572257 
L 341.192449 -185.207766 
L 347.818052 -185.352214 
L 354.443655 -183.647885 
L 361.069258 -182.821243 
L 367.694861 -187.560042 
L 374.320464 -187.694763 
L 380.946067 -181.67517 
L 387.57167 -187.16685 
L 394.197273 -181.608525 
L 394.197273 -244.229092 
L 394.197273 -244.229092 
L 387.57167 -248.743851 
L 380.946067 -243.458178 
L 374.320464 -248.207548 
L 367.694861 -247.935297 
L 361.069258 -242.396419 
L 354.443655 -243.097112 
L 347.818052 -245.91656 
L 341.192449 -244.340168 
L 334.566846 -244.221876 
L 327.941243 -243.286034 
L 321.31564 -240.369591 
L 314.690037 -243.803912 
L 308.064434 -244.660618 
L 301.438831 -241.776699 
L 294.813228 -238.662513 
L 288.187625 -290.913555 
L 281.562022 -291.367695 
L 274.936419 -290.505742 
L 268.310816 -290.716419 
L 261.685213 -290.054722 
L 255.05961 -290.276734 
L 248.434007 -291.055097 
L 241.808404 -289.271075 
L 235.182801 -287.561361 
L 228.557199 -286.436355 
L 221.931596 -286.32116 
L 215.305993 -284.229975 
L 208.68039 -285.426731 
L 202.054787 -282.887644 
L 195.429184 -280.623125 
L 188.803581 -280.824332 
L 182.177978 -279.352917 
L 175.552375 -279.508906 
L 168.926772 -274.18694 
L 162.301169 -275.057402 
L 155.675566 -271.090314 
L 149.049963 -267.134359 
L 142.42436 -266.47611 
L 135.798757 -258.47835 
L 129.173154 -247.090015 
L 122.547551 -239.314097 
L 115.921948 -242.43357 
L 109.296345 -223.161008 
L 102.670742 -217.774418 
L 96.045139 -197.865267 
L 89.419536 -191.79824 
L 82.793933 -165.431274 
L 76.16833 -153.007286 
L 69.542727 -103.340404 
z
" style="stroke: #55a868; stroke-opacity: 0.2"/>
    </defs>
    <g clip-path="url(#p1576c5362a)">
     <use xlink:href="#mc3baccd84f" x="0" y="319.397948" style="fill: #55a868; fill-opacity: 0.2; stroke: #55a868; stroke-opacity: 0.2"/>
    </g>
   </g>
   <g id="PolyCollection_4">
    <defs>
     <path id="m6429ecf7a5" d="M 69.542727 -106.333082 
L 69.542727 -64.722322 
L 76.16833 -84.636099 
L 82.793933 -78.107168 
L 89.419536 -92.826187 
L 96.045139 -110.895989 
L 102.670742 -127.204432 
L 109.296345 -142.326976 
L 115.921948 -143.094882 
L 122.547551 -149.496654 
L 129.173154 -158.261744 
L 135.798757 -165.134439 
L 142.42436 -169.122529 
L 149.049963 -183.081356 
L 155.675566 -186.277466 
L 162.301169 -200.293518 
L 168.926772 -201.846338 
L 175.552375 -208.67183 
L 182.177978 -215.164283 
L 188.803581 -213.617106 
L 195.429184 -219.005495 
L 202.054787 -223.249539 
L 208.68039 -230.00336 
L 215.305993 -231.900516 
L 221.931596 -232.190834 
L 228.557199 -234.586732 
L 235.182801 -241.634754 
L 241.808404 -246.135247 
L 248.434007 -248.58114 
L 255.05961 -249.166787 
L 261.685213 -249.055512 
L 268.310816 -250.455591 
L 274.936419 -252.636924 
L 281.562022 -253.034846 
L 288.187625 -253.523994 
L 294.813228 -175.368759 
L 301.438831 -170.255539 
L 308.064434 -182.4339 
L 314.690037 -178.762681 
L 321.31564 -187.656218 
L 327.941243 -183.235575 
L 334.566846 -175.927315 
L 341.192449 -183.613458 
L 347.818052 -181.909621 
L 354.443655 -185.701858 
L 361.069258 -179.555612 
L 367.694861 -177.067046 
L 374.320464 -186.087439 
L 380.946067 -180.422195 
L 387.57167 -186.430964 
L 394.197273 -185.060395 
L 394.197273 -246.284567 
L 394.197273 -246.284567 
L 387.57167 -245.59143 
L 380.946067 -245.821462 
L 374.320464 -245.516845 
L 367.694861 -243.813971 
L 361.069258 -242.222024 
L 354.443655 -245.258599 
L 347.818052 -246.119333 
L 341.192449 -245.172281 
L 334.566846 -240.342369 
L 327.941243 -244.704678 
L 321.31564 -244.944477 
L 314.690037 -239.707414 
L 308.064434 -242.781895 
L 301.438831 -236.167047 
L 294.813228 -234.411816 
L 288.187625 -287.047349 
L 281.562022 -286.607974 
L 274.936419 -286.75898 
L 268.310816 -286.682774 
L 261.685213 -282.749157 
L 255.05961 -283.71007 
L 248.434007 -282.697839 
L 241.808404 -280.881944 
L 235.182801 -278.270555 
L 228.557199 -273.409437 
L 221.931596 -270.65252 
L 215.305993 -271.714864 
L 208.68039 -270.171037 
L 202.054787 -265.627004 
L 195.429184 -260.938997 
L 188.803581 -258.630808 
L 182.177978 -255.292562 
L 175.552375 -249.530702 
L 168.926772 -243.716076 
L 162.301169 -241.977801 
L 155.675566 -239.204218 
L 149.049963 -235.413914 
L 142.42436 -229.403434 
L 135.798757 -224.18472 
L 129.173154 -215.365203 
L 122.547551 -207.26551 
L 115.921948 -200.275999 
L 109.296345 -195.521748 
L 102.670742 -186.744519 
L 96.045139 -168.170906 
L 89.419536 -149.909649 
L 82.793933 -126.79076 
L 76.16833 -136.750351 
L 69.542727 -106.333082 
z
" style="stroke: #c44e52; stroke-opacity: 0.2"/>
    </defs>
    <g clip-path="url(#p1576c5362a)">
     <use xlink:href="#m6429ecf7a5" x="0" y="319.397948" style="fill: #c44e52; fill-opacity: 0.2; stroke: #c44e52; stroke-opacity: 0.2"/>
    </g>
   </g>
   <g id="line2d_12">
    <path d="M 69.542727 229.184985 
L 76.16833 190.891604 
L 82.793933 144.869681 
L 89.419536 134.272797 
L 96.045139 108.699266 
L 102.670742 86.457491 
L 109.296345 100.006067 
L 115.921948 63.119521 
L 122.547551 57.840306 
L 129.173154 55.431308 
L 135.798757 47.089866 
L 142.42436 40.738853 
L 149.049963 37.219955 
L 155.675566 38.461544 
L 162.301169 38.555554 
L 168.926772 40.201253 
L 175.552375 36.145209 
L 182.177978 30.701444 
L 188.803581 35.977295 
L 195.429184 38.890105 
L 202.054787 38.821793 
L 208.68039 31.645273 
L 215.305993 35.295565 
L 221.931596 34.199517 
L 228.557199 34.831466 
L 235.182801 34.099721 
L 241.808404 34.997785 
L 248.434007 34.329759 
L 255.05961 34.068402 
L 261.685213 42.518084 
L 268.310816 33.754451 
L 274.936419 33.308336 
L 281.562022 31.375692 
L 288.187625 30.709734 
L 294.813228 43.343756 
L 301.438831 41.540634 
L 308.064434 45.618655 
L 314.690037 47.716452 
L 321.31564 48.180852 
L 327.941243 38.453175 
L 334.566846 38.532997 
L 341.192449 48.097324 
L 347.818052 32.234678 
L 354.443655 36.366905 
L 361.069258 39.267144 
L 367.694861 52.269554 
L 374.320464 54.755505 
L 380.946067 44.661206 
L 387.57167 46.885455 
L 394.197273 44.679453 
" clip-path="url(#p1576c5362a)" style="fill: none; stroke: #4c72b0; stroke-width: 1.5; stroke-linecap: round"/>
   </g>
   <g id="line2d_13">
    <path d="M 69.542727 243.670168 
L 76.16833 246.480882 
L 82.793933 189.44599 
L 89.419536 185.465716 
L 96.045139 174.418045 
L 102.670742 153.343575 
L 109.296345 182.634819 
L 115.921948 119.505463 
L 122.547551 106.501477 
L 129.173154 125.216724 
L 135.798757 128.936918 
L 142.42436 99.539082 
L 149.049963 92.081522 
L 155.675566 90.569542 
L 162.301169 127.10002 
L 168.926772 132.191427 
L 175.552375 92.650722 
L 182.177978 88.86193 
L 188.803581 111.744746 
L 195.429184 105.494018 
L 202.054787 122.47091 
L 208.68039 65.723728 
L 215.305993 109.885563 
L 221.931596 78.800033 
L 228.557199 86.32381 
L 235.182801 120.593807 
L 241.808404 112.540299 
L 248.434007 99.461494 
L 255.05961 74.430599 
L 261.685213 93.033615 
L 268.310816 76.107264 
L 274.936419 73.326664 
L 281.562022 91.357846 
L 288.187625 79.679624 
L 294.813228 75.15707 
L 301.438831 78.893163 
L 308.064434 80.481438 
L 314.690037 78.881216 
L 321.31564 99.79668 
L 327.941243 71.235822 
L 334.566846 76.996199 
L 341.192449 88.248717 
L 347.818052 52.426165 
L 354.443655 65.434325 
L 361.069258 70.309104 
L 367.694861 92.349241 
L 374.320464 102.613685 
L 380.946067 78.325196 
L 387.57167 81.898191 
L 394.197273 71.804195 
" clip-path="url(#p1576c5362a)" style="fill: none; stroke: #dd8452; stroke-width: 1.5; stroke-linecap: round"/>
   </g>
   <g id="line2d_14">
    <path d="M 69.542727 241.580696 
L 76.16833 201.182108 
L 82.793933 187.625647 
L 89.419536 161.241158 
L 96.045139 152.098144 
L 102.670742 134.242126 
L 109.296345 127.704153 
L 115.921948 104.963353 
L 122.547551 110.186091 
L 129.173154 100.036685 
L 135.798757 86.436684 
L 142.42436 75.989222 
L 149.049963 74.961216 
L 155.675566 70.181626 
L 162.301169 62.152511 
L 168.926772 62.575972 
L 175.552375 57.542513 
L 182.177978 56.024313 
L 188.803581 55.132562 
L 195.429184 55.865145 
L 202.054787 51.766085 
L 208.68039 49.195145 
L 215.305993 48.801566 
L 221.931596 47.950538 
L 228.557199 47.616847 
L 235.182801 45.829623 
L 241.808404 44.432159 
L 248.434007 43.303781 
L 255.05961 43.420674 
L 261.685213 43.401581 
L 268.310816 43.174532 
L 274.936419 42.58016 
L 281.562022 42.639612 
L 288.187625 42.79073 
L 294.813228 107.877465 
L 301.438831 105.761249 
L 308.064434 102.423393 
L 314.690037 106.334927 
L 321.31564 107.372321 
L 327.941243 104.765943 
L 334.566846 104.71957 
L 341.192449 103.728006 
L 347.818052 103.684931 
L 354.443655 104.634717 
L 361.069258 105.123492 
L 367.694861 100.800057 
L 374.320464 100.249106 
L 380.946067 106.252892 
L 387.57167 102.9512 
L 394.197273 106.436322 
" clip-path="url(#p1576c5362a)" style="fill: none; stroke: #55a868; stroke-width: 1.5; stroke-linecap: round"/>
   </g>
   <g id="line2d_15">
    <path d="M 69.542727 236.516077 
L 76.16833 209.623444 
L 82.793933 218.117321 
L 89.419536 199.311772 
L 96.045139 182.141878 
L 102.670742 161.603306 
L 109.296345 149.347311 
L 115.921948 146.916026 
L 122.547551 141.379818 
L 129.173154 132.395342 
L 135.798757 125.306022 
L 142.42436 120.665617 
L 149.049963 108.772752 
L 155.675566 105.291512 
L 162.301169 96.724311 
L 168.926772 97.341892 
L 175.552375 89.290523 
L 182.177978 84.199142 
L 188.803581 81.063008 
L 195.429184 78.458119 
L 202.054787 75.689398 
L 208.68039 68.093267 
L 215.305993 66.633424 
L 221.931596 66.434786 
L 228.557199 64.638117 
L 235.182801 57.206062 
L 241.808404 54.335862 
L 248.434007 52.417311 
L 255.05961 51.498306 
L 261.685213 51.199644 
L 268.310816 49.46121 
L 274.936419 48.607425 
L 281.562022 48.00749 
L 288.187625 46.53088 
L 294.813228 111.418382 
L 301.438831 114.076041 
L 308.064434 106.030413 
L 314.690037 109.44888 
L 321.31564 102.164902 
L 327.941243 105.736325 
L 334.566846 109.764694 
L 341.192449 103.167956 
L 347.818052 106.36352 
L 354.443655 103.231189 
L 361.069258 107.637811 
L 367.694861 109.243728 
L 374.320464 102.128879 
L 380.946067 106.314076 
L 387.57167 102.47769 
L 394.197273 102.042543 
" clip-path="url(#p1576c5362a)" style="fill: none; stroke: #c44e52; stroke-width: 1.5; stroke-linecap: round"/>
   </g>
   <g id="line2d_16"/>
   <g id="line2d_17"/>
   <g id="line2d_18"/>
   <g id="line2d_19"/>
   <g id="patch_3">
    <path d="M 53.31 276.43826 
L 53.31 10.32626 
" style="fill: none; stroke: #cccccc; stroke-width: 1.25; stroke-linejoin: miter; stroke-linecap: square"/>
   </g>
   <g id="patch_4">
    <path d="M 410.43 276.43826 
L 410.43 10.32626 
" style="fill: none; stroke: #cccccc; stroke-width: 1.25; stroke-linejoin: miter; stroke-linecap: square"/>
   </g>
   <g id="patch_5">
    <path d="M 53.31 276.43826 
L 410.43 276.43826 
" style="fill: none; stroke: #cccccc; stroke-width: 1.25; stroke-linejoin: miter; stroke-linecap: square"/>
   </g>
   <g id="patch_6">
    <path d="M 53.31 10.32626 
L 410.43 10.32626 
" style="fill: none; stroke: #cccccc; stroke-width: 1.25; stroke-linejoin: miter; stroke-linecap: square"/>
   </g>
   <g id="legend_1">
    <g id="patch_7">
     <path d="M 298.745625 270.93826 
L 402.73 270.93826 
Q 404.93 270.93826 404.93 268.73826 
L 404.93 188.14076 
Q 404.93 185.94076 402.73 185.94076 
L 298.745625 185.94076 
Q 296.545625 185.94076 296.545625 188.14076 
L 296.545625 268.73826 
Q 296.545625 270.93826 298.745625 270.93826 
z
" style="fill: #ffffff; opacity: 0.8; stroke: #cccccc; stroke-linejoin: miter"/>
    </g>
    <g id="text_14">
     <!-- Strategy -->
     <g style="fill: #262626" transform="translate(325.02875 199.458885) scale(0.12 -0.12)">
      <defs>
       <path id="DejaVuSans-53" d="M 3425 4513 
L 3425 3897 
Q 3066 4069 2747 4153 
Q 2428 4238 2131 4238 
Q 1616 4238 1336 4038 
Q 1056 3838 1056 3469 
Q 1056 3159 1242 3001 
Q 1428 2844 1947 2747 
L 2328 2669 
Q 3034 2534 3370 2195 
Q 3706 1856 3706 1288 
Q 3706 609 3251 259 
Q 2797 -91 1919 -91 
Q 1588 -91 1214 -16 
Q 841 59 441 206 
L 441 856 
Q 825 641 1194 531 
Q 1563 422 1919 422 
Q 2459 422 2753 634 
Q 3047 847 3047 1241 
Q 3047 1584 2836 1778 
Q 2625 1972 2144 2069 
L 1759 2144 
Q 1053 2284 737 2584 
Q 422 2884 422 3419 
Q 422 4038 858 4394 
Q 1294 4750 2059 4750 
Q 2388 4750 2728 4690 
Q 3069 4631 3425 4513 
z
" transform="scale(0.015625)"/>
       <path id="DejaVuSans-74" d="M 1172 4494 
L 1172 3500 
L 2356 3500 
L 2356 3053 
L 1172 3053 
L 1172 1153 
Q 1172 725 1289 603 
Q 1406 481 1766 481 
L 2356 481 
L 2356 0 
L 1766 0 
Q 1100 0 847 248 
Q 594 497 594 1153 
L 594 3053 
L 172 3053 
L 172 3500 
L 594 3500 
L 594 4494 
L 1172 4494 
z
" transform="scale(0.015625)"/>
       <path id="DejaVuSans-65" d="M 3597 1894 
L 3597 1613 
L 953 1613 
Q 991 1019 1311 708 
Q 1631 397 2203 397 
Q 2534 397 2845 478 
Q 3156 559 3463 722 
L 3463 178 
Q 3153 47 2828 -22 
Q 2503 -91 2169 -91 
Q 1331 -91 842 396 
Q 353 884 353 1716 
Q 353 2575 817 3079 
Q 1281 3584 2069 3584 
Q 2775 3584 3186 3129 
Q 3597 2675 3597 1894 
z
M 3022 2063 
Q 3016 2534 2758 2815 
Q 2500 3097 2075 3097 
Q 1594 3097 1305 2825 
Q 1016 2553 972 2059 
L 3022 2063 
z
" transform="scale(0.015625)"/>
       <path id="DejaVuSans-67" d="M 2906 1791 
Q 2906 2416 2648 2759 
Q 2391 3103 1925 3103 
Q 1463 3103 1205 2759 
Q 947 2416 947 1791 
Q 947 1169 1205 825 
Q 1463 481 1925 481 
Q 2391 481 2648 825 
Q 2906 1169 2906 1791 
z
M 3481 434 
Q 3481 -459 3084 -895 
Q 2688 -1331 1869 -1331 
Q 1566 -1331 1297 -1286 
Q 1028 -1241 775 -1147 
L 775 -588 
Q 1028 -725 1275 -790 
Q 1522 -856 1778 -856 
Q 2344 -856 2625 -561 
Q 2906 -266 2906 331 
L 2906 616 
Q 2728 306 2450 153 
Q 2172 0 1784 0 
Q 1141 0 747 490 
Q 353 981 353 1791 
Q 353 2603 747 3093 
Q 1141 3584 1784 3584 
Q 2172 3584 2450 3431 
Q 2728 3278 2906 2969 
L 2906 3500 
L 3481 3500 
L 3481 434 
z
" transform="scale(0.015625)"/>
      </defs>
      <use xlink:href="#DejaVuSans-53"/>
      <use xlink:href="#DejaVuSans-74" x="63.476562"/>
      <use xlink:href="#DejaVuSans-72" x="102.685547"/>
      <use xlink:href="#DejaVuSans-61" x="143.798828"/>
      <use xlink:href="#DejaVuSans-74" x="205.078125"/>
      <use xlink:href="#DejaVuSans-65" x="244.287109"/>
      <use xlink:href="#DejaVuSans-67" x="305.810547"/>
      <use xlink:href="#DejaVuSans-79" x="369.287109"/>
     </g>
    </g>
    <g id="line2d_20">
     <path d="M 300.945625 211.962792 
L 311.945625 211.962792 
L 322.945625 211.962792 
" style="fill: none; stroke: #4c72b0; stroke-width: 1.5; stroke-linecap: round"/>
    </g>
    <g id="text_15">
     <!-- FedPredict -->
     <g style="fill: #262626" transform="translate(331.745625 215.812792) scale(0.11 -0.11)">
      <defs>
       <path id="DejaVuSans-46" d="M 628 4666 
L 3309 4666 
L 3309 4134 
L 1259 4134 
L 1259 2759 
L 3109 2759 
L 3109 2228 
L 1259 2228 
L 1259 0 
L 628 0 
L 628 4666 
z
" transform="scale(0.015625)"/>
       <path id="DejaVuSans-50" d="M 1259 4147 
L 1259 2394 
L 2053 2394 
Q 2494 2394 2734 2622 
Q 2975 2850 2975 3272 
Q 2975 3691 2734 3919 
Q 2494 4147 2053 4147 
L 1259 4147 
z
M 628 4666 
L 2053 4666 
Q 2838 4666 3239 4311 
Q 3641 3956 3641 3272 
Q 3641 2581 3239 2228 
Q 2838 1875 2053 1875 
L 1259 1875 
L 1259 0 
L 628 0 
L 628 4666 
z
" transform="scale(0.015625)"/>
       <path id="DejaVuSans-69" d="M 603 3500 
L 1178 3500 
L 1178 0 
L 603 0 
L 603 3500 
z
M 603 4863 
L 1178 4863 
L 1178 4134 
L 603 4134 
L 603 4863 
z
" transform="scale(0.015625)"/>
      </defs>
      <use xlink:href="#DejaVuSans-46"/>
      <use xlink:href="#DejaVuSans-65" x="52.019531"/>
      <use xlink:href="#DejaVuSans-64" x="113.542969"/>
      <use xlink:href="#DejaVuSans-50" x="177.019531"/>
      <use xlink:href="#DejaVuSans-72" x="235.572266"/>
      <use xlink:href="#DejaVuSans-65" x="274.435547"/>
      <use xlink:href="#DejaVuSans-64" x="335.958984"/>
      <use xlink:href="#DejaVuSans-69" x="399.435547"/>
      <use xlink:href="#DejaVuSans-63" x="427.21875"/>
      <use xlink:href="#DejaVuSans-74" x="482.199219"/>
     </g>
    </g>
    <g id="line2d_21">
     <path d="M 300.945625 228.108729 
L 311.945625 228.108729 
L 322.945625 228.108729 
" style="fill: none; stroke: #dd8452; stroke-width: 1.5; stroke-linecap: round"/>
    </g>
    <g id="text_16">
     <!-- FedAVG -->
     <g style="fill: #262626" transform="translate(331.745625 231.958729) scale(0.11 -0.11)">
      <defs>
       <path id="DejaVuSans-56" d="M 1831 0 
L 50 4666 
L 709 4666 
L 2188 738 
L 3669 4666 
L 4325 4666 
L 2547 0 
L 1831 0 
z
" transform="scale(0.015625)"/>
       <path id="DejaVuSans-47" d="M 3809 666 
L 3809 1919 
L 2778 1919 
L 2778 2438 
L 4434 2438 
L 4434 434 
Q 4069 175 3628 42 
Q 3188 -91 2688 -91 
Q 1594 -91 976 548 
Q 359 1188 359 2328 
Q 359 3472 976 4111 
Q 1594 4750 2688 4750 
Q 3144 4750 3555 4637 
Q 3966 4525 4313 4306 
L 4313 3634 
Q 3963 3931 3569 4081 
Q 3175 4231 2741 4231 
Q 1884 4231 1454 3753 
Q 1025 3275 1025 2328 
Q 1025 1384 1454 906 
Q 1884 428 2741 428 
Q 3075 428 3337 486 
Q 3600 544 3809 666 
z
" transform="scale(0.015625)"/>
      </defs>
      <use xlink:href="#DejaVuSans-46"/>
      <use xlink:href="#DejaVuSans-65" x="52.019531"/>
      <use xlink:href="#DejaVuSans-64" x="113.542969"/>
      <use xlink:href="#DejaVuSans-41" x="177.019531"/>
      <use xlink:href="#DejaVuSans-56" x="239.052734"/>
      <use xlink:href="#DejaVuSans-47" x="307.460938"/>
     </g>
    </g>
    <g id="line2d_22">
     <path d="M 300.945625 244.254667 
L 311.945625 244.254667 
L 322.945625 244.254667 
" style="fill: none; stroke: #55a868; stroke-width: 1.5; stroke-linecap: round"/>
    </g>
    <g id="text_17">
     <!-- FedClassAvg -->
     <g style="fill: #262626" transform="translate(331.745625 248.104667) scale(0.11 -0.11)">
      <defs>
       <path id="DejaVuSans-43" d="M 4122 4306 
L 4122 3641 
Q 3803 3938 3442 4084 
Q 3081 4231 2675 4231 
Q 1875 4231 1450 3742 
Q 1025 3253 1025 2328 
Q 1025 1406 1450 917 
Q 1875 428 2675 428 
Q 3081 428 3442 575 
Q 3803 722 4122 1019 
L 4122 359 
Q 3791 134 3420 21 
Q 3050 -91 2638 -91 
Q 1578 -91 968 557 
Q 359 1206 359 2328 
Q 359 3453 968 4101 
Q 1578 4750 2638 4750 
Q 3056 4750 3426 4639 
Q 3797 4528 4122 4306 
z
" transform="scale(0.015625)"/>
       <path id="DejaVuSans-6c" d="M 603 4863 
L 1178 4863 
L 1178 0 
L 603 0 
L 603 4863 
z
" transform="scale(0.015625)"/>
       <path id="DejaVuSans-73" d="M 2834 3397 
L 2834 2853 
Q 2591 2978 2328 3040 
Q 2066 3103 1784 3103 
Q 1356 3103 1142 2972 
Q 928 2841 928 2578 
Q 928 2378 1081 2264 
Q 1234 2150 1697 2047 
L 1894 2003 
Q 2506 1872 2764 1633 
Q 3022 1394 3022 966 
Q 3022 478 2636 193 
Q 2250 -91 1575 -91 
Q 1294 -91 989 -36 
Q 684 19 347 128 
L 347 722 
Q 666 556 975 473 
Q 1284 391 1588 391 
Q 1994 391 2212 530 
Q 2431 669 2431 922 
Q 2431 1156 2273 1281 
Q 2116 1406 1581 1522 
L 1381 1569 
Q 847 1681 609 1914 
Q 372 2147 372 2553 
Q 372 3047 722 3315 
Q 1072 3584 1716 3584 
Q 2034 3584 2315 3537 
Q 2597 3491 2834 3397 
z
" transform="scale(0.015625)"/>
       <path id="DejaVuSans-76" d="M 191 3500 
L 800 3500 
L 1894 563 
L 2988 3500 
L 3597 3500 
L 2284 0 
L 1503 0 
L 191 3500 
z
" transform="scale(0.015625)"/>
      </defs>
      <use xlink:href="#DejaVuSans-46"/>
      <use xlink:href="#DejaVuSans-65" x="52.019531"/>
      <use xlink:href="#DejaVuSans-64" x="113.542969"/>
      <use xlink:href="#DejaVuSans-43" x="177.019531"/>
      <use xlink:href="#DejaVuSans-6c" x="246.84375"/>
      <use xlink:href="#DejaVuSans-61" x="274.626953"/>
      <use xlink:href="#DejaVuSans-73" x="335.90625"/>
      <use xlink:href="#DejaVuSans-73" x="388.005859"/>
      <use xlink:href="#DejaVuSans-41" x="440.105469"/>
      <use xlink:href="#DejaVuSans-76" x="502.638672"/>
      <use xlink:href="#DejaVuSans-67" x="561.818359"/>
     </g>
    </g>
    <g id="line2d_23">
     <path d="M 300.945625 260.400604 
L 311.945625 260.400604 
L 322.945625 260.400604 
" style="fill: none; stroke: #c44e52; stroke-width: 1.5; stroke-linecap: round"/>
    </g>
    <g id="text_18">
     <!-- FedPer -->
     <g style="fill: #262626" transform="translate(331.745625 264.250604) scale(0.11 -0.11)">
      <use xlink:href="#DejaVuSans-46"/>
      <use xlink:href="#DejaVuSans-65" x="52.019531"/>
      <use xlink:href="#DejaVuSans-64" x="113.542969"/>
      <use xlink:href="#DejaVuSans-50" x="177.019531"/>
      <use xlink:href="#DejaVuSans-65" x="233.697266"/>
      <use xlink:href="#DejaVuSans-72" x="295.220703"/>
     </g>
    </g>
   </g>
  </g>
 </g>
 <defs>
  <clipPath id="p1576c5362a">
   <rect x="53.31" y="10.32626" width="357.12" height="266.112"/>
  </clipPath>
 </defs>
</svg>
