<?xml version="1.0" encoding="utf-8" standalone="no"?>
<!DOCTYPE svg PUBLIC "-//W3C//DTD SVG 1.1//EN"
  "http://www.w3.org/Graphics/SVG/1.1/DTD/svg11.dtd">
<svg xmlns:xlink="http://www.w3.org/1999/xlink" width="417.63pt" height="316.271687pt" viewBox="0 0 417.63 316.271687" xmlns="http://www.w3.org/2000/svg" version="1.1">
 <metadata>
  <rdf:RDF xmlns:dc="http://purl.org/dc/elements/1.1/" xmlns:cc="http://creativecommons.org/ns#" xmlns:rdf="http://www.w3.org/1999/02/22-rdf-syntax-ns#">
   <cc:Work>
    <dc:type rdf:resource="http://purl.org/dc/dcmitype/StillImage"/>
    <dc:date>2023-03-01T15:29:45.666565</dc:date>
    <dc:format>image/svg+xml</dc:format>
    <dc:creator>
     <cc:Agent>
      <dc:title>Matplotlib v3.6.3, https://matplotlib.org/</dc:title>
     </cc:Agent>
    </dc:creator>
   </cc:Work>
  </rdf:RDF>
 </metadata>
 <defs>
  <style type="text/css">*{stroke-linejoin: round; stroke-linecap: butt}</style>
 </defs>
 <g id="figure_1">
  <g id="patch_1">
   <path d="M 0 316.271687 
L 417.63 316.271687 
L 417.63 0 
L 0 0 
z
" style="fill: #ffffff"/>
  </g>
  <g id="axes_1">
   <g id="patch_2">
    <path d="M 53.31 273.312 
L 410.43 273.312 
L 410.43 7.2 
L 53.31 7.2 
z
" style="fill: #ffffff"/>
   </g>
   <g id="matplotlib.axis_1">
    <g id="xtick_1">
     <g id="line2d_1">
      <path d="M 66.263388 273.312 
L 66.263388 7.2 
" clip-path="url(#p2d3dbb7798)" style="fill: none; stroke: #cccccc; stroke-linecap: round"/>
     </g>
     <g id="text_1">
      <!-- 0 -->
      <g style="fill: #262626" transform="translate(62.764013 291.170281) scale(0.11 -0.11)">
       <defs>
        <path id="DejaVuSans-30" d="M 2034 4250 
Q 1547 4250 1301 3770 
Q 1056 3291 1056 2328 
Q 1056 1369 1301 889 
Q 1547 409 2034 409 
Q 2525 409 2770 889 
Q 3016 1369 3016 2328 
Q 3016 3291 2770 3770 
Q 2525 4250 2034 4250 
z
M 2034 4750 
Q 2819 4750 3233 4129 
Q 3647 3509 3647 2328 
Q 3647 1150 3233 529 
Q 2819 -91 2034 -91 
Q 1250 -91 836 529 
Q 422 1150 422 2328 
Q 422 3509 836 4129 
Q 1250 4750 2034 4750 
z
" transform="scale(0.015625)"/>
       </defs>
       <use xlink:href="#DejaVuSans-30"/>
      </g>
     </g>
    </g>
    <g id="xtick_2">
     <g id="line2d_2">
      <path d="M 131.850165 273.312 
L 131.850165 7.2 
" clip-path="url(#p2d3dbb7798)" style="fill: none; stroke: #cccccc; stroke-linecap: round"/>
     </g>
     <g id="text_2">
      <!-- 20 -->
      <g style="fill: #262626" transform="translate(124.851415 291.170281) scale(0.11 -0.11)">
       <defs>
        <path id="DejaVuSans-32" d="M 1228 531 
L 3431 531 
L 3431 0 
L 469 0 
L 469 531 
Q 828 903 1448 1529 
Q 2069 2156 2228 2338 
Q 2531 2678 2651 2914 
Q 2772 3150 2772 3378 
Q 2772 3750 2511 3984 
Q 2250 4219 1831 4219 
Q 1534 4219 1204 4116 
Q 875 4013 500 3803 
L 500 4441 
Q 881 4594 1212 4672 
Q 1544 4750 1819 4750 
Q 2544 4750 2975 4387 
Q 3406 4025 3406 3419 
Q 3406 3131 3298 2873 
Q 3191 2616 2906 2266 
Q 2828 2175 2409 1742 
Q 1991 1309 1228 531 
z
" transform="scale(0.015625)"/>
       </defs>
       <use xlink:href="#DejaVuSans-32"/>
       <use xlink:href="#DejaVuSans-30" x="63.623047"/>
      </g>
     </g>
    </g>
    <g id="xtick_3">
     <g id="line2d_3">
      <path d="M 197.436942 273.312 
L 197.436942 7.2 
" clip-path="url(#p2d3dbb7798)" style="fill: none; stroke: #cccccc; stroke-linecap: round"/>
     </g>
     <g id="text_3">
      <!-- 40 -->
      <g style="fill: #262626" transform="translate(190.438192 291.170281) scale(0.11 -0.11)">
       <defs>
        <path id="DejaVuSans-34" d="M 2419 4116 
L 825 1625 
L 2419 1625 
L 2419 4116 
z
M 2253 4666 
L 3047 4666 
L 3047 1625 
L 3713 1625 
L 3713 1100 
L 3047 1100 
L 3047 0 
L 2419 0 
L 2419 1100 
L 313 1100 
L 313 1709 
L 2253 4666 
z
" transform="scale(0.015625)"/>
       </defs>
       <use xlink:href="#DejaVuSans-34"/>
       <use xlink:href="#DejaVuSans-30" x="63.623047"/>
      </g>
     </g>
    </g>
    <g id="xtick_4">
     <g id="line2d_4">
      <path d="M 263.023719 273.312 
L 263.023719 7.2 
" clip-path="url(#p2d3dbb7798)" style="fill: none; stroke: #cccccc; stroke-linecap: round"/>
     </g>
     <g id="text_4">
      <!-- 60 -->
      <g style="fill: #262626" transform="translate(256.024969 291.170281) scale(0.11 -0.11)">
       <defs>
        <path id="DejaVuSans-36" d="M 2113 2584 
Q 1688 2584 1439 2293 
Q 1191 2003 1191 1497 
Q 1191 994 1439 701 
Q 1688 409 2113 409 
Q 2538 409 2786 701 
Q 3034 994 3034 1497 
Q 3034 2003 2786 2293 
Q 2538 2584 2113 2584 
z
M 3366 4563 
L 3366 3988 
Q 3128 4100 2886 4159 
Q 2644 4219 2406 4219 
Q 1781 4219 1451 3797 
Q 1122 3375 1075 2522 
Q 1259 2794 1537 2939 
Q 1816 3084 2150 3084 
Q 2853 3084 3261 2657 
Q 3669 2231 3669 1497 
Q 3669 778 3244 343 
Q 2819 -91 2113 -91 
Q 1303 -91 875 529 
Q 447 1150 447 2328 
Q 447 3434 972 4092 
Q 1497 4750 2381 4750 
Q 2619 4750 2861 4703 
Q 3103 4656 3366 4563 
z
" transform="scale(0.015625)"/>
       </defs>
       <use xlink:href="#DejaVuSans-36"/>
       <use xlink:href="#DejaVuSans-30" x="63.623047"/>
      </g>
     </g>
    </g>
    <g id="xtick_5">
     <g id="line2d_5">
      <path d="M 328.610496 273.312 
L 328.610496 7.2 
" clip-path="url(#p2d3dbb7798)" style="fill: none; stroke: #cccccc; stroke-linecap: round"/>
     </g>
     <g id="text_5">
      <!-- 80 -->
      <g style="fill: #262626" transform="translate(321.611746 291.170281) scale(0.11 -0.11)">
       <defs>
        <path id="DejaVuSans-38" d="M 2034 2216 
Q 1584 2216 1326 1975 
Q 1069 1734 1069 1313 
Q 1069 891 1326 650 
Q 1584 409 2034 409 
Q 2484 409 2743 651 
Q 3003 894 3003 1313 
Q 3003 1734 2745 1975 
Q 2488 2216 2034 2216 
z
M 1403 2484 
Q 997 2584 770 2862 
Q 544 3141 544 3541 
Q 544 4100 942 4425 
Q 1341 4750 2034 4750 
Q 2731 4750 3128 4425 
Q 3525 4100 3525 3541 
Q 3525 3141 3298 2862 
Q 3072 2584 2669 2484 
Q 3125 2378 3379 2068 
Q 3634 1759 3634 1313 
Q 3634 634 3220 271 
Q 2806 -91 2034 -91 
Q 1263 -91 848 271 
Q 434 634 434 1313 
Q 434 1759 690 2068 
Q 947 2378 1403 2484 
z
M 1172 3481 
Q 1172 3119 1398 2916 
Q 1625 2713 2034 2713 
Q 2441 2713 2670 2916 
Q 2900 3119 2900 3481 
Q 2900 3844 2670 4047 
Q 2441 4250 2034 4250 
Q 1625 4250 1398 4047 
Q 1172 3844 1172 3481 
z
" transform="scale(0.015625)"/>
       </defs>
       <use xlink:href="#DejaVuSans-38"/>
       <use xlink:href="#DejaVuSans-30" x="63.623047"/>
      </g>
     </g>
    </g>
    <g id="xtick_6">
     <g id="line2d_6">
      <path d="M 394.197273 273.312 
L 394.197273 7.2 
" clip-path="url(#p2d3dbb7798)" style="fill: none; stroke: #cccccc; stroke-linecap: round"/>
     </g>
     <g id="text_6">
      <!-- 100 -->
      <g style="fill: #262626" transform="translate(383.699148 291.170281) scale(0.11 -0.11)">
       <defs>
        <path id="DejaVuSans-31" d="M 794 531 
L 1825 531 
L 1825 4091 
L 703 3866 
L 703 4441 
L 1819 4666 
L 2450 4666 
L 2450 531 
L 3481 531 
L 3481 0 
L 794 0 
L 794 531 
z
" transform="scale(0.015625)"/>
       </defs>
       <use xlink:href="#DejaVuSans-31"/>
       <use xlink:href="#DejaVuSans-30" x="63.623047"/>
       <use xlink:href="#DejaVuSans-30" x="127.246094"/>
      </g>
     </g>
    </g>
    <g id="text_7">
     <!-- Round -->
     <g style="fill: #262626" transform="translate(212.885625 306.576062) scale(0.12 -0.12)">
      <defs>
       <path id="DejaVuSans-52" d="M 2841 2188 
Q 3044 2119 3236 1894 
Q 3428 1669 3622 1275 
L 4263 0 
L 3584 0 
L 2988 1197 
Q 2756 1666 2539 1819 
Q 2322 1972 1947 1972 
L 1259 1972 
L 1259 0 
L 628 0 
L 628 4666 
L 2053 4666 
Q 2853 4666 3247 4331 
Q 3641 3997 3641 3322 
Q 3641 2881 3436 2590 
Q 3231 2300 2841 2188 
z
M 1259 4147 
L 1259 2491 
L 2053 2491 
Q 2509 2491 2742 2702 
Q 2975 2913 2975 3322 
Q 2975 3731 2742 3939 
Q 2509 4147 2053 4147 
L 1259 4147 
z
" transform="scale(0.015625)"/>
       <path id="DejaVuSans-6f" d="M 1959 3097 
Q 1497 3097 1228 2736 
Q 959 2375 959 1747 
Q 959 1119 1226 758 
Q 1494 397 1959 397 
Q 2419 397 2687 759 
Q 2956 1122 2956 1747 
Q 2956 2369 2687 2733 
Q 2419 3097 1959 3097 
z
M 1959 3584 
Q 2709 3584 3137 3096 
Q 3566 2609 3566 1747 
Q 3566 888 3137 398 
Q 2709 -91 1959 -91 
Q 1206 -91 779 398 
Q 353 888 353 1747 
Q 353 2609 779 3096 
Q 1206 3584 1959 3584 
z
" transform="scale(0.015625)"/>
       <path id="DejaVuSans-75" d="M 544 1381 
L 544 3500 
L 1119 3500 
L 1119 1403 
Q 1119 906 1312 657 
Q 1506 409 1894 409 
Q 2359 409 2629 706 
Q 2900 1003 2900 1516 
L 2900 3500 
L 3475 3500 
L 3475 0 
L 2900 0 
L 2900 538 
Q 2691 219 2414 64 
Q 2138 -91 1772 -91 
Q 1169 -91 856 284 
Q 544 659 544 1381 
z
M 1991 3584 
L 1991 3584 
z
" transform="scale(0.015625)"/>
       <path id="DejaVuSans-6e" d="M 3513 2113 
L 3513 0 
L 2938 0 
L 2938 2094 
Q 2938 2591 2744 2837 
Q 2550 3084 2163 3084 
Q 1697 3084 1428 2787 
Q 1159 2491 1159 1978 
L 1159 0 
L 581 0 
L 581 3500 
L 1159 3500 
L 1159 2956 
Q 1366 3272 1645 3428 
Q 1925 3584 2291 3584 
Q 2894 3584 3203 3211 
Q 3513 2838 3513 2113 
z
" transform="scale(0.015625)"/>
       <path id="DejaVuSans-64" d="M 2906 2969 
L 2906 4863 
L 3481 4863 
L 3481 0 
L 2906 0 
L 2906 525 
Q 2725 213 2448 61 
Q 2172 -91 1784 -91 
Q 1150 -91 751 415 
Q 353 922 353 1747 
Q 353 2572 751 3078 
Q 1150 3584 1784 3584 
Q 2172 3584 2448 3432 
Q 2725 3281 2906 2969 
z
M 947 1747 
Q 947 1113 1208 752 
Q 1469 391 1925 391 
Q 2381 391 2643 752 
Q 2906 1113 2906 1747 
Q 2906 2381 2643 2742 
Q 2381 3103 1925 3103 
Q 1469 3103 1208 2742 
Q 947 2381 947 1747 
z
" transform="scale(0.015625)"/>
      </defs>
      <use xlink:href="#DejaVuSans-52"/>
      <use xlink:href="#DejaVuSans-6f" x="64.982422"/>
      <use xlink:href="#DejaVuSans-75" x="126.164062"/>
      <use xlink:href="#DejaVuSans-6e" x="189.542969"/>
      <use xlink:href="#DejaVuSans-64" x="252.921875"/>
     </g>
    </g>
   </g>
   <g id="matplotlib.axis_2">
    <g id="ytick_1">
     <g id="line2d_7">
      <path d="M 53.31 258.716021 
L 410.43 258.716021 
" clip-path="url(#p2d3dbb7798)" style="fill: none; stroke: #cccccc; stroke-linecap: round"/>
     </g>
     <g id="text_8">
      <!-- 20 -->
      <g style="fill: #262626" transform="translate(29.8125 262.895162) scale(0.11 -0.11)">
       <use xlink:href="#DejaVuSans-32"/>
       <use xlink:href="#DejaVuSans-30" x="63.623047"/>
      </g>
     </g>
    </g>
    <g id="ytick_2">
     <g id="line2d_8">
      <path d="M 53.31 228.425306 
L 410.43 228.425306 
" clip-path="url(#p2d3dbb7798)" style="fill: none; stroke: #cccccc; stroke-linecap: round"/>
     </g>
     <g id="text_9">
      <!-- 30 -->
      <g style="fill: #262626" transform="translate(29.8125 232.604446) scale(0.11 -0.11)">
       <defs>
        <path id="DejaVuSans-33" d="M 2597 2516 
Q 3050 2419 3304 2112 
Q 3559 1806 3559 1356 
Q 3559 666 3084 287 
Q 2609 -91 1734 -91 
Q 1441 -91 1130 -33 
Q 819 25 488 141 
L 488 750 
Q 750 597 1062 519 
Q 1375 441 1716 441 
Q 2309 441 2620 675 
Q 2931 909 2931 1356 
Q 2931 1769 2642 2001 
Q 2353 2234 1838 2234 
L 1294 2234 
L 1294 2753 
L 1863 2753 
Q 2328 2753 2575 2939 
Q 2822 3125 2822 3475 
Q 2822 3834 2567 4026 
Q 2313 4219 1838 4219 
Q 1578 4219 1281 4162 
Q 984 4106 628 3988 
L 628 4550 
Q 988 4650 1302 4700 
Q 1616 4750 1894 4750 
Q 2613 4750 3031 4423 
Q 3450 4097 3450 3541 
Q 3450 3153 3228 2886 
Q 3006 2619 2597 2516 
z
" transform="scale(0.015625)"/>
       </defs>
       <use xlink:href="#DejaVuSans-33"/>
       <use xlink:href="#DejaVuSans-30" x="63.623047"/>
      </g>
     </g>
    </g>
    <g id="ytick_3">
     <g id="line2d_9">
      <path d="M 53.31 198.134591 
L 410.43 198.134591 
" clip-path="url(#p2d3dbb7798)" style="fill: none; stroke: #cccccc; stroke-linecap: round"/>
     </g>
     <g id="text_10">
      <!-- 40 -->
      <g style="fill: #262626" transform="translate(29.8125 202.313731) scale(0.11 -0.11)">
       <use xlink:href="#DejaVuSans-34"/>
       <use xlink:href="#DejaVuSans-30" x="63.623047"/>
      </g>
     </g>
    </g>
    <g id="ytick_4">
     <g id="line2d_10">
      <path d="M 53.31 167.843876 
L 410.43 167.843876 
" clip-path="url(#p2d3dbb7798)" style="fill: none; stroke: #cccccc; stroke-linecap: round"/>
     </g>
     <g id="text_11">
      <!-- 50 -->
      <g style="fill: #262626" transform="translate(29.8125 172.023016) scale(0.11 -0.11)">
       <defs>
        <path id="DejaVuSans-35" d="M 691 4666 
L 3169 4666 
L 3169 4134 
L 1269 4134 
L 1269 2991 
Q 1406 3038 1543 3061 
Q 1681 3084 1819 3084 
Q 2600 3084 3056 2656 
Q 3513 2228 3513 1497 
Q 3513 744 3044 326 
Q 2575 -91 1722 -91 
Q 1428 -91 1123 -41 
Q 819 9 494 109 
L 494 744 
Q 775 591 1075 516 
Q 1375 441 1709 441 
Q 2250 441 2565 725 
Q 2881 1009 2881 1497 
Q 2881 1984 2565 2268 
Q 2250 2553 1709 2553 
Q 1456 2553 1204 2497 
Q 953 2441 691 2322 
L 691 4666 
z
" transform="scale(0.015625)"/>
       </defs>
       <use xlink:href="#DejaVuSans-35"/>
       <use xlink:href="#DejaVuSans-30" x="63.623047"/>
      </g>
     </g>
    </g>
    <g id="ytick_5">
     <g id="line2d_11">
      <path d="M 53.31 137.55316 
L 410.43 137.55316 
" clip-path="url(#p2d3dbb7798)" style="fill: none; stroke: #cccccc; stroke-linecap: round"/>
     </g>
     <g id="text_12">
      <!-- 60 -->
      <g style="fill: #262626" transform="translate(29.8125 141.732301) scale(0.11 -0.11)">
       <use xlink:href="#DejaVuSans-36"/>
       <use xlink:href="#DejaVuSans-30" x="63.623047"/>
      </g>
     </g>
    </g>
    <g id="ytick_6">
     <g id="line2d_12">
      <path d="M 53.31 107.262445 
L 410.43 107.262445 
" clip-path="url(#p2d3dbb7798)" style="fill: none; stroke: #cccccc; stroke-linecap: round"/>
     </g>
     <g id="text_13">
      <!-- 70 -->
      <g style="fill: #262626" transform="translate(29.8125 111.441586) scale(0.11 -0.11)">
       <defs>
        <path id="DejaVuSans-37" d="M 525 4666 
L 3525 4666 
L 3525 4397 
L 1831 0 
L 1172 0 
L 2766 4134 
L 525 4134 
L 525 4666 
z
" transform="scale(0.015625)"/>
       </defs>
       <use xlink:href="#DejaVuSans-37"/>
       <use xlink:href="#DejaVuSans-30" x="63.623047"/>
      </g>
     </g>
    </g>
    <g id="ytick_7">
     <g id="line2d_13">
      <path d="M 53.31 76.97173 
L 410.43 76.97173 
" clip-path="url(#p2d3dbb7798)" style="fill: none; stroke: #cccccc; stroke-linecap: round"/>
     </g>
     <g id="text_14">
      <!-- 80 -->
      <g style="fill: #262626" transform="translate(29.8125 81.150871) scale(0.11 -0.11)">
       <use xlink:href="#DejaVuSans-38"/>
       <use xlink:href="#DejaVuSans-30" x="63.623047"/>
      </g>
     </g>
    </g>
    <g id="ytick_8">
     <g id="line2d_14">
      <path d="M 53.31 46.681015 
L 410.43 46.681015 
" clip-path="url(#p2d3dbb7798)" style="fill: none; stroke: #cccccc; stroke-linecap: round"/>
     </g>
     <g id="text_15">
      <!-- 90 -->
      <g style="fill: #262626" transform="translate(29.8125 50.860156) scale(0.11 -0.11)">
       <defs>
        <path id="DejaVuSans-39" d="M 703 97 
L 703 672 
Q 941 559 1184 500 
Q 1428 441 1663 441 
Q 2288 441 2617 861 
Q 2947 1281 2994 2138 
Q 2813 1869 2534 1725 
Q 2256 1581 1919 1581 
Q 1219 1581 811 2004 
Q 403 2428 403 3163 
Q 403 3881 828 4315 
Q 1253 4750 1959 4750 
Q 2769 4750 3195 4129 
Q 3622 3509 3622 2328 
Q 3622 1225 3098 567 
Q 2575 -91 1691 -91 
Q 1453 -91 1209 -44 
Q 966 3 703 97 
z
M 1959 2075 
Q 2384 2075 2632 2365 
Q 2881 2656 2881 3163 
Q 2881 3666 2632 3958 
Q 2384 4250 1959 4250 
Q 1534 4250 1286 3958 
Q 1038 3666 1038 3163 
Q 1038 2656 1286 2365 
Q 1534 2075 1959 2075 
z
" transform="scale(0.015625)"/>
       </defs>
       <use xlink:href="#DejaVuSans-39"/>
       <use xlink:href="#DejaVuSans-30" x="63.623047"/>
      </g>
     </g>
    </g>
    <g id="ytick_9">
     <g id="line2d_15">
      <path d="M 53.31 16.3903 
L 410.43 16.3903 
" clip-path="url(#p2d3dbb7798)" style="fill: none; stroke: #cccccc; stroke-linecap: round"/>
     </g>
     <g id="text_16">
      <!-- 100 -->
      <g style="fill: #262626" transform="translate(22.81375 20.56944) scale(0.11 -0.11)">
       <use xlink:href="#DejaVuSans-31"/>
       <use xlink:href="#DejaVuSans-30" x="63.623047"/>
       <use xlink:href="#DejaVuSans-30" x="127.246094"/>
      </g>
     </g>
    </g>
    <g id="text_17">
     <!-- Accuracy (%) -->
     <g style="fill: #262626" transform="translate(16.318125 179.939437) rotate(-90) scale(0.12 -0.12)">
      <defs>
       <path id="DejaVuSans-41" d="M 2188 4044 
L 1331 1722 
L 3047 1722 
L 2188 4044 
z
M 1831 4666 
L 2547 4666 
L 4325 0 
L 3669 0 
L 3244 1197 
L 1141 1197 
L 716 0 
L 50 0 
L 1831 4666 
z
" transform="scale(0.015625)"/>
       <path id="DejaVuSans-63" d="M 3122 3366 
L 3122 2828 
Q 2878 2963 2633 3030 
Q 2388 3097 2138 3097 
Q 1578 3097 1268 2742 
Q 959 2388 959 1747 
Q 959 1106 1268 751 
Q 1578 397 2138 397 
Q 2388 397 2633 464 
Q 2878 531 3122 666 
L 3122 134 
Q 2881 22 2623 -34 
Q 2366 -91 2075 -91 
Q 1284 -91 818 406 
Q 353 903 353 1747 
Q 353 2603 823 3093 
Q 1294 3584 2113 3584 
Q 2378 3584 2631 3529 
Q 2884 3475 3122 3366 
z
" transform="scale(0.015625)"/>
       <path id="DejaVuSans-72" d="M 2631 2963 
Q 2534 3019 2420 3045 
Q 2306 3072 2169 3072 
Q 1681 3072 1420 2755 
Q 1159 2438 1159 1844 
L 1159 0 
L 581 0 
L 581 3500 
L 1159 3500 
L 1159 2956 
Q 1341 3275 1631 3429 
Q 1922 3584 2338 3584 
Q 2397 3584 2469 3576 
Q 2541 3569 2628 3553 
L 2631 2963 
z
" transform="scale(0.015625)"/>
       <path id="DejaVuSans-61" d="M 2194 1759 
Q 1497 1759 1228 1600 
Q 959 1441 959 1056 
Q 959 750 1161 570 
Q 1363 391 1709 391 
Q 2188 391 2477 730 
Q 2766 1069 2766 1631 
L 2766 1759 
L 2194 1759 
z
M 3341 1997 
L 3341 0 
L 2766 0 
L 2766 531 
Q 2569 213 2275 61 
Q 1981 -91 1556 -91 
Q 1019 -91 701 211 
Q 384 513 384 1019 
Q 384 1609 779 1909 
Q 1175 2209 1959 2209 
L 2766 2209 
L 2766 2266 
Q 2766 2663 2505 2880 
Q 2244 3097 1772 3097 
Q 1472 3097 1187 3025 
Q 903 2953 641 2809 
L 641 3341 
Q 956 3463 1253 3523 
Q 1550 3584 1831 3584 
Q 2591 3584 2966 3190 
Q 3341 2797 3341 1997 
z
" transform="scale(0.015625)"/>
       <path id="DejaVuSans-79" d="M 2059 -325 
Q 1816 -950 1584 -1140 
Q 1353 -1331 966 -1331 
L 506 -1331 
L 506 -850 
L 844 -850 
Q 1081 -850 1212 -737 
Q 1344 -625 1503 -206 
L 1606 56 
L 191 3500 
L 800 3500 
L 1894 763 
L 2988 3500 
L 3597 3500 
L 2059 -325 
z
" transform="scale(0.015625)"/>
       <path id="DejaVuSans-20" transform="scale(0.015625)"/>
       <path id="DejaVuSans-28" d="M 1984 4856 
Q 1566 4138 1362 3434 
Q 1159 2731 1159 2009 
Q 1159 1288 1364 580 
Q 1569 -128 1984 -844 
L 1484 -844 
Q 1016 -109 783 600 
Q 550 1309 550 2009 
Q 550 2706 781 3412 
Q 1013 4119 1484 4856 
L 1984 4856 
z
" transform="scale(0.015625)"/>
       <path id="DejaVuSans-25" d="M 4653 2053 
Q 4381 2053 4226 1822 
Q 4072 1591 4072 1178 
Q 4072 772 4226 539 
Q 4381 306 4653 306 
Q 4919 306 5073 539 
Q 5228 772 5228 1178 
Q 5228 1588 5073 1820 
Q 4919 2053 4653 2053 
z
M 4653 2450 
Q 5147 2450 5437 2106 
Q 5728 1763 5728 1178 
Q 5728 594 5436 251 
Q 5144 -91 4653 -91 
Q 4153 -91 3862 251 
Q 3572 594 3572 1178 
Q 3572 1766 3864 2108 
Q 4156 2450 4653 2450 
z
M 1428 4353 
Q 1159 4353 1004 4120 
Q 850 3888 850 3481 
Q 850 3069 1003 2837 
Q 1156 2606 1428 2606 
Q 1700 2606 1854 2837 
Q 2009 3069 2009 3481 
Q 2009 3884 1853 4118 
Q 1697 4353 1428 4353 
z
M 4250 4750 
L 4750 4750 
L 1831 -91 
L 1331 -91 
L 4250 4750 
z
M 1428 4750 
Q 1922 4750 2215 4408 
Q 2509 4066 2509 3481 
Q 2509 2891 2217 2550 
Q 1925 2209 1428 2209 
Q 931 2209 642 2551 
Q 353 2894 353 3481 
Q 353 4063 643 4406 
Q 934 4750 1428 4750 
z
" transform="scale(0.015625)"/>
       <path id="DejaVuSans-29" d="M 513 4856 
L 1013 4856 
Q 1481 4119 1714 3412 
Q 1947 2706 1947 2009 
Q 1947 1309 1714 600 
Q 1481 -109 1013 -844 
L 513 -844 
Q 928 -128 1133 580 
Q 1338 1288 1338 2009 
Q 1338 2731 1133 3434 
Q 928 4138 513 4856 
z
" transform="scale(0.015625)"/>
      </defs>
      <use xlink:href="#DejaVuSans-41"/>
      <use xlink:href="#DejaVuSans-63" x="66.658203"/>
      <use xlink:href="#DejaVuSans-63" x="121.638672"/>
      <use xlink:href="#DejaVuSans-75" x="176.619141"/>
      <use xlink:href="#DejaVuSans-72" x="239.998047"/>
      <use xlink:href="#DejaVuSans-61" x="281.111328"/>
      <use xlink:href="#DejaVuSans-63" x="342.390625"/>
      <use xlink:href="#DejaVuSans-79" x="397.371094"/>
      <use xlink:href="#DejaVuSans-20" x="456.550781"/>
      <use xlink:href="#DejaVuSans-28" x="488.337891"/>
      <use xlink:href="#DejaVuSans-25" x="527.351562"/>
      <use xlink:href="#DejaVuSans-29" x="622.371094"/>
     </g>
    </g>
   </g>
   <g id="PolyCollection_1">
    <defs>
     <path id="ma61d6c18a0" d="M 69.542727 -164.857274 
L 69.542727 -100.309058 
L 72.822066 -158.481893 
L 76.101405 -199.915315 
L 79.380744 -215.572673 
L 82.660083 -240.341159 
L 85.939421 -241.74895 
L 89.21876 -242.279196 
L 92.498099 -254.510408 
L 95.777438 -259.76865 
L 99.056777 -269.565443 
L 102.336116 -263.531747 
L 105.615455 -265.599841 
L 108.894793 -275.999439 
L 112.174132 -283.214528 
L 115.453471 -279.118675 
L 118.73281 -280.485047 
L 122.012149 -287.20404 
L 125.291488 -287.70296 
L 128.570826 -288.186983 
L 131.850165 -272.705041 
L 135.129504 -282.120517 
L 138.408843 -283.999474 
L 141.688182 -286.133316 
L 144.967521 -287.258717 
L 148.24686 -284.682389 
L 151.526198 -277.456155 
L 154.805537 -282.562133 
L 158.084876 -282.292185 
L 161.364215 -278.640125 
L 164.643554 -257.8644 
L 167.922893 -261.701016 
L 171.202231 -262.281958 
L 174.48157 -288.323558 
L 177.760909 -290.003183 
L 181.040248 -287.221013 
L 184.319587 -283.555242 
L 187.598926 -282.778636 
L 190.878264 -286.542315 
L 194.157603 -288.729329 
L 197.436942 -289.198776 
L 200.716281 -291.695052 
L 203.99562 -290.909104 
L 207.274959 -291.747494 
L 210.554298 -291.496277 
L 213.833636 -284.267949 
L 217.112975 -283.112025 
L 220.392314 -282.361263 
L 223.671653 -286.991195 
L 226.950992 -284.17805 
L 230.230331 -288.248333 
L 233.509669 -291.017352 
L 236.789008 -290.342096 
L 240.068347 -286.630123 
L 243.347686 -289.161949 
L 246.627025 -290.998476 
L 249.906364 -289.229189 
L 253.185702 -290.055614 
L 256.465041 -290.632363 
L 259.74438 -283.188032 
L 263.023719 -289.649086 
L 266.303058 -291.344345 
L 269.582397 -291.764211 
L 272.861736 -289.093162 
L 276.141074 -291.78956 
L 279.420413 -293.257245 
L 282.699752 -294.173834 
L 285.979091 -293.27777 
L 289.25843 -292.960368 
L 292.537769 -293.910072 
L 295.817107 -287.24216 
L 299.096446 -281.991277 
L 302.375785 -284.688915 
L 305.655124 -286.0435 
L 308.934463 -287.765489 
L 312.213802 -287.382219 
L 315.49314 -288.484613 
L 318.772479 -283.855502 
L 322.051818 -285.063028 
L 325.331157 -284.399158 
L 328.610496 -286.189369 
L 331.889835 -284.249817 
L 335.169174 -284.079638 
L 338.448512 -286.512706 
L 341.727851 -285.498606 
L 345.00719 -287.981092 
L 348.286529 -287.22486 
L 351.565868 -287.826661 
L 354.845207 -279.593763 
L 358.124545 -287.248999 
L 361.403884 -278.01513 
L 364.683223 -286.858944 
L 367.962562 -289.749704 
L 371.241901 -288.920432 
L 374.52124 -287.625504 
L 377.800579 -285.220006 
L 381.079917 -289.840556 
L 384.359256 -290.881892 
L 387.638595 -291.642251 
L 390.917934 -289.370228 
L 394.197273 -291.154818 
L 394.197273 -295.005597 
L 394.197273 -295.005597 
L 390.917934 -294.229835 
L 387.638595 -295.163654 
L 384.359256 -294.932161 
L 381.079917 -294.850251 
L 377.800579 -293.167448 
L 374.52124 -293.936137 
L 371.241901 -293.963747 
L 367.962562 -294.464402 
L 364.683223 -293.198129 
L 361.403884 -290.241243 
L 358.124545 -293.815498 
L 354.845207 -292.006609 
L 351.565868 -293.98425 
L 348.286529 -294.297725 
L 345.00719 -293.773091 
L 341.727851 -293.597783 
L 338.448512 -293.691573 
L 335.169174 -292.021667 
L 331.889835 -291.836852 
L 328.610496 -293.214196 
L 325.331157 -291.94976 
L 322.051818 -292.688856 
L 318.772479 -291.586068 
L 315.49314 -293.269557 
L 312.213802 -293.311405 
L 308.934463 -293.693572 
L 305.655124 -293.236651 
L 302.375785 -291.847755 
L 299.096446 -291.748593 
L 295.817107 -293.286757 
L 292.537769 -296.723105 
L 289.25843 -296.572096 
L 285.979091 -296.931975 
L 282.699752 -296.975687 
L 279.420413 -296.666656 
L 276.141074 -296.491385 
L 272.861736 -296.545085 
L 269.582397 -296.346259 
L 266.303058 -296.497642 
L 263.023719 -296.206998 
L 259.74438 -296.014921 
L 256.465041 -296.113228 
L 253.185702 -296.224589 
L 249.906364 -296.617337 
L 246.627025 -296.294933 
L 243.347686 -296.288394 
L 240.068347 -296.15853 
L 236.789008 -295.895928 
L 233.509669 -295.978758 
L 230.230331 -296.165788 
L 226.950992 -295.485373 
L 223.671653 -294.960319 
L 220.392314 -295.405217 
L 217.112975 -295.38573 
L 213.833636 -296.278326 
L 210.554298 -295.523685 
L 207.274959 -295.794908 
L 203.99562 -295.179973 
L 200.716281 -295.665734 
L 197.436942 -295.010662 
L 194.157603 -295.223995 
L 190.878264 -295.168361 
L 187.598926 -295.201455 
L 184.319587 -295.426008 
L 181.040248 -295.33804 
L 177.760909 -294.931165 
L 174.48157 -294.889478 
L 171.202231 -291.908431 
L 167.922893 -292.178303 
L 164.643554 -291.245015 
L 161.364215 -293.555903 
L 158.084876 -293.975031 
L 154.805537 -292.872673 
L 151.526198 -293.479007 
L 148.24686 -293.291219 
L 144.967521 -293.516287 
L 141.688182 -293.191428 
L 138.408843 -292.842951 
L 135.129504 -293.591058 
L 131.850165 -293.745248 
L 128.570826 -293.762208 
L 125.291488 -293.500401 
L 122.012149 -292.731795 
L 118.73281 -291.247246 
L 115.453471 -291.619931 
L 112.174132 -291.932392 
L 108.894793 -291.901439 
L 105.615455 -290.198247 
L 102.336116 -289.296616 
L 99.056777 -290.204154 
L 95.777438 -284.911228 
L 92.498099 -285.806928 
L 89.21876 -282.007584 
L 85.939421 -280.401585 
L 82.660083 -275.258237 
L 79.380744 -265.012894 
L 76.101405 -253.226805 
L 72.822066 -224.740619 
L 69.542727 -164.857274 
z
" style="stroke: #4c72b0; stroke-opacity: 0.2"/>
    </defs>
    <g clip-path="url(#p2d3dbb7798)">
     <use xlink:href="#ma61d6c18a0" x="0" y="316.271687" style="fill: #4c72b0; fill-opacity: 0.2; stroke: #4c72b0; stroke-opacity: 0.2"/>
    </g>
   </g>
   <g id="PolyCollection_2">
    <defs>
     <path id="m94d7595d44" d="M 69.542727 -114.468263 
L 69.542727 -60.593943 
L 72.822066 -103.432885 
L 76.101405 -133.532504 
L 79.380744 -139.813245 
L 82.660083 -114.538901 
L 85.939421 -164.508704 
L 89.21876 -145.695902 
L 92.498099 -185.632339 
L 95.777438 -198.94907 
L 99.056777 -220.032113 
L 102.336116 -178.959254 
L 105.615455 -190.73503 
L 108.894793 -226.03841 
L 112.174132 -241.686087 
L 115.453471 -219.577401 
L 118.73281 -206.386104 
L 122.012149 -247.43075 
L 125.291488 -239.635763 
L 128.570826 -226.29621 
L 131.850165 -220.734086 
L 135.129504 -237.54538 
L 138.408843 -245.658876 
L 141.688182 -225.125328 
L 144.967521 -230.004314 
L 148.24686 -239.915818 
L 151.526198 -256.130499 
L 154.805537 -242.170823 
L 158.084876 -218.089283 
L 161.364215 -227.638316 
L 164.643554 -214.243103 
L 167.922893 -258.439826 
L 171.202231 -262.607998 
L 174.48157 -240.062623 
L 177.760909 -251.763016 
L 181.040248 -265.165022 
L 184.319587 -259.431858 
L 187.598926 -242.086931 
L 190.878264 -270.616155 
L 194.157603 -251.777445 
L 197.436942 -261.421359 
L 200.716281 -269.864043 
L 203.99562 -266.29544 
L 207.274959 -268.060913 
L 210.554298 -263.045156 
L 213.833636 -268.583405 
L 217.112975 -229.933287 
L 220.392314 -250.795083 
L 223.671653 -240.369253 
L 226.950992 -253.696355 
L 230.230331 -274.017059 
L 233.509669 -267.290032 
L 236.789008 -272.7484 
L 240.068347 -268.550949 
L 243.347686 -270.834981 
L 246.627025 -271.894598 
L 249.906364 -245.842998 
L 253.185702 -252.988196 
L 256.465041 -239.605793 
L 259.74438 -274.267825 
L 263.023719 -258.897547 
L 266.303058 -242.836885 
L 269.582397 -275.57436 
L 272.861736 -274.163826 
L 276.141074 -268.719841 
L 279.420413 -256.65589 
L 282.699752 -272.651431 
L 285.979091 -261.804641 
L 289.25843 -270.241363 
L 292.537769 -260.509093 
L 295.817107 -274.188764 
L 299.096446 -260.314374 
L 302.375785 -274.182156 
L 305.655124 -271.739334 
L 308.934463 -278.184591 
L 312.213802 -279.074507 
L 315.49314 -273.947314 
L 318.772479 -268.845868 
L 322.051818 -277.911289 
L 325.331157 -275.256078 
L 328.610496 -276.821207 
L 331.889835 -274.51231 
L 335.169174 -269.383069 
L 338.448512 -268.462268 
L 341.727851 -280.416334 
L 345.00719 -280.786746 
L 348.286529 -278.637233 
L 351.565868 -280.72836 
L 354.845207 -266.863928 
L 358.124545 -280.463527 
L 361.403884 -259.568944 
L 364.683223 -277.884833 
L 367.962562 -281.105044 
L 371.241901 -279.594688 
L 374.52124 -279.203509 
L 377.800579 -258.984373 
L 381.079917 -271.670509 
L 384.359256 -282.391161 
L 387.638595 -285.511787 
L 390.917934 -274.877695 
L 394.197273 -281.776539 
L 394.197273 -287.45965 
L 394.197273 -287.45965 
L 390.917934 -285.588523 
L 387.638595 -289.037322 
L 384.359256 -287.935527 
L 381.079917 -285.415777 
L 377.800579 -278.72304 
L 374.52124 -285.344987 
L 371.241901 -286.432132 
L 367.962562 -286.507358 
L 364.683223 -285.439596 
L 361.403884 -273.923558 
L 358.124545 -286.984973 
L 354.845207 -280.884412 
L 351.565868 -286.514699 
L 348.286529 -286.032597 
L 345.00719 -286.012668 
L 341.727851 -286.661527 
L 338.448512 -281.095496 
L 335.169174 -279.734208 
L 331.889835 -282.096005 
L 328.610496 -284.834699 
L 325.331157 -282.729603 
L 322.051818 -284.715271 
L 318.772479 -280.319113 
L 315.49314 -283.383897 
L 312.213802 -284.859694 
L 308.934463 -284.316649 
L 305.655124 -281.752521 
L 302.375785 -281.727261 
L 299.096446 -275.453851 
L 295.817107 -281.764474 
L 292.537769 -279.184474 
L 289.25843 -282.93305 
L 285.979091 -279.637766 
L 282.699752 -283.667593 
L 279.420413 -278.986595 
L 276.141074 -280.62611 
L 272.861736 -283.225879 
L 269.582397 -284.109159 
L 266.303058 -274.918629 
L 263.023719 -278.868665 
L 259.74438 -284.037142 
L 256.465041 -273.453784 
L 253.185702 -277.986218 
L 249.906364 -274.002195 
L 246.627025 -283.47286 
L 243.347686 -282.557986 
L 240.068347 -280.773695 
L 236.789008 -282.034362 
L 233.509669 -278.862158 
L 230.230331 -281.988503 
L 226.950992 -274.450702 
L 223.671653 -270.767426 
L 220.392314 -274.096669 
L 217.112975 -265.926212 
L 213.833636 -278.111204 
L 210.554298 -277.643965 
L 207.274959 -278.945741 
L 203.99562 -276.132382 
L 200.716281 -280.153156 
L 197.436942 -278.085623 
L 194.157603 -275.145481 
L 190.878264 -279.204594 
L 187.598926 -269.610622 
L 184.319587 -273.739143 
L 181.040248 -277.533678 
L 177.760909 -273.559303 
L 174.48157 -265.804513 
L 171.202231 -274.425049 
L 167.922893 -271.153369 
L 164.643554 -252.61885 
L 161.364215 -265.645577 
L 158.084876 -258.286181 
L 154.805537 -268.614722 
L 151.526198 -270.192616 
L 148.24686 -266.194547 
L 144.967521 -264.424377 
L 141.688182 -262.172203 
L 138.408843 -265.952204 
L 135.129504 -259.89315 
L 131.850165 -256.500154 
L 128.570826 -260.959557 
L 125.291488 -262.53043 
L 122.012149 -262.644741 
L 118.73281 -245.551877 
L 115.453471 -256.852388 
L 112.174132 -262.604058 
L 108.894793 -253.954278 
L 105.615455 -233.102871 
L 102.336116 -226.778143 
L 99.056777 -252.001328 
L 95.777438 -232.547447 
L 92.498099 -227.212771 
L 89.21876 -199.923645 
L 85.939421 -213.14811 
L 82.660083 -173.992143 
L 79.380744 -195.160161 
L 76.101405 -190.124823 
L 72.822066 -157.454082 
L 69.542727 -114.468263 
z
" style="stroke: #dd8452; stroke-opacity: 0.2"/>
    </defs>
    <g clip-path="url(#p2d3dbb7798)">
     <use xlink:href="#m94d7595d44" x="0" y="316.271687" style="fill: #dd8452; fill-opacity: 0.2; stroke: #dd8452; stroke-opacity: 0.2"/>
    </g>
   </g>
   <g id="PolyCollection_3">
    <defs>
     <path id="m2cb5c3dcc5" d="M 69.542727 -122.616406 
L 69.542727 -55.055687 
L 72.822066 -120.624156 
L 76.101405 -146.160061 
L 79.380744 -157.863383 
L 82.660083 -183.521849 
L 85.939421 -199.538933 
L 89.21876 -202.633402 
L 92.498099 -216.882579 
L 95.777438 -227.855397 
L 99.056777 -228.981135 
L 102.336116 -231.537993 
L 105.615455 -240.367946 
L 108.894793 -233.597627 
L 112.174132 -240.849576 
L 115.453471 -245.071319 
L 118.73281 -244.066315 
L 122.012149 -253.331261 
L 125.291488 -250.974334 
L 128.570826 -250.57718 
L 131.850165 -253.914518 
L 135.129504 -254.273364 
L 138.408843 -256.472356 
L 141.688182 -257.533301 
L 144.967521 -258.769404 
L 148.24686 -256.642295 
L 151.526198 -259.136263 
L 154.805537 -258.632315 
L 158.084876 -258.960039 
L 161.364215 -260.244935 
L 164.643554 -264.44092 
L 167.922893 -266.879399 
L 171.202231 -263.412667 
L 174.48157 -265.753305 
L 177.760909 -266.595971 
L 181.040248 -265.317227 
L 184.319587 -273.571451 
L 187.598926 -275.331504 
L 190.878264 -275.229968 
L 194.157603 -273.087462 
L 197.436942 -274.121323 
L 200.716281 -274.077797 
L 203.99562 -272.550248 
L 207.274959 -275.436758 
L 210.554298 -275.868289 
L 213.833636 -278.190527 
L 217.112975 -270.673209 
L 220.392314 -280.660321 
L 223.671653 -279.899342 
L 226.950992 -278.329169 
L 230.230331 -279.466996 
L 233.509669 -279.15547 
L 236.789008 -280.738671 
L 240.068347 -277.810711 
L 243.347686 -277.770617 
L 246.627025 -278.348726 
L 249.906364 -278.682363 
L 253.185702 -283.534155 
L 256.465041 -282.651254 
L 259.74438 -284.719532 
L 263.023719 -286.848775 
L 266.303058 -286.436702 
L 269.582397 -284.201168 
L 272.861736 -284.255568 
L 276.141074 -282.889934 
L 279.420413 -286.742156 
L 282.699752 -287.653734 
L 285.979091 -288.342479 
L 289.25843 -288.296754 
L 292.537769 -288.000552 
L 295.817107 -177.349668 
L 299.096446 -169.875197 
L 302.375785 -183.807606 
L 305.655124 -171.241851 
L 308.934463 -183.969301 
L 312.213802 -183.839923 
L 315.49314 -180.812439 
L 318.772479 -175.68818 
L 322.051818 -177.950629 
L 325.331157 -171.560682 
L 328.610496 -167.981392 
L 331.889835 -189.269585 
L 335.169174 -178.326173 
L 338.448512 -172.192239 
L 341.727851 -169.967757 
L 345.00719 -177.414851 
L 348.286529 -178.375433 
L 351.565868 -175.296367 
L 354.845207 -186.523702 
L 358.124545 -177.536623 
L 361.403884 -179.174453 
L 364.683223 -178.509896 
L 367.962562 -183.350329 
L 371.241901 -189.176895 
L 374.52124 -178.135043 
L 377.800579 -182.096093 
L 381.079917 -175.88204 
L 384.359256 -178.324751 
L 387.638595 -174.633798 
L 390.917934 -173.318676 
L 394.197273 -181.055721 
L 394.197273 -248.737112 
L 394.197273 -248.737112 
L 390.917934 -245.898504 
L 387.638595 -244.45829 
L 384.359256 -245.687613 
L 381.079917 -244.436424 
L 377.800579 -248.965952 
L 374.52124 -245.632238 
L 371.241901 -254.97034 
L 367.962562 -250.851901 
L 364.683223 -248.161742 
L 361.403884 -249.594663 
L 358.124545 -246.3161 
L 354.845207 -253.724023 
L 351.565868 -245.081083 
L 348.286529 -246.658323 
L 345.00719 -246.452939 
L 341.727851 -241.359053 
L 338.448512 -240.406595 
L 335.169174 -243.294067 
L 331.889835 -249.37149 
L 328.610496 -239.326602 
L 325.331157 -243.381235 
L 322.051818 -248.054749 
L 318.772479 -245.086477 
L 315.49314 -247.665398 
L 312.213802 -247.208321 
L 308.934463 -248.304255 
L 305.655124 -242.323293 
L 302.375785 -246.559579 
L 299.096446 -238.655263 
L 295.817107 -245.249697 
L 292.537769 -294.680441 
L 289.25843 -295.322731 
L 285.979091 -295.313899 
L 282.699752 -295.039876 
L 279.420413 -294.852575 
L 276.141074 -294.4878 
L 272.861736 -294.94993 
L 269.582397 -295.293957 
L 266.303058 -295.299037 
L 263.023719 -295.329259 
L 259.74438 -295.392076 
L 256.465041 -295.088367 
L 253.185702 -295.069758 
L 249.906364 -295.108608 
L 246.627025 -295.052265 
L 243.347686 -295.172025 
L 240.068347 -295.15876 
L 236.789008 -294.862521 
L 233.509669 -294.377348 
L 230.230331 -294.43008 
L 226.950992 -294.544895 
L 223.671653 -294.285077 
L 220.392314 -294.001911 
L 217.112975 -293.918736 
L 213.833636 -293.405793 
L 210.554298 -293.535224 
L 207.274959 -293.165718 
L 203.99562 -292.892748 
L 200.716281 -293.12985 
L 197.436942 -292.868095 
L 194.157603 -293.160791 
L 190.878264 -293.097631 
L 187.598926 -292.692571 
L 184.319587 -292.784916 
L 181.040248 -292.686626 
L 177.760909 -292.105089 
L 174.48157 -292.511835 
L 171.202231 -291.629069 
L 167.922893 -292.349312 
L 164.643554 -291.048772 
L 161.364215 -291.597542 
L 158.084876 -291.239407 
L 154.805537 -291.08842 
L 151.526198 -290.344138 
L 148.24686 -289.786748 
L 144.967521 -290.31578 
L 141.688182 -289.868371 
L 138.408843 -289.281946 
L 135.129504 -287.769472 
L 131.850165 -288.265532 
L 128.570826 -285.576977 
L 125.291488 -286.308895 
L 122.012149 -286.761053 
L 118.73281 -283.990537 
L 115.453471 -283.841773 
L 112.174132 -282.116248 
L 108.894793 -281.444557 
L 105.615455 -280.588207 
L 102.336116 -279.539293 
L 99.056777 -277.808306 
L 95.777438 -272.822241 
L 92.498099 -267.994188 
L 89.21876 -260.1515 
L 85.939421 -255.854716 
L 82.660083 -243.635875 
L 79.380744 -226.774725 
L 76.101405 -214.845761 
L 72.822066 -187.960595 
L 69.542727 -122.616406 
z
" style="stroke: #55a868; stroke-opacity: 0.2"/>
    </defs>
    <g clip-path="url(#p2d3dbb7798)">
     <use xlink:href="#m2cb5c3dcc5" x="0" y="316.271687" style="fill: #55a868; fill-opacity: 0.2; stroke: #55a868; stroke-opacity: 0.2"/>
    </g>
   </g>
   <g id="PolyCollection_4">
    <defs>
     <path id="m4340466fb9" d="M 69.542727 -119.189564 
L 69.542727 -58.449303 
L 72.822066 -74.209944 
L 76.101405 -109.566516 
L 79.380744 -133.7999 
L 82.660083 -156.347025 
L 85.939421 -175.459154 
L 89.21876 -200.842232 
L 92.498099 -203.26977 
L 95.777438 -212.373803 
L 99.056777 -223.988837 
L 102.336116 -222.944711 
L 105.615455 -226.548725 
L 108.894793 -227.782239 
L 112.174132 -235.615821 
L 115.453471 -243.037016 
L 118.73281 -244.490243 
L 122.012149 -247.097668 
L 125.291488 -248.829514 
L 128.570826 -251.557547 
L 131.850165 -252.969884 
L 135.129504 -253.60228 
L 138.408843 -259.534908 
L 141.688182 -260.763006 
L 144.967521 -261.608692 
L 148.24686 -262.381452 
L 151.526198 -263.83293 
L 154.805537 -265.451608 
L 158.084876 -267.559984 
L 161.364215 -268.684491 
L 164.643554 -269.17354 
L 167.922893 -268.651427 
L 171.202231 -270.629155 
L 174.48157 -270.311315 
L 177.760909 -270.756862 
L 181.040248 -272.43577 
L 184.319587 -272.455038 
L 187.598926 -271.113938 
L 190.878264 -271.77006 
L 194.157603 -273.457883 
L 197.436942 -273.273654 
L 200.716281 -274.183891 
L 203.99562 -275.187659 
L 207.274959 -275.046588 
L 210.554298 -274.190965 
L 213.833636 -278.064786 
L 217.112975 -279.518018 
L 220.392314 -278.697983 
L 223.671653 -277.561159 
L 226.950992 -278.927993 
L 230.230331 -279.275602 
L 233.509669 -278.655073 
L 236.789008 -280.26161 
L 240.068347 -279.614627 
L 243.347686 -278.5543 
L 246.627025 -278.850724 
L 249.906364 -280.412076 
L 253.185702 -281.39521 
L 256.465041 -281.586136 
L 259.74438 -281.306341 
L 263.023719 -281.974534 
L 266.303058 -281.075867 
L 269.582397 -282.698416 
L 272.861736 -283.140605 
L 276.141074 -283.694396 
L 279.420413 -282.648034 
L 282.699752 -283.479479 
L 285.979091 -284.423574 
L 289.25843 -284.84547 
L 292.537769 -285.658744 
L 295.817107 -171.187668 
L 299.096446 -177.655768 
L 302.375785 -179.44598 
L 305.655124 -176.976945 
L 308.934463 -168.326015 
L 312.213802 -170.811712 
L 315.49314 -169.12172 
L 318.772479 -173.164018 
L 322.051818 -172.97054 
L 325.331157 -186.895382 
L 328.610496 -173.685013 
L 331.889835 -177.71492 
L 335.169174 -180.324475 
L 338.448512 -182.261827 
L 341.727851 -174.376741 
L 345.00719 -178.989539 
L 348.286529 -181.037387 
L 351.565868 -180.202377 
L 354.845207 -169.812814 
L 358.124545 -181.634654 
L 361.403884 -183.277894 
L 364.683223 -181.852785 
L 367.962562 -179.747054 
L 371.241901 -172.115274 
L 374.52124 -180.234733 
L 377.800579 -167.885058 
L 381.079917 -180.981645 
L 384.359256 -171.126003 
L 387.638595 -174.590679 
L 390.917934 -182.682168 
L 394.197273 -181.329166 
L 394.197273 -248.573887 
L 394.197273 -248.573887 
L 390.917934 -248.492124 
L 387.638595 -244.631993 
L 384.359256 -242.917001 
L 381.079917 -247.393617 
L 377.800579 -242.498266 
L 374.52124 -251.275273 
L 371.241901 -243.330202 
L 367.962562 -248.084995 
L 364.683223 -250.218207 
L 361.403884 -250.002667 
L 358.124545 -247.164013 
L 354.845207 -242.185619 
L 351.565868 -248.329394 
L 348.286529 -247.433558 
L 345.00719 -245.638593 
L 341.727851 -244.493303 
L 338.448512 -249.432665 
L 335.169174 -247.351397 
L 331.889835 -245.318993 
L 328.610496 -244.451094 
L 325.331157 -253.240947 
L 322.051818 -244.211429 
L 318.772479 -241.771878 
L 315.49314 -242.145933 
L 312.213802 -245.059973 
L 308.934463 -237.699499 
L 305.655124 -248.125546 
L 302.375785 -248.167234 
L 299.096446 -243.778851 
L 295.817107 -242.630197 
L 292.537769 -295.623072 
L 289.25843 -295.255606 
L 285.979091 -295.396726 
L 282.699752 -295.189193 
L 279.420413 -295.004224 
L 276.141074 -294.766902 
L 272.861736 -295.000683 
L 269.582397 -295.127118 
L 266.303058 -295.137711 
L 263.023719 -294.953308 
L 259.74438 -294.80383 
L 256.465041 -295.006925 
L 253.185702 -294.711566 
L 249.906364 -294.755922 
L 246.627025 -294.537864 
L 243.347686 -294.381843 
L 240.068347 -294.281038 
L 236.789008 -294.381957 
L 233.509669 -294.391572 
L 230.230331 -294.071672 
L 226.950992 -294.18416 
L 223.671653 -294.081201 
L 220.392314 -293.801906 
L 217.112975 -293.98507 
L 213.833636 -293.645469 
L 210.554298 -293.524575 
L 207.274959 -293.386945 
L 203.99562 -293.215783 
L 200.716281 -292.888529 
L 197.436942 -292.579927 
L 194.157603 -293.013097 
L 190.878264 -292.168616 
L 187.598926 -292.322926 
L 184.319587 -291.921056 
L 181.040248 -291.748951 
L 177.760909 -291.986682 
L 174.48157 -291.008911 
L 171.202231 -290.684756 
L 167.922893 -290.960593 
L 164.643554 -291.067341 
L 161.364215 -290.965983 
L 158.084876 -290.415457 
L 154.805537 -290.162524 
L 151.526198 -288.267758 
L 148.24686 -288.085944 
L 144.967521 -287.42239 
L 141.688182 -287.579492 
L 138.408843 -286.340182 
L 135.129504 -284.3505 
L 131.850165 -282.767053 
L 128.570826 -282.103951 
L 125.291488 -281.715196 
L 122.012149 -279.610151 
L 118.73281 -278.470215 
L 115.453471 -277.215068 
L 112.174132 -274.20434 
L 108.894793 -272.092878 
L 105.615455 -270.935297 
L 102.336116 -269.354414 
L 99.056777 -265.563285 
L 95.777438 -260.469535 
L 92.498099 -251.542124 
L 89.21876 -248.310775 
L 85.939421 -231.679994 
L 82.660083 -213.816332 
L 79.380744 -191.519376 
L 76.101405 -162.854226 
L 72.822066 -130.533372 
L 69.542727 -119.189564 
z
" style="stroke: #c44e52; stroke-opacity: 0.2"/>
    </defs>
    <g clip-path="url(#p2d3dbb7798)">
     <use xlink:href="#m4340466fb9" x="0" y="316.271687" style="fill: #c44e52; fill-opacity: 0.2; stroke: #c44e52; stroke-opacity: 0.2"/>
    </g>
   </g>
   <g id="PolyCollection_5">
    <defs>
     <path id="m3cf96940c7" d="M 69.542727 -129.318917 
L 69.542727 -59.852596 
L 72.822066 -126.989819 
L 76.101405 -158.804279 
L 79.380744 -164.717015 
L 82.660083 -188.358853 
L 85.939421 -199.454487 
L 89.21876 -212.003852 
L 92.498099 -211.927096 
L 95.777438 -218.619795 
L 99.056777 -220.606766 
L 102.336116 -224.818442 
L 105.615455 -228.451079 
L 108.894793 -225.655302 
L 112.174132 -229.17971 
L 115.453471 -243.190726 
L 118.73281 -244.042584 
L 122.012149 -245.345696 
L 125.291488 -250.557924 
L 128.570826 -252.94934 
L 131.850165 -253.72015 
L 135.129504 -252.208498 
L 138.408843 -251.268369 
L 141.688182 -252.857372 
L 144.967521 -253.328404 
L 148.24686 -253.451208 
L 151.526198 -254.24921 
L 154.805537 -257.137032 
L 158.084876 -256.91661 
L 161.364215 -259.675795 
L 164.643554 -256.781216 
L 167.922893 -259.977124 
L 171.202231 -260.37451 
L 174.48157 -258.334367 
L 177.760909 -258.967999 
L 181.040248 -259.799911 
L 184.319587 -261.401456 
L 187.598926 -261.870935 
L 190.878264 -262.605631 
L 194.157603 -262.054141 
L 197.436942 -264.162591 
L 200.716281 -264.769389 
L 203.99562 -263.9068 
L 207.274959 -264.16247 
L 210.554298 -265.275455 
L 213.833636 -266.720221 
L 217.112975 -266.409842 
L 220.392314 -267.48641 
L 223.671653 -269.196455 
L 226.950992 -272.318403 
L 230.230331 -273.110715 
L 233.509669 -272.730804 
L 236.789008 -272.887528 
L 240.068347 -274.950707 
L 243.347686 -274.754567 
L 246.627025 -275.378361 
L 249.906364 -273.535184 
L 253.185702 -276.633235 
L 256.465041 -277.688882 
L 259.74438 -277.47462 
L 263.023719 -279.175027 
L 266.303058 -278.709083 
L 269.582397 -282.649205 
L 272.861736 -280.285563 
L 276.141074 -280.206745 
L 279.420413 -281.129755 
L 282.699752 -280.833239 
L 285.979091 -282.825393 
L 289.25843 -280.906635 
L 292.537769 -281.696403 
L 295.817107 -169.81365 
L 299.096446 -167.059487 
L 302.375785 -172.155256 
L 305.655124 -177.725842 
L 308.934463 -169.768623 
L 312.213802 -180.236376 
L 315.49314 -182.212779 
L 318.772479 -183.212657 
L 322.051818 -178.260784 
L 325.331157 -178.374803 
L 328.610496 -173.492589 
L 331.889835 -182.49884 
L 335.169174 -174.088045 
L 338.448512 -175.151751 
L 341.727851 -178.336551 
L 345.00719 -180.141877 
L 348.286529 -172.437937 
L 351.565868 -186.566249 
L 354.845207 -175.64426 
L 358.124545 -174.361391 
L 361.403884 -182.823052 
L 364.683223 -175.073135 
L 367.962562 -176.261892 
L 371.241901 -182.897165 
L 374.52124 -176.385533 
L 377.800579 -170.860258 
L 381.079917 -183.61866 
L 384.359256 -178.840175 
L 387.638595 -179.493497 
L 390.917934 -173.26854 
L 394.197273 -176.090835 
L 394.197273 -247.287394 
L 394.197273 -247.287394 
L 390.917934 -246.38262 
L 387.638595 -248.03103 
L 384.359256 -248.457421 
L 381.079917 -251.29574 
L 377.800579 -247.134987 
L 374.52124 -248.716675 
L 371.241901 -249.032011 
L 367.962562 -242.726559 
L 364.683223 -243.528166 
L 361.403884 -248.47797 
L 358.124545 -247.895789 
L 354.845207 -246.918762 
L 351.565868 -250.774403 
L 348.286529 -243.522123 
L 345.00719 -248.955475 
L 341.727851 -244.539964 
L 338.448512 -245.342592 
L 335.169174 -243.286026 
L 331.889835 -246.698275 
L 328.610496 -242.880036 
L 325.331157 -246.738869 
L 322.051818 -249.83448 
L 318.772479 -250.543692 
L 315.49314 -252.282295 
L 312.213802 -246.498104 
L 308.934463 -242.348859 
L 305.655124 -244.260062 
L 302.375785 -243.981465 
L 299.096446 -240.867141 
L 295.817107 -243.057242 
L 292.537769 -295.81362 
L 289.25843 -295.952688 
L 285.979091 -295.938196 
L 282.699752 -295.895361 
L 279.420413 -295.708053 
L 276.141074 -295.710855 
L 272.861736 -295.566341 
L 269.582397 -295.462495 
L 266.303058 -295.589327 
L 263.023719 -295.295657 
L 259.74438 -295.209193 
L 256.465041 -295.084655 
L 253.185702 -295.332944 
L 249.906364 -295.032919 
L 246.627025 -294.782664 
L 243.347686 -294.918417 
L 240.068347 -294.464372 
L 236.789008 -294.244736 
L 233.509669 -294.313703 
L 230.230331 -294.131552 
L 226.950992 -294.636169 
L 223.671653 -294.205624 
L 220.392314 -294.547436 
L 217.112975 -293.868443 
L 213.833636 -294.373275 
L 210.554298 -294.164802 
L 207.274959 -293.877202 
L 203.99562 -293.371909 
L 200.716281 -293.16023 
L 197.436942 -293.781177 
L 194.157603 -293.184316 
L 190.878264 -292.749439 
L 187.598926 -293.467048 
L 184.319587 -292.885988 
L 181.040248 -292.467016 
L 177.760909 -291.507695 
L 174.48157 -291.327814 
L 171.202231 -292.23138 
L 167.922893 -292.401308 
L 164.643554 -291.191545 
L 161.364215 -290.594711 
L 158.084876 -290.492669 
L 154.805537 -290.612048 
L 151.526198 -289.940649 
L 148.24686 -288.817914 
L 144.967521 -288.00455 
L 141.688182 -286.439272 
L 138.408843 -287.665023 
L 135.129504 -287.417435 
L 131.850165 -287.399916 
L 128.570826 -286.651731 
L 125.291488 -285.904689 
L 122.012149 -284.822817 
L 118.73281 -283.520374 
L 115.453471 -283.33431 
L 112.174132 -276.773454 
L 108.894793 -276.132996 
L 105.615455 -275.061776 
L 102.336116 -274.536671 
L 99.056777 -270.836863 
L 95.777438 -267.969844 
L 92.498099 -265.915678 
L 89.21876 -259.618501 
L 85.939421 -254.751813 
L 82.660083 -241.497231 
L 79.380744 -230.524879 
L 76.101405 -218.576291 
L 72.822066 -197.948593 
L 69.542727 -129.318917 
z
" style="stroke: #8172b3; stroke-opacity: 0.2"/>
    </defs>
    <g clip-path="url(#p2d3dbb7798)">
     <use xlink:href="#m3cf96940c7" x="0" y="316.271687" style="fill: #8172b3; fill-opacity: 0.2; stroke: #8172b3; stroke-opacity: 0.2"/>
    </g>
   </g>
   <g id="line2d_16">
    <path d="M 69.542727 185.534017 
L 72.822066 124.591036 
L 76.101405 87.568443 
L 79.380744 74.818052 
L 82.660083 57.518808 
L 85.939421 53.122318 
L 89.21876 50.932464 
L 92.498099 43.963219 
L 95.777438 42.677993 
L 99.056777 34.158496 
L 102.336116 36.856446 
L 105.615455 35.17359 
L 108.894793 30.467512 
L 112.174132 28.376016 
L 115.453471 29.594724 
L 118.73281 29.816979 
L 122.012149 25.97655 
L 125.291488 25.371869 
L 128.570826 24.976376 
L 131.850165 30.427649 
L 135.129504 27.681969 
L 138.408843 27.157654 
L 141.688182 26.104229 
L 144.967521 25.557776 
L 148.24686 26.788895 
L 151.526198 29.302288 
L 154.805537 27.707049 
L 158.084876 26.666511 
L 161.364215 28.43741 
L 164.643554 38.172241 
L 167.922893 35.7346 
L 171.202231 36.407754 
L 174.48157 24.3296 
L 177.760909 23.427828 
L 181.040248 24.355763 
L 184.319587 25.557188 
L 187.598926 25.683699 
L 190.878264 24.645705 
L 194.157603 23.862526 
L 197.436942 23.828514 
L 200.716281 22.351954 
L 203.99562 23.100022 
L 207.274959 22.292195 
L 210.554298 22.551336 
L 213.833636 24.341258 
L 217.112975 25.449474 
L 220.392314 25.414068 
L 223.671653 24.464636 
L 226.950992 25.111049 
L 230.230331 23.042686 
L 233.509669 22.38536 
L 236.789008 22.716126 
L 240.068347 23.937084 
L 243.347686 22.960641 
L 246.627025 22.260874 
L 249.906364 22.568879 
L 253.185702 22.542664 
L 256.465041 22.493611 
L 259.74438 25.173508 
L 263.023719 22.880968 
L 266.303058 22.130226 
L 269.582397 21.86417 
L 272.861736 22.832875 
L 276.141074 21.814908 
L 279.420413 21.183139 
L 282.699752 20.581721 
L 285.979091 21.070362 
L 289.25843 21.4282 
L 292.537769 20.887034 
L 295.817107 25.887814 
L 299.096446 29.072598 
L 302.375785 27.867119 
L 305.655124 26.326684 
L 308.934463 25.329278 
L 312.213802 25.71612 
L 315.49314 25.311037 
L 318.772479 28.389452 
L 322.051818 26.840015 
L 325.331157 28.085272 
L 328.610496 26.20872 
L 331.889835 27.995279 
L 335.169174 27.963449 
L 338.448512 25.925823 
L 341.727851 26.100685 
L 345.00719 25.029054 
L 348.286529 25.180223 
L 351.565868 24.946052 
L 354.845207 29.772374 
L 358.124545 25.462278 
L 361.403884 31.872187 
L 364.683223 25.952842 
L 367.962562 23.851594 
L 371.241901 24.730479 
L 374.52124 25.214591 
L 377.800579 26.788575 
L 381.079917 23.688611 
L 384.359256 23.178982 
L 387.638595 22.819468 
L 390.917934 24.323002 
L 394.197273 23.219984 
" clip-path="url(#p2d3dbb7798)" style="fill: none; stroke: #4c72b0; stroke-width: 1.5; stroke-linecap: round"/>
   </g>
   <g id="line2d_17">
    <path d="M 69.542727 229.397369 
L 72.822066 187.050145 
L 76.101405 154.546052 
L 79.380744 147.93796 
L 82.660083 171.937795 
L 85.939421 127.160399 
L 89.21876 142.387351 
L 92.498099 109.342093 
L 95.777438 100.410235 
L 99.056777 79.39188 
L 102.336116 112.363272 
L 105.615455 103.714321 
L 108.894793 75.174426 
L 112.174132 63.166754 
L 115.453471 76.756268 
L 118.73281 88.859745 
L 122.012149 61.266479 
L 125.291488 65.026145 
L 128.570826 70.600113 
L 131.850165 75.467156 
L 135.129504 66.898458 
L 138.408843 60.191081 
L 141.688182 70.162161 
L 144.967521 67.651407 
L 148.24686 62.582567 
L 151.526198 52.880339 
L 154.805537 60.126683 
L 158.084876 76.190965 
L 161.364215 67.690309 
L 164.643554 82.40771 
L 167.922893 51.498268 
L 171.202231 47.750381 
L 174.48157 62.496429 
L 177.760909 52.946113 
L 181.040248 44.575931 
L 184.319587 49.407984 
L 187.598926 60.078001 
L 190.878264 41.255931 
L 194.157603 51.393385 
L 197.436942 46.370994 
L 200.716281 41.220187 
L 203.99562 44.983887 
L 207.274959 42.953872 
L 210.554298 45.370751 
L 213.833636 42.855453 
L 217.112975 66.978832 
L 220.392314 52.866734 
L 223.671653 59.097188 
L 226.950992 51.788272 
L 230.230331 38.340553 
L 233.509669 43.220898 
L 236.789008 38.732575 
L 240.068347 40.970177 
L 243.347686 39.274225 
L 246.627025 38.10972 
L 249.906364 55.171433 
L 253.185702 50.39862 
L 256.465041 58.844702 
L 259.74438 36.559935 
L 263.023719 46.926655 
L 266.303058 55.637824 
L 269.582397 36.220705 
L 272.861736 37.462399 
L 276.141074 41.314547 
L 279.420413 47.971148 
L 282.699752 37.652175 
L 285.979091 45.083145 
L 289.25843 39.4413 
L 292.537769 46.317042 
L 295.817107 37.993153 
L 299.096446 48.34409 
L 302.375785 38.277032 
L 305.655124 39.303118 
L 308.934463 34.773862 
L 312.213802 34.152042 
L 315.49314 37.208327 
L 318.772479 41.395915 
L 322.051818 34.772784 
L 325.331157 37.140833 
L 328.610496 35.436387 
L 331.889835 38.418411 
L 335.169174 41.587201 
L 338.448512 41.253004 
L 341.727851 32.659473 
L 345.00719 32.868085 
L 348.286529 33.772463 
L 351.565868 32.541351 
L 354.845207 42.035352 
L 358.124545 32.309561 
L 361.403884 49.717459 
L 364.683223 34.475698 
L 367.962562 32.284177 
L 371.241901 33.139302 
L 374.52124 33.962301 
L 377.800579 46.153757 
L 381.079917 37.094155 
L 384.359256 31.057979 
L 387.638595 28.979333 
L 390.917934 35.457584 
L 394.197273 31.508892 
" clip-path="url(#p2d3dbb7798)" style="fill: none; stroke-dasharray: 6,2.25; stroke-dashoffset: 0; stroke: #dd8452; stroke-width: 1.5"/>
   </g>
   <g id="line2d_18">
    <path d="M 69.542727 228.295523 
L 72.822066 161.144928 
L 76.101405 135.426761 
L 79.380744 124.120803 
L 82.660083 100.2568 
L 85.939421 87.104476 
L 89.21876 82.306687 
L 92.498099 71.934427 
L 95.777438 65.166192 
L 99.056777 61.037213 
L 102.336116 59.555659 
L 105.615455 54.716795 
L 108.894793 54.967698 
L 112.174132 53.026236 
L 115.453471 49.908759 
L 118.73281 49.504811 
L 122.012149 44.451826 
L 125.291488 46.151888 
L 128.570826 46.125751 
L 131.850165 43.532139 
L 135.129504 42.897982 
L 138.408843 41.439717 
L 141.688182 39.983807 
L 144.967521 39.618397 
L 148.24686 40.382814 
L 151.526198 39.419361 
L 154.805537 38.848831 
L 158.084876 38.639765 
L 161.364215 38.111945 
L 164.643554 36.381038 
L 167.922893 35.23321 
L 171.202231 36.495528 
L 174.48157 35.370522 
L 177.760909 34.795233 
L 181.040248 34.638188 
L 184.319587 32.291151 
L 187.598926 30.741236 
L 190.878264 30.739903 
L 194.157603 31.70088 
L 197.436942 31.579432 
L 200.716281 31.175068 
L 203.99562 31.522745 
L 207.274959 30.455672 
L 210.554298 30.0183 
L 213.833636 29.513778 
L 217.112975 31.32917 
L 220.392314 27.848983 
L 223.671653 27.617752 
L 226.950992 27.967939 
L 230.230331 27.762429 
L 233.509669 27.805261 
L 236.789008 26.902779 
L 240.068347 27.745657 
L 243.347686 27.674863 
L 246.627025 27.507416 
L 249.906364 27.495447 
L 253.185702 25.750676 
L 256.465041 26.125441 
L 259.74438 25.262762 
L 263.023719 24.671539 
L 266.303058 24.65815 
L 269.582397 25.738196 
L 272.861736 25.488791 
L 276.141074 26.544596 
L 279.420413 25.025715 
L 282.699752 24.749014 
L 285.979091 24.181314 
L 289.25843 24.153897 
L 292.537769 24.488739 
L 295.817107 101.940173 
L 299.096446 108.853017 
L 302.375785 100.237671 
L 305.655124 108.859323 
L 308.934463 99.279406 
L 312.213802 101.08718 
L 315.49314 99.75311 
L 318.772479 105.73841 
L 322.051818 101.71378 
L 325.331157 108.255199 
L 328.610496 111.852476 
L 331.889835 94.434339 
L 335.169174 103.732759 
L 338.448512 108.866587 
L 341.727851 107.893928 
L 345.00719 102.169207 
L 348.286529 101.474507 
L 351.565868 105.622591 
L 354.845207 94.355735 
L 358.124545 102.160174 
L 361.403884 99.781329 
L 364.683223 102.447433 
L 367.962562 99.370218 
L 371.241901 93.816124 
L 374.52124 103.56951 
L 377.800579 100.057587 
L 381.079917 103.89745 
L 384.359256 103.531514 
L 387.638595 103.455544 
L 390.917934 104.056658 
L 394.197273 101.060009 
" clip-path="url(#p2d3dbb7798)" style="fill: none; stroke-dasharray: 1.5,1.5; stroke-dashoffset: 0; stroke: #55a868; stroke-width: 1.5"/>
   </g>
   <g id="line2d_19">
    <path d="M 69.542727 228.564037 
L 72.822066 215.647722 
L 76.101405 181.295766 
L 79.380744 151.796071 
L 82.660083 129.658933 
L 85.939421 112.85425 
L 89.21876 90.3548 
L 92.498099 87.716167 
L 95.777438 77.600929 
L 99.056777 70.876139 
L 102.336116 68.008405 
L 105.615455 65.652808 
L 108.894793 64.137675 
L 112.174132 59.300421 
L 115.453471 54.472116 
L 118.73281 52.870672 
L 122.012149 51.16662 
L 125.291488 48.452511 
L 128.570826 47.409342 
L 131.850165 45.894685 
L 135.129504 44.257585 
L 138.408843 40.984353 
L 141.688182 39.285329 
L 144.967521 39.111685 
L 148.24686 38.340233 
L 151.526198 37.385954 
L 154.805537 35.914613 
L 158.084876 34.881708 
L 161.364215 34.304488 
L 164.643554 33.736191 
L 167.922893 34.005043 
L 171.202231 33.543309 
L 174.48157 33.44727 
L 177.760909 32.989612 
L 181.040248 32.462025 
L 184.319587 32.25462 
L 187.598926 32.131623 
L 190.878264 31.829962 
L 194.157603 31.186336 
L 197.436942 31.024238 
L 200.716281 30.905048 
L 203.99562 30.46675 
L 207.274959 30.047172 
L 210.554298 30.065883 
L 213.833636 28.690148 
L 217.112975 28.301094 
L 220.392314 28.203826 
L 223.671653 28.644244 
L 226.950992 28.141306 
L 230.230331 28.119064 
L 233.509669 27.909556 
L 236.789008 27.446229 
L 240.068347 27.653409 
L 243.347686 27.583818 
L 246.627025 27.816321 
L 249.906364 27.284304 
L 253.185702 26.605523 
L 256.465041 26.435281 
L 259.74438 26.496053 
L 263.023719 26.476848 
L 266.303058 26.522492 
L 269.582397 25.947444 
L 272.861736 25.767232 
L 276.141074 25.793533 
L 279.420413 25.718784 
L 282.699752 25.579663 
L 285.979091 25.084574 
L 289.25843 24.981595 
L 292.537769 24.723899 
L 295.817107 106.549329 
L 299.096446 105.440125 
L 302.375785 100.377172 
L 305.655124 102.230158 
L 308.934463 112.013047 
L 312.213802 105.698905 
L 315.49314 110.57342 
L 318.772479 109.501638 
L 322.051818 106.792394 
L 325.331157 95.579728 
L 328.610496 106.496302 
L 331.889835 102.969706 
L 335.169174 100.562272 
L 338.448512 99.000295 
L 341.727851 105.668324 
L 345.00719 101.782952 
L 348.286529 100.895385 
L 351.565868 101.240978 
L 354.845207 109.477623 
L 358.124545 100.155656 
L 361.403884 99.537998 
L 364.683223 98.474939 
L 367.962562 101.007552 
L 371.241901 108.603906 
L 374.52124 98.385491 
L 377.800579 108.678506 
L 381.079917 100.263297 
L 384.359256 108.526574 
L 387.638595 104.891452 
L 390.917934 99.815073 
L 394.197273 99.984447 
" clip-path="url(#p2d3dbb7798)" style="fill: none; stroke-dasharray: 4.5,1.875,2.25,1.875; stroke-dashoffset: 0; stroke: #c44e52; stroke-width: 1.5"/>
   </g>
   <g id="line2d_20">
    <path d="M 69.542727 221.444291 
L 72.822066 155.341322 
L 76.101405 127.267005 
L 79.380744 117.343697 
L 82.660083 100.285749 
L 85.939421 87.747782 
L 89.21876 80.670599 
L 92.498099 76.020498 
L 95.777438 71.221696 
L 99.056777 68.71616 
L 102.336116 63.276553 
L 105.615455 62.861571 
L 108.894793 61.846035 
L 112.174132 60.157259 
L 115.453471 50.811872 
L 118.73281 50.197438 
L 122.012149 49.677468 
L 125.291488 45.277464 
L 128.570826 44.443189 
L 131.850165 43.416117 
L 135.129504 45.289485 
L 138.408843 45.043248 
L 141.688182 44.326171 
L 144.967521 43.950921 
L 148.24686 43.26411 
L 151.526198 41.886358 
L 154.805537 39.46163 
L 158.084876 39.275584 
L 161.364215 38.842133 
L 164.643554 39.054254 
L 167.922893 37.744198 
L 171.202231 37.67787 
L 174.48157 38.403549 
L 177.760909 38.225466 
L 181.040248 37.599798 
L 184.319587 36.52028 
L 187.598926 35.96641 
L 190.878264 36.066084 
L 194.157603 35.589325 
L 197.436942 35.64493 
L 200.716281 35.541206 
L 203.99562 35.611212 
L 207.274959 35.086145 
L 210.554298 34.793588 
L 213.833636 34.150975 
L 217.112975 34.341253 
L 220.392314 33.45711 
L 223.671653 32.72951 
L 226.950992 30.964305 
L 230.230331 30.631999 
L 233.509669 30.520114 
L 236.789008 30.317815 
L 240.068347 29.792955 
L 243.347686 29.600643 
L 246.627025 29.577034 
L 249.906364 29.400283 
L 253.185702 28.583351 
L 256.465041 28.221221 
L 259.74438 28.315962 
L 263.023719 27.592023 
L 266.303058 26.776718 
L 269.582397 26.073662 
L 272.861736 26.884951 
L 276.141074 26.793464 
L 279.420413 26.349428 
L 282.699752 26.201402 
L 285.979091 25.817748 
L 289.25843 25.82205 
L 292.537769 26.022392 
L 295.817107 109.592558 
L 299.096446 111.071169 
L 302.375785 106.833565 
L 305.655124 103.091856 
L 308.934463 108.457753 
L 312.213802 102.042792 
L 315.49314 99.430666 
L 318.772479 100.020347 
L 322.051818 101.545497 
L 325.331157 103.824231 
L 328.610496 106.016364 
L 331.889835 101.881699 
L 335.169174 105.932677 
L 338.448512 103.980107 
L 341.727851 103.05813 
L 345.00719 100.832793 
L 348.286529 105.888919 
L 351.565868 97.568714 
L 354.845207 103.761481 
L 358.124545 103.846725 
L 361.403884 101.471157 
L 364.683223 105.560882 
L 367.962562 105.429893 
L 371.241901 98.548406 
L 374.52124 104.184733 
L 377.800579 106.356729 
L 381.079917 99.201456 
L 384.359256 101.064426 
L 387.638595 100.489199 
L 390.917934 106.776552 
L 394.197273 102.314112 
" clip-path="url(#p2d3dbb7798)" style="fill: none; stroke-dasharray: 7.5,1.5,1.5,1.5; stroke-dashoffset: 0; stroke: #8172b3; stroke-width: 1.5"/>
   </g>
   <g id="line2d_21"/>
   <g id="line2d_22"/>
   <g id="line2d_23"/>
   <g id="line2d_24"/>
   <g id="line2d_25"/>
   <g id="patch_3">
    <path d="M 53.31 273.312 
L 53.31 7.2 
" style="fill: none; stroke: #cccccc; stroke-width: 1.25; stroke-linejoin: miter; stroke-linecap: square"/>
   </g>
   <g id="patch_4">
    <path d="M 410.43 273.312 
L 410.43 7.2 
" style="fill: none; stroke: #cccccc; stroke-width: 1.25; stroke-linejoin: miter; stroke-linecap: square"/>
   </g>
   <g id="patch_5">
    <path d="M 53.31 273.312 
L 410.43 273.312 
" style="fill: none; stroke: #cccccc; stroke-width: 1.25; stroke-linejoin: miter; stroke-linecap: square"/>
   </g>
   <g id="patch_6">
    <path d="M 53.31 7.2 
L 410.43 7.2 
" style="fill: none; stroke: #cccccc; stroke-width: 1.25; stroke-linejoin: miter; stroke-linecap: square"/>
   </g>
   <g id="legend_1">
    <g id="patch_7">
     <path d="M 298.745625 267.812 
L 402.73 267.812 
Q 404.93 267.812 404.93 265.612 
L 404.93 168.868562 
Q 404.93 166.668562 402.73 166.668562 
L 298.745625 166.668562 
Q 296.545625 166.668562 296.545625 168.868562 
L 296.545625 265.612 
Q 296.545625 267.812 298.745625 267.812 
z
" style="fill: #ffffff; opacity: 0.8; stroke: #cccccc; stroke-linejoin: miter"/>
    </g>
    <g id="text_18">
     <!-- Strategy -->
     <g style="fill: #262626" transform="translate(325.02875 180.186687) scale(0.12 -0.12)">
      <defs>
       <path id="DejaVuSans-53" d="M 3425 4513 
L 3425 3897 
Q 3066 4069 2747 4153 
Q 2428 4238 2131 4238 
Q 1616 4238 1336 4038 
Q 1056 3838 1056 3469 
Q 1056 3159 1242 3001 
Q 1428 2844 1947 2747 
L 2328 2669 
Q 3034 2534 3370 2195 
Q 3706 1856 3706 1288 
Q 3706 609 3251 259 
Q 2797 -91 1919 -91 
Q 1588 -91 1214 -16 
Q 841 59 441 206 
L 441 856 
Q 825 641 1194 531 
Q 1563 422 1919 422 
Q 2459 422 2753 634 
Q 3047 847 3047 1241 
Q 3047 1584 2836 1778 
Q 2625 1972 2144 2069 
L 1759 2144 
Q 1053 2284 737 2584 
Q 422 2884 422 3419 
Q 422 4038 858 4394 
Q 1294 4750 2059 4750 
Q 2388 4750 2728 4690 
Q 3069 4631 3425 4513 
z
" transform="scale(0.015625)"/>
       <path id="DejaVuSans-74" d="M 1172 4494 
L 1172 3500 
L 2356 3500 
L 2356 3053 
L 1172 3053 
L 1172 1153 
Q 1172 725 1289 603 
Q 1406 481 1766 481 
L 2356 481 
L 2356 0 
L 1766 0 
Q 1100 0 847 248 
Q 594 497 594 1153 
L 594 3053 
L 172 3053 
L 172 3500 
L 594 3500 
L 594 4494 
L 1172 4494 
z
" transform="scale(0.015625)"/>
       <path id="DejaVuSans-65" d="M 3597 1894 
L 3597 1613 
L 953 1613 
Q 991 1019 1311 708 
Q 1631 397 2203 397 
Q 2534 397 2845 478 
Q 3156 559 3463 722 
L 3463 178 
Q 3153 47 2828 -22 
Q 2503 -91 2169 -91 
Q 1331 -91 842 396 
Q 353 884 353 1716 
Q 353 2575 817 3079 
Q 1281 3584 2069 3584 
Q 2775 3584 3186 3129 
Q 3597 2675 3597 1894 
z
M 3022 2063 
Q 3016 2534 2758 2815 
Q 2500 3097 2075 3097 
Q 1594 3097 1305 2825 
Q 1016 2553 972 2059 
L 3022 2063 
z
" transform="scale(0.015625)"/>
       <path id="DejaVuSans-67" d="M 2906 1791 
Q 2906 2416 2648 2759 
Q 2391 3103 1925 3103 
Q 1463 3103 1205 2759 
Q 947 2416 947 1791 
Q 947 1169 1205 825 
Q 1463 481 1925 481 
Q 2391 481 2648 825 
Q 2906 1169 2906 1791 
z
M 3481 434 
Q 3481 -459 3084 -895 
Q 2688 -1331 1869 -1331 
Q 1566 -1331 1297 -1286 
Q 1028 -1241 775 -1147 
L 775 -588 
Q 1028 -725 1275 -790 
Q 1522 -856 1778 -856 
Q 2344 -856 2625 -561 
Q 2906 -266 2906 331 
L 2906 616 
Q 2728 306 2450 153 
Q 2172 0 1784 0 
Q 1141 0 747 490 
Q 353 981 353 1791 
Q 353 2603 747 3093 
Q 1141 3584 1784 3584 
Q 2172 3584 2450 3431 
Q 2728 3278 2906 2969 
L 2906 3500 
L 3481 3500 
L 3481 434 
z
" transform="scale(0.015625)"/>
      </defs>
      <use xlink:href="#DejaVuSans-53"/>
      <use xlink:href="#DejaVuSans-74" x="63.476562"/>
      <use xlink:href="#DejaVuSans-72" x="102.685547"/>
      <use xlink:href="#DejaVuSans-61" x="143.798828"/>
      <use xlink:href="#DejaVuSans-74" x="205.078125"/>
      <use xlink:href="#DejaVuSans-65" x="244.287109"/>
      <use xlink:href="#DejaVuSans-67" x="305.810547"/>
      <use xlink:href="#DejaVuSans-79" x="369.287109"/>
     </g>
    </g>
    <g id="line2d_26">
     <path d="M 300.945625 192.690594 
L 311.945625 192.690594 
L 322.945625 192.690594 
" style="fill: none; stroke: #4c72b0; stroke-width: 1.5; stroke-linecap: round"/>
    </g>
    <g id="text_19">
     <!-- FedPredict -->
     <g style="fill: #262626" transform="translate(331.745625 196.540594) scale(0.11 -0.11)">
      <defs>
       <path id="DejaVuSans-46" d="M 628 4666 
L 3309 4666 
L 3309 4134 
L 1259 4134 
L 1259 2759 
L 3109 2759 
L 3109 2228 
L 1259 2228 
L 1259 0 
L 628 0 
L 628 4666 
z
" transform="scale(0.015625)"/>
       <path id="DejaVuSans-50" d="M 1259 4147 
L 1259 2394 
L 2053 2394 
Q 2494 2394 2734 2622 
Q 2975 2850 2975 3272 
Q 2975 3691 2734 3919 
Q 2494 4147 2053 4147 
L 1259 4147 
z
M 628 4666 
L 2053 4666 
Q 2838 4666 3239 4311 
Q 3641 3956 3641 3272 
Q 3641 2581 3239 2228 
Q 2838 1875 2053 1875 
L 1259 1875 
L 1259 0 
L 628 0 
L 628 4666 
z
" transform="scale(0.015625)"/>
       <path id="DejaVuSans-69" d="M 603 3500 
L 1178 3500 
L 1178 0 
L 603 0 
L 603 3500 
z
M 603 4863 
L 1178 4863 
L 1178 4134 
L 603 4134 
L 603 4863 
z
" transform="scale(0.015625)"/>
      </defs>
      <use xlink:href="#DejaVuSans-46"/>
      <use xlink:href="#DejaVuSans-65" x="52.019531"/>
      <use xlink:href="#DejaVuSans-64" x="113.542969"/>
      <use xlink:href="#DejaVuSans-50" x="177.019531"/>
      <use xlink:href="#DejaVuSans-72" x="235.572266"/>
      <use xlink:href="#DejaVuSans-65" x="274.435547"/>
      <use xlink:href="#DejaVuSans-64" x="335.958984"/>
      <use xlink:href="#DejaVuSans-69" x="399.435547"/>
      <use xlink:href="#DejaVuSans-63" x="427.21875"/>
      <use xlink:href="#DejaVuSans-74" x="482.199219"/>
     </g>
    </g>
    <g id="line2d_27">
     <path d="M 300.945625 208.836531 
L 311.945625 208.836531 
L 322.945625 208.836531 
" style="fill: none; stroke-dasharray: 6,2.25; stroke-dashoffset: 0; stroke: #dd8452; stroke-width: 1.5"/>
    </g>
    <g id="text_20">
     <!-- FedAVG -->
     <g style="fill: #262626" transform="translate(331.745625 212.686531) scale(0.11 -0.11)">
      <defs>
       <path id="DejaVuSans-56" d="M 1831 0 
L 50 4666 
L 709 4666 
L 2188 738 
L 3669 4666 
L 4325 4666 
L 2547 0 
L 1831 0 
z
" transform="scale(0.015625)"/>
       <path id="DejaVuSans-47" d="M 3809 666 
L 3809 1919 
L 2778 1919 
L 2778 2438 
L 4434 2438 
L 4434 434 
Q 4069 175 3628 42 
Q 3188 -91 2688 -91 
Q 1594 -91 976 548 
Q 359 1188 359 2328 
Q 359 3472 976 4111 
Q 1594 4750 2688 4750 
Q 3144 4750 3555 4637 
Q 3966 4525 4313 4306 
L 4313 3634 
Q 3963 3931 3569 4081 
Q 3175 4231 2741 4231 
Q 1884 4231 1454 3753 
Q 1025 3275 1025 2328 
Q 1025 1384 1454 906 
Q 1884 428 2741 428 
Q 3075 428 3337 486 
Q 3600 544 3809 666 
z
" transform="scale(0.015625)"/>
      </defs>
      <use xlink:href="#DejaVuSans-46"/>
      <use xlink:href="#DejaVuSans-65" x="52.019531"/>
      <use xlink:href="#DejaVuSans-64" x="113.542969"/>
      <use xlink:href="#DejaVuSans-41" x="177.019531"/>
      <use xlink:href="#DejaVuSans-56" x="239.052734"/>
      <use xlink:href="#DejaVuSans-47" x="307.460938"/>
     </g>
    </g>
    <g id="line2d_28">
     <path d="M 300.945625 224.982469 
L 311.945625 224.982469 
L 322.945625 224.982469 
" style="fill: none; stroke-dasharray: 1.5,1.5; stroke-dashoffset: 0; stroke: #55a868; stroke-width: 1.5"/>
    </g>
    <g id="text_21">
     <!-- FedClassAvg -->
     <g style="fill: #262626" transform="translate(331.745625 228.832469) scale(0.11 -0.11)">
      <defs>
       <path id="DejaVuSans-43" d="M 4122 4306 
L 4122 3641 
Q 3803 3938 3442 4084 
Q 3081 4231 2675 4231 
Q 1875 4231 1450 3742 
Q 1025 3253 1025 2328 
Q 1025 1406 1450 917 
Q 1875 428 2675 428 
Q 3081 428 3442 575 
Q 3803 722 4122 1019 
L 4122 359 
Q 3791 134 3420 21 
Q 3050 -91 2638 -91 
Q 1578 -91 968 557 
Q 359 1206 359 2328 
Q 359 3453 968 4101 
Q 1578 4750 2638 4750 
Q 3056 4750 3426 4639 
Q 3797 4528 4122 4306 
z
" transform="scale(0.015625)"/>
       <path id="DejaVuSans-6c" d="M 603 4863 
L 1178 4863 
L 1178 0 
L 603 0 
L 603 4863 
z
" transform="scale(0.015625)"/>
       <path id="DejaVuSans-73" d="M 2834 3397 
L 2834 2853 
Q 2591 2978 2328 3040 
Q 2066 3103 1784 3103 
Q 1356 3103 1142 2972 
Q 928 2841 928 2578 
Q 928 2378 1081 2264 
Q 1234 2150 1697 2047 
L 1894 2003 
Q 2506 1872 2764 1633 
Q 3022 1394 3022 966 
Q 3022 478 2636 193 
Q 2250 -91 1575 -91 
Q 1294 -91 989 -36 
Q 684 19 347 128 
L 347 722 
Q 666 556 975 473 
Q 1284 391 1588 391 
Q 1994 391 2212 530 
Q 2431 669 2431 922 
Q 2431 1156 2273 1281 
Q 2116 1406 1581 1522 
L 1381 1569 
Q 847 1681 609 1914 
Q 372 2147 372 2553 
Q 372 3047 722 3315 
Q 1072 3584 1716 3584 
Q 2034 3584 2315 3537 
Q 2597 3491 2834 3397 
z
" transform="scale(0.015625)"/>
       <path id="DejaVuSans-76" d="M 191 3500 
L 800 3500 
L 1894 563 
L 2988 3500 
L 3597 3500 
L 2284 0 
L 1503 0 
L 191 3500 
z
" transform="scale(0.015625)"/>
      </defs>
      <use xlink:href="#DejaVuSans-46"/>
      <use xlink:href="#DejaVuSans-65" x="52.019531"/>
      <use xlink:href="#DejaVuSans-64" x="113.542969"/>
      <use xlink:href="#DejaVuSans-43" x="177.019531"/>
      <use xlink:href="#DejaVuSans-6c" x="246.84375"/>
      <use xlink:href="#DejaVuSans-61" x="274.626953"/>
      <use xlink:href="#DejaVuSans-73" x="335.90625"/>
      <use xlink:href="#DejaVuSans-73" x="388.005859"/>
      <use xlink:href="#DejaVuSans-41" x="440.105469"/>
      <use xlink:href="#DejaVuSans-76" x="502.638672"/>
      <use xlink:href="#DejaVuSans-67" x="561.818359"/>
     </g>
    </g>
    <g id="line2d_29">
     <path d="M 300.945625 241.128406 
L 311.945625 241.128406 
L 322.945625 241.128406 
" style="fill: none; stroke-dasharray: 4.5,1.875,2.25,1.875; stroke-dashoffset: 0; stroke: #c44e52; stroke-width: 1.5"/>
    </g>
    <g id="text_22">
     <!-- FedPer -->
     <g style="fill: #262626" transform="translate(331.745625 244.978406) scale(0.11 -0.11)">
      <use xlink:href="#DejaVuSans-46"/>
      <use xlink:href="#DejaVuSans-65" x="52.019531"/>
      <use xlink:href="#DejaVuSans-64" x="113.542969"/>
      <use xlink:href="#DejaVuSans-50" x="177.019531"/>
      <use xlink:href="#DejaVuSans-65" x="233.697266"/>
      <use xlink:href="#DejaVuSans-72" x="295.220703"/>
     </g>
    </g>
    <g id="line2d_30">
     <path d="M 300.945625 257.274344 
L 311.945625 257.274344 
L 322.945625 257.274344 
" style="fill: none; stroke-dasharray: 7.5,1.5,1.5,1.5; stroke-dashoffset: 0; stroke: #8172b3; stroke-width: 1.5"/>
    </g>
    <g id="text_23">
     <!-- FedProto -->
     <g style="fill: #262626" transform="translate(331.745625 261.124344) scale(0.11 -0.11)">
      <use xlink:href="#DejaVuSans-46"/>
      <use xlink:href="#DejaVuSans-65" x="52.019531"/>
      <use xlink:href="#DejaVuSans-64" x="113.542969"/>
      <use xlink:href="#DejaVuSans-50" x="177.019531"/>
      <use xlink:href="#DejaVuSans-72" x="235.572266"/>
      <use xlink:href="#DejaVuSans-6f" x="274.435547"/>
      <use xlink:href="#DejaVuSans-74" x="335.617188"/>
      <use xlink:href="#DejaVuSans-6f" x="374.826172"/>
     </g>
    </g>
   </g>
  </g>
 </g>
 <defs>
  <clipPath id="p2d3dbb7798">
   <rect x="53.31" y="7.2" width="357.12" height="266.112"/>
  </clipPath>
 </defs>
</svg>
