<?xml version="1.0" encoding="utf-8" standalone="no"?>
<!DOCTYPE svg PUBLIC "-//W3C//DTD SVG 1.1//EN"
  "http://www.w3.org/Graphics/SVG/1.1/DTD/svg11.dtd">
<svg xmlns:xlink="http://www.w3.org/1999/xlink" width="417.63pt" height="316.271687pt" viewBox="0 0 417.63 316.271687" xmlns="http://www.w3.org/2000/svg" version="1.1">
 <metadata>
  <rdf:RDF xmlns:dc="http://purl.org/dc/elements/1.1/" xmlns:cc="http://creativecommons.org/ns#" xmlns:rdf="http://www.w3.org/1999/02/22-rdf-syntax-ns#">
   <cc:Work>
    <dc:type rdf:resource="http://purl.org/dc/dcmitype/StillImage"/>
    <dc:date>2023-02-10T22:26:34.712267</dc:date>
    <dc:format>image/svg+xml</dc:format>
    <dc:creator>
     <cc:Agent>
      <dc:title>Matplotlib v3.6.3, https://matplotlib.org/</dc:title>
     </cc:Agent>
    </dc:creator>
   </cc:Work>
  </rdf:RDF>
 </metadata>
 <defs>
  <style type="text/css">*{stroke-linejoin: round; stroke-linecap: butt}</style>
 </defs>
 <g id="figure_1">
  <g id="patch_1">
   <path d="M 0 316.271687 
L 417.63 316.271687 
L 417.63 0 
L 0 0 
z
" style="fill: #ffffff"/>
  </g>
  <g id="axes_1">
   <g id="patch_2">
    <path d="M 53.31 273.312 
L 410.43 273.312 
L 410.43 7.2 
L 53.31 7.2 
z
" style="fill: #ffffff"/>
   </g>
   <g id="matplotlib.axis_1">
    <g id="xtick_1">
     <g id="line2d_1">
      <path d="M 66.263388 273.312 
L 66.263388 7.2 
" clip-path="url(#pfa6ef4b8cb)" style="fill: none; stroke: #cccccc; stroke-linecap: round"/>
     </g>
     <g id="text_1">
      <!-- 0 -->
      <g style="fill: #262626" transform="translate(62.764013 291.170281) scale(0.11 -0.11)">
       <defs>
        <path id="DejaVuSans-30" d="M 2034 4250 
Q 1547 4250 1301 3770 
Q 1056 3291 1056 2328 
Q 1056 1369 1301 889 
Q 1547 409 2034 409 
Q 2525 409 2770 889 
Q 3016 1369 3016 2328 
Q 3016 3291 2770 3770 
Q 2525 4250 2034 4250 
z
M 2034 4750 
Q 2819 4750 3233 4129 
Q 3647 3509 3647 2328 
Q 3647 1150 3233 529 
Q 2819 -91 2034 -91 
Q 1250 -91 836 529 
Q 422 1150 422 2328 
Q 422 3509 836 4129 
Q 1250 4750 2034 4750 
z
" transform="scale(0.015625)"/>
       </defs>
       <use xlink:href="#DejaVuSans-30"/>
      </g>
     </g>
    </g>
    <g id="xtick_2">
     <g id="line2d_2">
      <path d="M 131.850165 273.312 
L 131.850165 7.2 
" clip-path="url(#pfa6ef4b8cb)" style="fill: none; stroke: #cccccc; stroke-linecap: round"/>
     </g>
     <g id="text_2">
      <!-- 20 -->
      <g style="fill: #262626" transform="translate(124.851415 291.170281) scale(0.11 -0.11)">
       <defs>
        <path id="DejaVuSans-32" d="M 1228 531 
L 3431 531 
L 3431 0 
L 469 0 
L 469 531 
Q 828 903 1448 1529 
Q 2069 2156 2228 2338 
Q 2531 2678 2651 2914 
Q 2772 3150 2772 3378 
Q 2772 3750 2511 3984 
Q 2250 4219 1831 4219 
Q 1534 4219 1204 4116 
Q 875 4013 500 3803 
L 500 4441 
Q 881 4594 1212 4672 
Q 1544 4750 1819 4750 
Q 2544 4750 2975 4387 
Q 3406 4025 3406 3419 
Q 3406 3131 3298 2873 
Q 3191 2616 2906 2266 
Q 2828 2175 2409 1742 
Q 1991 1309 1228 531 
z
" transform="scale(0.015625)"/>
       </defs>
       <use xlink:href="#DejaVuSans-32"/>
       <use xlink:href="#DejaVuSans-30" x="63.623047"/>
      </g>
     </g>
    </g>
    <g id="xtick_3">
     <g id="line2d_3">
      <path d="M 197.436942 273.312 
L 197.436942 7.2 
" clip-path="url(#pfa6ef4b8cb)" style="fill: none; stroke: #cccccc; stroke-linecap: round"/>
     </g>
     <g id="text_3">
      <!-- 40 -->
      <g style="fill: #262626" transform="translate(190.438192 291.170281) scale(0.11 -0.11)">
       <defs>
        <path id="DejaVuSans-34" d="M 2419 4116 
L 825 1625 
L 2419 1625 
L 2419 4116 
z
M 2253 4666 
L 3047 4666 
L 3047 1625 
L 3713 1625 
L 3713 1100 
L 3047 1100 
L 3047 0 
L 2419 0 
L 2419 1100 
L 313 1100 
L 313 1709 
L 2253 4666 
z
" transform="scale(0.015625)"/>
       </defs>
       <use xlink:href="#DejaVuSans-34"/>
       <use xlink:href="#DejaVuSans-30" x="63.623047"/>
      </g>
     </g>
    </g>
    <g id="xtick_4">
     <g id="line2d_4">
      <path d="M 263.023719 273.312 
L 263.023719 7.2 
" clip-path="url(#pfa6ef4b8cb)" style="fill: none; stroke: #cccccc; stroke-linecap: round"/>
     </g>
     <g id="text_4">
      <!-- 60 -->
      <g style="fill: #262626" transform="translate(256.024969 291.170281) scale(0.11 -0.11)">
       <defs>
        <path id="DejaVuSans-36" d="M 2113 2584 
Q 1688 2584 1439 2293 
Q 1191 2003 1191 1497 
Q 1191 994 1439 701 
Q 1688 409 2113 409 
Q 2538 409 2786 701 
Q 3034 994 3034 1497 
Q 3034 2003 2786 2293 
Q 2538 2584 2113 2584 
z
M 3366 4563 
L 3366 3988 
Q 3128 4100 2886 4159 
Q 2644 4219 2406 4219 
Q 1781 4219 1451 3797 
Q 1122 3375 1075 2522 
Q 1259 2794 1537 2939 
Q 1816 3084 2150 3084 
Q 2853 3084 3261 2657 
Q 3669 2231 3669 1497 
Q 3669 778 3244 343 
Q 2819 -91 2113 -91 
Q 1303 -91 875 529 
Q 447 1150 447 2328 
Q 447 3434 972 4092 
Q 1497 4750 2381 4750 
Q 2619 4750 2861 4703 
Q 3103 4656 3366 4563 
z
" transform="scale(0.015625)"/>
       </defs>
       <use xlink:href="#DejaVuSans-36"/>
       <use xlink:href="#DejaVuSans-30" x="63.623047"/>
      </g>
     </g>
    </g>
    <g id="xtick_5">
     <g id="line2d_5">
      <path d="M 328.610496 273.312 
L 328.610496 7.2 
" clip-path="url(#pfa6ef4b8cb)" style="fill: none; stroke: #cccccc; stroke-linecap: round"/>
     </g>
     <g id="text_5">
      <!-- 80 -->
      <g style="fill: #262626" transform="translate(321.611746 291.170281) scale(0.11 -0.11)">
       <defs>
        <path id="DejaVuSans-38" d="M 2034 2216 
Q 1584 2216 1326 1975 
Q 1069 1734 1069 1313 
Q 1069 891 1326 650 
Q 1584 409 2034 409 
Q 2484 409 2743 651 
Q 3003 894 3003 1313 
Q 3003 1734 2745 1975 
Q 2488 2216 2034 2216 
z
M 1403 2484 
Q 997 2584 770 2862 
Q 544 3141 544 3541 
Q 544 4100 942 4425 
Q 1341 4750 2034 4750 
Q 2731 4750 3128 4425 
Q 3525 4100 3525 3541 
Q 3525 3141 3298 2862 
Q 3072 2584 2669 2484 
Q 3125 2378 3379 2068 
Q 3634 1759 3634 1313 
Q 3634 634 3220 271 
Q 2806 -91 2034 -91 
Q 1263 -91 848 271 
Q 434 634 434 1313 
Q 434 1759 690 2068 
Q 947 2378 1403 2484 
z
M 1172 3481 
Q 1172 3119 1398 2916 
Q 1625 2713 2034 2713 
Q 2441 2713 2670 2916 
Q 2900 3119 2900 3481 
Q 2900 3844 2670 4047 
Q 2441 4250 2034 4250 
Q 1625 4250 1398 4047 
Q 1172 3844 1172 3481 
z
" transform="scale(0.015625)"/>
       </defs>
       <use xlink:href="#DejaVuSans-38"/>
       <use xlink:href="#DejaVuSans-30" x="63.623047"/>
      </g>
     </g>
    </g>
    <g id="xtick_6">
     <g id="line2d_6">
      <path d="M 394.197273 273.312 
L 394.197273 7.2 
" clip-path="url(#pfa6ef4b8cb)" style="fill: none; stroke: #cccccc; stroke-linecap: round"/>
     </g>
     <g id="text_6">
      <!-- 100 -->
      <g style="fill: #262626" transform="translate(383.699148 291.170281) scale(0.11 -0.11)">
       <defs>
        <path id="DejaVuSans-31" d="M 794 531 
L 1825 531 
L 1825 4091 
L 703 3866 
L 703 4441 
L 1819 4666 
L 2450 4666 
L 2450 531 
L 3481 531 
L 3481 0 
L 794 0 
L 794 531 
z
" transform="scale(0.015625)"/>
       </defs>
       <use xlink:href="#DejaVuSans-31"/>
       <use xlink:href="#DejaVuSans-30" x="63.623047"/>
       <use xlink:href="#DejaVuSans-30" x="127.246094"/>
      </g>
     </g>
    </g>
    <g id="text_7">
     <!-- Round -->
     <g style="fill: #262626" transform="translate(212.885625 306.576062) scale(0.12 -0.12)">
      <defs>
       <path id="DejaVuSans-52" d="M 2841 2188 
Q 3044 2119 3236 1894 
Q 3428 1669 3622 1275 
L 4263 0 
L 3584 0 
L 2988 1197 
Q 2756 1666 2539 1819 
Q 2322 1972 1947 1972 
L 1259 1972 
L 1259 0 
L 628 0 
L 628 4666 
L 2053 4666 
Q 2853 4666 3247 4331 
Q 3641 3997 3641 3322 
Q 3641 2881 3436 2590 
Q 3231 2300 2841 2188 
z
M 1259 4147 
L 1259 2491 
L 2053 2491 
Q 2509 2491 2742 2702 
Q 2975 2913 2975 3322 
Q 2975 3731 2742 3939 
Q 2509 4147 2053 4147 
L 1259 4147 
z
" transform="scale(0.015625)"/>
       <path id="DejaVuSans-6f" d="M 1959 3097 
Q 1497 3097 1228 2736 
Q 959 2375 959 1747 
Q 959 1119 1226 758 
Q 1494 397 1959 397 
Q 2419 397 2687 759 
Q 2956 1122 2956 1747 
Q 2956 2369 2687 2733 
Q 2419 3097 1959 3097 
z
M 1959 3584 
Q 2709 3584 3137 3096 
Q 3566 2609 3566 1747 
Q 3566 888 3137 398 
Q 2709 -91 1959 -91 
Q 1206 -91 779 398 
Q 353 888 353 1747 
Q 353 2609 779 3096 
Q 1206 3584 1959 3584 
z
" transform="scale(0.015625)"/>
       <path id="DejaVuSans-75" d="M 544 1381 
L 544 3500 
L 1119 3500 
L 1119 1403 
Q 1119 906 1312 657 
Q 1506 409 1894 409 
Q 2359 409 2629 706 
Q 2900 1003 2900 1516 
L 2900 3500 
L 3475 3500 
L 3475 0 
L 2900 0 
L 2900 538 
Q 2691 219 2414 64 
Q 2138 -91 1772 -91 
Q 1169 -91 856 284 
Q 544 659 544 1381 
z
M 1991 3584 
L 1991 3584 
z
" transform="scale(0.015625)"/>
       <path id="DejaVuSans-6e" d="M 3513 2113 
L 3513 0 
L 2938 0 
L 2938 2094 
Q 2938 2591 2744 2837 
Q 2550 3084 2163 3084 
Q 1697 3084 1428 2787 
Q 1159 2491 1159 1978 
L 1159 0 
L 581 0 
L 581 3500 
L 1159 3500 
L 1159 2956 
Q 1366 3272 1645 3428 
Q 1925 3584 2291 3584 
Q 2894 3584 3203 3211 
Q 3513 2838 3513 2113 
z
" transform="scale(0.015625)"/>
       <path id="DejaVuSans-64" d="M 2906 2969 
L 2906 4863 
L 3481 4863 
L 3481 0 
L 2906 0 
L 2906 525 
Q 2725 213 2448 61 
Q 2172 -91 1784 -91 
Q 1150 -91 751 415 
Q 353 922 353 1747 
Q 353 2572 751 3078 
Q 1150 3584 1784 3584 
Q 2172 3584 2448 3432 
Q 2725 3281 2906 2969 
z
M 947 1747 
Q 947 1113 1208 752 
Q 1469 391 1925 391 
Q 2381 391 2643 752 
Q 2906 1113 2906 1747 
Q 2906 2381 2643 2742 
Q 2381 3103 1925 3103 
Q 1469 3103 1208 2742 
Q 947 2381 947 1747 
z
" transform="scale(0.015625)"/>
      </defs>
      <use xlink:href="#DejaVuSans-52"/>
      <use xlink:href="#DejaVuSans-6f" x="64.982422"/>
      <use xlink:href="#DejaVuSans-75" x="126.164062"/>
      <use xlink:href="#DejaVuSans-6e" x="189.542969"/>
      <use xlink:href="#DejaVuSans-64" x="252.921875"/>
     </g>
    </g>
   </g>
   <g id="matplotlib.axis_2">
    <g id="ytick_1">
     <g id="line2d_7">
      <path d="M 53.31 246.349907 
L 410.43 246.349907 
" clip-path="url(#pfa6ef4b8cb)" style="fill: none; stroke: #cccccc; stroke-linecap: round"/>
     </g>
     <g id="text_8">
      <!-- 20 -->
      <g style="fill: #262626" transform="translate(29.8125 250.529048) scale(0.11 -0.11)">
       <use xlink:href="#DejaVuSans-32"/>
       <use xlink:href="#DejaVuSans-30" x="63.623047"/>
      </g>
     </g>
    </g>
    <g id="ytick_2">
     <g id="line2d_8">
      <path d="M 53.31 188.908777 
L 410.43 188.908777 
" clip-path="url(#pfa6ef4b8cb)" style="fill: none; stroke: #cccccc; stroke-linecap: round"/>
     </g>
     <g id="text_9">
      <!-- 40 -->
      <g style="fill: #262626" transform="translate(29.8125 193.087917) scale(0.11 -0.11)">
       <use xlink:href="#DejaVuSans-34"/>
       <use xlink:href="#DejaVuSans-30" x="63.623047"/>
      </g>
     </g>
    </g>
    <g id="ytick_3">
     <g id="line2d_9">
      <path d="M 53.31 131.467646 
L 410.43 131.467646 
" clip-path="url(#pfa6ef4b8cb)" style="fill: none; stroke: #cccccc; stroke-linecap: round"/>
     </g>
     <g id="text_10">
      <!-- 60 -->
      <g style="fill: #262626" transform="translate(29.8125 135.646787) scale(0.11 -0.11)">
       <use xlink:href="#DejaVuSans-36"/>
       <use xlink:href="#DejaVuSans-30" x="63.623047"/>
      </g>
     </g>
    </g>
    <g id="ytick_4">
     <g id="line2d_10">
      <path d="M 53.31 74.026515 
L 410.43 74.026515 
" clip-path="url(#pfa6ef4b8cb)" style="fill: none; stroke: #cccccc; stroke-linecap: round"/>
     </g>
     <g id="text_11">
      <!-- 80 -->
      <g style="fill: #262626" transform="translate(29.8125 78.205656) scale(0.11 -0.11)">
       <use xlink:href="#DejaVuSans-38"/>
       <use xlink:href="#DejaVuSans-30" x="63.623047"/>
      </g>
     </g>
    </g>
    <g id="ytick_5">
     <g id="line2d_11">
      <path d="M 53.31 16.585385 
L 410.43 16.585385 
" clip-path="url(#pfa6ef4b8cb)" style="fill: none; stroke: #cccccc; stroke-linecap: round"/>
     </g>
     <g id="text_12">
      <!-- 100 -->
      <g style="fill: #262626" transform="translate(22.81375 20.764525) scale(0.11 -0.11)">
       <use xlink:href="#DejaVuSans-31"/>
       <use xlink:href="#DejaVuSans-30" x="63.623047"/>
       <use xlink:href="#DejaVuSans-30" x="127.246094"/>
      </g>
     </g>
    </g>
    <g id="text_13">
     <!-- Accuracy (%) -->
     <g style="fill: #262626" transform="translate(16.318125 179.939437) rotate(-90) scale(0.12 -0.12)">
      <defs>
       <path id="DejaVuSans-41" d="M 2188 4044 
L 1331 1722 
L 3047 1722 
L 2188 4044 
z
M 1831 4666 
L 2547 4666 
L 4325 0 
L 3669 0 
L 3244 1197 
L 1141 1197 
L 716 0 
L 50 0 
L 1831 4666 
z
" transform="scale(0.015625)"/>
       <path id="DejaVuSans-63" d="M 3122 3366 
L 3122 2828 
Q 2878 2963 2633 3030 
Q 2388 3097 2138 3097 
Q 1578 3097 1268 2742 
Q 959 2388 959 1747 
Q 959 1106 1268 751 
Q 1578 397 2138 397 
Q 2388 397 2633 464 
Q 2878 531 3122 666 
L 3122 134 
Q 2881 22 2623 -34 
Q 2366 -91 2075 -91 
Q 1284 -91 818 406 
Q 353 903 353 1747 
Q 353 2603 823 3093 
Q 1294 3584 2113 3584 
Q 2378 3584 2631 3529 
Q 2884 3475 3122 3366 
z
" transform="scale(0.015625)"/>
       <path id="DejaVuSans-72" d="M 2631 2963 
Q 2534 3019 2420 3045 
Q 2306 3072 2169 3072 
Q 1681 3072 1420 2755 
Q 1159 2438 1159 1844 
L 1159 0 
L 581 0 
L 581 3500 
L 1159 3500 
L 1159 2956 
Q 1341 3275 1631 3429 
Q 1922 3584 2338 3584 
Q 2397 3584 2469 3576 
Q 2541 3569 2628 3553 
L 2631 2963 
z
" transform="scale(0.015625)"/>
       <path id="DejaVuSans-61" d="M 2194 1759 
Q 1497 1759 1228 1600 
Q 959 1441 959 1056 
Q 959 750 1161 570 
Q 1363 391 1709 391 
Q 2188 391 2477 730 
Q 2766 1069 2766 1631 
L 2766 1759 
L 2194 1759 
z
M 3341 1997 
L 3341 0 
L 2766 0 
L 2766 531 
Q 2569 213 2275 61 
Q 1981 -91 1556 -91 
Q 1019 -91 701 211 
Q 384 513 384 1019 
Q 384 1609 779 1909 
Q 1175 2209 1959 2209 
L 2766 2209 
L 2766 2266 
Q 2766 2663 2505 2880 
Q 2244 3097 1772 3097 
Q 1472 3097 1187 3025 
Q 903 2953 641 2809 
L 641 3341 
Q 956 3463 1253 3523 
Q 1550 3584 1831 3584 
Q 2591 3584 2966 3190 
Q 3341 2797 3341 1997 
z
" transform="scale(0.015625)"/>
       <path id="DejaVuSans-79" d="M 2059 -325 
Q 1816 -950 1584 -1140 
Q 1353 -1331 966 -1331 
L 506 -1331 
L 506 -850 
L 844 -850 
Q 1081 -850 1212 -737 
Q 1344 -625 1503 -206 
L 1606 56 
L 191 3500 
L 800 3500 
L 1894 763 
L 2988 3500 
L 3597 3500 
L 2059 -325 
z
" transform="scale(0.015625)"/>
       <path id="DejaVuSans-20" transform="scale(0.015625)"/>
       <path id="DejaVuSans-28" d="M 1984 4856 
Q 1566 4138 1362 3434 
Q 1159 2731 1159 2009 
Q 1159 1288 1364 580 
Q 1569 -128 1984 -844 
L 1484 -844 
Q 1016 -109 783 600 
Q 550 1309 550 2009 
Q 550 2706 781 3412 
Q 1013 4119 1484 4856 
L 1984 4856 
z
" transform="scale(0.015625)"/>
       <path id="DejaVuSans-25" d="M 4653 2053 
Q 4381 2053 4226 1822 
Q 4072 1591 4072 1178 
Q 4072 772 4226 539 
Q 4381 306 4653 306 
Q 4919 306 5073 539 
Q 5228 772 5228 1178 
Q 5228 1588 5073 1820 
Q 4919 2053 4653 2053 
z
M 4653 2450 
Q 5147 2450 5437 2106 
Q 5728 1763 5728 1178 
Q 5728 594 5436 251 
Q 5144 -91 4653 -91 
Q 4153 -91 3862 251 
Q 3572 594 3572 1178 
Q 3572 1766 3864 2108 
Q 4156 2450 4653 2450 
z
M 1428 4353 
Q 1159 4353 1004 4120 
Q 850 3888 850 3481 
Q 850 3069 1003 2837 
Q 1156 2606 1428 2606 
Q 1700 2606 1854 2837 
Q 2009 3069 2009 3481 
Q 2009 3884 1853 4118 
Q 1697 4353 1428 4353 
z
M 4250 4750 
L 4750 4750 
L 1831 -91 
L 1331 -91 
L 4250 4750 
z
M 1428 4750 
Q 1922 4750 2215 4408 
Q 2509 4066 2509 3481 
Q 2509 2891 2217 2550 
Q 1925 2209 1428 2209 
Q 931 2209 642 2551 
Q 353 2894 353 3481 
Q 353 4063 643 4406 
Q 934 4750 1428 4750 
z
" transform="scale(0.015625)"/>
       <path id="DejaVuSans-29" d="M 513 4856 
L 1013 4856 
Q 1481 4119 1714 3412 
Q 1947 2706 1947 2009 
Q 1947 1309 1714 600 
Q 1481 -109 1013 -844 
L 513 -844 
Q 928 -128 1133 580 
Q 1338 1288 1338 2009 
Q 1338 2731 1133 3434 
Q 928 4138 513 4856 
z
" transform="scale(0.015625)"/>
      </defs>
      <use xlink:href="#DejaVuSans-41"/>
      <use xlink:href="#DejaVuSans-63" x="66.658203"/>
      <use xlink:href="#DejaVuSans-63" x="121.638672"/>
      <use xlink:href="#DejaVuSans-75" x="176.619141"/>
      <use xlink:href="#DejaVuSans-72" x="239.998047"/>
      <use xlink:href="#DejaVuSans-61" x="281.111328"/>
      <use xlink:href="#DejaVuSans-63" x="342.390625"/>
      <use xlink:href="#DejaVuSans-79" x="397.371094"/>
      <use xlink:href="#DejaVuSans-20" x="456.550781"/>
      <use xlink:href="#DejaVuSans-28" x="488.337891"/>
      <use xlink:href="#DejaVuSans-25" x="527.351562"/>
      <use xlink:href="#DejaVuSans-29" x="622.371094"/>
     </g>
    </g>
   </g>
   <g id="PolyCollection_1">
    <defs>
     <path id="m60c6597d71" d="M 69.542727 -169.238488 
L 69.542727 -108.964913 
L 72.822066 -164.311811 
L 76.101405 -205.586528 
L 79.380744 -218.997418 
L 82.660083 -242.685489 
L 85.939421 -245.991153 
L 89.21876 -246.537149 
L 92.498099 -257.700556 
L 95.777438 -259.754276 
L 99.056777 -270.973903 
L 102.336116 -264.138811 
L 105.615455 -267.014246 
L 108.894793 -277.681876 
L 112.174132 -283.758361 
L 115.453471 -281.210534 
L 118.73281 -280.669193 
L 122.012149 -287.657509 
L 125.291488 -288.337731 
L 128.570826 -288.462216 
L 131.850165 -272.772668 
L 135.129504 -282.95896 
L 138.408843 -284.934498 
L 141.688182 -286.735686 
L 144.967521 -287.89761 
L 148.24686 -285.084489 
L 151.526198 -278.27227 
L 154.805537 -283.257436 
L 158.084876 -283.66796 
L 161.364215 -279.228613 
L 164.643554 -259.967518 
L 167.922893 -264.413755 
L 171.202231 -262.873139 
L 174.48157 -288.659332 
L 177.760909 -290.512203 
L 181.040248 -287.483196 
L 184.319587 -284.251834 
L 187.598926 -282.048987 
L 190.878264 -286.643999 
L 194.157603 -288.965204 
L 197.436942 -289.580706 
L 200.716281 -292.069086 
L 203.99562 -291.243653 
L 207.274959 -292.06886 
L 210.554298 -291.958008 
L 213.833636 -284.447236 
L 217.112975 -283.656344 
L 220.392314 -284.278377 
L 223.671653 -286.989451 
L 226.950992 -284.402827 
L 230.230331 -288.80619 
L 233.509669 -291.1773 
L 236.789008 -290.489794 
L 240.068347 -286.884624 
L 243.347686 -289.186336 
L 246.627025 -291.167611 
L 249.906364 -289.483995 
L 253.185702 -290.167506 
L 256.465041 -290.883928 
L 259.74438 -284.159609 
L 263.023719 -290.057037 
L 266.303058 -291.132429 
L 269.582397 -292.282745 
L 272.861736 -289.880059 
L 276.141074 -291.858133 
L 279.420413 -293.274257 
L 282.699752 -294.214939 
L 285.979091 -293.289539 
L 289.25843 -293.04866 
L 292.537769 -294.012945 
L 295.817107 -287.649826 
L 299.096446 -282.553696 
L 302.375785 -285.406091 
L 305.655124 -286.390948 
L 308.934463 -288.290578 
L 312.213802 -287.994576 
L 315.49314 -288.671849 
L 318.772479 -284.387812 
L 322.051818 -286.155964 
L 325.331157 -284.703449 
L 328.610496 -287.081615 
L 331.889835 -284.474485 
L 335.169174 -284.925368 
L 338.448512 -286.937793 
L 341.727851 -286.499649 
L 345.00719 -288.352686 
L 348.286529 -287.30396 
L 351.565868 -288.404359 
L 354.845207 -279.821931 
L 358.124545 -287.667146 
L 361.403884 -279.282191 
L 364.683223 -287.46693 
L 367.962562 -290.212659 
L 371.241901 -289.32295 
L 374.52124 -288.229381 
L 377.800579 -285.522986 
L 381.079917 -289.993681 
L 384.359256 -291.258488 
L 387.638595 -291.596993 
L 390.917934 -289.634914 
L 394.197273 -291.293142 
L 394.197273 -294.990658 
L 394.197273 -294.990658 
L 390.917934 -294.353377 
L 387.638595 -295.212121 
L 384.359256 -294.960294 
L 381.079917 -294.976197 
L 377.800579 -293.311983 
L 374.52124 -294.04569 
L 371.241901 -293.974195 
L 367.962562 -294.601229 
L 364.683223 -293.444256 
L 361.403884 -290.736411 
L 358.124545 -293.816013 
L 354.845207 -292.464016 
L 351.565868 -294.161327 
L 348.286529 -294.411173 
L 345.00719 -294.148022 
L 341.727851 -293.61029 
L 338.448512 -293.80951 
L 335.169174 -292.238854 
L 331.889835 -292.064324 
L 328.610496 -293.040214 
L 325.331157 -292.303281 
L 322.051818 -292.855498 
L 318.772479 -291.558442 
L 315.49314 -293.327809 
L 312.213802 -293.266445 
L 308.934463 -293.824046 
L 305.655124 -293.466207 
L 302.375785 -292.361789 
L 299.096446 -291.700228 
L 295.817107 -293.215486 
L 292.537769 -296.610777 
L 289.25843 -296.517409 
L 285.979091 -296.863101 
L 282.699752 -296.975687 
L 279.420413 -296.729844 
L 276.141074 -296.541987 
L 272.861736 -296.374591 
L 269.582397 -296.510211 
L 266.303058 -296.615809 
L 263.023719 -296.25389 
L 259.74438 -296.091238 
L 256.465041 -296.117849 
L 253.185702 -296.161133 
L 249.906364 -296.446149 
L 246.627025 -296.30948 
L 243.347686 -296.326173 
L 240.068347 -296.045716 
L 236.789008 -295.918065 
L 233.509669 -296.008042 
L 230.230331 -296.153302 
L 226.950992 -295.525366 
L 223.671653 -295.035135 
L 220.392314 -295.435361 
L 217.112975 -295.42123 
L 213.833636 -296.257489 
L 210.554298 -295.563219 
L 207.274959 -295.859307 
L 203.99562 -295.311697 
L 200.716281 -295.726452 
L 197.436942 -295.067245 
L 194.157603 -295.166834 
L 190.878264 -295.305687 
L 187.598926 -295.257574 
L 184.319587 -295.359519 
L 181.040248 -295.263609 
L 177.760909 -295.019407 
L 174.48157 -294.907032 
L 171.202231 -292.272342 
L 167.922893 -292.125583 
L 164.643554 -291.07749 
L 161.364215 -293.813937 
L 158.084876 -293.999324 
L 154.805537 -293.223208 
L 151.526198 -293.409468 
L 148.24686 -293.721882 
L 144.967521 -293.429122 
L 141.688182 -293.309212 
L 138.408843 -292.913683 
L 135.129504 -293.592591 
L 131.850165 -293.945911 
L 128.570826 -293.928291 
L 125.291488 -293.747891 
L 122.012149 -292.975538 
L 118.73281 -291.489933 
L 115.453471 -291.901712 
L 112.174132 -292.122838 
L 108.894793 -292.001496 
L 105.615455 -290.748011 
L 102.336116 -289.596289 
L 99.056777 -290.637556 
L 95.777438 -286.342765 
L 92.498099 -286.874869 
L 89.21876 -281.55545 
L 85.939421 -280.83865 
L 82.660083 -276.19269 
L 79.380744 -265.527946 
L 76.101405 -255.903836 
L 72.822066 -226.146593 
L 69.542727 -169.238488 
z
" style="stroke: #4c72b0; stroke-opacity: 0.2"/>
    </defs>
    <g clip-path="url(#pfa6ef4b8cb)">
     <use xlink:href="#m60c6597d71" x="0" y="316.271687" style="fill: #4c72b0; fill-opacity: 0.2; stroke: #4c72b0; stroke-opacity: 0.2"/>
    </g>
   </g>
   <g id="PolyCollection_2">
    <defs>
     <path id="m497012bff7" d="M 69.542727 -124.341755 
L 69.542727 -74.37071 
L 72.822066 -109.332795 
L 76.101405 -142.241088 
L 79.380744 -148.77822 
L 82.660083 -125.435792 
L 85.939421 -172.609659 
L 89.21876 -153.547752 
L 92.498099 -191.235257 
L 95.777438 -203.652954 
L 99.056777 -223.398953 
L 102.336116 -183.138473 
L 105.615455 -192.889647 
L 108.894793 -227.687221 
L 112.174132 -244.943966 
L 115.453471 -225.750224 
L 118.73281 -212.741807 
L 122.012149 -249.783144 
L 125.291488 -241.325877 
L 128.570826 -231.737169 
L 131.850165 -225.501164 
L 135.129504 -240.073767 
L 138.408843 -248.092501 
L 141.688182 -228.983355 
L 144.967521 -234.787518 
L 148.24686 -242.769543 
L 151.526198 -258.622431 
L 154.805537 -245.50388 
L 158.084876 -223.565722 
L 161.364215 -231.123306 
L 164.643554 -216.043308 
L 167.922893 -260.391735 
L 171.202231 -264.350377 
L 174.48157 -243.50454 
L 177.760909 -253.113625 
L 181.040248 -266.510915 
L 184.319587 -260.509729 
L 187.598926 -245.038403 
L 190.878264 -271.983462 
L 194.157603 -254.68519 
L 197.436942 -263.216426 
L 200.716281 -270.812683 
L 203.99562 -267.429709 
L 207.274959 -269.20546 
L 210.554298 -264.123184 
L 213.833636 -270.472615 
L 217.112975 -234.257445 
L 220.392314 -253.684376 
L 223.671653 -245.441664 
L 226.950992 -256.048375 
L 230.230331 -274.834818 
L 233.509669 -268.629479 
L 236.789008 -274.130758 
L 240.068347 -270.141 
L 243.347686 -272.409621 
L 246.627025 -273.695273 
L 249.906364 -247.702164 
L 253.185702 -254.213656 
L 256.465041 -241.67868 
L 259.74438 -275.856835 
L 263.023719 -260.31232 
L 266.303058 -246.040599 
L 269.582397 -276.724535 
L 272.861736 -275.395501 
L 276.141074 -270.214803 
L 279.420413 -258.993127 
L 282.699752 -274.388841 
L 285.979091 -262.834982 
L 289.25843 -271.92887 
L 292.537769 -262.285157 
L 295.817107 -275.364917 
L 299.096446 -262.337621 
L 302.375785 -275.119052 
L 305.655124 -272.826383 
L 308.934463 -279.531776 
L 312.213802 -280.085372 
L 315.49314 -275.614754 
L 318.772479 -270.635247 
L 322.051818 -279.001486 
L 325.331157 -276.250098 
L 328.610496 -277.521953 
L 331.889835 -275.326729 
L 335.169174 -270.619474 
L 338.448512 -269.023482 
L 341.727851 -281.426401 
L 345.00719 -281.496274 
L 348.286529 -279.298227 
L 351.565868 -281.519136 
L 354.845207 -268.906924 
L 358.124545 -281.511714 
L 361.403884 -260.329692 
L 364.683223 -279.115675 
L 367.962562 -281.635329 
L 371.241901 -280.286731 
L 374.52124 -279.699492 
L 377.800579 -262.829815 
L 381.079917 -273.050257 
L 384.359256 -283.01139 
L 387.638595 -285.947885 
L 390.917934 -275.970895 
L 394.197273 -282.557344 
L 394.197273 -288.022568 
L 394.197273 -288.022568 
L 390.917934 -286.199078 
L 387.638595 -289.42098 
L 384.359256 -288.370821 
L 381.079917 -285.668418 
L 377.800579 -279.866809 
L 374.52124 -285.958414 
L 371.241901 -286.755191 
L 367.962562 -287.216226 
L 364.683223 -285.951718 
L 361.403884 -274.747981 
L 358.124545 -287.594644 
L 354.845207 -281.52618 
L 351.565868 -286.836677 
L 348.286529 -286.392823 
L 345.00719 -286.346084 
L 341.727851 -286.761132 
L 338.448512 -282.107888 
L 335.169174 -280.419166 
L 331.889835 -282.327909 
L 328.610496 -285.410168 
L 325.331157 -283.487031 
L 322.051818 -285.321869 
L 318.772479 -280.61673 
L 315.49314 -284.058356 
L 312.213802 -285.65569 
L 308.934463 -285.108163 
L 305.655124 -282.060602 
L 302.375785 -282.456918 
L 299.096446 -276.410291 
L 295.817107 -282.571217 
L 292.537769 -279.51007 
L 289.25843 -283.234311 
L 285.979091 -280.881422 
L 282.699752 -284.257162 
L 279.420413 -279.441107 
L 276.141074 -281.702932 
L 272.861736 -283.590307 
L 269.582397 -284.618307 
L 266.303058 -275.41381 
L 263.023719 -279.835233 
L 259.74438 -284.862165 
L 256.465041 -274.543443 
L 253.185702 -278.965294 
L 249.906364 -276.051663 
L 246.627025 -283.441962 
L 243.347686 -283.317765 
L 240.068347 -281.811487 
L 236.789008 -283.197206 
L 233.509669 -279.625945 
L 230.230331 -282.312638 
L 226.950992 -275.562382 
L 223.671653 -270.991597 
L 220.392314 -274.955978 
L 217.112975 -267.925964 
L 213.833636 -279.075566 
L 210.554298 -278.884622 
L 207.274959 -279.757003 
L 203.99562 -277.602338 
L 200.716281 -280.813825 
L 197.436942 -278.367924 
L 194.157603 -276.718077 
L 190.878264 -280.382259 
L 187.598926 -269.935519 
L 184.319587 -275.618438 
L 181.040248 -278.479692 
L 177.760909 -275.215175 
L 174.48157 -267.380201 
L 171.202231 -275.425701 
L 167.922893 -272.077033 
L 164.643554 -255.301891 
L 161.364215 -266.968047 
L 158.084876 -261.957973 
L 154.805537 -269.511756 
L 151.526198 -271.379017 
L 148.24686 -268.11809 
L 144.967521 -264.475919 
L 141.688182 -265.762555 
L 138.408843 -267.780086 
L 135.129504 -262.638135 
L 131.850165 -259.382627 
L 128.570826 -262.921791 
L 125.291488 -264.681295 
L 122.012149 -264.067157 
L 118.73281 -248.401969 
L 115.453471 -257.790921 
L 112.174132 -264.228632 
L 108.894793 -256.868305 
L 105.615455 -238.694365 
L 102.336116 -231.363411 
L 99.056777 -253.60899 
L 95.777438 -235.924658 
L 92.498099 -231.120362 
L 89.21876 -205.456291 
L 85.939421 -217.467744 
L 82.660083 -178.267048 
L 79.380744 -200.398812 
L 76.101405 -195.808335 
L 72.822066 -165.527764 
L 69.542727 -124.341755 
z
" style="stroke: #dd8452; stroke-opacity: 0.2"/>
    </defs>
    <g clip-path="url(#pfa6ef4b8cb)">
     <use xlink:href="#m497012bff7" x="0" y="316.271687" style="fill: #dd8452; fill-opacity: 0.2; stroke: #dd8452; stroke-opacity: 0.2"/>
    </g>
   </g>
   <g id="PolyCollection_3">
    <defs>
     <path id="m937ccf1803" d="M 69.542727 -134.458241 
L 69.542727 -64.808348 
L 72.822066 -128.291631 
L 76.101405 -151.365357 
L 79.380744 -165.501565 
L 82.660083 -189.527708 
L 85.939421 -203.741839 
L 89.21876 -209.811048 
L 92.498099 -219.524903 
L 95.777438 -226.728122 
L 99.056777 -232.54147 
L 102.336116 -231.868299 
L 105.615455 -240.561081 
L 108.894793 -237.130823 
L 112.174132 -243.075436 
L 115.453471 -247.56364 
L 118.73281 -249.376579 
L 122.012149 -254.036407 
L 125.291488 -252.033347 
L 128.570826 -252.031017 
L 131.850165 -256.046998 
L 135.129504 -253.719389 
L 138.408843 -256.354896 
L 141.688182 -259.864272 
L 144.967521 -258.982494 
L 148.24686 -259.567139 
L 151.526198 -259.605034 
L 154.805537 -261.016698 
L 158.084876 -260.988522 
L 161.364215 -261.95715 
L 164.643554 -267.200193 
L 167.922893 -269.233563 
L 171.202231 -263.838437 
L 174.48157 -267.84837 
L 177.760909 -269.711891 
L 181.040248 -265.774635 
L 184.319587 -274.322301 
L 187.598926 -276.976273 
L 190.878264 -277.220143 
L 194.157603 -274.048198 
L 197.436942 -274.58391 
L 200.716281 -275.420536 
L 203.99562 -274.743385 
L 207.274959 -275.894918 
L 210.554298 -276.680741 
L 213.833636 -278.516771 
L 217.112975 -272.527332 
L 220.392314 -281.029984 
L 223.671653 -281.417875 
L 226.950992 -279.575891 
L 230.230331 -280.363841 
L 233.509669 -279.506863 
L 236.789008 -281.135408 
L 240.068347 -278.892002 
L 243.347686 -279.103521 
L 246.627025 -279.321383 
L 249.906364 -279.192472 
L 253.185702 -284.211619 
L 256.465041 -283.079561 
L 259.74438 -284.668345 
L 263.023719 -287.399824 
L 266.303058 -286.899911 
L 269.582397 -284.154489 
L 272.861736 -285.189378 
L 276.141074 -284.222748 
L 279.420413 -287.751761 
L 282.699752 -287.989575 
L 285.979091 -288.074567 
L 289.25843 -288.650356 
L 292.537769 -288.517307 
L 295.817107 -185.008497 
L 299.096446 -175.848216 
L 302.375785 -187.67314 
L 305.655124 -177.774493 
L 308.934463 -188.097317 
L 312.213802 -188.471186 
L 315.49314 -187.287708 
L 318.772479 -180.811929 
L 322.051818 -185.723626 
L 325.331157 -175.935591 
L 328.610496 -175.947777 
L 331.889835 -194.741759 
L 335.169174 -185.155411 
L 338.448512 -179.191331 
L 341.727851 -177.512907 
L 345.00719 -181.917494 
L 348.286529 -185.884811 
L 351.565868 -180.801748 
L 354.845207 -195.213207 
L 358.124545 -186.523347 
L 361.403884 -189.043461 
L 364.683223 -183.802451 
L 367.962562 -189.471179 
L 371.241901 -194.331997 
L 374.52124 -183.435901 
L 377.800579 -185.255985 
L 381.079917 -181.692854 
L 384.359256 -184.887464 
L 387.638595 -182.166774 
L 390.917934 -182.657878 
L 394.197273 -187.444384 
L 394.197273 -249.255055 
L 394.197273 -249.255055 
L 390.917934 -250.995197 
L 387.638595 -249.959735 
L 384.359256 -251.159758 
L 381.079917 -246.961707 
L 377.800579 -253.395854 
L 374.52124 -246.073381 
L 371.241901 -254.72239 
L 367.962562 -249.547028 
L 364.683223 -249.63082 
L 361.403884 -253.345494 
L 358.124545 -249.649801 
L 354.845207 -255.479449 
L 351.565868 -248.189239 
L 348.286529 -248.204181 
L 345.00719 -251.043534 
L 341.727851 -246.389424 
L 338.448512 -246.816251 
L 335.169174 -247.002596 
L 331.889835 -253.719256 
L 328.610496 -240.701049 
L 325.331157 -245.909861 
L 322.051818 -247.365679 
L 318.772479 -246.394087 
L 315.49314 -250.114875 
L 312.213802 -252.241809 
L 308.934463 -251.212478 
L 305.655124 -243.118845 
L 302.375785 -251.877085 
L 299.096446 -244.005866 
L 295.817107 -248.102709 
L 292.537769 -294.840766 
L 289.25843 -295.198061 
L 285.979091 -295.220739 
L 282.699752 -294.8375 
L 279.420413 -294.753754 
L 276.141074 -294.622301 
L 272.861736 -295.257836 
L 269.582397 -295.391944 
L 266.303058 -295.446431 
L 263.023719 -295.415884 
L 259.74438 -295.32729 
L 256.465041 -294.93653 
L 253.185702 -295.499094 
L 249.906364 -295.346406 
L 246.627025 -295.23547 
L 243.347686 -295.334395 
L 240.068347 -294.991081 
L 236.789008 -295.065739 
L 233.509669 -294.548015 
L 230.230331 -294.410604 
L 226.950992 -294.517962 
L 223.671653 -294.385886 
L 220.392314 -294.243635 
L 217.112975 -294.015438 
L 213.833636 -293.713128 
L 210.554298 -293.422722 
L 207.274959 -293.709327 
L 203.99562 -293.22095 
L 200.716281 -293.008691 
L 197.436942 -293.044904 
L 194.157603 -293.175866 
L 190.878264 -293.424123 
L 187.598926 -292.914044 
L 184.319587 -292.605906 
L 181.040248 -292.968498 
L 177.760909 -291.84689 
L 174.48157 -292.284103 
L 171.202231 -292.542295 
L 167.922893 -291.399966 
L 164.643554 -291.792757 
L 161.364215 -292.098452 
L 158.084876 -291.534342 
L 154.805537 -290.703081 
L 151.526198 -290.353999 
L 148.24686 -290.080092 
L 144.967521 -290.423556 
L 141.688182 -290.115201 
L 138.408843 -289.848547 
L 135.129504 -288.710051 
L 131.850165 -289.262321 
L 128.570826 -286.011588 
L 125.291488 -286.586106 
L 122.012149 -287.590856 
L 118.73281 -285.276685 
L 115.453471 -285.017389 
L 112.174132 -282.677363 
L 108.894793 -283.200062 
L 105.615455 -280.116017 
L 102.336116 -278.408374 
L 99.056777 -278.35886 
L 95.777438 -273.94919 
L 92.498099 -270.133706 
L 89.21876 -260.208257 
L 85.939421 -259.695 
L 82.660083 -245.98821 
L 79.380744 -229.930314 
L 76.101405 -218.517124 
L 72.822066 -194.302515 
L 69.542727 -134.458241 
z
" style="stroke: #55a868; stroke-opacity: 0.2"/>
    </defs>
    <g clip-path="url(#pfa6ef4b8cb)">
     <use xlink:href="#m937ccf1803" x="0" y="316.271687" style="fill: #55a868; fill-opacity: 0.2; stroke: #55a868; stroke-opacity: 0.2"/>
    </g>
   </g>
   <g id="PolyCollection_4">
    <defs>
     <path id="m3fd5502018" d="M 69.542727 -129.892906 
L 69.542727 -70.108513 
L 72.822066 -86.81315 
L 76.101405 -119.047 
L 79.380744 -144.373025 
L 82.660083 -164.794178 
L 85.939421 -179.689917 
L 89.21876 -206.241746 
L 92.498099 -207.020996 
L 95.777438 -216.209915 
L 99.056777 -226.135827 
L 102.336116 -227.375634 
L 105.615455 -232.208518 
L 108.894793 -230.270571 
L 112.174132 -239.444425 
L 115.453471 -247.483479 
L 118.73281 -246.803804 
L 122.012149 -250.630682 
L 125.291488 -251.056112 
L 128.570826 -253.855851 
L 131.850165 -255.839091 
L 135.129504 -256.381793 
L 138.408843 -261.38571 
L 141.688182 -261.64723 
L 144.967521 -262.904603 
L 148.24686 -263.717238 
L 151.526198 -265.475876 
L 154.805537 -267.394432 
L 158.084876 -267.160196 
L 161.364215 -269.797527 
L 164.643554 -270.155218 
L 167.922893 -270.235827 
L 171.202231 -270.717748 
L 174.48157 -271.519025 
L 177.760909 -272.245695 
L 181.040248 -273.940265 
L 184.319587 -273.493303 
L 187.598926 -272.674014 
L 190.878264 -272.678404 
L 194.157603 -274.787195 
L 197.436942 -273.460255 
L 200.716281 -275.055032 
L 203.99562 -275.806169 
L 207.274959 -276.817526 
L 210.554298 -276.0995 
L 213.833636 -279.248887 
L 217.112975 -279.612561 
L 220.392314 -279.49988 
L 223.671653 -278.218453 
L 226.950992 -279.20247 
L 230.230331 -279.552507 
L 233.509669 -279.695847 
L 236.789008 -281.07423 
L 240.068347 -279.800895 
L 243.347686 -280.554566 
L 246.627025 -280.003787 
L 249.906364 -280.895407 
L 253.185702 -282.300823 
L 256.465041 -282.36986 
L 259.74438 -282.439108 
L 263.023719 -281.822171 
L 266.303058 -282.081154 
L 269.582397 -283.958224 
L 272.861736 -283.804425 
L 276.141074 -284.168831 
L 279.420413 -284.215866 
L 282.699752 -284.35499 
L 285.979091 -285.033853 
L 289.25843 -285.238476 
L 292.537769 -285.815186 
L 295.817107 -182.175068 
L 299.096446 -183.139572 
L 302.375785 -188.423955 
L 305.655124 -185.423822 
L 308.934463 -172.313873 
L 312.213802 -180.422852 
L 315.49314 -171.421351 
L 318.772479 -173.183885 
L 322.051818 -178.216734 
L 325.331157 -192.446095 
L 328.610496 -182.170414 
L 331.889835 -185.467367 
L 335.169174 -187.531082 
L 338.448512 -190.780123 
L 341.727851 -179.831377 
L 345.00719 -185.272809 
L 348.286529 -184.145606 
L 351.565868 -182.440819 
L 354.845207 -177.353808 
L 358.124545 -190.00076 
L 361.403884 -185.859595 
L 364.683223 -191.154615 
L 367.962562 -185.537289 
L 371.241901 -178.368752 
L 374.52124 -189.750074 
L 377.800579 -177.78852 
L 381.079917 -187.614588 
L 384.359256 -178.312685 
L 387.638595 -180.098007 
L 390.917934 -184.858617 
L 394.197273 -186.317732 
L 394.197273 -251.059899 
L 394.197273 -251.059899 
L 390.917934 -252.011217 
L 387.638595 -247.433062 
L 384.359256 -245.044733 
L 381.079917 -250.434602 
L 377.800579 -245.489767 
L 374.52124 -252.957755 
L 371.241901 -244.652461 
L 367.962562 -250.648761 
L 364.683223 -250.989219 
L 361.403884 -250.910818 
L 358.124545 -251.706096 
L 354.845207 -244.768154 
L 351.565868 -249.757178 
L 348.286529 -251.276945 
L 345.00719 -250.6615 
L 341.727851 -246.534091 
L 338.448512 -252.089747 
L 335.169174 -250.082962 
L 331.889835 -250.210234 
L 328.610496 -247.036034 
L 325.331157 -253.513358 
L 322.051818 -246.174108 
L 318.772479 -245.477348 
L 315.49314 -242.791044 
L 312.213802 -249.319608 
L 308.934463 -243.986623 
L 305.655124 -249.270353 
L 302.375785 -249.617015 
L 299.096446 -246.762951 
L 295.817107 -245.19781 
L 292.537769 -295.611843 
L 289.25843 -295.561016 
L 285.979091 -295.593714 
L 282.699752 -295.168288 
L 279.420413 -295.116731 
L 276.141074 -295.030207 
L 272.861736 -295.181777 
L 269.582397 -295.242105 
L 266.303058 -295.252106 
L 263.023719 -295.102077 
L 259.74438 -294.803672 
L 256.465041 -294.817074 
L 253.185702 -294.879437 
L 249.906364 -294.926636 
L 246.627025 -294.620588 
L 243.347686 -294.441589 
L 240.068347 -294.411872 
L 236.789008 -294.478728 
L 233.509669 -294.265368 
L 230.230331 -294.042383 
L 226.950992 -293.991404 
L 223.671653 -294.288969 
L 220.392314 -293.835877 
L 217.112975 -293.952007 
L 213.833636 -293.802575 
L 210.554298 -293.644778 
L 207.274959 -293.53368 
L 203.99562 -293.171147 
L 200.716281 -293.119167 
L 197.436942 -292.843786 
L 194.157603 -293.132512 
L 190.878264 -292.509146 
L 187.598926 -292.511923 
L 184.319587 -292.072741 
L 181.040248 -292.075135 
L 177.760909 -291.870798 
L 174.48157 -291.174751 
L 171.202231 -291.29351 
L 167.922893 -291.250473 
L 164.643554 -291.227684 
L 161.364215 -290.55664 
L 158.084876 -290.720978 
L 154.805537 -289.899104 
L 151.526198 -288.926897 
L 148.24686 -288.780329 
L 144.967521 -288.005998 
L 141.688182 -287.302421 
L 138.408843 -286.731046 
L 135.129504 -284.781279 
L 131.850165 -284.051531 
L 128.570826 -282.47429 
L 125.291488 -282.283024 
L 122.012149 -280.561189 
L 118.73281 -280.165945 
L 115.453471 -278.606429 
L 112.174132 -275.803235 
L 108.894793 -272.725308 
L 105.615455 -270.752357 
L 102.336116 -270.503804 
L 99.056777 -266.819549 
L 95.777438 -261.502399 
L 92.498099 -253.608608 
L 89.21876 -250.632899 
L 85.939421 -232.991469 
L 82.660083 -219.546635 
L 79.380744 -199.431295 
L 76.101405 -168.37841 
L 72.822066 -138.243569 
L 69.542727 -129.892906 
z
" style="stroke: #c44e52; stroke-opacity: 0.2"/>
    </defs>
    <g clip-path="url(#pfa6ef4b8cb)">
     <use xlink:href="#m3fd5502018" x="0" y="316.271687" style="fill: #c44e52; fill-opacity: 0.2; stroke: #c44e52; stroke-opacity: 0.2"/>
    </g>
   </g>
   <g id="PolyCollection_5">
    <defs>
     <path id="m60e98fb03c" d="M 69.542727 -112.438575 
L 69.542727 -55.055688 
L 72.822066 -93.821903 
L 76.101405 -104.921249 
L 79.380744 -111.391641 
L 82.660083 -121.871336 
L 85.939421 -125.759733 
L 89.21876 -136.509108 
L 92.498099 -139.030021 
L 95.777438 -144.072927 
L 99.056777 -141.215846 
L 102.336116 -149.366663 
L 105.615455 -146.970791 
L 108.894793 -148.483884 
L 112.174132 -153.728265 
L 115.453471 -168.721147 
L 118.73281 -171.158086 
L 122.012149 -175.382022 
L 125.291488 -178.049371 
L 128.570826 -180.236823 
L 131.850165 -182.493098 
L 135.129504 -183.50334 
L 138.408843 -184.785746 
L 141.688182 -187.121874 
L 144.967521 -187.767741 
L 148.24686 -190.848707 
L 151.526198 -191.326594 
L 154.805537 -190.973584 
L 158.084876 -192.858839 
L 161.364215 -198.668513 
L 164.643554 -204.268353 
L 167.922893 -210.99979 
L 171.202231 -208.16334 
L 174.48157 -212.751973 
L 177.760909 -214.635909 
L 181.040248 -215.972104 
L 184.319587 -217.345544 
L 187.598926 -219.124336 
L 190.878264 -221.415837 
L 194.157603 -220.495136 
L 197.436942 -222.517002 
L 200.716281 -224.210396 
L 203.99562 -224.273039 
L 207.274959 -226.479915 
L 210.554298 -226.367087 
L 213.833636 -228.928814 
L 217.112975 -229.423032 
L 220.392314 -234.738486 
L 223.671653 -236.796514 
L 226.950992 -237.066538 
L 230.230331 -237.962433 
L 233.509669 -239.213651 
L 236.789008 -240.575285 
L 240.068347 -240.372763 
L 243.347686 -240.469794 
L 246.627025 -240.750158 
L 249.906364 -243.079245 
L 253.185702 -241.412662 
L 256.465041 -241.90336 
L 259.74438 -241.823654 
L 263.023719 -243.156301 
L 266.303058 -242.972623 
L 269.582397 -243.106053 
L 272.861736 -245.667634 
L 276.141074 -244.675022 
L 279.420413 -246.766027 
L 282.699752 -246.815381 
L 285.979091 -247.741976 
L 289.25843 -247.881033 
L 292.537769 -250.323815 
L 295.817107 -174.5877 
L 299.096446 -166.956499 
L 302.375785 -168.763931 
L 305.655124 -168.140853 
L 308.934463 -179.425604 
L 312.213802 -173.489841 
L 315.49314 -162.898736 
L 318.772479 -167.733631 
L 322.051818 -167.76306 
L 325.331157 -174.047584 
L 328.610496 -164.485792 
L 331.889835 -165.502559 
L 335.169174 -168.847899 
L 338.448512 -172.241431 
L 341.727851 -165.879921 
L 345.00719 -165.885728 
L 348.286529 -176.676439 
L 351.565868 -175.639503 
L 354.845207 -172.733412 
L 358.124545 -166.441559 
L 361.403884 -176.276067 
L 364.683223 -161.692155 
L 367.962562 -178.459833 
L 371.241901 -166.011306 
L 374.52124 -165.424814 
L 377.800579 -173.813807 
L 381.079917 -161.850242 
L 384.359256 -171.565863 
L 387.638595 -175.286264 
L 390.917934 -165.033104 
L 394.197273 -173.58616 
L 394.197273 -239.626344 
L 394.197273 -239.626344 
L 390.917934 -233.771999 
L 387.638595 -239.466419 
L 384.359256 -236.571556 
L 381.079917 -234.112104 
L 377.800579 -238.532421 
L 374.52124 -235.25768 
L 371.241901 -236.206824 
L 367.962562 -242.585407 
L 364.683223 -233.676976 
L 361.403884 -241.701979 
L 358.124545 -235.639976 
L 354.845207 -237.592578 
L 351.565868 -238.108741 
L 348.286529 -239.271883 
L 345.00719 -231.239683 
L 341.727851 -232.903786 
L 338.448512 -236.61612 
L 335.169174 -236.420254 
L 331.889835 -233.835814 
L 328.610496 -232.20552 
L 325.331157 -240.989309 
L 322.051818 -236.021792 
L 318.772479 -235.375642 
L 315.49314 -229.200001 
L 312.213802 -239.308143 
L 308.934463 -242.181677 
L 305.655124 -234.313808 
L 302.375785 -236.093689 
L 299.096446 -231.16816 
L 295.817107 -237.770687 
L 292.537769 -287.291783 
L 289.25843 -287.019928 
L 285.979091 -285.823107 
L 282.699752 -286.353479 
L 279.420413 -285.960199 
L 276.141074 -286.250799 
L 272.861736 -284.883782 
L 269.582397 -283.973749 
L 266.303058 -284.357122 
L 263.023719 -284.2056 
L 259.74438 -283.708117 
L 256.465041 -282.610374 
L 253.185702 -282.169308 
L 249.906364 -281.791987 
L 246.627025 -283.200549 
L 243.347686 -283.292219 
L 240.068347 -281.404809 
L 236.789008 -282.798805 
L 233.509669 -280.848134 
L 230.230331 -277.890785 
L 226.950992 -277.968633 
L 223.671653 -278.052996 
L 220.392314 -277.230488 
L 217.112975 -271.428346 
L 213.833636 -271.357792 
L 210.554298 -270.590704 
L 207.274959 -270.370775 
L 203.99562 -268.705293 
L 200.716281 -266.588556 
L 197.436942 -265.864765 
L 194.157603 -267.343112 
L 190.878264 -264.45221 
L 187.598926 -264.729156 
L 184.319587 -261.763374 
L 181.040248 -262.217198 
L 177.760909 -259.982862 
L 174.48157 -258.229359 
L 171.202231 -255.4063 
L 167.922893 -256.19595 
L 164.643554 -253.121689 
L 161.364215 -248.415398 
L 158.084876 -246.095306 
L 154.805537 -243.314985 
L 151.526198 -246.771872 
L 148.24686 -244.46312 
L 144.967521 -241.22405 
L 141.688182 -239.768658 
L 138.408843 -237.50433 
L 135.129504 -235.603507 
L 131.850165 -235.943351 
L 128.570826 -234.163417 
L 125.291488 -229.859883 
L 122.012149 -227.309708 
L 118.73281 -225.460036 
L 115.453471 -222.180346 
L 112.174132 -213.890679 
L 108.894793 -206.576174 
L 105.615455 -202.404717 
L 102.336116 -202.388626 
L 99.056777 -198.410681 
L 95.777438 -196.555973 
L 92.498099 -195.266051 
L 89.21876 -188.125662 
L 85.939421 -176.733985 
L 82.660083 -172.755913 
L 79.380744 -166.817233 
L 76.101405 -157.291479 
L 72.822066 -150.315107 
L 69.542727 -112.438575 
z
" style="stroke: #8172b3; stroke-opacity: 0.2"/>
    </defs>
    <g clip-path="url(#pfa6ef4b8cb)">
     <use xlink:href="#m60e98fb03c" x="0" y="316.271687" style="fill: #8172b3; fill-opacity: 0.2; stroke: #8172b3; stroke-opacity: 0.2"/>
    </g>
   </g>
   <g id="line2d_12">
    <path d="M 69.542727 176.961366 
L 72.822066 119.177427 
L 76.101405 84.073938 
L 79.380744 71.984475 
L 82.660083 55.581955 
L 85.939421 51.413362 
L 89.21876 49.337021 
L 92.498099 42.729034 
L 95.777438 41.510429 
L 99.056777 33.432548 
L 102.336116 35.990648 
L 105.615455 34.395024 
L 108.894793 29.93289 
L 112.174132 27.949809 
L 115.453471 29.105344 
L 118.73281 29.316079 
L 122.012149 25.674722 
L 125.291488 25.101385 
L 128.570826 24.726393 
L 131.850165 29.895094 
L 135.129504 27.291739 
L 138.408843 26.794602 
L 141.688182 25.795783 
L 144.967521 25.277656 
L 148.24686 26.444958 
L 151.526198 28.828067 
L 154.805537 27.315519 
L 158.084876 26.328919 
L 161.364215 28.008021 
L 164.643554 37.238237 
L 167.922893 34.926953 
L 171.202231 35.565215 
L 174.48157 24.113143 
L 177.760909 23.258116 
L 181.040248 24.13795 
L 184.319587 25.277098 
L 187.598926 25.397051 
L 190.878264 24.412863 
L 194.157603 23.670281 
L 197.436942 23.638031 
L 200.716281 22.238011 
L 203.99562 22.947302 
L 207.274959 22.181349 
L 210.554298 22.427058 
L 213.833636 24.124197 
L 217.112975 25.174967 
L 220.392314 25.141397 
L 223.671653 24.24118 
L 226.950992 24.854085 
L 230.230331 22.892938 
L 233.509669 22.269685 
L 236.789008 22.583306 
L 240.068347 23.740974 
L 243.347686 22.815146 
L 246.627025 22.151652 
L 249.906364 22.443691 
L 253.185702 22.418835 
L 256.465041 22.372324 
L 259.74438 24.913307 
L 263.023719 22.739603 
L 266.303058 22.027776 
L 269.582397 21.775511 
L 272.861736 22.694003 
L 276.141074 21.728803 
L 279.420413 21.129782 
L 282.699752 20.55954 
L 285.979091 21.022852 
L 289.25843 21.36214 
L 292.537769 20.849027 
L 295.817107 25.590586 
L 299.096446 28.610283 
L 302.375785 27.467291 
L 305.655124 26.006707 
L 308.934463 25.061002 
L 312.213802 25.427792 
L 315.49314 25.043706 
L 318.772479 27.962549 
L 322.051818 26.493428 
L 325.331157 27.674137 
L 328.610496 25.894857 
L 331.889835 27.588808 
L 335.169174 27.558628 
L 338.448512 25.626625 
L 341.727851 25.792423 
L 345.00719 24.776341 
L 348.286529 24.919674 
L 351.565868 24.697641 
L 354.845207 29.273786 
L 358.124545 25.187108 
L 361.403884 31.264753 
L 364.683223 25.652243 
L 367.962562 23.659915 
L 371.241901 24.493242 
L 374.52124 24.95226 
L 377.800579 26.444655 
L 381.079917 23.505381 
L 384.359256 23.022169 
L 387.638595 22.68129 
L 390.917934 24.106887 
L 394.197273 23.061045 
" clip-path="url(#pfa6ef4b8cb)" style="fill: none; stroke: #4c72b0; stroke-width: 1.5; stroke-linecap: round"/>
   </g>
   <g id="line2d_13">
    <path d="M 69.542727 218.551018 
L 72.822066 178.398904 
L 76.101405 147.579695 
L 79.380744 141.314139 
L 82.660083 164.069919 
L 85.939421 121.613604 
L 89.21876 136.051251 
L 92.498099 104.718928 
L 95.777438 96.250062 
L 99.056777 76.321215 
L 102.336116 107.583501 
L 105.615455 99.382877 
L 108.894793 72.322377 
L 112.174132 60.937134 
L 115.453471 73.822222 
L 118.73281 85.298303 
L 122.012149 59.135362 
L 125.291488 62.700142 
L 128.570826 67.985177 
L 131.850165 72.599932 
L 135.129504 64.475401 
L 138.408843 58.115708 
L 141.688182 67.569927 
L 144.967521 65.189321 
L 148.24686 60.383229 
L 151.526198 51.183926 
L 154.805537 58.054648 
L 158.084876 73.286222 
L 161.364215 65.226206 
L 164.643554 79.180716 
L 167.922893 49.873497 
L 171.202231 46.319885 
L 174.48157 60.301556 
L 177.760909 51.24629 
L 181.040248 43.309986 
L 184.319587 47.891564 
L 187.598926 58.00849 
L 190.878264 40.16208 
L 194.157603 49.77405 
L 197.436942 45.011999 
L 200.716281 40.12819 
L 203.99562 43.696794 
L 207.274959 41.772008 
L 210.554298 44.063605 
L 213.833636 41.67869 
L 217.112975 64.551609 
L 220.392314 51.171026 
L 223.671653 57.078518 
L 226.950992 50.148467 
L 230.230331 37.397825 
L 233.509669 42.025192 
L 236.789008 37.769526 
L 240.068347 39.891139 
L 243.347686 38.283099 
L 246.627025 37.178957 
L 249.906364 53.356259 
L 253.185702 48.83085 
L 256.465041 56.83912 
L 259.74438 35.709507 
L 263.023719 45.538858 
L 266.303058 53.798474 
L 269.582397 35.387861 
L 272.861736 36.565191 
L 276.141074 40.217659 
L 279.420413 46.529208 
L 282.699752 36.745129 
L 285.979091 43.790908 
L 289.25843 38.441513 
L 292.537769 44.960844 
L 295.817107 37.068432 
L 299.096446 46.882818 
L 302.375785 37.337596 
L 305.655124 38.310494 
L 308.934463 34.016017 
L 312.213802 33.426429 
L 315.49314 36.324288 
L 318.772479 40.294809 
L 322.051818 34.014994 
L 325.331157 36.260293 
L 328.610496 34.644199 
L 331.889835 37.471646 
L 335.169174 40.476179 
L 338.448512 40.159305 
L 341.727851 32.011229 
L 345.00719 32.209028 
L 348.286529 33.066526 
L 351.565868 31.89923 
L 354.845207 40.9011 
L 358.124545 31.679455 
L 361.403884 48.184997 
L 364.683223 33.733309 
L 367.962562 31.655387 
L 371.241901 32.466186 
L 374.52124 33.246524 
L 377.800579 44.806023 
L 381.079917 36.216035 
L 384.359256 30.49275 
L 387.638595 28.521853 
L 390.917934 34.664297 
L 394.197273 30.92029 
" clip-path="url(#pfa6ef4b8cb)" style="fill: none; stroke: #dd8452; stroke-width: 1.5; stroke-linecap: round"/>
   </g>
   <g id="line2d_14">
    <path d="M 69.542727 217.506287 
L 72.822066 153.836511 
L 76.101405 129.451471 
L 79.380744 118.731569 
L 82.660083 96.10458 
L 85.939421 83.634021 
L 89.21876 79.084929 
L 92.498099 69.250326 
L 95.777438 62.83293 
L 99.056777 58.91798 
L 102.336116 57.513224 
L 105.615455 52.925188 
L 108.894793 53.163084 
L 112.174132 51.32226 
L 115.453471 48.366381 
L 118.73281 47.983372 
L 122.012149 43.192313 
L 125.291488 44.804251 
L 128.570826 44.779469 
L 131.850165 42.3203 
L 135.129504 41.719014 
L 138.408843 40.33634 
L 141.688182 38.955899 
L 144.967521 38.60943 
L 148.24686 39.334223 
L 151.526198 38.420712 
L 154.805537 37.879756 
L 158.084876 37.681526 
L 161.364215 37.181066 
L 164.643554 35.539883 
L 167.922893 34.451554 
L 171.202231 35.648439 
L 174.48157 34.581749 
L 177.760909 34.036279 
L 181.040248 33.887376 
L 184.319587 31.661999 
L 187.598926 30.192426 
L 190.878264 30.191162 
L 194.157603 31.102326 
L 197.436942 30.987173 
L 200.716281 30.60377 
L 203.99562 30.933424 
L 207.274959 29.921664 
L 210.554298 29.506964 
L 213.833636 29.028594 
L 217.112975 30.749884 
L 220.392314 27.450096 
L 223.671653 27.230851 
L 226.950992 27.562885 
L 230.230331 27.368029 
L 233.509669 27.40864 
L 236.789008 26.552939 
L 240.068347 27.352126 
L 243.347686 27.285002 
L 246.627025 27.126234 
L 249.906364 27.114886 
L 253.185702 25.460556 
L 256.465041 25.815896 
L 259.74438 24.997934 
L 263.023719 24.437358 
L 266.303058 24.424663 
L 269.582397 25.448724 
L 272.861736 25.212247 
L 276.141074 26.213323 
L 279.420413 24.773175 
L 282.699752 24.510817 
L 285.979091 23.972544 
L 289.25843 23.946548 
L 292.537769 24.264033 
L 295.817107 97.700694 
L 299.096446 104.255203 
L 302.375785 96.086443 
L 305.655124 104.261183 
L 308.934463 95.17785 
L 312.213802 96.891917 
L 315.49314 95.627 
L 318.772479 101.302046 
L 322.051818 97.486036 
L 325.331157 103.688374 
L 328.610496 107.099183 
L 331.889835 90.583933 
L 335.169174 99.400359 
L 338.448512 104.26807 
L 341.727851 103.34583 
L 345.00719 97.917856 
L 348.286529 97.259167 
L 351.565868 101.19223 
L 354.845207 90.509403 
L 358.124545 97.909291 
L 361.403884 95.653756 
L 364.683223 98.18166 
L 367.962562 95.263955 
L 371.241901 89.997763 
L 374.52124 99.245573 
L 377.800579 95.915693 
L 381.079917 99.556513 
L 384.359256 99.209546 
L 387.638595 99.137515 
L 390.917934 99.707468 
L 394.197273 96.866154 
" clip-path="url(#pfa6ef4b8cb)" style="fill: none; stroke: #55a868; stroke-width: 1.5; stroke-linecap: round"/>
   </g>
   <g id="line2d_15">
    <path d="M 69.542727 217.760882 
L 72.822066 205.514097 
L 76.101405 172.942809 
L 79.380744 144.972261 
L 82.660083 123.982624 
L 85.939421 108.049028 
L 89.21876 86.71586 
L 92.498099 84.214004 
L 95.777438 74.623099 
L 99.056777 68.246896 
L 102.336116 65.527813 
L 105.615455 63.294321 
L 108.894793 61.857727 
L 112.174132 57.271217 
L 115.453471 52.693191 
L 118.73281 51.17476 
L 122.012149 49.559039 
L 125.291488 46.985619 
L 128.570826 45.996524 
L 131.850165 44.560381 
L 135.129504 43.008141 
L 138.408843 39.90458 
L 141.688182 38.293627 
L 144.967521 38.128985 
L 148.24686 37.397521 
L 151.526198 36.492708 
L 154.805537 35.097636 
L 158.084876 34.118272 
L 161.364215 33.570973 
L 164.643554 33.032135 
L 167.922893 33.28705 
L 171.202231 32.84925 
L 174.48157 32.75819 
L 177.760909 32.324255 
L 181.040248 31.824016 
L 184.319587 31.627362 
L 187.598926 31.510741 
L 190.878264 31.224717 
L 194.157603 30.614454 
L 197.436942 30.460758 
L 200.716281 30.347746 
L 203.99562 29.932168 
L 207.274959 29.534339 
L 210.554298 29.55208 
L 213.833636 28.247658 
L 217.112975 27.878771 
L 220.392314 27.786545 
L 223.671653 28.204134 
L 226.950992 27.727266 
L 230.230331 27.706176 
L 233.509669 27.507529 
L 236.789008 27.068219 
L 240.068347 27.264659 
L 243.347686 27.198676 
L 246.627025 27.419127 
L 249.906364 26.914687 
L 253.185702 26.271092 
L 256.465041 26.109674 
L 259.74438 26.167296 
L 263.023719 26.149087 
L 266.303058 26.192365 
L 269.582397 25.647125 
L 272.861736 25.476254 
L 276.141074 25.501192 
L 279.420413 25.430318 
L 282.699752 25.298408 
L 285.979091 24.828983 
L 289.25843 24.731341 
L 292.537769 24.487003 
L 295.817107 102.07093 
L 299.096446 101.019223 
L 302.375785 96.218712 
L 305.655124 97.975647 
L 308.934463 107.25143 
L 312.213802 101.264588 
L 315.49314 105.886428 
L 318.772479 104.870203 
L 322.051818 102.301395 
L 325.331157 91.669949 
L 328.610496 102.020652 
L 331.889835 98.67686 
L 335.169174 96.394218 
L 338.448512 94.913208 
L 341.727851 101.235592 
L 345.00719 97.551622 
L 348.286529 96.710064 
L 351.565868 97.037743 
L 354.845207 104.847433 
L 358.124545 96.008679 
L 361.403884 95.423038 
L 364.683223 94.415084 
L 367.962562 96.816416 
L 371.241901 104.019005 
L 374.52124 94.330272 
L 377.800579 104.089738 
L 381.079917 96.11074 
L 384.359256 103.945682 
L 387.638595 100.49899 
L 390.917934 95.685751 
L 394.197273 95.846345 
" clip-path="url(#pfa6ef4b8cb)" style="fill: none; stroke: #c44e52; stroke-width: 1.5; stroke-linecap: round"/>
   </g>
   <g id="line2d_16">
    <path d="M 69.542727 234.287254 
L 72.822066 195.025166 
L 76.101405 185.212497 
L 79.380744 177.463279 
L 82.660083 170.103601 
L 85.939421 163.920129 
L 89.21876 155.644454 
L 92.498099 148.400676 
L 95.777438 145.61826 
L 99.056777 145.33309 
L 102.336116 139.695087 
L 105.615455 142.062187 
L 108.894793 138.840363 
L 112.174132 132.563771 
L 115.453471 120.251182 
L 118.73281 117.475799 
L 122.012149 114.345898 
L 125.291488 111.283424 
L 128.570826 109.556111 
L 131.850165 106.849338 
L 135.129504 106.397817 
L 138.408843 103.643007 
L 141.688182 100.864349 
L 144.967521 100.80356 
L 148.24686 98.154039 
L 151.526198 96.338062 
L 154.805537 97.171229 
L 158.084876 96.000226 
L 161.364215 92.414636 
L 164.643554 87.114887 
L 167.922893 82.352419 
L 171.202231 82.653024 
L 174.48157 78.790084 
L 177.760909 78.425054 
L 181.040248 76.176118 
L 184.319587 75.063238 
L 187.598926 74.660633 
L 190.878264 71.86933 
L 194.157603 71.732473 
L 197.436942 70.535933 
L 200.716281 70.12138 
L 203.99562 68.262717 
L 207.274959 67.900764 
L 210.554298 67.631865 
L 213.833636 65.881831 
L 217.112975 63.828852 
L 220.392314 59.104368 
L 223.671653 58.177285 
L 226.950992 57.141277 
L 230.230331 56.343231 
L 233.509669 54.525678 
L 236.789008 53.802306 
L 240.068347 53.543681 
L 243.347686 52.653155 
L 246.627025 52.548079 
L 249.906364 52.077751 
L 253.185702 52.126494 
L 256.465041 51.550449 
L 259.74438 51.236575 
L 263.023719 51.056168 
L 266.303058 51.064309 
L 269.582397 50.801753 
L 272.861736 50.442886 
L 276.141074 49.563323 
L 279.420413 48.226979 
L 282.699752 48.406073 
L 285.979091 46.706258 
L 289.25843 46.669767 
L 292.537769 45.712215 
L 295.817107 109.922156 
L 299.096446 116.788312 
L 302.375785 114.253062 
L 305.655124 114.988458 
L 308.934463 103.740858 
L 312.213802 110.083502 
L 315.49314 119.833129 
L 318.772479 113.292221 
L 322.051818 114.590781 
L 325.331157 106.432015 
L 328.610496 117.026567 
L 331.889835 115.980121 
L 335.169174 111.527584 
L 338.448512 109.618223 
L 341.727851 116.650011 
L 345.00719 116.025368 
L 348.286529 110.659574 
L 351.565868 108.406991 
L 354.845207 111.971046 
L 358.124545 114.694635 
L 361.403884 108.674184 
L 364.683223 115.484749 
L 367.962562 106.343694 
L 371.241901 114.840937 
L 374.52124 113.871768 
L 377.800579 109.102046 
L 381.079917 116.974835 
L 384.359256 112.025662 
L 387.638595 106.939427 
L 390.917934 113.104595 
L 394.197273 109.770678 
" clip-path="url(#pfa6ef4b8cb)" style="fill: none; stroke: #8172b3; stroke-width: 1.5; stroke-linecap: round"/>
   </g>
   <g id="line2d_17"/>
   <g id="line2d_18"/>
   <g id="line2d_19"/>
   <g id="line2d_20"/>
   <g id="line2d_21"/>
   <g id="patch_3">
    <path d="M 53.31 273.312 
L 53.31 7.2 
" style="fill: none; stroke: #cccccc; stroke-width: 1.25; stroke-linejoin: miter; stroke-linecap: square"/>
   </g>
   <g id="patch_4">
    <path d="M 410.43 273.312 
L 410.43 7.2 
" style="fill: none; stroke: #cccccc; stroke-width: 1.25; stroke-linejoin: miter; stroke-linecap: square"/>
   </g>
   <g id="patch_5">
    <path d="M 53.31 273.312 
L 410.43 273.312 
" style="fill: none; stroke: #cccccc; stroke-width: 1.25; stroke-linejoin: miter; stroke-linecap: square"/>
   </g>
   <g id="patch_6">
    <path d="M 53.31 7.2 
L 410.43 7.2 
" style="fill: none; stroke: #cccccc; stroke-width: 1.25; stroke-linejoin: miter; stroke-linecap: square"/>
   </g>
   <g id="legend_1">
    <g id="patch_7">
     <path d="M 298.745625 267.812 
L 402.73 267.812 
Q 404.93 267.812 404.93 265.612 
L 404.93 168.868562 
Q 404.93 166.668562 402.73 166.668562 
L 298.745625 166.668562 
Q 296.545625 166.668562 296.545625 168.868562 
L 296.545625 265.612 
Q 296.545625 267.812 298.745625 267.812 
z
" style="fill: #ffffff; opacity: 0.8; stroke: #cccccc; stroke-linejoin: miter"/>
    </g>
    <g id="text_14">
     <!-- Strategy -->
     <g style="fill: #262626" transform="translate(325.02875 180.186687) scale(0.12 -0.12)">
      <defs>
       <path id="DejaVuSans-53" d="M 3425 4513 
L 3425 3897 
Q 3066 4069 2747 4153 
Q 2428 4238 2131 4238 
Q 1616 4238 1336 4038 
Q 1056 3838 1056 3469 
Q 1056 3159 1242 3001 
Q 1428 2844 1947 2747 
L 2328 2669 
Q 3034 2534 3370 2195 
Q 3706 1856 3706 1288 
Q 3706 609 3251 259 
Q 2797 -91 1919 -91 
Q 1588 -91 1214 -16 
Q 841 59 441 206 
L 441 856 
Q 825 641 1194 531 
Q 1563 422 1919 422 
Q 2459 422 2753 634 
Q 3047 847 3047 1241 
Q 3047 1584 2836 1778 
Q 2625 1972 2144 2069 
L 1759 2144 
Q 1053 2284 737 2584 
Q 422 2884 422 3419 
Q 422 4038 858 4394 
Q 1294 4750 2059 4750 
Q 2388 4750 2728 4690 
Q 3069 4631 3425 4513 
z
" transform="scale(0.015625)"/>
       <path id="DejaVuSans-74" d="M 1172 4494 
L 1172 3500 
L 2356 3500 
L 2356 3053 
L 1172 3053 
L 1172 1153 
Q 1172 725 1289 603 
Q 1406 481 1766 481 
L 2356 481 
L 2356 0 
L 1766 0 
Q 1100 0 847 248 
Q 594 497 594 1153 
L 594 3053 
L 172 3053 
L 172 3500 
L 594 3500 
L 594 4494 
L 1172 4494 
z
" transform="scale(0.015625)"/>
       <path id="DejaVuSans-65" d="M 3597 1894 
L 3597 1613 
L 953 1613 
Q 991 1019 1311 708 
Q 1631 397 2203 397 
Q 2534 397 2845 478 
Q 3156 559 3463 722 
L 3463 178 
Q 3153 47 2828 -22 
Q 2503 -91 2169 -91 
Q 1331 -91 842 396 
Q 353 884 353 1716 
Q 353 2575 817 3079 
Q 1281 3584 2069 3584 
Q 2775 3584 3186 3129 
Q 3597 2675 3597 1894 
z
M 3022 2063 
Q 3016 2534 2758 2815 
Q 2500 3097 2075 3097 
Q 1594 3097 1305 2825 
Q 1016 2553 972 2059 
L 3022 2063 
z
" transform="scale(0.015625)"/>
       <path id="DejaVuSans-67" d="M 2906 1791 
Q 2906 2416 2648 2759 
Q 2391 3103 1925 3103 
Q 1463 3103 1205 2759 
Q 947 2416 947 1791 
Q 947 1169 1205 825 
Q 1463 481 1925 481 
Q 2391 481 2648 825 
Q 2906 1169 2906 1791 
z
M 3481 434 
Q 3481 -459 3084 -895 
Q 2688 -1331 1869 -1331 
Q 1566 -1331 1297 -1286 
Q 1028 -1241 775 -1147 
L 775 -588 
Q 1028 -725 1275 -790 
Q 1522 -856 1778 -856 
Q 2344 -856 2625 -561 
Q 2906 -266 2906 331 
L 2906 616 
Q 2728 306 2450 153 
Q 2172 0 1784 0 
Q 1141 0 747 490 
Q 353 981 353 1791 
Q 353 2603 747 3093 
Q 1141 3584 1784 3584 
Q 2172 3584 2450 3431 
Q 2728 3278 2906 2969 
L 2906 3500 
L 3481 3500 
L 3481 434 
z
" transform="scale(0.015625)"/>
      </defs>
      <use xlink:href="#DejaVuSans-53"/>
      <use xlink:href="#DejaVuSans-74" x="63.476562"/>
      <use xlink:href="#DejaVuSans-72" x="102.685547"/>
      <use xlink:href="#DejaVuSans-61" x="143.798828"/>
      <use xlink:href="#DejaVuSans-74" x="205.078125"/>
      <use xlink:href="#DejaVuSans-65" x="244.287109"/>
      <use xlink:href="#DejaVuSans-67" x="305.810547"/>
      <use xlink:href="#DejaVuSans-79" x="369.287109"/>
     </g>
    </g>
    <g id="line2d_22">
     <path d="M 300.945625 192.690594 
L 311.945625 192.690594 
L 322.945625 192.690594 
" style="fill: none; stroke: #4c72b0; stroke-width: 1.5; stroke-linecap: round"/>
    </g>
    <g id="text_15">
     <!-- FedPredict -->
     <g style="fill: #262626" transform="translate(331.745625 196.540594) scale(0.11 -0.11)">
      <defs>
       <path id="DejaVuSans-46" d="M 628 4666 
L 3309 4666 
L 3309 4134 
L 1259 4134 
L 1259 2759 
L 3109 2759 
L 3109 2228 
L 1259 2228 
L 1259 0 
L 628 0 
L 628 4666 
z
" transform="scale(0.015625)"/>
       <path id="DejaVuSans-50" d="M 1259 4147 
L 1259 2394 
L 2053 2394 
Q 2494 2394 2734 2622 
Q 2975 2850 2975 3272 
Q 2975 3691 2734 3919 
Q 2494 4147 2053 4147 
L 1259 4147 
z
M 628 4666 
L 2053 4666 
Q 2838 4666 3239 4311 
Q 3641 3956 3641 3272 
Q 3641 2581 3239 2228 
Q 2838 1875 2053 1875 
L 1259 1875 
L 1259 0 
L 628 0 
L 628 4666 
z
" transform="scale(0.015625)"/>
       <path id="DejaVuSans-69" d="M 603 3500 
L 1178 3500 
L 1178 0 
L 603 0 
L 603 3500 
z
M 603 4863 
L 1178 4863 
L 1178 4134 
L 603 4134 
L 603 4863 
z
" transform="scale(0.015625)"/>
      </defs>
      <use xlink:href="#DejaVuSans-46"/>
      <use xlink:href="#DejaVuSans-65" x="52.019531"/>
      <use xlink:href="#DejaVuSans-64" x="113.542969"/>
      <use xlink:href="#DejaVuSans-50" x="177.019531"/>
      <use xlink:href="#DejaVuSans-72" x="235.572266"/>
      <use xlink:href="#DejaVuSans-65" x="274.435547"/>
      <use xlink:href="#DejaVuSans-64" x="335.958984"/>
      <use xlink:href="#DejaVuSans-69" x="399.435547"/>
      <use xlink:href="#DejaVuSans-63" x="427.21875"/>
      <use xlink:href="#DejaVuSans-74" x="482.199219"/>
     </g>
    </g>
    <g id="line2d_23">
     <path d="M 300.945625 208.836531 
L 311.945625 208.836531 
L 322.945625 208.836531 
" style="fill: none; stroke: #dd8452; stroke-width: 1.5; stroke-linecap: round"/>
    </g>
    <g id="text_16">
     <!-- FedAVG -->
     <g style="fill: #262626" transform="translate(331.745625 212.686531) scale(0.11 -0.11)">
      <defs>
       <path id="DejaVuSans-56" d="M 1831 0 
L 50 4666 
L 709 4666 
L 2188 738 
L 3669 4666 
L 4325 4666 
L 2547 0 
L 1831 0 
z
" transform="scale(0.015625)"/>
       <path id="DejaVuSans-47" d="M 3809 666 
L 3809 1919 
L 2778 1919 
L 2778 2438 
L 4434 2438 
L 4434 434 
Q 4069 175 3628 42 
Q 3188 -91 2688 -91 
Q 1594 -91 976 548 
Q 359 1188 359 2328 
Q 359 3472 976 4111 
Q 1594 4750 2688 4750 
Q 3144 4750 3555 4637 
Q 3966 4525 4313 4306 
L 4313 3634 
Q 3963 3931 3569 4081 
Q 3175 4231 2741 4231 
Q 1884 4231 1454 3753 
Q 1025 3275 1025 2328 
Q 1025 1384 1454 906 
Q 1884 428 2741 428 
Q 3075 428 3337 486 
Q 3600 544 3809 666 
z
" transform="scale(0.015625)"/>
      </defs>
      <use xlink:href="#DejaVuSans-46"/>
      <use xlink:href="#DejaVuSans-65" x="52.019531"/>
      <use xlink:href="#DejaVuSans-64" x="113.542969"/>
      <use xlink:href="#DejaVuSans-41" x="177.019531"/>
      <use xlink:href="#DejaVuSans-56" x="239.052734"/>
      <use xlink:href="#DejaVuSans-47" x="307.460938"/>
     </g>
    </g>
    <g id="line2d_24">
     <path d="M 300.945625 224.982469 
L 311.945625 224.982469 
L 322.945625 224.982469 
" style="fill: none; stroke: #55a868; stroke-width: 1.5; stroke-linecap: round"/>
    </g>
    <g id="text_17">
     <!-- FedClassAvg -->
     <g style="fill: #262626" transform="translate(331.745625 228.832469) scale(0.11 -0.11)">
      <defs>
       <path id="DejaVuSans-43" d="M 4122 4306 
L 4122 3641 
Q 3803 3938 3442 4084 
Q 3081 4231 2675 4231 
Q 1875 4231 1450 3742 
Q 1025 3253 1025 2328 
Q 1025 1406 1450 917 
Q 1875 428 2675 428 
Q 3081 428 3442 575 
Q 3803 722 4122 1019 
L 4122 359 
Q 3791 134 3420 21 
Q 3050 -91 2638 -91 
Q 1578 -91 968 557 
Q 359 1206 359 2328 
Q 359 3453 968 4101 
Q 1578 4750 2638 4750 
Q 3056 4750 3426 4639 
Q 3797 4528 4122 4306 
z
" transform="scale(0.015625)"/>
       <path id="DejaVuSans-6c" d="M 603 4863 
L 1178 4863 
L 1178 0 
L 603 0 
L 603 4863 
z
" transform="scale(0.015625)"/>
       <path id="DejaVuSans-73" d="M 2834 3397 
L 2834 2853 
Q 2591 2978 2328 3040 
Q 2066 3103 1784 3103 
Q 1356 3103 1142 2972 
Q 928 2841 928 2578 
Q 928 2378 1081 2264 
Q 1234 2150 1697 2047 
L 1894 2003 
Q 2506 1872 2764 1633 
Q 3022 1394 3022 966 
Q 3022 478 2636 193 
Q 2250 -91 1575 -91 
Q 1294 -91 989 -36 
Q 684 19 347 128 
L 347 722 
Q 666 556 975 473 
Q 1284 391 1588 391 
Q 1994 391 2212 530 
Q 2431 669 2431 922 
Q 2431 1156 2273 1281 
Q 2116 1406 1581 1522 
L 1381 1569 
Q 847 1681 609 1914 
Q 372 2147 372 2553 
Q 372 3047 722 3315 
Q 1072 3584 1716 3584 
Q 2034 3584 2315 3537 
Q 2597 3491 2834 3397 
z
" transform="scale(0.015625)"/>
       <path id="DejaVuSans-76" d="M 191 3500 
L 800 3500 
L 1894 563 
L 2988 3500 
L 3597 3500 
L 2284 0 
L 1503 0 
L 191 3500 
z
" transform="scale(0.015625)"/>
      </defs>
      <use xlink:href="#DejaVuSans-46"/>
      <use xlink:href="#DejaVuSans-65" x="52.019531"/>
      <use xlink:href="#DejaVuSans-64" x="113.542969"/>
      <use xlink:href="#DejaVuSans-43" x="177.019531"/>
      <use xlink:href="#DejaVuSans-6c" x="246.84375"/>
      <use xlink:href="#DejaVuSans-61" x="274.626953"/>
      <use xlink:href="#DejaVuSans-73" x="335.90625"/>
      <use xlink:href="#DejaVuSans-73" x="388.005859"/>
      <use xlink:href="#DejaVuSans-41" x="440.105469"/>
      <use xlink:href="#DejaVuSans-76" x="502.638672"/>
      <use xlink:href="#DejaVuSans-67" x="561.818359"/>
     </g>
    </g>
    <g id="line2d_25">
     <path d="M 300.945625 241.128406 
L 311.945625 241.128406 
L 322.945625 241.128406 
" style="fill: none; stroke: #c44e52; stroke-width: 1.5; stroke-linecap: round"/>
    </g>
    <g id="text_18">
     <!-- FedPer -->
     <g style="fill: #262626" transform="translate(331.745625 244.978406) scale(0.11 -0.11)">
      <use xlink:href="#DejaVuSans-46"/>
      <use xlink:href="#DejaVuSans-65" x="52.019531"/>
      <use xlink:href="#DejaVuSans-64" x="113.542969"/>
      <use xlink:href="#DejaVuSans-50" x="177.019531"/>
      <use xlink:href="#DejaVuSans-65" x="233.697266"/>
      <use xlink:href="#DejaVuSans-72" x="295.220703"/>
     </g>
    </g>
    <g id="line2d_26">
     <path d="M 300.945625 257.274344 
L 311.945625 257.274344 
L 322.945625 257.274344 
" style="fill: none; stroke: #8172b3; stroke-width: 1.5; stroke-linecap: round"/>
    </g>
    <g id="text_19">
     <!-- FedProto -->
     <g style="fill: #262626" transform="translate(331.745625 261.124344) scale(0.11 -0.11)">
      <use xlink:href="#DejaVuSans-46"/>
      <use xlink:href="#DejaVuSans-65" x="52.019531"/>
      <use xlink:href="#DejaVuSans-64" x="113.542969"/>
      <use xlink:href="#DejaVuSans-50" x="177.019531"/>
      <use xlink:href="#DejaVuSans-72" x="235.572266"/>
      <use xlink:href="#DejaVuSans-6f" x="274.435547"/>
      <use xlink:href="#DejaVuSans-74" x="335.617188"/>
      <use xlink:href="#DejaVuSans-6f" x="374.826172"/>
     </g>
    </g>
   </g>
  </g>
 </g>
 <defs>
  <clipPath id="pfa6ef4b8cb">
   <rect x="53.31" y="7.2" width="357.12" height="266.112"/>
  </clipPath>
 </defs>
</svg>
