<?xml version="1.0" encoding="utf-8" standalone="no"?>
<!DOCTYPE svg PUBLIC "-//W3C//DTD SVG 1.1//EN"
  "http://www.w3.org/Graphics/SVG/1.1/DTD/svg11.dtd">
<svg xmlns:xlink="http://www.w3.org/1999/xlink" width="410.63125pt" height="316.271687pt" viewBox="0 0 410.63125 316.271687" xmlns="http://www.w3.org/2000/svg" version="1.1">
 <metadata>
  <rdf:RDF xmlns:dc="http://purl.org/dc/elements/1.1/" xmlns:cc="http://creativecommons.org/ns#" xmlns:rdf="http://www.w3.org/1999/02/22-rdf-syntax-ns#">
   <cc:Work>
    <dc:type rdf:resource="http://purl.org/dc/dcmitype/StillImage"/>
    <dc:date>2023-02-09T08:03:10.132042</dc:date>
    <dc:format>image/svg+xml</dc:format>
    <dc:creator>
     <cc:Agent>
      <dc:title>Matplotlib v3.6.3, https://matplotlib.org/</dc:title>
     </cc:Agent>
    </dc:creator>
   </cc:Work>
  </rdf:RDF>
 </metadata>
 <defs>
  <style type="text/css">*{stroke-linejoin: round; stroke-linecap: butt}</style>
 </defs>
 <g id="figure_1">
  <g id="patch_1">
   <path d="M 0 316.271687 
L 410.63125 316.271687 
L 410.63125 0 
L 0 0 
z
" style="fill: #ffffff"/>
  </g>
  <g id="axes_1">
   <g id="patch_2">
    <path d="M 46.31125 273.312 
L 403.43125 273.312 
L 403.43125 7.2 
L 46.31125 7.2 
z
" style="fill: #ffffff"/>
   </g>
   <g id="matplotlib.axis_1">
    <g id="xtick_1">
     <g id="line2d_1">
      <path d="M 59.264638 273.312 
L 59.264638 7.2 
" clip-path="url(#p4ed35cbe2d)" style="fill: none; stroke: #cccccc; stroke-linecap: round"/>
     </g>
     <g id="text_1">
      <!-- 0 -->
      <g style="fill: #262626" transform="translate(55.765263 291.170281) scale(0.11 -0.11)">
       <defs>
        <path id="DejaVuSans-30" d="M 2034 4250 
Q 1547 4250 1301 3770 
Q 1056 3291 1056 2328 
Q 1056 1369 1301 889 
Q 1547 409 2034 409 
Q 2525 409 2770 889 
Q 3016 1369 3016 2328 
Q 3016 3291 2770 3770 
Q 2525 4250 2034 4250 
z
M 2034 4750 
Q 2819 4750 3233 4129 
Q 3647 3509 3647 2328 
Q 3647 1150 3233 529 
Q 2819 -91 2034 -91 
Q 1250 -91 836 529 
Q 422 1150 422 2328 
Q 422 3509 836 4129 
Q 1250 4750 2034 4750 
z
" transform="scale(0.015625)"/>
       </defs>
       <use xlink:href="#DejaVuSans-30"/>
      </g>
     </g>
    </g>
    <g id="xtick_2">
     <g id="line2d_2">
      <path d="M 124.851415 273.312 
L 124.851415 7.2 
" clip-path="url(#p4ed35cbe2d)" style="fill: none; stroke: #cccccc; stroke-linecap: round"/>
     </g>
     <g id="text_2">
      <!-- 20 -->
      <g style="fill: #262626" transform="translate(117.852665 291.170281) scale(0.11 -0.11)">
       <defs>
        <path id="DejaVuSans-32" d="M 1228 531 
L 3431 531 
L 3431 0 
L 469 0 
L 469 531 
Q 828 903 1448 1529 
Q 2069 2156 2228 2338 
Q 2531 2678 2651 2914 
Q 2772 3150 2772 3378 
Q 2772 3750 2511 3984 
Q 2250 4219 1831 4219 
Q 1534 4219 1204 4116 
Q 875 4013 500 3803 
L 500 4441 
Q 881 4594 1212 4672 
Q 1544 4750 1819 4750 
Q 2544 4750 2975 4387 
Q 3406 4025 3406 3419 
Q 3406 3131 3298 2873 
Q 3191 2616 2906 2266 
Q 2828 2175 2409 1742 
Q 1991 1309 1228 531 
z
" transform="scale(0.015625)"/>
       </defs>
       <use xlink:href="#DejaVuSans-32"/>
       <use xlink:href="#DejaVuSans-30" x="63.623047"/>
      </g>
     </g>
    </g>
    <g id="xtick_3">
     <g id="line2d_3">
      <path d="M 190.438192 273.312 
L 190.438192 7.2 
" clip-path="url(#p4ed35cbe2d)" style="fill: none; stroke: #cccccc; stroke-linecap: round"/>
     </g>
     <g id="text_3">
      <!-- 40 -->
      <g style="fill: #262626" transform="translate(183.439442 291.170281) scale(0.11 -0.11)">
       <defs>
        <path id="DejaVuSans-34" d="M 2419 4116 
L 825 1625 
L 2419 1625 
L 2419 4116 
z
M 2253 4666 
L 3047 4666 
L 3047 1625 
L 3713 1625 
L 3713 1100 
L 3047 1100 
L 3047 0 
L 2419 0 
L 2419 1100 
L 313 1100 
L 313 1709 
L 2253 4666 
z
" transform="scale(0.015625)"/>
       </defs>
       <use xlink:href="#DejaVuSans-34"/>
       <use xlink:href="#DejaVuSans-30" x="63.623047"/>
      </g>
     </g>
    </g>
    <g id="xtick_4">
     <g id="line2d_4">
      <path d="M 256.024969 273.312 
L 256.024969 7.2 
" clip-path="url(#p4ed35cbe2d)" style="fill: none; stroke: #cccccc; stroke-linecap: round"/>
     </g>
     <g id="text_4">
      <!-- 60 -->
      <g style="fill: #262626" transform="translate(249.026219 291.170281) scale(0.11 -0.11)">
       <defs>
        <path id="DejaVuSans-36" d="M 2113 2584 
Q 1688 2584 1439 2293 
Q 1191 2003 1191 1497 
Q 1191 994 1439 701 
Q 1688 409 2113 409 
Q 2538 409 2786 701 
Q 3034 994 3034 1497 
Q 3034 2003 2786 2293 
Q 2538 2584 2113 2584 
z
M 3366 4563 
L 3366 3988 
Q 3128 4100 2886 4159 
Q 2644 4219 2406 4219 
Q 1781 4219 1451 3797 
Q 1122 3375 1075 2522 
Q 1259 2794 1537 2939 
Q 1816 3084 2150 3084 
Q 2853 3084 3261 2657 
Q 3669 2231 3669 1497 
Q 3669 778 3244 343 
Q 2819 -91 2113 -91 
Q 1303 -91 875 529 
Q 447 1150 447 2328 
Q 447 3434 972 4092 
Q 1497 4750 2381 4750 
Q 2619 4750 2861 4703 
Q 3103 4656 3366 4563 
z
" transform="scale(0.015625)"/>
       </defs>
       <use xlink:href="#DejaVuSans-36"/>
       <use xlink:href="#DejaVuSans-30" x="63.623047"/>
      </g>
     </g>
    </g>
    <g id="xtick_5">
     <g id="line2d_5">
      <path d="M 321.611746 273.312 
L 321.611746 7.2 
" clip-path="url(#p4ed35cbe2d)" style="fill: none; stroke: #cccccc; stroke-linecap: round"/>
     </g>
     <g id="text_5">
      <!-- 80 -->
      <g style="fill: #262626" transform="translate(314.612996 291.170281) scale(0.11 -0.11)">
       <defs>
        <path id="DejaVuSans-38" d="M 2034 2216 
Q 1584 2216 1326 1975 
Q 1069 1734 1069 1313 
Q 1069 891 1326 650 
Q 1584 409 2034 409 
Q 2484 409 2743 651 
Q 3003 894 3003 1313 
Q 3003 1734 2745 1975 
Q 2488 2216 2034 2216 
z
M 1403 2484 
Q 997 2584 770 2862 
Q 544 3141 544 3541 
Q 544 4100 942 4425 
Q 1341 4750 2034 4750 
Q 2731 4750 3128 4425 
Q 3525 4100 3525 3541 
Q 3525 3141 3298 2862 
Q 3072 2584 2669 2484 
Q 3125 2378 3379 2068 
Q 3634 1759 3634 1313 
Q 3634 634 3220 271 
Q 2806 -91 2034 -91 
Q 1263 -91 848 271 
Q 434 634 434 1313 
Q 434 1759 690 2068 
Q 947 2378 1403 2484 
z
M 1172 3481 
Q 1172 3119 1398 2916 
Q 1625 2713 2034 2713 
Q 2441 2713 2670 2916 
Q 2900 3119 2900 3481 
Q 2900 3844 2670 4047 
Q 2441 4250 2034 4250 
Q 1625 4250 1398 4047 
Q 1172 3844 1172 3481 
z
" transform="scale(0.015625)"/>
       </defs>
       <use xlink:href="#DejaVuSans-38"/>
       <use xlink:href="#DejaVuSans-30" x="63.623047"/>
      </g>
     </g>
    </g>
    <g id="xtick_6">
     <g id="line2d_6">
      <path d="M 387.198523 273.312 
L 387.198523 7.2 
" clip-path="url(#p4ed35cbe2d)" style="fill: none; stroke: #cccccc; stroke-linecap: round"/>
     </g>
     <g id="text_6">
      <!-- 100 -->
      <g style="fill: #262626" transform="translate(376.700398 291.170281) scale(0.11 -0.11)">
       <defs>
        <path id="DejaVuSans-31" d="M 794 531 
L 1825 531 
L 1825 4091 
L 703 3866 
L 703 4441 
L 1819 4666 
L 2450 4666 
L 2450 531 
L 3481 531 
L 3481 0 
L 794 0 
L 794 531 
z
" transform="scale(0.015625)"/>
       </defs>
       <use xlink:href="#DejaVuSans-31"/>
       <use xlink:href="#DejaVuSans-30" x="63.623047"/>
       <use xlink:href="#DejaVuSans-30" x="127.246094"/>
      </g>
     </g>
    </g>
    <g id="text_7">
     <!-- Round -->
     <g style="fill: #262626" transform="translate(205.886875 306.576062) scale(0.12 -0.12)">
      <defs>
       <path id="DejaVuSans-52" d="M 2841 2188 
Q 3044 2119 3236 1894 
Q 3428 1669 3622 1275 
L 4263 0 
L 3584 0 
L 2988 1197 
Q 2756 1666 2539 1819 
Q 2322 1972 1947 1972 
L 1259 1972 
L 1259 0 
L 628 0 
L 628 4666 
L 2053 4666 
Q 2853 4666 3247 4331 
Q 3641 3997 3641 3322 
Q 3641 2881 3436 2590 
Q 3231 2300 2841 2188 
z
M 1259 4147 
L 1259 2491 
L 2053 2491 
Q 2509 2491 2742 2702 
Q 2975 2913 2975 3322 
Q 2975 3731 2742 3939 
Q 2509 4147 2053 4147 
L 1259 4147 
z
" transform="scale(0.015625)"/>
       <path id="DejaVuSans-6f" d="M 1959 3097 
Q 1497 3097 1228 2736 
Q 959 2375 959 1747 
Q 959 1119 1226 758 
Q 1494 397 1959 397 
Q 2419 397 2687 759 
Q 2956 1122 2956 1747 
Q 2956 2369 2687 2733 
Q 2419 3097 1959 3097 
z
M 1959 3584 
Q 2709 3584 3137 3096 
Q 3566 2609 3566 1747 
Q 3566 888 3137 398 
Q 2709 -91 1959 -91 
Q 1206 -91 779 398 
Q 353 888 353 1747 
Q 353 2609 779 3096 
Q 1206 3584 1959 3584 
z
" transform="scale(0.015625)"/>
       <path id="DejaVuSans-75" d="M 544 1381 
L 544 3500 
L 1119 3500 
L 1119 1403 
Q 1119 906 1312 657 
Q 1506 409 1894 409 
Q 2359 409 2629 706 
Q 2900 1003 2900 1516 
L 2900 3500 
L 3475 3500 
L 3475 0 
L 2900 0 
L 2900 538 
Q 2691 219 2414 64 
Q 2138 -91 1772 -91 
Q 1169 -91 856 284 
Q 544 659 544 1381 
z
M 1991 3584 
L 1991 3584 
z
" transform="scale(0.015625)"/>
       <path id="DejaVuSans-6e" d="M 3513 2113 
L 3513 0 
L 2938 0 
L 2938 2094 
Q 2938 2591 2744 2837 
Q 2550 3084 2163 3084 
Q 1697 3084 1428 2787 
Q 1159 2491 1159 1978 
L 1159 0 
L 581 0 
L 581 3500 
L 1159 3500 
L 1159 2956 
Q 1366 3272 1645 3428 
Q 1925 3584 2291 3584 
Q 2894 3584 3203 3211 
Q 3513 2838 3513 2113 
z
" transform="scale(0.015625)"/>
       <path id="DejaVuSans-64" d="M 2906 2969 
L 2906 4863 
L 3481 4863 
L 3481 0 
L 2906 0 
L 2906 525 
Q 2725 213 2448 61 
Q 2172 -91 1784 -91 
Q 1150 -91 751 415 
Q 353 922 353 1747 
Q 353 2572 751 3078 
Q 1150 3584 1784 3584 
Q 2172 3584 2448 3432 
Q 2725 3281 2906 2969 
z
M 947 1747 
Q 947 1113 1208 752 
Q 1469 391 1925 391 
Q 2381 391 2643 752 
Q 2906 1113 2906 1747 
Q 2906 2381 2643 2742 
Q 2381 3103 1925 3103 
Q 1469 3103 1208 2742 
Q 947 2381 947 1747 
z
" transform="scale(0.015625)"/>
      </defs>
      <use xlink:href="#DejaVuSans-52"/>
      <use xlink:href="#DejaVuSans-6f" x="64.982422"/>
      <use xlink:href="#DejaVuSans-75" x="126.164062"/>
      <use xlink:href="#DejaVuSans-6e" x="189.542969"/>
      <use xlink:href="#DejaVuSans-64" x="252.921875"/>
     </g>
    </g>
   </g>
   <g id="matplotlib.axis_2">
    <g id="ytick_1">
     <g id="line2d_7">
      <path d="M 46.31125 244.620153 
L 403.43125 244.620153 
" clip-path="url(#p4ed35cbe2d)" style="fill: none; stroke: #cccccc; stroke-linecap: round"/>
     </g>
     <g id="text_8">
      <!-- 10 -->
      <g style="fill: #262626" transform="translate(22.81375 248.799293) scale(0.11 -0.11)">
       <use xlink:href="#DejaVuSans-31"/>
       <use xlink:href="#DejaVuSans-30" x="63.623047"/>
      </g>
     </g>
    </g>
    <g id="ytick_2">
     <g id="line2d_8">
      <path d="M 46.31125 212.856385 
L 403.43125 212.856385 
" clip-path="url(#p4ed35cbe2d)" style="fill: none; stroke: #cccccc; stroke-linecap: round"/>
     </g>
     <g id="text_9">
      <!-- 20 -->
      <g style="fill: #262626" transform="translate(22.81375 217.035526) scale(0.11 -0.11)">
       <use xlink:href="#DejaVuSans-32"/>
       <use xlink:href="#DejaVuSans-30" x="63.623047"/>
      </g>
     </g>
    </g>
    <g id="ytick_3">
     <g id="line2d_9">
      <path d="M 46.31125 181.092618 
L 403.43125 181.092618 
" clip-path="url(#p4ed35cbe2d)" style="fill: none; stroke: #cccccc; stroke-linecap: round"/>
     </g>
     <g id="text_10">
      <!-- 30 -->
      <g style="fill: #262626" transform="translate(22.81375 185.271759) scale(0.11 -0.11)">
       <defs>
        <path id="DejaVuSans-33" d="M 2597 2516 
Q 3050 2419 3304 2112 
Q 3559 1806 3559 1356 
Q 3559 666 3084 287 
Q 2609 -91 1734 -91 
Q 1441 -91 1130 -33 
Q 819 25 488 141 
L 488 750 
Q 750 597 1062 519 
Q 1375 441 1716 441 
Q 2309 441 2620 675 
Q 2931 909 2931 1356 
Q 2931 1769 2642 2001 
Q 2353 2234 1838 2234 
L 1294 2234 
L 1294 2753 
L 1863 2753 
Q 2328 2753 2575 2939 
Q 2822 3125 2822 3475 
Q 2822 3834 2567 4026 
Q 2313 4219 1838 4219 
Q 1578 4219 1281 4162 
Q 984 4106 628 3988 
L 628 4550 
Q 988 4650 1302 4700 
Q 1616 4750 1894 4750 
Q 2613 4750 3031 4423 
Q 3450 4097 3450 3541 
Q 3450 3153 3228 2886 
Q 3006 2619 2597 2516 
z
" transform="scale(0.015625)"/>
       </defs>
       <use xlink:href="#DejaVuSans-33"/>
       <use xlink:href="#DejaVuSans-30" x="63.623047"/>
      </g>
     </g>
    </g>
    <g id="ytick_4">
     <g id="line2d_10">
      <path d="M 46.31125 149.328851 
L 403.43125 149.328851 
" clip-path="url(#p4ed35cbe2d)" style="fill: none; stroke: #cccccc; stroke-linecap: round"/>
     </g>
     <g id="text_11">
      <!-- 40 -->
      <g style="fill: #262626" transform="translate(22.81375 153.507992) scale(0.11 -0.11)">
       <use xlink:href="#DejaVuSans-34"/>
       <use xlink:href="#DejaVuSans-30" x="63.623047"/>
      </g>
     </g>
    </g>
    <g id="ytick_5">
     <g id="line2d_11">
      <path d="M 46.31125 117.565084 
L 403.43125 117.565084 
" clip-path="url(#p4ed35cbe2d)" style="fill: none; stroke: #cccccc; stroke-linecap: round"/>
     </g>
     <g id="text_12">
      <!-- 50 -->
      <g style="fill: #262626" transform="translate(22.81375 121.744225) scale(0.11 -0.11)">
       <defs>
        <path id="DejaVuSans-35" d="M 691 4666 
L 3169 4666 
L 3169 4134 
L 1269 4134 
L 1269 2991 
Q 1406 3038 1543 3061 
Q 1681 3084 1819 3084 
Q 2600 3084 3056 2656 
Q 3513 2228 3513 1497 
Q 3513 744 3044 326 
Q 2575 -91 1722 -91 
Q 1428 -91 1123 -41 
Q 819 9 494 109 
L 494 744 
Q 775 591 1075 516 
Q 1375 441 1709 441 
Q 2250 441 2565 725 
Q 2881 1009 2881 1497 
Q 2881 1984 2565 2268 
Q 2250 2553 1709 2553 
Q 1456 2553 1204 2497 
Q 953 2441 691 2322 
L 691 4666 
z
" transform="scale(0.015625)"/>
       </defs>
       <use xlink:href="#DejaVuSans-35"/>
       <use xlink:href="#DejaVuSans-30" x="63.623047"/>
      </g>
     </g>
    </g>
    <g id="ytick_6">
     <g id="line2d_12">
      <path d="M 46.31125 85.801317 
L 403.43125 85.801317 
" clip-path="url(#p4ed35cbe2d)" style="fill: none; stroke: #cccccc; stroke-linecap: round"/>
     </g>
     <g id="text_13">
      <!-- 60 -->
      <g style="fill: #262626" transform="translate(22.81375 89.980458) scale(0.11 -0.11)">
       <use xlink:href="#DejaVuSans-36"/>
       <use xlink:href="#DejaVuSans-30" x="63.623047"/>
      </g>
     </g>
    </g>
    <g id="ytick_7">
     <g id="line2d_13">
      <path d="M 46.31125 54.03755 
L 403.43125 54.03755 
" clip-path="url(#p4ed35cbe2d)" style="fill: none; stroke: #cccccc; stroke-linecap: round"/>
     </g>
     <g id="text_14">
      <!-- 70 -->
      <g style="fill: #262626" transform="translate(22.81375 58.216691) scale(0.11 -0.11)">
       <defs>
        <path id="DejaVuSans-37" d="M 525 4666 
L 3525 4666 
L 3525 4397 
L 1831 0 
L 1172 0 
L 2766 4134 
L 525 4134 
L 525 4666 
z
" transform="scale(0.015625)"/>
       </defs>
       <use xlink:href="#DejaVuSans-37"/>
       <use xlink:href="#DejaVuSans-30" x="63.623047"/>
      </g>
     </g>
    </g>
    <g id="ytick_8">
     <g id="line2d_14">
      <path d="M 46.31125 22.273783 
L 403.43125 22.273783 
" clip-path="url(#p4ed35cbe2d)" style="fill: none; stroke: #cccccc; stroke-linecap: round"/>
     </g>
     <g id="text_15">
      <!-- 80 -->
      <g style="fill: #262626" transform="translate(22.81375 26.452923) scale(0.11 -0.11)">
       <use xlink:href="#DejaVuSans-38"/>
       <use xlink:href="#DejaVuSans-30" x="63.623047"/>
      </g>
     </g>
    </g>
    <g id="text_16">
     <!-- Accuracy (%) -->
     <g style="fill: #262626" transform="translate(16.318125 179.939437) rotate(-90) scale(0.12 -0.12)">
      <defs>
       <path id="DejaVuSans-41" d="M 2188 4044 
L 1331 1722 
L 3047 1722 
L 2188 4044 
z
M 1831 4666 
L 2547 4666 
L 4325 0 
L 3669 0 
L 3244 1197 
L 1141 1197 
L 716 0 
L 50 0 
L 1831 4666 
z
" transform="scale(0.015625)"/>
       <path id="DejaVuSans-63" d="M 3122 3366 
L 3122 2828 
Q 2878 2963 2633 3030 
Q 2388 3097 2138 3097 
Q 1578 3097 1268 2742 
Q 959 2388 959 1747 
Q 959 1106 1268 751 
Q 1578 397 2138 397 
Q 2388 397 2633 464 
Q 2878 531 3122 666 
L 3122 134 
Q 2881 22 2623 -34 
Q 2366 -91 2075 -91 
Q 1284 -91 818 406 
Q 353 903 353 1747 
Q 353 2603 823 3093 
Q 1294 3584 2113 3584 
Q 2378 3584 2631 3529 
Q 2884 3475 3122 3366 
z
" transform="scale(0.015625)"/>
       <path id="DejaVuSans-72" d="M 2631 2963 
Q 2534 3019 2420 3045 
Q 2306 3072 2169 3072 
Q 1681 3072 1420 2755 
Q 1159 2438 1159 1844 
L 1159 0 
L 581 0 
L 581 3500 
L 1159 3500 
L 1159 2956 
Q 1341 3275 1631 3429 
Q 1922 3584 2338 3584 
Q 2397 3584 2469 3576 
Q 2541 3569 2628 3553 
L 2631 2963 
z
" transform="scale(0.015625)"/>
       <path id="DejaVuSans-61" d="M 2194 1759 
Q 1497 1759 1228 1600 
Q 959 1441 959 1056 
Q 959 750 1161 570 
Q 1363 391 1709 391 
Q 2188 391 2477 730 
Q 2766 1069 2766 1631 
L 2766 1759 
L 2194 1759 
z
M 3341 1997 
L 3341 0 
L 2766 0 
L 2766 531 
Q 2569 213 2275 61 
Q 1981 -91 1556 -91 
Q 1019 -91 701 211 
Q 384 513 384 1019 
Q 384 1609 779 1909 
Q 1175 2209 1959 2209 
L 2766 2209 
L 2766 2266 
Q 2766 2663 2505 2880 
Q 2244 3097 1772 3097 
Q 1472 3097 1187 3025 
Q 903 2953 641 2809 
L 641 3341 
Q 956 3463 1253 3523 
Q 1550 3584 1831 3584 
Q 2591 3584 2966 3190 
Q 3341 2797 3341 1997 
z
" transform="scale(0.015625)"/>
       <path id="DejaVuSans-79" d="M 2059 -325 
Q 1816 -950 1584 -1140 
Q 1353 -1331 966 -1331 
L 506 -1331 
L 506 -850 
L 844 -850 
Q 1081 -850 1212 -737 
Q 1344 -625 1503 -206 
L 1606 56 
L 191 3500 
L 800 3500 
L 1894 763 
L 2988 3500 
L 3597 3500 
L 2059 -325 
z
" transform="scale(0.015625)"/>
       <path id="DejaVuSans-20" transform="scale(0.015625)"/>
       <path id="DejaVuSans-28" d="M 1984 4856 
Q 1566 4138 1362 3434 
Q 1159 2731 1159 2009 
Q 1159 1288 1364 580 
Q 1569 -128 1984 -844 
L 1484 -844 
Q 1016 -109 783 600 
Q 550 1309 550 2009 
Q 550 2706 781 3412 
Q 1013 4119 1484 4856 
L 1984 4856 
z
" transform="scale(0.015625)"/>
       <path id="DejaVuSans-25" d="M 4653 2053 
Q 4381 2053 4226 1822 
Q 4072 1591 4072 1178 
Q 4072 772 4226 539 
Q 4381 306 4653 306 
Q 4919 306 5073 539 
Q 5228 772 5228 1178 
Q 5228 1588 5073 1820 
Q 4919 2053 4653 2053 
z
M 4653 2450 
Q 5147 2450 5437 2106 
Q 5728 1763 5728 1178 
Q 5728 594 5436 251 
Q 5144 -91 4653 -91 
Q 4153 -91 3862 251 
Q 3572 594 3572 1178 
Q 3572 1766 3864 2108 
Q 4156 2450 4653 2450 
z
M 1428 4353 
Q 1159 4353 1004 4120 
Q 850 3888 850 3481 
Q 850 3069 1003 2837 
Q 1156 2606 1428 2606 
Q 1700 2606 1854 2837 
Q 2009 3069 2009 3481 
Q 2009 3884 1853 4118 
Q 1697 4353 1428 4353 
z
M 4250 4750 
L 4750 4750 
L 1831 -91 
L 1331 -91 
L 4250 4750 
z
M 1428 4750 
Q 1922 4750 2215 4408 
Q 2509 4066 2509 3481 
Q 2509 2891 2217 2550 
Q 1925 2209 1428 2209 
Q 931 2209 642 2551 
Q 353 2894 353 3481 
Q 353 4063 643 4406 
Q 934 4750 1428 4750 
z
" transform="scale(0.015625)"/>
       <path id="DejaVuSans-29" d="M 513 4856 
L 1013 4856 
Q 1481 4119 1714 3412 
Q 1947 2706 1947 2009 
Q 1947 1309 1714 600 
Q 1481 -109 1013 -844 
L 513 -844 
Q 928 -128 1133 580 
Q 1338 1288 1338 2009 
Q 1338 2731 1133 3434 
Q 928 4138 513 4856 
z
" transform="scale(0.015625)"/>
      </defs>
      <use xlink:href="#DejaVuSans-41"/>
      <use xlink:href="#DejaVuSans-63" x="66.658203"/>
      <use xlink:href="#DejaVuSans-63" x="121.638672"/>
      <use xlink:href="#DejaVuSans-75" x="176.619141"/>
      <use xlink:href="#DejaVuSans-72" x="239.998047"/>
      <use xlink:href="#DejaVuSans-61" x="281.111328"/>
      <use xlink:href="#DejaVuSans-63" x="342.390625"/>
      <use xlink:href="#DejaVuSans-79" x="397.371094"/>
      <use xlink:href="#DejaVuSans-20" x="456.550781"/>
      <use xlink:href="#DejaVuSans-28" x="488.337891"/>
      <use xlink:href="#DejaVuSans-25" x="527.351562"/>
      <use xlink:href="#DejaVuSans-29" x="622.371094"/>
     </g>
    </g>
   </g>
   <g id="PolyCollection_1">
    <defs>
     <path id="m8eae9c38f8" d="M 62.543977 -151.524186 
L 62.543977 -99.007502 
L 65.823316 -108.726824 
L 69.102655 -124.235474 
L 72.381994 -145.095489 
L 75.661333 -164.713338 
L 78.940671 -181.029894 
L 82.22001 -178.971094 
L 85.499349 -186.976056 
L 88.778688 -186.073481 
L 92.058027 -210.327177 
L 95.337366 -209.064932 
L 98.616705 -199.816932 
L 101.896043 -208.552961 
L 105.175382 -218.022208 
L 108.454721 -223.705734 
L 111.73406 -223.310631 
L 115.013399 -235.67435 
L 118.292738 -237.975742 
L 121.572076 -228.24915 
L 124.851415 -233.999802 
L 128.130754 -237.347175 
L 131.410093 -244.711712 
L 134.689432 -243.873449 
L 137.968771 -235.819892 
L 141.24811 -244.322847 
L 144.527448 -250.56446 
L 147.806787 -248.438426 
L 151.086126 -244.346806 
L 154.365465 -243.772791 
L 157.644804 -244.804975 
L 160.924143 -246.261725 
L 164.203481 -248.26714 
L 167.48282 -253.010927 
L 170.762159 -255.447237 
L 174.041498 -252.41791 
L 177.320837 -254.638789 
L 180.600176 -254.474993 
L 183.879514 -252.286198 
L 187.158853 -250.797236 
L 190.438192 -251.301931 
L 193.717531 -257.913026 
L 196.99687 -260.018094 
L 200.276209 -257.421933 
L 203.555548 -260.81123 
L 206.834886 -256.867405 
L 210.114225 -256.898376 
L 213.393564 -255.931808 
L 216.672903 -259.568259 
L 219.952242 -262.988886 
L 223.231581 -259.576998 
L 226.510919 -263.186524 
L 229.790258 -263.896264 
L 233.069597 -261.843615 
L 236.348936 -260.831006 
L 239.628275 -262.005574 
L 242.907614 -265.509786 
L 246.186952 -263.542787 
L 249.466291 -264.134673 
L 252.74563 -267.195277 
L 256.024969 -266.088105 
L 259.304308 -264.754757 
L 262.583647 -263.435565 
L 265.862986 -263.850364 
L 269.142324 -265.11018 
L 272.421663 -266.347576 
L 275.701002 -270.755172 
L 278.980341 -272.633668 
L 282.25968 -270.569852 
L 285.539019 -272.049533 
L 288.818357 -244.61272 
L 292.097696 -249.060457 
L 295.377035 -242.7756 
L 298.656374 -249.671824 
L 301.935713 -251.814899 
L 305.215052 -253.708831 
L 308.49439 -250.52469 
L 311.773729 -243.144676 
L 315.053068 -249.00131 
L 318.332407 -242.357703 
L 321.611746 -245.131701 
L 324.891085 -247.084104 
L 328.170424 -250.953621 
L 331.449762 -249.931146 
L 334.729101 -244.341654 
L 338.00844 -244.96274 
L 341.287779 -248.255597 
L 344.567118 -245.108643 
L 347.846457 -247.455551 
L 351.125795 -244.962141 
L 354.405134 -241.734306 
L 357.684473 -246.903998 
L 360.963812 -248.518693 
L 364.243151 -247.123998 
L 367.52249 -245.600964 
L 370.801829 -246.027923 
L 374.081167 -250.895379 
L 377.360506 -253.909723 
L 380.639845 -245.993695 
L 383.919184 -251.043479 
L 387.198523 -249.573732 
L 387.198523 -285.149395 
L 387.198523 -285.149395 
L 383.919184 -284.214621 
L 380.639845 -283.767063 
L 377.360506 -285.856225 
L 374.081167 -285.128937 
L 370.801829 -282.477368 
L 367.52249 -282.662854 
L 364.243151 -284.099493 
L 360.963812 -282.617188 
L 357.684473 -280.744486 
L 354.405134 -278.97353 
L 351.125795 -279.153385 
L 347.846457 -280.975827 
L 344.567118 -278.413897 
L 341.287779 -281.240999 
L 338.00844 -279.045169 
L 334.729101 -278.629052 
L 331.449762 -283.046676 
L 328.170424 -284.531269 
L 324.891085 -281.344151 
L 321.611746 -278.956373 
L 318.332407 -277.973413 
L 315.053068 -279.879845 
L 311.773729 -274.82769 
L 308.49439 -280.196167 
L 305.215052 -282.124882 
L 301.935713 -282.490322 
L 298.656374 -282.021732 
L 295.377035 -276.405397 
L 292.097696 -281.910672 
L 288.818357 -277.419172 
L 285.539019 -296.975687 
L 282.25968 -295.615297 
L 278.980341 -294.476695 
L 275.701002 -295.40476 
L 272.421663 -291.465529 
L 269.142324 -290.419469 
L 265.862986 -291.637202 
L 262.583647 -290.521879 
L 259.304308 -291.189663 
L 256.024969 -290.595317 
L 252.74563 -292.307942 
L 249.466291 -290.520915 
L 246.186952 -289.007425 
L 242.907614 -292.498666 
L 239.628275 -290.579824 
L 236.348936 -290.141427 
L 233.069597 -287.94344 
L 229.790258 -292.184307 
L 226.510919 -289.992061 
L 223.231581 -287.235541 
L 219.952242 -289.213903 
L 216.672903 -286.733523 
L 213.393564 -286.263721 
L 210.114225 -286.187315 
L 206.834886 -286.543574 
L 203.555548 -287.770856 
L 200.276209 -284.186767 
L 196.99687 -286.394158 
L 193.717531 -282.820989 
L 190.438192 -281.196849 
L 187.158853 -279.667491 
L 183.879514 -282.029386 
L 180.600176 -283.412457 
L 177.320837 -284.595237 
L 174.041498 -281.867038 
L 170.762159 -284.732871 
L 167.48282 -282.299893 
L 164.203481 -278.373829 
L 160.924143 -276.808161 
L 157.644804 -273.27461 
L 154.365465 -271.779347 
L 151.086126 -272.891206 
L 147.806787 -277.414988 
L 144.527448 -278.07373 
L 141.24811 -275.298652 
L 137.968771 -268.285004 
L 134.689432 -275.591756 
L 131.410093 -273.857192 
L 128.130754 -269.823334 
L 124.851415 -264.659951 
L 121.572076 -265.338234 
L 118.292738 -271.449982 
L 115.013399 -266.21686 
L 111.73406 -257.746626 
L 108.454721 -259.389546 
L 105.175382 -254.991649 
L 101.896043 -243.647145 
L 98.616705 -237.635508 
L 95.337366 -244.025991 
L 92.058027 -251.011251 
L 88.778688 -232.576294 
L 85.499349 -227.088238 
L 82.22001 -222.310364 
L 78.940671 -224.535611 
L 75.661333 -210.220017 
L 72.381994 -194.30784 
L 69.102655 -180.519281 
L 65.823316 -160.418337 
L 62.543977 -151.524186 
z
" style="stroke: #4c72b0; stroke-opacity: 0.2"/>
    </defs>
    <g clip-path="url(#p4ed35cbe2d)">
     <use xlink:href="#m8eae9c38f8" x="0" y="316.271687" style="fill: #4c72b0; fill-opacity: 0.2; stroke: #4c72b0; stroke-opacity: 0.2"/>
    </g>
   </g>
   <g id="PolyCollection_2">
    <defs>
     <path id="m182d9ffe4e" d="M 62.543977 -118.250272 
L 62.543977 -77.777442 
L 65.823316 -55.055688 
L 69.102655 -82.203309 
L 72.381994 -81.871767 
L 75.661333 -92.756475 
L 78.940671 -85.864763 
L 82.22001 -89.193381 
L 85.499349 -74.23416 
L 88.778688 -102.201778 
L 92.058027 -111.266277 
L 95.337366 -118.567974 
L 98.616705 -104.273619 
L 101.896043 -104.518571 
L 105.175382 -114.14167 
L 108.454721 -137.283073 
L 111.73406 -113.934308 
L 115.013399 -141.089116 
L 118.292738 -131.808722 
L 121.572076 -152.92335 
L 124.851415 -142.732994 
L 128.130754 -116.641894 
L 131.410093 -144.691586 
L 134.689432 -131.488635 
L 137.968771 -144.726962 
L 141.24811 -143.769468 
L 144.527448 -168.827208 
L 147.806787 -150.189669 
L 151.086126 -137.715038 
L 154.365465 -143.629873 
L 157.644804 -141.220135 
L 160.924143 -156.43728 
L 164.203481 -164.702366 
L 167.48282 -153.342337 
L 170.762159 -164.104905 
L 174.041498 -161.586526 
L 177.320837 -138.441284 
L 180.600176 -162.641573 
L 183.879514 -143.668727 
L 187.158853 -154.417709 
L 190.438192 -156.455338 
L 193.717531 -144.002347 
L 196.99687 -170.847519 
L 200.276209 -164.358908 
L 203.555548 -169.723405 
L 206.834886 -160.334467 
L 210.114225 -143.241496 
L 213.393564 -156.05135 
L 216.672903 -173.80993 
L 219.952242 -148.306807 
L 223.231581 -134.121297 
L 226.510919 -146.654396 
L 229.790258 -162.121075 
L 233.069597 -163.336033 
L 236.348936 -178.594938 
L 239.628275 -178.189662 
L 242.907614 -176.186007 
L 246.186952 -185.961993 
L 249.466291 -172.355068 
L 252.74563 -160.914712 
L 256.024969 -171.60407 
L 259.304308 -160.637299 
L 262.583647 -177.33409 
L 265.862986 -192.553318 
L 269.142324 -169.504862 
L 272.421663 -181.756637 
L 275.701002 -189.747827 
L 278.980341 -177.844919 
L 282.25968 -188.003795 
L 285.539019 -166.951299 
L 288.818357 -180.060582 
L 292.097696 -185.27396 
L 295.377035 -170.418079 
L 298.656374 -190.071044 
L 301.935713 -183.096176 
L 305.215052 -189.574248 
L 308.49439 -184.61369 
L 311.773729 -175.310633 
L 315.053068 -191.53654 
L 318.332407 -189.046141 
L 321.611746 -186.172519 
L 324.891085 -174.776933 
L 328.170424 -183.389129 
L 331.449762 -189.333066 
L 334.729101 -182.418986 
L 338.00844 -163.448793 
L 341.287779 -174.706279 
L 344.567118 -163.745717 
L 347.846457 -145.616223 
L 351.125795 -192.929512 
L 354.405134 -192.184873 
L 357.684473 -185.397287 
L 360.963812 -188.114339 
L 364.243151 -187.612912 
L 367.52249 -186.216966 
L 370.801829 -193.132197 
L 374.081167 -180.936203 
L 377.360506 -177.625438 
L 380.639845 -190.997812 
L 383.919184 -195.102454 
L 387.198523 -198.887313 
L 387.198523 -219.785549 
L 387.198523 -219.785549 
L 383.919184 -221.529186 
L 380.639845 -217.250042 
L 377.360506 -206.595046 
L 374.081167 -212.583341 
L 370.801829 -225.537911 
L 367.52249 -213.031352 
L 364.243151 -212.352428 
L 360.963812 -218.149989 
L 357.684473 -212.759514 
L 354.405134 -218.869482 
L 351.125795 -223.101704 
L 347.846457 -177.078326 
L 344.567118 -191.308101 
L 341.287779 -203.298693 
L 338.00844 -194.225364 
L 334.729101 -212.617434 
L 331.449762 -216.609062 
L 328.170424 -217.004605 
L 324.891085 -206.72422 
L 321.611746 -210.055223 
L 318.332407 -212.345457 
L 315.053068 -217.501643 
L 311.773729 -200.494672 
L 308.49439 -210.426351 
L 305.215052 -212.497725 
L 301.935713 -204.187894 
L 298.656374 -217.755028 
L 295.377035 -202.809953 
L 292.097696 -214.560971 
L 288.818357 -208.123638 
L 285.539019 -205.063634 
L 282.25968 -219.354387 
L 278.980341 -212.450463 
L 275.701002 -216.706756 
L 272.421663 -217.394764 
L 269.142324 -201.592502 
L 265.862986 -213.867552 
L 262.583647 -208.188977 
L 259.304308 -195.633598 
L 256.024969 -206.812713 
L 252.74563 -199.943881 
L 249.466291 -211.151558 
L 246.186952 -214.818829 
L 242.907614 -210.5736 
L 239.628275 -210.74956 
L 236.348936 -212.182959 
L 233.069597 -199.023974 
L 229.790258 -195.935139 
L 226.510919 -182.08501 
L 223.231581 -174.667404 
L 219.952242 -185.477754 
L 216.672903 -200.981168 
L 213.393564 -198.186215 
L 210.114225 -181.575298 
L 206.834886 -187.509629 
L 203.555548 -200.507393 
L 200.276209 -198.591006 
L 196.99687 -203.514346 
L 193.717531 -177.992146 
L 190.438192 -187.638632 
L 187.158853 -190.824237 
L 183.879514 -179.809231 
L 180.600176 -197.293022 
L 177.320837 -183.854172 
L 174.041498 -191.784291 
L 170.762159 -195.94604 
L 167.48282 -191.014249 
L 164.203481 -194.621063 
L 160.924143 -186.748046 
L 157.644804 -178.900981 
L 154.365465 -177.979434 
L 151.086126 -171.486853 
L 147.806787 -185.382041 
L 144.527448 -193.964822 
L 141.24811 -175.865142 
L 137.968771 -182.679878 
L 134.689432 -168.404657 
L 131.410093 -174.346715 
L 128.130754 -156.306889 
L 124.851415 -168.09291 
L 121.572076 -178.933474 
L 118.292738 -163.793329 
L 115.013399 -168.873072 
L 111.73406 -153.956621 
L 108.454721 -169.436949 
L 105.175382 -142.519606 
L 101.896043 -147.448541 
L 98.616705 -144.536588 
L 95.337366 -151.695185 
L 92.058027 -149.55705 
L 88.778688 -145.040614 
L 85.499349 -112.145093 
L 82.22001 -131.694762 
L 78.940671 -118.934452 
L 75.661333 -126.711045 
L 72.381994 -123.027752 
L 69.102655 -125.101221 
L 65.823316 -93.886726 
L 62.543977 -118.250272 
z
" style="stroke: #dd8452; stroke-opacity: 0.2"/>
    </defs>
    <g clip-path="url(#p4ed35cbe2d)">
     <use xlink:href="#m182d9ffe4e" x="0" y="316.271687" style="fill: #dd8452; fill-opacity: 0.2; stroke: #dd8452; stroke-opacity: 0.2"/>
    </g>
   </g>
   <g id="PolyCollection_3">
    <defs>
     <path id="m58d85e888b" d="M 62.543977 -151.64832 
L 62.543977 -98.400186 
L 65.823316 -117.313984 
L 69.102655 -122.384157 
L 72.381994 -137.45561 
L 75.661333 -153.952312 
L 78.940671 -164.333608 
L 82.22001 -166.95983 
L 85.499349 -174.656575 
L 88.778688 -174.431066 
L 92.058027 -180.381441 
L 95.337366 -184.879921 
L 98.616705 -182.405758 
L 101.896043 -184.840092 
L 105.175382 -184.18263 
L 108.454721 -185.751264 
L 111.73406 -184.656011 
L 115.013399 -191.104924 
L 118.292738 -190.502863 
L 121.572076 -192.599979 
L 124.851415 -192.311014 
L 128.130754 -203.082215 
L 131.410093 -203.806141 
L 134.689432 -206.249085 
L 137.968771 -207.662931 
L 141.24811 -207.918194 
L 144.527448 -210.576695 
L 147.806787 -214.456554 
L 151.086126 -216.75426 
L 154.365465 -216.102479 
L 157.644804 -220.031305 
L 160.924143 -217.066245 
L 164.203481 -219.705287 
L 167.48282 -225.761074 
L 170.762159 -226.233018 
L 174.041498 -222.595305 
L 177.320837 -219.937395 
L 180.600176 -223.948843 
L 183.879514 -223.432515 
L 187.158853 -231.145711 
L 190.438192 -230.666114 
L 193.717531 -233.837809 
L 196.99687 -233.532531 
L 200.276209 -229.461919 
L 203.555548 -230.60119 
L 206.834886 -228.719751 
L 210.114225 -230.218486 
L 213.393564 -231.024349 
L 216.672903 -232.49804 
L 219.952242 -228.981928 
L 223.231581 -229.154632 
L 226.510919 -232.632003 
L 229.790258 -238.160969 
L 233.069597 -239.810807 
L 236.348936 -241.908328 
L 239.628275 -241.099382 
L 242.907614 -237.905171 
L 246.186952 -237.590031 
L 249.466291 -242.237354 
L 252.74563 -239.001835 
L 256.024969 -238.815299 
L 259.304308 -237.093368 
L 262.583647 -236.682762 
L 265.862986 -239.596797 
L 269.142324 -238.978281 
L 272.421663 -241.625862 
L 275.701002 -242.784519 
L 278.980341 -243.394796 
L 282.25968 -247.196324 
L 285.539019 -244.506611 
L 288.818357 -213.848877 
L 292.097696 -218.247656 
L 295.377035 -220.274565 
L 298.656374 -219.360668 
L 301.935713 -218.056589 
L 305.215052 -219.863165 
L 308.49439 -219.538375 
L 311.773729 -215.600691 
L 315.053068 -218.709882 
L 318.332407 -215.264625 
L 321.611746 -214.324575 
L 324.891085 -219.168376 
L 328.170424 -220.339687 
L 331.449762 -221.768439 
L 334.729101 -219.861503 
L 338.00844 -220.487329 
L 341.287779 -221.099533 
L 344.567118 -220.243208 
L 347.846457 -219.490358 
L 351.125795 -219.30458 
L 354.405134 -220.879642 
L 357.684473 -221.61454 
L 360.963812 -222.457429 
L 364.243151 -223.956253 
L 367.52249 -225.115947 
L 370.801829 -223.41423 
L 374.081167 -218.554234 
L 377.360506 -221.238866 
L 380.639845 -222.871474 
L 383.919184 -221.480742 
L 387.198523 -223.230501 
L 387.198523 -263.058451 
L 387.198523 -263.058451 
L 383.919184 -262.671403 
L 380.639845 -264.317401 
L 377.360506 -261.352558 
L 374.081167 -258.393549 
L 370.801829 -261.88043 
L 367.52249 -264.536448 
L 364.243151 -263.639784 
L 360.963812 -262.234363 
L 357.684473 -261.805541 
L 354.405134 -261.985932 
L 351.125795 -260.79394 
L 347.846457 -258.555549 
L 344.567118 -259.288216 
L 341.287779 -262.061476 
L 338.00844 -259.031392 
L 334.729101 -259.075149 
L 331.449762 -259.757443 
L 328.170424 -260.110287 
L 324.891085 -260.88077 
L 321.611746 -255.264392 
L 318.332407 -254.757615 
L 315.053068 -256.974302 
L 311.773729 -254.637033 
L 308.49439 -259.913139 
L 305.215052 -259.401514 
L 301.935713 -259.446592 
L 298.656374 -259.405669 
L 295.377035 -261.044055 
L 292.097696 -259.483125 
L 288.818357 -257.659236 
L 285.539019 -280.794978 
L 282.25968 -278.536527 
L 278.980341 -275.554569 
L 275.701002 -275.100325 
L 272.421663 -275.147847 
L 269.142324 -270.955548 
L 265.862986 -269.437463 
L 262.583647 -270.017919 
L 259.304308 -271.288905 
L 256.024969 -273.471135 
L 252.74563 -274.478106 
L 249.466291 -273.683889 
L 246.186952 -270.707961 
L 242.907614 -273.760025 
L 239.628275 -276.787989 
L 236.348936 -275.635024 
L 233.069597 -272.621492 
L 229.790258 -272.502957 
L 226.510919 -268.069339 
L 223.231581 -262.628079 
L 219.952242 -263.141888 
L 216.672903 -265.204624 
L 213.393564 -267.105714 
L 210.114225 -268.579039 
L 206.834886 -267.119667 
L 203.555548 -268.174993 
L 200.276209 -268.656269 
L 196.99687 -269.383149 
L 193.717531 -267.170713 
L 190.438192 -265.405895 
L 187.158853 -265.664231 
L 183.879514 -263.60107 
L 180.600176 -263.124278 
L 177.320837 -259.77164 
L 174.041498 -261.906205 
L 170.762159 -261.089475 
L 167.48282 -264.154829 
L 164.203481 -257.475169 
L 160.924143 -255.011289 
L 157.644804 -260.203221 
L 154.365465 -254.503918 
L 151.086126 -252.260398 
L 147.806787 -250.040584 
L 144.527448 -243.694894 
L 141.24811 -244.948078 
L 137.968771 -244.666599 
L 134.689432 -244.554035 
L 131.410093 -241.974515 
L 128.130754 -240.552179 
L 124.851415 -234.997044 
L 121.572076 -236.315586 
L 118.292738 -230.410794 
L 115.013399 -230.466034 
L 111.73406 -227.105129 
L 108.454721 -226.679517 
L 105.175382 -225.072987 
L 101.896043 -230.645033 
L 98.616705 -227.81484 
L 95.337366 -226.21856 
L 92.058027 -220.918019 
L 88.778688 -218.235375 
L 85.499349 -221.486241 
L 82.22001 -213.504139 
L 78.940671 -213.438894 
L 75.661333 -203.654912 
L 72.381994 -188.136417 
L 69.102655 -172.501015 
L 65.823316 -168.995783 
L 62.543977 -151.64832 
z
" style="stroke: #55a868; stroke-opacity: 0.2"/>
    </defs>
    <g clip-path="url(#p4ed35cbe2d)">
     <use xlink:href="#m58d85e888b" x="0" y="316.271687" style="fill: #55a868; fill-opacity: 0.2; stroke: #55a868; stroke-opacity: 0.2"/>
    </g>
   </g>
   <g id="PolyCollection_4">
    <defs>
     <path id="m49d611b065" d="M 62.543977 -130.17742 
L 62.543977 -83.868241 
L 65.823316 -101.361692 
L 69.102655 -106.835105 
L 72.381994 -122.462038 
L 75.661333 -127.194439 
L 78.940671 -138.381094 
L 82.22001 -146.01662 
L 85.499349 -152.64717 
L 88.778688 -156.524627 
L 92.058027 -156.807916 
L 95.337366 -157.877055 
L 98.616705 -161.528023 
L 101.896043 -161.678012 
L 105.175382 -164.29343 
L 108.454721 -169.611638 
L 111.73406 -174.01923 
L 115.013399 -176.651559 
L 118.292738 -184.105094 
L 121.572076 -184.59678 
L 124.851415 -187.669037 
L 128.130754 -190.306654 
L 131.410093 -192.852821 
L 134.689432 -195.069637 
L 137.968771 -198.585084 
L 141.24811 -198.154192 
L 144.527448 -198.97165 
L 147.806787 -203.302706 
L 151.086126 -211.954681 
L 154.365465 -214.412774 
L 157.644804 -216.686777 
L 160.924143 -218.927058 
L 164.203481 -219.061203 
L 167.48282 -224.846202 
L 170.762159 -224.311603 
L 174.041498 -221.56452 
L 177.320837 -225.255347 
L 180.600176 -226.586067 
L 183.879514 -230.99967 
L 187.158853 -234.174893 
L 190.438192 -232.35941 
L 193.717531 -234.2522 
L 196.99687 -235.094116 
L 200.276209 -237.040239 
L 203.555548 -241.824616 
L 206.834886 -241.543813 
L 210.114225 -246.422362 
L 213.393564 -245.449483 
L 216.672903 -246.449787 
L 219.952242 -246.467172 
L 223.231581 -247.2819 
L 226.510919 -247.143325 
L 229.790258 -246.630516 
L 233.069597 -246.855877 
L 236.348936 -247.682973 
L 239.628275 -247.886047 
L 242.907614 -250.265934 
L 246.186952 -248.2854 
L 249.466291 -250.348196 
L 252.74563 -251.864145 
L 256.024969 -251.69202 
L 259.304308 -253.394059 
L 262.583647 -251.401441 
L 265.862986 -251.502629 
L 269.142324 -251.302206 
L 272.421663 -253.158762 
L 275.701002 -255.444201 
L 278.980341 -255.184869 
L 282.25968 -255.729825 
L 285.539019 -258.751444 
L 288.818357 -233.354547 
L 292.097696 -233.487219 
L 295.377035 -231.867427 
L 298.656374 -234.464646 
L 301.935713 -233.417043 
L 305.215052 -235.26135 
L 308.49439 -234.911983 
L 311.773729 -234.812674 
L 315.053068 -234.600035 
L 318.332407 -234.782185 
L 321.611746 -232.746818 
L 324.891085 -234.525565 
L 328.170424 -234.720801 
L 331.449762 -235.376793 
L 334.729101 -235.574784 
L 338.00844 -235.86794 
L 341.287779 -238.431243 
L 344.567118 -236.834778 
L 347.846457 -238.083552 
L 351.125795 -238.267546 
L 354.405134 -238.599679 
L 357.684473 -240.540784 
L 360.963812 -239.93032 
L 364.243151 -239.399173 
L 367.52249 -238.256958 
L 370.801829 -238.239023 
L 374.081167 -239.488013 
L 377.360506 -241.735193 
L 380.639845 -239.938751 
L 383.919184 -241.639152 
L 387.198523 -240.422867 
L 387.198523 -275.851318 
L 387.198523 -275.851318 
L 383.919184 -274.799914 
L 380.639845 -273.889503 
L 377.360506 -275.292376 
L 374.081167 -274.682211 
L 370.801829 -273.359179 
L 367.52249 -272.027594 
L 364.243151 -273.594994 
L 360.963812 -274.169909 
L 357.684473 -275.626846 
L 354.405134 -272.861149 
L 351.125795 -272.004171 
L 347.846457 -271.507024 
L 344.567118 -272.325401 
L 341.287779 -271.159321 
L 338.00844 -269.734119 
L 334.729101 -270.953859 
L 331.449762 -269.001648 
L 328.170424 -271.12352 
L 324.891085 -270.307816 
L 321.611746 -269.008916 
L 318.332407 -268.785722 
L 315.053068 -270.860082 
L 311.773729 -269.921911 
L 308.49439 -270.178216 
L 305.215052 -270.940863 
L 301.935713 -269.034456 
L 298.656374 -269.310016 
L 295.377035 -269.252891 
L 292.097696 -268.782051 
L 288.818357 -268.214495 
L 285.539019 -285.610111 
L 282.25968 -285.516706 
L 278.980341 -285.088791 
L 275.701002 -283.869049 
L 272.421663 -283.905327 
L 269.142324 -281.489681 
L 265.862986 -280.054002 
L 262.583647 -281.354557 
L 259.304308 -280.669754 
L 256.024969 -280.183484 
L 252.74563 -280.841699 
L 249.466291 -280.840023 
L 246.186952 -277.136258 
L 242.907614 -279.630335 
L 239.628275 -278.455124 
L 236.348936 -278.033564 
L 233.069597 -275.589831 
L 229.790258 -276.412175 
L 226.510919 -274.401062 
L 223.231581 -276.429106 
L 219.952242 -276.231623 
L 216.672903 -276.463522 
L 213.393564 -274.396875 
L 210.114225 -275.482672 
L 206.834886 -271.421375 
L 203.555548 -272.269574 
L 200.276209 -270.634394 
L 196.99687 -269.774894 
L 193.717531 -268.900559 
L 190.438192 -265.98473 
L 187.158853 -266.827845 
L 183.879514 -263.882157 
L 180.600176 -259.681675 
L 177.320837 -258.994097 
L 174.041498 -257.937473 
L 170.762159 -258.144512 
L 167.48282 -257.964133 
L 164.203481 -255.17295 
L 160.924143 -255.895607 
L 157.644804 -250.158706 
L 154.365465 -249.564657 
L 151.086126 -247.094092 
L 147.806787 -240.967669 
L 144.527448 -237.371079 
L 141.24811 -239.199066 
L 137.968771 -238.123868 
L 134.689432 -238.382724 
L 131.410093 -234.620638 
L 128.130754 -229.704187 
L 124.851415 -232.099976 
L 121.572076 -228.739069 
L 118.292738 -227.280491 
L 115.013399 -220.783097 
L 111.73406 -220.345437 
L 108.454721 -216.40979 
L 105.175382 -207.459641 
L 101.896043 -205.535764 
L 98.616705 -204.828541 
L 95.337366 -201.883764 
L 92.058027 -202.490125 
L 88.778688 -203.864332 
L 85.499349 -203.071504 
L 82.22001 -196.209686 
L 78.940671 -184.647985 
L 75.661333 -173.569866 
L 72.381994 -172.218991 
L 69.102655 -153.382325 
L 65.823316 -158.281145 
L 62.543977 -130.17742 
z
" style="stroke: #c44e52; stroke-opacity: 0.2"/>
    </defs>
    <g clip-path="url(#p4ed35cbe2d)">
     <use xlink:href="#m49d611b065" x="0" y="316.271687" style="fill: #c44e52; fill-opacity: 0.2; stroke: #c44e52; stroke-opacity: 0.2"/>
    </g>
   </g>
   <g id="PolyCollection_5">
    <defs>
     <path id="m4be599e120" d="M 62.543977 -129.367716 
L 62.543977 -78.783199 
L 65.823316 -106.398394 
L 69.102655 -125.018042 
L 72.381994 -123.830381 
L 75.661333 -139.215785 
L 78.940671 -141.93177 
L 82.22001 -150.454027 
L 85.499349 -149.076437 
L 88.778688 -151.373264 
L 92.058027 -162.754424 
L 95.337366 -162.378822 
L 98.616705 -161.671365 
L 101.896043 -163.845577 
L 105.175382 -171.02602 
L 108.454721 -155.721284 
L 111.73406 -157.196426 
L 115.013399 -157.153792 
L 118.292738 -155.74847 
L 121.572076 -156.771949 
L 124.851415 -158.664266 
L 128.130754 -172.455153 
L 131.410093 -176.104558 
L 134.689432 -175.66072 
L 137.968771 -174.802258 
L 141.24811 -172.147066 
L 144.527448 -175.924601 
L 147.806787 -176.554664 
L 151.086126 -175.669975 
L 154.365465 -178.378735 
L 157.644804 -181.77785 
L 160.924143 -184.598192 
L 164.203481 -185.291412 
L 167.48282 -183.033241 
L 170.762159 -189.554215 
L 174.041498 -188.489631 
L 177.320837 -190.228099 
L 180.600176 -191.944254 
L 183.879514 -191.480884 
L 187.158853 -191.869914 
L 190.438192 -193.336777 
L 193.717531 -193.585436 
L 196.99687 -194.262807 
L 200.276209 -196.473518 
L 203.555548 -194.061125 
L 206.834886 -194.969459 
L 210.114225 -193.483777 
L 213.393564 -193.448361 
L 216.672903 -198.386892 
L 219.952242 -201.885877 
L 223.231581 -202.676403 
L 226.510919 -201.446159 
L 229.790258 -202.455044 
L 233.069597 -201.107018 
L 236.348936 -201.537842 
L 239.628275 -205.066476 
L 242.907614 -206.272103 
L 246.186952 -206.362078 
L 249.466291 -207.533979 
L 252.74563 -209.69818 
L 256.024969 -199.141151 
L 259.304308 -205.280918 
L 262.583647 -210.362474 
L 265.862986 -204.693096 
L 269.142324 -211.374324 
L 272.421663 -209.500032 
L 275.701002 -210.99551 
L 278.980341 -210.40392 
L 282.25968 -211.556138 
L 285.539019 -212.918249 
L 288.818357 -186.882869 
L 292.097696 -189.578157 
L 295.377035 -189.372068 
L 298.656374 -188.778552 
L 301.935713 -187.205533 
L 305.215052 -189.234279 
L 308.49439 -188.78528 
L 311.773729 -186.162469 
L 315.053068 -188.357953 
L 318.332407 -184.964255 
L 321.611746 -184.752858 
L 324.891085 -186.274973 
L 328.170424 -191.634535 
L 331.449762 -193.831472 
L 334.729101 -195.308841 
L 338.00844 -193.4342 
L 341.287779 -191.763079 
L 344.567118 -194.563286 
L 347.846457 -195.816009 
L 351.125795 -193.321371 
L 354.405134 -193.607448 
L 357.684473 -193.99145 
L 360.963812 -192.960702 
L 364.243151 -195.971316 
L 367.52249 -195.854191 
L 370.801829 -197.670347 
L 374.081167 -197.692452 
L 377.360506 -197.515934 
L 380.639845 -196.06777 
L 383.919184 -198.666024 
L 387.198523 -199.681889 
L 387.198523 -244.267775 
L 387.198523 -244.267775 
L 383.919184 -242.618533 
L 380.639845 -237.63867 
L 377.360506 -239.905383 
L 374.081167 -240.505124 
L 370.801829 -241.491861 
L 367.52249 -240.063853 
L 364.243151 -241.767798 
L 360.963812 -236.745498 
L 357.684473 -235.49655 
L 354.405134 -238.038908 
L 351.125795 -237.117941 
L 347.846457 -239.578887 
L 344.567118 -235.382709 
L 341.287779 -236.50619 
L 338.00844 -238.754309 
L 334.729101 -239.943493 
L 331.449762 -238.093305 
L 328.170424 -236.442734 
L 324.891085 -230.736755 
L 321.611746 -228.230686 
L 318.332407 -228.908041 
L 315.053068 -230.268231 
L 311.773729 -227.752959 
L 308.49439 -233.028103 
L 305.215052 -230.263732 
L 301.935713 -233.566979 
L 298.656374 -233.428693 
L 295.377035 -232.888117 
L 292.097696 -233.407419 
L 288.818357 -231.807206 
L 285.539019 -251.033938 
L 282.25968 -253.698806 
L 278.980341 -252.742529 
L 275.701002 -249.70337 
L 272.421663 -251.568204 
L 269.142324 -253.91966 
L 265.862986 -245.039338 
L 262.583647 -249.503907 
L 259.304308 -247.621326 
L 256.024969 -241.906163 
L 252.74563 -249.875472 
L 249.466291 -250.568375 
L 246.186952 -249.012946 
L 242.907614 -247.219978 
L 239.628275 -247.890988 
L 236.348936 -243.323859 
L 233.069597 -246.374478 
L 229.790258 -246.550203 
L 226.510919 -245.870005 
L 223.231581 -247.909902 
L 219.952242 -246.347647 
L 216.672903 -243.818659 
L 213.393564 -236.295697 
L 210.114225 -236.517405 
L 206.834886 -242.003823 
L 203.555548 -241.928281 
L 200.276209 -241.424356 
L 196.99687 -242.284176 
L 193.717531 -240.757316 
L 190.438192 -239.667865 
L 187.158853 -237.474098 
L 183.879514 -238.521768 
L 180.600176 -236.638632 
L 177.320837 -234.961671 
L 174.041498 -233.823853 
L 170.762159 -234.490385 
L 167.48282 -232.084742 
L 164.203481 -232.515014 
L 160.924143 -233.099985 
L 157.644804 -229.260476 
L 154.365465 -226.755108 
L 151.086126 -224.500083 
L 147.806787 -225.38197 
L 144.527448 -225.53126 
L 141.24811 -223.210808 
L 137.968771 -224.809659 
L 134.689432 -224.168582 
L 131.410093 -224.151847 
L 128.130754 -219.502609 
L 124.851415 -206.231766 
L 121.572076 -203.755665 
L 118.292738 -204.276968 
L 115.013399 -203.476747 
L 111.73406 -204.919354 
L 108.454721 -200.749595 
L 105.175382 -215.911154 
L 101.896043 -212.860716 
L 98.616705 -210.677035 
L 95.337366 -213.112842 
L 92.058027 -211.981193 
L 88.778688 -204.751516 
L 85.499349 -203.215998 
L 82.22001 -203.689976 
L 78.940671 -192.269093 
L 75.661333 -192.183909 
L 72.381994 -175.617597 
L 69.102655 -182.146776 
L 65.823316 -165.151812 
L 62.543977 -129.367716 
z
" style="stroke: #8172b3; stroke-opacity: 0.2"/>
    </defs>
    <g clip-path="url(#p4ed35cbe2d)">
     <use xlink:href="#m4be599e120" x="0" y="316.271687" style="fill: #8172b3; fill-opacity: 0.2; stroke: #8172b3; stroke-opacity: 0.2"/>
    </g>
   </g>
   <g id="line2d_15">
    <path d="M 62.543977 193.346408 
L 65.823316 182.457825 
L 69.102655 163.879679 
L 72.381994 147.564011 
L 75.661333 129.844784 
L 78.940671 113.289817 
L 82.22001 115.935412 
L 85.499349 110.215838 
L 88.778688 107.820768 
L 92.058027 86.081718 
L 95.337366 90.646244 
L 98.616705 97.982368 
L 101.896043 90.268809 
L 105.175382 79.993394 
L 108.454721 74.716098 
L 111.73406 76.017078 
L 115.013399 65.094027 
L 118.292738 61.506782 
L 121.572076 69.508138 
L 124.851415 66.701492 
L 128.130754 63.110652 
L 131.410093 56.83238 
L 134.689432 56.614726 
L 137.968771 64.288589 
L 141.24811 56.927 
L 144.527448 51.591168 
L 147.806787 53.350436 
L 151.086126 58.475329 
L 154.365465 58.555038 
L 157.644804 56.711279 
L 160.924143 54.581119 
L 164.203481 52.801204 
L 167.48282 48.087879 
L 170.762159 46.042428 
L 174.041498 49.523265 
L 177.320837 46.853158 
L 180.600176 46.904361 
L 183.879514 50.008652 
L 187.158853 51.413636 
L 190.438192 50.316343 
L 193.717531 45.821153 
L 196.99687 43.140627 
L 200.276209 45.725217 
L 203.555548 42.699491 
L 206.834886 45.158751 
L 210.114225 44.159109 
L 213.393564 44.570486 
L 216.672903 43.450341 
L 219.952242 39.79219 
L 223.231581 43.113364 
L 226.510919 39.71161 
L 229.790258 39.046086 
L 233.069597 41.221097 
L 236.348936 40.318525 
L 239.628275 39.465822 
L 242.907614 37.566839 
L 246.186952 40.214213 
L 249.466291 38.702493 
L 252.74563 36.747243 
L 256.024969 37.908036 
L 259.304308 38.007121 
L 262.583647 39.209171 
L 265.862986 37.870283 
L 269.142324 38.746572 
L 272.421663 37.193097 
L 275.701002 32.935291 
L 278.980341 32.746996 
L 282.25968 33.445544 
L 285.539019 31.861013 
L 288.818357 54.284742 
L 292.097696 49.850164 
L 295.377035 56.53678 
L 298.656374 50.821049 
L 301.935713 48.370951 
L 305.215052 48.221674 
L 308.49439 50.170629 
L 311.773729 56.967789 
L 315.053068 52.43024 
L 318.332407 55.51966 
L 321.611746 53.961711 
L 324.891085 51.969144 
L 328.170424 48.320536 
L 331.449762 49.66211 
L 334.729101 54.066823 
L 338.00844 54.211825 
L 341.287779 51.982377 
L 344.567118 53.706749 
L 347.846457 51.726253 
L 351.125795 53.154244 
L 354.405134 55.048667 
L 357.684473 52.297569 
L 360.963812 50.183341 
L 364.243151 49.254003 
L 367.52249 51.697729 
L 370.801829 51.272006 
L 374.081167 47.26932 
L 377.360506 45.819228 
L 380.639845 51.360881 
L 383.919184 47.380303 
L 387.198523 48.595171 
" clip-path="url(#p4ed35cbe2d)" style="fill: none; stroke: #4c72b0; stroke-width: 1.5; stroke-linecap: round"/>
   </g>
   <g id="line2d_16">
    <path d="M 62.543977 219.375871 
L 65.823316 244.475646 
L 69.102655 213.615503 
L 72.381994 214.699855 
L 75.661333 206.88104 
L 78.940671 215.67041 
L 82.22001 205.80865 
L 85.499349 225.368315 
L 88.778688 193.893035 
L 92.058027 186.247188 
L 95.337366 181.358744 
L 98.616705 193.133636 
L 101.896043 191.327757 
L 105.175382 188.173207 
L 108.454721 163.188036 
L 111.73406 181.975025 
L 115.013399 160.319886 
L 118.292738 167.983757 
L 121.572076 150.303527 
L 124.851415 160.492009 
L 128.130754 179.998928 
L 131.410093 156.498061 
L 134.689432 167.278284 
L 137.968771 153.174736 
L 141.24811 155.77215 
L 144.527448 134.973153 
L 147.806787 148.340109 
L 151.086126 161.251735 
L 154.365465 155.44952 
L 157.644804 156.613082 
L 160.924143 144.236702 
L 164.203481 137.044396 
L 167.48282 144.502846 
L 170.762159 136.540287 
L 174.041498 140.271567 
L 177.320837 155.28022 
L 180.600176 136.573058 
L 183.879514 153.466254 
L 187.158853 143.607071 
L 190.438192 144.456072 
L 193.717531 155.282597 
L 196.99687 128.804802 
L 200.276209 135.178374 
L 203.555548 130.997573 
L 206.834886 142.768935 
L 210.114225 153.154851 
L 213.393564 138.514523 
L 216.672903 128.79118 
L 219.952242 150.118762 
L 223.231581 161.617744 
L 226.510919 151.188411 
L 229.790258 136.786519 
L 233.069597 135.247438 
L 236.348936 119.327356 
L 239.628275 122.005114 
L 242.907614 123.232611 
L 246.186952 115.885534 
L 249.466291 124.472006 
L 252.74563 135.768491 
L 256.024969 128.104493 
L 259.304308 138.02409 
L 262.583647 124.012167 
L 265.862986 112.573045 
L 269.142324 130.097097 
L 272.421663 115.181849 
L 275.701002 113.663132 
L 278.980341 120.516138 
L 282.25968 112.078619 
L 285.539019 131.099181 
L 288.818357 122.22096 
L 292.097696 115.755572 
L 295.377035 129.775737 
L 298.656374 111.858939 
L 301.935713 122.678079 
L 305.215052 114.969629 
L 308.49439 118.443359 
L 311.773729 127.685478 
L 315.053068 112.38099 
L 318.332407 115.135759 
L 321.611746 118.368129 
L 324.891085 125.629028 
L 328.170424 116.725269 
L 331.449762 113.548295 
L 334.729101 119.350602 
L 338.00844 137.29997 
L 341.287779 126.957903 
L 344.567118 139.202975 
L 347.846457 154.847882 
L 351.125795 107.508167 
L 354.405134 110.137502 
L 357.684473 117.231336 
L 360.963812 112.58417 
L 364.243151 117.24373 
L 367.52249 116.752656 
L 370.801829 106.21131 
L 374.081167 119.495959 
L 377.360506 123.274704 
L 380.639845 111.78613 
L 383.919184 108.484065 
L 387.198523 107.33698 
" clip-path="url(#p4ed35cbe2d)" style="fill: none; stroke: #dd8452; stroke-width: 1.5; stroke-linecap: round"/>
   </g>
   <g id="line2d_17">
    <path d="M 62.543977 193.195848 
L 65.823316 173.212155 
L 69.102655 168.865093 
L 72.381994 153.068245 
L 75.661333 136.785113 
L 78.940671 128.125493 
L 82.22001 126.174662 
L 85.499349 117.928752 
L 88.778688 119.175189 
L 92.058027 117.203386 
L 95.337366 111.646632 
L 98.616705 111.635714 
L 101.896043 109.553817 
L 105.175382 112.425099 
L 108.454721 110.018621 
L 111.73406 110.698756 
L 115.013399 105.520491 
L 118.292738 105.863312 
L 121.572076 102.175657 
L 124.851415 103.266034 
L 128.130754 94.127263 
L 131.410093 92.972187 
L 134.689432 91.616918 
L 137.968771 91.092643 
L 141.24811 89.315306 
L 144.527448 89.642636 
L 147.806787 83.399522 
L 151.086126 81.349244 
L 154.365465 79.532964 
L 157.644804 75.963851 
L 160.924143 79.670275 
L 164.203481 78.239616 
L 167.48282 71.403945 
L 170.762159 71.996185 
L 174.041498 74.459674 
L 177.320837 75.690792 
L 180.600176 73.219008 
L 183.879514 73.870256 
L 187.158853 68.928567 
L 190.438192 68.21106 
L 193.717531 66.508459 
L 196.99687 65.005334 
L 200.276209 67.747191 
L 203.555548 66.46624 
L 206.834886 69.129614 
L 210.114225 66.612172 
L 213.393564 66.314863 
L 216.672903 67.379539 
L 219.952242 70.694551 
L 223.231581 70.894409 
L 226.510919 65.524599 
L 229.790258 61.428815 
L 233.069597 60.103667 
L 236.348936 57.809416 
L 239.628275 57.495962 
L 242.907614 60.177559 
L 246.186952 62.024413 
L 249.466291 59.060155 
L 252.74563 59.624179 
L 256.024969 60.389214 
L 259.304308 61.475644 
L 262.583647 62.646847 
L 265.862986 61.713083 
L 269.142324 60.225041 
L 272.421663 58.223878 
L 275.701002 56.93328 
L 278.980341 56.026506 
L 282.25968 53.780735 
L 285.539019 54.15072 
L 288.818357 80.293893 
L 292.097696 76.952516 
L 295.377035 76.510873 
L 298.656374 76.823962 
L 301.935713 77.768673 
L 305.215052 76.359582 
L 308.49439 75.929678 
L 311.773729 79.927491 
L 315.053068 78.249494 
L 318.332407 80.869179 
L 321.611746 81.464394 
L 324.891085 75.35922 
L 328.170424 75.247507 
L 331.449762 75.049168 
L 334.729101 76.80181 
L 338.00844 76.129606 
L 341.287779 73.739935 
L 344.567118 76.228029 
L 347.846457 76.054554 
L 351.125795 76.350459 
L 354.405134 74.975101 
L 357.684473 74.345835 
L 360.963812 73.052446 
L 364.243151 71.879055 
L 367.52249 71.334789 
L 370.801829 74.069077 
L 374.081167 76.709371 
L 377.360506 73.900761 
L 380.639845 72.296284 
L 383.919184 72.679946 
L 387.198523 71.725515 
" clip-path="url(#p4ed35cbe2d)" style="fill: none; stroke: #55a868; stroke-width: 1.5; stroke-linecap: round"/>
   </g>
   <g id="line2d_18">
    <path d="M 62.543977 209.643662 
L 65.823316 187.620272 
L 69.102655 186.911441 
L 72.381994 169.257058 
L 75.661333 166.803116 
L 78.940671 155.77558 
L 82.22001 145.153422 
L 85.499349 139.193578 
L 88.778688 138.581726 
L 92.058027 137.763346 
L 95.337366 136.39165 
L 98.616705 133.829358 
L 101.896043 133.713148 
L 105.175382 130.3558 
L 108.454721 124.175823 
L 111.73406 120.105214 
L 115.013399 117.528656 
L 118.292738 110.637216 
L 121.572076 109.456003 
L 124.851415 106.294564 
L 128.130754 107.119542 
L 131.410093 103.423719 
L 134.689432 101.173964 
L 137.968771 97.82079 
L 141.24811 98.120767 
L 144.527448 97.906761 
L 147.806787 93.945883 
L 151.086126 86.892602 
L 154.365465 84.739708 
L 157.644804 82.452917 
L 160.924143 79.799726 
L 164.203481 79.438027 
L 167.48282 75.306777 
L 170.762159 75.193344 
L 174.041498 76.263901 
L 177.320837 73.789422 
L 180.600176 72.570601 
L 183.879514 68.791339 
L 187.158853 66.925317 
L 190.438192 66.79907 
L 193.717531 65.073108 
L 196.99687 64.479598 
L 200.276209 62.907446 
L 203.555548 59.407405 
L 206.834886 59.76345 
L 210.114225 55.963923 
L 213.393564 56.399349 
L 216.672903 54.642205 
L 219.952242 55.715067 
L 223.231581 54.739066 
L 226.510919 54.748223 
L 229.790258 55.412413 
L 233.069597 55.289233 
L 236.348936 53.368414 
L 239.628275 52.976803 
L 242.907614 51.65485 
L 246.186952 53.019294 
L 249.466291 51.206609 
L 252.74563 50.673213 
L 256.024969 51.121418 
L 259.304308 49.920285 
L 262.583647 48.872916 
L 265.862986 49.780679 
L 269.142324 49.906118 
L 272.421663 48.824834 
L 275.701002 47.235085 
L 278.980341 46.361445 
L 282.25968 45.938533 
L 285.539019 44.490278 
L 288.818357 65.475282 
L 292.097696 64.812715 
L 295.377035 65.017535 
L 298.656374 64.583171 
L 301.935713 64.015045 
L 305.215052 63.575402 
L 308.49439 64.195425 
L 311.773729 63.704522 
L 315.053068 63.600038 
L 318.332407 63.185737 
L 321.611746 63.998223 
L 324.891085 63.537597 
L 328.170424 63.234005 
L 331.449762 62.594245 
L 334.729101 61.836495 
L 338.00844 62.296237 
L 341.287779 61.843311 
L 344.567118 61.036836 
L 347.846457 60.475411 
L 351.125795 60.547382 
L 354.405134 59.7228 
L 357.684473 58.295883 
L 360.963812 58.055851 
L 364.243151 59.233848 
L 367.52249 60.151624 
L 370.801829 60.168529 
L 374.081167 58.800946 
L 377.360506 58.381734 
L 380.639845 59.35443 
L 383.919184 57.549155 
L 387.198523 58.106393 
" clip-path="url(#p4ed35cbe2d)" style="fill: none; stroke: #c44e52; stroke-width: 1.5; stroke-linecap: round"/>
   </g>
   <g id="line2d_19">
    <path d="M 62.543977 214.020981 
L 65.823316 181.43731 
L 69.102655 163.323241 
L 72.381994 167.357739 
L 75.661333 152.390225 
L 78.940671 148.980067 
L 82.22001 138.675601 
L 85.499349 140.756001 
L 88.778688 138.705677 
L 92.058027 129.72881 
L 95.337366 129.759049 
L 98.616705 129.87584 
L 101.896043 129.744147 
L 105.175382 123.416079 
L 108.454721 138.063604 
L 111.73406 136.922595 
L 115.013399 135.678663 
L 118.292738 135.038832 
L 121.572076 134.885195 
L 124.851415 133.057698 
L 128.130754 120.8778 
L 131.410093 116.909952 
L 134.689432 117.151411 
L 137.968771 117.782149 
L 141.24811 117.236411 
L 144.527448 116.350928 
L 147.806787 115.66866 
L 151.086126 116.556094 
L 154.365465 115.30865 
L 157.644804 111.410936 
L 160.924143 107.139571 
L 164.203481 109.340909 
L 167.48282 108.473613 
L 170.762159 104.400146 
L 174.041498 105.209133 
L 177.320837 103.903633 
L 180.600176 103.404606 
L 183.879514 102.523398 
L 187.158853 100.54417 
L 190.438192 99.688708 
L 193.717531 99.680931 
L 196.99687 99.297978 
L 200.276209 98.267697 
L 203.555548 98.645033 
L 206.834886 98.98966 
L 210.114225 102.350094 
L 213.393564 102.253088 
L 216.672903 95.543473 
L 219.952242 93.202066 
L 223.231581 92.283204 
L 226.510919 92.595877 
L 229.790258 91.662322 
L 233.069597 93.155219 
L 236.348936 92.79421 
L 239.628275 91.635014 
L 242.907614 90.715417 
L 246.186952 88.667325 
L 249.466291 87.17942 
L 252.74563 87.006053 
L 256.024969 95.637249 
L 259.304308 90.164851 
L 262.583647 86.704252 
L 265.862986 90.032596 
L 269.142324 84.041241 
L 272.421663 86.083461 
L 275.701002 85.906891 
L 278.980341 84.34179 
L 282.25968 84.550678 
L 285.539019 83.387852 
L 288.818357 106.477452 
L 292.097696 104.978749 
L 295.377035 104.892141 
L 298.656374 105.249058 
L 301.935713 106.937931 
L 305.215052 106.734897 
L 308.49439 104.985375 
L 311.773729 109.062673 
L 315.053068 107.115929 
L 318.332407 108.305152 
L 321.611746 109.597194 
L 324.891085 108.902444 
L 328.170424 103.271154 
L 331.449762 101.047214 
L 334.729101 99.434574 
L 338.00844 100.253628 
L 341.287779 102.889716 
L 344.567118 101.80889 
L 347.846457 99.291624 
L 351.125795 101.217283 
L 354.405134 100.881045 
L 357.684473 102.721812 
L 360.963812 101.402733 
L 364.243151 97.99159 
L 367.52249 97.973243 
L 370.801829 96.406623 
L 374.081167 98.64081 
L 377.360506 96.987207 
L 380.639845 98.906152 
L 383.919184 96.645461 
L 387.198523 95.729737 
" clip-path="url(#p4ed35cbe2d)" style="fill: none; stroke: #8172b3; stroke-width: 1.5; stroke-linecap: round"/>
   </g>
   <g id="line2d_20"/>
   <g id="line2d_21"/>
   <g id="line2d_22"/>
   <g id="line2d_23"/>
   <g id="line2d_24"/>
   <g id="patch_3">
    <path d="M 46.31125 273.312 
L 46.31125 7.2 
" style="fill: none; stroke: #cccccc; stroke-width: 1.25; stroke-linejoin: miter; stroke-linecap: square"/>
   </g>
   <g id="patch_4">
    <path d="M 403.43125 273.312 
L 403.43125 7.2 
" style="fill: none; stroke: #cccccc; stroke-width: 1.25; stroke-linejoin: miter; stroke-linecap: square"/>
   </g>
   <g id="patch_5">
    <path d="M 46.31125 273.312 
L 403.43125 273.312 
" style="fill: none; stroke: #cccccc; stroke-width: 1.25; stroke-linejoin: miter; stroke-linecap: square"/>
   </g>
   <g id="patch_6">
    <path d="M 46.31125 7.2 
L 403.43125 7.2 
" style="fill: none; stroke: #cccccc; stroke-width: 1.25; stroke-linejoin: miter; stroke-linecap: square"/>
   </g>
   <g id="legend_1">
    <g id="patch_7">
     <path d="M 291.746875 267.812 
L 395.73125 267.812 
Q 397.93125 267.812 397.93125 265.612 
L 397.93125 168.868562 
Q 397.93125 166.668562 395.73125 166.668562 
L 291.746875 166.668562 
Q 289.546875 166.668562 289.546875 168.868562 
L 289.546875 265.612 
Q 289.546875 267.812 291.746875 267.812 
z
" style="fill: #ffffff; opacity: 0.8; stroke: #cccccc; stroke-linejoin: miter"/>
    </g>
    <g id="text_17">
     <!-- Strategy -->
     <g style="fill: #262626" transform="translate(318.03 180.186687) scale(0.12 -0.12)">
      <defs>
       <path id="DejaVuSans-53" d="M 3425 4513 
L 3425 3897 
Q 3066 4069 2747 4153 
Q 2428 4238 2131 4238 
Q 1616 4238 1336 4038 
Q 1056 3838 1056 3469 
Q 1056 3159 1242 3001 
Q 1428 2844 1947 2747 
L 2328 2669 
Q 3034 2534 3370 2195 
Q 3706 1856 3706 1288 
Q 3706 609 3251 259 
Q 2797 -91 1919 -91 
Q 1588 -91 1214 -16 
Q 841 59 441 206 
L 441 856 
Q 825 641 1194 531 
Q 1563 422 1919 422 
Q 2459 422 2753 634 
Q 3047 847 3047 1241 
Q 3047 1584 2836 1778 
Q 2625 1972 2144 2069 
L 1759 2144 
Q 1053 2284 737 2584 
Q 422 2884 422 3419 
Q 422 4038 858 4394 
Q 1294 4750 2059 4750 
Q 2388 4750 2728 4690 
Q 3069 4631 3425 4513 
z
" transform="scale(0.015625)"/>
       <path id="DejaVuSans-74" d="M 1172 4494 
L 1172 3500 
L 2356 3500 
L 2356 3053 
L 1172 3053 
L 1172 1153 
Q 1172 725 1289 603 
Q 1406 481 1766 481 
L 2356 481 
L 2356 0 
L 1766 0 
Q 1100 0 847 248 
Q 594 497 594 1153 
L 594 3053 
L 172 3053 
L 172 3500 
L 594 3500 
L 594 4494 
L 1172 4494 
z
" transform="scale(0.015625)"/>
       <path id="DejaVuSans-65" d="M 3597 1894 
L 3597 1613 
L 953 1613 
Q 991 1019 1311 708 
Q 1631 397 2203 397 
Q 2534 397 2845 478 
Q 3156 559 3463 722 
L 3463 178 
Q 3153 47 2828 -22 
Q 2503 -91 2169 -91 
Q 1331 -91 842 396 
Q 353 884 353 1716 
Q 353 2575 817 3079 
Q 1281 3584 2069 3584 
Q 2775 3584 3186 3129 
Q 3597 2675 3597 1894 
z
M 3022 2063 
Q 3016 2534 2758 2815 
Q 2500 3097 2075 3097 
Q 1594 3097 1305 2825 
Q 1016 2553 972 2059 
L 3022 2063 
z
" transform="scale(0.015625)"/>
       <path id="DejaVuSans-67" d="M 2906 1791 
Q 2906 2416 2648 2759 
Q 2391 3103 1925 3103 
Q 1463 3103 1205 2759 
Q 947 2416 947 1791 
Q 947 1169 1205 825 
Q 1463 481 1925 481 
Q 2391 481 2648 825 
Q 2906 1169 2906 1791 
z
M 3481 434 
Q 3481 -459 3084 -895 
Q 2688 -1331 1869 -1331 
Q 1566 -1331 1297 -1286 
Q 1028 -1241 775 -1147 
L 775 -588 
Q 1028 -725 1275 -790 
Q 1522 -856 1778 -856 
Q 2344 -856 2625 -561 
Q 2906 -266 2906 331 
L 2906 616 
Q 2728 306 2450 153 
Q 2172 0 1784 0 
Q 1141 0 747 490 
Q 353 981 353 1791 
Q 353 2603 747 3093 
Q 1141 3584 1784 3584 
Q 2172 3584 2450 3431 
Q 2728 3278 2906 2969 
L 2906 3500 
L 3481 3500 
L 3481 434 
z
" transform="scale(0.015625)"/>
      </defs>
      <use xlink:href="#DejaVuSans-53"/>
      <use xlink:href="#DejaVuSans-74" x="63.476562"/>
      <use xlink:href="#DejaVuSans-72" x="102.685547"/>
      <use xlink:href="#DejaVuSans-61" x="143.798828"/>
      <use xlink:href="#DejaVuSans-74" x="205.078125"/>
      <use xlink:href="#DejaVuSans-65" x="244.287109"/>
      <use xlink:href="#DejaVuSans-67" x="305.810547"/>
      <use xlink:href="#DejaVuSans-79" x="369.287109"/>
     </g>
    </g>
    <g id="line2d_25">
     <path d="M 293.946875 192.690594 
L 304.946875 192.690594 
L 315.946875 192.690594 
" style="fill: none; stroke: #4c72b0; stroke-width: 1.5; stroke-linecap: round"/>
    </g>
    <g id="text_18">
     <!-- FedPredict -->
     <g style="fill: #262626" transform="translate(324.746875 196.540594) scale(0.11 -0.11)">
      <defs>
       <path id="DejaVuSans-46" d="M 628 4666 
L 3309 4666 
L 3309 4134 
L 1259 4134 
L 1259 2759 
L 3109 2759 
L 3109 2228 
L 1259 2228 
L 1259 0 
L 628 0 
L 628 4666 
z
" transform="scale(0.015625)"/>
       <path id="DejaVuSans-50" d="M 1259 4147 
L 1259 2394 
L 2053 2394 
Q 2494 2394 2734 2622 
Q 2975 2850 2975 3272 
Q 2975 3691 2734 3919 
Q 2494 4147 2053 4147 
L 1259 4147 
z
M 628 4666 
L 2053 4666 
Q 2838 4666 3239 4311 
Q 3641 3956 3641 3272 
Q 3641 2581 3239 2228 
Q 2838 1875 2053 1875 
L 1259 1875 
L 1259 0 
L 628 0 
L 628 4666 
z
" transform="scale(0.015625)"/>
       <path id="DejaVuSans-69" d="M 603 3500 
L 1178 3500 
L 1178 0 
L 603 0 
L 603 3500 
z
M 603 4863 
L 1178 4863 
L 1178 4134 
L 603 4134 
L 603 4863 
z
" transform="scale(0.015625)"/>
      </defs>
      <use xlink:href="#DejaVuSans-46"/>
      <use xlink:href="#DejaVuSans-65" x="52.019531"/>
      <use xlink:href="#DejaVuSans-64" x="113.542969"/>
      <use xlink:href="#DejaVuSans-50" x="177.019531"/>
      <use xlink:href="#DejaVuSans-72" x="235.572266"/>
      <use xlink:href="#DejaVuSans-65" x="274.435547"/>
      <use xlink:href="#DejaVuSans-64" x="335.958984"/>
      <use xlink:href="#DejaVuSans-69" x="399.435547"/>
      <use xlink:href="#DejaVuSans-63" x="427.21875"/>
      <use xlink:href="#DejaVuSans-74" x="482.199219"/>
     </g>
    </g>
    <g id="line2d_26">
     <path d="M 293.946875 208.836531 
L 304.946875 208.836531 
L 315.946875 208.836531 
" style="fill: none; stroke: #dd8452; stroke-width: 1.5; stroke-linecap: round"/>
    </g>
    <g id="text_19">
     <!-- FedAVG -->
     <g style="fill: #262626" transform="translate(324.746875 212.686531) scale(0.11 -0.11)">
      <defs>
       <path id="DejaVuSans-56" d="M 1831 0 
L 50 4666 
L 709 4666 
L 2188 738 
L 3669 4666 
L 4325 4666 
L 2547 0 
L 1831 0 
z
" transform="scale(0.015625)"/>
       <path id="DejaVuSans-47" d="M 3809 666 
L 3809 1919 
L 2778 1919 
L 2778 2438 
L 4434 2438 
L 4434 434 
Q 4069 175 3628 42 
Q 3188 -91 2688 -91 
Q 1594 -91 976 548 
Q 359 1188 359 2328 
Q 359 3472 976 4111 
Q 1594 4750 2688 4750 
Q 3144 4750 3555 4637 
Q 3966 4525 4313 4306 
L 4313 3634 
Q 3963 3931 3569 4081 
Q 3175 4231 2741 4231 
Q 1884 4231 1454 3753 
Q 1025 3275 1025 2328 
Q 1025 1384 1454 906 
Q 1884 428 2741 428 
Q 3075 428 3337 486 
Q 3600 544 3809 666 
z
" transform="scale(0.015625)"/>
      </defs>
      <use xlink:href="#DejaVuSans-46"/>
      <use xlink:href="#DejaVuSans-65" x="52.019531"/>
      <use xlink:href="#DejaVuSans-64" x="113.542969"/>
      <use xlink:href="#DejaVuSans-41" x="177.019531"/>
      <use xlink:href="#DejaVuSans-56" x="239.052734"/>
      <use xlink:href="#DejaVuSans-47" x="307.460938"/>
     </g>
    </g>
    <g id="line2d_27">
     <path d="M 293.946875 224.982469 
L 304.946875 224.982469 
L 315.946875 224.982469 
" style="fill: none; stroke: #55a868; stroke-width: 1.5; stroke-linecap: round"/>
    </g>
    <g id="text_20">
     <!-- FedClassAvg -->
     <g style="fill: #262626" transform="translate(324.746875 228.832469) scale(0.11 -0.11)">
      <defs>
       <path id="DejaVuSans-43" d="M 4122 4306 
L 4122 3641 
Q 3803 3938 3442 4084 
Q 3081 4231 2675 4231 
Q 1875 4231 1450 3742 
Q 1025 3253 1025 2328 
Q 1025 1406 1450 917 
Q 1875 428 2675 428 
Q 3081 428 3442 575 
Q 3803 722 4122 1019 
L 4122 359 
Q 3791 134 3420 21 
Q 3050 -91 2638 -91 
Q 1578 -91 968 557 
Q 359 1206 359 2328 
Q 359 3453 968 4101 
Q 1578 4750 2638 4750 
Q 3056 4750 3426 4639 
Q 3797 4528 4122 4306 
z
" transform="scale(0.015625)"/>
       <path id="DejaVuSans-6c" d="M 603 4863 
L 1178 4863 
L 1178 0 
L 603 0 
L 603 4863 
z
" transform="scale(0.015625)"/>
       <path id="DejaVuSans-73" d="M 2834 3397 
L 2834 2853 
Q 2591 2978 2328 3040 
Q 2066 3103 1784 3103 
Q 1356 3103 1142 2972 
Q 928 2841 928 2578 
Q 928 2378 1081 2264 
Q 1234 2150 1697 2047 
L 1894 2003 
Q 2506 1872 2764 1633 
Q 3022 1394 3022 966 
Q 3022 478 2636 193 
Q 2250 -91 1575 -91 
Q 1294 -91 989 -36 
Q 684 19 347 128 
L 347 722 
Q 666 556 975 473 
Q 1284 391 1588 391 
Q 1994 391 2212 530 
Q 2431 669 2431 922 
Q 2431 1156 2273 1281 
Q 2116 1406 1581 1522 
L 1381 1569 
Q 847 1681 609 1914 
Q 372 2147 372 2553 
Q 372 3047 722 3315 
Q 1072 3584 1716 3584 
Q 2034 3584 2315 3537 
Q 2597 3491 2834 3397 
z
" transform="scale(0.015625)"/>
       <path id="DejaVuSans-76" d="M 191 3500 
L 800 3500 
L 1894 563 
L 2988 3500 
L 3597 3500 
L 2284 0 
L 1503 0 
L 191 3500 
z
" transform="scale(0.015625)"/>
      </defs>
      <use xlink:href="#DejaVuSans-46"/>
      <use xlink:href="#DejaVuSans-65" x="52.019531"/>
      <use xlink:href="#DejaVuSans-64" x="113.542969"/>
      <use xlink:href="#DejaVuSans-43" x="177.019531"/>
      <use xlink:href="#DejaVuSans-6c" x="246.84375"/>
      <use xlink:href="#DejaVuSans-61" x="274.626953"/>
      <use xlink:href="#DejaVuSans-73" x="335.90625"/>
      <use xlink:href="#DejaVuSans-73" x="388.005859"/>
      <use xlink:href="#DejaVuSans-41" x="440.105469"/>
      <use xlink:href="#DejaVuSans-76" x="502.638672"/>
      <use xlink:href="#DejaVuSans-67" x="561.818359"/>
     </g>
    </g>
    <g id="line2d_28">
     <path d="M 293.946875 241.128406 
L 304.946875 241.128406 
L 315.946875 241.128406 
" style="fill: none; stroke: #c44e52; stroke-width: 1.5; stroke-linecap: round"/>
    </g>
    <g id="text_21">
     <!-- FedPer -->
     <g style="fill: #262626" transform="translate(324.746875 244.978406) scale(0.11 -0.11)">
      <use xlink:href="#DejaVuSans-46"/>
      <use xlink:href="#DejaVuSans-65" x="52.019531"/>
      <use xlink:href="#DejaVuSans-64" x="113.542969"/>
      <use xlink:href="#DejaVuSans-50" x="177.019531"/>
      <use xlink:href="#DejaVuSans-65" x="233.697266"/>
      <use xlink:href="#DejaVuSans-72" x="295.220703"/>
     </g>
    </g>
    <g id="line2d_29">
     <path d="M 293.946875 257.274344 
L 304.946875 257.274344 
L 315.946875 257.274344 
" style="fill: none; stroke: #8172b3; stroke-width: 1.5; stroke-linecap: round"/>
    </g>
    <g id="text_22">
     <!-- FedProto -->
     <g style="fill: #262626" transform="translate(324.746875 261.124344) scale(0.11 -0.11)">
      <use xlink:href="#DejaVuSans-46"/>
      <use xlink:href="#DejaVuSans-65" x="52.019531"/>
      <use xlink:href="#DejaVuSans-64" x="113.542969"/>
      <use xlink:href="#DejaVuSans-50" x="177.019531"/>
      <use xlink:href="#DejaVuSans-72" x="235.572266"/>
      <use xlink:href="#DejaVuSans-6f" x="274.435547"/>
      <use xlink:href="#DejaVuSans-74" x="335.617188"/>
      <use xlink:href="#DejaVuSans-6f" x="374.826172"/>
     </g>
    </g>
   </g>
  </g>
 </g>
 <defs>
  <clipPath id="p4ed35cbe2d">
   <rect x="46.31125" y="7.2" width="357.12" height="266.112"/>
  </clipPath>
 </defs>
</svg>
