<?xml version="1.0" encoding="utf-8" standalone="no"?>
<!DOCTYPE svg PUBLIC "-//W3C//DTD SVG 1.1//EN"
  "http://www.w3.org/Graphics/SVG/1.1/DTD/svg11.dtd">
<svg xmlns:xlink="http://www.w3.org/1999/xlink" width="414.127187pt" height="316.271687pt" viewBox="0 0 414.127187 316.271687" xmlns="http://www.w3.org/2000/svg" version="1.1">
 <metadata>
  <rdf:RDF xmlns:dc="http://purl.org/dc/elements/1.1/" xmlns:cc="http://creativecommons.org/ns#" xmlns:rdf="http://www.w3.org/1999/02/22-rdf-syntax-ns#">
   <cc:Work>
    <dc:type rdf:resource="http://purl.org/dc/dcmitype/StillImage"/>
    <dc:date>2023-03-01T18:57:00.128356</dc:date>
    <dc:format>image/svg+xml</dc:format>
    <dc:creator>
     <cc:Agent>
      <dc:title>Matplotlib v3.6.3, https://matplotlib.org/</dc:title>
     </cc:Agent>
    </dc:creator>
   </cc:Work>
  </rdf:RDF>
 </metadata>
 <defs>
  <style type="text/css">*{stroke-linejoin: round; stroke-linecap: butt}</style>
 </defs>
 <g id="figure_1">
  <g id="patch_1">
   <path d="M 0 316.271687 
L 414.127187 316.271687 
L 414.127187 0 
L 0 0 
z
" style="fill: #ffffff"/>
  </g>
  <g id="axes_1">
   <g id="patch_2">
    <path d="M 49.807187 273.312 
L 406.927188 273.312 
L 406.927188 7.2 
L 49.807187 7.2 
z
" style="fill: #ffffff"/>
   </g>
   <g id="matplotlib.axis_1">
    <g id="xtick_1">
     <g id="line2d_1">
      <path d="M 62.760576 273.312 
L 62.760576 7.2 
" clip-path="url(#p1b7aaf50e4)" style="fill: none; stroke: #cccccc; stroke-linecap: round"/>
     </g>
     <g id="text_1">
      <!-- 0 -->
      <g style="fill: #262626" transform="translate(59.261201 291.170281) scale(0.11 -0.11)">
       <defs>
        <path id="DejaVuSans-30" d="M 2034 4250 
Q 1547 4250 1301 3770 
Q 1056 3291 1056 2328 
Q 1056 1369 1301 889 
Q 1547 409 2034 409 
Q 2525 409 2770 889 
Q 3016 1369 3016 2328 
Q 3016 3291 2770 3770 
Q 2525 4250 2034 4250 
z
M 2034 4750 
Q 2819 4750 3233 4129 
Q 3647 3509 3647 2328 
Q 3647 1150 3233 529 
Q 2819 -91 2034 -91 
Q 1250 -91 836 529 
Q 422 1150 422 2328 
Q 422 3509 836 4129 
Q 1250 4750 2034 4750 
z
" transform="scale(0.015625)"/>
       </defs>
       <use xlink:href="#DejaVuSans-30"/>
      </g>
     </g>
    </g>
    <g id="xtick_2">
     <g id="line2d_2">
      <path d="M 128.347353 273.312 
L 128.347353 7.2 
" clip-path="url(#p1b7aaf50e4)" style="fill: none; stroke: #cccccc; stroke-linecap: round"/>
     </g>
     <g id="text_2">
      <!-- 20 -->
      <g style="fill: #262626" transform="translate(121.348603 291.170281) scale(0.11 -0.11)">
       <defs>
        <path id="DejaVuSans-32" d="M 1228 531 
L 3431 531 
L 3431 0 
L 469 0 
L 469 531 
Q 828 903 1448 1529 
Q 2069 2156 2228 2338 
Q 2531 2678 2651 2914 
Q 2772 3150 2772 3378 
Q 2772 3750 2511 3984 
Q 2250 4219 1831 4219 
Q 1534 4219 1204 4116 
Q 875 4013 500 3803 
L 500 4441 
Q 881 4594 1212 4672 
Q 1544 4750 1819 4750 
Q 2544 4750 2975 4387 
Q 3406 4025 3406 3419 
Q 3406 3131 3298 2873 
Q 3191 2616 2906 2266 
Q 2828 2175 2409 1742 
Q 1991 1309 1228 531 
z
" transform="scale(0.015625)"/>
       </defs>
       <use xlink:href="#DejaVuSans-32"/>
       <use xlink:href="#DejaVuSans-30" x="63.623047"/>
      </g>
     </g>
    </g>
    <g id="xtick_3">
     <g id="line2d_3">
      <path d="M 193.93413 273.312 
L 193.93413 7.2 
" clip-path="url(#p1b7aaf50e4)" style="fill: none; stroke: #cccccc; stroke-linecap: round"/>
     </g>
     <g id="text_3">
      <!-- 40 -->
      <g style="fill: #262626" transform="translate(186.93538 291.170281) scale(0.11 -0.11)">
       <defs>
        <path id="DejaVuSans-34" d="M 2419 4116 
L 825 1625 
L 2419 1625 
L 2419 4116 
z
M 2253 4666 
L 3047 4666 
L 3047 1625 
L 3713 1625 
L 3713 1100 
L 3047 1100 
L 3047 0 
L 2419 0 
L 2419 1100 
L 313 1100 
L 313 1709 
L 2253 4666 
z
" transform="scale(0.015625)"/>
       </defs>
       <use xlink:href="#DejaVuSans-34"/>
       <use xlink:href="#DejaVuSans-30" x="63.623047"/>
      </g>
     </g>
    </g>
    <g id="xtick_4">
     <g id="line2d_4">
      <path d="M 259.520907 273.312 
L 259.520907 7.2 
" clip-path="url(#p1b7aaf50e4)" style="fill: none; stroke: #cccccc; stroke-linecap: round"/>
     </g>
     <g id="text_4">
      <!-- 60 -->
      <g style="fill: #262626" transform="translate(252.522157 291.170281) scale(0.11 -0.11)">
       <defs>
        <path id="DejaVuSans-36" d="M 2113 2584 
Q 1688 2584 1439 2293 
Q 1191 2003 1191 1497 
Q 1191 994 1439 701 
Q 1688 409 2113 409 
Q 2538 409 2786 701 
Q 3034 994 3034 1497 
Q 3034 2003 2786 2293 
Q 2538 2584 2113 2584 
z
M 3366 4563 
L 3366 3988 
Q 3128 4100 2886 4159 
Q 2644 4219 2406 4219 
Q 1781 4219 1451 3797 
Q 1122 3375 1075 2522 
Q 1259 2794 1537 2939 
Q 1816 3084 2150 3084 
Q 2853 3084 3261 2657 
Q 3669 2231 3669 1497 
Q 3669 778 3244 343 
Q 2819 -91 2113 -91 
Q 1303 -91 875 529 
Q 447 1150 447 2328 
Q 447 3434 972 4092 
Q 1497 4750 2381 4750 
Q 2619 4750 2861 4703 
Q 3103 4656 3366 4563 
z
" transform="scale(0.015625)"/>
       </defs>
       <use xlink:href="#DejaVuSans-36"/>
       <use xlink:href="#DejaVuSans-30" x="63.623047"/>
      </g>
     </g>
    </g>
    <g id="xtick_5">
     <g id="line2d_5">
      <path d="M 325.107683 273.312 
L 325.107683 7.2 
" clip-path="url(#p1b7aaf50e4)" style="fill: none; stroke: #cccccc; stroke-linecap: round"/>
     </g>
     <g id="text_5">
      <!-- 80 -->
      <g style="fill: #262626" transform="translate(318.108933 291.170281) scale(0.11 -0.11)">
       <defs>
        <path id="DejaVuSans-38" d="M 2034 2216 
Q 1584 2216 1326 1975 
Q 1069 1734 1069 1313 
Q 1069 891 1326 650 
Q 1584 409 2034 409 
Q 2484 409 2743 651 
Q 3003 894 3003 1313 
Q 3003 1734 2745 1975 
Q 2488 2216 2034 2216 
z
M 1403 2484 
Q 997 2584 770 2862 
Q 544 3141 544 3541 
Q 544 4100 942 4425 
Q 1341 4750 2034 4750 
Q 2731 4750 3128 4425 
Q 3525 4100 3525 3541 
Q 3525 3141 3298 2862 
Q 3072 2584 2669 2484 
Q 3125 2378 3379 2068 
Q 3634 1759 3634 1313 
Q 3634 634 3220 271 
Q 2806 -91 2034 -91 
Q 1263 -91 848 271 
Q 434 634 434 1313 
Q 434 1759 690 2068 
Q 947 2378 1403 2484 
z
M 1172 3481 
Q 1172 3119 1398 2916 
Q 1625 2713 2034 2713 
Q 2441 2713 2670 2916 
Q 2900 3119 2900 3481 
Q 2900 3844 2670 4047 
Q 2441 4250 2034 4250 
Q 1625 4250 1398 4047 
Q 1172 3844 1172 3481 
z
" transform="scale(0.015625)"/>
       </defs>
       <use xlink:href="#DejaVuSans-38"/>
       <use xlink:href="#DejaVuSans-30" x="63.623047"/>
      </g>
     </g>
    </g>
    <g id="xtick_6">
     <g id="line2d_6">
      <path d="M 390.69446 273.312 
L 390.69446 7.2 
" clip-path="url(#p1b7aaf50e4)" style="fill: none; stroke: #cccccc; stroke-linecap: round"/>
     </g>
     <g id="text_6">
      <!-- 100 -->
      <g style="fill: #262626" transform="translate(380.196335 291.170281) scale(0.11 -0.11)">
       <defs>
        <path id="DejaVuSans-31" d="M 794 531 
L 1825 531 
L 1825 4091 
L 703 3866 
L 703 4441 
L 1819 4666 
L 2450 4666 
L 2450 531 
L 3481 531 
L 3481 0 
L 794 0 
L 794 531 
z
" transform="scale(0.015625)"/>
       </defs>
       <use xlink:href="#DejaVuSans-31"/>
       <use xlink:href="#DejaVuSans-30" x="63.623047"/>
       <use xlink:href="#DejaVuSans-30" x="127.246094"/>
      </g>
     </g>
    </g>
    <g id="text_7">
     <!-- Round -->
     <g style="fill: #262626" transform="translate(209.382812 306.576062) scale(0.12 -0.12)">
      <defs>
       <path id="DejaVuSans-52" d="M 2841 2188 
Q 3044 2119 3236 1894 
Q 3428 1669 3622 1275 
L 4263 0 
L 3584 0 
L 2988 1197 
Q 2756 1666 2539 1819 
Q 2322 1972 1947 1972 
L 1259 1972 
L 1259 0 
L 628 0 
L 628 4666 
L 2053 4666 
Q 2853 4666 3247 4331 
Q 3641 3997 3641 3322 
Q 3641 2881 3436 2590 
Q 3231 2300 2841 2188 
z
M 1259 4147 
L 1259 2491 
L 2053 2491 
Q 2509 2491 2742 2702 
Q 2975 2913 2975 3322 
Q 2975 3731 2742 3939 
Q 2509 4147 2053 4147 
L 1259 4147 
z
" transform="scale(0.015625)"/>
       <path id="DejaVuSans-6f" d="M 1959 3097 
Q 1497 3097 1228 2736 
Q 959 2375 959 1747 
Q 959 1119 1226 758 
Q 1494 397 1959 397 
Q 2419 397 2687 759 
Q 2956 1122 2956 1747 
Q 2956 2369 2687 2733 
Q 2419 3097 1959 3097 
z
M 1959 3584 
Q 2709 3584 3137 3096 
Q 3566 2609 3566 1747 
Q 3566 888 3137 398 
Q 2709 -91 1959 -91 
Q 1206 -91 779 398 
Q 353 888 353 1747 
Q 353 2609 779 3096 
Q 1206 3584 1959 3584 
z
" transform="scale(0.015625)"/>
       <path id="DejaVuSans-75" d="M 544 1381 
L 544 3500 
L 1119 3500 
L 1119 1403 
Q 1119 906 1312 657 
Q 1506 409 1894 409 
Q 2359 409 2629 706 
Q 2900 1003 2900 1516 
L 2900 3500 
L 3475 3500 
L 3475 0 
L 2900 0 
L 2900 538 
Q 2691 219 2414 64 
Q 2138 -91 1772 -91 
Q 1169 -91 856 284 
Q 544 659 544 1381 
z
M 1991 3584 
L 1991 3584 
z
" transform="scale(0.015625)"/>
       <path id="DejaVuSans-6e" d="M 3513 2113 
L 3513 0 
L 2938 0 
L 2938 2094 
Q 2938 2591 2744 2837 
Q 2550 3084 2163 3084 
Q 1697 3084 1428 2787 
Q 1159 2491 1159 1978 
L 1159 0 
L 581 0 
L 581 3500 
L 1159 3500 
L 1159 2956 
Q 1366 3272 1645 3428 
Q 1925 3584 2291 3584 
Q 2894 3584 3203 3211 
Q 3513 2838 3513 2113 
z
" transform="scale(0.015625)"/>
       <path id="DejaVuSans-64" d="M 2906 2969 
L 2906 4863 
L 3481 4863 
L 3481 0 
L 2906 0 
L 2906 525 
Q 2725 213 2448 61 
Q 2172 -91 1784 -91 
Q 1150 -91 751 415 
Q 353 922 353 1747 
Q 353 2572 751 3078 
Q 1150 3584 1784 3584 
Q 2172 3584 2448 3432 
Q 2725 3281 2906 2969 
z
M 947 1747 
Q 947 1113 1208 752 
Q 1469 391 1925 391 
Q 2381 391 2643 752 
Q 2906 1113 2906 1747 
Q 2906 2381 2643 2742 
Q 2381 3103 1925 3103 
Q 1469 3103 1208 2742 
Q 947 2381 947 1747 
z
" transform="scale(0.015625)"/>
      </defs>
      <use xlink:href="#DejaVuSans-52"/>
      <use xlink:href="#DejaVuSans-6f" x="64.982422"/>
      <use xlink:href="#DejaVuSans-75" x="126.164062"/>
      <use xlink:href="#DejaVuSans-6e" x="189.542969"/>
      <use xlink:href="#DejaVuSans-64" x="252.921875"/>
     </g>
    </g>
   </g>
   <g id="matplotlib.axis_2">
    <g id="ytick_1">
     <g id="line2d_7">
      <path d="M 49.807187 261.165971 
L 406.927188 261.165971 
" clip-path="url(#p1b7aaf50e4)" style="fill: none; stroke: #cccccc; stroke-linecap: round"/>
     </g>
     <g id="text_8">
      <!-- 0.5 -->
      <g style="fill: #262626" transform="translate(22.81375 265.345112) scale(0.11 -0.11)">
       <defs>
        <path id="DejaVuSans-2e" d="M 684 794 
L 1344 794 
L 1344 0 
L 684 0 
L 684 794 
z
" transform="scale(0.015625)"/>
        <path id="DejaVuSans-35" d="M 691 4666 
L 3169 4666 
L 3169 4134 
L 1269 4134 
L 1269 2991 
Q 1406 3038 1543 3061 
Q 1681 3084 1819 3084 
Q 2600 3084 3056 2656 
Q 3513 2228 3513 1497 
Q 3513 744 3044 326 
Q 2575 -91 1722 -91 
Q 1428 -91 1123 -41 
Q 819 9 494 109 
L 494 744 
Q 775 591 1075 516 
Q 1375 441 1709 441 
Q 2250 441 2565 725 
Q 2881 1009 2881 1497 
Q 2881 1984 2565 2268 
Q 2250 2553 1709 2553 
Q 1456 2553 1204 2497 
Q 953 2441 691 2322 
L 691 4666 
z
" transform="scale(0.015625)"/>
       </defs>
       <use xlink:href="#DejaVuSans-30"/>
       <use xlink:href="#DejaVuSans-2e" x="63.623047"/>
       <use xlink:href="#DejaVuSans-35" x="95.410156"/>
      </g>
     </g>
    </g>
    <g id="ytick_2">
     <g id="line2d_8">
      <path d="M 49.807187 213.417566 
L 406.927188 213.417566 
" clip-path="url(#p1b7aaf50e4)" style="fill: none; stroke: #cccccc; stroke-linecap: round"/>
     </g>
     <g id="text_9">
      <!-- 1.0 -->
      <g style="fill: #262626" transform="translate(22.81375 217.596707) scale(0.11 -0.11)">
       <use xlink:href="#DejaVuSans-31"/>
       <use xlink:href="#DejaVuSans-2e" x="63.623047"/>
       <use xlink:href="#DejaVuSans-30" x="95.410156"/>
      </g>
     </g>
    </g>
    <g id="ytick_3">
     <g id="line2d_9">
      <path d="M 49.807187 165.669161 
L 406.927188 165.669161 
" clip-path="url(#p1b7aaf50e4)" style="fill: none; stroke: #cccccc; stroke-linecap: round"/>
     </g>
     <g id="text_10">
      <!-- 1.5 -->
      <g style="fill: #262626" transform="translate(22.81375 169.848302) scale(0.11 -0.11)">
       <use xlink:href="#DejaVuSans-31"/>
       <use xlink:href="#DejaVuSans-2e" x="63.623047"/>
       <use xlink:href="#DejaVuSans-35" x="95.410156"/>
      </g>
     </g>
    </g>
    <g id="ytick_4">
     <g id="line2d_10">
      <path d="M 49.807187 117.920756 
L 406.927188 117.920756 
" clip-path="url(#p1b7aaf50e4)" style="fill: none; stroke: #cccccc; stroke-linecap: round"/>
     </g>
     <g id="text_11">
      <!-- 2.0 -->
      <g style="fill: #262626" transform="translate(22.81375 122.099897) scale(0.11 -0.11)">
       <use xlink:href="#DejaVuSans-32"/>
       <use xlink:href="#DejaVuSans-2e" x="63.623047"/>
       <use xlink:href="#DejaVuSans-30" x="95.410156"/>
      </g>
     </g>
    </g>
    <g id="ytick_5">
     <g id="line2d_11">
      <path d="M 49.807187 70.172351 
L 406.927188 70.172351 
" clip-path="url(#p1b7aaf50e4)" style="fill: none; stroke: #cccccc; stroke-linecap: round"/>
     </g>
     <g id="text_12">
      <!-- 2.5 -->
      <g style="fill: #262626" transform="translate(22.81375 74.351492) scale(0.11 -0.11)">
       <use xlink:href="#DejaVuSans-32"/>
       <use xlink:href="#DejaVuSans-2e" x="63.623047"/>
       <use xlink:href="#DejaVuSans-35" x="95.410156"/>
      </g>
     </g>
    </g>
    <g id="ytick_6">
     <g id="line2d_12">
      <path d="M 49.807187 22.423946 
L 406.927188 22.423946 
" clip-path="url(#p1b7aaf50e4)" style="fill: none; stroke: #cccccc; stroke-linecap: round"/>
     </g>
     <g id="text_13">
      <!-- 3.0 -->
      <g style="fill: #262626" transform="translate(22.81375 26.603087) scale(0.11 -0.11)">
       <defs>
        <path id="DejaVuSans-33" d="M 2597 2516 
Q 3050 2419 3304 2112 
Q 3559 1806 3559 1356 
Q 3559 666 3084 287 
Q 2609 -91 1734 -91 
Q 1441 -91 1130 -33 
Q 819 25 488 141 
L 488 750 
Q 750 597 1062 519 
Q 1375 441 1716 441 
Q 2309 441 2620 675 
Q 2931 909 2931 1356 
Q 2931 1769 2642 2001 
Q 2353 2234 1838 2234 
L 1294 2234 
L 1294 2753 
L 1863 2753 
Q 2328 2753 2575 2939 
Q 2822 3125 2822 3475 
Q 2822 3834 2567 4026 
Q 2313 4219 1838 4219 
Q 1578 4219 1281 4162 
Q 984 4106 628 3988 
L 628 4550 
Q 988 4650 1302 4700 
Q 1616 4750 1894 4750 
Q 2613 4750 3031 4423 
Q 3450 4097 3450 3541 
Q 3450 3153 3228 2886 
Q 3006 2619 2597 2516 
z
" transform="scale(0.015625)"/>
       </defs>
       <use xlink:href="#DejaVuSans-33"/>
       <use xlink:href="#DejaVuSans-2e" x="63.623047"/>
       <use xlink:href="#DejaVuSans-30" x="95.410156"/>
      </g>
     </g>
    </g>
    <g id="text_14">
     <!-- Loss -->
     <g style="fill: #262626" transform="translate(16.318125 153.416625) rotate(-90) scale(0.12 -0.12)">
      <defs>
       <path id="DejaVuSans-4c" d="M 628 4666 
L 1259 4666 
L 1259 531 
L 3531 531 
L 3531 0 
L 628 0 
L 628 4666 
z
" transform="scale(0.015625)"/>
       <path id="DejaVuSans-73" d="M 2834 3397 
L 2834 2853 
Q 2591 2978 2328 3040 
Q 2066 3103 1784 3103 
Q 1356 3103 1142 2972 
Q 928 2841 928 2578 
Q 928 2378 1081 2264 
Q 1234 2150 1697 2047 
L 1894 2003 
Q 2506 1872 2764 1633 
Q 3022 1394 3022 966 
Q 3022 478 2636 193 
Q 2250 -91 1575 -91 
Q 1294 -91 989 -36 
Q 684 19 347 128 
L 347 722 
Q 666 556 975 473 
Q 1284 391 1588 391 
Q 1994 391 2212 530 
Q 2431 669 2431 922 
Q 2431 1156 2273 1281 
Q 2116 1406 1581 1522 
L 1381 1569 
Q 847 1681 609 1914 
Q 372 2147 372 2553 
Q 372 3047 722 3315 
Q 1072 3584 1716 3584 
Q 2034 3584 2315 3537 
Q 2597 3491 2834 3397 
z
" transform="scale(0.015625)"/>
      </defs>
      <use xlink:href="#DejaVuSans-4c"/>
      <use xlink:href="#DejaVuSans-6f" x="53.962891"/>
      <use xlink:href="#DejaVuSans-73" x="115.144531"/>
      <use xlink:href="#DejaVuSans-73" x="167.244141"/>
     </g>
    </g>
   </g>
   <g id="PolyCollection_1">
    <defs>
     <path id="mec8d361b48" d="M 66.039915 -229.422709 
L 66.039915 -181.763076 
L 69.319254 -148.246298 
L 72.598592 -131.366588 
L 75.877931 -124.911198 
L 79.15727 -113.513259 
L 82.436609 -114.830699 
L 85.715948 -103.723171 
L 88.995287 -112.733021 
L 92.274626 -102.594713 
L 95.553964 -95.439365 
L 98.833303 -94.461101 
L 102.112642 -96.530597 
L 105.391981 -91.608441 
L 108.67132 -89.835807 
L 111.950659 -86.883686 
L 115.229997 -88.067984 
L 118.509336 -79.848116 
L 121.788675 -82.394315 
L 125.068014 -78.950897 
L 128.347353 -81.175414 
L 131.626692 -80.533153 
L 134.90603 -76.535155 
L 138.185369 -77.02571 
L 141.464708 -79.007994 
L 144.744047 -72.88497 
L 148.023386 -70.906901 
L 151.302725 -69.65447 
L 154.582064 -72.869158 
L 157.861402 -72.31831 
L 161.140741 -71.189019 
L 164.42008 -69.170216 
L 167.699419 -68.099572 
L 170.978758 -66.640337 
L 174.258097 -67.19822 
L 177.537435 -67.276397 
L 180.816774 -67.898111 
L 184.096113 -67.416239 
L 187.375452 -66.635928 
L 190.654791 -66.62701 
L 193.93413 -65.560532 
L 197.213468 -65.398796 
L 200.492807 -65.11202 
L 203.772146 -65.314783 
L 207.051485 -66.201228 
L 210.330824 -64.502189 
L 213.610163 -63.149592 
L 216.889502 -64.180244 
L 220.16884 -62.144757 
L 223.448179 -65.670947 
L 226.727518 -66.594816 
L 230.006857 -66.171743 
L 233.286196 -62.980922 
L 236.565535 -60.259098 
L 239.844873 -60.397616 
L 243.124212 -62.499985 
L 246.403551 -60.923406 
L 249.68289 -60.742641 
L 252.962229 -61.535735 
L 256.241568 -57.714275 
L 259.520907 -60.74886 
L 262.800245 -59.085411 
L 266.079584 -59.218906 
L 269.358923 -57.738133 
L 272.638262 -58.253121 
L 275.917601 -57.648046 
L 279.19694 -56.368286 
L 282.476278 -55.055688 
L 285.755617 -58.537112 
L 289.034956 -58.897928 
L 292.314295 -68.145401 
L 295.593634 -67.511098 
L 298.872973 -67.427681 
L 302.152311 -66.383261 
L 305.43165 -65.841778 
L 308.710989 -68.089528 
L 311.990328 -65.783569 
L 315.269667 -66.465297 
L 318.549006 -67.216472 
L 321.828345 -69.399737 
L 325.107683 -67.820287 
L 328.387022 -66.489668 
L 331.666361 -65.379402 
L 334.9457 -67.218065 
L 338.225039 -68.364029 
L 341.504378 -67.077787 
L 344.783716 -64.706904 
L 348.063055 -67.138147 
L 351.342394 -66.723341 
L 354.621733 -66.639079 
L 357.901072 -66.626344 
L 361.180411 -65.420779 
L 364.459749 -65.611347 
L 367.739088 -66.430066 
L 371.018427 -65.20846 
L 374.297766 -63.295446 
L 377.577105 -64.569525 
L 380.856444 -62.929638 
L 384.135783 -65.572991 
L 387.415121 -65.505113 
L 390.69446 -64.24121 
L 390.69446 -85.560649 
L 390.69446 -85.560649 
L 387.415121 -85.744312 
L 384.135783 -87.133886 
L 380.856444 -83.050324 
L 377.577105 -86.785509 
L 374.297766 -85.312303 
L 371.018427 -87.111906 
L 367.739088 -88.726285 
L 364.459749 -87.270301 
L 361.180411 -87.588088 
L 357.901072 -88.111523 
L 354.621733 -88.552141 
L 351.342394 -86.76734 
L 348.063055 -89.77149 
L 344.783716 -87.044832 
L 341.504378 -90.001839 
L 338.225039 -91.574595 
L 334.9457 -87.24684 
L 331.666361 -85.425768 
L 328.387022 -86.72676 
L 325.107683 -89.479774 
L 321.828345 -90.041981 
L 318.549006 -88.546698 
L 315.269667 -87.379924 
L 311.990328 -85.874352 
L 308.710989 -86.044794 
L 305.43165 -85.621295 
L 302.152311 -87.716973 
L 298.872973 -89.580298 
L 295.593634 -88.452988 
L 292.314295 -88.753712 
L 289.034956 -79.661806 
L 285.755617 -76.702838 
L 282.476278 -72.806429 
L 279.19694 -74.249045 
L 275.917601 -76.550537 
L 272.638262 -75.396768 
L 269.358923 -75.561416 
L 266.079584 -78.980886 
L 262.800245 -78.301453 
L 259.520907 -78.92683 
L 256.241568 -76.683425 
L 252.962229 -82.142645 
L 249.68289 -79.957899 
L 246.403551 -79.49179 
L 243.124212 -81.040066 
L 239.844873 -80.599136 
L 236.565535 -78.314296 
L 233.286196 -79.336906 
L 230.006857 -84.249372 
L 226.727518 -86.27886 
L 223.448179 -84.969505 
L 220.16884 -81.431395 
L 216.889502 -83.35721 
L 213.610163 -83.179683 
L 210.330824 -84.396707 
L 207.051485 -83.509262 
L 203.772146 -86.73108 
L 200.492807 -83.585437 
L 197.213468 -86.299375 
L 193.93413 -87.037018 
L 190.654791 -85.886539 
L 187.375452 -86.022306 
L 184.096113 -85.919726 
L 180.816774 -87.804749 
L 177.537435 -87.676409 
L 174.258097 -86.562628 
L 170.978758 -87.659224 
L 167.699419 -87.992095 
L 164.42008 -87.571474 
L 161.140741 -90.712929 
L 157.861402 -90.171549 
L 154.582064 -91.195509 
L 151.302725 -89.192963 
L 148.023386 -92.434386 
L 144.744047 -93.655146 
L 141.464708 -102.188906 
L 138.185369 -99.238648 
L 134.90603 -97.119775 
L 131.626692 -101.205782 
L 128.347353 -101.770555 
L 125.068014 -102.395388 
L 121.788675 -105.253688 
L 118.509336 -101.583195 
L 115.229997 -113.452599 
L 111.950659 -108.94646 
L 108.67132 -114.353427 
L 105.391981 -118.450285 
L 102.112642 -122.021955 
L 98.833303 -120.259799 
L 95.553964 -120.605638 
L 92.274626 -135.637924 
L 88.995287 -137.661218 
L 85.715948 -131.475964 
L 82.436609 -144.20623 
L 79.15727 -148.028042 
L 75.877931 -159.312011 
L 72.598592 -173.28355 
L 69.319254 -196.508422 
L 66.039915 -229.422709 
z
" style="stroke: #4c72b0; stroke-opacity: 0.2"/>
    </defs>
    <g clip-path="url(#p1b7aaf50e4)">
     <use xlink:href="#mec8d361b48" x="0" y="316.271687" style="fill: #4c72b0; fill-opacity: 0.2; stroke: #4c72b0; stroke-opacity: 0.2"/>
    </g>
   </g>
   <g id="PolyCollection_2">
    <defs>
     <path id="m8afb3f8e77" d="M 66.039915 -253.187681 
L 66.039915 -224.886491 
L 69.319254 -224.519124 
L 72.598592 -213.793229 
L 75.877931 -210.171949 
L 79.15727 -205.651802 
L 82.436609 -197.499446 
L 85.715948 -194.705595 
L 88.995287 -202.059437 
L 92.274626 -197.054734 
L 95.553964 -184.307734 
L 98.833303 -183.524049 
L 102.112642 -184.872266 
L 105.391981 -193.898736 
L 108.67132 -185.736981 
L 111.950659 -170.828816 
L 115.229997 -176.006968 
L 118.509336 -163.997645 
L 121.788675 -167.901779 
L 125.068014 -158.868891 
L 128.347353 -161.662134 
L 131.626692 -172.479248 
L 134.90603 -158.632626 
L 138.185369 -167.443307 
L 141.464708 -160.265156 
L 144.744047 -155.129463 
L 148.023386 -148.201257 
L 151.302725 -152.959068 
L 154.582064 -159.578026 
L 157.861402 -157.459225 
L 161.140741 -153.581244 
L 164.42008 -149.158012 
L 167.699419 -144.204362 
L 170.978758 -152.881521 
L 174.258097 -145.697914 
L 177.537435 -145.520967 
L 180.816774 -150.881338 
L 184.096113 -141.402204 
L 187.375452 -156.923149 
L 190.654791 -147.167206 
L 193.93413 -153.99386 
L 197.213468 -152.708222 
L 200.492807 -137.565902 
L 203.772146 -146.350833 
L 207.051485 -141.658747 
L 210.330824 -146.672311 
L 213.610163 -156.200826 
L 216.889502 -146.587664 
L 220.16884 -140.366955 
L 223.448179 -153.678874 
L 226.727518 -158.203999 
L 230.006857 -153.425722 
L 233.286196 -141.204563 
L 236.565535 -139.96674 
L 239.844873 -130.500121 
L 243.124212 -129.657779 
L 246.403551 -134.031919 
L 249.68289 -127.83907 
L 252.962229 -133.669526 
L 256.241568 -143.366429 
L 259.520907 -136.639743 
L 262.800245 -142.258085 
L 266.079584 -134.631044 
L 269.358923 -128.616094 
L 272.638262 -136.314633 
L 275.917601 -127.039027 
L 279.19694 -128.022761 
L 282.476278 -125.47607 
L 285.755617 -124.270956 
L 289.034956 -136.977552 
L 292.314295 -134.669881 
L 295.593634 -130.188397 
L 298.872973 -142.542503 
L 302.152311 -124.446459 
L 305.43165 -135.525203 
L 308.710989 -127.539668 
L 311.990328 -133.548722 
L 315.269667 -136.858594 
L 318.549006 -127.622534 
L 321.828345 -131.704583 
L 325.107683 -138.358656 
L 328.387022 -138.477696 
L 331.666361 -128.986476 
L 334.9457 -125.536441 
L 338.225039 -135.820014 
L 341.504378 -145.924184 
L 344.783716 -130.834128 
L 348.063055 -160.962208 
L 351.342394 -181.629058 
L 354.621733 -124.582085 
L 357.901072 -123.392376 
L 361.180411 -130.413239 
L 364.459749 -127.880319 
L 367.739088 -129.345587 
L 371.018427 -127.138728 
L 374.297766 -122.47121 
L 377.577105 -132.610099 
L 380.856444 -133.745675 
L 384.135783 -125.026036 
L 387.415121 -123.341888 
L 390.69446 -122.926167 
L 390.69446 -139.459884 
L 390.69446 -139.459884 
L 387.415121 -141.908936 
L 384.135783 -145.804521 
L 380.856444 -156.165425 
L 377.577105 -161.158181 
L 374.297766 -145.216312 
L 371.018427 -145.932273 
L 367.739088 -146.764237 
L 364.459749 -152.611594 
L 361.180411 -149.752331 
L 357.901072 -140.181186 
L 354.621733 -145.079508 
L 351.342394 -216.902176 
L 348.063055 -196.370883 
L 344.783716 -145.558235 
L 341.504378 -169.18814 
L 338.225039 -160.54392 
L 334.9457 -146.576817 
L 331.666361 -154.87213 
L 328.387022 -162.37927 
L 325.107683 -157.260878 
L 321.828345 -148.578236 
L 318.549006 -145.862515 
L 315.269667 -154.734981 
L 311.990328 -152.670508 
L 308.710989 -139.180222 
L 305.43165 -149.958249 
L 302.152311 -143.781837 
L 298.872973 -169.377754 
L 295.593634 -151.38709 
L 292.314295 -153.903716 
L 289.034956 -166.329452 
L 285.755617 -148.918247 
L 282.476278 -154.269335 
L 279.19694 -146.186385 
L 275.917601 -153.132148 
L 272.638262 -159.762847 
L 269.358923 -143.682884 
L 266.079584 -155.634 
L 262.800245 -176.864833 
L 259.520907 -165.231999 
L 256.241568 -172.448676 
L 252.962229 -157.051111 
L 249.68289 -148.839662 
L 246.403551 -155.574638 
L 243.124212 -151.121306 
L 239.844873 -154.773284 
L 236.565535 -168.01826 
L 233.286196 -163.998204 
L 230.006857 -179.683321 
L 226.727518 -188.877948 
L 223.448179 -183.587025 
L 220.16884 -163.19275 
L 216.889502 -190.810446 
L 213.610163 -188.418245 
L 210.330824 -166.275861 
L 207.051485 -162.253003 
L 203.772146 -176.701408 
L 200.492807 -162.333184 
L 197.213468 -177.488062 
L 193.93413 -182.732945 
L 190.654791 -172.274063 
L 187.375452 -190.025488 
L 184.096113 -160.38541 
L 180.816774 -187.460346 
L 177.537435 -167.258038 
L 174.258097 -165.98357 
L 170.978758 -183.766889 
L 167.699419 -164.042663 
L 164.42008 -167.633849 
L 161.140741 -183.46927 
L 157.861402 -181.079489 
L 154.582064 -180.72509 
L 151.302725 -176.701214 
L 148.023386 -162.256487 
L 144.744047 -174.567545 
L 141.464708 -188.725315 
L 138.185369 -202.057463 
L 134.90603 -175.049609 
L 131.626692 -198.865868 
L 128.347353 -180.205674 
L 125.068014 -175.861502 
L 121.788675 -186.038957 
L 118.509336 -179.513638 
L 115.229997 -208.932269 
L 111.950659 -193.564217 
L 108.67132 -206.601952 
L 105.391981 -227.338906 
L 102.112642 -210.351182 
L 98.833303 -198.648735 
L 95.553964 -214.807605 
L 92.274626 -234.843783 
L 88.995287 -220.783349 
L 85.715948 -213.573495 
L 82.436609 -217.629605 
L 79.15727 -231.00794 
L 75.877931 -234.381541 
L 72.598592 -240.220643 
L 69.319254 -254.497676 
L 66.039915 -253.187681 
z
" style="stroke: #dd8452; stroke-opacity: 0.2"/>
    </defs>
    <g clip-path="url(#p1b7aaf50e4)">
     <use xlink:href="#m8afb3f8e77" x="0" y="316.271687" style="fill: #dd8452; fill-opacity: 0.2; stroke: #dd8452; stroke-opacity: 0.2"/>
    </g>
   </g>
   <g id="PolyCollection_3">
    <defs>
     <path id="m5eec7cb062" d="M 66.039915 -296.975687 
L 66.039915 -210.714571 
L 69.319254 -164.068832 
L 72.598592 -148.077575 
L 75.877931 -135.96881 
L 79.15727 -123.473572 
L 82.436609 -115.914455 
L 85.715948 -111.754561 
L 88.995287 -109.187276 
L 92.274626 -108.72413 
L 95.553964 -103.406695 
L 98.833303 -103.641775 
L 102.112642 -100.35766 
L 105.391981 -99.670563 
L 108.67132 -101.293308 
L 111.950659 -98.138134 
L 115.229997 -93.582122 
L 118.509336 -95.872402 
L 121.788675 -97.111622 
L 125.068014 -97.775946 
L 128.347353 -97.45775 
L 131.626692 -95.221257 
L 134.90603 -93.66389 
L 138.185369 -91.869363 
L 141.464708 -91.189055 
L 144.744047 -89.479333 
L 148.023386 -86.506768 
L 151.302725 -85.376353 
L 154.582064 -88.233994 
L 157.861402 -86.649687 
L 161.140741 -85.041831 
L 164.42008 -81.184093 
L 167.699419 -80.998589 
L 170.978758 -79.651879 
L 174.258097 -80.524152 
L 177.537435 -78.584789 
L 180.816774 -79.066008 
L 184.096113 -79.869017 
L 187.375452 -80.733438 
L 190.654791 -79.159984 
L 193.93413 -79.043752 
L 197.213468 -75.57044 
L 200.492807 -73.861324 
L 203.772146 -78.981733 
L 207.051485 -75.429943 
L 210.330824 -76.610158 
L 213.610163 -76.200853 
L 216.889502 -75.076075 
L 220.16884 -75.532546 
L 223.448179 -75.55756 
L 226.727518 -73.828023 
L 230.006857 -74.75231 
L 233.286196 -73.482168 
L 236.565535 -75.632916 
L 239.844873 -72.491252 
L 243.124212 -71.078591 
L 246.403551 -72.376571 
L 249.68289 -70.438042 
L 252.962229 -71.054874 
L 256.241568 -69.619015 
L 259.520907 -68.028716 
L 262.800245 -67.755254 
L 266.079584 -68.514425 
L 269.358923 -69.215209 
L 272.638262 -70.877008 
L 275.917601 -70.160619 
L 279.19694 -68.938937 
L 282.476278 -66.407289 
L 285.755617 -66.598112 
L 289.034956 -67.222765 
L 292.314295 -81.602622 
L 295.593634 -81.94722 
L 298.872973 -83.673277 
L 302.152311 -81.430556 
L 305.43165 -80.589393 
L 308.710989 -82.074607 
L 311.990328 -83.137532 
L 315.269667 -82.341812 
L 318.549006 -81.367999 
L 321.828345 -82.070305 
L 325.107683 -79.280128 
L 328.387022 -81.034076 
L 331.666361 -80.238492 
L 334.9457 -80.256956 
L 338.225039 -81.543471 
L 341.504378 -80.100588 
L 344.783716 -79.694155 
L 348.063055 -80.653827 
L 351.342394 -79.894162 
L 354.621733 -80.447675 
L 357.901072 -79.88632 
L 361.180411 -82.935061 
L 364.459749 -82.855273 
L 367.739088 -80.3827 
L 371.018427 -80.69914 
L 374.297766 -78.388101 
L 377.577105 -78.675889 
L 380.856444 -78.8447 
L 384.135783 -78.610365 
L 387.415121 -77.354937 
L 390.69446 -77.03132 
L 390.69446 -106.933013 
L 390.69446 -106.933013 
L 387.415121 -107.860604 
L 384.135783 -109.162262 
L 380.856444 -109.006487 
L 377.577105 -108.596933 
L 374.297766 -108.353879 
L 371.018427 -110.466191 
L 367.739088 -109.94377 
L 364.459749 -112.293676 
L 361.180411 -111.791063 
L 357.901072 -110.601798 
L 354.621733 -111.761675 
L 351.342394 -109.887106 
L 348.063055 -110.581094 
L 344.783716 -108.62993 
L 341.504378 -112.115527 
L 338.225039 -112.993454 
L 334.9457 -109.488292 
L 331.666361 -109.940432 
L 328.387022 -110.623342 
L 325.107683 -110.830245 
L 321.828345 -113.535894 
L 318.549006 -112.043333 
L 315.269667 -112.637732 
L 311.990328 -113.473762 
L 308.710989 -113.292669 
L 305.43165 -110.800064 
L 302.152311 -111.187768 
L 298.872973 -113.282943 
L 295.593634 -112.075261 
L 292.314295 -112.49709 
L 289.034956 -89.83471 
L 285.755617 -88.523568 
L 282.476278 -88.954795 
L 279.19694 -91.153067 
L 275.917601 -92.726754 
L 272.638262 -93.590891 
L 269.358923 -93.662729 
L 266.079584 -92.012167 
L 262.800245 -91.239773 
L 259.520907 -91.130457 
L 256.241568 -94.647443 
L 252.962229 -94.182907 
L 249.68289 -94.232199 
L 246.403551 -96.32224 
L 243.124212 -95.083571 
L 239.844873 -98.825073 
L 236.565535 -100.037742 
L 233.286196 -98.894794 
L 230.006857 -98.440455 
L 226.727518 -97.421184 
L 223.448179 -97.306545 
L 220.16884 -98.326889 
L 216.889502 -98.551787 
L 213.610163 -99.729265 
L 210.330824 -99.660791 
L 207.051485 -103.201632 
L 203.772146 -107.860242 
L 200.492807 -103.156799 
L 197.213468 -103.201556 
L 193.93413 -106.180477 
L 190.654791 -107.316557 
L 187.375452 -110.168766 
L 184.096113 -109.050687 
L 180.816774 -108.331775 
L 177.537435 -108.222194 
L 174.258097 -107.558873 
L 170.978758 -107.18355 
L 167.699419 -106.645167 
L 164.42008 -106.311849 
L 161.140741 -110.28616 
L 157.861402 -111.577067 
L 154.582064 -113.56136 
L 151.302725 -114.190362 
L 148.023386 -115.015241 
L 144.744047 -116.669151 
L 141.464708 -121.565113 
L 138.185369 -122.728866 
L 134.90603 -121.841966 
L 131.626692 -124.651491 
L 128.347353 -126.490146 
L 125.068014 -125.110096 
L 121.788675 -123.284222 
L 118.509336 -121.396571 
L 115.229997 -119.555534 
L 111.950659 -124.337186 
L 108.67132 -127.372032 
L 105.391981 -128.281975 
L 102.112642 -129.197011 
L 98.833303 -132.091086 
L 95.553964 -132.046432 
L 92.274626 -142.885329 
L 88.995287 -141.463994 
L 85.715948 -144.094281 
L 82.436609 -151.42686 
L 79.15727 -158.671683 
L 75.877931 -174.978168 
L 72.598592 -189.506712 
L 69.319254 -208.44421 
L 66.039915 -296.975687 
z
" style="stroke: #55a868; stroke-opacity: 0.2"/>
    </defs>
    <g clip-path="url(#p1b7aaf50e4)">
     <use xlink:href="#m5eec7cb062" x="0" y="316.271687" style="fill: #55a868; fill-opacity: 0.2; stroke: #55a868; stroke-opacity: 0.2"/>
    </g>
   </g>
   <g id="PolyCollection_4">
    <defs>
     <path id="mceea09e8f2" d="M 66.039915 -211.212603 
L 66.039915 -187.786584 
L 69.319254 -193.121663 
L 72.598592 -188.932979 
L 75.877931 -153.15557 
L 79.15727 -148.215096 
L 82.436609 -135.742501 
L 85.715948 -123.135739 
L 88.995287 -118.21995 
L 92.274626 -115.033612 
L 95.553964 -121.956452 
L 98.833303 -114.977345 
L 102.112642 -111.774171 
L 105.391981 -110.254491 
L 108.67132 -108.46315 
L 111.950659 -106.652858 
L 115.229997 -107.07291 
L 118.509336 -106.239842 
L 121.788675 -103.37494 
L 125.068014 -99.848209 
L 128.347353 -99.841166 
L 131.626692 -97.894975 
L 134.90603 -95.495455 
L 138.185369 -94.286357 
L 141.464708 -92.820824 
L 144.744047 -91.824219 
L 148.023386 -91.42471 
L 151.302725 -88.131191 
L 154.582064 -87.658578 
L 157.861402 -85.410425 
L 161.140741 -83.622735 
L 164.42008 -83.266726 
L 167.699419 -81.854332 
L 170.978758 -80.431361 
L 174.258097 -81.197539 
L 177.537435 -79.582326 
L 180.816774 -78.199136 
L 184.096113 -76.930356 
L 187.375452 -76.06479 
L 190.654791 -74.738201 
L 193.93413 -74.55868 
L 197.213468 -74.656967 
L 200.492807 -72.430951 
L 203.772146 -73.341136 
L 207.051485 -72.703295 
L 210.330824 -71.594699 
L 213.610163 -71.594687 
L 216.889502 -70.800981 
L 220.16884 -70.054075 
L 223.448179 -69.013855 
L 226.727518 -68.594953 
L 230.006857 -67.977937 
L 233.286196 -66.86752 
L 236.565535 -67.176228 
L 239.844873 -67.518877 
L 243.124212 -67.250615 
L 246.403551 -66.715159 
L 249.68289 -66.788411 
L 252.962229 -66.626307 
L 256.241568 -65.478471 
L 259.520907 -65.893648 
L 262.800245 -64.585691 
L 266.079584 -63.876258 
L 269.358923 -64.861373 
L 272.638262 -64.704357 
L 275.917601 -64.034316 
L 279.19694 -63.907207 
L 282.476278 -63.82584 
L 285.755617 -62.748711 
L 289.034956 -61.877588 
L 292.314295 -83.378455 
L 295.593634 -83.075859 
L 298.872973 -83.409532 
L 302.152311 -82.231406 
L 305.43165 -82.607525 
L 308.710989 -82.350405 
L 311.990328 -82.823987 
L 315.269667 -81.220754 
L 318.549006 -81.94359 
L 321.828345 -81.905228 
L 325.107683 -82.12774 
L 328.387022 -81.291524 
L 331.666361 -81.642524 
L 334.9457 -79.355046 
L 338.225039 -80.9526 
L 341.504378 -80.444156 
L 344.783716 -79.728389 
L 348.063055 -80.454556 
L 351.342394 -79.196218 
L 354.621733 -79.333334 
L 357.901072 -79.794254 
L 361.180411 -79.368971 
L 364.459749 -80.949641 
L 367.739088 -79.076715 
L 371.018427 -79.577913 
L 374.297766 -79.511451 
L 377.577105 -80.075551 
L 380.856444 -78.551659 
L 384.135783 -79.067216 
L 387.415121 -79.207616 
L 390.69446 -78.280734 
L 390.69446 -107.371101 
L 390.69446 -107.371101 
L 387.415121 -107.381932 
L 384.135783 -107.317658 
L 380.856444 -107.22879 
L 377.577105 -108.697564 
L 374.297766 -107.836072 
L 371.018427 -108.326631 
L 367.739088 -107.435142 
L 364.459749 -108.52651 
L 361.180411 -108.788796 
L 357.901072 -107.974142 
L 354.621733 -107.909999 
L 351.342394 -108.195427 
L 348.063055 -108.215944 
L 344.783716 -109.336634 
L 341.504378 -108.838734 
L 338.225039 -109.16339 
L 334.9457 -109.804509 
L 331.666361 -110.066399 
L 328.387022 -110.136669 
L 325.107683 -110.029497 
L 321.828345 -108.619063 
L 318.549006 -110.817047 
L 315.269667 -109.936551 
L 311.990328 -109.778423 
L 308.710989 -109.312946 
L 305.43165 -110.958723 
L 302.152311 -110.764567 
L 298.872973 -111.783154 
L 295.593634 -110.348838 
L 292.314295 -112.57231 
L 289.034956 -83.143907 
L 285.755617 -82.93306 
L 282.476278 -83.62714 
L 279.19694 -83.297297 
L 275.917601 -83.89141 
L 272.638262 -83.980609 
L 269.358923 -85.417995 
L 266.079584 -85.475997 
L 262.800245 -84.772805 
L 259.520907 -85.824205 
L 256.241568 -85.617481 
L 252.962229 -86.722344 
L 249.68289 -86.576201 
L 246.403551 -87.197368 
L 243.124212 -89.257842 
L 239.844873 -87.913672 
L 236.565535 -88.628074 
L 233.286196 -88.369335 
L 230.006857 -90.116139 
L 226.727518 -90.328017 
L 223.448179 -90.489236 
L 220.16884 -91.477702 
L 216.889502 -92.353351 
L 213.610163 -92.741283 
L 210.330824 -93.740775 
L 207.051485 -94.884667 
L 203.772146 -95.326728 
L 200.492807 -94.591571 
L 197.213468 -96.319287 
L 193.93413 -96.22151 
L 190.654791 -97.222715 
L 187.375452 -98.903627 
L 184.096113 -100.633407 
L 180.816774 -101.666192 
L 177.537435 -103.537617 
L 174.258097 -105.071277 
L 170.978758 -104.27382 
L 167.699419 -106.155073 
L 164.42008 -108.299589 
L 161.140741 -107.522853 
L 157.861402 -109.760858 
L 154.582064 -111.543561 
L 151.302725 -113.923677 
L 148.023386 -116.34636 
L 144.744047 -115.007675 
L 141.464708 -117.397417 
L 138.185369 -119.148663 
L 134.90603 -121.195731 
L 131.626692 -122.636678 
L 128.347353 -123.766681 
L 125.068014 -125.647344 
L 121.788675 -128.696189 
L 118.509336 -130.994709 
L 115.229997 -134.01846 
L 111.950659 -133.97762 
L 108.67132 -133.998818 
L 105.391981 -136.336601 
L 102.112642 -138.204179 
L 98.833303 -138.724734 
L 95.553964 -142.639552 
L 92.274626 -143.490911 
L 88.995287 -143.916886 
L 85.715948 -146.898308 
L 82.436609 -158.793797 
L 79.15727 -171.434495 
L 75.877931 -180.188487 
L 72.598592 -204.27221 
L 69.319254 -208.350081 
L 66.039915 -211.212603 
z
" style="stroke: #c44e52; stroke-opacity: 0.2"/>
    </defs>
    <g clip-path="url(#p1b7aaf50e4)">
     <use xlink:href="#mceea09e8f2" x="0" y="316.271687" style="fill: #c44e52; fill-opacity: 0.2; stroke: #c44e52; stroke-opacity: 0.2"/>
    </g>
   </g>
   <g id="PolyCollection_5">
    <defs>
     <path id="me7a58b9637" d="M 66.039915 -219.228896 
L 66.039915 -194.456423 
L 69.319254 -164.35051 
L 72.598592 -146.764014 
L 75.877931 -141.18329 
L 79.15727 -131.226289 
L 82.436609 -124.302727 
L 85.715948 -116.488308 
L 88.995287 -115.118243 
L 92.274626 -113.285502 
L 95.553964 -111.858001 
L 98.833303 -109.676769 
L 102.112642 -107.505604 
L 105.391981 -103.831756 
L 108.67132 -103.459735 
L 111.950659 -100.320739 
L 115.229997 -101.956574 
L 118.509336 -100.170857 
L 121.788675 -98.948587 
L 125.068014 -97.72553 
L 128.347353 -94.737966 
L 131.626692 -92.628993 
L 134.90603 -91.690126 
L 138.185369 -90.914813 
L 141.464708 -90.994728 
L 144.744047 -88.063371 
L 148.023386 -90.595268 
L 151.302725 -90.149584 
L 154.582064 -87.587053 
L 157.861402 -86.488443 
L 161.140741 -86.211587 
L 164.42008 -83.773313 
L 167.699419 -83.140514 
L 170.978758 -83.590166 
L 174.258097 -82.523923 
L 177.537435 -82.386709 
L 180.816774 -82.561133 
L 184.096113 -83.50171 
L 187.375452 -81.281129 
L 190.654791 -78.726047 
L 193.93413 -78.771668 
L 197.213468 -78.545896 
L 200.492807 -79.1356 
L 203.772146 -78.807858 
L 207.051485 -77.099396 
L 210.330824 -76.175492 
L 213.610163 -75.907702 
L 216.889502 -75.735454 
L 220.16884 -76.098666 
L 223.448179 -75.005176 
L 226.727518 -73.333504 
L 230.006857 -73.817673 
L 233.286196 -74.560427 
L 236.565535 -73.62817 
L 239.844873 -75.119368 
L 243.124212 -74.500981 
L 246.403551 -73.996944 
L 249.68289 -73.562202 
L 252.962229 -70.908269 
L 256.241568 -71.27873 
L 259.520907 -71.924016 
L 262.800245 -70.60574 
L 266.079584 -69.446298 
L 269.358923 -68.666962 
L 272.638262 -67.673153 
L 275.917601 -68.923843 
L 279.19694 -68.746455 
L 282.476278 -67.682099 
L 285.755617 -68.579726 
L 289.034956 -67.403547 
L 292.314295 -87.539559 
L 295.593634 -89.8336 
L 298.872973 -89.755686 
L 302.152311 -88.138545 
L 305.43165 -88.888102 
L 308.710989 -87.559847 
L 311.990328 -88.278911 
L 315.269667 -86.196891 
L 318.549006 -87.782931 
L 321.828345 -87.994574 
L 325.107683 -85.570987 
L 328.387022 -87.855563 
L 331.666361 -86.821369 
L 334.9457 -86.365923 
L 338.225039 -86.792295 
L 341.504378 -87.780208 
L 344.783716 -86.5229 
L 348.063055 -85.006284 
L 351.342394 -85.243549 
L 354.621733 -84.469509 
L 357.901072 -84.638839 
L 361.180411 -85.684541 
L 364.459749 -83.427311 
L 367.739088 -82.508359 
L 371.018427 -83.624648 
L 374.297766 -83.474736 
L 377.577105 -83.874047 
L 380.856444 -83.405685 
L 384.135783 -83.559469 
L 387.415121 -83.544775 
L 390.69446 -83.542219 
L 390.69446 -114.337158 
L 390.69446 -114.337158 
L 387.415121 -114.957016 
L 384.135783 -116.540903 
L 380.856444 -115.337317 
L 377.577105 -114.836802 
L 374.297766 -114.831539 
L 371.018427 -113.254235 
L 367.739088 -113.753896 
L 364.459749 -114.928064 
L 361.180411 -115.143928 
L 357.901072 -115.536473 
L 354.621733 -115.64072 
L 351.342394 -116.942886 
L 348.063055 -114.752414 
L 344.783716 -117.382039 
L 341.504378 -118.591073 
L 338.225039 -116.223546 
L 334.9457 -116.985558 
L 331.666361 -118.067273 
L 328.387022 -119.00327 
L 325.107683 -117.453694 
L 321.828345 -118.292315 
L 318.549006 -118.262896 
L 315.269667 -116.360245 
L 311.990328 -117.287408 
L 308.710989 -117.762707 
L 305.43165 -118.235973 
L 302.152311 -119.01155 
L 298.872973 -118.2886 
L 295.593634 -118.312891 
L 292.314295 -118.257513 
L 289.034956 -89.978242 
L 285.755617 -90.657345 
L 282.476278 -89.758258 
L 279.19694 -90.821741 
L 275.917601 -93.748154 
L 272.638262 -92.542644 
L 269.358923 -92.157652 
L 266.079584 -92.279626 
L 262.800245 -93.773356 
L 259.520907 -96.222366 
L 256.241568 -96.023549 
L 252.962229 -94.499945 
L 249.68289 -97.945063 
L 246.403551 -98.509157 
L 243.124212 -98.953406 
L 239.844873 -99.56127 
L 236.565535 -97.862525 
L 233.286196 -99.274564 
L 230.006857 -97.780466 
L 226.727518 -97.288593 
L 223.448179 -99.25189 
L 220.16884 -100.114616 
L 216.889502 -100.889178 
L 213.610163 -100.651541 
L 210.330824 -100.977805 
L 207.051485 -100.994506 
L 203.772146 -102.400229 
L 200.492807 -102.77205 
L 197.213468 -104.923185 
L 193.93413 -102.201978 
L 190.654791 -105.125475 
L 187.375452 -106.950758 
L 184.096113 -108.143875 
L 180.816774 -106.975893 
L 177.537435 -106.659702 
L 174.258097 -107.766643 
L 170.978758 -110.090515 
L 167.699419 -109.62208 
L 164.42008 -110.382884 
L 161.140741 -112.800855 
L 157.861402 -113.817438 
L 154.582064 -113.003078 
L 151.302725 -114.021625 
L 148.023386 -113.828734 
L 144.744047 -113.47646 
L 141.464708 -116.344771 
L 138.185369 -118.14276 
L 134.90603 -118.330451 
L 131.626692 -118.533847 
L 128.347353 -121.257953 
L 125.068014 -123.228047 
L 121.788675 -125.302371 
L 118.509336 -126.312363 
L 115.229997 -128.514716 
L 111.950659 -128.077085 
L 108.67132 -132.571793 
L 105.391981 -135.420547 
L 102.112642 -135.104077 
L 98.833303 -137.897355 
L 95.553964 -140.341678 
L 92.274626 -143.604513 
L 88.995287 -144.152139 
L 85.715948 -147.576626 
L 82.436609 -155.363608 
L 79.15727 -163.546593 
L 75.877931 -176.570929 
L 72.598592 -183.105091 
L 69.319254 -198.672216 
L 66.039915 -219.228896 
z
" style="stroke: #8172b3; stroke-opacity: 0.2"/>
    </defs>
    <g clip-path="url(#p1b7aaf50e4)">
     <use xlink:href="#me7a58b9637" x="0" y="316.271687" style="fill: #8172b3; fill-opacity: 0.2; stroke: #8172b3; stroke-opacity: 0.2"/>
    </g>
   </g>
   <g id="line2d_13">
    <path d="M 66.039915 111.301182 
L 69.319254 143.85597 
L 72.598592 164.634993 
L 75.877931 174.824086 
L 79.15727 186.191428 
L 82.436609 187.168192 
L 85.715948 199.027457 
L 88.995287 191.295375 
L 92.274626 198.160833 
L 95.553964 207.903881 
L 98.833303 208.641941 
L 102.112642 206.456017 
L 105.391981 210.820754 
L 108.67132 213.411884 
L 111.950659 218.258299 
L 115.229997 215.819629 
L 118.509336 225.947926 
L 121.788675 222.51922 
L 125.068014 224.759487 
L 128.347353 224.712668 
L 131.626692 224.928601 
L 134.90603 229.278018 
L 138.185369 228.837918 
L 141.464708 225.489617 
L 144.744047 233.115334 
L 148.023386 234.256884 
L 151.302725 236.736415 
L 154.582064 234.120878 
L 157.861402 234.478413 
L 161.140741 235.25979 
L 164.42008 237.944974 
L 167.699419 238.472982 
L 170.978758 238.75882 
L 174.258097 239.017709 
L 177.537435 238.649184 
L 180.816774 238.486652 
L 184.096113 239.160432 
L 187.375452 240.025702 
L 190.654791 240.439065 
L 193.93413 239.87668 
L 197.213468 240.318583 
L 200.492807 242.122607 
L 203.772146 239.757851 
L 207.051485 241.583018 
L 210.330824 241.616383 
L 213.610163 242.850791 
L 216.889502 242.8511 
L 220.16884 244.306527 
L 223.448179 240.88351 
L 226.727518 239.717768 
L 230.006857 241.450634 
L 233.286196 245.07383 
L 236.565535 247.085302 
L 239.844873 246.162356 
L 243.124212 244.763104 
L 246.403551 246.431954 
L 249.68289 246.347852 
L 252.962229 244.411323 
L 256.241568 249.274422 
L 259.520907 246.81225 
L 262.800245 247.464887 
L 266.079584 247.076277 
L 269.358923 249.588884 
L 272.638262 249.186416 
L 275.917601 249.567184 
L 279.19694 251.117601 
L 282.476278 252.096506 
L 285.755617 248.996158 
L 289.034956 246.960265 
L 292.314295 237.331666 
L 295.593634 238.275215 
L 298.872973 237.875491 
L 302.152311 239.672965 
L 305.43165 240.484788 
L 308.710989 239.681997 
L 311.990328 240.487942 
L 315.269667 238.719613 
L 318.549006 238.521288 
L 321.828345 237.369058 
L 325.107683 238.324009 
L 328.387022 239.848401 
L 331.666361 241.406506 
L 334.9457 239.561552 
L 338.225039 236.8282 
L 341.504378 237.979194 
L 344.783716 239.885926 
L 348.063055 237.873715 
L 351.342394 239.388032 
L 354.621733 238.546684 
L 357.901072 239.174564 
L 361.180411 239.860274 
L 364.459749 240.149494 
L 367.739088 239.3405 
L 371.018427 240.618475 
L 374.297766 242.037261 
L 377.577105 240.950062 
L 380.856444 243.477941 
L 384.135783 240.306919 
L 387.415121 240.910944 
L 390.69446 241.044988 
" clip-path="url(#p1b7aaf50e4)" style="fill: none; stroke: #4c72b0; stroke-width: 1.5; stroke-linecap: round"/>
   </g>
   <g id="line2d_14">
    <path d="M 66.039915 78.087864 
L 69.319254 77.793938 
L 72.598592 90.186817 
L 75.877931 93.848637 
L 79.15727 98.867775 
L 82.436609 108.540219 
L 85.715948 112.043494 
L 88.995287 104.43114 
L 92.274626 98.859798 
L 95.553964 117.44753 
L 98.833303 125.132792 
L 102.112642 118.744232 
L 105.391981 104.962057 
L 108.67132 119.973347 
L 111.950659 133.47957 
L 115.229997 123.537891 
L 118.509336 144.359023 
L 121.788675 139.942378 
L 125.068014 148.980277 
L 128.347353 145.462779 
L 131.626692 130.459398 
L 134.90603 149.560195 
L 138.185369 132.877094 
L 141.464708 142.586017 
L 144.744047 150.969311 
L 148.023386 161.267324 
L 151.302725 152.757687 
L 154.582064 146.319707 
L 157.861402 147.207134 
L 161.140741 147.108495 
L 164.42008 157.750863 
L 167.699419 162.250486 
L 170.978758 148.720068 
L 174.258097 160.668292 
L 177.537435 160.784111 
L 180.816774 147.695081 
L 184.096113 165.599656 
L 187.375452 142.499982 
L 190.654791 156.889904 
L 193.93413 147.581567 
L 197.213468 150.496084 
L 200.492807 166.358626 
L 203.772146 155.390106 
L 207.051485 164.907092 
L 210.330824 160.180543 
L 213.610163 144.940725 
L 216.889502 149.369619 
L 220.16884 164.112903 
L 223.448179 148.074874 
L 226.727518 141.892637 
L 230.006857 149.334351 
L 233.286196 163.401066 
L 236.565535 161.860742 
L 239.844873 175.014211 
L 243.124212 175.199121 
L 246.403551 171.325415 
L 249.68289 178.172175 
L 252.962229 171.940602 
L 256.241568 158.133535 
L 259.520907 165.620147 
L 262.800245 156.621318 
L 266.079584 171.489864 
L 269.358923 180.411686 
L 272.638262 168.707275 
L 275.917601 176.717503 
L 279.19694 179.318824 
L 282.476278 176.212009 
L 285.755617 180.183421 
L 289.034956 164.330402 
L 292.314295 171.495196 
L 295.593634 175.19073 
L 298.872973 160.097014 
L 302.152311 182.37747 
L 305.43165 173.63284 
L 308.710989 183.169014 
L 311.990328 173.621231 
L 315.269667 169.853981 
L 318.549006 179.949456 
L 321.828345 176.04654 
L 325.107683 168.648939 
L 328.387022 165.232933 
L 331.666361 174.229524 
L 334.9457 180.599647 
L 338.225039 168.433999 
L 341.504378 158.845499 
L 344.783716 177.826344 
L 348.063055 138.871871 
L 351.342394 116.715057 
L 354.621733 181.507526 
L 357.901072 184.694365 
L 361.180411 175.996834 
L 364.459749 176.314111 
L 367.739088 178.383465 
L 371.018427 179.403257 
L 374.297766 182.611981 
L 377.577105 169.351301 
L 380.856444 171.458438 
L 384.135783 181.739305 
L 387.415121 184.100539 
L 390.69446 185.427507 
" clip-path="url(#p1b7aaf50e4)" style="fill: none; stroke-dasharray: 6,2.25; stroke-dashoffset: 0; stroke: #dd8452; stroke-width: 1.5"/>
   </g>
   <g id="line2d_15">
    <path d="M 66.039915 67.392626 
L 69.319254 130.368501 
L 72.598592 146.76755 
L 75.877931 160.034112 
L 79.15727 175.377529 
L 82.436609 182.5195 
L 85.715948 189.0289 
L 88.995287 190.83184 
L 92.274626 190.670436 
L 95.553964 198.500259 
L 98.833303 199.118777 
L 102.112642 201.475387 
L 105.391981 202.270521 
L 108.67132 201.734476 
L 111.950659 204.545062 
L 115.229997 209.044319 
L 118.509336 207.718214 
L 121.788675 206.220148 
L 125.068014 204.640314 
L 128.347353 204.75145 
L 131.626692 206.335366 
L 134.90603 208.291341 
L 138.185369 208.282452 
L 141.464708 210.118169 
L 144.744047 212.883001 
L 148.023386 215.464346 
L 151.302725 216.623656 
L 154.582064 215.039387 
L 157.861402 217.201246 
L 161.140741 218.21262 
L 164.42008 222.333606 
L 167.699419 223.082404 
L 170.978758 222.696004 
L 174.258097 222.277722 
L 177.537435 223.401386 
L 180.816774 222.294315 
L 184.096113 222.489865 
L 187.375452 221.066422 
L 190.654791 223.541363 
L 193.93413 223.60559 
L 197.213468 227.047879 
L 200.492807 228.168881 
L 203.772146 224.092223 
L 207.051485 226.685469 
L 210.330824 228.515261 
L 213.610163 228.262219 
L 216.889502 229.454031 
L 220.16884 229.870309 
L 223.448179 229.757791 
L 226.727518 230.728579 
L 230.006857 229.784131 
L 233.286196 230.077296 
L 236.565535 228.985513 
L 239.844873 231.344698 
L 243.124212 232.786526 
L 246.403551 231.554827 
L 249.68289 232.963475 
L 252.962229 233.660067 
L 256.241568 234.257365 
L 259.520907 236.261309 
L 262.800245 236.217889 
L 266.079584 235.479716 
L 269.358923 235.32273 
L 272.638262 234.337868 
L 275.917601 234.199986 
L 279.19694 235.985456 
L 282.476278 238.284602 
L 285.755617 238.837102 
L 289.034956 237.301351 
L 292.314295 220.3251 
L 295.593634 219.942003 
L 298.872973 219.016063 
L 302.152311 221.056279 
L 305.43165 221.272442 
L 308.710989 220.431513 
L 311.990328 219.5793 
L 315.269667 219.286383 
L 318.549006 219.313251 
L 321.828345 219.39906 
L 325.107683 221.347378 
L 328.387022 220.766389 
L 331.666361 222.174797 
L 334.9457 221.95387 
L 338.225039 220.494706 
L 341.504378 221.003713 
L 344.783716 222.690853 
L 348.063055 220.965045 
L 351.342394 222.000299 
L 354.621733 221.542962 
L 357.901072 221.082369 
L 361.180411 220.268848 
L 364.459749 219.563362 
L 367.739088 221.701674 
L 371.018427 221.734534 
L 374.297766 223.398982 
L 377.577105 223.608283 
L 380.856444 223.923164 
L 384.135783 223.255977 
L 387.415121 223.912443 
L 390.69446 224.894365 
" clip-path="url(#p1b7aaf50e4)" style="fill: none; stroke-dasharray: 1.5,1.5; stroke-dashoffset: 0; stroke: #55a868; stroke-width: 1.5"/>
   </g>
   <g id="line2d_16">
    <path d="M 66.039915 116.686292 
L 69.319254 114.814916 
L 72.598592 119.400595 
L 75.877931 149.541164 
L 79.15727 156.666094 
L 82.436609 169.071293 
L 85.715948 180.809381 
L 88.995287 185.562152 
L 92.274626 187.148599 
L 95.553964 184.194824 
L 98.833303 189.011992 
L 102.112642 191.633428 
L 105.391981 192.641533 
L 108.67132 194.577842 
L 111.950659 195.278711 
L 115.229997 195.388643 
L 118.509336 197.685806 
L 121.788675 199.881537 
L 125.068014 203.015324 
L 128.347353 204.614144 
L 131.626692 205.866716 
L 134.90603 207.890203 
L 138.185369 209.627284 
L 141.464708 211.266953 
L 144.744047 212.925674 
L 148.023386 212.118245 
L 151.302725 214.691938 
L 154.582064 217.126653 
L 157.861402 218.383719 
L 161.140741 220.772675 
L 164.42008 220.524479 
L 167.699419 221.790502 
L 170.978758 223.583832 
L 174.258097 223.746458 
L 177.537435 224.923838 
L 180.816774 226.046269 
L 184.096113 227.298181 
L 187.375452 228.713169 
L 190.654791 230.225855 
L 193.93413 231.07058 
L 197.213468 231.50452 
L 200.492807 232.348302 
L 203.772146 231.744763 
L 207.051485 232.317125 
L 210.330824 232.827756 
L 213.610163 234.452879 
L 216.889502 234.794807 
L 220.16884 235.56605 
L 223.448179 236.080569 
L 226.727518 236.801283 
L 230.006857 237.856769 
L 233.286196 237.878915 
L 236.565535 238.026836 
L 239.844873 238.573882 
L 243.124212 238.782412 
L 246.403551 239.632054 
L 249.68289 239.36483 
L 252.962229 239.932231 
L 256.241568 240.124049 
L 259.520907 240.083973 
L 262.800245 241.199028 
L 266.079584 241.720575 
L 269.358923 241.491351 
L 272.638262 241.8417 
L 275.917601 242.391661 
L 279.19694 242.184622 
L 282.476278 242.514006 
L 285.755617 243.50687 
L 289.034956 243.782131 
L 292.314295 218.846314 
L 295.593634 219.170681 
L 298.872973 219.510856 
L 302.152311 219.614542 
L 305.43165 219.499444 
L 308.710989 219.654494 
L 311.990328 219.99721 
L 315.269667 220.822438 
L 318.549006 220.648263 
L 321.828345 220.965149 
L 325.107683 220.910043 
L 328.387022 221.024655 
L 331.666361 221.015121 
L 334.9457 221.383185 
L 338.225039 221.842516 
L 341.504378 221.899351 
L 344.783716 221.951708 
L 348.063055 222.17692 
L 351.342394 222.292222 
L 354.621733 222.187114 
L 357.901072 222.603147 
L 361.180411 222.387258 
L 364.459749 222.510817 
L 367.739088 222.794651 
L 371.018427 222.565191 
L 374.297766 223.23434 
L 377.577105 223.114939 
L 380.856444 223.331558 
L 384.135783 223.407378 
L 387.415121 223.465276 
L 390.69446 223.779941 
" clip-path="url(#p1b7aaf50e4)" style="fill: none; stroke-dasharray: 4.5,1.875,2.25,1.875; stroke-dashoffset: 0; stroke: #c44e52; stroke-width: 1.5"/>
   </g>
   <g id="line2d_17">
    <path d="M 66.039915 108.391865 
L 69.319254 135.207026 
L 72.598592 151.87961 
L 75.877931 157.554461 
L 79.15727 168.501196 
L 82.436609 176.775809 
L 85.715948 183.884742 
L 88.995287 186.727844 
L 92.274626 187.944518 
L 95.553964 190.294248 
L 98.833303 192.552965 
L 102.112642 194.763111 
L 105.391981 196.646595 
L 108.67132 198.646357 
L 111.950659 201.389663 
L 115.229997 201.409664 
L 118.509336 203.157029 
L 121.788675 204.447965 
L 125.068014 205.896936 
L 128.347353 207.455896 
L 131.626692 210.148893 
L 134.90603 210.427751 
L 138.185369 211.294554 
L 141.464708 212.755423 
L 144.744047 215.345974 
L 148.023386 214.258577 
L 151.302725 214.197065 
L 154.582064 215.236156 
L 157.861402 215.473073 
L 161.140741 216.371543 
L 164.42008 218.744246 
L 167.699419 219.04196 
L 170.978758 219.80545 
L 174.258097 221.823572 
L 177.537435 221.510232 
L 180.816774 221.398073 
L 184.096113 220.948236 
L 187.375452 221.809651 
L 190.654791 224.17914 
L 193.93413 225.810049 
L 197.213468 224.827968 
L 200.492807 225.203887 
L 203.772146 225.300542 
L 207.051485 227.150505 
L 210.330824 227.169838 
L 213.610163 228.008239 
L 216.889502 228.83701 
L 220.16884 228.019592 
L 223.448179 228.875627 
L 226.727518 230.299503 
L 230.006857 230.221484 
L 233.286196 230.012569 
L 236.565535 230.48248 
L 239.844873 229.801188 
L 243.124212 229.912698 
L 246.403551 230.388755 
L 249.68289 230.50926 
L 252.962229 233.725546 
L 256.241568 232.991528 
L 259.520907 232.547874 
L 262.800245 234.208717 
L 266.079584 235.370922 
L 269.358923 236.486484 
L 272.638262 236.119254 
L 275.917601 235.640405 
L 279.19694 237.023988 
L 282.476278 237.266209 
L 285.755617 236.718078 
L 289.034956 237.819996 
L 292.314295 213.597857 
L 295.593634 213.006458 
L 298.872973 212.710119 
L 302.152311 212.533289 
L 305.43165 213.68737 
L 308.710989 214.793365 
L 311.990328 213.534076 
L 315.269667 214.877252 
L 318.549006 213.649708 
L 321.828345 213.629899 
L 325.107683 215.511937 
L 328.387022 214.161963 
L 331.666361 213.822807 
L 334.9457 214.867899 
L 338.225039 214.931894 
L 341.504378 214.403068 
L 344.783716 215.350733 
L 348.063055 216.826397 
L 351.342394 215.780863 
L 354.621733 216.136735 
L 357.901072 216.639542 
L 361.180411 216.602134 
L 364.459749 217.666078 
L 367.739088 217.662265 
L 371.018427 217.162284 
L 374.297766 217.526283 
L 377.577105 217.801326 
L 380.856444 217.796676 
L 384.135783 217.343744 
L 387.415121 217.372183 
L 390.69446 217.044581 
" clip-path="url(#p1b7aaf50e4)" style="fill: none; stroke-dasharray: 7.5,1.5,1.5,1.5; stroke-dashoffset: 0; stroke: #8172b3; stroke-width: 1.5"/>
   </g>
   <g id="line2d_18"/>
   <g id="line2d_19"/>
   <g id="line2d_20"/>
   <g id="line2d_21"/>
   <g id="line2d_22"/>
   <g id="patch_3">
    <path d="M 49.807187 273.312 
L 49.807187 7.2 
" style="fill: none; stroke: #cccccc; stroke-width: 1.25; stroke-linejoin: miter; stroke-linecap: square"/>
   </g>
   <g id="patch_4">
    <path d="M 406.927188 273.312 
L 406.927188 7.2 
" style="fill: none; stroke: #cccccc; stroke-width: 1.25; stroke-linejoin: miter; stroke-linecap: square"/>
   </g>
   <g id="patch_5">
    <path d="M 49.807187 273.312 
L 406.927188 273.312 
" style="fill: none; stroke: #cccccc; stroke-width: 1.25; stroke-linejoin: miter; stroke-linecap: square"/>
   </g>
   <g id="patch_6">
    <path d="M 49.807187 7.2 
L 406.927188 7.2 
" style="fill: none; stroke: #cccccc; stroke-width: 1.25; stroke-linejoin: miter; stroke-linecap: square"/>
   </g>
   <g id="legend_1">
    <g id="patch_7">
     <path d="M 295.242813 113.843437 
L 399.227188 113.843437 
Q 401.427188 113.843437 401.427188 111.643437 
L 401.427188 14.9 
Q 401.427188 12.7 399.227188 12.7 
L 295.242813 12.7 
Q 293.042813 12.7 293.042813 14.9 
L 293.042813 111.643437 
Q 293.042813 113.843437 295.242813 113.843437 
z
" style="fill: #ffffff; opacity: 0.8; stroke: #cccccc; stroke-linejoin: miter"/>
    </g>
    <g id="text_15">
     <!-- Strategy -->
     <g style="fill: #262626" transform="translate(321.525937 26.218125) scale(0.12 -0.12)">
      <defs>
       <path id="DejaVuSans-53" d="M 3425 4513 
L 3425 3897 
Q 3066 4069 2747 4153 
Q 2428 4238 2131 4238 
Q 1616 4238 1336 4038 
Q 1056 3838 1056 3469 
Q 1056 3159 1242 3001 
Q 1428 2844 1947 2747 
L 2328 2669 
Q 3034 2534 3370 2195 
Q 3706 1856 3706 1288 
Q 3706 609 3251 259 
Q 2797 -91 1919 -91 
Q 1588 -91 1214 -16 
Q 841 59 441 206 
L 441 856 
Q 825 641 1194 531 
Q 1563 422 1919 422 
Q 2459 422 2753 634 
Q 3047 847 3047 1241 
Q 3047 1584 2836 1778 
Q 2625 1972 2144 2069 
L 1759 2144 
Q 1053 2284 737 2584 
Q 422 2884 422 3419 
Q 422 4038 858 4394 
Q 1294 4750 2059 4750 
Q 2388 4750 2728 4690 
Q 3069 4631 3425 4513 
z
" transform="scale(0.015625)"/>
       <path id="DejaVuSans-74" d="M 1172 4494 
L 1172 3500 
L 2356 3500 
L 2356 3053 
L 1172 3053 
L 1172 1153 
Q 1172 725 1289 603 
Q 1406 481 1766 481 
L 2356 481 
L 2356 0 
L 1766 0 
Q 1100 0 847 248 
Q 594 497 594 1153 
L 594 3053 
L 172 3053 
L 172 3500 
L 594 3500 
L 594 4494 
L 1172 4494 
z
" transform="scale(0.015625)"/>
       <path id="DejaVuSans-72" d="M 2631 2963 
Q 2534 3019 2420 3045 
Q 2306 3072 2169 3072 
Q 1681 3072 1420 2755 
Q 1159 2438 1159 1844 
L 1159 0 
L 581 0 
L 581 3500 
L 1159 3500 
L 1159 2956 
Q 1341 3275 1631 3429 
Q 1922 3584 2338 3584 
Q 2397 3584 2469 3576 
Q 2541 3569 2628 3553 
L 2631 2963 
z
" transform="scale(0.015625)"/>
       <path id="DejaVuSans-61" d="M 2194 1759 
Q 1497 1759 1228 1600 
Q 959 1441 959 1056 
Q 959 750 1161 570 
Q 1363 391 1709 391 
Q 2188 391 2477 730 
Q 2766 1069 2766 1631 
L 2766 1759 
L 2194 1759 
z
M 3341 1997 
L 3341 0 
L 2766 0 
L 2766 531 
Q 2569 213 2275 61 
Q 1981 -91 1556 -91 
Q 1019 -91 701 211 
Q 384 513 384 1019 
Q 384 1609 779 1909 
Q 1175 2209 1959 2209 
L 2766 2209 
L 2766 2266 
Q 2766 2663 2505 2880 
Q 2244 3097 1772 3097 
Q 1472 3097 1187 3025 
Q 903 2953 641 2809 
L 641 3341 
Q 956 3463 1253 3523 
Q 1550 3584 1831 3584 
Q 2591 3584 2966 3190 
Q 3341 2797 3341 1997 
z
" transform="scale(0.015625)"/>
       <path id="DejaVuSans-65" d="M 3597 1894 
L 3597 1613 
L 953 1613 
Q 991 1019 1311 708 
Q 1631 397 2203 397 
Q 2534 397 2845 478 
Q 3156 559 3463 722 
L 3463 178 
Q 3153 47 2828 -22 
Q 2503 -91 2169 -91 
Q 1331 -91 842 396 
Q 353 884 353 1716 
Q 353 2575 817 3079 
Q 1281 3584 2069 3584 
Q 2775 3584 3186 3129 
Q 3597 2675 3597 1894 
z
M 3022 2063 
Q 3016 2534 2758 2815 
Q 2500 3097 2075 3097 
Q 1594 3097 1305 2825 
Q 1016 2553 972 2059 
L 3022 2063 
z
" transform="scale(0.015625)"/>
       <path id="DejaVuSans-67" d="M 2906 1791 
Q 2906 2416 2648 2759 
Q 2391 3103 1925 3103 
Q 1463 3103 1205 2759 
Q 947 2416 947 1791 
Q 947 1169 1205 825 
Q 1463 481 1925 481 
Q 2391 481 2648 825 
Q 2906 1169 2906 1791 
z
M 3481 434 
Q 3481 -459 3084 -895 
Q 2688 -1331 1869 -1331 
Q 1566 -1331 1297 -1286 
Q 1028 -1241 775 -1147 
L 775 -588 
Q 1028 -725 1275 -790 
Q 1522 -856 1778 -856 
Q 2344 -856 2625 -561 
Q 2906 -266 2906 331 
L 2906 616 
Q 2728 306 2450 153 
Q 2172 0 1784 0 
Q 1141 0 747 490 
Q 353 981 353 1791 
Q 353 2603 747 3093 
Q 1141 3584 1784 3584 
Q 2172 3584 2450 3431 
Q 2728 3278 2906 2969 
L 2906 3500 
L 3481 3500 
L 3481 434 
z
" transform="scale(0.015625)"/>
       <path id="DejaVuSans-79" d="M 2059 -325 
Q 1816 -950 1584 -1140 
Q 1353 -1331 966 -1331 
L 506 -1331 
L 506 -850 
L 844 -850 
Q 1081 -850 1212 -737 
Q 1344 -625 1503 -206 
L 1606 56 
L 191 3500 
L 800 3500 
L 1894 763 
L 2988 3500 
L 3597 3500 
L 2059 -325 
z
" transform="scale(0.015625)"/>
      </defs>
      <use xlink:href="#DejaVuSans-53"/>
      <use xlink:href="#DejaVuSans-74" x="63.476562"/>
      <use xlink:href="#DejaVuSans-72" x="102.685547"/>
      <use xlink:href="#DejaVuSans-61" x="143.798828"/>
      <use xlink:href="#DejaVuSans-74" x="205.078125"/>
      <use xlink:href="#DejaVuSans-65" x="244.287109"/>
      <use xlink:href="#DejaVuSans-67" x="305.810547"/>
      <use xlink:href="#DejaVuSans-79" x="369.287109"/>
     </g>
    </g>
    <g id="line2d_23">
     <path d="M 297.442813 38.722031 
L 308.442813 38.722031 
L 319.442813 38.722031 
" style="fill: none; stroke: #4c72b0; stroke-width: 1.5; stroke-linecap: round"/>
    </g>
    <g id="text_16">
     <!-- FedPredict -->
     <g style="fill: #262626" transform="translate(328.242813 42.572031) scale(0.11 -0.11)">
      <defs>
       <path id="DejaVuSans-46" d="M 628 4666 
L 3309 4666 
L 3309 4134 
L 1259 4134 
L 1259 2759 
L 3109 2759 
L 3109 2228 
L 1259 2228 
L 1259 0 
L 628 0 
L 628 4666 
z
" transform="scale(0.015625)"/>
       <path id="DejaVuSans-50" d="M 1259 4147 
L 1259 2394 
L 2053 2394 
Q 2494 2394 2734 2622 
Q 2975 2850 2975 3272 
Q 2975 3691 2734 3919 
Q 2494 4147 2053 4147 
L 1259 4147 
z
M 628 4666 
L 2053 4666 
Q 2838 4666 3239 4311 
Q 3641 3956 3641 3272 
Q 3641 2581 3239 2228 
Q 2838 1875 2053 1875 
L 1259 1875 
L 1259 0 
L 628 0 
L 628 4666 
z
" transform="scale(0.015625)"/>
       <path id="DejaVuSans-69" d="M 603 3500 
L 1178 3500 
L 1178 0 
L 603 0 
L 603 3500 
z
M 603 4863 
L 1178 4863 
L 1178 4134 
L 603 4134 
L 603 4863 
z
" transform="scale(0.015625)"/>
       <path id="DejaVuSans-63" d="M 3122 3366 
L 3122 2828 
Q 2878 2963 2633 3030 
Q 2388 3097 2138 3097 
Q 1578 3097 1268 2742 
Q 959 2388 959 1747 
Q 959 1106 1268 751 
Q 1578 397 2138 397 
Q 2388 397 2633 464 
Q 2878 531 3122 666 
L 3122 134 
Q 2881 22 2623 -34 
Q 2366 -91 2075 -91 
Q 1284 -91 818 406 
Q 353 903 353 1747 
Q 353 2603 823 3093 
Q 1294 3584 2113 3584 
Q 2378 3584 2631 3529 
Q 2884 3475 3122 3366 
z
" transform="scale(0.015625)"/>
      </defs>
      <use xlink:href="#DejaVuSans-46"/>
      <use xlink:href="#DejaVuSans-65" x="52.019531"/>
      <use xlink:href="#DejaVuSans-64" x="113.542969"/>
      <use xlink:href="#DejaVuSans-50" x="177.019531"/>
      <use xlink:href="#DejaVuSans-72" x="235.572266"/>
      <use xlink:href="#DejaVuSans-65" x="274.435547"/>
      <use xlink:href="#DejaVuSans-64" x="335.958984"/>
      <use xlink:href="#DejaVuSans-69" x="399.435547"/>
      <use xlink:href="#DejaVuSans-63" x="427.21875"/>
      <use xlink:href="#DejaVuSans-74" x="482.199219"/>
     </g>
    </g>
    <g id="line2d_24">
     <path d="M 297.442813 54.867969 
L 308.442813 54.867969 
L 319.442813 54.867969 
" style="fill: none; stroke-dasharray: 6,2.25; stroke-dashoffset: 0; stroke: #dd8452; stroke-width: 1.5"/>
    </g>
    <g id="text_17">
     <!-- FedAVG -->
     <g style="fill: #262626" transform="translate(328.242813 58.717969) scale(0.11 -0.11)">
      <defs>
       <path id="DejaVuSans-41" d="M 2188 4044 
L 1331 1722 
L 3047 1722 
L 2188 4044 
z
M 1831 4666 
L 2547 4666 
L 4325 0 
L 3669 0 
L 3244 1197 
L 1141 1197 
L 716 0 
L 50 0 
L 1831 4666 
z
" transform="scale(0.015625)"/>
       <path id="DejaVuSans-56" d="M 1831 0 
L 50 4666 
L 709 4666 
L 2188 738 
L 3669 4666 
L 4325 4666 
L 2547 0 
L 1831 0 
z
" transform="scale(0.015625)"/>
       <path id="DejaVuSans-47" d="M 3809 666 
L 3809 1919 
L 2778 1919 
L 2778 2438 
L 4434 2438 
L 4434 434 
Q 4069 175 3628 42 
Q 3188 -91 2688 -91 
Q 1594 -91 976 548 
Q 359 1188 359 2328 
Q 359 3472 976 4111 
Q 1594 4750 2688 4750 
Q 3144 4750 3555 4637 
Q 3966 4525 4313 4306 
L 4313 3634 
Q 3963 3931 3569 4081 
Q 3175 4231 2741 4231 
Q 1884 4231 1454 3753 
Q 1025 3275 1025 2328 
Q 1025 1384 1454 906 
Q 1884 428 2741 428 
Q 3075 428 3337 486 
Q 3600 544 3809 666 
z
" transform="scale(0.015625)"/>
      </defs>
      <use xlink:href="#DejaVuSans-46"/>
      <use xlink:href="#DejaVuSans-65" x="52.019531"/>
      <use xlink:href="#DejaVuSans-64" x="113.542969"/>
      <use xlink:href="#DejaVuSans-41" x="177.019531"/>
      <use xlink:href="#DejaVuSans-56" x="239.052734"/>
      <use xlink:href="#DejaVuSans-47" x="307.460938"/>
     </g>
    </g>
    <g id="line2d_25">
     <path d="M 297.442813 71.013906 
L 308.442813 71.013906 
L 319.442813 71.013906 
" style="fill: none; stroke-dasharray: 1.5,1.5; stroke-dashoffset: 0; stroke: #55a868; stroke-width: 1.5"/>
    </g>
    <g id="text_18">
     <!-- FedClassAvg -->
     <g style="fill: #262626" transform="translate(328.242813 74.863906) scale(0.11 -0.11)">
      <defs>
       <path id="DejaVuSans-43" d="M 4122 4306 
L 4122 3641 
Q 3803 3938 3442 4084 
Q 3081 4231 2675 4231 
Q 1875 4231 1450 3742 
Q 1025 3253 1025 2328 
Q 1025 1406 1450 917 
Q 1875 428 2675 428 
Q 3081 428 3442 575 
Q 3803 722 4122 1019 
L 4122 359 
Q 3791 134 3420 21 
Q 3050 -91 2638 -91 
Q 1578 -91 968 557 
Q 359 1206 359 2328 
Q 359 3453 968 4101 
Q 1578 4750 2638 4750 
Q 3056 4750 3426 4639 
Q 3797 4528 4122 4306 
z
" transform="scale(0.015625)"/>
       <path id="DejaVuSans-6c" d="M 603 4863 
L 1178 4863 
L 1178 0 
L 603 0 
L 603 4863 
z
" transform="scale(0.015625)"/>
       <path id="DejaVuSans-76" d="M 191 3500 
L 800 3500 
L 1894 563 
L 2988 3500 
L 3597 3500 
L 2284 0 
L 1503 0 
L 191 3500 
z
" transform="scale(0.015625)"/>
      </defs>
      <use xlink:href="#DejaVuSans-46"/>
      <use xlink:href="#DejaVuSans-65" x="52.019531"/>
      <use xlink:href="#DejaVuSans-64" x="113.542969"/>
      <use xlink:href="#DejaVuSans-43" x="177.019531"/>
      <use xlink:href="#DejaVuSans-6c" x="246.84375"/>
      <use xlink:href="#DejaVuSans-61" x="274.626953"/>
      <use xlink:href="#DejaVuSans-73" x="335.90625"/>
      <use xlink:href="#DejaVuSans-73" x="388.005859"/>
      <use xlink:href="#DejaVuSans-41" x="440.105469"/>
      <use xlink:href="#DejaVuSans-76" x="502.638672"/>
      <use xlink:href="#DejaVuSans-67" x="561.818359"/>
     </g>
    </g>
    <g id="line2d_26">
     <path d="M 297.442813 87.159844 
L 308.442813 87.159844 
L 319.442813 87.159844 
" style="fill: none; stroke-dasharray: 4.5,1.875,2.25,1.875; stroke-dashoffset: 0; stroke: #c44e52; stroke-width: 1.5"/>
    </g>
    <g id="text_19">
     <!-- FedPer -->
     <g style="fill: #262626" transform="translate(328.242813 91.009844) scale(0.11 -0.11)">
      <use xlink:href="#DejaVuSans-46"/>
      <use xlink:href="#DejaVuSans-65" x="52.019531"/>
      <use xlink:href="#DejaVuSans-64" x="113.542969"/>
      <use xlink:href="#DejaVuSans-50" x="177.019531"/>
      <use xlink:href="#DejaVuSans-65" x="233.697266"/>
      <use xlink:href="#DejaVuSans-72" x="295.220703"/>
     </g>
    </g>
    <g id="line2d_27">
     <path d="M 297.442813 103.305781 
L 308.442813 103.305781 
L 319.442813 103.305781 
" style="fill: none; stroke-dasharray: 7.5,1.5,1.5,1.5; stroke-dashoffset: 0; stroke: #8172b3; stroke-width: 1.5"/>
    </g>
    <g id="text_20">
     <!-- FedProto -->
     <g style="fill: #262626" transform="translate(328.242813 107.155781) scale(0.11 -0.11)">
      <use xlink:href="#DejaVuSans-46"/>
      <use xlink:href="#DejaVuSans-65" x="52.019531"/>
      <use xlink:href="#DejaVuSans-64" x="113.542969"/>
      <use xlink:href="#DejaVuSans-50" x="177.019531"/>
      <use xlink:href="#DejaVuSans-72" x="235.572266"/>
      <use xlink:href="#DejaVuSans-6f" x="274.435547"/>
      <use xlink:href="#DejaVuSans-74" x="335.617188"/>
      <use xlink:href="#DejaVuSans-6f" x="374.826172"/>
     </g>
    </g>
   </g>
  </g>
 </g>
 <defs>
  <clipPath id="p1b7aaf50e4">
   <rect x="49.807187" y="7.2" width="357.12" height="266.112"/>
  </clipPath>
 </defs>
</svg>
