<?xml version="1.0" encoding="utf-8" standalone="no"?>
<!DOCTYPE svg PUBLIC "-//W3C//DTD SVG 1.1//EN"
  "http://www.w3.org/Graphics/SVG/1.1/DTD/svg11.dtd">
<svg xmlns:xlink="http://www.w3.org/1999/xlink" width="417.63pt" height="316.271687pt" viewBox="0 0 417.63 316.271687" xmlns="http://www.w3.org/2000/svg" version="1.1">
 <metadata>
  <rdf:RDF xmlns:dc="http://purl.org/dc/elements/1.1/" xmlns:cc="http://creativecommons.org/ns#" xmlns:rdf="http://www.w3.org/1999/02/22-rdf-syntax-ns#">
   <cc:Work>
    <dc:type rdf:resource="http://purl.org/dc/dcmitype/StillImage"/>
    <dc:date>2023-03-01T13:08:56.117192</dc:date>
    <dc:format>image/svg+xml</dc:format>
    <dc:creator>
     <cc:Agent>
      <dc:title>Matplotlib v3.6.3, https://matplotlib.org/</dc:title>
     </cc:Agent>
    </dc:creator>
   </cc:Work>
  </rdf:RDF>
 </metadata>
 <defs>
  <style type="text/css">*{stroke-linejoin: round; stroke-linecap: butt}</style>
 </defs>
 <g id="figure_1">
  <g id="patch_1">
   <path d="M 0 316.271687 
L 417.63 316.271687 
L 417.63 0 
L 0 0 
z
" style="fill: #ffffff"/>
  </g>
  <g id="axes_1">
   <g id="patch_2">
    <path d="M 53.31 273.312 
L 410.43 273.312 
L 410.43 7.2 
L 53.31 7.2 
z
" style="fill: #ffffff"/>
   </g>
   <g id="matplotlib.axis_1">
    <g id="xtick_1">
     <g id="line2d_1">
      <path d="M 66.263388 273.312 
L 66.263388 7.2 
" clip-path="url(#pf8ff532b61)" style="fill: none; stroke: #cccccc; stroke-linecap: round"/>
     </g>
     <g id="text_1">
      <!-- 0 -->
      <g style="fill: #262626" transform="translate(62.764013 291.170281) scale(0.11 -0.11)">
       <defs>
        <path id="DejaVuSans-30" d="M 2034 4250 
Q 1547 4250 1301 3770 
Q 1056 3291 1056 2328 
Q 1056 1369 1301 889 
Q 1547 409 2034 409 
Q 2525 409 2770 889 
Q 3016 1369 3016 2328 
Q 3016 3291 2770 3770 
Q 2525 4250 2034 4250 
z
M 2034 4750 
Q 2819 4750 3233 4129 
Q 3647 3509 3647 2328 
Q 3647 1150 3233 529 
Q 2819 -91 2034 -91 
Q 1250 -91 836 529 
Q 422 1150 422 2328 
Q 422 3509 836 4129 
Q 1250 4750 2034 4750 
z
" transform="scale(0.015625)"/>
       </defs>
       <use xlink:href="#DejaVuSans-30"/>
      </g>
     </g>
    </g>
    <g id="xtick_2">
     <g id="line2d_2">
      <path d="M 131.850165 273.312 
L 131.850165 7.2 
" clip-path="url(#pf8ff532b61)" style="fill: none; stroke: #cccccc; stroke-linecap: round"/>
     </g>
     <g id="text_2">
      <!-- 20 -->
      <g style="fill: #262626" transform="translate(124.851415 291.170281) scale(0.11 -0.11)">
       <defs>
        <path id="DejaVuSans-32" d="M 1228 531 
L 3431 531 
L 3431 0 
L 469 0 
L 469 531 
Q 828 903 1448 1529 
Q 2069 2156 2228 2338 
Q 2531 2678 2651 2914 
Q 2772 3150 2772 3378 
Q 2772 3750 2511 3984 
Q 2250 4219 1831 4219 
Q 1534 4219 1204 4116 
Q 875 4013 500 3803 
L 500 4441 
Q 881 4594 1212 4672 
Q 1544 4750 1819 4750 
Q 2544 4750 2975 4387 
Q 3406 4025 3406 3419 
Q 3406 3131 3298 2873 
Q 3191 2616 2906 2266 
Q 2828 2175 2409 1742 
Q 1991 1309 1228 531 
z
" transform="scale(0.015625)"/>
       </defs>
       <use xlink:href="#DejaVuSans-32"/>
       <use xlink:href="#DejaVuSans-30" x="63.623047"/>
      </g>
     </g>
    </g>
    <g id="xtick_3">
     <g id="line2d_3">
      <path d="M 197.436942 273.312 
L 197.436942 7.2 
" clip-path="url(#pf8ff532b61)" style="fill: none; stroke: #cccccc; stroke-linecap: round"/>
     </g>
     <g id="text_3">
      <!-- 40 -->
      <g style="fill: #262626" transform="translate(190.438192 291.170281) scale(0.11 -0.11)">
       <defs>
        <path id="DejaVuSans-34" d="M 2419 4116 
L 825 1625 
L 2419 1625 
L 2419 4116 
z
M 2253 4666 
L 3047 4666 
L 3047 1625 
L 3713 1625 
L 3713 1100 
L 3047 1100 
L 3047 0 
L 2419 0 
L 2419 1100 
L 313 1100 
L 313 1709 
L 2253 4666 
z
" transform="scale(0.015625)"/>
       </defs>
       <use xlink:href="#DejaVuSans-34"/>
       <use xlink:href="#DejaVuSans-30" x="63.623047"/>
      </g>
     </g>
    </g>
    <g id="xtick_4">
     <g id="line2d_4">
      <path d="M 263.023719 273.312 
L 263.023719 7.2 
" clip-path="url(#pf8ff532b61)" style="fill: none; stroke: #cccccc; stroke-linecap: round"/>
     </g>
     <g id="text_4">
      <!-- 60 -->
      <g style="fill: #262626" transform="translate(256.024969 291.170281) scale(0.11 -0.11)">
       <defs>
        <path id="DejaVuSans-36" d="M 2113 2584 
Q 1688 2584 1439 2293 
Q 1191 2003 1191 1497 
Q 1191 994 1439 701 
Q 1688 409 2113 409 
Q 2538 409 2786 701 
Q 3034 994 3034 1497 
Q 3034 2003 2786 2293 
Q 2538 2584 2113 2584 
z
M 3366 4563 
L 3366 3988 
Q 3128 4100 2886 4159 
Q 2644 4219 2406 4219 
Q 1781 4219 1451 3797 
Q 1122 3375 1075 2522 
Q 1259 2794 1537 2939 
Q 1816 3084 2150 3084 
Q 2853 3084 3261 2657 
Q 3669 2231 3669 1497 
Q 3669 778 3244 343 
Q 2819 -91 2113 -91 
Q 1303 -91 875 529 
Q 447 1150 447 2328 
Q 447 3434 972 4092 
Q 1497 4750 2381 4750 
Q 2619 4750 2861 4703 
Q 3103 4656 3366 4563 
z
" transform="scale(0.015625)"/>
       </defs>
       <use xlink:href="#DejaVuSans-36"/>
       <use xlink:href="#DejaVuSans-30" x="63.623047"/>
      </g>
     </g>
    </g>
    <g id="xtick_5">
     <g id="line2d_5">
      <path d="M 328.610496 273.312 
L 328.610496 7.2 
" clip-path="url(#pf8ff532b61)" style="fill: none; stroke: #cccccc; stroke-linecap: round"/>
     </g>
     <g id="text_5">
      <!-- 80 -->
      <g style="fill: #262626" transform="translate(321.611746 291.170281) scale(0.11 -0.11)">
       <defs>
        <path id="DejaVuSans-38" d="M 2034 2216 
Q 1584 2216 1326 1975 
Q 1069 1734 1069 1313 
Q 1069 891 1326 650 
Q 1584 409 2034 409 
Q 2484 409 2743 651 
Q 3003 894 3003 1313 
Q 3003 1734 2745 1975 
Q 2488 2216 2034 2216 
z
M 1403 2484 
Q 997 2584 770 2862 
Q 544 3141 544 3541 
Q 544 4100 942 4425 
Q 1341 4750 2034 4750 
Q 2731 4750 3128 4425 
Q 3525 4100 3525 3541 
Q 3525 3141 3298 2862 
Q 3072 2584 2669 2484 
Q 3125 2378 3379 2068 
Q 3634 1759 3634 1313 
Q 3634 634 3220 271 
Q 2806 -91 2034 -91 
Q 1263 -91 848 271 
Q 434 634 434 1313 
Q 434 1759 690 2068 
Q 947 2378 1403 2484 
z
M 1172 3481 
Q 1172 3119 1398 2916 
Q 1625 2713 2034 2713 
Q 2441 2713 2670 2916 
Q 2900 3119 2900 3481 
Q 2900 3844 2670 4047 
Q 2441 4250 2034 4250 
Q 1625 4250 1398 4047 
Q 1172 3844 1172 3481 
z
" transform="scale(0.015625)"/>
       </defs>
       <use xlink:href="#DejaVuSans-38"/>
       <use xlink:href="#DejaVuSans-30" x="63.623047"/>
      </g>
     </g>
    </g>
    <g id="xtick_6">
     <g id="line2d_6">
      <path d="M 394.197273 273.312 
L 394.197273 7.2 
" clip-path="url(#pf8ff532b61)" style="fill: none; stroke: #cccccc; stroke-linecap: round"/>
     </g>
     <g id="text_6">
      <!-- 100 -->
      <g style="fill: #262626" transform="translate(383.699148 291.170281) scale(0.11 -0.11)">
       <defs>
        <path id="DejaVuSans-31" d="M 794 531 
L 1825 531 
L 1825 4091 
L 703 3866 
L 703 4441 
L 1819 4666 
L 2450 4666 
L 2450 531 
L 3481 531 
L 3481 0 
L 794 0 
L 794 531 
z
" transform="scale(0.015625)"/>
       </defs>
       <use xlink:href="#DejaVuSans-31"/>
       <use xlink:href="#DejaVuSans-30" x="63.623047"/>
       <use xlink:href="#DejaVuSans-30" x="127.246094"/>
      </g>
     </g>
    </g>
    <g id="text_7">
     <!-- Round -->
     <g style="fill: #262626" transform="translate(212.885625 306.576062) scale(0.12 -0.12)">
      <defs>
       <path id="DejaVuSans-52" d="M 2841 2188 
Q 3044 2119 3236 1894 
Q 3428 1669 3622 1275 
L 4263 0 
L 3584 0 
L 2988 1197 
Q 2756 1666 2539 1819 
Q 2322 1972 1947 1972 
L 1259 1972 
L 1259 0 
L 628 0 
L 628 4666 
L 2053 4666 
Q 2853 4666 3247 4331 
Q 3641 3997 3641 3322 
Q 3641 2881 3436 2590 
Q 3231 2300 2841 2188 
z
M 1259 4147 
L 1259 2491 
L 2053 2491 
Q 2509 2491 2742 2702 
Q 2975 2913 2975 3322 
Q 2975 3731 2742 3939 
Q 2509 4147 2053 4147 
L 1259 4147 
z
" transform="scale(0.015625)"/>
       <path id="DejaVuSans-6f" d="M 1959 3097 
Q 1497 3097 1228 2736 
Q 959 2375 959 1747 
Q 959 1119 1226 758 
Q 1494 397 1959 397 
Q 2419 397 2687 759 
Q 2956 1122 2956 1747 
Q 2956 2369 2687 2733 
Q 2419 3097 1959 3097 
z
M 1959 3584 
Q 2709 3584 3137 3096 
Q 3566 2609 3566 1747 
Q 3566 888 3137 398 
Q 2709 -91 1959 -91 
Q 1206 -91 779 398 
Q 353 888 353 1747 
Q 353 2609 779 3096 
Q 1206 3584 1959 3584 
z
" transform="scale(0.015625)"/>
       <path id="DejaVuSans-75" d="M 544 1381 
L 544 3500 
L 1119 3500 
L 1119 1403 
Q 1119 906 1312 657 
Q 1506 409 1894 409 
Q 2359 409 2629 706 
Q 2900 1003 2900 1516 
L 2900 3500 
L 3475 3500 
L 3475 0 
L 2900 0 
L 2900 538 
Q 2691 219 2414 64 
Q 2138 -91 1772 -91 
Q 1169 -91 856 284 
Q 544 659 544 1381 
z
M 1991 3584 
L 1991 3584 
z
" transform="scale(0.015625)"/>
       <path id="DejaVuSans-6e" d="M 3513 2113 
L 3513 0 
L 2938 0 
L 2938 2094 
Q 2938 2591 2744 2837 
Q 2550 3084 2163 3084 
Q 1697 3084 1428 2787 
Q 1159 2491 1159 1978 
L 1159 0 
L 581 0 
L 581 3500 
L 1159 3500 
L 1159 2956 
Q 1366 3272 1645 3428 
Q 1925 3584 2291 3584 
Q 2894 3584 3203 3211 
Q 3513 2838 3513 2113 
z
" transform="scale(0.015625)"/>
       <path id="DejaVuSans-64" d="M 2906 2969 
L 2906 4863 
L 3481 4863 
L 3481 0 
L 2906 0 
L 2906 525 
Q 2725 213 2448 61 
Q 2172 -91 1784 -91 
Q 1150 -91 751 415 
Q 353 922 353 1747 
Q 353 2572 751 3078 
Q 1150 3584 1784 3584 
Q 2172 3584 2448 3432 
Q 2725 3281 2906 2969 
z
M 947 1747 
Q 947 1113 1208 752 
Q 1469 391 1925 391 
Q 2381 391 2643 752 
Q 2906 1113 2906 1747 
Q 2906 2381 2643 2742 
Q 2381 3103 1925 3103 
Q 1469 3103 1208 2742 
Q 947 2381 947 1747 
z
" transform="scale(0.015625)"/>
      </defs>
      <use xlink:href="#DejaVuSans-52"/>
      <use xlink:href="#DejaVuSans-6f" x="64.982422"/>
      <use xlink:href="#DejaVuSans-75" x="126.164062"/>
      <use xlink:href="#DejaVuSans-6e" x="189.542969"/>
      <use xlink:href="#DejaVuSans-64" x="252.921875"/>
     </g>
    </g>
   </g>
   <g id="matplotlib.axis_2">
    <g id="ytick_1">
     <g id="line2d_7">
      <path d="M 53.31 236.600733 
L 410.43 236.600733 
" clip-path="url(#pf8ff532b61)" style="fill: none; stroke: #cccccc; stroke-linecap: round"/>
     </g>
     <g id="text_8">
      <!-- 20 -->
      <g style="fill: #262626" transform="translate(29.8125 240.779874) scale(0.11 -0.11)">
       <use xlink:href="#DejaVuSans-32"/>
       <use xlink:href="#DejaVuSans-30" x="63.623047"/>
      </g>
     </g>
    </g>
    <g id="ytick_2">
     <g id="line2d_8">
      <path d="M 53.31 181.741974 
L 410.43 181.741974 
" clip-path="url(#pf8ff532b61)" style="fill: none; stroke: #cccccc; stroke-linecap: round"/>
     </g>
     <g id="text_9">
      <!-- 40 -->
      <g style="fill: #262626" transform="translate(29.8125 185.921115) scale(0.11 -0.11)">
       <use xlink:href="#DejaVuSans-34"/>
       <use xlink:href="#DejaVuSans-30" x="63.623047"/>
      </g>
     </g>
    </g>
    <g id="ytick_3">
     <g id="line2d_9">
      <path d="M 53.31 126.883215 
L 410.43 126.883215 
" clip-path="url(#pf8ff532b61)" style="fill: none; stroke: #cccccc; stroke-linecap: round"/>
     </g>
     <g id="text_10">
      <!-- 60 -->
      <g style="fill: #262626" transform="translate(29.8125 131.062356) scale(0.11 -0.11)">
       <use xlink:href="#DejaVuSans-36"/>
       <use xlink:href="#DejaVuSans-30" x="63.623047"/>
      </g>
     </g>
    </g>
    <g id="ytick_4">
     <g id="line2d_10">
      <path d="M 53.31 72.024456 
L 410.43 72.024456 
" clip-path="url(#pf8ff532b61)" style="fill: none; stroke: #cccccc; stroke-linecap: round"/>
     </g>
     <g id="text_11">
      <!-- 80 -->
      <g style="fill: #262626" transform="translate(29.8125 76.203597) scale(0.11 -0.11)">
       <use xlink:href="#DejaVuSans-38"/>
       <use xlink:href="#DejaVuSans-30" x="63.623047"/>
      </g>
     </g>
    </g>
    <g id="ytick_5">
     <g id="line2d_11">
      <path d="M 53.31 17.165697 
L 410.43 17.165697 
" clip-path="url(#pf8ff532b61)" style="fill: none; stroke: #cccccc; stroke-linecap: round"/>
     </g>
     <g id="text_12">
      <!-- 100 -->
      <g style="fill: #262626" transform="translate(22.81375 21.344838) scale(0.11 -0.11)">
       <use xlink:href="#DejaVuSans-31"/>
       <use xlink:href="#DejaVuSans-30" x="63.623047"/>
       <use xlink:href="#DejaVuSans-30" x="127.246094"/>
      </g>
     </g>
    </g>
    <g id="text_13">
     <!-- Accuracy (%) -->
     <g style="fill: #262626" transform="translate(16.318125 179.939437) rotate(-90) scale(0.12 -0.12)">
      <defs>
       <path id="DejaVuSans-41" d="M 2188 4044 
L 1331 1722 
L 3047 1722 
L 2188 4044 
z
M 1831 4666 
L 2547 4666 
L 4325 0 
L 3669 0 
L 3244 1197 
L 1141 1197 
L 716 0 
L 50 0 
L 1831 4666 
z
" transform="scale(0.015625)"/>
       <path id="DejaVuSans-63" d="M 3122 3366 
L 3122 2828 
Q 2878 2963 2633 3030 
Q 2388 3097 2138 3097 
Q 1578 3097 1268 2742 
Q 959 2388 959 1747 
Q 959 1106 1268 751 
Q 1578 397 2138 397 
Q 2388 397 2633 464 
Q 2878 531 3122 666 
L 3122 134 
Q 2881 22 2623 -34 
Q 2366 -91 2075 -91 
Q 1284 -91 818 406 
Q 353 903 353 1747 
Q 353 2603 823 3093 
Q 1294 3584 2113 3584 
Q 2378 3584 2631 3529 
Q 2884 3475 3122 3366 
z
" transform="scale(0.015625)"/>
       <path id="DejaVuSans-72" d="M 2631 2963 
Q 2534 3019 2420 3045 
Q 2306 3072 2169 3072 
Q 1681 3072 1420 2755 
Q 1159 2438 1159 1844 
L 1159 0 
L 581 0 
L 581 3500 
L 1159 3500 
L 1159 2956 
Q 1341 3275 1631 3429 
Q 1922 3584 2338 3584 
Q 2397 3584 2469 3576 
Q 2541 3569 2628 3553 
L 2631 2963 
z
" transform="scale(0.015625)"/>
       <path id="DejaVuSans-61" d="M 2194 1759 
Q 1497 1759 1228 1600 
Q 959 1441 959 1056 
Q 959 750 1161 570 
Q 1363 391 1709 391 
Q 2188 391 2477 730 
Q 2766 1069 2766 1631 
L 2766 1759 
L 2194 1759 
z
M 3341 1997 
L 3341 0 
L 2766 0 
L 2766 531 
Q 2569 213 2275 61 
Q 1981 -91 1556 -91 
Q 1019 -91 701 211 
Q 384 513 384 1019 
Q 384 1609 779 1909 
Q 1175 2209 1959 2209 
L 2766 2209 
L 2766 2266 
Q 2766 2663 2505 2880 
Q 2244 3097 1772 3097 
Q 1472 3097 1187 3025 
Q 903 2953 641 2809 
L 641 3341 
Q 956 3463 1253 3523 
Q 1550 3584 1831 3584 
Q 2591 3584 2966 3190 
Q 3341 2797 3341 1997 
z
" transform="scale(0.015625)"/>
       <path id="DejaVuSans-79" d="M 2059 -325 
Q 1816 -950 1584 -1140 
Q 1353 -1331 966 -1331 
L 506 -1331 
L 506 -850 
L 844 -850 
Q 1081 -850 1212 -737 
Q 1344 -625 1503 -206 
L 1606 56 
L 191 3500 
L 800 3500 
L 1894 763 
L 2988 3500 
L 3597 3500 
L 2059 -325 
z
" transform="scale(0.015625)"/>
       <path id="DejaVuSans-20" transform="scale(0.015625)"/>
       <path id="DejaVuSans-28" d="M 1984 4856 
Q 1566 4138 1362 3434 
Q 1159 2731 1159 2009 
Q 1159 1288 1364 580 
Q 1569 -128 1984 -844 
L 1484 -844 
Q 1016 -109 783 600 
Q 550 1309 550 2009 
Q 550 2706 781 3412 
Q 1013 4119 1484 4856 
L 1984 4856 
z
" transform="scale(0.015625)"/>
       <path id="DejaVuSans-25" d="M 4653 2053 
Q 4381 2053 4226 1822 
Q 4072 1591 4072 1178 
Q 4072 772 4226 539 
Q 4381 306 4653 306 
Q 4919 306 5073 539 
Q 5228 772 5228 1178 
Q 5228 1588 5073 1820 
Q 4919 2053 4653 2053 
z
M 4653 2450 
Q 5147 2450 5437 2106 
Q 5728 1763 5728 1178 
Q 5728 594 5436 251 
Q 5144 -91 4653 -91 
Q 4153 -91 3862 251 
Q 3572 594 3572 1178 
Q 3572 1766 3864 2108 
Q 4156 2450 4653 2450 
z
M 1428 4353 
Q 1159 4353 1004 4120 
Q 850 3888 850 3481 
Q 850 3069 1003 2837 
Q 1156 2606 1428 2606 
Q 1700 2606 1854 2837 
Q 2009 3069 2009 3481 
Q 2009 3884 1853 4118 
Q 1697 4353 1428 4353 
z
M 4250 4750 
L 4750 4750 
L 1831 -91 
L 1331 -91 
L 4250 4750 
z
M 1428 4750 
Q 1922 4750 2215 4408 
Q 2509 4066 2509 3481 
Q 2509 2891 2217 2550 
Q 1925 2209 1428 2209 
Q 931 2209 642 2551 
Q 353 2894 353 3481 
Q 353 4063 643 4406 
Q 934 4750 1428 4750 
z
" transform="scale(0.015625)"/>
       <path id="DejaVuSans-29" d="M 513 4856 
L 1013 4856 
Q 1481 4119 1714 3412 
Q 1947 2706 1947 2009 
Q 1947 1309 1714 600 
Q 1481 -109 1013 -844 
L 513 -844 
Q 928 -128 1133 580 
Q 1338 1288 1338 2009 
Q 1338 2731 1133 3434 
Q 928 4138 513 4856 
z
" transform="scale(0.015625)"/>
      </defs>
      <use xlink:href="#DejaVuSans-41"/>
      <use xlink:href="#DejaVuSans-63" x="66.658203"/>
      <use xlink:href="#DejaVuSans-63" x="121.638672"/>
      <use xlink:href="#DejaVuSans-75" x="176.619141"/>
      <use xlink:href="#DejaVuSans-72" x="239.998047"/>
      <use xlink:href="#DejaVuSans-61" x="281.111328"/>
      <use xlink:href="#DejaVuSans-63" x="342.390625"/>
      <use xlink:href="#DejaVuSans-79" x="397.371094"/>
      <use xlink:href="#DejaVuSans-20" x="456.550781"/>
      <use xlink:href="#DejaVuSans-28" x="488.337891"/>
      <use xlink:href="#DejaVuSans-25" x="527.351562"/>
      <use xlink:href="#DejaVuSans-29" x="622.371094"/>
     </g>
    </g>
   </g>
   <g id="PolyCollection_1">
    <defs>
     <path id="mf5c8d72170" d="M 69.542727 -149.306086 
L 69.542727 -100.33201 
L 72.822066 -176.852166 
L 76.101405 -195.466873 
L 79.380744 -230.585584 
L 82.660083 -245.975316 
L 85.939421 -257.607793 
L 89.21876 -265.202578 
L 92.498099 -262.346733 
L 95.777438 -276.305911 
L 99.056777 -277.138821 
L 102.336116 -279.073539 
L 105.615455 -282.00468 
L 108.894793 -277.91601 
L 112.174132 -277.296165 
L 115.453471 -285.09763 
L 118.73281 -279.122991 
L 122.012149 -284.253189 
L 125.291488 -279.499834 
L 128.570826 -279.376858 
L 131.850165 -282.776157 
L 135.129504 -286.197948 
L 138.408843 -279.423943 
L 141.688182 -283.94399 
L 144.967521 -284.588893 
L 148.24686 -286.011408 
L 151.526198 -278.265296 
L 154.805537 -288.174512 
L 158.084876 -288.031179 
L 161.364215 -288.232135 
L 164.643554 -285.803258 
L 167.922893 -287.820566 
L 171.202231 -288.880926 
L 174.48157 -288.685339 
L 177.760909 -289.321077 
L 181.040248 -288.364551 
L 184.319587 -290.047236 
L 187.598926 -291.325284 
L 190.878264 -292.078017 
L 194.157603 -288.66959 
L 197.436942 -290.153617 
L 200.716281 -291.552436 
L 203.99562 -291.787406 
L 207.274959 -291.931948 
L 210.554298 -290.498651 
L 213.833636 -290.686659 
L 217.112975 -290.928129 
L 220.392314 -290.24285 
L 223.671653 -291.297593 
L 226.950992 -291.629725 
L 230.230331 -292.829977 
L 233.509669 -291.919602 
L 236.789008 -292.243536 
L 240.068347 -290.8058 
L 243.347686 -291.817008 
L 246.627025 -289.207412 
L 249.906364 -284.411142 
L 253.185702 -288.514412 
L 256.465041 -289.285698 
L 259.74438 -290.105613 
L 263.023719 -293.56197 
L 266.303058 -292.896156 
L 269.582397 -292.923865 
L 272.861736 -290.422427 
L 276.141074 -292.073372 
L 279.420413 -292.747114 
L 282.699752 -290.765543 
L 285.979091 -292.320897 
L 289.25843 -291.360069 
L 292.537769 -292.742226 
L 295.817107 -292.826673 
L 299.096446 -290.347032 
L 302.375785 -290.141339 
L 305.655124 -292.580807 
L 308.934463 -292.48281 
L 312.213802 -292.555638 
L 315.49314 -293.606443 
L 318.772479 -292.323602 
L 322.051818 -289.563755 
L 325.331157 -290.776182 
L 328.610496 -291.042467 
L 331.889835 -291.690015 
L 335.169174 -293.920997 
L 338.448512 -294.038777 
L 341.727851 -293.358844 
L 345.00719 -293.763198 
L 348.286529 -293.476482 
L 351.565868 -293.816677 
L 354.845207 -293.516382 
L 358.124545 -294.699002 
L 361.403884 -294.467562 
L 364.683223 -293.013874 
L 367.962562 -293.911412 
L 371.241901 -294.144363 
L 374.52124 -294.354477 
L 377.800579 -294.449386 
L 381.079917 -292.477697 
L 384.359256 -293.024228 
L 387.638595 -293.457375 
L 390.917934 -292.318389 
L 394.197273 -293.477151 
L 394.197273 -296.504218 
L 394.197273 -296.504218 
L 390.917934 -296.93713 
L 387.638595 -296.954608 
L 384.359256 -296.919759 
L 381.079917 -296.975687 
L 377.800579 -296.946313 
L 374.52124 -296.832387 
L 371.241901 -296.936907 
L 367.962562 -296.744475 
L 364.683223 -296.322759 
L 361.403884 -296.454884 
L 358.124545 -296.530881 
L 354.845207 -296.460826 
L 351.565868 -296.489365 
L 348.286529 -296.390593 
L 345.00719 -296.554183 
L 341.727851 -296.618733 
L 338.448512 -296.578224 
L 335.169174 -296.44382 
L 331.889835 -296.424642 
L 328.610496 -296.651298 
L 325.331157 -296.696484 
L 322.051818 -296.525455 
L 318.772479 -296.254323 
L 315.49314 -296.294531 
L 312.213802 -296.364116 
L 308.934463 -296.011809 
L 305.655124 -296.165685 
L 302.375785 -295.973432 
L 299.096446 -296.003435 
L 295.817107 -296.041142 
L 292.537769 -296.151777 
L 289.25843 -296.128424 
L 285.979091 -296.161327 
L 282.699752 -296.07068 
L 279.420413 -295.639291 
L 276.141074 -295.784217 
L 272.861736 -295.842936 
L 269.582397 -295.881161 
L 266.303058 -295.710224 
L 263.023719 -296.001268 
L 259.74438 -295.731155 
L 256.465041 -295.689447 
L 253.185702 -295.076226 
L 249.906364 -295.424834 
L 246.627025 -295.154631 
L 243.347686 -295.780071 
L 240.068347 -295.411405 
L 236.789008 -295.611214 
L 233.509669 -295.702171 
L 230.230331 -295.540384 
L 226.950992 -295.446139 
L 223.671653 -295.23743 
L 220.392314 -295.431265 
L 217.112975 -294.920293 
L 213.833636 -295.301353 
L 210.554298 -295.26059 
L 207.274959 -295.077462 
L 203.99562 -294.667547 
L 200.716281 -294.842031 
L 197.436942 -294.865494 
L 194.157603 -294.860473 
L 190.878264 -294.67405 
L 187.598926 -294.437189 
L 184.319587 -294.441784 
L 181.040248 -294.397691 
L 177.760909 -293.891755 
L 174.48157 -293.99379 
L 171.202231 -294.050398 
L 167.922893 -294.125967 
L 164.643554 -293.844889 
L 161.364215 -293.625107 
L 158.084876 -293.163826 
L 154.805537 -293.265131 
L 151.526198 -291.962235 
L 148.24686 -293.144358 
L 144.967521 -293.276724 
L 141.688182 -293.233921 
L 138.408843 -292.946299 
L 135.129504 -292.63679 
L 131.850165 -291.589455 
L 128.570826 -291.745322 
L 125.291488 -291.733156 
L 122.012149 -290.317167 
L 118.73281 -291.185757 
L 115.453471 -291.318328 
L 112.174132 -290.336691 
L 108.894793 -289.906316 
L 105.615455 -290.247406 
L 102.336116 -289.234484 
L 99.056777 -289.202602 
L 95.777438 -289.439553 
L 92.498099 -284.317082 
L 89.21876 -284.590863 
L 85.939421 -281.176839 
L 82.660083 -274.529358 
L 79.380744 -263.413197 
L 76.101405 -236.928332 
L 72.822066 -225.506046 
L 69.542727 -149.306086 
z
" style="stroke: #4c72b0; stroke-opacity: 0.2"/>
    </defs>
    <g clip-path="url(#pf8ff532b61)">
     <use xlink:href="#mf5c8d72170" x="0" y="316.271687" style="fill: #4c72b0; fill-opacity: 0.2; stroke: #4c72b0; stroke-opacity: 0.2"/>
    </g>
   </g>
   <g id="PolyCollection_2">
    <defs>
     <path id="m9618744b78" d="M 69.542727 -88.546358 
L 69.542727 -55.055687 
L 72.822066 -103.295343 
L 76.101405 -104.704783 
L 79.380744 -186.339916 
L 82.660083 -175.709635 
L 85.939421 -217.0437 
L 89.21876 -215.503275 
L 92.498099 -201.471563 
L 95.777438 -233.031896 
L 99.056777 -234.83062 
L 102.336116 -228.74228 
L 105.615455 -243.567822 
L 108.894793 -235.590352 
L 112.174132 -229.845096 
L 115.453471 -254.192588 
L 118.73281 -259.423103 
L 122.012149 -236.415159 
L 125.291488 -259.477557 
L 128.570826 -236.957751 
L 131.850165 -239.486273 
L 135.129504 -244.402936 
L 138.408843 -267.417211 
L 141.688182 -266.375501 
L 144.967521 -252.076942 
L 148.24686 -249.673267 
L 151.526198 -232.897352 
L 154.805537 -270.773545 
L 158.084876 -240.881512 
L 161.364215 -246.33858 
L 164.643554 -249.074984 
L 167.922893 -249.510571 
L 171.202231 -258.780767 
L 174.48157 -251.957304 
L 177.760909 -270.637074 
L 181.040248 -270.565574 
L 184.319587 -275.670107 
L 187.598926 -271.677878 
L 190.878264 -273.544465 
L 194.157603 -268.915712 
L 197.436942 -271.502315 
L 200.716281 -278.047983 
L 203.99562 -277.741336 
L 207.274959 -264.466886 
L 210.554298 -267.741711 
L 213.833636 -270.652028 
L 217.112975 -259.763491 
L 220.392314 -269.077998 
L 223.671653 -261.786657 
L 226.950992 -257.737642 
L 230.230331 -278.640874 
L 233.509669 -280.525566 
L 236.789008 -281.652012 
L 240.068347 -262.154156 
L 243.347686 -278.199368 
L 246.627025 -266.643189 
L 249.906364 -280.126395 
L 253.185702 -268.046923 
L 256.465041 -265.637941 
L 259.74438 -276.490459 
L 263.023719 -277.833824 
L 266.303058 -268.453115 
L 269.582397 -278.904564 
L 272.861736 -279.994671 
L 276.141074 -278.108029 
L 279.420413 -275.429692 
L 282.699752 -283.511221 
L 285.979091 -283.290121 
L 289.25843 -279.902362 
L 292.537769 -276.552056 
L 295.817107 -263.096198 
L 299.096446 -273.732087 
L 302.375785 -275.868993 
L 305.655124 -268.207088 
L 308.934463 -276.426486 
L 312.213802 -281.990452 
L 315.49314 -282.716202 
L 318.772479 -273.83846 
L 322.051818 -283.939899 
L 325.331157 -280.724186 
L 328.610496 -282.258099 
L 331.889835 -282.070981 
L 335.169174 -279.628325 
L 338.448512 -275.883594 
L 341.727851 -277.949822 
L 345.00719 -284.738179 
L 348.286529 -282.571485 
L 351.565868 -279.955721 
L 354.845207 -279.476864 
L 358.124545 -276.796445 
L 361.403884 -285.213851 
L 364.683223 -283.42849 
L 367.962562 -286.209563 
L 371.241901 -277.627206 
L 374.52124 -286.328828 
L 377.800579 -283.907891 
L 381.079917 -285.018097 
L 384.359256 -287.327797 
L 387.638595 -278.912547 
L 390.917934 -278.824938 
L 394.197273 -287.326201 
L 394.197273 -290.682084 
L 394.197273 -290.682084 
L 390.917934 -288.812788 
L 387.638595 -287.389995 
L 384.359256 -291.028635 
L 381.079917 -289.554139 
L 377.800579 -289.090413 
L 374.52124 -290.306925 
L 371.241901 -287.401509 
L 367.962562 -289.786863 
L 364.683223 -289.522267 
L 361.403884 -290.133422 
L 358.124545 -287.087764 
L 354.845207 -288.028836 
L 351.565868 -288.398838 
L 348.286529 -288.403038 
L 345.00719 -288.963651 
L 341.727851 -286.78457 
L 338.448512 -285.823947 
L 335.169174 -288.048016 
L 331.889835 -288.048449 
L 328.610496 -288.42407 
L 325.331157 -287.627269 
L 322.051818 -288.789517 
L 318.772479 -284.977296 
L 315.49314 -287.384721 
L 312.213802 -288.049046 
L 308.934463 -286.668053 
L 305.655124 -283.957579 
L 302.375785 -285.921992 
L 299.096446 -285.844545 
L 295.817107 -280.095653 
L 292.537769 -285.149827 
L 289.25843 -285.864626 
L 285.979091 -288.313169 
L 282.699752 -287.543211 
L 279.420413 -284.167646 
L 276.141074 -285.269306 
L 272.861736 -286.84138 
L 269.582397 -286.734125 
L 266.303058 -283.834741 
L 263.023719 -285.853597 
L 259.74438 -285.871532 
L 256.465041 -280.780939 
L 253.185702 -281.890384 
L 249.906364 -285.624701 
L 246.627025 -280.953176 
L 243.347686 -284.425963 
L 240.068347 -278.169483 
L 236.789008 -286.103753 
L 233.509669 -285.187836 
L 230.230331 -283.58416 
L 226.950992 -276.756988 
L 223.671653 -277.920785 
L 220.392314 -280.308476 
L 217.112975 -277.971809 
L 213.833636 -282.553174 
L 210.554298 -281.924995 
L 207.274959 -279.234879 
L 203.99562 -283.259064 
L 200.716281 -283.221644 
L 197.436942 -279.856903 
L 194.157603 -279.630939 
L 190.878264 -280.6195 
L 187.598926 -279.291985 
L 184.319587 -281.188742 
L 181.040248 -278.916274 
L 177.760909 -278.326935 
L 174.48157 -273.358152 
L 171.202231 -274.642681 
L 167.922893 -270.974034 
L 164.643554 -272.790688 
L 161.364215 -270.658714 
L 158.084876 -266.171055 
L 154.805537 -278.881321 
L 151.526198 -260.297567 
L 148.24686 -270.928771 
L 144.967521 -271.158129 
L 141.688182 -274.895193 
L 138.408843 -273.995047 
L 135.129504 -266.563141 
L 131.850165 -264.106812 
L 128.570826 -262.449652 
L 125.291488 -272.270629 
L 122.012149 -260.142683 
L 118.73281 -268.583997 
L 115.453471 -269.615303 
L 112.174132 -254.66334 
L 108.894793 -259.141304 
L 105.615455 -258.306605 
L 102.336116 -255.102971 
L 99.056777 -258.791005 
L 95.777438 -257.23094 
L 92.498099 -230.179991 
L 89.21876 -243.354741 
L 85.939421 -243.442094 
L 82.660083 -209.056915 
L 79.380744 -218.87602 
L 76.101405 -135.408666 
L 72.822066 -150.604183 
L 69.542727 -88.546358 
z
" style="stroke: #dd8452; stroke-opacity: 0.2"/>
    </defs>
    <g clip-path="url(#pf8ff532b61)">
     <use xlink:href="#m9618744b78" x="0" y="316.271687" style="fill: #dd8452; fill-opacity: 0.2; stroke: #dd8452; stroke-opacity: 0.2"/>
    </g>
   </g>
   <g id="PolyCollection_3">
    <defs>
     <path id="mdcc8eda4af" d="M 69.542727 -137.777737 
L 69.542727 -86.640771 
L 72.822066 -127.778609 
L 76.101405 -153.228152 
L 79.380744 -186.174545 
L 82.660083 -199.810584 
L 85.939421 -221.323811 
L 89.21876 -221.554835 
L 92.498099 -227.177507 
L 95.777438 -243.55322 
L 99.056777 -246.874133 
L 102.336116 -248.024136 
L 105.615455 -249.057887 
L 108.894793 -246.919219 
L 112.174132 -248.092339 
L 115.453471 -249.723714 
L 118.73281 -256.592731 
L 122.012149 -254.058845 
L 125.291488 -254.800412 
L 128.570826 -257.736896 
L 131.850165 -261.749662 
L 135.129504 -262.5756 
L 138.408843 -262.562981 
L 141.688182 -264.547202 
L 144.967521 -265.478234 
L 148.24686 -265.471918 
L 151.526198 -266.585596 
L 154.805537 -268.208107 
L 158.084876 -267.19291 
L 161.364215 -268.266467 
L 164.643554 -270.41763 
L 167.922893 -270.220823 
L 171.202231 -270.50443 
L 174.48157 -270.824833 
L 177.760909 -271.258158 
L 181.040248 -276.505403 
L 184.319587 -276.162341 
L 187.598926 -275.782365 
L 190.878264 -275.961615 
L 194.157603 -273.68521 
L 197.436942 -276.078249 
L 200.716281 -274.920584 
L 203.99562 -275.616071 
L 207.274959 -276.010984 
L 210.554298 -276.526423 
L 213.833636 -278.049334 
L 217.112975 -278.605596 
L 220.392314 -279.672324 
L 223.671653 -279.665746 
L 226.950992 -280.727802 
L 230.230331 -281.514592 
L 233.509669 -280.629204 
L 236.789008 -279.964679 
L 240.068347 -281.05051 
L 243.347686 -282.774294 
L 246.627025 -282.091864 
L 249.906364 -281.451363 
L 253.185702 -282.705951 
L 256.465041 -284.348638 
L 259.74438 -285.358867 
L 263.023719 -279.770039 
L 266.303058 -279.330775 
L 269.582397 -285.159832 
L 272.861736 -284.978508 
L 276.141074 -285.113116 
L 279.420413 -288.845766 
L 282.699752 -287.571534 
L 285.979091 -287.571011 
L 289.25843 -286.58292 
L 292.537769 -286.640236 
L 295.817107 -286.055372 
L 299.096446 -286.709888 
L 302.375785 -286.806195 
L 305.655124 -286.630823 
L 308.934463 -286.157881 
L 312.213802 -288.91285 
L 315.49314 -288.527008 
L 318.772479 -287.816992 
L 322.051818 -287.436521 
L 325.331157 -287.386369 
L 328.610496 -286.952924 
L 331.889835 -287.253559 
L 335.169174 -289.537641 
L 338.448512 -289.146044 
L 341.727851 -288.093253 
L 345.00719 -288.146778 
L 348.286529 -289.283421 
L 351.565868 -289.531452 
L 354.845207 -289.873945 
L 358.124545 -288.575401 
L 361.403884 -288.786435 
L 364.683223 -289.66422 
L 367.962562 -290.153219 
L 371.241901 -290.196309 
L 374.52124 -290.321825 
L 377.800579 -290.007916 
L 381.079917 -289.820301 
L 384.359256 -289.253827 
L 387.638595 -289.503753 
L 390.917934 -288.718787 
L 394.197273 -288.714119 
L 394.197273 -295.291829 
L 394.197273 -295.291829 
L 390.917934 -295.496194 
L 387.638595 -295.335349 
L 384.359256 -295.282366 
L 381.079917 -295.448444 
L 377.800579 -295.479248 
L 374.52124 -295.333521 
L 371.241901 -295.212497 
L 367.962562 -295.410383 
L 364.683223 -295.642927 
L 361.403884 -295.434418 
L 358.124545 -295.183889 
L 354.845207 -295.434495 
L 351.565868 -295.415753 
L 348.286529 -295.341265 
L 345.00719 -295.023266 
L 341.727851 -295.104521 
L 338.448512 -294.906687 
L 335.169174 -295.16163 
L 331.889835 -294.915345 
L 328.610496 -295.088855 
L 325.331157 -295.165889 
L 322.051818 -295.025192 
L 318.772479 -295.039216 
L 315.49314 -295.080617 
L 312.213802 -295.095221 
L 308.934463 -294.901762 
L 305.655124 -295.001924 
L 302.375785 -294.955577 
L 299.096446 -295.225581 
L 295.817107 -294.978776 
L 292.537769 -294.908853 
L 289.25843 -294.832213 
L 285.979091 -294.623072 
L 282.699752 -294.413327 
L 279.420413 -294.449334 
L 276.141074 -294.474817 
L 272.861736 -294.557298 
L 269.582397 -294.150838 
L 266.303058 -294.238918 
L 263.023719 -294.32441 
L 259.74438 -294.1967 
L 256.465041 -294.14832 
L 253.185702 -293.640848 
L 249.906364 -293.597962 
L 246.627025 -294.068163 
L 243.347686 -293.646925 
L 240.068347 -293.404599 
L 236.789008 -293.262177 
L 233.509669 -293.450719 
L 230.230331 -293.625756 
L 226.950992 -293.458809 
L 223.671653 -293.061126 
L 220.392314 -292.795773 
L 217.112975 -293.053738 
L 213.833636 -293.278566 
L 210.554298 -293.048151 
L 207.274959 -292.818569 
L 203.99562 -293.066157 
L 200.716281 -292.734383 
L 197.436942 -292.542641 
L 194.157603 -291.619585 
L 190.878264 -292.250963 
L 187.598926 -291.890187 
L 184.319587 -291.275074 
L 181.040248 -291.773919 
L 177.760909 -291.77706 
L 174.48157 -291.546757 
L 171.202231 -291.242218 
L 167.922893 -290.828259 
L 164.643554 -290.893348 
L 161.364215 -289.934946 
L 158.084876 -289.301377 
L 154.805537 -289.84836 
L 151.526198 -289.340996 
L 148.24686 -287.905743 
L 144.967521 -288.363724 
L 141.688182 -287.207065 
L 138.408843 -287.611628 
L 135.129504 -286.755005 
L 131.850165 -287.043185 
L 128.570826 -285.65048 
L 125.291488 -283.177702 
L 122.012149 -282.095307 
L 118.73281 -283.39936 
L 115.453471 -279.42447 
L 112.174132 -277.650846 
L 108.894793 -276.684862 
L 105.615455 -277.814438 
L 102.336116 -277.441999 
L 99.056777 -275.803512 
L 95.777438 -273.151243 
L 92.498099 -265.528138 
L 89.21876 -262.899226 
L 85.939421 -259.414188 
L 82.660083 -243.967475 
L 79.380744 -234.644688 
L 76.101405 -206.162769 
L 72.822066 -182.303298 
L 69.542727 -137.777737 
z
" style="stroke: #55a868; stroke-opacity: 0.2"/>
    </defs>
    <g clip-path="url(#pf8ff532b61)">
     <use xlink:href="#mdcc8eda4af" x="0" y="316.271687" style="fill: #55a868; fill-opacity: 0.2; stroke: #55a868; stroke-opacity: 0.2"/>
    </g>
   </g>
   <g id="PolyCollection_4">
    <defs>
     <path id="mf8929a4c59" d="M 69.542727 -133.647617 
L 69.542727 -83.70756 
L 72.822066 -108.736202 
L 76.101405 -129.371604 
L 79.380744 -142.707838 
L 82.660083 -166.037856 
L 85.939421 -183.124919 
L 89.21876 -197.752321 
L 92.498099 -204.938186 
L 95.777438 -217.774029 
L 99.056777 -227.769912 
L 102.336116 -235.369289 
L 105.615455 -237.925059 
L 108.894793 -244.011517 
L 112.174132 -247.19713 
L 115.453471 -255.212232 
L 118.73281 -256.851478 
L 122.012149 -260.274682 
L 125.291488 -261.604431 
L 128.570826 -263.3141 
L 131.850165 -266.367161 
L 135.129504 -268.063618 
L 138.408843 -270.814001 
L 141.688182 -270.653362 
L 144.967521 -271.391205 
L 148.24686 -272.60333 
L 151.526198 -271.824686 
L 154.805537 -274.16381 
L 158.084876 -273.95327 
L 161.364215 -274.040101 
L 164.643554 -275.736805 
L 167.922893 -276.89627 
L 171.202231 -276.394631 
L 174.48157 -277.627485 
L 177.760909 -278.13356 
L 181.040248 -281.197773 
L 184.319587 -280.462686 
L 187.598926 -281.049292 
L 190.878264 -281.892215 
L 194.157603 -282.591025 
L 197.436942 -281.988486 
L 200.716281 -282.540051 
L 203.99562 -282.766148 
L 207.274959 -283.381916 
L 210.554298 -284.060781 
L 213.833636 -284.204535 
L 217.112975 -284.580971 
L 220.392314 -285.522361 
L 223.671653 -285.778574 
L 226.950992 -285.944951 
L 230.230331 -286.067143 
L 233.509669 -287.356827 
L 236.789008 -287.493252 
L 240.068347 -286.001385 
L 243.347686 -286.336177 
L 246.627025 -286.377247 
L 249.906364 -285.916598 
L 253.185702 -286.139383 
L 256.465041 -288.334892 
L 259.74438 -287.534713 
L 263.023719 -287.315683 
L 266.303058 -287.067059 
L 269.582397 -287.67316 
L 272.861736 -287.959264 
L 276.141074 -287.178045 
L 279.420413 -287.568654 
L 282.699752 -287.209495 
L 285.979091 -288.04715 
L 289.25843 -288.619435 
L 292.537769 -287.772843 
L 295.817107 -288.42333 
L 299.096446 -289.388925 
L 302.375785 -289.382652 
L 305.655124 -289.881384 
L 308.934463 -289.882643 
L 312.213802 -290.068262 
L 315.49314 -290.333798 
L 318.772479 -291.473216 
L 322.051818 -290.809566 
L 325.331157 -290.667452 
L 328.610496 -290.733669 
L 331.889835 -290.709477 
L 335.169174 -290.107552 
L 338.448512 -290.442648 
L 341.727851 -290.401036 
L 345.00719 -290.059711 
L 348.286529 -290.329335 
L 351.565868 -290.231229 
L 354.845207 -290.247874 
L 358.124545 -290.40701 
L 361.403884 -290.992211 
L 364.683223 -291.485168 
L 367.962562 -291.638295 
L 371.241901 -291.538063 
L 374.52124 -291.618769 
L 377.800579 -291.682519 
L 381.079917 -291.543438 
L 384.359256 -291.604043 
L 387.638595 -291.354665 
L 390.917934 -291.104813 
L 394.197273 -290.638225 
L 394.197273 -296.116181 
L 394.197273 -296.116181 
L 390.917934 -296.01155 
L 387.638595 -295.987589 
L 384.359256 -295.871283 
L 381.079917 -295.935073 
L 377.800579 -295.95143 
L 374.52124 -295.895322 
L 371.241901 -295.795553 
L 367.962562 -295.740925 
L 364.683223 -295.727081 
L 361.403884 -295.679091 
L 358.124545 -295.672122 
L 354.845207 -295.628251 
L 351.565868 -295.751456 
L 348.286529 -295.595586 
L 345.00719 -295.619704 
L 341.727851 -295.68802 
L 338.448512 -295.702105 
L 335.169174 -295.523714 
L 331.889835 -295.38684 
L 328.610496 -295.331705 
L 325.331157 -295.292256 
L 322.051818 -295.30279 
L 318.772479 -295.392774 
L 315.49314 -295.190208 
L 312.213802 -295.130468 
L 308.934463 -295.219076 
L 305.655124 -295.227901 
L 302.375785 -295.23249 
L 299.096446 -295.117121 
L 295.817107 -295.080851 
L 292.537769 -294.818932 
L 289.25843 -294.86827 
L 285.979091 -294.617248 
L 282.699752 -294.57208 
L 279.420413 -294.591984 
L 276.141074 -294.643721 
L 272.861736 -294.419716 
L 269.582397 -294.51141 
L 266.303058 -294.239487 
L 263.023719 -294.327431 
L 259.74438 -294.307099 
L 256.465041 -294.266434 
L 253.185702 -294.184157 
L 249.906364 -294.097666 
L 246.627025 -293.953966 
L 243.347686 -293.781936 
L 240.068347 -294.034035 
L 236.789008 -293.799729 
L 233.509669 -293.713504 
L 230.230331 -293.65106 
L 226.950992 -293.387646 
L 223.671653 -293.452579 
L 220.392314 -293.419163 
L 217.112975 -293.509438 
L 213.833636 -293.109734 
L 210.554298 -292.900565 
L 207.274959 -292.595788 
L 203.99562 -292.483097 
L 200.716281 -292.281708 
L 197.436942 -292.176573 
L 194.157603 -292.14632 
L 190.878264 -292.404245 
L 187.598926 -291.893188 
L 184.319587 -291.964494 
L 181.040248 -291.676051 
L 177.760909 -291.437146 
L 174.48157 -291.146656 
L 171.202231 -290.638976 
L 167.922893 -290.437743 
L 164.643554 -290.101259 
L 161.364215 -289.475367 
L 158.084876 -288.50121 
L 154.805537 -288.663191 
L 151.526198 -288.059958 
L 148.24686 -287.347161 
L 144.967521 -287.277854 
L 141.688182 -286.683295 
L 138.408843 -286.45125 
L 135.129504 -285.619592 
L 131.850165 -284.149584 
L 128.570826 -282.551772 
L 125.291488 -282.277771 
L 122.012149 -281.148306 
L 118.73281 -278.820444 
L 115.453471 -278.189768 
L 112.174132 -274.959806 
L 108.894793 -271.856637 
L 105.615455 -267.241044 
L 102.336116 -265.218474 
L 99.056777 -259.84409 
L 95.777438 -252.702915 
L 92.498099 -244.861175 
L 89.21876 -235.597485 
L 85.939421 -221.837716 
L 82.660083 -209.489803 
L 79.380744 -189.866923 
L 76.101405 -173.057594 
L 72.822066 -156.178588 
L 69.542727 -133.647617 
z
" style="stroke: #c44e52; stroke-opacity: 0.2"/>
    </defs>
    <g clip-path="url(#pf8ff532b61)">
     <use xlink:href="#mf8929a4c59" x="0" y="316.271687" style="fill: #c44e52; fill-opacity: 0.2; stroke: #c44e52; stroke-opacity: 0.2"/>
    </g>
   </g>
   <g id="PolyCollection_5">
    <defs>
     <path id="m021279c1fc" d="M 69.542727 -149.516409 
L 69.542727 -93.510049 
L 72.822066 -133.034605 
L 76.101405 -159.509931 
L 79.380744 -184.33611 
L 82.660083 -205.188149 
L 85.939421 -213.126502 
L 89.21876 -219.576674 
L 92.498099 -218.456242 
L 95.777438 -238.500693 
L 99.056777 -240.386547 
L 102.336116 -242.785435 
L 105.615455 -242.486391 
L 108.894793 -243.018165 
L 112.174132 -246.169679 
L 115.453471 -249.434986 
L 118.73281 -251.247985 
L 122.012149 -255.314277 
L 125.291488 -253.813351 
L 128.570826 -255.971483 
L 131.850165 -258.845269 
L 135.129504 -259.317372 
L 138.408843 -259.210901 
L 141.688182 -261.342484 
L 144.967521 -262.052833 
L 148.24686 -262.587723 
L 151.526198 -264.198621 
L 154.805537 -264.372581 
L 158.084876 -264.572916 
L 161.364215 -266.088297 
L 164.643554 -267.148412 
L 167.922893 -266.404535 
L 171.202231 -267.353744 
L 174.48157 -267.189684 
L 177.760909 -268.918343 
L 181.040248 -267.914272 
L 184.319587 -268.308807 
L 187.598926 -269.428662 
L 190.878264 -269.918667 
L 194.157603 -270.699204 
L 197.436942 -270.551433 
L 200.716281 -269.538439 
L 203.99562 -271.065405 
L 207.274959 -270.17122 
L 210.554298 -271.208316 
L 213.833636 -270.801603 
L 217.112975 -272.458149 
L 220.392314 -274.483387 
L 223.671653 -275.146381 
L 226.950992 -275.469724 
L 230.230331 -275.275858 
L 233.509669 -275.507884 
L 236.789008 -274.482963 
L 240.068347 -276.370692 
L 243.347686 -277.779998 
L 246.627025 -277.932137 
L 249.906364 -277.768123 
L 253.185702 -277.328274 
L 256.465041 -279.353397 
L 259.74438 -279.208307 
L 263.023719 -279.271394 
L 266.303058 -278.771547 
L 269.582397 -280.572192 
L 272.861736 -281.398466 
L 276.141074 -280.251655 
L 279.420413 -283.178582 
L 282.699752 -283.032595 
L 285.979091 -282.4572 
L 289.25843 -282.462633 
L 292.537769 -283.136397 
L 295.817107 -283.040025 
L 299.096446 -283.623412 
L 302.375785 -284.240916 
L 305.655124 -284.545574 
L 308.934463 -285.609257 
L 312.213802 -285.460461 
L 315.49314 -284.99643 
L 318.772479 -285.960477 
L 322.051818 -285.789275 
L 325.331157 -285.872636 
L 328.610496 -286.083562 
L 331.889835 -285.515087 
L 335.169174 -286.687186 
L 338.448512 -286.573603 
L 341.727851 -286.89735 
L 345.00719 -287.072417 
L 348.286529 -287.462111 
L 351.565868 -287.424431 
L 354.845207 -286.954223 
L 358.124545 -287.576969 
L 361.403884 -287.035662 
L 364.683223 -287.491871 
L 367.962562 -288.111272 
L 371.241901 -288.541138 
L 374.52124 -288.203517 
L 377.800579 -289.278276 
L 381.079917 -289.365817 
L 384.359256 -288.877813 
L 387.638595 -288.447511 
L 390.917934 -289.480736 
L 394.197273 -288.873514 
L 394.197273 -295.918549 
L 394.197273 -295.918549 
L 390.917934 -295.815638 
L 387.638595 -295.870464 
L 384.359256 -295.875893 
L 381.079917 -296.095893 
L 377.800579 -295.864337 
L 374.52124 -295.862982 
L 371.241901 -295.962028 
L 367.962562 -295.771058 
L 364.683223 -295.634797 
L 361.403884 -295.700108 
L 358.124545 -295.598198 
L 354.845207 -295.4976 
L 351.565868 -295.506251 
L 348.286529 -295.468381 
L 345.00719 -295.340702 
L 341.727851 -295.41357 
L 338.448512 -295.554584 
L 335.169174 -295.517017 
L 331.889835 -295.277308 
L 328.610496 -295.398426 
L 325.331157 -295.385606 
L 322.051818 -295.463273 
L 318.772479 -295.32753 
L 315.49314 -295.208387 
L 312.213802 -295.445879 
L 308.934463 -295.120119 
L 305.655124 -295.243468 
L 302.375785 -295.038444 
L 299.096446 -295.065345 
L 295.817107 -294.984987 
L 292.537769 -294.683462 
L 289.25843 -294.576716 
L 285.979091 -294.942773 
L 282.699752 -294.644231 
L 279.420413 -294.727823 
L 276.141074 -294.527707 
L 272.861736 -294.713241 
L 269.582397 -294.681509 
L 266.303058 -293.928206 
L 263.023719 -294.178398 
L 259.74438 -294.497557 
L 256.465041 -294.314585 
L 253.185702 -293.879475 
L 249.906364 -294.098911 
L 246.627025 -294.321883 
L 243.347686 -293.416681 
L 240.068347 -293.795389 
L 236.789008 -292.707351 
L 233.509669 -293.157598 
L 230.230331 -293.555587 
L 226.950992 -293.662664 
L 223.671653 -293.34644 
L 220.392314 -292.895454 
L 217.112975 -292.753906 
L 213.833636 -292.777359 
L 210.554298 -292.283555 
L 207.274959 -292.511304 
L 203.99562 -292.344769 
L 200.716281 -292.159176 
L 197.436942 -292.474954 
L 194.157603 -291.478998 
L 190.878264 -290.757636 
L 187.598926 -291.409338 
L 184.319587 -291.447468 
L 181.040248 -290.828528 
L 177.760909 -291.069205 
L 174.48157 -290.611177 
L 171.202231 -289.787363 
L 167.922893 -290.086471 
L 164.643554 -289.860115 
L 161.364215 -289.17645 
L 158.084876 -288.960549 
L 154.805537 -288.357896 
L 151.526198 -288.931521 
L 148.24686 -288.400561 
L 144.967521 -287.866914 
L 141.688182 -287.769929 
L 138.408843 -286.752919 
L 135.129504 -285.635473 
L 131.850165 -285.280802 
L 128.570826 -284.268626 
L 125.291488 -282.938825 
L 122.012149 -283.693551 
L 118.73281 -281.435948 
L 115.453471 -280.375456 
L 112.174132 -278.438678 
L 108.894793 -275.891089 
L 105.615455 -275.714305 
L 102.336116 -272.614387 
L 99.056777 -271.993003 
L 95.777438 -269.557714 
L 92.498099 -259.789832 
L 89.21876 -259.459415 
L 85.939421 -255.956981 
L 82.660083 -247.473511 
L 79.380744 -231.761909 
L 76.101405 -214.305735 
L 72.822066 -188.5744 
L 69.542727 -149.516409 
z
" style="stroke: #8172b3; stroke-opacity: 0.2"/>
    </defs>
    <g clip-path="url(#pf8ff532b61)">
     <use xlink:href="#m021279c1fc" x="0" y="316.271687" style="fill: #8172b3; fill-opacity: 0.2; stroke: #8172b3; stroke-opacity: 0.2"/>
    </g>
   </g>
   <g id="line2d_12">
    <path d="M 69.542727 190.836673 
L 72.822066 115.41531 
L 76.101405 99.527944 
L 79.380744 68.502036 
L 82.660083 55.475077 
L 85.939421 46.359674 
L 89.21876 41.209633 
L 92.498099 41.719682 
L 95.777438 32.280986 
L 99.056777 32.204743 
L 102.336116 31.548506 
L 105.615455 29.843842 
L 108.894793 31.389037 
L 112.174132 32.153708 
L 115.453471 27.621168 
L 118.73281 29.717228 
L 122.012149 28.749141 
L 125.291488 29.334643 
L 128.570826 29.155134 
L 131.850165 28.120256 
L 135.129504 26.252952 
L 138.408843 28.166826 
L 141.688182 26.609835 
L 144.967521 26.418719 
L 148.24686 25.862281 
L 151.526198 29.889391 
L 154.805537 25.29661 
L 158.084876 25.299622 
L 161.364215 24.984985 
L 164.643554 25.522798 
L 167.922893 24.828818 
L 171.202231 24.52901 
L 174.48157 24.581652 
L 177.760909 24.453563 
L 181.040248 24.255758 
L 184.319587 23.666477 
L 187.598926 23.326314 
L 190.878264 22.78979 
L 194.157603 23.85535 
L 197.436942 23.287227 
L 200.716281 22.865533 
L 203.99562 23.013043 
L 207.274959 22.578271 
L 210.554298 22.986469 
L 213.833636 22.868633 
L 217.112975 23.013685 
L 220.392314 22.878803 
L 223.671653 22.748377 
L 226.950992 22.408154 
L 230.230331 21.928864 
L 233.509669 22.080707 
L 236.789008 22.256233 
L 240.068347 22.803093 
L 243.347686 22.284508 
L 246.627025 23.295039 
L 249.906364 24.679021 
L 253.185702 23.906582 
L 256.465041 23.144644 
L 259.74438 22.830725 
L 263.023719 21.380726 
L 266.303058 21.773635 
L 269.582397 21.743842 
L 272.861736 22.591404 
L 276.141074 22.217212 
L 279.420413 21.97709 
L 282.699752 22.250934 
L 285.979091 21.594505 
L 289.25843 21.943171 
L 292.537769 21.597396 
L 295.817107 21.600435 
L 299.096446 22.506302 
L 302.375785 22.677516 
L 305.655124 21.594653 
L 308.934463 21.739288 
L 312.213802 21.555424 
L 315.49314 21.206028 
L 318.772479 21.677227 
L 322.051818 22.20279 
L 325.331157 21.976322 
L 328.610496 21.992379 
L 331.889835 21.819261 
L 335.169174 20.98131 
L 338.448512 20.785355 
L 341.727851 21.015295 
L 345.00719 20.974601 
L 348.286529 21.266422 
L 351.565868 20.953568 
L 354.845207 21.11352 
L 358.124545 20.634076 
L 361.403884 20.734885 
L 364.683223 21.416883 
L 367.962562 20.699227 
L 371.241901 20.5102 
L 374.52124 20.519416 
L 377.800579 20.33226 
L 381.079917 21.107272 
L 384.359256 20.880134 
L 387.638595 20.728411 
L 390.917934 21.150983 
L 394.197273 21.056812 
" clip-path="url(#pf8ff532b61)" style="fill: none; stroke: #4c72b0; stroke-width: 1.5; stroke-linecap: round"/>
   </g>
   <g id="line2d_13">
    <path d="M 69.542727 245.009138 
L 72.822066 188.827592 
L 76.101405 196.103591 
L 79.380744 113.060092 
L 82.660083 122.929276 
L 85.939421 84.420528 
L 89.21876 86.006484 
L 92.498099 99.500718 
L 95.777438 70.109002 
L 99.056777 67.530377 
L 102.336116 73.992958 
L 105.615455 64.932305 
L 108.894793 67.624921 
L 112.174132 72.891762 
L 115.453471 53.631735 
L 118.73281 51.988507 
L 122.012149 66.781797 
L 125.291488 50.210693 
L 128.570826 66.657366 
L 131.850165 63.752057 
L 135.129504 59.576642 
L 138.408843 45.476487 
L 141.688182 45.586621 
L 144.967521 53.954606 
L 148.24686 54.897886 
L 151.526198 68.849352 
L 154.805537 41.244238 
L 158.084876 61.906702 
L 161.364215 56.72324 
L 164.643554 54.586963 
L 167.922893 55.565484 
L 171.202231 49.17806 
L 174.48157 53.014706 
L 177.760909 41.80485 
L 181.040248 41.224209 
L 184.319587 37.842923 
L 187.598926 40.788751 
L 190.878264 39.23108 
L 194.157603 41.686416 
L 197.436942 40.629809 
L 200.716281 35.543628 
L 203.99562 35.758653 
L 207.274959 44.099439 
L 210.554298 40.796464 
L 213.833636 39.16869 
L 217.112975 46.968042 
L 220.392314 41.227215 
L 223.671653 45.929011 
L 226.950992 48.199879 
L 230.230331 35.080154 
L 233.509669 33.382396 
L 236.789008 32.240835 
L 240.068347 45.645348 
L 243.347686 34.969751 
L 246.627025 41.822614 
L 249.906364 33.12761 
L 253.185702 40.63146 
L 256.465041 42.742683 
L 259.74438 34.678495 
L 263.023719 34.107497 
L 266.303058 39.53897 
L 269.582397 33.297354 
L 272.861736 32.583554 
L 276.141074 34.527655 
L 279.420413 36.390313 
L 282.699752 30.627899 
L 285.979091 30.320251 
L 289.25843 33.380789 
L 292.537769 35.215573 
L 295.817107 44.136079 
L 299.096446 36.117281 
L 302.375785 34.800292 
L 305.655124 39.129109 
L 308.934463 34.527019 
L 312.213802 31.17325 
L 315.49314 31.181238 
L 318.772479 36.311975 
L 322.051818 29.834225 
L 325.331157 31.722568 
L 328.610496 30.670733 
L 331.889835 31.082388 
L 335.169174 32.151135 
L 338.448512 35.102032 
L 341.727851 33.580996 
L 345.00719 29.46959 
L 348.286529 30.491499 
L 351.565868 31.596354 
L 354.845207 31.994519 
L 358.124545 33.851027 
L 361.403884 28.334326 
L 364.683223 29.651276 
L 367.962562 28.255181 
L 371.241901 33.469775 
L 374.52124 27.907876 
L 377.800579 29.631785 
L 381.079917 28.796286 
L 384.359256 26.95956 
L 387.638595 32.986387 
L 390.917934 31.800988 
L 394.197273 27.237063 
" clip-path="url(#pf8ff532b61)" style="fill: none; stroke-dasharray: 6,2.25; stroke-dashoffset: 0; stroke: #dd8452; stroke-width: 1.5"/>
   </g>
   <g id="line2d_14">
    <path d="M 69.542727 205.12992 
L 72.822066 161.659543 
L 76.101405 136.054623 
L 79.380744 106.301114 
L 82.660083 93.133882 
L 85.939421 75.39268 
L 89.21876 72.224427 
L 92.498099 67.531074 
L 95.777438 56.911916 
L 99.056777 53.939964 
L 102.336116 52.299298 
L 105.615455 51.799195 
L 108.894793 53.119256 
L 112.174132 52.495566 
L 115.453471 50.092648 
L 118.73281 45.939758 
L 122.012149 46.172441 
L 125.291488 45.51152 
L 128.570826 42.663939 
L 131.850165 40.819675 
L 135.129504 39.741898 
L 138.408843 39.915317 
L 141.688182 38.736441 
L 144.967521 38.16665 
L 148.24686 38.141169 
L 151.526198 36.957668 
L 154.805537 36.242073 
L 158.084876 36.305918 
L 161.364215 35.333865 
L 164.643554 34.269254 
L 167.922893 34.043159 
L 171.202231 33.755853 
L 174.48157 33.678595 
L 177.760909 33.487665 
L 181.040248 31.222036 
L 184.319587 31.507554 
L 187.598926 30.977646 
L 190.878264 31.013436 
L 194.157603 32.071332 
L 197.436942 31.193444 
L 200.716281 31.132035 
L 203.99562 30.531183 
L 207.274959 30.538353 
L 210.554298 30.642563 
L 213.833636 29.471241 
L 217.112975 29.572801 
L 220.392314 29.424364 
L 223.671653 29.004119 
L 226.950992 28.109844 
L 230.230331 27.987487 
L 233.509669 28.41262 
L 236.789008 28.458208 
L 240.068347 28.026777 
L 243.347686 27.203928 
L 246.627025 27.541683 
L 249.906364 27.693823 
L 253.185702 27.339347 
L 256.465041 26.113737 
L 259.74438 26.063343 
L 263.023719 28.028702 
L 266.303058 27.98617 
L 269.582397 25.943664 
L 272.861736 25.879748 
L 276.141074 25.807082 
L 279.420413 24.117854 
L 282.699752 24.71503 
L 285.979091 24.716166 
L 289.25843 24.934027 
L 292.537769 24.782326 
L 295.817107 24.953721 
L 299.096446 24.76894 
L 302.375785 24.591258 
L 305.655124 24.889075 
L 308.934463 24.991881 
L 312.213802 23.846989 
L 315.49314 23.958012 
L 318.772479 24.336395 
L 322.051818 24.480196 
L 325.331157 24.303222 
L 328.610496 24.463794 
L 331.889835 24.473262 
L 335.169174 23.587195 
L 338.448512 23.927034 
L 341.727851 24.387233 
L 345.00719 24.182176 
L 348.286529 23.449943 
L 351.565868 23.434506 
L 354.845207 23.403467 
L 358.124545 23.858197 
L 361.403884 23.520278 
L 364.683223 23.328525 
L 367.962562 23.192349 
L 371.241901 23.220244 
L 374.52124 23.222817 
L 377.800579 23.115771 
L 381.079917 23.339875 
L 384.359256 23.622672 
L 387.638595 23.398113 
L 390.917934 23.614366 
L 394.197273 23.815089 
" clip-path="url(#pf8ff532b61)" style="fill: none; stroke-dasharray: 1.5,1.5; stroke-dashoffset: 0; stroke: #55a868; stroke-width: 1.5"/>
   </g>
   <g id="line2d_15">
    <path d="M 69.542727 208.365577 
L 72.822066 183.396092 
L 76.101405 165.049825 
L 79.380744 149.382158 
L 82.660083 128.193012 
L 85.939421 113.330874 
L 89.21876 99.45281 
L 92.498099 91.228747 
L 95.777438 80.287826 
L 99.056777 72.078624 
L 102.336116 65.028538 
L 105.615455 61.996374 
L 108.894793 57.806904 
L 112.174132 54.932464 
L 115.453471 48.568864 
L 118.73281 47.404075 
L 122.012149 44.088604 
L 125.291488 43.130973 
L 128.570826 41.951159 
L 131.850165 40.081265 
L 135.129504 38.394616 
L 138.408843 36.560562 
L 141.688182 36.324153 
L 144.967521 35.639999 
L 148.24686 35.120733 
L 151.526198 34.440616 
L 154.805537 33.744585 
L 158.084876 33.585538 
L 161.364215 32.758822 
L 164.643554 31.800132 
L 167.922893 31.579529 
L 171.202231 31.101802 
L 174.48157 30.333939 
L 177.760909 30.087513 
L 181.040248 29.034203 
L 184.319587 28.757232 
L 187.598926 28.643351 
L 190.878264 28.525564 
L 194.157603 28.197788 
L 197.436942 28.162141 
L 200.716281 27.770372 
L 203.99562 27.624541 
L 207.274959 27.442169 
L 210.554298 27.023487 
L 213.833636 26.724194 
L 217.112975 26.445605 
L 220.392314 26.074995 
L 223.671653 25.956512 
L 226.950992 25.903825 
L 230.230331 25.771758 
L 233.509669 25.273504 
L 236.789008 25.154652 
L 240.068347 25.476733 
L 243.347686 25.502736 
L 246.627025 25.203778 
L 249.906364 25.3013 
L 253.185702 25.168454 
L 256.465041 24.582343 
L 259.74438 24.580369 
L 263.023719 24.796024 
L 266.303058 24.806666 
L 269.582397 24.60398 
L 272.861736 24.431268 
L 276.141074 24.474573 
L 279.420413 24.36863 
L 282.699752 24.542461 
L 285.979091 24.311007 
L 289.25843 24.026597 
L 292.537769 24.11244 
L 295.817107 23.860605 
L 299.096446 23.484433 
L 302.375785 23.457591 
L 305.655124 23.341987 
L 308.934463 23.351275 
L 312.213802 23.156136 
L 315.49314 23.113588 
L 318.772479 22.710579 
L 322.051818 22.884191 
L 325.331157 22.979941 
L 328.610496 22.78996 
L 331.889835 22.751591 
L 335.169174 23.028025 
L 338.448512 22.857529 
L 341.727851 22.800026 
L 345.00719 22.818486 
L 348.286529 22.765899 
L 351.565868 22.715363 
L 354.845207 22.727201 
L 358.124545 22.662232 
L 361.403884 22.433652 
L 364.683223 22.426817 
L 367.962562 22.340063 
L 371.241901 22.264523 
L 374.52124 22.174055 
L 377.800579 22.179738 
L 381.079917 22.3057 
L 384.359256 22.204578 
L 387.638595 22.326941 
L 390.917934 22.31547 
L 394.197273 22.379896 
" clip-path="url(#pf8ff532b61)" style="fill: none; stroke-dasharray: 4.5,1.875,2.25,1.875; stroke-dashoffset: 0; stroke: #c44e52; stroke-width: 1.5"/>
   </g>
   <g id="line2d_16">
    <path d="M 69.542727 194.983129 
L 72.822066 154.028843 
L 76.101405 128.12705 
L 79.380744 107.593965 
L 82.660083 90.555586 
L 85.939421 79.534604 
L 89.21876 75.879392 
L 92.498099 74.118536 
L 95.777438 61.962444 
L 99.056777 60.235896 
L 102.336116 57.650117 
L 105.615455 55.566763 
L 108.894793 55.253662 
L 112.174132 51.952914 
L 115.453471 50.390389 
L 118.73281 48.857674 
L 122.012149 46.113419 
L 125.291488 45.135375 
L 128.570826 44.250651 
L 131.850165 43.257675 
L 135.129504 42.356 
L 138.408843 41.739212 
L 141.688182 40.55423 
L 144.967521 40.200874 
L 148.24686 39.28211 
L 151.526198 38.852039 
L 154.805537 38.669212 
L 158.084876 38.184375 
L 161.364215 37.097744 
L 164.643554 36.784155 
L 167.922893 36.615327 
L 171.202231 36.19585 
L 174.48157 36.303433 
L 177.760909 35.217855 
L 181.040248 35.1614 
L 184.319587 34.783445 
L 187.598926 34.576496 
L 190.878264 34.523052 
L 194.157603 33.792816 
L 197.436942 33.3716 
L 200.716281 33.157475 
L 203.99562 33.055465 
L 207.274959 33.022539 
L 210.554298 32.744043 
L 213.833636 32.464818 
L 217.112975 31.815718 
L 220.392314 31.390815 
L 223.671653 30.766988 
L 226.950992 30.774252 
L 230.230331 30.777351 
L 233.509669 30.845925 
L 236.789008 30.795372 
L 240.068347 30.304529 
L 243.347686 29.66345 
L 246.627025 29.179683 
L 249.906364 29.033989 
L 253.185702 29.134265 
L 256.465041 28.563043 
L 259.74438 28.710119 
L 263.023719 28.757029 
L 266.303058 28.61946 
L 269.582397 27.96014 
L 272.861736 27.763076 
L 276.141074 27.803639 
L 279.420413 27.113757 
L 282.699752 26.699946 
L 285.979091 26.668534 
L 289.25843 26.864589 
L 292.537769 26.717666 
L 295.817107 26.523378 
L 299.096446 26.319073 
L 302.375785 25.753326 
L 305.655124 25.857634 
L 308.934463 25.592425 
L 312.213802 25.217323 
L 315.49314 25.31897 
L 318.772479 25.018734 
L 322.051818 24.908265 
L 325.331157 24.95456 
L 328.610496 24.898615 
L 331.889835 25.00683 
L 335.169174 24.689099 
L 338.448512 24.495206 
L 341.727851 24.456838 
L 345.00719 24.409796 
L 348.286529 24.347197 
L 351.565868 24.153183 
L 354.845207 24.184327 
L 358.124545 24.063989 
L 361.403884 24.21338 
L 364.683223 24.042171 
L 367.962562 23.751738 
L 371.241901 23.547861 
L 374.52124 23.671518 
L 377.800579 23.303877 
L 381.079917 23.306598 
L 384.359256 23.46289 
L 387.638595 23.483402 
L 390.917934 23.212059 
L 394.197273 23.464651 
" clip-path="url(#pf8ff532b61)" style="fill: none; stroke-dasharray: 7.5,1.5,1.5,1.5; stroke-dashoffset: 0; stroke: #8172b3; stroke-width: 1.5"/>
   </g>
   <g id="line2d_17"/>
   <g id="line2d_18"/>
   <g id="line2d_19"/>
   <g id="line2d_20"/>
   <g id="line2d_21"/>
   <g id="patch_3">
    <path d="M 53.31 273.312 
L 53.31 7.2 
" style="fill: none; stroke: #cccccc; stroke-width: 1.25; stroke-linejoin: miter; stroke-linecap: square"/>
   </g>
   <g id="patch_4">
    <path d="M 410.43 273.312 
L 410.43 7.2 
" style="fill: none; stroke: #cccccc; stroke-width: 1.25; stroke-linejoin: miter; stroke-linecap: square"/>
   </g>
   <g id="patch_5">
    <path d="M 53.31 273.312 
L 410.43 273.312 
" style="fill: none; stroke: #cccccc; stroke-width: 1.25; stroke-linejoin: miter; stroke-linecap: square"/>
   </g>
   <g id="patch_6">
    <path d="M 53.31 7.2 
L 410.43 7.2 
" style="fill: none; stroke: #cccccc; stroke-width: 1.25; stroke-linejoin: miter; stroke-linecap: square"/>
   </g>
   <g id="legend_1">
    <g id="patch_7">
     <path d="M 298.745625 267.812 
L 402.73 267.812 
Q 404.93 267.812 404.93 265.612 
L 404.93 168.868562 
Q 404.93 166.668562 402.73 166.668562 
L 298.745625 166.668562 
Q 296.545625 166.668562 296.545625 168.868562 
L 296.545625 265.612 
Q 296.545625 267.812 298.745625 267.812 
z
" style="fill: #ffffff; opacity: 0.8; stroke: #cccccc; stroke-linejoin: miter"/>
    </g>
    <g id="text_14">
     <!-- Strategy -->
     <g style="fill: #262626" transform="translate(325.02875 180.186687) scale(0.12 -0.12)">
      <defs>
       <path id="DejaVuSans-53" d="M 3425 4513 
L 3425 3897 
Q 3066 4069 2747 4153 
Q 2428 4238 2131 4238 
Q 1616 4238 1336 4038 
Q 1056 3838 1056 3469 
Q 1056 3159 1242 3001 
Q 1428 2844 1947 2747 
L 2328 2669 
Q 3034 2534 3370 2195 
Q 3706 1856 3706 1288 
Q 3706 609 3251 259 
Q 2797 -91 1919 -91 
Q 1588 -91 1214 -16 
Q 841 59 441 206 
L 441 856 
Q 825 641 1194 531 
Q 1563 422 1919 422 
Q 2459 422 2753 634 
Q 3047 847 3047 1241 
Q 3047 1584 2836 1778 
Q 2625 1972 2144 2069 
L 1759 2144 
Q 1053 2284 737 2584 
Q 422 2884 422 3419 
Q 422 4038 858 4394 
Q 1294 4750 2059 4750 
Q 2388 4750 2728 4690 
Q 3069 4631 3425 4513 
z
" transform="scale(0.015625)"/>
       <path id="DejaVuSans-74" d="M 1172 4494 
L 1172 3500 
L 2356 3500 
L 2356 3053 
L 1172 3053 
L 1172 1153 
Q 1172 725 1289 603 
Q 1406 481 1766 481 
L 2356 481 
L 2356 0 
L 1766 0 
Q 1100 0 847 248 
Q 594 497 594 1153 
L 594 3053 
L 172 3053 
L 172 3500 
L 594 3500 
L 594 4494 
L 1172 4494 
z
" transform="scale(0.015625)"/>
       <path id="DejaVuSans-65" d="M 3597 1894 
L 3597 1613 
L 953 1613 
Q 991 1019 1311 708 
Q 1631 397 2203 397 
Q 2534 397 2845 478 
Q 3156 559 3463 722 
L 3463 178 
Q 3153 47 2828 -22 
Q 2503 -91 2169 -91 
Q 1331 -91 842 396 
Q 353 884 353 1716 
Q 353 2575 817 3079 
Q 1281 3584 2069 3584 
Q 2775 3584 3186 3129 
Q 3597 2675 3597 1894 
z
M 3022 2063 
Q 3016 2534 2758 2815 
Q 2500 3097 2075 3097 
Q 1594 3097 1305 2825 
Q 1016 2553 972 2059 
L 3022 2063 
z
" transform="scale(0.015625)"/>
       <path id="DejaVuSans-67" d="M 2906 1791 
Q 2906 2416 2648 2759 
Q 2391 3103 1925 3103 
Q 1463 3103 1205 2759 
Q 947 2416 947 1791 
Q 947 1169 1205 825 
Q 1463 481 1925 481 
Q 2391 481 2648 825 
Q 2906 1169 2906 1791 
z
M 3481 434 
Q 3481 -459 3084 -895 
Q 2688 -1331 1869 -1331 
Q 1566 -1331 1297 -1286 
Q 1028 -1241 775 -1147 
L 775 -588 
Q 1028 -725 1275 -790 
Q 1522 -856 1778 -856 
Q 2344 -856 2625 -561 
Q 2906 -266 2906 331 
L 2906 616 
Q 2728 306 2450 153 
Q 2172 0 1784 0 
Q 1141 0 747 490 
Q 353 981 353 1791 
Q 353 2603 747 3093 
Q 1141 3584 1784 3584 
Q 2172 3584 2450 3431 
Q 2728 3278 2906 2969 
L 2906 3500 
L 3481 3500 
L 3481 434 
z
" transform="scale(0.015625)"/>
      </defs>
      <use xlink:href="#DejaVuSans-53"/>
      <use xlink:href="#DejaVuSans-74" x="63.476562"/>
      <use xlink:href="#DejaVuSans-72" x="102.685547"/>
      <use xlink:href="#DejaVuSans-61" x="143.798828"/>
      <use xlink:href="#DejaVuSans-74" x="205.078125"/>
      <use xlink:href="#DejaVuSans-65" x="244.287109"/>
      <use xlink:href="#DejaVuSans-67" x="305.810547"/>
      <use xlink:href="#DejaVuSans-79" x="369.287109"/>
     </g>
    </g>
    <g id="line2d_22">
     <path d="M 300.945625 192.690594 
L 311.945625 192.690594 
L 322.945625 192.690594 
" style="fill: none; stroke: #4c72b0; stroke-width: 1.5; stroke-linecap: round"/>
    </g>
    <g id="text_15">
     <!-- FedPredict -->
     <g style="fill: #262626" transform="translate(331.745625 196.540594) scale(0.11 -0.11)">
      <defs>
       <path id="DejaVuSans-46" d="M 628 4666 
L 3309 4666 
L 3309 4134 
L 1259 4134 
L 1259 2759 
L 3109 2759 
L 3109 2228 
L 1259 2228 
L 1259 0 
L 628 0 
L 628 4666 
z
" transform="scale(0.015625)"/>
       <path id="DejaVuSans-50" d="M 1259 4147 
L 1259 2394 
L 2053 2394 
Q 2494 2394 2734 2622 
Q 2975 2850 2975 3272 
Q 2975 3691 2734 3919 
Q 2494 4147 2053 4147 
L 1259 4147 
z
M 628 4666 
L 2053 4666 
Q 2838 4666 3239 4311 
Q 3641 3956 3641 3272 
Q 3641 2581 3239 2228 
Q 2838 1875 2053 1875 
L 1259 1875 
L 1259 0 
L 628 0 
L 628 4666 
z
" transform="scale(0.015625)"/>
       <path id="DejaVuSans-69" d="M 603 3500 
L 1178 3500 
L 1178 0 
L 603 0 
L 603 3500 
z
M 603 4863 
L 1178 4863 
L 1178 4134 
L 603 4134 
L 603 4863 
z
" transform="scale(0.015625)"/>
      </defs>
      <use xlink:href="#DejaVuSans-46"/>
      <use xlink:href="#DejaVuSans-65" x="52.019531"/>
      <use xlink:href="#DejaVuSans-64" x="113.542969"/>
      <use xlink:href="#DejaVuSans-50" x="177.019531"/>
      <use xlink:href="#DejaVuSans-72" x="235.572266"/>
      <use xlink:href="#DejaVuSans-65" x="274.435547"/>
      <use xlink:href="#DejaVuSans-64" x="335.958984"/>
      <use xlink:href="#DejaVuSans-69" x="399.435547"/>
      <use xlink:href="#DejaVuSans-63" x="427.21875"/>
      <use xlink:href="#DejaVuSans-74" x="482.199219"/>
     </g>
    </g>
    <g id="line2d_23">
     <path d="M 300.945625 208.836531 
L 311.945625 208.836531 
L 322.945625 208.836531 
" style="fill: none; stroke-dasharray: 6,2.25; stroke-dashoffset: 0; stroke: #dd8452; stroke-width: 1.5"/>
    </g>
    <g id="text_16">
     <!-- FedAVG -->
     <g style="fill: #262626" transform="translate(331.745625 212.686531) scale(0.11 -0.11)">
      <defs>
       <path id="DejaVuSans-56" d="M 1831 0 
L 50 4666 
L 709 4666 
L 2188 738 
L 3669 4666 
L 4325 4666 
L 2547 0 
L 1831 0 
z
" transform="scale(0.015625)"/>
       <path id="DejaVuSans-47" d="M 3809 666 
L 3809 1919 
L 2778 1919 
L 2778 2438 
L 4434 2438 
L 4434 434 
Q 4069 175 3628 42 
Q 3188 -91 2688 -91 
Q 1594 -91 976 548 
Q 359 1188 359 2328 
Q 359 3472 976 4111 
Q 1594 4750 2688 4750 
Q 3144 4750 3555 4637 
Q 3966 4525 4313 4306 
L 4313 3634 
Q 3963 3931 3569 4081 
Q 3175 4231 2741 4231 
Q 1884 4231 1454 3753 
Q 1025 3275 1025 2328 
Q 1025 1384 1454 906 
Q 1884 428 2741 428 
Q 3075 428 3337 486 
Q 3600 544 3809 666 
z
" transform="scale(0.015625)"/>
      </defs>
      <use xlink:href="#DejaVuSans-46"/>
      <use xlink:href="#DejaVuSans-65" x="52.019531"/>
      <use xlink:href="#DejaVuSans-64" x="113.542969"/>
      <use xlink:href="#DejaVuSans-41" x="177.019531"/>
      <use xlink:href="#DejaVuSans-56" x="239.052734"/>
      <use xlink:href="#DejaVuSans-47" x="307.460938"/>
     </g>
    </g>
    <g id="line2d_24">
     <path d="M 300.945625 224.982469 
L 311.945625 224.982469 
L 322.945625 224.982469 
" style="fill: none; stroke-dasharray: 1.5,1.5; stroke-dashoffset: 0; stroke: #55a868; stroke-width: 1.5"/>
    </g>
    <g id="text_17">
     <!-- FedClassAvg -->
     <g style="fill: #262626" transform="translate(331.745625 228.832469) scale(0.11 -0.11)">
      <defs>
       <path id="DejaVuSans-43" d="M 4122 4306 
L 4122 3641 
Q 3803 3938 3442 4084 
Q 3081 4231 2675 4231 
Q 1875 4231 1450 3742 
Q 1025 3253 1025 2328 
Q 1025 1406 1450 917 
Q 1875 428 2675 428 
Q 3081 428 3442 575 
Q 3803 722 4122 1019 
L 4122 359 
Q 3791 134 3420 21 
Q 3050 -91 2638 -91 
Q 1578 -91 968 557 
Q 359 1206 359 2328 
Q 359 3453 968 4101 
Q 1578 4750 2638 4750 
Q 3056 4750 3426 4639 
Q 3797 4528 4122 4306 
z
" transform="scale(0.015625)"/>
       <path id="DejaVuSans-6c" d="M 603 4863 
L 1178 4863 
L 1178 0 
L 603 0 
L 603 4863 
z
" transform="scale(0.015625)"/>
       <path id="DejaVuSans-73" d="M 2834 3397 
L 2834 2853 
Q 2591 2978 2328 3040 
Q 2066 3103 1784 3103 
Q 1356 3103 1142 2972 
Q 928 2841 928 2578 
Q 928 2378 1081 2264 
Q 1234 2150 1697 2047 
L 1894 2003 
Q 2506 1872 2764 1633 
Q 3022 1394 3022 966 
Q 3022 478 2636 193 
Q 2250 -91 1575 -91 
Q 1294 -91 989 -36 
Q 684 19 347 128 
L 347 722 
Q 666 556 975 473 
Q 1284 391 1588 391 
Q 1994 391 2212 530 
Q 2431 669 2431 922 
Q 2431 1156 2273 1281 
Q 2116 1406 1581 1522 
L 1381 1569 
Q 847 1681 609 1914 
Q 372 2147 372 2553 
Q 372 3047 722 3315 
Q 1072 3584 1716 3584 
Q 2034 3584 2315 3537 
Q 2597 3491 2834 3397 
z
" transform="scale(0.015625)"/>
       <path id="DejaVuSans-76" d="M 191 3500 
L 800 3500 
L 1894 563 
L 2988 3500 
L 3597 3500 
L 2284 0 
L 1503 0 
L 191 3500 
z
" transform="scale(0.015625)"/>
      </defs>
      <use xlink:href="#DejaVuSans-46"/>
      <use xlink:href="#DejaVuSans-65" x="52.019531"/>
      <use xlink:href="#DejaVuSans-64" x="113.542969"/>
      <use xlink:href="#DejaVuSans-43" x="177.019531"/>
      <use xlink:href="#DejaVuSans-6c" x="246.84375"/>
      <use xlink:href="#DejaVuSans-61" x="274.626953"/>
      <use xlink:href="#DejaVuSans-73" x="335.90625"/>
      <use xlink:href="#DejaVuSans-73" x="388.005859"/>
      <use xlink:href="#DejaVuSans-41" x="440.105469"/>
      <use xlink:href="#DejaVuSans-76" x="502.638672"/>
      <use xlink:href="#DejaVuSans-67" x="561.818359"/>
     </g>
    </g>
    <g id="line2d_25">
     <path d="M 300.945625 241.128406 
L 311.945625 241.128406 
L 322.945625 241.128406 
" style="fill: none; stroke-dasharray: 4.5,1.875,2.25,1.875; stroke-dashoffset: 0; stroke: #c44e52; stroke-width: 1.5"/>
    </g>
    <g id="text_18">
     <!-- FedPer -->
     <g style="fill: #262626" transform="translate(331.745625 244.978406) scale(0.11 -0.11)">
      <use xlink:href="#DejaVuSans-46"/>
      <use xlink:href="#DejaVuSans-65" x="52.019531"/>
      <use xlink:href="#DejaVuSans-64" x="113.542969"/>
      <use xlink:href="#DejaVuSans-50" x="177.019531"/>
      <use xlink:href="#DejaVuSans-65" x="233.697266"/>
      <use xlink:href="#DejaVuSans-72" x="295.220703"/>
     </g>
    </g>
    <g id="line2d_26">
     <path d="M 300.945625 257.274344 
L 311.945625 257.274344 
L 322.945625 257.274344 
" style="fill: none; stroke-dasharray: 7.5,1.5,1.5,1.5; stroke-dashoffset: 0; stroke: #8172b3; stroke-width: 1.5"/>
    </g>
    <g id="text_19">
     <!-- FedProto -->
     <g style="fill: #262626" transform="translate(331.745625 261.124344) scale(0.11 -0.11)">
      <use xlink:href="#DejaVuSans-46"/>
      <use xlink:href="#DejaVuSans-65" x="52.019531"/>
      <use xlink:href="#DejaVuSans-64" x="113.542969"/>
      <use xlink:href="#DejaVuSans-50" x="177.019531"/>
      <use xlink:href="#DejaVuSans-72" x="235.572266"/>
      <use xlink:href="#DejaVuSans-6f" x="274.435547"/>
      <use xlink:href="#DejaVuSans-74" x="335.617188"/>
      <use xlink:href="#DejaVuSans-6f" x="374.826172"/>
     </g>
    </g>
   </g>
  </g>
 </g>
 <defs>
  <clipPath id="pf8ff532b61">
   <rect x="53.31" y="7.2" width="357.12" height="266.112"/>
  </clipPath>
 </defs>
</svg>
