<?xml version="1.0" encoding="utf-8" standalone="no"?>
<!DOCTYPE svg PUBLIC "-//W3C//DTD SVG 1.1//EN"
  "http://www.w3.org/Graphics/SVG/1.1/DTD/svg11.dtd">
<svg xmlns:xlink="http://www.w3.org/1999/xlink" width="414.127187pt" height="316.271687pt" viewBox="0 0 414.127187 316.271687" xmlns="http://www.w3.org/2000/svg" version="1.1">
 <metadata>
  <rdf:RDF xmlns:dc="http://purl.org/dc/elements/1.1/" xmlns:cc="http://creativecommons.org/ns#" xmlns:rdf="http://www.w3.org/1999/02/22-rdf-syntax-ns#">
   <cc:Work>
    <dc:type rdf:resource="http://purl.org/dc/dcmitype/StillImage"/>
    <dc:date>2023-02-08T19:29:55.145446</dc:date>
    <dc:format>image/svg+xml</dc:format>
    <dc:creator>
     <cc:Agent>
      <dc:title>Matplotlib v3.6.3, https://matplotlib.org/</dc:title>
     </cc:Agent>
    </dc:creator>
   </cc:Work>
  </rdf:RDF>
 </metadata>
 <defs>
  <style type="text/css">*{stroke-linejoin: round; stroke-linecap: butt}</style>
 </defs>
 <g id="figure_1">
  <g id="patch_1">
   <path d="M 0 316.271687 
L 414.127187 316.271687 
L 414.127187 0 
L 0 0 
z
" style="fill: #ffffff"/>
  </g>
  <g id="axes_1">
   <g id="patch_2">
    <path d="M 49.807187 273.312 
L 406.927188 273.312 
L 406.927188 7.2 
L 49.807187 7.2 
z
" style="fill: #ffffff"/>
   </g>
   <g id="matplotlib.axis_1">
    <g id="xtick_1">
     <g id="line2d_1">
      <path d="M 62.760576 273.312 
L 62.760576 7.2 
" clip-path="url(#pbc30b1719d)" style="fill: none; stroke: #cccccc; stroke-linecap: round"/>
     </g>
     <g id="text_1">
      <!-- 0 -->
      <g style="fill: #262626" transform="translate(59.261201 291.170281) scale(0.11 -0.11)">
       <defs>
        <path id="DejaVuSans-30" d="M 2034 4250 
Q 1547 4250 1301 3770 
Q 1056 3291 1056 2328 
Q 1056 1369 1301 889 
Q 1547 409 2034 409 
Q 2525 409 2770 889 
Q 3016 1369 3016 2328 
Q 3016 3291 2770 3770 
Q 2525 4250 2034 4250 
z
M 2034 4750 
Q 2819 4750 3233 4129 
Q 3647 3509 3647 2328 
Q 3647 1150 3233 529 
Q 2819 -91 2034 -91 
Q 1250 -91 836 529 
Q 422 1150 422 2328 
Q 422 3509 836 4129 
Q 1250 4750 2034 4750 
z
" transform="scale(0.015625)"/>
       </defs>
       <use xlink:href="#DejaVuSans-30"/>
      </g>
     </g>
    </g>
    <g id="xtick_2">
     <g id="line2d_2">
      <path d="M 128.347353 273.312 
L 128.347353 7.2 
" clip-path="url(#pbc30b1719d)" style="fill: none; stroke: #cccccc; stroke-linecap: round"/>
     </g>
     <g id="text_2">
      <!-- 20 -->
      <g style="fill: #262626" transform="translate(121.348603 291.170281) scale(0.11 -0.11)">
       <defs>
        <path id="DejaVuSans-32" d="M 1228 531 
L 3431 531 
L 3431 0 
L 469 0 
L 469 531 
Q 828 903 1448 1529 
Q 2069 2156 2228 2338 
Q 2531 2678 2651 2914 
Q 2772 3150 2772 3378 
Q 2772 3750 2511 3984 
Q 2250 4219 1831 4219 
Q 1534 4219 1204 4116 
Q 875 4013 500 3803 
L 500 4441 
Q 881 4594 1212 4672 
Q 1544 4750 1819 4750 
Q 2544 4750 2975 4387 
Q 3406 4025 3406 3419 
Q 3406 3131 3298 2873 
Q 3191 2616 2906 2266 
Q 2828 2175 2409 1742 
Q 1991 1309 1228 531 
z
" transform="scale(0.015625)"/>
       </defs>
       <use xlink:href="#DejaVuSans-32"/>
       <use xlink:href="#DejaVuSans-30" x="63.623047"/>
      </g>
     </g>
    </g>
    <g id="xtick_3">
     <g id="line2d_3">
      <path d="M 193.93413 273.312 
L 193.93413 7.2 
" clip-path="url(#pbc30b1719d)" style="fill: none; stroke: #cccccc; stroke-linecap: round"/>
     </g>
     <g id="text_3">
      <!-- 40 -->
      <g style="fill: #262626" transform="translate(186.93538 291.170281) scale(0.11 -0.11)">
       <defs>
        <path id="DejaVuSans-34" d="M 2419 4116 
L 825 1625 
L 2419 1625 
L 2419 4116 
z
M 2253 4666 
L 3047 4666 
L 3047 1625 
L 3713 1625 
L 3713 1100 
L 3047 1100 
L 3047 0 
L 2419 0 
L 2419 1100 
L 313 1100 
L 313 1709 
L 2253 4666 
z
" transform="scale(0.015625)"/>
       </defs>
       <use xlink:href="#DejaVuSans-34"/>
       <use xlink:href="#DejaVuSans-30" x="63.623047"/>
      </g>
     </g>
    </g>
    <g id="xtick_4">
     <g id="line2d_4">
      <path d="M 259.520907 273.312 
L 259.520907 7.2 
" clip-path="url(#pbc30b1719d)" style="fill: none; stroke: #cccccc; stroke-linecap: round"/>
     </g>
     <g id="text_4">
      <!-- 60 -->
      <g style="fill: #262626" transform="translate(252.522157 291.170281) scale(0.11 -0.11)">
       <defs>
        <path id="DejaVuSans-36" d="M 2113 2584 
Q 1688 2584 1439 2293 
Q 1191 2003 1191 1497 
Q 1191 994 1439 701 
Q 1688 409 2113 409 
Q 2538 409 2786 701 
Q 3034 994 3034 1497 
Q 3034 2003 2786 2293 
Q 2538 2584 2113 2584 
z
M 3366 4563 
L 3366 3988 
Q 3128 4100 2886 4159 
Q 2644 4219 2406 4219 
Q 1781 4219 1451 3797 
Q 1122 3375 1075 2522 
Q 1259 2794 1537 2939 
Q 1816 3084 2150 3084 
Q 2853 3084 3261 2657 
Q 3669 2231 3669 1497 
Q 3669 778 3244 343 
Q 2819 -91 2113 -91 
Q 1303 -91 875 529 
Q 447 1150 447 2328 
Q 447 3434 972 4092 
Q 1497 4750 2381 4750 
Q 2619 4750 2861 4703 
Q 3103 4656 3366 4563 
z
" transform="scale(0.015625)"/>
       </defs>
       <use xlink:href="#DejaVuSans-36"/>
       <use xlink:href="#DejaVuSans-30" x="63.623047"/>
      </g>
     </g>
    </g>
    <g id="xtick_5">
     <g id="line2d_5">
      <path d="M 325.107683 273.312 
L 325.107683 7.2 
" clip-path="url(#pbc30b1719d)" style="fill: none; stroke: #cccccc; stroke-linecap: round"/>
     </g>
     <g id="text_5">
      <!-- 80 -->
      <g style="fill: #262626" transform="translate(318.108933 291.170281) scale(0.11 -0.11)">
       <defs>
        <path id="DejaVuSans-38" d="M 2034 2216 
Q 1584 2216 1326 1975 
Q 1069 1734 1069 1313 
Q 1069 891 1326 650 
Q 1584 409 2034 409 
Q 2484 409 2743 651 
Q 3003 894 3003 1313 
Q 3003 1734 2745 1975 
Q 2488 2216 2034 2216 
z
M 1403 2484 
Q 997 2584 770 2862 
Q 544 3141 544 3541 
Q 544 4100 942 4425 
Q 1341 4750 2034 4750 
Q 2731 4750 3128 4425 
Q 3525 4100 3525 3541 
Q 3525 3141 3298 2862 
Q 3072 2584 2669 2484 
Q 3125 2378 3379 2068 
Q 3634 1759 3634 1313 
Q 3634 634 3220 271 
Q 2806 -91 2034 -91 
Q 1263 -91 848 271 
Q 434 634 434 1313 
Q 434 1759 690 2068 
Q 947 2378 1403 2484 
z
M 1172 3481 
Q 1172 3119 1398 2916 
Q 1625 2713 2034 2713 
Q 2441 2713 2670 2916 
Q 2900 3119 2900 3481 
Q 2900 3844 2670 4047 
Q 2441 4250 2034 4250 
Q 1625 4250 1398 4047 
Q 1172 3844 1172 3481 
z
" transform="scale(0.015625)"/>
       </defs>
       <use xlink:href="#DejaVuSans-38"/>
       <use xlink:href="#DejaVuSans-30" x="63.623047"/>
      </g>
     </g>
    </g>
    <g id="xtick_6">
     <g id="line2d_6">
      <path d="M 390.69446 273.312 
L 390.69446 7.2 
" clip-path="url(#pbc30b1719d)" style="fill: none; stroke: #cccccc; stroke-linecap: round"/>
     </g>
     <g id="text_6">
      <!-- 100 -->
      <g style="fill: #262626" transform="translate(380.196335 291.170281) scale(0.11 -0.11)">
       <defs>
        <path id="DejaVuSans-31" d="M 794 531 
L 1825 531 
L 1825 4091 
L 703 3866 
L 703 4441 
L 1819 4666 
L 2450 4666 
L 2450 531 
L 3481 531 
L 3481 0 
L 794 0 
L 794 531 
z
" transform="scale(0.015625)"/>
       </defs>
       <use xlink:href="#DejaVuSans-31"/>
       <use xlink:href="#DejaVuSans-30" x="63.623047"/>
       <use xlink:href="#DejaVuSans-30" x="127.246094"/>
      </g>
     </g>
    </g>
    <g id="text_7">
     <!-- Round -->
     <g style="fill: #262626" transform="translate(209.382812 306.576062) scale(0.12 -0.12)">
      <defs>
       <path id="DejaVuSans-52" d="M 2841 2188 
Q 3044 2119 3236 1894 
Q 3428 1669 3622 1275 
L 4263 0 
L 3584 0 
L 2988 1197 
Q 2756 1666 2539 1819 
Q 2322 1972 1947 1972 
L 1259 1972 
L 1259 0 
L 628 0 
L 628 4666 
L 2053 4666 
Q 2853 4666 3247 4331 
Q 3641 3997 3641 3322 
Q 3641 2881 3436 2590 
Q 3231 2300 2841 2188 
z
M 1259 4147 
L 1259 2491 
L 2053 2491 
Q 2509 2491 2742 2702 
Q 2975 2913 2975 3322 
Q 2975 3731 2742 3939 
Q 2509 4147 2053 4147 
L 1259 4147 
z
" transform="scale(0.015625)"/>
       <path id="DejaVuSans-6f" d="M 1959 3097 
Q 1497 3097 1228 2736 
Q 959 2375 959 1747 
Q 959 1119 1226 758 
Q 1494 397 1959 397 
Q 2419 397 2687 759 
Q 2956 1122 2956 1747 
Q 2956 2369 2687 2733 
Q 2419 3097 1959 3097 
z
M 1959 3584 
Q 2709 3584 3137 3096 
Q 3566 2609 3566 1747 
Q 3566 888 3137 398 
Q 2709 -91 1959 -91 
Q 1206 -91 779 398 
Q 353 888 353 1747 
Q 353 2609 779 3096 
Q 1206 3584 1959 3584 
z
" transform="scale(0.015625)"/>
       <path id="DejaVuSans-75" d="M 544 1381 
L 544 3500 
L 1119 3500 
L 1119 1403 
Q 1119 906 1312 657 
Q 1506 409 1894 409 
Q 2359 409 2629 706 
Q 2900 1003 2900 1516 
L 2900 3500 
L 3475 3500 
L 3475 0 
L 2900 0 
L 2900 538 
Q 2691 219 2414 64 
Q 2138 -91 1772 -91 
Q 1169 -91 856 284 
Q 544 659 544 1381 
z
M 1991 3584 
L 1991 3584 
z
" transform="scale(0.015625)"/>
       <path id="DejaVuSans-6e" d="M 3513 2113 
L 3513 0 
L 2938 0 
L 2938 2094 
Q 2938 2591 2744 2837 
Q 2550 3084 2163 3084 
Q 1697 3084 1428 2787 
Q 1159 2491 1159 1978 
L 1159 0 
L 581 0 
L 581 3500 
L 1159 3500 
L 1159 2956 
Q 1366 3272 1645 3428 
Q 1925 3584 2291 3584 
Q 2894 3584 3203 3211 
Q 3513 2838 3513 2113 
z
" transform="scale(0.015625)"/>
       <path id="DejaVuSans-64" d="M 2906 2969 
L 2906 4863 
L 3481 4863 
L 3481 0 
L 2906 0 
L 2906 525 
Q 2725 213 2448 61 
Q 2172 -91 1784 -91 
Q 1150 -91 751 415 
Q 353 922 353 1747 
Q 353 2572 751 3078 
Q 1150 3584 1784 3584 
Q 2172 3584 2448 3432 
Q 2725 3281 2906 2969 
z
M 947 1747 
Q 947 1113 1208 752 
Q 1469 391 1925 391 
Q 2381 391 2643 752 
Q 2906 1113 2906 1747 
Q 2906 2381 2643 2742 
Q 2381 3103 1925 3103 
Q 1469 3103 1208 2742 
Q 947 2381 947 1747 
z
" transform="scale(0.015625)"/>
      </defs>
      <use xlink:href="#DejaVuSans-52"/>
      <use xlink:href="#DejaVuSans-6f" x="64.982422"/>
      <use xlink:href="#DejaVuSans-75" x="126.164062"/>
      <use xlink:href="#DejaVuSans-6e" x="189.542969"/>
      <use xlink:href="#DejaVuSans-64" x="252.921875"/>
     </g>
    </g>
   </g>
   <g id="matplotlib.axis_2">
    <g id="ytick_1">
     <g id="line2d_7">
      <path d="M 49.807187 263.331916 
L 406.927188 263.331916 
" clip-path="url(#pbc30b1719d)" style="fill: none; stroke: #cccccc; stroke-linecap: round"/>
     </g>
     <g id="text_8">
      <!-- 0.0 -->
      <g style="fill: #262626" transform="translate(22.81375 267.511057) scale(0.11 -0.11)">
       <defs>
        <path id="DejaVuSans-2e" d="M 684 794 
L 1344 794 
L 1344 0 
L 684 0 
L 684 794 
z
" transform="scale(0.015625)"/>
       </defs>
       <use xlink:href="#DejaVuSans-30"/>
       <use xlink:href="#DejaVuSans-2e" x="63.623047"/>
       <use xlink:href="#DejaVuSans-30" x="95.410156"/>
      </g>
     </g>
    </g>
    <g id="ytick_2">
     <g id="line2d_8">
      <path d="M 49.807187 218.777793 
L 406.927188 218.777793 
" clip-path="url(#pbc30b1719d)" style="fill: none; stroke: #cccccc; stroke-linecap: round"/>
     </g>
     <g id="text_9">
      <!-- 0.5 -->
      <g style="fill: #262626" transform="translate(22.81375 222.956933) scale(0.11 -0.11)">
       <defs>
        <path id="DejaVuSans-35" d="M 691 4666 
L 3169 4666 
L 3169 4134 
L 1269 4134 
L 1269 2991 
Q 1406 3038 1543 3061 
Q 1681 3084 1819 3084 
Q 2600 3084 3056 2656 
Q 3513 2228 3513 1497 
Q 3513 744 3044 326 
Q 2575 -91 1722 -91 
Q 1428 -91 1123 -41 
Q 819 9 494 109 
L 494 744 
Q 775 591 1075 516 
Q 1375 441 1709 441 
Q 2250 441 2565 725 
Q 2881 1009 2881 1497 
Q 2881 1984 2565 2268 
Q 2250 2553 1709 2553 
Q 1456 2553 1204 2497 
Q 953 2441 691 2322 
L 691 4666 
z
" transform="scale(0.015625)"/>
       </defs>
       <use xlink:href="#DejaVuSans-30"/>
       <use xlink:href="#DejaVuSans-2e" x="63.623047"/>
       <use xlink:href="#DejaVuSans-35" x="95.410156"/>
      </g>
     </g>
    </g>
    <g id="ytick_3">
     <g id="line2d_9">
      <path d="M 49.807187 174.223669 
L 406.927188 174.223669 
" clip-path="url(#pbc30b1719d)" style="fill: none; stroke: #cccccc; stroke-linecap: round"/>
     </g>
     <g id="text_10">
      <!-- 1.0 -->
      <g style="fill: #262626" transform="translate(22.81375 178.40281) scale(0.11 -0.11)">
       <use xlink:href="#DejaVuSans-31"/>
       <use xlink:href="#DejaVuSans-2e" x="63.623047"/>
       <use xlink:href="#DejaVuSans-30" x="95.410156"/>
      </g>
     </g>
    </g>
    <g id="ytick_4">
     <g id="line2d_10">
      <path d="M 49.807187 129.669546 
L 406.927188 129.669546 
" clip-path="url(#pbc30b1719d)" style="fill: none; stroke: #cccccc; stroke-linecap: round"/>
     </g>
     <g id="text_11">
      <!-- 1.5 -->
      <g style="fill: #262626" transform="translate(22.81375 133.848687) scale(0.11 -0.11)">
       <use xlink:href="#DejaVuSans-31"/>
       <use xlink:href="#DejaVuSans-2e" x="63.623047"/>
       <use xlink:href="#DejaVuSans-35" x="95.410156"/>
      </g>
     </g>
    </g>
    <g id="ytick_5">
     <g id="line2d_11">
      <path d="M 49.807187 85.115423 
L 406.927188 85.115423 
" clip-path="url(#pbc30b1719d)" style="fill: none; stroke: #cccccc; stroke-linecap: round"/>
     </g>
     <g id="text_12">
      <!-- 2.0 -->
      <g style="fill: #262626" transform="translate(22.81375 89.294563) scale(0.11 -0.11)">
       <use xlink:href="#DejaVuSans-32"/>
       <use xlink:href="#DejaVuSans-2e" x="63.623047"/>
       <use xlink:href="#DejaVuSans-30" x="95.410156"/>
      </g>
     </g>
    </g>
    <g id="ytick_6">
     <g id="line2d_12">
      <path d="M 49.807187 40.561299 
L 406.927188 40.561299 
" clip-path="url(#pbc30b1719d)" style="fill: none; stroke: #cccccc; stroke-linecap: round"/>
     </g>
     <g id="text_13">
      <!-- 2.5 -->
      <g style="fill: #262626" transform="translate(22.81375 44.74044) scale(0.11 -0.11)">
       <use xlink:href="#DejaVuSans-32"/>
       <use xlink:href="#DejaVuSans-2e" x="63.623047"/>
       <use xlink:href="#DejaVuSans-35" x="95.410156"/>
      </g>
     </g>
    </g>
    <g id="text_14">
     <!-- Loss -->
     <g style="fill: #262626" transform="translate(16.318125 153.416625) rotate(-90) scale(0.12 -0.12)">
      <defs>
       <path id="DejaVuSans-4c" d="M 628 4666 
L 1259 4666 
L 1259 531 
L 3531 531 
L 3531 0 
L 628 0 
L 628 4666 
z
" transform="scale(0.015625)"/>
       <path id="DejaVuSans-73" d="M 2834 3397 
L 2834 2853 
Q 2591 2978 2328 3040 
Q 2066 3103 1784 3103 
Q 1356 3103 1142 2972 
Q 928 2841 928 2578 
Q 928 2378 1081 2264 
Q 1234 2150 1697 2047 
L 1894 2003 
Q 2506 1872 2764 1633 
Q 3022 1394 3022 966 
Q 3022 478 2636 193 
Q 2250 -91 1575 -91 
Q 1294 -91 989 -36 
Q 684 19 347 128 
L 347 722 
Q 666 556 975 473 
Q 1284 391 1588 391 
Q 1994 391 2212 530 
Q 2431 669 2431 922 
Q 2431 1156 2273 1281 
Q 2116 1406 1581 1522 
L 1381 1569 
Q 847 1681 609 1914 
Q 372 2147 372 2553 
Q 372 3047 722 3315 
Q 1072 3584 1716 3584 
Q 2034 3584 2315 3537 
Q 2597 3491 2834 3397 
z
" transform="scale(0.015625)"/>
      </defs>
      <use xlink:href="#DejaVuSans-4c"/>
      <use xlink:href="#DejaVuSans-6f" x="53.962891"/>
      <use xlink:href="#DejaVuSans-73" x="115.144531"/>
      <use xlink:href="#DejaVuSans-73" x="167.244141"/>
     </g>
    </g>
   </g>
   <g id="PolyCollection_1">
    <defs>
     <path id="md4be4b505a" d="M 66.039915 -238.570635 
L 66.039915 -192.918837 
L 69.319254 -133.865874 
L 72.598592 -111.091152 
L 75.877931 -90.797608 
L 79.15727 -78.275652 
L 82.436609 -73.400127 
L 85.715948 -72.303173 
L 88.995287 -70.034327 
L 92.274626 -65.458929 
L 95.553964 -65.042673 
L 98.833303 -64.219804 
L 102.112642 -63.66242 
L 105.391981 -63.661848 
L 108.67132 -62.393407 
L 111.950659 -61.200499 
L 115.229997 -61.977338 
L 118.509336 -62.824506 
L 121.788675 -61.060863 
L 125.068014 -60.645453 
L 128.347353 -60.950643 
L 131.626692 -60.5476 
L 134.90603 -59.685505 
L 138.185369 -59.975071 
L 141.464708 -59.693396 
L 144.744047 -59.535095 
L 148.023386 -60.26197 
L 151.302725 -58.907207 
L 154.582064 -59.011616 
L 157.861402 -58.848311 
L 161.140741 -58.728402 
L 164.42008 -58.92275 
L 167.699419 -58.79315 
L 170.978758 -58.250162 
L 174.258097 -58.357591 
L 177.537435 -58.746027 
L 180.816774 -58.024918 
L 184.096113 -57.67606 
L 187.375452 -57.521772 
L 190.654791 -57.727776 
L 193.93413 -57.832619 
L 197.213468 -57.366849 
L 200.492807 -57.313845 
L 203.772146 -57.327315 
L 207.051485 -57.038597 
L 210.330824 -57.022977 
L 213.610163 -57.008829 
L 216.889502 -57.096121 
L 220.16884 -57.492962 
L 223.448179 -56.792938 
L 226.727518 -56.936321 
L 230.006857 -56.694617 
L 233.286196 -56.686989 
L 236.565535 -56.829238 
L 239.844873 -56.299144 
L 243.124212 -56.679015 
L 246.403551 -56.403862 
L 249.68289 -56.422103 
L 252.962229 -56.278518 
L 256.241568 -55.980326 
L 259.520907 -56.146843 
L 262.800245 -56.317854 
L 266.079584 -56.425754 
L 269.358923 -56.297597 
L 272.638262 -56.189124 
L 275.917601 -56.305134 
L 279.19694 -56.137816 
L 282.476278 -55.962914 
L 285.755617 -55.894816 
L 289.034956 -55.851486 
L 292.314295 -56.042083 
L 295.593634 -55.932229 
L 298.872973 -55.877617 
L 302.152311 -55.568016 
L 305.43165 -55.860832 
L 308.710989 -55.842978 
L 311.990328 -55.722439 
L 315.269667 -55.822825 
L 318.549006 -55.956989 
L 321.828345 -55.596769 
L 325.107683 -55.600853 
L 328.387022 -55.604294 
L 331.666361 -55.421453 
L 334.9457 -55.815693 
L 338.225039 -55.794337 
L 341.504378 -55.543763 
L 344.783716 -55.484517 
L 348.063055 -55.288648 
L 351.342394 -55.336831 
L 354.621733 -55.259195 
L 357.901072 -55.465147 
L 361.180411 -55.493785 
L 364.459749 -55.194964 
L 367.739088 -55.254416 
L 371.018427 -55.055687 
L 374.297766 -55.118704 
L 377.577105 -55.140654 
L 380.856444 -55.304048 
L 384.135783 -55.244035 
L 387.415121 -55.176277 
L 390.69446 -55.296505 
L 390.69446 -57.644216 
L 390.69446 -57.644216 
L 387.415121 -57.215087 
L 384.135783 -57.351159 
L 380.856444 -57.919327 
L 377.577105 -57.385494 
L 374.297766 -57.423503 
L 371.018427 -56.84439 
L 367.739088 -57.238787 
L 364.459749 -57.194813 
L 361.180411 -57.662508 
L 357.901072 -59.778223 
L 354.621733 -56.823606 
L 351.342394 -57.444998 
L 348.063055 -57.230184 
L 344.783716 -57.545882 
L 341.504378 -57.377091 
L 338.225039 -57.772537 
L 334.9457 -59.964043 
L 331.666361 -60.400827 
L 328.387022 -59.217946 
L 325.107683 -59.880373 
L 321.828345 -60.104916 
L 318.549006 -61.373157 
L 315.269667 -60.024015 
L 311.990328 -58.710459 
L 308.710989 -60.146937 
L 305.43165 -60.332105 
L 302.152311 -60.698619 
L 298.872973 -58.804624 
L 295.593634 -59.390904 
L 292.314295 -61.436888 
L 289.034956 -59.383765 
L 285.755617 -60.736656 
L 282.476278 -58.691048 
L 279.19694 -59.391034 
L 275.917601 -59.761192 
L 272.638262 -59.422283 
L 269.358923 -60.28928 
L 266.079584 -59.05234 
L 262.800245 -60.725224 
L 259.520907 -60.888679 
L 256.241568 -58.821962 
L 252.962229 -59.190003 
L 249.68289 -61.249925 
L 246.403551 -62.62659 
L 243.124212 -62.15363 
L 239.844873 -58.509199 
L 236.565535 -64.449534 
L 233.286196 -60.689085 
L 230.006857 -62.0922 
L 226.727518 -60.250902 
L 223.448179 -60.959097 
L 220.16884 -61.325655 
L 216.889502 -62.190469 
L 213.610163 -61.766348 
L 210.330824 -60.541685 
L 207.051485 -60.633018 
L 203.772146 -61.233292 
L 200.492807 -60.854056 
L 197.213468 -60.757335 
L 193.93413 -61.664051 
L 190.654791 -62.152894 
L 187.375452 -60.488318 
L 184.096113 -60.792633 
L 180.816774 -61.756391 
L 177.537435 -64.726866 
L 174.258097 -64.383408 
L 170.978758 -65.546492 
L 167.699419 -68.22927 
L 164.42008 -66.807733 
L 161.140741 -63.473599 
L 157.861402 -64.693112 
L 154.582064 -64.682854 
L 151.302725 -64.278348 
L 148.023386 -68.18629 
L 144.744047 -63.906755 
L 141.464708 -64.075103 
L 138.185369 -63.864092 
L 134.90603 -64.203739 
L 131.626692 -66.301909 
L 128.347353 -67.167018 
L 125.068014 -69.371521 
L 121.788675 -66.887596 
L 118.509336 -68.49666 
L 115.229997 -70.494544 
L 111.950659 -67.157058 
L 108.67132 -74.415284 
L 105.391981 -73.907624 
L 102.112642 -70.791752 
L 98.833303 -72.239452 
L 95.553964 -72.667708 
L 92.274626 -74.664034 
L 88.995287 -88.519875 
L 85.715948 -87.873678 
L 82.436609 -90.322578 
L 79.15727 -98.015017 
L 75.877931 -115.985543 
L 72.598592 -146.035634 
L 69.319254 -179.371436 
L 66.039915 -238.570635 
z
" style="stroke: #4c72b0; stroke-opacity: 0.2"/>
    </defs>
    <g clip-path="url(#pbc30b1719d)">
     <use xlink:href="#md4be4b505a" x="0" y="316.271687" style="fill: #4c72b0; fill-opacity: 0.2; stroke: #4c72b0; stroke-opacity: 0.2"/>
    </g>
   </g>
   <g id="PolyCollection_2">
    <defs>
     <path id="m00cc211ea3" d="M 66.039915 -268.035552 
L 66.039915 -250.183644 
L 69.319254 -222.762393 
L 72.598592 -197.575411 
L 75.877931 -155.358898 
L 79.15727 -149.013063 
L 82.436609 -125.656929 
L 85.715948 -118.416289 
L 88.995287 -123.629517 
L 92.274626 -101.996333 
L 95.553964 -98.703379 
L 98.833303 -99.489985 
L 102.112642 -95.925031 
L 105.391981 -93.106465 
L 108.67132 -94.858878 
L 111.950659 -84.476929 
L 115.229997 -85.906767 
L 118.509336 -90.419806 
L 121.788675 -82.478462 
L 125.068014 -88.34583 
L 128.347353 -86.409851 
L 131.626692 -83.331844 
L 134.90603 -81.198631 
L 138.185369 -80.690818 
L 141.464708 -79.963885 
L 144.744047 -78.989948 
L 148.023386 -90.015885 
L 151.302725 -75.632128 
L 154.582064 -84.605178 
L 157.861402 -81.156058 
L 161.140741 -78.378803 
L 164.42008 -79.155717 
L 167.699419 -75.984399 
L 170.978758 -77.240371 
L 174.258097 -74.607919 
L 177.537435 -74.919455 
L 180.816774 -73.01741 
L 184.096113 -75.409333 
L 187.375452 -72.298423 
L 190.654791 -72.61804 
L 193.93413 -72.598739 
L 197.213468 -71.614417 
L 200.492807 -71.207886 
L 203.772146 -71.995048 
L 207.051485 -70.950947 
L 210.330824 -70.538672 
L 213.610163 -72.202883 
L 216.889502 -71.690883 
L 220.16884 -72.545258 
L 223.448179 -73.031831 
L 226.727518 -71.337987 
L 230.006857 -68.792328 
L 233.286196 -67.712075 
L 236.565535 -72.228351 
L 239.844873 -69.696513 
L 243.124212 -70.777316 
L 246.403551 -68.032214 
L 249.68289 -69.48419 
L 252.962229 -70.528828 
L 256.241568 -67.468665 
L 259.520907 -67.116642 
L 262.800245 -67.734363 
L 266.079584 -66.453698 
L 269.358923 -66.450184 
L 272.638262 -67.512288 
L 275.917601 -67.340608 
L 279.19694 -66.228315 
L 282.476278 -65.450805 
L 285.755617 -67.256626 
L 289.034956 -67.09475 
L 292.314295 -70.419805 
L 295.593634 -66.174714 
L 298.872973 -66.707028 
L 302.152311 -66.885735 
L 305.43165 -65.383947 
L 308.710989 -65.255666 
L 311.990328 -65.823235 
L 315.269667 -66.082998 
L 318.549006 -64.573196 
L 321.828345 -64.581597 
L 325.107683 -64.299727 
L 328.387022 -64.498405 
L 331.666361 -64.81826 
L 334.9457 -65.880835 
L 338.225039 -65.420676 
L 341.504378 -63.884182 
L 344.783716 -63.973436 
L 348.063055 -64.071847 
L 351.342394 -63.956909 
L 354.621733 -65.057183 
L 357.901072 -62.928493 
L 361.180411 -63.636335 
L 364.459749 -63.603887 
L 367.739088 -64.205863 
L 371.018427 -63.275742 
L 374.297766 -63.68069 
L 377.577105 -62.882091 
L 380.856444 -62.402859 
L 384.135783 -64.752058 
L 387.415121 -63.519806 
L 390.69446 -62.144155 
L 390.69446 -65.653336 
L 390.69446 -65.653336 
L 387.415121 -71.198244 
L 384.135783 -72.003749 
L 380.856444 -66.149779 
L 377.577105 -66.681703 
L 374.297766 -68.355681 
L 371.018427 -68.078535 
L 367.739088 -73.248749 
L 364.459749 -67.066654 
L 361.180411 -70.452548 
L 357.901072 -68.636454 
L 354.621733 -73.591605 
L 351.342394 -71.018689 
L 348.063055 -71.442783 
L 344.783716 -69.872126 
L 341.504378 -68.521482 
L 338.225039 -72.926369 
L 334.9457 -74.021937 
L 331.666361 -71.785858 
L 328.387022 -69.758638 
L 325.107683 -69.902506 
L 321.828345 -71.331397 
L 318.549006 -69.394908 
L 315.269667 -75.043419 
L 311.990328 -70.922852 
L 308.710989 -70.857262 
L 305.43165 -73.417401 
L 302.152311 -77.062314 
L 298.872973 -76.606979 
L 295.593634 -75.005838 
L 292.314295 -82.767919 
L 289.034956 -74.218684 
L 285.755617 -72.88128 
L 282.476278 -70.90316 
L 279.19694 -70.713851 
L 275.917601 -75.673061 
L 272.638262 -74.668639 
L 269.358923 -72.370873 
L 266.079584 -72.640202 
L 262.800245 -78.847398 
L 259.520907 -75.091193 
L 256.241568 -75.162887 
L 252.962229 -81.222904 
L 249.68289 -78.850375 
L 246.403551 -73.351102 
L 243.124212 -80.404387 
L 239.844873 -76.571699 
L 236.565535 -83.242014 
L 233.286196 -72.955497 
L 230.006857 -73.613653 
L 226.727518 -78.082059 
L 223.448179 -85.003523 
L 220.16884 -83.829889 
L 216.889502 -80.106303 
L 213.610163 -85.392594 
L 210.330824 -79.889354 
L 207.051485 -82.698821 
L 203.772146 -81.924911 
L 200.492807 -76.213961 
L 197.213468 -76.931692 
L 193.93413 -79.793198 
L 190.654791 -81.143072 
L 187.375452 -79.766202 
L 184.096113 -83.031519 
L 180.816774 -78.956684 
L 177.537435 -81.743364 
L 174.258097 -82.378491 
L 170.978758 -93.504966 
L 167.699419 -87.201437 
L 164.42008 -96.011188 
L 161.140741 -94.516898 
L 157.861402 -102.613549 
L 154.582064 -107.708211 
L 151.302725 -83.30044 
L 148.023386 -109.201612 
L 144.744047 -91.674759 
L 141.464708 -92.438901 
L 138.185369 -88.952631 
L 134.90603 -88.648228 
L 131.626692 -98.187915 
L 128.347353 -103.810974 
L 125.068014 -108.918224 
L 121.788675 -92.530979 
L 118.509336 -106.904572 
L 115.229997 -93.902721 
L 111.950659 -93.997296 
L 108.67132 -111.189749 
L 105.391981 -112.675107 
L 102.112642 -109.040679 
L 98.833303 -119.713996 
L 95.553964 -112.621884 
L 92.274626 -118.873351 
L 88.995287 -157.155393 
L 85.715948 -143.128997 
L 82.436609 -149.693732 
L 79.15727 -174.07127 
L 75.877931 -179.229575 
L 72.598592 -224.132478 
L 69.319254 -242.858077 
L 66.039915 -268.035552 
z
" style="stroke: #dd8452; stroke-opacity: 0.2"/>
    </defs>
    <g clip-path="url(#pbc30b1719d)">
     <use xlink:href="#m00cc211ea3" x="0" y="316.271687" style="fill: #dd8452; fill-opacity: 0.2; stroke: #dd8452; stroke-opacity: 0.2"/>
    </g>
   </g>
   <g id="PolyCollection_3">
    <defs>
     <path id="mdf73a99902" d="M 66.039915 -296.975687 
L 66.039915 -207.72329 
L 69.319254 -157.869588 
L 72.598592 -129.499288 
L 75.877931 -111.495422 
L 79.15727 -101.660099 
L 82.436609 -92.658208 
L 85.715948 -89.763483 
L 88.995287 -85.210908 
L 92.274626 -77.79126 
L 95.553964 -75.69342 
L 98.833303 -74.45384 
L 102.112642 -73.085797 
L 105.391981 -69.34085 
L 108.67132 -69.496192 
L 111.950659 -68.129187 
L 115.229997 -66.654398 
L 118.509336 -66.58677 
L 121.788675 -65.157996 
L 125.068014 -64.430027 
L 128.347353 -64.272098 
L 131.626692 -63.845652 
L 134.90603 -63.712002 
L 138.185369 -63.492267 
L 141.464708 -63.018805 
L 144.744047 -62.11071 
L 148.023386 -61.950014 
L 151.302725 -61.876249 
L 154.582064 -61.542332 
L 157.861402 -60.516214 
L 161.140741 -60.996398 
L 164.42008 -60.813376 
L 167.699419 -60.188015 
L 170.978758 -59.987371 
L 174.258097 -60.06925 
L 177.537435 -59.679396 
L 180.816774 -59.733421 
L 184.096113 -59.51878 
L 187.375452 -59.51707 
L 190.654791 -59.283516 
L 193.93413 -58.992834 
L 197.213468 -58.840485 
L 200.492807 -58.753891 
L 203.772146 -58.720272 
L 207.051485 -58.584024 
L 210.330824 -58.727718 
L 213.610163 -58.74031 
L 216.889502 -58.601815 
L 220.16884 -58.408924 
L 223.448179 -58.117214 
L 226.727518 -58.162375 
L 230.006857 -58.131201 
L 233.286196 -57.934438 
L 236.565535 -57.873065 
L 239.844873 -58.078431 
L 243.124212 -57.921687 
L 246.403551 -57.621733 
L 249.68289 -58.027884 
L 252.962229 -57.67405 
L 256.241568 -57.866032 
L 259.520907 -57.701996 
L 262.800245 -57.527315 
L 266.079584 -57.515768 
L 269.358923 -57.565928 
L 272.638262 -57.364648 
L 275.917601 -57.147756 
L 279.19694 -57.296512 
L 282.476278 -57.14068 
L 285.755617 -57.002049 
L 289.034956 -57.172817 
L 292.314295 -57.166942 
L 295.593634 -57.15878 
L 298.872973 -57.036335 
L 302.152311 -56.702615 
L 305.43165 -57.011142 
L 308.710989 -56.974488 
L 311.990328 -57.041214 
L 315.269667 -57.056473 
L 318.549006 -57.018064 
L 321.828345 -57.043144 
L 325.107683 -57.071262 
L 328.387022 -56.999951 
L 331.666361 -56.991985 
L 334.9457 -56.596417 
L 338.225039 -56.582369 
L 341.504378 -56.519453 
L 344.783716 -56.692956 
L 348.063055 -56.526041 
L 351.342394 -56.556085 
L 354.621733 -56.662664 
L 357.901072 -56.590487 
L 361.180411 -56.653528 
L 364.459749 -56.338043 
L 367.739088 -56.523789 
L 371.018427 -56.518536 
L 374.297766 -56.59668 
L 377.577105 -56.432982 
L 380.856444 -56.410849 
L 384.135783 -56.435734 
L 387.415121 -56.285484 
L 390.69446 -56.328227 
L 390.69446 -61.620068 
L 390.69446 -61.620068 
L 387.415121 -61.122239 
L 384.135783 -59.93519 
L 380.856444 -59.950381 
L 377.577105 -60.251557 
L 374.297766 -61.576896 
L 371.018427 -61.929717 
L 367.739088 -62.145139 
L 364.459749 -61.996111 
L 361.180411 -62.495443 
L 357.901072 -62.869004 
L 354.621733 -62.346506 
L 351.342394 -62.028143 
L 348.063055 -61.575007 
L 344.783716 -62.192024 
L 341.504378 -61.621516 
L 338.225039 -61.488433 
L 334.9457 -62.621873 
L 331.666361 -63.312614 
L 328.387022 -62.421778 
L 325.107683 -62.41276 
L 321.828345 -63.164849 
L 318.549006 -63.445052 
L 315.269667 -64.877783 
L 311.990328 -63.775515 
L 308.710989 -63.357757 
L 305.43165 -63.835524 
L 302.152311 -63.878835 
L 298.872973 -62.824386 
L 295.593634 -63.464985 
L 292.314295 -63.619364 
L 289.034956 -63.607388 
L 285.755617 -63.530622 
L 282.476278 -64.826343 
L 279.19694 -64.285213 
L 275.917601 -63.629282 
L 272.638262 -63.745496 
L 269.358923 -63.995288 
L 266.079584 -64.671379 
L 262.800245 -68.428637 
L 259.520907 -68.71587 
L 256.241568 -65.311556 
L 252.962229 -64.898099 
L 249.68289 -65.175354 
L 246.403551 -65.097365 
L 243.124212 -65.525065 
L 239.844873 -67.145466 
L 236.565535 -67.89158 
L 233.286196 -70.263469 
L 230.006857 -70.737177 
L 226.727518 -67.934059 
L 223.448179 -68.131662 
L 220.16884 -67.650739 
L 216.889502 -68.115448 
L 213.610163 -68.458642 
L 210.330824 -68.994693 
L 207.051485 -71.164552 
L 203.772146 -71.568273 
L 200.492807 -71.325838 
L 197.213468 -71.326025 
L 193.93413 -70.96064 
L 190.654791 -72.34622 
L 187.375452 -72.773052 
L 184.096113 -73.167364 
L 180.816774 -73.799985 
L 177.537435 -72.613417 
L 174.258097 -70.512458 
L 170.978758 -70.576569 
L 167.699419 -69.934721 
L 164.42008 -72.99002 
L 161.140741 -74.334981 
L 157.861402 -72.95234 
L 154.582064 -75.824553 
L 151.302725 -75.731338 
L 148.023386 -77.812487 
L 144.744047 -77.520169 
L 141.464708 -77.698718 
L 138.185369 -77.749146 
L 134.90603 -79.390628 
L 131.626692 -81.293862 
L 128.347353 -82.72244 
L 125.068014 -86.776917 
L 121.788675 -86.887189 
L 118.509336 -86.793746 
L 115.229997 -90.756049 
L 111.950659 -92.371115 
L 108.67132 -91.742909 
L 105.391981 -95.949135 
L 102.112642 -99.439226 
L 98.833303 -102.117895 
L 95.553964 -105.161945 
L 92.274626 -109.518964 
L 88.995287 -119.338988 
L 85.715948 -125.52773 
L 82.436609 -129.19677 
L 79.15727 -143.573423 
L 75.877931 -154.559883 
L 72.598592 -181.181038 
L 69.319254 -204.725834 
L 66.039915 -296.975687 
z
" style="stroke: #55a868; stroke-opacity: 0.2"/>
    </defs>
    <g clip-path="url(#pbc30b1719d)">
     <use xlink:href="#mdf73a99902" x="0" y="316.271687" style="fill: #55a868; fill-opacity: 0.2; stroke: #55a868; stroke-opacity: 0.2"/>
    </g>
   </g>
   <g id="PolyCollection_4">
    <defs>
     <path id="mb304a3ddfd" d="M 66.039915 -235.13229 
L 66.039915 -204.935407 
L 69.319254 -230.373483 
L 72.598592 -192.230856 
L 75.877931 -161.987064 
L 79.15727 -152.287696 
L 82.436609 -131.14291 
L 85.715948 -115.972768 
L 88.995287 -106.21646 
L 92.274626 -103.548721 
L 95.553964 -91.977131 
L 98.833303 -86.565848 
L 102.112642 -82.328994 
L 105.391981 -77.628579 
L 108.67132 -75.177574 
L 111.950659 -72.766862 
L 115.229997 -70.644627 
L 118.509336 -69.509063 
L 121.788675 -68.057763 
L 125.068014 -67.053508 
L 128.347353 -66.207206 
L 131.626692 -65.256388 
L 134.90603 -65.142348 
L 138.185369 -64.446957 
L 141.464708 -64.114112 
L 144.744047 -63.76841 
L 148.023386 -63.640282 
L 151.302725 -63.165015 
L 154.582064 -62.579173 
L 157.861402 -62.329607 
L 161.140741 -61.964554 
L 164.42008 -61.310626 
L 167.699419 -61.5802 
L 170.978758 -60.809192 
L 174.258097 -60.725186 
L 177.537435 -60.258496 
L 180.816774 -60.439607 
L 184.096113 -60.084803 
L 187.375452 -60.109159 
L 190.654791 -59.943227 
L 193.93413 -59.612018 
L 197.213468 -59.357938 
L 200.492807 -59.395053 
L 203.772146 -58.997757 
L 207.051485 -59.078024 
L 210.330824 -58.817296 
L 213.610163 -58.732369 
L 216.889502 -58.630055 
L 220.16884 -58.496721 
L 223.448179 -58.41773 
L 226.727518 -58.215392 
L 230.006857 -58.11984 
L 233.286196 -58.219452 
L 236.565535 -58.080053 
L 239.844873 -58.057002 
L 243.124212 -57.902178 
L 246.403551 -57.781328 
L 249.68289 -57.690634 
L 252.962229 -57.576395 
L 256.241568 -57.72753 
L 259.520907 -57.633072 
L 262.800245 -57.581319 
L 266.079584 -57.527437 
L 269.358923 -57.399195 
L 272.638262 -57.445835 
L 275.917601 -57.427722 
L 279.19694 -57.277888 
L 282.476278 -57.03733 
L 285.755617 -57.141552 
L 289.034956 -57.199731 
L 292.314295 -57.110345 
L 295.593634 -57.040484 
L 298.872973 -56.891909 
L 302.152311 -56.919807 
L 305.43165 -56.746976 
L 308.710989 -56.645852 
L 311.990328 -56.788813 
L 315.269667 -56.534895 
L 318.549006 -56.609161 
L 321.828345 -56.569625 
L 325.107683 -56.47091 
L 328.387022 -56.398344 
L 331.666361 -56.437877 
L 334.9457 -56.355003 
L 338.225039 -56.262837 
L 341.504378 -56.355719 
L 344.783716 -56.265989 
L 348.063055 -56.260072 
L 351.342394 -56.261534 
L 354.621733 -56.214582 
L 357.901072 -56.276645 
L 361.180411 -56.283422 
L 364.459749 -56.181242 
L 367.739088 -56.228668 
L 371.018427 -56.104603 
L 374.297766 -56.128817 
L 377.577105 -56.077989 
L 380.856444 -56.032783 
L 384.135783 -56.048441 
L 387.415121 -55.921224 
L 390.69446 -55.985083 
L 390.69446 -59.939875 
L 390.69446 -59.939875 
L 387.415121 -59.926929 
L 384.135783 -59.229264 
L 380.856444 -59.373646 
L 377.577105 -59.130685 
L 374.297766 -59.257145 
L 371.018427 -59.468773 
L 367.739088 -59.701917 
L 364.459749 -59.426558 
L 361.180411 -59.421902 
L 357.901072 -59.610219 
L 354.621733 -59.752247 
L 351.342394 -60.033651 
L 348.063055 -60.171076 
L 344.783716 -59.949196 
L 341.504378 -60.203629 
L 338.225039 -60.119948 
L 334.9457 -60.328031 
L 331.666361 -60.500228 
L 328.387022 -60.971796 
L 325.107683 -60.811834 
L 321.828345 -60.971128 
L 318.549006 -60.688108 
L 315.269667 -60.838465 
L 311.990328 -61.134493 
L 308.710989 -61.080401 
L 305.43165 -60.904899 
L 302.152311 -61.597441 
L 298.872973 -60.70356 
L 295.593634 -61.003366 
L 292.314295 -62.201185 
L 289.034956 -62.761829 
L 285.755617 -62.426621 
L 282.476278 -62.52788 
L 279.19694 -62.746822 
L 275.917601 -62.889613 
L 272.638262 -63.788955 
L 269.358923 -63.7993 
L 266.079584 -63.345861 
L 262.800245 -63.909691 
L 259.520907 -63.508667 
L 256.241568 -63.966992 
L 252.962229 -63.729445 
L 249.68289 -63.807763 
L 246.403551 -63.031501 
L 243.124212 -63.63566 
L 239.844873 -64.110164 
L 236.565535 -64.953279 
L 233.286196 -64.253745 
L 230.006857 -64.327631 
L 226.727518 -64.53106 
L 223.448179 -64.59417 
L 220.16884 -64.941172 
L 216.889502 -64.752898 
L 213.610163 -65.992893 
L 210.330824 -65.716152 
L 207.051485 -65.777721 
L 203.772146 -66.146267 
L 200.492807 -66.246202 
L 197.213468 -66.067261 
L 193.93413 -67.325697 
L 190.654791 -67.464818 
L 187.375452 -67.092577 
L 184.096113 -67.486856 
L 180.816774 -67.828859 
L 177.537435 -67.321788 
L 174.258097 -69.21982 
L 170.978758 -69.421508 
L 167.699419 -70.33293 
L 164.42008 -70.667298 
L 161.140741 -71.225212 
L 157.861402 -71.253721 
L 154.582064 -72.100932 
L 151.302725 -72.265145 
L 148.023386 -74.742098 
L 144.744047 -75.280205 
L 141.464708 -76.2452 
L 138.185369 -76.020229 
L 134.90603 -76.662189 
L 131.626692 -77.657444 
L 128.347353 -79.454923 
L 125.068014 -81.460829 
L 121.788675 -83.38391 
L 118.509336 -83.745556 
L 115.229997 -87.782118 
L 111.950659 -90.566368 
L 108.67132 -94.686782 
L 105.391981 -99.672992 
L 102.112642 -106.182231 
L 98.833303 -113.387298 
L 95.553964 -117.090695 
L 92.274626 -126.546472 
L 88.995287 -135.502807 
L 85.715948 -143.681974 
L 82.436609 -155.111306 
L 79.15727 -175.096985 
L 75.877931 -188.851017 
L 72.598592 -213.574864 
L 69.319254 -240.826045 
L 66.039915 -235.13229 
z
" style="stroke: #c44e52; stroke-opacity: 0.2"/>
    </defs>
    <g clip-path="url(#pbc30b1719d)">
     <use xlink:href="#mb304a3ddfd" x="0" y="316.271687" style="fill: #c44e52; fill-opacity: 0.2; stroke: #c44e52; stroke-opacity: 0.2"/>
    </g>
   </g>
   <g id="PolyCollection_5">
    <defs>
     <path id="m8928ca1256" d="M 66.039915 -252.661088 
L 66.039915 -236.693756 
L 69.319254 -218.6068 
L 72.598592 -209.520073 
L 75.877931 -197.83636 
L 79.15727 -190.661649 
L 82.436609 -177.893965 
L 85.715948 -170.120462 
L 88.995287 -163.423902 
L 92.274626 -157.372589 
L 95.553964 -153.98731 
L 98.833303 -147.393491 
L 102.112642 -143.86209 
L 105.391981 -139.078518 
L 108.67132 -134.557024 
L 111.950659 -129.141809 
L 115.229997 -125.813774 
L 118.509336 -123.417258 
L 121.788675 -118.821163 
L 125.068014 -115.63393 
L 128.347353 -114.523784 
L 131.626692 -111.005643 
L 134.90603 -109.463717 
L 138.185369 -107.400609 
L 141.464708 -105.423524 
L 144.744047 -104.109973 
L 148.023386 -101.923891 
L 151.302725 -100.682804 
L 154.582064 -99.430808 
L 157.861402 -97.576395 
L 161.140741 -96.478385 
L 164.42008 -95.074784 
L 167.699419 -93.48997 
L 170.978758 -92.754485 
L 174.258097 -92.116315 
L 177.537435 -89.419744 
L 180.816774 -88.619634 
L 184.096113 -87.096757 
L 187.375452 -86.527612 
L 190.654791 -86.495212 
L 193.93413 -83.925019 
L 197.213468 -83.742946 
L 200.492807 -82.12042 
L 203.772146 -81.780524 
L 207.051485 -81.984931 
L 210.330824 -81.13616 
L 213.610163 -81.028621 
L 216.889502 -79.786104 
L 220.16884 -78.680921 
L 223.448179 -78.432446 
L 226.727518 -77.908622 
L 230.006857 -77.178228 
L 233.286196 -76.552675 
L 236.565535 -76.59735 
L 239.844873 -75.36754 
L 243.124212 -75.717984 
L 246.403551 -74.640459 
L 249.68289 -74.918329 
L 252.962229 -73.769009 
L 256.241568 -73.808587 
L 259.520907 -74.280239 
L 262.800245 -73.275577 
L 266.079584 -73.113128 
L 269.358923 -72.464893 
L 272.638262 -72.72914 
L 275.917601 -72.284646 
L 279.19694 -71.199132 
L 282.476278 -70.690115 
L 285.755617 -70.826926 
L 289.034956 -70.387248 
L 292.314295 -70.362336 
L 295.593634 -70.594073 
L 298.872973 -70.309049 
L 302.152311 -69.855692 
L 305.43165 -69.306991 
L 308.710989 -68.740849 
L 311.990328 -68.238336 
L 315.269667 -68.758566 
L 318.549006 -68.102378 
L 321.828345 -68.200462 
L 325.107683 -68.612868 
L 328.387022 -67.237734 
L 331.666361 -67.472859 
L 334.9457 -67.172189 
L 338.225039 -67.526832 
L 341.504378 -67.130502 
L 344.783716 -66.11023 
L 348.063055 -66.887236 
L 351.342394 -66.578964 
L 354.621733 -66.886118 
L 357.901072 -65.84255 
L 361.180411 -66.116125 
L 364.459749 -66.115419 
L 367.739088 -65.766919 
L 371.018427 -65.463107 
L 374.297766 -64.885039 
L 377.577105 -65.264236 
L 380.856444 -65.178794 
L 384.135783 -64.89367 
L 387.415121 -64.947362 
L 390.69446 -65.050291 
L 390.69446 -86.973367 
L 390.69446 -86.973367 
L 387.415121 -87.690509 
L 384.135783 -88.417603 
L 380.856444 -87.617385 
L 377.577105 -89.09167 
L 374.297766 -87.924796 
L 371.018427 -89.780539 
L 367.739088 -89.481667 
L 364.459749 -89.414718 
L 361.180411 -89.039721 
L 357.901072 -89.363615 
L 354.621733 -90.860515 
L 351.342394 -90.337565 
L 348.063055 -92.196779 
L 344.783716 -90.697688 
L 341.504378 -90.892313 
L 338.225039 -90.888867 
L 334.9457 -92.215701 
L 331.666361 -91.746471 
L 328.387022 -93.461451 
L 325.107683 -93.453327 
L 321.828345 -94.047738 
L 318.549006 -94.107201 
L 315.269667 -93.843135 
L 311.990328 -93.184068 
L 308.710989 -94.497992 
L 305.43165 -94.006869 
L 302.152311 -93.711353 
L 298.872973 -95.591896 
L 295.593634 -95.722537 
L 292.314295 -96.668229 
L 289.034956 -97.369982 
L 285.755617 -96.814189 
L 282.476278 -95.83746 
L 279.19694 -96.811189 
L 275.917601 -97.826966 
L 272.638262 -97.638869 
L 269.358923 -98.522924 
L 266.079584 -98.798362 
L 262.800245 -101.522106 
L 259.520907 -99.857735 
L 256.241568 -100.464703 
L 252.962229 -99.555324 
L 249.68289 -102.704207 
L 246.403551 -101.920031 
L 243.124212 -101.365405 
L 239.844873 -102.522837 
L 236.565535 -101.466882 
L 233.286196 -103.865941 
L 230.006857 -103.785366 
L 226.727518 -105.630933 
L 223.448179 -106.445919 
L 220.16884 -105.631083 
L 216.889502 -108.023653 
L 213.610163 -108.318523 
L 210.330824 -108.347003 
L 207.051485 -109.144107 
L 203.772146 -109.093818 
L 200.492807 -110.347033 
L 197.213468 -109.890737 
L 193.93413 -111.881897 
L 190.654791 -113.291915 
L 187.375452 -114.834283 
L 184.096113 -115.719174 
L 180.816774 -116.44293 
L 177.537435 -117.353192 
L 174.258097 -119.445752 
L 170.978758 -122.623419 
L 167.699419 -122.472759 
L 164.42008 -123.904496 
L 161.140741 -125.685695 
L 157.861402 -128.358133 
L 154.582064 -130.388556 
L 151.302725 -130.101134 
L 148.023386 -132.802659 
L 144.744047 -134.176289 
L 141.464708 -136.372095 
L 138.185369 -138.607813 
L 134.90603 -139.11828 
L 131.626692 -143.287572 
L 128.347353 -145.143092 
L 125.068014 -146.981784 
L 121.788675 -150.756962 
L 118.509336 -156.278384 
L 115.229997 -158.133445 
L 111.950659 -162.996887 
L 108.67132 -168.142712 
L 105.391981 -172.800618 
L 102.112642 -177.902818 
L 98.833303 -181.01406 
L 95.553964 -187.294569 
L 92.274626 -192.048768 
L 88.995287 -196.205376 
L 85.715948 -201.750293 
L 82.436609 -208.934167 
L 79.15727 -221.845852 
L 75.877931 -228.143301 
L 72.598592 -237.148259 
L 69.319254 -242.06985 
L 66.039915 -252.661088 
z
" style="stroke: #8172b3; stroke-opacity: 0.2"/>
    </defs>
    <g clip-path="url(#pbc30b1719d)">
     <use xlink:href="#m8928ca1256" x="0" y="316.271687" style="fill: #8172b3; fill-opacity: 0.2; stroke: #8172b3; stroke-opacity: 0.2"/>
    </g>
   </g>
   <g id="line2d_13">
    <path d="M 66.039915 100.171789 
L 69.319254 159.840862 
L 72.598592 188.58232 
L 75.877931 214.075376 
L 79.15727 229.244159 
L 82.436609 235.454581 
L 85.715948 237.257247 
L 88.995287 237.68141 
L 92.274626 246.713416 
L 95.553964 247.776742 
L 98.833303 248.47866 
L 102.112642 249.448323 
L 105.391981 248.261487 
L 108.67132 249.230017 
L 111.950659 252.377604 
L 115.229997 250.87149 
L 118.509336 250.823674 
L 121.788675 252.75764 
L 125.068014 252.175512 
L 128.347353 252.708091 
L 131.626692 253.097604 
L 134.90603 254.53662 
L 138.185369 254.498649 
L 141.464708 254.521485 
L 144.744047 254.669824 
L 148.023386 252.684849 
L 151.302725 254.895212 
L 154.582064 254.750946 
L 157.861402 254.982227 
L 161.140741 255.42308 
L 164.42008 253.911696 
L 167.699419 253.570994 
L 170.978758 255.1288 
L 174.258097 255.26643 
L 177.537435 254.948062 
L 180.816774 256.653364 
L 184.096113 257.161166 
L 187.375452 257.394045 
L 190.654791 256.710729 
L 193.93413 256.833825 
L 197.213468 257.409373 
L 200.492807 257.300638 
L 203.772146 257.185822 
L 207.051485 257.658625 
L 210.330824 257.794176 
L 213.610163 257.321449 
L 216.889502 257.188543 
L 220.16884 256.996306 
L 223.448179 257.808534 
L 226.727518 257.809848 
L 230.006857 257.580611 
L 233.286196 257.938539 
L 236.565535 256.636554 
L 239.844873 258.92155 
L 243.124212 257.423717 
L 246.403551 257.532764 
L 249.68289 257.909135 
L 252.962229 258.661108 
L 256.241568 258.990521 
L 259.520907 258.355234 
L 262.800245 258.221363 
L 266.079584 258.692358 
L 269.358923 258.30274 
L 272.638262 258.698375 
L 275.917601 258.43905 
L 279.19694 258.812693 
L 282.476278 259.161218 
L 285.755617 258.471938 
L 289.034956 258.955547 
L 292.314295 257.980876 
L 295.593634 258.829898 
L 298.872973 258.994898 
L 302.152311 258.807719 
L 305.43165 258.755665 
L 308.710989 258.669944 
L 311.990328 259.132991 
L 315.269667 258.846022 
L 318.549006 258.323219 
L 321.828345 258.920102 
L 325.107683 258.751658 
L 328.387022 259.065047 
L 331.666361 258.880826 
L 334.9457 258.769689 
L 338.225039 259.590333 
L 341.504378 259.867887 
L 344.783716 259.83166 
L 348.063055 260.068161 
L 351.342394 259.936814 
L 354.621733 260.252497 
L 357.901072 259.016277 
L 361.180411 259.738839 
L 364.459749 260.177473 
L 367.739088 260.12958 
L 371.018427 260.441238 
L 374.297766 260.183608 
L 377.577105 260.171312 
L 380.856444 259.80668 
L 384.135783 260.082172 
L 387.415121 260.20475 
L 390.69446 259.955027 
" clip-path="url(#pbc30b1719d)" style="fill: none; stroke: #4c72b0; stroke-width: 1.5; stroke-linecap: round"/>
   </g>
   <g id="line2d_14">
    <path d="M 66.039915 57.05102 
L 69.319254 83.000882 
L 72.598592 105.890652 
L 75.877931 150.447654 
L 79.15727 155.024343 
L 82.436609 179.243307 
L 85.715948 185.802224 
L 88.995287 177.138637 
L 92.274626 206.593558 
L 95.553964 211.176561 
L 98.833303 207.576478 
L 102.112642 213.799858 
L 105.391981 214.416571 
L 108.67132 213.656803 
L 111.950659 226.994702 
L 115.229997 226.522436 
L 118.509336 218.253524 
L 121.788675 228.963723 
L 125.068014 218.172363 
L 128.347353 221.801468 
L 131.626692 225.753322 
L 134.90603 231.539449 
L 138.185369 231.437024 
L 141.464708 230.794866 
L 144.744047 231.352989 
L 148.023386 217.050156 
L 151.302725 236.929691 
L 154.582064 221.107602 
L 157.861402 225.28003 
L 161.140741 230.042625 
L 164.42008 229.179477 
L 167.699419 235.123494 
L 170.978758 232.193074 
L 174.258097 238.259908 
L 177.537435 238.078581 
L 180.816774 240.30613 
L 184.096113 237.257542 
L 187.375452 240.470983 
L 190.654791 239.653409 
L 193.93413 240.290373 
L 197.213468 241.923455 
L 200.492807 242.767529 
L 203.772146 239.670751 
L 207.051485 240.40628 
L 210.330824 241.408806 
L 213.610163 237.826425 
L 216.889502 240.643721 
L 220.16884 238.251479 
L 223.448179 237.451001 
L 226.727518 241.763984 
L 230.006857 245.149691 
L 233.286196 246.019059 
L 236.565535 239.302371 
L 239.844873 243.290783 
L 243.124212 240.92809 
L 246.403551 245.772637 
L 249.68289 242.478432 
L 252.962229 240.460318 
L 256.241568 244.973564 
L 259.520907 245.345158 
L 262.800245 243.639985 
L 266.079584 246.943273 
L 269.358923 247.013754 
L 272.638262 245.370052 
L 275.917601 244.977068 
L 279.19694 247.904039 
L 282.476278 248.318678 
L 285.755617 246.348632 
L 289.034956 245.741403 
L 292.314295 240.128806 
L 295.593634 245.826188 
L 298.872973 244.901836 
L 302.152311 244.767194 
L 305.43165 247.377419 
L 308.710989 248.433001 
L 311.990328 247.968471 
L 315.269667 246.003442 
L 318.549006 249.456439 
L 321.828345 248.485742 
L 325.107683 249.484857 
L 328.387022 249.301181 
L 331.666361 247.916659 
L 334.9457 246.471895 
L 338.225039 247.320878 
L 341.504378 250.100652 
L 344.783716 249.424798 
L 348.063055 248.819295 
L 351.342394 249.107826 
L 354.621733 247.286912 
L 357.901072 250.807315 
L 361.180411 249.571255 
L 364.459749 250.980158 
L 367.739088 247.636673 
L 371.018427 250.656996 
L 374.297766 250.479447 
L 377.577105 251.655844 
L 380.856444 252.179206 
L 384.135783 248.364857 
L 387.415121 249.381912 
L 390.69446 252.479247 
" clip-path="url(#pbc30b1719d)" style="fill: none; stroke: #dd8452; stroke-width: 1.5; stroke-linecap: round"/>
   </g>
   <g id="line2d_15">
    <path d="M 66.039915 69.336133 
L 69.319254 136.604328 
L 72.598592 162.451757 
L 75.877931 183.958172 
L 79.15727 195.398423 
L 82.436609 206.928873 
L 85.715948 210.453445 
L 88.995287 214.736251 
L 92.274626 224.33468 
L 95.553964 227.621852 
L 98.833303 229.3568 
L 102.112642 231.156729 
L 105.391981 235.309435 
L 108.67132 236.851708 
L 111.950659 238.000466 
L 115.229997 239.033483 
L 118.509336 240.712832 
L 121.788675 241.519089 
L 125.068014 241.334873 
L 128.347353 244.05436 
L 131.626692 245.011436 
L 134.90603 245.42089 
L 138.185369 246.346608 
L 141.464708 246.498248 
L 144.744047 247.745935 
L 148.023386 247.493519 
L 151.302725 248.328097 
L 154.582064 249.15178 
L 157.861402 249.952668 
L 161.140741 249.748509 
L 164.42008 249.967272 
L 167.699419 251.659764 
L 170.978758 251.337717 
L 174.258097 251.781928 
L 177.537435 250.919782 
L 180.816774 250.714813 
L 184.096113 250.899177 
L 187.375452 251.191184 
L 190.654791 251.456232 
L 193.93413 252.103791 
L 197.213468 251.970637 
L 200.492807 252.219746 
L 203.772146 252.396103 
L 207.051485 252.284255 
L 210.330824 252.819699 
L 213.610163 253.158097 
L 216.889502 253.598492 
L 220.16884 253.876641 
L 223.448179 253.845387 
L 226.727518 253.753912 
L 230.006857 252.822096 
L 233.286196 253.036979 
L 236.565535 254.094874 
L 239.844873 254.40871 
L 243.124212 255.133836 
L 246.403551 255.335865 
L 249.68289 255.161605 
L 252.962229 255.323827 
L 256.241568 255.244876 
L 259.520907 254.11481 
L 262.800245 254.031336 
L 266.079584 255.640328 
L 269.358923 255.954688 
L 272.638262 256.240734 
L 275.917601 256.314085 
L 279.19694 256.161347 
L 282.476278 256.002739 
L 285.755617 256.311701 
L 289.034956 256.304157 
L 292.314295 256.503987 
L 295.593634 256.482936 
L 298.872973 256.788821 
L 302.152311 256.544458 
L 305.43165 256.400087 
L 308.710989 256.419774 
L 311.990328 256.242356 
L 315.269667 255.985073 
L 318.549006 256.443337 
L 321.828345 256.545198 
L 325.107683 256.661612 
L 328.387022 256.789696 
L 331.666361 256.54682 
L 334.9457 257.038936 
L 338.225039 257.416421 
L 341.504378 257.53079 
L 344.783716 257.376019 
L 348.063055 257.472492 
L 351.342394 257.356636 
L 354.621733 257.333805 
L 357.901072 256.939027 
L 361.180411 257.10327 
L 364.459749 257.464275 
L 367.739088 257.395893 
L 371.018427 257.329936 
L 374.297766 257.644554 
L 377.577105 258.127443 
L 380.856444 258.190025 
L 384.135783 258.249282 
L 387.415121 257.909558 
L 390.69446 257.69791 
" clip-path="url(#pbc30b1719d)" style="fill: none; stroke: #55a868; stroke-width: 1.5; stroke-linecap: round"/>
   </g>
   <g id="line2d_16">
    <path d="M 66.039915 95.533477 
L 69.319254 80.635558 
L 72.598592 113.89276 
L 75.877931 141.434854 
L 79.15727 152.950256 
L 82.436609 173.156241 
L 85.715948 186.680695 
L 88.995287 196.704441 
L 92.274626 201.770832 
L 95.553964 212.145332 
L 98.833303 218.176478 
L 102.112642 222.914226 
L 105.391981 228.786069 
L 108.67132 231.688884 
L 111.950659 235.726264 
L 115.229997 238.103555 
L 118.509336 240.409526 
L 121.788675 241.72708 
L 125.068014 243.073123 
L 128.347353 244.612323 
L 131.626692 245.370027 
L 134.90603 246.09067 
L 138.185369 246.799495 
L 141.464708 246.882952 
L 144.744047 247.417853 
L 148.023386 247.924012 
L 151.302725 249.047608 
L 154.582064 249.438739 
L 157.861402 249.830454 
L 161.140741 250.20462 
L 164.42008 250.71588 
L 167.699419 251.09179 
L 170.978758 251.812817 
L 174.258097 251.997407 
L 177.537435 252.703504 
L 180.816774 252.799987 
L 184.096113 253.050957 
L 187.375452 253.132589 
L 190.654791 253.249593 
L 193.93413 253.396352 
L 197.213468 253.820214 
L 200.492807 254.109712 
L 203.772146 254.197005 
L 207.051485 254.403481 
L 210.330824 254.515783 
L 213.610163 254.471858 
L 216.889502 254.915161 
L 220.16884 255.122394 
L 223.448179 255.131322 
L 226.727518 255.367468 
L 230.006857 255.507948 
L 233.286196 255.613981 
L 236.565535 255.370833 
L 239.844873 255.707978 
L 243.124212 255.960088 
L 246.403551 256.158322 
L 249.68289 256.09863 
L 252.962229 256.038479 
L 256.241568 256.164111 
L 259.520907 256.120134 
L 262.800245 256.137319 
L 266.079584 256.316504 
L 269.358923 256.2494 
L 272.638262 256.221252 
L 275.917601 256.581957 
L 279.19694 256.840626 
L 282.476278 256.926654 
L 285.755617 256.932017 
L 289.034956 256.79049 
L 292.314295 257.044031 
L 295.593634 257.469752 
L 298.872973 257.574285 
L 302.152311 257.460098 
L 305.43165 257.710919 
L 308.710989 257.725592 
L 311.990328 257.685535 
L 315.269667 257.805626 
L 318.549006 257.931069 
L 321.828345 257.777782 
L 325.107683 257.977065 
L 328.387022 257.974372 
L 331.666361 258.092493 
L 334.9457 258.166239 
L 338.225039 258.37708 
L 341.504378 258.285101 
L 344.783716 258.347818 
L 348.063055 258.364309 
L 351.342394 258.288401 
L 354.621733 258.523719 
L 357.901072 258.481918 
L 361.180411 258.542354 
L 364.459749 258.664717 
L 367.739088 258.591707 
L 371.018427 258.697966 
L 374.297766 258.714486 
L 377.577105 258.867377 
L 380.856444 258.826423 
L 384.135783 258.849155 
L 387.415121 258.74951 
L 390.69446 258.641431 
" clip-path="url(#pbc30b1719d)" style="fill: none; stroke: #c44e52; stroke-width: 1.5; stroke-linecap: round"/>
   </g>
   <g id="line2d_17">
    <path d="M 66.039915 70.936794 
L 69.319254 85.441031 
L 72.598592 92.744195 
L 75.877931 102.590995 
L 79.15727 110.476611 
L 82.436609 123.50564 
L 85.715948 130.192963 
L 88.995287 136.51122 
L 92.274626 142.128449 
L 95.553964 147.018093 
L 98.833303 152.196243 
L 102.112642 155.814944 
L 105.391981 160.939262 
L 108.67132 166.223804 
L 111.950659 171.626826 
L 115.229997 174.556502 
L 118.509336 177.506659 
L 121.788675 181.838194 
L 125.068014 184.75325 
L 128.347353 186.89115 
L 131.626692 189.080292 
L 134.90603 192.177121 
L 138.185369 194.219954 
L 141.464708 195.685074 
L 144.744047 197.787677 
L 148.023386 199.330862 
L 151.302725 201.544361 
L 154.582064 202.691733 
L 157.861402 204.561093 
L 161.140741 206.028912 
L 164.42008 207.333152 
L 167.699419 208.377302 
L 170.978758 209.944369 
L 174.258097 211.26576 
L 177.537435 212.992665 
L 180.816774 214.262274 
L 184.096113 215.148825 
L 187.375452 216.147244 
L 190.654791 217.598296 
L 193.93413 219.042092 
L 197.213468 220.154 
L 200.492807 220.922603 
L 203.772146 221.553856 
L 207.051485 221.894846 
L 210.330824 222.673197 
L 213.610163 223.322337 
L 216.889502 223.688993 
L 220.16884 224.545171 
L 223.448179 225.328471 
L 226.727518 225.709396 
L 230.006857 226.254929 
L 233.286196 226.884629 
L 236.565535 227.835769 
L 239.844873 228.354728 
L 243.124212 228.470784 
L 246.403551 228.695211 
L 249.68289 228.996527 
L 252.962229 230.078756 
L 256.241568 230.462436 
L 259.520907 230.562832 
L 262.800245 230.616006 
L 266.079584 231.537293 
L 269.358923 231.835388 
L 272.638262 232.036384 
L 275.917601 232.284138 
L 279.19694 232.861178 
L 282.476278 233.521547 
L 285.755617 233.625413 
L 289.034956 233.870809 
L 292.314295 234.086601 
L 295.593634 234.626381 
L 298.872973 234.837499 
L 302.152311 235.157019 
L 305.43165 235.552019 
L 308.710989 235.978131 
L 311.990328 236.110879 
L 315.269667 236.409559 
L 318.549006 236.305579 
L 321.828345 236.600047 
L 325.107683 236.964765 
L 328.387022 237.140905 
L 331.666361 237.450313 
L 334.9457 237.761487 
L 338.225039 237.909822 
L 341.504378 238.262285 
L 344.783716 238.574371 
L 348.063055 238.811323 
L 351.342394 239.018502 
L 354.621733 239.073693 
L 357.901072 239.460336 
L 361.180411 239.772912 
L 364.459749 239.838292 
L 367.739088 240.094153 
L 371.018427 240.003165 
L 374.297766 240.805408 
L 377.577105 240.546109 
L 380.856444 240.634278 
L 384.135783 240.919538 
L 387.415121 241.198485 
L 390.69446 241.337112 
" clip-path="url(#pbc30b1719d)" style="fill: none; stroke: #8172b3; stroke-width: 1.5; stroke-linecap: round"/>
   </g>
   <g id="line2d_18"/>
   <g id="line2d_19"/>
   <g id="line2d_20"/>
   <g id="line2d_21"/>
   <g id="line2d_22"/>
   <g id="patch_3">
    <path d="M 49.807187 273.312 
L 49.807187 7.2 
" style="fill: none; stroke: #cccccc; stroke-width: 1.25; stroke-linejoin: miter; stroke-linecap: square"/>
   </g>
   <g id="patch_4">
    <path d="M 406.927188 273.312 
L 406.927188 7.2 
" style="fill: none; stroke: #cccccc; stroke-width: 1.25; stroke-linejoin: miter; stroke-linecap: square"/>
   </g>
   <g id="patch_5">
    <path d="M 49.807187 273.312 
L 406.927188 273.312 
" style="fill: none; stroke: #cccccc; stroke-width: 1.25; stroke-linejoin: miter; stroke-linecap: square"/>
   </g>
   <g id="patch_6">
    <path d="M 49.807187 7.2 
L 406.927188 7.2 
" style="fill: none; stroke: #cccccc; stroke-width: 1.25; stroke-linejoin: miter; stroke-linecap: square"/>
   </g>
   <g id="legend_1">
    <g id="patch_7">
     <path d="M 295.242813 113.843437 
L 399.227188 113.843437 
Q 401.427188 113.843437 401.427188 111.643437 
L 401.427188 14.9 
Q 401.427188 12.7 399.227188 12.7 
L 295.242813 12.7 
Q 293.042813 12.7 293.042813 14.9 
L 293.042813 111.643437 
Q 293.042813 113.843437 295.242813 113.843437 
z
" style="fill: #ffffff; opacity: 0.8; stroke: #cccccc; stroke-linejoin: miter"/>
    </g>
    <g id="text_15">
     <!-- Strategy -->
     <g style="fill: #262626" transform="translate(321.525937 26.218125) scale(0.12 -0.12)">
      <defs>
       <path id="DejaVuSans-53" d="M 3425 4513 
L 3425 3897 
Q 3066 4069 2747 4153 
Q 2428 4238 2131 4238 
Q 1616 4238 1336 4038 
Q 1056 3838 1056 3469 
Q 1056 3159 1242 3001 
Q 1428 2844 1947 2747 
L 2328 2669 
Q 3034 2534 3370 2195 
Q 3706 1856 3706 1288 
Q 3706 609 3251 259 
Q 2797 -91 1919 -91 
Q 1588 -91 1214 -16 
Q 841 59 441 206 
L 441 856 
Q 825 641 1194 531 
Q 1563 422 1919 422 
Q 2459 422 2753 634 
Q 3047 847 3047 1241 
Q 3047 1584 2836 1778 
Q 2625 1972 2144 2069 
L 1759 2144 
Q 1053 2284 737 2584 
Q 422 2884 422 3419 
Q 422 4038 858 4394 
Q 1294 4750 2059 4750 
Q 2388 4750 2728 4690 
Q 3069 4631 3425 4513 
z
" transform="scale(0.015625)"/>
       <path id="DejaVuSans-74" d="M 1172 4494 
L 1172 3500 
L 2356 3500 
L 2356 3053 
L 1172 3053 
L 1172 1153 
Q 1172 725 1289 603 
Q 1406 481 1766 481 
L 2356 481 
L 2356 0 
L 1766 0 
Q 1100 0 847 248 
Q 594 497 594 1153 
L 594 3053 
L 172 3053 
L 172 3500 
L 594 3500 
L 594 4494 
L 1172 4494 
z
" transform="scale(0.015625)"/>
       <path id="DejaVuSans-72" d="M 2631 2963 
Q 2534 3019 2420 3045 
Q 2306 3072 2169 3072 
Q 1681 3072 1420 2755 
Q 1159 2438 1159 1844 
L 1159 0 
L 581 0 
L 581 3500 
L 1159 3500 
L 1159 2956 
Q 1341 3275 1631 3429 
Q 1922 3584 2338 3584 
Q 2397 3584 2469 3576 
Q 2541 3569 2628 3553 
L 2631 2963 
z
" transform="scale(0.015625)"/>
       <path id="DejaVuSans-61" d="M 2194 1759 
Q 1497 1759 1228 1600 
Q 959 1441 959 1056 
Q 959 750 1161 570 
Q 1363 391 1709 391 
Q 2188 391 2477 730 
Q 2766 1069 2766 1631 
L 2766 1759 
L 2194 1759 
z
M 3341 1997 
L 3341 0 
L 2766 0 
L 2766 531 
Q 2569 213 2275 61 
Q 1981 -91 1556 -91 
Q 1019 -91 701 211 
Q 384 513 384 1019 
Q 384 1609 779 1909 
Q 1175 2209 1959 2209 
L 2766 2209 
L 2766 2266 
Q 2766 2663 2505 2880 
Q 2244 3097 1772 3097 
Q 1472 3097 1187 3025 
Q 903 2953 641 2809 
L 641 3341 
Q 956 3463 1253 3523 
Q 1550 3584 1831 3584 
Q 2591 3584 2966 3190 
Q 3341 2797 3341 1997 
z
" transform="scale(0.015625)"/>
       <path id="DejaVuSans-65" d="M 3597 1894 
L 3597 1613 
L 953 1613 
Q 991 1019 1311 708 
Q 1631 397 2203 397 
Q 2534 397 2845 478 
Q 3156 559 3463 722 
L 3463 178 
Q 3153 47 2828 -22 
Q 2503 -91 2169 -91 
Q 1331 -91 842 396 
Q 353 884 353 1716 
Q 353 2575 817 3079 
Q 1281 3584 2069 3584 
Q 2775 3584 3186 3129 
Q 3597 2675 3597 1894 
z
M 3022 2063 
Q 3016 2534 2758 2815 
Q 2500 3097 2075 3097 
Q 1594 3097 1305 2825 
Q 1016 2553 972 2059 
L 3022 2063 
z
" transform="scale(0.015625)"/>
       <path id="DejaVuSans-67" d="M 2906 1791 
Q 2906 2416 2648 2759 
Q 2391 3103 1925 3103 
Q 1463 3103 1205 2759 
Q 947 2416 947 1791 
Q 947 1169 1205 825 
Q 1463 481 1925 481 
Q 2391 481 2648 825 
Q 2906 1169 2906 1791 
z
M 3481 434 
Q 3481 -459 3084 -895 
Q 2688 -1331 1869 -1331 
Q 1566 -1331 1297 -1286 
Q 1028 -1241 775 -1147 
L 775 -588 
Q 1028 -725 1275 -790 
Q 1522 -856 1778 -856 
Q 2344 -856 2625 -561 
Q 2906 -266 2906 331 
L 2906 616 
Q 2728 306 2450 153 
Q 2172 0 1784 0 
Q 1141 0 747 490 
Q 353 981 353 1791 
Q 353 2603 747 3093 
Q 1141 3584 1784 3584 
Q 2172 3584 2450 3431 
Q 2728 3278 2906 2969 
L 2906 3500 
L 3481 3500 
L 3481 434 
z
" transform="scale(0.015625)"/>
       <path id="DejaVuSans-79" d="M 2059 -325 
Q 1816 -950 1584 -1140 
Q 1353 -1331 966 -1331 
L 506 -1331 
L 506 -850 
L 844 -850 
Q 1081 -850 1212 -737 
Q 1344 -625 1503 -206 
L 1606 56 
L 191 3500 
L 800 3500 
L 1894 763 
L 2988 3500 
L 3597 3500 
L 2059 -325 
z
" transform="scale(0.015625)"/>
      </defs>
      <use xlink:href="#DejaVuSans-53"/>
      <use xlink:href="#DejaVuSans-74" x="63.476562"/>
      <use xlink:href="#DejaVuSans-72" x="102.685547"/>
      <use xlink:href="#DejaVuSans-61" x="143.798828"/>
      <use xlink:href="#DejaVuSans-74" x="205.078125"/>
      <use xlink:href="#DejaVuSans-65" x="244.287109"/>
      <use xlink:href="#DejaVuSans-67" x="305.810547"/>
      <use xlink:href="#DejaVuSans-79" x="369.287109"/>
     </g>
    </g>
    <g id="line2d_23">
     <path d="M 297.442813 38.722031 
L 308.442813 38.722031 
L 319.442813 38.722031 
" style="fill: none; stroke: #4c72b0; stroke-width: 1.5; stroke-linecap: round"/>
    </g>
    <g id="text_16">
     <!-- FedPredict -->
     <g style="fill: #262626" transform="translate(328.242813 42.572031) scale(0.11 -0.11)">
      <defs>
       <path id="DejaVuSans-46" d="M 628 4666 
L 3309 4666 
L 3309 4134 
L 1259 4134 
L 1259 2759 
L 3109 2759 
L 3109 2228 
L 1259 2228 
L 1259 0 
L 628 0 
L 628 4666 
z
" transform="scale(0.015625)"/>
       <path id="DejaVuSans-50" d="M 1259 4147 
L 1259 2394 
L 2053 2394 
Q 2494 2394 2734 2622 
Q 2975 2850 2975 3272 
Q 2975 3691 2734 3919 
Q 2494 4147 2053 4147 
L 1259 4147 
z
M 628 4666 
L 2053 4666 
Q 2838 4666 3239 4311 
Q 3641 3956 3641 3272 
Q 3641 2581 3239 2228 
Q 2838 1875 2053 1875 
L 1259 1875 
L 1259 0 
L 628 0 
L 628 4666 
z
" transform="scale(0.015625)"/>
       <path id="DejaVuSans-69" d="M 603 3500 
L 1178 3500 
L 1178 0 
L 603 0 
L 603 3500 
z
M 603 4863 
L 1178 4863 
L 1178 4134 
L 603 4134 
L 603 4863 
z
" transform="scale(0.015625)"/>
       <path id="DejaVuSans-63" d="M 3122 3366 
L 3122 2828 
Q 2878 2963 2633 3030 
Q 2388 3097 2138 3097 
Q 1578 3097 1268 2742 
Q 959 2388 959 1747 
Q 959 1106 1268 751 
Q 1578 397 2138 397 
Q 2388 397 2633 464 
Q 2878 531 3122 666 
L 3122 134 
Q 2881 22 2623 -34 
Q 2366 -91 2075 -91 
Q 1284 -91 818 406 
Q 353 903 353 1747 
Q 353 2603 823 3093 
Q 1294 3584 2113 3584 
Q 2378 3584 2631 3529 
Q 2884 3475 3122 3366 
z
" transform="scale(0.015625)"/>
      </defs>
      <use xlink:href="#DejaVuSans-46"/>
      <use xlink:href="#DejaVuSans-65" x="52.019531"/>
      <use xlink:href="#DejaVuSans-64" x="113.542969"/>
      <use xlink:href="#DejaVuSans-50" x="177.019531"/>
      <use xlink:href="#DejaVuSans-72" x="235.572266"/>
      <use xlink:href="#DejaVuSans-65" x="274.435547"/>
      <use xlink:href="#DejaVuSans-64" x="335.958984"/>
      <use xlink:href="#DejaVuSans-69" x="399.435547"/>
      <use xlink:href="#DejaVuSans-63" x="427.21875"/>
      <use xlink:href="#DejaVuSans-74" x="482.199219"/>
     </g>
    </g>
    <g id="line2d_24">
     <path d="M 297.442813 54.867969 
L 308.442813 54.867969 
L 319.442813 54.867969 
" style="fill: none; stroke: #dd8452; stroke-width: 1.5; stroke-linecap: round"/>
    </g>
    <g id="text_17">
     <!-- FedAVG -->
     <g style="fill: #262626" transform="translate(328.242813 58.717969) scale(0.11 -0.11)">
      <defs>
       <path id="DejaVuSans-41" d="M 2188 4044 
L 1331 1722 
L 3047 1722 
L 2188 4044 
z
M 1831 4666 
L 2547 4666 
L 4325 0 
L 3669 0 
L 3244 1197 
L 1141 1197 
L 716 0 
L 50 0 
L 1831 4666 
z
" transform="scale(0.015625)"/>
       <path id="DejaVuSans-56" d="M 1831 0 
L 50 4666 
L 709 4666 
L 2188 738 
L 3669 4666 
L 4325 4666 
L 2547 0 
L 1831 0 
z
" transform="scale(0.015625)"/>
       <path id="DejaVuSans-47" d="M 3809 666 
L 3809 1919 
L 2778 1919 
L 2778 2438 
L 4434 2438 
L 4434 434 
Q 4069 175 3628 42 
Q 3188 -91 2688 -91 
Q 1594 -91 976 548 
Q 359 1188 359 2328 
Q 359 3472 976 4111 
Q 1594 4750 2688 4750 
Q 3144 4750 3555 4637 
Q 3966 4525 4313 4306 
L 4313 3634 
Q 3963 3931 3569 4081 
Q 3175 4231 2741 4231 
Q 1884 4231 1454 3753 
Q 1025 3275 1025 2328 
Q 1025 1384 1454 906 
Q 1884 428 2741 428 
Q 3075 428 3337 486 
Q 3600 544 3809 666 
z
" transform="scale(0.015625)"/>
      </defs>
      <use xlink:href="#DejaVuSans-46"/>
      <use xlink:href="#DejaVuSans-65" x="52.019531"/>
      <use xlink:href="#DejaVuSans-64" x="113.542969"/>
      <use xlink:href="#DejaVuSans-41" x="177.019531"/>
      <use xlink:href="#DejaVuSans-56" x="239.052734"/>
      <use xlink:href="#DejaVuSans-47" x="307.460938"/>
     </g>
    </g>
    <g id="line2d_25">
     <path d="M 297.442813 71.013906 
L 308.442813 71.013906 
L 319.442813 71.013906 
" style="fill: none; stroke: #55a868; stroke-width: 1.5; stroke-linecap: round"/>
    </g>
    <g id="text_18">
     <!-- FedClassAvg -->
     <g style="fill: #262626" transform="translate(328.242813 74.863906) scale(0.11 -0.11)">
      <defs>
       <path id="DejaVuSans-43" d="M 4122 4306 
L 4122 3641 
Q 3803 3938 3442 4084 
Q 3081 4231 2675 4231 
Q 1875 4231 1450 3742 
Q 1025 3253 1025 2328 
Q 1025 1406 1450 917 
Q 1875 428 2675 428 
Q 3081 428 3442 575 
Q 3803 722 4122 1019 
L 4122 359 
Q 3791 134 3420 21 
Q 3050 -91 2638 -91 
Q 1578 -91 968 557 
Q 359 1206 359 2328 
Q 359 3453 968 4101 
Q 1578 4750 2638 4750 
Q 3056 4750 3426 4639 
Q 3797 4528 4122 4306 
z
" transform="scale(0.015625)"/>
       <path id="DejaVuSans-6c" d="M 603 4863 
L 1178 4863 
L 1178 0 
L 603 0 
L 603 4863 
z
" transform="scale(0.015625)"/>
       <path id="DejaVuSans-76" d="M 191 3500 
L 800 3500 
L 1894 563 
L 2988 3500 
L 3597 3500 
L 2284 0 
L 1503 0 
L 191 3500 
z
" transform="scale(0.015625)"/>
      </defs>
      <use xlink:href="#DejaVuSans-46"/>
      <use xlink:href="#DejaVuSans-65" x="52.019531"/>
      <use xlink:href="#DejaVuSans-64" x="113.542969"/>
      <use xlink:href="#DejaVuSans-43" x="177.019531"/>
      <use xlink:href="#DejaVuSans-6c" x="246.84375"/>
      <use xlink:href="#DejaVuSans-61" x="274.626953"/>
      <use xlink:href="#DejaVuSans-73" x="335.90625"/>
      <use xlink:href="#DejaVuSans-73" x="388.005859"/>
      <use xlink:href="#DejaVuSans-41" x="440.105469"/>
      <use xlink:href="#DejaVuSans-76" x="502.638672"/>
      <use xlink:href="#DejaVuSans-67" x="561.818359"/>
     </g>
    </g>
    <g id="line2d_26">
     <path d="M 297.442813 87.159844 
L 308.442813 87.159844 
L 319.442813 87.159844 
" style="fill: none; stroke: #c44e52; stroke-width: 1.5; stroke-linecap: round"/>
    </g>
    <g id="text_19">
     <!-- FedPer -->
     <g style="fill: #262626" transform="translate(328.242813 91.009844) scale(0.11 -0.11)">
      <use xlink:href="#DejaVuSans-46"/>
      <use xlink:href="#DejaVuSans-65" x="52.019531"/>
      <use xlink:href="#DejaVuSans-64" x="113.542969"/>
      <use xlink:href="#DejaVuSans-50" x="177.019531"/>
      <use xlink:href="#DejaVuSans-65" x="233.697266"/>
      <use xlink:href="#DejaVuSans-72" x="295.220703"/>
     </g>
    </g>
    <g id="line2d_27">
     <path d="M 297.442813 103.305781 
L 308.442813 103.305781 
L 319.442813 103.305781 
" style="fill: none; stroke: #8172b3; stroke-width: 1.5; stroke-linecap: round"/>
    </g>
    <g id="text_20">
     <!-- FedProto -->
     <g style="fill: #262626" transform="translate(328.242813 107.155781) scale(0.11 -0.11)">
      <use xlink:href="#DejaVuSans-46"/>
      <use xlink:href="#DejaVuSans-65" x="52.019531"/>
      <use xlink:href="#DejaVuSans-64" x="113.542969"/>
      <use xlink:href="#DejaVuSans-50" x="177.019531"/>
      <use xlink:href="#DejaVuSans-72" x="235.572266"/>
      <use xlink:href="#DejaVuSans-6f" x="274.435547"/>
      <use xlink:href="#DejaVuSans-74" x="335.617188"/>
      <use xlink:href="#DejaVuSans-6f" x="374.826172"/>
     </g>
    </g>
   </g>
  </g>
 </g>
 <defs>
  <clipPath id="pbc30b1719d">
   <rect x="49.807187" y="7.2" width="357.12" height="266.112"/>
  </clipPath>
 </defs>
</svg>
