<?xml version="1.0" encoding="utf-8" standalone="no"?>
<!DOCTYPE svg PUBLIC "-//W3C//DTD SVG 1.1//EN"
  "http://www.w3.org/Graphics/SVG/1.1/DTD/svg11.dtd">
<svg xmlns:xlink="http://www.w3.org/1999/xlink" width="410.63125pt" height="316.271687pt" viewBox="0 0 410.63125 316.271687" xmlns="http://www.w3.org/2000/svg" version="1.1">
 <metadata>
  <rdf:RDF xmlns:dc="http://purl.org/dc/elements/1.1/" xmlns:cc="http://creativecommons.org/ns#" xmlns:rdf="http://www.w3.org/1999/02/22-rdf-syntax-ns#">
   <cc:Work>
    <dc:type rdf:resource="http://purl.org/dc/dcmitype/StillImage"/>
    <dc:date>2023-02-07T02:43:22.477651</dc:date>
    <dc:format>image/svg+xml</dc:format>
    <dc:creator>
     <cc:Agent>
      <dc:title>Matplotlib v3.6.3, https://matplotlib.org/</dc:title>
     </cc:Agent>
    </dc:creator>
   </cc:Work>
  </rdf:RDF>
 </metadata>
 <defs>
  <style type="text/css">*{stroke-linejoin: round; stroke-linecap: butt}</style>
 </defs>
 <g id="figure_1">
  <g id="patch_1">
   <path d="M 0 316.271687 
L 410.63125 316.271687 
L 410.63125 0 
L 0 0 
z
" style="fill: #ffffff"/>
  </g>
  <g id="axes_1">
   <g id="patch_2">
    <path d="M 46.31125 273.312 
L 403.43125 273.312 
L 403.43125 7.2 
L 46.31125 7.2 
z
" style="fill: #ffffff"/>
   </g>
   <g id="matplotlib.axis_1">
    <g id="xtick_1">
     <g id="line2d_1">
      <path d="M 59.264638 273.312 
L 59.264638 7.2 
" clip-path="url(#pa43f4d6482)" style="fill: none; stroke: #cccccc; stroke-linecap: round"/>
     </g>
     <g id="text_1">
      <!-- 0 -->
      <g style="fill: #262626" transform="translate(55.765263 291.170281) scale(0.11 -0.11)">
       <defs>
        <path id="DejaVuSans-30" d="M 2034 4250 
Q 1547 4250 1301 3770 
Q 1056 3291 1056 2328 
Q 1056 1369 1301 889 
Q 1547 409 2034 409 
Q 2525 409 2770 889 
Q 3016 1369 3016 2328 
Q 3016 3291 2770 3770 
Q 2525 4250 2034 4250 
z
M 2034 4750 
Q 2819 4750 3233 4129 
Q 3647 3509 3647 2328 
Q 3647 1150 3233 529 
Q 2819 -91 2034 -91 
Q 1250 -91 836 529 
Q 422 1150 422 2328 
Q 422 3509 836 4129 
Q 1250 4750 2034 4750 
z
" transform="scale(0.015625)"/>
       </defs>
       <use xlink:href="#DejaVuSans-30"/>
      </g>
     </g>
    </g>
    <g id="xtick_2">
     <g id="line2d_2">
      <path d="M 124.851415 273.312 
L 124.851415 7.2 
" clip-path="url(#pa43f4d6482)" style="fill: none; stroke: #cccccc; stroke-linecap: round"/>
     </g>
     <g id="text_2">
      <!-- 20 -->
      <g style="fill: #262626" transform="translate(117.852665 291.170281) scale(0.11 -0.11)">
       <defs>
        <path id="DejaVuSans-32" d="M 1228 531 
L 3431 531 
L 3431 0 
L 469 0 
L 469 531 
Q 828 903 1448 1529 
Q 2069 2156 2228 2338 
Q 2531 2678 2651 2914 
Q 2772 3150 2772 3378 
Q 2772 3750 2511 3984 
Q 2250 4219 1831 4219 
Q 1534 4219 1204 4116 
Q 875 4013 500 3803 
L 500 4441 
Q 881 4594 1212 4672 
Q 1544 4750 1819 4750 
Q 2544 4750 2975 4387 
Q 3406 4025 3406 3419 
Q 3406 3131 3298 2873 
Q 3191 2616 2906 2266 
Q 2828 2175 2409 1742 
Q 1991 1309 1228 531 
z
" transform="scale(0.015625)"/>
       </defs>
       <use xlink:href="#DejaVuSans-32"/>
       <use xlink:href="#DejaVuSans-30" x="63.623047"/>
      </g>
     </g>
    </g>
    <g id="xtick_3">
     <g id="line2d_3">
      <path d="M 190.438192 273.312 
L 190.438192 7.2 
" clip-path="url(#pa43f4d6482)" style="fill: none; stroke: #cccccc; stroke-linecap: round"/>
     </g>
     <g id="text_3">
      <!-- 40 -->
      <g style="fill: #262626" transform="translate(183.439442 291.170281) scale(0.11 -0.11)">
       <defs>
        <path id="DejaVuSans-34" d="M 2419 4116 
L 825 1625 
L 2419 1625 
L 2419 4116 
z
M 2253 4666 
L 3047 4666 
L 3047 1625 
L 3713 1625 
L 3713 1100 
L 3047 1100 
L 3047 0 
L 2419 0 
L 2419 1100 
L 313 1100 
L 313 1709 
L 2253 4666 
z
" transform="scale(0.015625)"/>
       </defs>
       <use xlink:href="#DejaVuSans-34"/>
       <use xlink:href="#DejaVuSans-30" x="63.623047"/>
      </g>
     </g>
    </g>
    <g id="xtick_4">
     <g id="line2d_4">
      <path d="M 256.024969 273.312 
L 256.024969 7.2 
" clip-path="url(#pa43f4d6482)" style="fill: none; stroke: #cccccc; stroke-linecap: round"/>
     </g>
     <g id="text_4">
      <!-- 60 -->
      <g style="fill: #262626" transform="translate(249.026219 291.170281) scale(0.11 -0.11)">
       <defs>
        <path id="DejaVuSans-36" d="M 2113 2584 
Q 1688 2584 1439 2293 
Q 1191 2003 1191 1497 
Q 1191 994 1439 701 
Q 1688 409 2113 409 
Q 2538 409 2786 701 
Q 3034 994 3034 1497 
Q 3034 2003 2786 2293 
Q 2538 2584 2113 2584 
z
M 3366 4563 
L 3366 3988 
Q 3128 4100 2886 4159 
Q 2644 4219 2406 4219 
Q 1781 4219 1451 3797 
Q 1122 3375 1075 2522 
Q 1259 2794 1537 2939 
Q 1816 3084 2150 3084 
Q 2853 3084 3261 2657 
Q 3669 2231 3669 1497 
Q 3669 778 3244 343 
Q 2819 -91 2113 -91 
Q 1303 -91 875 529 
Q 447 1150 447 2328 
Q 447 3434 972 4092 
Q 1497 4750 2381 4750 
Q 2619 4750 2861 4703 
Q 3103 4656 3366 4563 
z
" transform="scale(0.015625)"/>
       </defs>
       <use xlink:href="#DejaVuSans-36"/>
       <use xlink:href="#DejaVuSans-30" x="63.623047"/>
      </g>
     </g>
    </g>
    <g id="xtick_5">
     <g id="line2d_5">
      <path d="M 321.611746 273.312 
L 321.611746 7.2 
" clip-path="url(#pa43f4d6482)" style="fill: none; stroke: #cccccc; stroke-linecap: round"/>
     </g>
     <g id="text_5">
      <!-- 80 -->
      <g style="fill: #262626" transform="translate(314.612996 291.170281) scale(0.11 -0.11)">
       <defs>
        <path id="DejaVuSans-38" d="M 2034 2216 
Q 1584 2216 1326 1975 
Q 1069 1734 1069 1313 
Q 1069 891 1326 650 
Q 1584 409 2034 409 
Q 2484 409 2743 651 
Q 3003 894 3003 1313 
Q 3003 1734 2745 1975 
Q 2488 2216 2034 2216 
z
M 1403 2484 
Q 997 2584 770 2862 
Q 544 3141 544 3541 
Q 544 4100 942 4425 
Q 1341 4750 2034 4750 
Q 2731 4750 3128 4425 
Q 3525 4100 3525 3541 
Q 3525 3141 3298 2862 
Q 3072 2584 2669 2484 
Q 3125 2378 3379 2068 
Q 3634 1759 3634 1313 
Q 3634 634 3220 271 
Q 2806 -91 2034 -91 
Q 1263 -91 848 271 
Q 434 634 434 1313 
Q 434 1759 690 2068 
Q 947 2378 1403 2484 
z
M 1172 3481 
Q 1172 3119 1398 2916 
Q 1625 2713 2034 2713 
Q 2441 2713 2670 2916 
Q 2900 3119 2900 3481 
Q 2900 3844 2670 4047 
Q 2441 4250 2034 4250 
Q 1625 4250 1398 4047 
Q 1172 3844 1172 3481 
z
" transform="scale(0.015625)"/>
       </defs>
       <use xlink:href="#DejaVuSans-38"/>
       <use xlink:href="#DejaVuSans-30" x="63.623047"/>
      </g>
     </g>
    </g>
    <g id="xtick_6">
     <g id="line2d_6">
      <path d="M 387.198523 273.312 
L 387.198523 7.2 
" clip-path="url(#pa43f4d6482)" style="fill: none; stroke: #cccccc; stroke-linecap: round"/>
     </g>
     <g id="text_6">
      <!-- 100 -->
      <g style="fill: #262626" transform="translate(376.700398 291.170281) scale(0.11 -0.11)">
       <defs>
        <path id="DejaVuSans-31" d="M 794 531 
L 1825 531 
L 1825 4091 
L 703 3866 
L 703 4441 
L 1819 4666 
L 2450 4666 
L 2450 531 
L 3481 531 
L 3481 0 
L 794 0 
L 794 531 
z
" transform="scale(0.015625)"/>
       </defs>
       <use xlink:href="#DejaVuSans-31"/>
       <use xlink:href="#DejaVuSans-30" x="63.623047"/>
       <use xlink:href="#DejaVuSans-30" x="127.246094"/>
      </g>
     </g>
    </g>
    <g id="text_7">
     <!-- Server round -->
     <g style="fill: #262626" transform="translate(185.870313 306.576062) scale(0.12 -0.12)">
      <defs>
       <path id="DejaVuSans-53" d="M 3425 4513 
L 3425 3897 
Q 3066 4069 2747 4153 
Q 2428 4238 2131 4238 
Q 1616 4238 1336 4038 
Q 1056 3838 1056 3469 
Q 1056 3159 1242 3001 
Q 1428 2844 1947 2747 
L 2328 2669 
Q 3034 2534 3370 2195 
Q 3706 1856 3706 1288 
Q 3706 609 3251 259 
Q 2797 -91 1919 -91 
Q 1588 -91 1214 -16 
Q 841 59 441 206 
L 441 856 
Q 825 641 1194 531 
Q 1563 422 1919 422 
Q 2459 422 2753 634 
Q 3047 847 3047 1241 
Q 3047 1584 2836 1778 
Q 2625 1972 2144 2069 
L 1759 2144 
Q 1053 2284 737 2584 
Q 422 2884 422 3419 
Q 422 4038 858 4394 
Q 1294 4750 2059 4750 
Q 2388 4750 2728 4690 
Q 3069 4631 3425 4513 
z
" transform="scale(0.015625)"/>
       <path id="DejaVuSans-65" d="M 3597 1894 
L 3597 1613 
L 953 1613 
Q 991 1019 1311 708 
Q 1631 397 2203 397 
Q 2534 397 2845 478 
Q 3156 559 3463 722 
L 3463 178 
Q 3153 47 2828 -22 
Q 2503 -91 2169 -91 
Q 1331 -91 842 396 
Q 353 884 353 1716 
Q 353 2575 817 3079 
Q 1281 3584 2069 3584 
Q 2775 3584 3186 3129 
Q 3597 2675 3597 1894 
z
M 3022 2063 
Q 3016 2534 2758 2815 
Q 2500 3097 2075 3097 
Q 1594 3097 1305 2825 
Q 1016 2553 972 2059 
L 3022 2063 
z
" transform="scale(0.015625)"/>
       <path id="DejaVuSans-72" d="M 2631 2963 
Q 2534 3019 2420 3045 
Q 2306 3072 2169 3072 
Q 1681 3072 1420 2755 
Q 1159 2438 1159 1844 
L 1159 0 
L 581 0 
L 581 3500 
L 1159 3500 
L 1159 2956 
Q 1341 3275 1631 3429 
Q 1922 3584 2338 3584 
Q 2397 3584 2469 3576 
Q 2541 3569 2628 3553 
L 2631 2963 
z
" transform="scale(0.015625)"/>
       <path id="DejaVuSans-76" d="M 191 3500 
L 800 3500 
L 1894 563 
L 2988 3500 
L 3597 3500 
L 2284 0 
L 1503 0 
L 191 3500 
z
" transform="scale(0.015625)"/>
       <path id="DejaVuSans-20" transform="scale(0.015625)"/>
       <path id="DejaVuSans-6f" d="M 1959 3097 
Q 1497 3097 1228 2736 
Q 959 2375 959 1747 
Q 959 1119 1226 758 
Q 1494 397 1959 397 
Q 2419 397 2687 759 
Q 2956 1122 2956 1747 
Q 2956 2369 2687 2733 
Q 2419 3097 1959 3097 
z
M 1959 3584 
Q 2709 3584 3137 3096 
Q 3566 2609 3566 1747 
Q 3566 888 3137 398 
Q 2709 -91 1959 -91 
Q 1206 -91 779 398 
Q 353 888 353 1747 
Q 353 2609 779 3096 
Q 1206 3584 1959 3584 
z
" transform="scale(0.015625)"/>
       <path id="DejaVuSans-75" d="M 544 1381 
L 544 3500 
L 1119 3500 
L 1119 1403 
Q 1119 906 1312 657 
Q 1506 409 1894 409 
Q 2359 409 2629 706 
Q 2900 1003 2900 1516 
L 2900 3500 
L 3475 3500 
L 3475 0 
L 2900 0 
L 2900 538 
Q 2691 219 2414 64 
Q 2138 -91 1772 -91 
Q 1169 -91 856 284 
Q 544 659 544 1381 
z
M 1991 3584 
L 1991 3584 
z
" transform="scale(0.015625)"/>
       <path id="DejaVuSans-6e" d="M 3513 2113 
L 3513 0 
L 2938 0 
L 2938 2094 
Q 2938 2591 2744 2837 
Q 2550 3084 2163 3084 
Q 1697 3084 1428 2787 
Q 1159 2491 1159 1978 
L 1159 0 
L 581 0 
L 581 3500 
L 1159 3500 
L 1159 2956 
Q 1366 3272 1645 3428 
Q 1925 3584 2291 3584 
Q 2894 3584 3203 3211 
Q 3513 2838 3513 2113 
z
" transform="scale(0.015625)"/>
       <path id="DejaVuSans-64" d="M 2906 2969 
L 2906 4863 
L 3481 4863 
L 3481 0 
L 2906 0 
L 2906 525 
Q 2725 213 2448 61 
Q 2172 -91 1784 -91 
Q 1150 -91 751 415 
Q 353 922 353 1747 
Q 353 2572 751 3078 
Q 1150 3584 1784 3584 
Q 2172 3584 2448 3432 
Q 2725 3281 2906 2969 
z
M 947 1747 
Q 947 1113 1208 752 
Q 1469 391 1925 391 
Q 2381 391 2643 752 
Q 2906 1113 2906 1747 
Q 2906 2381 2643 2742 
Q 2381 3103 1925 3103 
Q 1469 3103 1208 2742 
Q 947 2381 947 1747 
z
" transform="scale(0.015625)"/>
      </defs>
      <use xlink:href="#DejaVuSans-53"/>
      <use xlink:href="#DejaVuSans-65" x="63.476562"/>
      <use xlink:href="#DejaVuSans-72" x="125"/>
      <use xlink:href="#DejaVuSans-76" x="166.113281"/>
      <use xlink:href="#DejaVuSans-65" x="225.292969"/>
      <use xlink:href="#DejaVuSans-72" x="286.816406"/>
      <use xlink:href="#DejaVuSans-20" x="327.929688"/>
      <use xlink:href="#DejaVuSans-72" x="359.716797"/>
      <use xlink:href="#DejaVuSans-6f" x="398.580078"/>
      <use xlink:href="#DejaVuSans-75" x="459.761719"/>
      <use xlink:href="#DejaVuSans-6e" x="523.140625"/>
      <use xlink:href="#DejaVuSans-64" x="586.519531"/>
     </g>
    </g>
   </g>
   <g id="matplotlib.axis_2">
    <g id="ytick_1">
     <g id="line2d_7">
      <path d="M 46.31125 239.665899 
L 403.43125 239.665899 
" clip-path="url(#pa43f4d6482)" style="fill: none; stroke: #cccccc; stroke-linecap: round"/>
     </g>
     <g id="text_8">
      <!-- 8 -->
      <g style="fill: #262626" transform="translate(29.8125 243.84504) scale(0.11 -0.11)">
       <use xlink:href="#DejaVuSans-38"/>
      </g>
     </g>
    </g>
    <g id="ytick_2">
     <g id="line2d_8">
      <path d="M 46.31125 191.036714 
L 403.43125 191.036714 
" clip-path="url(#pa43f4d6482)" style="fill: none; stroke: #cccccc; stroke-linecap: round"/>
     </g>
     <g id="text_9">
      <!-- 10 -->
      <g style="fill: #262626" transform="translate(22.81375 195.215855) scale(0.11 -0.11)">
       <use xlink:href="#DejaVuSans-31"/>
       <use xlink:href="#DejaVuSans-30" x="63.623047"/>
      </g>
     </g>
    </g>
    <g id="ytick_3">
     <g id="line2d_9">
      <path d="M 46.31125 142.407529 
L 403.43125 142.407529 
" clip-path="url(#pa43f4d6482)" style="fill: none; stroke: #cccccc; stroke-linecap: round"/>
     </g>
     <g id="text_10">
      <!-- 12 -->
      <g style="fill: #262626" transform="translate(22.81375 146.58667) scale(0.11 -0.11)">
       <use xlink:href="#DejaVuSans-31"/>
       <use xlink:href="#DejaVuSans-32" x="63.623047"/>
      </g>
     </g>
    </g>
    <g id="ytick_4">
     <g id="line2d_10">
      <path d="M 46.31125 93.778344 
L 403.43125 93.778344 
" clip-path="url(#pa43f4d6482)" style="fill: none; stroke: #cccccc; stroke-linecap: round"/>
     </g>
     <g id="text_11">
      <!-- 14 -->
      <g style="fill: #262626" transform="translate(22.81375 97.957484) scale(0.11 -0.11)">
       <use xlink:href="#DejaVuSans-31"/>
       <use xlink:href="#DejaVuSans-34" x="63.623047"/>
      </g>
     </g>
    </g>
    <g id="ytick_5">
     <g id="line2d_11">
      <path d="M 46.31125 45.149159 
L 403.43125 45.149159 
" clip-path="url(#pa43f4d6482)" style="fill: none; stroke: #cccccc; stroke-linecap: round"/>
     </g>
     <g id="text_12">
      <!-- 16 -->
      <g style="fill: #262626" transform="translate(22.81375 49.328299) scale(0.11 -0.11)">
       <use xlink:href="#DejaVuSans-31"/>
       <use xlink:href="#DejaVuSans-36" x="63.623047"/>
      </g>
     </g>
    </g>
    <g id="text_13">
     <!-- Time (seconds) -->
     <g style="fill: #262626" transform="translate(16.318125 186.050062) rotate(-90) scale(0.12 -0.12)">
      <defs>
       <path id="DejaVuSans-54" d="M -19 4666 
L 3928 4666 
L 3928 4134 
L 2272 4134 
L 2272 0 
L 1638 0 
L 1638 4134 
L -19 4134 
L -19 4666 
z
" transform="scale(0.015625)"/>
       <path id="DejaVuSans-69" d="M 603 3500 
L 1178 3500 
L 1178 0 
L 603 0 
L 603 3500 
z
M 603 4863 
L 1178 4863 
L 1178 4134 
L 603 4134 
L 603 4863 
z
" transform="scale(0.015625)"/>
       <path id="DejaVuSans-6d" d="M 3328 2828 
Q 3544 3216 3844 3400 
Q 4144 3584 4550 3584 
Q 5097 3584 5394 3201 
Q 5691 2819 5691 2113 
L 5691 0 
L 5113 0 
L 5113 2094 
Q 5113 2597 4934 2840 
Q 4756 3084 4391 3084 
Q 3944 3084 3684 2787 
Q 3425 2491 3425 1978 
L 3425 0 
L 2847 0 
L 2847 2094 
Q 2847 2600 2669 2842 
Q 2491 3084 2119 3084 
Q 1678 3084 1418 2786 
Q 1159 2488 1159 1978 
L 1159 0 
L 581 0 
L 581 3500 
L 1159 3500 
L 1159 2956 
Q 1356 3278 1631 3431 
Q 1906 3584 2284 3584 
Q 2666 3584 2933 3390 
Q 3200 3197 3328 2828 
z
" transform="scale(0.015625)"/>
       <path id="DejaVuSans-28" d="M 1984 4856 
Q 1566 4138 1362 3434 
Q 1159 2731 1159 2009 
Q 1159 1288 1364 580 
Q 1569 -128 1984 -844 
L 1484 -844 
Q 1016 -109 783 600 
Q 550 1309 550 2009 
Q 550 2706 781 3412 
Q 1013 4119 1484 4856 
L 1984 4856 
z
" transform="scale(0.015625)"/>
       <path id="DejaVuSans-73" d="M 2834 3397 
L 2834 2853 
Q 2591 2978 2328 3040 
Q 2066 3103 1784 3103 
Q 1356 3103 1142 2972 
Q 928 2841 928 2578 
Q 928 2378 1081 2264 
Q 1234 2150 1697 2047 
L 1894 2003 
Q 2506 1872 2764 1633 
Q 3022 1394 3022 966 
Q 3022 478 2636 193 
Q 2250 -91 1575 -91 
Q 1294 -91 989 -36 
Q 684 19 347 128 
L 347 722 
Q 666 556 975 473 
Q 1284 391 1588 391 
Q 1994 391 2212 530 
Q 2431 669 2431 922 
Q 2431 1156 2273 1281 
Q 2116 1406 1581 1522 
L 1381 1569 
Q 847 1681 609 1914 
Q 372 2147 372 2553 
Q 372 3047 722 3315 
Q 1072 3584 1716 3584 
Q 2034 3584 2315 3537 
Q 2597 3491 2834 3397 
z
" transform="scale(0.015625)"/>
       <path id="DejaVuSans-63" d="M 3122 3366 
L 3122 2828 
Q 2878 2963 2633 3030 
Q 2388 3097 2138 3097 
Q 1578 3097 1268 2742 
Q 959 2388 959 1747 
Q 959 1106 1268 751 
Q 1578 397 2138 397 
Q 2388 397 2633 464 
Q 2878 531 3122 666 
L 3122 134 
Q 2881 22 2623 -34 
Q 2366 -91 2075 -91 
Q 1284 -91 818 406 
Q 353 903 353 1747 
Q 353 2603 823 3093 
Q 1294 3584 2113 3584 
Q 2378 3584 2631 3529 
Q 2884 3475 3122 3366 
z
" transform="scale(0.015625)"/>
       <path id="DejaVuSans-29" d="M 513 4856 
L 1013 4856 
Q 1481 4119 1714 3412 
Q 1947 2706 1947 2009 
Q 1947 1309 1714 600 
Q 1481 -109 1013 -844 
L 513 -844 
Q 928 -128 1133 580 
Q 1338 1288 1338 2009 
Q 1338 2731 1133 3434 
Q 928 4138 513 4856 
z
" transform="scale(0.015625)"/>
      </defs>
      <use xlink:href="#DejaVuSans-54"/>
      <use xlink:href="#DejaVuSans-69" x="57.958984"/>
      <use xlink:href="#DejaVuSans-6d" x="85.742188"/>
      <use xlink:href="#DejaVuSans-65" x="183.154297"/>
      <use xlink:href="#DejaVuSans-20" x="244.677734"/>
      <use xlink:href="#DejaVuSans-28" x="276.464844"/>
      <use xlink:href="#DejaVuSans-73" x="315.478516"/>
      <use xlink:href="#DejaVuSans-65" x="367.578125"/>
      <use xlink:href="#DejaVuSans-63" x="429.101562"/>
      <use xlink:href="#DejaVuSans-6f" x="484.082031"/>
      <use xlink:href="#DejaVuSans-6e" x="545.263672"/>
      <use xlink:href="#DejaVuSans-64" x="608.642578"/>
      <use xlink:href="#DejaVuSans-73" x="672.119141"/>
      <use xlink:href="#DejaVuSans-29" x="724.21875"/>
     </g>
    </g>
   </g>
   <g id="PolyCollection_1"/>
   <g id="PolyCollection_2"/>
   <g id="PolyCollection_3"/>
   <g id="PolyCollection_4"/>
   <g id="PolyCollection_5"/>
   <g id="line2d_12">
    <path d="M 62.543977 54.943751 
L 65.823316 118.596944 
L 69.102655 147.245747 
L 72.381994 142.42288 
L 75.661333 146.325274 
L 78.940671 147.847475 
L 82.22001 138.744877 
L 85.499349 138.876192 
L 88.778688 164.398953 
L 92.058027 169.802958 
L 95.337366 141.806502 
L 98.616705 141.261933 
L 101.896043 141.79521 
L 105.175382 142.259124 
L 108.454721 142.531458 
L 111.73406 148.361198 
L 115.013399 142.822064 
L 118.292738 153.867968 
L 121.572076 137.206177 
L 124.851415 146.195861 
L 128.130754 141.573954 
L 131.410093 152.942996 
L 134.689432 157.260309 
L 137.968771 148.213293 
L 141.24811 144.717387 
L 144.527448 147.996268 
L 147.806787 164.727513 
L 151.086126 136.318806 
L 154.365465 167.958395 
L 157.644804 133.710446 
L 160.924143 165.847028 
L 164.203481 148.752273 
L 167.48282 159.366232 
L 170.762159 147.713604 
L 174.041498 144.099474 
L 177.320837 152.874927 
L 180.600176 137.43461 
L 183.879514 153.586231 
L 187.158853 140.976539 
L 190.438192 148.261634 
L 193.717531 142.285646 
L 196.99687 154.623544 
L 200.276209 147.057616 
L 203.555548 134.857218 
L 206.834886 150.032523 
L 210.114225 156.724795 
L 213.393564 156.001027 
L 216.672903 141.229047 
L 219.952242 143.720225 
L 223.231581 141.575362 
L 226.510919 132.647817 
L 229.790258 136.400318 
L 233.069597 135.562847 
L 236.348936 150.088662 
L 239.628275 145.707599 
L 242.907614 155.508562 
L 246.186952 156.316653 
L 249.466291 132.053527 
L 252.74563 146.316666 
L 256.024969 140.581661 
L 259.304308 148.403882 
L 262.583647 143.276316 
L 265.862986 149.440783 
L 269.142324 152.206446 
L 272.421663 144.196122 
L 275.701002 146.701613 
L 278.980341 157.917207 
L 282.25968 141.683008 
L 285.539019 137.503914 
L 288.818357 96.451248 
L 292.097696 85.863845 
L 295.377035 85.100976 
L 298.656374 82.444959 
L 301.935713 72.91455 
L 305.215052 89.412823 
L 308.49439 89.530972 
L 311.773729 104.245209 
L 315.053068 100.215458 
L 318.332407 89.798547 
L 321.611746 97.545105 
L 324.891085 80.830527 
L 328.170424 83.678769 
L 331.449762 96.938826 
L 334.729101 100.487073 
L 338.00844 85.529697 
L 341.287779 104.951811 
L 344.567118 81.995676 
L 347.846457 107.283831 
L 351.125795 111.765948 
L 354.405134 100.393353 
L 357.684473 101.08479 
L 360.963812 93.094715 
L 364.243151 104.989295 
L 367.52249 94.18023 
L 370.801829 83.56641 
L 374.081167 99.913305 
L 377.360506 108.808119 
L 380.639845 85.939816 
L 383.919184 89.185462 
L 387.198523 87.136014 
" clip-path="url(#pa43f4d6482)" style="fill: none; stroke: #4c72b0; stroke-width: 1.5; stroke-linecap: round"/>
   </g>
   <g id="line2d_13">
    <path d="M 62.543977 37.146846 
L 65.823316 132.625412 
L 69.102655 152.397111 
L 72.381994 155.40654 
L 75.661333 153.757163 
L 78.940671 160.858063 
L 82.22001 151.404517 
L 85.499349 146.091294 
L 88.778688 174.123303 
L 92.058027 186.081934 
L 95.337366 150.745351 
L 98.616705 161.796171 
L 101.896043 154.578587 
L 105.175382 153.491855 
L 108.454721 160.167136 
L 111.73406 163.374452 
L 115.013399 147.183394 
L 118.292738 163.807289 
L 121.572076 149.411601 
L 124.851415 162.300798 
L 128.130754 154.053873 
L 131.410093 166.183529 
L 134.689432 170.346536 
L 137.968771 154.894156 
L 141.24811 151.888872 
L 144.527448 147.422615 
L 147.806787 170.190027 
L 151.086126 144.094476 
L 154.365465 177.99026 
L 157.644804 146.248121 
L 160.924143 170.432802 
L 164.203481 156.10382 
L 167.48282 170.094909 
L 170.762159 152.537886 
L 174.041498 155.92417 
L 177.320837 166.364003 
L 180.600176 140.887838 
L 183.879514 165.830495 
L 187.158853 154.859999 
L 190.438192 159.263091 
L 193.717531 150.931101 
L 196.99687 163.085817 
L 200.276209 154.318456 
L 203.555548 149.885185 
L 206.834886 161.908575 
L 210.114225 161.43069 
L 213.393564 166.631259 
L 216.672903 149.24017 
L 219.952242 154.28681 
L 223.231581 154.770557 
L 226.510919 145.377393 
L 229.790258 143.051291 
L 233.069597 145.50298 
L 236.348936 154.511295 
L 239.628275 161.2705 
L 242.907614 169.479019 
L 246.186952 167.007418 
L 249.466291 146.491806 
L 252.74563 155.726114 
L 256.024969 158.454043 
L 259.304308 158.001392 
L 262.583647 162.48995 
L 265.862986 161.658166 
L 269.142324 163.645082 
L 272.421663 153.812038 
L 275.701002 158.433875 
L 278.980341 165.43033 
L 282.25968 148.525974 
L 285.539019 146.106621 
L 288.818357 114.259005 
L 292.097696 96.083344 
L 295.377035 89.019209 
L 298.656374 93.664287 
L 301.935713 85.926181 
L 305.215052 104.399265 
L 308.49439 98.01593 
L 311.773729 115.769855 
L 315.053068 109.027648 
L 318.332407 95.977432 
L 321.611746 119.014911 
L 324.891085 96.3462 
L 328.170424 89.919862 
L 331.449762 108.252959 
L 334.729101 115.488351 
L 338.00844 94.502494 
L 341.287779 122.643482 
L 344.567118 95.324504 
L 347.846457 117.397157 
L 351.125795 126.637186 
L 354.405134 113.072134 
L 357.684473 107.977773 
L 360.963812 100.817482 
L 364.243151 113.258706 
L 367.52249 101.308394 
L 370.801829 94.037414 
L 374.081167 118.684896 
L 377.360506 119.434948 
L 380.639845 103.232957 
L 383.919184 101.662825 
L 387.198523 101.331101 
" clip-path="url(#pa43f4d6482)" style="fill: none; stroke: #dd8452; stroke-width: 1.5; stroke-linecap: round"/>
   </g>
   <g id="line2d_14">
    <path d="M 62.543977 129.484645 
L 65.823316 236.327012 
L 69.102655 246.899001 
L 72.381994 247.246696 
L 75.661333 248.067576 
L 78.940671 247.839422 
L 82.22001 251.92989 
L 85.499349 246.33151 
L 88.778688 257.230284 
L 92.058027 261.216 
L 95.337366 246.838341 
L 98.616705 250.936467 
L 101.896043 246.054116 
L 105.175382 248.528256 
L 108.454721 250.412222 
L 111.73406 250.413034 
L 115.013399 242.985453 
L 118.292738 251.035179 
L 121.572076 243.618415 
L 124.851415 253.927994 
L 128.130754 249.902111 
L 131.410093 254.247418 
L 134.689432 254.60651 
L 137.968771 250.05546 
L 141.24811 247.253763 
L 144.527448 249.76999 
L 147.806787 254.272328 
L 151.086126 248.220044 
L 154.365465 255.205363 
L 157.644804 244.333626 
L 160.924143 255.133937 
L 164.203481 249.630681 
L 167.48282 252.441625 
L 170.762159 245.69053 
L 174.041498 246.104654 
L 177.320837 253.344591 
L 180.600176 246.175604 
L 183.879514 252.343707 
L 187.158853 248.293337 
L 190.438192 249.349971 
L 193.717531 244.93638 
L 196.99687 250.452413 
L 200.276209 250.751129 
L 203.555548 245.157897 
L 206.834886 253.271646 
L 210.114225 249.144233 
L 213.393564 254.986107 
L 216.672903 244.521671 
L 219.952242 246.217123 
L 223.231581 249.779126 
L 226.510919 247.031359 
L 229.790258 243.396139 
L 233.069597 247.286522 
L 236.348936 251.475291 
L 239.628275 248.028666 
L 242.907614 253.260418 
L 246.186952 247.878934 
L 249.466291 244.97565 
L 252.74563 250.410901 
L 256.024969 247.445286 
L 259.304308 249.799231 
L 262.583647 246.628754 
L 265.862986 251.202227 
L 269.142324 253.230429 
L 272.421663 248.785042 
L 275.701002 245.624716 
L 278.980341 252.634725 
L 282.25968 245.979908 
L 285.539019 245.151573 
L 288.818357 199.148005 
L 292.097696 191.950318 
L 295.377035 187.891159 
L 298.656374 203.707217 
L 301.935713 193.012111 
L 305.215052 197.564448 
L 308.49439 194.525501 
L 311.773729 199.529538 
L 315.053068 201.595949 
L 318.332407 197.73269 
L 321.611746 203.642679 
L 324.891085 191.861947 
L 328.170424 195.109391 
L 331.449762 199.414623 
L 334.729101 201.735832 
L 338.00844 196.717522 
L 341.287779 201.408739 
L 344.567118 198.392452 
L 347.846457 201.06222 
L 351.125795 208.365565 
L 354.405134 200.248796 
L 357.684473 211.00542 
L 360.963812 197.91706 
L 364.243151 206.990835 
L 367.52249 195.132667 
L 370.801829 192.990535 
L 374.081167 205.343644 
L 377.360506 202.081261 
L 380.639845 194.631929 
L 383.919184 200.463223 
L 387.198523 192.365926 
" clip-path="url(#pa43f4d6482)" style="fill: none; stroke: #55a868; stroke-width: 1.5; stroke-linecap: round"/>
   </g>
   <g id="line2d_15">
    <path d="M 62.543977 19.296 
L 65.823316 119.395824 
L 69.102655 146.455267 
L 72.381994 144.400746 
L 75.661333 141.835592 
L 78.940671 151.22344 
L 82.22001 145.949057 
L 85.499349 144.079978 
L 88.778688 171.141231 
L 92.058027 176.499027 
L 95.337366 138.637753 
L 98.616705 148.584999 
L 101.896043 149.243202 
L 105.175382 146.025213 
L 108.454721 150.693172 
L 111.73406 150.302422 
L 115.013399 140.401181 
L 118.292738 160.248943 
L 121.572076 140.522021 
L 124.851415 154.686082 
L 128.130754 146.13396 
L 131.410093 151.524423 
L 134.689432 158.571938 
L 137.968771 146.42143 
L 141.24811 143.908582 
L 144.527448 146.135125 
L 147.806787 163.850292 
L 151.086126 136.443657 
L 154.365465 169.522288 
L 157.644804 134.336458 
L 160.924143 164.424072 
L 164.203481 149.251602 
L 167.48282 160.555619 
L 170.762159 150.195582 
L 174.041498 145.587426 
L 177.320837 156.956062 
L 180.600176 137.445549 
L 183.879514 158.366977 
L 187.158853 142.305808 
L 190.438192 145.989979 
L 193.717531 143.890594 
L 196.99687 156.736226 
L 200.276209 151.981944 
L 203.555548 134.197566 
L 206.834886 153.02994 
L 210.114225 155.646943 
L 213.393564 159.326876 
L 216.672903 141.860595 
L 219.952242 144.252643 
L 223.231581 143.889406 
L 226.510919 131.553317 
L 229.790258 134.096976 
L 233.069597 139.029408 
L 236.348936 143.01986 
L 239.628275 149.186577 
L 242.907614 165.707296 
L 246.186952 158.434612 
L 249.466291 133.865923 
L 252.74563 146.971112 
L 256.024969 151.394488 
L 259.304308 151.92075 
L 262.583647 154.072134 
L 265.862986 157.480904 
L 269.142324 161.648496 
L 272.421663 145.410894 
L 275.701002 151.143186 
L 278.980341 159.835573 
L 282.25968 140.396236 
L 285.539019 134.986156 
L 288.818357 107.819189 
L 292.097696 84.715003 
L 295.377035 85.897456 
L 298.656374 91.893073 
L 301.935713 77.424974 
L 305.215052 93.429367 
L 308.49439 93.023017 
L 311.773729 109.687242 
L 315.053068 113.902759 
L 318.332407 100.841302 
L 321.611746 104.595397 
L 324.891085 86.533828 
L 328.170424 86.078777 
L 331.449762 93.163422 
L 334.729101 106.319579 
L 338.00844 93.063863 
L 341.287779 110.666631 
L 344.567118 95.946447 
L 347.846457 105.049636 
L 351.125795 115.999082 
L 354.405134 105.112836 
L 357.684473 113.079537 
L 360.963812 93.271398 
L 364.243151 109.258979 
L 367.52249 96.741048 
L 370.801829 86.684244 
L 374.081167 113.554796 
L 377.360506 103.262452 
L 380.639845 95.322898 
L 383.919184 98.057216 
L 387.198523 85.770745 
" clip-path="url(#pa43f4d6482)" style="fill: none; stroke: #c44e52; stroke-width: 1.5; stroke-linecap: round"/>
   </g>
   <g id="line2d_16">
    <path d="M 62.543977 31.256173 
L 65.823316 132.548873 
L 69.102655 159.915961 
L 72.381994 158.879199 
L 75.661333 159.901932 
L 78.940671 157.087725 
L 82.22001 152.654454 
L 85.499349 151.458406 
L 88.778688 177.140361 
L 92.058027 188.633564 
L 95.337366 146.225356 
L 98.616705 158.451058 
L 101.896043 158.99147 
L 105.175382 156.728841 
L 108.454721 156.465794 
L 111.73406 164.281575 
L 115.013399 147.820252 
L 118.292738 165.086176 
L 121.572076 141.623727 
L 124.851415 160.418009 
L 128.130754 154.371094 
L 131.410093 162.00298 
L 134.689432 169.320574 
L 137.968771 151.876907 
L 141.24811 153.737917 
L 144.527448 149.983126 
L 147.806787 170.368837 
L 151.086126 142.398787 
L 154.365465 174.642371 
L 157.644804 140.796227 
L 160.924143 173.519772 
L 164.203481 159.385948 
L 167.48282 167.997855 
L 170.762159 154.89055 
L 174.041498 152.242301 
L 177.320837 165.710322 
L 180.600176 147.977897 
L 183.879514 160.708261 
L 187.158853 157.490121 
L 190.438192 153.266999 
L 193.717531 152.601248 
L 196.99687 163.214239 
L 200.276209 160.810915 
L 203.555548 144.507319 
L 206.834886 159.103951 
L 210.114225 164.231668 
L 213.393564 168.759495 
L 216.672903 151.056311 
L 219.952242 150.04945 
L 223.231581 154.962329 
L 226.510919 143.152925 
L 229.790258 141.010225 
L 233.069597 146.847415 
L 236.348936 155.271428 
L 239.628275 155.818768 
L 242.907614 169.693748 
L 246.186952 167.017302 
L 249.466291 144.901548 
L 252.74563 157.696896 
L 256.024969 164.216961 
L 259.304308 159.39345 
L 262.583647 158.791553 
L 265.862986 163.231949 
L 269.142324 164.833924 
L 272.421663 154.608999 
L 275.701002 160.25848 
L 278.980341 167.557569 
L 282.25968 149.412807 
L 285.539019 140.913919 
L 288.818357 117.734569 
L 292.097696 90.769477 
L 295.377035 94.034052 
L 298.656374 92.238444 
L 301.935713 81.247781 
L 305.215052 96.293041 
L 308.49439 102.931278 
L 311.773729 122.17035 
L 315.053068 115.688975 
L 318.332407 104.585252 
L 321.611746 112.646004 
L 324.891085 96.985406 
L 328.170424 96.65153 
L 331.449762 103.52438 
L 334.729101 116.282999 
L 338.00844 99.570647 
L 341.287779 117.657056 
L 344.567118 104.796323 
L 347.846457 116.501124 
L 351.125795 127.117489 
L 354.405134 109.897727 
L 357.684473 117.049914 
L 360.963812 103.831201 
L 364.243151 118.22446 
L 367.52249 104.237788 
L 370.801829 90.412449 
L 374.081167 111.932724 
L 377.360506 116.337752 
L 380.639845 95.689724 
L 383.919184 96.283319 
L 387.198523 100.941794 
" clip-path="url(#pa43f4d6482)" style="fill: none; stroke: #8172b3; stroke-width: 1.5; stroke-linecap: round"/>
   </g>
   <g id="line2d_17"/>
   <g id="line2d_18"/>
   <g id="line2d_19"/>
   <g id="line2d_20"/>
   <g id="line2d_21"/>
   <g id="patch_3">
    <path d="M 46.31125 273.312 
L 46.31125 7.2 
" style="fill: none; stroke: #cccccc; stroke-width: 1.25; stroke-linejoin: miter; stroke-linecap: square"/>
   </g>
   <g id="patch_4">
    <path d="M 403.43125 273.312 
L 403.43125 7.2 
" style="fill: none; stroke: #cccccc; stroke-width: 1.25; stroke-linejoin: miter; stroke-linecap: square"/>
   </g>
   <g id="patch_5">
    <path d="M 46.31125 273.312 
L 403.43125 273.312 
" style="fill: none; stroke: #cccccc; stroke-width: 1.25; stroke-linejoin: miter; stroke-linecap: square"/>
   </g>
   <g id="patch_6">
    <path d="M 46.31125 7.2 
L 403.43125 7.2 
" style="fill: none; stroke: #cccccc; stroke-width: 1.25; stroke-linejoin: miter; stroke-linecap: square"/>
   </g>
   <g id="legend_1">
    <g id="patch_7">
     <path d="M 172.879063 113.843437 
L 276.863438 113.843437 
Q 279.063438 113.843437 279.063438 111.643437 
L 279.063438 14.9 
Q 279.063438 12.7 276.863438 12.7 
L 172.879063 12.7 
Q 170.679063 12.7 170.679063 14.9 
L 170.679063 111.643437 
Q 170.679063 113.843437 172.879063 113.843437 
z
" style="fill: #ffffff; opacity: 0.8; stroke: #cccccc; stroke-linejoin: miter"/>
    </g>
    <g id="text_14">
     <!-- Strategy -->
     <g style="fill: #262626" transform="translate(199.162188 26.218125) scale(0.12 -0.12)">
      <defs>
       <path id="DejaVuSans-74" d="M 1172 4494 
L 1172 3500 
L 2356 3500 
L 2356 3053 
L 1172 3053 
L 1172 1153 
Q 1172 725 1289 603 
Q 1406 481 1766 481 
L 2356 481 
L 2356 0 
L 1766 0 
Q 1100 0 847 248 
Q 594 497 594 1153 
L 594 3053 
L 172 3053 
L 172 3500 
L 594 3500 
L 594 4494 
L 1172 4494 
z
" transform="scale(0.015625)"/>
       <path id="DejaVuSans-61" d="M 2194 1759 
Q 1497 1759 1228 1600 
Q 959 1441 959 1056 
Q 959 750 1161 570 
Q 1363 391 1709 391 
Q 2188 391 2477 730 
Q 2766 1069 2766 1631 
L 2766 1759 
L 2194 1759 
z
M 3341 1997 
L 3341 0 
L 2766 0 
L 2766 531 
Q 2569 213 2275 61 
Q 1981 -91 1556 -91 
Q 1019 -91 701 211 
Q 384 513 384 1019 
Q 384 1609 779 1909 
Q 1175 2209 1959 2209 
L 2766 2209 
L 2766 2266 
Q 2766 2663 2505 2880 
Q 2244 3097 1772 3097 
Q 1472 3097 1187 3025 
Q 903 2953 641 2809 
L 641 3341 
Q 956 3463 1253 3523 
Q 1550 3584 1831 3584 
Q 2591 3584 2966 3190 
Q 3341 2797 3341 1997 
z
" transform="scale(0.015625)"/>
       <path id="DejaVuSans-67" d="M 2906 1791 
Q 2906 2416 2648 2759 
Q 2391 3103 1925 3103 
Q 1463 3103 1205 2759 
Q 947 2416 947 1791 
Q 947 1169 1205 825 
Q 1463 481 1925 481 
Q 2391 481 2648 825 
Q 2906 1169 2906 1791 
z
M 3481 434 
Q 3481 -459 3084 -895 
Q 2688 -1331 1869 -1331 
Q 1566 -1331 1297 -1286 
Q 1028 -1241 775 -1147 
L 775 -588 
Q 1028 -725 1275 -790 
Q 1522 -856 1778 -856 
Q 2344 -856 2625 -561 
Q 2906 -266 2906 331 
L 2906 616 
Q 2728 306 2450 153 
Q 2172 0 1784 0 
Q 1141 0 747 490 
Q 353 981 353 1791 
Q 353 2603 747 3093 
Q 1141 3584 1784 3584 
Q 2172 3584 2450 3431 
Q 2728 3278 2906 2969 
L 2906 3500 
L 3481 3500 
L 3481 434 
z
" transform="scale(0.015625)"/>
       <path id="DejaVuSans-79" d="M 2059 -325 
Q 1816 -950 1584 -1140 
Q 1353 -1331 966 -1331 
L 506 -1331 
L 506 -850 
L 844 -850 
Q 1081 -850 1212 -737 
Q 1344 -625 1503 -206 
L 1606 56 
L 191 3500 
L 800 3500 
L 1894 763 
L 2988 3500 
L 3597 3500 
L 2059 -325 
z
" transform="scale(0.015625)"/>
      </defs>
      <use xlink:href="#DejaVuSans-53"/>
      <use xlink:href="#DejaVuSans-74" x="63.476562"/>
      <use xlink:href="#DejaVuSans-72" x="102.685547"/>
      <use xlink:href="#DejaVuSans-61" x="143.798828"/>
      <use xlink:href="#DejaVuSans-74" x="205.078125"/>
      <use xlink:href="#DejaVuSans-65" x="244.287109"/>
      <use xlink:href="#DejaVuSans-67" x="305.810547"/>
      <use xlink:href="#DejaVuSans-79" x="369.287109"/>
     </g>
    </g>
    <g id="line2d_22">
     <path d="M 175.079063 38.722031 
L 186.079063 38.722031 
L 197.079063 38.722031 
" style="fill: none; stroke: #4c72b0; stroke-width: 1.5; stroke-linecap: round"/>
    </g>
    <g id="text_15">
     <!-- FedPredict -->
     <g style="fill: #262626" transform="translate(205.879063 42.572031) scale(0.11 -0.11)">
      <defs>
       <path id="DejaVuSans-46" d="M 628 4666 
L 3309 4666 
L 3309 4134 
L 1259 4134 
L 1259 2759 
L 3109 2759 
L 3109 2228 
L 1259 2228 
L 1259 0 
L 628 0 
L 628 4666 
z
" transform="scale(0.015625)"/>
       <path id="DejaVuSans-50" d="M 1259 4147 
L 1259 2394 
L 2053 2394 
Q 2494 2394 2734 2622 
Q 2975 2850 2975 3272 
Q 2975 3691 2734 3919 
Q 2494 4147 2053 4147 
L 1259 4147 
z
M 628 4666 
L 2053 4666 
Q 2838 4666 3239 4311 
Q 3641 3956 3641 3272 
Q 3641 2581 3239 2228 
Q 2838 1875 2053 1875 
L 1259 1875 
L 1259 0 
L 628 0 
L 628 4666 
z
" transform="scale(0.015625)"/>
      </defs>
      <use xlink:href="#DejaVuSans-46"/>
      <use xlink:href="#DejaVuSans-65" x="52.019531"/>
      <use xlink:href="#DejaVuSans-64" x="113.542969"/>
      <use xlink:href="#DejaVuSans-50" x="177.019531"/>
      <use xlink:href="#DejaVuSans-72" x="235.572266"/>
      <use xlink:href="#DejaVuSans-65" x="274.435547"/>
      <use xlink:href="#DejaVuSans-64" x="335.958984"/>
      <use xlink:href="#DejaVuSans-69" x="399.435547"/>
      <use xlink:href="#DejaVuSans-63" x="427.21875"/>
      <use xlink:href="#DejaVuSans-74" x="482.199219"/>
     </g>
    </g>
    <g id="line2d_23">
     <path d="M 175.079063 54.867969 
L 186.079063 54.867969 
L 197.079063 54.867969 
" style="fill: none; stroke: #dd8452; stroke-width: 1.5; stroke-linecap: round"/>
    </g>
    <g id="text_16">
     <!-- FedAVG -->
     <g style="fill: #262626" transform="translate(205.879063 58.717969) scale(0.11 -0.11)">
      <defs>
       <path id="DejaVuSans-41" d="M 2188 4044 
L 1331 1722 
L 3047 1722 
L 2188 4044 
z
M 1831 4666 
L 2547 4666 
L 4325 0 
L 3669 0 
L 3244 1197 
L 1141 1197 
L 716 0 
L 50 0 
L 1831 4666 
z
" transform="scale(0.015625)"/>
       <path id="DejaVuSans-56" d="M 1831 0 
L 50 4666 
L 709 4666 
L 2188 738 
L 3669 4666 
L 4325 4666 
L 2547 0 
L 1831 0 
z
" transform="scale(0.015625)"/>
       <path id="DejaVuSans-47" d="M 3809 666 
L 3809 1919 
L 2778 1919 
L 2778 2438 
L 4434 2438 
L 4434 434 
Q 4069 175 3628 42 
Q 3188 -91 2688 -91 
Q 1594 -91 976 548 
Q 359 1188 359 2328 
Q 359 3472 976 4111 
Q 1594 4750 2688 4750 
Q 3144 4750 3555 4637 
Q 3966 4525 4313 4306 
L 4313 3634 
Q 3963 3931 3569 4081 
Q 3175 4231 2741 4231 
Q 1884 4231 1454 3753 
Q 1025 3275 1025 2328 
Q 1025 1384 1454 906 
Q 1884 428 2741 428 
Q 3075 428 3337 486 
Q 3600 544 3809 666 
z
" transform="scale(0.015625)"/>
      </defs>
      <use xlink:href="#DejaVuSans-46"/>
      <use xlink:href="#DejaVuSans-65" x="52.019531"/>
      <use xlink:href="#DejaVuSans-64" x="113.542969"/>
      <use xlink:href="#DejaVuSans-41" x="177.019531"/>
      <use xlink:href="#DejaVuSans-56" x="239.052734"/>
      <use xlink:href="#DejaVuSans-47" x="307.460938"/>
     </g>
    </g>
    <g id="line2d_24">
     <path d="M 175.079063 71.013906 
L 186.079063 71.013906 
L 197.079063 71.013906 
" style="fill: none; stroke: #55a868; stroke-width: 1.5; stroke-linecap: round"/>
    </g>
    <g id="text_17">
     <!-- FedProto -->
     <g style="fill: #262626" transform="translate(205.879063 74.863906) scale(0.11 -0.11)">
      <use xlink:href="#DejaVuSans-46"/>
      <use xlink:href="#DejaVuSans-65" x="52.019531"/>
      <use xlink:href="#DejaVuSans-64" x="113.542969"/>
      <use xlink:href="#DejaVuSans-50" x="177.019531"/>
      <use xlink:href="#DejaVuSans-72" x="235.572266"/>
      <use xlink:href="#DejaVuSans-6f" x="274.435547"/>
      <use xlink:href="#DejaVuSans-74" x="335.617188"/>
      <use xlink:href="#DejaVuSans-6f" x="374.826172"/>
     </g>
    </g>
    <g id="line2d_25">
     <path d="M 175.079063 87.159844 
L 186.079063 87.159844 
L 197.079063 87.159844 
" style="fill: none; stroke: #c44e52; stroke-width: 1.5; stroke-linecap: round"/>
    </g>
    <g id="text_18">
     <!-- FedClassAvg -->
     <g style="fill: #262626" transform="translate(205.879063 91.009844) scale(0.11 -0.11)">
      <defs>
       <path id="DejaVuSans-43" d="M 4122 4306 
L 4122 3641 
Q 3803 3938 3442 4084 
Q 3081 4231 2675 4231 
Q 1875 4231 1450 3742 
Q 1025 3253 1025 2328 
Q 1025 1406 1450 917 
Q 1875 428 2675 428 
Q 3081 428 3442 575 
Q 3803 722 4122 1019 
L 4122 359 
Q 3791 134 3420 21 
Q 3050 -91 2638 -91 
Q 1578 -91 968 557 
Q 359 1206 359 2328 
Q 359 3453 968 4101 
Q 1578 4750 2638 4750 
Q 3056 4750 3426 4639 
Q 3797 4528 4122 4306 
z
" transform="scale(0.015625)"/>
       <path id="DejaVuSans-6c" d="M 603 4863 
L 1178 4863 
L 1178 0 
L 603 0 
L 603 4863 
z
" transform="scale(0.015625)"/>
      </defs>
      <use xlink:href="#DejaVuSans-46"/>
      <use xlink:href="#DejaVuSans-65" x="52.019531"/>
      <use xlink:href="#DejaVuSans-64" x="113.542969"/>
      <use xlink:href="#DejaVuSans-43" x="177.019531"/>
      <use xlink:href="#DejaVuSans-6c" x="246.84375"/>
      <use xlink:href="#DejaVuSans-61" x="274.626953"/>
      <use xlink:href="#DejaVuSans-73" x="335.90625"/>
      <use xlink:href="#DejaVuSans-73" x="388.005859"/>
      <use xlink:href="#DejaVuSans-41" x="440.105469"/>
      <use xlink:href="#DejaVuSans-76" x="502.638672"/>
      <use xlink:href="#DejaVuSans-67" x="561.818359"/>
     </g>
    </g>
    <g id="line2d_26">
     <path d="M 175.079063 103.305781 
L 186.079063 103.305781 
L 197.079063 103.305781 
" style="fill: none; stroke: #8172b3; stroke-width: 1.5; stroke-linecap: round"/>
    </g>
    <g id="text_19">
     <!-- FedPer -->
     <g style="fill: #262626" transform="translate(205.879063 107.155781) scale(0.11 -0.11)">
      <use xlink:href="#DejaVuSans-46"/>
      <use xlink:href="#DejaVuSans-65" x="52.019531"/>
      <use xlink:href="#DejaVuSans-64" x="113.542969"/>
      <use xlink:href="#DejaVuSans-50" x="177.019531"/>
      <use xlink:href="#DejaVuSans-65" x="233.697266"/>
      <use xlink:href="#DejaVuSans-72" x="295.220703"/>
     </g>
    </g>
   </g>
  </g>
 </g>
 <defs>
  <clipPath id="pa43f4d6482">
   <rect x="46.31125" y="7.2" width="357.12" height="266.112"/>
  </clipPath>
 </defs>
</svg>
