<?xml version="1.0" encoding="utf-8" standalone="no"?>
<!DOCTYPE svg PUBLIC "-//W3C//DTD SVG 1.1//EN"
  "http://www.w3.org/Graphics/SVG/1.1/DTD/svg11.dtd">
<svg xmlns:xlink="http://www.w3.org/1999/xlink" width="414.127187pt" height="316.271687pt" viewBox="0 0 414.127187 316.271687" xmlns="http://www.w3.org/2000/svg" version="1.1">
 <metadata>
  <rdf:RDF xmlns:dc="http://purl.org/dc/elements/1.1/" xmlns:cc="http://creativecommons.org/ns#" xmlns:rdf="http://www.w3.org/1999/02/22-rdf-syntax-ns#">
   <cc:Work>
    <dc:type rdf:resource="http://purl.org/dc/dcmitype/StillImage"/>
    <dc:date>2023-02-05T18:02:22.564384</dc:date>
    <dc:format>image/svg+xml</dc:format>
    <dc:creator>
     <cc:Agent>
      <dc:title>Matplotlib v3.6.3, https://matplotlib.org/</dc:title>
     </cc:Agent>
    </dc:creator>
   </cc:Work>
  </rdf:RDF>
 </metadata>
 <defs>
  <style type="text/css">*{stroke-linejoin: round; stroke-linecap: butt}</style>
 </defs>
 <g id="figure_1">
  <g id="patch_1">
   <path d="M 0 316.271687 
L 414.127187 316.271687 
L 414.127187 0 
L 0 0 
z
" style="fill: #ffffff"/>
  </g>
  <g id="axes_1">
   <g id="patch_2">
    <path d="M 49.807187 273.312 
L 406.927188 273.312 
L 406.927188 7.2 
L 49.807187 7.2 
z
" style="fill: #ffffff"/>
   </g>
   <g id="matplotlib.axis_1">
    <g id="xtick_1">
     <g id="line2d_1">
      <path d="M 59.414312 273.312 
L 59.414312 7.2 
" clip-path="url(#pf9b12e32c8)" style="fill: none; stroke: #cccccc; stroke-linecap: round"/>
     </g>
     <g id="text_1">
      <!-- 0 -->
      <g style="fill: #262626" transform="translate(55.914937 291.170281) scale(0.11 -0.11)">
       <defs>
        <path id="DejaVuSans-30" d="M 2034 4250 
Q 1547 4250 1301 3770 
Q 1056 3291 1056 2328 
Q 1056 1369 1301 889 
Q 1547 409 2034 409 
Q 2525 409 2770 889 
Q 3016 1369 3016 2328 
Q 3016 3291 2770 3770 
Q 2525 4250 2034 4250 
z
M 2034 4750 
Q 2819 4750 3233 4129 
Q 3647 3509 3647 2328 
Q 3647 1150 3233 529 
Q 2819 -91 2034 -91 
Q 1250 -91 836 529 
Q 422 1150 422 2328 
Q 422 3509 836 4129 
Q 1250 4750 2034 4750 
z
" transform="scale(0.015625)"/>
       </defs>
       <use xlink:href="#DejaVuSans-30"/>
      </g>
     </g>
    </g>
    <g id="xtick_2">
     <g id="line2d_2">
      <path d="M 125.670341 273.312 
L 125.670341 7.2 
" clip-path="url(#pf9b12e32c8)" style="fill: none; stroke: #cccccc; stroke-linecap: round"/>
     </g>
     <g id="text_2">
      <!-- 10 -->
      <g style="fill: #262626" transform="translate(118.671591 291.170281) scale(0.11 -0.11)">
       <defs>
        <path id="DejaVuSans-31" d="M 794 531 
L 1825 531 
L 1825 4091 
L 703 3866 
L 703 4441 
L 1819 4666 
L 2450 4666 
L 2450 531 
L 3481 531 
L 3481 0 
L 794 0 
L 794 531 
z
" transform="scale(0.015625)"/>
       </defs>
       <use xlink:href="#DejaVuSans-31"/>
       <use xlink:href="#DejaVuSans-30" x="63.623047"/>
      </g>
     </g>
    </g>
    <g id="xtick_3">
     <g id="line2d_3">
      <path d="M 191.926371 273.312 
L 191.926371 7.2 
" clip-path="url(#pf9b12e32c8)" style="fill: none; stroke: #cccccc; stroke-linecap: round"/>
     </g>
     <g id="text_3">
      <!-- 20 -->
      <g style="fill: #262626" transform="translate(184.927621 291.170281) scale(0.11 -0.11)">
       <defs>
        <path id="DejaVuSans-32" d="M 1228 531 
L 3431 531 
L 3431 0 
L 469 0 
L 469 531 
Q 828 903 1448 1529 
Q 2069 2156 2228 2338 
Q 2531 2678 2651 2914 
Q 2772 3150 2772 3378 
Q 2772 3750 2511 3984 
Q 2250 4219 1831 4219 
Q 1534 4219 1204 4116 
Q 875 4013 500 3803 
L 500 4441 
Q 881 4594 1212 4672 
Q 1544 4750 1819 4750 
Q 2544 4750 2975 4387 
Q 3406 4025 3406 3419 
Q 3406 3131 3298 2873 
Q 3191 2616 2906 2266 
Q 2828 2175 2409 1742 
Q 1991 1309 1228 531 
z
" transform="scale(0.015625)"/>
       </defs>
       <use xlink:href="#DejaVuSans-32"/>
       <use xlink:href="#DejaVuSans-30" x="63.623047"/>
      </g>
     </g>
    </g>
    <g id="xtick_4">
     <g id="line2d_4">
      <path d="M 258.182401 273.312 
L 258.182401 7.2 
" clip-path="url(#pf9b12e32c8)" style="fill: none; stroke: #cccccc; stroke-linecap: round"/>
     </g>
     <g id="text_4">
      <!-- 30 -->
      <g style="fill: #262626" transform="translate(251.183651 291.170281) scale(0.11 -0.11)">
       <defs>
        <path id="DejaVuSans-33" d="M 2597 2516 
Q 3050 2419 3304 2112 
Q 3559 1806 3559 1356 
Q 3559 666 3084 287 
Q 2609 -91 1734 -91 
Q 1441 -91 1130 -33 
Q 819 25 488 141 
L 488 750 
Q 750 597 1062 519 
Q 1375 441 1716 441 
Q 2309 441 2620 675 
Q 2931 909 2931 1356 
Q 2931 1769 2642 2001 
Q 2353 2234 1838 2234 
L 1294 2234 
L 1294 2753 
L 1863 2753 
Q 2328 2753 2575 2939 
Q 2822 3125 2822 3475 
Q 2822 3834 2567 4026 
Q 2313 4219 1838 4219 
Q 1578 4219 1281 4162 
Q 984 4106 628 3988 
L 628 4550 
Q 988 4650 1302 4700 
Q 1616 4750 1894 4750 
Q 2613 4750 3031 4423 
Q 3450 4097 3450 3541 
Q 3450 3153 3228 2886 
Q 3006 2619 2597 2516 
z
" transform="scale(0.015625)"/>
       </defs>
       <use xlink:href="#DejaVuSans-33"/>
       <use xlink:href="#DejaVuSans-30" x="63.623047"/>
      </g>
     </g>
    </g>
    <g id="xtick_5">
     <g id="line2d_5">
      <path d="M 324.438431 273.312 
L 324.438431 7.2 
" clip-path="url(#pf9b12e32c8)" style="fill: none; stroke: #cccccc; stroke-linecap: round"/>
     </g>
     <g id="text_5">
      <!-- 40 -->
      <g style="fill: #262626" transform="translate(317.439681 291.170281) scale(0.11 -0.11)">
       <defs>
        <path id="DejaVuSans-34" d="M 2419 4116 
L 825 1625 
L 2419 1625 
L 2419 4116 
z
M 2253 4666 
L 3047 4666 
L 3047 1625 
L 3713 1625 
L 3713 1100 
L 3047 1100 
L 3047 0 
L 2419 0 
L 2419 1100 
L 313 1100 
L 313 1709 
L 2253 4666 
z
" transform="scale(0.015625)"/>
       </defs>
       <use xlink:href="#DejaVuSans-34"/>
       <use xlink:href="#DejaVuSans-30" x="63.623047"/>
      </g>
     </g>
    </g>
    <g id="xtick_6">
     <g id="line2d_6">
      <path d="M 390.69446 273.312 
L 390.69446 7.2 
" clip-path="url(#pf9b12e32c8)" style="fill: none; stroke: #cccccc; stroke-linecap: round"/>
     </g>
     <g id="text_6">
      <!-- 50 -->
      <g style="fill: #262626" transform="translate(383.69571 291.170281) scale(0.11 -0.11)">
       <defs>
        <path id="DejaVuSans-35" d="M 691 4666 
L 3169 4666 
L 3169 4134 
L 1269 4134 
L 1269 2991 
Q 1406 3038 1543 3061 
Q 1681 3084 1819 3084 
Q 2600 3084 3056 2656 
Q 3513 2228 3513 1497 
Q 3513 744 3044 326 
Q 2575 -91 1722 -91 
Q 1428 -91 1123 -41 
Q 819 9 494 109 
L 494 744 
Q 775 591 1075 516 
Q 1375 441 1709 441 
Q 2250 441 2565 725 
Q 2881 1009 2881 1497 
Q 2881 1984 2565 2268 
Q 2250 2553 1709 2553 
Q 1456 2553 1204 2497 
Q 953 2441 691 2322 
L 691 4666 
z
" transform="scale(0.015625)"/>
       </defs>
       <use xlink:href="#DejaVuSans-35"/>
       <use xlink:href="#DejaVuSans-30" x="63.623047"/>
      </g>
     </g>
    </g>
    <g id="text_7">
     <!-- Round -->
     <g style="fill: #262626" transform="translate(209.382812 306.576062) scale(0.12 -0.12)">
      <defs>
       <path id="DejaVuSans-52" d="M 2841 2188 
Q 3044 2119 3236 1894 
Q 3428 1669 3622 1275 
L 4263 0 
L 3584 0 
L 2988 1197 
Q 2756 1666 2539 1819 
Q 2322 1972 1947 1972 
L 1259 1972 
L 1259 0 
L 628 0 
L 628 4666 
L 2053 4666 
Q 2853 4666 3247 4331 
Q 3641 3997 3641 3322 
Q 3641 2881 3436 2590 
Q 3231 2300 2841 2188 
z
M 1259 4147 
L 1259 2491 
L 2053 2491 
Q 2509 2491 2742 2702 
Q 2975 2913 2975 3322 
Q 2975 3731 2742 3939 
Q 2509 4147 2053 4147 
L 1259 4147 
z
" transform="scale(0.015625)"/>
       <path id="DejaVuSans-6f" d="M 1959 3097 
Q 1497 3097 1228 2736 
Q 959 2375 959 1747 
Q 959 1119 1226 758 
Q 1494 397 1959 397 
Q 2419 397 2687 759 
Q 2956 1122 2956 1747 
Q 2956 2369 2687 2733 
Q 2419 3097 1959 3097 
z
M 1959 3584 
Q 2709 3584 3137 3096 
Q 3566 2609 3566 1747 
Q 3566 888 3137 398 
Q 2709 -91 1959 -91 
Q 1206 -91 779 398 
Q 353 888 353 1747 
Q 353 2609 779 3096 
Q 1206 3584 1959 3584 
z
" transform="scale(0.015625)"/>
       <path id="DejaVuSans-75" d="M 544 1381 
L 544 3500 
L 1119 3500 
L 1119 1403 
Q 1119 906 1312 657 
Q 1506 409 1894 409 
Q 2359 409 2629 706 
Q 2900 1003 2900 1516 
L 2900 3500 
L 3475 3500 
L 3475 0 
L 2900 0 
L 2900 538 
Q 2691 219 2414 64 
Q 2138 -91 1772 -91 
Q 1169 -91 856 284 
Q 544 659 544 1381 
z
M 1991 3584 
L 1991 3584 
z
" transform="scale(0.015625)"/>
       <path id="DejaVuSans-6e" d="M 3513 2113 
L 3513 0 
L 2938 0 
L 2938 2094 
Q 2938 2591 2744 2837 
Q 2550 3084 2163 3084 
Q 1697 3084 1428 2787 
Q 1159 2491 1159 1978 
L 1159 0 
L 581 0 
L 581 3500 
L 1159 3500 
L 1159 2956 
Q 1366 3272 1645 3428 
Q 1925 3584 2291 3584 
Q 2894 3584 3203 3211 
Q 3513 2838 3513 2113 
z
" transform="scale(0.015625)"/>
       <path id="DejaVuSans-64" d="M 2906 2969 
L 2906 4863 
L 3481 4863 
L 3481 0 
L 2906 0 
L 2906 525 
Q 2725 213 2448 61 
Q 2172 -91 1784 -91 
Q 1150 -91 751 415 
Q 353 922 353 1747 
Q 353 2572 751 3078 
Q 1150 3584 1784 3584 
Q 2172 3584 2448 3432 
Q 2725 3281 2906 2969 
z
M 947 1747 
Q 947 1113 1208 752 
Q 1469 391 1925 391 
Q 2381 391 2643 752 
Q 2906 1113 2906 1747 
Q 2906 2381 2643 2742 
Q 2381 3103 1925 3103 
Q 1469 3103 1208 2742 
Q 947 2381 947 1747 
z
" transform="scale(0.015625)"/>
      </defs>
      <use xlink:href="#DejaVuSans-52"/>
      <use xlink:href="#DejaVuSans-6f" x="64.982422"/>
      <use xlink:href="#DejaVuSans-75" x="126.164062"/>
      <use xlink:href="#DejaVuSans-6e" x="189.542969"/>
      <use xlink:href="#DejaVuSans-64" x="252.921875"/>
     </g>
    </g>
   </g>
   <g id="matplotlib.axis_2">
    <g id="ytick_1">
     <g id="line2d_7">
      <path d="M 49.807187 272.902781 
L 406.927188 272.902781 
" clip-path="url(#pf9b12e32c8)" style="fill: none; stroke: #cccccc; stroke-linecap: round"/>
     </g>
     <g id="text_8">
      <!-- 0.0 -->
      <g style="fill: #262626" transform="translate(22.81375 277.081921) scale(0.11 -0.11)">
       <defs>
        <path id="DejaVuSans-2e" d="M 684 794 
L 1344 794 
L 1344 0 
L 684 0 
L 684 794 
z
" transform="scale(0.015625)"/>
       </defs>
       <use xlink:href="#DejaVuSans-30"/>
       <use xlink:href="#DejaVuSans-2e" x="63.623047"/>
       <use xlink:href="#DejaVuSans-30" x="95.410156"/>
      </g>
     </g>
    </g>
    <g id="ytick_2">
     <g id="line2d_8">
      <path d="M 49.807187 227.575868 
L 406.927188 227.575868 
" clip-path="url(#pf9b12e32c8)" style="fill: none; stroke: #cccccc; stroke-linecap: round"/>
     </g>
     <g id="text_9">
      <!-- 0.5 -->
      <g style="fill: #262626" transform="translate(22.81375 231.755009) scale(0.11 -0.11)">
       <use xlink:href="#DejaVuSans-30"/>
       <use xlink:href="#DejaVuSans-2e" x="63.623047"/>
       <use xlink:href="#DejaVuSans-35" x="95.410156"/>
      </g>
     </g>
    </g>
    <g id="ytick_3">
     <g id="line2d_9">
      <path d="M 49.807187 182.248955 
L 406.927188 182.248955 
" clip-path="url(#pf9b12e32c8)" style="fill: none; stroke: #cccccc; stroke-linecap: round"/>
     </g>
     <g id="text_10">
      <!-- 1.0 -->
      <g style="fill: #262626" transform="translate(22.81375 186.428096) scale(0.11 -0.11)">
       <use xlink:href="#DejaVuSans-31"/>
       <use xlink:href="#DejaVuSans-2e" x="63.623047"/>
       <use xlink:href="#DejaVuSans-30" x="95.410156"/>
      </g>
     </g>
    </g>
    <g id="ytick_4">
     <g id="line2d_10">
      <path d="M 49.807187 136.922043 
L 406.927188 136.922043 
" clip-path="url(#pf9b12e32c8)" style="fill: none; stroke: #cccccc; stroke-linecap: round"/>
     </g>
     <g id="text_11">
      <!-- 1.5 -->
      <g style="fill: #262626" transform="translate(22.81375 141.101183) scale(0.11 -0.11)">
       <use xlink:href="#DejaVuSans-31"/>
       <use xlink:href="#DejaVuSans-2e" x="63.623047"/>
       <use xlink:href="#DejaVuSans-35" x="95.410156"/>
      </g>
     </g>
    </g>
    <g id="ytick_5">
     <g id="line2d_11">
      <path d="M 49.807187 91.59513 
L 406.927188 91.59513 
" clip-path="url(#pf9b12e32c8)" style="fill: none; stroke: #cccccc; stroke-linecap: round"/>
     </g>
     <g id="text_12">
      <!-- 2.0 -->
      <g style="fill: #262626" transform="translate(22.81375 95.774271) scale(0.11 -0.11)">
       <use xlink:href="#DejaVuSans-32"/>
       <use xlink:href="#DejaVuSans-2e" x="63.623047"/>
       <use xlink:href="#DejaVuSans-30" x="95.410156"/>
      </g>
     </g>
    </g>
    <g id="ytick_6">
     <g id="line2d_12">
      <path d="M 49.807187 46.268218 
L 406.927188 46.268218 
" clip-path="url(#pf9b12e32c8)" style="fill: none; stroke: #cccccc; stroke-linecap: round"/>
     </g>
     <g id="text_13">
      <!-- 2.5 -->
      <g style="fill: #262626" transform="translate(22.81375 50.447358) scale(0.11 -0.11)">
       <use xlink:href="#DejaVuSans-32"/>
       <use xlink:href="#DejaVuSans-2e" x="63.623047"/>
       <use xlink:href="#DejaVuSans-35" x="95.410156"/>
      </g>
     </g>
    </g>
    <g id="text_14">
     <!-- Loss -->
     <g style="fill: #262626" transform="translate(16.318125 153.416625) rotate(-90) scale(0.12 -0.12)">
      <defs>
       <path id="DejaVuSans-4c" d="M 628 4666 
L 1259 4666 
L 1259 531 
L 3531 531 
L 3531 0 
L 628 0 
L 628 4666 
z
" transform="scale(0.015625)"/>
       <path id="DejaVuSans-73" d="M 2834 3397 
L 2834 2853 
Q 2591 2978 2328 3040 
Q 2066 3103 1784 3103 
Q 1356 3103 1142 2972 
Q 928 2841 928 2578 
Q 928 2378 1081 2264 
Q 1234 2150 1697 2047 
L 1894 2003 
Q 2506 1872 2764 1633 
Q 3022 1394 3022 966 
Q 3022 478 2636 193 
Q 2250 -91 1575 -91 
Q 1294 -91 989 -36 
Q 684 19 347 128 
L 347 722 
Q 666 556 975 473 
Q 1284 391 1588 391 
Q 1994 391 2212 530 
Q 2431 669 2431 922 
Q 2431 1156 2273 1281 
Q 2116 1406 1581 1522 
L 1381 1569 
Q 847 1681 609 1914 
Q 372 2147 372 2553 
Q 372 3047 722 3315 
Q 1072 3584 1716 3584 
Q 2034 3584 2315 3537 
Q 2597 3491 2834 3397 
z
" transform="scale(0.015625)"/>
      </defs>
      <use xlink:href="#DejaVuSans-4c"/>
      <use xlink:href="#DejaVuSans-6f" x="53.962891"/>
      <use xlink:href="#DejaVuSans-73" x="115.144531"/>
      <use xlink:href="#DejaVuSans-73" x="167.244141"/>
     </g>
    </g>
   </g>
   <g id="PolyCollection_1">
    <defs>
     <path id="me21f028548" d="M 66.039915 -245.224342 
L 66.039915 -213.063362 
L 72.665518 -179.622304 
L 79.291121 -161.780287 
L 85.916724 -143.134338 
L 92.542327 -128.663314 
L 99.16793 -116.531119 
L 105.793533 -103.715377 
L 112.419136 -101.014816 
L 119.044739 -89.618463 
L 125.670341 -82.271713 
L 132.295944 -78.912338 
L 138.921547 -76.714638 
L 145.54715 -74.316055 
L 152.172753 -72.162274 
L 158.798356 -70.31048 
L 165.423959 -70.010821 
L 172.049562 -67.478546 
L 178.675165 -65.232541 
L 185.300768 -65.917894 
L 191.926371 -65.591168 
L 198.551974 -65.328131 
L 205.177577 -64.093576 
L 211.80318 -62.728683 
L 218.428783 -62.245497 
L 225.054386 -62.791032 
L 231.679989 -61.375498 
L 238.305592 -60.392417 
L 244.931195 -59.679371 
L 251.556798 -60.828168 
L 258.182401 -60.12027 
L 264.808004 -59.954715 
L 271.433607 -58.677495 
L 278.05921 -58.139888 
L 284.684813 -58.814486 
L 291.310416 -57.497608 
L 297.936019 -57.56701 
L 304.561622 -57.069384 
L 311.187225 -57.115893 
L 317.812828 -57.171063 
L 324.438431 -57.475241 
L 331.064034 -56.743284 
L 337.689636 -56.355968 
L 344.315239 -55.898436 
L 350.940842 -56.092362 
L 357.566445 -55.862357 
L 364.192048 -56.208155 
L 370.817651 -55.930221 
L 377.443254 -55.781159 
L 384.068857 -55.717944 
L 390.69446 -55.055688 
L 390.69446 -62.402324 
L 390.69446 -62.402324 
L 384.068857 -63.937456 
L 377.443254 -63.930183 
L 370.817651 -65.034079 
L 364.192048 -65.294094 
L 357.566445 -65.158815 
L 350.940842 -64.070852 
L 344.315239 -63.4761 
L 337.689636 -63.348738 
L 331.064034 -64.090565 
L 324.438431 -67.015462 
L 317.812828 -66.688132 
L 311.187225 -66.885541 
L 304.561622 -67.701144 
L 297.936019 -68.414394 
L 291.310416 -71.919569 
L 284.684813 -70.359654 
L 278.05921 -70.654423 
L 271.433607 -71.819462 
L 264.808004 -73.249166 
L 258.182401 -72.501165 
L 251.556798 -74.001903 
L 244.931195 -72.62741 
L 238.305592 -73.183673 
L 231.679989 -72.990701 
L 225.054386 -75.674215 
L 218.428783 -74.841809 
L 211.80318 -72.548327 
L 205.177577 -77.639905 
L 198.551974 -78.479404 
L 191.926371 -82.200004 
L 185.300768 -79.971394 
L 178.675165 -77.330995 
L 172.049562 -81.636035 
L 165.423959 -85.313802 
L 158.798356 -87.547439 
L 152.172753 -91.049742 
L 145.54715 -93.573701 
L 138.921547 -96.482078 
L 132.295944 -96.226497 
L 125.670341 -98.652458 
L 119.044739 -119.021388 
L 112.419136 -135.710516 
L 105.793533 -136.606275 
L 99.16793 -152.443384 
L 92.542327 -164.053952 
L 85.916724 -177.675901 
L 79.291121 -196.946441 
L 72.665518 -216.210559 
L 66.039915 -245.224342 
z
" style="stroke: #dbe9f6; stroke-opacity: 0.2"/>
    </defs>
    <g clip-path="url(#pf9b12e32c8)">
     <use xlink:href="#me21f028548" x="0" y="316.271687" style="fill: #dbe9f6; fill-opacity: 0.2; stroke: #dbe9f6; stroke-opacity: 0.2"/>
    </g>
   </g>
   <g id="PolyCollection_2">
    <defs>
     <path id="m3d824f38df" d="M 66.039915 -256.174419 
L 66.039915 -237.060152 
L 72.665518 -219.74687 
L 79.291121 -214.168531 
L 85.916724 -188.16516 
L 92.542327 -177.42301 
L 99.16793 -166.077616 
L 105.793533 -151.94592 
L 112.419136 -152.678346 
L 119.044739 -139.445283 
L 125.670341 -129.478818 
L 132.295944 -128.688254 
L 138.921547 -130.117176 
L 145.54715 -119.586998 
L 152.172753 -110.986782 
L 158.798356 -109.257979 
L 165.423959 -117.714861 
L 172.049562 -113.885318 
L 178.675165 -101.047922 
L 185.300768 -110.989388 
L 191.926371 -108.495711 
L 198.551974 -105.902925 
L 205.177577 -102.44579 
L 211.80318 -98.769934 
L 218.428783 -97.867909 
L 225.054386 -99.897525 
L 231.679989 -98.871687 
L 238.305592 -93.146905 
L 244.931195 -93.493456 
L 251.556798 -103.135315 
L 258.182401 -96.364741 
L 264.808004 -103.249941 
L 271.433607 -91.807606 
L 278.05921 -89.63862 
L 284.684813 -100.511224 
L 291.310416 -85.491797 
L 297.936019 -86.794832 
L 304.561622 -88.767259 
L 311.187225 -87.744458 
L 317.812828 -87.739699 
L 324.438431 -91.195531 
L 331.064034 -87.493536 
L 337.689636 -82.990034 
L 344.315239 -84.414455 
L 350.940842 -81.396524 
L 357.566445 -81.003362 
L 364.192048 -86.225342 
L 370.817651 -84.743964 
L 377.443254 -89.656377 
L 384.068857 -94.193065 
L 390.69446 -81.984323 
L 390.69446 -92.507535 
L 390.69446 -92.507535 
L 384.068857 -114.604585 
L 377.443254 -109.02262 
L 370.817651 -98.057501 
L 364.192048 -108.484376 
L 357.566445 -92.244493 
L 350.940842 -95.184406 
L 344.315239 -97.001461 
L 337.689636 -94.394265 
L 331.064034 -101.720122 
L 324.438431 -115.963509 
L 317.812828 -107.801131 
L 311.187225 -103.29572 
L 304.561622 -105.162037 
L 297.936019 -99.364215 
L 291.310416 -95.962748 
L 284.684813 -120.628315 
L 278.05921 -110.779758 
L 271.433607 -119.478971 
L 264.808004 -135.447539 
L 258.182401 -123.463721 
L 251.556798 -135.357171 
L 244.931195 -114.68497 
L 238.305592 -116.419988 
L 231.679989 -122.474128 
L 225.054386 -126.353554 
L 218.428783 -121.385018 
L 211.80318 -114.158923 
L 205.177577 -122.623611 
L 198.551974 -136.912511 
L 191.926371 -135.410199 
L 185.300768 -141.960876 
L 178.675165 -115.344328 
L 172.049562 -130.828748 
L 165.423959 -132.410251 
L 158.798356 -125.750206 
L 152.172753 -127.493684 
L 145.54715 -144.151365 
L 138.921547 -150.57306 
L 132.295944 -147.668728 
L 125.670341 -140.211931 
L 119.044739 -165.659617 
L 112.419136 -184.56064 
L 105.793533 -179.579979 
L 99.16793 -194.787043 
L 92.542327 -196.682333 
L 85.916724 -211.892647 
L 79.291121 -229.506902 
L 72.665518 -234.669962 
L 66.039915 -256.174419 
z
" style="stroke: #bad6eb; stroke-opacity: 0.2"/>
    </defs>
    <g clip-path="url(#pf9b12e32c8)">
     <use xlink:href="#m3d824f38df" x="0" y="316.271687" style="fill: #bad6eb; fill-opacity: 0.2; stroke: #bad6eb; stroke-opacity: 0.2"/>
    </g>
   </g>
   <g id="PolyCollection_3">
    <defs>
     <path id="mfe7120b801" d="M 66.039915 -296.975687 
L 66.039915 -224.110818 
L 72.665518 -193.473828 
L 79.291121 -178.205152 
L 85.916724 -165.16597 
L 92.542327 -149.39143 
L 99.16793 -139.728738 
L 105.793533 -129.861505 
L 112.419136 -120.19329 
L 119.044739 -109.38961 
L 125.670341 -104.700207 
L 132.295944 -96.294162 
L 138.921547 -92.291312 
L 145.54715 -90.692001 
L 152.172753 -86.423729 
L 158.798356 -85.65201 
L 165.423959 -82.585747 
L 172.049562 -79.203649 
L 178.675165 -78.046382 
L 185.300768 -77.123395 
L 191.926371 -73.881247 
L 198.551974 -74.089308 
L 205.177577 -72.861607 
L 211.80318 -70.628336 
L 218.428783 -71.049369 
L 225.054386 -69.930562 
L 231.679989 -69.161598 
L 238.305592 -68.16375 
L 244.931195 -67.042388 
L 251.556798 -67.42269 
L 258.182401 -65.604217 
L 264.808004 -66.014573 
L 271.433607 -65.093707 
L 278.05921 -64.123367 
L 284.684813 -64.092686 
L 291.310416 -63.275902 
L 297.936019 -62.477802 
L 304.561622 -62.50012 
L 311.187225 -62.828564 
L 317.812828 -61.84805 
L 324.438431 -61.531534 
L 331.064034 -60.735824 
L 337.689636 -61.280567 
L 344.315239 -60.655141 
L 350.940842 -60.252243 
L 357.566445 -59.764257 
L 364.192048 -60.357964 
L 370.817651 -59.121571 
L 377.443254 -59.17651 
L 384.068857 -58.483337 
L 390.69446 -58.713129 
L 390.69446 -76.024761 
L 390.69446 -76.024761 
L 384.068857 -76.604007 
L 377.443254 -77.768327 
L 370.817651 -78.482408 
L 364.192048 -79.079694 
L 357.566445 -79.252839 
L 350.940842 -80.019834 
L 344.315239 -80.656056 
L 337.689636 -79.871645 
L 331.064034 -80.518453 
L 324.438431 -80.73434 
L 317.812828 -82.703351 
L 311.187225 -82.490614 
L 304.561622 -83.081793 
L 297.936019 -83.713321 
L 291.310416 -83.861943 
L 284.684813 -86.229106 
L 278.05921 -87.91355 
L 271.433607 -88.243789 
L 264.808004 -88.973332 
L 258.182401 -89.012257 
L 251.556798 -89.918334 
L 244.931195 -90.844172 
L 238.305592 -92.901955 
L 231.679989 -94.021899 
L 225.054386 -96.012471 
L 218.428783 -99.195411 
L 211.80318 -98.541872 
L 205.177577 -102.852391 
L 198.551974 -101.191669 
L 191.926371 -102.834726 
L 185.300768 -106.940171 
L 178.675165 -107.253386 
L 172.049562 -110.844003 
L 165.423959 -111.565646 
L 158.798356 -118.850984 
L 152.172753 -119.748128 
L 145.54715 -126.620486 
L 138.921547 -130.943131 
L 132.295944 -133.423078 
L 125.670341 -142.330573 
L 119.044739 -149.744228 
L 112.419136 -164.538919 
L 105.793533 -178.212791 
L 99.16793 -183.715996 
L 92.542327 -196.531315 
L 85.916724 -213.379574 
L 79.291121 -229.090309 
L 72.665518 -237.878684 
L 66.039915 -296.975687 
z
" style="stroke: #89bedc; stroke-opacity: 0.2"/>
    </defs>
    <g clip-path="url(#pf9b12e32c8)">
     <use xlink:href="#mfe7120b801" x="0" y="316.271687" style="fill: #89bedc; fill-opacity: 0.2; stroke: #89bedc; stroke-opacity: 0.2"/>
    </g>
   </g>
   <g id="PolyCollection_4">
    <defs>
     <path id="m1adfbf9952" d="M 66.039915 -249.778076 
L 66.039915 -232.126445 
L 72.665518 -222.259223 
L 79.291121 -210.144106 
L 85.916724 -203.62279 
L 92.542327 -199.468058 
L 99.16793 -183.881708 
L 105.793533 -169.664163 
L 112.419136 -167.728349 
L 119.044739 -166.789816 
L 125.670341 -159.986255 
L 132.295944 -150.429082 
L 138.921547 -141.350739 
L 145.54715 -135.087202 
L 152.172753 -127.891324 
L 158.798356 -122.1059 
L 165.423959 -118.496608 
L 172.049562 -111.690474 
L 178.675165 -107.613351 
L 185.300768 -102.916492 
L 191.926371 -97.25593 
L 198.551974 -94.935998 
L 205.177577 -91.253331 
L 211.80318 -87.604216 
L 218.428783 -84.831123 
L 225.054386 -83.895197 
L 231.679989 -80.24178 
L 238.305592 -77.677086 
L 244.931195 -76.138153 
L 251.556798 -72.636406 
L 258.182401 -71.143568 
L 264.808004 -71.43993 
L 271.433607 -69.736085 
L 278.05921 -68.841205 
L 284.684813 -67.824863 
L 291.310416 -65.707029 
L 297.936019 -65.129037 
L 304.561622 -64.754736 
L 311.187225 -63.384648 
L 317.812828 -62.762302 
L 324.438431 -62.940858 
L 331.064034 -62.116942 
L 337.689636 -61.567352 
L 344.315239 -61.397281 
L 350.940842 -60.885216 
L 357.566445 -60.626355 
L 364.192048 -60.312651 
L 370.817651 -59.948927 
L 377.443254 -59.109456 
L 384.068857 -58.636489 
L 390.69446 -58.703477 
L 390.69446 -72.554858 
L 390.69446 -72.554858 
L 384.068857 -71.860837 
L 377.443254 -73.123979 
L 370.817651 -73.577632 
L 364.192048 -74.565751 
L 357.566445 -75.418368 
L 350.940842 -76.555153 
L 344.315239 -76.744639 
L 337.689636 -76.671784 
L 331.064034 -76.66792 
L 324.438431 -78.196613 
L 317.812828 -78.176573 
L 311.187225 -80.362717 
L 304.561622 -80.940907 
L 297.936019 -81.566012 
L 291.310416 -82.646025 
L 284.684813 -86.182369 
L 278.05921 -90.273173 
L 271.433607 -90.612209 
L 264.808004 -91.29301 
L 258.182401 -93.072862 
L 251.556798 -95.691761 
L 244.931195 -98.797769 
L 238.305592 -101.691794 
L 231.679989 -105.28858 
L 225.054386 -109.385419 
L 218.428783 -116.593936 
L 211.80318 -119.204597 
L 205.177577 -121.034576 
L 198.551974 -124.819763 
L 191.926371 -129.80104 
L 185.300768 -138.675555 
L 178.675165 -141.290866 
L 172.049562 -144.688931 
L 165.423959 -149.640331 
L 158.798356 -156.901682 
L 152.172753 -160.482071 
L 145.54715 -166.304748 
L 138.921547 -169.801909 
L 132.295944 -175.320406 
L 125.670341 -184.661988 
L 119.044739 -192.173245 
L 112.419136 -196.642881 
L 105.793533 -201.426254 
L 99.16793 -210.99727 
L 92.542327 -220.67752 
L 85.916724 -228.022914 
L 79.291121 -233.152787 
L 72.665518 -240.695721 
L 66.039915 -249.778076 
z
" style="stroke: #539ecd; stroke-opacity: 0.2"/>
    </defs>
    <g clip-path="url(#pf9b12e32c8)">
     <use xlink:href="#m1adfbf9952" x="0" y="316.271687" style="fill: #539ecd; fill-opacity: 0.2; stroke: #539ecd; stroke-opacity: 0.2"/>
    </g>
   </g>
   <g id="line2d_13">
    <path d="M 66.039915 86.103909 
L 72.665518 118.802665 
L 79.291121 136.159498 
L 85.916724 155.218461 
L 92.542327 170.134786 
L 99.16793 183.293091 
L 105.793533 196.437828 
L 112.419136 199.677299 
L 119.044739 212.459969 
L 125.670341 226.390854 
L 132.295944 229.746446 
L 138.921547 230.697564 
L 145.54715 233.299408 
L 152.172753 236.367985 
L 158.798356 238.682087 
L 165.423959 239.883713 
L 172.049562 242.882099 
L 178.675165 246.022954 
L 185.300768 244.110174 
L 191.926371 243.953438 
L 198.551974 245.215921 
L 205.177577 246.313089 
L 211.80318 249.241398 
L 218.428783 248.751485 
L 225.054386 248.021865 
L 231.679989 249.970121 
L 238.305592 250.803734 
L 244.931195 251.468784 
L 251.556798 249.731955 
L 258.182401 251.01314 
L 264.808004 250.60486 
L 271.433607 251.886599 
L 278.05921 253.325117 
L 284.684813 252.760643 
L 291.310416 253.283092 
L 297.936019 254.037159 
L 304.561622 254.692266 
L 311.187225 255.190929 
L 317.812828 255.046112 
L 324.438431 254.773799 
L 331.064034 256.236948 
L 337.689636 256.78361 
L 344.315239 256.77972 
L 350.940842 256.574232 
L 357.566445 256.61856 
L 364.192048 256.303669 
L 370.817651 256.483572 
L 377.443254 256.861858 
L 384.068857 257.140692 
L 390.69446 258.107013 
" clip-path="url(#pf9b12e32c8)" style="fill: none; stroke: #dbe9f6; stroke-width: 1.5; stroke-linecap: round"/>
   </g>
   <g id="line2d_14">
    <path d="M 66.039915 69.900964 
L 72.665518 89.418057 
L 79.291121 94.576772 
L 85.916724 117.17996 
L 92.542327 129.530688 
L 99.16793 136.655938 
L 105.793533 151.988026 
L 112.419136 147.955101 
L 119.044739 164.670659 
L 125.670341 181.784471 
L 132.295944 177.931744 
L 138.921547 175.93887 
L 145.54715 185.304434 
L 152.172753 197.421869 
L 158.798356 199.197169 
L 165.423959 191.4998 
L 172.049562 193.982899 
L 178.675165 208.165077 
L 185.300768 190.243586 
L 191.926371 194.493389 
L 198.551974 195.879773 
L 205.177577 204.763432 
L 211.80318 209.710174 
L 218.428783 207.283155 
L 225.054386 203.328957 
L 231.679989 205.665707 
L 238.305592 212.066265 
L 244.931195 212.912643 
L 251.556798 198.057147 
L 258.182401 207.70812 
L 264.808004 198.014628 
L 271.433607 210.936842 
L 278.05921 217.296896 
L 284.684813 206.317877 
L 291.310416 225.590023 
L 297.936019 223.308855 
L 304.561622 219.897329 
L 311.187225 221.236311 
L 317.812828 219.416085 
L 324.438431 214.136245 
L 331.064034 222.072014 
L 337.689636 227.749056 
L 344.315239 225.55097 
L 350.940842 228.069 
L 357.566445 229.716194 
L 364.192048 219.85456 
L 370.817651 225.04039 
L 377.443254 217.17033 
L 384.068857 212.629899 
L 390.69446 228.917696 
" clip-path="url(#pf9b12e32c8)" style="fill: none; stroke: #bad6eb; stroke-width: 1.5; stroke-linecap: round"/>
   </g>
   <g id="line2d_15">
    <path d="M 66.039915 62.2763 
L 72.665518 100.319698 
L 79.291121 114.166534 
L 85.916724 127.866802 
L 92.542327 143.443731 
L 99.16793 155.566242 
L 105.793533 162.730387 
L 112.419136 173.839041 
L 119.044739 187.431263 
L 125.670341 193.280754 
L 132.295944 203.265315 
L 138.921547 204.552048 
L 145.54715 209.677361 
L 152.172753 213.858322 
L 158.798356 215.641057 
L 165.423959 219.382167 
L 172.049562 222.601866 
L 178.675165 224.716897 
L 185.300768 225.453319 
L 191.926371 227.668277 
L 198.551974 229.017384 
L 205.177577 229.870938 
L 211.80318 232.407696 
L 218.428783 232.833273 
L 225.054386 234.139378 
L 231.679989 235.856483 
L 238.305592 236.401303 
L 244.931195 237.828355 
L 251.556798 238.860591 
L 258.182401 239.574133 
L 264.808004 239.903039 
L 271.433607 240.515396 
L 278.05921 241.075438 
L 284.684813 242.232287 
L 291.310416 243.392975 
L 297.936019 243.937613 
L 304.561622 244.121517 
L 311.187225 244.78151 
L 317.812828 245.294695 
L 324.438431 245.646387 
L 331.064034 246.216577 
L 337.689636 246.504205 
L 344.315239 246.660929 
L 350.940842 247.283342 
L 357.566445 247.60485 
L 364.192048 248.007183 
L 370.817651 248.44234 
L 377.443254 249.020592 
L 384.068857 249.294578 
L 390.69446 249.590573 
" clip-path="url(#pf9b12e32c8)" style="fill: none; stroke: #89bedc; stroke-width: 1.5; stroke-linecap: round"/>
   </g>
   <g id="line2d_16">
    <path d="M 66.039915 74.842111 
L 72.665518 83.788852 
L 79.291121 94.688665 
L 85.916724 100.412588 
L 92.542327 106.220578 
L 99.16793 118.676485 
L 105.793533 129.958489 
L 112.419136 134.357347 
L 119.044739 137.726894 
L 125.670341 144.087881 
L 132.295944 153.843819 
L 138.921547 160.872422 
L 145.54715 166.497433 
L 152.172753 173.243178 
L 158.798356 178.652764 
L 165.423959 183.270557 
L 172.049562 188.231225 
L 178.675165 193.53076 
L 185.300768 197.0838 
L 191.926371 204.090442 
L 198.551974 206.819916 
L 205.177577 210.349134 
L 211.80318 214.436338 
L 218.428783 216.465587 
L 225.054386 220.575766 
L 231.679989 224.365621 
L 238.305592 227.458362 
L 244.931195 229.458972 
L 251.556798 232.688936 
L 258.182401 235.047027 
L 264.808004 235.750214 
L 271.433607 237.167281 
L 278.05921 238.135345 
L 284.684813 240.336632 
L 291.310416 242.964661 
L 297.936019 243.792379 
L 304.561622 244.242397 
L 311.187225 245.275477 
L 317.812828 246.135948 
L 324.438431 246.492511 
L 331.064034 247.339321 
L 337.689636 247.718672 
L 344.315239 247.933787 
L 350.940842 248.201623 
L 357.566445 249.0143 
L 364.192048 249.399899 
L 370.817651 250.030797 
L 377.443254 251.051914 
L 384.068857 251.52577 
L 390.69446 251.688746 
" clip-path="url(#pf9b12e32c8)" style="fill: none; stroke: #539ecd; stroke-width: 1.5; stroke-linecap: round"/>
   </g>
   <g id="line2d_17"/>
   <g id="line2d_18"/>
   <g id="line2d_19"/>
   <g id="line2d_20"/>
   <g id="patch_3">
    <path d="M 49.807187 273.312 
L 49.807187 7.2 
" style="fill: none; stroke: #cccccc; stroke-width: 1.25; stroke-linejoin: miter; stroke-linecap: square"/>
   </g>
   <g id="patch_4">
    <path d="M 406.927188 273.312 
L 406.927188 7.2 
" style="fill: none; stroke: #cccccc; stroke-width: 1.25; stroke-linejoin: miter; stroke-linecap: square"/>
   </g>
   <g id="patch_5">
    <path d="M 49.807187 273.312 
L 406.927187 273.312 
" style="fill: none; stroke: #cccccc; stroke-width: 1.25; stroke-linejoin: miter; stroke-linecap: square"/>
   </g>
   <g id="patch_6">
    <path d="M 49.807187 7.2 
L 406.927187 7.2 
" style="fill: none; stroke: #cccccc; stroke-width: 1.25; stroke-linejoin: miter; stroke-linecap: square"/>
   </g>
   <g id="legend_1">
    <g id="patch_7">
     <path d="M 295.242813 97.6975 
L 399.227188 97.6975 
Q 401.427188 97.6975 401.427188 95.4975 
L 401.427188 14.9 
Q 401.427188 12.7 399.227188 12.7 
L 295.242813 12.7 
Q 293.042813 12.7 293.042813 14.9 
L 293.042813 95.4975 
Q 293.042813 97.6975 295.242813 97.6975 
z
" style="fill: #ffffff; opacity: 0.8; stroke: #cccccc; stroke-linejoin: miter"/>
    </g>
    <g id="text_15">
     <!-- Strategy -->
     <g style="fill: #262626" transform="translate(321.525937 26.218125) scale(0.12 -0.12)">
      <defs>
       <path id="DejaVuSans-53" d="M 3425 4513 
L 3425 3897 
Q 3066 4069 2747 4153 
Q 2428 4238 2131 4238 
Q 1616 4238 1336 4038 
Q 1056 3838 1056 3469 
Q 1056 3159 1242 3001 
Q 1428 2844 1947 2747 
L 2328 2669 
Q 3034 2534 3370 2195 
Q 3706 1856 3706 1288 
Q 3706 609 3251 259 
Q 2797 -91 1919 -91 
Q 1588 -91 1214 -16 
Q 841 59 441 206 
L 441 856 
Q 825 641 1194 531 
Q 1563 422 1919 422 
Q 2459 422 2753 634 
Q 3047 847 3047 1241 
Q 3047 1584 2836 1778 
Q 2625 1972 2144 2069 
L 1759 2144 
Q 1053 2284 737 2584 
Q 422 2884 422 3419 
Q 422 4038 858 4394 
Q 1294 4750 2059 4750 
Q 2388 4750 2728 4690 
Q 3069 4631 3425 4513 
z
" transform="scale(0.015625)"/>
       <path id="DejaVuSans-74" d="M 1172 4494 
L 1172 3500 
L 2356 3500 
L 2356 3053 
L 1172 3053 
L 1172 1153 
Q 1172 725 1289 603 
Q 1406 481 1766 481 
L 2356 481 
L 2356 0 
L 1766 0 
Q 1100 0 847 248 
Q 594 497 594 1153 
L 594 3053 
L 172 3053 
L 172 3500 
L 594 3500 
L 594 4494 
L 1172 4494 
z
" transform="scale(0.015625)"/>
       <path id="DejaVuSans-72" d="M 2631 2963 
Q 2534 3019 2420 3045 
Q 2306 3072 2169 3072 
Q 1681 3072 1420 2755 
Q 1159 2438 1159 1844 
L 1159 0 
L 581 0 
L 581 3500 
L 1159 3500 
L 1159 2956 
Q 1341 3275 1631 3429 
Q 1922 3584 2338 3584 
Q 2397 3584 2469 3576 
Q 2541 3569 2628 3553 
L 2631 2963 
z
" transform="scale(0.015625)"/>
       <path id="DejaVuSans-61" d="M 2194 1759 
Q 1497 1759 1228 1600 
Q 959 1441 959 1056 
Q 959 750 1161 570 
Q 1363 391 1709 391 
Q 2188 391 2477 730 
Q 2766 1069 2766 1631 
L 2766 1759 
L 2194 1759 
z
M 3341 1997 
L 3341 0 
L 2766 0 
L 2766 531 
Q 2569 213 2275 61 
Q 1981 -91 1556 -91 
Q 1019 -91 701 211 
Q 384 513 384 1019 
Q 384 1609 779 1909 
Q 1175 2209 1959 2209 
L 2766 2209 
L 2766 2266 
Q 2766 2663 2505 2880 
Q 2244 3097 1772 3097 
Q 1472 3097 1187 3025 
Q 903 2953 641 2809 
L 641 3341 
Q 956 3463 1253 3523 
Q 1550 3584 1831 3584 
Q 2591 3584 2966 3190 
Q 3341 2797 3341 1997 
z
" transform="scale(0.015625)"/>
       <path id="DejaVuSans-65" d="M 3597 1894 
L 3597 1613 
L 953 1613 
Q 991 1019 1311 708 
Q 1631 397 2203 397 
Q 2534 397 2845 478 
Q 3156 559 3463 722 
L 3463 178 
Q 3153 47 2828 -22 
Q 2503 -91 2169 -91 
Q 1331 -91 842 396 
Q 353 884 353 1716 
Q 353 2575 817 3079 
Q 1281 3584 2069 3584 
Q 2775 3584 3186 3129 
Q 3597 2675 3597 1894 
z
M 3022 2063 
Q 3016 2534 2758 2815 
Q 2500 3097 2075 3097 
Q 1594 3097 1305 2825 
Q 1016 2553 972 2059 
L 3022 2063 
z
" transform="scale(0.015625)"/>
       <path id="DejaVuSans-67" d="M 2906 1791 
Q 2906 2416 2648 2759 
Q 2391 3103 1925 3103 
Q 1463 3103 1205 2759 
Q 947 2416 947 1791 
Q 947 1169 1205 825 
Q 1463 481 1925 481 
Q 2391 481 2648 825 
Q 2906 1169 2906 1791 
z
M 3481 434 
Q 3481 -459 3084 -895 
Q 2688 -1331 1869 -1331 
Q 1566 -1331 1297 -1286 
Q 1028 -1241 775 -1147 
L 775 -588 
Q 1028 -725 1275 -790 
Q 1522 -856 1778 -856 
Q 2344 -856 2625 -561 
Q 2906 -266 2906 331 
L 2906 616 
Q 2728 306 2450 153 
Q 2172 0 1784 0 
Q 1141 0 747 490 
Q 353 981 353 1791 
Q 353 2603 747 3093 
Q 1141 3584 1784 3584 
Q 2172 3584 2450 3431 
Q 2728 3278 2906 2969 
L 2906 3500 
L 3481 3500 
L 3481 434 
z
" transform="scale(0.015625)"/>
       <path id="DejaVuSans-79" d="M 2059 -325 
Q 1816 -950 1584 -1140 
Q 1353 -1331 966 -1331 
L 506 -1331 
L 506 -850 
L 844 -850 
Q 1081 -850 1212 -737 
Q 1344 -625 1503 -206 
L 1606 56 
L 191 3500 
L 800 3500 
L 1894 763 
L 2988 3500 
L 3597 3500 
L 2059 -325 
z
" transform="scale(0.015625)"/>
      </defs>
      <use xlink:href="#DejaVuSans-53"/>
      <use xlink:href="#DejaVuSans-74" x="63.476562"/>
      <use xlink:href="#DejaVuSans-72" x="102.685547"/>
      <use xlink:href="#DejaVuSans-61" x="143.798828"/>
      <use xlink:href="#DejaVuSans-74" x="205.078125"/>
      <use xlink:href="#DejaVuSans-65" x="244.287109"/>
      <use xlink:href="#DejaVuSans-67" x="305.810547"/>
      <use xlink:href="#DejaVuSans-79" x="369.287109"/>
     </g>
    </g>
    <g id="line2d_21">
     <path d="M 297.442813 38.722031 
L 308.442813 38.722031 
L 319.442813 38.722031 
" style="fill: none; stroke: #dbe9f6; stroke-width: 1.5; stroke-linecap: round"/>
    </g>
    <g id="text_16">
     <!-- FedPredict -->
     <g style="fill: #262626" transform="translate(328.242813 42.572031) scale(0.11 -0.11)">
      <defs>
       <path id="DejaVuSans-46" d="M 628 4666 
L 3309 4666 
L 3309 4134 
L 1259 4134 
L 1259 2759 
L 3109 2759 
L 3109 2228 
L 1259 2228 
L 1259 0 
L 628 0 
L 628 4666 
z
" transform="scale(0.015625)"/>
       <path id="DejaVuSans-50" d="M 1259 4147 
L 1259 2394 
L 2053 2394 
Q 2494 2394 2734 2622 
Q 2975 2850 2975 3272 
Q 2975 3691 2734 3919 
Q 2494 4147 2053 4147 
L 1259 4147 
z
M 628 4666 
L 2053 4666 
Q 2838 4666 3239 4311 
Q 3641 3956 3641 3272 
Q 3641 2581 3239 2228 
Q 2838 1875 2053 1875 
L 1259 1875 
L 1259 0 
L 628 0 
L 628 4666 
z
" transform="scale(0.015625)"/>
       <path id="DejaVuSans-69" d="M 603 3500 
L 1178 3500 
L 1178 0 
L 603 0 
L 603 3500 
z
M 603 4863 
L 1178 4863 
L 1178 4134 
L 603 4134 
L 603 4863 
z
" transform="scale(0.015625)"/>
       <path id="DejaVuSans-63" d="M 3122 3366 
L 3122 2828 
Q 2878 2963 2633 3030 
Q 2388 3097 2138 3097 
Q 1578 3097 1268 2742 
Q 959 2388 959 1747 
Q 959 1106 1268 751 
Q 1578 397 2138 397 
Q 2388 397 2633 464 
Q 2878 531 3122 666 
L 3122 134 
Q 2881 22 2623 -34 
Q 2366 -91 2075 -91 
Q 1284 -91 818 406 
Q 353 903 353 1747 
Q 353 2603 823 3093 
Q 1294 3584 2113 3584 
Q 2378 3584 2631 3529 
Q 2884 3475 3122 3366 
z
" transform="scale(0.015625)"/>
      </defs>
      <use xlink:href="#DejaVuSans-46"/>
      <use xlink:href="#DejaVuSans-65" x="52.019531"/>
      <use xlink:href="#DejaVuSans-64" x="113.542969"/>
      <use xlink:href="#DejaVuSans-50" x="177.019531"/>
      <use xlink:href="#DejaVuSans-72" x="235.572266"/>
      <use xlink:href="#DejaVuSans-65" x="274.435547"/>
      <use xlink:href="#DejaVuSans-64" x="335.958984"/>
      <use xlink:href="#DejaVuSans-69" x="399.435547"/>
      <use xlink:href="#DejaVuSans-63" x="427.21875"/>
      <use xlink:href="#DejaVuSans-74" x="482.199219"/>
     </g>
    </g>
    <g id="line2d_22">
     <path d="M 297.442813 54.867969 
L 308.442813 54.867969 
L 319.442813 54.867969 
" style="fill: none; stroke: #bad6eb; stroke-width: 1.5; stroke-linecap: round"/>
    </g>
    <g id="text_17">
     <!-- FedAVG -->
     <g style="fill: #262626" transform="translate(328.242813 58.717969) scale(0.11 -0.11)">
      <defs>
       <path id="DejaVuSans-41" d="M 2188 4044 
L 1331 1722 
L 3047 1722 
L 2188 4044 
z
M 1831 4666 
L 2547 4666 
L 4325 0 
L 3669 0 
L 3244 1197 
L 1141 1197 
L 716 0 
L 50 0 
L 1831 4666 
z
" transform="scale(0.015625)"/>
       <path id="DejaVuSans-56" d="M 1831 0 
L 50 4666 
L 709 4666 
L 2188 738 
L 3669 4666 
L 4325 4666 
L 2547 0 
L 1831 0 
z
" transform="scale(0.015625)"/>
       <path id="DejaVuSans-47" d="M 3809 666 
L 3809 1919 
L 2778 1919 
L 2778 2438 
L 4434 2438 
L 4434 434 
Q 4069 175 3628 42 
Q 3188 -91 2688 -91 
Q 1594 -91 976 548 
Q 359 1188 359 2328 
Q 359 3472 976 4111 
Q 1594 4750 2688 4750 
Q 3144 4750 3555 4637 
Q 3966 4525 4313 4306 
L 4313 3634 
Q 3963 3931 3569 4081 
Q 3175 4231 2741 4231 
Q 1884 4231 1454 3753 
Q 1025 3275 1025 2328 
Q 1025 1384 1454 906 
Q 1884 428 2741 428 
Q 3075 428 3337 486 
Q 3600 544 3809 666 
z
" transform="scale(0.015625)"/>
      </defs>
      <use xlink:href="#DejaVuSans-46"/>
      <use xlink:href="#DejaVuSans-65" x="52.019531"/>
      <use xlink:href="#DejaVuSans-64" x="113.542969"/>
      <use xlink:href="#DejaVuSans-41" x="177.019531"/>
      <use xlink:href="#DejaVuSans-56" x="239.052734"/>
      <use xlink:href="#DejaVuSans-47" x="307.460938"/>
     </g>
    </g>
    <g id="line2d_23">
     <path d="M 297.442813 71.013906 
L 308.442813 71.013906 
L 319.442813 71.013906 
" style="fill: none; stroke: #89bedc; stroke-width: 1.5; stroke-linecap: round"/>
    </g>
    <g id="text_18">
     <!-- FedClassAvg -->
     <g style="fill: #262626" transform="translate(328.242813 74.863906) scale(0.11 -0.11)">
      <defs>
       <path id="DejaVuSans-43" d="M 4122 4306 
L 4122 3641 
Q 3803 3938 3442 4084 
Q 3081 4231 2675 4231 
Q 1875 4231 1450 3742 
Q 1025 3253 1025 2328 
Q 1025 1406 1450 917 
Q 1875 428 2675 428 
Q 3081 428 3442 575 
Q 3803 722 4122 1019 
L 4122 359 
Q 3791 134 3420 21 
Q 3050 -91 2638 -91 
Q 1578 -91 968 557 
Q 359 1206 359 2328 
Q 359 3453 968 4101 
Q 1578 4750 2638 4750 
Q 3056 4750 3426 4639 
Q 3797 4528 4122 4306 
z
" transform="scale(0.015625)"/>
       <path id="DejaVuSans-6c" d="M 603 4863 
L 1178 4863 
L 1178 0 
L 603 0 
L 603 4863 
z
" transform="scale(0.015625)"/>
       <path id="DejaVuSans-76" d="M 191 3500 
L 800 3500 
L 1894 563 
L 2988 3500 
L 3597 3500 
L 2284 0 
L 1503 0 
L 191 3500 
z
" transform="scale(0.015625)"/>
      </defs>
      <use xlink:href="#DejaVuSans-46"/>
      <use xlink:href="#DejaVuSans-65" x="52.019531"/>
      <use xlink:href="#DejaVuSans-64" x="113.542969"/>
      <use xlink:href="#DejaVuSans-43" x="177.019531"/>
      <use xlink:href="#DejaVuSans-6c" x="246.84375"/>
      <use xlink:href="#DejaVuSans-61" x="274.626953"/>
      <use xlink:href="#DejaVuSans-73" x="335.90625"/>
      <use xlink:href="#DejaVuSans-73" x="388.005859"/>
      <use xlink:href="#DejaVuSans-41" x="440.105469"/>
      <use xlink:href="#DejaVuSans-76" x="502.638672"/>
      <use xlink:href="#DejaVuSans-67" x="561.818359"/>
     </g>
    </g>
    <g id="line2d_24">
     <path d="M 297.442813 87.159844 
L 308.442813 87.159844 
L 319.442813 87.159844 
" style="fill: none; stroke: #539ecd; stroke-width: 1.5; stroke-linecap: round"/>
    </g>
    <g id="text_19">
     <!-- FedPer -->
     <g style="fill: #262626" transform="translate(328.242813 91.009844) scale(0.11 -0.11)">
      <use xlink:href="#DejaVuSans-46"/>
      <use xlink:href="#DejaVuSans-65" x="52.019531"/>
      <use xlink:href="#DejaVuSans-64" x="113.542969"/>
      <use xlink:href="#DejaVuSans-50" x="177.019531"/>
      <use xlink:href="#DejaVuSans-65" x="233.697266"/>
      <use xlink:href="#DejaVuSans-72" x="295.220703"/>
     </g>
    </g>
   </g>
  </g>
 </g>
 <defs>
  <clipPath id="pf9b12e32c8">
   <rect x="49.807187" y="7.2" width="357.12" height="266.112"/>
  </clipPath>
 </defs>
</svg>
