<?xml version="1.0" encoding="utf-8" standalone="no"?>
<!DOCTYPE svg PUBLIC "-//W3C//DTD SVG 1.1//EN"
  "http://www.w3.org/Graphics/SVG/1.1/DTD/svg11.dtd">
<svg xmlns:xlink="http://www.w3.org/1999/xlink" width="417.63pt" height="316.271687pt" viewBox="0 0 417.63 316.271687" xmlns="http://www.w3.org/2000/svg" version="1.1">
 <metadata>
  <rdf:RDF xmlns:dc="http://purl.org/dc/elements/1.1/" xmlns:cc="http://creativecommons.org/ns#" xmlns:rdf="http://www.w3.org/1999/02/22-rdf-syntax-ns#">
   <cc:Work>
    <dc:type rdf:resource="http://purl.org/dc/dcmitype/StillImage"/>
    <dc:date>2023-03-01T17:20:39.723672</dc:date>
    <dc:format>image/svg+xml</dc:format>
    <dc:creator>
     <cc:Agent>
      <dc:title>Matplotlib v3.6.3, https://matplotlib.org/</dc:title>
     </cc:Agent>
    </dc:creator>
   </cc:Work>
  </rdf:RDF>
 </metadata>
 <defs>
  <style type="text/css">*{stroke-linejoin: round; stroke-linecap: butt}</style>
 </defs>
 <g id="figure_1">
  <g id="patch_1">
   <path d="M 0 316.271687 
L 417.63 316.271687 
L 417.63 0 
L 0 0 
z
" style="fill: #ffffff"/>
  </g>
  <g id="axes_1">
   <g id="patch_2">
    <path d="M 53.31 273.312 
L 410.43 273.312 
L 410.43 7.2 
L 53.31 7.2 
z
" style="fill: #ffffff"/>
   </g>
   <g id="matplotlib.axis_1">
    <g id="xtick_1">
     <g id="line2d_1">
      <path d="M 66.263388 273.312 
L 66.263388 7.2 
" clip-path="url(#p3e3c3cc3cb)" style="fill: none; stroke: #cccccc; stroke-linecap: round"/>
     </g>
     <g id="text_1">
      <!-- 0 -->
      <g style="fill: #262626" transform="translate(62.764013 291.170281) scale(0.11 -0.11)">
       <defs>
        <path id="DejaVuSans-30" d="M 2034 4250 
Q 1547 4250 1301 3770 
Q 1056 3291 1056 2328 
Q 1056 1369 1301 889 
Q 1547 409 2034 409 
Q 2525 409 2770 889 
Q 3016 1369 3016 2328 
Q 3016 3291 2770 3770 
Q 2525 4250 2034 4250 
z
M 2034 4750 
Q 2819 4750 3233 4129 
Q 3647 3509 3647 2328 
Q 3647 1150 3233 529 
Q 2819 -91 2034 -91 
Q 1250 -91 836 529 
Q 422 1150 422 2328 
Q 422 3509 836 4129 
Q 1250 4750 2034 4750 
z
" transform="scale(0.015625)"/>
       </defs>
       <use xlink:href="#DejaVuSans-30"/>
      </g>
     </g>
    </g>
    <g id="xtick_2">
     <g id="line2d_2">
      <path d="M 131.850165 273.312 
L 131.850165 7.2 
" clip-path="url(#p3e3c3cc3cb)" style="fill: none; stroke: #cccccc; stroke-linecap: round"/>
     </g>
     <g id="text_2">
      <!-- 20 -->
      <g style="fill: #262626" transform="translate(124.851415 291.170281) scale(0.11 -0.11)">
       <defs>
        <path id="DejaVuSans-32" d="M 1228 531 
L 3431 531 
L 3431 0 
L 469 0 
L 469 531 
Q 828 903 1448 1529 
Q 2069 2156 2228 2338 
Q 2531 2678 2651 2914 
Q 2772 3150 2772 3378 
Q 2772 3750 2511 3984 
Q 2250 4219 1831 4219 
Q 1534 4219 1204 4116 
Q 875 4013 500 3803 
L 500 4441 
Q 881 4594 1212 4672 
Q 1544 4750 1819 4750 
Q 2544 4750 2975 4387 
Q 3406 4025 3406 3419 
Q 3406 3131 3298 2873 
Q 3191 2616 2906 2266 
Q 2828 2175 2409 1742 
Q 1991 1309 1228 531 
z
" transform="scale(0.015625)"/>
       </defs>
       <use xlink:href="#DejaVuSans-32"/>
       <use xlink:href="#DejaVuSans-30" x="63.623047"/>
      </g>
     </g>
    </g>
    <g id="xtick_3">
     <g id="line2d_3">
      <path d="M 197.436942 273.312 
L 197.436942 7.2 
" clip-path="url(#p3e3c3cc3cb)" style="fill: none; stroke: #cccccc; stroke-linecap: round"/>
     </g>
     <g id="text_3">
      <!-- 40 -->
      <g style="fill: #262626" transform="translate(190.438192 291.170281) scale(0.11 -0.11)">
       <defs>
        <path id="DejaVuSans-34" d="M 2419 4116 
L 825 1625 
L 2419 1625 
L 2419 4116 
z
M 2253 4666 
L 3047 4666 
L 3047 1625 
L 3713 1625 
L 3713 1100 
L 3047 1100 
L 3047 0 
L 2419 0 
L 2419 1100 
L 313 1100 
L 313 1709 
L 2253 4666 
z
" transform="scale(0.015625)"/>
       </defs>
       <use xlink:href="#DejaVuSans-34"/>
       <use xlink:href="#DejaVuSans-30" x="63.623047"/>
      </g>
     </g>
    </g>
    <g id="xtick_4">
     <g id="line2d_4">
      <path d="M 263.023719 273.312 
L 263.023719 7.2 
" clip-path="url(#p3e3c3cc3cb)" style="fill: none; stroke: #cccccc; stroke-linecap: round"/>
     </g>
     <g id="text_4">
      <!-- 60 -->
      <g style="fill: #262626" transform="translate(256.024969 291.170281) scale(0.11 -0.11)">
       <defs>
        <path id="DejaVuSans-36" d="M 2113 2584 
Q 1688 2584 1439 2293 
Q 1191 2003 1191 1497 
Q 1191 994 1439 701 
Q 1688 409 2113 409 
Q 2538 409 2786 701 
Q 3034 994 3034 1497 
Q 3034 2003 2786 2293 
Q 2538 2584 2113 2584 
z
M 3366 4563 
L 3366 3988 
Q 3128 4100 2886 4159 
Q 2644 4219 2406 4219 
Q 1781 4219 1451 3797 
Q 1122 3375 1075 2522 
Q 1259 2794 1537 2939 
Q 1816 3084 2150 3084 
Q 2853 3084 3261 2657 
Q 3669 2231 3669 1497 
Q 3669 778 3244 343 
Q 2819 -91 2113 -91 
Q 1303 -91 875 529 
Q 447 1150 447 2328 
Q 447 3434 972 4092 
Q 1497 4750 2381 4750 
Q 2619 4750 2861 4703 
Q 3103 4656 3366 4563 
z
" transform="scale(0.015625)"/>
       </defs>
       <use xlink:href="#DejaVuSans-36"/>
       <use xlink:href="#DejaVuSans-30" x="63.623047"/>
      </g>
     </g>
    </g>
    <g id="xtick_5">
     <g id="line2d_5">
      <path d="M 328.610496 273.312 
L 328.610496 7.2 
" clip-path="url(#p3e3c3cc3cb)" style="fill: none; stroke: #cccccc; stroke-linecap: round"/>
     </g>
     <g id="text_5">
      <!-- 80 -->
      <g style="fill: #262626" transform="translate(321.611746 291.170281) scale(0.11 -0.11)">
       <defs>
        <path id="DejaVuSans-38" d="M 2034 2216 
Q 1584 2216 1326 1975 
Q 1069 1734 1069 1313 
Q 1069 891 1326 650 
Q 1584 409 2034 409 
Q 2484 409 2743 651 
Q 3003 894 3003 1313 
Q 3003 1734 2745 1975 
Q 2488 2216 2034 2216 
z
M 1403 2484 
Q 997 2584 770 2862 
Q 544 3141 544 3541 
Q 544 4100 942 4425 
Q 1341 4750 2034 4750 
Q 2731 4750 3128 4425 
Q 3525 4100 3525 3541 
Q 3525 3141 3298 2862 
Q 3072 2584 2669 2484 
Q 3125 2378 3379 2068 
Q 3634 1759 3634 1313 
Q 3634 634 3220 271 
Q 2806 -91 2034 -91 
Q 1263 -91 848 271 
Q 434 634 434 1313 
Q 434 1759 690 2068 
Q 947 2378 1403 2484 
z
M 1172 3481 
Q 1172 3119 1398 2916 
Q 1625 2713 2034 2713 
Q 2441 2713 2670 2916 
Q 2900 3119 2900 3481 
Q 2900 3844 2670 4047 
Q 2441 4250 2034 4250 
Q 1625 4250 1398 4047 
Q 1172 3844 1172 3481 
z
" transform="scale(0.015625)"/>
       </defs>
       <use xlink:href="#DejaVuSans-38"/>
       <use xlink:href="#DejaVuSans-30" x="63.623047"/>
      </g>
     </g>
    </g>
    <g id="xtick_6">
     <g id="line2d_6">
      <path d="M 394.197273 273.312 
L 394.197273 7.2 
" clip-path="url(#p3e3c3cc3cb)" style="fill: none; stroke: #cccccc; stroke-linecap: round"/>
     </g>
     <g id="text_6">
      <!-- 100 -->
      <g style="fill: #262626" transform="translate(383.699148 291.170281) scale(0.11 -0.11)">
       <defs>
        <path id="DejaVuSans-31" d="M 794 531 
L 1825 531 
L 1825 4091 
L 703 3866 
L 703 4441 
L 1819 4666 
L 2450 4666 
L 2450 531 
L 3481 531 
L 3481 0 
L 794 0 
L 794 531 
z
" transform="scale(0.015625)"/>
       </defs>
       <use xlink:href="#DejaVuSans-31"/>
       <use xlink:href="#DejaVuSans-30" x="63.623047"/>
       <use xlink:href="#DejaVuSans-30" x="127.246094"/>
      </g>
     </g>
    </g>
    <g id="text_7">
     <!-- Round -->
     <g style="fill: #262626" transform="translate(212.885625 306.576062) scale(0.12 -0.12)">
      <defs>
       <path id="DejaVuSans-52" d="M 2841 2188 
Q 3044 2119 3236 1894 
Q 3428 1669 3622 1275 
L 4263 0 
L 3584 0 
L 2988 1197 
Q 2756 1666 2539 1819 
Q 2322 1972 1947 1972 
L 1259 1972 
L 1259 0 
L 628 0 
L 628 4666 
L 2053 4666 
Q 2853 4666 3247 4331 
Q 3641 3997 3641 3322 
Q 3641 2881 3436 2590 
Q 3231 2300 2841 2188 
z
M 1259 4147 
L 1259 2491 
L 2053 2491 
Q 2509 2491 2742 2702 
Q 2975 2913 2975 3322 
Q 2975 3731 2742 3939 
Q 2509 4147 2053 4147 
L 1259 4147 
z
" transform="scale(0.015625)"/>
       <path id="DejaVuSans-6f" d="M 1959 3097 
Q 1497 3097 1228 2736 
Q 959 2375 959 1747 
Q 959 1119 1226 758 
Q 1494 397 1959 397 
Q 2419 397 2687 759 
Q 2956 1122 2956 1747 
Q 2956 2369 2687 2733 
Q 2419 3097 1959 3097 
z
M 1959 3584 
Q 2709 3584 3137 3096 
Q 3566 2609 3566 1747 
Q 3566 888 3137 398 
Q 2709 -91 1959 -91 
Q 1206 -91 779 398 
Q 353 888 353 1747 
Q 353 2609 779 3096 
Q 1206 3584 1959 3584 
z
" transform="scale(0.015625)"/>
       <path id="DejaVuSans-75" d="M 544 1381 
L 544 3500 
L 1119 3500 
L 1119 1403 
Q 1119 906 1312 657 
Q 1506 409 1894 409 
Q 2359 409 2629 706 
Q 2900 1003 2900 1516 
L 2900 3500 
L 3475 3500 
L 3475 0 
L 2900 0 
L 2900 538 
Q 2691 219 2414 64 
Q 2138 -91 1772 -91 
Q 1169 -91 856 284 
Q 544 659 544 1381 
z
M 1991 3584 
L 1991 3584 
z
" transform="scale(0.015625)"/>
       <path id="DejaVuSans-6e" d="M 3513 2113 
L 3513 0 
L 2938 0 
L 2938 2094 
Q 2938 2591 2744 2837 
Q 2550 3084 2163 3084 
Q 1697 3084 1428 2787 
Q 1159 2491 1159 1978 
L 1159 0 
L 581 0 
L 581 3500 
L 1159 3500 
L 1159 2956 
Q 1366 3272 1645 3428 
Q 1925 3584 2291 3584 
Q 2894 3584 3203 3211 
Q 3513 2838 3513 2113 
z
" transform="scale(0.015625)"/>
       <path id="DejaVuSans-64" d="M 2906 2969 
L 2906 4863 
L 3481 4863 
L 3481 0 
L 2906 0 
L 2906 525 
Q 2725 213 2448 61 
Q 2172 -91 1784 -91 
Q 1150 -91 751 415 
Q 353 922 353 1747 
Q 353 2572 751 3078 
Q 1150 3584 1784 3584 
Q 2172 3584 2448 3432 
Q 2725 3281 2906 2969 
z
M 947 1747 
Q 947 1113 1208 752 
Q 1469 391 1925 391 
Q 2381 391 2643 752 
Q 2906 1113 2906 1747 
Q 2906 2381 2643 2742 
Q 2381 3103 1925 3103 
Q 1469 3103 1208 2742 
Q 947 2381 947 1747 
z
" transform="scale(0.015625)"/>
      </defs>
      <use xlink:href="#DejaVuSans-52"/>
      <use xlink:href="#DejaVuSans-6f" x="64.982422"/>
      <use xlink:href="#DejaVuSans-75" x="126.164062"/>
      <use xlink:href="#DejaVuSans-6e" x="189.542969"/>
      <use xlink:href="#DejaVuSans-64" x="252.921875"/>
     </g>
    </g>
   </g>
   <g id="matplotlib.axis_2">
    <g id="ytick_1">
     <g id="line2d_7">
      <path d="M 53.31 232.111193 
L 410.43 232.111193 
" clip-path="url(#p3e3c3cc3cb)" style="fill: none; stroke: #cccccc; stroke-linecap: round"/>
     </g>
     <g id="text_8">
      <!-- 20 -->
      <g style="fill: #262626" transform="translate(29.8125 236.290334) scale(0.11 -0.11)">
       <use xlink:href="#DejaVuSans-32"/>
       <use xlink:href="#DejaVuSans-30" x="63.623047"/>
      </g>
     </g>
    </g>
    <g id="ytick_2">
     <g id="line2d_8">
      <path d="M 53.31 178.228877 
L 410.43 178.228877 
" clip-path="url(#p3e3c3cc3cb)" style="fill: none; stroke: #cccccc; stroke-linecap: round"/>
     </g>
     <g id="text_9">
      <!-- 40 -->
      <g style="fill: #262626" transform="translate(29.8125 182.408017) scale(0.11 -0.11)">
       <use xlink:href="#DejaVuSans-34"/>
       <use xlink:href="#DejaVuSans-30" x="63.623047"/>
      </g>
     </g>
    </g>
    <g id="ytick_3">
     <g id="line2d_9">
      <path d="M 53.31 124.34656 
L 410.43 124.34656 
" clip-path="url(#p3e3c3cc3cb)" style="fill: none; stroke: #cccccc; stroke-linecap: round"/>
     </g>
     <g id="text_10">
      <!-- 60 -->
      <g style="fill: #262626" transform="translate(29.8125 128.525701) scale(0.11 -0.11)">
       <use xlink:href="#DejaVuSans-36"/>
       <use xlink:href="#DejaVuSans-30" x="63.623047"/>
      </g>
     </g>
    </g>
    <g id="ytick_4">
     <g id="line2d_10">
      <path d="M 53.31 70.464244 
L 410.43 70.464244 
" clip-path="url(#p3e3c3cc3cb)" style="fill: none; stroke: #cccccc; stroke-linecap: round"/>
     </g>
     <g id="text_11">
      <!-- 80 -->
      <g style="fill: #262626" transform="translate(29.8125 74.643384) scale(0.11 -0.11)">
       <use xlink:href="#DejaVuSans-38"/>
       <use xlink:href="#DejaVuSans-30" x="63.623047"/>
      </g>
     </g>
    </g>
    <g id="ytick_5">
     <g id="line2d_11">
      <path d="M 53.31 16.581927 
L 410.43 16.581927 
" clip-path="url(#p3e3c3cc3cb)" style="fill: none; stroke: #cccccc; stroke-linecap: round"/>
     </g>
     <g id="text_12">
      <!-- 100 -->
      <g style="fill: #262626" transform="translate(22.81375 20.761068) scale(0.11 -0.11)">
       <use xlink:href="#DejaVuSans-31"/>
       <use xlink:href="#DejaVuSans-30" x="63.623047"/>
       <use xlink:href="#DejaVuSans-30" x="127.246094"/>
      </g>
     </g>
    </g>
    <g id="text_13">
     <!-- Accuracy (%) -->
     <g style="fill: #262626" transform="translate(16.318125 179.939437) rotate(-90) scale(0.12 -0.12)">
      <defs>
       <path id="DejaVuSans-41" d="M 2188 4044 
L 1331 1722 
L 3047 1722 
L 2188 4044 
z
M 1831 4666 
L 2547 4666 
L 4325 0 
L 3669 0 
L 3244 1197 
L 1141 1197 
L 716 0 
L 50 0 
L 1831 4666 
z
" transform="scale(0.015625)"/>
       <path id="DejaVuSans-63" d="M 3122 3366 
L 3122 2828 
Q 2878 2963 2633 3030 
Q 2388 3097 2138 3097 
Q 1578 3097 1268 2742 
Q 959 2388 959 1747 
Q 959 1106 1268 751 
Q 1578 397 2138 397 
Q 2388 397 2633 464 
Q 2878 531 3122 666 
L 3122 134 
Q 2881 22 2623 -34 
Q 2366 -91 2075 -91 
Q 1284 -91 818 406 
Q 353 903 353 1747 
Q 353 2603 823 3093 
Q 1294 3584 2113 3584 
Q 2378 3584 2631 3529 
Q 2884 3475 3122 3366 
z
" transform="scale(0.015625)"/>
       <path id="DejaVuSans-72" d="M 2631 2963 
Q 2534 3019 2420 3045 
Q 2306 3072 2169 3072 
Q 1681 3072 1420 2755 
Q 1159 2438 1159 1844 
L 1159 0 
L 581 0 
L 581 3500 
L 1159 3500 
L 1159 2956 
Q 1341 3275 1631 3429 
Q 1922 3584 2338 3584 
Q 2397 3584 2469 3576 
Q 2541 3569 2628 3553 
L 2631 2963 
z
" transform="scale(0.015625)"/>
       <path id="DejaVuSans-61" d="M 2194 1759 
Q 1497 1759 1228 1600 
Q 959 1441 959 1056 
Q 959 750 1161 570 
Q 1363 391 1709 391 
Q 2188 391 2477 730 
Q 2766 1069 2766 1631 
L 2766 1759 
L 2194 1759 
z
M 3341 1997 
L 3341 0 
L 2766 0 
L 2766 531 
Q 2569 213 2275 61 
Q 1981 -91 1556 -91 
Q 1019 -91 701 211 
Q 384 513 384 1019 
Q 384 1609 779 1909 
Q 1175 2209 1959 2209 
L 2766 2209 
L 2766 2266 
Q 2766 2663 2505 2880 
Q 2244 3097 1772 3097 
Q 1472 3097 1187 3025 
Q 903 2953 641 2809 
L 641 3341 
Q 956 3463 1253 3523 
Q 1550 3584 1831 3584 
Q 2591 3584 2966 3190 
Q 3341 2797 3341 1997 
z
" transform="scale(0.015625)"/>
       <path id="DejaVuSans-79" d="M 2059 -325 
Q 1816 -950 1584 -1140 
Q 1353 -1331 966 -1331 
L 506 -1331 
L 506 -850 
L 844 -850 
Q 1081 -850 1212 -737 
Q 1344 -625 1503 -206 
L 1606 56 
L 191 3500 
L 800 3500 
L 1894 763 
L 2988 3500 
L 3597 3500 
L 2059 -325 
z
" transform="scale(0.015625)"/>
       <path id="DejaVuSans-20" transform="scale(0.015625)"/>
       <path id="DejaVuSans-28" d="M 1984 4856 
Q 1566 4138 1362 3434 
Q 1159 2731 1159 2009 
Q 1159 1288 1364 580 
Q 1569 -128 1984 -844 
L 1484 -844 
Q 1016 -109 783 600 
Q 550 1309 550 2009 
Q 550 2706 781 3412 
Q 1013 4119 1484 4856 
L 1984 4856 
z
" transform="scale(0.015625)"/>
       <path id="DejaVuSans-25" d="M 4653 2053 
Q 4381 2053 4226 1822 
Q 4072 1591 4072 1178 
Q 4072 772 4226 539 
Q 4381 306 4653 306 
Q 4919 306 5073 539 
Q 5228 772 5228 1178 
Q 5228 1588 5073 1820 
Q 4919 2053 4653 2053 
z
M 4653 2450 
Q 5147 2450 5437 2106 
Q 5728 1763 5728 1178 
Q 5728 594 5436 251 
Q 5144 -91 4653 -91 
Q 4153 -91 3862 251 
Q 3572 594 3572 1178 
Q 3572 1766 3864 2108 
Q 4156 2450 4653 2450 
z
M 1428 4353 
Q 1159 4353 1004 4120 
Q 850 3888 850 3481 
Q 850 3069 1003 2837 
Q 1156 2606 1428 2606 
Q 1700 2606 1854 2837 
Q 2009 3069 2009 3481 
Q 2009 3884 1853 4118 
Q 1697 4353 1428 4353 
z
M 4250 4750 
L 4750 4750 
L 1831 -91 
L 1331 -91 
L 4250 4750 
z
M 1428 4750 
Q 1922 4750 2215 4408 
Q 2509 4066 2509 3481 
Q 2509 2891 2217 2550 
Q 1925 2209 1428 2209 
Q 931 2209 642 2551 
Q 353 2894 353 3481 
Q 353 4063 643 4406 
Q 934 4750 1428 4750 
z
" transform="scale(0.015625)"/>
       <path id="DejaVuSans-29" d="M 513 4856 
L 1013 4856 
Q 1481 4119 1714 3412 
Q 1947 2706 1947 2009 
Q 1947 1309 1714 600 
Q 1481 -109 1013 -844 
L 513 -844 
Q 928 -128 1133 580 
Q 1338 1288 1338 2009 
Q 1338 2731 1133 3434 
Q 928 4138 513 4856 
z
" transform="scale(0.015625)"/>
      </defs>
      <use xlink:href="#DejaVuSans-41"/>
      <use xlink:href="#DejaVuSans-63" x="66.658203"/>
      <use xlink:href="#DejaVuSans-63" x="121.638672"/>
      <use xlink:href="#DejaVuSans-75" x="176.619141"/>
      <use xlink:href="#DejaVuSans-72" x="239.998047"/>
      <use xlink:href="#DejaVuSans-61" x="281.111328"/>
      <use xlink:href="#DejaVuSans-63" x="342.390625"/>
      <use xlink:href="#DejaVuSans-79" x="397.371094"/>
      <use xlink:href="#DejaVuSans-20" x="456.550781"/>
      <use xlink:href="#DejaVuSans-28" x="488.337891"/>
      <use xlink:href="#DejaVuSans-25" x="527.351562"/>
      <use xlink:href="#DejaVuSans-29" x="622.371094"/>
     </g>
    </g>
   </g>
   <g id="PolyCollection_1">
    <defs>
     <path id="mb155b44dc7" d="M 69.542727 -140.635442 
L 69.542727 -80.271495 
L 72.822066 -142.42361 
L 76.101405 -156.809537 
L 79.380744 -196.837532 
L 82.660083 -232.085158 
L 85.939421 -237.17912 
L 89.21876 -248.954575 
L 92.498099 -261.641627 
L 95.777438 -260.076698 
L 99.056777 -270.256352 
L 102.336116 -262.535954 
L 105.615455 -268.879461 
L 108.894793 -272.689093 
L 112.174132 -281.114716 
L 115.453471 -280.769862 
L 118.73281 -280.159683 
L 122.012149 -285.927209 
L 125.291488 -288.32759 
L 128.570826 -288.006584 
L 131.850165 -287.462265 
L 135.129504 -288.439255 
L 138.408843 -288.74382 
L 141.688182 -284.244522 
L 144.967521 -287.364373 
L 148.24686 -287.158549 
L 151.526198 -287.755756 
L 154.805537 -282.467406 
L 158.084876 -282.912612 
L 161.364215 -278.29228 
L 164.643554 -277.263954 
L 167.922893 -284.983143 
L 171.202231 -283.369734 
L 174.48157 -284.183307 
L 177.760909 -285.700471 
L 181.040248 -288.022568 
L 184.319587 -276.824671 
L 187.598926 -289.764232 
L 190.878264 -290.830953 
L 194.157603 -281.363549 
L 197.436942 -285.951568 
L 200.716281 -290.660659 
L 203.99562 -290.676426 
L 207.274959 -290.636603 
L 210.554298 -290.501057 
L 213.833636 -278.69375 
L 217.112975 -288.053633 
L 220.392314 -288.044176 
L 223.671653 -286.935073 
L 226.950992 -288.712364 
L 230.230331 -290.634364 
L 233.509669 -289.965456 
L 236.789008 -291.694303 
L 240.068347 -290.300196 
L 243.347686 -291.791353 
L 246.627025 -292.231924 
L 249.906364 -292.120353 
L 253.185702 -290.185749 
L 256.465041 -291.100861 
L 259.74438 -291.592934 
L 263.023719 -288.14156 
L 266.303058 -287.310463 
L 269.582397 -293.133194 
L 272.861736 -288.939849 
L 276.141074 -291.904504 
L 279.420413 -272.864768 
L 282.699752 -293.234703 
L 285.979091 -292.015933 
L 289.25843 -294.197501 
L 292.537769 -294.061606 
L 295.817107 -285.048122 
L 299.096446 -284.156376 
L 302.375785 -283.480295 
L 305.655124 -283.741486 
L 308.934463 -283.283259 
L 312.213802 -284.296081 
L 315.49314 -283.640279 
L 318.772479 -283.564647 
L 322.051818 -284.396762 
L 325.331157 -283.784958 
L 328.610496 -283.604337 
L 331.889835 -283.581255 
L 335.169174 -283.276527 
L 338.448512 -284.559242 
L 341.727851 -283.34349 
L 345.00719 -284.209057 
L 348.286529 -282.480431 
L 351.565868 -283.446286 
L 354.845207 -281.394184 
L 358.124545 -282.609241 
L 361.403884 -280.360789 
L 364.683223 -281.805654 
L 367.962562 -283.732682 
L 371.241901 -283.660783 
L 374.52124 -283.19994 
L 377.800579 -283.160037 
L 381.079917 -283.079539 
L 384.359256 -283.67395 
L 387.638595 -283.097865 
L 390.917934 -282.854178 
L 394.197273 -283.497538 
L 394.197273 -295.084971 
L 394.197273 -295.084971 
L 390.917934 -294.592736 
L 387.638595 -294.906285 
L 384.359256 -295.196718 
L 381.079917 -295.204523 
L 377.800579 -294.713666 
L 374.52124 -294.609551 
L 371.241901 -294.778307 
L 367.962562 -294.737014 
L 364.683223 -294.174435 
L 361.403884 -293.378349 
L 358.124545 -294.684677 
L 354.845207 -294.388043 
L 351.565868 -294.951208 
L 348.286529 -294.666752 
L 345.00719 -294.855566 
L 341.727851 -294.793097 
L 338.448512 -294.895604 
L 335.169174 -294.393811 
L 331.889835 -294.870556 
L 328.610496 -294.808981 
L 325.331157 -294.664597 
L 322.051818 -294.86215 
L 318.772479 -294.510516 
L 315.49314 -295.125788 
L 312.213802 -295.186176 
L 308.934463 -294.60281 
L 305.655124 -294.770556 
L 302.375785 -294.751857 
L 299.096446 -295.074369 
L 295.817107 -295.413489 
L 292.537769 -296.835062 
L 289.25843 -296.975687 
L 285.979091 -296.818507 
L 282.699752 -296.901808 
L 279.420413 -296.769169 
L 276.141074 -296.586311 
L 272.861736 -296.07657 
L 269.582397 -296.317095 
L 266.303058 -295.690588 
L 263.023719 -296.320767 
L 259.74438 -296.233714 
L 256.465041 -296.356992 
L 253.185702 -296.749623 
L 249.906364 -296.65726 
L 246.627025 -296.308084 
L 243.347686 -296.470566 
L 240.068347 -295.820378 
L 236.789008 -295.882695 
L 233.509669 -295.495187 
L 230.230331 -295.729517 
L 226.950992 -295.647787 
L 223.671653 -295.195994 
L 220.392314 -295.353029 
L 217.112975 -295.469039 
L 213.833636 -295.984202 
L 210.554298 -295.907395 
L 207.274959 -295.495234 
L 203.99562 -295.274597 
L 200.716281 -295.602732 
L 197.436942 -295.617607 
L 194.157603 -295.133678 
L 190.878264 -295.386007 
L 187.598926 -295.331924 
L 184.319587 -294.595105 
L 181.040248 -295.111963 
L 177.760909 -294.929816 
L 174.48157 -294.776837 
L 171.202231 -294.800542 
L 167.922893 -295.159723 
L 164.643554 -292.57196 
L 161.364215 -293.413688 
L 158.084876 -293.814817 
L 154.805537 -292.956658 
L 151.526198 -293.171604 
L 148.24686 -294.016867 
L 144.967521 -293.347931 
L 141.688182 -293.586507 
L 138.408843 -293.813523 
L 135.129504 -293.024847 
L 131.850165 -292.47763 
L 128.570826 -293.403755 
L 125.291488 -293.46155 
L 122.012149 -293.061597 
L 118.73281 -290.820446 
L 115.453471 -291.644637 
L 112.174132 -292.447715 
L 108.894793 -291.208366 
L 105.615455 -289.714916 
L 102.336116 -286.054626 
L 99.056777 -290.160343 
L 95.777438 -288.534783 
L 92.498099 -284.990196 
L 89.21876 -280.805947 
L 85.939421 -274.062832 
L 82.660083 -268.712125 
L 79.380744 -251.725424 
L 76.101405 -220.160533 
L 72.822066 -207.949502 
L 69.542727 -140.635442 
z
" style="stroke: #4c72b0; stroke-opacity: 0.2"/>
    </defs>
    <g clip-path="url(#p3e3c3cc3cb)">
     <use xlink:href="#mb155b44dc7" x="0" y="316.271687" style="fill: #4c72b0; fill-opacity: 0.2; stroke: #4c72b0; stroke-opacity: 0.2"/>
    </g>
   </g>
   <g id="PolyCollection_2">
    <defs>
     <path id="m9e35ff392f" d="M 69.542727 -87.383902 
L 69.542727 -55.055687 
L 72.822066 -97.457388 
L 76.101405 -65.111297 
L 79.380744 -116.17071 
L 82.660083 -155.715235 
L 85.939421 -137.579906 
L 89.21876 -164.814092 
L 92.498099 -187.776153 
L 95.777438 -191.775284 
L 99.056777 -207.264564 
L 102.336116 -190.478437 
L 105.615455 -195.438583 
L 108.894793 -229.526071 
L 112.174132 -252.997272 
L 115.453471 -225.476448 
L 118.73281 -202.977591 
L 122.012149 -254.141068 
L 125.291488 -256.408175 
L 128.570826 -223.659138 
L 131.850165 -231.613922 
L 135.129504 -228.482407 
L 138.408843 -265.490936 
L 141.688182 -235.342764 
L 144.967521 -256.939751 
L 148.24686 -253.273159 
L 151.526198 -241.767102 
L 154.805537 -222.893632 
L 158.084876 -224.522392 
L 161.364215 -234.401933 
L 164.643554 -221.3695 
L 167.922893 -262.882468 
L 171.202231 -251.049412 
L 174.48157 -238.169052 
L 177.760909 -254.218367 
L 181.040248 -263.715543 
L 184.319587 -263.846258 
L 187.598926 -263.108698 
L 190.878264 -272.964401 
L 194.157603 -244.256826 
L 197.436942 -261.143742 
L 200.716281 -264.068232 
L 203.99562 -256.516105 
L 207.274959 -271.14808 
L 210.554298 -262.592652 
L 213.833636 -265.45989 
L 217.112975 -235.99068 
L 220.392314 -240.321844 
L 223.671653 -231.542954 
L 226.950992 -244.64379 
L 230.230331 -272.864043 
L 233.509669 -247.171966 
L 236.789008 -278.477259 
L 240.068347 -266.003674 
L 243.347686 -264.806856 
L 246.627025 -248.401489 
L 249.906364 -262.533477 
L 253.185702 -259.202719 
L 256.465041 -242.791478 
L 259.74438 -278.41363 
L 263.023719 -261.707247 
L 266.303058 -241.220849 
L 269.582397 -273.649725 
L 272.861736 -269.619077 
L 276.141074 -268.570398 
L 279.420413 -275.199431 
L 282.699752 -257.251279 
L 285.979091 -254.610532 
L 289.25843 -265.225255 
L 292.537769 -255.86045 
L 295.817107 -276.448909 
L 299.096446 -251.605665 
L 302.375785 -267.669724 
L 305.655124 -263.593301 
L 308.934463 -267.79401 
L 312.213802 -270.593743 
L 315.49314 -275.757514 
L 318.772479 -276.958083 
L 322.051818 -276.305415 
L 325.331157 -269.975433 
L 328.610496 -274.448444 
L 331.889835 -273.390035 
L 335.169174 -269.565366 
L 338.448512 -272.008413 
L 341.727851 -277.569312 
L 345.00719 -273.095034 
L 348.286529 -281.740692 
L 351.565868 -275.784147 
L 354.845207 -272.755591 
L 358.124545 -274.618243 
L 361.403884 -252.045641 
L 364.683223 -278.605813 
L 367.962562 -284.782234 
L 371.241901 -278.696358 
L 374.52124 -279.288449 
L 377.800579 -254.61197 
L 381.079917 -270.077641 
L 384.359256 -274.439219 
L 387.638595 -285.044083 
L 390.917934 -267.650935 
L 394.197273 -277.247266 
L 394.197273 -287.834991 
L 394.197273 -287.834991 
L 390.917934 -284.002005 
L 387.638595 -289.177138 
L 384.359256 -282.670898 
L 381.079917 -284.109061 
L 377.800579 -274.613801 
L 374.52124 -285.820013 
L 371.241901 -286.541957 
L 367.962562 -288.636458 
L 364.683223 -286.171862 
L 361.403884 -269.592043 
L 358.124545 -285.203831 
L 354.845207 -283.679212 
L 351.565868 -285.271618 
L 348.286529 -287.482492 
L 345.00719 -283.246159 
L 341.727851 -286.370552 
L 338.448512 -283.24554 
L 335.169174 -279.219279 
L 331.889835 -281.883954 
L 328.610496 -284.236919 
L 325.331157 -279.515867 
L 322.051818 -285.038523 
L 318.772479 -284.955088 
L 315.49314 -283.542267 
L 312.213802 -280.711577 
L 308.934463 -279.727166 
L 305.655124 -277.410366 
L 302.375785 -279.03881 
L 299.096446 -271.209412 
L 295.817107 -282.72093 
L 292.537769 -278.033477 
L 289.25843 -279.015062 
L 285.979091 -276.350412 
L 282.699752 -277.889016 
L 279.420413 -284.699089 
L 276.141074 -282.311772 
L 272.861736 -281.323822 
L 269.582397 -282.236922 
L 266.303058 -270.156695 
L 263.023719 -277.541959 
L 259.74438 -284.850256 
L 256.465041 -273.440733 
L 253.185702 -280.153593 
L 249.906364 -281.258013 
L 246.627025 -277.14445 
L 243.347686 -281.24224 
L 240.068347 -277.160797 
L 236.789008 -284.912353 
L 233.509669 -273.978068 
L 230.230331 -281.209977 
L 226.950992 -274.529552 
L 223.671653 -267.442028 
L 220.392314 -265.883244 
L 217.112975 -269.269792 
L 213.833636 -281.019382 
L 210.554298 -277.443582 
L 207.274959 -280.396477 
L 203.99562 -273.865387 
L 200.716281 -276.900008 
L 197.436942 -277.647018 
L 194.157603 -266.711362 
L 190.878264 -280.13899 
L 187.598926 -275.442974 
L 184.319587 -274.290402 
L 181.040248 -278.655191 
L 177.760909 -275.932745 
L 174.48157 -265.210133 
L 171.202231 -269.849536 
L 167.922893 -277.302905 
L 164.643554 -256.982405 
L 161.364215 -265.994694 
L 158.084876 -259.110515 
L 154.805537 -259.214706 
L 151.526198 -262.162229 
L 148.24686 -271.725559 
L 144.967521 -271.591553 
L 141.688182 -268.871499 
L 138.408843 -273.425789 
L 135.129504 -258.398192 
L 131.850165 -260.594353 
L 128.570826 -257.565699 
L 125.291488 -268.691095 
L 122.012149 -266.108629 
L 118.73281 -237.665033 
L 115.453471 -258.859728 
L 112.174132 -266.865197 
L 108.894793 -254.893741 
L 105.615455 -232.725246 
L 102.336116 -231.773834 
L 99.056777 -242.234657 
L 95.777438 -229.707182 
L 92.498099 -230.162928 
L 89.21876 -214.601075 
L 85.939421 -187.419075 
L 82.660083 -199.413155 
L 79.380744 -169.004576 
L 76.101405 -106.193524 
L 72.822066 -153.98476 
L 69.542727 -87.383902 
z
" style="stroke: #dd8452; stroke-opacity: 0.2"/>
    </defs>
    <g clip-path="url(#p3e3c3cc3cb)">
     <use xlink:href="#m9e35ff392f" x="0" y="316.271687" style="fill: #dd8452; fill-opacity: 0.2; stroke: #dd8452; stroke-opacity: 0.2"/>
    </g>
   </g>
   <g id="PolyCollection_3">
    <defs>
     <path id="m59b3f22c6c" d="M 69.542727 -123.850156 
L 69.542727 -68.305592 
L 72.822066 -115.072346 
L 76.101405 -137.041321 
L 79.380744 -160.087679 
L 82.660083 -176.317381 
L 85.939421 -193.243008 
L 89.21876 -198.095695 
L 92.498099 -209.265642 
L 95.777438 -220.712943 
L 99.056777 -228.397237 
L 102.336116 -233.110541 
L 105.615455 -237.510755 
L 108.894793 -235.935274 
L 112.174132 -238.716309 
L 115.453471 -240.548071 
L 118.73281 -241.501686 
L 122.012149 -244.407008 
L 125.291488 -247.525627 
L 128.570826 -247.683209 
L 131.850165 -249.603422 
L 135.129504 -245.842656 
L 138.408843 -247.614775 
L 141.688182 -250.177747 
L 144.967521 -248.892812 
L 148.24686 -254.698639 
L 151.526198 -256.428495 
L 154.805537 -259.088756 
L 158.084876 -259.692679 
L 161.364215 -259.409073 
L 164.643554 -258.068884 
L 167.922893 -260.568691 
L 171.202231 -263.457899 
L 174.48157 -263.244539 
L 177.760909 -261.608577 
L 181.040248 -262.832703 
L 184.319587 -262.760598 
L 187.598926 -267.861575 
L 190.878264 -269.041656 
L 194.157603 -267.42338 
L 197.436942 -269.000961 
L 200.716281 -270.069399 
L 203.99562 -267.747199 
L 207.274959 -268.423081 
L 210.554298 -268.442425 
L 213.833636 -266.884846 
L 217.112975 -268.907494 
L 220.392314 -268.286775 
L 223.671653 -268.708446 
L 226.950992 -276.320359 
L 230.230331 -276.351474 
L 233.509669 -276.131911 
L 236.789008 -274.652254 
L 240.068347 -274.119878 
L 243.347686 -275.262889 
L 246.627025 -274.793263 
L 249.906364 -275.615608 
L 253.185702 -281.918168 
L 256.465041 -281.530525 
L 259.74438 -281.527656 
L 263.023719 -280.322025 
L 266.303058 -281.671271 
L 269.582397 -272.1068 
L 272.861736 -281.575025 
L 276.141074 -282.248804 
L 279.420413 -284.746309 
L 282.699752 -283.674047 
L 285.979091 -285.0285 
L 289.25843 -285.615078 
L 292.537769 -285.400501 
L 295.817107 -252.724237 
L 299.096446 -253.799294 
L 302.375785 -253.9405 
L 305.655124 -253.925638 
L 308.934463 -254.511296 
L 312.213802 -253.835878 
L 315.49314 -253.950166 
L 318.772479 -253.793111 
L 322.051818 -255.98361 
L 325.331157 -254.67489 
L 328.610496 -254.570806 
L 331.889835 -253.43696 
L 335.169174 -255.37327 
L 338.448512 -255.484305 
L 341.727851 -252.550486 
L 345.00719 -252.895255 
L 348.286529 -256.137996 
L 351.565868 -255.722758 
L 354.845207 -255.224108 
L 358.124545 -255.816841 
L 361.403884 -255.138411 
L 364.683223 -255.819563 
L 367.962562 -253.654639 
L 371.241901 -253.179287 
L 374.52124 -253.52292 
L 377.800579 -252.264733 
L 381.079917 -254.698794 
L 384.359256 -255.271181 
L 387.638595 -254.715983 
L 390.917934 -254.322331 
L 394.197273 -255.421516 
L 394.197273 -282.252606 
L 394.197273 -282.252606 
L 390.917934 -283.178102 
L 387.638595 -283.457505 
L 384.359256 -283.961178 
L 381.079917 -283.715573 
L 377.800579 -282.087357 
L 374.52124 -282.7426 
L 371.241901 -281.6254 
L 367.962562 -283.476132 
L 364.683223 -283.724984 
L 361.403884 -284.231663 
L 358.124545 -283.92707 
L 354.845207 -283.49864 
L 351.565868 -283.481027 
L 348.286529 -282.743053 
L 345.00719 -281.764969 
L 341.727851 -281.439412 
L 338.448512 -283.460452 
L 335.169174 -282.382116 
L 331.889835 -282.83188 
L 328.610496 -282.154836 
L 325.331157 -282.413714 
L 322.051818 -284.062716 
L 318.772479 -282.86609 
L 315.49314 -282.004944 
L 312.213802 -282.545062 
L 308.934463 -282.244057 
L 305.655124 -283.294501 
L 302.375785 -281.690571 
L 299.096446 -282.715786 
L 295.817107 -281.957265 
L 292.537769 -295.102801 
L 289.25843 -294.937507 
L 285.979091 -295.1626 
L 282.699752 -294.703581 
L 279.420413 -294.622966 
L 276.141074 -294.498175 
L 272.861736 -294.469695 
L 269.582397 -294.152779 
L 266.303058 -294.513601 
L 263.023719 -294.101996 
L 259.74438 -294.254706 
L 256.465041 -294.204066 
L 253.185702 -294.322743 
L 249.906364 -294.286914 
L 246.627025 -294.482437 
L 243.347686 -294.284142 
L 240.068347 -293.978993 
L 236.789008 -293.297612 
L 233.509669 -293.287402 
L 230.230331 -293.444495 
L 226.950992 -292.94602 
L 223.671653 -293.200762 
L 220.392314 -293.383538 
L 217.112975 -292.538929 
L 213.833636 -292.483494 
L 210.554298 -292.10731 
L 207.274959 -293.462331 
L 203.99562 -292.890304 
L 200.716281 -292.718364 
L 197.436942 -292.371318 
L 194.157603 -291.685438 
L 190.878264 -291.477038 
L 187.598926 -289.825941 
L 184.319587 -290.192476 
L 181.040248 -290.472176 
L 177.760909 -290.789234 
L 174.48157 -289.980789 
L 171.202231 -290.069595 
L 167.922893 -289.923331 
L 164.643554 -288.791344 
L 161.364215 -289.674026 
L 158.084876 -288.836494 
L 154.805537 -288.799076 
L 151.526198 -287.377582 
L 148.24686 -287.341847 
L 144.967521 -283.904696 
L 141.688182 -282.892952 
L 138.408843 -283.577445 
L 135.129504 -283.291427 
L 131.850165 -283.480068 
L 128.570826 -283.411012 
L 125.291488 -283.895769 
L 122.012149 -281.104646 
L 118.73281 -278.586743 
L 115.453471 -279.805546 
L 112.174132 -277.652421 
L 108.894793 -274.696772 
L 105.615455 -276.417989 
L 102.336116 -271.685535 
L 99.056777 -267.045071 
L 95.777438 -263.706444 
L 92.498099 -256.291897 
L 89.21876 -250.896564 
L 85.939421 -248.740666 
L 82.660083 -233.528603 
L 79.380744 -222.880165 
L 76.101405 -200.871218 
L 72.822066 -171.850087 
L 69.542727 -123.850156 
z
" style="stroke: #55a868; stroke-opacity: 0.2"/>
    </defs>
    <g clip-path="url(#p3e3c3cc3cb)">
     <use xlink:href="#m59b3f22c6c" x="0" y="316.271687" style="fill: #55a868; fill-opacity: 0.2; stroke: #55a868; stroke-opacity: 0.2"/>
    </g>
   </g>
   <g id="PolyCollection_4">
    <defs>
     <path id="m17216c97f5" d="M 69.542727 -116.975581 
L 69.542727 -72.197253 
L 72.822066 -82.248728 
L 76.101405 -104.954433 
L 79.380744 -123.076607 
L 82.660083 -137.376551 
L 85.939421 -137.540154 
L 89.21876 -148.95101 
L 92.498099 -158.597734 
L 95.777438 -166.278156 
L 99.056777 -186.225046 
L 102.336116 -198.03719 
L 105.615455 -206.575894 
L 108.894793 -223.718838 
L 112.174132 -231.549546 
L 115.453471 -233.259894 
L 118.73281 -234.604156 
L 122.012149 -239.867509 
L 125.291488 -239.097016 
L 128.570826 -241.235414 
L 131.850165 -244.321908 
L 135.129504 -245.308081 
L 138.408843 -252.250888 
L 141.688182 -251.08268 
L 144.967521 -253.759979 
L 148.24686 -255.196748 
L 151.526198 -258.001621 
L 154.805537 -259.368836 
L 158.084876 -259.503168 
L 161.364215 -262.509788 
L 164.643554 -264.102638 
L 167.922893 -263.37111 
L 171.202231 -265.293619 
L 174.48157 -266.933864 
L 177.760909 -268.545041 
L 181.040248 -267.66272 
L 184.319587 -267.425694 
L 187.598926 -270.396253 
L 190.878264 -273.266109 
L 194.157603 -272.307293 
L 197.436942 -273.032433 
L 200.716281 -273.020205 
L 203.99562 -273.750059 
L 207.274959 -273.694572 
L 210.554298 -274.252903 
L 213.833636 -275.935641 
L 217.112975 -275.644784 
L 220.392314 -277.128968 
L 223.671653 -276.359992 
L 226.950992 -278.529285 
L 230.230331 -278.816985 
L 233.509669 -279.646458 
L 236.789008 -279.964355 
L 240.068347 -280.677077 
L 243.347686 -281.354027 
L 246.627025 -282.034604 
L 249.906364 -282.506703 
L 253.185702 -282.851405 
L 256.465041 -284.055812 
L 259.74438 -283.164257 
L 263.023719 -282.946837 
L 266.303058 -282.077381 
L 269.582397 -281.137602 
L 272.861736 -285.489967 
L 276.141074 -285.228171 
L 279.420413 -285.367508 
L 282.699752 -286.271506 
L 285.979091 -286.600312 
L 289.25843 -286.122682 
L 292.537769 -286.409524 
L 295.817107 -252.52581 
L 299.096446 -252.36107 
L 302.375785 -252.41741 
L 305.655124 -252.616445 
L 308.934463 -251.592095 
L 312.213802 -255.17245 
L 315.49314 -255.894251 
L 318.772479 -254.95246 
L 322.051818 -253.015417 
L 325.331157 -253.631905 
L 328.610496 -253.858395 
L 331.889835 -256.561287 
L 335.169174 -254.636219 
L 338.448512 -255.68711 
L 341.727851 -253.523529 
L 345.00719 -253.647678 
L 348.286529 -253.631349 
L 351.565868 -254.071014 
L 354.845207 -257.472725 
L 358.124545 -255.966463 
L 361.403884 -255.94422 
L 364.683223 -255.425285 
L 367.962562 -254.951525 
L 371.241901 -255.452489 
L 374.52124 -255.033839 
L 377.800579 -256.17494 
L 381.079917 -255.704842 
L 384.359256 -256.026723 
L 387.638595 -255.503091 
L 390.917934 -256.074953 
L 394.197273 -256.518326 
L 394.197273 -282.793433 
L 394.197273 -282.793433 
L 390.917934 -283.179712 
L 387.638595 -282.915321 
L 384.359256 -281.944177 
L 381.079917 -281.973775 
L 377.800579 -282.324376 
L 374.52124 -282.247313 
L 371.241901 -282.606291 
L 367.962562 -282.467513 
L 364.683223 -282.299127 
L 361.403884 -282.303654 
L 358.124545 -282.682453 
L 354.845207 -282.417686 
L 351.565868 -281.392141 
L 348.286529 -281.341248 
L 345.00719 -281.918324 
L 341.727851 -280.656921 
L 338.448512 -282.533131 
L 335.169174 -282.181082 
L 331.889835 -281.434436 
L 328.610496 -281.317579 
L 325.331157 -282.28235 
L 322.051818 -281.462913 
L 318.772479 -280.570183 
L 315.49314 -280.938911 
L 312.213802 -281.147329 
L 308.934463 -280.314637 
L 305.655124 -280.354146 
L 302.375785 -280.995151 
L 299.096446 -280.146842 
L 295.817107 -280.178893 
L 292.537769 -295.260138 
L 289.25843 -295.295881 
L 285.979091 -295.219324 
L 282.699752 -295.040903 
L 279.420413 -294.965356 
L 276.141074 -294.923091 
L 272.861736 -294.804522 
L 269.582397 -295.019358 
L 266.303058 -294.971565 
L 263.023719 -294.609638 
L 259.74438 -294.461177 
L 256.465041 -294.672937 
L 253.185702 -294.383171 
L 249.906364 -294.512936 
L 246.627025 -294.371417 
L 243.347686 -294.033767 
L 240.068347 -293.754483 
L 236.789008 -293.100554 
L 233.509669 -293.708557 
L 230.230331 -292.927752 
L 226.950992 -293.405894 
L 223.671653 -293.23322 
L 220.392314 -293.008535 
L 217.112975 -293.133288 
L 213.833636 -293.152652 
L 210.554298 -292.237575 
L 207.274959 -292.086394 
L 203.99562 -291.425615 
L 200.716281 -291.05803 
L 197.436942 -291.316096 
L 194.157603 -290.93597 
L 190.878264 -290.827608 
L 187.598926 -289.980486 
L 184.319587 -290.028381 
L 181.040248 -289.907103 
L 177.760909 -290.50963 
L 174.48157 -289.143478 
L 171.202231 -289.486824 
L 167.922893 -288.515286 
L 164.643554 -288.221669 
L 161.364215 -287.357462 
L 158.084876 -286.439346 
L 154.805537 -286.038433 
L 151.526198 -283.396978 
L 148.24686 -283.860624 
L 144.967521 -281.789258 
L 141.688182 -282.015716 
L 138.408843 -281.296952 
L 135.129504 -277.304834 
L 131.850165 -276.006697 
L 128.570826 -273.760216 
L 125.291488 -273.512126 
L 122.012149 -271.311204 
L 118.73281 -269.185257 
L 115.453471 -266.930362 
L 112.174132 -265.747679 
L 108.894793 -260.10441 
L 105.615455 -246.949131 
L 102.336116 -238.197754 
L 99.056777 -232.125204 
L 95.777438 -216.684591 
L 92.498099 -209.588892 
L 89.21876 -198.683686 
L 85.939421 -182.175965 
L 82.660083 -181.385971 
L 79.380744 -173.366688 
L 76.101405 -159.529279 
L 72.822066 -134.58143 
L 69.542727 -116.975581 
z
" style="stroke: #c44e52; stroke-opacity: 0.2"/>
    </defs>
    <g clip-path="url(#p3e3c3cc3cb)">
     <use xlink:href="#m17216c97f5" x="0" y="316.271687" style="fill: #c44e52; fill-opacity: 0.2; stroke: #c44e52; stroke-opacity: 0.2"/>
    </g>
   </g>
   <g id="PolyCollection_5">
    <defs>
     <path id="mbfd84c2f58" d="M 69.542727 -135.368242 
L 69.542727 -78.370154 
L 72.822066 -106.877997 
L 76.101405 -127.560469 
L 79.380744 -157.027579 
L 82.660083 -185.688226 
L 85.939421 -190.764623 
L 89.21876 -206.270771 
L 92.498099 -210.480546 
L 95.777438 -221.131144 
L 99.056777 -229.32667 
L 102.336116 -229.422121 
L 105.615455 -235.131756 
L 108.894793 -238.563696 
L 112.174132 -242.135888 
L 115.453471 -241.652921 
L 118.73281 -243.405567 
L 122.012149 -242.5617 
L 125.291488 -246.27828 
L 128.570826 -247.34949 
L 131.850165 -254.152353 
L 135.129504 -251.069702 
L 138.408843 -251.368929 
L 141.688182 -252.287879 
L 144.967521 -249.970305 
L 148.24686 -250.950892 
L 151.526198 -253.786096 
L 154.805537 -254.447332 
L 158.084876 -256.960225 
L 161.364215 -256.121252 
L 164.643554 -259.306211 
L 167.922893 -256.658098 
L 171.202231 -256.606843 
L 174.48157 -257.027143 
L 177.760909 -259.929721 
L 181.040248 -259.661923 
L 184.319587 -258.547911 
L 187.598926 -260.295642 
L 190.878264 -262.070249 
L 194.157603 -262.333434 
L 197.436942 -260.664535 
L 200.716281 -261.52469 
L 203.99562 -260.011259 
L 207.274959 -262.811959 
L 210.554298 -264.546273 
L 213.833636 -263.565405 
L 217.112975 -263.646979 
L 220.392314 -266.105815 
L 223.671653 -266.242535 
L 226.950992 -266.600625 
L 230.230331 -267.566941 
L 233.509669 -268.804531 
L 236.789008 -269.419912 
L 240.068347 -270.538719 
L 243.347686 -268.715337 
L 246.627025 -270.092193 
L 249.906364 -270.339809 
L 253.185702 -273.104116 
L 256.465041 -273.547045 
L 259.74438 -274.05785 
L 263.023719 -275.520836 
L 266.303058 -275.772405 
L 269.582397 -276.302985 
L 272.861736 -278.123069 
L 276.141074 -278.794208 
L 279.420413 -277.453341 
L 282.699752 -277.514 
L 285.979091 -277.65053 
L 289.25843 -278.134239 
L 292.537769 -278.175555 
L 295.817107 -245.470532 
L 299.096446 -245.055579 
L 302.375785 -247.653235 
L 305.655124 -246.274481 
L 308.934463 -246.766578 
L 312.213802 -247.584215 
L 315.49314 -246.350154 
L 318.772479 -247.657864 
L 322.051818 -246.308793 
L 325.331157 -246.426224 
L 328.610496 -247.159222 
L 331.889835 -246.540434 
L 335.169174 -246.786239 
L 338.448512 -247.689737 
L 341.727851 -247.191333 
L 345.00719 -247.307947 
L 348.286529 -248.053959 
L 351.565868 -246.986294 
L 354.845207 -247.474921 
L 358.124545 -249.383671 
L 361.403884 -247.64764 
L 364.683223 -248.448666 
L 367.962562 -249.23712 
L 371.241901 -248.312304 
L 374.52124 -248.435397 
L 377.800579 -248.644445 
L 381.079917 -249.259485 
L 384.359256 -248.680927 
L 387.638595 -248.502793 
L 390.917934 -249.119454 
L 394.197273 -248.287282 
L 394.197273 -280.477936 
L 394.197273 -280.477936 
L 390.917934 -280.793316 
L 387.638595 -280.359714 
L 384.359256 -281.342393 
L 381.079917 -279.640333 
L 377.800579 -281.093862 
L 374.52124 -280.366002 
L 371.241901 -280.106095 
L 367.962562 -280.650509 
L 364.683223 -280.504177 
L 361.403884 -280.42943 
L 358.124545 -280.286956 
L 354.845207 -280.504838 
L 351.565868 -279.846217 
L 348.286529 -279.529385 
L 345.00719 -279.590372 
L 341.727851 -278.568482 
L 338.448512 -280.01545 
L 335.169174 -280.512547 
L 331.889835 -279.678617 
L 328.610496 -279.291911 
L 325.331157 -279.112304 
L 322.051818 -279.101154 
L 318.772479 -279.679691 
L 315.49314 -278.017954 
L 312.213802 -279.240613 
L 308.934463 -277.578692 
L 305.655124 -278.800632 
L 302.375785 -277.572243 
L 299.096446 -278.384108 
L 295.817107 -277.968318 
L 292.537769 -295.391005 
L 289.25843 -294.971281 
L 285.979091 -294.801538 
L 282.699752 -294.889457 
L 279.420413 -294.907144 
L 276.141074 -295.109082 
L 272.861736 -295.119958 
L 269.582397 -295.123578 
L 266.303058 -294.931928 
L 263.023719 -294.82079 
L 259.74438 -294.560689 
L 256.465041 -294.78831 
L 253.185702 -294.828236 
L 249.906364 -293.872402 
L 246.627025 -294.103432 
L 243.347686 -294.602492 
L 240.068347 -294.299638 
L 236.789008 -294.118027 
L 233.509669 -294.124487 
L 230.230331 -293.389638 
L 226.950992 -293.525587 
L 223.671653 -293.228172 
L 220.392314 -293.423488 
L 217.112975 -293.351866 
L 213.833636 -293.174333 
L 210.554298 -292.868037 
L 207.274959 -291.817476 
L 203.99562 -291.252206 
L 200.716281 -291.479128 
L 197.436942 -291.260199 
L 194.157603 -291.280796 
L 190.878264 -290.800517 
L 187.598926 -290.279353 
L 184.319587 -289.932839 
L 181.040248 -289.78216 
L 177.760909 -290.39109 
L 174.48157 -289.105677 
L 171.202231 -288.978425 
L 167.922893 -289.038907 
L 164.643554 -289.791679 
L 161.364215 -288.545694 
L 158.084876 -289.167872 
L 154.805537 -288.049839 
L 151.526198 -286.466512 
L 148.24686 -285.377012 
L 144.967521 -285.353038 
L 141.688182 -286.253795 
L 138.408843 -285.996411 
L 135.129504 -285.0227 
L 131.850165 -285.653648 
L 128.570826 -283.301635 
L 125.291488 -282.366245 
L 122.012149 -280.398705 
L 118.73281 -279.250692 
L 115.453471 -279.822989 
L 112.174132 -279.793766 
L 108.894793 -276.586853 
L 105.615455 -274.991152 
L 102.336116 -271.301253 
L 99.056777 -271.52379 
L 95.777438 -267.135451 
L 92.498099 -257.798949 
L 89.21876 -256.028057 
L 85.939421 -245.81999 
L 82.660083 -236.831409 
L 79.380744 -219.958442 
L 76.101405 -195.059624 
L 72.822066 -171.713205 
L 69.542727 -135.368242 
z
" style="stroke: #8172b3; stroke-opacity: 0.2"/>
    </defs>
    <g clip-path="url(#p3e3c3cc3cb)">
     <use xlink:href="#mbfd84c2f58" x="0" y="316.271687" style="fill: #8172b3; fill-opacity: 0.2; stroke: #8172b3; stroke-opacity: 0.2"/>
    </g>
   </g>
   <g id="line2d_12">
    <path d="M 69.542727 209.5184 
L 72.822066 139.97147 
L 76.101405 124.879641 
L 79.380744 90.86893 
L 82.660083 64.291239 
L 85.939421 58.542396 
L 89.21876 49.932918 
L 92.498099 41.493292 
L 95.777438 39.922499 
L 99.056777 33.761311 
L 102.336116 39.862174 
L 105.615455 34.386161 
L 108.894793 32.029856 
L 112.174132 28.383609 
L 115.453471 28.947657 
L 118.73281 30.132152 
L 122.012149 26.485543 
L 125.291488 25.140379 
L 128.570826 25.514199 
L 131.850165 26.194548 
L 135.129504 25.362843 
L 138.408843 24.749085 
L 141.688182 26.386476 
L 144.967521 25.422437 
L 148.24686 25.288647 
L 151.526198 25.614705 
L 154.805537 27.863221 
L 158.084876 27.02315 
L 161.364215 28.402129 
L 164.643554 29.940816 
L 167.922893 25.186602 
L 171.202231 25.797458 
L 174.48157 25.338219 
L 177.760909 24.961789 
L 181.040248 24.262258 
L 184.319587 27.6359 
L 187.598926 23.469249 
L 190.878264 23.022003 
L 194.157603 25.94896 
L 197.436942 24.039532 
L 200.716281 22.887944 
L 203.99562 23.026737 
L 207.274959 22.959107 
L 210.554298 22.799508 
L 213.833636 26.278958 
L 217.112975 23.726807 
L 220.392314 23.877 
L 223.671653 24.0037 
L 226.950992 23.310581 
L 230.230331 22.911444 
L 233.509669 23.137134 
L 236.789008 22.236407 
L 240.068347 22.741045 
L 243.347686 21.776975 
L 246.627025 21.694466 
L 249.906364 21.410706 
L 253.185702 22.148848 
L 256.465041 22.202122 
L 259.74438 22.011586 
L 263.023719 23.16406 
L 266.303058 23.661686 
L 269.582397 21.423284 
L 272.861736 22.930572 
L 276.141074 21.621756 
L 279.420413 28.202557 
L 282.699752 20.939813 
L 285.979091 21.341144 
L 289.25843 20.637826 
L 292.537769 20.691593 
L 295.817107 24.742916 
L 299.096446 25.378565 
L 302.375785 26.073033 
L 305.655124 25.835751 
L 308.934463 26.324394 
L 312.213802 25.319424 
L 315.49314 25.602161 
L 318.772479 26.083761 
L 322.051818 25.668679 
L 325.331157 26.042207 
L 328.610496 25.867892 
L 331.889835 25.855704 
L 335.169174 26.578616 
L 338.448512 25.892188 
L 341.727851 25.781864 
L 345.00719 25.578302 
L 348.286529 26.474273 
L 351.565868 26.276956 
L 354.845207 27.388974 
L 358.124545 26.392738 
L 361.403884 28.622265 
L 364.683223 27.133049 
L 367.962562 26.04003 
L 371.241901 25.808449 
L 374.52124 26.24669 
L 377.800579 26.344471 
L 381.079917 25.78549 
L 384.359256 25.68528 
L 387.638595 26.090782 
L 390.917934 26.25376 
L 394.197273 25.936447 
" clip-path="url(#p3e3c3cc3cb)" style="fill: none; stroke: #4c72b0; stroke-width: 1.5; stroke-linecap: round"/>
   </g>
   <g id="line2d_13">
    <path d="M 69.542727 245.905459 
L 72.822066 190.004819 
L 76.101405 232.401473 
L 79.380744 172.945377 
L 82.660083 139.123839 
L 85.939421 153.507986 
L 89.21876 125.008035 
L 92.498099 107.305693 
L 95.777438 105.907254 
L 99.056777 90.854875 
L 102.336116 103.759466 
L 105.615455 102.220626 
L 108.894793 73.058462 
L 112.174132 55.889277 
L 115.453471 73.381632 
L 118.73281 95.041415 
L 122.012149 56.134072 
L 125.291488 53.651621 
L 128.570826 74.140026 
L 131.850165 69.154057 
L 135.129504 72.646223 
L 138.408843 46.657504 
L 141.688182 62.579475 
L 144.967521 51.597335 
L 148.24686 53.240191 
L 151.526198 64.232915 
L 154.805537 73.693265 
L 158.084876 73.604443 
L 161.364215 65.317874 
L 164.643554 76.501018 
L 167.922893 46.215746 
L 171.202231 54.972092 
L 174.48157 63.246438 
L 177.760909 50.134107 
L 181.040248 44.722352 
L 184.319587 46.955343 
L 187.598926 47.051446 
L 190.878264 39.528243 
L 194.157603 60.479288 
L 197.436942 46.27494 
L 200.716281 45.707159 
L 203.99562 50.388408 
L 207.274959 40.385295 
L 210.554298 45.785311 
L 213.833636 42.302589 
L 217.112975 63.592786 
L 220.392314 62.973624 
L 223.671653 65.394803 
L 226.950992 55.341787 
L 230.230331 39.297842 
L 233.509669 54.383212 
L 236.789008 34.515517 
L 240.068347 44.488395 
L 243.347686 42.845438 
L 246.627025 52.118708 
L 249.906364 44.112342 
L 253.185702 46.405935 
L 256.465041 57.050433 
L 259.74438 34.587196 
L 263.023719 46.226985 
L 266.303058 58.957421 
L 269.582397 38.183871 
L 272.861736 40.458605 
L 276.141074 40.419749 
L 279.420413 36.048407 
L 282.699752 48.656915 
L 285.979091 50.450027 
L 289.25843 44.000221 
L 292.537769 49.13148 
L 295.817107 36.618999 
L 299.096446 54.766072 
L 302.375785 42.704726 
L 305.655124 45.286201 
L 308.934463 42.104364 
L 312.213802 40.377522 
L 315.49314 36.425766 
L 318.772479 35.332186 
L 322.051818 35.322277 
L 325.331157 41.391953 
L 328.610496 36.395425 
L 331.889835 38.485649 
L 335.169174 41.557986 
L 338.448512 38.315877 
L 341.727851 33.886395 
L 345.00719 37.789824 
L 348.286529 31.383944 
L 351.565868 35.340026 
L 354.845207 37.663701 
L 358.124545 36.085289 
L 361.403884 54.75792 
L 364.683223 33.799622 
L 367.962562 29.605541 
L 371.241901 33.24575 
L 374.52124 33.532549 
L 377.800579 50.882063 
L 381.079917 38.676263 
L 384.359256 37.613607 
L 387.638595 29.007011 
L 390.917934 39.807662 
L 394.197273 33.096372 
" clip-path="url(#p3e3c3cc3cb)" style="fill: none; stroke-dasharray: 6,2.25; stroke-dashoffset: 0; stroke: #dd8452; stroke-width: 1.5"/>
   </g>
   <g id="line2d_14">
    <path d="M 69.542727 221.909624 
L 72.822066 173.489565 
L 76.101405 147.983231 
L 79.380744 124.168348 
L 82.660083 110.800769 
L 85.939421 94.348011 
L 89.21876 89.410829 
L 92.498099 83.207612 
L 95.777438 73.783579 
L 99.056777 67.266982 
L 102.336116 61.556373 
L 105.615455 59.26385 
L 108.894793 58.846854 
L 112.174132 55.870557 
L 115.453471 55.08466 
L 118.73281 55.09315 
L 122.012149 50.979682 
L 125.291488 48.714847 
L 128.570826 49.006666 
L 131.850165 47.945222 
L 135.129504 49.964193 
L 138.408843 48.627834 
L 141.688182 48.519146 
L 144.967521 46.669705 
L 148.24686 43.790203 
L 151.526198 43.175306 
L 154.805537 40.085132 
L 158.084876 39.903548 
L 161.364215 39.950018 
L 164.643554 40.277376 
L 167.922893 38.537424 
L 171.202231 37.775366 
L 174.48157 37.897302 
L 177.760909 37.542418 
L 181.040248 37.867212 
L 184.319587 37.743991 
L 187.598926 36.310699 
L 190.878264 34.456747 
L 194.157603 34.546784 
L 197.436942 33.529948 
L 200.716281 33.037563 
L 203.99562 33.2061 
L 207.274959 32.709697 
L 210.554298 33.72671 
L 213.833636 33.944826 
L 217.112975 33.403948 
L 220.392314 32.956571 
L 223.671653 33.515538 
L 226.950992 30.107397 
L 230.230331 30.31061 
L 233.509669 29.971621 
L 236.789008 30.404542 
L 240.068347 29.592567 
L 243.347686 29.485287 
L 246.627025 29.306436 
L 249.906364 29.075204 
L 253.185702 27.180332 
L 256.465041 27.205973 
L 259.74438 27.035042 
L 263.023719 27.280892 
L 266.303058 26.908065 
L 269.582397 29.06519 
L 272.861736 26.850696 
L 276.141074 26.770573 
L 279.420413 25.884078 
L 282.699752 25.835414 
L 285.979091 25.194692 
L 289.25843 25.266109 
L 292.537769 24.977308 
L 295.817107 47.610323 
L 299.096446 46.627057 
L 302.375785 47.004707 
L 305.655124 46.653712 
L 308.934463 46.751983 
L 312.213802 47.587951 
L 315.49314 47.460703 
L 318.772479 46.637591 
L 322.051818 45.6764 
L 325.331157 46.833286 
L 328.610496 46.755124 
L 331.889835 46.727526 
L 335.169174 46.588628 
L 338.448512 46.427547 
L 341.727851 48.220292 
L 345.00719 47.724047 
L 348.286529 45.96917 
L 351.565868 45.779833 
L 354.845207 45.632761 
L 358.124545 45.543478 
L 361.403884 45.575328 
L 364.683223 45.661938 
L 367.962562 46.451977 
L 371.241901 47.191889 
L 374.52124 46.859532 
L 377.800579 47.232603 
L 381.079917 46.050505 
L 384.359256 46.276019 
L 387.638595 46.461865 
L 390.917934 46.697971 
L 394.197273 46.473115 
" clip-path="url(#p3e3c3cc3cb)" style="fill: none; stroke-dasharray: 1.5,1.5; stroke-dashoffset: 0; stroke: #55a868; stroke-width: 1.5"/>
   </g>
   <g id="line2d_15">
    <path d="M 69.542727 221.679792 
L 72.822066 206.731768 
L 76.101405 183.660676 
L 79.380744 168.077379 
L 82.660083 157.072355 
L 85.939421 156.422403 
L 89.21876 143.109299 
L 92.498099 133.008943 
L 95.777438 123.761367 
L 99.056777 107.226178 
L 102.336116 96.578755 
L 105.615455 87.021948 
L 108.894793 72.896607 
L 112.174132 66.208672 
L 115.453471 64.769183 
L 118.73281 63.500732 
L 122.012149 59.966452 
L 125.291488 57.892329 
L 128.570826 57.247227 
L 131.850165 54.832368 
L 135.129504 52.768552 
L 138.408843 47.652503 
L 141.688182 47.273579 
L 144.967521 45.871954 
L 148.24686 44.348878 
L 151.526198 43.743926 
L 154.805537 40.926981 
L 158.084876 40.111526 
L 161.364215 39.373731 
L 164.643554 38.048457 
L 167.922893 38.039228 
L 171.202231 36.583266 
L 174.48157 35.861597 
L 177.760909 35.052939 
L 181.040248 35.409771 
L 184.319587 35.390643 
L 187.598926 34.501146 
L 190.878264 32.97242 
L 194.157603 33.069562 
L 197.436942 32.408903 
L 200.716281 32.734406 
L 203.99562 31.913817 
L 207.274959 31.65522 
L 210.554298 31.008201 
L 213.833636 30.450866 
L 217.112975 29.892799 
L 220.392314 29.650752 
L 223.671653 29.425424 
L 226.950992 29.001701 
L 230.230331 29.025217 
L 233.509669 28.21749 
L 236.789008 28.598707 
L 240.068347 27.6707 
L 243.347686 27.159064 
L 246.627025 27.046681 
L 249.906364 26.746272 
L 253.185702 26.295354 
L 256.465041 26.14486 
L 259.74438 26.177798 
L 263.023719 26.226384 
L 266.303058 26.216324 
L 269.582397 26.234605 
L 272.861736 25.316612 
L 276.141074 25.071471 
L 279.420413 25.247666 
L 282.699752 24.840085 
L 285.979091 24.665976 
L 289.25843 24.634986 
L 292.537769 24.718111 
L 295.817107 48.840036 
L 299.096446 48.840219 
L 302.375785 48.337459 
L 305.655124 48.346857 
L 308.934463 48.301854 
L 312.213802 47.863597 
L 315.49314 48.019446 
L 318.772479 47.761571 
L 322.051818 47.478117 
L 325.331157 47.647502 
L 328.610496 46.894022 
L 331.889835 46.977691 
L 335.169174 46.814815 
L 338.448512 46.891581 
L 341.727851 47.335965 
L 345.00719 46.596651 
L 348.286529 46.638491 
L 351.565868 46.526022 
L 354.845207 46.110358 
L 358.124545 46.342063 
L 361.403884 46.284107 
L 364.683223 46.153555 
L 367.962562 46.19561 
L 371.241901 46.0904 
L 374.52124 45.821317 
L 377.800579 45.919146 
L 381.079917 46.039632 
L 384.359256 45.690254 
L 387.638595 45.669692 
L 390.917934 45.873723 
L 394.197273 45.33976 
" clip-path="url(#p3e3c3cc3cb)" style="fill: none; stroke-dasharray: 4.5,1.875,2.25,1.875; stroke-dashoffset: 0; stroke: #c44e52; stroke-width: 1.5"/>
   </g>
   <g id="line2d_16">
    <path d="M 69.542727 209.671495 
L 72.822066 177.29679 
L 76.101405 153.342736 
L 79.380744 125.986692 
L 82.660083 104.256315 
L 85.939421 96.872421 
L 89.21876 84.46163 
L 92.498099 80.987252 
L 95.777438 70.996532 
L 99.056777 64.461484 
L 102.336116 63.994417 
L 105.615455 61.653677 
L 108.894793 57.054952 
L 112.174132 54.345202 
L 115.453471 53.95621 
L 118.73281 53.754614 
L 122.012149 52.673303 
L 125.291488 49.54117 
L 128.570826 48.938489 
L 131.850165 44.694795 
L 135.129504 47.132654 
L 138.408843 46.646759 
L 141.688182 46.394713 
L 144.967521 46.300765 
L 148.24686 45.410575 
L 151.526198 44.635455 
L 154.805537 41.939022 
L 158.084876 41.495178 
L 161.364215 41.572592 
L 164.643554 40.48303 
L 167.922893 40.492867 
L 171.202231 40.533671 
L 174.48157 40.672965 
L 177.760909 39.46092 
L 181.040248 39.593571 
L 184.319587 39.35314 
L 187.598926 39.02121 
L 190.878264 38.320293 
L 194.157603 38.015597 
L 197.436942 37.812353 
L 200.716281 37.87558 
L 203.99562 37.240746 
L 207.274959 37.140101 
L 210.554298 35.304462 
L 213.833636 35.243813 
L 217.112975 34.901507 
L 220.392314 34.580868 
L 223.671653 34.242995 
L 226.950992 33.847545 
L 230.230331 33.237882 
L 233.509669 32.763579 
L 236.789008 31.992585 
L 240.068347 31.24924 
L 243.347686 31.191216 
L 246.627025 31.282154 
L 249.906364 31.298435 
L 253.185702 29.920187 
L 256.465041 29.464866 
L 259.74438 29.462041 
L 263.023719 29.125284 
L 266.303058 28.495992 
L 269.582397 28.43295 
L 272.861736 27.806252 
L 276.141074 27.919744 
L 279.420413 28.032758 
L 282.699752 28.256562 
L 285.979091 27.824649 
L 289.25843 27.859026 
L 292.537769 27.705439 
L 295.817107 53.445099 
L 299.096446 53.260105 
L 302.375785 53.277627 
L 305.655124 53.251247 
L 308.934463 52.933486 
L 312.213802 52.18248 
L 315.49314 52.223484 
L 318.772479 51.610907 
L 322.051818 51.84321 
L 325.331157 51.713488 
L 328.610496 51.615972 
L 331.889835 51.641652 
L 335.169174 51.671821 
L 338.448512 51.702254 
L 341.727851 51.735823 
L 345.00719 51.6589 
L 348.286529 51.317443 
L 351.565868 51.237794 
L 354.845207 51.00437 
L 358.124545 50.907985 
L 361.403884 50.923568 
L 364.683223 50.86836 
L 367.962562 50.567196 
L 371.241901 50.662525 
L 374.52124 50.443935 
L 377.800579 50.341855 
L 381.079917 50.483576 
L 384.359256 50.489331 
L 387.638595 50.445158 
L 390.917934 50.430168 
L 394.197273 50.580737 
" clip-path="url(#p3e3c3cc3cb)" style="fill: none; stroke-dasharray: 7.5,1.5,1.5,1.5; stroke-dashoffset: 0; stroke: #8172b3; stroke-width: 1.5"/>
   </g>
   <g id="line2d_17"/>
   <g id="line2d_18"/>
   <g id="line2d_19"/>
   <g id="line2d_20"/>
   <g id="line2d_21"/>
   <g id="patch_3">
    <path d="M 53.31 273.312 
L 53.31 7.2 
" style="fill: none; stroke: #cccccc; stroke-width: 1.25; stroke-linejoin: miter; stroke-linecap: square"/>
   </g>
   <g id="patch_4">
    <path d="M 410.43 273.312 
L 410.43 7.2 
" style="fill: none; stroke: #cccccc; stroke-width: 1.25; stroke-linejoin: miter; stroke-linecap: square"/>
   </g>
   <g id="patch_5">
    <path d="M 53.31 273.312 
L 410.43 273.312 
" style="fill: none; stroke: #cccccc; stroke-width: 1.25; stroke-linejoin: miter; stroke-linecap: square"/>
   </g>
   <g id="patch_6">
    <path d="M 53.31 7.2 
L 410.43 7.2 
" style="fill: none; stroke: #cccccc; stroke-width: 1.25; stroke-linejoin: miter; stroke-linecap: square"/>
   </g>
   <g id="legend_1">
    <g id="patch_7">
     <path d="M 298.745625 267.812 
L 402.73 267.812 
Q 404.93 267.812 404.93 265.612 
L 404.93 168.868562 
Q 404.93 166.668562 402.73 166.668562 
L 298.745625 166.668562 
Q 296.545625 166.668562 296.545625 168.868562 
L 296.545625 265.612 
Q 296.545625 267.812 298.745625 267.812 
z
" style="fill: #ffffff; opacity: 0.8; stroke: #cccccc; stroke-linejoin: miter"/>
    </g>
    <g id="text_14">
     <!-- Strategy -->
     <g style="fill: #262626" transform="translate(325.02875 180.186687) scale(0.12 -0.12)">
      <defs>
       <path id="DejaVuSans-53" d="M 3425 4513 
L 3425 3897 
Q 3066 4069 2747 4153 
Q 2428 4238 2131 4238 
Q 1616 4238 1336 4038 
Q 1056 3838 1056 3469 
Q 1056 3159 1242 3001 
Q 1428 2844 1947 2747 
L 2328 2669 
Q 3034 2534 3370 2195 
Q 3706 1856 3706 1288 
Q 3706 609 3251 259 
Q 2797 -91 1919 -91 
Q 1588 -91 1214 -16 
Q 841 59 441 206 
L 441 856 
Q 825 641 1194 531 
Q 1563 422 1919 422 
Q 2459 422 2753 634 
Q 3047 847 3047 1241 
Q 3047 1584 2836 1778 
Q 2625 1972 2144 2069 
L 1759 2144 
Q 1053 2284 737 2584 
Q 422 2884 422 3419 
Q 422 4038 858 4394 
Q 1294 4750 2059 4750 
Q 2388 4750 2728 4690 
Q 3069 4631 3425 4513 
z
" transform="scale(0.015625)"/>
       <path id="DejaVuSans-74" d="M 1172 4494 
L 1172 3500 
L 2356 3500 
L 2356 3053 
L 1172 3053 
L 1172 1153 
Q 1172 725 1289 603 
Q 1406 481 1766 481 
L 2356 481 
L 2356 0 
L 1766 0 
Q 1100 0 847 248 
Q 594 497 594 1153 
L 594 3053 
L 172 3053 
L 172 3500 
L 594 3500 
L 594 4494 
L 1172 4494 
z
" transform="scale(0.015625)"/>
       <path id="DejaVuSans-65" d="M 3597 1894 
L 3597 1613 
L 953 1613 
Q 991 1019 1311 708 
Q 1631 397 2203 397 
Q 2534 397 2845 478 
Q 3156 559 3463 722 
L 3463 178 
Q 3153 47 2828 -22 
Q 2503 -91 2169 -91 
Q 1331 -91 842 396 
Q 353 884 353 1716 
Q 353 2575 817 3079 
Q 1281 3584 2069 3584 
Q 2775 3584 3186 3129 
Q 3597 2675 3597 1894 
z
M 3022 2063 
Q 3016 2534 2758 2815 
Q 2500 3097 2075 3097 
Q 1594 3097 1305 2825 
Q 1016 2553 972 2059 
L 3022 2063 
z
" transform="scale(0.015625)"/>
       <path id="DejaVuSans-67" d="M 2906 1791 
Q 2906 2416 2648 2759 
Q 2391 3103 1925 3103 
Q 1463 3103 1205 2759 
Q 947 2416 947 1791 
Q 947 1169 1205 825 
Q 1463 481 1925 481 
Q 2391 481 2648 825 
Q 2906 1169 2906 1791 
z
M 3481 434 
Q 3481 -459 3084 -895 
Q 2688 -1331 1869 -1331 
Q 1566 -1331 1297 -1286 
Q 1028 -1241 775 -1147 
L 775 -588 
Q 1028 -725 1275 -790 
Q 1522 -856 1778 -856 
Q 2344 -856 2625 -561 
Q 2906 -266 2906 331 
L 2906 616 
Q 2728 306 2450 153 
Q 2172 0 1784 0 
Q 1141 0 747 490 
Q 353 981 353 1791 
Q 353 2603 747 3093 
Q 1141 3584 1784 3584 
Q 2172 3584 2450 3431 
Q 2728 3278 2906 2969 
L 2906 3500 
L 3481 3500 
L 3481 434 
z
" transform="scale(0.015625)"/>
      </defs>
      <use xlink:href="#DejaVuSans-53"/>
      <use xlink:href="#DejaVuSans-74" x="63.476562"/>
      <use xlink:href="#DejaVuSans-72" x="102.685547"/>
      <use xlink:href="#DejaVuSans-61" x="143.798828"/>
      <use xlink:href="#DejaVuSans-74" x="205.078125"/>
      <use xlink:href="#DejaVuSans-65" x="244.287109"/>
      <use xlink:href="#DejaVuSans-67" x="305.810547"/>
      <use xlink:href="#DejaVuSans-79" x="369.287109"/>
     </g>
    </g>
    <g id="line2d_22">
     <path d="M 300.945625 192.690594 
L 311.945625 192.690594 
L 322.945625 192.690594 
" style="fill: none; stroke: #4c72b0; stroke-width: 1.5; stroke-linecap: round"/>
    </g>
    <g id="text_15">
     <!-- FedPredict -->
     <g style="fill: #262626" transform="translate(331.745625 196.540594) scale(0.11 -0.11)">
      <defs>
       <path id="DejaVuSans-46" d="M 628 4666 
L 3309 4666 
L 3309 4134 
L 1259 4134 
L 1259 2759 
L 3109 2759 
L 3109 2228 
L 1259 2228 
L 1259 0 
L 628 0 
L 628 4666 
z
" transform="scale(0.015625)"/>
       <path id="DejaVuSans-50" d="M 1259 4147 
L 1259 2394 
L 2053 2394 
Q 2494 2394 2734 2622 
Q 2975 2850 2975 3272 
Q 2975 3691 2734 3919 
Q 2494 4147 2053 4147 
L 1259 4147 
z
M 628 4666 
L 2053 4666 
Q 2838 4666 3239 4311 
Q 3641 3956 3641 3272 
Q 3641 2581 3239 2228 
Q 2838 1875 2053 1875 
L 1259 1875 
L 1259 0 
L 628 0 
L 628 4666 
z
" transform="scale(0.015625)"/>
       <path id="DejaVuSans-69" d="M 603 3500 
L 1178 3500 
L 1178 0 
L 603 0 
L 603 3500 
z
M 603 4863 
L 1178 4863 
L 1178 4134 
L 603 4134 
L 603 4863 
z
" transform="scale(0.015625)"/>
      </defs>
      <use xlink:href="#DejaVuSans-46"/>
      <use xlink:href="#DejaVuSans-65" x="52.019531"/>
      <use xlink:href="#DejaVuSans-64" x="113.542969"/>
      <use xlink:href="#DejaVuSans-50" x="177.019531"/>
      <use xlink:href="#DejaVuSans-72" x="235.572266"/>
      <use xlink:href="#DejaVuSans-65" x="274.435547"/>
      <use xlink:href="#DejaVuSans-64" x="335.958984"/>
      <use xlink:href="#DejaVuSans-69" x="399.435547"/>
      <use xlink:href="#DejaVuSans-63" x="427.21875"/>
      <use xlink:href="#DejaVuSans-74" x="482.199219"/>
     </g>
    </g>
    <g id="line2d_23">
     <path d="M 300.945625 208.836531 
L 311.945625 208.836531 
L 322.945625 208.836531 
" style="fill: none; stroke-dasharray: 6,2.25; stroke-dashoffset: 0; stroke: #dd8452; stroke-width: 1.5"/>
    </g>
    <g id="text_16">
     <!-- FedAVG -->
     <g style="fill: #262626" transform="translate(331.745625 212.686531) scale(0.11 -0.11)">
      <defs>
       <path id="DejaVuSans-56" d="M 1831 0 
L 50 4666 
L 709 4666 
L 2188 738 
L 3669 4666 
L 4325 4666 
L 2547 0 
L 1831 0 
z
" transform="scale(0.015625)"/>
       <path id="DejaVuSans-47" d="M 3809 666 
L 3809 1919 
L 2778 1919 
L 2778 2438 
L 4434 2438 
L 4434 434 
Q 4069 175 3628 42 
Q 3188 -91 2688 -91 
Q 1594 -91 976 548 
Q 359 1188 359 2328 
Q 359 3472 976 4111 
Q 1594 4750 2688 4750 
Q 3144 4750 3555 4637 
Q 3966 4525 4313 4306 
L 4313 3634 
Q 3963 3931 3569 4081 
Q 3175 4231 2741 4231 
Q 1884 4231 1454 3753 
Q 1025 3275 1025 2328 
Q 1025 1384 1454 906 
Q 1884 428 2741 428 
Q 3075 428 3337 486 
Q 3600 544 3809 666 
z
" transform="scale(0.015625)"/>
      </defs>
      <use xlink:href="#DejaVuSans-46"/>
      <use xlink:href="#DejaVuSans-65" x="52.019531"/>
      <use xlink:href="#DejaVuSans-64" x="113.542969"/>
      <use xlink:href="#DejaVuSans-41" x="177.019531"/>
      <use xlink:href="#DejaVuSans-56" x="239.052734"/>
      <use xlink:href="#DejaVuSans-47" x="307.460938"/>
     </g>
    </g>
    <g id="line2d_24">
     <path d="M 300.945625 224.982469 
L 311.945625 224.982469 
L 322.945625 224.982469 
" style="fill: none; stroke-dasharray: 1.5,1.5; stroke-dashoffset: 0; stroke: #55a868; stroke-width: 1.5"/>
    </g>
    <g id="text_17">
     <!-- FedClassAvg -->
     <g style="fill: #262626" transform="translate(331.745625 228.832469) scale(0.11 -0.11)">
      <defs>
       <path id="DejaVuSans-43" d="M 4122 4306 
L 4122 3641 
Q 3803 3938 3442 4084 
Q 3081 4231 2675 4231 
Q 1875 4231 1450 3742 
Q 1025 3253 1025 2328 
Q 1025 1406 1450 917 
Q 1875 428 2675 428 
Q 3081 428 3442 575 
Q 3803 722 4122 1019 
L 4122 359 
Q 3791 134 3420 21 
Q 3050 -91 2638 -91 
Q 1578 -91 968 557 
Q 359 1206 359 2328 
Q 359 3453 968 4101 
Q 1578 4750 2638 4750 
Q 3056 4750 3426 4639 
Q 3797 4528 4122 4306 
z
" transform="scale(0.015625)"/>
       <path id="DejaVuSans-6c" d="M 603 4863 
L 1178 4863 
L 1178 0 
L 603 0 
L 603 4863 
z
" transform="scale(0.015625)"/>
       <path id="DejaVuSans-73" d="M 2834 3397 
L 2834 2853 
Q 2591 2978 2328 3040 
Q 2066 3103 1784 3103 
Q 1356 3103 1142 2972 
Q 928 2841 928 2578 
Q 928 2378 1081 2264 
Q 1234 2150 1697 2047 
L 1894 2003 
Q 2506 1872 2764 1633 
Q 3022 1394 3022 966 
Q 3022 478 2636 193 
Q 2250 -91 1575 -91 
Q 1294 -91 989 -36 
Q 684 19 347 128 
L 347 722 
Q 666 556 975 473 
Q 1284 391 1588 391 
Q 1994 391 2212 530 
Q 2431 669 2431 922 
Q 2431 1156 2273 1281 
Q 2116 1406 1581 1522 
L 1381 1569 
Q 847 1681 609 1914 
Q 372 2147 372 2553 
Q 372 3047 722 3315 
Q 1072 3584 1716 3584 
Q 2034 3584 2315 3537 
Q 2597 3491 2834 3397 
z
" transform="scale(0.015625)"/>
       <path id="DejaVuSans-76" d="M 191 3500 
L 800 3500 
L 1894 563 
L 2988 3500 
L 3597 3500 
L 2284 0 
L 1503 0 
L 191 3500 
z
" transform="scale(0.015625)"/>
      </defs>
      <use xlink:href="#DejaVuSans-46"/>
      <use xlink:href="#DejaVuSans-65" x="52.019531"/>
      <use xlink:href="#DejaVuSans-64" x="113.542969"/>
      <use xlink:href="#DejaVuSans-43" x="177.019531"/>
      <use xlink:href="#DejaVuSans-6c" x="246.84375"/>
      <use xlink:href="#DejaVuSans-61" x="274.626953"/>
      <use xlink:href="#DejaVuSans-73" x="335.90625"/>
      <use xlink:href="#DejaVuSans-73" x="388.005859"/>
      <use xlink:href="#DejaVuSans-41" x="440.105469"/>
      <use xlink:href="#DejaVuSans-76" x="502.638672"/>
      <use xlink:href="#DejaVuSans-67" x="561.818359"/>
     </g>
    </g>
    <g id="line2d_25">
     <path d="M 300.945625 241.128406 
L 311.945625 241.128406 
L 322.945625 241.128406 
" style="fill: none; stroke-dasharray: 4.5,1.875,2.25,1.875; stroke-dashoffset: 0; stroke: #c44e52; stroke-width: 1.5"/>
    </g>
    <g id="text_18">
     <!-- FedPer -->
     <g style="fill: #262626" transform="translate(331.745625 244.978406) scale(0.11 -0.11)">
      <use xlink:href="#DejaVuSans-46"/>
      <use xlink:href="#DejaVuSans-65" x="52.019531"/>
      <use xlink:href="#DejaVuSans-64" x="113.542969"/>
      <use xlink:href="#DejaVuSans-50" x="177.019531"/>
      <use xlink:href="#DejaVuSans-65" x="233.697266"/>
      <use xlink:href="#DejaVuSans-72" x="295.220703"/>
     </g>
    </g>
    <g id="line2d_26">
     <path d="M 300.945625 257.274344 
L 311.945625 257.274344 
L 322.945625 257.274344 
" style="fill: none; stroke-dasharray: 7.5,1.5,1.5,1.5; stroke-dashoffset: 0; stroke: #8172b3; stroke-width: 1.5"/>
    </g>
    <g id="text_19">
     <!-- FedProto -->
     <g style="fill: #262626" transform="translate(331.745625 261.124344) scale(0.11 -0.11)">
      <use xlink:href="#DejaVuSans-46"/>
      <use xlink:href="#DejaVuSans-65" x="52.019531"/>
      <use xlink:href="#DejaVuSans-64" x="113.542969"/>
      <use xlink:href="#DejaVuSans-50" x="177.019531"/>
      <use xlink:href="#DejaVuSans-72" x="235.572266"/>
      <use xlink:href="#DejaVuSans-6f" x="274.435547"/>
      <use xlink:href="#DejaVuSans-74" x="335.617188"/>
      <use xlink:href="#DejaVuSans-6f" x="374.826172"/>
     </g>
    </g>
   </g>
  </g>
 </g>
 <defs>
  <clipPath id="p3e3c3cc3cb">
   <rect x="53.31" y="7.2" width="357.12" height="266.112"/>
  </clipPath>
 </defs>
</svg>
