<?xml version="1.0" encoding="utf-8" standalone="no"?>
<!DOCTYPE svg PUBLIC "-//W3C//DTD SVG 1.1//EN"
  "http://www.w3.org/Graphics/SVG/1.1/DTD/svg11.dtd">
<svg xmlns:xlink="http://www.w3.org/1999/xlink" width="414.127187pt" height="316.271687pt" viewBox="0 0 414.127187 316.271687" xmlns="http://www.w3.org/2000/svg" version="1.1">
 <metadata>
  <rdf:RDF xmlns:dc="http://purl.org/dc/elements/1.1/" xmlns:cc="http://creativecommons.org/ns#" xmlns:rdf="http://www.w3.org/1999/02/22-rdf-syntax-ns#">
   <cc:Work>
    <dc:type rdf:resource="http://purl.org/dc/dcmitype/StillImage"/>
    <dc:date>2023-03-01T14:23:18.642792</dc:date>
    <dc:format>image/svg+xml</dc:format>
    <dc:creator>
     <cc:Agent>
      <dc:title>Matplotlib v3.6.3, https://matplotlib.org/</dc:title>
     </cc:Agent>
    </dc:creator>
   </cc:Work>
  </rdf:RDF>
 </metadata>
 <defs>
  <style type="text/css">*{stroke-linejoin: round; stroke-linecap: butt}</style>
 </defs>
 <g id="figure_1">
  <g id="patch_1">
   <path d="M 0 316.271687 
L 414.127187 316.271687 
L 414.127187 0 
L 0 0 
z
" style="fill: #ffffff"/>
  </g>
  <g id="axes_1">
   <g id="patch_2">
    <path d="M 49.807187 273.312 
L 406.927188 273.312 
L 406.927188 7.2 
L 49.807187 7.2 
z
" style="fill: #ffffff"/>
   </g>
   <g id="matplotlib.axis_1">
    <g id="xtick_1">
     <g id="line2d_1">
      <path d="M 62.760576 273.312 
L 62.760576 7.2 
" clip-path="url(#p652e0cedfb)" style="fill: none; stroke: #cccccc; stroke-linecap: round"/>
     </g>
     <g id="text_1">
      <!-- 0 -->
      <g style="fill: #262626" transform="translate(59.261201 291.170281) scale(0.11 -0.11)">
       <defs>
        <path id="DejaVuSans-30" d="M 2034 4250 
Q 1547 4250 1301 3770 
Q 1056 3291 1056 2328 
Q 1056 1369 1301 889 
Q 1547 409 2034 409 
Q 2525 409 2770 889 
Q 3016 1369 3016 2328 
Q 3016 3291 2770 3770 
Q 2525 4250 2034 4250 
z
M 2034 4750 
Q 2819 4750 3233 4129 
Q 3647 3509 3647 2328 
Q 3647 1150 3233 529 
Q 2819 -91 2034 -91 
Q 1250 -91 836 529 
Q 422 1150 422 2328 
Q 422 3509 836 4129 
Q 1250 4750 2034 4750 
z
" transform="scale(0.015625)"/>
       </defs>
       <use xlink:href="#DejaVuSans-30"/>
      </g>
     </g>
    </g>
    <g id="xtick_2">
     <g id="line2d_2">
      <path d="M 128.347353 273.312 
L 128.347353 7.2 
" clip-path="url(#p652e0cedfb)" style="fill: none; stroke: #cccccc; stroke-linecap: round"/>
     </g>
     <g id="text_2">
      <!-- 20 -->
      <g style="fill: #262626" transform="translate(121.348603 291.170281) scale(0.11 -0.11)">
       <defs>
        <path id="DejaVuSans-32" d="M 1228 531 
L 3431 531 
L 3431 0 
L 469 0 
L 469 531 
Q 828 903 1448 1529 
Q 2069 2156 2228 2338 
Q 2531 2678 2651 2914 
Q 2772 3150 2772 3378 
Q 2772 3750 2511 3984 
Q 2250 4219 1831 4219 
Q 1534 4219 1204 4116 
Q 875 4013 500 3803 
L 500 4441 
Q 881 4594 1212 4672 
Q 1544 4750 1819 4750 
Q 2544 4750 2975 4387 
Q 3406 4025 3406 3419 
Q 3406 3131 3298 2873 
Q 3191 2616 2906 2266 
Q 2828 2175 2409 1742 
Q 1991 1309 1228 531 
z
" transform="scale(0.015625)"/>
       </defs>
       <use xlink:href="#DejaVuSans-32"/>
       <use xlink:href="#DejaVuSans-30" x="63.623047"/>
      </g>
     </g>
    </g>
    <g id="xtick_3">
     <g id="line2d_3">
      <path d="M 193.93413 273.312 
L 193.93413 7.2 
" clip-path="url(#p652e0cedfb)" style="fill: none; stroke: #cccccc; stroke-linecap: round"/>
     </g>
     <g id="text_3">
      <!-- 40 -->
      <g style="fill: #262626" transform="translate(186.93538 291.170281) scale(0.11 -0.11)">
       <defs>
        <path id="DejaVuSans-34" d="M 2419 4116 
L 825 1625 
L 2419 1625 
L 2419 4116 
z
M 2253 4666 
L 3047 4666 
L 3047 1625 
L 3713 1625 
L 3713 1100 
L 3047 1100 
L 3047 0 
L 2419 0 
L 2419 1100 
L 313 1100 
L 313 1709 
L 2253 4666 
z
" transform="scale(0.015625)"/>
       </defs>
       <use xlink:href="#DejaVuSans-34"/>
       <use xlink:href="#DejaVuSans-30" x="63.623047"/>
      </g>
     </g>
    </g>
    <g id="xtick_4">
     <g id="line2d_4">
      <path d="M 259.520907 273.312 
L 259.520907 7.2 
" clip-path="url(#p652e0cedfb)" style="fill: none; stroke: #cccccc; stroke-linecap: round"/>
     </g>
     <g id="text_4">
      <!-- 60 -->
      <g style="fill: #262626" transform="translate(252.522157 291.170281) scale(0.11 -0.11)">
       <defs>
        <path id="DejaVuSans-36" d="M 2113 2584 
Q 1688 2584 1439 2293 
Q 1191 2003 1191 1497 
Q 1191 994 1439 701 
Q 1688 409 2113 409 
Q 2538 409 2786 701 
Q 3034 994 3034 1497 
Q 3034 2003 2786 2293 
Q 2538 2584 2113 2584 
z
M 3366 4563 
L 3366 3988 
Q 3128 4100 2886 4159 
Q 2644 4219 2406 4219 
Q 1781 4219 1451 3797 
Q 1122 3375 1075 2522 
Q 1259 2794 1537 2939 
Q 1816 3084 2150 3084 
Q 2853 3084 3261 2657 
Q 3669 2231 3669 1497 
Q 3669 778 3244 343 
Q 2819 -91 2113 -91 
Q 1303 -91 875 529 
Q 447 1150 447 2328 
Q 447 3434 972 4092 
Q 1497 4750 2381 4750 
Q 2619 4750 2861 4703 
Q 3103 4656 3366 4563 
z
" transform="scale(0.015625)"/>
       </defs>
       <use xlink:href="#DejaVuSans-36"/>
       <use xlink:href="#DejaVuSans-30" x="63.623047"/>
      </g>
     </g>
    </g>
    <g id="xtick_5">
     <g id="line2d_5">
      <path d="M 325.107683 273.312 
L 325.107683 7.2 
" clip-path="url(#p652e0cedfb)" style="fill: none; stroke: #cccccc; stroke-linecap: round"/>
     </g>
     <g id="text_5">
      <!-- 80 -->
      <g style="fill: #262626" transform="translate(318.108933 291.170281) scale(0.11 -0.11)">
       <defs>
        <path id="DejaVuSans-38" d="M 2034 2216 
Q 1584 2216 1326 1975 
Q 1069 1734 1069 1313 
Q 1069 891 1326 650 
Q 1584 409 2034 409 
Q 2484 409 2743 651 
Q 3003 894 3003 1313 
Q 3003 1734 2745 1975 
Q 2488 2216 2034 2216 
z
M 1403 2484 
Q 997 2584 770 2862 
Q 544 3141 544 3541 
Q 544 4100 942 4425 
Q 1341 4750 2034 4750 
Q 2731 4750 3128 4425 
Q 3525 4100 3525 3541 
Q 3525 3141 3298 2862 
Q 3072 2584 2669 2484 
Q 3125 2378 3379 2068 
Q 3634 1759 3634 1313 
Q 3634 634 3220 271 
Q 2806 -91 2034 -91 
Q 1263 -91 848 271 
Q 434 634 434 1313 
Q 434 1759 690 2068 
Q 947 2378 1403 2484 
z
M 1172 3481 
Q 1172 3119 1398 2916 
Q 1625 2713 2034 2713 
Q 2441 2713 2670 2916 
Q 2900 3119 2900 3481 
Q 2900 3844 2670 4047 
Q 2441 4250 2034 4250 
Q 1625 4250 1398 4047 
Q 1172 3844 1172 3481 
z
" transform="scale(0.015625)"/>
       </defs>
       <use xlink:href="#DejaVuSans-38"/>
       <use xlink:href="#DejaVuSans-30" x="63.623047"/>
      </g>
     </g>
    </g>
    <g id="xtick_6">
     <g id="line2d_6">
      <path d="M 390.69446 273.312 
L 390.69446 7.2 
" clip-path="url(#p652e0cedfb)" style="fill: none; stroke: #cccccc; stroke-linecap: round"/>
     </g>
     <g id="text_6">
      <!-- 100 -->
      <g style="fill: #262626" transform="translate(380.196335 291.170281) scale(0.11 -0.11)">
       <defs>
        <path id="DejaVuSans-31" d="M 794 531 
L 1825 531 
L 1825 4091 
L 703 3866 
L 703 4441 
L 1819 4666 
L 2450 4666 
L 2450 531 
L 3481 531 
L 3481 0 
L 794 0 
L 794 531 
z
" transform="scale(0.015625)"/>
       </defs>
       <use xlink:href="#DejaVuSans-31"/>
       <use xlink:href="#DejaVuSans-30" x="63.623047"/>
       <use xlink:href="#DejaVuSans-30" x="127.246094"/>
      </g>
     </g>
    </g>
    <g id="text_7">
     <!-- Round -->
     <g style="fill: #262626" transform="translate(209.382812 306.576062) scale(0.12 -0.12)">
      <defs>
       <path id="DejaVuSans-52" d="M 2841 2188 
Q 3044 2119 3236 1894 
Q 3428 1669 3622 1275 
L 4263 0 
L 3584 0 
L 2988 1197 
Q 2756 1666 2539 1819 
Q 2322 1972 1947 1972 
L 1259 1972 
L 1259 0 
L 628 0 
L 628 4666 
L 2053 4666 
Q 2853 4666 3247 4331 
Q 3641 3997 3641 3322 
Q 3641 2881 3436 2590 
Q 3231 2300 2841 2188 
z
M 1259 4147 
L 1259 2491 
L 2053 2491 
Q 2509 2491 2742 2702 
Q 2975 2913 2975 3322 
Q 2975 3731 2742 3939 
Q 2509 4147 2053 4147 
L 1259 4147 
z
" transform="scale(0.015625)"/>
       <path id="DejaVuSans-6f" d="M 1959 3097 
Q 1497 3097 1228 2736 
Q 959 2375 959 1747 
Q 959 1119 1226 758 
Q 1494 397 1959 397 
Q 2419 397 2687 759 
Q 2956 1122 2956 1747 
Q 2956 2369 2687 2733 
Q 2419 3097 1959 3097 
z
M 1959 3584 
Q 2709 3584 3137 3096 
Q 3566 2609 3566 1747 
Q 3566 888 3137 398 
Q 2709 -91 1959 -91 
Q 1206 -91 779 398 
Q 353 888 353 1747 
Q 353 2609 779 3096 
Q 1206 3584 1959 3584 
z
" transform="scale(0.015625)"/>
       <path id="DejaVuSans-75" d="M 544 1381 
L 544 3500 
L 1119 3500 
L 1119 1403 
Q 1119 906 1312 657 
Q 1506 409 1894 409 
Q 2359 409 2629 706 
Q 2900 1003 2900 1516 
L 2900 3500 
L 3475 3500 
L 3475 0 
L 2900 0 
L 2900 538 
Q 2691 219 2414 64 
Q 2138 -91 1772 -91 
Q 1169 -91 856 284 
Q 544 659 544 1381 
z
M 1991 3584 
L 1991 3584 
z
" transform="scale(0.015625)"/>
       <path id="DejaVuSans-6e" d="M 3513 2113 
L 3513 0 
L 2938 0 
L 2938 2094 
Q 2938 2591 2744 2837 
Q 2550 3084 2163 3084 
Q 1697 3084 1428 2787 
Q 1159 2491 1159 1978 
L 1159 0 
L 581 0 
L 581 3500 
L 1159 3500 
L 1159 2956 
Q 1366 3272 1645 3428 
Q 1925 3584 2291 3584 
Q 2894 3584 3203 3211 
Q 3513 2838 3513 2113 
z
" transform="scale(0.015625)"/>
       <path id="DejaVuSans-64" d="M 2906 2969 
L 2906 4863 
L 3481 4863 
L 3481 0 
L 2906 0 
L 2906 525 
Q 2725 213 2448 61 
Q 2172 -91 1784 -91 
Q 1150 -91 751 415 
Q 353 922 353 1747 
Q 353 2572 751 3078 
Q 1150 3584 1784 3584 
Q 2172 3584 2448 3432 
Q 2725 3281 2906 2969 
z
M 947 1747 
Q 947 1113 1208 752 
Q 1469 391 1925 391 
Q 2381 391 2643 752 
Q 2906 1113 2906 1747 
Q 2906 2381 2643 2742 
Q 2381 3103 1925 3103 
Q 1469 3103 1208 2742 
Q 947 2381 947 1747 
z
" transform="scale(0.015625)"/>
      </defs>
      <use xlink:href="#DejaVuSans-52"/>
      <use xlink:href="#DejaVuSans-6f" x="64.982422"/>
      <use xlink:href="#DejaVuSans-75" x="126.164062"/>
      <use xlink:href="#DejaVuSans-6e" x="189.542969"/>
      <use xlink:href="#DejaVuSans-64" x="252.921875"/>
     </g>
    </g>
   </g>
   <g id="matplotlib.axis_2">
    <g id="ytick_1">
     <g id="line2d_7">
      <path d="M 49.807187 258.020999 
L 406.927188 258.020999 
" clip-path="url(#p652e0cedfb)" style="fill: none; stroke: #cccccc; stroke-linecap: round"/>
     </g>
     <g id="text_8">
      <!-- 0.5 -->
      <g style="fill: #262626" transform="translate(22.81375 262.200139) scale(0.11 -0.11)">
       <defs>
        <path id="DejaVuSans-2e" d="M 684 794 
L 1344 794 
L 1344 0 
L 684 0 
L 684 794 
z
" transform="scale(0.015625)"/>
        <path id="DejaVuSans-35" d="M 691 4666 
L 3169 4666 
L 3169 4134 
L 1269 4134 
L 1269 2991 
Q 1406 3038 1543 3061 
Q 1681 3084 1819 3084 
Q 2600 3084 3056 2656 
Q 3513 2228 3513 1497 
Q 3513 744 3044 326 
Q 2575 -91 1722 -91 
Q 1428 -91 1123 -41 
Q 819 9 494 109 
L 494 744 
Q 775 591 1075 516 
Q 1375 441 1709 441 
Q 2250 441 2565 725 
Q 2881 1009 2881 1497 
Q 2881 1984 2565 2268 
Q 2250 2553 1709 2553 
Q 1456 2553 1204 2497 
Q 953 2441 691 2322 
L 691 4666 
z
" transform="scale(0.015625)"/>
       </defs>
       <use xlink:href="#DejaVuSans-30"/>
       <use xlink:href="#DejaVuSans-2e" x="63.623047"/>
       <use xlink:href="#DejaVuSans-35" x="95.410156"/>
      </g>
     </g>
    </g>
    <g id="ytick_2">
     <g id="line2d_8">
      <path d="M 49.807187 205.476922 
L 406.927188 205.476922 
" clip-path="url(#p652e0cedfb)" style="fill: none; stroke: #cccccc; stroke-linecap: round"/>
     </g>
     <g id="text_9">
      <!-- 1.0 -->
      <g style="fill: #262626" transform="translate(22.81375 209.656062) scale(0.11 -0.11)">
       <use xlink:href="#DejaVuSans-31"/>
       <use xlink:href="#DejaVuSans-2e" x="63.623047"/>
       <use xlink:href="#DejaVuSans-30" x="95.410156"/>
      </g>
     </g>
    </g>
    <g id="ytick_3">
     <g id="line2d_9">
      <path d="M 49.807187 152.932845 
L 406.927188 152.932845 
" clip-path="url(#p652e0cedfb)" style="fill: none; stroke: #cccccc; stroke-linecap: round"/>
     </g>
     <g id="text_10">
      <!-- 1.5 -->
      <g style="fill: #262626" transform="translate(22.81375 157.111985) scale(0.11 -0.11)">
       <use xlink:href="#DejaVuSans-31"/>
       <use xlink:href="#DejaVuSans-2e" x="63.623047"/>
       <use xlink:href="#DejaVuSans-35" x="95.410156"/>
      </g>
     </g>
    </g>
    <g id="ytick_4">
     <g id="line2d_10">
      <path d="M 49.807187 100.388768 
L 406.927188 100.388768 
" clip-path="url(#p652e0cedfb)" style="fill: none; stroke: #cccccc; stroke-linecap: round"/>
     </g>
     <g id="text_11">
      <!-- 2.0 -->
      <g style="fill: #262626" transform="translate(22.81375 104.567908) scale(0.11 -0.11)">
       <use xlink:href="#DejaVuSans-32"/>
       <use xlink:href="#DejaVuSans-2e" x="63.623047"/>
       <use xlink:href="#DejaVuSans-30" x="95.410156"/>
      </g>
     </g>
    </g>
    <g id="ytick_5">
     <g id="line2d_11">
      <path d="M 49.807187 47.844691 
L 406.927188 47.844691 
" clip-path="url(#p652e0cedfb)" style="fill: none; stroke: #cccccc; stroke-linecap: round"/>
     </g>
     <g id="text_12">
      <!-- 2.5 -->
      <g style="fill: #262626" transform="translate(22.81375 52.023832) scale(0.11 -0.11)">
       <use xlink:href="#DejaVuSans-32"/>
       <use xlink:href="#DejaVuSans-2e" x="63.623047"/>
       <use xlink:href="#DejaVuSans-35" x="95.410156"/>
      </g>
     </g>
    </g>
    <g id="text_13">
     <!-- Loss -->
     <g style="fill: #262626" transform="translate(16.318125 153.416625) rotate(-90) scale(0.12 -0.12)">
      <defs>
       <path id="DejaVuSans-4c" d="M 628 4666 
L 1259 4666 
L 1259 531 
L 3531 531 
L 3531 0 
L 628 0 
L 628 4666 
z
" transform="scale(0.015625)"/>
       <path id="DejaVuSans-73" d="M 2834 3397 
L 2834 2853 
Q 2591 2978 2328 3040 
Q 2066 3103 1784 3103 
Q 1356 3103 1142 2972 
Q 928 2841 928 2578 
Q 928 2378 1081 2264 
Q 1234 2150 1697 2047 
L 1894 2003 
Q 2506 1872 2764 1633 
Q 3022 1394 3022 966 
Q 3022 478 2636 193 
Q 2250 -91 1575 -91 
Q 1294 -91 989 -36 
Q 684 19 347 128 
L 347 722 
Q 666 556 975 473 
Q 1284 391 1588 391 
Q 1994 391 2212 530 
Q 2431 669 2431 922 
Q 2431 1156 2273 1281 
Q 2116 1406 1581 1522 
L 1381 1569 
Q 847 1681 609 1914 
Q 372 2147 372 2553 
Q 372 3047 722 3315 
Q 1072 3584 1716 3584 
Q 2034 3584 2315 3537 
Q 2597 3491 2834 3397 
z
" transform="scale(0.015625)"/>
      </defs>
      <use xlink:href="#DejaVuSans-4c"/>
      <use xlink:href="#DejaVuSans-6f" x="53.962891"/>
      <use xlink:href="#DejaVuSans-73" x="115.144531"/>
      <use xlink:href="#DejaVuSans-73" x="167.244141"/>
     </g>
    </g>
   </g>
   <g id="PolyCollection_1">
    <defs>
     <path id="md121f2fdc6" d="M 66.039915 -257.702341 
L 66.039915 -214.751141 
L 69.319254 -189.889539 
L 72.598592 -163.247973 
L 75.877931 -148.046906 
L 79.15727 -132.2916 
L 82.436609 -128.363131 
L 85.715948 -127.713032 
L 88.995287 -124.90341 
L 92.274626 -119.182631 
L 95.553964 -116.234381 
L 98.833303 -112.200527 
L 102.112642 -114.29758 
L 105.391981 -108.171865 
L 108.67132 -99.771059 
L 111.950659 -97.39309 
L 115.229997 -97.541746 
L 118.509336 -97.409705 
L 121.788675 -96.401012 
L 125.068014 -92.999519 
L 128.347353 -93.670694 
L 131.626692 -90.703921 
L 134.90603 -90.827878 
L 138.185369 -87.738124 
L 141.464708 -92.619085 
L 144.744047 -84.011789 
L 148.023386 -84.181541 
L 151.302725 -82.85334 
L 154.582064 -82.749514 
L 157.861402 -81.570415 
L 161.140741 -81.853147 
L 164.42008 -83.436646 
L 167.699419 -78.87207 
L 170.978758 -79.027059 
L 174.258097 -78.823903 
L 177.537435 -73.731111 
L 180.816774 -73.839291 
L 184.096113 -76.127201 
L 187.375452 -76.319195 
L 190.654791 -72.880542 
L 193.93413 -74.395735 
L 197.213468 -73.744551 
L 200.492807 -75.210562 
L 203.772146 -74.505638 
L 207.051485 -75.329463 
L 210.330824 -74.014025 
L 213.610163 -72.857167 
L 216.889502 -71.297986 
L 220.16884 -71.758198 
L 223.448179 -68.54337 
L 226.727518 -69.961981 
L 230.006857 -69.481751 
L 233.286196 -66.572284 
L 236.565535 -67.33304 
L 239.844873 -67.510829 
L 243.124212 -67.741955 
L 246.403551 -67.170192 
L 249.68289 -66.254966 
L 252.962229 -65.71123 
L 256.241568 -64.704715 
L 259.520907 -66.680158 
L 262.800245 -65.303914 
L 266.079584 -66.430455 
L 269.358923 -63.286058 
L 272.638262 -64.36386 
L 275.917601 -64.238756 
L 279.19694 -65.981662 
L 282.476278 -66.533261 
L 285.755617 -62.138785 
L 289.034956 -61.258165 
L 292.314295 -60.29473 
L 295.593634 -59.849231 
L 298.872973 -60.737141 
L 302.152311 -62.662807 
L 305.43165 -63.650132 
L 308.710989 -61.335128 
L 311.990328 -61.112754 
L 315.269667 -59.834787 
L 318.549006 -60.579651 
L 321.828345 -59.313488 
L 325.107683 -59.62834 
L 328.387022 -59.007452 
L 331.666361 -57.476446 
L 334.9457 -58.820051 
L 338.225039 -58.733489 
L 341.504378 -58.110471 
L 344.783716 -57.712991 
L 348.063055 -58.65682 
L 351.342394 -58.37105 
L 354.621733 -58.844466 
L 357.901072 -58.124694 
L 361.180411 -59.501143 
L 364.459749 -58.605063 
L 367.739088 -57.813169 
L 371.018427 -57.375702 
L 374.297766 -57.97021 
L 377.577105 -59.604986 
L 380.856444 -57.111903 
L 384.135783 -56.810314 
L 387.415121 -55.229094 
L 390.69446 -55.055687 
L 390.69446 -71.693559 
L 390.69446 -71.693559 
L 387.415121 -72.867029 
L 384.135783 -73.176298 
L 380.856444 -73.671262 
L 377.577105 -75.77581 
L 374.297766 -74.632946 
L 371.018427 -73.363254 
L 367.739088 -72.975527 
L 364.459749 -74.414865 
L 361.180411 -76.325082 
L 357.901072 -75.700719 
L 354.621733 -77.090354 
L 351.342394 -74.114367 
L 348.063055 -74.248325 
L 344.783716 -74.271176 
L 341.504378 -74.041961 
L 338.225039 -75.602622 
L 334.9457 -74.724227 
L 331.666361 -73.889002 
L 328.387022 -75.703068 
L 325.107683 -76.238111 
L 321.828345 -75.413302 
L 318.549006 -76.617806 
L 315.269667 -75.60781 
L 311.990328 -77.060794 
L 308.710989 -79.471157 
L 305.43165 -81.08579 
L 302.152311 -79.066925 
L 298.872973 -78.823555 
L 295.593634 -76.484419 
L 292.314295 -76.848989 
L 289.034956 -78.39574 
L 285.755617 -78.061981 
L 282.476278 -82.708491 
L 279.19694 -82.390454 
L 275.917601 -80.955583 
L 272.638262 -79.771983 
L 269.358923 -80.986103 
L 266.079584 -83.683744 
L 262.800245 -82.029522 
L 259.520907 -83.393902 
L 256.241568 -81.767331 
L 252.962229 -82.936509 
L 249.68289 -84.380483 
L 246.403551 -85.327802 
L 243.124212 -86.045519 
L 239.844873 -84.451541 
L 236.565535 -84.998127 
L 233.286196 -83.637233 
L 230.006857 -86.250634 
L 226.727518 -87.470822 
L 223.448179 -86.175055 
L 220.16884 -90.191768 
L 216.889502 -87.459119 
L 213.610163 -89.964117 
L 210.330824 -91.869866 
L 207.051485 -92.311761 
L 203.772146 -92.509167 
L 200.492807 -92.930713 
L 197.213468 -92.113056 
L 193.93413 -93.93781 
L 190.654791 -90.672142 
L 187.375452 -94.91934 
L 184.096113 -95.015672 
L 180.816774 -91.767929 
L 177.537435 -91.511198 
L 174.258097 -99.599208 
L 170.978758 -96.856662 
L 167.699419 -97.308034 
L 164.42008 -101.855409 
L 161.140741 -100.189245 
L 157.861402 -101.796172 
L 154.582064 -102.164964 
L 151.302725 -102.892856 
L 148.023386 -103.666061 
L 144.744047 -104.679226 
L 141.464708 -113.119135 
L 138.185369 -110.439262 
L 134.90603 -112.429929 
L 131.626692 -109.931632 
L 128.347353 -113.66941 
L 125.068014 -113.203641 
L 121.788675 -120.375669 
L 118.509336 -119.590121 
L 115.229997 -121.363321 
L 111.950659 -118.53591 
L 108.67132 -124.953407 
L 105.391981 -132.594567 
L 102.112642 -143.185915 
L 98.833303 -140.330108 
L 95.553964 -141.112186 
L 92.274626 -145.201577 
L 88.995287 -150.381055 
L 85.715948 -155.498769 
L 82.436609 -160.563203 
L 79.15727 -165.161921 
L 75.877931 -187.889246 
L 72.598592 -206.26357 
L 69.319254 -243.775366 
L 66.039915 -257.702341 
z
" style="stroke: #4c72b0; stroke-opacity: 0.2"/>
    </defs>
    <g clip-path="url(#p652e0cedfb)">
     <use xlink:href="#md121f2fdc6" x="0" y="316.271687" style="fill: #4c72b0; fill-opacity: 0.2; stroke: #4c72b0; stroke-opacity: 0.2"/>
    </g>
   </g>
   <g id="PolyCollection_2">
    <defs>
     <path id="m47e35c5a96" d="M 66.039915 -272.752373 
L 66.039915 -245.380697 
L 69.319254 -258.222884 
L 72.598592 -236.766063 
L 75.877931 -239.655164 
L 79.15727 -222.613147 
L 82.436609 -219.770838 
L 85.715948 -210.709317 
L 88.995287 -208.542392 
L 92.274626 -209.052751 
L 95.553964 -211.320904 
L 98.833303 -207.765917 
L 102.112642 -218.580661 
L 105.391981 -194.347844 
L 108.67132 -191.445013 
L 111.950659 -185.867675 
L 115.229997 -184.943607 
L 118.509336 -183.801102 
L 121.788675 -187.102983 
L 125.068014 -180.496227 
L 128.347353 -184.40294 
L 131.626692 -182.743123 
L 134.90603 -189.530327 
L 138.185369 -197.195834 
L 141.464708 -178.161083 
L 144.744047 -170.455426 
L 148.023386 -171.876743 
L 151.302725 -162.407732 
L 154.582064 -165.107219 
L 157.861402 -163.820388 
L 161.140741 -169.099211 
L 164.42008 -165.116958 
L 167.699419 -163.586506 
L 170.978758 -174.856399 
L 174.258097 -167.178351 
L 177.537435 -153.593176 
L 180.816774 -154.442531 
L 184.096113 -158.442371 
L 187.375452 -176.100977 
L 190.654791 -161.660542 
L 193.93413 -159.575589 
L 197.213468 -158.91771 
L 200.492807 -160.269418 
L 203.772146 -152.476391 
L 207.051485 -163.046179 
L 210.330824 -165.495031 
L 213.610163 -153.259314 
L 216.889502 -154.84284 
L 220.16884 -155.908942 
L 223.448179 -152.296168 
L 226.727518 -149.816362 
L 230.006857 -160.931196 
L 233.286196 -152.93683 
L 236.565535 -145.302792 
L 239.844873 -152.115889 
L 243.124212 -151.740981 
L 246.403551 -150.71412 
L 249.68289 -147.023268 
L 252.962229 -146.662856 
L 256.241568 -142.830604 
L 259.520907 -146.423584 
L 262.800245 -142.756495 
L 266.079584 -148.596767 
L 269.358923 -143.200193 
L 272.638262 -141.11989 
L 275.917601 -134.113535 
L 279.19694 -137.895378 
L 282.476278 -142.367128 
L 285.755617 -155.045271 
L 289.034956 -139.303469 
L 292.314295 -142.418189 
L 295.593634 -137.656947 
L 298.872973 -136.44269 
L 302.152311 -137.507496 
L 305.43165 -132.944897 
L 308.710989 -146.829415 
L 311.990328 -136.291875 
L 315.269667 -131.995023 
L 318.549006 -144.288998 
L 321.828345 -137.566909 
L 325.107683 -142.295758 
L 328.387022 -151.301364 
L 331.666361 -129.684932 
L 334.9457 -132.397844 
L 338.225039 -135.719497 
L 341.504378 -146.745672 
L 344.783716 -139.447872 
L 348.063055 -137.406655 
L 351.342394 -129.783196 
L 354.621733 -134.905119 
L 357.901072 -153.187485 
L 361.180411 -130.977709 
L 364.459749 -140.28174 
L 367.739088 -131.186372 
L 371.018427 -132.705056 
L 374.297766 -133.253968 
L 377.577105 -138.956555 
L 380.856444 -133.699071 
L 384.135783 -129.968363 
L 387.415121 -137.74551 
L 390.69446 -127.098761 
L 390.69446 -140.170197 
L 390.69446 -140.170197 
L 387.415121 -155.916023 
L 384.135783 -154.778691 
L 380.856444 -164.995272 
L 377.577105 -168.930874 
L 374.297766 -157.192925 
L 371.018427 -159.963206 
L 367.739088 -150.616329 
L 364.459749 -167.125603 
L 361.180411 -144.319897 
L 357.901072 -187.875108 
L 354.621733 -156.08521 
L 351.342394 -146.325746 
L 348.063055 -154.410609 
L 344.783716 -165.360676 
L 341.504378 -166.029876 
L 338.225039 -159.763495 
L 334.9457 -147.8118 
L 331.666361 -148.301423 
L 328.387022 -178.079761 
L 325.107683 -163.585042 
L 321.828345 -158.475829 
L 318.549006 -167.316668 
L 315.269667 -150.559452 
L 311.990328 -146.436056 
L 308.710989 -172.601356 
L 305.43165 -150.720989 
L 302.152311 -151.291672 
L 298.872973 -157.552628 
L 295.593634 -149.382646 
L 292.314295 -161.091482 
L 289.034956 -162.098076 
L 285.755617 -190.187332 
L 282.476278 -171.453909 
L 279.19694 -158.157423 
L 275.917601 -156.642198 
L 272.638262 -161.434495 
L 269.358923 -160.763012 
L 266.079584 -170.763308 
L 262.800245 -158.613341 
L 259.520907 -170.259647 
L 256.241568 -165.738315 
L 252.962229 -170.828031 
L 249.68289 -169.678174 
L 246.403551 -176.035671 
L 243.124212 -174.369704 
L 239.844873 -180.125723 
L 236.565535 -174.922431 
L 233.286196 -174.552138 
L 230.006857 -188.16551 
L 226.727518 -171.48848 
L 223.448179 -177.757847 
L 220.16884 -183.411039 
L 216.889502 -179.739036 
L 213.610163 -168.939504 
L 210.330824 -208.764444 
L 207.051485 -185.971555 
L 203.772146 -183.367365 
L 200.492807 -187.671 
L 197.213468 -182.75569 
L 193.93413 -185.001966 
L 190.654791 -185.292316 
L 187.375452 -203.098355 
L 184.096113 -185.514873 
L 180.816774 -170.541275 
L 177.537435 -171.058256 
L 174.258097 -189.816142 
L 170.978758 -195.64264 
L 167.699419 -172.847967 
L 164.42008 -183.330802 
L 161.140741 -193.713992 
L 157.861402 -191.27738 
L 154.582064 -182.245842 
L 151.302725 -179.680634 
L 148.023386 -193.614919 
L 144.744047 -189.40308 
L 141.464708 -203.008371 
L 138.185369 -237.348252 
L 134.90603 -222.953504 
L 131.626692 -199.794768 
L 128.347353 -204.496751 
L 125.068014 -198.46227 
L 121.788675 -207.266282 
L 118.509336 -202.883823 
L 115.229997 -212.831861 
L 111.950659 -201.340997 
L 108.67132 -212.805852 
L 105.391981 -213.471771 
L 102.112642 -246.869157 
L 98.833303 -234.573766 
L 95.553964 -237.642255 
L 92.274626 -240.207851 
L 88.995287 -229.630573 
L 85.715948 -229.336797 
L 82.436609 -240.595613 
L 79.15727 -240.063383 
L 75.877931 -262.721874 
L 72.598592 -268.572597 
L 69.319254 -296.975687 
L 66.039915 -272.752373 
z
" style="stroke: #dd8452; stroke-opacity: 0.2"/>
    </defs>
    <g clip-path="url(#p652e0cedfb)">
     <use xlink:href="#m47e35c5a96" x="0" y="316.271687" style="fill: #dd8452; fill-opacity: 0.2; stroke: #dd8452; stroke-opacity: 0.2"/>
    </g>
   </g>
   <g id="PolyCollection_3">
    <defs>
     <path id="m6127cd78f4" d="M 66.039915 -288.548545 
L 66.039915 -226.621312 
L 69.319254 -192.483724 
L 72.598592 -171.44421 
L 75.877931 -152.167828 
L 79.15727 -142.606269 
L 82.436609 -134.225763 
L 85.715948 -134.05625 
L 88.995287 -128.868825 
L 92.274626 -123.317575 
L 95.553964 -117.286435 
L 98.833303 -116.837095 
L 102.112642 -118.378078 
L 105.391981 -114.85195 
L 108.67132 -113.041513 
L 111.950659 -110.208425 
L 115.229997 -109.640693 
L 118.509336 -110.122025 
L 121.788675 -107.022401 
L 125.068014 -106.869688 
L 128.347353 -108.317113 
L 131.626692 -106.065252 
L 134.90603 -103.729527 
L 138.185369 -103.121426 
L 141.464708 -101.567792 
L 144.744047 -101.205532 
L 148.023386 -100.32055 
L 151.302725 -101.154389 
L 154.582064 -100.010736 
L 157.861402 -98.681394 
L 161.140741 -101.794802 
L 164.42008 -100.046852 
L 167.699419 -98.077622 
L 170.978758 -97.245725 
L 174.258097 -97.571678 
L 177.537435 -97.713213 
L 180.816774 -96.953097 
L 184.096113 -96.400101 
L 187.375452 -93.506332 
L 190.654791 -93.343069 
L 193.93413 -91.962474 
L 197.213468 -92.992981 
L 200.492807 -91.64138 
L 203.772146 -91.243806 
L 207.051485 -92.332441 
L 210.330824 -92.293075 
L 213.610163 -90.851917 
L 216.889502 -89.016067 
L 220.16884 -90.364446 
L 223.448179 -86.090187 
L 226.727518 -87.618527 
L 230.006857 -87.670609 
L 233.286196 -87.091512 
L 236.565535 -86.723416 
L 239.844873 -87.653132 
L 243.124212 -86.840697 
L 246.403551 -85.651961 
L 249.68289 -84.028788 
L 252.962229 -84.102765 
L 256.241568 -84.117401 
L 259.520907 -83.112412 
L 262.800245 -85.010764 
L 266.079584 -86.184351 
L 269.358923 -83.138805 
L 272.638262 -83.810135 
L 275.917601 -83.346096 
L 279.19694 -85.481364 
L 282.476278 -84.658544 
L 285.755617 -83.518926 
L 289.034956 -80.577383 
L 292.314295 -80.925542 
L 295.593634 -79.265318 
L 298.872973 -78.498298 
L 302.152311 -80.317881 
L 305.43165 -80.614759 
L 308.710989 -79.452579 
L 311.990328 -80.10642 
L 315.269667 -78.179774 
L 318.549006 -79.593478 
L 321.828345 -80.629905 
L 325.107683 -81.524088 
L 328.387022 -79.984886 
L 331.666361 -79.91969 
L 334.9457 -79.054482 
L 338.225039 -79.101958 
L 341.504378 -78.286204 
L 344.783716 -78.305661 
L 348.063055 -77.10709 
L 351.342394 -73.848663 
L 354.621733 -73.392103 
L 357.901072 -73.694731 
L 361.180411 -76.059817 
L 364.459749 -76.197845 
L 367.739088 -74.370972 
L 371.018427 -73.629425 
L 374.297766 -74.783536 
L 377.577105 -75.063413 
L 380.856444 -74.962029 
L 384.135783 -75.15322 
L 387.415121 -75.978903 
L 390.69446 -74.712809 
L 390.69446 -98.436421 
L 390.69446 -98.436421 
L 387.415121 -99.134311 
L 384.135783 -99.594141 
L 380.856444 -99.640226 
L 377.577105 -98.34959 
L 374.297766 -97.371973 
L 371.018427 -95.555398 
L 367.739088 -98.291016 
L 364.459749 -98.774917 
L 361.180411 -98.920291 
L 357.901072 -97.588166 
L 354.621733 -97.94517 
L 351.342394 -98.486008 
L 348.063055 -99.937558 
L 344.783716 -102.942932 
L 341.504378 -102.261969 
L 338.225039 -101.652621 
L 334.9457 -103.370213 
L 331.666361 -104.975202 
L 328.387022 -103.83682 
L 325.107683 -106.652407 
L 321.828345 -106.496781 
L 318.549006 -105.733682 
L 315.269667 -103.354962 
L 311.990328 -102.701489 
L 308.710989 -102.567602 
L 305.43165 -102.918001 
L 302.152311 -103.572428 
L 298.872973 -102.370553 
L 295.593634 -101.401917 
L 292.314295 -103.975515 
L 289.034956 -106.105447 
L 285.755617 -107.489115 
L 282.476278 -107.794656 
L 279.19694 -107.970234 
L 275.917601 -106.837173 
L 272.638262 -107.02199 
L 269.358923 -106.871335 
L 266.079584 -111.118683 
L 262.800245 -110.379598 
L 259.520907 -108.177634 
L 256.241568 -108.523162 
L 252.962229 -109.841177 
L 249.68289 -110.177712 
L 246.403551 -110.90349 
L 243.124212 -112.13688 
L 239.844873 -112.997445 
L 236.565535 -114.265545 
L 233.286196 -111.270525 
L 230.006857 -111.296499 
L 226.727518 -113.676333 
L 223.448179 -111.94152 
L 220.16884 -114.358114 
L 216.889502 -114.044409 
L 213.610163 -116.862137 
L 210.330824 -116.640953 
L 207.051485 -118.174438 
L 203.772146 -116.540874 
L 200.492807 -118.578272 
L 197.213468 -120.136253 
L 193.93413 -120.007819 
L 190.654791 -117.489086 
L 187.375452 -119.211132 
L 184.096113 -120.606555 
L 180.816774 -124.508632 
L 177.537435 -123.348857 
L 174.258097 -123.956908 
L 170.978758 -123.865747 
L 167.699419 -126.844436 
L 164.42008 -129.863762 
L 161.140741 -131.825005 
L 157.861402 -128.055307 
L 154.582064 -128.169987 
L 151.302725 -130.927315 
L 148.023386 -132.617002 
L 144.744047 -129.808313 
L 141.464708 -132.855002 
L 138.185369 -133.06736 
L 134.90603 -134.050457 
L 131.626692 -133.672546 
L 128.347353 -137.365976 
L 125.068014 -134.868583 
L 121.788675 -137.034014 
L 118.509336 -140.72058 
L 115.229997 -141.124174 
L 111.950659 -145.208867 
L 108.67132 -145.51335 
L 105.391981 -148.934724 
L 102.112642 -150.697587 
L 98.833303 -153.474609 
L 95.553964 -150.177739 
L 92.274626 -153.473593 
L 88.995287 -162.294412 
L 85.715948 -167.70051 
L 82.436609 -170.347023 
L 79.15727 -180.170006 
L 75.877931 -190.768547 
L 72.598592 -209.071213 
L 69.319254 -229.857566 
L 66.039915 -288.548545 
z
" style="stroke: #55a868; stroke-opacity: 0.2"/>
    </defs>
    <g clip-path="url(#p652e0cedfb)">
     <use xlink:href="#m6127cd78f4" x="0" y="316.271687" style="fill: #55a868; fill-opacity: 0.2; stroke: #55a868; stroke-opacity: 0.2"/>
    </g>
   </g>
   <g id="PolyCollection_4">
    <defs>
     <path id="mff6b222b44" d="M 66.039915 -233.77933 
L 66.039915 -212.034888 
L 69.319254 -223.13312 
L 72.598592 -210.277827 
L 75.877931 -197.270706 
L 79.15727 -180.237662 
L 82.436609 -155.238105 
L 85.715948 -154.827907 
L 88.995287 -145.206657 
L 92.274626 -152.4497 
L 95.553964 -130.320027 
L 98.833303 -127.384826 
L 102.112642 -126.849948 
L 105.391981 -124.034099 
L 108.67132 -123.564677 
L 111.950659 -122.879118 
L 115.229997 -123.295488 
L 118.509336 -120.030104 
L 121.788675 -120.440115 
L 125.068014 -119.502042 
L 128.347353 -114.840346 
L 131.626692 -114.343396 
L 134.90603 -110.800222 
L 138.185369 -109.374138 
L 141.464708 -108.049606 
L 144.744047 -108.754594 
L 148.023386 -106.779699 
L 151.302725 -104.061686 
L 154.582064 -103.187325 
L 157.861402 -101.285526 
L 161.140741 -100.437015 
L 164.42008 -101.775817 
L 167.699419 -100.863852 
L 170.978758 -99.726557 
L 174.258097 -99.042106 
L 177.537435 -97.323681 
L 180.816774 -96.367927 
L 184.096113 -96.204526 
L 187.375452 -95.377418 
L 190.654791 -95.88384 
L 193.93413 -94.154071 
L 197.213468 -92.137978 
L 200.492807 -90.533142 
L 203.772146 -89.378651 
L 207.051485 -88.86787 
L 210.330824 -88.258769 
L 213.610163 -87.453078 
L 216.889502 -86.970965 
L 220.16884 -85.140654 
L 223.448179 -84.63492 
L 226.727518 -83.830363 
L 230.006857 -82.16961 
L 233.286196 -82.384783 
L 236.565535 -81.830658 
L 239.844873 -80.415866 
L 243.124212 -80.568231 
L 246.403551 -79.305837 
L 249.68289 -78.458365 
L 252.962229 -78.968763 
L 256.241568 -77.225617 
L 259.520907 -76.427722 
L 262.800245 -76.717302 
L 266.079584 -74.663533 
L 269.358923 -75.696977 
L 272.638262 -74.861358 
L 275.917601 -73.012043 
L 279.19694 -72.609383 
L 282.476278 -72.708758 
L 285.755617 -72.095886 
L 289.034956 -72.175709 
L 292.314295 -71.664451 
L 295.593634 -71.3201 
L 298.872973 -71.030441 
L 302.152311 -69.945041 
L 305.43165 -70.058002 
L 308.710989 -70.372413 
L 311.990328 -69.878937 
L 315.269667 -69.284052 
L 318.549006 -69.603825 
L 321.828345 -69.128796 
L 325.107683 -68.980928 
L 328.387022 -69.046682 
L 331.666361 -68.364536 
L 334.9457 -68.342328 
L 338.225039 -69.222382 
L 341.504378 -68.249267 
L 344.783716 -67.578068 
L 348.063055 -67.794067 
L 351.342394 -66.729798 
L 354.621733 -67.821156 
L 357.901072 -66.287725 
L 361.180411 -67.158443 
L 364.459749 -66.773377 
L 367.739088 -66.836872 
L 371.018427 -66.686129 
L 374.297766 -66.33528 
L 377.577105 -65.948316 
L 380.856444 -65.920142 
L 384.135783 -65.41883 
L 387.415121 -66.092383 
L 390.69446 -65.785266 
L 390.69446 -84.323728 
L 390.69446 -84.323728 
L 387.415121 -84.69799 
L 384.135783 -83.721509 
L 380.856444 -84.297579 
L 377.577105 -83.908401 
L 374.297766 -84.947169 
L 371.018427 -85.7062 
L 367.739088 -86.795895 
L 364.459749 -84.6511 
L 361.180411 -85.757856 
L 357.901072 -84.957531 
L 354.621733 -85.679569 
L 351.342394 -85.598867 
L 348.063055 -86.189794 
L 344.783716 -87.044497 
L 341.504378 -87.229801 
L 338.225039 -87.103056 
L 334.9457 -87.157753 
L 331.666361 -87.999841 
L 328.387022 -88.06356 
L 325.107683 -88.200367 
L 321.828345 -87.919743 
L 318.549006 -88.435485 
L 315.269667 -88.388396 
L 311.990328 -87.923928 
L 308.710989 -89.667105 
L 305.43165 -89.42741 
L 302.152311 -89.865003 
L 298.872973 -90.262111 
L 295.593634 -91.271489 
L 292.314295 -91.686901 
L 289.034956 -91.126649 
L 285.755617 -91.93453 
L 282.476278 -93.069267 
L 279.19694 -94.208939 
L 275.917601 -92.804074 
L 272.638262 -94.693131 
L 269.358923 -95.892131 
L 266.079584 -96.149543 
L 262.800245 -97.134359 
L 259.520907 -97.551271 
L 256.241568 -97.340817 
L 252.962229 -99.672547 
L 249.68289 -99.122971 
L 246.403551 -100.515996 
L 243.124212 -101.187791 
L 239.844873 -102.244179 
L 236.565535 -103.039451 
L 233.286196 -103.440029 
L 230.006857 -103.985587 
L 226.727518 -105.50307 
L 223.448179 -106.245672 
L 220.16884 -108.80106 
L 216.889502 -107.994958 
L 213.610163 -110.609741 
L 210.330824 -111.371872 
L 207.051485 -112.265321 
L 203.772146 -112.201072 
L 200.492807 -114.570614 
L 197.213468 -115.005655 
L 193.93413 -117.457314 
L 190.654791 -118.417486 
L 187.375452 -119.398558 
L 184.096113 -119.928922 
L 180.816774 -121.611385 
L 177.537435 -123.082439 
L 174.258097 -123.874428 
L 170.978758 -124.400851 
L 167.699419 -127.231889 
L 164.42008 -126.30167 
L 161.140741 -125.646503 
L 157.861402 -126.650789 
L 154.582064 -130.294938 
L 151.302725 -131.55752 
L 148.023386 -133.903296 
L 144.744047 -135.094965 
L 141.464708 -132.813507 
L 138.185369 -134.838586 
L 134.90603 -137.991305 
L 131.626692 -139.403295 
L 128.347353 -140.792031 
L 125.068014 -143.777222 
L 121.788675 -148.330844 
L 118.509336 -145.150517 
L 115.229997 -148.099659 
L 111.950659 -149.403178 
L 108.67132 -151.580835 
L 105.391981 -150.197063 
L 102.112642 -150.526411 
L 98.833303 -151.090922 
L 95.553964 -155.86047 
L 92.274626 -172.152954 
L 88.995287 -169.779103 
L 85.715948 -179.700205 
L 82.436609 -183.822463 
L 79.15727 -202.289815 
L 75.877931 -215.138595 
L 72.598592 -225.522383 
L 69.319254 -235.453556 
L 66.039915 -233.77933 
z
" style="stroke: #c44e52; stroke-opacity: 0.2"/>
    </defs>
    <g clip-path="url(#p652e0cedfb)">
     <use xlink:href="#mff6b222b44" x="0" y="316.271687" style="fill: #c44e52; fill-opacity: 0.2; stroke: #c44e52; stroke-opacity: 0.2"/>
    </g>
   </g>
   <g id="PolyCollection_5">
    <defs>
     <path id="m23c4bd7f70" d="M 66.039915 -239.775116 
L 66.039915 -218.180526 
L 69.319254 -190.102389 
L 72.598592 -174.635555 
L 75.877931 -160.391765 
L 79.15727 -151.745347 
L 82.436609 -146.062888 
L 85.715948 -142.155883 
L 88.995287 -137.849455 
L 92.274626 -131.199061 
L 95.553964 -128.312485 
L 98.833303 -125.09138 
L 102.112642 -124.354063 
L 105.391981 -121.553794 
L 108.67132 -119.237183 
L 111.950659 -118.400641 
L 115.229997 -116.564575 
L 118.509336 -115.675031 
L 121.788675 -113.895221 
L 125.068014 -113.381458 
L 128.347353 -112.223131 
L 131.626692 -110.151683 
L 134.90603 -108.387659 
L 138.185369 -108.972273 
L 141.464708 -108.880605 
L 144.744047 -107.823154 
L 148.023386 -106.516371 
L 151.302725 -105.946164 
L 154.582064 -103.867472 
L 157.861402 -103.809777 
L 161.140741 -100.984745 
L 164.42008 -102.650605 
L 167.699419 -100.86215 
L 170.978758 -100.767728 
L 174.258097 -99.463626 
L 177.537435 -99.343912 
L 180.816774 -98.889831 
L 184.096113 -97.543784 
L 187.375452 -97.956428 
L 190.654791 -97.141255 
L 193.93413 -96.86248 
L 197.213468 -95.446383 
L 200.492807 -96.739754 
L 203.772146 -95.704896 
L 207.051485 -94.507239 
L 210.330824 -92.558056 
L 213.610163 -90.95752 
L 216.889502 -91.626459 
L 220.16884 -90.411454 
L 223.448179 -90.477249 
L 226.727518 -90.460543 
L 230.006857 -88.762219 
L 233.286196 -88.397888 
L 236.565535 -88.085911 
L 239.844873 -87.851459 
L 243.124212 -87.164895 
L 246.403551 -85.645422 
L 249.68289 -86.521502 
L 252.962229 -86.817064 
L 256.241568 -85.815204 
L 259.520907 -87.23328 
L 262.800245 -86.336547 
L 266.079584 -85.56532 
L 269.358923 -85.181872 
L 272.638262 -85.614114 
L 275.917601 -87.187148 
L 279.19694 -86.43216 
L 282.476278 -85.483755 
L 285.755617 -87.912994 
L 289.034956 -83.670804 
L 292.314295 -82.720672 
L 295.593634 -81.39309 
L 298.872973 -81.111506 
L 302.152311 -80.76448 
L 305.43165 -80.820162 
L 308.710989 -79.5363 
L 311.990328 -79.725112 
L 315.269667 -79.521896 
L 318.549006 -80.686841 
L 321.828345 -80.488087 
L 325.107683 -79.512552 
L 328.387022 -78.24462 
L 331.666361 -77.819458 
L 334.9457 -77.964934 
L 338.225039 -77.080106 
L 341.504378 -77.866286 
L 344.783716 -77.353773 
L 348.063055 -76.780285 
L 351.342394 -78.211686 
L 354.621733 -77.704813 
L 357.901072 -77.533062 
L 361.180411 -77.789445 
L 364.459749 -76.844894 
L 367.739088 -76.343068 
L 371.018427 -76.213409 
L 374.297766 -76.23405 
L 377.577105 -74.718392 
L 380.856444 -75.431841 
L 384.135783 -73.80459 
L 387.415121 -74.486275 
L 390.69446 -74.710928 
L 390.69446 -97.807102 
L 390.69446 -97.807102 
L 387.415121 -98.233671 
L 384.135783 -97.86828 
L 380.856444 -98.188309 
L 377.577105 -97.596293 
L 374.297766 -99.167791 
L 371.018427 -101.14331 
L 367.739088 -100.133857 
L 364.459749 -100.848187 
L 361.180411 -102.867549 
L 357.901072 -102.382701 
L 354.621733 -102.202857 
L 351.342394 -101.69783 
L 348.063055 -100.157367 
L 344.783716 -101.195809 
L 341.504378 -101.448789 
L 338.225039 -101.05205 
L 334.9457 -102.215933 
L 331.666361 -100.564233 
L 328.387022 -101.841044 
L 325.107683 -103.434758 
L 321.828345 -103.596807 
L 318.549006 -105.242649 
L 315.269667 -102.937993 
L 311.990328 -102.96519 
L 308.710989 -101.723509 
L 305.43165 -104.649449 
L 302.152311 -104.594262 
L 298.872973 -105.813317 
L 295.593634 -106.992142 
L 292.314295 -106.699558 
L 289.034956 -108.794315 
L 285.755617 -110.448214 
L 282.476278 -109.026399 
L 279.19694 -110.489765 
L 275.917601 -110.445428 
L 272.638262 -109.981047 
L 269.358923 -108.253597 
L 266.079584 -111.01355 
L 262.800245 -113.557243 
L 259.520907 -115.682581 
L 256.241568 -113.956194 
L 252.962229 -114.108941 
L 249.68289 -113.444951 
L 246.403551 -114.666722 
L 243.124212 -113.277318 
L 239.844873 -114.212995 
L 236.565535 -113.361342 
L 233.286196 -114.675518 
L 230.006857 -114.896774 
L 226.727518 -115.623658 
L 223.448179 -117.881372 
L 220.16884 -117.249463 
L 216.889502 -117.188493 
L 213.610163 -117.99646 
L 210.330824 -120.68049 
L 207.051485 -123.016303 
L 203.772146 -121.735258 
L 200.492807 -121.378411 
L 197.213468 -120.27862 
L 193.93413 -121.869886 
L 190.654791 -123.945319 
L 187.375452 -124.353687 
L 184.096113 -126.69974 
L 180.816774 -125.692877 
L 177.537435 -124.569274 
L 174.258097 -125.792411 
L 170.978758 -127.899926 
L 167.699419 -128.667086 
L 164.42008 -128.062139 
L 161.140741 -130.150606 
L 157.861402 -132.769521 
L 154.582064 -133.204243 
L 151.302725 -135.088144 
L 148.023386 -135.28016 
L 144.744047 -137.171566 
L 141.464708 -137.809613 
L 138.185369 -136.443537 
L 134.90603 -137.301852 
L 131.626692 -139.301193 
L 128.347353 -141.658616 
L 125.068014 -142.182847 
L 121.788675 -142.060662 
L 118.509336 -145.22511 
L 115.229997 -145.77169 
L 111.950659 -149.522248 
L 108.67132 -150.076856 
L 105.391981 -152.904532 
L 102.112642 -155.85583 
L 98.833303 -156.038607 
L 95.553964 -163.041607 
L 92.274626 -162.738296 
L 88.995287 -171.964048 
L 85.715948 -178.405975 
L 82.436609 -181.859339 
L 79.15727 -191.202763 
L 75.877931 -197.349698 
L 72.598592 -211.204972 
L 69.319254 -225.145035 
L 66.039915 -239.775116 
z
" style="stroke: #8172b3; stroke-opacity: 0.2"/>
    </defs>
    <g clip-path="url(#p652e0cedfb)">
     <use xlink:href="#m23c4bd7f70" x="0" y="316.271687" style="fill: #8172b3; fill-opacity: 0.2; stroke: #8172b3; stroke-opacity: 0.2"/>
    </g>
   </g>
   <g id="line2d_12">
    <path d="M 66.039915 80.153008 
L 69.319254 100.344005 
L 72.598592 132.174304 
L 75.877931 148.673795 
L 79.15727 167.872878 
L 82.436609 172.395465 
L 85.715948 175.04298 
L 88.995287 178.130802 
L 92.274626 184.020918 
L 95.553964 187.875259 
L 98.833303 189.980523 
L 102.112642 187.323387 
L 105.391981 195.880103 
L 108.67132 203.739696 
L 111.950659 207.964509 
L 115.229997 207.15112 
L 118.509336 208.223994 
L 121.788675 208.018898 
L 125.068014 213.015002 
L 128.347353 212.677158 
L 131.626692 216.069765 
L 134.90603 214.39841 
L 138.185369 217.468534 
L 141.464708 213.633114 
L 144.744047 221.602738 
L 148.023386 222.346863 
L 151.302725 223.674209 
L 154.582064 223.39314 
L 157.861402 224.92358 
L 161.140741 225.440094 
L 164.42008 223.677224 
L 167.699419 228.099644 
L 170.978758 227.91847 
L 174.258097 227.457997 
L 177.537435 233.220587 
L 180.816774 232.851963 
L 184.096113 231.146399 
L 187.375452 230.391391 
L 190.654791 234.609816 
L 193.93413 232.629391 
L 197.213468 233.198932 
L 200.492807 232.005965 
L 203.772146 233.383011 
L 207.051485 232.863639 
L 210.330824 233.679483 
L 213.610163 234.998677 
L 216.889502 236.310437 
L 220.16884 235.760858 
L 223.448179 238.969939 
L 226.727518 237.445974 
L 230.006857 238.039461 
L 233.286196 240.944286 
L 236.565535 239.841848 
L 239.844873 239.872268 
L 243.124212 239.572606 
L 246.403551 240.079337 
L 249.68289 240.63152 
L 252.962229 242.042914 
L 256.241568 243.083989 
L 259.520907 240.943605 
L 262.800245 242.442798 
L 266.079584 241.529833 
L 269.358923 243.696154 
L 272.638262 244.196411 
L 275.917601 243.717449 
L 279.19694 241.932103 
L 282.476278 241.420911 
L 285.755617 245.797782 
L 289.034956 246.693791 
L 292.314295 247.913175 
L 295.593634 248.346703 
L 298.872973 246.292465 
L 302.152311 245.407871 
L 305.43165 244.338071 
L 308.710989 246.343969 
L 311.990328 247.154831 
L 315.269667 248.861108 
L 318.549006 247.718451 
L 321.828345 248.931706 
L 325.107683 248.453232 
L 328.387022 248.900777 
L 331.666361 250.729662 
L 334.9457 249.604167 
L 338.225039 249.15468 
L 341.504378 250.30578 
L 344.783716 250.366264 
L 348.063055 249.600145 
L 351.342394 249.730701 
L 354.621733 248.779101 
L 357.901072 249.091926 
L 361.180411 248.68351 
L 364.459749 249.799439 
L 367.739088 250.405676 
L 371.018427 250.850242 
L 374.297766 250.130283 
L 377.577105 248.341571 
L 380.856444 250.821185 
L 384.135783 251.339365 
L 387.415121 251.907444 
L 390.69446 252.933652 
" clip-path="url(#p652e0cedfb)" style="fill: none; stroke: #4c72b0; stroke-width: 1.5; stroke-linecap: round"/>
   </g>
   <g id="line2d_13">
    <path d="M 66.039915 57.223354 
L 69.319254 37.832689 
L 72.598592 62.885302 
L 75.877931 64.951601 
L 79.15727 84.795843 
L 82.436609 86.392921 
L 85.715948 96.240472 
L 88.995287 97.228333 
L 92.274626 91.54629 
L 95.553964 92.189155 
L 98.833303 95.346745 
L 102.112642 83.271178 
L 105.391981 112.432258 
L 108.67132 113.816334 
L 111.950659 122.856619 
L 115.229997 117.641965 
L 118.509336 123.032632 
L 121.788675 118.844128 
L 125.068014 126.817044 
L 128.347353 122.477946 
L 131.626692 124.946663 
L 134.90603 110.847114 
L 138.185369 98.584829 
L 141.464708 126.577044 
L 144.744047 137.092319 
L 148.023386 134.230825 
L 151.302725 145.538841 
L 154.582064 143.060659 
L 157.861402 138.607388 
L 161.140741 134.7546 
L 164.42008 141.960466 
L 167.699419 148.119555 
L 170.978758 131.29912 
L 174.258097 137.866848 
L 177.537435 153.877262 
L 180.816774 154.34087 
L 184.096113 145.247231 
L 187.375452 126.787429 
L 190.654791 142.822698 
L 193.93413 144.440837 
L 197.213468 146.185841 
L 200.492807 142.846651 
L 203.772146 149.749666 
L 207.051485 141.590931 
L 210.330824 129.599663 
L 213.610163 155.40946 
L 216.889502 150.027034 
L 220.16884 146.696222 
L 223.448179 150.860645 
L 226.727518 155.973961 
L 230.006857 141.767866 
L 233.286196 152.709049 
L 236.565535 157.048102 
L 239.844873 150.802131 
L 243.124212 153.133567 
L 246.403551 153.571736 
L 249.68289 158.010746 
L 252.962229 157.759691 
L 256.241568 163.028276 
L 259.520907 158.024066 
L 262.800245 166.140372 
L 266.079584 156.16172 
L 269.358923 164.429253 
L 272.638262 165.180025 
L 275.917601 171.658271 
L 279.19694 168.212915 
L 282.476278 159.617768 
L 285.755617 143.697401 
L 289.034956 166.471012 
L 292.314295 164.434835 
L 295.593634 172.312287 
L 298.872973 169.633226 
L 302.152311 172.113237 
L 305.43165 174.202064 
L 308.710989 157.667457 
L 311.990328 175.067042 
L 315.269667 175.680407 
L 318.549006 160.421339 
L 321.828345 167.909316 
L 325.107683 163.397335 
L 328.387022 152.06938 
L 331.666361 177.589392 
L 334.9457 177.095286 
L 338.225039 168.913209 
L 341.504378 160.330702 
L 344.783716 164.330267 
L 348.063055 170.141802 
L 351.342394 178.191718 
L 354.621733 170.615648 
L 357.901072 146.913042 
L 361.180411 178.757728 
L 364.459749 162.859796 
L 367.739088 175.433408 
L 371.018427 170.05464 
L 374.297766 171.850772 
L 377.577105 163.285642 
L 380.856444 168.134327 
L 384.135783 174.844331 
L 387.415121 169.014066 
L 390.69446 183.000249 
" clip-path="url(#p652e0cedfb)" style="fill: none; stroke-dasharray: 6,2.25; stroke-dashoffset: 0; stroke: #dd8452; stroke-width: 1.5"/>
   </g>
   <g id="line2d_14">
    <path d="M 66.039915 61.876067 
L 69.319254 105.514226 
L 72.598592 126.176041 
L 75.877931 143.751377 
L 79.15727 154.94449 
L 82.436609 163.813318 
L 85.715948 165.258514 
L 88.995287 170.739409 
L 92.274626 178.494447 
L 95.553964 183.273321 
L 98.833303 180.958776 
L 102.112642 181.214396 
L 105.391981 184.284938 
L 108.67132 187.032188 
L 111.950659 188.490169 
L 115.229997 190.844757 
L 118.509336 190.231689 
L 121.788675 194.47194 
L 125.068014 195.240438 
L 128.347353 193.710142 
L 131.626692 196.739922 
L 134.90603 197.562056 
L 138.185369 198.310609 
L 141.464708 200.02842 
L 144.744047 200.45013 
L 148.023386 200.307311 
L 151.302725 200.239877 
L 154.582064 202.908915 
L 157.861402 202.765284 
L 161.140741 199.645507 
L 164.42008 201.897213 
L 167.699419 204.551267 
L 170.978758 204.836959 
L 174.258097 205.299915 
L 177.537435 206.139205 
L 180.816774 206.493791 
L 184.096113 207.643619 
L 187.375452 209.718785 
L 190.654791 211.010269 
L 193.93413 210.739926 
L 197.213468 210.726536 
L 200.492807 211.246338 
L 203.772146 212.169387 
L 207.051485 211.198967 
L 210.330824 212.075765 
L 213.610163 212.650824 
L 216.889502 214.630586 
L 220.16884 213.815332 
L 223.448179 217.466069 
L 226.727518 216.003442 
L 230.006857 217.127265 
L 233.286196 216.801306 
L 236.565535 215.73396 
L 239.844873 215.802166 
L 243.124212 216.853799 
L 246.403551 218.649708 
L 249.68289 219.154034 
L 252.962229 219.469788 
L 256.241568 219.840768 
L 259.520907 220.39546 
L 262.800245 219.403322 
L 266.079584 218.966808 
L 269.358923 221.170169 
L 272.638262 221.032638 
L 275.917601 220.832029 
L 279.19694 220.266374 
L 282.476278 220.753833 
L 285.755617 221.520443 
L 289.034956 222.995434 
L 292.314295 223.609651 
L 295.593634 225.847516 
L 298.872973 225.51234 
L 302.152311 224.755539 
L 305.43165 225.365183 
L 308.710989 225.584259 
L 311.990328 225.504787 
L 315.269667 225.939555 
L 318.549006 223.939452 
L 321.828345 222.52765 
L 325.107683 222.596685 
L 328.387022 224.804462 
L 331.666361 224.271183 
L 334.9457 224.884298 
L 338.225039 226.287881 
L 341.504378 225.822465 
L 344.783716 225.628913 
L 348.063055 227.681589 
L 351.342394 230.212194 
L 354.621733 230.742579 
L 357.901072 231.288452 
L 361.180411 228.980677 
L 364.459749 229.269491 
L 367.739088 230.344104 
L 371.018427 231.997577 
L 374.297766 230.406019 
L 377.577105 229.182925 
L 380.856444 229.391542 
L 384.135783 229.54835 
L 387.415121 228.661602 
L 390.69446 229.976429 
" clip-path="url(#p652e0cedfb)" style="fill: none; stroke-dasharray: 1.5,1.5; stroke-dashoffset: 0; stroke: #55a868; stroke-width: 1.5"/>
   </g>
   <g id="line2d_15">
    <path d="M 66.039915 92.985389 
L 69.319254 86.559704 
L 72.598592 98.272931 
L 75.877931 109.51617 
L 79.15727 124.833396 
L 82.436609 146.479582 
L 85.715948 148.709906 
L 88.995287 158.911939 
L 92.274626 153.382158 
L 95.553964 173.216643 
L 98.833303 176.369905 
L 102.112642 177.304952 
L 105.391981 178.591185 
L 108.67132 179.402919 
L 111.950659 181.236425 
L 115.229997 180.919957 
L 118.509336 183.678639 
L 121.788675 183.322087 
L 125.068014 184.545789 
L 128.347353 187.729804 
L 131.626692 189.647136 
L 134.90603 191.593296 
L 138.185369 194.536821 
L 141.464708 195.667433 
L 144.744047 194.630346 
L 148.023386 195.02835 
L 151.302725 197.85209 
L 154.582064 199.909777 
L 157.861402 201.431405 
L 161.140741 202.59624 
L 164.42008 202.232555 
L 167.699419 202.153521 
L 170.978758 204.067607 
L 174.258097 204.811781 
L 177.537435 205.257243 
L 180.816774 206.757237 
L 184.096113 208.238958 
L 187.375452 208.398369 
L 190.654791 208.855321 
L 193.93413 210.146627 
L 197.213468 212.163739 
L 200.492807 213.446697 
L 203.772146 215.081064 
L 207.051485 216.257026 
L 210.330824 216.142222 
L 213.610163 217.236954 
L 216.889502 218.82924 
L 220.16884 219.921136 
L 223.448179 221.083136 
L 226.727518 221.471766 
L 230.006857 223.141945 
L 233.286196 223.550668 
L 236.565535 223.583425 
L 239.844873 224.440664 
L 243.124212 225.280685 
L 246.403551 226.038249 
L 249.68289 227.568961 
L 252.962229 226.944713 
L 256.241568 228.875876 
L 259.520907 228.97575 
L 262.800245 229.259545 
L 266.079584 230.69064 
L 269.358923 230.423484 
L 272.638262 231.484119 
L 275.917601 232.85575 
L 279.19694 232.937377 
L 282.476278 233.731357 
L 285.755617 234.02595 
L 289.034956 234.424014 
L 292.314295 234.554233 
L 295.593634 234.656762 
L 298.872973 235.281249 
L 302.152311 236.174353 
L 305.43165 236.159336 
L 308.710989 236.14563 
L 311.990328 237.125625 
L 315.269667 237.644579 
L 318.549006 237.346514 
L 321.828345 237.736365 
L 325.107683 237.881251 
L 328.387022 238.438905 
L 331.666361 238.348986 
L 334.9457 238.324525 
L 338.225039 238.542634 
L 341.504378 238.783211 
L 344.783716 238.538849 
L 348.063055 239.265591 
L 351.342394 240.146348 
L 354.621733 239.985779 
L 357.901072 240.447851 
L 361.180411 239.957933 
L 364.459749 240.189199 
L 367.739088 239.698476 
L 371.018427 240.499993 
L 374.297766 240.272567 
L 377.577105 240.965937 
L 380.856444 241.388665 
L 384.135783 241.86576 
L 387.415121 241.152024 
L 390.69446 241.613247 
" clip-path="url(#p652e0cedfb)" style="fill: none; stroke-dasharray: 4.5,1.875,2.25,1.875; stroke-dashoffset: 0; stroke: #c44e52; stroke-width: 1.5"/>
   </g>
   <g id="line2d_16">
    <path d="M 66.039915 86.034257 
L 69.319254 107.263476 
L 72.598592 123.344985 
L 75.877931 137.095061 
L 79.15727 145.049112 
L 82.436609 151.942674 
L 85.715948 155.68667 
L 88.995287 161.250098 
L 92.274626 169.459625 
L 95.553964 171.558347 
L 98.833303 175.578982 
L 102.112642 176.496593 
L 105.391981 179.368255 
L 108.67132 181.391551 
L 111.950659 182.617191 
L 115.229997 184.859087 
L 118.509336 185.677959 
L 121.788675 187.107642 
L 125.068014 187.564696 
L 128.347353 188.459003 
L 131.626692 192.466541 
L 134.90603 193.406668 
L 138.185369 193.31322 
L 141.464708 193.108807 
L 144.744047 193.432215 
L 148.023386 194.944474 
L 151.302725 196.156954 
L 154.582064 197.539582 
L 157.861402 198.235729 
L 161.140741 199.831511 
L 164.42008 200.897486 
L 167.699419 201.470184 
L 170.978758 202.422405 
L 174.258097 203.757505 
L 177.537435 203.724188 
L 180.816774 204.457961 
L 184.096113 204.572597 
L 187.375452 205.472261 
L 190.654791 206.663651 
L 193.93413 207.205559 
L 197.213468 208.375602 
L 200.492807 208.170383 
L 203.772146 207.644196 
L 207.051485 207.887465 
L 210.330824 209.666434 
L 213.610163 211.332573 
L 216.889502 212.318453 
L 220.16884 212.80599 
L 223.448179 213.066778 
L 226.727518 213.070595 
L 230.006857 214.225396 
L 233.286196 215.149071 
L 236.565535 216.015029 
L 239.844873 215.603541 
L 243.124212 216.169294 
L 246.403551 216.853488 
L 249.68289 216.613554 
L 252.962229 216.08968 
L 256.241568 216.133435 
L 259.520907 215.005197 
L 262.800245 216.336931 
L 266.079584 217.941824 
L 269.358923 219.46369 
L 272.638262 219.464441 
L 275.917601 217.942268 
L 279.19694 217.954763 
L 282.476278 218.705741 
L 285.755617 218.105431 
L 289.034956 219.918093 
L 292.314295 221.321235 
L 295.593634 221.960865 
L 298.872973 222.507202 
L 302.152311 223.833084 
L 305.43165 223.966681 
L 308.710989 225.077821 
L 311.990328 224.839943 
L 315.269667 225.037663 
L 318.549006 223.818264 
L 321.828345 224.595834 
L 325.107683 224.908597 
L 328.387022 226.160906 
L 331.666361 226.773547 
L 334.9457 226.610854 
L 338.225039 227.089484 
L 341.504378 226.875444 
L 344.783716 227.171267 
L 348.063055 228.006951 
L 351.342394 226.445695 
L 354.621733 226.929909 
L 357.901072 226.149548 
L 361.180411 226.298138 
L 364.459749 227.989992 
L 367.739088 228.729815 
L 371.018427 228.411148 
L 374.297766 229.649487 
L 377.577105 230.709086 
L 380.856444 229.255778 
L 384.135783 230.731467 
L 387.415121 230.464238 
L 390.69446 229.916866 
" clip-path="url(#p652e0cedfb)" style="fill: none; stroke-dasharray: 7.5,1.5,1.5,1.5; stroke-dashoffset: 0; stroke: #8172b3; stroke-width: 1.5"/>
   </g>
   <g id="line2d_17"/>
   <g id="line2d_18"/>
   <g id="line2d_19"/>
   <g id="line2d_20"/>
   <g id="line2d_21"/>
   <g id="patch_3">
    <path d="M 49.807187 273.312 
L 49.807187 7.2 
" style="fill: none; stroke: #cccccc; stroke-width: 1.25; stroke-linejoin: miter; stroke-linecap: square"/>
   </g>
   <g id="patch_4">
    <path d="M 406.927188 273.312 
L 406.927188 7.2 
" style="fill: none; stroke: #cccccc; stroke-width: 1.25; stroke-linejoin: miter; stroke-linecap: square"/>
   </g>
   <g id="patch_5">
    <path d="M 49.807187 273.312 
L 406.927188 273.312 
" style="fill: none; stroke: #cccccc; stroke-width: 1.25; stroke-linejoin: miter; stroke-linecap: square"/>
   </g>
   <g id="patch_6">
    <path d="M 49.807187 7.2 
L 406.927188 7.2 
" style="fill: none; stroke: #cccccc; stroke-width: 1.25; stroke-linejoin: miter; stroke-linecap: square"/>
   </g>
   <g id="legend_1">
    <g id="patch_7">
     <path d="M 295.242813 113.843437 
L 399.227188 113.843437 
Q 401.427188 113.843437 401.427188 111.643437 
L 401.427188 14.9 
Q 401.427188 12.7 399.227188 12.7 
L 295.242813 12.7 
Q 293.042813 12.7 293.042813 14.9 
L 293.042813 111.643437 
Q 293.042813 113.843437 295.242813 113.843437 
z
" style="fill: #ffffff; opacity: 0.8; stroke: #cccccc; stroke-linejoin: miter"/>
    </g>
    <g id="text_14">
     <!-- Strategy -->
     <g style="fill: #262626" transform="translate(321.525937 26.218125) scale(0.12 -0.12)">
      <defs>
       <path id="DejaVuSans-53" d="M 3425 4513 
L 3425 3897 
Q 3066 4069 2747 4153 
Q 2428 4238 2131 4238 
Q 1616 4238 1336 4038 
Q 1056 3838 1056 3469 
Q 1056 3159 1242 3001 
Q 1428 2844 1947 2747 
L 2328 2669 
Q 3034 2534 3370 2195 
Q 3706 1856 3706 1288 
Q 3706 609 3251 259 
Q 2797 -91 1919 -91 
Q 1588 -91 1214 -16 
Q 841 59 441 206 
L 441 856 
Q 825 641 1194 531 
Q 1563 422 1919 422 
Q 2459 422 2753 634 
Q 3047 847 3047 1241 
Q 3047 1584 2836 1778 
Q 2625 1972 2144 2069 
L 1759 2144 
Q 1053 2284 737 2584 
Q 422 2884 422 3419 
Q 422 4038 858 4394 
Q 1294 4750 2059 4750 
Q 2388 4750 2728 4690 
Q 3069 4631 3425 4513 
z
" transform="scale(0.015625)"/>
       <path id="DejaVuSans-74" d="M 1172 4494 
L 1172 3500 
L 2356 3500 
L 2356 3053 
L 1172 3053 
L 1172 1153 
Q 1172 725 1289 603 
Q 1406 481 1766 481 
L 2356 481 
L 2356 0 
L 1766 0 
Q 1100 0 847 248 
Q 594 497 594 1153 
L 594 3053 
L 172 3053 
L 172 3500 
L 594 3500 
L 594 4494 
L 1172 4494 
z
" transform="scale(0.015625)"/>
       <path id="DejaVuSans-72" d="M 2631 2963 
Q 2534 3019 2420 3045 
Q 2306 3072 2169 3072 
Q 1681 3072 1420 2755 
Q 1159 2438 1159 1844 
L 1159 0 
L 581 0 
L 581 3500 
L 1159 3500 
L 1159 2956 
Q 1341 3275 1631 3429 
Q 1922 3584 2338 3584 
Q 2397 3584 2469 3576 
Q 2541 3569 2628 3553 
L 2631 2963 
z
" transform="scale(0.015625)"/>
       <path id="DejaVuSans-61" d="M 2194 1759 
Q 1497 1759 1228 1600 
Q 959 1441 959 1056 
Q 959 750 1161 570 
Q 1363 391 1709 391 
Q 2188 391 2477 730 
Q 2766 1069 2766 1631 
L 2766 1759 
L 2194 1759 
z
M 3341 1997 
L 3341 0 
L 2766 0 
L 2766 531 
Q 2569 213 2275 61 
Q 1981 -91 1556 -91 
Q 1019 -91 701 211 
Q 384 513 384 1019 
Q 384 1609 779 1909 
Q 1175 2209 1959 2209 
L 2766 2209 
L 2766 2266 
Q 2766 2663 2505 2880 
Q 2244 3097 1772 3097 
Q 1472 3097 1187 3025 
Q 903 2953 641 2809 
L 641 3341 
Q 956 3463 1253 3523 
Q 1550 3584 1831 3584 
Q 2591 3584 2966 3190 
Q 3341 2797 3341 1997 
z
" transform="scale(0.015625)"/>
       <path id="DejaVuSans-65" d="M 3597 1894 
L 3597 1613 
L 953 1613 
Q 991 1019 1311 708 
Q 1631 397 2203 397 
Q 2534 397 2845 478 
Q 3156 559 3463 722 
L 3463 178 
Q 3153 47 2828 -22 
Q 2503 -91 2169 -91 
Q 1331 -91 842 396 
Q 353 884 353 1716 
Q 353 2575 817 3079 
Q 1281 3584 2069 3584 
Q 2775 3584 3186 3129 
Q 3597 2675 3597 1894 
z
M 3022 2063 
Q 3016 2534 2758 2815 
Q 2500 3097 2075 3097 
Q 1594 3097 1305 2825 
Q 1016 2553 972 2059 
L 3022 2063 
z
" transform="scale(0.015625)"/>
       <path id="DejaVuSans-67" d="M 2906 1791 
Q 2906 2416 2648 2759 
Q 2391 3103 1925 3103 
Q 1463 3103 1205 2759 
Q 947 2416 947 1791 
Q 947 1169 1205 825 
Q 1463 481 1925 481 
Q 2391 481 2648 825 
Q 2906 1169 2906 1791 
z
M 3481 434 
Q 3481 -459 3084 -895 
Q 2688 -1331 1869 -1331 
Q 1566 -1331 1297 -1286 
Q 1028 -1241 775 -1147 
L 775 -588 
Q 1028 -725 1275 -790 
Q 1522 -856 1778 -856 
Q 2344 -856 2625 -561 
Q 2906 -266 2906 331 
L 2906 616 
Q 2728 306 2450 153 
Q 2172 0 1784 0 
Q 1141 0 747 490 
Q 353 981 353 1791 
Q 353 2603 747 3093 
Q 1141 3584 1784 3584 
Q 2172 3584 2450 3431 
Q 2728 3278 2906 2969 
L 2906 3500 
L 3481 3500 
L 3481 434 
z
" transform="scale(0.015625)"/>
       <path id="DejaVuSans-79" d="M 2059 -325 
Q 1816 -950 1584 -1140 
Q 1353 -1331 966 -1331 
L 506 -1331 
L 506 -850 
L 844 -850 
Q 1081 -850 1212 -737 
Q 1344 -625 1503 -206 
L 1606 56 
L 191 3500 
L 800 3500 
L 1894 763 
L 2988 3500 
L 3597 3500 
L 2059 -325 
z
" transform="scale(0.015625)"/>
      </defs>
      <use xlink:href="#DejaVuSans-53"/>
      <use xlink:href="#DejaVuSans-74" x="63.476562"/>
      <use xlink:href="#DejaVuSans-72" x="102.685547"/>
      <use xlink:href="#DejaVuSans-61" x="143.798828"/>
      <use xlink:href="#DejaVuSans-74" x="205.078125"/>
      <use xlink:href="#DejaVuSans-65" x="244.287109"/>
      <use xlink:href="#DejaVuSans-67" x="305.810547"/>
      <use xlink:href="#DejaVuSans-79" x="369.287109"/>
     </g>
    </g>
    <g id="line2d_22">
     <path d="M 297.442813 38.722031 
L 308.442813 38.722031 
L 319.442813 38.722031 
" style="fill: none; stroke: #4c72b0; stroke-width: 1.5; stroke-linecap: round"/>
    </g>
    <g id="text_15">
     <!-- FedPredict -->
     <g style="fill: #262626" transform="translate(328.242813 42.572031) scale(0.11 -0.11)">
      <defs>
       <path id="DejaVuSans-46" d="M 628 4666 
L 3309 4666 
L 3309 4134 
L 1259 4134 
L 1259 2759 
L 3109 2759 
L 3109 2228 
L 1259 2228 
L 1259 0 
L 628 0 
L 628 4666 
z
" transform="scale(0.015625)"/>
       <path id="DejaVuSans-50" d="M 1259 4147 
L 1259 2394 
L 2053 2394 
Q 2494 2394 2734 2622 
Q 2975 2850 2975 3272 
Q 2975 3691 2734 3919 
Q 2494 4147 2053 4147 
L 1259 4147 
z
M 628 4666 
L 2053 4666 
Q 2838 4666 3239 4311 
Q 3641 3956 3641 3272 
Q 3641 2581 3239 2228 
Q 2838 1875 2053 1875 
L 1259 1875 
L 1259 0 
L 628 0 
L 628 4666 
z
" transform="scale(0.015625)"/>
       <path id="DejaVuSans-69" d="M 603 3500 
L 1178 3500 
L 1178 0 
L 603 0 
L 603 3500 
z
M 603 4863 
L 1178 4863 
L 1178 4134 
L 603 4134 
L 603 4863 
z
" transform="scale(0.015625)"/>
       <path id="DejaVuSans-63" d="M 3122 3366 
L 3122 2828 
Q 2878 2963 2633 3030 
Q 2388 3097 2138 3097 
Q 1578 3097 1268 2742 
Q 959 2388 959 1747 
Q 959 1106 1268 751 
Q 1578 397 2138 397 
Q 2388 397 2633 464 
Q 2878 531 3122 666 
L 3122 134 
Q 2881 22 2623 -34 
Q 2366 -91 2075 -91 
Q 1284 -91 818 406 
Q 353 903 353 1747 
Q 353 2603 823 3093 
Q 1294 3584 2113 3584 
Q 2378 3584 2631 3529 
Q 2884 3475 3122 3366 
z
" transform="scale(0.015625)"/>
      </defs>
      <use xlink:href="#DejaVuSans-46"/>
      <use xlink:href="#DejaVuSans-65" x="52.019531"/>
      <use xlink:href="#DejaVuSans-64" x="113.542969"/>
      <use xlink:href="#DejaVuSans-50" x="177.019531"/>
      <use xlink:href="#DejaVuSans-72" x="235.572266"/>
      <use xlink:href="#DejaVuSans-65" x="274.435547"/>
      <use xlink:href="#DejaVuSans-64" x="335.958984"/>
      <use xlink:href="#DejaVuSans-69" x="399.435547"/>
      <use xlink:href="#DejaVuSans-63" x="427.21875"/>
      <use xlink:href="#DejaVuSans-74" x="482.199219"/>
     </g>
    </g>
    <g id="line2d_23">
     <path d="M 297.442813 54.867969 
L 308.442813 54.867969 
L 319.442813 54.867969 
" style="fill: none; stroke-dasharray: 6,2.25; stroke-dashoffset: 0; stroke: #dd8452; stroke-width: 1.5"/>
    </g>
    <g id="text_16">
     <!-- FedAVG -->
     <g style="fill: #262626" transform="translate(328.242813 58.717969) scale(0.11 -0.11)">
      <defs>
       <path id="DejaVuSans-41" d="M 2188 4044 
L 1331 1722 
L 3047 1722 
L 2188 4044 
z
M 1831 4666 
L 2547 4666 
L 4325 0 
L 3669 0 
L 3244 1197 
L 1141 1197 
L 716 0 
L 50 0 
L 1831 4666 
z
" transform="scale(0.015625)"/>
       <path id="DejaVuSans-56" d="M 1831 0 
L 50 4666 
L 709 4666 
L 2188 738 
L 3669 4666 
L 4325 4666 
L 2547 0 
L 1831 0 
z
" transform="scale(0.015625)"/>
       <path id="DejaVuSans-47" d="M 3809 666 
L 3809 1919 
L 2778 1919 
L 2778 2438 
L 4434 2438 
L 4434 434 
Q 4069 175 3628 42 
Q 3188 -91 2688 -91 
Q 1594 -91 976 548 
Q 359 1188 359 2328 
Q 359 3472 976 4111 
Q 1594 4750 2688 4750 
Q 3144 4750 3555 4637 
Q 3966 4525 4313 4306 
L 4313 3634 
Q 3963 3931 3569 4081 
Q 3175 4231 2741 4231 
Q 1884 4231 1454 3753 
Q 1025 3275 1025 2328 
Q 1025 1384 1454 906 
Q 1884 428 2741 428 
Q 3075 428 3337 486 
Q 3600 544 3809 666 
z
" transform="scale(0.015625)"/>
      </defs>
      <use xlink:href="#DejaVuSans-46"/>
      <use xlink:href="#DejaVuSans-65" x="52.019531"/>
      <use xlink:href="#DejaVuSans-64" x="113.542969"/>
      <use xlink:href="#DejaVuSans-41" x="177.019531"/>
      <use xlink:href="#DejaVuSans-56" x="239.052734"/>
      <use xlink:href="#DejaVuSans-47" x="307.460938"/>
     </g>
    </g>
    <g id="line2d_24">
     <path d="M 297.442813 71.013906 
L 308.442813 71.013906 
L 319.442813 71.013906 
" style="fill: none; stroke-dasharray: 1.5,1.5; stroke-dashoffset: 0; stroke: #55a868; stroke-width: 1.5"/>
    </g>
    <g id="text_17">
     <!-- FedClassAvg -->
     <g style="fill: #262626" transform="translate(328.242813 74.863906) scale(0.11 -0.11)">
      <defs>
       <path id="DejaVuSans-43" d="M 4122 4306 
L 4122 3641 
Q 3803 3938 3442 4084 
Q 3081 4231 2675 4231 
Q 1875 4231 1450 3742 
Q 1025 3253 1025 2328 
Q 1025 1406 1450 917 
Q 1875 428 2675 428 
Q 3081 428 3442 575 
Q 3803 722 4122 1019 
L 4122 359 
Q 3791 134 3420 21 
Q 3050 -91 2638 -91 
Q 1578 -91 968 557 
Q 359 1206 359 2328 
Q 359 3453 968 4101 
Q 1578 4750 2638 4750 
Q 3056 4750 3426 4639 
Q 3797 4528 4122 4306 
z
" transform="scale(0.015625)"/>
       <path id="DejaVuSans-6c" d="M 603 4863 
L 1178 4863 
L 1178 0 
L 603 0 
L 603 4863 
z
" transform="scale(0.015625)"/>
       <path id="DejaVuSans-76" d="M 191 3500 
L 800 3500 
L 1894 563 
L 2988 3500 
L 3597 3500 
L 2284 0 
L 1503 0 
L 191 3500 
z
" transform="scale(0.015625)"/>
      </defs>
      <use xlink:href="#DejaVuSans-46"/>
      <use xlink:href="#DejaVuSans-65" x="52.019531"/>
      <use xlink:href="#DejaVuSans-64" x="113.542969"/>
      <use xlink:href="#DejaVuSans-43" x="177.019531"/>
      <use xlink:href="#DejaVuSans-6c" x="246.84375"/>
      <use xlink:href="#DejaVuSans-61" x="274.626953"/>
      <use xlink:href="#DejaVuSans-73" x="335.90625"/>
      <use xlink:href="#DejaVuSans-73" x="388.005859"/>
      <use xlink:href="#DejaVuSans-41" x="440.105469"/>
      <use xlink:href="#DejaVuSans-76" x="502.638672"/>
      <use xlink:href="#DejaVuSans-67" x="561.818359"/>
     </g>
    </g>
    <g id="line2d_25">
     <path d="M 297.442813 87.159844 
L 308.442813 87.159844 
L 319.442813 87.159844 
" style="fill: none; stroke-dasharray: 4.5,1.875,2.25,1.875; stroke-dashoffset: 0; stroke: #c44e52; stroke-width: 1.5"/>
    </g>
    <g id="text_18">
     <!-- FedPer -->
     <g style="fill: #262626" transform="translate(328.242813 91.009844) scale(0.11 -0.11)">
      <use xlink:href="#DejaVuSans-46"/>
      <use xlink:href="#DejaVuSans-65" x="52.019531"/>
      <use xlink:href="#DejaVuSans-64" x="113.542969"/>
      <use xlink:href="#DejaVuSans-50" x="177.019531"/>
      <use xlink:href="#DejaVuSans-65" x="233.697266"/>
      <use xlink:href="#DejaVuSans-72" x="295.220703"/>
     </g>
    </g>
    <g id="line2d_26">
     <path d="M 297.442813 103.305781 
L 308.442813 103.305781 
L 319.442813 103.305781 
" style="fill: none; stroke-dasharray: 7.5,1.5,1.5,1.5; stroke-dashoffset: 0; stroke: #8172b3; stroke-width: 1.5"/>
    </g>
    <g id="text_19">
     <!-- FedProto -->
     <g style="fill: #262626" transform="translate(328.242813 107.155781) scale(0.11 -0.11)">
      <use xlink:href="#DejaVuSans-46"/>
      <use xlink:href="#DejaVuSans-65" x="52.019531"/>
      <use xlink:href="#DejaVuSans-64" x="113.542969"/>
      <use xlink:href="#DejaVuSans-50" x="177.019531"/>
      <use xlink:href="#DejaVuSans-72" x="235.572266"/>
      <use xlink:href="#DejaVuSans-6f" x="274.435547"/>
      <use xlink:href="#DejaVuSans-74" x="335.617188"/>
      <use xlink:href="#DejaVuSans-6f" x="374.826172"/>
     </g>
    </g>
   </g>
  </g>
 </g>
 <defs>
  <clipPath id="p652e0cedfb">
   <rect x="49.807187" y="7.2" width="357.12" height="266.112"/>
  </clipPath>
 </defs>
</svg>
