<?xml version="1.0" encoding="utf-8" standalone="no"?>
<!DOCTYPE svg PUBLIC "-//W3C//DTD SVG 1.1//EN"
  "http://www.w3.org/Graphics/SVG/1.1/DTD/svg11.dtd">
<svg xmlns:xlink="http://www.w3.org/1999/xlink" width="421.125937pt" height="316.271687pt" viewBox="0 0 421.125937 316.271687" xmlns="http://www.w3.org/2000/svg" version="1.1">
 <metadata>
  <rdf:RDF xmlns:dc="http://purl.org/dc/elements/1.1/" xmlns:cc="http://creativecommons.org/ns#" xmlns:rdf="http://www.w3.org/1999/02/22-rdf-syntax-ns#">
   <cc:Work>
    <dc:type rdf:resource="http://purl.org/dc/dcmitype/StillImage"/>
    <dc:date>2023-02-09T05:53:14.879470</dc:date>
    <dc:format>image/svg+xml</dc:format>
    <dc:creator>
     <cc:Agent>
      <dc:title>Matplotlib v3.6.3, https://matplotlib.org/</dc:title>
     </cc:Agent>
    </dc:creator>
   </cc:Work>
  </rdf:RDF>
 </metadata>
 <defs>
  <style type="text/css">*{stroke-linejoin: round; stroke-linecap: butt}</style>
 </defs>
 <g id="figure_1">
  <g id="patch_1">
   <path d="M 0 316.271687 
L 421.125937 316.271687 
L 421.125937 0 
L 0 0 
z
" style="fill: #ffffff"/>
  </g>
  <g id="axes_1">
   <g id="patch_2">
    <path d="M 56.805938 273.312 
L 413.925938 273.312 
L 413.925938 7.2 
L 56.805938 7.2 
z
" style="fill: #ffffff"/>
   </g>
   <g id="matplotlib.axis_1">
    <g id="xtick_1">
     <g id="line2d_1">
      <path d="M 69.759326 273.312 
L 69.759326 7.2 
" clip-path="url(#pd8932bb49d)" style="fill: none; stroke: #cccccc; stroke-linecap: round"/>
     </g>
     <g id="text_1">
      <!-- 0 -->
      <g style="fill: #262626" transform="translate(66.259951 291.170281) scale(0.11 -0.11)">
       <defs>
        <path id="DejaVuSans-30" d="M 2034 4250 
Q 1547 4250 1301 3770 
Q 1056 3291 1056 2328 
Q 1056 1369 1301 889 
Q 1547 409 2034 409 
Q 2525 409 2770 889 
Q 3016 1369 3016 2328 
Q 3016 3291 2770 3770 
Q 2525 4250 2034 4250 
z
M 2034 4750 
Q 2819 4750 3233 4129 
Q 3647 3509 3647 2328 
Q 3647 1150 3233 529 
Q 2819 -91 2034 -91 
Q 1250 -91 836 529 
Q 422 1150 422 2328 
Q 422 3509 836 4129 
Q 1250 4750 2034 4750 
z
" transform="scale(0.015625)"/>
       </defs>
       <use xlink:href="#DejaVuSans-30"/>
      </g>
     </g>
    </g>
    <g id="xtick_2">
     <g id="line2d_2">
      <path d="M 135.346103 273.312 
L 135.346103 7.2 
" clip-path="url(#pd8932bb49d)" style="fill: none; stroke: #cccccc; stroke-linecap: round"/>
     </g>
     <g id="text_2">
      <!-- 20 -->
      <g style="fill: #262626" transform="translate(128.347353 291.170281) scale(0.11 -0.11)">
       <defs>
        <path id="DejaVuSans-32" d="M 1228 531 
L 3431 531 
L 3431 0 
L 469 0 
L 469 531 
Q 828 903 1448 1529 
Q 2069 2156 2228 2338 
Q 2531 2678 2651 2914 
Q 2772 3150 2772 3378 
Q 2772 3750 2511 3984 
Q 2250 4219 1831 4219 
Q 1534 4219 1204 4116 
Q 875 4013 500 3803 
L 500 4441 
Q 881 4594 1212 4672 
Q 1544 4750 1819 4750 
Q 2544 4750 2975 4387 
Q 3406 4025 3406 3419 
Q 3406 3131 3298 2873 
Q 3191 2616 2906 2266 
Q 2828 2175 2409 1742 
Q 1991 1309 1228 531 
z
" transform="scale(0.015625)"/>
       </defs>
       <use xlink:href="#DejaVuSans-32"/>
       <use xlink:href="#DejaVuSans-30" x="63.623047"/>
      </g>
     </g>
    </g>
    <g id="xtick_3">
     <g id="line2d_3">
      <path d="M 200.93288 273.312 
L 200.93288 7.2 
" clip-path="url(#pd8932bb49d)" style="fill: none; stroke: #cccccc; stroke-linecap: round"/>
     </g>
     <g id="text_3">
      <!-- 40 -->
      <g style="fill: #262626" transform="translate(193.93413 291.170281) scale(0.11 -0.11)">
       <defs>
        <path id="DejaVuSans-34" d="M 2419 4116 
L 825 1625 
L 2419 1625 
L 2419 4116 
z
M 2253 4666 
L 3047 4666 
L 3047 1625 
L 3713 1625 
L 3713 1100 
L 3047 1100 
L 3047 0 
L 2419 0 
L 2419 1100 
L 313 1100 
L 313 1709 
L 2253 4666 
z
" transform="scale(0.015625)"/>
       </defs>
       <use xlink:href="#DejaVuSans-34"/>
       <use xlink:href="#DejaVuSans-30" x="63.623047"/>
      </g>
     </g>
    </g>
    <g id="xtick_4">
     <g id="line2d_4">
      <path d="M 266.519657 273.312 
L 266.519657 7.2 
" clip-path="url(#pd8932bb49d)" style="fill: none; stroke: #cccccc; stroke-linecap: round"/>
     </g>
     <g id="text_4">
      <!-- 60 -->
      <g style="fill: #262626" transform="translate(259.520907 291.170281) scale(0.11 -0.11)">
       <defs>
        <path id="DejaVuSans-36" d="M 2113 2584 
Q 1688 2584 1439 2293 
Q 1191 2003 1191 1497 
Q 1191 994 1439 701 
Q 1688 409 2113 409 
Q 2538 409 2786 701 
Q 3034 994 3034 1497 
Q 3034 2003 2786 2293 
Q 2538 2584 2113 2584 
z
M 3366 4563 
L 3366 3988 
Q 3128 4100 2886 4159 
Q 2644 4219 2406 4219 
Q 1781 4219 1451 3797 
Q 1122 3375 1075 2522 
Q 1259 2794 1537 2939 
Q 1816 3084 2150 3084 
Q 2853 3084 3261 2657 
Q 3669 2231 3669 1497 
Q 3669 778 3244 343 
Q 2819 -91 2113 -91 
Q 1303 -91 875 529 
Q 447 1150 447 2328 
Q 447 3434 972 4092 
Q 1497 4750 2381 4750 
Q 2619 4750 2861 4703 
Q 3103 4656 3366 4563 
z
" transform="scale(0.015625)"/>
       </defs>
       <use xlink:href="#DejaVuSans-36"/>
       <use xlink:href="#DejaVuSans-30" x="63.623047"/>
      </g>
     </g>
    </g>
    <g id="xtick_5">
     <g id="line2d_5">
      <path d="M 332.106433 273.312 
L 332.106433 7.2 
" clip-path="url(#pd8932bb49d)" style="fill: none; stroke: #cccccc; stroke-linecap: round"/>
     </g>
     <g id="text_5">
      <!-- 80 -->
      <g style="fill: #262626" transform="translate(325.107683 291.170281) scale(0.11 -0.11)">
       <defs>
        <path id="DejaVuSans-38" d="M 2034 2216 
Q 1584 2216 1326 1975 
Q 1069 1734 1069 1313 
Q 1069 891 1326 650 
Q 1584 409 2034 409 
Q 2484 409 2743 651 
Q 3003 894 3003 1313 
Q 3003 1734 2745 1975 
Q 2488 2216 2034 2216 
z
M 1403 2484 
Q 997 2584 770 2862 
Q 544 3141 544 3541 
Q 544 4100 942 4425 
Q 1341 4750 2034 4750 
Q 2731 4750 3128 4425 
Q 3525 4100 3525 3541 
Q 3525 3141 3298 2862 
Q 3072 2584 2669 2484 
Q 3125 2378 3379 2068 
Q 3634 1759 3634 1313 
Q 3634 634 3220 271 
Q 2806 -91 2034 -91 
Q 1263 -91 848 271 
Q 434 634 434 1313 
Q 434 1759 690 2068 
Q 947 2378 1403 2484 
z
M 1172 3481 
Q 1172 3119 1398 2916 
Q 1625 2713 2034 2713 
Q 2441 2713 2670 2916 
Q 2900 3119 2900 3481 
Q 2900 3844 2670 4047 
Q 2441 4250 2034 4250 
Q 1625 4250 1398 4047 
Q 1172 3844 1172 3481 
z
" transform="scale(0.015625)"/>
       </defs>
       <use xlink:href="#DejaVuSans-38"/>
       <use xlink:href="#DejaVuSans-30" x="63.623047"/>
      </g>
     </g>
    </g>
    <g id="xtick_6">
     <g id="line2d_6">
      <path d="M 397.69321 273.312 
L 397.69321 7.2 
" clip-path="url(#pd8932bb49d)" style="fill: none; stroke: #cccccc; stroke-linecap: round"/>
     </g>
     <g id="text_6">
      <!-- 100 -->
      <g style="fill: #262626" transform="translate(387.195085 291.170281) scale(0.11 -0.11)">
       <defs>
        <path id="DejaVuSans-31" d="M 794 531 
L 1825 531 
L 1825 4091 
L 703 3866 
L 703 4441 
L 1819 4666 
L 2450 4666 
L 2450 531 
L 3481 531 
L 3481 0 
L 794 0 
L 794 531 
z
" transform="scale(0.015625)"/>
       </defs>
       <use xlink:href="#DejaVuSans-31"/>
       <use xlink:href="#DejaVuSans-30" x="63.623047"/>
       <use xlink:href="#DejaVuSans-30" x="127.246094"/>
      </g>
     </g>
    </g>
    <g id="text_7">
     <!-- Server round -->
     <g style="fill: #262626" transform="translate(196.365 306.576062) scale(0.12 -0.12)">
      <defs>
       <path id="DejaVuSans-53" d="M 3425 4513 
L 3425 3897 
Q 3066 4069 2747 4153 
Q 2428 4238 2131 4238 
Q 1616 4238 1336 4038 
Q 1056 3838 1056 3469 
Q 1056 3159 1242 3001 
Q 1428 2844 1947 2747 
L 2328 2669 
Q 3034 2534 3370 2195 
Q 3706 1856 3706 1288 
Q 3706 609 3251 259 
Q 2797 -91 1919 -91 
Q 1588 -91 1214 -16 
Q 841 59 441 206 
L 441 856 
Q 825 641 1194 531 
Q 1563 422 1919 422 
Q 2459 422 2753 634 
Q 3047 847 3047 1241 
Q 3047 1584 2836 1778 
Q 2625 1972 2144 2069 
L 1759 2144 
Q 1053 2284 737 2584 
Q 422 2884 422 3419 
Q 422 4038 858 4394 
Q 1294 4750 2059 4750 
Q 2388 4750 2728 4690 
Q 3069 4631 3425 4513 
z
" transform="scale(0.015625)"/>
       <path id="DejaVuSans-65" d="M 3597 1894 
L 3597 1613 
L 953 1613 
Q 991 1019 1311 708 
Q 1631 397 2203 397 
Q 2534 397 2845 478 
Q 3156 559 3463 722 
L 3463 178 
Q 3153 47 2828 -22 
Q 2503 -91 2169 -91 
Q 1331 -91 842 396 
Q 353 884 353 1716 
Q 353 2575 817 3079 
Q 1281 3584 2069 3584 
Q 2775 3584 3186 3129 
Q 3597 2675 3597 1894 
z
M 3022 2063 
Q 3016 2534 2758 2815 
Q 2500 3097 2075 3097 
Q 1594 3097 1305 2825 
Q 1016 2553 972 2059 
L 3022 2063 
z
" transform="scale(0.015625)"/>
       <path id="DejaVuSans-72" d="M 2631 2963 
Q 2534 3019 2420 3045 
Q 2306 3072 2169 3072 
Q 1681 3072 1420 2755 
Q 1159 2438 1159 1844 
L 1159 0 
L 581 0 
L 581 3500 
L 1159 3500 
L 1159 2956 
Q 1341 3275 1631 3429 
Q 1922 3584 2338 3584 
Q 2397 3584 2469 3576 
Q 2541 3569 2628 3553 
L 2631 2963 
z
" transform="scale(0.015625)"/>
       <path id="DejaVuSans-76" d="M 191 3500 
L 800 3500 
L 1894 563 
L 2988 3500 
L 3597 3500 
L 2284 0 
L 1503 0 
L 191 3500 
z
" transform="scale(0.015625)"/>
       <path id="DejaVuSans-20" transform="scale(0.015625)"/>
       <path id="DejaVuSans-6f" d="M 1959 3097 
Q 1497 3097 1228 2736 
Q 959 2375 959 1747 
Q 959 1119 1226 758 
Q 1494 397 1959 397 
Q 2419 397 2687 759 
Q 2956 1122 2956 1747 
Q 2956 2369 2687 2733 
Q 2419 3097 1959 3097 
z
M 1959 3584 
Q 2709 3584 3137 3096 
Q 3566 2609 3566 1747 
Q 3566 888 3137 398 
Q 2709 -91 1959 -91 
Q 1206 -91 779 398 
Q 353 888 353 1747 
Q 353 2609 779 3096 
Q 1206 3584 1959 3584 
z
" transform="scale(0.015625)"/>
       <path id="DejaVuSans-75" d="M 544 1381 
L 544 3500 
L 1119 3500 
L 1119 1403 
Q 1119 906 1312 657 
Q 1506 409 1894 409 
Q 2359 409 2629 706 
Q 2900 1003 2900 1516 
L 2900 3500 
L 3475 3500 
L 3475 0 
L 2900 0 
L 2900 538 
Q 2691 219 2414 64 
Q 2138 -91 1772 -91 
Q 1169 -91 856 284 
Q 544 659 544 1381 
z
M 1991 3584 
L 1991 3584 
z
" transform="scale(0.015625)"/>
       <path id="DejaVuSans-6e" d="M 3513 2113 
L 3513 0 
L 2938 0 
L 2938 2094 
Q 2938 2591 2744 2837 
Q 2550 3084 2163 3084 
Q 1697 3084 1428 2787 
Q 1159 2491 1159 1978 
L 1159 0 
L 581 0 
L 581 3500 
L 1159 3500 
L 1159 2956 
Q 1366 3272 1645 3428 
Q 1925 3584 2291 3584 
Q 2894 3584 3203 3211 
Q 3513 2838 3513 2113 
z
" transform="scale(0.015625)"/>
       <path id="DejaVuSans-64" d="M 2906 2969 
L 2906 4863 
L 3481 4863 
L 3481 0 
L 2906 0 
L 2906 525 
Q 2725 213 2448 61 
Q 2172 -91 1784 -91 
Q 1150 -91 751 415 
Q 353 922 353 1747 
Q 353 2572 751 3078 
Q 1150 3584 1784 3584 
Q 2172 3584 2448 3432 
Q 2725 3281 2906 2969 
z
M 947 1747 
Q 947 1113 1208 752 
Q 1469 391 1925 391 
Q 2381 391 2643 752 
Q 2906 1113 2906 1747 
Q 2906 2381 2643 2742 
Q 2381 3103 1925 3103 
Q 1469 3103 1208 2742 
Q 947 2381 947 1747 
z
" transform="scale(0.015625)"/>
      </defs>
      <use xlink:href="#DejaVuSans-53"/>
      <use xlink:href="#DejaVuSans-65" x="63.476562"/>
      <use xlink:href="#DejaVuSans-72" x="125"/>
      <use xlink:href="#DejaVuSans-76" x="166.113281"/>
      <use xlink:href="#DejaVuSans-65" x="225.292969"/>
      <use xlink:href="#DejaVuSans-72" x="286.816406"/>
      <use xlink:href="#DejaVuSans-20" x="327.929688"/>
      <use xlink:href="#DejaVuSans-72" x="359.716797"/>
      <use xlink:href="#DejaVuSans-6f" x="398.580078"/>
      <use xlink:href="#DejaVuSans-75" x="459.761719"/>
      <use xlink:href="#DejaVuSans-6e" x="523.140625"/>
      <use xlink:href="#DejaVuSans-64" x="586.519531"/>
     </g>
    </g>
   </g>
   <g id="matplotlib.axis_2">
    <g id="ytick_1">
     <g id="line2d_7">
      <path d="M 56.805938 243.639082 
L 413.925938 243.639082 
" clip-path="url(#pd8932bb49d)" style="fill: none; stroke: #cccccc; stroke-linecap: round"/>
     </g>
     <g id="text_8">
      <!-- 15.0 -->
      <g style="fill: #262626" transform="translate(22.81375 247.818222) scale(0.11 -0.11)">
       <defs>
        <path id="DejaVuSans-35" d="M 691 4666 
L 3169 4666 
L 3169 4134 
L 1269 4134 
L 1269 2991 
Q 1406 3038 1543 3061 
Q 1681 3084 1819 3084 
Q 2600 3084 3056 2656 
Q 3513 2228 3513 1497 
Q 3513 744 3044 326 
Q 2575 -91 1722 -91 
Q 1428 -91 1123 -41 
Q 819 9 494 109 
L 494 744 
Q 775 591 1075 516 
Q 1375 441 1709 441 
Q 2250 441 2565 725 
Q 2881 1009 2881 1497 
Q 2881 1984 2565 2268 
Q 2250 2553 1709 2553 
Q 1456 2553 1204 2497 
Q 953 2441 691 2322 
L 691 4666 
z
" transform="scale(0.015625)"/>
        <path id="DejaVuSans-2e" d="M 684 794 
L 1344 794 
L 1344 0 
L 684 0 
L 684 794 
z
" transform="scale(0.015625)"/>
       </defs>
       <use xlink:href="#DejaVuSans-31"/>
       <use xlink:href="#DejaVuSans-35" x="63.623047"/>
       <use xlink:href="#DejaVuSans-2e" x="127.246094"/>
       <use xlink:href="#DejaVuSans-30" x="159.033203"/>
      </g>
     </g>
    </g>
    <g id="ytick_2">
     <g id="line2d_8">
      <path d="M 56.805938 212.500924 
L 413.925938 212.500924 
" clip-path="url(#pd8932bb49d)" style="fill: none; stroke: #cccccc; stroke-linecap: round"/>
     </g>
     <g id="text_9">
      <!-- 17.5 -->
      <g style="fill: #262626" transform="translate(22.81375 216.680065) scale(0.11 -0.11)">
       <defs>
        <path id="DejaVuSans-37" d="M 525 4666 
L 3525 4666 
L 3525 4397 
L 1831 0 
L 1172 0 
L 2766 4134 
L 525 4134 
L 525 4666 
z
" transform="scale(0.015625)"/>
       </defs>
       <use xlink:href="#DejaVuSans-31"/>
       <use xlink:href="#DejaVuSans-37" x="63.623047"/>
       <use xlink:href="#DejaVuSans-2e" x="127.246094"/>
       <use xlink:href="#DejaVuSans-35" x="159.033203"/>
      </g>
     </g>
    </g>
    <g id="ytick_3">
     <g id="line2d_9">
      <path d="M 56.805938 181.362767 
L 413.925938 181.362767 
" clip-path="url(#pd8932bb49d)" style="fill: none; stroke: #cccccc; stroke-linecap: round"/>
     </g>
     <g id="text_10">
      <!-- 20.0 -->
      <g style="fill: #262626" transform="translate(22.81375 185.541907) scale(0.11 -0.11)">
       <use xlink:href="#DejaVuSans-32"/>
       <use xlink:href="#DejaVuSans-30" x="63.623047"/>
       <use xlink:href="#DejaVuSans-2e" x="127.246094"/>
       <use xlink:href="#DejaVuSans-30" x="159.033203"/>
      </g>
     </g>
    </g>
    <g id="ytick_4">
     <g id="line2d_10">
      <path d="M 56.805938 150.224609 
L 413.925938 150.224609 
" clip-path="url(#pd8932bb49d)" style="fill: none; stroke: #cccccc; stroke-linecap: round"/>
     </g>
     <g id="text_11">
      <!-- 22.5 -->
      <g style="fill: #262626" transform="translate(22.81375 154.40375) scale(0.11 -0.11)">
       <use xlink:href="#DejaVuSans-32"/>
       <use xlink:href="#DejaVuSans-32" x="63.623047"/>
       <use xlink:href="#DejaVuSans-2e" x="127.246094"/>
       <use xlink:href="#DejaVuSans-35" x="159.033203"/>
      </g>
     </g>
    </g>
    <g id="ytick_5">
     <g id="line2d_11">
      <path d="M 56.805938 119.086452 
L 413.925938 119.086452 
" clip-path="url(#pd8932bb49d)" style="fill: none; stroke: #cccccc; stroke-linecap: round"/>
     </g>
     <g id="text_12">
      <!-- 25.0 -->
      <g style="fill: #262626" transform="translate(22.81375 123.265592) scale(0.11 -0.11)">
       <use xlink:href="#DejaVuSans-32"/>
       <use xlink:href="#DejaVuSans-35" x="63.623047"/>
       <use xlink:href="#DejaVuSans-2e" x="127.246094"/>
       <use xlink:href="#DejaVuSans-30" x="159.033203"/>
      </g>
     </g>
    </g>
    <g id="ytick_6">
     <g id="line2d_12">
      <path d="M 56.805938 87.948294 
L 413.925938 87.948294 
" clip-path="url(#pd8932bb49d)" style="fill: none; stroke: #cccccc; stroke-linecap: round"/>
     </g>
     <g id="text_13">
      <!-- 27.5 -->
      <g style="fill: #262626" transform="translate(22.81375 92.127435) scale(0.11 -0.11)">
       <use xlink:href="#DejaVuSans-32"/>
       <use xlink:href="#DejaVuSans-37" x="63.623047"/>
       <use xlink:href="#DejaVuSans-2e" x="127.246094"/>
       <use xlink:href="#DejaVuSans-35" x="159.033203"/>
      </g>
     </g>
    </g>
    <g id="ytick_7">
     <g id="line2d_13">
      <path d="M 56.805938 56.810137 
L 413.925938 56.810137 
" clip-path="url(#pd8932bb49d)" style="fill: none; stroke: #cccccc; stroke-linecap: round"/>
     </g>
     <g id="text_14">
      <!-- 30.0 -->
      <g style="fill: #262626" transform="translate(22.81375 60.989277) scale(0.11 -0.11)">
       <defs>
        <path id="DejaVuSans-33" d="M 2597 2516 
Q 3050 2419 3304 2112 
Q 3559 1806 3559 1356 
Q 3559 666 3084 287 
Q 2609 -91 1734 -91 
Q 1441 -91 1130 -33 
Q 819 25 488 141 
L 488 750 
Q 750 597 1062 519 
Q 1375 441 1716 441 
Q 2309 441 2620 675 
Q 2931 909 2931 1356 
Q 2931 1769 2642 2001 
Q 2353 2234 1838 2234 
L 1294 2234 
L 1294 2753 
L 1863 2753 
Q 2328 2753 2575 2939 
Q 2822 3125 2822 3475 
Q 2822 3834 2567 4026 
Q 2313 4219 1838 4219 
Q 1578 4219 1281 4162 
Q 984 4106 628 3988 
L 628 4550 
Q 988 4650 1302 4700 
Q 1616 4750 1894 4750 
Q 2613 4750 3031 4423 
Q 3450 4097 3450 3541 
Q 3450 3153 3228 2886 
Q 3006 2619 2597 2516 
z
" transform="scale(0.015625)"/>
       </defs>
       <use xlink:href="#DejaVuSans-33"/>
       <use xlink:href="#DejaVuSans-30" x="63.623047"/>
       <use xlink:href="#DejaVuSans-2e" x="127.246094"/>
       <use xlink:href="#DejaVuSans-30" x="159.033203"/>
      </g>
     </g>
    </g>
    <g id="ytick_8">
     <g id="line2d_14">
      <path d="M 56.805938 25.671979 
L 413.925938 25.671979 
" clip-path="url(#pd8932bb49d)" style="fill: none; stroke: #cccccc; stroke-linecap: round"/>
     </g>
     <g id="text_15">
      <!-- 32.5 -->
      <g style="fill: #262626" transform="translate(22.81375 29.85112) scale(0.11 -0.11)">
       <use xlink:href="#DejaVuSans-33"/>
       <use xlink:href="#DejaVuSans-32" x="63.623047"/>
       <use xlink:href="#DejaVuSans-2e" x="127.246094"/>
       <use xlink:href="#DejaVuSans-35" x="159.033203"/>
      </g>
     </g>
    </g>
    <g id="text_16">
     <!-- Time (seconds) -->
     <g style="fill: #262626" transform="translate(16.318125 186.050062) rotate(-90) scale(0.12 -0.12)">
      <defs>
       <path id="DejaVuSans-54" d="M -19 4666 
L 3928 4666 
L 3928 4134 
L 2272 4134 
L 2272 0 
L 1638 0 
L 1638 4134 
L -19 4134 
L -19 4666 
z
" transform="scale(0.015625)"/>
       <path id="DejaVuSans-69" d="M 603 3500 
L 1178 3500 
L 1178 0 
L 603 0 
L 603 3500 
z
M 603 4863 
L 1178 4863 
L 1178 4134 
L 603 4134 
L 603 4863 
z
" transform="scale(0.015625)"/>
       <path id="DejaVuSans-6d" d="M 3328 2828 
Q 3544 3216 3844 3400 
Q 4144 3584 4550 3584 
Q 5097 3584 5394 3201 
Q 5691 2819 5691 2113 
L 5691 0 
L 5113 0 
L 5113 2094 
Q 5113 2597 4934 2840 
Q 4756 3084 4391 3084 
Q 3944 3084 3684 2787 
Q 3425 2491 3425 1978 
L 3425 0 
L 2847 0 
L 2847 2094 
Q 2847 2600 2669 2842 
Q 2491 3084 2119 3084 
Q 1678 3084 1418 2786 
Q 1159 2488 1159 1978 
L 1159 0 
L 581 0 
L 581 3500 
L 1159 3500 
L 1159 2956 
Q 1356 3278 1631 3431 
Q 1906 3584 2284 3584 
Q 2666 3584 2933 3390 
Q 3200 3197 3328 2828 
z
" transform="scale(0.015625)"/>
       <path id="DejaVuSans-28" d="M 1984 4856 
Q 1566 4138 1362 3434 
Q 1159 2731 1159 2009 
Q 1159 1288 1364 580 
Q 1569 -128 1984 -844 
L 1484 -844 
Q 1016 -109 783 600 
Q 550 1309 550 2009 
Q 550 2706 781 3412 
Q 1013 4119 1484 4856 
L 1984 4856 
z
" transform="scale(0.015625)"/>
       <path id="DejaVuSans-73" d="M 2834 3397 
L 2834 2853 
Q 2591 2978 2328 3040 
Q 2066 3103 1784 3103 
Q 1356 3103 1142 2972 
Q 928 2841 928 2578 
Q 928 2378 1081 2264 
Q 1234 2150 1697 2047 
L 1894 2003 
Q 2506 1872 2764 1633 
Q 3022 1394 3022 966 
Q 3022 478 2636 193 
Q 2250 -91 1575 -91 
Q 1294 -91 989 -36 
Q 684 19 347 128 
L 347 722 
Q 666 556 975 473 
Q 1284 391 1588 391 
Q 1994 391 2212 530 
Q 2431 669 2431 922 
Q 2431 1156 2273 1281 
Q 2116 1406 1581 1522 
L 1381 1569 
Q 847 1681 609 1914 
Q 372 2147 372 2553 
Q 372 3047 722 3315 
Q 1072 3584 1716 3584 
Q 2034 3584 2315 3537 
Q 2597 3491 2834 3397 
z
" transform="scale(0.015625)"/>
       <path id="DejaVuSans-63" d="M 3122 3366 
L 3122 2828 
Q 2878 2963 2633 3030 
Q 2388 3097 2138 3097 
Q 1578 3097 1268 2742 
Q 959 2388 959 1747 
Q 959 1106 1268 751 
Q 1578 397 2138 397 
Q 2388 397 2633 464 
Q 2878 531 3122 666 
L 3122 134 
Q 2881 22 2623 -34 
Q 2366 -91 2075 -91 
Q 1284 -91 818 406 
Q 353 903 353 1747 
Q 353 2603 823 3093 
Q 1294 3584 2113 3584 
Q 2378 3584 2631 3529 
Q 2884 3475 3122 3366 
z
" transform="scale(0.015625)"/>
       <path id="DejaVuSans-29" d="M 513 4856 
L 1013 4856 
Q 1481 4119 1714 3412 
Q 1947 2706 1947 2009 
Q 1947 1309 1714 600 
Q 1481 -109 1013 -844 
L 513 -844 
Q 928 -128 1133 580 
Q 1338 1288 1338 2009 
Q 1338 2731 1133 3434 
Q 928 4138 513 4856 
z
" transform="scale(0.015625)"/>
      </defs>
      <use xlink:href="#DejaVuSans-54"/>
      <use xlink:href="#DejaVuSans-69" x="57.958984"/>
      <use xlink:href="#DejaVuSans-6d" x="85.742188"/>
      <use xlink:href="#DejaVuSans-65" x="183.154297"/>
      <use xlink:href="#DejaVuSans-20" x="244.677734"/>
      <use xlink:href="#DejaVuSans-28" x="276.464844"/>
      <use xlink:href="#DejaVuSans-73" x="315.478516"/>
      <use xlink:href="#DejaVuSans-65" x="367.578125"/>
      <use xlink:href="#DejaVuSans-63" x="429.101562"/>
      <use xlink:href="#DejaVuSans-6f" x="484.082031"/>
      <use xlink:href="#DejaVuSans-6e" x="545.263672"/>
      <use xlink:href="#DejaVuSans-64" x="608.642578"/>
      <use xlink:href="#DejaVuSans-73" x="672.119141"/>
      <use xlink:href="#DejaVuSans-29" x="724.21875"/>
     </g>
    </g>
   </g>
   <g id="PolyCollection_1"/>
   <g id="PolyCollection_2"/>
   <g id="PolyCollection_3"/>
   <g id="PolyCollection_4"/>
   <g id="PolyCollection_5"/>
   <g id="line2d_15">
    <path d="M 73.038665 45.883989 
L 76.318004 147.68362 
L 79.597342 83.11589 
L 82.876681 112.061842 
L 86.15602 124.686929 
L 89.435359 140.177958 
L 92.714698 112.650573 
L 95.994037 94.72474 
L 99.273376 129.531223 
L 102.552714 134.627225 
L 105.832053 136.693422 
L 109.111392 118.389542 
L 112.390731 114.299152 
L 115.67007 133.895229 
L 118.949409 115.672181 
L 122.228747 88.1559 
L 125.508086 103.926843 
L 128.787425 147.606675 
L 132.066764 125.557344 
L 135.346103 135.728518 
L 138.625442 73.076576 
L 141.90478 117.175387 
L 145.184119 148.132378 
L 148.463458 92.283602 
L 151.742797 129.982428 
L 155.022136 112.988816 
L 158.301475 120.356927 
L 161.580814 133.30488 
L 164.860152 135.792361 
L 168.139491 142.439218 
L 171.41883 110.709546 
L 174.698169 91.717422 
L 177.977508 102.25403 
L 181.256847 126.626848 
L 184.536185 136.145436 
L 187.815524 94.219691 
L 191.094863 118.779286 
L 194.374202 152.711193 
L 197.653541 128.849393 
L 200.93288 128.548401 
L 204.212218 96.702017 
L 207.491557 116.434169 
L 210.770896 81.583098 
L 214.050235 84.333816 
L 217.329574 103.195389 
L 220.608913 122.807823 
L 223.888252 113.063866 
L 227.16759 104.769452 
L 230.446929 126.319495 
L 233.726268 119.536537 
L 237.005607 104.343497 
L 240.284946 140.572599 
L 243.564285 75.836735 
L 246.843623 76.271423 
L 250.122962 103.17279 
L 253.402301 106.517199 
L 256.68164 113.799012 
L 259.960979 147.834946 
L 263.240318 109.3098 
L 266.519657 105.382424 
L 269.798995 139.344606 
L 273.078334 104.558657 
L 276.357673 131.863075 
L 279.637012 122.084181 
L 282.916351 109.164802 
L 286.19569 131.100039 
L 289.475028 105.715505 
L 292.754367 92.637524 
L 296.033706 89.938488 
L 299.313045 178.252707 
L 302.592384 145.163741 
L 305.871723 113.872577 
L 309.151061 95.39825 
L 312.4304 96.143819 
L 315.709739 144.871254 
L 318.989078 122.528838 
L 322.268417 104.498749 
L 325.547756 132.502209 
L 328.827095 87.119331 
L 332.106433 88.924788 
L 335.385772 118.871743 
L 338.665111 115.419513 
L 341.94445 130.513268 
L 345.223789 81.331739 
L 348.503128 111.922979 
L 351.782466 119.59268 
L 355.061805 121.878325 
L 358.341144 126.273595 
L 361.620483 144.523901 
L 364.899822 86.349088 
L 368.179161 127.06613 
L 371.458499 132.73382 
L 374.737838 110.347523 
L 378.017177 121.530265 
L 381.296516 124.076632 
L 384.575855 139.421521 
L 387.855194 97.792664 
L 391.134533 121.949253 
L 394.413871 115.215928 
L 397.69321 115.976214 
" clip-path="url(#pd8932bb49d)" style="fill: none; stroke: #4c72b0; stroke-width: 1.5; stroke-linecap: round"/>
   </g>
   <g id="line2d_16">
    <path d="M 73.038665 36.259997 
L 76.318004 157.170754 
L 79.597342 141.916476 
L 82.876681 139.926038 
L 86.15602 99.230142 
L 89.435359 131.023822 
L 92.714698 121.993805 
L 95.994037 122.15951 
L 99.273376 154.47453 
L 102.552714 152.114299 
L 105.832053 106.027155 
L 109.111392 119.431465 
L 112.390731 145.047631 
L 115.67007 124.933293 
L 118.949409 122.894454 
L 122.228747 130.520814 
L 125.508086 117.327931 
L 128.787425 158.896779 
L 132.066764 137.333527 
L 135.346103 141.604796 
L 138.625442 95.073421 
L 141.90478 118.267297 
L 145.184119 114.829279 
L 148.463458 126.195869 
L 151.742797 139.746653 
L 155.022136 147.884152 
L 158.301475 131.500182 
L 161.580814 121.38943 
L 164.860152 107.095961 
L 168.139491 115.241656 
L 171.41883 97.851224 
L 174.698169 106.580127 
L 177.977508 97.803319 
L 181.256847 116.836607 
L 184.536185 115.019191 
L 187.815524 114.167466 
L 191.094863 107.020178 
L 194.374202 117.129573 
L 197.653541 109.543867 
L 200.93288 127.435491 
L 204.212218 108.157008 
L 207.491557 106.908519 
L 210.770896 95.044161 
L 214.050235 96.422851 
L 217.329574 102.47243 
L 220.608913 129.403351 
L 223.888252 122.183733 
L 227.16759 122.415721 
L 230.446929 130.50677 
L 233.726268 105.011097 
L 237.005607 125.835857 
L 240.284946 119.807973 
L 243.564285 122.838795 
L 246.843623 105.772209 
L 250.122962 121.465196 
L 253.402301 127.556741 
L 256.68164 119.510399 
L 259.960979 141.617503 
L 263.240318 137.651769 
L 266.519657 138.425638 
L 269.798995 215.453727 
L 273.078334 121.569264 
L 276.357673 136.198772 
L 279.637012 139.049387 
L 282.916351 98.314951 
L 286.19569 127.711913 
L 289.475028 129.511951 
L 292.754367 138.575765 
L 296.033706 139.103249 
L 299.313045 93.706149 
L 302.592384 124.237491 
L 305.871723 135.925964 
L 309.151061 137.367861 
L 312.4304 146.46268 
L 315.709739 161.225218 
L 318.989078 98.850516 
L 322.268417 126.254168 
L 325.547756 144.010032 
L 328.827095 120.100223 
L 332.106433 122.13559 
L 335.385772 136.867643 
L 338.665111 89.036055 
L 341.94445 131.484666 
L 345.223789 129.579295 
L 348.503128 137.917632 
L 351.782466 130.843323 
L 355.061805 132.695896 
L 358.341144 151.312139 
L 361.620483 140.806283 
L 364.899822 132.822046 
L 368.179161 159.305373 
L 371.458499 122.026019 
L 374.737838 134.785829 
L 378.017177 143.846733 
L 381.296516 144.236108 
L 384.575855 148.420654 
L 387.855194 105.436206 
L 391.134533 126.758932 
L 394.413871 121.875756 
L 397.69321 135.619021 
" clip-path="url(#pd8932bb49d)" style="fill: none; stroke: #dd8452; stroke-width: 1.5; stroke-linecap: round"/>
   </g>
   <g id="line2d_17">
    <path d="M 73.038665 19.296 
L 76.318004 122.862994 
L 79.597342 100.209514 
L 82.876681 132.004444 
L 86.15602 131.504634 
L 89.435359 139.073805 
L 92.714698 107.993872 
L 95.994037 110.339785 
L 99.273376 117.615836 
L 102.552714 136.918586 
L 105.832053 130.813696 
L 109.111392 127.602413 
L 112.390731 146.307164 
L 115.67007 81.020671 
L 118.949409 113.095299 
L 122.228747 120.488322 
L 125.508086 134.220943 
L 128.787425 136.803952 
L 132.066764 106.225415 
L 135.346103 98.24144 
L 138.625442 75.660491 
L 141.90478 120.610095 
L 145.184119 111.870843 
L 148.463458 97.377623 
L 151.742797 117.950821 
L 155.022136 127.460869 
L 158.301475 102.20054 
L 161.580814 121.649633 
L 164.860152 84.462736 
L 168.139491 135.871004 
L 171.41883 89.759872 
L 174.698169 84.701668 
L 177.977508 89.037457 
L 181.256847 86.189806 
L 184.536185 128.69208 
L 187.815524 119.921185 
L 191.094863 118.369646 
L 194.374202 126.683451 
L 197.653541 107.482816 
L 200.93288 130.580873 
L 204.212218 96.178239 
L 207.491557 100.435866 
L 210.770896 85.220017 
L 214.050235 79.987469 
L 217.329574 123.009661 
L 220.608913 123.258677 
L 223.888252 95.098113 
L 227.16759 123.06061 
L 230.446929 215.12069 
L 233.726268 135.729851 
L 237.005607 135.586403 
L 240.284946 92.39342 
L 243.564285 87.911994 
L 246.843623 103.055858 
L 250.122962 80.142297 
L 253.402301 86.395826 
L 256.68164 86.070688 
L 259.960979 127.054947 
L 263.240318 85.494316 
L 266.519657 82.852569 
L 269.798995 101.771431 
L 273.078334 90.139807 
L 276.357673 109.123917 
L 279.637012 111.92409 
L 282.916351 81.796217 
L 286.19569 109.543888 
L 289.475028 80.213961 
L 292.754367 112.439871 
L 296.033706 113.92934 
L 299.313045 66.129366 
L 302.592384 106.983171 
L 305.871723 103.088372 
L 309.151061 80.362443 
L 312.4304 111.301642 
L 315.709739 104.028812 
L 318.989078 95.435987 
L 322.268417 108.599874 
L 325.547756 103.972952 
L 328.827095 86.10754 
L 332.106433 88.515864 
L 335.385772 89.444373 
L 338.665111 82.234579 
L 341.94445 84.622698 
L 345.223789 85.336623 
L 348.503128 67.645201 
L 351.782466 45.236802 
L 355.061805 76.370357 
L 358.341144 77.292864 
L 361.620483 96.42332 
L 364.899822 99.479096 
L 368.179161 73.013227 
L 371.458499 73.241087 
L 374.737838 102.461544 
L 378.017177 94.225583 
L 381.296516 75.450923 
L 384.575855 82.424732 
L 387.855194 90.847983 
L 391.134533 98.618694 
L 394.413871 71.815538 
L 397.69321 65.295672 
" clip-path="url(#pd8932bb49d)" style="fill: none; stroke: #55a868; stroke-width: 1.5; stroke-linecap: round"/>
   </g>
   <g id="line2d_18">
    <path d="M 73.038665 171.154283 
L 76.318004 232.774651 
L 79.597342 162.52141 
L 82.876681 109.261093 
L 86.15602 102.860829 
L 89.435359 110.774645 
L 92.714698 91.630999 
L 95.994037 110.897778 
L 99.273376 125.11615 
L 102.552714 111.820039 
L 105.832053 119.100397 
L 109.111392 127.000565 
L 112.390731 112.887961 
L 115.67007 114.64165 
L 118.949409 125.639277 
L 122.228747 120.883497 
L 125.508086 121.404649 
L 128.787425 140.256402 
L 132.066764 135.559986 
L 135.346103 109.160576 
L 138.625442 112.68464 
L 141.90478 116.13598 
L 145.184119 127.2906 
L 148.463458 84.679363 
L 151.742797 79.477821 
L 155.022136 98.334129 
L 158.301475 104.015782 
L 161.580814 98.467127 
L 164.860152 99.429017 
L 168.139491 110.379728 
L 171.41883 112.441103 
L 174.698169 113.667326 
L 177.977508 123.5133 
L 181.256847 113.892903 
L 184.536185 126.598346 
L 187.815524 123.800534 
L 191.094863 50.766134 
L 194.374202 130.662925 
L 197.653541 103.452746 
L 200.93288 134.533838 
L 204.212218 97.754713 
L 207.491557 131.325171 
L 210.770896 103.828607 
L 214.050235 91.83298 
L 217.329574 122.52341 
L 220.608913 93.287105 
L 223.888252 116.690597 
L 227.16759 107.191169 
L 230.446929 126.589791 
L 233.726268 103.306831 
L 237.005607 128.905782 
L 240.284946 135.672907 
L 243.564285 113.55483 
L 246.843623 118.641011 
L 250.122962 110.836442 
L 253.402301 121.990773 
L 256.68164 112.066656 
L 259.960979 125.383393 
L 263.240318 136.324311 
L 266.519657 115.890245 
L 269.798995 132.462111 
L 273.078334 97.929852 
L 276.357673 128.395747 
L 279.637012 120.877139 
L 282.916351 78.933006 
L 286.19569 113.116341 
L 289.475028 92.519799 
L 292.754367 107.217417 
L 296.033706 122.371062 
L 299.313045 109.128398 
L 302.592384 107.42104 
L 305.871723 96.282583 
L 309.151061 126.314949 
L 312.4304 83.575382 
L 315.709739 113.239305 
L 318.989078 94.124018 
L 322.268417 102.973672 
L 325.547756 86.649347 
L 328.827095 80.853864 
L 332.106433 77.850169 
L 335.385772 89.404635 
L 338.665111 88.563624 
L 341.94445 121.831735 
L 345.223789 107.681685 
L 348.503128 132.638833 
L 351.782466 111.369152 
L 355.061805 112.20137 
L 358.341144 112.972335 
L 361.620483 110.809597 
L 364.899822 91.839388 
L 368.179161 122.803294 
L 371.458499 106.16181 
L 374.737838 102.696926 
L 378.017177 104.781547 
L 381.296516 104.996374 
L 384.575855 118.206041 
L 387.855194 104.647703 
L 391.134533 113.921144 
L 394.413871 104.927528 
L 397.69321 114.188598 
" clip-path="url(#pd8932bb49d)" style="fill: none; stroke: #c44e52; stroke-width: 1.5; stroke-linecap: round"/>
   </g>
   <g id="line2d_19">
    <path d="M 73.038665 168.939299 
L 76.318004 245.889948 
L 79.597342 190.152089 
L 82.876681 221.714656 
L 86.15602 237.129974 
L 89.435359 198.869081 
L 92.714698 219.546229 
L 95.994037 236.050391 
L 99.273376 209.255765 
L 102.552714 224.424157 
L 105.832053 239.795961 
L 109.111392 220.876291 
L 112.390731 224.390865 
L 115.67007 246.822837 
L 118.949409 196.232308 
L 122.228747 236.869534 
L 125.508086 246.704802 
L 128.787425 215.133629 
L 132.066764 219.174044 
L 135.346103 257.591137 
L 138.625442 200.291345 
L 141.90478 231.963354 
L 145.184119 249.705617 
L 148.463458 207.718055 
L 151.742797 226.097478 
L 155.022136 245.517407 
L 158.301475 224.752107 
L 161.580814 228.20938 
L 164.860152 235.690221 
L 168.139491 219.721196 
L 171.41883 231.493815 
L 174.698169 224.282782 
L 177.977508 224.459919 
L 181.256847 251.707651 
L 184.536185 211.95937 
L 187.815524 246.45083 
L 191.094863 241.597648 
L 194.374202 211.788828 
L 197.653541 225.345138 
L 200.93288 249.430407 
L 204.212218 212.735187 
L 207.491557 223.081812 
L 210.770896 227.811107 
L 214.050235 201.72501 
L 217.329574 232.734235 
L 220.608913 245.176854 
L 223.888252 220.962456 
L 227.16759 236.164048 
L 230.446929 244.121013 
L 233.726268 214.340526 
L 237.005607 218.523184 
L 240.284946 240.885896 
L 243.564285 196.29806 
L 246.843623 219.002917 
L 250.122962 240.118522 
L 253.402301 213.63431 
L 256.68164 226.026042 
L 259.960979 246.332603 
L 263.240318 212.721988 
L 266.519657 231.979398 
L 269.798995 240.5562 
L 273.078334 219.875916 
L 276.357673 246.114735 
L 279.637012 228.056898 
L 282.916351 223.775705 
L 286.19569 231.972972 
L 289.475028 221.682695 
L 292.754367 226.420252 
L 296.033706 232.095856 
L 299.313045 237.117134 
L 302.592384 241.18462 
L 305.871723 242.493898 
L 309.151061 212.033054 
L 312.4304 226.862898 
L 315.709739 251.183582 
L 318.989078 225.814917 
L 322.268417 236.266169 
L 325.547756 233.733429 
L 328.827095 222.502533 
L 332.106433 261.216 
L 335.385772 220.982347 
L 338.665111 233.719778 
L 341.94445 238.234572 
L 345.223789 219.386098 
L 348.503128 235.283813 
L 351.782466 218.118405 
L 355.061805 246.019682 
L 358.341144 211.546497 
L 361.620483 237.392243 
L 364.899822 224.484929 
L 368.179161 258.558612 
L 371.458499 213.94732 
L 374.737838 231.138815 
L 378.017177 240.014925 
L 381.296516 239.510066 
L 384.575855 242.091846 
L 387.855194 195.667496 
L 391.134533 232.646698 
L 394.413871 239.257532 
L 397.69321 222.157677 
" clip-path="url(#pd8932bb49d)" style="fill: none; stroke: #8172b3; stroke-width: 1.5; stroke-linecap: round"/>
   </g>
   <g id="line2d_20"/>
   <g id="line2d_21"/>
   <g id="line2d_22"/>
   <g id="line2d_23"/>
   <g id="line2d_24"/>
   <g id="patch_3">
    <path d="M 56.805938 273.312 
L 56.805938 7.2 
" style="fill: none; stroke: #cccccc; stroke-width: 1.25; stroke-linejoin: miter; stroke-linecap: square"/>
   </g>
   <g id="patch_4">
    <path d="M 413.925938 273.312 
L 413.925938 7.2 
" style="fill: none; stroke: #cccccc; stroke-width: 1.25; stroke-linejoin: miter; stroke-linecap: square"/>
   </g>
   <g id="patch_5">
    <path d="M 56.805937 273.312 
L 413.925938 273.312 
" style="fill: none; stroke: #cccccc; stroke-width: 1.25; stroke-linejoin: miter; stroke-linecap: square"/>
   </g>
   <g id="patch_6">
    <path d="M 56.805937 7.2 
L 413.925938 7.2 
" style="fill: none; stroke: #cccccc; stroke-width: 1.25; stroke-linejoin: miter; stroke-linecap: square"/>
   </g>
   <g id="legend_1">
    <g id="patch_7">
     <path d="M 302.241563 267.812 
L 406.225938 267.812 
Q 408.425938 267.812 408.425938 265.612 
L 408.425938 168.868562 
Q 408.425938 166.668562 406.225938 166.668562 
L 302.241563 166.668562 
Q 300.041563 166.668562 300.041563 168.868562 
L 300.041563 265.612 
Q 300.041563 267.812 302.241563 267.812 
z
" style="fill: #ffffff; opacity: 0.8; stroke: #cccccc; stroke-linejoin: miter"/>
    </g>
    <g id="text_17">
     <!-- Strategy -->
     <g style="fill: #262626" transform="translate(328.524688 180.186687) scale(0.12 -0.12)">
      <defs>
       <path id="DejaVuSans-74" d="M 1172 4494 
L 1172 3500 
L 2356 3500 
L 2356 3053 
L 1172 3053 
L 1172 1153 
Q 1172 725 1289 603 
Q 1406 481 1766 481 
L 2356 481 
L 2356 0 
L 1766 0 
Q 1100 0 847 248 
Q 594 497 594 1153 
L 594 3053 
L 172 3053 
L 172 3500 
L 594 3500 
L 594 4494 
L 1172 4494 
z
" transform="scale(0.015625)"/>
       <path id="DejaVuSans-61" d="M 2194 1759 
Q 1497 1759 1228 1600 
Q 959 1441 959 1056 
Q 959 750 1161 570 
Q 1363 391 1709 391 
Q 2188 391 2477 730 
Q 2766 1069 2766 1631 
L 2766 1759 
L 2194 1759 
z
M 3341 1997 
L 3341 0 
L 2766 0 
L 2766 531 
Q 2569 213 2275 61 
Q 1981 -91 1556 -91 
Q 1019 -91 701 211 
Q 384 513 384 1019 
Q 384 1609 779 1909 
Q 1175 2209 1959 2209 
L 2766 2209 
L 2766 2266 
Q 2766 2663 2505 2880 
Q 2244 3097 1772 3097 
Q 1472 3097 1187 3025 
Q 903 2953 641 2809 
L 641 3341 
Q 956 3463 1253 3523 
Q 1550 3584 1831 3584 
Q 2591 3584 2966 3190 
Q 3341 2797 3341 1997 
z
" transform="scale(0.015625)"/>
       <path id="DejaVuSans-67" d="M 2906 1791 
Q 2906 2416 2648 2759 
Q 2391 3103 1925 3103 
Q 1463 3103 1205 2759 
Q 947 2416 947 1791 
Q 947 1169 1205 825 
Q 1463 481 1925 481 
Q 2391 481 2648 825 
Q 2906 1169 2906 1791 
z
M 3481 434 
Q 3481 -459 3084 -895 
Q 2688 -1331 1869 -1331 
Q 1566 -1331 1297 -1286 
Q 1028 -1241 775 -1147 
L 775 -588 
Q 1028 -725 1275 -790 
Q 1522 -856 1778 -856 
Q 2344 -856 2625 -561 
Q 2906 -266 2906 331 
L 2906 616 
Q 2728 306 2450 153 
Q 2172 0 1784 0 
Q 1141 0 747 490 
Q 353 981 353 1791 
Q 353 2603 747 3093 
Q 1141 3584 1784 3584 
Q 2172 3584 2450 3431 
Q 2728 3278 2906 2969 
L 2906 3500 
L 3481 3500 
L 3481 434 
z
" transform="scale(0.015625)"/>
       <path id="DejaVuSans-79" d="M 2059 -325 
Q 1816 -950 1584 -1140 
Q 1353 -1331 966 -1331 
L 506 -1331 
L 506 -850 
L 844 -850 
Q 1081 -850 1212 -737 
Q 1344 -625 1503 -206 
L 1606 56 
L 191 3500 
L 800 3500 
L 1894 763 
L 2988 3500 
L 3597 3500 
L 2059 -325 
z
" transform="scale(0.015625)"/>
      </defs>
      <use xlink:href="#DejaVuSans-53"/>
      <use xlink:href="#DejaVuSans-74" x="63.476562"/>
      <use xlink:href="#DejaVuSans-72" x="102.685547"/>
      <use xlink:href="#DejaVuSans-61" x="143.798828"/>
      <use xlink:href="#DejaVuSans-74" x="205.078125"/>
      <use xlink:href="#DejaVuSans-65" x="244.287109"/>
      <use xlink:href="#DejaVuSans-67" x="305.810547"/>
      <use xlink:href="#DejaVuSans-79" x="369.287109"/>
     </g>
    </g>
    <g id="line2d_25">
     <path d="M 304.441563 192.690594 
L 315.441563 192.690594 
L 326.441563 192.690594 
" style="fill: none; stroke: #4c72b0; stroke-width: 1.5; stroke-linecap: round"/>
    </g>
    <g id="text_18">
     <!-- FedPredict -->
     <g style="fill: #262626" transform="translate(335.241563 196.540594) scale(0.11 -0.11)">
      <defs>
       <path id="DejaVuSans-46" d="M 628 4666 
L 3309 4666 
L 3309 4134 
L 1259 4134 
L 1259 2759 
L 3109 2759 
L 3109 2228 
L 1259 2228 
L 1259 0 
L 628 0 
L 628 4666 
z
" transform="scale(0.015625)"/>
       <path id="DejaVuSans-50" d="M 1259 4147 
L 1259 2394 
L 2053 2394 
Q 2494 2394 2734 2622 
Q 2975 2850 2975 3272 
Q 2975 3691 2734 3919 
Q 2494 4147 2053 4147 
L 1259 4147 
z
M 628 4666 
L 2053 4666 
Q 2838 4666 3239 4311 
Q 3641 3956 3641 3272 
Q 3641 2581 3239 2228 
Q 2838 1875 2053 1875 
L 1259 1875 
L 1259 0 
L 628 0 
L 628 4666 
z
" transform="scale(0.015625)"/>
      </defs>
      <use xlink:href="#DejaVuSans-46"/>
      <use xlink:href="#DejaVuSans-65" x="52.019531"/>
      <use xlink:href="#DejaVuSans-64" x="113.542969"/>
      <use xlink:href="#DejaVuSans-50" x="177.019531"/>
      <use xlink:href="#DejaVuSans-72" x="235.572266"/>
      <use xlink:href="#DejaVuSans-65" x="274.435547"/>
      <use xlink:href="#DejaVuSans-64" x="335.958984"/>
      <use xlink:href="#DejaVuSans-69" x="399.435547"/>
      <use xlink:href="#DejaVuSans-63" x="427.21875"/>
      <use xlink:href="#DejaVuSans-74" x="482.199219"/>
     </g>
    </g>
    <g id="line2d_26">
     <path d="M 304.441563 208.836531 
L 315.441563 208.836531 
L 326.441563 208.836531 
" style="fill: none; stroke: #dd8452; stroke-width: 1.5; stroke-linecap: round"/>
    </g>
    <g id="text_19">
     <!-- FedAVG -->
     <g style="fill: #262626" transform="translate(335.241563 212.686531) scale(0.11 -0.11)">
      <defs>
       <path id="DejaVuSans-41" d="M 2188 4044 
L 1331 1722 
L 3047 1722 
L 2188 4044 
z
M 1831 4666 
L 2547 4666 
L 4325 0 
L 3669 0 
L 3244 1197 
L 1141 1197 
L 716 0 
L 50 0 
L 1831 4666 
z
" transform="scale(0.015625)"/>
       <path id="DejaVuSans-56" d="M 1831 0 
L 50 4666 
L 709 4666 
L 2188 738 
L 3669 4666 
L 4325 4666 
L 2547 0 
L 1831 0 
z
" transform="scale(0.015625)"/>
       <path id="DejaVuSans-47" d="M 3809 666 
L 3809 1919 
L 2778 1919 
L 2778 2438 
L 4434 2438 
L 4434 434 
Q 4069 175 3628 42 
Q 3188 -91 2688 -91 
Q 1594 -91 976 548 
Q 359 1188 359 2328 
Q 359 3472 976 4111 
Q 1594 4750 2688 4750 
Q 3144 4750 3555 4637 
Q 3966 4525 4313 4306 
L 4313 3634 
Q 3963 3931 3569 4081 
Q 3175 4231 2741 4231 
Q 1884 4231 1454 3753 
Q 1025 3275 1025 2328 
Q 1025 1384 1454 906 
Q 1884 428 2741 428 
Q 3075 428 3337 486 
Q 3600 544 3809 666 
z
" transform="scale(0.015625)"/>
      </defs>
      <use xlink:href="#DejaVuSans-46"/>
      <use xlink:href="#DejaVuSans-65" x="52.019531"/>
      <use xlink:href="#DejaVuSans-64" x="113.542969"/>
      <use xlink:href="#DejaVuSans-41" x="177.019531"/>
      <use xlink:href="#DejaVuSans-56" x="239.052734"/>
      <use xlink:href="#DejaVuSans-47" x="307.460938"/>
     </g>
    </g>
    <g id="line2d_27">
     <path d="M 304.441563 224.982469 
L 315.441563 224.982469 
L 326.441563 224.982469 
" style="fill: none; stroke: #55a868; stroke-width: 1.5; stroke-linecap: round"/>
    </g>
    <g id="text_20">
     <!-- FedClassAvg -->
     <g style="fill: #262626" transform="translate(335.241563 228.832469) scale(0.11 -0.11)">
      <defs>
       <path id="DejaVuSans-43" d="M 4122 4306 
L 4122 3641 
Q 3803 3938 3442 4084 
Q 3081 4231 2675 4231 
Q 1875 4231 1450 3742 
Q 1025 3253 1025 2328 
Q 1025 1406 1450 917 
Q 1875 428 2675 428 
Q 3081 428 3442 575 
Q 3803 722 4122 1019 
L 4122 359 
Q 3791 134 3420 21 
Q 3050 -91 2638 -91 
Q 1578 -91 968 557 
Q 359 1206 359 2328 
Q 359 3453 968 4101 
Q 1578 4750 2638 4750 
Q 3056 4750 3426 4639 
Q 3797 4528 4122 4306 
z
" transform="scale(0.015625)"/>
       <path id="DejaVuSans-6c" d="M 603 4863 
L 1178 4863 
L 1178 0 
L 603 0 
L 603 4863 
z
" transform="scale(0.015625)"/>
      </defs>
      <use xlink:href="#DejaVuSans-46"/>
      <use xlink:href="#DejaVuSans-65" x="52.019531"/>
      <use xlink:href="#DejaVuSans-64" x="113.542969"/>
      <use xlink:href="#DejaVuSans-43" x="177.019531"/>
      <use xlink:href="#DejaVuSans-6c" x="246.84375"/>
      <use xlink:href="#DejaVuSans-61" x="274.626953"/>
      <use xlink:href="#DejaVuSans-73" x="335.90625"/>
      <use xlink:href="#DejaVuSans-73" x="388.005859"/>
      <use xlink:href="#DejaVuSans-41" x="440.105469"/>
      <use xlink:href="#DejaVuSans-76" x="502.638672"/>
      <use xlink:href="#DejaVuSans-67" x="561.818359"/>
     </g>
    </g>
    <g id="line2d_28">
     <path d="M 304.441563 241.128406 
L 315.441563 241.128406 
L 326.441563 241.128406 
" style="fill: none; stroke: #c44e52; stroke-width: 1.5; stroke-linecap: round"/>
    </g>
    <g id="text_21">
     <!-- FedPer -->
     <g style="fill: #262626" transform="translate(335.241563 244.978406) scale(0.11 -0.11)">
      <use xlink:href="#DejaVuSans-46"/>
      <use xlink:href="#DejaVuSans-65" x="52.019531"/>
      <use xlink:href="#DejaVuSans-64" x="113.542969"/>
      <use xlink:href="#DejaVuSans-50" x="177.019531"/>
      <use xlink:href="#DejaVuSans-65" x="233.697266"/>
      <use xlink:href="#DejaVuSans-72" x="295.220703"/>
     </g>
    </g>
    <g id="line2d_29">
     <path d="M 304.441563 257.274344 
L 315.441563 257.274344 
L 326.441563 257.274344 
" style="fill: none; stroke: #8172b3; stroke-width: 1.5; stroke-linecap: round"/>
    </g>
    <g id="text_22">
     <!-- FedProto -->
     <g style="fill: #262626" transform="translate(335.241563 261.124344) scale(0.11 -0.11)">
      <use xlink:href="#DejaVuSans-46"/>
      <use xlink:href="#DejaVuSans-65" x="52.019531"/>
      <use xlink:href="#DejaVuSans-64" x="113.542969"/>
      <use xlink:href="#DejaVuSans-50" x="177.019531"/>
      <use xlink:href="#DejaVuSans-72" x="235.572266"/>
      <use xlink:href="#DejaVuSans-6f" x="274.435547"/>
      <use xlink:href="#DejaVuSans-74" x="335.617188"/>
      <use xlink:href="#DejaVuSans-6f" x="374.826172"/>
     </g>
    </g>
   </g>
  </g>
 </g>
 <defs>
  <clipPath id="pd8932bb49d">
   <rect x="56.805938" y="7.2" width="357.12" height="266.112"/>
  </clipPath>
 </defs>
</svg>
